<?xml version="1.0" encoding="UTF-8" standalone="no"?>
<!-- Generated by SVGo -->

<svg
   xmlns:dc="http://purl.org/dc/elements/1.1/"
   xmlns:cc="http://creativecommons.org/ns#"
   xmlns:rdf="http://www.w3.org/1999/02/22-rdf-syntax-ns#"
   xmlns:svg="http://www.w3.org/2000/svg"
   xmlns="http://www.w3.org/2000/svg"
   xmlns:xlink="http://www.w3.org/1999/xlink"
   xmlns:sodipodi="http://sodipodi.sourceforge.net/DTD/sodipodi-0.dtd"
   xmlns:inkscape="http://www.inkscape.org/namespaces/inkscape"
   width="248.039mm"
   height="174.96585mm"
   viewBox="0 0 248.039 174.96585"
   id="svg2"
   version="1.1"
   inkscape:version="0.91 r13725"
   sodipodi:docname="right__ml_tl3.svg">
  <metadata
     id="metadata86">
    <rdf:RDF>
      <cc:Work
         rdf:about="">
        <dc:format>image/svg+xml</dc:format>
        <dc:type
           rdf:resource="http://purl.org/dc/dcmitype/StillImage" />
        <dc:title />
      </cc:Work>
    </rdf:RDF>
  </metadata>
  <defs
     id="defs84">
    <linearGradient
       id="DCS">
      <stop
         id="stop4904"
         stop-opacity="0"
         stop-color="black"
         offset="0%" />
      <stop
         id="stop4906"
         stop-opacity="0.1"
         stop-color="black"
         offset="40%" />
      <stop
         id="stop4908"
         stop-opacity="0.1"
         stop-color="black"
         offset="60%" />
      <stop
         id="stop4910"
         stop-opacity="0"
         stop-color="black"
         offset="100%" />
    </linearGradient>
    <linearGradient
       y2="1"
       y1="0"
       x2="0"
       x1="0"
       id="SPACE">
      <stop
         id="stop4913"
         stop-opacity="0.1"
         stop-color="black"
         offset="0%" />
      <stop
         id="stop4915"
         stop-opacity="0.0"
         stop-color="black"
         offset="20%" />
      <stop
         id="stop4917"
         stop-opacity="0.0"
         stop-color="black"
         offset="40%" />
      <stop
         id="stop4919"
         stop-opacity="0.1"
         stop-color="black"
         offset="100%" />
    </linearGradient>
    <radialGradient
       id="DSA">
      <stop
         id="stop4922"
         stop-opacity="0.1"
         stop-color="black"
         offset="0%" />
      <stop
         id="stop4924"
         stop-opacity="0.1"
         stop-color="black"
         offset="10%" />
      <stop
         id="stop4926"
         stop-opacity="0"
         stop-color="black"
         offset="100%" />
    </radialGradient>
    <radialGradient
       xlink:href="#DSA"
       id="SA" />
    <radialGradient
       id="DSA-3">
      <stop
         id="stop7203"
         stop-opacity="0.1"
         stop-color="black"
         offset="0%" />
      <stop
         id="stop7205"
         stop-opacity="0.1"
         stop-color="black"
         offset="10%" />
      <stop
         id="stop7207"
         stop-opacity="0"
         stop-color="black"
         offset="100%" />
    </radialGradient>
    <radialGradient
       xlink:href="#DSA-3"
       id="SA-6" />
  </defs>
  <sodipodi:namedview
     pagecolor="#ffffff"
     bordercolor="#666666"
     borderopacity="1"
     objecttolerance="10"
     gridtolerance="10"
     guidetolerance="10"
     inkscape:pageopacity="0"
     inkscape:pageshadow="2"
     inkscape:window-width="1403"
     inkscape:window-height="952"
     id="namedview82"
     showgrid="false"
     inkscape:zoom="0.91935363"
     inkscape:cx="439.43918"
     inkscape:cy="309.97887"
     inkscape:window-x="963"
     inkscape:window-y="338"
     inkscape:window-maximized="0"
     inkscape:current-layer="layer13"
     inkscape:document-units="mm"
     showguides="false"
     inkscape:guide-bbox="true"
     inkscape:snap-bbox="true"
     inkscape:snap-bbox-midpoints="true"
     inkscape:snap-global="true"
     inkscape:snap-nodes="false"
     fit-margin-top="5"
     fit-margin-left="5"
     fit-margin-right="5"
     fit-margin-bottom="5">
    <sodipodi:guide
       position="67.748021,155.90647"
       orientation="0,1"
       id="guide4527" />
    <sodipodi:guide
       position="85.706513,159.40685"
       orientation="1,0"
       id="guide4531" />
    <sodipodi:guide
       position="121.34707,151.95423"
       orientation="1,0"
       id="guide4533" />
    <sodipodi:guide
       position="125.78618,151.90042"
       orientation="1,0"
       id="guide4535" />
    <sodipodi:guide
       position="161.37984,153.67607"
       orientation="1,0"
       id="guide4537" />
    <sodipodi:guide
       position="165.73824,153.83749"
       orientation="1,0"
       id="guide4539" />
    <sodipodi:guide
       position="74.824885,133.99102"
       orientation="0,1"
       id="guide4541" />
    <sodipodi:guide
       position="54.716701,26.030828"
       orientation="1,0"
       id="guide4543" />
    <sodipodi:guide
       position="58.616585,56.145541"
       orientation="0,1"
       id="guide4545" />
    <sodipodi:guide
       position="59.130229,80.800418"
       orientation="0,1"
       id="guide4547" />
    <sodipodi:guide
       position="60.233611,20.846835"
       orientation="0,1"
       id="guide4549" />
    <sodipodi:guide
       position="193.22916,37.730479"
       orientation="1,0"
       id="guide4551" />
    <sodipodi:guide
       position="198.90778,152.3395"
       orientation="1,0"
       id="guide4589" />
    <sodipodi:guide
       position="55.468142,30.377772"
       orientation="0,1"
       id="guide4651" />
    <sodipodi:guide
       position="71.682736,86.14766"
       orientation="1,0"
       id="guide4653" />
    <sodipodi:guide
       position="176.33601,122.57674"
       orientation="1,0"
       id="guide4655" />
    <sodipodi:guide
       position="123.5229,137.87907"
       orientation="1,0"
       id="guide10034" />
  </sodipodi:namedview>
  <g
     inkscape:groupmode="layer"
     id="layer10"
     inkscape:label="dills_32_faceplate"
     style="display:inline"
     transform="translate(40.582,-2.3995023)">
    <circle
       style="opacity:1;fill:none;fill-opacity:1;stroke:#0000ff;stroke-width:0.2;stroke-linejoin:miter;stroke-miterlimit:4;stroke-dasharray:none;stroke-opacity:1"
       id="use4579"
       cx="82.919411"
       cy="10.82286"
       r="1.5" />
    <circle
       r="1.5"
       cy="32.182663"
       cx="198.6794"
       id="use4585"
       style="opacity:1;fill:none;fill-opacity:1;stroke:#0000ff;stroke-width:0.2;stroke-linejoin:miter;stroke-miterlimit:4;stroke-dasharray:none;stroke-opacity:1" />
    <use
       x="0"
       y="0"
       xlink:href="#use4585"
       id="use4593"
       transform="translate(0,64.346669)"
       width="100%"
       height="100%"
       style="fill:none;stroke:#0000ff;stroke-opacity:1;opacity:1" />
    <use
       x="0"
       y="0"
       xlink:href="#use4593"
       id="use4599"
       transform="translate(0,50.457537)"
       width="100%"
       height="100%"
       style="fill:none;stroke:#0000ff;stroke-opacity:1;opacity:1" />
    <use
       x="0"
       y="0"
       xlink:href="#use4585"
       id="use4609"
       transform="translate(-230.80281,0)"
       width="100%"
       height="100%"
       style="fill:none;stroke:#0000ff;stroke-opacity:1;opacity:1" />
    <use
       x="0"
       y="0"
       xlink:href="#use4593"
       id="use4611"
       transform="translate(-230.80281,0)"
       width="100%"
       height="100%"
       style="fill:none;stroke:#0000ff;stroke-opacity:1;opacity:1" />
    <use
       x="0"
       y="0"
       xlink:href="#use4599"
       id="use4613"
       transform="translate(-230.80281,0)"
       width="100%"
       height="100%"
       style="fill:none;stroke:#0000ff;stroke-opacity:1;opacity:1" />
    <use
       x="0"
       y="0"
       xlink:href="#use4579"
       id="use4623"
       transform="translate(-92.461237,0)"
       width="100%"
       height="100%"
       style="fill:none;stroke:#0000ff;stroke-opacity:1;opacity:1" />
    <use
       x="0"
       y="0"
       xlink:href="#use4623"
       id="use4629"
       transform="translate(185.93017,0)"
       width="100%"
       height="100%"
       style="fill:none;stroke:#0000ff;stroke-opacity:1;opacity:1" />
    <use
       x="0"
       y="0"
       xlink:href="#use4579"
       id="use4639"
       transform="translate(0.56444445,156.23579)"
       width="100%"
       height="100%"
       style="fill:none;stroke:#0000ff;stroke-opacity:1;opacity:1" />
    <use
       x="0"
       y="0"
       xlink:href="#use4623"
       id="use4641"
       transform="translate(0,156.23579)"
       width="100%"
       height="100%"
       style="fill:none;stroke:#0000ff;stroke-opacity:1;opacity:1" />
    <use
       x="0"
       y="0"
       xlink:href="#use4629"
       id="use4643"
       transform="translate(0,156.23579)"
       width="100%"
       height="100%"
       style="fill:none;stroke:#0000ff;stroke-opacity:1;opacity:1" />
  </g>
  <g
     inkscape:groupmode="layer"
     id="layer13"
     inkscape:label="faceplate"
     style="display:inline"
     transform="translate(40.582,-2.3995023)">
    <g
       id="g5158"
       transform="translate(-40.481,2.5005023)"
       style="fill:none;stroke:#0000ff;stroke-opacity:1;opacity:1">
      <polygon
         id="polygon5134"
         style="fill:none;stroke:#0000ff;stroke-width:0.2;stroke-opacity:1"
         points="242.807,7.108 242.83,7.303 242.838,7.5 242.838,165.563 242.83,165.759 242.807,165.954 242.769,166.147 242.716,166.336 242.648,166.52 242.566,166.698 242.47,166.869 242.361,167.032 242.239,167.187 242.106,167.331 241.962,167.464 241.807,167.586 241.644,167.695 241.473,167.791 241.295,167.873 241.111,167.941 240.922,167.994 240.729,168.032 240.534,168.055 240.338,168.063 7.5,168.063 7.303,168.055 7.108,168.032 6.916,167.994 6.727,167.941 6.543,167.873 6.365,167.791 6.193,167.695 6.03,167.586 5.876,167.464 5.732,167.331 5.598,167.187 5.477,167.032 5.368,166.869 5.272,166.698 5.19,166.52 5.122,166.336 5.069,166.147 5.03,165.954 5.007,165.759 4.999,165.563 5,7.5 5.007,7.303 5.03,7.108 5.069,6.916 5.122,6.727 5.19,6.543 5.272,6.365 5.368,6.193 5.477,6.03 5.598,5.876 5.732,5.732 5.876,5.598 6.03,5.477 6.193,5.368 6.365,5.272 6.543,5.19 6.727,5.122 6.916,5.069 7.108,5.03 7.303,5.007 7.5,4.999 240.338,5 240.534,5.007 240.729,5.03 240.922,5.069 241.111,5.122 241.295,5.19 241.473,5.272 241.644,5.368 241.807,5.477 241.962,5.598 242.106,5.732 242.239,5.876 242.361,6.03 242.47,6.193 242.566,6.365 242.648,6.543 242.716,6.727 242.769,6.916 " />
      <polygon
         id="polygon5136"
         style="fill:none;stroke:#0000ff;stroke-width:0.2;stroke-opacity:1"
         points="26.286,122.963 26.286,142.011 11.999,142.011 11.999,161.063 173.926,161.063 173.926,65.811 21.523,65.811 21.523,84.861 11.998,84.861 11.998,103.913 16.761,103.913 16.761,122.963 " />
      <polygon
         id="polygon5138"
         style="fill:none;stroke:#0000ff;stroke-width:0.2;stroke-opacity:1"
         points="235.838,161.063 235.838,122.961 178.686,122.961 178.686,161.063 " />
      <polygon
         id="polygon5140"
         style="fill:none;stroke:#0000ff;stroke-width:0.2;stroke-opacity:1"
         points="235.838,103.913 235.838,65.811 178.686,65.811 178.686,103.913 " />
      <path
         style="fill:none;stroke:#0000ff;stroke-width:0.70866144;stroke-opacity:1"
         d="m 221.63086,44.876953 0,104.292967 -26.88281,0 0,67.50781 270.00195,0 16.87109,0 135.00977,0 16.86719,0.002 202.50586,0 0,-67.50977 -181.88477,0 0,-104.292967 c -144.16276,-2e-5 -288.32552,4.6e-5 -432.48828,-4e-5 z"
         transform="matrix(0.28222222,0,0,0.2822222,-0.101,-0.101)"
         id="polygon5144"
         inkscape:connector-curvature="0"
         sodipodi:nodetypes="ccccccccccccc" />
      <polygon
         id="polygon5146"
         style="fill:none;stroke:#0000ff;stroke-width:0.2;stroke-opacity:1"
         points="50.101,61.05 50.101,41.998 11.998,41.998 11.998,61.05 " />
    </g>
  </g>
  <style
     id="style4899"
     type="text/css">
    .keycap .border { stroke: black; stroke-width: 2; }
    .keycap .inner.border { stroke: rgba(0,0,0,.1); }
    </style>
  <style
     id="style7180"
     type="text/css">
    .keycap .border { stroke: black; stroke-width: 2; }
    .keycap .inner.border { stroke: rgba(0,0,0,.1); }
    </style>
</svg>
