G75*
%MOIN*%
%OFA0B0*%
%FSLAX25Y25*%
%IPPOS*%
%LPD*%
%AMOC8*
5,1,8,0,0,1.08239X$1,22.5*
%
%ADD10C,0.00000*%
D10*
X0008000Y0021082D02*
X0008000Y0139193D01*
X0165480Y0139193D01*
X0165480Y0021082D01*
X0008000Y0021082D01*
X0081228Y0028956D02*
X0081230Y0029104D01*
X0081236Y0029252D01*
X0081246Y0029400D01*
X0081260Y0029547D01*
X0081278Y0029694D01*
X0081299Y0029840D01*
X0081325Y0029986D01*
X0081355Y0030131D01*
X0081388Y0030275D01*
X0081426Y0030418D01*
X0081467Y0030560D01*
X0081512Y0030701D01*
X0081560Y0030841D01*
X0081613Y0030980D01*
X0081669Y0031117D01*
X0081729Y0031252D01*
X0081792Y0031386D01*
X0081859Y0031518D01*
X0081930Y0031648D01*
X0082004Y0031776D01*
X0082081Y0031902D01*
X0082162Y0032026D01*
X0082246Y0032148D01*
X0082333Y0032267D01*
X0082424Y0032384D01*
X0082518Y0032499D01*
X0082614Y0032611D01*
X0082714Y0032721D01*
X0082816Y0032827D01*
X0082922Y0032931D01*
X0083030Y0033032D01*
X0083141Y0033130D01*
X0083254Y0033226D01*
X0083370Y0033318D01*
X0083488Y0033407D01*
X0083609Y0033492D01*
X0083732Y0033575D01*
X0083857Y0033654D01*
X0083984Y0033730D01*
X0084113Y0033802D01*
X0084244Y0033871D01*
X0084377Y0033936D01*
X0084512Y0033997D01*
X0084648Y0034055D01*
X0084785Y0034110D01*
X0084924Y0034160D01*
X0085065Y0034207D01*
X0085206Y0034250D01*
X0085349Y0034290D01*
X0085493Y0034325D01*
X0085637Y0034357D01*
X0085783Y0034384D01*
X0085929Y0034408D01*
X0086076Y0034428D01*
X0086223Y0034444D01*
X0086370Y0034456D01*
X0086518Y0034464D01*
X0086666Y0034468D01*
X0086814Y0034468D01*
X0086962Y0034464D01*
X0087110Y0034456D01*
X0087257Y0034444D01*
X0087404Y0034428D01*
X0087551Y0034408D01*
X0087697Y0034384D01*
X0087843Y0034357D01*
X0087987Y0034325D01*
X0088131Y0034290D01*
X0088274Y0034250D01*
X0088415Y0034207D01*
X0088556Y0034160D01*
X0088695Y0034110D01*
X0088832Y0034055D01*
X0088968Y0033997D01*
X0089103Y0033936D01*
X0089236Y0033871D01*
X0089367Y0033802D01*
X0089496Y0033730D01*
X0089623Y0033654D01*
X0089748Y0033575D01*
X0089871Y0033492D01*
X0089992Y0033407D01*
X0090110Y0033318D01*
X0090226Y0033226D01*
X0090339Y0033130D01*
X0090450Y0033032D01*
X0090558Y0032931D01*
X0090664Y0032827D01*
X0090766Y0032721D01*
X0090866Y0032611D01*
X0090962Y0032499D01*
X0091056Y0032384D01*
X0091147Y0032267D01*
X0091234Y0032148D01*
X0091318Y0032026D01*
X0091399Y0031902D01*
X0091476Y0031776D01*
X0091550Y0031648D01*
X0091621Y0031518D01*
X0091688Y0031386D01*
X0091751Y0031252D01*
X0091811Y0031117D01*
X0091867Y0030980D01*
X0091920Y0030841D01*
X0091968Y0030701D01*
X0092013Y0030560D01*
X0092054Y0030418D01*
X0092092Y0030275D01*
X0092125Y0030131D01*
X0092155Y0029986D01*
X0092181Y0029840D01*
X0092202Y0029694D01*
X0092220Y0029547D01*
X0092234Y0029400D01*
X0092244Y0029252D01*
X0092250Y0029104D01*
X0092252Y0028956D01*
X0092250Y0028808D01*
X0092244Y0028660D01*
X0092234Y0028512D01*
X0092220Y0028365D01*
X0092202Y0028218D01*
X0092181Y0028072D01*
X0092155Y0027926D01*
X0092125Y0027781D01*
X0092092Y0027637D01*
X0092054Y0027494D01*
X0092013Y0027352D01*
X0091968Y0027211D01*
X0091920Y0027071D01*
X0091867Y0026932D01*
X0091811Y0026795D01*
X0091751Y0026660D01*
X0091688Y0026526D01*
X0091621Y0026394D01*
X0091550Y0026264D01*
X0091476Y0026136D01*
X0091399Y0026010D01*
X0091318Y0025886D01*
X0091234Y0025764D01*
X0091147Y0025645D01*
X0091056Y0025528D01*
X0090962Y0025413D01*
X0090866Y0025301D01*
X0090766Y0025191D01*
X0090664Y0025085D01*
X0090558Y0024981D01*
X0090450Y0024880D01*
X0090339Y0024782D01*
X0090226Y0024686D01*
X0090110Y0024594D01*
X0089992Y0024505D01*
X0089871Y0024420D01*
X0089748Y0024337D01*
X0089623Y0024258D01*
X0089496Y0024182D01*
X0089367Y0024110D01*
X0089236Y0024041D01*
X0089103Y0023976D01*
X0088968Y0023915D01*
X0088832Y0023857D01*
X0088695Y0023802D01*
X0088556Y0023752D01*
X0088415Y0023705D01*
X0088274Y0023662D01*
X0088131Y0023622D01*
X0087987Y0023587D01*
X0087843Y0023555D01*
X0087697Y0023528D01*
X0087551Y0023504D01*
X0087404Y0023484D01*
X0087257Y0023468D01*
X0087110Y0023456D01*
X0086962Y0023448D01*
X0086814Y0023444D01*
X0086666Y0023444D01*
X0086518Y0023448D01*
X0086370Y0023456D01*
X0086223Y0023468D01*
X0086076Y0023484D01*
X0085929Y0023504D01*
X0085783Y0023528D01*
X0085637Y0023555D01*
X0085493Y0023587D01*
X0085349Y0023622D01*
X0085206Y0023662D01*
X0085065Y0023705D01*
X0084924Y0023752D01*
X0084785Y0023802D01*
X0084648Y0023857D01*
X0084512Y0023915D01*
X0084377Y0023976D01*
X0084244Y0024041D01*
X0084113Y0024110D01*
X0083984Y0024182D01*
X0083857Y0024258D01*
X0083732Y0024337D01*
X0083609Y0024420D01*
X0083488Y0024505D01*
X0083370Y0024594D01*
X0083254Y0024686D01*
X0083141Y0024782D01*
X0083030Y0024880D01*
X0082922Y0024981D01*
X0082816Y0025085D01*
X0082714Y0025191D01*
X0082614Y0025301D01*
X0082518Y0025413D01*
X0082424Y0025528D01*
X0082333Y0025645D01*
X0082246Y0025764D01*
X0082162Y0025886D01*
X0082081Y0026010D01*
X0082004Y0026136D01*
X0081930Y0026264D01*
X0081859Y0026394D01*
X0081792Y0026526D01*
X0081729Y0026660D01*
X0081669Y0026795D01*
X0081613Y0026932D01*
X0081560Y0027071D01*
X0081512Y0027211D01*
X0081467Y0027352D01*
X0081426Y0027494D01*
X0081388Y0027637D01*
X0081355Y0027781D01*
X0081325Y0027926D01*
X0081299Y0028072D01*
X0081278Y0028218D01*
X0081260Y0028365D01*
X0081246Y0028512D01*
X0081236Y0028660D01*
X0081230Y0028808D01*
X0081228Y0028956D01*
X0081228Y0131319D02*
X0081230Y0131467D01*
X0081236Y0131615D01*
X0081246Y0131763D01*
X0081260Y0131910D01*
X0081278Y0132057D01*
X0081299Y0132203D01*
X0081325Y0132349D01*
X0081355Y0132494D01*
X0081388Y0132638D01*
X0081426Y0132781D01*
X0081467Y0132923D01*
X0081512Y0133064D01*
X0081560Y0133204D01*
X0081613Y0133343D01*
X0081669Y0133480D01*
X0081729Y0133615D01*
X0081792Y0133749D01*
X0081859Y0133881D01*
X0081930Y0134011D01*
X0082004Y0134139D01*
X0082081Y0134265D01*
X0082162Y0134389D01*
X0082246Y0134511D01*
X0082333Y0134630D01*
X0082424Y0134747D01*
X0082518Y0134862D01*
X0082614Y0134974D01*
X0082714Y0135084D01*
X0082816Y0135190D01*
X0082922Y0135294D01*
X0083030Y0135395D01*
X0083141Y0135493D01*
X0083254Y0135589D01*
X0083370Y0135681D01*
X0083488Y0135770D01*
X0083609Y0135855D01*
X0083732Y0135938D01*
X0083857Y0136017D01*
X0083984Y0136093D01*
X0084113Y0136165D01*
X0084244Y0136234D01*
X0084377Y0136299D01*
X0084512Y0136360D01*
X0084648Y0136418D01*
X0084785Y0136473D01*
X0084924Y0136523D01*
X0085065Y0136570D01*
X0085206Y0136613D01*
X0085349Y0136653D01*
X0085493Y0136688D01*
X0085637Y0136720D01*
X0085783Y0136747D01*
X0085929Y0136771D01*
X0086076Y0136791D01*
X0086223Y0136807D01*
X0086370Y0136819D01*
X0086518Y0136827D01*
X0086666Y0136831D01*
X0086814Y0136831D01*
X0086962Y0136827D01*
X0087110Y0136819D01*
X0087257Y0136807D01*
X0087404Y0136791D01*
X0087551Y0136771D01*
X0087697Y0136747D01*
X0087843Y0136720D01*
X0087987Y0136688D01*
X0088131Y0136653D01*
X0088274Y0136613D01*
X0088415Y0136570D01*
X0088556Y0136523D01*
X0088695Y0136473D01*
X0088832Y0136418D01*
X0088968Y0136360D01*
X0089103Y0136299D01*
X0089236Y0136234D01*
X0089367Y0136165D01*
X0089496Y0136093D01*
X0089623Y0136017D01*
X0089748Y0135938D01*
X0089871Y0135855D01*
X0089992Y0135770D01*
X0090110Y0135681D01*
X0090226Y0135589D01*
X0090339Y0135493D01*
X0090450Y0135395D01*
X0090558Y0135294D01*
X0090664Y0135190D01*
X0090766Y0135084D01*
X0090866Y0134974D01*
X0090962Y0134862D01*
X0091056Y0134747D01*
X0091147Y0134630D01*
X0091234Y0134511D01*
X0091318Y0134389D01*
X0091399Y0134265D01*
X0091476Y0134139D01*
X0091550Y0134011D01*
X0091621Y0133881D01*
X0091688Y0133749D01*
X0091751Y0133615D01*
X0091811Y0133480D01*
X0091867Y0133343D01*
X0091920Y0133204D01*
X0091968Y0133064D01*
X0092013Y0132923D01*
X0092054Y0132781D01*
X0092092Y0132638D01*
X0092125Y0132494D01*
X0092155Y0132349D01*
X0092181Y0132203D01*
X0092202Y0132057D01*
X0092220Y0131910D01*
X0092234Y0131763D01*
X0092244Y0131615D01*
X0092250Y0131467D01*
X0092252Y0131319D01*
X0092250Y0131171D01*
X0092244Y0131023D01*
X0092234Y0130875D01*
X0092220Y0130728D01*
X0092202Y0130581D01*
X0092181Y0130435D01*
X0092155Y0130289D01*
X0092125Y0130144D01*
X0092092Y0130000D01*
X0092054Y0129857D01*
X0092013Y0129715D01*
X0091968Y0129574D01*
X0091920Y0129434D01*
X0091867Y0129295D01*
X0091811Y0129158D01*
X0091751Y0129023D01*
X0091688Y0128889D01*
X0091621Y0128757D01*
X0091550Y0128627D01*
X0091476Y0128499D01*
X0091399Y0128373D01*
X0091318Y0128249D01*
X0091234Y0128127D01*
X0091147Y0128008D01*
X0091056Y0127891D01*
X0090962Y0127776D01*
X0090866Y0127664D01*
X0090766Y0127554D01*
X0090664Y0127448D01*
X0090558Y0127344D01*
X0090450Y0127243D01*
X0090339Y0127145D01*
X0090226Y0127049D01*
X0090110Y0126957D01*
X0089992Y0126868D01*
X0089871Y0126783D01*
X0089748Y0126700D01*
X0089623Y0126621D01*
X0089496Y0126545D01*
X0089367Y0126473D01*
X0089236Y0126404D01*
X0089103Y0126339D01*
X0088968Y0126278D01*
X0088832Y0126220D01*
X0088695Y0126165D01*
X0088556Y0126115D01*
X0088415Y0126068D01*
X0088274Y0126025D01*
X0088131Y0125985D01*
X0087987Y0125950D01*
X0087843Y0125918D01*
X0087697Y0125891D01*
X0087551Y0125867D01*
X0087404Y0125847D01*
X0087257Y0125831D01*
X0087110Y0125819D01*
X0086962Y0125811D01*
X0086814Y0125807D01*
X0086666Y0125807D01*
X0086518Y0125811D01*
X0086370Y0125819D01*
X0086223Y0125831D01*
X0086076Y0125847D01*
X0085929Y0125867D01*
X0085783Y0125891D01*
X0085637Y0125918D01*
X0085493Y0125950D01*
X0085349Y0125985D01*
X0085206Y0126025D01*
X0085065Y0126068D01*
X0084924Y0126115D01*
X0084785Y0126165D01*
X0084648Y0126220D01*
X0084512Y0126278D01*
X0084377Y0126339D01*
X0084244Y0126404D01*
X0084113Y0126473D01*
X0083984Y0126545D01*
X0083857Y0126621D01*
X0083732Y0126700D01*
X0083609Y0126783D01*
X0083488Y0126868D01*
X0083370Y0126957D01*
X0083254Y0127049D01*
X0083141Y0127145D01*
X0083030Y0127243D01*
X0082922Y0127344D01*
X0082816Y0127448D01*
X0082714Y0127554D01*
X0082614Y0127664D01*
X0082518Y0127776D01*
X0082424Y0127891D01*
X0082333Y0128008D01*
X0082246Y0128127D01*
X0082162Y0128249D01*
X0082081Y0128373D01*
X0082004Y0128499D01*
X0081930Y0128627D01*
X0081859Y0128757D01*
X0081792Y0128889D01*
X0081729Y0129023D01*
X0081669Y0129158D01*
X0081613Y0129295D01*
X0081560Y0129434D01*
X0081512Y0129574D01*
X0081467Y0129715D01*
X0081426Y0129857D01*
X0081388Y0130000D01*
X0081355Y0130144D01*
X0081325Y0130289D01*
X0081299Y0130435D01*
X0081278Y0130581D01*
X0081260Y0130728D01*
X0081246Y0130875D01*
X0081236Y0131023D01*
X0081230Y0131171D01*
X0081228Y0131319D01*
M02*
