G75*
%MOIN*%
%OFA0B0*%
%FSLAX25Y25*%
%IPPOS*%
%LPD*%
%AMOC8*
5,1,8,0,0,1.08239X$1,22.5*
%
%ADD10C,0.00000*%
%ADD11C,0.00500*%
%ADD12C,0.00400*%
%ADD13C,0.00600*%
D10*
X0008000Y0021082D02*
X0008000Y0139193D01*
X0165480Y0139193D01*
X0165480Y0021082D01*
X0008000Y0021082D01*
X0081228Y0028956D02*
X0081230Y0029104D01*
X0081236Y0029252D01*
X0081246Y0029400D01*
X0081260Y0029547D01*
X0081278Y0029694D01*
X0081299Y0029840D01*
X0081325Y0029986D01*
X0081355Y0030131D01*
X0081388Y0030275D01*
X0081426Y0030418D01*
X0081467Y0030560D01*
X0081512Y0030701D01*
X0081560Y0030841D01*
X0081613Y0030980D01*
X0081669Y0031117D01*
X0081729Y0031252D01*
X0081792Y0031386D01*
X0081859Y0031518D01*
X0081930Y0031648D01*
X0082004Y0031776D01*
X0082081Y0031902D01*
X0082162Y0032026D01*
X0082246Y0032148D01*
X0082333Y0032267D01*
X0082424Y0032384D01*
X0082518Y0032499D01*
X0082614Y0032611D01*
X0082714Y0032721D01*
X0082816Y0032827D01*
X0082922Y0032931D01*
X0083030Y0033032D01*
X0083141Y0033130D01*
X0083254Y0033226D01*
X0083370Y0033318D01*
X0083488Y0033407D01*
X0083609Y0033492D01*
X0083732Y0033575D01*
X0083857Y0033654D01*
X0083984Y0033730D01*
X0084113Y0033802D01*
X0084244Y0033871D01*
X0084377Y0033936D01*
X0084512Y0033997D01*
X0084648Y0034055D01*
X0084785Y0034110D01*
X0084924Y0034160D01*
X0085065Y0034207D01*
X0085206Y0034250D01*
X0085349Y0034290D01*
X0085493Y0034325D01*
X0085637Y0034357D01*
X0085783Y0034384D01*
X0085929Y0034408D01*
X0086076Y0034428D01*
X0086223Y0034444D01*
X0086370Y0034456D01*
X0086518Y0034464D01*
X0086666Y0034468D01*
X0086814Y0034468D01*
X0086962Y0034464D01*
X0087110Y0034456D01*
X0087257Y0034444D01*
X0087404Y0034428D01*
X0087551Y0034408D01*
X0087697Y0034384D01*
X0087843Y0034357D01*
X0087987Y0034325D01*
X0088131Y0034290D01*
X0088274Y0034250D01*
X0088415Y0034207D01*
X0088556Y0034160D01*
X0088695Y0034110D01*
X0088832Y0034055D01*
X0088968Y0033997D01*
X0089103Y0033936D01*
X0089236Y0033871D01*
X0089367Y0033802D01*
X0089496Y0033730D01*
X0089623Y0033654D01*
X0089748Y0033575D01*
X0089871Y0033492D01*
X0089992Y0033407D01*
X0090110Y0033318D01*
X0090226Y0033226D01*
X0090339Y0033130D01*
X0090450Y0033032D01*
X0090558Y0032931D01*
X0090664Y0032827D01*
X0090766Y0032721D01*
X0090866Y0032611D01*
X0090962Y0032499D01*
X0091056Y0032384D01*
X0091147Y0032267D01*
X0091234Y0032148D01*
X0091318Y0032026D01*
X0091399Y0031902D01*
X0091476Y0031776D01*
X0091550Y0031648D01*
X0091621Y0031518D01*
X0091688Y0031386D01*
X0091751Y0031252D01*
X0091811Y0031117D01*
X0091867Y0030980D01*
X0091920Y0030841D01*
X0091968Y0030701D01*
X0092013Y0030560D01*
X0092054Y0030418D01*
X0092092Y0030275D01*
X0092125Y0030131D01*
X0092155Y0029986D01*
X0092181Y0029840D01*
X0092202Y0029694D01*
X0092220Y0029547D01*
X0092234Y0029400D01*
X0092244Y0029252D01*
X0092250Y0029104D01*
X0092252Y0028956D01*
X0092250Y0028808D01*
X0092244Y0028660D01*
X0092234Y0028512D01*
X0092220Y0028365D01*
X0092202Y0028218D01*
X0092181Y0028072D01*
X0092155Y0027926D01*
X0092125Y0027781D01*
X0092092Y0027637D01*
X0092054Y0027494D01*
X0092013Y0027352D01*
X0091968Y0027211D01*
X0091920Y0027071D01*
X0091867Y0026932D01*
X0091811Y0026795D01*
X0091751Y0026660D01*
X0091688Y0026526D01*
X0091621Y0026394D01*
X0091550Y0026264D01*
X0091476Y0026136D01*
X0091399Y0026010D01*
X0091318Y0025886D01*
X0091234Y0025764D01*
X0091147Y0025645D01*
X0091056Y0025528D01*
X0090962Y0025413D01*
X0090866Y0025301D01*
X0090766Y0025191D01*
X0090664Y0025085D01*
X0090558Y0024981D01*
X0090450Y0024880D01*
X0090339Y0024782D01*
X0090226Y0024686D01*
X0090110Y0024594D01*
X0089992Y0024505D01*
X0089871Y0024420D01*
X0089748Y0024337D01*
X0089623Y0024258D01*
X0089496Y0024182D01*
X0089367Y0024110D01*
X0089236Y0024041D01*
X0089103Y0023976D01*
X0088968Y0023915D01*
X0088832Y0023857D01*
X0088695Y0023802D01*
X0088556Y0023752D01*
X0088415Y0023705D01*
X0088274Y0023662D01*
X0088131Y0023622D01*
X0087987Y0023587D01*
X0087843Y0023555D01*
X0087697Y0023528D01*
X0087551Y0023504D01*
X0087404Y0023484D01*
X0087257Y0023468D01*
X0087110Y0023456D01*
X0086962Y0023448D01*
X0086814Y0023444D01*
X0086666Y0023444D01*
X0086518Y0023448D01*
X0086370Y0023456D01*
X0086223Y0023468D01*
X0086076Y0023484D01*
X0085929Y0023504D01*
X0085783Y0023528D01*
X0085637Y0023555D01*
X0085493Y0023587D01*
X0085349Y0023622D01*
X0085206Y0023662D01*
X0085065Y0023705D01*
X0084924Y0023752D01*
X0084785Y0023802D01*
X0084648Y0023857D01*
X0084512Y0023915D01*
X0084377Y0023976D01*
X0084244Y0024041D01*
X0084113Y0024110D01*
X0083984Y0024182D01*
X0083857Y0024258D01*
X0083732Y0024337D01*
X0083609Y0024420D01*
X0083488Y0024505D01*
X0083370Y0024594D01*
X0083254Y0024686D01*
X0083141Y0024782D01*
X0083030Y0024880D01*
X0082922Y0024981D01*
X0082816Y0025085D01*
X0082714Y0025191D01*
X0082614Y0025301D01*
X0082518Y0025413D01*
X0082424Y0025528D01*
X0082333Y0025645D01*
X0082246Y0025764D01*
X0082162Y0025886D01*
X0082081Y0026010D01*
X0082004Y0026136D01*
X0081930Y0026264D01*
X0081859Y0026394D01*
X0081792Y0026526D01*
X0081729Y0026660D01*
X0081669Y0026795D01*
X0081613Y0026932D01*
X0081560Y0027071D01*
X0081512Y0027211D01*
X0081467Y0027352D01*
X0081426Y0027494D01*
X0081388Y0027637D01*
X0081355Y0027781D01*
X0081325Y0027926D01*
X0081299Y0028072D01*
X0081278Y0028218D01*
X0081260Y0028365D01*
X0081246Y0028512D01*
X0081236Y0028660D01*
X0081230Y0028808D01*
X0081228Y0028956D01*
X0081228Y0131319D02*
X0081230Y0131467D01*
X0081236Y0131615D01*
X0081246Y0131763D01*
X0081260Y0131910D01*
X0081278Y0132057D01*
X0081299Y0132203D01*
X0081325Y0132349D01*
X0081355Y0132494D01*
X0081388Y0132638D01*
X0081426Y0132781D01*
X0081467Y0132923D01*
X0081512Y0133064D01*
X0081560Y0133204D01*
X0081613Y0133343D01*
X0081669Y0133480D01*
X0081729Y0133615D01*
X0081792Y0133749D01*
X0081859Y0133881D01*
X0081930Y0134011D01*
X0082004Y0134139D01*
X0082081Y0134265D01*
X0082162Y0134389D01*
X0082246Y0134511D01*
X0082333Y0134630D01*
X0082424Y0134747D01*
X0082518Y0134862D01*
X0082614Y0134974D01*
X0082714Y0135084D01*
X0082816Y0135190D01*
X0082922Y0135294D01*
X0083030Y0135395D01*
X0083141Y0135493D01*
X0083254Y0135589D01*
X0083370Y0135681D01*
X0083488Y0135770D01*
X0083609Y0135855D01*
X0083732Y0135938D01*
X0083857Y0136017D01*
X0083984Y0136093D01*
X0084113Y0136165D01*
X0084244Y0136234D01*
X0084377Y0136299D01*
X0084512Y0136360D01*
X0084648Y0136418D01*
X0084785Y0136473D01*
X0084924Y0136523D01*
X0085065Y0136570D01*
X0085206Y0136613D01*
X0085349Y0136653D01*
X0085493Y0136688D01*
X0085637Y0136720D01*
X0085783Y0136747D01*
X0085929Y0136771D01*
X0086076Y0136791D01*
X0086223Y0136807D01*
X0086370Y0136819D01*
X0086518Y0136827D01*
X0086666Y0136831D01*
X0086814Y0136831D01*
X0086962Y0136827D01*
X0087110Y0136819D01*
X0087257Y0136807D01*
X0087404Y0136791D01*
X0087551Y0136771D01*
X0087697Y0136747D01*
X0087843Y0136720D01*
X0087987Y0136688D01*
X0088131Y0136653D01*
X0088274Y0136613D01*
X0088415Y0136570D01*
X0088556Y0136523D01*
X0088695Y0136473D01*
X0088832Y0136418D01*
X0088968Y0136360D01*
X0089103Y0136299D01*
X0089236Y0136234D01*
X0089367Y0136165D01*
X0089496Y0136093D01*
X0089623Y0136017D01*
X0089748Y0135938D01*
X0089871Y0135855D01*
X0089992Y0135770D01*
X0090110Y0135681D01*
X0090226Y0135589D01*
X0090339Y0135493D01*
X0090450Y0135395D01*
X0090558Y0135294D01*
X0090664Y0135190D01*
X0090766Y0135084D01*
X0090866Y0134974D01*
X0090962Y0134862D01*
X0091056Y0134747D01*
X0091147Y0134630D01*
X0091234Y0134511D01*
X0091318Y0134389D01*
X0091399Y0134265D01*
X0091476Y0134139D01*
X0091550Y0134011D01*
X0091621Y0133881D01*
X0091688Y0133749D01*
X0091751Y0133615D01*
X0091811Y0133480D01*
X0091867Y0133343D01*
X0091920Y0133204D01*
X0091968Y0133064D01*
X0092013Y0132923D01*
X0092054Y0132781D01*
X0092092Y0132638D01*
X0092125Y0132494D01*
X0092155Y0132349D01*
X0092181Y0132203D01*
X0092202Y0132057D01*
X0092220Y0131910D01*
X0092234Y0131763D01*
X0092244Y0131615D01*
X0092250Y0131467D01*
X0092252Y0131319D01*
X0092250Y0131171D01*
X0092244Y0131023D01*
X0092234Y0130875D01*
X0092220Y0130728D01*
X0092202Y0130581D01*
X0092181Y0130435D01*
X0092155Y0130289D01*
X0092125Y0130144D01*
X0092092Y0130000D01*
X0092054Y0129857D01*
X0092013Y0129715D01*
X0091968Y0129574D01*
X0091920Y0129434D01*
X0091867Y0129295D01*
X0091811Y0129158D01*
X0091751Y0129023D01*
X0091688Y0128889D01*
X0091621Y0128757D01*
X0091550Y0128627D01*
X0091476Y0128499D01*
X0091399Y0128373D01*
X0091318Y0128249D01*
X0091234Y0128127D01*
X0091147Y0128008D01*
X0091056Y0127891D01*
X0090962Y0127776D01*
X0090866Y0127664D01*
X0090766Y0127554D01*
X0090664Y0127448D01*
X0090558Y0127344D01*
X0090450Y0127243D01*
X0090339Y0127145D01*
X0090226Y0127049D01*
X0090110Y0126957D01*
X0089992Y0126868D01*
X0089871Y0126783D01*
X0089748Y0126700D01*
X0089623Y0126621D01*
X0089496Y0126545D01*
X0089367Y0126473D01*
X0089236Y0126404D01*
X0089103Y0126339D01*
X0088968Y0126278D01*
X0088832Y0126220D01*
X0088695Y0126165D01*
X0088556Y0126115D01*
X0088415Y0126068D01*
X0088274Y0126025D01*
X0088131Y0125985D01*
X0087987Y0125950D01*
X0087843Y0125918D01*
X0087697Y0125891D01*
X0087551Y0125867D01*
X0087404Y0125847D01*
X0087257Y0125831D01*
X0087110Y0125819D01*
X0086962Y0125811D01*
X0086814Y0125807D01*
X0086666Y0125807D01*
X0086518Y0125811D01*
X0086370Y0125819D01*
X0086223Y0125831D01*
X0086076Y0125847D01*
X0085929Y0125867D01*
X0085783Y0125891D01*
X0085637Y0125918D01*
X0085493Y0125950D01*
X0085349Y0125985D01*
X0085206Y0126025D01*
X0085065Y0126068D01*
X0084924Y0126115D01*
X0084785Y0126165D01*
X0084648Y0126220D01*
X0084512Y0126278D01*
X0084377Y0126339D01*
X0084244Y0126404D01*
X0084113Y0126473D01*
X0083984Y0126545D01*
X0083857Y0126621D01*
X0083732Y0126700D01*
X0083609Y0126783D01*
X0083488Y0126868D01*
X0083370Y0126957D01*
X0083254Y0127049D01*
X0083141Y0127145D01*
X0083030Y0127243D01*
X0082922Y0127344D01*
X0082816Y0127448D01*
X0082714Y0127554D01*
X0082614Y0127664D01*
X0082518Y0127776D01*
X0082424Y0127891D01*
X0082333Y0128008D01*
X0082246Y0128127D01*
X0082162Y0128249D01*
X0082081Y0128373D01*
X0082004Y0128499D01*
X0081930Y0128627D01*
X0081859Y0128757D01*
X0081792Y0128889D01*
X0081729Y0129023D01*
X0081669Y0129158D01*
X0081613Y0129295D01*
X0081560Y0129434D01*
X0081512Y0129574D01*
X0081467Y0129715D01*
X0081426Y0129857D01*
X0081388Y0130000D01*
X0081355Y0130144D01*
X0081325Y0130289D01*
X0081299Y0130435D01*
X0081278Y0130581D01*
X0081260Y0130728D01*
X0081246Y0130875D01*
X0081236Y0131023D01*
X0081230Y0131171D01*
X0081228Y0131319D01*
D11*
X0086750Y0098807D02*
X0067263Y0079320D01*
X0086750Y0059832D01*
X0106237Y0079320D01*
X0086750Y0098807D01*
X0089403Y0091959D02*
X0089143Y0091699D01*
X0089143Y0091440D01*
X0089533Y0091050D01*
X0089273Y0090791D02*
X0090052Y0091569D01*
X0089662Y0091959D01*
X0089403Y0091959D01*
X0090574Y0091047D02*
X0091093Y0090528D01*
X0090315Y0089749D01*
X0089796Y0090268D01*
X0090445Y0090398D02*
X0090704Y0090138D01*
X0091227Y0089616D02*
X0091746Y0089097D01*
X0091879Y0088185D02*
X0092658Y0088963D01*
X0093177Y0088444D02*
X0091879Y0088185D01*
X0092398Y0087666D02*
X0093177Y0088444D01*
X0093700Y0087921D02*
X0094219Y0087402D01*
X0093440Y0086624D01*
X0093829Y0087013D02*
X0093570Y0087273D01*
X0094612Y0086750D02*
X0094093Y0086231D01*
X0094093Y0085971D01*
X0094352Y0085712D01*
X0094612Y0085712D01*
X0095131Y0086231D01*
X0095131Y0086490D01*
X0094871Y0086750D01*
X0094612Y0086750D01*
X0094482Y0086101D02*
X0093963Y0086101D01*
X0095783Y0085838D02*
X0096302Y0085319D01*
X0096043Y0085578D02*
X0095264Y0084800D01*
X0096436Y0084407D02*
X0096955Y0083888D01*
X0096955Y0084666D01*
X0096176Y0083888D01*
X0097477Y0083365D02*
X0097996Y0082846D01*
X0097996Y0083625D01*
X0097218Y0082846D01*
X0140001Y0034731D02*
X0139250Y0033980D01*
X0139250Y0032479D01*
X0140001Y0031728D01*
X0141502Y0031728D02*
X0142253Y0033230D01*
X0142253Y0033980D01*
X0141502Y0034731D01*
X0140001Y0034731D01*
X0141502Y0031728D02*
X0143754Y0031728D01*
X0143754Y0034731D01*
X0143003Y0030127D02*
X0143754Y0029376D01*
X0143754Y0027875D01*
X0143003Y0027125D01*
X0140001Y0027125D01*
X0139250Y0027875D01*
X0139250Y0029376D01*
X0140001Y0030127D01*
D12*
X0131241Y0075032D02*
X0129706Y0075032D01*
X0128939Y0075800D01*
X0127404Y0075032D02*
X0124335Y0078102D01*
X0124335Y0078869D01*
X0125102Y0079636D01*
X0126637Y0079636D01*
X0127404Y0078869D01*
X0128939Y0078869D02*
X0129706Y0079636D01*
X0131241Y0079636D01*
X0132008Y0078869D01*
X0132008Y0075800D01*
X0131241Y0075032D01*
X0127404Y0075032D02*
X0124335Y0075032D01*
X0123741Y0087532D02*
X0122206Y0087532D01*
X0121439Y0088300D01*
X0119904Y0088300D02*
X0119137Y0087532D01*
X0117602Y0087532D01*
X0116835Y0088300D01*
X0116835Y0089067D01*
X0117602Y0089834D01*
X0118369Y0089834D01*
X0117602Y0089834D02*
X0116835Y0090602D01*
X0116835Y0091369D01*
X0117602Y0092136D01*
X0119137Y0092136D01*
X0119904Y0091369D01*
X0121439Y0091369D02*
X0122206Y0092136D01*
X0123741Y0092136D01*
X0124508Y0091369D01*
X0124508Y0088300D01*
X0123741Y0087532D01*
X0105304Y0118325D02*
X0100700Y0118325D01*
X0102235Y0118325D02*
X0102235Y0120626D01*
X0103002Y0121394D01*
X0104537Y0121394D01*
X0105304Y0120626D01*
X0105304Y0118325D01*
X0102235Y0119859D02*
X0100700Y0121394D01*
X0100700Y0122928D02*
X0100700Y0125998D01*
X0100700Y0124463D02*
X0105304Y0124463D01*
X0103769Y0122928D01*
X0125700Y0123894D02*
X0127235Y0122359D01*
X0127235Y0123126D02*
X0127235Y0120825D01*
X0125700Y0120825D02*
X0130304Y0120825D01*
X0130304Y0123126D01*
X0129537Y0123894D01*
X0128002Y0123894D01*
X0127235Y0123126D01*
X0125700Y0125428D02*
X0128769Y0128498D01*
X0129537Y0128498D01*
X0130304Y0127730D01*
X0130304Y0126196D01*
X0129537Y0125428D01*
X0125700Y0125428D02*
X0125700Y0128498D01*
X0061550Y0103869D02*
X0061550Y0100800D01*
X0060783Y0100032D01*
X0059248Y0100032D01*
X0058481Y0100800D01*
X0056946Y0100032D02*
X0053877Y0100032D01*
X0055411Y0100032D02*
X0055411Y0104636D01*
X0056946Y0103102D01*
X0058481Y0103869D02*
X0059248Y0104636D01*
X0060783Y0104636D01*
X0061550Y0103869D01*
X0059533Y0077136D02*
X0057998Y0077136D01*
X0057231Y0076369D01*
X0055696Y0074834D02*
X0052627Y0074834D01*
X0053394Y0072532D02*
X0053394Y0077136D01*
X0055696Y0074834D01*
X0057231Y0073300D02*
X0057998Y0072532D01*
X0059533Y0072532D01*
X0060300Y0073300D01*
X0060300Y0076369D01*
X0059533Y0077136D01*
D13*
X0125000Y0035082D02*
X0127000Y0035082D01*
X0126000Y0036082D02*
X0126000Y0034082D01*
X0123000Y0031082D02*
X0123003Y0031327D01*
X0123012Y0031573D01*
X0123027Y0031818D01*
X0123048Y0032062D01*
X0123075Y0032306D01*
X0123108Y0032549D01*
X0123147Y0032792D01*
X0123192Y0033033D01*
X0123243Y0033273D01*
X0123300Y0033512D01*
X0123362Y0033749D01*
X0123431Y0033985D01*
X0123505Y0034219D01*
X0123585Y0034451D01*
X0123670Y0034681D01*
X0123761Y0034909D01*
X0123858Y0035134D01*
X0123960Y0035358D01*
X0124068Y0035578D01*
X0124181Y0035796D01*
X0124299Y0036011D01*
X0124423Y0036223D01*
X0124551Y0036432D01*
X0124685Y0036638D01*
X0124824Y0036840D01*
X0124968Y0037039D01*
X0125117Y0037234D01*
X0125270Y0037426D01*
X0125428Y0037614D01*
X0125590Y0037798D01*
X0125758Y0037977D01*
X0125929Y0038153D01*
X0126105Y0038324D01*
X0126284Y0038492D01*
X0126468Y0038654D01*
X0126656Y0038812D01*
X0126848Y0038965D01*
X0127043Y0039114D01*
X0127242Y0039258D01*
X0127444Y0039397D01*
X0127650Y0039531D01*
X0127859Y0039659D01*
X0128071Y0039783D01*
X0128286Y0039901D01*
X0128504Y0040014D01*
X0128724Y0040122D01*
X0128948Y0040224D01*
X0129173Y0040321D01*
X0129401Y0040412D01*
X0129631Y0040497D01*
X0129863Y0040577D01*
X0130097Y0040651D01*
X0130333Y0040720D01*
X0130570Y0040782D01*
X0130809Y0040839D01*
X0131049Y0040890D01*
X0131290Y0040935D01*
X0131533Y0040974D01*
X0131776Y0041007D01*
X0132020Y0041034D01*
X0132264Y0041055D01*
X0132509Y0041070D01*
X0132755Y0041079D01*
X0133000Y0041082D01*
X0133245Y0041079D01*
X0133491Y0041070D01*
X0133736Y0041055D01*
X0133980Y0041034D01*
X0134224Y0041007D01*
X0134467Y0040974D01*
X0134710Y0040935D01*
X0134951Y0040890D01*
X0135191Y0040839D01*
X0135430Y0040782D01*
X0135667Y0040720D01*
X0135903Y0040651D01*
X0136137Y0040577D01*
X0136369Y0040497D01*
X0136599Y0040412D01*
X0136827Y0040321D01*
X0137052Y0040224D01*
X0137276Y0040122D01*
X0137496Y0040014D01*
X0137714Y0039901D01*
X0137929Y0039783D01*
X0138141Y0039659D01*
X0138350Y0039531D01*
X0138556Y0039397D01*
X0138758Y0039258D01*
X0138957Y0039114D01*
X0139152Y0038965D01*
X0139344Y0038812D01*
X0139532Y0038654D01*
X0139716Y0038492D01*
X0139895Y0038324D01*
X0140071Y0038153D01*
X0140242Y0037977D01*
X0140410Y0037798D01*
X0140572Y0037614D01*
X0140730Y0037426D01*
X0140883Y0037234D01*
X0141032Y0037039D01*
X0141176Y0036840D01*
X0141315Y0036638D01*
X0141449Y0036432D01*
X0141577Y0036223D01*
X0141701Y0036011D01*
X0141819Y0035796D01*
X0141932Y0035578D01*
X0142040Y0035358D01*
X0142142Y0035134D01*
X0142239Y0034909D01*
X0142330Y0034681D01*
X0142415Y0034451D01*
X0142495Y0034219D01*
X0142569Y0033985D01*
X0142638Y0033749D01*
X0142700Y0033512D01*
X0142757Y0033273D01*
X0142808Y0033033D01*
X0142853Y0032792D01*
X0142892Y0032549D01*
X0142925Y0032306D01*
X0142952Y0032062D01*
X0142973Y0031818D01*
X0142988Y0031573D01*
X0142997Y0031327D01*
X0143000Y0031082D01*
X0142997Y0030837D01*
X0142988Y0030591D01*
X0142973Y0030346D01*
X0142952Y0030102D01*
X0142925Y0029858D01*
X0142892Y0029615D01*
X0142853Y0029372D01*
X0142808Y0029131D01*
X0142757Y0028891D01*
X0142700Y0028652D01*
X0142638Y0028415D01*
X0142569Y0028179D01*
X0142495Y0027945D01*
X0142415Y0027713D01*
X0142330Y0027483D01*
X0142239Y0027255D01*
X0142142Y0027030D01*
X0142040Y0026806D01*
X0141932Y0026586D01*
X0141819Y0026368D01*
X0141701Y0026153D01*
X0141577Y0025941D01*
X0141449Y0025732D01*
X0141315Y0025526D01*
X0141176Y0025324D01*
X0141032Y0025125D01*
X0140883Y0024930D01*
X0140730Y0024738D01*
X0140572Y0024550D01*
X0140410Y0024366D01*
X0140242Y0024187D01*
X0140071Y0024011D01*
X0139895Y0023840D01*
X0139716Y0023672D01*
X0139532Y0023510D01*
X0139344Y0023352D01*
X0139152Y0023199D01*
X0138957Y0023050D01*
X0138758Y0022906D01*
X0138556Y0022767D01*
X0138350Y0022633D01*
X0138141Y0022505D01*
X0137929Y0022381D01*
X0137714Y0022263D01*
X0137496Y0022150D01*
X0137276Y0022042D01*
X0137052Y0021940D01*
X0136827Y0021843D01*
X0136599Y0021752D01*
X0136369Y0021667D01*
X0136137Y0021587D01*
X0135903Y0021513D01*
X0135667Y0021444D01*
X0135430Y0021382D01*
X0135191Y0021325D01*
X0134951Y0021274D01*
X0134710Y0021229D01*
X0134467Y0021190D01*
X0134224Y0021157D01*
X0133980Y0021130D01*
X0133736Y0021109D01*
X0133491Y0021094D01*
X0133245Y0021085D01*
X0133000Y0021082D01*
X0132755Y0021085D01*
X0132509Y0021094D01*
X0132264Y0021109D01*
X0132020Y0021130D01*
X0131776Y0021157D01*
X0131533Y0021190D01*
X0131290Y0021229D01*
X0131049Y0021274D01*
X0130809Y0021325D01*
X0130570Y0021382D01*
X0130333Y0021444D01*
X0130097Y0021513D01*
X0129863Y0021587D01*
X0129631Y0021667D01*
X0129401Y0021752D01*
X0129173Y0021843D01*
X0128948Y0021940D01*
X0128724Y0022042D01*
X0128504Y0022150D01*
X0128286Y0022263D01*
X0128071Y0022381D01*
X0127859Y0022505D01*
X0127650Y0022633D01*
X0127444Y0022767D01*
X0127242Y0022906D01*
X0127043Y0023050D01*
X0126848Y0023199D01*
X0126656Y0023352D01*
X0126468Y0023510D01*
X0126284Y0023672D01*
X0126105Y0023840D01*
X0125929Y0024011D01*
X0125758Y0024187D01*
X0125590Y0024366D01*
X0125428Y0024550D01*
X0125270Y0024738D01*
X0125117Y0024930D01*
X0124968Y0025125D01*
X0124824Y0025324D01*
X0124685Y0025526D01*
X0124551Y0025732D01*
X0124423Y0025941D01*
X0124299Y0026153D01*
X0124181Y0026368D01*
X0124068Y0026586D01*
X0123960Y0026806D01*
X0123858Y0027030D01*
X0123761Y0027255D01*
X0123670Y0027483D01*
X0123585Y0027713D01*
X0123505Y0027945D01*
X0123431Y0028179D01*
X0123362Y0028415D01*
X0123300Y0028652D01*
X0123243Y0028891D01*
X0123192Y0029131D01*
X0123147Y0029372D01*
X0123108Y0029615D01*
X0123075Y0029858D01*
X0123048Y0030102D01*
X0123027Y0030346D01*
X0123012Y0030591D01*
X0123003Y0030837D01*
X0123000Y0031082D01*
M02*
