%
M48
M72
T01C0.01200
T02C0.03150
T03C0.03200
T04C0.03937
T05C0.04000
T06C0.11024
%
T01
X45500Y39832
X32375Y54832
X33000Y59207
X48625Y56707
X58625Y56707
X65500Y61707
X68625Y61707
X71750Y61707
X74875Y61707
X77375Y57957
X82375Y58582
X86750Y60457
X98000Y56082
X103000Y57957
X106125Y59207
X109250Y57957
X101750Y66707
X112375Y78582
X115500Y77332
X119875Y81082
X128625Y79832
X141125Y84207
X130500Y93582
X138000Y99832
X135500Y105457
X130500Y116707
X124250Y116707
X105500Y121707
X91750Y104832
X98625Y99832
X101750Y99832
X95500Y98582
X86750Y96707
X75500Y104832
X77375Y109832
X73000Y98582
X64875Y98582
X64875Y89207
X71125Y89207
X63625Y82332
X68625Y79832
X71125Y69207
X68625Y66707
X47375Y71082
X38000Y77332
X49875Y88582
X39875Y97957
X35500Y91082
X56750Y106082
X100500Y91082
X103625Y91082
X108625Y92957
X112375Y90457
X120500Y92957
X107375Y80457
X131125Y66707
X141750Y60457
X153000Y57957
X141750Y42957
X116750Y46707
X114875Y41707
X109875Y39832
T02
X148000Y72263
X148000Y80138
X158000Y80138
X158000Y72263
X158000Y64389
X158000Y88012
X158000Y95886
X148000Y88012
X25500Y88012
X15500Y88012
X15500Y95886
X15500Y80138
X15500Y72263
X25500Y72263
X25500Y80138
X15500Y64389
T03
X133000Y35082
X133000Y27082
T04
X131110Y49862
X121110Y49862
X111110Y49862
X101110Y49862
X91110Y49862
X82370Y49862
X72370Y49862
X62370Y49862
X52370Y49862
X42370Y49862
X32370Y49862
X22370Y49862
X12370Y49862
X12370Y110413
X22370Y110413
X32370Y110413
X42370Y110413
X52370Y110413
X62370Y110413
X72370Y110413
X82370Y110413
X91110Y110413
X101110Y110413
X111110Y110413
X121110Y110413
X131110Y110413
X141110Y110413
X151110Y110413
X161110Y110413
X161110Y49862
X151110Y49862
X141110Y49862
T05
X15500Y26082
X15500Y36082
X15500Y123582
X15500Y133582
X158000Y133582
X158000Y123582
X158000Y36082
X158000Y26082
T06
X86740Y28956
X86740Y131319
M30
