G75*
%MOIN*%
%OFA0B0*%
%FSLAX25Y25*%
%IPPOS*%
%LPD*%
%AMOC8*
5,1,8,0,0,1.08239X$1,22.5*
%
%ADD10C,0.00000*%
%ADD11C,0.11424*%
%ADD12R,0.18904X0.18904*%
%ADD13R,0.04731X0.01384*%
%ADD14R,0.06337X0.06337*%
%ADD15OC8,0.06337*%
%ADD16C,0.06000*%
%ADD17R,0.05518X0.06306*%
%ADD18OC8,0.05600*%
%ADD19C,0.05600*%
%ADD20R,0.06306X0.05518*%
%ADD21C,0.06400*%
D10*
X0008000Y0021082D02*
X0008000Y0139193D01*
X0165480Y0139193D01*
X0165480Y0021082D01*
X0008000Y0021082D01*
X0081228Y0028956D02*
X0081230Y0029104D01*
X0081236Y0029252D01*
X0081246Y0029400D01*
X0081260Y0029547D01*
X0081278Y0029694D01*
X0081299Y0029840D01*
X0081325Y0029986D01*
X0081355Y0030131D01*
X0081388Y0030275D01*
X0081426Y0030418D01*
X0081467Y0030560D01*
X0081512Y0030701D01*
X0081560Y0030841D01*
X0081613Y0030980D01*
X0081669Y0031117D01*
X0081729Y0031252D01*
X0081792Y0031386D01*
X0081859Y0031518D01*
X0081930Y0031648D01*
X0082004Y0031776D01*
X0082081Y0031902D01*
X0082162Y0032026D01*
X0082246Y0032148D01*
X0082333Y0032267D01*
X0082424Y0032384D01*
X0082518Y0032499D01*
X0082614Y0032611D01*
X0082714Y0032721D01*
X0082816Y0032827D01*
X0082922Y0032931D01*
X0083030Y0033032D01*
X0083141Y0033130D01*
X0083254Y0033226D01*
X0083370Y0033318D01*
X0083488Y0033407D01*
X0083609Y0033492D01*
X0083732Y0033575D01*
X0083857Y0033654D01*
X0083984Y0033730D01*
X0084113Y0033802D01*
X0084244Y0033871D01*
X0084377Y0033936D01*
X0084512Y0033997D01*
X0084648Y0034055D01*
X0084785Y0034110D01*
X0084924Y0034160D01*
X0085065Y0034207D01*
X0085206Y0034250D01*
X0085349Y0034290D01*
X0085493Y0034325D01*
X0085637Y0034357D01*
X0085783Y0034384D01*
X0085929Y0034408D01*
X0086076Y0034428D01*
X0086223Y0034444D01*
X0086370Y0034456D01*
X0086518Y0034464D01*
X0086666Y0034468D01*
X0086814Y0034468D01*
X0086962Y0034464D01*
X0087110Y0034456D01*
X0087257Y0034444D01*
X0087404Y0034428D01*
X0087551Y0034408D01*
X0087697Y0034384D01*
X0087843Y0034357D01*
X0087987Y0034325D01*
X0088131Y0034290D01*
X0088274Y0034250D01*
X0088415Y0034207D01*
X0088556Y0034160D01*
X0088695Y0034110D01*
X0088832Y0034055D01*
X0088968Y0033997D01*
X0089103Y0033936D01*
X0089236Y0033871D01*
X0089367Y0033802D01*
X0089496Y0033730D01*
X0089623Y0033654D01*
X0089748Y0033575D01*
X0089871Y0033492D01*
X0089992Y0033407D01*
X0090110Y0033318D01*
X0090226Y0033226D01*
X0090339Y0033130D01*
X0090450Y0033032D01*
X0090558Y0032931D01*
X0090664Y0032827D01*
X0090766Y0032721D01*
X0090866Y0032611D01*
X0090962Y0032499D01*
X0091056Y0032384D01*
X0091147Y0032267D01*
X0091234Y0032148D01*
X0091318Y0032026D01*
X0091399Y0031902D01*
X0091476Y0031776D01*
X0091550Y0031648D01*
X0091621Y0031518D01*
X0091688Y0031386D01*
X0091751Y0031252D01*
X0091811Y0031117D01*
X0091867Y0030980D01*
X0091920Y0030841D01*
X0091968Y0030701D01*
X0092013Y0030560D01*
X0092054Y0030418D01*
X0092092Y0030275D01*
X0092125Y0030131D01*
X0092155Y0029986D01*
X0092181Y0029840D01*
X0092202Y0029694D01*
X0092220Y0029547D01*
X0092234Y0029400D01*
X0092244Y0029252D01*
X0092250Y0029104D01*
X0092252Y0028956D01*
X0092250Y0028808D01*
X0092244Y0028660D01*
X0092234Y0028512D01*
X0092220Y0028365D01*
X0092202Y0028218D01*
X0092181Y0028072D01*
X0092155Y0027926D01*
X0092125Y0027781D01*
X0092092Y0027637D01*
X0092054Y0027494D01*
X0092013Y0027352D01*
X0091968Y0027211D01*
X0091920Y0027071D01*
X0091867Y0026932D01*
X0091811Y0026795D01*
X0091751Y0026660D01*
X0091688Y0026526D01*
X0091621Y0026394D01*
X0091550Y0026264D01*
X0091476Y0026136D01*
X0091399Y0026010D01*
X0091318Y0025886D01*
X0091234Y0025764D01*
X0091147Y0025645D01*
X0091056Y0025528D01*
X0090962Y0025413D01*
X0090866Y0025301D01*
X0090766Y0025191D01*
X0090664Y0025085D01*
X0090558Y0024981D01*
X0090450Y0024880D01*
X0090339Y0024782D01*
X0090226Y0024686D01*
X0090110Y0024594D01*
X0089992Y0024505D01*
X0089871Y0024420D01*
X0089748Y0024337D01*
X0089623Y0024258D01*
X0089496Y0024182D01*
X0089367Y0024110D01*
X0089236Y0024041D01*
X0089103Y0023976D01*
X0088968Y0023915D01*
X0088832Y0023857D01*
X0088695Y0023802D01*
X0088556Y0023752D01*
X0088415Y0023705D01*
X0088274Y0023662D01*
X0088131Y0023622D01*
X0087987Y0023587D01*
X0087843Y0023555D01*
X0087697Y0023528D01*
X0087551Y0023504D01*
X0087404Y0023484D01*
X0087257Y0023468D01*
X0087110Y0023456D01*
X0086962Y0023448D01*
X0086814Y0023444D01*
X0086666Y0023444D01*
X0086518Y0023448D01*
X0086370Y0023456D01*
X0086223Y0023468D01*
X0086076Y0023484D01*
X0085929Y0023504D01*
X0085783Y0023528D01*
X0085637Y0023555D01*
X0085493Y0023587D01*
X0085349Y0023622D01*
X0085206Y0023662D01*
X0085065Y0023705D01*
X0084924Y0023752D01*
X0084785Y0023802D01*
X0084648Y0023857D01*
X0084512Y0023915D01*
X0084377Y0023976D01*
X0084244Y0024041D01*
X0084113Y0024110D01*
X0083984Y0024182D01*
X0083857Y0024258D01*
X0083732Y0024337D01*
X0083609Y0024420D01*
X0083488Y0024505D01*
X0083370Y0024594D01*
X0083254Y0024686D01*
X0083141Y0024782D01*
X0083030Y0024880D01*
X0082922Y0024981D01*
X0082816Y0025085D01*
X0082714Y0025191D01*
X0082614Y0025301D01*
X0082518Y0025413D01*
X0082424Y0025528D01*
X0082333Y0025645D01*
X0082246Y0025764D01*
X0082162Y0025886D01*
X0082081Y0026010D01*
X0082004Y0026136D01*
X0081930Y0026264D01*
X0081859Y0026394D01*
X0081792Y0026526D01*
X0081729Y0026660D01*
X0081669Y0026795D01*
X0081613Y0026932D01*
X0081560Y0027071D01*
X0081512Y0027211D01*
X0081467Y0027352D01*
X0081426Y0027494D01*
X0081388Y0027637D01*
X0081355Y0027781D01*
X0081325Y0027926D01*
X0081299Y0028072D01*
X0081278Y0028218D01*
X0081260Y0028365D01*
X0081246Y0028512D01*
X0081236Y0028660D01*
X0081230Y0028808D01*
X0081228Y0028956D01*
X0081228Y0131319D02*
X0081230Y0131467D01*
X0081236Y0131615D01*
X0081246Y0131763D01*
X0081260Y0131910D01*
X0081278Y0132057D01*
X0081299Y0132203D01*
X0081325Y0132349D01*
X0081355Y0132494D01*
X0081388Y0132638D01*
X0081426Y0132781D01*
X0081467Y0132923D01*
X0081512Y0133064D01*
X0081560Y0133204D01*
X0081613Y0133343D01*
X0081669Y0133480D01*
X0081729Y0133615D01*
X0081792Y0133749D01*
X0081859Y0133881D01*
X0081930Y0134011D01*
X0082004Y0134139D01*
X0082081Y0134265D01*
X0082162Y0134389D01*
X0082246Y0134511D01*
X0082333Y0134630D01*
X0082424Y0134747D01*
X0082518Y0134862D01*
X0082614Y0134974D01*
X0082714Y0135084D01*
X0082816Y0135190D01*
X0082922Y0135294D01*
X0083030Y0135395D01*
X0083141Y0135493D01*
X0083254Y0135589D01*
X0083370Y0135681D01*
X0083488Y0135770D01*
X0083609Y0135855D01*
X0083732Y0135938D01*
X0083857Y0136017D01*
X0083984Y0136093D01*
X0084113Y0136165D01*
X0084244Y0136234D01*
X0084377Y0136299D01*
X0084512Y0136360D01*
X0084648Y0136418D01*
X0084785Y0136473D01*
X0084924Y0136523D01*
X0085065Y0136570D01*
X0085206Y0136613D01*
X0085349Y0136653D01*
X0085493Y0136688D01*
X0085637Y0136720D01*
X0085783Y0136747D01*
X0085929Y0136771D01*
X0086076Y0136791D01*
X0086223Y0136807D01*
X0086370Y0136819D01*
X0086518Y0136827D01*
X0086666Y0136831D01*
X0086814Y0136831D01*
X0086962Y0136827D01*
X0087110Y0136819D01*
X0087257Y0136807D01*
X0087404Y0136791D01*
X0087551Y0136771D01*
X0087697Y0136747D01*
X0087843Y0136720D01*
X0087987Y0136688D01*
X0088131Y0136653D01*
X0088274Y0136613D01*
X0088415Y0136570D01*
X0088556Y0136523D01*
X0088695Y0136473D01*
X0088832Y0136418D01*
X0088968Y0136360D01*
X0089103Y0136299D01*
X0089236Y0136234D01*
X0089367Y0136165D01*
X0089496Y0136093D01*
X0089623Y0136017D01*
X0089748Y0135938D01*
X0089871Y0135855D01*
X0089992Y0135770D01*
X0090110Y0135681D01*
X0090226Y0135589D01*
X0090339Y0135493D01*
X0090450Y0135395D01*
X0090558Y0135294D01*
X0090664Y0135190D01*
X0090766Y0135084D01*
X0090866Y0134974D01*
X0090962Y0134862D01*
X0091056Y0134747D01*
X0091147Y0134630D01*
X0091234Y0134511D01*
X0091318Y0134389D01*
X0091399Y0134265D01*
X0091476Y0134139D01*
X0091550Y0134011D01*
X0091621Y0133881D01*
X0091688Y0133749D01*
X0091751Y0133615D01*
X0091811Y0133480D01*
X0091867Y0133343D01*
X0091920Y0133204D01*
X0091968Y0133064D01*
X0092013Y0132923D01*
X0092054Y0132781D01*
X0092092Y0132638D01*
X0092125Y0132494D01*
X0092155Y0132349D01*
X0092181Y0132203D01*
X0092202Y0132057D01*
X0092220Y0131910D01*
X0092234Y0131763D01*
X0092244Y0131615D01*
X0092250Y0131467D01*
X0092252Y0131319D01*
X0092250Y0131171D01*
X0092244Y0131023D01*
X0092234Y0130875D01*
X0092220Y0130728D01*
X0092202Y0130581D01*
X0092181Y0130435D01*
X0092155Y0130289D01*
X0092125Y0130144D01*
X0092092Y0130000D01*
X0092054Y0129857D01*
X0092013Y0129715D01*
X0091968Y0129574D01*
X0091920Y0129434D01*
X0091867Y0129295D01*
X0091811Y0129158D01*
X0091751Y0129023D01*
X0091688Y0128889D01*
X0091621Y0128757D01*
X0091550Y0128627D01*
X0091476Y0128499D01*
X0091399Y0128373D01*
X0091318Y0128249D01*
X0091234Y0128127D01*
X0091147Y0128008D01*
X0091056Y0127891D01*
X0090962Y0127776D01*
X0090866Y0127664D01*
X0090766Y0127554D01*
X0090664Y0127448D01*
X0090558Y0127344D01*
X0090450Y0127243D01*
X0090339Y0127145D01*
X0090226Y0127049D01*
X0090110Y0126957D01*
X0089992Y0126868D01*
X0089871Y0126783D01*
X0089748Y0126700D01*
X0089623Y0126621D01*
X0089496Y0126545D01*
X0089367Y0126473D01*
X0089236Y0126404D01*
X0089103Y0126339D01*
X0088968Y0126278D01*
X0088832Y0126220D01*
X0088695Y0126165D01*
X0088556Y0126115D01*
X0088415Y0126068D01*
X0088274Y0126025D01*
X0088131Y0125985D01*
X0087987Y0125950D01*
X0087843Y0125918D01*
X0087697Y0125891D01*
X0087551Y0125867D01*
X0087404Y0125847D01*
X0087257Y0125831D01*
X0087110Y0125819D01*
X0086962Y0125811D01*
X0086814Y0125807D01*
X0086666Y0125807D01*
X0086518Y0125811D01*
X0086370Y0125819D01*
X0086223Y0125831D01*
X0086076Y0125847D01*
X0085929Y0125867D01*
X0085783Y0125891D01*
X0085637Y0125918D01*
X0085493Y0125950D01*
X0085349Y0125985D01*
X0085206Y0126025D01*
X0085065Y0126068D01*
X0084924Y0126115D01*
X0084785Y0126165D01*
X0084648Y0126220D01*
X0084512Y0126278D01*
X0084377Y0126339D01*
X0084244Y0126404D01*
X0084113Y0126473D01*
X0083984Y0126545D01*
X0083857Y0126621D01*
X0083732Y0126700D01*
X0083609Y0126783D01*
X0083488Y0126868D01*
X0083370Y0126957D01*
X0083254Y0127049D01*
X0083141Y0127145D01*
X0083030Y0127243D01*
X0082922Y0127344D01*
X0082816Y0127448D01*
X0082714Y0127554D01*
X0082614Y0127664D01*
X0082518Y0127776D01*
X0082424Y0127891D01*
X0082333Y0128008D01*
X0082246Y0128127D01*
X0082162Y0128249D01*
X0082081Y0128373D01*
X0082004Y0128499D01*
X0081930Y0128627D01*
X0081859Y0128757D01*
X0081792Y0128889D01*
X0081729Y0129023D01*
X0081669Y0129158D01*
X0081613Y0129295D01*
X0081560Y0129434D01*
X0081512Y0129574D01*
X0081467Y0129715D01*
X0081426Y0129857D01*
X0081388Y0130000D01*
X0081355Y0130144D01*
X0081325Y0130289D01*
X0081299Y0130435D01*
X0081278Y0130581D01*
X0081260Y0130728D01*
X0081246Y0130875D01*
X0081236Y0131023D01*
X0081230Y0131171D01*
X0081228Y0131319D01*
D11*
X0086740Y0131319D03*
X0086740Y0028956D03*
D12*
G36*
X0086750Y0092687D02*
X0100117Y0079320D01*
X0086750Y0065953D01*
X0073383Y0079320D01*
X0086750Y0092687D01*
G37*
D13*
G36*
X0085148Y0093862D02*
X0081805Y0097205D01*
X0082784Y0098184D01*
X0086127Y0094841D01*
X0085148Y0093862D01*
G37*
G36*
X0083756Y0092470D02*
X0080413Y0095813D01*
X0081392Y0096792D01*
X0084735Y0093449D01*
X0083756Y0092470D01*
G37*
G36*
X0082364Y0091078D02*
X0079021Y0094421D01*
X0080000Y0095400D01*
X0083343Y0092057D01*
X0082364Y0091078D01*
G37*
G36*
X0080972Y0089686D02*
X0077629Y0093029D01*
X0078608Y0094008D01*
X0081951Y0090665D01*
X0080972Y0089686D01*
G37*
G36*
X0079580Y0088294D02*
X0076237Y0091637D01*
X0077216Y0092616D01*
X0080559Y0089273D01*
X0079580Y0088294D01*
G37*
G36*
X0078188Y0086902D02*
X0074845Y0090245D01*
X0075824Y0091224D01*
X0079167Y0087881D01*
X0078188Y0086902D01*
G37*
G36*
X0076796Y0085510D02*
X0073453Y0088853D01*
X0074432Y0089832D01*
X0077775Y0086489D01*
X0076796Y0085510D01*
G37*
G36*
X0075405Y0084118D02*
X0072062Y0087461D01*
X0073041Y0088440D01*
X0076384Y0085097D01*
X0075405Y0084118D01*
G37*
G36*
X0074013Y0082726D02*
X0070670Y0086069D01*
X0071649Y0087048D01*
X0074992Y0083705D01*
X0074013Y0082726D01*
G37*
G36*
X0072621Y0081334D02*
X0069278Y0084677D01*
X0070257Y0085656D01*
X0073600Y0082313D01*
X0072621Y0081334D01*
G37*
G36*
X0071229Y0079942D02*
X0067886Y0083285D01*
X0068865Y0084264D01*
X0072208Y0080921D01*
X0071229Y0079942D01*
G37*
G36*
X0072208Y0077718D02*
X0068865Y0074375D01*
X0067886Y0075354D01*
X0071229Y0078697D01*
X0072208Y0077718D01*
G37*
G36*
X0073600Y0076326D02*
X0070257Y0072983D01*
X0069278Y0073962D01*
X0072621Y0077305D01*
X0073600Y0076326D01*
G37*
G36*
X0074992Y0074934D02*
X0071649Y0071591D01*
X0070670Y0072570D01*
X0074013Y0075913D01*
X0074992Y0074934D01*
G37*
G36*
X0076384Y0073542D02*
X0073041Y0070199D01*
X0072062Y0071178D01*
X0075405Y0074521D01*
X0076384Y0073542D01*
G37*
G36*
X0077775Y0072150D02*
X0074432Y0068807D01*
X0073453Y0069786D01*
X0076796Y0073129D01*
X0077775Y0072150D01*
G37*
G36*
X0079167Y0070758D02*
X0075824Y0067415D01*
X0074845Y0068394D01*
X0078188Y0071737D01*
X0079167Y0070758D01*
G37*
G36*
X0080559Y0069366D02*
X0077216Y0066023D01*
X0076237Y0067002D01*
X0079580Y0070345D01*
X0080559Y0069366D01*
G37*
G36*
X0081951Y0067974D02*
X0078608Y0064631D01*
X0077629Y0065610D01*
X0080972Y0068953D01*
X0081951Y0067974D01*
G37*
G36*
X0083343Y0066582D02*
X0080000Y0063239D01*
X0079021Y0064218D01*
X0082364Y0067561D01*
X0083343Y0066582D01*
G37*
G36*
X0084735Y0065190D02*
X0081392Y0061847D01*
X0080413Y0062826D01*
X0083756Y0066169D01*
X0084735Y0065190D01*
G37*
G36*
X0086127Y0063798D02*
X0082784Y0060455D01*
X0081805Y0061434D01*
X0085148Y0064777D01*
X0086127Y0063798D01*
G37*
G36*
X0088352Y0064777D02*
X0091695Y0061434D01*
X0090716Y0060455D01*
X0087373Y0063798D01*
X0088352Y0064777D01*
G37*
G36*
X0089744Y0066169D02*
X0093087Y0062826D01*
X0092108Y0061847D01*
X0088765Y0065190D01*
X0089744Y0066169D01*
G37*
G36*
X0091136Y0067561D02*
X0094479Y0064218D01*
X0093500Y0063239D01*
X0090157Y0066582D01*
X0091136Y0067561D01*
G37*
G36*
X0092528Y0068953D02*
X0095871Y0065610D01*
X0094892Y0064631D01*
X0091549Y0067974D01*
X0092528Y0068953D01*
G37*
G36*
X0093920Y0070345D02*
X0097263Y0067002D01*
X0096284Y0066023D01*
X0092941Y0069366D01*
X0093920Y0070345D01*
G37*
G36*
X0095312Y0071737D02*
X0098655Y0068394D01*
X0097676Y0067415D01*
X0094333Y0070758D01*
X0095312Y0071737D01*
G37*
G36*
X0096704Y0073129D02*
X0100047Y0069786D01*
X0099068Y0068807D01*
X0095725Y0072150D01*
X0096704Y0073129D01*
G37*
G36*
X0098095Y0074521D02*
X0101438Y0071178D01*
X0100459Y0070199D01*
X0097116Y0073542D01*
X0098095Y0074521D01*
G37*
G36*
X0099487Y0075913D02*
X0102830Y0072570D01*
X0101851Y0071591D01*
X0098508Y0074934D01*
X0099487Y0075913D01*
G37*
G36*
X0100879Y0077305D02*
X0104222Y0073962D01*
X0103243Y0072983D01*
X0099900Y0076326D01*
X0100879Y0077305D01*
G37*
G36*
X0102271Y0078697D02*
X0105614Y0075354D01*
X0104635Y0074375D01*
X0101292Y0077718D01*
X0102271Y0078697D01*
G37*
G36*
X0105614Y0083285D02*
X0102271Y0079942D01*
X0101292Y0080921D01*
X0104635Y0084264D01*
X0105614Y0083285D01*
G37*
G36*
X0104222Y0084677D02*
X0100879Y0081334D01*
X0099900Y0082313D01*
X0103243Y0085656D01*
X0104222Y0084677D01*
G37*
G36*
X0102830Y0086069D02*
X0099487Y0082726D01*
X0098508Y0083705D01*
X0101851Y0087048D01*
X0102830Y0086069D01*
G37*
G36*
X0101438Y0087461D02*
X0098095Y0084118D01*
X0097116Y0085097D01*
X0100459Y0088440D01*
X0101438Y0087461D01*
G37*
G36*
X0100047Y0088853D02*
X0096704Y0085510D01*
X0095725Y0086489D01*
X0099068Y0089832D01*
X0100047Y0088853D01*
G37*
G36*
X0098655Y0090245D02*
X0095312Y0086902D01*
X0094333Y0087881D01*
X0097676Y0091224D01*
X0098655Y0090245D01*
G37*
G36*
X0097263Y0091637D02*
X0093920Y0088294D01*
X0092941Y0089273D01*
X0096284Y0092616D01*
X0097263Y0091637D01*
G37*
G36*
X0095871Y0093029D02*
X0092528Y0089686D01*
X0091549Y0090665D01*
X0094892Y0094008D01*
X0095871Y0093029D01*
G37*
G36*
X0094479Y0094421D02*
X0091136Y0091078D01*
X0090157Y0092057D01*
X0093500Y0095400D01*
X0094479Y0094421D01*
G37*
G36*
X0093087Y0095813D02*
X0089744Y0092470D01*
X0088765Y0093449D01*
X0092108Y0096792D01*
X0093087Y0095813D01*
G37*
G36*
X0091695Y0097205D02*
X0088352Y0093862D01*
X0087373Y0094841D01*
X0090716Y0098184D01*
X0091695Y0097205D01*
G37*
D14*
X0091110Y0049862D03*
X0012370Y0049862D03*
D15*
X0022370Y0049862D03*
X0032370Y0049862D03*
X0042370Y0049862D03*
X0052370Y0049862D03*
X0062370Y0049862D03*
X0072370Y0049862D03*
X0082370Y0049862D03*
X0101110Y0049862D03*
X0111110Y0049862D03*
X0121110Y0049862D03*
X0131110Y0049862D03*
X0141110Y0049862D03*
X0151110Y0049862D03*
X0161110Y0049862D03*
X0161110Y0110413D03*
X0151110Y0110413D03*
X0141110Y0110413D03*
X0131110Y0110413D03*
X0121110Y0110413D03*
X0111110Y0110413D03*
X0101110Y0110413D03*
X0091110Y0110413D03*
X0082370Y0110413D03*
X0072370Y0110413D03*
X0062370Y0110413D03*
X0052370Y0110413D03*
X0042370Y0110413D03*
X0032370Y0110413D03*
X0022370Y0110413D03*
X0012370Y0110413D03*
D16*
X0015500Y0095886D03*
X0015500Y0088012D03*
X0025500Y0088012D03*
X0025500Y0080138D03*
X0025500Y0072263D03*
X0015500Y0072263D03*
X0015500Y0080138D03*
X0015500Y0064389D03*
X0148000Y0072263D03*
X0148000Y0080138D03*
X0158000Y0080138D03*
X0158000Y0072263D03*
X0158000Y0064389D03*
X0158000Y0088012D03*
X0158000Y0095886D03*
X0148000Y0088012D03*
D17*
X0131740Y0084832D03*
X0124260Y0084832D03*
X0124240Y0097332D03*
X0116760Y0097332D03*
X0060490Y0094832D03*
X0053010Y0094832D03*
X0051760Y0067332D03*
X0059240Y0067332D03*
D18*
X0133000Y0027082D03*
D19*
X0133000Y0035082D03*
D20*
X0120500Y0121092D03*
X0120500Y0128573D03*
X0110500Y0128573D03*
X0110500Y0121092D03*
D21*
X0155000Y0123582D02*
X0161000Y0123582D01*
X0161000Y0133582D02*
X0155000Y0133582D01*
X0155000Y0036082D02*
X0161000Y0036082D01*
X0161000Y0026082D02*
X0155000Y0026082D01*
X0018500Y0026082D02*
X0012500Y0026082D01*
X0012500Y0036082D02*
X0018500Y0036082D01*
X0018500Y0123582D02*
X0012500Y0123582D01*
X0012500Y0133582D02*
X0018500Y0133582D01*
M02*
