<?xml version="1.0" encoding="UTF-8" standalone="no"?>
<!-- Generated by SVGo -->

<svg
   xmlns:dc="http://purl.org/dc/elements/1.1/"
   xmlns:cc="http://creativecommons.org/ns#"
   xmlns:rdf="http://www.w3.org/1999/02/22-rdf-syntax-ns#"
   xmlns:svg="http://www.w3.org/2000/svg"
   xmlns="http://www.w3.org/2000/svg"
   xmlns:xlink="http://www.w3.org/1999/xlink"
   xmlns:sodipodi="http://sodipodi.sourceforge.net/DTD/sodipodi-0.dtd"
   xmlns:inkscape="http://www.inkscape.org/namespaces/inkscape"
   sodipodi:docname="case_switch_acryl_plate.svg"
   inkscape:version="0.91 r13725"
   version="1.1"
   id="svg2"
   viewBox="0 0 186.821 167.133"
   height="592.20355"
   width="661.96417">
  <sodipodi:namedview
     pagecolor="#ffffff"
     bordercolor="#666666"
     borderopacity="1"
     objecttolerance="10"
     gridtolerance="10"
     guidetolerance="10"
     inkscape:pageopacity="0"
     inkscape:pageshadow="2"
     inkscape:window-width="2560"
     inkscape:window-height="1440"
     id="namedview74"
     showgrid="true"
     inkscape:document-units="mm"
     units="mm"
     inkscape:zoom="6.0083418"
     inkscape:cx="535.57826"
     inkscape:cy="312.95224"
     inkscape:window-x="0"
     inkscape:window-y="0"
     inkscape:window-maximized="0"
     inkscape:current-layer="g4292"
     showguides="true"
     inkscape:guide-bbox="true">
    <inkscape:grid
       dotted="true"
       spacingy="1mm"
       spacingx="1mm"
       units="mm"
       snapvisiblegridlinesonly="true"
       enabled="true"
       visible="true"
       empspacing="5"
       id="grid3055"
       type="xygrid" />
    <sodipodi:guide
       orientation="1,0"
       position="627.16535,524.40945"
       id="guide3655" />
    <sodipodi:guide
       orientation="0,1"
       position="598.8189,237.40157"
       id="guide3659" />
  </sodipodi:namedview>
  <metadata
     id="metadata78">
    <rdf:RDF>
      <cc:Work
         rdf:about="">
        <dc:format>image/svg+xml</dc:format>
        <dc:type
           rdf:resource="http://purl.org/dc/dcmitype/StillImage" />
        <dc:title></dc:title>
      </cc:Work>
    </rdf:RDF>
  </metadata>
  <defs
     id="defs76">
    <inkscape:path-effect
       effect="spiro"
       id="path-effect3182"
       is_visible="true" />
    <inkscape:path-effect
       effect="spiro"
       id="path-effect4302"
       is_visible="true" />
    <inkscape:path-effect
       is_visible="true"
       id="path-effect4246"
       effect="spiro" />
    <inkscape:path-effect
       effect="spiro"
       id="path-effect4143"
       is_visible="true" />
    <inkscape:path-effect
       effect="spiro"
       id="path-effect4117"
       is_visible="true" />
    <inkscape:path-effect
       effect="spiro"
       id="path-effect4075"
       is_visible="true" />
    <inkscape:path-effect
       effect="skeletal"
       id="path-effect4071"
       is_visible="true"
       pattern="M 0,0 0,10 10,5 z"
       copytype="single_stretched"
       prop_scale="1"
       scale_y_rel="false"
       spacing="0"
       normal_offset="0"
       tang_offset="0"
       prop_units="false"
       vertical_pattern="false"
       fuse_tolerance="0" />
    <inkscape:path-effect
       effect="spiro"
       id="path-effect4069"
       is_visible="true" />
    <inkscape:path-effect
       effect="spiro"
       id="path-effect4065"
       is_visible="true" />
  </defs>
  <g
     style="display:inline"
     inkscape:label="Case_Drills"
     id="layer2"
     inkscape:groupmode="layer">
    <polygon
       transform="translate(-20.884435,-0.7733518)"
       id="polygon8"
       style="display:inline;fill:none;stroke:#000000;stroke-width:0.2"
       points="177.702,155.919 178.034,156.251 178.247,156.669 178.321,157.133 178.247,157.596 178.034,158.014 177.702,158.346 177.284,158.559 176.821,158.633 176.357,158.559 175.939,158.346 175.607,158.014 175.394,157.596 175.321,157.133 175.394,156.669 175.607,156.251 175.939,155.919 176.357,155.706 176.821,155.633 177.284,155.706 " />
    <polygon
       transform="translate(0.16713326,8.8e-6)"
       id="polygon6"
       style="display:inline;fill:none;stroke:#000000;stroke-width:0.2"
       points="177.702,8.786 178.034,9.118 178.247,9.536 178.321,10 178.247,10.464 178.034,10.882 177.702,11.214 177.284,11.427 176.821,11.5 176.357,11.427 175.939,11.214 175.607,10.882 175.394,10.464 175.321,10 175.394,9.536 175.607,9.118 175.939,8.786 176.357,8.573 176.821,8.5 177.284,8.573 " />
    <polygon
       transform="translate(0,-40.099999)"
       id="polygon10"
       style="display:inline;fill:none;stroke:#000000;stroke-width:0.2"
       points="9.118,155.919 9.536,155.706 10,155.633 10.464,155.706 10.882,155.919 11.214,156.251 11.427,156.669 11.5,157.133 11.427,157.596 11.214,158.014 10.882,158.346 10.464,158.559 10,158.633 9.536,158.559 9.118,158.346 8.786,158.014 8.573,157.596 8.5,157.133 8.573,156.669 8.786,156.251 " />
    <polygon
       transform="translate(0,8.8e-6)"
       id="polygon12"
       style="display:inline;fill:none;stroke:#000000;stroke-width:0.2"
       points="9.536,8.573 10,8.5 10.464,8.573 10.882,8.786 11.214,9.118 11.427,9.536 11.5,10 11.427,10.464 11.214,10.882 10.882,11.214 10.464,11.427 10,11.5 9.536,11.427 9.118,11.214 8.786,10.882 8.573,10.464 8.5,10 8.573,9.536 8.786,9.118 9.118,8.786 " />
    <polygon
       points="8.573,156.669 8.786,156.251 9.118,155.919 9.536,155.706 10,155.633 10.464,155.706 10.882,155.919 11.214,156.251 11.427,156.669 11.5,157.133 11.427,157.596 11.214,158.014 10.882,158.346 10.464,158.559 10,158.633 9.536,158.559 9.118,158.346 8.786,158.014 8.573,157.596 8.5,157.133 "
       style="display:inline;fill:none;stroke:#000000;stroke-width:0.2"
       id="use3344"
       transform="translate(84.135308,-36.048027)" />
    <polygon
       points="177.702,11.214 177.284,11.427 176.821,11.5 176.357,11.427 175.939,11.214 175.607,10.882 175.394,10.464 175.321,10 175.394,9.536 175.607,9.118 175.939,8.786 176.357,8.573 176.821,8.5 177.284,8.573 177.702,8.786 178.034,9.118 178.247,9.536 178.321,10 178.247,10.464 178.034,10.882 "
       style="display:inline;fill:none;stroke:#000000;stroke-width:0.2"
       id="use3350"
       transform="translate(0.16712849,110.09156)" />
    <use
       x="0"
       y="0"
       xlink:href="#polygon6"
       id="use4411"
       transform="translate(-82.973319,0)"
       width="100%"
       height="100%" />
  </g>
  <g
     inkscape:groupmode="layer"
     id="g3172"
     inkscape:label="Case_Contour"
     style="display:inline">
    <path
       style="fill:none;stroke:#000000;stroke-width:1px;stroke-linecap:butt;stroke-linejoin:miter;stroke-opacity:1"
       d="m 31.889764,432.75474 c -3.716184,0.12054 -7.457723,-1.34631 -10.10183,-3.96036 -2.681331,-2.65085 -4.193631,-6.44437 -4.071398,-10.21287 l 0,-386.220477 c 0.333131,-3.640796 1.989005,-7.146199 4.589577,-9.715906 2.556224,-2.525886 6.004942,-4.129873 9.583651,-4.457323 l 598.818906,0 c 3.64034,0.292194 7.15807,1.92444 9.7317,4.515553 2.54904,2.566355 4.15213,6.052123 4.44153,9.657676 l 0,363.952757 c 0,10.45988 0.24452,21.00837 -1.69136,31.28755 -1.2361,6.56351 -3.42683,12.94645 -6.48187,18.88568 l -68.86615,116 c -1.34852,2.83386 -3.54422,5.25796 -6.23124,6.87943 -2.68702,1.62147 -5.85513,2.43413 -8.99088,2.30629 -2.89652,-0.11809 -5.71421,-1.0117 -8.36223,-2.19143 -2.64803,-1.17972 -5.16042,-2.6393 -7.67549,-4.0809 L 317.52756,439.84135 c -4.01907,-2.30367 -8.1485,-4.51674 -12.62992,-5.69004 -5.39705,-1.41303 -11.05096,-1.39657 -16.62992,-1.39657 l -256.377956,0 z"
       id="path4141"
       inkscape:path-effect="#path-effect4143"
       inkscape:original-d="m 31.889764,432.75474 c 0,0 -7.537064,-1.41021 -10.10183,-3.96036 -2.598824,-2.58401 -4.071398,-10.21287 -4.071398,-10.21287 l 0,-386.220477 c 0,0 2.04932,-7.190768 4.589577,-9.715906 2.498678,-2.483805 9.583651,-4.457323 9.583651,-4.457323 l 598.818906,0 c 0,0 7.2073,1.982593 9.7317,4.515553 2.50128,2.509763 4.44153,9.657676 4.44153,9.657676 l 0,363.952757 c 0,0 0.30487,21.03568 -1.69136,31.28755 -1.2721,6.53299 0.60474,15.34237 -6.48187,18.88568 l -68.86615,116 c 0,0 -9.31724,8.68218 -15.22212,9.18572 -5.71946,0.48773 -16.03772,-6.27233 -16.03772,-6.27233 L 317.52756,439.84135 c 0,0 -8.16004,-4.53185 -12.62992,-5.69004 -5.38499,-1.39531 -16.62992,-1.39657 -16.62992,-1.39657 z"
       inkscape:connector-curvature="0"
       sodipodi:nodetypes="caccaccaccaccaccacc"
       transform="matrix(0.28222222,0,0,0.28222222,0,-1.3705992e-6)" />
  </g>
  <g
     inkscape:groupmode="layer"
     id="g4292"
     inkscape:label="Case_Inner_Contour_Top"
     style="display:inline">
    <path
       style="fill:none;stroke:#000000;stroke-width:0.28222221px;stroke-linecap:butt;stroke-linejoin:miter;stroke-opacity:1"
       d="m 14.686222,116.033 0,-77.1 23.712778,0 0,-18.999999 19.481,0 0,-4.819999 19.02,0 0,-2.48 19.100001,0 0,2.52 19.100019,-5e-4 -4e-5,2.280999 19.38006,5e-4 -1.1e-4,76.998996 -19.88008,0 1.5e-4,-2.277 -18.262999,0 0,21.052003 -19.400629,0 -5e-4,2.825 -62.24965,0 z"
       id="path4294"
       inkscape:path-effect="#path-effect4246"
       inkscape:original-d="m 14.686222,116.033 c 1.072035,-25.654788 0.273554,-51.434834 0,-77.1 l 23.712778,0 0,-18.999999 19.481,0 0,-4.819999 c 6.654074,0.274074 22.637403,-18.5344785 19.02,0 l 0,-2.48 19.100001,0 0,2.52 19.100019,-5e-4 -4e-5,2.280999 19.38006,5e-4 -1.1e-4,76.998996 -19.88008,0 1.5e-4,-2.277 -18.262999,0 0,21.052003 -19.400629,0 -5e-4,2.825 c 20.257323,-0.25736 -82.508606,0.006 -62.24965,0 z"
       inkscape:connector-curvature="0"
       sodipodi:nodetypes="ccccccccccccccccccccc" />
    <path
       style="fill:none;stroke:#000000;stroke-width:1px;stroke-linecap:butt;stroke-linejoin:miter;stroke-opacity:1"
       d="M 353.14536,437.76048 532.25119,542.2425 610.1819,409.03661 559.18752,380.78953 579.57454,347.30838 508.063,306.91222 l -45.03918,73.68173 -57.17844,-32.40902 -52.70002,89.57555 z"
       id="path4300"
       inkscape:path-effect="#path-effect4302"
       inkscape:original-d="m 353.14536,437.76048 c 78.94125,41.04929 141.78707,82.95198 179.10583,104.48202 L 610.1819,409.03661 559.18752,380.78953 579.57454,347.30838 508.063,306.91222 463.02382,380.59395 405.84538,348.18493 Z"
       inkscape:connector-curvature="0"
       transform="matrix(0.28222222,0,0,0.28222222,0,-1.3705992e-6)"
       sodipodi:nodetypes="ccccccccc" />
    <polygon
       transform="matrix(1.4143201,0,0,1.4139295,-10.1612,-12.05162)"
       id="polygon3140"
       style="display:inline;fill:none;stroke:#000000;stroke-width:0.14143021"
       points="17.525,17.525 31.525,17.525 31.525,31.525 17.525,31.525 " />
  </g>
</svg>
