  0
SECTION
  2
HEADER
  9
$ACADVER
  1
AC1009
  9
$EXTMIN
 10
0.0
 20
0.0
 30
0.0
  9
$EXTMAX
 10
1000.0
 20
1000.0
 30
0.0
  9
$FILLMODE
 70
 0
  9
$SPLFRAME
 70
 1
  0
ENDSEC
  0
SECTION
  2
TABLES
  0
TABLE
  2
LAYER
 70
1
  0
LAYER
  2
0
 70
     0
 62
     7
  6
CONTINUOUS
  0
ENDTAB
  0
ENDSEC
  0
SECTION
  2
ENTITIES
  0
LINE
  8
0
 62
     0
 10
152.172
 20
5.4791
 30
0.0
 11
152.229
 21
5.12353
 31
0.0
  0
LINE
  8
0
 62
     0
 10
152.229
 20
5.12353
 30
0.0
 11
152.172
 21
4.768
 31
0.0
  0
LINE
  8
0
 62
     0
 10
152.172
 20
4.768
 30
0.0
 11
152.01
 21
4.44832
 31
0.0
  0
LINE
  8
0
 62
     0
 10
152.01
 20
4.44832
 30
0.0
 11
151.755
 21
4.19336
 31
0.0
  0
LINE
  8
0
 62
     0
 10
151.755
 20
4.19336
 30
0.0
 11
151.434
 21
4.03077
 31
0.0
  0
LINE
  8
0
 62
     0
 10
151.434
 20
4.03077
 30
0.0
 11
151.08
 21
3.97425
 31
0.0
  0
LINE
  8
0
 62
     0
 10
151.08
 20
3.97425
 30
0.0
 11
150.724
 21
4.03077
 31
0.0
  0
LINE
  8
0
 62
     0
 10
150.724
 20
4.03077
 30
0.0
 11
150.403
 21
4.19336
 31
0.0
  0
LINE
  8
0
 62
     0
 10
150.403
 20
4.19336
 30
0.0
 11
150.148
 21
4.44832
 31
0.0
  0
LINE
  8
0
 62
     0
 10
150.148
 20
4.44832
 30
0.0
 11
149.986
 21
4.768
 31
0.0
  0
LINE
  8
0
 62
     0
 10
149.986
 20
4.768
 30
0.0
 11
149.929
 21
5.12353
 31
0.0
  0
LINE
  8
0
 62
     0
 10
149.929
 20
5.12353
 30
0.0
 11
149.986
 21
5.4791
 31
0.0
  0
LINE
  8
0
 62
     0
 10
149.986
 20
5.4791
 30
0.0
 11
150.148
 21
5.80016
 31
0.0
  0
LINE
  8
0
 62
     0
 10
150.148
 20
5.80016
 30
0.0
 11
150.403
 21
6.05374
 31
0.0
  0
LINE
  8
0
 62
     0
 10
150.403
 20
6.05374
 30
0.0
 11
150.724
 21
6.21771
 31
0.0
  0
LINE
  8
0
 62
     0
 10
150.724
 20
6.21771
 30
0.0
 11
151.08
 21
6.27422
 31
0.0
  0
LINE
  8
0
 62
     0
 10
151.08
 20
6.27422
 30
0.0
 11
151.434
 21
6.21771
 31
0.0
  0
LINE
  8
0
 62
     0
 10
151.434
 20
6.21771
 30
0.0
 11
151.755
 21
6.05374
 31
0.0
  0
LINE
  8
0
 62
     0
 10
151.755
 20
6.05374
 30
0.0
 11
152.01
 21
5.80016
 31
0.0
  0
LINE
  8
0
 62
     0
 10
152.01
 20
5.80016
 30
0.0
 11
152.172
 21
5.4791
 31
0.0
  0
LINE
  8
0
 62
     0
 10
173.225
 20
151.839
 30
0.0
 11
173.281
 21
151.483
 31
0.0
  0
LINE
  8
0
 62
     0
 10
173.281
 20
151.483
 30
0.0
 11
173.225
 21
151.128
 31
0.0
  0
LINE
  8
0
 62
     0
 10
173.225
 20
151.128
 30
0.0
 11
173.061
 21
150.807
 31
0.0
  0
LINE
  8
0
 62
     0
 10
173.061
 20
150.807
 30
0.0
 11
172.806
 21
150.552
 31
0.0
  0
LINE
  8
0
 62
     0
 10
172.806
 20
150.552
 30
0.0
 11
172.486
 21
150.39
 31
0.0
  0
LINE
  8
0
 62
     0
 10
172.486
 20
150.39
 30
0.0
 11
172.131
 21
150.333
 31
0.0
  0
LINE
  8
0
 62
     0
 10
172.131
 20
150.333
 30
0.0
 11
171.775
 21
150.39
 31
0.0
  0
LINE
  8
0
 62
     0
 10
171.775
 20
150.39
 30
0.0
 11
171.456
 21
150.552
 31
0.0
  0
LINE
  8
0
 62
     0
 10
171.456
 20
150.552
 30
0.0
 11
171.201
 21
150.807
 31
0.0
  0
LINE
  8
0
 62
     0
 10
171.201
 20
150.807
 30
0.0
 11
171.037
 21
151.128
 31
0.0
  0
LINE
  8
0
 62
     0
 10
171.037
 20
151.128
 30
0.0
 11
170.982
 21
151.483
 31
0.0
  0
LINE
  8
0
 62
     0
 10
170.982
 20
151.483
 30
0.0
 11
171.037
 21
151.839
 31
0.0
  0
LINE
  8
0
 62
     0
 10
171.037
 20
151.839
 30
0.0
 11
171.201
 21
152.159
 31
0.0
  0
LINE
  8
0
 62
     0
 10
171.201
 20
152.159
 30
0.0
 11
171.456
 21
152.414
 31
0.0
  0
LINE
  8
0
 62
     0
 10
171.456
 20
152.414
 30
0.0
 11
171.775
 21
152.578
 31
0.0
  0
LINE
  8
0
 62
     0
 10
171.775
 20
152.578
 30
0.0
 11
172.131
 21
152.633
 31
0.0
  0
LINE
  8
0
 62
     0
 10
172.131
 20
152.633
 30
0.0
 11
172.486
 21
152.578
 31
0.0
  0
LINE
  8
0
 62
     0
 10
172.486
 20
152.578
 30
0.0
 11
172.806
 21
152.414
 31
0.0
  0
LINE
  8
0
 62
     0
 10
172.806
 20
152.414
 30
0.0
 11
173.061
 21
152.159
 31
0.0
  0
LINE
  8
0
 62
     0
 10
173.061
 20
152.159
 30
0.0
 11
173.225
 21
151.839
 31
0.0
  0
LINE
  8
0
 62
     0
 10
4.7873
 20
45.5443
 30
0.0
 11
5.14283
 21
45.6008
 31
0.0
  0
LINE
  8
0
 62
     0
 10
5.14283
 20
45.6008
 30
0.0
 11
5.49836
 21
45.5443
 31
0.0
  0
LINE
  8
0
 62
     0
 10
5.49836
 20
45.5443
 30
0.0
 11
5.81946
 21
45.3817
 31
0.0
  0
LINE
  8
0
 62
     0
 10
5.81946
 20
45.3817
 30
0.0
 11
6.07441
 21
45.1266
 31
0.0
  0
LINE
  8
0
 62
     0
 10
6.07441
 20
45.1266
 30
0.0
 11
6.23701
 21
44.8056
 31
0.0
  0
LINE
  8
0
 62
     0
 10
6.23701
 20
44.8056
 30
0.0
 11
6.29348
 21
44.45
 31
0.0
  0
LINE
  8
0
 62
     0
 10
6.29348
 20
44.45
 30
0.0
 11
6.23701
 21
44.0958
 31
0.0
  0
LINE
  8
0
 62
     0
 10
6.23701
 20
44.0958
 30
0.0
 11
6.07441
 21
43.7748
 31
0.0
  0
LINE
  8
0
 62
     0
 10
6.07441
 20
43.7748
 30
0.0
 11
5.81946
 21
43.5197
 31
0.0
  0
LINE
  8
0
 62
     0
 10
5.81946
 20
43.5197
 30
0.0
 11
5.49836
 21
43.3571
 31
0.0
  0
LINE
  8
0
 62
     0
 10
5.49836
 20
43.3571
 30
0.0
 11
5.14283
 21
43.3006
 31
0.0
  0
LINE
  8
0
 62
     0
 10
5.14283
 20
43.3006
 30
0.0
 11
4.7873
 21
43.3571
 31
0.0
  0
LINE
  8
0
 62
     0
 10
4.7873
 20
43.3571
 30
0.0
 11
4.46624
 21
43.5197
 31
0.0
  0
LINE
  8
0
 62
     0
 10
4.46624
 20
43.5197
 30
0.0
 11
4.21266
 21
43.7748
 31
0.0
  0
LINE
  8
0
 62
     0
 10
4.21266
 20
43.7748
 30
0.0
 11
4.04869
 21
44.0958
 31
0.0
  0
LINE
  8
0
 62
     0
 10
4.04869
 20
44.0958
 30
0.0
 11
3.99355
 21
44.45
 31
0.0
  0
LINE
  8
0
 62
     0
 10
3.99355
 20
44.45
 30
0.0
 11
4.04869
 21
44.8056
 31
0.0
  0
LINE
  8
0
 62
     0
 10
4.04869
 20
44.8056
 30
0.0
 11
4.21266
 21
45.1266
 31
0.0
  0
LINE
  8
0
 62
     0
 10
4.21266
 20
45.1266
 30
0.0
 11
4.46624
 21
45.3817
 31
0.0
  0
LINE
  8
0
 62
     0
 10
4.46624
 20
45.3817
 30
0.0
 11
4.7873
 21
45.5443
 31
0.0
  0
LINE
  8
0
 62
     0
 10
5.14283
 20
152.633
 30
0.0
 11
5.49836
 21
152.578
 31
0.0
  0
LINE
  8
0
 62
     0
 10
5.49836
 20
152.578
 30
0.0
 11
5.81946
 21
152.414
 31
0.0
  0
LINE
  8
0
 62
     0
 10
5.81946
 20
152.414
 30
0.0
 11
6.07441
 21
152.159
 31
0.0
  0
LINE
  8
0
 62
     0
 10
6.07441
 20
152.159
 30
0.0
 11
6.23701
 21
151.839
 31
0.0
  0
LINE
  8
0
 62
     0
 10
6.23701
 20
151.839
 30
0.0
 11
6.29348
 21
151.483
 31
0.0
  0
LINE
  8
0
 62
     0
 10
6.29348
 20
151.483
 30
0.0
 11
6.23701
 21
151.128
 31
0.0
  0
LINE
  8
0
 62
     0
 10
6.23701
 20
151.128
 30
0.0
 11
6.07441
 21
150.807
 31
0.0
  0
LINE
  8
0
 62
     0
 10
6.07441
 20
150.807
 30
0.0
 11
5.81946
 21
150.552
 31
0.0
  0
LINE
  8
0
 62
     0
 10
5.81946
 20
150.552
 30
0.0
 11
5.49836
 21
150.39
 31
0.0
  0
LINE
  8
0
 62
     0
 10
5.49836
 20
150.39
 30
0.0
 11
5.14283
 21
150.333
 31
0.0
  0
LINE
  8
0
 62
     0
 10
5.14283
 20
150.333
 30
0.0
 11
4.7873
 21
150.39
 31
0.0
  0
LINE
  8
0
 62
     0
 10
4.7873
 20
150.39
 30
0.0
 11
4.46624
 21
150.552
 31
0.0
  0
LINE
  8
0
 62
     0
 10
4.46624
 20
150.552
 30
0.0
 11
4.21266
 21
150.807
 31
0.0
  0
LINE
  8
0
 62
     0
 10
4.21266
 20
150.807
 30
0.0
 11
4.04869
 21
151.128
 31
0.0
  0
LINE
  8
0
 62
     0
 10
4.04869
 20
151.128
 30
0.0
 11
3.99355
 21
151.483
 31
0.0
  0
LINE
  8
0
 62
     0
 10
3.99355
 20
151.483
 30
0.0
 11
4.04869
 21
151.839
 31
0.0
  0
LINE
  8
0
 62
     0
 10
4.04869
 20
151.839
 30
0.0
 11
4.21266
 21
152.159
 31
0.0
  0
LINE
  8
0
 62
     0
 10
4.21266
 20
152.159
 30
0.0
 11
4.46624
 21
152.414
 31
0.0
  0
LINE
  8
0
 62
     0
 10
4.46624
 20
152.414
 30
0.0
 11
4.7873
 21
152.578
 31
0.0
  0
LINE
  8
0
 62
     0
 10
4.7873
 20
152.578
 30
0.0
 11
5.14283
 21
152.633
 31
0.0
  0
LINE
  8
0
 62
     0
 10
88.9222
 20
41.4927
 30
0.0
 11
89.2789
 21
41.5477
 31
0.0
  0
LINE
  8
0
 62
     0
 10
89.2789
 20
41.5477
 30
0.0
 11
89.6345
 21
41.4927
 31
0.0
  0
LINE
  8
0
 62
     0
 10
89.6345
 20
41.4927
 30
0.0
 11
89.9541
 21
41.3286
 31
0.0
  0
LINE
  8
0
 62
     0
 10
89.9541
 20
41.3286
 30
0.0
 11
90.2092
 21
41.0753
 31
0.0
  0
LINE
  8
0
 62
     0
 10
90.2092
 20
41.0753
 30
0.0
 11
90.3718
 21
40.7539
 31
0.0
  0
LINE
  8
0
 62
     0
 10
90.3718
 20
40.7539
 30
0.0
 11
90.4282
 21
40.3987
 31
0.0
  0
LINE
  8
0
 62
     0
 10
90.4282
 20
40.3987
 30
0.0
 11
90.3718
 21
40.0431
 31
0.0
  0
LINE
  8
0
 62
     0
 10
90.3718
 20
40.0431
 30
0.0
 11
90.2092
 21
39.7235
 31
0.0
  0
LINE
  8
0
 62
     0
 10
90.2092
 20
39.7235
 30
0.0
 11
89.9541
 21
39.4684
 31
0.0
  0
LINE
  8
0
 62
     0
 10
89.9541
 20
39.4684
 30
0.0
 11
89.6345
 21
39.3044
 31
0.0
  0
LINE
  8
0
 62
     0
 10
89.6345
 20
39.3044
 30
0.0
 11
89.2789
 21
39.2479
 31
0.0
  0
LINE
  8
0
 62
     0
 10
89.2789
 20
39.2479
 30
0.0
 11
88.9222
 21
39.3044
 31
0.0
  0
LINE
  8
0
 62
     0
 10
88.9222
 20
39.3044
 30
0.0
 11
88.6023
 21
39.4684
 31
0.0
  0
LINE
  8
0
 62
     0
 10
88.6023
 20
39.4684
 30
0.0
 11
88.3476
 21
39.7235
 31
0.0
  0
LINE
  8
0
 62
     0
 10
88.3476
 20
39.7235
 30
0.0
 11
88.1849
 21
40.0431
 31
0.0
  0
LINE
  8
0
 62
     0
 10
88.1849
 20
40.0431
 30
0.0
 11
88.1285
 21
40.3987
 31
0.0
  0
LINE
  8
0
 62
     0
 10
88.1285
 20
40.3987
 30
0.0
 11
88.1849
 21
40.7539
 31
0.0
  0
LINE
  8
0
 62
     0
 10
88.1849
 20
40.7539
 30
0.0
 11
88.3476
 21
41.0753
 31
0.0
  0
LINE
  8
0
 62
     0
 10
88.3476
 20
41.0753
 30
0.0
 11
88.6023
 21
41.3286
 31
0.0
  0
LINE
  8
0
 62
     0
 10
88.6023
 20
41.3286
 30
0.0
 11
88.9222
 21
41.4927
 31
0.0
  0
LINE
  8
0
 62
     0
 10
172.806
 20
40.4604
 30
0.0
 11
172.486
 21
40.2978
 31
0.0
  0
LINE
  8
0
 62
     0
 10
172.486
 20
40.2978
 30
0.0
 11
172.131
 21
40.2414
 31
0.0
  0
LINE
  8
0
 62
     0
 10
172.131
 20
40.2414
 30
0.0
 11
171.775
 21
40.2978
 31
0.0
  0
LINE
  8
0
 62
     0
 10
171.775
 20
40.2978
 30
0.0
 11
171.456
 21
40.4604
 31
0.0
  0
LINE
  8
0
 62
     0
 10
171.456
 20
40.4604
 30
0.0
 11
171.201
 21
40.7155
 31
0.0
  0
LINE
  8
0
 62
     0
 10
171.201
 20
40.7155
 30
0.0
 11
171.037
 21
41.0365
 31
0.0
  0
LINE
  8
0
 62
     0
 10
171.037
 20
41.0365
 30
0.0
 11
170.982
 21
41.3921
 31
0.0
  0
LINE
  8
0
 62
     0
 10
170.982
 20
41.3921
 30
0.0
 11
171.037
 21
41.7477
 31
0.0
  0
LINE
  8
0
 62
     0
 10
171.037
 20
41.7477
 30
0.0
 11
171.201
 21
42.0673
 31
0.0
  0
LINE
  8
0
 62
     0
 10
171.201
 20
42.0673
 30
0.0
 11
171.456
 21
42.3224
 31
0.0
  0
LINE
  8
0
 62
     0
 10
171.456
 20
42.3224
 30
0.0
 11
171.775
 21
42.4864
 31
0.0
  0
LINE
  8
0
 62
     0
 10
171.775
 20
42.4864
 30
0.0
 11
172.131
 21
42.5415
 31
0.0
  0
LINE
  8
0
 62
     0
 10
172.131
 20
42.5415
 30
0.0
 11
172.486
 21
42.4864
 31
0.0
  0
LINE
  8
0
 62
     0
 10
172.486
 20
42.4864
 30
0.0
 11
172.806
 21
42.3224
 31
0.0
  0
LINE
  8
0
 62
     0
 10
172.806
 20
42.3224
 30
0.0
 11
173.061
 21
42.0673
 31
0.0
  0
LINE
  8
0
 62
     0
 10
173.061
 20
42.0673
 30
0.0
 11
173.225
 21
41.7477
 31
0.0
  0
LINE
  8
0
 62
     0
 10
173.225
 20
41.7477
 30
0.0
 11
173.281
 21
41.3921
 31
0.0
  0
LINE
  8
0
 62
     0
 10
173.281
 20
41.3921
 30
0.0
 11
173.225
 21
41.0365
 31
0.0
  0
LINE
  8
0
 62
     0
 10
173.225
 20
41.0365
 30
0.0
 11
173.061
 21
40.7155
 31
0.0
  0
LINE
  8
0
 62
     0
 10
173.061
 20
40.7155
 30
0.0
 11
172.806
 21
40.4604
 31
0.0
  0
LINE
  8
0
 62
     0
 10
90.2504
 20
151.839
 30
0.0
 11
90.3083
 21
151.483
 31
0.0
  0
LINE
  8
0
 62
     0
 10
90.3083
 20
151.483
 30
0.0
 11
90.2504
 21
151.128
 31
0.0
  0
LINE
  8
0
 62
     0
 10
90.2504
 20
151.128
 30
0.0
 11
90.0878
 21
150.807
 31
0.0
  0
LINE
  8
0
 62
     0
 10
90.0878
 20
150.807
 30
0.0
 11
89.8331
 21
150.552
 31
0.0
  0
LINE
  8
0
 62
     0
 10
89.8331
 20
150.552
 30
0.0
 11
89.5131
 21
150.39
 31
0.0
  0
LINE
  8
0
 62
     0
 10
89.5131
 20
150.39
 30
0.0
 11
89.1575
 21
150.333
 31
0.0
  0
LINE
  8
0
 62
     0
 10
89.1575
 20
150.333
 30
0.0
 11
88.8023
 21
150.39
 31
0.0
  0
LINE
  8
0
 62
     0
 10
88.8023
 20
150.39
 30
0.0
 11
88.4813
 21
150.552
 31
0.0
  0
LINE
  8
0
 62
     0
 10
88.4813
 20
150.552
 30
0.0
 11
88.2276
 21
150.807
 31
0.0
  0
LINE
  8
0
 62
     0
 10
88.2276
 20
150.807
 30
0.0
 11
88.0636
 21
151.128
 31
0.0
  0
LINE
  8
0
 62
     0
 10
88.0636
 20
151.128
 30
0.0
 11
88.0085
 21
151.483
 31
0.0
  0
LINE
  8
0
 62
     0
 10
88.0085
 20
151.483
 30
0.0
 11
88.0636
 21
151.839
 31
0.0
  0
LINE
  8
0
 62
     0
 10
88.0636
 20
151.839
 30
0.0
 11
88.2276
 21
152.159
 31
0.0
  0
LINE
  8
0
 62
     0
 10
88.2276
 20
152.159
 30
0.0
 11
88.4813
 21
152.414
 31
0.0
  0
LINE
  8
0
 62
     0
 10
88.4813
 20
152.414
 30
0.0
 11
88.8023
 21
152.578
 31
0.0
  0
LINE
  8
0
 62
     0
 10
88.8023
 20
152.578
 30
0.0
 11
89.1575
 21
152.633
 31
0.0
  0
LINE
  8
0
 62
     0
 10
89.1575
 20
152.633
 30
0.0
 11
89.5131
 21
152.578
 31
0.0
  0
LINE
  8
0
 62
     0
 10
89.5131
 20
152.578
 30
0.0
 11
89.8331
 21
152.414
 31
0.0
  0
LINE
  8
0
 62
     0
 10
89.8331
 20
152.414
 30
0.0
 11
90.0878
 21
152.159
 31
0.0
  0
LINE
  8
0
 62
     0
 10
90.0878
 20
152.159
 30
0.0
 11
90.2504
 21
151.839
 31
0.0
  0
LINE
  8
0
 62
     0
 10
4.14239
 20
39.3499
 30
0.0
 11
2.60312
 21
39.6201
 31
0.0
  0
LINE
  8
0
 62
     0
 10
2.60312
 20
39.6201
 30
0.0
 11
1.2926
 21
40.4675
 31
0.0
  0
LINE
  8
0
 62
     0
 10
1.2926
 20
40.4675
 30
0.0
 11
0.420303
 21
41.7918
 31
0.0
  0
LINE
  8
0
 62
     0
 10
0.420303
 20
41.7918
 30
0.0
 11
0.143316
 21
43.3504
 31
0.0
  0
LINE
  8
0
 62
     0
 10
0.143316
 20
43.3504
 30
0.0
 11
0.143316
 21
152.35
 31
0.0
  0
LINE
  8
0
 62
     0
 10
0.143316
 20
152.35
 30
0.0
 11
0.549836
 21
153.836
 31
0.0
  0
LINE
  8
0
 62
     0
 10
0.549836
 20
153.836
 30
0.0
 11
1.43867
 21
155.093
 31
0.0
  0
LINE
  8
0
 62
     0
 10
1.43867
 20
155.093
 30
0.0
 11
2.68166
 21
155.955
 31
0.0
  0
LINE
  8
0
 62
     0
 10
2.68166
 20
155.955
 30
0.0
 11
4.14239
 21
156.351
 31
0.0
  0
LINE
  8
0
 62
     0
 10
4.14239
 20
156.351
 30
0.0
 11
173.144
 21
156.351
 31
0.0
  0
LINE
  8
0
 62
     0
 10
173.144
 20
156.351
 30
0.0
 11
174.629
 21
155.957
 31
0.0
  0
LINE
  8
0
 62
     0
 10
174.629
 20
155.957
 30
0.0
 11
175.89
 21
155.076
 31
0.0
  0
LINE
  8
0
 62
     0
 10
175.89
 20
155.076
 30
0.0
 11
176.755
 21
153.823
 31
0.0
  0
LINE
  8
0
 62
     0
 10
176.755
 20
153.823
 30
0.0
 11
177.143
 21
152.35
 31
0.0
  0
LINE
  8
0
 62
     0
 10
177.143
 20
152.35
 30
0.0
 11
177.143
 21
49.6341
 31
0.0
  0
LINE
  8
0
 62
     0
 10
177.143
 20
49.6341
 30
0.0
 11
177.108
 21
45.2011
 31
0.0
  0
LINE
  8
0
 62
     0
 10
177.108
 20
45.2011
 30
0.0
 11
176.666
 21
40.8051
 31
0.0
  0
LINE
  8
0
 62
     0
 10
176.666
 20
40.8051
 30
0.0
 11
175.942
 21
38.0739
 31
0.0
  0
LINE
  8
0
 62
     0
 10
175.942
 20
38.0739
 30
0.0
 11
174.836
 21
35.475
 31
0.0
  0
LINE
  8
0
 62
     0
 10
174.836
 20
35.475
 30
0.0
 11
155.401
 21
2.73678
 31
0.0
  0
LINE
  8
0
 62
     0
 10
155.401
 20
2.73678
 30
0.0
 11
154.663
 21
1.63849
 31
0.0
  0
LINE
  8
0
 62
     0
 10
154.663
 20
1.63849
 30
0.0
 11
153.642
 21
0.795129
 31
0.0
  0
LINE
  8
0
 62
     0
 10
153.642
 20
0.795129
 30
0.0
 11
152.421
 21
0.285254
 31
0.0
  0
LINE
  8
0
 62
     0
 10
152.421
 20
0.285254
 30
0.0
 11
151.105
 21
0.144694
 31
0.0
  0
LINE
  8
0
 62
     0
 10
151.105
 20
0.144694
 30
0.0
 11
149.897
 21
0.341753
 31
0.0
  0
LINE
  8
0
 62
     0
 10
149.897
 20
0.341753
 30
0.0
 11
148.746
 21
0.763432
 31
0.0
  0
LINE
  8
0
 62
     0
 10
148.746
 20
0.763432
 30
0.0
 11
146.579
 21
1.91409
 31
0.0
  0
LINE
  8
0
 62
     0
 10
146.579
 20
1.91409
 30
0.0
 11
84.7563
 21
37.3503
 31
0.0
  0
LINE
  8
0
 62
     0
 10
84.7563
 20
37.3503
 30
0.0
 11
83.0227
 21
38.2736
 31
0.0
  0
LINE
  8
0
 62
     0
 10
83.0227
 20
38.2736
 30
0.0
 11
81.1925
 21
38.9558
 31
0.0
  0
LINE
  8
0
 62
     0
 10
81.1925
 20
38.9558
 30
0.0
 11
78.8638
 21
39.303
 31
0.0
  0
LINE
  8
0
 62
     0
 10
78.8638
 20
39.303
 30
0.0
 11
76.4992
 21
39.3499
 31
0.0
  0
LINE
  8
0
 62
     0
 10
76.4992
 20
39.3499
 30
0.0
 11
4.14239
 21
39.3499
 31
0.0
  0
ENDSEC
  0
EOF
