  0
SECTION
  2
HEADER
  9
$ACADVER
  1
AC1009
  9
$EXTMIN
 10
0.0
 20
0.0
 30
0.0
  9
$EXTMAX
 10
1000.0
 20
1000.0
 30
0.0
  9
$FILLMODE
 70
 0
  9
$SPLFRAME
 70
 1
  0
ENDSEC
  0
SECTION
  2
TABLES
  0
TABLE
  2
LAYER
 70
1
  0
LAYER
  2
0
 70
     0
 62
     7
  6
CONTINUOUS
  0
ENDTAB
  0
ENDSEC
  0
SECTION
  2
ENTITIES
  0
LINE
  8
0
 62
     0
 10
151.96
 20
6.33758
 30
0.0
 11
152.292
 21
6.00548
 31
0.0
  0
LINE
  8
0
 62
     0
 10
152.292
 20
6.00548
 30
0.0
 11
152.506
 21
5.58793
 31
0.0
  0
LINE
  8
0
 62
     0
 10
152.506
 20
5.58793
 30
0.0
 11
152.579
 21
5.12353
 31
0.0
  0
LINE
  8
0
 62
     0
 10
152.579
 20
5.12353
 30
0.0
 11
152.506
 21
4.66051
 31
0.0
  0
LINE
  8
0
 62
     0
 10
152.506
 20
4.66051
 30
0.0
 11
152.292
 21
4.24296
 31
0.0
  0
LINE
  8
0
 62
     0
 10
152.292
 20
4.24296
 30
0.0
 11
151.96
 21
3.91086
 31
0.0
  0
LINE
  8
0
 62
     0
 10
151.96
 20
3.91086
 30
0.0
 11
151.543
 21
3.69729
 31
0.0
  0
LINE
  8
0
 62
     0
 10
151.543
 20
3.69729
 30
0.0
 11
151.08
 21
3.62423
 31
0.0
  0
LINE
  8
0
 62
     0
 10
151.08
 20
3.62423
 30
0.0
 11
150.615
 21
3.69729
 31
0.0
  0
LINE
  8
0
 62
     0
 10
150.615
 20
3.69729
 30
0.0
 11
150.198
 21
3.91086
 31
0.0
  0
LINE
  8
0
 62
     0
 10
150.198
 20
3.91086
 30
0.0
 11
149.866
 21
4.24296
 31
0.0
  0
LINE
  8
0
 62
     0
 10
149.866
 20
4.24296
 30
0.0
 11
149.652
 21
4.66051
 31
0.0
  0
LINE
  8
0
 62
     0
 10
149.652
 20
4.66051
 30
0.0
 11
149.579
 21
5.12353
 31
0.0
  0
LINE
  8
0
 62
     0
 10
149.579
 20
5.12353
 30
0.0
 11
149.652
 21
5.58793
 31
0.0
  0
LINE
  8
0
 62
     0
 10
149.652
 20
5.58793
 30
0.0
 11
149.866
 21
6.00548
 31
0.0
  0
LINE
  8
0
 62
     0
 10
149.866
 20
6.00548
 30
0.0
 11
150.198
 21
6.33758
 31
0.0
  0
LINE
  8
0
 62
     0
 10
150.198
 20
6.33758
 30
0.0
 11
150.615
 21
6.55119
 31
0.0
  0
LINE
  8
0
 62
     0
 10
150.615
 20
6.55119
 30
0.0
 11
151.08
 21
6.62421
 31
0.0
  0
LINE
  8
0
 62
     0
 10
151.08
 20
6.62421
 30
0.0
 11
151.543
 21
6.55119
 31
0.0
  0
LINE
  8
0
 62
     0
 10
151.543
 20
6.55119
 30
0.0
 11
151.96
 21
6.33758
 31
0.0
  0
LINE
  8
0
 62
     0
 10
173.013
 20
152.698
 30
0.0
 11
173.345
 21
152.365
 31
0.0
  0
LINE
  8
0
 62
     0
 10
173.345
 20
152.365
 30
0.0
 11
173.557
 21
151.947
 31
0.0
  0
LINE
  8
0
 62
     0
 10
173.557
 20
151.947
 30
0.0
 11
173.632
 21
151.483
 31
0.0
  0
LINE
  8
0
 62
     0
 10
173.632
 20
151.483
 30
0.0
 11
173.557
 21
151.019
 31
0.0
  0
LINE
  8
0
 62
     0
 10
173.557
 20
151.019
 30
0.0
 11
173.345
 21
150.602
 31
0.0
  0
LINE
  8
0
 62
     0
 10
173.345
 20
150.602
 30
0.0
 11
173.013
 21
150.27
 31
0.0
  0
LINE
  8
0
 62
     0
 10
173.013
 20
150.27
 30
0.0
 11
172.594
 21
150.056
 31
0.0
  0
LINE
  8
0
 62
     0
 10
172.594
 20
150.056
 30
0.0
 11
172.131
 21
149.983
 31
0.0
  0
LINE
  8
0
 62
     0
 10
172.131
 20
149.983
 30
0.0
 11
171.668
 21
150.056
 31
0.0
  0
LINE
  8
0
 62
     0
 10
171.668
 20
150.056
 30
0.0
 11
171.249
 21
150.27
 31
0.0
  0
LINE
  8
0
 62
     0
 10
171.249
 20
150.27
 30
0.0
 11
170.917
 21
150.602
 31
0.0
  0
LINE
  8
0
 62
     0
 10
170.917
 20
150.602
 30
0.0
 11
170.705
 21
151.019
 31
0.0
  0
LINE
  8
0
 62
     0
 10
170.705
 20
151.019
 30
0.0
 11
170.632
 21
151.483
 31
0.0
  0
LINE
  8
0
 62
     0
 10
170.632
 20
151.483
 30
0.0
 11
170.705
 21
151.947
 31
0.0
  0
LINE
  8
0
 62
     0
 10
170.705
 20
151.947
 30
0.0
 11
170.917
 21
152.365
 31
0.0
  0
LINE
  8
0
 62
     0
 10
170.917
 20
152.365
 30
0.0
 11
171.249
 21
152.698
 31
0.0
  0
LINE
  8
0
 62
     0
 10
171.249
 20
152.698
 30
0.0
 11
171.668
 21
152.91
 31
0.0
  0
LINE
  8
0
 62
     0
 10
171.668
 20
152.91
 30
0.0
 11
172.131
 21
152.983
 31
0.0
  0
LINE
  8
0
 62
     0
 10
172.131
 20
152.983
 30
0.0
 11
172.594
 21
152.91
 31
0.0
  0
LINE
  8
0
 62
     0
 10
172.594
 20
152.91
 30
0.0
 11
173.013
 21
152.698
 31
0.0
  0
LINE
  8
0
 62
     0
 10
4.26089
 20
45.6639
 30
0.0
 11
4.67843
 21
45.8777
 31
0.0
  0
LINE
  8
0
 62
     0
 10
4.67843
 20
45.8777
 30
0.0
 11
5.14283
 21
45.9507
 31
0.0
  0
LINE
  8
0
 62
     0
 10
5.14283
 20
45.9507
 30
0.0
 11
5.60723
 21
45.8777
 31
0.0
  0
LINE
  8
0
 62
     0
 10
5.60723
 20
45.8777
 30
0.0
 11
6.02477
 21
45.6639
 31
0.0
  0
LINE
  8
0
 62
     0
 10
6.02477
 20
45.6639
 30
0.0
 11
6.35688
 21
45.3319
 31
0.0
  0
LINE
  8
0
 62
     0
 10
6.35688
 20
45.3319
 30
0.0
 11
6.57049
 21
44.9143
 31
0.0
  0
LINE
  8
0
 62
     0
 10
6.57049
 20
44.9143
 30
0.0
 11
6.64351
 21
44.45
 31
0.0
  0
LINE
  8
0
 62
     0
 10
6.64351
 20
44.45
 30
0.0
 11
6.57049
 21
43.9872
 31
0.0
  0
LINE
  8
0
 62
     0
 10
6.57049
 20
43.9872
 30
0.0
 11
6.35688
 21
43.5695
 31
0.0
  0
LINE
  8
0
 62
     0
 10
6.35688
 20
43.5695
 30
0.0
 11
6.02477
 21
43.2375
 31
0.0
  0
LINE
  8
0
 62
     0
 10
6.02477
 20
43.2375
 30
0.0
 11
5.60723
 21
43.0237
 31
0.0
  0
LINE
  8
0
 62
     0
 10
5.60723
 20
43.0237
 30
0.0
 11
5.14283
 21
42.9507
 31
0.0
  0
LINE
  8
0
 62
     0
 10
5.14283
 20
42.9507
 30
0.0
 11
4.67843
 21
43.0237
 31
0.0
  0
LINE
  8
0
 62
     0
 10
4.67843
 20
43.0237
 30
0.0
 11
4.26089
 21
43.2375
 31
0.0
  0
LINE
  8
0
 62
     0
 10
4.26089
 20
43.2375
 30
0.0
 11
3.92878
 21
43.5695
 31
0.0
  0
LINE
  8
0
 62
     0
 10
3.92878
 20
43.5695
 30
0.0
 11
3.71658
 21
43.9872
 31
0.0
  0
LINE
  8
0
 62
     0
 10
3.71658
 20
43.9872
 30
0.0
 11
3.64352
 21
44.45
 31
0.0
  0
LINE
  8
0
 62
     0
 10
3.64352
 20
44.45
 30
0.0
 11
3.71658
 21
44.9143
 31
0.0
  0
LINE
  8
0
 62
     0
 10
3.71658
 20
44.9143
 30
0.0
 11
3.92878
 21
45.3319
 31
0.0
  0
LINE
  8
0
 62
     0
 10
3.92878
 20
45.3319
 30
0.0
 11
4.26089
 21
45.6639
 31
0.0
  0
LINE
  8
0
 62
     0
 10
4.67843
 20
152.91
 30
0.0
 11
5.14283
 21
152.983
 31
0.0
  0
LINE
  8
0
 62
     0
 10
5.14283
 20
152.983
 30
0.0
 11
5.60723
 21
152.91
 31
0.0
  0
LINE
  8
0
 62
     0
 10
5.60723
 20
152.91
 30
0.0
 11
6.02477
 21
152.698
 31
0.0
  0
LINE
  8
0
 62
     0
 10
6.02477
 20
152.698
 30
0.0
 11
6.35688
 21
152.365
 31
0.0
  0
LINE
  8
0
 62
     0
 10
6.35688
 20
152.365
 30
0.0
 11
6.57049
 21
151.947
 31
0.0
  0
LINE
  8
0
 62
     0
 10
6.57049
 20
151.947
 30
0.0
 11
6.64351
 21
151.483
 31
0.0
  0
LINE
  8
0
 62
     0
 10
6.64351
 20
151.483
 30
0.0
 11
6.57049
 21
151.019
 31
0.0
  0
LINE
  8
0
 62
     0
 10
6.57049
 20
151.019
 30
0.0
 11
6.35688
 21
150.602
 31
0.0
  0
LINE
  8
0
 62
     0
 10
6.35688
 20
150.602
 30
0.0
 11
6.02477
 21
150.27
 31
0.0
  0
LINE
  8
0
 62
     0
 10
6.02477
 20
150.27
 30
0.0
 11
5.60723
 21
150.056
 31
0.0
  0
LINE
  8
0
 62
     0
 10
5.60723
 20
150.056
 30
0.0
 11
5.14283
 21
149.983
 31
0.0
  0
LINE
  8
0
 62
     0
 10
5.14283
 20
149.983
 30
0.0
 11
4.67843
 21
150.056
 31
0.0
  0
LINE
  8
0
 62
     0
 10
4.67843
 20
150.056
 30
0.0
 11
4.26089
 21
150.27
 31
0.0
  0
LINE
  8
0
 62
     0
 10
4.26089
 20
150.27
 30
0.0
 11
3.92878
 21
150.602
 31
0.0
  0
LINE
  8
0
 62
     0
 10
3.92878
 20
150.602
 30
0.0
 11
3.71658
 21
151.019
 31
0.0
  0
LINE
  8
0
 62
     0
 10
3.71658
 20
151.019
 30
0.0
 11
3.64352
 21
151.483
 31
0.0
  0
LINE
  8
0
 62
     0
 10
3.64352
 20
151.483
 30
0.0
 11
3.71658
 21
151.947
 31
0.0
  0
LINE
  8
0
 62
     0
 10
3.71658
 20
151.947
 30
0.0
 11
3.92878
 21
152.365
 31
0.0
  0
LINE
  8
0
 62
     0
 10
3.92878
 20
152.365
 30
0.0
 11
4.26089
 21
152.698
 31
0.0
  0
LINE
  8
0
 62
     0
 10
4.26089
 20
152.698
 30
0.0
 11
4.67843
 21
152.91
 31
0.0
  0
LINE
  8
0
 62
     0
 10
87.8512
 20
40.863
 30
0.0
 11
88.065
 21
41.2806
 31
0.0
  0
LINE
  8
0
 62
     0
 10
88.065
 20
41.2806
 30
0.0
 11
88.3969
 21
41.6126
 31
0.0
  0
LINE
  8
0
 62
     0
 10
88.3969
 20
41.6126
 30
0.0
 11
88.8146
 21
41.825
 31
0.0
  0
LINE
  8
0
 62
     0
 10
88.8146
 20
41.825
 30
0.0
 11
89.2789
 21
41.898
 31
0.0
  0
LINE
  8
0
 62
     0
 10
89.2789
 20
41.898
 30
0.0
 11
89.7421
 21
41.825
 31
0.0
  0
LINE
  8
0
 62
     0
 10
89.7421
 20
41.825
 30
0.0
 11
90.1608
 21
41.6126
 31
0.0
  0
LINE
  8
0
 62
     0
 10
90.1608
 20
41.6126
 30
0.0
 11
90.4931
 21
41.2806
 31
0.0
  0
LINE
  8
0
 62
     0
 10
90.4931
 20
41.2806
 30
0.0
 11
90.7052
 21
40.863
 31
0.0
  0
LINE
  8
0
 62
     0
 10
90.7052
 20
40.863
 30
0.0
 11
90.7782
 21
40.3987
 31
0.0
  0
LINE
  8
0
 62
     0
 10
90.7782
 20
40.3987
 30
0.0
 11
90.7052
 21
39.9355
 31
0.0
  0
LINE
  8
0
 62
     0
 10
90.7052
 20
39.9355
 30
0.0
 11
90.4931
 21
39.5168
 31
0.0
  0
LINE
  8
0
 62
     0
 10
90.4931
 20
39.5168
 30
0.0
 11
90.1608
 21
39.1859
 31
0.0
  0
LINE
  8
0
 62
     0
 10
90.1608
 20
39.1859
 30
0.0
 11
89.7421
 21
38.9724
 31
0.0
  0
LINE
  8
0
 62
     0
 10
89.7421
 20
38.9724
 30
0.0
 11
89.2789
 21
38.898
 31
0.0
  0
LINE
  8
0
 62
     0
 10
89.2789
 20
38.898
 30
0.0
 11
88.8146
 21
38.9724
 31
0.0
  0
LINE
  8
0
 62
     0
 10
88.8146
 20
38.9724
 30
0.0
 11
88.3969
 21
39.1859
 31
0.0
  0
LINE
  8
0
 62
     0
 10
88.3969
 20
39.1859
 30
0.0
 11
88.065
 21
39.5168
 31
0.0
  0
LINE
  8
0
 62
     0
 10
88.065
 20
39.5168
 30
0.0
 11
87.8512
 21
39.9355
 31
0.0
  0
LINE
  8
0
 62
     0
 10
87.8512
 20
39.9355
 30
0.0
 11
87.7782
 21
40.3987
 31
0.0
  0
LINE
  8
0
 62
     0
 10
87.7782
 20
40.3987
 30
0.0
 11
87.8512
 21
40.863
 31
0.0
  0
LINE
  8
0
 62
     0
 10
173.013
 20
40.1782
 30
0.0
 11
172.594
 21
39.9644
 31
0.0
  0
LINE
  8
0
 62
     0
 10
172.594
 20
39.9644
 30
0.0
 11
172.131
 21
39.8914
 31
0.0
  0
LINE
  8
0
 62
     0
 10
172.131
 20
39.8914
 30
0.0
 11
171.668
 21
39.9644
 31
0.0
  0
LINE
  8
0
 62
     0
 10
171.668
 20
39.9644
 30
0.0
 11
171.249
 21
40.1782
 31
0.0
  0
LINE
  8
0
 62
     0
 10
171.249
 20
40.1782
 30
0.0
 11
170.917
 21
40.5102
 31
0.0
  0
LINE
  8
0
 62
     0
 10
170.917
 20
40.5102
 30
0.0
 11
170.705
 21
40.9279
 31
0.0
  0
LINE
  8
0
 62
     0
 10
170.705
 20
40.9279
 30
0.0
 11
170.632
 21
41.3921
 31
0.0
  0
LINE
  8
0
 62
     0
 10
170.632
 20
41.3921
 30
0.0
 11
170.705
 21
41.8553
 31
0.0
  0
LINE
  8
0
 62
     0
 10
170.705
 20
41.8553
 30
0.0
 11
170.917
 21
42.2741
 31
0.0
  0
LINE
  8
0
 62
     0
 10
170.917
 20
42.2741
 30
0.0
 11
171.249
 21
42.606
 31
0.0
  0
LINE
  8
0
 62
     0
 10
171.249
 20
42.606
 30
0.0
 11
171.668
 21
42.8184
 31
0.0
  0
LINE
  8
0
 62
     0
 10
171.668
 20
42.8184
 30
0.0
 11
172.131
 21
42.8914
 31
0.0
  0
LINE
  8
0
 62
     0
 10
172.131
 20
42.8914
 30
0.0
 11
172.594
 21
42.8184
 31
0.0
  0
LINE
  8
0
 62
     0
 10
172.594
 20
42.8184
 30
0.0
 11
173.013
 21
42.606
 31
0.0
  0
LINE
  8
0
 62
     0
 10
173.013
 20
42.606
 30
0.0
 11
173.345
 21
42.2741
 31
0.0
  0
LINE
  8
0
 62
     0
 10
173.345
 20
42.2741
 30
0.0
 11
173.557
 21
41.8553
 31
0.0
  0
LINE
  8
0
 62
     0
 10
173.557
 20
41.8553
 30
0.0
 11
173.632
 21
41.3921
 31
0.0
  0
LINE
  8
0
 62
     0
 10
173.632
 20
41.3921
 30
0.0
 11
173.557
 21
40.9279
 31
0.0
  0
LINE
  8
0
 62
     0
 10
173.557
 20
40.9279
 30
0.0
 11
173.345
 21
40.5102
 31
0.0
  0
LINE
  8
0
 62
     0
 10
173.345
 20
40.5102
 30
0.0
 11
173.013
 21
40.1782
 31
0.0
  0
LINE
  8
0
 62
     0
 10
90.0384
 20
152.698
 30
0.0
 11
90.3704
 21
152.365
 31
0.0
  0
LINE
  8
0
 62
     0
 10
90.3704
 20
152.365
 30
0.0
 11
90.5838
 21
151.947
 31
0.0
  0
LINE
  8
0
 62
     0
 10
90.5838
 20
151.947
 30
0.0
 11
90.6582
 21
151.483
 31
0.0
  0
LINE
  8
0
 62
     0
 10
90.6582
 20
151.483
 30
0.0
 11
90.5838
 21
151.019
 31
0.0
  0
LINE
  8
0
 62
     0
 10
90.5838
 20
151.019
 30
0.0
 11
90.3704
 21
150.602
 31
0.0
  0
LINE
  8
0
 62
     0
 10
90.3704
 20
150.602
 30
0.0
 11
90.0384
 21
150.27
 31
0.0
  0
LINE
  8
0
 62
     0
 10
90.0384
 20
150.27
 30
0.0
 11
89.6207
 21
150.056
 31
0.0
  0
LINE
  8
0
 62
     0
 10
89.6207
 20
150.056
 30
0.0
 11
89.1575
 21
149.983
 31
0.0
  0
LINE
  8
0
 62
     0
 10
89.1575
 20
149.983
 30
0.0
 11
88.6933
 21
150.056
 31
0.0
  0
LINE
  8
0
 62
     0
 10
88.6933
 20
150.056
 30
0.0
 11
88.2756
 21
150.27
 31
0.0
  0
LINE
  8
0
 62
     0
 10
88.2756
 20
150.27
 30
0.0
 11
87.9436
 21
150.602
 31
0.0
  0
LINE
  8
0
 62
     0
 10
87.9436
 20
150.602
 30
0.0
 11
87.7316
 21
151.019
 31
0.0
  0
LINE
  8
0
 62
     0
 10
87.7316
 20
151.019
 30
0.0
 11
87.6582
 21
151.483
 31
0.0
  0
LINE
  8
0
 62
     0
 10
87.6582
 20
151.483
 30
0.0
 11
87.7316
 21
151.947
 31
0.0
  0
LINE
  8
0
 62
     0
 10
87.7316
 20
151.947
 30
0.0
 11
87.9436
 21
152.365
 31
0.0
  0
LINE
  8
0
 62
     0
 10
87.9436
 20
152.365
 30
0.0
 11
88.2756
 21
152.698
 31
0.0
  0
LINE
  8
0
 62
     0
 10
88.2756
 20
152.698
 30
0.0
 11
88.6933
 21
152.91
 31
0.0
  0
LINE
  8
0
 62
     0
 10
88.6933
 20
152.91
 30
0.0
 11
89.1575
 21
152.983
 31
0.0
  0
LINE
  8
0
 62
     0
 10
89.1575
 20
152.983
 30
0.0
 11
89.6207
 21
152.91
 31
0.0
  0
LINE
  8
0
 62
     0
 10
89.6207
 20
152.91
 30
0.0
 11
90.0384
 21
152.698
 31
0.0
  0
LINE
  8
0
 62
     0
 10
133.63
 20
141.537
 30
0.0
 11
168.43
 21
141.537
 31
0.0
  0
LINE
  8
0
 62
     0
 10
168.43
 20
141.537
 30
0.0
 11
168.43
 21
73.7376
 31
0.0
  0
LINE
  8
0
 62
     0
 10
168.43
 20
73.7376
 30
0.0
 11
133.63
 21
73.7376
 31
0.0
  0
LINE
  8
0
 62
     0
 10
133.63
 20
73.7376
 30
0.0
 11
133.63
 21
141.537
 31
0.0
  0
LINE
  8
0
 62
     0
 10
136.174
 20
143.643
 30
0.0
 11
135.854
 21
143.807
 31
0.0
  0
LINE
  8
0
 62
     0
 10
135.854
 20
143.807
 30
0.0
 11
135.599
 21
144.06
 31
0.0
  0
LINE
  8
0
 62
     0
 10
135.599
 20
144.06
 30
0.0
 11
135.436
 21
144.381
 31
0.0
  0
LINE
  8
0
 62
     0
 10
135.436
 20
144.381
 30
0.0
 11
135.38
 21
144.737
 31
0.0
  0
LINE
  8
0
 62
     0
 10
135.38
 20
144.737
 30
0.0
 11
135.436
 21
145.092
 31
0.0
  0
LINE
  8
0
 62
     0
 10
135.436
 20
145.092
 30
0.0
 11
135.599
 21
145.413
 31
0.0
  0
LINE
  8
0
 62
     0
 10
135.599
 20
145.413
 30
0.0
 11
135.854
 21
145.668
 31
0.0
  0
LINE
  8
0
 62
     0
 10
135.854
 20
145.668
 30
0.0
 11
136.174
 21
145.831
 31
0.0
  0
LINE
  8
0
 62
     0
 10
136.174
 20
145.831
 30
0.0
 11
136.529
 21
145.887
 31
0.0
  0
LINE
  8
0
 62
     0
 10
136.529
 20
145.887
 30
0.0
 11
136.885
 21
145.831
 31
0.0
  0
LINE
  8
0
 62
     0
 10
136.885
 20
145.831
 30
0.0
 11
137.206
 21
145.668
 31
0.0
  0
LINE
  8
0
 62
     0
 10
137.206
 20
145.668
 30
0.0
 11
137.459
 21
145.413
 31
0.0
  0
LINE
  8
0
 62
     0
 10
137.459
 20
145.413
 30
0.0
 11
137.623
 21
145.092
 31
0.0
  0
LINE
  8
0
 62
     0
 10
137.623
 20
145.092
 30
0.0
 11
137.68
 21
144.737
 31
0.0
  0
LINE
  8
0
 62
     0
 10
137.68
 20
144.737
 30
0.0
 11
137.623
 21
144.381
 31
0.0
  0
LINE
  8
0
 62
     0
 10
137.623
 20
144.381
 30
0.0
 11
137.459
 21
144.06
 31
0.0
  0
LINE
  8
0
 62
     0
 10
137.459
 20
144.06
 30
0.0
 11
137.206
 21
143.807
 31
0.0
  0
LINE
  8
0
 62
     0
 10
137.206
 20
143.807
 30
0.0
 11
136.885
 21
143.643
 31
0.0
  0
LINE
  8
0
 62
     0
 10
136.885
 20
143.643
 30
0.0
 11
136.529
 21
143.588
 31
0.0
  0
LINE
  8
0
 62
     0
 10
136.529
 20
143.588
 30
0.0
 11
136.174
 21
143.643
 31
0.0
  0
LINE
  8
0
 62
     0
 10
166.205
 20
143.807
 30
0.0
 11
165.884
 21
143.643
 31
0.0
  0
LINE
  8
0
 62
     0
 10
165.884
 20
143.643
 30
0.0
 11
165.53
 21
143.588
 31
0.0
  0
LINE
  8
0
 62
     0
 10
165.53
 20
143.588
 30
0.0
 11
165.174
 21
143.643
 31
0.0
  0
LINE
  8
0
 62
     0
 10
165.174
 20
143.643
 30
0.0
 11
164.853
 21
143.807
 31
0.0
  0
LINE
  8
0
 62
     0
 10
164.853
 20
143.807
 30
0.0
 11
164.598
 21
144.06
 31
0.0
  0
LINE
  8
0
 62
     0
 10
164.598
 20
144.06
 30
0.0
 11
164.436
 21
144.381
 31
0.0
  0
LINE
  8
0
 62
     0
 10
164.436
 20
144.381
 30
0.0
 11
164.379
 21
144.737
 31
0.0
  0
LINE
  8
0
 62
     0
 10
164.379
 20
144.737
 30
0.0
 11
164.436
 21
145.092
 31
0.0
  0
LINE
  8
0
 62
     0
 10
164.436
 20
145.092
 30
0.0
 11
164.598
 21
145.413
 31
0.0
  0
LINE
  8
0
 62
     0
 10
164.598
 20
145.413
 30
0.0
 11
164.853
 21
145.668
 31
0.0
  0
LINE
  8
0
 62
     0
 10
164.853
 20
145.668
 30
0.0
 11
165.174
 21
145.831
 31
0.0
  0
LINE
  8
0
 62
     0
 10
165.174
 20
145.831
 30
0.0
 11
165.53
 21
145.887
 31
0.0
  0
LINE
  8
0
 62
     0
 10
165.53
 20
145.887
 30
0.0
 11
165.884
 21
145.831
 31
0.0
  0
LINE
  8
0
 62
     0
 10
165.884
 20
145.831
 30
0.0
 11
166.205
 21
145.668
 31
0.0
  0
LINE
  8
0
 62
     0
 10
166.205
 20
145.668
 30
0.0
 11
166.46
 21
145.413
 31
0.0
  0
LINE
  8
0
 62
     0
 10
166.46
 20
145.413
 30
0.0
 11
166.623
 21
145.092
 31
0.0
  0
LINE
  8
0
 62
     0
 10
166.623
 20
145.092
 30
0.0
 11
166.679
 21
144.737
 31
0.0
  0
LINE
  8
0
 62
     0
 10
166.679
 20
144.737
 30
0.0
 11
166.623
 21
144.381
 31
0.0
  0
LINE
  8
0
 62
     0
 10
166.623
 20
144.381
 30
0.0
 11
166.46
 21
144.06
 31
0.0
  0
LINE
  8
0
 62
     0
 10
166.46
 20
144.06
 30
0.0
 11
166.205
 21
143.807
 31
0.0
  0
LINE
  8
0
 62
     0
 10
136.174
 20
71.8316
 30
0.0
 11
136.529
 21
71.8866
 31
0.0
  0
LINE
  8
0
 62
     0
 10
136.529
 20
71.8866
 30
0.0
 11
136.885
 21
71.8316
 31
0.0
  0
LINE
  8
0
 62
     0
 10
136.885
 20
71.8316
 30
0.0
 11
137.206
 21
71.6675
 31
0.0
  0
LINE
  8
0
 62
     0
 10
137.206
 20
71.6675
 30
0.0
 11
137.459
 21
71.4128
 31
0.0
  0
LINE
  8
0
 62
     0
 10
137.459
 20
71.4128
 30
0.0
 11
137.623
 21
71.0928
 31
0.0
  0
LINE
  8
0
 62
     0
 10
137.623
 20
71.0928
 30
0.0
 11
137.68
 21
70.7376
 31
0.0
  0
LINE
  8
0
 62
     0
 10
137.68
 20
70.7376
 30
0.0
 11
137.623
 21
70.3806
 31
0.0
  0
LINE
  8
0
 62
     0
 10
137.623
 20
70.3806
 30
0.0
 11
137.459
 21
70.061
 31
0.0
  0
LINE
  8
0
 62
     0
 10
137.459
 20
70.061
 30
0.0
 11
137.206
 21
69.8059
 31
0.0
  0
LINE
  8
0
 62
     0
 10
137.206
 20
69.8059
 30
0.0
 11
136.885
 21
69.6433
 31
0.0
  0
LINE
  8
0
 62
     0
 10
136.885
 20
69.6433
 30
0.0
 11
136.529
 21
69.5868
 31
0.0
  0
LINE
  8
0
 62
     0
 10
136.529
 20
69.5868
 30
0.0
 11
136.174
 21
69.6433
 31
0.0
  0
LINE
  8
0
 62
     0
 10
136.174
 20
69.6433
 30
0.0
 11
135.854
 21
69.8059
 31
0.0
  0
LINE
  8
0
 62
     0
 10
135.854
 20
69.8059
 30
0.0
 11
135.599
 21
70.061
 31
0.0
  0
LINE
  8
0
 62
     0
 10
135.599
 20
70.061
 30
0.0
 11
135.436
 21
70.3806
 31
0.0
  0
LINE
  8
0
 62
     0
 10
135.436
 20
70.3806
 30
0.0
 11
135.38
 21
70.7376
 31
0.0
  0
LINE
  8
0
 62
     0
 10
135.38
 20
70.7376
 30
0.0
 11
135.436
 21
71.0928
 31
0.0
  0
LINE
  8
0
 62
     0
 10
135.436
 20
71.0928
 30
0.0
 11
135.599
 21
71.4128
 31
0.0
  0
LINE
  8
0
 62
     0
 10
135.599
 20
71.4128
 30
0.0
 11
135.854
 21
71.6675
 31
0.0
  0
LINE
  8
0
 62
     0
 10
135.854
 20
71.6675
 30
0.0
 11
136.174
 21
71.8316
 31
0.0
  0
LINE
  8
0
 62
     0
 10
164.436
 20
70.3806
 30
0.0
 11
164.379
 21
70.7376
 31
0.0
  0
LINE
  8
0
 62
     0
 10
164.379
 20
70.7376
 30
0.0
 11
164.436
 21
71.0928
 31
0.0
  0
LINE
  8
0
 62
     0
 10
164.436
 20
71.0928
 30
0.0
 11
164.598
 21
71.4128
 31
0.0
  0
LINE
  8
0
 62
     0
 10
164.598
 20
71.4128
 30
0.0
 11
164.853
 21
71.6675
 31
0.0
  0
LINE
  8
0
 62
     0
 10
164.853
 20
71.6675
 30
0.0
 11
165.174
 21
71.8316
 31
0.0
  0
LINE
  8
0
 62
     0
 10
165.174
 20
71.8316
 30
0.0
 11
165.53
 21
71.8866
 31
0.0
  0
LINE
  8
0
 62
     0
 10
165.53
 20
71.8866
 30
0.0
 11
165.884
 21
71.8316
 31
0.0
  0
LINE
  8
0
 62
     0
 10
165.884
 20
71.8316
 30
0.0
 11
166.205
 21
71.6675
 31
0.0
  0
LINE
  8
0
 62
     0
 10
166.205
 20
71.6675
 30
0.0
 11
166.46
 21
71.4128
 31
0.0
  0
LINE
  8
0
 62
     0
 10
166.46
 20
71.4128
 30
0.0
 11
166.623
 21
71.0928
 31
0.0
  0
LINE
  8
0
 62
     0
 10
166.623
 20
71.0928
 30
0.0
 11
166.679
 21
70.7376
 31
0.0
  0
LINE
  8
0
 62
     0
 10
166.679
 20
70.7376
 30
0.0
 11
166.623
 21
70.3806
 31
0.0
  0
LINE
  8
0
 62
     0
 10
166.623
 20
70.3806
 30
0.0
 11
166.46
 21
70.061
 31
0.0
  0
LINE
  8
0
 62
     0
 10
166.46
 20
70.061
 30
0.0
 11
166.205
 21
69.8059
 31
0.0
  0
LINE
  8
0
 62
     0
 10
166.205
 20
69.8059
 30
0.0
 11
165.884
 21
69.6433
 31
0.0
  0
LINE
  8
0
 62
     0
 10
165.884
 20
69.6433
 30
0.0
 11
165.53
 21
69.5868
 31
0.0
  0
LINE
  8
0
 62
     0
 10
165.53
 20
69.5868
 30
0.0
 11
165.174
 21
69.6433
 31
0.0
  0
LINE
  8
0
 62
     0
 10
165.174
 20
69.6433
 30
0.0
 11
164.853
 21
69.8059
 31
0.0
  0
LINE
  8
0
 62
     0
 10
164.853
 20
69.8059
 30
0.0
 11
164.598
 21
70.061
 31
0.0
  0
LINE
  8
0
 62
     0
 10
164.598
 20
70.061
 30
0.0
 11
164.436
 21
70.3806
 31
0.0
  0
LINE
  8
0
 62
     0
 10
4.14239
 20
39.3499
 30
0.0
 11
2.60312
 21
39.6201
 31
0.0
  0
LINE
  8
0
 62
     0
 10
2.60312
 20
39.6201
 30
0.0
 11
1.2926
 21
40.4675
 31
0.0
  0
LINE
  8
0
 62
     0
 10
1.2926
 20
40.4675
 30
0.0
 11
0.420303
 21
41.7918
 31
0.0
  0
LINE
  8
0
 62
     0
 10
0.420303
 20
41.7918
 30
0.0
 11
0.143316
 21
43.3504
 31
0.0
  0
LINE
  8
0
 62
     0
 10
0.143316
 20
43.3504
 30
0.0
 11
0.143316
 21
152.35
 31
0.0
  0
LINE
  8
0
 62
     0
 10
0.143316
 20
152.35
 30
0.0
 11
0.549836
 21
153.836
 31
0.0
  0
LINE
  8
0
 62
     0
 10
0.549836
 20
153.836
 30
0.0
 11
1.43867
 21
155.093
 31
0.0
  0
LINE
  8
0
 62
     0
 10
1.43867
 20
155.093
 30
0.0
 11
2.68166
 21
155.955
 31
0.0
  0
LINE
  8
0
 62
     0
 10
2.68166
 20
155.955
 30
0.0
 11
4.14239
 21
156.351
 31
0.0
  0
LINE
  8
0
 62
     0
 10
4.14239
 20
156.351
 30
0.0
 11
173.144
 21
156.351
 31
0.0
  0
LINE
  8
0
 62
     0
 10
173.144
 20
156.351
 30
0.0
 11
174.629
 21
155.957
 31
0.0
  0
LINE
  8
0
 62
     0
 10
174.629
 20
155.957
 30
0.0
 11
175.89
 21
155.076
 31
0.0
  0
LINE
  8
0
 62
     0
 10
175.89
 20
155.076
 30
0.0
 11
176.755
 21
153.823
 31
0.0
  0
LINE
  8
0
 62
     0
 10
176.755
 20
153.823
 30
0.0
 11
177.143
 21
152.35
 31
0.0
  0
LINE
  8
0
 62
     0
 10
177.143
 20
152.35
 30
0.0
 11
177.143
 21
49.6341
 31
0.0
  0
LINE
  8
0
 62
     0
 10
177.143
 20
49.6341
 30
0.0
 11
177.108
 21
45.2011
 31
0.0
  0
LINE
  8
0
 62
     0
 10
177.108
 20
45.2011
 30
0.0
 11
176.666
 21
40.8051
 31
0.0
  0
LINE
  8
0
 62
     0
 10
176.666
 20
40.8051
 30
0.0
 11
175.942
 21
38.0739
 31
0.0
  0
LINE
  8
0
 62
     0
 10
175.942
 20
38.0739
 30
0.0
 11
174.836
 21
35.475
 31
0.0
  0
LINE
  8
0
 62
     0
 10
174.836
 20
35.475
 30
0.0
 11
155.401
 21
2.73678
 31
0.0
  0
LINE
  8
0
 62
     0
 10
155.401
 20
2.73678
 30
0.0
 11
154.663
 21
1.63849
 31
0.0
  0
LINE
  8
0
 62
     0
 10
154.663
 20
1.63849
 30
0.0
 11
153.642
 21
0.795129
 31
0.0
  0
LINE
  8
0
 62
     0
 10
153.642
 20
0.795129
 30
0.0
 11
152.421
 21
0.285254
 31
0.0
  0
LINE
  8
0
 62
     0
 10
152.421
 20
0.285254
 30
0.0
 11
151.105
 21
0.144694
 31
0.0
  0
LINE
  8
0
 62
     0
 10
151.105
 20
0.144694
 30
0.0
 11
149.897
 21
0.341753
 31
0.0
  0
LINE
  8
0
 62
     0
 10
149.897
 20
0.341753
 30
0.0
 11
148.746
 21
0.763432
 31
0.0
  0
LINE
  8
0
 62
     0
 10
148.746
 20
0.763432
 30
0.0
 11
146.579
 21
1.91409
 31
0.0
  0
LINE
  8
0
 62
     0
 10
146.579
 20
1.91409
 30
0.0
 11
84.7563
 21
37.3503
 31
0.0
  0
LINE
  8
0
 62
     0
 10
84.7563
 20
37.3503
 30
0.0
 11
83.0227
 21
38.2736
 31
0.0
  0
LINE
  8
0
 62
     0
 10
83.0227
 20
38.2736
 30
0.0
 11
81.1925
 21
38.9558
 31
0.0
  0
LINE
  8
0
 62
     0
 10
81.1925
 20
38.9558
 30
0.0
 11
78.8638
 21
39.303
 31
0.0
  0
LINE
  8
0
 62
     0
 10
78.8638
 20
39.303
 30
0.0
 11
76.4992
 21
39.3499
 31
0.0
  0
LINE
  8
0
 62
     0
 10
76.4992
 20
39.3499
 30
0.0
 11
4.14239
 21
39.3499
 31
0.0
  0
LINE
  8
0
 62
     0
 10
12.6683
 20
145.858
 30
0.0
 11
26.6678
 21
145.858
 31
0.0
  0
LINE
  8
0
 62
     0
 10
26.6678
 20
145.858
 30
0.0
 11
26.6678
 21
131.859
 31
0.0
  0
LINE
  8
0
 62
     0
 10
26.6678
 20
131.859
 30
0.0
 11
12.6683
 21
131.859
 31
0.0
  0
LINE
  8
0
 62
     0
 10
12.6683
 20
131.859
 30
0.0
 11
12.6683
 21
145.858
 31
0.0
  0
LINE
  8
0
 62
     0
 10
15.0496
 20
119.665
 30
0.0
 11
29.0491
 21
119.665
 31
0.0
  0
LINE
  8
0
 62
     0
 10
29.0491
 20
119.665
 30
0.0
 11
29.0491
 21
105.664
 31
0.0
  0
LINE
  8
0
 62
     0
 10
29.0491
 20
105.664
 30
0.0
 11
15.0496
 21
105.664
 31
0.0
  0
LINE
  8
0
 62
     0
 10
15.0496
 20
105.664
 30
0.0
 11
15.0496
 21
119.665
 31
0.0
  0
LINE
  8
0
 62
     0
 10
15.0496
 20
100.615
 30
0.0
 11
29.0491
 21
100.615
 31
0.0
  0
LINE
  8
0
 62
     0
 10
29.0491
 20
100.615
 30
0.0
 11
29.0491
 21
86.614
 31
0.0
  0
LINE
  8
0
 62
     0
 10
29.0491
 20
86.614
 30
0.0
 11
15.0496
 21
86.614
 31
0.0
  0
LINE
  8
0
 62
     0
 10
15.0496
 20
86.614
 30
0.0
 11
15.0496
 21
100.615
 31
0.0
  0
LINE
  8
0
 62
     0
 10
15.0496
 20
81.5647
 30
0.0
 11
29.0491
 21
81.5647
 31
0.0
  0
LINE
  8
0
 62
     0
 10
29.0491
 20
81.5647
 30
0.0
 11
29.0491
 21
67.564
 31
0.0
  0
LINE
  8
0
 62
     0
 10
29.0491
 20
67.564
 30
0.0
 11
15.0496
 21
67.564
 31
0.0
  0
LINE
  8
0
 62
     0
 10
15.0496
 20
67.564
 30
0.0
 11
15.0496
 21
81.5647
 31
0.0
  0
LINE
  8
0
 62
     0
 10
15.0496
 20
62.4198
 30
0.0
 11
29.0491
 21
62.4198
 31
0.0
  0
LINE
  8
0
 62
     0
 10
29.0491
 20
62.4198
 30
0.0
 11
29.0491
 21
48.4188
 31
0.0
  0
LINE
  8
0
 62
     0
 10
29.0491
 20
48.4188
 30
0.0
 11
15.0496
 21
48.4188
 31
0.0
  0
LINE
  8
0
 62
     0
 10
15.0496
 20
48.4188
 30
0.0
 11
15.0496
 21
62.4198
 31
0.0
  0
LINE
  8
0
 62
     0
 10
36.4793
 20
138.62
 30
0.0
 11
50.4804
 21
138.62
 31
0.0
  0
LINE
  8
0
 62
     0
 10
50.4804
 20
138.62
 30
0.0
 11
50.4804
 21
124.619
 31
0.0
  0
LINE
  8
0
 62
     0
 10
50.4804
 20
124.619
 30
0.0
 11
36.4793
 21
124.619
 31
0.0
  0
LINE
  8
0
 62
     0
 10
36.4793
 20
124.619
 30
0.0
 11
36.4793
 21
138.62
 31
0.0
  0
LINE
  8
0
 62
     0
 10
36.4793
 20
119.57
 30
0.0
 11
50.4804
 21
119.57
 31
0.0
  0
LINE
  8
0
 62
     0
 10
50.4804
 20
119.57
 30
0.0
 11
50.4804
 21
105.569
 31
0.0
  0
LINE
  8
0
 62
     0
 10
50.4804
 20
105.569
 30
0.0
 11
36.4793
 21
105.569
 31
0.0
  0
LINE
  8
0
 62
     0
 10
36.4793
 20
105.569
 30
0.0
 11
36.4793
 21
119.57
 31
0.0
  0
LINE
  8
0
 62
     0
 10
36.4793
 20
100.52
 30
0.0
 11
50.4804
 21
100.52
 31
0.0
  0
LINE
  8
0
 62
     0
 10
50.4804
 20
100.52
 30
0.0
 11
50.4804
 21
86.5188
 31
0.0
  0
LINE
  8
0
 62
     0
 10
50.4804
 20
86.5188
 30
0.0
 11
36.4793
 21
86.5188
 31
0.0
  0
LINE
  8
0
 62
     0
 10
36.4793
 20
86.5188
 30
0.0
 11
36.4793
 21
100.52
 31
0.0
  0
LINE
  8
0
 62
     0
 10
36.4793
 20
81.4698
 30
0.0
 11
50.4804
 21
81.4698
 31
0.0
  0
LINE
  8
0
 62
     0
 10
50.4804
 20
81.4698
 30
0.0
 11
50.4804
 21
67.4688
 31
0.0
  0
LINE
  8
0
 62
     0
 10
50.4804
 20
67.4688
 30
0.0
 11
36.4793
 21
67.4688
 31
0.0
  0
LINE
  8
0
 62
     0
 10
36.4793
 20
67.4688
 30
0.0
 11
36.4793
 21
81.4698
 31
0.0
  0
LINE
  8
0
 62
     0
 10
36.4793
 20
62.4198
 30
0.0
 11
50.4804
 21
62.4198
 31
0.0
  0
LINE
  8
0
 62
     0
 10
50.4804
 20
62.4198
 30
0.0
 11
50.4804
 21
48.4188
 31
0.0
  0
LINE
  8
0
 62
     0
 10
50.4804
 20
48.4188
 30
0.0
 11
36.4793
 21
48.4188
 31
0.0
  0
LINE
  8
0
 62
     0
 10
36.4793
 20
48.4188
 30
0.0
 11
36.4793
 21
62.4198
 31
0.0
  0
LINE
  8
0
 62
     0
 10
55.5308
 20
143.381
 30
0.0
 11
69.5318
 21
143.381
 31
0.0
  0
LINE
  8
0
 62
     0
 10
69.5318
 20
143.381
 30
0.0
 11
69.5318
 21
129.381
 31
0.0
  0
LINE
  8
0
 62
     0
 10
69.5318
 20
129.381
 30
0.0
 11
55.5308
 21
129.381
 31
0.0
  0
LINE
  8
0
 62
     0
 10
55.5308
 20
129.381
 30
0.0
 11
55.5308
 21
143.381
 31
0.0
  0
LINE
  8
0
 62
     0
 10
55.5308
 20
124.331
 30
0.0
 11
69.5318
 21
124.331
 31
0.0
  0
LINE
  8
0
 62
     0
 10
69.5318
 20
124.331
 30
0.0
 11
69.5318
 21
110.331
 31
0.0
  0
LINE
  8
0
 62
     0
 10
69.5318
 20
110.331
 30
0.0
 11
55.5308
 21
110.331
 31
0.0
  0
LINE
  8
0
 62
     0
 10
55.5308
 20
110.331
 30
0.0
 11
55.5308
 21
124.331
 31
0.0
  0
LINE
  8
0
 62
     0
 10
55.5308
 20
105.281
 30
0.0
 11
69.5318
 21
105.281
 31
0.0
  0
LINE
  8
0
 62
     0
 10
69.5318
 20
105.281
 30
0.0
 11
69.5318
 21
91.2813
 31
0.0
  0
LINE
  8
0
 62
     0
 10
69.5318
 20
91.2813
 30
0.0
 11
55.5308
 21
91.2813
 31
0.0
  0
LINE
  8
0
 62
     0
 10
55.5308
 20
91.2813
 30
0.0
 11
55.5308
 21
105.281
 31
0.0
  0
LINE
  8
0
 62
     0
 10
55.5308
 20
86.2309
 30
0.0
 11
69.5318
 21
86.2309
 31
0.0
  0
LINE
  8
0
 62
     0
 10
69.5318
 20
86.2309
 30
0.0
 11
69.5318
 21
72.2313
 31
0.0
  0
LINE
  8
0
 62
     0
 10
69.5318
 20
72.2313
 30
0.0
 11
55.5308
 21
72.2313
 31
0.0
  0
LINE
  8
0
 62
     0
 10
55.5308
 20
72.2313
 30
0.0
 11
55.5308
 21
86.2309
 31
0.0
  0
LINE
  8
0
 62
     0
 10
55.5308
 20
64.801
 30
0.0
 11
69.5318
 21
64.801
 31
0.0
  0
LINE
  8
0
 62
     0
 10
69.5318
 20
64.801
 30
0.0
 11
69.5318
 21
50.8
 31
0.0
  0
LINE
  8
0
 62
     0
 10
69.5318
 20
50.8
 30
0.0
 11
55.5308
 21
50.8
 31
0.0
  0
LINE
  8
0
 62
     0
 10
55.5308
 20
50.8
 30
0.0
 11
55.5308
 21
64.801
 31
0.0
  0
LINE
  8
0
 62
     0
 10
74.5808
 20
145.858
 30
0.0
 11
88.5818
 21
145.858
 31
0.0
  0
LINE
  8
0
 62
     0
 10
88.5818
 20
145.858
 30
0.0
 11
88.5818
 21
131.859
 31
0.0
  0
LINE
  8
0
 62
     0
 10
88.5818
 20
131.859
 30
0.0
 11
74.5808
 21
131.859
 31
0.0
  0
LINE
  8
0
 62
     0
 10
74.5808
 20
131.859
 30
0.0
 11
74.5808
 21
145.858
 31
0.0
  0
LINE
  8
0
 62
     0
 10
74.5808
 20
126.808
 30
0.0
 11
88.5818
 21
126.808
 31
0.0
  0
LINE
  8
0
 62
     0
 10
88.5818
 20
126.808
 30
0.0
 11
88.5818
 21
112.809
 31
0.0
  0
LINE
  8
0
 62
     0
 10
88.5818
 20
112.809
 30
0.0
 11
74.5808
 21
112.809
 31
0.0
  0
LINE
  8
0
 62
     0
 10
74.5808
 20
112.809
 30
0.0
 11
74.5808
 21
126.808
 31
0.0
  0
LINE
  8
0
 62
     0
 10
74.5808
 20
107.758
 30
0.0
 11
88.5818
 21
107.758
 31
0.0
  0
LINE
  8
0
 62
     0
 10
88.5818
 20
107.758
 30
0.0
 11
88.5818
 21
93.7588
 31
0.0
  0
LINE
  8
0
 62
     0
 10
88.5818
 20
93.7588
 30
0.0
 11
74.5808
 21
93.7588
 31
0.0
  0
LINE
  8
0
 62
     0
 10
74.5808
 20
93.7588
 30
0.0
 11
74.5808
 21
107.758
 31
0.0
  0
LINE
  8
0
 62
     0
 10
74.5808
 20
88.7084
 30
0.0
 11
88.5818
 21
88.7084
 31
0.0
  0
LINE
  8
0
 62
     0
 10
88.5818
 20
88.7084
 30
0.0
 11
88.5818
 21
74.7088
 31
0.0
  0
LINE
  8
0
 62
     0
 10
88.5818
 20
74.7088
 30
0.0
 11
74.5808
 21
74.7088
 31
0.0
  0
LINE
  8
0
 62
     0
 10
74.5808
 20
74.7088
 30
0.0
 11
74.5808
 21
88.7084
 31
0.0
  0
LINE
  8
0
 62
     0
 10
93.6308
 20
143.381
 30
0.0
 11
107.632
 21
143.381
 31
0.0
  0
LINE
  8
0
 62
     0
 10
107.632
 20
143.381
 30
0.0
 11
107.632
 21
129.381
 31
0.0
  0
LINE
  8
0
 62
     0
 10
107.632
 20
129.381
 30
0.0
 11
93.6308
 21
129.381
 31
0.0
  0
LINE
  8
0
 62
     0
 10
93.6308
 20
129.381
 30
0.0
 11
93.6308
 21
143.381
 31
0.0
  0
LINE
  8
0
 62
     0
 10
93.6308
 20
124.331
 30
0.0
 11
107.632
 21
124.331
 31
0.0
  0
LINE
  8
0
 62
     0
 10
107.632
 20
124.331
 30
0.0
 11
107.632
 21
110.331
 31
0.0
  0
LINE
  8
0
 62
     0
 10
107.632
 20
110.331
 30
0.0
 11
93.6308
 21
110.331
 31
0.0
  0
LINE
  8
0
 62
     0
 10
93.6308
 20
110.331
 30
0.0
 11
93.6308
 21
124.331
 31
0.0
  0
LINE
  8
0
 62
     0
 10
93.6308
 20
105.281
 30
0.0
 11
107.632
 21
105.281
 31
0.0
  0
LINE
  8
0
 62
     0
 10
107.632
 20
105.281
 30
0.0
 11
107.632
 21
91.2813
 31
0.0
  0
LINE
  8
0
 62
     0
 10
107.632
 20
91.2813
 30
0.0
 11
93.6308
 21
91.2813
 31
0.0
  0
LINE
  8
0
 62
     0
 10
93.6308
 20
91.2813
 30
0.0
 11
93.6308
 21
105.281
 31
0.0
  0
LINE
  8
0
 62
     0
 10
93.6308
 20
86.2309
 30
0.0
 11
107.632
 21
86.2309
 31
0.0
  0
LINE
  8
0
 62
     0
 10
107.632
 20
86.2309
 30
0.0
 11
107.632
 21
72.2313
 31
0.0
  0
LINE
  8
0
 62
     0
 10
107.632
 20
72.2313
 30
0.0
 11
93.6308
 21
72.2313
 31
0.0
  0
LINE
  8
0
 62
     0
 10
93.6308
 20
72.2313
 30
0.0
 11
93.6308
 21
86.2309
 31
0.0
  0
LINE
  8
0
 62
     0
 10
101.869
 20
42.974
 30
0.0
 11
113.994
 21
35.9738
 31
0.0
  0
LINE
  8
0
 62
     0
 10
113.994
 20
35.9738
 30
0.0
 11
120.995
 21
48.0991
 31
0.0
  0
LINE
  8
0
 62
     0
 10
120.995
 20
48.0991
 30
0.0
 11
108.869
 21
55.0997
 31
0.0
  0
LINE
  8
0
 62
     0
 10
108.869
 20
55.0997
 30
0.0
 11
101.869
 21
42.974
 31
0.0
  0
LINE
  8
0
 62
     0
 10
112.681
 20
141.096
 30
0.0
 11
126.682
 21
141.096
 31
0.0
  0
LINE
  8
0
 62
     0
 10
126.682
 20
141.096
 30
0.0
 11
126.682
 21
127.095
 31
0.0
  0
LINE
  8
0
 62
     0
 10
126.682
 20
127.095
 30
0.0
 11
112.681
 21
127.095
 31
0.0
  0
LINE
  8
0
 62
     0
 10
112.681
 20
127.095
 30
0.0
 11
112.681
 21
141.096
 31
0.0
  0
LINE
  8
0
 62
     0
 10
112.681
 20
122.046
 30
0.0
 11
126.682
 21
122.046
 31
0.0
  0
LINE
  8
0
 62
     0
 10
126.682
 20
122.046
 30
0.0
 11
126.682
 21
108.045
 31
0.0
  0
LINE
  8
0
 62
     0
 10
126.682
 20
108.045
 30
0.0
 11
112.681
 21
108.045
 31
0.0
  0
LINE
  8
0
 62
     0
 10
112.681
 20
108.045
 30
0.0
 11
112.681
 21
122.046
 31
0.0
  0
LINE
  8
0
 62
     0
 10
112.681
 20
102.996
 30
0.0
 11
126.682
 21
102.996
 31
0.0
  0
LINE
  8
0
 62
     0
 10
126.682
 20
102.996
 30
0.0
 11
126.682
 21
88.9953
 31
0.0
  0
LINE
  8
0
 62
     0
 10
126.682
 20
88.9953
 30
0.0
 11
112.681
 21
88.9953
 31
0.0
  0
LINE
  8
0
 62
     0
 10
112.681
 20
88.9953
 30
0.0
 11
112.681
 21
102.996
 31
0.0
  0
LINE
  8
0
 62
     0
 10
112.681
 20
83.9459
 30
0.0
 11
126.682
 21
83.9459
 31
0.0
  0
LINE
  8
0
 62
     0
 10
126.682
 20
83.9459
 30
0.0
 11
126.682
 21
69.9453
 31
0.0
  0
LINE
  8
0
 62
     0
 10
126.682
 20
69.9453
 30
0.0
 11
112.681
 21
69.9453
 31
0.0
  0
LINE
  8
0
 62
     0
 10
112.681
 20
69.9453
 30
0.0
 11
112.681
 21
83.9459
 31
0.0
  0
LINE
  8
0
 62
     0
 10
123.147
 20
40.6273
 30
0.0
 11
123.944
 21
40.1669
 31
0.0
  0
LINE
  8
0
 62
     0
 10
123.944
 20
40.1669
 30
0.0
 11
124.806
 21
41.6609
 31
0.0
  0
LINE
  8
0
 62
     0
 10
124.806
 20
41.6609
 30
0.0
 11
125.499
 21
41.2612
 31
0.0
  0
LINE
  8
0
 62
     0
 10
125.499
 20
41.2612
 30
0.0
 11
126.286
 21
42.6254
 31
0.0
  0
LINE
  8
0
 62
     0
 10
126.286
 20
42.6254
 30
0.0
 11
124.32
 21
43.7596
 31
0.0
  0
LINE
  8
0
 62
     0
 10
124.32
 20
43.7596
 30
0.0
 11
131.32
 21
55.8849
 31
0.0
  0
LINE
  8
0
 62
     0
 10
131.32
 20
55.8849
 30
0.0
 11
133.287
 21
54.7508
 31
0.0
  0
LINE
  8
0
 62
     0
 10
133.287
 20
54.7508
 30
0.0
 11
134.074
 21
56.1139
 31
0.0
  0
LINE
  8
0
 62
     0
 10
134.074
 20
56.1139
 30
0.0
 11
133.382
 21
56.5146
 31
0.0
  0
LINE
  8
0
 62
     0
 10
133.382
 20
56.5146
 30
0.0
 11
134.243
 21
58.0087
 31
0.0
  0
LINE
  8
0
 62
     0
 10
134.243
 20
58.0087
 30
0.0
 11
133.446
 21
58.4687
 31
0.0
  0
LINE
  8
0
 62
     0
 10
133.446
 20
58.4687
 30
0.0
 11
135.097
 21
61.3255
 31
0.0
  0
LINE
  8
0
 62
     0
 10
135.097
 20
61.3255
 30
0.0
 11
135.892
 21
60.8651
 31
0.0
  0
LINE
  8
0
 62
     0
 10
135.892
 20
60.8651
 30
0.0
 11
136.706
 21
62.2734
 31
0.0
  0
LINE
  8
0
 62
     0
 10
136.706
 20
62.2734
 30
0.0
 11
139.503
 21
60.6584
 31
0.0
  0
LINE
  8
0
 62
     0
 10
139.503
 20
60.6584
 30
0.0
 11
139.941
 21
61.4151
 31
0.0
  0
LINE
  8
0
 62
     0
 10
139.941
 20
61.4151
 30
0.0
 11
142.367
 21
60.0149
 31
0.0
  0
LINE
  8
0
 62
     0
 10
142.367
 20
60.0149
 30
0.0
 11
141.928
 21
59.2586
 31
0.0
  0
LINE
  8
0
 62
     0
 10
141.928
 20
59.2586
 30
0.0
 11
147.358
 21
56.1234
 31
0.0
  0
LINE
  8
0
 62
     0
 10
147.358
 20
56.1234
 30
0.0
 11
146.546
 21
54.7151
 31
0.0
  0
LINE
  8
0
 62
     0
 10
146.546
 20
54.7151
 30
0.0
 11
147.394
 21
54.2258
 31
0.0
  0
LINE
  8
0
 62
     0
 10
147.394
 20
54.2258
 30
0.0
 11
145.744
 21
51.3676
 31
0.0
  0
LINE
  8
0
 62
     0
 10
145.744
 20
51.3676
 30
0.0
 11
144.896
 21
51.8583
 31
0.0
  0
LINE
  8
0
 62
     0
 10
144.896
 20
51.8583
 30
0.0
 11
144.032
 21
50.3647
 31
0.0
  0
LINE
  8
0
 62
     0
 10
144.032
 20
50.3647
 30
0.0
 11
143.339
 21
50.764
 31
0.0
  0
LINE
  8
0
 62
     0
 10
143.339
 20
50.764
 30
0.0
 11
142.553
 21
49.3998
 31
0.0
  0
LINE
  8
0
 62
     0
 10
142.553
 20
49.3998
 30
0.0
 11
143.445
 21
48.8858
 31
0.0
  0
LINE
  8
0
 62
     0
 10
143.445
 20
48.8858
 30
0.0
 11
136.445
 21
36.7605
 31
0.0
  0
LINE
  8
0
 62
     0
 10
136.445
 20
36.7605
 30
0.0
 11
135.553
 21
37.2759
 31
0.0
  0
LINE
  8
0
 62
     0
 10
135.553
 20
37.2759
 30
0.0
 11
134.765
 21
35.9117
 31
0.0
  0
LINE
  8
0
 62
     0
 10
134.765
 20
35.9117
 30
0.0
 11
135.459
 21
35.5106
 31
0.0
  0
LINE
  8
0
 62
     0
 10
135.459
 20
35.5106
 30
0.0
 11
134.596
 21
34.0169
 31
0.0
  0
LINE
  8
0
 62
     0
 10
134.596
 20
34.0169
 30
0.0
 11
135.445
 21
33.5277
 31
0.0
  0
LINE
  8
0
 62
     0
 10
135.445
 20
33.5277
 30
0.0
 11
133.794
 21
30.6696
 31
0.0
  0
LINE
  8
0
 62
     0
 10
133.794
 20
30.6696
 30
0.0
 11
132.946
 21
31.1588
 31
0.0
  0
LINE
  8
0
 62
     0
 10
132.946
 20
31.1588
 30
0.0
 11
132.133
 21
29.7518
 31
0.0
  0
LINE
  8
0
 62
     0
 10
132.133
 20
29.7518
 30
0.0
 11
126.704
 21
32.8869
 31
0.0
  0
LINE
  8
0
 62
     0
 10
126.704
 20
32.8869
 30
0.0
 11
126.266
 21
32.129
 31
0.0
  0
LINE
  8
0
 62
     0
 10
126.266
 20
32.129
 30
0.0
 11
123.842
 21
33.5291
 31
0.0
  0
LINE
  8
0
 62
     0
 10
123.842
 20
33.5291
 30
0.0
 11
124.278
 21
34.287
 31
0.0
  0
LINE
  8
0
 62
     0
 10
124.278
 20
34.287
 30
0.0
 11
121.481
 21
35.9022
 31
0.0
  0
LINE
  8
0
 62
     0
 10
121.481
 20
35.9022
 30
0.0
 11
122.293
 21
37.3091
 31
0.0
  0
LINE
  8
0
 62
     0
 10
122.293
 20
37.3091
 30
0.0
 11
121.497
 21
37.7694
 31
0.0
  0
LINE
  8
0
 62
     0
 10
121.497
 20
37.7694
 30
0.0
 11
123.147
 21
40.6273
 31
0.0
  0
LINE
  8
0
 62
     0
 10
137.264
 20
26.9779
 30
0.0
 11
138.06
 21
26.5176
 31
0.0
  0
LINE
  8
0
 62
     0
 10
138.06
 20
26.5176
 30
0.0
 11
138.921
 21
28.0128
 31
0.0
  0
LINE
  8
0
 62
     0
 10
138.921
 20
28.0128
 30
0.0
 11
139.615
 21
27.6117
 31
0.0
  0
LINE
  8
0
 62
     0
 10
139.615
 20
27.6117
 30
0.0
 11
140.403
 21
28.976
 31
0.0
  0
LINE
  8
0
 62
     0
 10
140.403
 20
28.976
 30
0.0
 11
138.438
 21
30.1115
 31
0.0
  0
LINE
  8
0
 62
     0
 10
138.438
 20
30.1115
 30
0.0
 11
145.437
 21
42.2356
 31
0.0
  0
LINE
  8
0
 62
     0
 10
145.437
 20
42.2356
 30
0.0
 11
147.403
 21
41.1
 31
0.0
  0
LINE
  8
0
 62
     0
 10
147.403
 20
41.1
 30
0.0
 11
148.19
 21
42.4642
 31
0.0
  0
LINE
  8
0
 62
     0
 10
148.19
 20
42.4642
 30
0.0
 11
147.497
 21
42.8639
 31
0.0
  0
LINE
  8
0
 62
     0
 10
147.497
 20
42.8639
 30
0.0
 11
148.36
 21
44.3576
 31
0.0
  0
LINE
  8
0
 62
     0
 10
148.36
 20
44.3576
 30
0.0
 11
147.563
 21
44.8179
 31
0.0
  0
LINE
  8
0
 62
     0
 10
147.563
 20
44.8179
 30
0.0
 11
149.213
 21
47.6762
 31
0.0
  0
LINE
  8
0
 62
     0
 10
149.213
 20
47.6762
 30
0.0
 11
150.011
 21
47.2158
 31
0.0
  0
LINE
  8
0
 62
     0
 10
150.011
 20
47.2158
 30
0.0
 11
150.822
 21
48.6227
 31
0.0
  0
LINE
  8
0
 62
     0
 10
150.822
 20
48.6227
 30
0.0
 11
153.62
 21
47.0076
 31
0.0
  0
LINE
  8
0
 62
     0
 10
153.62
 20
47.0076
 30
0.0
 11
154.056
 21
47.7668
 31
0.0
  0
LINE
  8
0
 62
     0
 10
154.056
 20
47.7668
 30
0.0
 11
156.482
 21
46.367
 31
0.0
  0
LINE
  8
0
 62
     0
 10
156.482
 20
46.367
 30
0.0
 11
156.045
 21
45.6089
 31
0.0
  0
LINE
  8
0
 62
     0
 10
156.045
 20
45.6089
 30
0.0
 11
161.475
 21
42.4737
 31
0.0
  0
LINE
  8
0
 62
     0
 10
161.475
 20
42.4737
 30
0.0
 11
160.663
 21
41.0669
 31
0.0
  0
LINE
  8
0
 62
     0
 10
160.663
 20
41.0669
 30
0.0
 11
161.512
 21
40.5765
 31
0.0
  0
LINE
  8
0
 62
     0
 10
161.512
 20
40.5765
 30
0.0
 11
159.861
 21
37.7183
 31
0.0
  0
LINE
  8
0
 62
     0
 10
159.861
 20
37.7183
 30
0.0
 11
159.012
 21
38.209
 31
0.0
  0
LINE
  8
0
 62
     0
 10
159.012
 20
38.209
 30
0.0
 11
158.151
 21
36.7136
 31
0.0
  0
LINE
  8
0
 62
     0
 10
158.151
 20
36.7136
 30
0.0
 11
157.457
 21
37.1147
 31
0.0
  0
LINE
  8
0
 62
     0
 10
157.457
 20
37.1147
 30
0.0
 11
156.669
 21
35.7505
 31
0.0
  0
LINE
  8
0
 62
     0
 10
156.669
 20
35.7505
 30
0.0
 11
157.561
 21
35.2351
 31
0.0
  0
LINE
  8
0
 62
     0
 10
157.561
 20
35.2351
 30
0.0
 11
150.562
 21
23.1111
 31
0.0
  0
LINE
  8
0
 62
     0
 10
150.562
 20
23.1111
 30
0.0
 11
149.669
 21
23.6265
 31
0.0
  0
LINE
  8
0
 62
     0
 10
149.669
 20
23.6265
 30
0.0
 11
148.882
 21
22.2622
 31
0.0
  0
LINE
  8
0
 62
     0
 10
148.882
 20
22.2622
 30
0.0
 11
149.575
 21
21.8626
 31
0.0
  0
LINE
  8
0
 62
     0
 10
149.575
 20
21.8626
 30
0.0
 11
148.712
 21
20.3688
 31
0.0
  0
LINE
  8
0
 62
     0
 10
148.712
 20
20.3688
 30
0.0
 11
149.561
 21
19.8782
 31
0.0
  0
LINE
  8
0
 62
     0
 10
149.561
 20
19.8782
 30
0.0
 11
147.912
 21
17.0202
 31
0.0
  0
LINE
  8
0
 62
     0
 10
147.912
 20
17.0202
 30
0.0
 11
147.061
 21
17.5107
 31
0.0
  0
LINE
  8
0
 62
     0
 10
147.061
 20
17.5107
 30
0.0
 11
146.25
 21
16.1037
 31
0.0
  0
LINE
  8
0
 62
     0
 10
146.25
 20
16.1037
 30
0.0
 11
140.82
 21
19.2388
 31
0.0
  0
LINE
  8
0
 62
     0
 10
140.82
 20
19.2388
 30
0.0
 11
140.382
 21
18.4809
 31
0.0
  0
LINE
  8
0
 62
     0
 10
140.382
 20
18.4809
 30
0.0
 11
137.957
 21
19.881
 31
0.0
  0
LINE
  8
0
 62
     0
 10
137.957
 20
19.881
 30
0.0
 11
138.395
 21
20.6389
 31
0.0
  0
LINE
  8
0
 62
     0
 10
138.395
 20
20.6389
 30
0.0
 11
135.598
 21
22.2539
 31
0.0
  0
LINE
  8
0
 62
     0
 10
135.598
 20
22.2539
 30
0.0
 11
136.411
 21
23.6609
 31
0.0
  0
LINE
  8
0
 62
     0
 10
136.411
 20
23.6609
 30
0.0
 11
135.613
 21
24.1198
 31
0.0
  0
LINE
  8
0
 62
     0
 10
135.613
 20
24.1198
 30
0.0
 11
137.264
 21
26.9779
 31
0.0
  0
LINE
  8
0
 62
     0
 10
74.5836
 20
67.2786
 30
0.0
 11
88.5832
 21
67.2786
 31
0.0
  0
LINE
  8
0
 62
     0
 10
88.5832
 20
67.2786
 30
0.0
 11
88.5832
 21
53.279
 31
0.0
  0
LINE
  8
0
 62
     0
 10
88.5832
 20
53.279
 30
0.0
 11
74.5836
 21
53.279
 31
0.0
  0
LINE
  8
0
 62
     0
 10
74.5836
 20
53.279
 30
0.0
 11
74.5836
 21
67.2786
 31
0.0
  0
ENDSEC
  0
EOF
