  0
SECTION
  2
HEADER
  9
$ACADVER
  1
AC1009
  9
$EXTMIN
 10
0.0
 20
0.0
 30
0.0
  9
$EXTMAX
 10
1000.0
 20
1000.0
 30
0.0
  9
$FILLMODE
 70
 0
  9
$SPLFRAME
 70
 1
  0
ENDSEC
  0
SECTION
  2
TABLES
  0
TABLE
  2
LAYER
 70
1
  0
LAYER
  2
0
 70
     0
 62
     7
  6
CONTINUOUS
  0
ENDTAB
  0
ENDSEC
  0
SECTION
  2
ENTITIES
  0
LINE
  8
0
 62
     0
 10
152.159
 20
133.429
 30
0.0
 11
152.172
 21
133.499
 31
0.0
  0
LINE
  8
0
 62
     0
 10
152.172
 20
133.499
 30
0.0
 11
151.904
 21
133.344
 31
0.0
  0
LINE
  8
0
 62
     0
 10
151.904
 20
133.344
 30
0.0
 11
152.159
 21
133.429
 31
0.0
  0
LINE
  8
0
 62
     0
 10
152.006
 20
138.325
 30
0.0
 11
152.104
 21
138.311
 31
0.0
  0
LINE
  8
0
 62
     0
 10
152.104
 20
138.311
 30
0.0
 11
152.244
 21
138.056
 31
0.0
  0
LINE
  8
0
 62
     0
 10
152.244
 20
138.056
 30
0.0
 11
152.287
 21
138.042
 31
0.0
  0
LINE
  8
0
 62
     0
 10
152.287
 20
138.042
 30
0.0
 11
153.118
 21
137.743
 31
0.0
  0
LINE
  8
0
 62
     0
 10
153.118
 20
137.743
 30
0.0
 11
153.907
 21
137.416
 31
0.0
  0
LINE
  8
0
 62
     0
 10
153.907
 20
137.416
 30
0.0
 11
153.831
 21
135.441
 31
0.0
  0
LINE
  8
0
 62
     0
 10
153.831
 20
135.441
 30
0.0
 11
154.168
 21
135.158
 31
0.0
  0
LINE
  8
0
 62
     0
 10
154.168
 20
135.158
 30
0.0
 11
154.76
 21
135.268
 31
0.0
  0
LINE
  8
0
 62
     0
 10
154.76
 20
135.268
 30
0.0
 11
155.411
 21
135.52
 31
0.0
  0
LINE
  8
0
 62
     0
 10
155.411
 20
135.52
 30
0.0
 11
155.962
 21
135.829
 31
0.0
  0
LINE
  8
0
 62
     0
 10
155.962
 20
135.829
 30
0.0
 11
156.203
 21
136.083
 31
0.0
  0
LINE
  8
0
 62
     0
 10
156.203
 20
136.083
 30
0.0
 11
156.205
 21
136.562
 31
0.0
  0
LINE
  8
0
 62
     0
 10
156.205
 20
136.562
 30
0.0
 11
156.669
 21
136.405
 31
0.0
  0
LINE
  8
0
 62
     0
 10
156.669
 20
136.405
 30
0.0
 11
157.135
 21
136.221
 31
0.0
  0
LINE
  8
0
 62
     0
 10
157.135
 20
136.221
 30
0.0
 11
158.068
 21
136.584
 31
0.0
  0
LINE
  8
0
 62
     0
 10
158.068
 20
136.584
 30
0.0
 11
158.943
 21
136.948
 31
0.0
  0
LINE
  8
0
 62
     0
 10
158.943
 20
136.948
 30
0.0
 11
159.806
 21
137.255
 31
0.0
  0
LINE
  8
0
 62
     0
 10
159.806
 20
137.255
 30
0.0
 11
160.71
 21
137.465
 31
0.0
  0
LINE
  8
0
 62
     0
 10
160.71
 20
137.465
 30
0.0
 11
161.007
 21
137.886
 31
0.0
  0
LINE
  8
0
 62
     0
 10
161.007
 20
137.886
 30
0.0
 11
160.824
 21
138.128
 31
0.0
  0
LINE
  8
0
 62
     0
 10
160.824
 20
138.128
 30
0.0
 11
158.611
 21
138.939
 31
0.0
  0
LINE
  8
0
 62
     0
 10
158.611
 20
138.939
 30
0.0
 11
156.483
 21
139.652
 31
0.0
  0
LINE
  8
0
 62
     0
 10
156.483
 20
139.652
 30
0.0
 11
154.424
 21
140.378
 31
0.0
  0
LINE
  8
0
 62
     0
 10
154.424
 20
140.378
 30
0.0
 11
152.423
 21
141.245
 31
0.0
  0
LINE
  8
0
 62
     0
 10
152.423
 20
141.245
 30
0.0
 11
152.297
 21
141.33
 31
0.0
  0
LINE
  8
0
 62
     0
 10
152.297
 20
141.33
 30
0.0
 11
152.141
 21
141.176
 31
0.0
  0
LINE
  8
0
 62
     0
 10
152.141
 20
141.176
 30
0.0
 11
152.084
 21
140.809
 31
0.0
  0
LINE
  8
0
 62
     0
 10
152.084
 20
140.809
 30
0.0
 11
152.082
 21
140.343
 31
0.0
  0
LINE
  8
0
 62
     0
 10
152.082
 20
140.343
 30
0.0
 11
152.08
 21
139.919
 31
0.0
  0
LINE
  8
0
 62
     0
 10
152.08
 20
139.919
 30
0.0
 11
152.08
 21
139.736
 31
0.0
  0
LINE
  8
0
 62
     0
 10
152.08
 20
139.736
 30
0.0
 11
152.064
 21
139.017
 31
0.0
  0
LINE
  8
0
 62
     0
 10
152.064
 20
139.017
 30
0.0
 11
152.006
 21
138.325
 31
0.0
  0
LINE
  8
0
 62
     0
 10
152.036
 20
130.493
 30
0.0
 11
152.12
 21
130.579
 31
0.0
  0
LINE
  8
0
 62
     0
 10
152.12
 20
130.579
 30
0.0
 11
152.12
 21
130.564
 31
0.0
  0
LINE
  8
0
 62
     0
 10
152.12
 20
130.564
 30
0.0
 11
152.219
 21
130.38
 31
0.0
  0
LINE
  8
0
 62
     0
 10
152.219
 20
130.38
 30
0.0
 11
152.417
 21
130.295
 31
0.0
  0
LINE
  8
0
 62
     0
 10
152.417
 20
130.295
 30
0.0
 11
152.501
 21
130.309
 31
0.0
  0
LINE
  8
0
 62
     0
 10
152.501
 20
130.309
 30
0.0
 11
155.368
 21
131.259
 31
0.0
  0
LINE
  8
0
 62
     0
 10
155.368
 20
131.259
 30
0.0
 11
158.222
 21
132.238
 31
0.0
  0
LINE
  8
0
 62
     0
 10
158.222
 20
132.238
 30
0.0
 11
160.935
 21
133.372
 31
0.0
  0
LINE
  8
0
 62
     0
 10
160.935
 20
133.372
 30
0.0
 11
163.409
 21
134.76
 31
0.0
  0
LINE
  8
0
 62
     0
 10
163.409
 20
134.76
 30
0.0
 11
163.579
 21
134.746
 31
0.0
  0
LINE
  8
0
 62
     0
 10
163.579
 20
134.746
 30
0.0
 11
163.721
 21
134.745
 31
0.0
  0
LINE
  8
0
 62
     0
 10
163.721
 20
134.745
 30
0.0
 11
164.003
 21
134.786
 31
0.0
  0
LINE
  8
0
 62
     0
 10
164.003
 20
134.786
 30
0.0
 11
164.073
 21
134.899
 31
0.0
  0
LINE
  8
0
 62
     0
 10
164.073
 20
134.899
 30
0.0
 11
164.136
 21
136.649
 31
0.0
  0
LINE
  8
0
 62
     0
 10
164.136
 20
136.649
 30
0.0
 11
163.868
 21
136.96
 31
0.0
  0
LINE
  8
0
 62
     0
 10
163.868
 20
136.96
 30
0.0
 11
163.474
 21
137.159
 31
0.0
  0
LINE
  8
0
 62
     0
 10
163.474
 20
137.159
 30
0.0
 11
163.037
 21
137.287
 31
0.0
  0
LINE
  8
0
 62
     0
 10
163.037
 20
137.287
 30
0.0
 11
162.657
 21
137.401
 31
0.0
  0
LINE
  8
0
 62
     0
 10
162.657
 20
137.401
 30
0.0
 11
160.015
 21
136.606
 31
0.0
  0
LINE
  8
0
 62
     0
 10
160.015
 20
136.606
 30
0.0
 11
157.415
 21
135.57
 31
0.0
  0
LINE
  8
0
 62
     0
 10
157.415
 20
135.57
 30
0.0
 11
154.814
 21
134.463
 31
0.0
  0
LINE
  8
0
 62
     0
 10
154.814
 20
134.463
 30
0.0
 11
152.159
 21
133.429
 31
0.0
  0
LINE
  8
0
 62
     0
 10
152.159
 20
133.429
 30
0.0
 11
152.116
 21
133.329
 31
0.0
  0
LINE
  8
0
 62
     0
 10
152.116
 20
133.329
 30
0.0
 11
152.156
 21
132.553
 31
0.0
  0
LINE
  8
0
 62
     0
 10
152.156
 20
132.553
 30
0.0
 11
152.124
 21
131.565
 31
0.0
  0
LINE
  8
0
 62
     0
 10
152.124
 20
131.565
 30
0.0
 11
152.036
 21
130.493
 31
0.0
  0
LINE
  8
0
 62
     0
 10
163.53
 20
120.103
 30
0.0
 11
163.743
 21
120.031
 31
0.0
  0
LINE
  8
0
 62
     0
 10
163.743
 20
120.031
 30
0.0
 11
163.756
 21
120.031
 31
0.0
  0
LINE
  8
0
 62
     0
 10
163.756
 20
120.031
 30
0.0
 11
163.926
 21
120.115
 31
0.0
  0
LINE
  8
0
 62
     0
 10
163.926
 20
120.115
 30
0.0
 11
164.025
 21
120.312
 31
0.0
  0
LINE
  8
0
 62
     0
 10
164.025
 20
120.312
 30
0.0
 11
164.062
 21
122.965
 31
0.0
  0
LINE
  8
0
 62
     0
 10
164.062
 20
122.965
 30
0.0
 11
163.949
 21
123.078
 31
0.0
  0
LINE
  8
0
 62
     0
 10
163.949
 20
123.078
 30
0.0
 11
163.752
 21
123.164
 31
0.0
  0
LINE
  8
0
 62
     0
 10
163.752
 20
123.164
 30
0.0
 11
160.295
 21
123.104
 31
0.0
  0
LINE
  8
0
 62
     0
 10
160.295
 20
123.104
 30
0.0
 11
156.815
 21
120.449
 31
0.0
  0
LINE
  8
0
 62
     0
 10
156.815
 20
120.449
 30
0.0
 11
156.659
 21
120.281
 31
0.0
  0
LINE
  8
0
 62
     0
 10
156.659
 20
120.281
 30
0.0
 11
156.73
 21
120.125
 31
0.0
  0
LINE
  8
0
 62
     0
 10
156.73
 20
120.125
 30
0.0
 11
156.927
 21
120.04
 31
0.0
  0
LINE
  8
0
 62
     0
 10
156.927
 20
120.04
 30
0.0
 11
158.931
 21
120.159
 31
0.0
  0
LINE
  8
0
 62
     0
 10
158.931
 20
120.159
 30
0.0
 11
161.02
 21
120.209
 31
0.0
  0
LINE
  8
0
 62
     0
 10
161.02
 20
120.209
 30
0.0
 11
162.275
 21
120.191
 31
0.0
  0
LINE
  8
0
 62
     0
 10
162.275
 20
120.191
 30
0.0
 11
163.53
 21
120.103
 31
0.0
  0
LINE
  8
0
 62
     0
 10
152.192
 20
126.278
 30
0.0
 11
152.106
 21
126.221
 31
0.0
  0
LINE
  8
0
 62
     0
 10
152.106
 20
126.221
 30
0.0
 11
152.134
 21
126.081
 31
0.0
  0
LINE
  8
0
 62
     0
 10
152.134
 20
126.081
 30
0.0
 11
152.388
 21
125.939
 31
0.0
  0
LINE
  8
0
 62
     0
 10
152.388
 20
125.939
 30
0.0
 11
155.931
 21
125.969
 31
0.0
  0
LINE
  8
0
 62
     0
 10
155.931
 20
125.969
 30
0.0
 11
157.796
 21
127.276
 31
0.0
  0
LINE
  8
0
 62
     0
 10
157.796
 20
127.276
 30
0.0
 11
159.551
 21
128.399
 31
0.0
  0
LINE
  8
0
 62
     0
 10
159.551
 20
128.399
 30
0.0
 11
159.65
 21
128.709
 31
0.0
  0
LINE
  8
0
 62
     0
 10
159.65
 20
128.709
 30
0.0
 11
159.581
 21
128.935
 31
0.0
  0
LINE
  8
0
 62
     0
 10
159.581
 20
128.935
 30
0.0
 11
159.411
 21
129.02
 31
0.0
  0
LINE
  8
0
 62
     0
 10
159.411
 20
129.02
 30
0.0
 11
159.398
 21
129.02
 31
0.0
  0
LINE
  8
0
 62
     0
 10
159.398
 20
129.02
 30
0.0
 11
159.199
 21
129.006
 31
0.0
  0
LINE
  8
0
 62
     0
 10
159.199
 20
129.006
 30
0.0
 11
159.016
 21
129.006
 31
0.0
  0
LINE
  8
0
 62
     0
 10
159.016
 20
129.006
 30
0.0
 11
158.649
 21
129.008
 31
0.0
  0
LINE
  8
0
 62
     0
 10
158.649
 20
129.008
 30
0.0
 11
155.8
 21
129.117
 31
0.0
  0
LINE
  8
0
 62
     0
 10
155.8
 20
129.117
 30
0.0
 11
152.851
 21
129.224
 31
0.0
  0
LINE
  8
0
 62
     0
 10
152.851
 20
129.224
 30
0.0
 11
152.525
 21
129.226
 31
0.0
  0
LINE
  8
0
 62
     0
 10
152.525
 20
129.226
 30
0.0
 11
152.188
 21
129.213
 31
0.0
  0
LINE
  8
0
 62
     0
 10
152.188
 20
129.213
 30
0.0
 11
152.215
 21
129.086
 31
0.0
  0
LINE
  8
0
 62
     0
 10
152.215
 20
129.086
 30
0.0
 11
152.187
 21
128.917
 31
0.0
  0
LINE
  8
0
 62
     0
 10
152.187
 20
128.917
 30
0.0
 11
152.144
 21
128.761
 31
0.0
  0
LINE
  8
0
 62
     0
 10
152.144
 20
128.761
 30
0.0
 11
152.181
 21
127.52
 31
0.0
  0
LINE
  8
0
 62
     0
 10
152.181
 20
127.52
 30
0.0
 11
152.18
 21
126.884
 31
0.0
  0
LINE
  8
0
 62
     0
 10
152.18
 20
126.884
 30
0.0
 11
152.192
 21
126.278
 31
0.0
  0
LINE
  8
0
 62
     0
 10
163.989
 20
126.55
 30
0.0
 11
163.92
 21
127.001
 31
0.0
  0
LINE
  8
0
 62
     0
 10
163.92
 20
127.001
 30
0.0
 11
163.977
 21
127.114
 31
0.0
  0
LINE
  8
0
 62
     0
 10
163.977
 20
127.114
 30
0.0
 11
164.035
 21
127.228
 31
0.0
  0
LINE
  8
0
 62
     0
 10
164.035
 20
127.228
 30
0.0
 11
164.035
 21
127.382
 31
0.0
  0
LINE
  8
0
 62
     0
 10
164.035
 20
127.382
 30
0.0
 11
164.009
 21
128.06
 31
0.0
  0
LINE
  8
0
 62
     0
 10
164.009
 20
128.06
 30
0.0
 11
163.996
 21
128.695
 31
0.0
  0
LINE
  8
0
 62
     0
 10
163.996
 20
128.695
 30
0.0
 11
163.996
 21
128.723
 31
0.0
  0
LINE
  8
0
 62
     0
 10
163.996
 20
128.723
 30
0.0
 11
164.011
 21
128.75
 31
0.0
  0
LINE
  8
0
 62
     0
 10
164.011
 20
128.75
 30
0.0
 11
163.758
 21
129.005
 31
0.0
  0
LINE
  8
0
 62
     0
 10
163.758
 20
129.005
 30
0.0
 11
163.222
 21
129.049
 31
0.0
  0
LINE
  8
0
 62
     0
 10
163.222
 20
129.049
 30
0.0
 11
162.869
 21
129.05
 31
0.0
  0
LINE
  8
0
 62
     0
 10
162.869
 20
129.05
 30
0.0
 11
162.263
 21
129.053
 31
0.0
  0
LINE
  8
0
 62
     0
 10
162.263
 20
129.053
 30
0.0
 11
161.627
 21
129.027
 31
0.0
  0
LINE
  8
0
 62
     0
 10
161.627
 20
129.027
 30
0.0
 11
159.137
 21
127.285
 31
0.0
  0
LINE
  8
0
 62
     0
 10
159.137
 20
127.285
 30
0.0
 11
156.818
 21
125.656
 31
0.0
  0
LINE
  8
0
 62
     0
 10
156.818
 20
125.656
 30
0.0
 11
154.485
 21
124.012
 31
0.0
  0
LINE
  8
0
 62
     0
 10
154.485
 20
124.012
 30
0.0
 11
151.967
 21
122.257
 31
0.0
  0
LINE
  8
0
 62
     0
 10
151.967
 20
122.257
 30
0.0
 11
152.079
 21
122.017
 31
0.0
  0
LINE
  8
0
 62
     0
 10
152.079
 20
122.017
 30
0.0
 11
152.093
 21
121.861
 31
0.0
  0
LINE
  8
0
 62
     0
 10
152.093
 20
121.861
 30
0.0
 11
152.076
 21
121.113
 31
0.0
  0
LINE
  8
0
 62
     0
 10
152.076
 20
121.113
 30
0.0
 11
152.046
 21
120.366
 31
0.0
  0
LINE
  8
0
 62
     0
 10
152.046
 20
120.366
 30
0.0
 11
152.368
 21
120.096
 31
0.0
  0
LINE
  8
0
 62
     0
 10
152.368
 20
120.096
 30
0.0
 11
153.682
 21
120.092
 31
0.0
  0
LINE
  8
0
 62
     0
 10
153.682
 20
120.092
 30
0.0
 11
154.161
 21
120.09
 31
0.0
  0
LINE
  8
0
 62
     0
 10
154.161
 20
120.09
 30
0.0
 11
154.415
 21
120.09
 31
0.0
  0
LINE
  8
0
 62
     0
 10
154.415
 20
120.09
 30
0.0
 11
154.684
 21
120.06
 31
0.0
  0
LINE
  8
0
 62
     0
 10
154.684
 20
120.06
 30
0.0
 11
156.905
 21
121.888
 31
0.0
  0
LINE
  8
0
 62
     0
 10
156.905
 20
121.888
 30
0.0
 11
159.281
 21
123.672
 31
0.0
  0
LINE
  8
0
 62
     0
 10
159.281
 20
123.672
 30
0.0
 11
161.699
 21
125.273
 31
0.0
  0
LINE
  8
0
 62
     0
 10
161.699
 20
125.273
 30
0.0
 11
163.989
 21
126.55
 31
0.0
  0
LINE
  8
0
 62
     0
 10
161.375
 20
112.503
 30
0.0
 11
163.985
 21
112.423
 31
0.0
  0
LINE
  8
0
 62
     0
 10
163.985
 20
112.423
 30
0.0
 11
164.24
 21
112.634
 31
0.0
  0
LINE
  8
0
 62
     0
 10
164.24
 20
112.634
 30
0.0
 11
164.269
 21
112.817
 31
0.0
  0
LINE
  8
0
 62
     0
 10
164.269
 20
112.817
 30
0.0
 11
163.641
 21
114.767
 31
0.0
  0
LINE
  8
0
 62
     0
 10
163.641
 20
114.767
 30
0.0
 11
162.518
 21
116.464
 31
0.0
  0
LINE
  8
0
 62
     0
 10
162.518
 20
116.464
 30
0.0
 11
160.926
 21
117.654
 31
0.0
  0
LINE
  8
0
 62
     0
 10
160.926
 20
117.654
 30
0.0
 11
158.924
 21
118.113
 31
0.0
  0
LINE
  8
0
 62
     0
 10
158.924
 20
118.113
 30
0.0
 11
158.049
 21
118.03
 31
0.0
  0
LINE
  8
0
 62
     0
 10
158.049
 20
118.03
 30
0.0
 11
157.329
 21
118.09
 31
0.0
  0
LINE
  8
0
 62
     0
 10
157.329
 20
118.09
 30
0.0
 11
155.706
 21
117.813
 31
0.0
  0
LINE
  8
0
 62
     0
 10
155.706
 20
117.813
 30
0.0
 11
154.292
 21
117.041
 31
0.0
  0
LINE
  8
0
 62
     0
 10
154.292
 20
117.041
 30
0.0
 11
153.202
 21
115.903
 31
0.0
  0
LINE
  8
0
 62
     0
 10
153.202
 20
115.903
 30
0.0
 11
152.563
 21
114.522
 31
0.0
  0
LINE
  8
0
 62
     0
 10
152.563
 20
114.522
 30
0.0
 11
152.151
 21
113.705
 31
0.0
  0
LINE
  8
0
 62
     0
 10
152.151
 20
113.705
 30
0.0
 11
151.965
 21
112.929
 31
0.0
  0
LINE
  8
0
 62
     0
 10
151.965
 20
112.929
 30
0.0
 11
151.95
 21
112.689
 31
0.0
  0
LINE
  8
0
 62
     0
 10
151.95
 20
112.689
 30
0.0
 11
152.414
 21
112.475
 31
0.0
  0
LINE
  8
0
 62
     0
 10
152.414
 20
112.475
 30
0.0
 11
152.879
 21
112.488
 31
0.0
  0
LINE
  8
0
 62
     0
 10
152.879
 20
112.488
 30
0.0
 11
153.811
 21
112.528
 31
0.0
  0
LINE
  8
0
 62
     0
 10
153.811
 20
112.528
 30
0.0
 11
154.758
 21
112.595
 31
0.0
  0
LINE
  8
0
 62
     0
 10
154.758
 20
112.595
 30
0.0
 11
154.856
 21
112.566
 31
0.0
  0
LINE
  8
0
 62
     0
 10
154.856
 20
112.566
 30
0.0
 11
154.998
 21
112.65
 31
0.0
  0
LINE
  8
0
 62
     0
 10
154.998
 20
112.65
 30
0.0
 11
155.097
 21
112.834
 31
0.0
  0
LINE
  8
0
 62
     0
 10
155.097
 20
112.834
 30
0.0
 11
155.169
 21
113.044
 31
0.0
  0
LINE
  8
0
 62
     0
 10
155.169
 20
113.044
 30
0.0
 11
155.239
 21
113.228
 31
0.0
  0
LINE
  8
0
 62
     0
 10
155.239
 20
113.228
 30
0.0
 11
155.651
 21
114.004
 31
0.0
  0
LINE
  8
0
 62
     0
 10
155.651
 20
114.004
 30
0.0
 11
156.317
 21
114.65
 31
0.0
  0
LINE
  8
0
 62
     0
 10
156.317
 20
114.65
 30
0.0
 11
157.15
 21
115.07
 31
0.0
  0
LINE
  8
0
 62
     0
 10
157.15
 20
115.07
 30
0.0
 11
158.081
 21
115.223
 31
0.0
  0
LINE
  8
0
 62
     0
 10
158.081
 20
115.223
 30
0.0
 11
158.167
 21
115.222
 31
0.0
  0
LINE
  8
0
 62
     0
 10
158.167
 20
115.222
 30
0.0
 11
158.957
 21
115.051
 31
0.0
  0
LINE
  8
0
 62
     0
 10
158.957
 20
115.051
 30
0.0
 11
159.731
 21
114.61
 31
0.0
  0
LINE
  8
0
 62
     0
 10
159.731
 20
114.61
 30
0.0
 11
160.406
 21
114.002
 31
0.0
  0
LINE
  8
0
 62
     0
 10
160.406
 20
114.002
 30
0.0
 11
160.842
 21
113.28
 31
0.0
  0
LINE
  8
0
 62
     0
 10
160.842
 20
113.28
 30
0.0
 11
160.926
 21
113.253
 31
0.0
  0
LINE
  8
0
 62
     0
 10
160.926
 20
113.253
 30
0.0
 11
161.08
 21
112.856
 31
0.0
  0
LINE
  8
0
 62
     0
 10
161.08
 20
112.856
 30
0.0
 11
161.375
 21
112.503
 31
0.0
  0
LINE
  8
0
 62
     0
 10
154.853
 20
111.537
 30
0.0
 11
154.81
 21
111.565
 31
0.0
  0
LINE
  8
0
 62
     0
 10
154.81
 20
111.565
 30
0.0
 11
152.073
 21
111.574
 31
0.0
  0
LINE
  8
0
 62
     0
 10
152.073
 20
111.574
 30
0.0
 11
151.932
 21
111.292
 31
0.0
  0
LINE
  8
0
 62
     0
 10
151.932
 20
111.292
 30
0.0
 11
151.93
 21
111.249
 31
0.0
  0
LINE
  8
0
 62
     0
 10
151.93
 20
111.249
 30
0.0
 11
152.222
 21
110.014
 31
0.0
  0
LINE
  8
0
 62
     0
 10
152.222
 20
110.014
 30
0.0
 11
152.685
 21
108.961
 31
0.0
  0
LINE
  8
0
 62
     0
 10
152.685
 20
108.961
 30
0.0
 11
154.034
 21
107.334
 31
0.0
  0
LINE
  8
0
 62
     0
 10
154.034
 20
107.334
 30
0.0
 11
155.795
 21
106.284
 31
0.0
  0
LINE
  8
0
 62
     0
 10
155.795
 20
106.284
 30
0.0
 11
157.812
 21
105.741
 31
0.0
  0
LINE
  8
0
 62
     0
 10
157.812
 20
105.741
 30
0.0
 11
159.647
 21
106.059
 31
0.0
  0
LINE
  8
0
 62
     0
 10
159.647
 20
106.059
 30
0.0
 11
161.385
 21
106.845
 31
0.0
  0
LINE
  8
0
 62
     0
 10
161.385
 20
106.845
 30
0.0
 11
162.857
 21
108.024
 31
0.0
  0
LINE
  8
0
 62
     0
 10
162.857
 20
108.024
 30
0.0
 11
163.891
 21
109.546
 31
0.0
  0
LINE
  8
0
 62
     0
 10
163.891
 20
109.546
 30
0.0
 11
164.078
 21
110.377
 31
0.0
  0
LINE
  8
0
 62
     0
 10
164.078
 20
110.377
 30
0.0
 11
164.264
 21
111.209
 31
0.0
  0
LINE
  8
0
 62
     0
 10
164.264
 20
111.209
 30
0.0
 11
164.222
 21
111.379
 31
0.0
  0
LINE
  8
0
 62
     0
 10
164.222
 20
111.379
 30
0.0
 11
163.955
 21
111.563
 31
0.0
  0
LINE
  8
0
 62
     0
 10
163.955
 20
111.563
 30
0.0
 11
163.813
 21
111.549
 31
0.0
  0
LINE
  8
0
 62
     0
 10
163.813
 20
111.549
 30
0.0
 11
163.686
 21
111.549
 31
0.0
  0
LINE
  8
0
 62
     0
 10
163.686
 20
111.549
 30
0.0
 11
163.419
 21
111.551
 31
0.0
  0
LINE
  8
0
 62
     0
 10
163.419
 20
111.551
 30
0.0
 11
162.36
 21
111.583
 31
0.0
  0
LINE
  8
0
 62
     0
 10
162.36
 20
111.583
 30
0.0
 11
161.33
 21
111.628
 31
0.0
  0
LINE
  8
0
 62
     0
 10
161.33
 20
111.628
 30
0.0
 11
161.117
 21
111.403
 31
0.0
  0
LINE
  8
0
 62
     0
 10
161.117
 20
111.403
 30
0.0
 11
161.09
 21
111.333
 31
0.0
  0
LINE
  8
0
 62
     0
 10
161.09
 20
111.333
 30
0.0
 11
160.762
 21
110.444
 31
0.0
  0
LINE
  8
0
 62
     0
 10
160.762
 20
110.444
 30
0.0
 11
160.054
 21
109.671
 31
0.0
  0
LINE
  8
0
 62
     0
 10
160.054
 20
109.671
 30
0.0
 11
159.121
 21
109.138
 31
0.0
  0
LINE
  8
0
 62
     0
 10
159.121
 20
109.138
 30
0.0
 11
158.146
 21
108.93
 31
0.0
  0
LINE
  8
0
 62
     0
 10
158.146
 20
108.93
 30
0.0
 11
157.088
 21
109.116
 31
0.0
  0
LINE
  8
0
 62
     0
 10
157.088
 20
109.116
 30
0.0
 11
156.187
 21
109.627
 31
0.0
  0
LINE
  8
0
 62
     0
 10
156.187
 20
109.627
 30
0.0
 11
155.498
 21
110.392
 31
0.0
  0
LINE
  8
0
 62
     0
 10
155.498
 20
110.392
 30
0.0
 11
155.064
 21
111.338
 31
0.0
  0
LINE
  8
0
 62
     0
 10
155.064
 20
111.338
 30
0.0
 11
154.853
 21
111.537
 31
0.0
  0
LINE
  8
0
 62
     0
 10
152.09
 20
103.962
 30
0.0
 11
152.09
 21
103.976
 31
0.0
  0
LINE
  8
0
 62
     0
 10
152.09
 20
103.976
 30
0.0
 11
152.076
 21
104.005
 31
0.0
  0
LINE
  8
0
 62
     0
 10
152.076
 20
104.005
 30
0.0
 11
151.991
 21
103.962
 31
0.0
  0
LINE
  8
0
 62
     0
 10
151.991
 20
103.962
 30
0.0
 11
152.09
 21
103.962
 31
0.0
  0
LINE
  8
0
 62
     0
 10
159.684
 20
100.318
 30
0.0
 11
158.895
 21
100.28
 31
0.0
  0
LINE
  8
0
 62
     0
 10
158.895
 20
100.28
 30
0.0
 11
158.076
 21
100.268
 31
0.0
  0
LINE
  8
0
 62
     0
 10
158.076
 20
100.268
 30
0.0
 11
155.79
 21
100.36
 31
0.0
  0
LINE
  8
0
 62
     0
 10
155.79
 20
100.36
 30
0.0
 11
153.519
 21
100.551
 31
0.0
  0
LINE
  8
0
 62
     0
 10
153.519
 20
100.551
 30
0.0
 11
152.882
 21
100.03
 31
0.0
  0
LINE
  8
0
 62
     0
 10
152.882
 20
100.03
 30
0.0
 11
152.146
 21
99.6237
 31
0.0
  0
LINE
  8
0
 62
     0
 10
152.146
 20
99.6237
 30
0.0
 11
151.991
 21
99.3842
 31
0.0
  0
LINE
  8
0
 62
     0
 10
151.991
 20
99.3842
 30
0.0
 11
152.039
 21
96.7934
 31
0.0
  0
LINE
  8
0
 62
     0
 10
152.039
 20
96.7934
 30
0.0
 11
152.024
 21
96.6805
 31
0.0
  0
LINE
  8
0
 62
     0
 10
152.024
 20
96.6805
 30
0.0
 11
152.094
 21
96.4833
 31
0.0
  0
LINE
  8
0
 62
     0
 10
152.094
 20
96.4833
 30
0.0
 11
152.263
 21
96.4117
 31
0.0
  0
LINE
  8
0
 62
     0
 10
152.263
 20
96.4117
 30
0.0
 11
152.377
 21
96.4392
 31
0.0
  0
LINE
  8
0
 62
     0
 10
152.377
 20
96.4392
 30
0.0
 11
153.493
 21
97.0001
 31
0.0
  0
LINE
  8
0
 62
     0
 10
153.493
 20
97.0001
 30
0.0
 11
154.708
 21
97.5184
 31
0.0
  0
LINE
  8
0
 62
     0
 10
154.708
 20
97.5184
 30
0.0
 11
155.924
 21
98.0652
 31
0.0
  0
LINE
  8
0
 62
     0
 10
155.924
 20
98.0652
 30
0.0
 11
157.082
 21
98.6966
 31
0.0
  0
LINE
  8
0
 62
     0
 10
157.082
 20
98.6966
 30
0.0
 11
158.18
 21
97.7607
 31
0.0
  0
LINE
  8
0
 62
     0
 10
158.18
 20
97.7607
 30
0.0
 11
159.307
 21
97.2495
 31
0.0
  0
LINE
  8
0
 62
     0
 10
159.307
 20
97.2495
 30
0.0
 11
159.307
 21
97.2358
 31
0.0
  0
LINE
  8
0
 62
     0
 10
159.307
 20
97.2358
 30
0.0
 11
159.97
 21
97.1201
 31
0.0
  0
LINE
  8
0
 62
     0
 10
159.97
 20
97.1201
 30
0.0
 11
160.675
 21
97.076
 31
0.0
  0
LINE
  8
0
 62
     0
 10
160.675
 20
97.076
 30
0.0
 11
160.93
 21
97.0897
 31
0.0
  0
LINE
  8
0
 62
     0
 10
160.93
 20
97.0897
 30
0.0
 11
162.074
 21
97.3818
 31
0.0
  0
LINE
  8
0
 62
     0
 10
162.074
 20
97.3818
 30
0.0
 11
162.993
 21
98.0556
 31
0.0
  0
LINE
  8
0
 62
     0
 10
162.993
 20
98.0556
 30
0.0
 11
163.645
 21
99.0272
 31
0.0
  0
LINE
  8
0
 62
     0
 10
163.645
 20
99.0272
 30
0.0
 11
163.974
 21
100.037
 31
0.0
  0
LINE
  8
0
 62
     0
 10
163.974
 20
100.037
 30
0.0
 11
163.818
 21
100.25
 31
0.0
  0
LINE
  8
0
 62
     0
 10
163.818
 20
100.25
 30
0.0
 11
163.622
 21
100.306
 31
0.0
  0
LINE
  8
0
 62
     0
 10
163.622
 20
100.306
 30
0.0
 11
161.025
 21
100.4
 31
0.0
  0
LINE
  8
0
 62
     0
 10
161.025
 20
100.4
 30
0.0
 11
160.813
 21
100.216
 31
0.0
  0
LINE
  8
0
 62
     0
 10
160.813
 20
100.216
 30
0.0
 11
160.686
 21
100.033
 31
0.0
  0
LINE
  8
0
 62
     0
 10
160.686
 20
100.033
 30
0.0
 11
160.544
 21
99.8926
 31
0.0
  0
LINE
  8
0
 62
     0
 10
160.544
 20
99.8926
 30
0.0
 11
160.318
 21
99.8375
 31
0.0
  0
LINE
  8
0
 62
     0
 10
160.318
 20
99.8375
 30
0.0
 11
159.965
 21
100.008
 31
0.0
  0
LINE
  8
0
 62
     0
 10
159.965
 20
100.008
 30
0.0
 11
159.684
 21
100.318
 31
0.0
  0
LINE
  8
0
 62
     0
 10
152.08
 20
101.825
 30
0.0
 11
152.01
 21
101.91
 31
0.0
  0
LINE
  8
0
 62
     0
 10
152.01
 20
101.91
 30
0.0
 11
152.01
 21
101.896
 31
0.0
  0
LINE
  8
0
 62
     0
 10
152.01
 20
101.896
 30
0.0
 11
152.363
 21
101.655
 31
0.0
  0
LINE
  8
0
 62
     0
 10
152.363
 20
101.655
 30
0.0
 11
153.223
 21
101.567
 31
0.0
  0
LINE
  8
0
 62
     0
 10
153.223
 20
101.567
 30
0.0
 11
154.24
 21
101.55
 31
0.0
  0
LINE
  8
0
 62
     0
 10
154.24
 20
101.55
 30
0.0
 11
155.043
 21
101.562
 31
0.0
  0
LINE
  8
0
 62
     0
 10
155.043
 20
101.562
 30
0.0
 11
156.581
 21
101.571
 31
0.0
  0
LINE
  8
0
 62
     0
 10
156.581
 20
101.571
 30
0.0
 11
158.105
 21
101.565
 31
0.0
  0
LINE
  8
0
 62
     0
 10
158.105
 20
101.565
 30
0.0
 11
160.744
 21
101.515
 31
0.0
  0
LINE
  8
0
 62
     0
 10
160.744
 20
101.515
 30
0.0
 11
163.424
 21
101.28
 31
0.0
  0
LINE
  8
0
 62
     0
 10
163.424
 20
101.28
 30
0.0
 11
163.92
 21
101.729
 31
0.0
  0
LINE
  8
0
 62
     0
 10
163.92
 20
101.729
 30
0.0
 11
163.929
 21
104.317
 31
0.0
  0
LINE
  8
0
 62
     0
 10
163.929
 20
104.317
 30
0.0
 11
163.971
 21
104.333
 31
0.0
  0
LINE
  8
0
 62
     0
 10
163.971
 20
104.333
 30
0.0
 11
163.887
 21
104.502
 31
0.0
  0
LINE
  8
0
 62
     0
 10
163.887
 20
104.502
 30
0.0
 11
163.69
 21
104.588
 31
0.0
  0
LINE
  8
0
 62
     0
 10
163.69
 20
104.588
 30
0.0
 11
152.09
 21
104.527
 31
0.0
  0
LINE
  8
0
 62
     0
 10
152.09
 20
104.527
 30
0.0
 11
152.046
 21
104.089
 31
0.0
  0
LINE
  8
0
 62
     0
 10
152.046
 20
104.089
 30
0.0
 11
152.003
 21
103.609
 31
0.0
  0
LINE
  8
0
 62
     0
 10
152.003
 20
103.609
 30
0.0
 11
152.028
 21
102.693
 31
0.0
  0
LINE
  8
0
 62
     0
 10
152.028
 20
102.693
 30
0.0
 11
152.08
 21
101.825
 31
0.0
  0
LINE
  8
0
 62
     0
 10
151.9
 20
92.534
 30
0.0
 11
151.997
 21
92.5477
 31
0.0
  0
LINE
  8
0
 62
     0
 10
151.997
 20
92.5477
 30
0.0
 11
152.224
 21
92.3064
 31
0.0
  0
LINE
  8
0
 62
     0
 10
152.224
 20
92.3064
 30
0.0
 11
152.688
 21
92.0792
 31
0.0
  0
LINE
  8
0
 62
     0
 10
152.688
 20
92.0792
 30
0.0
 11
153.265
 21
91.8806
 31
0.0
  0
LINE
  8
0
 62
     0
 10
153.265
 20
91.8806
 30
0.0
 11
153.788
 21
91.7374
 31
0.0
  0
LINE
  8
0
 62
     0
 10
153.788
 20
91.7374
 30
0.0
 11
153.767
 21
89.7061
 31
0.0
  0
LINE
  8
0
 62
     0
 10
153.767
 20
89.7061
 30
0.0
 11
153.851
 21
89.4803
 31
0.0
  0
LINE
  8
0
 62
     0
 10
153.851
 20
89.4803
 30
0.0
 11
154.048
 21
89.3946
 31
0.0
  0
LINE
  8
0
 62
     0
 10
154.048
 20
89.3946
 30
0.0
 11
154.132
 21
89.4084
 31
0.0
  0
LINE
  8
0
 62
     0
 10
154.132
 20
89.4084
 30
0.0
 11
155.009
 21
89.7297
 31
0.0
  0
LINE
  8
0
 62
     0
 10
155.009
 20
89.7297
 30
0.0
 11
155.856
 21
90.0522
 31
0.0
  0
LINE
  8
0
 62
     0
 10
155.856
 20
90.0522
 30
0.0
 11
156.054
 21
90.2765
 31
0.0
  0
LINE
  8
0
 62
     0
 10
156.054
 20
90.2765
 30
0.0
 11
156.056
 21
90.799
 31
0.0
  0
LINE
  8
0
 62
     0
 10
156.056
 20
90.799
 30
0.0
 11
156.508
 21
90.6558
 31
0.0
  0
LINE
  8
0
 62
     0
 10
156.508
 20
90.6558
 30
0.0
 11
156.959
 21
90.4847
 31
0.0
  0
LINE
  8
0
 62
     0
 10
156.959
 20
90.4847
 30
0.0
 11
160.802
 21
91.8132
 31
0.0
  0
LINE
  8
0
 62
     0
 10
160.802
 20
91.8132
 30
0.0
 11
160.901
 21
92.0669
 31
0.0
  0
LINE
  8
0
 62
     0
 10
160.901
 20
92.0669
 30
0.0
 11
160.86
 21
92.2651
 31
0.0
  0
LINE
  8
0
 62
     0
 10
160.86
 20
92.2651
 30
0.0
 11
160.704
 21
92.3918
 31
0.0
  0
LINE
  8
0
 62
     0
 10
160.704
 20
92.3918
 30
0.0
 11
158.52
 21
93.2173
 31
0.0
  0
LINE
  8
0
 62
     0
 10
158.52
 20
93.2173
 30
0.0
 11
156.392
 21
94.0015
 31
0.0
  0
LINE
  8
0
 62
     0
 10
156.392
 20
94.0015
 30
0.0
 11
154.39
 21
94.8256
 31
0.0
  0
LINE
  8
0
 62
     0
 10
154.39
 20
94.8256
 30
0.0
 11
152.545
 21
95.7213
 31
0.0
  0
LINE
  8
0
 62
     0
 10
152.545
 20
95.7213
 30
0.0
 11
152.178
 21
95.5668
 31
0.0
  0
LINE
  8
0
 62
     0
 10
152.178
 20
95.5668
 30
0.0
 11
152.036
 21
95.3135
 31
0.0
  0
LINE
  8
0
 62
     0
 10
152.036
 20
95.3135
 30
0.0
 11
152.033
 21
94.6506
 31
0.0
  0
LINE
  8
0
 62
     0
 10
152.033
 20
94.6506
 30
0.0
 11
152.015
 21
93.5785
 31
0.0
  0
LINE
  8
0
 62
     0
 10
152.015
 20
93.5785
 30
0.0
 11
151.9
 21
92.534
 31
0.0
  0
LINE
  8
0
 62
     0
 10
152.029
 20
84.7439
 30
0.0
 11
151.973
 21
84.8155
 31
0.0
  0
LINE
  8
0
 62
     0
 10
151.973
 20
84.8155
 30
0.0
 11
151.973
 21
84.8004
 31
0.0
  0
LINE
  8
0
 62
     0
 10
151.973
 20
84.8004
 30
0.0
 11
152.071
 21
84.6169
 31
0.0
  0
LINE
  8
0
 62
     0
 10
152.071
 20
84.6169
 30
0.0
 11
152.268
 21
84.5316
 31
0.0
  0
LINE
  8
0
 62
     0
 10
152.268
 20
84.5316
 30
0.0
 11
152.353
 21
84.5453
 31
0.0
  0
LINE
  8
0
 62
     0
 10
152.353
 20
84.5453
 30
0.0
 11
155.151
 21
85.5528
 31
0.0
  0
LINE
  8
0
 62
     0
 10
155.151
 20
85.5528
 30
0.0
 11
157.905
 21
86.644
 31
0.0
  0
LINE
  8
0
 62
     0
 10
157.905
 20
86.644
 30
0.0
 11
160.646
 21
87.6928
 31
0.0
  0
LINE
  8
0
 62
     0
 10
160.646
 20
87.6928
 30
0.0
 11
163.444
 21
88.5306
 31
0.0
  0
LINE
  8
0
 62
     0
 10
163.444
 20
88.5306
 30
0.0
 11
163.812
 21
88.9385
 31
0.0
  0
LINE
  8
0
 62
     0
 10
163.812
 20
88.9385
 30
0.0
 11
163.926
 21
89.1357
 31
0.0
  0
LINE
  8
0
 62
     0
 10
163.926
 20
89.1357
 30
0.0
 11
163.932
 21
90.9147
 31
0.0
  0
LINE
  8
0
 62
     0
 10
163.932
 20
90.9147
 30
0.0
 11
163.763
 21
91.1684
 31
0.0
  0
LINE
  8
0
 62
     0
 10
163.763
 20
91.1684
 30
0.0
 11
163.383
 21
91.3529
 31
0.0
  0
LINE
  8
0
 62
     0
 10
163.383
 20
91.3529
 30
0.0
 11
162.917
 21
91.524
 31
0.0
  0
LINE
  8
0
 62
     0
 10
162.917
 20
91.524
 30
0.0
 11
162.48
 21
91.6809
 31
0.0
  0
LINE
  8
0
 62
     0
 10
162.48
 20
91.6809
 30
0.0
 11
159.979
 21
90.5178
 31
0.0
  0
LINE
  8
0
 62
     0
 10
159.979
 20
90.5178
 30
0.0
 11
157.266
 21
89.5671
 31
0.0
  0
LINE
  8
0
 62
     0
 10
157.266
 20
89.5671
 30
0.0
 11
154.484
 21
88.7582
 31
0.0
  0
LINE
  8
0
 62
     0
 10
154.484
 20
88.7582
 30
0.0
 11
151.801
 21
88.0332
 31
0.0
  0
LINE
  8
0
 62
     0
 10
151.801
 20
88.0332
 30
0.0
 11
152.039
 21
87.7217
 31
0.0
  0
LINE
  8
0
 62
     0
 10
152.039
 20
87.7217
 30
0.0
 11
151.967
 21
87.5524
 31
0.0
  0
LINE
  8
0
 62
     0
 10
151.967
 20
87.5524
 30
0.0
 11
151.952
 21
87.158
 31
0.0
  0
LINE
  8
0
 62
     0
 10
151.952
 20
87.158
 30
0.0
 11
151.937
 21
86.7625
 31
0.0
  0
LINE
  8
0
 62
     0
 10
151.937
 20
86.7625
 30
0.0
 11
151.962
 21
85.7747
 31
0.0
  0
LINE
  8
0
 62
     0
 10
151.962
 20
85.7747
 30
0.0
 11
152.029
 21
84.7439
 31
0.0
  0
LINE
  8
0
 62
     0
 10
162.101
 20
79.732
 30
0.0
 11
162.045
 21
79.7747
 31
0.0
  0
LINE
  8
0
 62
     0
 10
162.045
 20
79.7747
 30
0.0
 11
161.057
 21
79.9469
 31
0.0
  0
LINE
  8
0
 62
     0
 10
161.057
 20
79.9469
 30
0.0
 11
160.014
 21
79.9497
 31
0.0
  0
LINE
  8
0
 62
     0
 10
160.014
 20
79.9497
 30
0.0
 11
159.478
 21
79.9663
 31
0.0
  0
LINE
  8
0
 62
     0
 10
159.478
 20
79.9663
 30
0.0
 11
158.813
 21
79.9677
 31
0.0
  0
LINE
  8
0
 62
     0
 10
158.813
 20
79.9677
 30
0.0
 11
158.235
 21
79.8848
 31
0.0
  0
LINE
  8
0
 62
     0
 10
158.235
 20
79.8848
 30
0.0
 11
157.952
 21
79.6742
 31
0.0
  0
LINE
  8
0
 62
     0
 10
157.952
 20
79.6742
 30
0.0
 11
157.671
 21
79.8876
 31
0.0
  0
LINE
  8
0
 62
     0
 10
157.671
 20
79.8876
 30
0.0
 11
157.007
 21
79.8477
 31
0.0
  0
LINE
  8
0
 62
     0
 10
157.007
 20
79.8477
 30
0.0
 11
156.33
 21
79.8216
 31
0.0
  0
LINE
  8
0
 62
     0
 10
156.33
 20
79.8216
 30
0.0
 11
155.172
 21
79.8671
 31
0.0
  0
LINE
  8
0
 62
     0
 10
155.172
 20
79.8671
 30
0.0
 11
154.114
 21
79.9691
 31
0.0
  0
LINE
  8
0
 62
     0
 10
154.114
 20
79.9691
 30
0.0
 11
153.025
 21
79.0416
 31
0.0
  0
LINE
  8
0
 62
     0
 10
153.025
 20
79.0416
 30
0.0
 11
151.992
 21
78.044
 31
0.0
  0
LINE
  8
0
 62
     0
 10
151.992
 20
78.044
 30
0.0
 11
151.921
 21
77.7752
 31
0.0
  0
LINE
  8
0
 62
     0
 10
151.921
 20
77.7752
 30
0.0
 11
152.035
 21
74.1482
 31
0.0
  0
LINE
  8
0
 62
     0
 10
152.035
 20
74.1482
 30
0.0
 11
152.007
 21
73.9937
 31
0.0
  0
LINE
  8
0
 62
     0
 10
152.007
 20
73.9937
 30
0.0
 11
152.203
 21
73.7817
 31
0.0
  0
LINE
  8
0
 62
     0
 10
152.203
 20
73.7817
 30
0.0
 11
152.388
 21
73.8505
 31
0.0
  0
LINE
  8
0
 62
     0
 10
152.388
 20
73.8505
 30
0.0
 11
153.676
 21
75.1872
 31
0.0
  0
LINE
  8
0
 62
     0
 10
153.676
 20
75.1872
 30
0.0
 11
155.035
 21
76.6505
 31
0.0
  0
LINE
  8
0
 62
     0
 10
155.035
 20
76.6505
 30
0.0
 11
156.381
 21
78.0852
 31
0.0
  0
LINE
  8
0
 62
     0
 10
156.381
 20
78.0852
 30
0.0
 11
157.598
 21
79.3228
 31
0.0
  0
LINE
  8
0
 62
     0
 10
157.598
 20
79.3228
 30
0.0
 11
157.952
 21
79.5623
 31
0.0
  0
LINE
  8
0
 62
     0
 10
157.952
 20
79.5623
 30
0.0
 11
157.993
 21
79.477
 31
0.0
  0
LINE
  8
0
 62
     0
 10
157.993
 20
79.477
 30
0.0
 11
158.036
 21
79.4067
 31
0.0
  0
LINE
  8
0
 62
     0
 10
158.036
 20
79.4067
 30
0.0
 11
159.414
 21
77.9487
 31
0.0
  0
LINE
  8
0
 62
     0
 10
159.414
 20
77.9487
 30
0.0
 11
160.778
 21
76.5609
 31
0.0
  0
LINE
  8
0
 62
     0
 10
160.778
 20
76.5609
 30
0.0
 11
162.129
 21
75.1886
 31
0.0
  0
LINE
  8
0
 62
     0
 10
162.129
 20
75.1886
 30
0.0
 11
163.493
 21
73.787
 31
0.0
  0
LINE
  8
0
 62
     0
 10
163.493
 20
73.787
 30
0.0
 11
163.69
 21
73.8699
 31
0.0
  0
LINE
  8
0
 62
     0
 10
163.69
 20
73.8699
 30
0.0
 11
163.846
 21
74.1521
 31
0.0
  0
LINE
  8
0
 62
     0
 10
163.846
 20
74.1521
 30
0.0
 11
163.834
 21
74.3493
 31
0.0
  0
LINE
  8
0
 62
     0
 10
163.834
 20
74.3493
 30
0.0
 11
163.834
 21
74.5324
 31
0.0
  0
LINE
  8
0
 62
     0
 10
163.834
 20
74.5324
 30
0.0
 11
163.835
 21
74.9141
 31
0.0
  0
LINE
  8
0
 62
     0
 10
163.835
 20
74.9141
 30
0.0
 11
163.838
 21
75.7329
 31
0.0
  0
LINE
  8
0
 62
     0
 10
163.838
 20
75.7329
 30
0.0
 11
163.854
 21
76.5362
 31
0.0
  0
LINE
  8
0
 62
     0
 10
163.854
 20
76.5362
 30
0.0
 11
163.842
 21
77.144
 31
0.0
  0
LINE
  8
0
 62
     0
 10
163.842
 20
77.144
 30
0.0
 11
163.802
 21
77.7505
 31
0.0
  0
LINE
  8
0
 62
     0
 10
163.802
 20
77.7505
 30
0.0
 11
163.788
 21
78.0052
 31
0.0
  0
LINE
  8
0
 62
     0
 10
163.788
 20
78.0052
 30
0.0
 11
162.917
 21
78.8539
 31
0.0
  0
LINE
  8
0
 62
     0
 10
162.917
 20
78.8539
 30
0.0
 11
162.101
 21
79.732
 31
0.0
  0
LINE
  8
0
 62
     0
 10
163.332
 20
81.099
 30
0.0
 11
163.586
 21
80.6884
 31
0.0
  0
LINE
  8
0
 62
     0
 10
163.586
 20
80.6884
 30
0.0
 11
163.726
 21
80.7159
 31
0.0
  0
LINE
  8
0
 62
     0
 10
163.726
 20
80.7159
 30
0.0
 11
163.868
 21
80.9696
 31
0.0
  0
LINE
  8
0
 62
     0
 10
163.868
 20
80.9696
 30
0.0
 11
163.844
 21
82.2399
 31
0.0
  0
LINE
  8
0
 62
     0
 10
163.844
 20
82.2399
 30
0.0
 11
163.792
 21
83.4386
 31
0.0
  0
LINE
  8
0
 62
     0
 10
163.792
 20
83.4386
 30
0.0
 11
163.806
 21
83.5381
 31
0.0
  0
LINE
  8
0
 62
     0
 10
163.806
 20
83.5381
 30
0.0
 11
163.412
 21
83.7928
 31
0.0
  0
LINE
  8
0
 62
     0
 10
163.412
 20
83.7928
 30
0.0
 11
162.439
 21
83.9378
 31
0.0
  0
LINE
  8
0
 62
     0
 10
162.439
 20
83.9378
 30
0.0
 11
161.198
 21
84.0123
 31
0.0
  0
LINE
  8
0
 62
     0
 10
161.198
 20
84.0123
 30
0.0
 11
159.983
 21
84.0299
 31
0.0
  0
LINE
  8
0
 62
     0
 10
159.983
 20
84.0299
 30
0.0
 11
159.278
 21
84.0327
 31
0.0
  0
LINE
  8
0
 62
     0
 10
159.278
 20
84.0327
 30
0.0
 11
155.82
 21
83.9872
 31
0.0
  0
LINE
  8
0
 62
     0
 10
155.82
 20
83.9872
 30
0.0
 11
152.193
 21
83.9004
 31
0.0
  0
LINE
  8
0
 62
     0
 10
152.193
 20
83.9004
 30
0.0
 11
151.966
 21
83.5064
 31
0.0
  0
LINE
  8
0
 62
     0
 10
151.966
 20
83.5064
 30
0.0
 11
151.937
 21
82.9702
 31
0.0
  0
LINE
  8
0
 62
     0
 10
151.937
 20
82.9702
 30
0.0
 11
151.976
 21
81.9397
 31
0.0
  0
LINE
  8
0
 62
     0
 10
151.976
 20
81.9397
 30
0.0
 11
152.014
 21
80.9103
 31
0.0
  0
LINE
  8
0
 62
     0
 10
152.014
 20
80.9103
 30
0.0
 11
151.987
 21
80.8672
 31
0.0
  0
LINE
  8
0
 62
     0
 10
151.987
 20
80.8672
 30
0.0
 11
152.268
 21
80.7392
 31
0.0
  0
LINE
  8
0
 62
     0
 10
152.268
 20
80.7392
 30
0.0
 11
152.973
 21
80.6524
 31
0.0
  0
LINE
  8
0
 62
     0
 10
152.973
 20
80.6524
 30
0.0
 11
153.862
 21
80.6221
 31
0.0
  0
LINE
  8
0
 62
     0
 10
153.862
 20
80.6221
 30
0.0
 11
154.708
 21
80.6041
 31
0.0
  0
LINE
  8
0
 62
     0
 10
154.708
 20
80.6041
 30
0.0
 11
155.189
 21
80.6027
 31
0.0
  0
LINE
  8
0
 62
     0
 10
155.189
 20
80.6027
 30
0.0
 11
157.234
 21
80.6387
 31
0.0
  0
LINE
  8
0
 62
     0
 10
157.234
 20
80.6387
 30
0.0
 11
159.239
 21
80.7586
 31
0.0
  0
LINE
  8
0
 62
     0
 10
159.239
 20
80.7586
 30
0.0
 11
161.258
 21
80.9226
 31
0.0
  0
LINE
  8
0
 62
     0
 10
161.258
 20
80.9226
 30
0.0
 11
163.332
 21
81.099
 31
0.0
  0
LINE
  8
0
 62
     0
 10
148.175
 20
136.324
 30
0.0
 11
148.118
 21
136.367
 31
0.0
  0
LINE
  8
0
 62
     0
 10
148.118
 20
136.367
 30
0.0
 11
147.131
 21
136.54
 31
0.0
  0
LINE
  8
0
 62
     0
 10
147.131
 20
136.54
 30
0.0
 11
146.087
 21
136.543
 31
0.0
  0
LINE
  8
0
 62
     0
 10
146.087
 20
136.543
 30
0.0
 11
145.551
 21
136.56
 31
0.0
  0
LINE
  8
0
 62
     0
 10
145.551
 20
136.56
 30
0.0
 11
144.887
 21
136.561
 31
0.0
  0
LINE
  8
0
 62
     0
 10
144.887
 20
136.561
 30
0.0
 11
144.308
 21
136.478
 31
0.0
  0
LINE
  8
0
 62
     0
 10
144.308
 20
136.478
 30
0.0
 11
144.026
 21
136.267
 31
0.0
  0
LINE
  8
0
 62
     0
 10
144.026
 20
136.267
 30
0.0
 11
143.745
 21
136.479
 31
0.0
  0
LINE
  8
0
 62
     0
 10
143.745
 20
136.479
 30
0.0
 11
143.08
 21
136.44
 31
0.0
  0
LINE
  8
0
 62
     0
 10
143.08
 20
136.44
 30
0.0
 11
142.404
 21
136.414
 31
0.0
  0
LINE
  8
0
 62
     0
 10
142.404
 20
136.414
 30
0.0
 11
141.246
 21
136.46
 31
0.0
  0
LINE
  8
0
 62
     0
 10
141.246
 20
136.46
 30
0.0
 11
140.188
 21
136.562
 31
0.0
  0
LINE
  8
0
 62
     0
 10
140.188
 20
136.562
 30
0.0
 11
139.099
 21
135.635
 31
0.0
  0
LINE
  8
0
 62
     0
 10
139.099
 20
135.635
 30
0.0
 11
138.066
 21
134.636
 31
0.0
  0
LINE
  8
0
 62
     0
 10
138.066
 20
134.636
 30
0.0
 11
137.994
 21
134.368
 31
0.0
  0
LINE
  8
0
 62
     0
 10
137.994
 20
134.368
 30
0.0
 11
138.108
 21
130.741
 31
0.0
  0
LINE
  8
0
 62
     0
 10
138.108
 20
130.741
 30
0.0
 11
138.081
 21
130.586
 31
0.0
  0
LINE
  8
0
 62
     0
 10
138.081
 20
130.586
 30
0.0
 11
138.277
 21
130.373
 31
0.0
  0
LINE
  8
0
 62
     0
 10
138.277
 20
130.373
 30
0.0
 11
138.461
 21
130.444
 31
0.0
  0
LINE
  8
0
 62
     0
 10
138.461
 20
130.444
 30
0.0
 11
139.75
 21
131.78
 31
0.0
  0
LINE
  8
0
 62
     0
 10
139.75
 20
131.78
 30
0.0
 11
141.108
 21
133.242
 31
0.0
  0
LINE
  8
0
 62
     0
 10
141.108
 20
133.242
 30
0.0
 11
142.455
 21
134.679
 31
0.0
  0
LINE
  8
0
 62
     0
 10
142.455
 20
134.679
 30
0.0
 11
143.672
 21
135.916
 31
0.0
  0
LINE
  8
0
 62
     0
 10
143.672
 20
135.916
 30
0.0
 11
144.026
 21
136.154
 31
0.0
  0
LINE
  8
0
 62
     0
 10
144.026
 20
136.154
 30
0.0
 11
144.067
 21
136.07
 31
0.0
  0
LINE
  8
0
 62
     0
 10
144.067
 20
136.07
 30
0.0
 11
144.11
 21
135.999
 31
0.0
  0
LINE
  8
0
 62
     0
 10
144.11
 20
135.999
 30
0.0
 11
145.488
 21
134.541
 31
0.0
  0
LINE
  8
0
 62
     0
 10
145.488
 20
134.541
 30
0.0
 11
146.852
 21
133.154
 31
0.0
  0
LINE
  8
0
 62
     0
 10
146.852
 20
133.154
 30
0.0
 11
148.203
 21
131.78
 31
0.0
  0
LINE
  8
0
 62
     0
 10
148.203
 20
131.78
 30
0.0
 11
149.567
 21
130.379
 31
0.0
  0
LINE
  8
0
 62
     0
 10
149.567
 20
130.379
 30
0.0
 11
149.764
 21
130.463
 31
0.0
  0
LINE
  8
0
 62
     0
 10
149.764
 20
130.463
 30
0.0
 11
149.92
 21
130.745
 31
0.0
  0
LINE
  8
0
 62
     0
 10
149.92
 20
130.745
 30
0.0
 11
149.907
 21
130.943
 31
0.0
  0
LINE
  8
0
 62
     0
 10
149.907
 20
130.943
 30
0.0
 11
149.907
 21
131.126
 31
0.0
  0
LINE
  8
0
 62
     0
 10
149.907
 20
131.126
 30
0.0
 11
149.909
 21
131.506
 31
0.0
  0
LINE
  8
0
 62
     0
 10
149.909
 20
131.506
 30
0.0
 11
149.911
 21
132.325
 31
0.0
  0
LINE
  8
0
 62
     0
 10
149.911
 20
132.325
 30
0.0
 11
149.928
 21
133.13
 31
0.0
  0
LINE
  8
0
 62
     0
 10
149.928
 20
133.13
 30
0.0
 11
149.915
 21
133.736
 31
0.0
  0
LINE
  8
0
 62
     0
 10
149.915
 20
133.736
 30
0.0
 11
149.876
 21
134.343
 31
0.0
  0
LINE
  8
0
 62
     0
 10
149.876
 20
134.343
 30
0.0
 11
149.862
 21
134.597
 31
0.0
  0
LINE
  8
0
 62
     0
 10
149.862
 20
134.597
 30
0.0
 11
148.991
 21
135.447
 31
0.0
  0
LINE
  8
0
 62
     0
 10
148.991
 20
135.447
 30
0.0
 11
148.175
 21
136.324
 31
0.0
  0
LINE
  8
0
 62
     0
 10
149.406
 20
137.692
 30
0.0
 11
149.659
 21
137.282
 31
0.0
  0
LINE
  8
0
 62
     0
 10
149.659
 20
137.282
 30
0.0
 11
149.8
 21
137.309
 31
0.0
  0
LINE
  8
0
 62
     0
 10
149.8
 20
137.309
 30
0.0
 11
149.941
 21
137.563
 31
0.0
  0
LINE
  8
0
 62
     0
 10
149.941
 20
137.563
 30
0.0
 11
149.918
 21
138.833
 31
0.0
  0
LINE
  8
0
 62
     0
 10
149.918
 20
138.833
 30
0.0
 11
149.866
 21
140.032
 31
0.0
  0
LINE
  8
0
 62
     0
 10
149.866
 20
140.032
 30
0.0
 11
149.879
 21
140.131
 31
0.0
  0
LINE
  8
0
 62
     0
 10
149.879
 20
140.131
 30
0.0
 11
149.485
 21
140.386
 31
0.0
  0
LINE
  8
0
 62
     0
 10
149.485
 20
140.386
 30
0.0
 11
148.512
 21
140.531
 31
0.0
  0
LINE
  8
0
 62
     0
 10
148.512
 20
140.531
 30
0.0
 11
147.271
 21
140.605
 31
0.0
  0
LINE
  8
0
 62
     0
 10
147.271
 20
140.605
 30
0.0
 11
146.057
 21
140.623
 31
0.0
  0
LINE
  8
0
 62
     0
 10
146.057
 20
140.623
 30
0.0
 11
145.351
 21
140.626
 31
0.0
  0
LINE
  8
0
 62
     0
 10
145.351
 20
140.626
 30
0.0
 11
141.894
 21
140.581
 31
0.0
  0
LINE
  8
0
 62
     0
 10
141.894
 20
140.581
 30
0.0
 11
138.267
 21
140.494
 31
0.0
  0
LINE
  8
0
 62
     0
 10
138.267
 20
140.494
 30
0.0
 11
138.041
 21
140.1
 31
0.0
  0
LINE
  8
0
 62
     0
 10
138.041
 20
140.1
 30
0.0
 11
138.011
 21
139.563
 31
0.0
  0
LINE
  8
0
 62
     0
 10
138.011
 20
139.563
 30
0.0
 11
138.049
 21
138.533
 31
0.0
  0
LINE
  8
0
 62
     0
 10
138.049
 20
138.533
 30
0.0
 11
138.088
 21
137.503
 31
0.0
  0
LINE
  8
0
 62
     0
 10
138.088
 20
137.503
 30
0.0
 11
138.06
 21
137.461
 31
0.0
  0
LINE
  8
0
 62
     0
 10
138.06
 20
137.461
 30
0.0
 11
138.341
 21
137.333
 31
0.0
  0
LINE
  8
0
 62
     0
 10
138.341
 20
137.333
 30
0.0
 11
139.047
 21
137.246
 31
0.0
  0
LINE
  8
0
 62
     0
 10
139.047
 20
137.246
 30
0.0
 11
139.936
 21
137.215
 31
0.0
  0
LINE
  8
0
 62
     0
 10
139.936
 20
137.215
 30
0.0
 11
140.782
 21
137.197
 31
0.0
  0
LINE
  8
0
 62
     0
 10
140.782
 20
137.197
 30
0.0
 11
141.263
 21
137.196
 31
0.0
  0
LINE
  8
0
 62
     0
 10
141.263
 20
137.196
 30
0.0
 11
143.309
 21
137.232
 31
0.0
  0
LINE
  8
0
 62
     0
 10
143.309
 20
137.232
 30
0.0
 11
145.313
 21
137.352
 31
0.0
  0
LINE
  8
0
 62
     0
 10
145.313
 20
137.352
 30
0.0
 11
147.332
 21
137.516
 31
0.0
  0
LINE
  8
0
 62
     0
 10
147.332
 20
137.516
 30
0.0
 11
149.406
 21
137.692
 31
0.0
  0
LINE
  8
0
 62
     0
 10
138.006
 20
129.255
 30
0.0
 11
138.077
 21
129.17
 31
0.0
  0
LINE
  8
0
 62
     0
 10
138.077
 20
129.17
 30
0.0
 11
137.988
 21
128.282
 31
0.0
  0
LINE
  8
0
 62
     0
 10
137.988
 20
128.282
 30
0.0
 11
137.943
 21
127.336
 31
0.0
  0
LINE
  8
0
 62
     0
 10
137.943
 20
127.336
 30
0.0
 11
137.984
 21
126.871
 31
0.0
  0
LINE
  8
0
 62
     0
 10
137.984
 20
126.871
 30
0.0
 11
138.024
 21
126.448
 31
0.0
  0
LINE
  8
0
 62
     0
 10
138.024
 20
126.448
 30
0.0
 11
137.925
 21
126.307
 31
0.0
  0
LINE
  8
0
 62
     0
 10
137.925
 20
126.307
 30
0.0
 11
149.625
 21
126.366
 31
0.0
  0
LINE
  8
0
 62
     0
 10
149.625
 20
126.366
 30
0.0
 11
149.993
 21
126.662
 31
0.0
  0
LINE
  8
0
 62
     0
 10
149.993
 20
126.662
 30
0.0
 11
149.939
 21
127.579
 31
0.0
  0
LINE
  8
0
 62
     0
 10
149.939
 20
127.579
 30
0.0
 11
149.928
 21
128.496
 31
0.0
  0
LINE
  8
0
 62
     0
 10
149.928
 20
128.496
 30
0.0
 11
149.929
 21
128.849
 31
0.0
  0
LINE
  8
0
 62
     0
 10
149.929
 20
128.849
 30
0.0
 11
149.929
 21
129.033
 31
0.0
  0
LINE
  8
0
 62
     0
 10
149.929
 20
129.033
 30
0.0
 11
149.944
 21
129.216
 31
0.0
  0
LINE
  8
0
 62
     0
 10
149.944
 20
129.216
 30
0.0
 11
149.902
 21
129.343
 31
0.0
  0
LINE
  8
0
 62
     0
 10
149.902
 20
129.343
 30
0.0
 11
149.789
 21
129.385
 31
0.0
  0
LINE
  8
0
 62
     0
 10
149.789
 20
129.385
 30
0.0
 11
149.393
 21
129.19
 31
0.0
  0
LINE
  8
0
 62
     0
 10
149.393
 20
129.19
 30
0.0
 11
138.289
 21
129.537
 31
0.0
  0
LINE
  8
0
 62
     0
 10
138.289
 20
129.537
 30
0.0
 11
138.091
 21
129.438
 31
0.0
  0
LINE
  8
0
 62
     0
 10
138.091
 20
129.438
 30
0.0
 11
138.006
 21
129.255
 31
0.0
  0
LINE
  8
0
 62
     0
 10
137.988
 20
124.109
 30
0.0
 11
138.059
 21
124.024
 31
0.0
  0
LINE
  8
0
 62
     0
 10
138.059
 20
124.024
 30
0.0
 11
137.971
 21
123.135
 31
0.0
  0
LINE
  8
0
 62
     0
 10
137.971
 20
123.135
 30
0.0
 11
137.925
 21
122.189
 31
0.0
  0
LINE
  8
0
 62
     0
 10
137.925
 20
122.189
 30
0.0
 11
137.966
 21
121.724
 31
0.0
  0
LINE
  8
0
 62
     0
 10
137.966
 20
121.724
 30
0.0
 11
138.008
 21
121.301
 31
0.0
  0
LINE
  8
0
 62
     0
 10
138.008
 20
121.301
 30
0.0
 11
137.909
 21
121.16
 31
0.0
  0
LINE
  8
0
 62
     0
 10
137.909
 20
121.16
 30
0.0
 11
149.607
 21
121.22
 31
0.0
  0
LINE
  8
0
 62
     0
 10
149.607
 20
121.22
 30
0.0
 11
149.975
 21
121.515
 31
0.0
  0
LINE
  8
0
 62
     0
 10
149.975
 20
121.515
 30
0.0
 11
149.921
 21
122.433
 31
0.0
  0
LINE
  8
0
 62
     0
 10
149.921
 20
122.433
 30
0.0
 11
149.91
 21
123.349
 31
0.0
  0
LINE
  8
0
 62
     0
 10
149.91
 20
123.349
 30
0.0
 11
149.911
 21
123.702
 31
0.0
  0
LINE
  8
0
 62
     0
 10
149.911
 20
123.702
 30
0.0
 11
149.911
 21
123.886
 31
0.0
  0
LINE
  8
0
 62
     0
 10
149.911
 20
123.886
 30
0.0
 11
149.926
 21
124.07
 31
0.0
  0
LINE
  8
0
 62
     0
 10
149.926
 20
124.07
 30
0.0
 11
149.885
 21
124.197
 31
0.0
  0
LINE
  8
0
 62
     0
 10
149.885
 20
124.197
 30
0.0
 11
149.772
 21
124.24
 31
0.0
  0
LINE
  8
0
 62
     0
 10
149.772
 20
124.24
 30
0.0
 11
149.377
 21
124.043
 31
0.0
  0
LINE
  8
0
 62
     0
 10
149.377
 20
124.043
 30
0.0
 11
138.271
 21
124.39
 31
0.0
  0
LINE
  8
0
 62
     0
 10
138.271
 20
124.39
 30
0.0
 11
138.074
 21
124.292
 31
0.0
  0
LINE
  8
0
 62
     0
 10
138.074
 20
124.292
 30
0.0
 11
137.988
 21
124.109
 31
0.0
  0
LINE
  8
0
 62
     0
 10
137.928
 20
118.719
 30
0.0
 11
137.943
 21
118.719
 31
0.0
  0
LINE
  8
0
 62
     0
 10
137.943
 20
118.719
 30
0.0
 11
137.943
 21
118.762
 31
0.0
  0
LINE
  8
0
 62
     0
 10
137.943
 20
118.762
 30
0.0
 11
137.928
 21
118.719
 31
0.0
  0
LINE
  8
0
 62
     0
 10
138
 20
118.932
 30
0.0
 11
137.986
 21
118.903
 31
0.0
  0
LINE
  8
0
 62
     0
 10
137.986
 20
118.903
 30
0.0
 11
137.943
 21
118.776
 31
0.0
  0
LINE
  8
0
 62
     0
 10
137.943
 20
118.776
 30
0.0
 11
137.943
 21
118.762
 31
0.0
  0
LINE
  8
0
 62
     0
 10
137.943
 20
118.762
 30
0.0
 11
138
 21
118.932
 31
0.0
  0
LINE
  8
0
 62
     0
 10
137.966
 20
117.633
 30
0.0
 11
137.965
 21
116.984
 31
0.0
  0
LINE
  8
0
 62
     0
 10
137.965
 20
116.984
 30
0.0
 11
137.935
 21
116.349
 31
0.0
  0
LINE
  8
0
 62
     0
 10
137.935
 20
116.349
 30
0.0
 11
137.935
 21
116.307
 31
0.0
  0
LINE
  8
0
 62
     0
 10
137.935
 20
116.307
 30
0.0
 11
138.019
 21
116.152
 31
0.0
  0
LINE
  8
0
 62
     0
 10
138.019
 20
116.152
 30
0.0
 11
138.202
 21
116.067
 31
0.0
  0
LINE
  8
0
 62
     0
 10
138.202
 20
116.067
 30
0.0
 11
141.56
 21
116.253
 31
0.0
  0
LINE
  8
0
 62
     0
 10
141.56
 20
116.253
 30
0.0
 11
145.033
 21
116.312
 31
0.0
  0
LINE
  8
0
 62
     0
 10
145.033
 20
116.312
 30
0.0
 11
147.177
 21
116.276
 31
0.0
  0
LINE
  8
0
 62
     0
 10
147.177
 20
116.276
 30
0.0
 11
149.265
 21
116.158
 31
0.0
  0
LINE
  8
0
 62
     0
 10
149.265
 20
116.158
 30
0.0
 11
149.604
 21
116.1
 31
0.0
  0
LINE
  8
0
 62
     0
 10
149.604
 20
116.1
 30
0.0
 11
149.83
 21
116.169
 31
0.0
  0
LINE
  8
0
 62
     0
 10
149.83
 20
116.169
 30
0.0
 11
149.902
 21
116.31
 31
0.0
  0
LINE
  8
0
 62
     0
 10
149.902
 20
116.31
 30
0.0
 11
149.938
 21
118.723
 31
0.0
  0
LINE
  8
0
 62
     0
 10
149.938
 20
118.723
 30
0.0
 11
149.824
 21
118.921
 31
0.0
  0
LINE
  8
0
 62
     0
 10
149.824
 20
118.921
 30
0.0
 11
149.628
 21
119.02
 31
0.0
  0
LINE
  8
0
 62
     0
 10
149.628
 20
119.02
 30
0.0
 11
137.943
 21
118.719
 31
0.0
  0
LINE
  8
0
 62
     0
 10
137.943
 20
118.719
 30
0.0
 11
137.969
 21
118.183
 31
0.0
  0
LINE
  8
0
 62
     0
 10
137.969
 20
118.183
 30
0.0
 11
137.968
 21
117.633
 31
0.0
  0
LINE
  8
0
 62
     0
 10
140.994
 20
115.194
 30
0.0
 11
140.98
 21
115.179
 31
0.0
  0
LINE
  8
0
 62
     0
 10
140.98
 20
115.179
 30
0.0
 11
140.698
 21
115.449
 31
0.0
  0
LINE
  8
0
 62
     0
 10
140.698
 20
115.449
 30
0.0
 11
138.144
 21
115.386
 31
0.0
  0
LINE
  8
0
 62
     0
 10
138.144
 20
115.386
 30
0.0
 11
138.088
 21
115.415
 31
0.0
  0
LINE
  8
0
 62
     0
 10
138.088
 20
115.415
 30
0.0
 11
137.988
 21
115.345
 31
0.0
  0
LINE
  8
0
 62
     0
 10
137.988
 20
115.345
 30
0.0
 11
137.917
 21
115.175
 31
0.0
  0
LINE
  8
0
 62
     0
 10
137.917
 20
115.175
 30
0.0
 11
138.223
 21
113.538
 31
0.0
  0
LINE
  8
0
 62
     0
 10
138.223
 20
113.538
 30
0.0
 11
139.022
 21
112.251
 31
0.0
  0
LINE
  8
0
 62
     0
 10
139.022
 20
112.251
 30
0.0
 11
140.247
 21
111.401
 31
0.0
  0
LINE
  8
0
 62
     0
 10
140.247
 20
111.401
 30
0.0
 11
141.812
 21
111.071
 31
0.0
  0
LINE
  8
0
 62
     0
 10
141.812
 20
111.071
 30
0.0
 11
141.912
 21
111.07
 31
0.0
  0
LINE
  8
0
 62
     0
 10
141.912
 20
111.07
 30
0.0
 11
142.688
 21
111.124
 31
0.0
  0
LINE
  8
0
 62
     0
 10
142.688
 20
111.124
 30
0.0
 11
143.408
 21
111.306
 31
0.0
  0
LINE
  8
0
 62
     0
 10
143.408
 20
111.306
 30
0.0
 11
144.016
 21
111.656
 31
0.0
  0
LINE
  8
0
 62
     0
 10
144.016
 20
111.656
 30
0.0
 11
144.483
 21
112.219
 31
0.0
  0
LINE
  8
0
 62
     0
 10
144.483
 20
112.219
 30
0.0
 11
145.259
 21
111.963
 31
0.0
  0
LINE
  8
0
 62
     0
 10
145.259
 20
111.963
 30
0.0
 11
145.992
 21
111.89
 31
0.0
  0
LINE
  8
0
 62
     0
 10
145.992
 20
111.89
 30
0.0
 11
146.43
 21
111.888
 31
0.0
  0
LINE
  8
0
 62
     0
 10
146.43
 20
111.888
 30
0.0
 11
147.785
 21
112.138
 31
0.0
  0
LINE
  8
0
 62
     0
 10
147.785
 20
112.138
 30
0.0
 11
149.029
 21
112.853
 31
0.0
  0
LINE
  8
0
 62
     0
 10
149.029
 20
112.853
 30
0.0
 11
149.612
 21
113.881
 31
0.0
  0
LINE
  8
0
 62
     0
 10
149.612
 20
113.881
 30
0.0
 11
149.94
 21
115.051
 31
0.0
  0
LINE
  8
0
 62
     0
 10
149.94
 20
115.051
 30
0.0
 11
149.757
 21
115.363
 31
0.0
  0
LINE
  8
0
 62
     0
 10
149.757
 20
115.363
 30
0.0
 11
149.602
 21
115.419
 31
0.0
  0
LINE
  8
0
 62
     0
 10
149.602
 20
115.419
 30
0.0
 11
147.133
 21
115.513
 31
0.0
  0
LINE
  8
0
 62
     0
 10
147.133
 20
115.513
 30
0.0
 11
147.02
 21
115.429
 31
0.0
  0
LINE
  8
0
 62
     0
 10
147.02
 20
115.429
 30
0.0
 11
146.95
 21
115.386
 31
0.0
  0
LINE
  8
0
 62
     0
 10
146.95
 20
115.386
 30
0.0
 11
146.822
 21
115.217
 31
0.0
  0
LINE
  8
0
 62
     0
 10
146.822
 20
115.217
 30
0.0
 11
146.596
 21
115.034
 31
0.0
  0
LINE
  8
0
 62
     0
 10
146.596
 20
115.034
 30
0.0
 11
146.284
 21
114.964
 31
0.0
  0
LINE
  8
0
 62
     0
 10
146.284
 20
114.964
 30
0.0
 11
145.96
 21
115.051
 31
0.0
  0
LINE
  8
0
 62
     0
 10
145.96
 20
115.051
 30
0.0
 11
145.749
 21
115.263
 31
0.0
  0
LINE
  8
0
 62
     0
 10
145.749
 20
115.263
 30
0.0
 11
145.482
 21
115.433
 31
0.0
  0
LINE
  8
0
 62
     0
 10
145.482
 20
115.433
 30
0.0
 11
142.843
 21
115.513
 31
0.0
  0
LINE
  8
0
 62
     0
 10
142.843
 20
115.513
 30
0.0
 11
142.617
 21
115.302
 31
0.0
  0
LINE
  8
0
 62
     0
 10
142.617
 20
115.302
 30
0.0
 11
142.574
 21
115.16
 31
0.0
  0
LINE
  8
0
 62
     0
 10
142.574
 20
115.16
 30
0.0
 11
142.589
 21
115.019
 31
0.0
  0
LINE
  8
0
 62
     0
 10
142.589
 20
115.019
 30
0.0
 11
142.332
 21
114.427
 31
0.0
  0
LINE
  8
0
 62
     0
 10
142.332
 20
114.427
 30
0.0
 11
141.724
 21
114.161
 31
0.0
  0
LINE
  8
0
 62
     0
 10
141.724
 20
114.161
 30
0.0
 11
141.161
 21
114.474
 31
0.0
  0
LINE
  8
0
 62
     0
 10
141.161
 20
114.474
 30
0.0
 11
140.979
 21
115.066
 31
0.0
  0
LINE
  8
0
 62
     0
 10
140.979
 20
115.066
 30
0.0
 11
140.98
 21
115.138
 31
0.0
  0
LINE
  8
0
 62
     0
 10
140.98
 20
115.138
 30
0.0
 11
140.994
 21
115.194
 31
0.0
  0
LINE
  8
0
 62
     0
 10
147.235
 20
103.936
 30
0.0
 11
149.847
 21
103.857
 31
0.0
  0
LINE
  8
0
 62
     0
 10
149.847
 20
103.857
 30
0.0
 11
150.101
 21
104.068
 31
0.0
  0
LINE
  8
0
 62
     0
 10
150.101
 20
104.068
 30
0.0
 11
150.129
 21
104.251
 31
0.0
  0
LINE
  8
0
 62
     0
 10
150.129
 20
104.251
 30
0.0
 11
149.501
 21
106.201
 31
0.0
  0
LINE
  8
0
 62
     0
 10
149.501
 20
106.201
 30
0.0
 11
148.378
 21
107.898
 31
0.0
  0
LINE
  8
0
 62
     0
 10
148.378
 20
107.898
 30
0.0
 11
146.787
 21
109.088
 31
0.0
  0
LINE
  8
0
 62
     0
 10
146.787
 20
109.088
 30
0.0
 11
144.785
 21
109.547
 31
0.0
  0
LINE
  8
0
 62
     0
 10
144.785
 20
109.547
 30
0.0
 11
143.91
 21
109.464
 31
0.0
  0
LINE
  8
0
 62
     0
 10
143.91
 20
109.464
 30
0.0
 11
143.191
 21
109.524
 31
0.0
  0
LINE
  8
0
 62
     0
 10
143.191
 20
109.524
 30
0.0
 11
141.566
 21
109.247
 31
0.0
  0
LINE
  8
0
 62
     0
 10
141.566
 20
109.247
 30
0.0
 11
140.152
 21
108.475
 31
0.0
  0
LINE
  8
0
 62
     0
 10
140.152
 20
108.475
 30
0.0
 11
139.062
 21
107.335
 31
0.0
  0
LINE
  8
0
 62
     0
 10
139.062
 20
107.335
 30
0.0
 11
138.423
 21
105.955
 31
0.0
  0
LINE
  8
0
 62
     0
 10
138.423
 20
105.955
 30
0.0
 11
138.011
 21
105.137
 31
0.0
  0
LINE
  8
0
 62
     0
 10
138.011
 20
105.137
 30
0.0
 11
137.825
 21
104.363
 31
0.0
  0
LINE
  8
0
 62
     0
 10
137.825
 20
104.363
 30
0.0
 11
137.809
 21
104.123
 31
0.0
  0
LINE
  8
0
 62
     0
 10
137.809
 20
104.123
 30
0.0
 11
138.275
 21
103.91
 31
0.0
  0
LINE
  8
0
 62
     0
 10
138.275
 20
103.91
 30
0.0
 11
138.741
 21
103.922
 31
0.0
  0
LINE
  8
0
 62
     0
 10
138.741
 20
103.922
 30
0.0
 11
139.672
 21
103.96
 31
0.0
  0
LINE
  8
0
 62
     0
 10
139.672
 20
103.96
 30
0.0
 11
140.618
 21
104.028
 31
0.0
  0
LINE
  8
0
 62
     0
 10
140.618
 20
104.028
 30
0.0
 11
140.717
 21
104.001
 31
0.0
  0
LINE
  8
0
 62
     0
 10
140.717
 20
104.001
 30
0.0
 11
140.857
 21
104.085
 31
0.0
  0
LINE
  8
0
 62
     0
 10
140.857
 20
104.085
 30
0.0
 11
140.957
 21
104.268
 31
0.0
  0
LINE
  8
0
 62
     0
 10
140.957
 20
104.268
 30
0.0
 11
141.029
 21
104.479
 31
0.0
  0
LINE
  8
0
 62
     0
 10
141.029
 20
104.479
 30
0.0
 11
141.1
 21
104.662
 31
0.0
  0
LINE
  8
0
 62
     0
 10
141.1
 20
104.662
 30
0.0
 11
141.512
 21
105.436
 31
0.0
  0
LINE
  8
0
 62
     0
 10
141.512
 20
105.436
 30
0.0
 11
142.176
 21
106.084
 31
0.0
  0
LINE
  8
0
 62
     0
 10
142.176
 20
106.084
 30
0.0
 11
143.012
 21
106.504
 31
0.0
  0
LINE
  8
0
 62
     0
 10
143.012
 20
106.504
 30
0.0
 11
143.943
 21
106.656
 31
0.0
  0
LINE
  8
0
 62
     0
 10
143.943
 20
106.656
 30
0.0
 11
144.027
 21
106.656
 31
0.0
  0
LINE
  8
0
 62
     0
 10
144.027
 20
106.656
 30
0.0
 11
144.817
 21
106.484
 31
0.0
  0
LINE
  8
0
 62
     0
 10
144.817
 20
106.484
 30
0.0
 11
145.591
 21
106.044
 31
0.0
  0
LINE
  8
0
 62
     0
 10
145.591
 20
106.044
 30
0.0
 11
146.268
 21
105.435
 31
0.0
  0
LINE
  8
0
 62
     0
 10
146.268
 20
105.435
 30
0.0
 11
146.702
 21
104.714
 31
0.0
  0
LINE
  8
0
 62
     0
 10
146.702
 20
104.714
 30
0.0
 11
146.787
 21
104.685
 31
0.0
  0
LINE
  8
0
 62
     0
 10
146.787
 20
104.685
 30
0.0
 11
146.94
 21
104.29
 31
0.0
  0
LINE
  8
0
 62
     0
 10
146.94
 20
104.29
 30
0.0
 11
147.236
 21
103.936
 31
0.0
  0
LINE
  8
0
 62
     0
 10
140.713
 20
102.97
 30
0.0
 11
140.672
 21
102.999
 31
0.0
  0
LINE
  8
0
 62
     0
 10
140.672
 20
102.999
 30
0.0
 11
137.933
 21
103.007
 31
0.0
  0
LINE
  8
0
 62
     0
 10
137.933
 20
103.007
 30
0.0
 11
137.791
 21
102.726
 31
0.0
  0
LINE
  8
0
 62
     0
 10
137.791
 20
102.726
 30
0.0
 11
137.791
 21
102.683
 31
0.0
  0
LINE
  8
0
 62
     0
 10
137.791
 20
102.683
 30
0.0
 11
138.084
 21
101.448
 31
0.0
  0
LINE
  8
0
 62
     0
 10
138.084
 20
101.448
 30
0.0
 11
138.545
 21
100.394
 31
0.0
  0
LINE
  8
0
 62
     0
 10
138.545
 20
100.394
 30
0.0
 11
139.896
 21
98.7683
 31
0.0
  0
LINE
  8
0
 62
     0
 10
139.896
 20
98.7683
 30
0.0
 11
141.655
 21
97.718
 31
0.0
  0
LINE
  8
0
 62
     0
 10
141.655
 20
97.718
 30
0.0
 11
143.672
 21
97.1751
 31
0.0
  0
LINE
  8
0
 62
     0
 10
143.672
 20
97.1751
 30
0.0
 11
145.507
 21
97.4933
 31
0.0
  0
LINE
  8
0
 62
     0
 10
145.507
 20
97.4933
 30
0.0
 11
147.246
 21
98.2775
 31
0.0
  0
LINE
  8
0
 62
     0
 10
147.246
 20
98.2775
 30
0.0
 11
148.717
 21
99.4586
 31
0.0
  0
LINE
  8
0
 62
     0
 10
148.717
 20
99.4586
 30
0.0
 11
149.753
 21
100.978
 31
0.0
  0
LINE
  8
0
 62
     0
 10
149.753
 20
100.978
 30
0.0
 11
149.939
 21
101.811
 31
0.0
  0
LINE
  8
0
 62
     0
 10
149.939
 20
101.811
 30
0.0
 11
150.125
 21
102.643
 31
0.0
  0
LINE
  8
0
 62
     0
 10
150.125
 20
102.643
 30
0.0
 11
150.082
 21
102.813
 31
0.0
  0
LINE
  8
0
 62
     0
 10
150.082
 20
102.813
 30
0.0
 11
149.815
 21
102.997
 31
0.0
  0
LINE
  8
0
 62
     0
 10
149.815
 20
102.997
 30
0.0
 11
149.674
 21
102.984
 31
0.0
  0
LINE
  8
0
 62
     0
 10
149.674
 20
102.984
 30
0.0
 11
149.547
 21
102.984
 31
0.0
  0
LINE
  8
0
 62
     0
 10
149.547
 20
102.984
 30
0.0
 11
149.279
 21
102.985
 31
0.0
  0
LINE
  8
0
 62
     0
 10
149.279
 20
102.985
 30
0.0
 11
148.22
 21
103.017
 31
0.0
  0
LINE
  8
0
 62
     0
 10
148.22
 20
103.017
 30
0.0
 11
147.191
 21
103.062
 31
0.0
  0
LINE
  8
0
 62
     0
 10
147.191
 20
103.062
 30
0.0
 11
146.979
 21
102.836
 31
0.0
  0
LINE
  8
0
 62
     0
 10
146.979
 20
102.836
 30
0.0
 11
146.95
 21
102.766
 31
0.0
  0
LINE
  8
0
 62
     0
 10
146.95
 20
102.766
 30
0.0
 11
146.622
 21
101.878
 31
0.0
  0
LINE
  8
0
 62
     0
 10
146.622
 20
101.878
 30
0.0
 11
145.915
 21
101.104
 31
0.0
  0
LINE
  8
0
 62
     0
 10
145.915
 20
101.104
 30
0.0
 11
144.981
 21
100.572
 31
0.0
  0
LINE
  8
0
 62
     0
 10
144.981
 20
100.572
 30
0.0
 11
144.006
 21
100.362
 31
0.0
  0
LINE
  8
0
 62
     0
 10
144.006
 20
100.362
 30
0.0
 11
142.949
 21
100.55
 31
0.0
  0
LINE
  8
0
 62
     0
 10
142.949
 20
100.55
 30
0.0
 11
142.048
 21
101.061
 31
0.0
  0
LINE
  8
0
 62
     0
 10
142.048
 20
101.061
 30
0.0
 11
141.359
 21
101.825
 31
0.0
  0
LINE
  8
0
 62
     0
 10
141.359
 20
101.825
 30
0.0
 11
140.924
 21
102.771
 31
0.0
  0
LINE
  8
0
 62
     0
 10
140.924
 20
102.771
 30
0.0
 11
140.713
 21
102.97
 31
0.0
  0
LINE
  8
0
 62
     0
 10
149.823
 20
92.6056
 30
0.0
 11
149.888
 21
95.0888
 31
0.0
  0
LINE
  8
0
 62
     0
 10
149.888
 20
95.0888
 30
0.0
 11
149.761
 21
95.3576
 31
0.0
  0
LINE
  8
0
 62
     0
 10
149.761
 20
95.3576
 30
0.0
 11
149.55
 21
95.4567
 31
0.0
  0
LINE
  8
0
 62
     0
 10
149.55
 20
95.4567
 30
0.0
 11
147.646
 21
95.589
 31
0.0
  0
LINE
  8
0
 62
     0
 10
147.646
 20
95.589
 30
0.0
 11
145.798
 21
95.6236
 31
0.0
  0
LINE
  8
0
 62
     0
 10
145.798
 20
95.6236
 30
0.0
 11
142.015
 21
95.5227
 31
0.0
  0
LINE
  8
0
 62
     0
 10
142.015
 20
95.5227
 30
0.0
 11
138.176
 21
95.2542
 31
0.0
  0
LINE
  8
0
 62
     0
 10
138.176
 20
95.2542
 30
0.0
 11
138.035
 21
95.3671
 31
0.0
  0
LINE
  8
0
 62
     0
 10
138.035
 20
95.3671
 30
0.0
 11
137.893
 21
95.184
 31
0.0
  0
LINE
  8
0
 62
     0
 10
137.893
 20
95.184
 30
0.0
 11
137.92
 21
94.5638
 31
0.0
  0
LINE
  8
0
 62
     0
 10
137.92
 20
94.5638
 30
0.0
 11
137.918
 21
93.9423
 31
0.0
  0
LINE
  8
0
 62
     0
 10
137.918
 20
93.9423
 30
0.0
 11
137.956
 21
92.7005
 31
0.0
  0
LINE
  8
0
 62
     0
 10
137.956
 20
92.7005
 30
0.0
 11
137.885
 21
92.5449
 31
0.0
  0
LINE
  8
0
 62
     0
 10
137.885
 20
92.5449
 30
0.0
 11
138.293
 21
92.4031
 31
0.0
  0
LINE
  8
0
 62
     0
 10
138.293
 20
92.4031
 30
0.0
 11
139.351
 21
92.2874
 31
0.0
  0
LINE
  8
0
 62
     0
 10
139.351
 20
92.2874
 30
0.0
 11
140.776
 21
92.2115
 31
0.0
  0
LINE
  8
0
 62
     0
 10
140.776
 20
92.2115
 30
0.0
 11
142.314
 21
92.1646
 31
0.0
  0
LINE
  8
0
 62
     0
 10
142.314
 20
92.1646
 30
0.0
 11
143.698
 21
92.1452
 31
0.0
  0
LINE
  8
0
 62
     0
 10
143.698
 20
92.1452
 30
0.0
 11
144.629
 21
92.1286
 31
0.0
  0
LINE
  8
0
 62
     0
 10
144.629
 20
92.1286
 30
0.0
 11
147.155
 21
92.177
 31
0.0
  0
LINE
  8
0
 62
     0
 10
147.155
 20
92.177
 30
0.0
 11
149.654
 21
92.323
 31
0.0
  0
LINE
  8
0
 62
     0
 10
149.654
 20
92.323
 30
0.0
 11
149.582
 21
92.323
 31
0.0
  0
LINE
  8
0
 62
     0
 10
149.582
 20
92.323
 30
0.0
 11
149.823
 21
92.6056
 31
0.0
  0
LINE
  8
0
 62
     0
 10
137.783
 20
87.1389
 30
0.0
 11
137.867
 21
87.1389
 31
0.0
  0
LINE
  8
0
 62
     0
 10
137.867
 20
87.1389
 30
0.0
 11
137.867
 21
87.1238
 31
0.0
  0
LINE
  8
0
 62
     0
 10
137.867
 20
87.1238
 30
0.0
 11
138.079
 21
86.9541
 31
0.0
  0
LINE
  8
0
 62
     0
 10
138.079
 20
86.9541
 30
0.0
 11
138.629
 21
86.8398
 31
0.0
  0
LINE
  8
0
 62
     0
 10
138.629
 20
86.8398
 30
0.0
 11
139.376
 21
86.7805
 31
0.0
  0
LINE
  8
0
 62
     0
 10
139.376
 20
86.7805
 30
0.0
 11
140.208
 21
86.7639
 31
0.0
  0
LINE
  8
0
 62
     0
 10
140.208
 20
86.7639
 30
0.0
 11
140.986
 21
86.7752
 31
0.0
  0
LINE
  8
0
 62
     0
 10
140.986
 20
86.7752
 30
0.0
 11
141.578
 21
86.7738
 31
0.0
  0
LINE
  8
0
 62
     0
 10
141.578
 20
86.7738
 30
0.0
 11
142.481
 21
86.7847
 31
0.0
  0
LINE
  8
0
 62
     0
 10
142.481
 20
86.7847
 30
0.0
 11
143.383
 21
86.7819
 31
0.0
  0
LINE
  8
0
 62
     0
 10
143.383
 20
86.7819
 30
0.0
 11
146.278
 21
86.7297
 31
0.0
  0
LINE
  8
0
 62
     0
 10
146.278
 20
86.7297
 30
0.0
 11
149.225
 21
86.4803
 31
0.0
  0
LINE
  8
0
 62
     0
 10
149.225
 20
86.4803
 30
0.0
 11
149.678
 21
86.9721
 31
0.0
  0
LINE
  8
0
 62
     0
 10
149.678
 20
86.9721
 30
0.0
 11
149.849
 21
87.5083
 31
0.0
  0
LINE
  8
0
 62
     0
 10
149.849
 20
87.5083
 30
0.0
 11
149.866
 21
88.0442
 31
0.0
  0
LINE
  8
0
 62
     0
 10
149.866
 20
88.0442
 30
0.0
 11
149.838
 21
88.5529
 31
0.0
  0
LINE
  8
0
 62
     0
 10
149.838
 20
88.5529
 30
0.0
 11
149.8
 21
89.6539
 31
0.0
  0
LINE
  8
0
 62
     0
 10
149.8
 20
89.6539
 30
0.0
 11
149.8
 21
89.6676
 31
0.0
  0
LINE
  8
0
 62
     0
 10
149.8
 20
89.6676
 30
0.0
 11
149.688
 21
89.8507
 31
0.0
  0
LINE
  8
0
 62
     0
 10
149.688
 20
89.8507
 30
0.0
 11
149.421
 21
89.9361
 31
0.0
  0
LINE
  8
0
 62
     0
 10
149.421
 20
89.9361
 30
0.0
 11
149.082
 21
89.9513
 31
0.0
  0
LINE
  8
0
 62
     0
 10
149.082
 20
89.9513
 30
0.0
 11
148.785
 21
89.9389
 31
0.0
  0
LINE
  8
0
 62
     0
 10
148.785
 20
89.9389
 30
0.0
 11
147.755
 21
89.9142
 31
0.0
  0
LINE
  8
0
 62
     0
 10
147.755
 20
89.9142
 30
0.0
 11
146.766
 21
89.8469
 31
0.0
  0
LINE
  8
0
 62
     0
 10
146.766
 20
89.8469
 30
0.0
 11
145.792
 21
89.7791
 31
0.0
  0
LINE
  8
0
 62
     0
 10
145.792
 20
89.7791
 30
0.0
 11
144.777
 21
89.7407
 31
0.0
  0
LINE
  8
0
 62
     0
 10
144.777
 20
89.7407
 30
0.0
 11
144.599
 21
91.3074
 31
0.0
  0
LINE
  8
0
 62
     0
 10
144.599
 20
91.3074
 30
0.0
 11
144.613
 21
91.3776
 31
0.0
  0
LINE
  8
0
 62
     0
 10
144.613
 20
91.3776
 30
0.0
 11
144.529
 21
91.5335
 31
0.0
  0
LINE
  8
0
 62
     0
 10
144.529
 20
91.5335
 30
0.0
 11
144.359
 21
91.6037
 31
0.0
  0
LINE
  8
0
 62
     0
 10
144.359
 20
91.6037
 30
0.0
 11
141.932
 21
91.5554
 31
0.0
  0
LINE
  8
0
 62
     0
 10
141.932
 20
91.5554
 30
0.0
 11
141.833
 21
91.5705
 31
0.0
  0
LINE
  8
0
 62
     0
 10
141.833
 20
91.5705
 30
0.0
 11
141.664
 21
91.5003
 31
0.0
  0
LINE
  8
0
 62
     0
 10
141.664
 20
91.5003
 30
0.0
 11
141.592
 21
91.331
 31
0.0
  0
LINE
  8
0
 62
     0
 10
141.592
 20
91.331
 30
0.0
 11
141.574
 21
89.9763
 31
0.0
  0
LINE
  8
0
 62
     0
 10
141.574
 20
89.9763
 30
0.0
 11
138.159
 21
89.8327
 31
0.0
  0
LINE
  8
0
 62
     0
 10
138.159
 20
89.8327
 30
0.0
 11
138.031
 21
89.8895
 31
0.0
  0
LINE
  8
0
 62
     0
 10
138.031
 20
89.8895
 30
0.0
 11
137.918
 21
89.819
 31
0.0
  0
LINE
  8
0
 62
     0
 10
137.918
 20
89.819
 30
0.0
 11
137.862
 21
89.6786
 31
0.0
  0
LINE
  8
0
 62
     0
 10
137.862
 20
89.6786
 30
0.0
 11
137.862
 21
89.4955
 31
0.0
  0
LINE
  8
0
 62
     0
 10
137.862
 20
89.4955
 30
0.0
 11
137.83
 21
88.3514
 31
0.0
  0
LINE
  8
0
 62
     0
 10
137.83
 20
88.3514
 30
0.0
 11
137.783
 21
87.1389
 31
0.0
  0
LINE
  8
0
 62
     0
 10
140.965
 20
80.6372
 30
0.0
 11
140.698
 21
80.8221
 31
0.0
  0
LINE
  8
0
 62
     0
 10
140.698
 20
80.8221
 30
0.0
 11
138.115
 21
80.76
 31
0.0
  0
LINE
  8
0
 62
     0
 10
138.115
 20
80.76
 30
0.0
 11
138.059
 21
80.7738
 31
0.0
  0
LINE
  8
0
 62
     0
 10
138.059
 20
80.7738
 30
0.0
 11
137.946
 21
80.7036
 31
0.0
  0
LINE
  8
0
 62
     0
 10
137.946
 20
80.7036
 30
0.0
 11
137.889
 21
80.5339
 31
0.0
  0
LINE
  8
0
 62
     0
 10
137.889
 20
80.5339
 30
0.0
 11
137.889
 21
80.5064
 31
0.0
  0
LINE
  8
0
 62
     0
 10
137.889
 20
80.5064
 30
0.0
 11
138.056
 21
79.7719
 31
0.0
  0
LINE
  8
0
 62
     0
 10
138.056
 20
79.7719
 30
0.0
 11
138.336
 21
79.0938
 31
0.0
  0
LINE
  8
0
 62
     0
 10
138.336
 20
79.0938
 30
0.0
 11
138.279
 21
79.1076
 31
0.0
  0
LINE
  8
0
 62
     0
 10
138.279
 20
79.1076
 30
0.0
 11
139.051
 21
77.6661
 31
0.0
  0
LINE
  8
0
 62
     0
 10
139.051
 20
77.6661
 30
0.0
 11
140.261
 21
76.448
 31
0.0
  0
LINE
  8
0
 62
     0
 10
140.261
 20
76.448
 30
0.0
 11
141.837
 21
75.5964
 31
0.0
  0
LINE
  8
0
 62
     0
 10
141.837
 20
75.5964
 30
0.0
 11
143.714
 21
75.2658
 31
0.0
  0
LINE
  8
0
 62
     0
 10
143.714
 20
75.2658
 30
0.0
 11
143.855
 21
75.2796
 31
0.0
  0
LINE
  8
0
 62
     0
 10
143.855
 20
75.2796
 30
0.0
 11
144.011
 21
75.2796
 31
0.0
  0
LINE
  8
0
 62
     0
 10
144.011
 20
75.2796
 30
0.0
 11
144.137
 21
75.2644
 31
0.0
  0
LINE
  8
0
 62
     0
 10
144.137
 20
75.2644
 30
0.0
 11
144.25
 21
75.2507
 31
0.0
  0
LINE
  8
0
 62
     0
 10
144.25
 20
75.2507
 30
0.0
 11
144.49
 21
75.2493
 31
0.0
  0
LINE
  8
0
 62
     0
 10
144.49
 20
75.2493
 30
0.0
 11
146.199
 21
75.6955
 31
0.0
  0
LINE
  8
0
 62
     0
 10
146.199
 20
75.6955
 30
0.0
 11
147.655
 21
76.8752
 31
0.0
  0
LINE
  8
0
 62
     0
 10
147.655
 20
76.8752
 30
0.0
 11
148.805
 21
78.5234
 31
0.0
  0
LINE
  8
0
 62
     0
 10
148.805
 20
78.5234
 30
0.0
 11
149.601
 21
80.3973
 31
0.0
  0
LINE
  8
0
 62
     0
 10
149.601
 20
80.3973
 30
0.0
 11
149.574
 21
80.5946
 31
0.0
  0
LINE
  8
0
 62
     0
 10
149.574
 20
80.5946
 30
0.0
 11
149.32
 21
80.7932
 31
0.0
  0
LINE
  8
0
 62
     0
 10
149.32
 20
80.7932
 30
0.0
 11
146.893
 21
80.7875
 31
0.0
  0
LINE
  8
0
 62
     0
 10
146.893
 20
80.7875
 30
0.0
 11
146.61
 21
80.5903
 31
0.0
  0
LINE
  8
0
 62
     0
 10
146.61
 20
80.5903
 30
0.0
 11
146.538
 21
80.3081
 31
0.0
  0
LINE
  8
0
 62
     0
 10
146.538
 20
80.3081
 30
0.0
 11
146.51
 21
80.2375
 31
0.0
  0
LINE
  8
0
 62
     0
 10
146.51
 20
80.2375
 30
0.0
 11
146.51
 21
80.2513
 31
0.0
  0
LINE
  8
0
 62
     0
 10
146.51
 20
80.2513
 30
0.0
 11
146.071
 21
79.5623
 31
0.0
  0
LINE
  8
0
 62
     0
 10
146.071
 20
79.5623
 30
0.0
 11
145.475
 21
78.9852
 31
0.0
  0
LINE
  8
0
 62
     0
 10
145.475
 20
78.9852
 30
0.0
 11
144.784
 21
78.5922
 31
0.0
  0
LINE
  8
0
 62
     0
 10
144.784
 20
78.5922
 30
0.0
 11
144.063
 21
78.4546
 31
0.0
  0
LINE
  8
0
 62
     0
 10
144.063
 20
78.4546
 30
0.0
 11
143.964
 21
78.4684
 31
0.0
  0
LINE
  8
0
 62
     0
 10
143.964
 20
78.4684
 30
0.0
 11
143.766
 21
78.4684
 31
0.0
  0
LINE
  8
0
 62
     0
 10
143.766
 20
78.4684
 30
0.0
 11
143.667
 21
78.4546
 31
0.0
  0
LINE
  8
0
 62
     0
 10
143.667
 20
78.4546
 30
0.0
 11
142.835
 21
78.613
 31
0.0
  0
LINE
  8
0
 62
     0
 10
142.835
 20
78.613
 30
0.0
 11
142.117
 21
78.9961
 31
0.0
  0
LINE
  8
0
 62
     0
 10
142.117
 20
78.9961
 30
0.0
 11
141.526
 21
79.5486
 31
0.0
  0
LINE
  8
0
 62
     0
 10
141.526
 20
79.5486
 30
0.0
 11
141.09
 21
80.1853
 31
0.0
  0
LINE
  8
0
 62
     0
 10
141.09
 20
80.1853
 30
0.0
 11
141.09
 21
80.2555
 31
0.0
  0
LINE
  8
0
 62
     0
 10
141.09
 20
80.2555
 30
0.0
 11
140.965
 21
80.6372
 31
0.0
  0
LINE
  8
0
 62
     0
 10
149.488
 20
84.8032
 30
0.0
 11
146.976
 21
84.8953
 31
0.0
  0
LINE
  8
0
 62
     0
 10
146.976
 20
84.8953
 30
0.0
 11
144.394
 21
85.0304
 31
0.0
  0
LINE
  8
0
 62
     0
 10
144.394
 20
85.0304
 30
0.0
 11
141.812
 21
85.1531
 31
0.0
  0
LINE
  8
0
 62
     0
 10
141.812
 20
85.1531
 30
0.0
 11
140.527
 21
85.1366
 31
0.0
  0
LINE
  8
0
 62
     0
 10
140.527
 20
85.1366
 30
0.0
 11
139.258
 21
85.2025
 31
0.0
  0
LINE
  8
0
 62
     0
 10
139.258
 20
85.2025
 30
0.0
 11
138.665
 21
85.2054
 31
0.0
  0
LINE
  8
0
 62
     0
 10
138.665
 20
85.2054
 30
0.0
 11
138.369
 21
85.2054
 31
0.0
  0
LINE
  8
0
 62
     0
 10
138.369
 20
85.2054
 30
0.0
 11
138.073
 21
85.193
 31
0.0
  0
LINE
  8
0
 62
     0
 10
138.073
 20
85.193
 30
0.0
 11
137.9
 21
84.3746
 31
0.0
  0
LINE
  8
0
 62
     0
 10
137.9
 20
84.3746
 30
0.0
 11
137.842
 21
83.7681
 31
0.0
  0
LINE
  8
0
 62
     0
 10
137.842
 20
83.7681
 30
0.0
 11
137.841
 21
83.3025
 31
0.0
  0
LINE
  8
0
 62
     0
 10
137.841
 20
83.3025
 30
0.0
 11
137.852
 21
82.6534
 31
0.0
  0
LINE
  8
0
 62
     0
 10
137.852
 20
82.6534
 30
0.0
 11
137.893
 21
82.0043
 31
0.0
  0
LINE
  8
0
 62
     0
 10
137.893
 20
82.0043
 30
0.0
 11
137.864
 21
81.8776
 31
0.0
  0
LINE
  8
0
 62
     0
 10
137.864
 20
81.8776
 30
0.0
 11
137.948
 21
81.7922
 31
0.0
  0
LINE
  8
0
 62
     0
 10
137.948
 20
81.7922
 30
0.0
 11
138.104
 21
81.7217
 31
0.0
  0
LINE
  8
0
 62
     0
 10
138.104
 20
81.7217
 30
0.0
 11
140.798
 21
81.6984
 31
0.0
  0
LINE
  8
0
 62
     0
 10
140.798
 20
81.6984
 30
0.0
 11
143.706
 21
81.6751
 31
0.0
  0
LINE
  8
0
 62
     0
 10
143.706
 20
81.6751
 30
0.0
 11
146.711
 21
81.6363
 31
0.0
  0
LINE
  8
0
 62
     0
 10
146.711
 20
81.6363
 30
0.0
 11
149.703
 21
81.5425
 31
0.0
  0
LINE
  8
0
 62
     0
 10
149.703
 20
81.5425
 30
0.0
 11
149.674
 21
81.6419
 31
0.0
  0
LINE
  8
0
 62
     0
 10
149.674
 20
81.6419
 30
0.0
 11
149.732
 21
82.0498
 31
0.0
  0
LINE
  8
0
 62
     0
 10
149.732
 20
82.0498
 30
0.0
 11
149.805
 21
82.586
 31
0.0
  0
LINE
  8
0
 62
     0
 10
149.805
 20
82.586
 30
0.0
 11
149.791
 21
82.6576
 31
0.0
  0
LINE
  8
0
 62
     0
 10
149.791
 20
82.6576
 30
0.0
 11
149.777
 21
82.714
 31
0.0
  0
LINE
  8
0
 62
     0
 10
149.777
 20
82.714
 30
0.0
 11
149.791
 21
82.8544
 31
0.0
  0
LINE
  8
0
 62
     0
 10
149.791
 20
82.8544
 30
0.0
 11
149.793
 21
82.9952
 31
0.0
  0
LINE
  8
0
 62
     0
 10
149.793
 20
82.9952
 30
0.0
 11
149.793
 21
83.2637
 31
0.0
  0
LINE
  8
0
 62
     0
 10
149.793
 20
83.2637
 30
0.0
 11
149.78
 21
83.8563
 31
0.0
  0
LINE
  8
0
 62
     0
 10
149.78
 20
83.8563
 30
0.0
 11
149.769
 21
84.4779
 31
0.0
  0
LINE
  8
0
 62
     0
 10
149.769
 20
84.4779
 30
0.0
 11
149.769
 21
84.5054
 31
0.0
  0
LINE
  8
0
 62
     0
 10
149.769
 20
84.5054
 30
0.0
 11
149.685
 21
84.7178
 31
0.0
  0
LINE
  8
0
 62
     0
 10
149.685
 20
84.7178
 30
0.0
 11
149.488
 21
84.8032
 31
0.0
  0
LINE
  8
0
 62
     0
 10
150.198
 20
6.33758
 30
0.0
 11
150.615
 21
6.55119
 31
0.0
  0
LINE
  8
0
 62
     0
 10
150.615
 20
6.55119
 30
0.0
 11
151.08
 21
6.62421
 31
0.0
  0
LINE
  8
0
 62
     0
 10
151.08
 20
6.62421
 30
0.0
 11
151.543
 21
6.55119
 31
0.0
  0
LINE
  8
0
 62
     0
 10
151.543
 20
6.55119
 30
0.0
 11
151.96
 21
6.33758
 31
0.0
  0
LINE
  8
0
 62
     0
 10
151.96
 20
6.33758
 30
0.0
 11
152.292
 21
6.00548
 31
0.0
  0
LINE
  8
0
 62
     0
 10
152.292
 20
6.00548
 30
0.0
 11
152.506
 21
5.58793
 31
0.0
  0
LINE
  8
0
 62
     0
 10
152.506
 20
5.58793
 30
0.0
 11
152.579
 21
5.12353
 31
0.0
  0
LINE
  8
0
 62
     0
 10
152.579
 20
5.12353
 30
0.0
 11
152.506
 21
4.66051
 31
0.0
  0
LINE
  8
0
 62
     0
 10
152.506
 20
4.66051
 30
0.0
 11
152.292
 21
4.24296
 31
0.0
  0
LINE
  8
0
 62
     0
 10
152.292
 20
4.24296
 30
0.0
 11
151.96
 21
3.91086
 31
0.0
  0
LINE
  8
0
 62
     0
 10
151.96
 20
3.91086
 30
0.0
 11
151.543
 21
3.69729
 31
0.0
  0
LINE
  8
0
 62
     0
 10
151.543
 20
3.69729
 30
0.0
 11
151.08
 21
3.62423
 31
0.0
  0
LINE
  8
0
 62
     0
 10
151.08
 20
3.62423
 30
0.0
 11
150.615
 21
3.69729
 31
0.0
  0
LINE
  8
0
 62
     0
 10
150.615
 20
3.69729
 30
0.0
 11
150.198
 21
3.91086
 31
0.0
  0
LINE
  8
0
 62
     0
 10
150.198
 20
3.91086
 30
0.0
 11
149.866
 21
4.24296
 31
0.0
  0
LINE
  8
0
 62
     0
 10
149.866
 20
4.24296
 30
0.0
 11
149.652
 21
4.66051
 31
0.0
  0
LINE
  8
0
 62
     0
 10
149.652
 20
4.66051
 30
0.0
 11
149.579
 21
5.12353
 31
0.0
  0
LINE
  8
0
 62
     0
 10
149.579
 20
5.12353
 30
0.0
 11
149.652
 21
5.58793
 31
0.0
  0
LINE
  8
0
 62
     0
 10
149.652
 20
5.58793
 30
0.0
 11
149.866
 21
6.00548
 31
0.0
  0
LINE
  8
0
 62
     0
 10
149.866
 20
6.00548
 30
0.0
 11
150.198
 21
6.33758
 31
0.0
  0
LINE
  8
0
 62
     0
 10
171.249
 20
152.698
 30
0.0
 11
171.668
 21
152.91
 31
0.0
  0
LINE
  8
0
 62
     0
 10
171.668
 20
152.91
 30
0.0
 11
172.131
 21
152.983
 31
0.0
  0
LINE
  8
0
 62
     0
 10
172.131
 20
152.983
 30
0.0
 11
172.594
 21
152.91
 31
0.0
  0
LINE
  8
0
 62
     0
 10
172.594
 20
152.91
 30
0.0
 11
173.013
 21
152.698
 31
0.0
  0
LINE
  8
0
 62
     0
 10
173.013
 20
152.698
 30
0.0
 11
173.345
 21
152.365
 31
0.0
  0
LINE
  8
0
 62
     0
 10
173.345
 20
152.365
 30
0.0
 11
173.557
 21
151.947
 31
0.0
  0
LINE
  8
0
 62
     0
 10
173.557
 20
151.947
 30
0.0
 11
173.632
 21
151.483
 31
0.0
  0
LINE
  8
0
 62
     0
 10
173.632
 20
151.483
 30
0.0
 11
173.557
 21
151.019
 31
0.0
  0
LINE
  8
0
 62
     0
 10
173.557
 20
151.019
 30
0.0
 11
173.345
 21
150.602
 31
0.0
  0
LINE
  8
0
 62
     0
 10
173.345
 20
150.602
 30
0.0
 11
173.013
 21
150.27
 31
0.0
  0
LINE
  8
0
 62
     0
 10
173.013
 20
150.27
 30
0.0
 11
172.594
 21
150.056
 31
0.0
  0
LINE
  8
0
 62
     0
 10
172.594
 20
150.056
 30
0.0
 11
172.131
 21
149.983
 31
0.0
  0
LINE
  8
0
 62
     0
 10
172.131
 20
149.983
 30
0.0
 11
171.668
 21
150.056
 31
0.0
  0
LINE
  8
0
 62
     0
 10
171.668
 20
150.056
 30
0.0
 11
171.249
 21
150.27
 31
0.0
  0
LINE
  8
0
 62
     0
 10
171.249
 20
150.27
 30
0.0
 11
170.917
 21
150.602
 31
0.0
  0
LINE
  8
0
 62
     0
 10
170.917
 20
150.602
 30
0.0
 11
170.705
 21
151.019
 31
0.0
  0
LINE
  8
0
 62
     0
 10
170.705
 20
151.019
 30
0.0
 11
170.632
 21
151.483
 31
0.0
  0
LINE
  8
0
 62
     0
 10
170.632
 20
151.483
 30
0.0
 11
170.705
 21
151.947
 31
0.0
  0
LINE
  8
0
 62
     0
 10
170.705
 20
151.947
 30
0.0
 11
170.917
 21
152.365
 31
0.0
  0
LINE
  8
0
 62
     0
 10
170.917
 20
152.365
 30
0.0
 11
171.249
 21
152.698
 31
0.0
  0
LINE
  8
0
 62
     0
 10
3.71658
 20
43.9872
 30
0.0
 11
3.64352
 21
44.45
 31
0.0
  0
LINE
  8
0
 62
     0
 10
3.64352
 20
44.45
 30
0.0
 11
3.71658
 21
44.9143
 31
0.0
  0
LINE
  8
0
 62
     0
 10
3.71658
 20
44.9143
 30
0.0
 11
3.92878
 21
45.3319
 31
0.0
  0
LINE
  8
0
 62
     0
 10
3.92878
 20
45.3319
 30
0.0
 11
4.26089
 21
45.6639
 31
0.0
  0
LINE
  8
0
 62
     0
 10
4.26089
 20
45.6639
 30
0.0
 11
4.67843
 21
45.8777
 31
0.0
  0
LINE
  8
0
 62
     0
 10
4.67843
 20
45.8777
 30
0.0
 11
5.14283
 21
45.9507
 31
0.0
  0
LINE
  8
0
 62
     0
 10
5.14283
 20
45.9507
 30
0.0
 11
5.60723
 21
45.8777
 31
0.0
  0
LINE
  8
0
 62
     0
 10
5.60723
 20
45.8777
 30
0.0
 11
6.02477
 21
45.6639
 31
0.0
  0
LINE
  8
0
 62
     0
 10
6.02477
 20
45.6639
 30
0.0
 11
6.35688
 21
45.3319
 31
0.0
  0
LINE
  8
0
 62
     0
 10
6.35688
 20
45.3319
 30
0.0
 11
6.57049
 21
44.9143
 31
0.0
  0
LINE
  8
0
 62
     0
 10
6.57049
 20
44.9143
 30
0.0
 11
6.64351
 21
44.45
 31
0.0
  0
LINE
  8
0
 62
     0
 10
6.64351
 20
44.45
 30
0.0
 11
6.57049
 21
43.9872
 31
0.0
  0
LINE
  8
0
 62
     0
 10
6.57049
 20
43.9872
 30
0.0
 11
6.35688
 21
43.5695
 31
0.0
  0
LINE
  8
0
 62
     0
 10
6.35688
 20
43.5695
 30
0.0
 11
6.02477
 21
43.2375
 31
0.0
  0
LINE
  8
0
 62
     0
 10
6.02477
 20
43.2375
 30
0.0
 11
5.60723
 21
43.0237
 31
0.0
  0
LINE
  8
0
 62
     0
 10
5.60723
 20
43.0237
 30
0.0
 11
5.14283
 21
42.9507
 31
0.0
  0
LINE
  8
0
 62
     0
 10
5.14283
 20
42.9507
 30
0.0
 11
4.67843
 21
43.0237
 31
0.0
  0
LINE
  8
0
 62
     0
 10
4.67843
 20
43.0237
 30
0.0
 11
4.26089
 21
43.2375
 31
0.0
  0
LINE
  8
0
 62
     0
 10
4.26089
 20
43.2375
 30
0.0
 11
3.92878
 21
43.5695
 31
0.0
  0
LINE
  8
0
 62
     0
 10
3.92878
 20
43.5695
 30
0.0
 11
3.71658
 21
43.9872
 31
0.0
  0
LINE
  8
0
 62
     0
 10
3.64352
 20
151.483
 30
0.0
 11
3.71658
 21
151.947
 31
0.0
  0
LINE
  8
0
 62
     0
 10
3.71658
 20
151.947
 30
0.0
 11
3.92878
 21
152.365
 31
0.0
  0
LINE
  8
0
 62
     0
 10
3.92878
 20
152.365
 30
0.0
 11
4.26089
 21
152.698
 31
0.0
  0
LINE
  8
0
 62
     0
 10
4.26089
 20
152.698
 30
0.0
 11
4.67843
 21
152.91
 31
0.0
  0
LINE
  8
0
 62
     0
 10
4.67843
 20
152.91
 30
0.0
 11
5.14283
 21
152.983
 31
0.0
  0
LINE
  8
0
 62
     0
 10
5.14283
 20
152.983
 30
0.0
 11
5.60723
 21
152.91
 31
0.0
  0
LINE
  8
0
 62
     0
 10
5.60723
 20
152.91
 30
0.0
 11
6.02477
 21
152.698
 31
0.0
  0
LINE
  8
0
 62
     0
 10
6.02477
 20
152.698
 30
0.0
 11
6.35688
 21
152.365
 31
0.0
  0
LINE
  8
0
 62
     0
 10
6.35688
 20
152.365
 30
0.0
 11
6.57049
 21
151.947
 31
0.0
  0
LINE
  8
0
 62
     0
 10
6.57049
 20
151.947
 30
0.0
 11
6.64351
 21
151.483
 31
0.0
  0
LINE
  8
0
 62
     0
 10
6.64351
 20
151.483
 30
0.0
 11
6.57049
 21
151.019
 31
0.0
  0
LINE
  8
0
 62
     0
 10
6.57049
 20
151.019
 30
0.0
 11
6.35688
 21
150.602
 31
0.0
  0
LINE
  8
0
 62
     0
 10
6.35688
 20
150.602
 30
0.0
 11
6.02477
 21
150.27
 31
0.0
  0
LINE
  8
0
 62
     0
 10
6.02477
 20
150.27
 30
0.0
 11
5.60723
 21
150.056
 31
0.0
  0
LINE
  8
0
 62
     0
 10
5.60723
 20
150.056
 30
0.0
 11
5.14283
 21
149.983
 31
0.0
  0
LINE
  8
0
 62
     0
 10
5.14283
 20
149.983
 30
0.0
 11
4.67843
 21
150.056
 31
0.0
  0
LINE
  8
0
 62
     0
 10
4.67843
 20
150.056
 30
0.0
 11
4.26089
 21
150.27
 31
0.0
  0
LINE
  8
0
 62
     0
 10
4.26089
 20
150.27
 30
0.0
 11
3.92878
 21
150.602
 31
0.0
  0
LINE
  8
0
 62
     0
 10
3.92878
 20
150.602
 30
0.0
 11
3.71658
 21
151.019
 31
0.0
  0
LINE
  8
0
 62
     0
 10
3.71658
 20
151.019
 30
0.0
 11
3.64352
 21
151.483
 31
0.0
  0
LINE
  8
0
 62
     0
 10
88.3969
 20
39.1859
 30
0.0
 11
88.065
 21
39.5168
 31
0.0
  0
LINE
  8
0
 62
     0
 10
88.065
 20
39.5168
 30
0.0
 11
87.8512
 21
39.9355
 31
0.0
  0
LINE
  8
0
 62
     0
 10
87.8512
 20
39.9355
 30
0.0
 11
87.7782
 21
40.3987
 31
0.0
  0
LINE
  8
0
 62
     0
 10
87.7782
 20
40.3987
 30
0.0
 11
87.8512
 21
40.863
 31
0.0
  0
LINE
  8
0
 62
     0
 10
87.8512
 20
40.863
 30
0.0
 11
88.065
 21
41.2806
 31
0.0
  0
LINE
  8
0
 62
     0
 10
88.065
 20
41.2806
 30
0.0
 11
88.3969
 21
41.6126
 31
0.0
  0
LINE
  8
0
 62
     0
 10
88.3969
 20
41.6126
 30
0.0
 11
88.8146
 21
41.825
 31
0.0
  0
LINE
  8
0
 62
     0
 10
88.8146
 20
41.825
 30
0.0
 11
89.2789
 21
41.898
 31
0.0
  0
LINE
  8
0
 62
     0
 10
89.2789
 20
41.898
 30
0.0
 11
89.7421
 21
41.825
 31
0.0
  0
LINE
  8
0
 62
     0
 10
89.7421
 20
41.825
 30
0.0
 11
90.1608
 21
41.6126
 31
0.0
  0
LINE
  8
0
 62
     0
 10
90.1608
 20
41.6126
 30
0.0
 11
90.4931
 21
41.2806
 31
0.0
  0
LINE
  8
0
 62
     0
 10
90.4931
 20
41.2806
 30
0.0
 11
90.7052
 21
40.863
 31
0.0
  0
LINE
  8
0
 62
     0
 10
90.7052
 20
40.863
 30
0.0
 11
90.7782
 21
40.3987
 31
0.0
  0
LINE
  8
0
 62
     0
 10
90.7782
 20
40.3987
 30
0.0
 11
90.7052
 21
39.9355
 31
0.0
  0
LINE
  8
0
 62
     0
 10
90.7052
 20
39.9355
 30
0.0
 11
90.4931
 21
39.5168
 31
0.0
  0
LINE
  8
0
 62
     0
 10
90.4931
 20
39.5168
 30
0.0
 11
90.1608
 21
39.1859
 31
0.0
  0
LINE
  8
0
 62
     0
 10
90.1608
 20
39.1859
 30
0.0
 11
89.7421
 21
38.9724
 31
0.0
  0
LINE
  8
0
 62
     0
 10
89.7421
 20
38.9724
 30
0.0
 11
89.2789
 21
38.898
 31
0.0
  0
LINE
  8
0
 62
     0
 10
89.2789
 20
38.898
 30
0.0
 11
88.8146
 21
38.9724
 31
0.0
  0
LINE
  8
0
 62
     0
 10
88.8146
 20
38.9724
 30
0.0
 11
88.3969
 21
39.1859
 31
0.0
  0
LINE
  8
0
 62
     0
 10
173.557
 20
41.8553
 30
0.0
 11
173.632
 21
41.3921
 31
0.0
  0
LINE
  8
0
 62
     0
 10
173.632
 20
41.3921
 30
0.0
 11
173.557
 21
40.9279
 31
0.0
  0
LINE
  8
0
 62
     0
 10
173.557
 20
40.9279
 30
0.0
 11
173.345
 21
40.5102
 31
0.0
  0
LINE
  8
0
 62
     0
 10
173.345
 20
40.5102
 30
0.0
 11
173.013
 21
40.1782
 31
0.0
  0
LINE
  8
0
 62
     0
 10
173.013
 20
40.1782
 30
0.0
 11
172.594
 21
39.9644
 31
0.0
  0
LINE
  8
0
 62
     0
 10
172.594
 20
39.9644
 30
0.0
 11
172.131
 21
39.8914
 31
0.0
  0
LINE
  8
0
 62
     0
 10
172.131
 20
39.8914
 30
0.0
 11
171.668
 21
39.9644
 31
0.0
  0
LINE
  8
0
 62
     0
 10
171.668
 20
39.9644
 30
0.0
 11
171.249
 21
40.1782
 31
0.0
  0
LINE
  8
0
 62
     0
 10
171.249
 20
40.1782
 30
0.0
 11
170.917
 21
40.5102
 31
0.0
  0
LINE
  8
0
 62
     0
 10
170.917
 20
40.5102
 30
0.0
 11
170.705
 21
40.9279
 31
0.0
  0
LINE
  8
0
 62
     0
 10
170.705
 20
40.9279
 30
0.0
 11
170.632
 21
41.3921
 31
0.0
  0
LINE
  8
0
 62
     0
 10
170.632
 20
41.3921
 30
0.0
 11
170.705
 21
41.8553
 31
0.0
  0
LINE
  8
0
 62
     0
 10
170.705
 20
41.8553
 30
0.0
 11
170.917
 21
42.2741
 31
0.0
  0
LINE
  8
0
 62
     0
 10
170.917
 20
42.2741
 30
0.0
 11
171.249
 21
42.606
 31
0.0
  0
LINE
  8
0
 62
     0
 10
171.249
 20
42.606
 30
0.0
 11
171.668
 21
42.8184
 31
0.0
  0
LINE
  8
0
 62
     0
 10
171.668
 20
42.8184
 30
0.0
 11
172.131
 21
42.8914
 31
0.0
  0
LINE
  8
0
 62
     0
 10
172.131
 20
42.8914
 30
0.0
 11
172.594
 21
42.8184
 31
0.0
  0
LINE
  8
0
 62
     0
 10
172.594
 20
42.8184
 30
0.0
 11
173.013
 21
42.606
 31
0.0
  0
LINE
  8
0
 62
     0
 10
173.013
 20
42.606
 30
0.0
 11
173.345
 21
42.2741
 31
0.0
  0
LINE
  8
0
 62
     0
 10
173.345
 20
42.2741
 30
0.0
 11
173.557
 21
41.8553
 31
0.0
  0
LINE
  8
0
 62
     0
 10
88.2756
 20
152.698
 30
0.0
 11
88.6933
 21
152.91
 31
0.0
  0
LINE
  8
0
 62
     0
 10
88.6933
 20
152.91
 30
0.0
 11
89.1575
 21
152.983
 31
0.0
  0
LINE
  8
0
 62
     0
 10
89.1575
 20
152.983
 30
0.0
 11
89.6207
 21
152.91
 31
0.0
  0
LINE
  8
0
 62
     0
 10
89.6207
 20
152.91
 30
0.0
 11
90.0384
 21
152.698
 31
0.0
  0
LINE
  8
0
 62
     0
 10
90.0384
 20
152.698
 30
0.0
 11
90.3704
 21
152.365
 31
0.0
  0
LINE
  8
0
 62
     0
 10
90.3704
 20
152.365
 30
0.0
 11
90.5838
 21
151.947
 31
0.0
  0
LINE
  8
0
 62
     0
 10
90.5838
 20
151.947
 30
0.0
 11
90.6582
 21
151.483
 31
0.0
  0
LINE
  8
0
 62
     0
 10
90.6582
 20
151.483
 30
0.0
 11
90.5838
 21
151.019
 31
0.0
  0
LINE
  8
0
 62
     0
 10
90.5838
 20
151.019
 30
0.0
 11
90.3704
 21
150.602
 31
0.0
  0
LINE
  8
0
 62
     0
 10
90.3704
 20
150.602
 30
0.0
 11
90.0384
 21
150.27
 31
0.0
  0
LINE
  8
0
 62
     0
 10
90.0384
 20
150.27
 30
0.0
 11
89.6207
 21
150.056
 31
0.0
  0
LINE
  8
0
 62
     0
 10
89.6207
 20
150.056
 30
0.0
 11
89.1575
 21
149.983
 31
0.0
  0
LINE
  8
0
 62
     0
 10
89.1575
 20
149.983
 30
0.0
 11
88.6933
 21
150.056
 31
0.0
  0
LINE
  8
0
 62
     0
 10
88.6933
 20
150.056
 30
0.0
 11
88.2756
 21
150.27
 31
0.0
  0
LINE
  8
0
 62
     0
 10
88.2756
 20
150.27
 30
0.0
 11
87.9436
 21
150.602
 31
0.0
  0
LINE
  8
0
 62
     0
 10
87.9436
 20
150.602
 30
0.0
 11
87.7316
 21
151.019
 31
0.0
  0
LINE
  8
0
 62
     0
 10
87.7316
 20
151.019
 30
0.0
 11
87.6582
 21
151.483
 31
0.0
  0
LINE
  8
0
 62
     0
 10
87.6582
 20
151.483
 30
0.0
 11
87.7316
 21
151.947
 31
0.0
  0
LINE
  8
0
 62
     0
 10
87.7316
 20
151.947
 30
0.0
 11
87.9436
 21
152.365
 31
0.0
  0
LINE
  8
0
 62
     0
 10
87.9436
 20
152.365
 30
0.0
 11
88.2756
 21
152.698
 31
0.0
  0
LINE
  8
0
 62
     0
 10
4.14239
 20
39.3499
 30
0.0
 11
2.60312
 21
39.6201
 31
0.0
  0
LINE
  8
0
 62
     0
 10
2.60312
 20
39.6201
 30
0.0
 11
1.2926
 21
40.4675
 31
0.0
  0
LINE
  8
0
 62
     0
 10
1.2926
 20
40.4675
 30
0.0
 11
0.420303
 21
41.7918
 31
0.0
  0
LINE
  8
0
 62
     0
 10
0.420303
 20
41.7918
 30
0.0
 11
0.143316
 21
43.3504
 31
0.0
  0
LINE
  8
0
 62
     0
 10
0.143316
 20
43.3504
 30
0.0
 11
0.143316
 21
152.35
 31
0.0
  0
LINE
  8
0
 62
     0
 10
0.143316
 20
152.35
 30
0.0
 11
0.549836
 21
153.836
 31
0.0
  0
LINE
  8
0
 62
     0
 10
0.549836
 20
153.836
 30
0.0
 11
1.43867
 21
155.093
 31
0.0
  0
LINE
  8
0
 62
     0
 10
1.43867
 20
155.093
 30
0.0
 11
2.68166
 21
155.955
 31
0.0
  0
LINE
  8
0
 62
     0
 10
2.68166
 20
155.955
 30
0.0
 11
4.14239
 21
156.351
 31
0.0
  0
LINE
  8
0
 62
     0
 10
4.14239
 20
156.351
 30
0.0
 11
173.144
 21
156.351
 31
0.0
  0
LINE
  8
0
 62
     0
 10
173.144
 20
156.351
 30
0.0
 11
174.629
 21
155.957
 31
0.0
  0
LINE
  8
0
 62
     0
 10
174.629
 20
155.957
 30
0.0
 11
175.89
 21
155.076
 31
0.0
  0
LINE
  8
0
 62
     0
 10
175.89
 20
155.076
 30
0.0
 11
176.755
 21
153.823
 31
0.0
  0
LINE
  8
0
 62
     0
 10
176.755
 20
153.823
 30
0.0
 11
177.143
 21
152.35
 31
0.0
  0
LINE
  8
0
 62
     0
 10
177.143
 20
152.35
 30
0.0
 11
177.143
 21
49.6341
 31
0.0
  0
LINE
  8
0
 62
     0
 10
177.143
 20
49.6341
 30
0.0
 11
177.108
 21
45.2011
 31
0.0
  0
LINE
  8
0
 62
     0
 10
177.108
 20
45.2011
 30
0.0
 11
176.666
 21
40.8051
 31
0.0
  0
LINE
  8
0
 62
     0
 10
176.666
 20
40.8051
 30
0.0
 11
175.942
 21
38.0739
 31
0.0
  0
LINE
  8
0
 62
     0
 10
175.942
 20
38.0739
 30
0.0
 11
174.836
 21
35.475
 31
0.0
  0
LINE
  8
0
 62
     0
 10
174.836
 20
35.475
 30
0.0
 11
155.401
 21
2.73678
 31
0.0
  0
LINE
  8
0
 62
     0
 10
155.401
 20
2.73678
 30
0.0
 11
154.663
 21
1.63849
 31
0.0
  0
LINE
  8
0
 62
     0
 10
154.663
 20
1.63849
 30
0.0
 11
153.642
 21
0.795129
 31
0.0
  0
LINE
  8
0
 62
     0
 10
153.642
 20
0.795129
 30
0.0
 11
152.421
 21
0.285254
 31
0.0
  0
LINE
  8
0
 62
     0
 10
152.421
 20
0.285254
 30
0.0
 11
151.105
 21
0.144694
 31
0.0
  0
LINE
  8
0
 62
     0
 10
151.105
 20
0.144694
 30
0.0
 11
149.897
 21
0.341753
 31
0.0
  0
LINE
  8
0
 62
     0
 10
149.897
 20
0.341753
 30
0.0
 11
148.746
 21
0.763432
 31
0.0
  0
LINE
  8
0
 62
     0
 10
148.746
 20
0.763432
 30
0.0
 11
146.579
 21
1.91409
 31
0.0
  0
LINE
  8
0
 62
     0
 10
146.579
 20
1.91409
 30
0.0
 11
84.7563
 21
37.3503
 31
0.0
  0
LINE
  8
0
 62
     0
 10
84.7563
 20
37.3503
 30
0.0
 11
83.0227
 21
38.2736
 31
0.0
  0
LINE
  8
0
 62
     0
 10
83.0227
 20
38.2736
 30
0.0
 11
81.1925
 21
38.9558
 31
0.0
  0
LINE
  8
0
 62
     0
 10
81.1925
 20
38.9558
 30
0.0
 11
78.8638
 21
39.303
 31
0.0
  0
LINE
  8
0
 62
     0
 10
78.8638
 20
39.303
 30
0.0
 11
76.4992
 21
39.3499
 31
0.0
  0
LINE
  8
0
 62
     0
 10
76.4992
 20
39.3499
 30
0.0
 11
4.14239
 21
39.3499
 31
0.0
  0
LINE
  8
0
 62
     0
 10
9.82955
 20
45.4505
 30
0.0
 11
9.82955
 21
122.55
 31
0.0
  0
LINE
  8
0
 62
     0
 10
9.82955
 20
122.55
 30
0.0
 11
33.5414
 21
122.55
 31
0.0
  0
LINE
  8
0
 62
     0
 10
33.5414
 20
122.55
 30
0.0
 11
33.5414
 21
141.551
 31
0.0
  0
LINE
  8
0
 62
     0
 10
33.5414
 20
141.551
 30
0.0
 11
53.0229
 21
141.551
 31
0.0
  0
LINE
  8
0
 62
     0
 10
53.0229
 20
141.551
 30
0.0
 11
53.0229
 21
146.37
 31
0.0
  0
LINE
  8
0
 62
     0
 10
53.0229
 20
146.37
 30
0.0
 11
72.0425
 21
146.37
 31
0.0
  0
LINE
  8
0
 62
     0
 10
72.0425
 20
146.37
 30
0.0
 11
72.0425
 21
148.85
 31
0.0
  0
LINE
  8
0
 62
     0
 10
72.0425
 20
148.85
 30
0.0
 11
91.1433
 21
148.85
 31
0.0
  0
LINE
  8
0
 62
     0
 10
91.1433
 20
148.85
 30
0.0
 11
91.1433
 21
146.33
 31
0.0
  0
LINE
  8
0
 62
     0
 10
91.1433
 20
146.33
 30
0.0
 11
110.243
 21
146.331
 31
0.0
  0
LINE
  8
0
 62
     0
 10
110.243
 20
146.331
 30
0.0
 11
110.243
 21
144.05
 31
0.0
  0
LINE
  8
0
 62
     0
 10
110.243
 20
144.05
 30
0.0
 11
129.624
 21
144.049
 31
0.0
  0
LINE
  8
0
 62
     0
 10
129.624
 20
144.049
 30
0.0
 11
129.623
 21
67.05
 31
0.0
  0
LINE
  8
0
 62
     0
 10
129.623
 20
67.05
 30
0.0
 11
109.743
 21
67.05
 31
0.0
  0
LINE
  8
0
 62
     0
 10
109.743
 20
67.05
 30
0.0
 11
109.743
 21
69.3279
 31
0.0
  0
LINE
  8
0
 62
     0
 10
109.743
 20
69.3279
 30
0.0
 11
91.4799
 21
69.3279
 31
0.0
  0
LINE
  8
0
 62
     0
 10
91.4799
 20
69.3279
 30
0.0
 11
91.4799
 21
48.2755
 31
0.0
  0
LINE
  8
0
 62
     0
 10
91.4799
 20
48.2755
 30
0.0
 11
72.0796
 21
48.2755
 31
0.0
  0
LINE
  8
0
 62
     0
 10
72.0796
 20
48.2755
 30
0.0
 11
72.0781
 21
45.4505
 31
0.0
  0
LINE
  8
0
 62
     0
 10
72.0781
 20
45.4505
 30
0.0
 11
9.82955
 21
45.4505
 31
0.0
  0
LINE
  8
0
 62
     0
 10
95.9376
 20
39.0659
 30
0.0
 11
146.485
 21
9.57873
 31
0.0
  0
LINE
  8
0
 62
     0
 10
146.485
 20
9.57873
 30
0.0
 11
167.35
 21
46.0446
 31
0.0
  0
LINE
  8
0
 62
     0
 10
167.35
 20
46.0446
 30
0.0
 11
152.958
 21
54.0163
 31
0.0
  0
LINE
  8
0
 62
     0
 10
152.958
 20
54.0163
 30
0.0
 11
157.583
 21
62.3369
 31
0.0
  0
LINE
  8
0
 62
     0
 10
157.583
 20
62.3369
 30
0.0
 11
137.401
 21
73.7376
 31
0.0
  0
LINE
  8
0
 62
     0
 10
137.401
 20
73.7376
 30
0.0
 11
125.819
 21
54.0713
 31
0.0
  0
LINE
  8
0
 62
     0
 10
125.819
 20
54.0713
 30
0.0
 11
109.682
 21
63.2174
 31
0.0
  0
LINE
  8
0
 62
     0
 10
109.682
 20
63.2174
 30
0.0
 11
95.9376
 21
39.0659
 31
0.0
  0
LINE
  8
0
 62
     0
 10
9.76753
 20
148.757
 30
0.0
 11
29.5686
 21
148.757
 31
0.0
  0
LINE
  8
0
 62
     0
 10
29.5686
 20
148.757
 30
0.0
 11
29.5686
 21
128.961
 31
0.0
  0
LINE
  8
0
 62
     0
 10
29.5686
 20
128.961
 30
0.0
 11
9.76753
 21
128.961
 31
0.0
  0
LINE
  8
0
 62
     0
 10
9.76753
 20
128.961
 30
0.0
 11
9.76753
 21
148.757
 31
0.0
  0
ENDSEC
  0
EOF
