<?xml version="1.0" encoding="UTF-8" standalone="no"?>
<!-- Generated by SVGo -->

<svg
   xmlns:dc="http://purl.org/dc/elements/1.1/"
   xmlns:cc="http://creativecommons.org/ns#"
   xmlns:rdf="http://www.w3.org/1999/02/22-rdf-syntax-ns#"
   xmlns:svg="http://www.w3.org/2000/svg"
   xmlns="http://www.w3.org/2000/svg"
   xmlns:xlink="http://www.w3.org/1999/xlink"
   xmlns:sodipodi="http://sodipodi.sourceforge.net/DTD/sodipodi-0.dtd"
   xmlns:inkscape="http://www.inkscape.org/namespaces/inkscape"
   sodipodi:docname="case_top_plate.svg"
   inkscape:version="0.91 r13725"
   version="1.1"
   id="svg2"
   viewBox="0 0 186.821 167.133"
   height="592.20355"
   width="661.96417">
  <sodipodi:namedview
     pagecolor="#ffffff"
     bordercolor="#666666"
     borderopacity="1"
     objecttolerance="10"
     gridtolerance="10000"
     guidetolerance="10"
     inkscape:pageopacity="0"
     inkscape:pageshadow="2"
     inkscape:window-width="2560"
     inkscape:window-height="1440"
     id="namedview74"
     showgrid="true"
     inkscape:document-units="mm"
     units="mm"
     inkscape:zoom="2.1242696"
     inkscape:cx="330.98209"
     inkscape:cy="296.10178"
     inkscape:window-x="0"
     inkscape:window-y="0"
     inkscape:window-maximized="0"
     inkscape:current-layer="g3111"
     showguides="true"
     inkscape:guide-bbox="true">
    <inkscape:grid
       dotted="true"
       spacingy="1mm"
       spacingx="1mm"
       units="mm"
       snapvisiblegridlinesonly="true"
       enabled="true"
       visible="true"
       empspacing="5"
       id="grid3055"
       type="xygrid" />
    <sodipodi:guide
       orientation="1,0"
       position="95,155"
       id="guide3649" />
    <sodipodi:guide
       orientation="1,0"
       position="15,160"
       id="guide3653" />
    <sodipodi:guide
       orientation="1,0"
       position="627.16535,524.40945"
       id="guide3655" />
    <sodipodi:guide
       orientation="0,1"
       position="598.8189,237.40157"
       id="guide3659" />
    <sodipodi:guide
       position="20,155"
       orientation="0,1"
       id="guide4397" />
  </sodipodi:namedview>
  <metadata
     id="metadata78">
    <rdf:RDF>
      <cc:Work
         rdf:about="">
        <dc:format>image/svg+xml</dc:format>
        <dc:type
           rdf:resource="http://purl.org/dc/dcmitype/StillImage" />
        <dc:title></dc:title>
      </cc:Work>
    </rdf:RDF>
  </metadata>
  <defs
     id="defs76">
    <inkscape:path-effect
       effect="spiro"
       id="path-effect3182"
       is_visible="true" />
    <inkscape:path-effect
       effect="spiro"
       id="path-effect4302"
       is_visible="true" />
    <inkscape:path-effect
       is_visible="true"
       id="path-effect4246"
       effect="spiro" />
    <inkscape:path-effect
       effect="spiro"
       id="path-effect4143"
       is_visible="true" />
    <inkscape:path-effect
       effect="spiro"
       id="path-effect4117"
       is_visible="true" />
    <inkscape:path-effect
       effect="spiro"
       id="path-effect4075"
       is_visible="true" />
    <inkscape:path-effect
       effect="skeletal"
       id="path-effect4071"
       is_visible="true"
       pattern="M 0,0 0,10 10,5 z"
       copytype="single_stretched"
       prop_scale="1"
       scale_y_rel="false"
       spacing="0"
       normal_offset="0"
       tang_offset="0"
       prop_units="false"
       vertical_pattern="false"
       fuse_tolerance="0" />
    <inkscape:path-effect
       effect="spiro"
       id="path-effect4069"
       is_visible="true" />
    <inkscape:path-effect
       effect="spiro"
       id="path-effect4065"
       is_visible="true" />
  </defs>
  <g
     inkscape:groupmode="layer"
     id="layer8"
     inkscape:label="Case_Text2_rafika"
     style="display:none">
    <text
       xml:space="preserve"
       style="font-style:normal;font-variant:normal;font-weight:normal;font-stretch:normal;font-size:15.80444431px;line-height:100%;font-family:Rafika;-inkscape-font-specification:Rafika;text-align:center;letter-spacing:0px;word-spacing:0px;writing-mode:lr-tb;text-anchor:middle;fill:none;stroke:#000000;stroke-width:0.2;stroke-miterlimit:4;stroke-dasharray:none;stroke-opacity:1"
       x="58.863323"
       y="-144.07013"
       id="text3191"
       sodipodi:linespacing="100%"
       transform="matrix(0,0.91487073,-1.0930506,0,0,0)"><tspan
         sodipodi:role="line"
         id="tspan3195"
         x="58.863323"
         y="-144.07013">kiibohd</tspan><tspan
         sodipodi:role="line"
         id="tspan3197"
         x="58.863323"
         y="-128.26569">mark V</tspan></text>
  </g>
  <g
     inkscape:groupmode="layer"
     id="layer5"
     inkscape:label="Case_Text_rafika"
     style="display:none">
    <g
       transform="matrix(-0.00327984,0.99997774,-1.0000115,-0.00327974,3.3866665,-3.3866665)"
       style="font-style:normal;font-variant:normal;font-weight:normal;font-stretch:normal;font-size:14.11111069px;line-height:100%;font-family:Rafika;-inkscape-font-specification:Rafika;text-align:center;letter-spacing:0px;word-spacing:0px;writing-mode:lr-tb;text-anchor:middle;fill:none;stroke:#000000;stroke-width:0.2;stroke-miterlimit:4;stroke-opacity:1"
       id="text4277">
      <path
         d="m 30.93806,-153.72852 -0.07055,-0.0141 0.155222,0.26811 -0.08467,-0.254 m -4.896555,0.16933 0.01411,-0.0988 0.254,-0.14111 0.01411,-0.0423 c 0.07526,-0.29163 0.174034,-0.56915 0.296333,-0.83256 0.122293,-0.27281 0.230478,-0.53622 0.324556,-0.79022 l 1.975555,0.0706 c 0.188142,-0.047 0.282216,-0.15993 0.282223,-0.33867 -7e-6,-0.16933 -0.03764,-0.36689 -0.112889,-0.59267 -0.06586,-0.22577 -0.150525,-0.44214 -0.254,-0.64911 -0.09408,-0.21636 -0.197561,-0.39981 -0.310445,-0.55033 -0.103487,-0.15052 -0.188153,-0.23048 -0.254,-0.23989 l -0.479777,0 c 0.04703,-0.16933 0.09877,-0.32455 0.155222,-0.46567 0.05644,-0.15051 0.117587,-0.30573 0.183444,-0.46566 -0.112894,-0.32926 -0.23519,-0.6397 -0.366889,-0.93134 -0.122301,-0.30103 -0.244597,-0.59266 -0.366888,-0.87489 -0.112894,-0.29162 -0.216375,-0.57854 -0.310445,-0.86077 -0.09408,-0.29162 -0.164634,-0.59266 -0.211667,-0.90311 -0.131707,-0.19755 -0.272818,-0.29633 -0.423333,-0.29634 -0.131707,1e-5 -0.21167,0.0612 -0.239889,0.18345 -0.291632,0.7526 -0.559743,1.49108 -0.804333,2.21544 -0.235188,0.72438 -0.470372,1.43464 -0.705556,2.13078 -0.225779,0.69615 -0.465668,1.38289 -0.719666,2.06022 -0.254001,0.67734 -0.540927,1.34526 -0.860778,2.00378 -0.05645,0.0282 -0.08467,0.0705 -0.08467,0.127 0,0.0753 0.05174,0.127 0.155223,0.15522 0.103481,0.0282 0.225777,0.047 0.366888,0.0565 0.150518,0.009 0.30574,0.009 0.465667,0 0.159925,0 0.301036,0 0.423333,0 l 0.183445,0 c 0.24459,0 0.484479,0.005 0.719666,0.0141 0.235183,0.009 0.465664,0.0282 0.691445,0.0564 m 7.831666,-0.0564 -0.08467,-0.0847 0.01411,0 c 0.07525,0 0.136396,-0.0329 0.183444,-0.0988 0.05643,-0.0564 0.08466,-0.12229 0.08467,-0.19755 -1.1e-5,-0.047 -0.0047,-0.0753 -0.01411,-0.0847 -0.319863,-0.95015 -0.639714,-1.905 -0.959556,-2.86456 -0.310454,-0.96895 -0.639713,-1.9191 -0.987777,-2.85044 -0.348083,-0.93133 -0.729083,-1.83444 -1.143,-2.70933 -0.413934,-0.87488 -0.8796,-1.69803 -1.397,-2.46945 0.0094,-0.047 0.0141,-0.10347 0.01411,-0.16933 l 0,-0.14111 c -7e-6,-0.15051 -0.01412,-0.24458 -0.04233,-0.28222 -0.02823,-0.0376 -0.06586,-0.0611 -0.112889,-0.0706 l -1.749777,-0.0564 c -0.122301,0.0564 -0.225783,0.14582 -0.310445,0.26811 -0.07526,0.1223 -0.141115,0.25401 -0.197555,0.39511 -0.04704,0.14112 -0.08938,0.28693 -0.127,0.43744 -0.03763,0.14112 -0.07526,0.26812 -0.112889,0.381 0.216366,0.89372 0.484477,1.77331 0.804333,2.63878 0.329254,0.86549 0.677328,1.73097 1.044222,2.59644 0.366883,0.85608 0.738475,1.72156 1.114778,2.59645 0.376289,0.86548 0.724363,1.74978 1.044222,2.65289 l 0.09878,0.0423 c 0.253992,-0.0282 0.512695,-0.0423 0.776111,-0.0423 0.319843,0 0.649102,0.009 0.987778,0.0282 0.338656,0.0282 0.696137,0.0564 1.072444,0.0847"
         id="path3075"
         inkscape:connector-curvature="0"
         style="stroke-width:0.2" />
      <path
         d="m 44.226978,-165.14441 0.07056,-0.21167 0,-0.0141 c -1e-5,-0.0752 -0.02823,-0.13169 -0.08467,-0.16933 -0.05645,-0.047 -0.122306,-0.0799 -0.197555,-0.0988 l -2.652889,-0.0282 c -0.03764,0.009 -0.07527,0.047 -0.112889,0.11289 -0.03764,0.0565 -0.06586,0.1223 -0.08467,0.19755 l 0.07056,3.45722 2.667,3.47134 c 0.02821,0.10348 0.08466,0.15522 0.169333,0.15522 0.05644,0 0.108175,-0.0235 0.155222,-0.0706 0.04703,-0.0564 0.07525,-0.12229 0.08467,-0.19755 -0.04705,-0.64911 -0.08938,-1.31703 -0.127,-2.00378 -0.03764,-0.68673 -0.05645,-1.38288 -0.05644,-2.08844 -1e-5,-0.43273 0.0047,-0.85136 0.01411,-1.25589 0.01881,-0.41392 0.04703,-0.83255 0.08467,-1.25589 m -6.138333,11.35944 0.05645,0.0847 0.141111,-0.0282 0.141111,-0.254 -0.04233,-3.54189 c -0.432745,-0.63029 -0.870189,-1.25118 -1.312334,-1.86267 -0.44215,-0.62088 -0.818446,-1.20414 -1.128889,-1.74978 -0.09408,-0.0658 -0.197557,-0.0988 -0.310444,-0.0988 -0.08467,0 -0.159927,0.0235 -0.225778,0.0705 -0.05644,0.0376 -0.08467,0.0941 -0.08467,0.16934 l 0,0.0141 c 0.0094,0.0659 0.01411,0.13171 0.01411,0.19755 -10e-7,0.0564 -10e-7,0.1176 0,0.18345 l 0,0.36689 c -10e-7,0.94074 -0.03293,1.89089 -0.09878,2.85044 -0.06585,0.95015 -0.09878,1.93322 -0.09878,2.94922 -1e-6,0.10348 -1e-6,0.21167 0,0.32456 0.0094,0.11289 0.01411,0.22578 0.01411,0.33866 0.03763,-0.0188 0.07996,-0.0282 0.127,-0.0282 0.05644,0 0.112888,0.009 0.169334,0.0282 0.05644,0.0188 0.108183,0.0329 0.155222,0.0423 0.395109,-0.0282 0.809035,-0.0423 1.241777,-0.0423 0.216368,0 0.428034,0 0.635,0 0.20696,0 0.409219,-0.005 0.606778,-0.0141 m -0.310444,-11.79689 -0.451556,0.0706 c -0.03763,-0.0188 -0.07526,-0.0376 -0.112889,-0.0564 -0.02822,-0.0282 -0.06585,-0.047 -0.112889,-0.0565 l -0.155222,0 c -0.216373,1e-5 -0.44215,0.009 -0.677333,0.0282 -0.22578,0.009 -0.437446,0.0141 -0.635,0.0141 -0.0094,2e-5 -0.01882,2e-5 -0.02822,0 -0.0094,-0.009 -0.01882,-0.0141 -0.02822,-0.0141 -0.131704,2e-5 -0.216371,0.0847 -0.253999,0.254 -0.02822,0.16935 -0.04234,0.34809 -0.04233,0.53623 l 0,0.35277 c -10e-7,0.19757 -10e-7,0.39983 0,0.60678 0.0094,0.20697 0.01881,0.41864 0.02822,0.635 0.61148,0.8749 1.194739,1.70275 1.749778,2.48356 0.555034,0.78082 1.100663,1.55222 1.636889,2.31422 0.545625,0.762 1.095957,1.53811 1.651,2.32833 0.55503,0.78082 1.142993,1.61808 1.763889,2.51178 0.103473,-0.0564 0.183436,-0.0941 0.239889,-0.11289 0.06584,-0.009 0.117584,-0.0141 0.155222,-0.0141 0.244584,0 0.49388,0.005 0.747889,0.0141 0.25399,0.0188 0.503286,0.0282 0.747889,0.0282 0.131693,-0.0376 0.221064,-0.14581 0.268111,-0.32455 l 0,-1.31234 0,-0.47977 c -10e-6,-0.0847 -10e-6,-0.16933 0,-0.254 0.0094,-0.0847 0.0188,-0.17404 0.02822,-0.26811 -0.602084,-0.69615 -1.213564,-1.43463 -1.834444,-2.21545 -0.620897,-0.78081 -1.218267,-1.57103 -1.792112,-2.37067 -0.573857,-0.80902 -1.110079,-1.61336 -1.608666,-2.413 -0.498597,-0.79961 -0.926634,-1.56161 -1.284111,-2.286"
         id="path3077"
         inkscape:connector-curvature="0"
         style="stroke-width:0.2" />
      <path
         d="m 51.833748,-163.01363 0.07055,-2.61056 -0.211666,-0.254 -0.183445,-0.0282 c -0.667931,0.12231 -1.317041,0.33397 -1.947333,0.635 -0.6303,0.29164 -1.194744,0.66794 -1.693333,1.12889 -0.489187,0.46097 -0.884298,0.99249 -1.185333,1.59455 -0.301039,0.60209 -0.451557,1.27001 -0.451556,2.00378 -10e-7,0.29164 0.02822,0.58327 0.08467,0.87489 -0.03763,0.18815 -0.05645,0.42804 -0.05645,0.71967 -1e-6,0.56445 0.09407,1.10537 0.282222,1.62277 0.197555,0.51741 0.456258,0.98778 0.776111,1.41112 0.329257,0.42333 0.710257,0.78552 1.143,1.08655 0.442145,0.30104 0.903108,0.51271 1.382889,0.635 0.301033,0.15993 0.573847,0.29633 0.818445,0.40922 0.253994,0.1223 0.512698,0.18345 0.776111,0.18345 l 0.239889,0.0141 c 0.150512,-0.15052 0.221067,-0.30574 0.211666,-0.46567 -0.0094,-0.15992 -0.01412,-0.31515 -0.01411,-0.46566 -6e-6,-0.31986 -0.01412,-0.6303 -0.04233,-0.93134 -0.01882,-0.30103 -0.04234,-0.61618 -0.07056,-0.94544 0.01881,-0.0753 0.02822,-0.10818 0.02822,-0.0988 -7e-6,-0.0564 -0.02823,-0.10348 -0.08467,-0.14111 -0.04704,-0.0376 -0.108192,-0.0705 -0.183445,-0.0988 -0.06586,-0.0282 -0.136413,-0.0517 -0.211666,-0.0705 -0.07526,-0.0188 -0.136413,-0.0423 -0.183445,-0.0706 -0.27282,-0.0847 -0.531523,-0.22107 -0.776111,-0.40922 -0.244597,-0.18815 -0.460967,-0.40922 -0.649111,-0.66322 -0.178745,-0.254 -0.319856,-0.53152 -0.423333,-0.83256 -0.103485,-0.31044 -0.155226,-0.62088 -0.155222,-0.93133 l 0,-0.0847 c 0.0094,-0.25399 0.06585,-0.5174 0.169333,-0.79022 0.112885,-0.27281 0.258699,-0.53151 0.437444,-0.77611 0.178737,-0.254 0.380996,-0.47977 0.606778,-0.67734 0.225773,-0.19754 0.465661,-0.34336 0.719667,-0.43744 l 0.02822,-0.0847 c 0.150513,-0.0658 0.282216,-0.11758 0.395111,-0.15522 0.12229,-0.0376 0.239883,-0.1364 0.352778,-0.29633 m 0.987778,6.51933 -0.02822,0.0423 0,2.73756 0.282223,0.14111 0.04233,0 c 0.884288,-0.14111 1.646287,-0.39511 2.286,-0.762 0.6491,-0.3763 1.190026,-0.82785 1.622778,-1.35467 0.442136,-0.52681 0.790209,-1.11477 1.044222,-1.76389 0.253987,-0.6491 0.432727,-1.32173 0.536222,-2.01788 -0.01883,-0.61148 -0.127013,-1.22296 -0.324556,-1.83445 -0.18816,-0.62088 -0.451568,-1.19943 -0.790222,-1.73567 -0.329271,-0.54562 -0.724381,-1.0348 -1.185333,-1.46755 -0.460973,-0.44214 -0.968973,-0.78551 -1.524,-1.03011 -0.272824,-0.0564 -0.550342,-0.11758 -0.832555,-0.18345 -0.272824,-0.0752 -0.550342,-0.13639 -0.832556,-0.18344 l -0.169333,0.0423 c -0.122304,0.12231 -0.183452,0.21168 -0.183445,0.26811 0.0094,0.047 0.0141,0.0941 0.01411,0.14111 -7e-6,0.0376 -7e-6,0.08 0,0.127 l 0,0.26812 c -7e-6,0.35749 -0.0094,0.71027 -0.02822,1.05833 -0.01882,0.34808 -0.03293,0.69145 -0.04233,1.03011 l 0.225778,0.21167 0.07055,0.0282 c 0.310437,0.0282 0.60677,0.13642 0.889,0.32455 0.291621,0.18816 0.550324,0.42335 0.776111,0.70556 0.225768,0.28223 0.404509,0.59267 0.536222,0.93133 0.141101,0.32927 0.211657,0.65382 0.211667,0.97367 -1e-5,0.36689 -0.06116,0.71967 -0.183444,1.05833 -0.122306,0.32927 -0.29164,0.6303 -0.508,0.90311 -0.21638,0.26342 -0.47038,0.4939 -0.762,0.69145 -0.291638,0.19756 -0.606786,0.34337 -0.945445,0.43744 l -0.197555,0.21167"
         id="path3079"
         inkscape:connector-curvature="0"
         style="stroke-width:0.2" />
      <path
         d="m 60.405145,-153.75674 -0.01411,0 c -0.01882,0 -0.02822,0.005 -0.02822,0.0141 -10e-7,0.0188 0.01411,0.047 0.04233,0.0847 l 0,-0.0988 m 3.617931,-7.60619 c 0.01881,0.254 0.03292,0.51741 0.04233,0.79022 0.0094,0.26341 0.01411,0.53623 0.01411,0.81844 -4e-6,0.74319 -0.02823,1.50519 -0.08467,2.286 -0.04704,0.78082 -0.10819,1.53812 -0.183445,2.27189 0.225773,0.16934 0.39981,0.381 0.522111,0.635 0.131699,0.254 0.268106,0.49859 0.409223,0.73378 l 0.239888,0.15522 2.590958,-0.0561 c 0.01881,0.009 0.05644,0.0141 0.112889,0.0141 0.08466,0 0.15051,-0.0235 0.197556,-0.0706 0.04703,-0.047 0.07055,-0.10348 0.07055,-0.16933 l -0.02822,-0.11289 c -0.197564,-0.34807 -0.385712,-0.71966 -0.564444,-1.11478 -0.169342,-0.40451 -0.343378,-0.80903 -0.522111,-1.21355 -0.169341,-0.40452 -0.352785,-0.80904 -0.550334,-1.21356 -0.188155,-0.40451 -0.399821,-0.79022 -0.635,-1.15711 0.348068,-0.35747 0.658512,-0.72436 0.931334,-1.10067 0.282214,-0.37629 0.451547,-0.75258 0.508,-1.12888 l 0.01411,0 c 0.04703,-0.21637 0.08466,-0.43744 0.112889,-0.66323 0.02821,-0.22577 0.04233,-0.46095 0.04233,-0.70555 l -0.01411,-0.254 c -0.01882,-0.41392 -0.117601,-0.79492 -0.296333,-1.143 -0.169341,-0.34807 -0.395119,-0.65381 -0.677334,-0.91722 -0.282229,-0.27281 -0.606784,-0.48918 -0.973666,-0.64912 -0.357488,-0.16932 -0.634223,-0.2778 -1.010514,-0.32485 l -0.211667,0.15522 -0.05644,0.19756 -0.08467,2.59644 c 0.05644,0.0941 0.117588,0.16464 0.183445,0.21167 0.06585,0.0376 0.126995,0.08 0.183444,0.127 0.05644,0.0376 0.103476,0.0847 0.141111,0.14111 0.03762,0.047 0.05644,0.1223 0.05644,0.22578 -6e-6,0.14112 -0.05645,0.25871 -0.169334,0.35277 -0.112893,0.0941 -0.216375,0.18816 -0.310444,0.28223 m -0.916827,7.60663 -0.08467,0.0705 0.01411,0 c 0.112885,0 0.192848,-0.11759 0.239889,-0.35278 0.04703,-0.24459 0.07525,-0.53151 0.08467,-0.86077 0.01881,-0.33867 0.02352,-0.67734 0.01411,-1.016 -0.0094,-0.33867 -0.01412,-0.60678 -0.01411,-0.80434 -4e-6,-0.5174 -0.0047,-1.0301 -0.01411,-1.53811 -4e-6,-0.50799 -4e-6,-1.01599 0,-1.524 -4e-6,-0.88429 0.01411,-1.76388 0.04233,-2.63878 0.03762,-0.87488 0.112884,-1.76858 0.225777,-2.68111 l -0.451555,-0.49389 -2.588215,-4.4e-4 -0.01411,-0.0423 c -0.06585,1e-5 -0.122297,0.0282 -0.169333,0.0847 -0.03763,0.0565 -0.06585,0.1223 -0.08467,0.19755 l 0.09878,11.59934 c 0.131703,0 0.277517,0.0141 0.437445,0.0423 0.169331,0.0282 0.329257,0.0423 0.479777,0.0423 0.301035,0 0.606775,-0.009 0.917223,-0.0282 0.319848,-0.0188 0.518582,-0.0372 0.866659,-0.056"
         id="path3081"
         inkscape:connector-curvature="0"
         sodipodi:nodetypes="cscccccsccccccsccccccccccccccccccccccccccccscccccccccccccccscc"
         style="stroke-width:0.2" />
      <path
         d="m 71.269381,-153.60152 -0.01411,-0.0988 c 0.08466,-0.009 0.164626,-0.0847 0.239889,-0.22578 0.08466,-0.1317 0.159922,-0.28692 0.225777,-0.46566 0.07526,-0.18815 0.141108,-0.381 0.197556,-0.57856 0.05644,-0.20696 0.103477,-0.381 0.141111,-0.52211 l 2.032,0.0141 c 0.103475,0 0.178734,-0.0282 0.225778,-0.0847 0.05644,-0.0564 0.08466,-0.12229 0.08467,-0.19755 -6e-6,-0.047 -0.0047,-0.0753 -0.01411,-0.0847 -0.13171,-0.30103 -0.239895,-0.59266 -0.324555,-0.87489 -0.08467,-0.29162 -0.192858,-0.57385 -0.324556,-0.84666 l -0.225778,-0.19756 -0.522111,0 c 0.04703,-0.15992 0.09407,-0.31044 0.141111,-0.45156 0.05644,-0.15051 0.112884,-0.30103 0.169334,-0.45155 l -1.340556,-3.83822 c -0.06585,-0.0659 -0.150522,-0.0988 -0.254,-0.0988 -0.06585,1e-5 -0.131707,0.0141 -0.197555,0.0423 -0.05645,0.0282 -0.09878,0.08 -0.127,0.15522 -0.282226,0.73379 -0.55504,1.46286 -0.818445,2.18723 -0.254002,0.72437 -0.512705,1.43463 -0.776111,2.13077 -0.263409,0.68675 -0.536223,1.35467 -0.818444,2.00378 -0.272816,0.64911 -0.569149,1.2653 -0.889,1.84856 0.04704,0.15992 0.09878,0.28222 0.155222,0.36689 0.06585,0.0941 0.150518,0.14111 0.254,0.14111 l 0.663222,0 c 0.35748,0 0.714961,0.005 1.072445,0.0141 0.357479,0.0188 0.705552,0.0564 1.044222,0.11289 m 7.789333,-0.15522 -0.07056,0.0564 0.01411,0 c 0.07525,0 0.136397,-0.0329 0.183445,-0.0988 0.05643,-0.0564 0.08465,-0.12229 0.08467,-0.19755 -1.2e-5,-0.047 -0.0047,-0.0753 -0.01411,-0.0847 -0.310455,-0.95015 -0.649121,-1.88148 -1.016,-2.794 -0.366898,-0.92192 -0.733787,-1.83914 -1.100666,-2.75167 -0.366898,-0.91251 -0.719675,-1.82503 -1.058333,-2.73755 -0.329267,-0.91251 -0.611489,-1.84384 -0.846667,-2.794 -0.197563,-0.18814 -0.33397,-0.31043 -0.409222,-0.36689 -0.07527,-0.0658 -0.141118,-0.10347 -0.197556,-0.11289 l -1.778,0 c -0.09408,0.009 -0.178745,0.0659 -0.254,0.16933 -0.06586,0.1035 -0.127004,0.2305 -0.183444,0.381 -0.05645,0.14113 -0.112893,0.29635 -0.169334,0.46567 -0.04704,0.15994 -0.09878,0.30575 -0.155222,0.43744 0.432736,0.78083 0.823143,1.61338 1.171222,2.49767 0.348069,0.8749 0.66792,1.77801 0.959556,2.70933 0.291623,0.92193 0.564438,1.84856 0.818444,2.77989 0.253993,0.92193 0.498585,1.81563 0.733778,2.68111 l 0.310445,-0.23988 0.169333,0.0705 c 0.131695,0.009 0.263399,0.0141 0.395111,0.0141 0.131695,0.009 0.263399,0.0141 0.395111,0.0141 0.32925,0 0.658509,-0.009 0.987778,-0.0282 0.338656,-0.0188 0.682026,-0.0423 1.030111,-0.0705"
         id="path3083"
         inkscape:connector-curvature="0"
         style="stroke-width:0.2" />
      <path
         d="m 84.403076,-163.84619 -0.04233,0.0565 c -0.112893,0.28223 -0.169338,0.61149 -0.169333,0.98777 l 0,1.04423 c -5e-6,0.13171 -0.0047,0.31045 -0.01411,0.53622 -0.0094,0.21638 -0.0094,0.43745 0,0.66322 0.01881,0.21638 0.04703,0.40923 0.08467,0.57856 0.03762,0.16933 0.10818,0.26341 0.211666,0.28222 -0.131708,0.047 -0.202264,0.14111 -0.211666,0.28222 0.01881,0.21638 0.03292,0.43745 0.04233,0.66322 0.01881,0.21638 0.02822,0.44215 0.02822,0.67734 -5e-6,0.39511 -0.01412,0.78081 -0.04233,1.15711 -0.01882,0.3763 -0.05175,0.72907 -0.09878,1.05833 0.301032,0.36689 0.611476,0.72908 0.931333,1.08656 0.319846,0.35748 0.653809,0.70085 1.001889,1.03011 l 0.268111,0.0705 3.626556,-0.127 c 0.05643,0.0188 0.108174,0.0282 0.155222,0.0282 0.1411,0 0.211656,-0.0659 0.211667,-0.19755 -1.1e-5,-0.0753 -0.02353,-0.13641 -0.07056,-0.18345 -0.404529,-0.40451 -0.85138,-0.83255 -1.340556,-1.28411 -0.479786,-0.45155 -0.968971,-0.90311 -1.467555,-1.35466 -0.489193,-0.46096 -0.96897,-0.90781 -1.439333,-1.34056 -0.460969,-0.44214 -0.874895,-0.84666 -1.241778,-1.21355 l -0.239889,-0.35278 c 0.02822,-0.0188 0.05644,-0.0329 0.08467,-0.0423 0.02822,-0.009 0.05173,-0.0235 0.07055,-0.0423 0.507994,-0.47036 0.992475,-0.93133 1.453445,-1.38289 0.470363,-0.46095 0.931325,-0.91721 1.382889,-1.36878 0.460954,-0.45154 0.917213,-0.9031 1.368777,-1.35466 0.451546,-0.45155 0.917212,-0.90781 1.397,-1.36878 -1.1e-5,-0.0282 -0.02823,-0.0941 -0.08467,-0.19756 -0.05646,-0.10347 -0.15053,-0.15521 -0.282223,-0.15522 -0.06586,0.009 -0.131714,0.0141 -0.197555,0.0141 -0.05645,2e-5 -0.117603,2e-5 -0.183445,0 l -0.381,0 c -0.272824,2e-5 -0.545639,2e-5 -0.818444,0 -0.263416,-0.009 -0.531527,-0.0141 -0.804333,-0.0141 -0.197564,1e-5 -0.399823,0.005 -0.606778,0.0141 -0.197563,0.009 -0.399822,0.0235 -0.606778,0.0423 l -0.254,0.0141 c -0.254006,0.29164 -0.536228,0.58327 -0.846667,0.87489 -0.301042,0.28223 -0.592671,0.55504 -0.874888,0.81844 m -1.171223,-1.22767 0.409223,-0.254 -0.02822,-0.14111 -0.254,-0.14111 c -0.423336,1e-5 -0.846669,0.009 -1.27,0.0282 -0.423335,0.0188 -0.82315,0.0377 -1.199444,0.0565 -0.01882,-0.009 -0.05174,-0.0141 -0.09878,-0.0141 -0.103482,1e-5 -0.188149,0.13171 -0.254,0.39511 -0.05644,0.26342 -0.103482,0.58797 -0.141111,0.97367 -0.03763,0.38571 -0.06115,0.79963 -0.07055,1.24177 -0.0094,0.44216 -0.01411,0.84668 -0.01411,1.21356 l 0,0.70555 c -10e-7,1.13831 0.01881,2.29071 0.05644,3.45723 0.04704,1.15711 0.07996,2.36596 0.09878,3.62655 0.07526,0.13171 0.206961,0.20697 0.395111,0.22578 0.188146,0.0188 0.366887,0.0282 0.536222,0.0282 0.338664,0 0.682034,-0.0141 1.030111,-0.0423 0.357478,-0.0282 0.700848,-0.0423 1.030111,-0.0423 0.01881,0.0188 0.03292,0.0282 0.04233,0.0282 0.05644,0 0.09877,-0.0941 0.127,-0.28222 0.03763,-0.19756 0.06585,-0.43274 0.08467,-0.70556 0.01881,-0.28222 0.02822,-0.57855 0.02822,-0.889 0.0094,-0.31985 0.01411,-0.60207 0.01411,-0.84667 l 0,-0.47977 c -5e-6,-0.69615 -0.01412,-1.37819 -0.04233,-2.04612 -0.02823,-0.67732 -0.07056,-1.34525 -0.127,-2.00377 -0.04704,-0.66792 -0.103485,-1.34055 -0.169333,-2.01789 -0.05645,-0.67733 -0.117597,-1.36877 -0.183445,-2.07434"
         id="path3085"
         inkscape:connector-curvature="0"
         style="stroke-width:0.2" />
      <path
         d="m 28.055094,-149.73508 -0.04233,0.0565 c -0.112894,0.28223 -0.169338,0.61149 -0.169333,0.98777 l 0,1.04423 c -5e-6,0.13171 -0.0047,0.31045 -0.01411,0.53622 -0.0094,0.21638 -0.0094,0.43745 0,0.66322 0.01881,0.21638 0.04703,0.40923 0.08467,0.57856 0.03762,0.16934 0.10818,0.26341 0.211667,0.28222 -0.131709,0.047 -0.202264,0.14112 -0.211667,0.28222 0.01881,0.21638 0.03292,0.43745 0.04233,0.66322 0.01881,0.21638 0.02822,0.44216 0.02822,0.67734 -5e-6,0.39511 -0.01412,0.78081 -0.04233,1.15711 -0.01882,0.3763 -0.05175,0.72907 -0.09878,1.05833 0.301032,0.36689 0.611476,0.72908 0.931333,1.08656 0.319846,0.35748 0.653808,0.70085 1.001889,1.03011 l 0.268111,0.0705 3.626555,-0.127 c 0.05643,0.0188 0.108175,0.0282 0.155223,0.0282 0.1411,0 0.211655,-0.0659 0.211666,-0.19756 -1.1e-5,-0.0753 -0.02353,-0.13641 -0.07055,-0.18344 -0.404529,-0.40452 -0.851381,-0.83256 -1.340556,-1.28412 -0.479787,-0.45155 -0.968971,-0.9031 -1.467555,-1.35466 -0.489193,-0.46096 -0.96897,-0.90781 -1.439334,-1.34056 -0.460969,-0.44214 -0.874894,-0.84666 -1.241777,-1.21355 l -0.239889,-0.35278 c 0.02822,-0.0188 0.05644,-0.0329 0.08467,-0.0423 0.02822,-0.009 0.05174,-0.0235 0.07056,-0.0423 0.507994,-0.47036 0.992475,-0.93132 1.453444,-1.38289 0.470363,-0.46095 0.931326,-0.91721 1.382889,-1.36877 0.460954,-0.45155 0.917213,-0.90311 1.368778,-1.35467 0.451545,-0.45155 0.917212,-0.90781 1.397,-1.36878 -1.1e-5,-0.0282 -0.02823,-0.0941 -0.08467,-0.19755 -0.05645,-0.10347 -0.150529,-0.15522 -0.282222,-0.15523 -0.06586,0.009 -0.131714,0.0141 -0.197556,0.0141 -0.05645,2e-5 -0.117602,2e-5 -0.183444,0 l -0.381,0 c -0.272824,2e-5 -0.545639,2e-5 -0.818444,0 -0.263417,-0.009 -0.531527,-0.0141 -0.804334,-0.0141 -0.197563,1e-5 -0.399822,0.005 -0.606777,0.0141 -0.197563,0.009 -0.399822,0.0235 -0.606778,0.0423 l -0.254,0.0141 c -0.254007,0.29164 -0.536229,0.58327 -0.846667,0.87489 -0.301042,0.28223 -0.592672,0.55504 -0.874889,0.81844 m -1.171222,-1.22766 0.409222,-0.254 -0.02822,-0.14112 -0.254,-0.14111 c -0.423337,1e-5 -0.84667,0.009 -1.27,0.0282 -0.423335,0.0188 -0.82315,0.0376 -1.199444,0.0564 -0.01882,-0.009 -0.05174,-0.0141 -0.09878,-0.0141 -0.103483,1e-5 -0.188149,0.13171 -0.254,0.39511 -0.05645,0.26342 -0.103483,0.58797 -0.141111,0.97367 -0.03763,0.38571 -0.06115,0.79964 -0.07056,1.24177 -0.0094,0.44216 -0.01411,0.84668 -0.01411,1.21356 l 0,0.70556 c -1e-6,1.1383 0.01881,2.2907 0.05645,3.45722 0.04704,1.15711 0.07996,2.36596 0.09878,3.62655 0.07526,0.13171 0.206962,0.20697 0.395111,0.22578 0.188147,0.0188 0.366888,0.0282 0.536223,0.0282 0.338664,0 0.682034,-0.0141 1.030111,-0.0423 0.357478,-0.0282 0.700848,-0.0423 1.030111,-0.0423 0.01881,0.0188 0.03292,0.0282 0.04233,0.0282 0.05644,0 0.09877,-0.0941 0.127,-0.28222 0.03763,-0.19756 0.06585,-0.43274 0.08467,-0.70556 0.01881,-0.28222 0.02822,-0.57855 0.02822,-0.889 0.0094,-0.31985 0.01411,-0.60207 0.01411,-0.84667 l 0,-0.47977 c -4e-6,-0.69615 -0.01412,-1.37818 -0.04233,-2.04611 -0.02823,-0.67733 -0.07056,-1.34526 -0.127,-2.00378 -0.04704,-0.66792 -0.103486,-1.34055 -0.169333,-2.01789 -0.05645,-0.67732 -0.117597,-1.36877 -0.183445,-2.07433"
         id="path3087"
         inkscape:connector-curvature="0"
         style="stroke-width:0.2" />
      <path
         d="m 34.957411,-139.58919 0.08467,-0.0705 c 0.282221,0.0282 0.578554,0.0564 0.889,0.0847 0.310442,0.0282 0.62559,0.0423 0.945444,0.0423 0.150516,-1e-5 0.305738,-0.0141 0.465667,-0.0423 0.159922,-0.0282 0.301033,-0.0423 0.423333,-0.0423 0.05644,0 0.103478,0.0329 0.141112,0.0988 l -0.09878,-11.69811 c -0.02823,-0.15992 -0.127004,-0.28222 -0.296334,-0.36689 -0.319855,0.0188 -0.625595,0.0376 -0.917222,0.0564 -0.291632,0.009 -0.597372,0.0141 -0.917222,0.0141 l -0.352778,0 c -0.05645,1e-5 -0.117594,1e-5 -0.183444,0 -0.05645,1e-5 -0.117594,-0.005 -0.183445,-0.0141 -0.04704,0.009 -0.08937,0.0235 -0.127,0.0423 -0.02822,0.0188 -0.04233,0.0565 -0.04233,0.11289 -1e-6,0.0847 0.06585,0.21639 0.197556,0.39511 l -0.310445,11.10545 c 0.01881,0.0753 0.05174,0.14111 0.09878,0.19755 0.04704,0.0564 0.108184,0.0847 0.183444,0.0847"
         id="path3089"
         inkscape:connector-curvature="0"
         style="stroke-width:0.2" />
      <path
         d="m 40.3042,-139.58919 0.08467,-0.0705 c 0.28222,0.0282 0.578553,0.0564 0.888999,0.0847 0.310442,0.0282 0.62559,0.0423 0.945445,0.0423 0.150515,-1e-5 0.305737,-0.0141 0.465667,-0.0423 0.159922,-0.0282 0.301033,-0.0423 0.423333,-0.0423 0.05644,0 0.103477,0.0329 0.141111,0.0988 l -0.09878,-11.69811 c -0.02823,-0.15992 -0.127004,-0.28222 -0.296333,-0.36689 -0.319856,0.0188 -0.625596,0.0376 -0.917222,0.0564 -0.291633,0.009 -0.597373,0.0141 -0.917223,0.0141 l -0.352777,0 c -0.05645,1e-5 -0.117594,1e-5 -0.183445,0 -0.05645,1e-5 -0.117594,-0.005 -0.183444,-0.0141 -0.04704,0.009 -0.08937,0.0235 -0.127,0.0423 -0.02822,0.0188 -0.04234,0.0565 -0.04233,0.11289 -2e-6,0.0847 0.06585,0.21639 0.197555,0.39511 l -0.310444,11.10545 c 0.01881,0.0753 0.05174,0.14111 0.09878,0.19755 0.04704,0.0564 0.108184,0.0847 0.183445,0.0847"
         id="path3091"
         inkscape:connector-curvature="0"
         style="stroke-width:0.2" />
      <path
         d="m 45.69332,-139.54686 0,-0.0141 -0.04233,0 c 0.01881,0 0.03292,0.005 0.04233,0.0141 m -0.211667,-0.0705 c -0.0094,0 -1e-6,0.005 0.02822,0.0141 0.03763,0.0188 0.07996,0.0329 0.127,0.0423 l 0.01411,0 c -0.08467,-0.0376 -0.141112,-0.0564 -0.169333,-0.0564 m 1.298222,0.0282 c 0.225775,0 0.442145,0 0.649111,0 0.216367,0.009 0.428034,0.0188 0.635,0.0282 l 0.04233,0 c 0.07526,0 0.126996,-0.0282 0.155222,-0.0847 0.03762,-0.0564 0.06585,-0.1176 0.08467,-0.18345 -0.07526,-1.10066 -0.141115,-2.22014 -0.197555,-3.35844 -0.04704,-1.13829 -0.07056,-2.2954 -0.07056,-3.47134 -3e-6,-0.73377 0.0094,-1.44873 0.02822,-2.14488 0.02822,-0.70555 0.06585,-1.4017 0.112888,-2.08845 0.03763,-0.11288 0.05644,-0.22577 0.05644,-0.33867 -4e-6,-0.11287 -0.02352,-0.18813 -0.07056,-0.22577 -0.04704,-0.0376 -0.09408,-0.0611 -0.141111,-0.0706 l -2.413,-0.0282 c -0.08467,0.009 -0.150519,0.047 -0.197555,0.11289 -0.04704,0.0565 -0.07996,0.12231 -0.09878,0.19755 l 0.338667,11.684 c 0.178739,-0.009 0.357479,-0.0188 0.536222,-0.0282 0.188146,0 0.37159,0 0.550333,0 m 2.229556,-3.03389 0.01411,0.0141 c -0.159931,0.0282 -0.249301,0.1223 -0.268111,0.28223 l 0.07055,2.55411 c -0.01882,0.0188 -0.02823,0.0376 -0.02822,0.0564 -4e-6,0.0376 0.02351,0.0706 0.07056,0.0988 0.05644,0.0282 0.112884,0.0517 0.169333,0.0705 0.592661,-0.009 1.13829,-0.11288 1.636889,-0.31044 0.498585,-0.19756 0.926622,-0.46567 1.284111,-0.80433 0.357473,-0.34808 0.639695,-0.7573 0.846666,-1.22767 0.206955,-0.47978 0.31514,-1.00189 0.324556,-1.56633 l 0,-0.0988 c -9e-6,-0.2634 -0.01882,-0.52211 -0.05644,-0.77611 -0.02823,-0.254 -0.08938,-0.49389 -0.183445,-0.71967 -0.08467,-0.22577 -0.202268,-0.42803 -0.352778,-0.60678 -0.150526,-0.18814 -0.338674,-0.34336 -0.564444,-0.46566 0.131696,-0.28222 0.216362,-0.54092 0.254,-0.77611 0.04703,-0.24459 0.07055,-0.48918 0.07055,-0.73378 l 0,-0.43745 c -8e-6,-0.45154 -0.08467,-0.9031 -0.254,-1.35466 -0.16934,-0.46096 -0.409229,-0.87488 -0.719666,-1.24178 -0.291637,-0.23518 -0.635007,-0.42803 -1.030111,-0.57856 -0.38571,-0.15991 -0.776117,-0.2681 -1.171222,-0.32455 l -0.310445,0.18344 -0.05644,0.15522 -0.08467,2.46945 c 0.04703,0.047 0.07525,0.0847 0.08467,0.11289 0.01881,0.0282 0.03292,0.0517 0.04233,0.0705 l 0.169333,0.127 c 0.103477,0.0471 0.164625,0.12231 0.183445,0.22578 0.02822,0.10349 0.05174,0.20697 0.07055,0.31045 -0.0094,0.1223 -0.03763,0.23048 -0.08467,0.32455 -0.03764,0.0941 -0.10819,0.16464 -0.211667,0.21167 l -0.169333,0.26811 -0.07056,2.63878 0.211667,0.22577 0.141111,0.0423 c 0.01881,-0.009 0.06585,-0.0141 0.141111,-0.0141 0.216365,0 0.413921,0.0847 0.592667,0.254 0.178735,0.16933 0.268105,0.37159 0.268111,0.60677 -0.02823,0.2446 -0.13171,0.43275 -0.310445,0.56445 -0.178746,0.1223 -0.376301,0.18345 -0.592666,0.18344 -0.01882,1e-5 -0.04234,1e-5 -0.07056,0 -0.01882,-0.009 -0.03763,-0.0141 -0.05644,-0.0141"
         id="path3093"
         inkscape:connector-curvature="0"
         style="stroke-width:0.2" />
      <path
         d="m 60.446487,-148.90252 0.07055,-2.61056 -0.211666,-0.254 -0.183445,-0.0282 c -0.667931,0.12231 -1.317042,0.33397 -1.947333,0.635 -0.6303,0.29164 -1.194744,0.66794 -1.693333,1.12889 -0.489188,0.46097 -0.884298,0.99249 -1.185334,1.59455 -0.301038,0.60209 -0.451556,1.27001 -0.451555,2.00378 -1e-6,0.29164 0.02822,0.58327 0.08467,0.87489 -0.03763,0.18815 -0.05645,0.42804 -0.05644,0.71967 -1e-6,0.56445 0.09407,1.10537 0.282222,1.62278 0.197554,0.51741 0.456258,0.98778 0.776111,1.41111 0.329257,0.42333 0.710257,0.78552 1.143,1.08655 0.442145,0.30104 0.903107,0.51271 1.382889,0.635 0.301032,0.15993 0.573847,0.29634 0.818444,0.40922 0.253995,0.1223 0.512698,0.18345 0.776112,0.18345 l 0.239888,0.0141 c 0.150512,-0.15052 0.221068,-0.30574 0.211667,-0.46567 -0.0094,-0.15992 -0.01412,-0.31514 -0.01411,-0.46566 -7e-6,-0.31985 -0.01412,-0.6303 -0.04233,-0.93134 -0.01882,-0.30103 -0.04234,-0.61618 -0.07056,-0.94544 0.01881,-0.0753 0.02822,-0.10818 0.02822,-0.0988 -6e-6,-0.0564 -0.02823,-0.10348 -0.08467,-0.14111 -0.04704,-0.0376 -0.108192,-0.0705 -0.183445,-0.0988 -0.06586,-0.0282 -0.136413,-0.0517 -0.211666,-0.0706 -0.07527,-0.0188 -0.136414,-0.0423 -0.183445,-0.0706 -0.27282,-0.0847 -0.531524,-0.22107 -0.776111,-0.40922 -0.244597,-0.18815 -0.460967,-0.40922 -0.649111,-0.66322 -0.178745,-0.254 -0.319856,-0.53152 -0.423333,-0.83256 -0.103486,-0.31044 -0.155226,-0.62088 -0.155223,-0.93133 l 0,-0.0847 c 0.0094,-0.25399 0.06585,-0.5174 0.169334,-0.79022 0.112885,-0.27281 0.258699,-0.53151 0.437444,-0.77611 0.178736,-0.25399 0.380995,-0.47977 0.606778,-0.67734 0.225772,-0.19754 0.465661,-0.34336 0.719667,-0.43744 l 0.02822,-0.0847 c 0.150512,-0.0658 0.282216,-0.11758 0.395111,-0.15522 0.12229,-0.0376 0.239882,-0.1364 0.352778,-0.29633 m 0.987777,6.51933 -0.02822,0.0423 0,2.73756 0.282222,0.14111 0.04233,0 c 0.884287,-0.14111 1.646287,-0.39511 2.286,-0.762 0.6491,-0.37629 1.190025,-0.82785 1.622777,-1.35467 0.442136,-0.52681 0.79021,-1.11477 1.044223,-1.76388 0.253987,-0.64911 0.432727,-1.32174 0.536222,-2.01789 -0.01883,-0.61148 -0.127013,-1.22296 -0.324556,-1.83445 -0.188161,-0.62088 -0.451568,-1.19943 -0.790222,-1.73566 -0.329271,-0.54562 -0.724382,-1.03481 -1.185333,-1.46756 -0.460974,-0.44214 -0.968973,-0.78551 -1.524,-1.03011 -0.272824,-0.0564 -0.550342,-0.11758 -0.832556,-0.18345 -0.272823,-0.0752 -0.550341,-0.13639 -0.832555,-0.18344 l -0.169334,0.0423 c -0.122303,0.12231 -0.183451,0.21168 -0.183444,0.26811 0.0094,0.047 0.0141,0.0941 0.01411,0.14112 -7e-6,0.0376 -7e-6,0.08 0,0.127 l 0,0.26811 c -7e-6,0.35749 -0.0094,0.71027 -0.02822,1.05833 -0.01882,0.34808 -0.03293,0.69145 -0.04233,1.03011 l 0.225778,0.21167 0.07056,0.0282 c 0.310436,0.0282 0.606769,0.13642 0.889,0.32456 0.291621,0.18815 0.550324,0.42334 0.776111,0.70555 0.225768,0.28223 0.404509,0.59267 0.536222,0.93133 0.141101,0.32927 0.211657,0.65383 0.211667,0.97367 -1e-5,0.3669 -0.06116,0.71967 -0.183445,1.05833 -0.122306,0.32927 -0.291639,0.6303 -0.508,0.90312 -0.216379,0.26341 -0.470379,0.49389 -0.762,0.69144 -0.291638,0.19756 -0.606785,0.34337 -0.945444,0.43744 l -0.197556,0.21167"
         id="path3095"
         inkscape:connector-curvature="0"
         style="stroke-width:0.2" />
      <path
         d="m 71.769551,-151.52719 -2.483556,-0.0564 c -0.122298,0.0188 -0.211668,0.0612 -0.268111,0.127 -0.04704,0.0659 -0.07996,0.13642 -0.09878,0.21166 -0.05644,0.64913 -0.09878,1.28412 -0.127,1.905 -0.01882,0.61149 -0.02822,1.22768 -0.02822,1.84856 -10e-7,1.27941 0.03763,2.54 0.112889,3.78178 0.08467,1.23237 0.178739,2.51178 0.282222,3.83822 -0.07526,0.047 -0.11289,0.0941 -0.112889,0.14111 -10e-7,0.0753 0.06115,0.1223 0.183445,0.14111 0.216368,-0.009 0.423331,-0.0188 0.620888,-0.0282 0.206961,0 0.413924,0 0.620889,0 0.413923,0 0.827849,-0.0141 1.241778,-0.0423 0.07525,0.047 0.126996,0.0705 0.155222,0.0705 0.05644,0 0.103478,-0.13641 0.141111,-0.40922 0.04703,-0.27282 0.08466,-0.62559 0.112889,-1.05833 0.02822,-0.43274 0.05174,-0.90782 0.07056,-1.42523 0.01881,-0.52681 0.03292,-1.03951 0.04233,-1.53811 0.0094,-0.50799 0.01411,-0.96896 0.01411,-1.38289 0.0094,-0.41392 0.01411,-0.72436 0.01411,-0.93133 -4e-6,-0.85607 -0.01882,-1.69803 -0.05644,-2.52589 -0.02823,-0.83725 -0.07997,-1.6698 -0.155222,-2.49767 l 0,0.0706 c -0.03763,-0.11288 -0.131708,-0.19284 -0.282222,-0.23989 m 5.305777,12.02267 0,-0.0847 0.01411,0 c 0.07525,0 0.131695,-0.0705 0.169334,-0.21167 0.04703,-0.14111 0.08466,-0.32455 0.112888,-0.55033 0.02821,-0.22578 0.04703,-0.47507 0.05644,-0.74789 0.0094,-0.28222 0.0141,-0.55974 0.01411,-0.83255 -10e-6,-0.28222 -0.0047,-0.54093 -0.01411,-0.77611 -10e-6,-0.24459 -10e-6,-0.44215 0,-0.59267 -10e-6,-0.30103 -0.0047,-0.60207 -0.01411,-0.90311 -1e-5,-0.30103 -1e-5,-0.60207 0,-0.90311 -1e-5,-0.96896 0.0141,-1.93322 0.04233,-2.89278 0.03762,-0.96896 0.117583,-1.95203 0.239889,-2.94922 -0.150528,-0.21636 -0.315158,-0.36688 -0.493889,-0.45156 -0.169342,-0.0941 -0.348083,-0.15051 -0.536222,-0.16933 -0.178749,-0.0282 -0.35749,-0.0329 -0.536222,-0.0141 -0.178749,0.0188 -0.348082,0.0282 -0.508,0.0282 -0.357489,1e-5 -0.724378,0.0141 -1.100667,0.0423 l -0.01411,0 c -0.08467,1e-5 -0.145821,0.0376 -0.183444,0.11289 -0.03764,0.0753 -0.06586,0.16464 -0.08467,0.26811 -0.0094,0.10349 -0.01412,0.21638 -0.01411,0.33867 0.0094,0.1129 0.0141,0.21168 0.01411,0.29633 -7e-6,0.35749 0.0094,0.70086 0.02822,1.03011 0.02822,0.32927 0.05173,0.65853 0.07056,0.98778 0.02822,0.31986 0.05173,0.64442 0.07055,0.97367 0.02822,0.32926 0.04233,0.66793 0.04233,1.016 l -1.566334,0.18344 c -0.0094,-0.009 -0.03293,-0.0141 -0.07055,-0.0141 -0.06586,1e-5 -0.117598,0.0282 -0.155223,0.0847 -0.02823,0.047 -0.05175,0.10349 -0.07055,0.16933 l 0.05644,2.42711 c -0.0094,0.0188 -0.01412,0.0517 -0.01411,0.0988 -5e-6,0.0753 0.02351,0.13171 0.07056,0.16933 0.05644,0.0282 0.112884,0.0517 0.169333,0.0706 l 1.354667,0.0141 0.155222,3.41489 c -0.03764,0.0376 -0.05645,0.08 -0.05644,0.127 -7e-6,0.047 0.02351,0.0847 0.07055,0.11289 0.04703,0.0282 0.09407,0.047 0.141111,0.0564 l 0.183445,0 c 0.357474,0 0.738473,0.009 1.143,0.0282 0.40451,0.0282 0.809028,0.0423 1.213555,0.0423"
         id="path3097"
         inkscape:connector-curvature="0"
         style="stroke-width:0.2" />
      <path
         d="m 83.466338,-142.70774 c -0.122301,0.0659 -0.183449,0.15522 -0.183444,0.26811 l 0.07055,2.58233 c -0.0094,0.009 -0.01412,0.0282 -0.01411,0.0564 -5e-6,0.047 0.02351,0.0847 0.07056,0.11289 0.04703,0.0376 0.103476,0.0565 0.169333,0.0565 l 0.02822,0 c 0.263402,-0.047 0.507995,-0.10348 0.733778,-0.16934 0.225772,-0.0659 0.451549,-0.15992 0.677333,-0.28222 l -0.01411,0.0564 c 0.498586,-0.17874 0.978363,-0.43745 1.439334,-0.77611 0.460954,-0.33867 0.865472,-0.74319 1.213555,-1.21356 0.357472,-0.47037 0.639694,-0.99718 0.846667,-1.58044 0.21636,-0.58326 0.324545,-1.20885 0.324555,-1.87678 -1e-5,-0.047 -0.0047,-0.0941 -0.01411,-0.14111 -1e-5,-0.0564 -1e-5,-0.10818 0,-0.15523 0.0094,-0.047 0.0141,-0.0894 0.01411,-0.127 0.0094,-0.0376 0.0141,-0.0752 0.01411,-0.11288 l 0,-0.23989 c -1e-5,-0.61148 -0.150528,-1.18063 -0.451555,-1.70745 -0.301047,-0.53621 -0.696157,-1.02069 -1.185333,-1.45344 -0.479786,-0.44214 -1.030119,-0.82314 -1.651,-1.143 -0.620896,-0.32925 -1.246488,-0.59266 -1.876778,-0.79022 l -0.197556,0.0282 c -0.131708,0.13171 -0.19756,0.21638 -0.197555,0.254 l 0.01411,2.42711 c -5e-6,0.14112 0.06585,0.23519 0.197555,0.28222 l 0.282223,0.0706 0.07055,0.0282 -0.01411,0 c 0.244587,0.1129 0.475068,0.25871 0.691445,0.43744 0.225771,0.17875 0.418623,0.37631 0.578555,0.59267 0.169327,0.21638 0.30103,0.44686 0.395111,0.69144 0.09407,0.2352 0.141104,0.47508 0.141111,0.71967 -7e-6,0.0282 -0.0047,0.0611 -0.01411,0.0988 -7e-6,0.0282 -7e-6,0.0565 0,0.0847 -7e-6,0.0376 -7e-6,0.0753 0,0.11288 0.0094,0.0282 0.0141,0.0612 0.01411,0.0988 -7e-6,0.29164 -0.05175,0.56916 -0.155222,0.83256 -0.09408,0.254 -0.221081,0.49389 -0.381,0.71966 -0.159932,0.21638 -0.343377,0.41393 -0.550333,0.59267 -0.206969,0.16934 -0.418636,0.31515 -0.635,0.43745 l -0.07056,0 -0.381,0.127 m -3.993444,-8.509 c -0.01882,0.81845 -0.04704,1.65571 -0.08467,2.51177 -0.03763,0.85609 -0.07996,1.71686 -0.127,2.58234 -0.03763,0.85608 -0.07526,1.71685 -0.112889,2.58233 -0.02822,0.85608 -0.04233,1.70745 -0.04233,2.55411 l 0,0.59267 c -10e-7,0.10348 -10e-7,0.20226 0,0.29633 -10e-7,0.0941 0.0047,0.19285 0.01411,0.29633 0.357481,0.0847 0.630295,0.14112 0.818445,0.16934 0.197553,0.0376 0.399813,0.0564 0.606777,0.0564 l 0.465667,0 c 0.216368,0 0.432738,-0.005 0.649111,-0.0141 0.216367,-0.009 0.432737,-0.0235 0.649111,-0.0423 0.05644,0.0188 0.09877,0.0282 0.127,0.0282 0.02822,0 0.05644,-0.0282 0.08467,-0.0847 0.02822,-0.047 0.05174,-0.0988 0.07055,-0.15522 0.0094,-0.84667 0.01411,-1.74507 0.01411,-2.69522 -4e-6,-0.95015 0.0047,-1.91911 0.01411,-2.90689 0.0094,-0.99718 0.01881,-1.99907 0.02822,-3.00567 0.01881,-1.01599 0.04703,-2.01317 0.08467,-2.99155 -0.07526,0.0188 -0.108189,0.0282 -0.09878,0.0282 -0.103486,1e-5 -0.239893,-0.0188 -0.409222,-0.0564 -0.15993,-0.047 -0.338671,-0.0705 -0.536223,-0.0706 -0.0094,0.009 -0.03293,0.0141 -0.07055,0.0141 -0.02823,1e-5 -0.04704,0.005 -0.05644,0.0141 -0.04704,-0.009 -0.09408,-0.0141 -0.141111,-0.0141 -0.04704,1e-5 -0.09408,1e-5 -0.141111,0 l -0.268111,0 c -0.197558,1e-5 -0.395113,0.005 -0.592667,0.0141 -0.197557,1e-5 -0.40452,0.005 -0.620889,0.0141 l -0.02822,0 c -0.09408,1e-5 -0.164631,0.0282 -0.211666,0.0847 -0.03763,0.0565 -0.06585,0.12231 -0.08467,0.19756"
         id="path3099"
         inkscape:connector-curvature="0"
         style="stroke-width:0.2" />
    </g>
    <g
       id="barcode"
       style="fill:#000000">
      <rect
         x="322"
         y="244"
         width="1"
         height="35"
         id="barcode_bar1" />
      <rect
         x="324"
         y="244"
         width="1"
         height="35"
         id="barcode_bar3" />
      <rect
         x="327"
         y="244"
         width="1"
         height="30"
         id="barcode_bar5" />
      <rect
         x="330"
         y="244"
         width="2"
         height="30"
         id="barcode_bar7" />
      <rect
         x="333"
         y="244"
         width="4"
         height="30"
         id="barcode_bar9" />
      <rect
         x="338"
         y="244"
         width="1"
         height="30"
         id="barcode_bar11" />
      <rect
         x="341"
         y="244"
         width="3"
         height="30"
         id="barcode_bar13" />
      <rect
         x="345"
         y="244"
         width="1"
         height="30"
         id="barcode_bar15" />
      <rect
         x="347"
         y="244"
         width="2"
         height="30"
         id="barcode_bar17" />
      <rect
         x="352"
         y="244"
         width="1"
         height="30"
         id="barcode_bar19" />
      <rect
         x="357"
         y="244"
         width="1"
         height="30"
         id="barcode_bar21" />
      <rect
         x="359"
         y="244"
         width="1"
         height="30"
         id="barcode_bar23" />
      <rect
         x="362"
         y="244"
         width="1"
         height="30"
         id="barcode_bar25" />
      <rect
         x="366"
         y="244"
         width="1"
         height="30"
         id="barcode_bar27" />
      <rect
         x="368"
         y="244"
         width="1"
         height="35"
         id="barcode_bar29" />
      <rect
         x="370"
         y="244"
         width="1"
         height="35"
         id="barcode_bar31" />
      <rect
         x="372"
         y="244"
         width="1"
         height="30"
         id="barcode_bar33" />
      <rect
         x="375"
         y="244"
         width="1"
         height="30"
         id="barcode_bar35" />
      <rect
         x="379"
         y="244"
         width="3"
         height="30"
         id="barcode_bar37" />
      <rect
         x="383"
         y="244"
         width="1"
         height="30"
         id="barcode_bar39" />
      <rect
         x="386"
         y="244"
         width="3"
         height="30"
         id="barcode_bar41" />
      <rect
         x="391"
         y="244"
         width="1"
         height="30"
         id="barcode_bar43" />
      <rect
         x="393"
         y="244"
         width="2"
         height="30"
         id="barcode_bar45" />
      <rect
         x="397"
         y="244"
         width="2"
         height="30"
         id="barcode_bar47" />
      <rect
         x="400"
         y="244"
         width="2"
         height="30"
         id="barcode_bar49" />
      <rect
         x="403"
         y="244"
         width="2"
         height="30"
         id="barcode_bar51" />
      <rect
         x="407"
         y="244"
         width="1"
         height="30"
         id="barcode_bar53" />
      <rect
         x="410"
         y="244"
         width="1"
         height="30"
         id="barcode_bar55" />
      <rect
         x="414"
         y="244"
         width="1"
         height="35"
         id="barcode_bar57" />
      <rect
         x="416"
         y="244"
         width="1"
         height="35"
         id="barcode_bar59" />
      <text
         x="369"
         y="284"
         style="font-size:9px;text-align:center;text-anchor:middle"
         xml:space="preserve"
         id="barcode_bottomtext">1    234567    890128       </text>
    </g>
    <g
       style="fill:#000000"
       id="barcode0">
      <rect
         id="barcode0_bar1"
         height="35"
         width="1"
         y="244"
         x="322" />
      <rect
         id="barcode0_bar3"
         height="35"
         width="1"
         y="244"
         x="324" />
      <rect
         id="barcode0_bar5"
         height="30"
         width="1"
         y="244"
         x="327" />
      <rect
         id="barcode0_bar7"
         height="30"
         width="2"
         y="244"
         x="330" />
      <rect
         id="barcode0_bar9"
         height="30"
         width="4"
         y="244"
         x="333" />
      <rect
         id="barcode0_bar11"
         height="30"
         width="1"
         y="244"
         x="338" />
      <rect
         id="barcode0_bar13"
         height="30"
         width="3"
         y="244"
         x="341" />
      <rect
         id="barcode0_bar15"
         height="30"
         width="1"
         y="244"
         x="345" />
      <rect
         id="barcode0_bar17"
         height="30"
         width="2"
         y="244"
         x="347" />
      <rect
         id="barcode0_bar19"
         height="30"
         width="1"
         y="244"
         x="352" />
      <rect
         id="barcode0_bar21"
         height="30"
         width="1"
         y="244"
         x="357" />
      <rect
         id="barcode0_bar23"
         height="30"
         width="1"
         y="244"
         x="359" />
      <rect
         id="barcode0_bar25"
         height="30"
         width="1"
         y="244"
         x="362" />
      <rect
         id="barcode0_bar27"
         height="30"
         width="1"
         y="244"
         x="366" />
      <rect
         id="barcode0_bar29"
         height="35"
         width="1"
         y="244"
         x="368" />
      <rect
         id="barcode0_bar31"
         height="35"
         width="1"
         y="244"
         x="370" />
      <rect
         id="barcode0_bar33"
         height="30"
         width="1"
         y="244"
         x="372" />
      <rect
         id="barcode0_bar35"
         height="30"
         width="1"
         y="244"
         x="375" />
      <rect
         id="barcode0_bar37"
         height="30"
         width="3"
         y="244"
         x="379" />
      <rect
         id="barcode0_bar39"
         height="30"
         width="1"
         y="244"
         x="383" />
      <rect
         id="barcode0_bar41"
         height="30"
         width="3"
         y="244"
         x="386" />
      <rect
         id="barcode0_bar43"
         height="30"
         width="1"
         y="244"
         x="391" />
      <rect
         id="barcode0_bar45"
         height="30"
         width="2"
         y="244"
         x="393" />
      <rect
         id="barcode0_bar47"
         height="30"
         width="2"
         y="244"
         x="397" />
      <rect
         id="barcode0_bar49"
         height="30"
         width="2"
         y="244"
         x="400" />
      <rect
         id="barcode0_bar51"
         height="30"
         width="2"
         y="244"
         x="403" />
      <rect
         id="barcode0_bar53"
         height="30"
         width="1"
         y="244"
         x="407" />
      <rect
         id="barcode0_bar55"
         height="30"
         width="1"
         y="244"
         x="410" />
      <rect
         id="barcode0_bar57"
         height="35"
         width="1"
         y="244"
         x="414" />
      <rect
         id="barcode0_bar59"
         height="35"
         width="1"
         y="244"
         x="416" />
      <text
         id="barcode0_bottomtext"
         xml:space="preserve"
         style="font-size:9px;text-align:center;text-anchor:middle"
         y="284"
         x="369">1    234567    890128       </text>
    </g>
  </g>
  <g
     inkscape:label="Case_Text_gunplay"
     id="g3111"
     inkscape:groupmode="layer"
     style="display:inline">
    <g
       transform="matrix(-0.00327984,0.99997774,-1.0000115,-0.00327974,3.3866665,-3.3866665)"
       style="font-style:normal;font-variant:normal;font-weight:normal;font-stretch:normal;font-size:20.31999969px;line-height:89.99999762%;font-family:Gunplay;-inkscape-font-specification:Gunplay;text-align:center;letter-spacing:0px;word-spacing:0px;writing-mode:lr-tb;text-anchor:middle;fill:none;stroke:#000000;stroke-width:0.2;stroke-miterlimit:4;stroke-opacity:1"
       id="text3113">
      <path
         style="line-height:89.99999762%;font-family:Gunplay;-inkscape-font-specification:Gunplay;stroke-width:0.2"
         d="m 30.722801,-169.08765 4.246563,0 3.631406,14.34703 -3.44289,0 -0.694532,-3.02617 -2.837656,0 0.486172,-2.3614 1.895078,0 -1.141016,-5.84399 -2.510234,11.23156 -3.274219,0 3.641328,-14.34703"
         id="path3296" />
      <path
         style="line-height:89.99999762%;font-family:Gunplay;-inkscape-font-specification:Gunplay;stroke-width:0.2"
         d="m 48.105926,-154.74062 -3.075781,0 0,-6.63773 c 0.0463,-0.89958 -0.360501,-1.35598 -1.22039,-1.36922 -0.251359,1e-5 -0.489484,0.0926 -0.714375,0.27781 l 0,-1.74625 c 0.568849,-0.37702 1.273301,-0.56223 2.113359,-0.55562 1.878533,-0.0132 2.837647,1.11787 2.877344,3.39328 l 0.01984,0 0,6.63773"
         id="path4417" />
      <path
         style="line-height:89.99999762%;font-family:Gunplay;-inkscape-font-specification:Gunplay;stroke-width:0.2"
         d="m 39.602877,-154.74062 0,-9.80281 2.986484,0 0,9.80281 -2.986484,0"
         id="path3298" />
      <path
         style="line-height:89.99999762%;font-family:Gunplay;-inkscape-font-specification:Gunplay;stroke-width:0.2"
         d="m 57.839286,-158.07437 c 0.0066,2.27542 -1.257771,3.46577 -3.963128,3.5716 l 0,-2.15305 c 0.70114,-0.10583 0.963408,-0.52888 0.9568,-1.26972 l 0,-3.58179 c 0.0066,-0.66146 -0.25566,-1.03877 -0.9568,-1.13138 l 0,-2.17289 c 2.718586,0.0662 3.98627,1.21407 3.97305,3.44317 l -0.0099,3.29406"
         id="path4413" />
      <path
         style="line-height:89.99999762%;font-family:Gunplay;-inkscape-font-specification:Gunplay;stroke-width:0.2"
         d="m 52.332667,-157.92554 c 0.0066,0.80037 0.282109,1.2306 0.996488,1.29013 l 0,2.1332 c -2.745055,-0.0463 -4.035889,-1.25044 -4.042503,-3.61184 l 0,-3.31391 c 0.0066,-2.22249 1.297448,-3.35 4.042503,-3.38308 l 0,2.15305 c -0.687921,0.0397 -0.963419,0.42306 -0.996488,1.15066 l 0,3.58179"
         id="path3300" />
      <path
         style="line-height:89.99999762%;font-family:Gunplay;-inkscape-font-specification:Gunplay;stroke-width:0.2"
         d="m 62.968895,-163.64054 c 0.55562,-0.72098 1.382442,-1.05832 2.480468,-1.01203 l 0,2.51024 c -0.562246,-0.19182 -1.058339,-0.23151 -1.488281,-0.11907 -0.429953,0.11246 -0.760682,0.33735 -0.992187,0.67469 l 0,-2.05383"
         id="path4409" />
      <path
         style="line-height:89.99999762%;font-family:Gunplay;-inkscape-font-specification:Gunplay;stroke-width:0.2"
         d="m 59.516082,-154.74062 0,-9.79289 2.986484,0 0,9.79289 -2.986484,0"
         id="path3302" />
      <path
         style="line-height:89.99999762%;font-family:Gunplay;-inkscape-font-specification:Gunplay;stroke-width:0.2"
         d="m 66.213347,-157.59812 c -0.03969,-2.00421 1.686716,-3.23783 5.179218,-3.70086 l 0,1.88516 c -1.369223,0.35719 -2.076983,0.85329 -2.123281,1.48828 0.01984,0.82021 0.320803,1.21709 0.902891,1.19063 0.502703,0 0.909499,-0.0496 1.22039,-0.14883 l 0,1.83555 c -0.429953,0.29104 -1.002114,0.43656 -1.716484,0.43656 -2.315106,0.007 -3.46935,-0.98888 -3.462734,-2.98649"
         id="path4399" />
      <path
         style="line-height:89.99999762%;font-family:Gunplay;-inkscape-font-specification:Gunplay;stroke-width:0.2"
         d="m 72.037487,-161.70577 c 0.02645,-0.66145 -0.307584,-0.97565 -1.002109,-0.94258 -0.853286,1e-5 -1.29977,0.32743 -1.339453,0.98227 l -2.986485,0 c -0.01323,-2.07697 1.458513,-3.12208 4.415235,-3.13532 2.665668,0.007 3.985276,1.00212 3.958828,2.98649 l 0,3.0857 c -10e-6,2.20266 0.128974,3.53219 0.386953,3.98859 l -3.006328,0 c -0.284434,-0.38364 -0.426647,-0.84666 -0.426641,-1.38906 l 0,-5.57609"
         id="path3304" />
      <path
         style="line-height:89.99999762%;font-family:Gunplay;-inkscape-font-specification:Gunplay;stroke-width:0.2"
         d="m 83.398035,-161.01124 -1.389062,-2.57969 0.545703,-0.9525 3.383359,0 -2.54,3.53219"
         id="path4405" />
      <path
         style="line-height:89.99999762%;font-family:Gunplay;-inkscape-font-specification:Gunplay;stroke-width:0.2"
         d="m 80.500848,-157.75687 0,-3.33375 1.22039,-2.05382 4.60375,8.40382 -3.055937,0 -2.123281,-4.05804 -0.644922,1.04179"
         id="path4403" />
      <path
         style="line-height:89.99999762%;font-family:Gunplay;-inkscape-font-specification:Gunplay;stroke-width:0.2"
         d="m 77.147254,-154.74062 0,-14.34703 2.986484,0 0,14.34703 -2.986484,0"
         id="path3306" />
      <path
         style="line-height:89.99999762%;font-family:Gunplay;-inkscape-font-specification:Gunplay;stroke-width:0.2"
         d="m 34.086317,-142.72324 -1.389062,-2.57969 0.545703,-0.9525 3.383359,0 -2.54,3.53219"
         id="path4371" />
      <path
         style="line-height:89.99999762%;font-family:Gunplay;-inkscape-font-specification:Gunplay;stroke-width:0.2"
         d="m 31.18913,-139.46887 0,-3.33375 1.22039,-2.05382 4.60375,8.40382 -3.055937,0 -2.123282,-4.05804 -0.644921,1.04179"
         id="path4369" />
      <path
         style="line-height:89.99999762%;font-family:Gunplay;-inkscape-font-specification:Gunplay;stroke-width:0.2"
         d="m 27.835536,-136.45262 0,-14.34703 2.986484,0 0,14.34703 -2.986484,0"
         id="path3308" />
      <path
         style="line-height:89.99999762%;font-family:Gunplay;-inkscape-font-specification:Gunplay;stroke-width:0.2"
         d="m 38.193973,-147.6048 0,-2.3118 2.986485,0 0,2.3118 -2.986485,0"
         id="path4375" />
      <path
         style="line-height:89.99999762%;font-family:Gunplay;-inkscape-font-specification:Gunplay;stroke-width:0.2"
         d="m 38.193973,-136.45262 0,-9.80281 2.956719,0 0,9.80281 -2.956719,0"
         id="path3310" />
      <path
         style="line-height:89.99999762%;font-family:Gunplay;-inkscape-font-specification:Gunplay;stroke-width:0.2"
         d="m 42.996161,-147.6048 0,-2.3118 2.986485,0 0,2.3118 -2.986485,0"
         id="path4379" />
      <path
         style="line-height:89.99999762%;font-family:Gunplay;-inkscape-font-specification:Gunplay;stroke-width:0.2"
         d="m 42.996161,-136.45262 0,-9.80281 2.956719,0 0,9.80281 -2.956719,0"
         id="path3312" />
      <path
         style="line-height:89.99999762%;font-family:Gunplay;-inkscape-font-specification:Gunplay;stroke-width:0.2"
         d="m 52.005223,-144.45957 c -0.251359,1e-5 -0.489484,0.0926 -0.714375,0.27781 l 0,-1.74625 c 0.568849,-0.37702 1.273302,-0.56223 2.11336,-0.55562 1.931449,-0.0132 2.890563,1.1774 2.877343,3.57187 l 0,3.23453 c 0.0066,2.20266 -0.892977,3.32052 -2.69875,3.3536 -0.88636,-0.0198 -1.650343,-0.22159 -2.291953,-0.60524 l 0,-1.68672 c 0.271193,0.21167 0.568849,0.30758 0.892969,0.28774 0.681296,0.007 1.028561,-0.30427 1.041797,-0.93266 l 0,-3.82984 c 0.0463,-0.89958 -0.360501,-1.35598 -1.220391,-1.36922"
         id="path4383" />
      <path
         style="line-height:89.99999762%;font-family:Gunplay;-inkscape-font-specification:Gunplay;stroke-width:0.2"
         d="m 47.798348,-136.45262 0,-14.34703 2.986485,0 0,14.34703 -2.986485,0"
         id="path3314" />
      <path
         style="line-height:89.99999762%;font-family:Gunplay;-inkscape-font-specification:Gunplay;stroke-width:0.2"
         d="m 66.074443,-139.78637 c 0.0066,2.27542 -1.257772,3.46576 -3.963128,3.5716 l 0,-2.15305 c 0.701139,-0.10583 0.963408,-0.52888 0.9568,-1.26972 l 0,-3.5818 c 0.0066,-0.66145 -0.255661,-1.03876 -0.9568,-1.13137 l 0,-2.17289 c 2.718585,0.0662 3.986269,1.21407 3.973049,3.44317 l -0.0099,3.29406"
         id="path4387" />
      <path
         style="line-height:89.99999762%;font-family:Gunplay;-inkscape-font-specification:Gunplay;stroke-width:0.2"
         d="m 60.567823,-139.63754 c 0.0066,0.80037 0.282108,1.2306 0.996487,1.29013 l 0,2.1332 c -2.745054,-0.0463 -4.035889,-1.25044 -4.042503,-3.61184 l 0,-3.31391 c 0.0066,-2.22249 1.297449,-3.35 4.042503,-3.38308 l 0,2.15305 c -0.68792,0.0397 -0.963418,0.42306 -0.996487,1.15065 l 0,3.5818"
         id="path3316" />
      <path
         style="line-height:89.99999762%;font-family:Gunplay;-inkscape-font-specification:Gunplay;stroke-width:0.2"
         d="m 76.264207,-136.45262 -3.075781,0 0,-6.63773 c 0.0463,-0.89958 -0.3605,-1.35598 -1.22039,-1.36922 -0.251359,1e-5 -0.489484,0.0926 -0.714375,0.27781 l 0,-1.74625 c 0.568849,-0.37702 1.273301,-0.56223 2.113359,-0.55562 1.878533,-0.0132 2.837647,1.11787 2.877344,3.39328 l 0.01984,0 0,6.63773"
         id="path4391" />
      <path
         style="line-height:89.99999762%;font-family:Gunplay;-inkscape-font-specification:Gunplay;stroke-width:0.2"
         d="m 67.761158,-136.45262 0,-14.34703 2.986484,0 0,14.34703 -2.986484,0"
         id="path3318" />
      <path
         style="line-height:89.99999762%;font-family:Gunplay;-inkscape-font-specification:Gunplay;stroke-width:0.2"
         d="m 82.693582,-136.45262 0,-14.34703 2.986484,0 0,14.34703 -2.986484,0"
         id="path4395" />
      <path
         style="line-height:89.99999762%;font-family:Gunplay;-inkscape-font-specification:Gunplay;stroke-width:0.2"
         d="m 81.473191,-144.45957 c -0.866514,0.0132 -1.27331,0.46964 -1.22039,1.36922 l 0,3.82984 c 0.01322,0.62839 0.360491,0.93928 1.041797,0.93266 0.324109,0.0198 0.621765,-0.0761 0.892968,-0.28774 l 0,1.68672 c -0.641619,0.38365 -1.405603,0.58539 -2.291953,0.60524 -1.805782,-0.0331 -2.705365,-1.15094 -2.69875,-3.3536 l 0,-3.23453 c -0.01323,-2.39447 0.945884,-3.58509 2.877344,-3.57187 0.840048,-0.007 1.5445,0.1786 2.113359,0.55562 l 0,1.74625 c -0.224901,-0.1852 -0.463026,-0.2778 -0.714375,-0.27781"
         id="path3320" />
    </g>
  </g>
  <g
     inkscape:groupmode="layer"
     id="g4248"
     inkscape:label="Case_Drills_Small"
     style="display:none">
    <polygon
       points="175.939,155.919 176.357,155.706 176.821,155.633 177.284,155.706 177.702,155.919 178.034,156.251 178.247,156.669 178.321,157.133 178.247,157.596 178.034,158.014 177.702,158.346 177.284,158.559 176.821,158.633 176.357,158.559 175.939,158.346 175.607,158.014 175.394,157.596 175.321,157.133 175.394,156.669 175.607,156.251 "
       style="display:inline;fill:none;stroke:#000000;stroke-width:0.26086956"
       id="polygon4250"
       transform="matrix(0.76666667,0,0,0.76666667,20.373805,35.891021)" />
    <polygon
       points="175.939,8.786 176.357,8.573 176.821,8.5 177.284,8.573 177.702,8.786 178.034,9.118 178.247,9.536 178.321,10 178.247,10.464 178.034,10.882 177.702,11.214 177.284,11.427 176.821,11.5 176.357,11.427 175.939,11.214 175.607,10.882 175.394,10.464 175.321,10 175.394,9.536 175.607,9.118 "
       style="display:inline;fill:none;stroke:#000000;stroke-width:0.26086956"
       id="polygon4252"
       transform="matrix(0.76666667,0,0,0.76666667,41.425367,2.3333421)" />
    <polygon
       points="8.786,158.014 8.573,157.596 8.5,157.133 8.573,156.669 8.786,156.251 9.118,155.919 9.536,155.706 10,155.633 10.464,155.706 10.882,155.919 11.214,156.251 11.427,156.669 11.5,157.133 11.427,157.596 11.214,158.014 10.882,158.346 10.464,158.559 10,158.633 9.536,158.559 9.118,158.346 "
       style="display:inline;fill:none;stroke:#000000;stroke-width:0.26086956"
       id="polygon4254"
       transform="matrix(0.76666667,0,0,0.76666667,2.3333333,-3.4356329)" />
    <polygon
       points="8.573,10.464 8.5,10 8.573,9.536 8.786,9.118 9.118,8.786 9.536,8.573 10,8.5 10.464,8.573 10.882,8.786 11.214,9.118 11.427,9.536 11.5,10 11.427,10.464 11.214,10.882 10.882,11.214 10.464,11.427 10,11.5 9.536,11.427 9.118,11.214 8.786,10.882 "
       style="display:inline;fill:none;stroke:#000000;stroke-width:0.26086956"
       id="polygon4256"
       transform="matrix(0.76666667,0,0,0.76666667,2.3333333,2.3333421)" />
    <polygon
       transform="matrix(0.76666666,0,0,0.76666666,86.468641,0.616341)"
       id="use3342"
       style="display:inline;fill:none;stroke:#000000;stroke-width:0.26086956"
       points="8.786,158.014 8.573,157.596 8.5,157.133 8.573,156.669 8.786,156.251 9.118,155.919 9.536,155.706 10,155.633 10.464,155.706 10.882,155.919 11.214,156.251 11.427,156.669 11.5,157.133 11.427,157.596 11.214,158.014 10.882,158.346 10.464,158.559 10,158.633 9.536,158.559 9.118,158.346 " />
    <polygon
       transform="matrix(0.76666666,0,0,0.76666666,41.425364,112.42489)"
       id="use3348"
       style="display:inline;fill:none;stroke:#000000;stroke-width:0.26086956"
       points="177.702,8.786 178.034,9.118 178.247,9.536 178.321,10 178.247,10.464 178.034,10.882 177.702,11.214 177.284,11.427 176.821,11.5 176.357,11.427 175.939,11.214 175.607,10.882 175.394,10.464 175.321,10 175.394,9.536 175.607,9.118 175.939,8.786 176.357,8.573 176.821,8.5 177.284,8.573 " />
    <use
       x="0"
       y="0"
       xlink:href="#polygon4252"
       id="use4409"
       transform="translate(-82.973319,0)"
       width="100%"
       height="100%" />
  </g>
  <g
     style="display:none"
     inkscape:label="Case_Drills_Small_Extra"
     id="g4363"
     inkscape:groupmode="layer">
    <polygon
       transform="matrix(0.76666667,0,0,0.76666667,20.373805,35.891021)"
       id="polygon4365"
       style="display:inline;fill:none;stroke:#000000;stroke-width:0.26086956"
       points="175.394,157.596 175.321,157.133 175.394,156.669 175.607,156.251 175.939,155.919 176.357,155.706 176.821,155.633 177.284,155.706 177.702,155.919 178.034,156.251 178.247,156.669 178.321,157.133 178.247,157.596 178.034,158.014 177.702,158.346 177.284,158.559 176.821,158.633 176.357,158.559 175.939,158.346 175.607,158.014 " />
    <polygon
       transform="matrix(0.76666666,0,0,0.76666666,96.064196,-20.832538)"
       id="polygon4373"
       style="display:inline;fill:none;stroke:#000000;stroke-width:0.26086956"
       points="11.214,158.014 10.882,158.346 10.464,158.559 10,158.633 9.536,158.559 9.118,158.346 8.786,158.014 8.573,157.596 8.5,157.133 8.573,156.669 8.786,156.251 9.118,155.919 9.536,155.706 10,155.633 10.464,155.706 10.882,155.919 11.214,156.251 11.427,156.669 11.5,157.133 11.427,157.596 " />
    <polygon
       transform="matrix(0.76666666,0,0,0.76666666,86.468641,0.616341)"
       id="use4377"
       style="display:inline;fill:none;stroke:#000000;stroke-width:0.26086956"
       points="11.214,158.014 10.882,158.346 10.464,158.559 10,158.633 9.536,158.559 9.118,158.346 8.786,158.014 8.573,157.596 8.5,157.133 8.573,156.669 8.786,156.251 9.118,155.919 9.536,155.706 10,155.633 10.464,155.706 10.882,155.919 11.214,156.251 11.427,156.669 11.5,157.133 11.427,157.596 " />
    <polygon
       transform="matrix(0.76666666,0,0,0.76666666,41.425364,112.42489)"
       id="use4379"
       style="display:inline;fill:none;stroke:#000000;stroke-width:0.26086956"
       points="176.821,8.5 177.284,8.573 177.702,8.786 178.034,9.118 178.247,9.536 178.321,10 178.247,10.464 178.034,10.882 177.702,11.214 177.284,11.427 176.821,11.5 176.357,11.427 175.939,11.214 175.607,10.882 175.394,10.464 175.321,10 175.394,9.536 175.607,9.118 175.939,8.786 176.357,8.573 " />
  </g>
  <g
     style="display:inline"
     inkscape:label="Case_Drills"
     id="layer2"
     inkscape:groupmode="layer">
    <polygon
       transform="translate(-20.884435,-0.7733518)"
       id="polygon8"
       style="display:inline;fill:none;stroke:#000000;stroke-width:0.2"
       points="175.939,155.919 176.357,155.706 176.821,155.633 177.284,155.706 177.702,155.919 178.034,156.251 178.247,156.669 178.321,157.133 178.247,157.596 178.034,158.014 177.702,158.346 177.284,158.559 176.821,158.633 176.357,158.559 175.939,158.346 175.607,158.014 175.394,157.596 175.321,157.133 175.394,156.669 175.607,156.251 " />
    <polygon
       transform="translate(0.16713326,8.8e-6)"
       id="polygon6"
       style="display:inline;fill:none;stroke:#000000;stroke-width:0.2"
       points="175.939,8.786 176.357,8.573 176.821,8.5 177.284,8.573 177.702,8.786 178.034,9.118 178.247,9.536 178.321,10 178.247,10.464 178.034,10.882 177.702,11.214 177.284,11.427 176.821,11.5 176.357,11.427 175.939,11.214 175.607,10.882 175.394,10.464 175.321,10 175.394,9.536 175.607,9.118 " />
    <polygon
       transform="translate(0,-40.099999)"
       id="polygon10"
       style="display:inline;fill:none;stroke:#000000;stroke-width:0.2"
       points="8.573,157.596 8.5,157.133 8.573,156.669 8.786,156.251 9.118,155.919 9.536,155.706 10,155.633 10.464,155.706 10.882,155.919 11.214,156.251 11.427,156.669 11.5,157.133 11.427,157.596 11.214,158.014 10.882,158.346 10.464,158.559 10,158.633 9.536,158.559 9.118,158.346 8.786,158.014 " />
    <polygon
       transform="translate(0,8.8e-6)"
       id="polygon12"
       style="display:inline;fill:none;stroke:#000000;stroke-width:0.2"
       points="8.5,10 8.573,9.536 8.786,9.118 9.118,8.786 9.536,8.573 10,8.5 10.464,8.573 10.882,8.786 11.214,9.118 11.427,9.536 11.5,10 11.427,10.464 11.214,10.882 10.882,11.214 10.464,11.427 10,11.5 9.536,11.427 9.118,11.214 8.786,10.882 8.573,10.464 " />
    <polygon
       points="9.118,158.346 8.786,158.014 8.573,157.596 8.5,157.133 8.573,156.669 8.786,156.251 9.118,155.919 9.536,155.706 10,155.633 10.464,155.706 10.882,155.919 11.214,156.251 11.427,156.669 11.5,157.133 11.427,157.596 11.214,158.014 10.882,158.346 10.464,158.559 10,158.633 9.536,158.559 "
       style="display:inline;fill:none;stroke:#000000;stroke-width:0.2"
       id="use3344"
       transform="translate(84.135308,-36.048027)" />
    <polygon
       points="178.247,9.536 178.321,10 178.247,10.464 178.034,10.882 177.702,11.214 177.284,11.427 176.821,11.5 176.357,11.427 175.939,11.214 175.607,10.882 175.394,10.464 175.321,10 175.394,9.536 175.607,9.118 175.939,8.786 176.357,8.573 176.821,8.5 177.284,8.573 177.702,8.786 178.034,9.118 "
       style="display:inline;fill:none;stroke:#000000;stroke-width:0.2"
       id="use3350"
       transform="translate(0.16712849,110.09156)" />
    <use
       x="0"
       y="0"
       xlink:href="#polygon6"
       id="use4411"
       transform="translate(-82.973319,0)"
       width="100%"
       height="100%" />
  </g>
  <g
     inkscape:groupmode="layer"
     id="g4345"
     inkscape:label="Case_Drills_Extra"
     style="display:none">
    <polygon
       points="175.394,156.669 175.607,156.251 175.939,155.919 176.357,155.706 176.821,155.633 177.284,155.706 177.702,155.919 178.034,156.251 178.247,156.669 178.321,157.133 178.247,157.596 178.034,158.014 177.702,158.346 177.284,158.559 176.821,158.633 176.357,158.559 175.939,158.346 175.607,158.014 175.394,157.596 175.321,157.133 "
       style="display:inline;fill:none;stroke:#000000;stroke-width:0.2"
       id="polygon4347"
       transform="translate(-20.884435,-0.7733518)" />
    <polygon
       points="10.882,158.346 10.464,158.559 10,158.633 9.536,158.559 9.118,158.346 8.786,158.014 8.573,157.596 8.5,157.133 8.573,156.669 8.786,156.251 9.118,155.919 9.536,155.706 10,155.633 10.464,155.706 10.882,155.919 11.214,156.251 11.427,156.669 11.5,157.133 11.427,157.596 11.214,158.014 "
       style="display:inline;fill:none;stroke:#000000;stroke-width:0.2"
       id="polygon4355"
       transform="translate(93.730863,-57.496906)" />
    <polygon
       points="10.882,158.346 10.464,158.559 10,158.633 9.536,158.559 9.118,158.346 8.786,158.014 8.573,157.596 8.5,157.133 8.573,156.669 8.786,156.251 9.118,155.919 9.536,155.706 10,155.633 10.464,155.706 10.882,155.919 11.214,156.251 11.427,156.669 11.5,157.133 11.427,157.596 11.214,158.014 "
       style="display:inline;fill:none;stroke:#000000;stroke-width:0.2"
       id="use4359"
       transform="translate(84.135308,-36.048027)" />
    <polygon
       points="176.821,8.5 177.284,8.573 177.702,8.786 178.034,9.118 178.247,9.536 178.321,10 178.247,10.464 178.034,10.882 177.702,11.214 177.284,11.427 176.821,11.5 176.357,11.427 175.939,11.214 175.607,10.882 175.394,10.464 175.321,10 175.394,9.536 175.607,9.118 175.939,8.786 176.357,8.573 "
       style="display:inline;fill:none;stroke:#000000;stroke-width:0.2"
       id="use4361"
       transform="translate(0.16712849,110.09156)" />
  </g>
  <g
     style="display:none"
     inkscape:label="Case_PCB_Mount"
     id="layer3"
     inkscape:groupmode="layer"
     sodipodi:insensitive="true">
    <rect
       style="display:inline;fill:none;stroke:#000000;stroke-width:0.19999997;stroke-miterlimit:4;stroke-dasharray:none;stroke-opacity:1"
       id="rect4147"
       width="34.799999"
       height="67.800003"
       x="138.48663"
       y="19.946342" />
  </g>
  <g
     inkscape:groupmode="layer"
     id="layer6"
     inkscape:label="Case_PCB_Drills"
     style="display:none"
     sodipodi:insensitive="true">
    <polygon
       transform="matrix(0.76666666,0,0,0.76666666,5.8238997,9.0796692)"
       id="polygon6-6"
       style="display:inline;fill:none;stroke:#000000;stroke-width:0.26086956"
       points="175.607,10.882 175.394,10.464 175.321,10 175.394,9.536 175.607,9.118 175.939,8.786 176.357,8.573 176.821,8.5 177.284,8.573 177.702,8.786 178.034,9.118 178.247,9.536 178.321,10 178.247,10.464 178.034,10.882 177.702,11.214 177.284,11.427 176.821,11.5 176.357,11.427 175.939,11.214 " />
    <polygon
       transform="matrix(0.76666666,0,0,0.76666666,34.823897,9.0796692)"
       id="polygon6-6-2"
       style="display:inline;fill:none;stroke:#000000;stroke-width:0.26086956"
       points="176.821,11.5 176.357,11.427 175.939,11.214 175.607,10.882 175.394,10.464 175.321,10 175.394,9.536 175.607,9.118 175.939,8.786 176.357,8.573 176.821,8.5 177.284,8.573 177.702,8.786 178.034,9.118 178.247,9.536 178.321,10 178.247,10.464 178.034,10.882 177.702,11.214 177.284,11.427 " />
    <polygon
       transform="matrix(0.76666666,0,0,0.76666666,5.8238993,83.07967)"
       id="polygon6-6-4"
       style="display:inline;fill:none;stroke:#000000;stroke-width:0.26086956"
       points="177.284,8.573 177.702,8.786 178.034,9.118 178.247,9.536 178.321,10 178.247,10.464 178.034,10.882 177.702,11.214 177.284,11.427 176.821,11.5 176.357,11.427 175.939,11.214 175.607,10.882 175.394,10.464 175.321,10 175.394,9.536 175.607,9.118 175.939,8.786 176.357,8.573 176.821,8.5 " />
    <polygon
       transform="matrix(0.76666666,0,0,0.76666666,34.823897,83.07967)"
       id="polygon6-6-2-2"
       style="display:inline;fill:none;stroke:#000000;stroke-width:0.26086956"
       points="175.394,9.536 175.607,9.118 175.939,8.786 176.357,8.573 176.821,8.5 177.284,8.573 177.702,8.786 178.034,9.118 178.247,9.536 178.321,10 178.247,10.464 178.034,10.882 177.702,11.214 177.284,11.427 176.821,11.5 176.357,11.427 175.939,11.214 175.607,10.882 175.394,10.464 175.321,10 " />
  </g>
  <g
     inkscape:groupmode="layer"
     id="g4145"
     inkscape:label="Case_PCB"
     style="display:none"
     sodipodi:insensitive="true">
    <rect
       y="13.846338"
       x="138.48663"
       height="79.800003"
       width="34.799999"
       id="rect3059"
       style="display:inline;fill:none;stroke:#000000;stroke-width:0.19999999;stroke-miterlimit:4;stroke-dasharray:none;stroke-opacity:1" />
  </g>
  <g
     style="display:none"
     inkscape:label="Case"
     id="layer1"
     inkscape:groupmode="layer"
     sodipodi:insensitive="true">
    <polygon
       transform="translate(0,8.8082758e-6)"
       id="polygon4"
       style="display:inline;fill:none;stroke:#000000;stroke-width:0.2"
       points="7.061,161.178 6.753,160.935 6.464,160.668 6.198,160.38 5.955,160.071 5.737,159.745 5.545,159.402 5.381,159.046 5.245,158.678 5.138,158.3 5.062,157.915 5.015,157.525 5,157.133 5,10 5.015,9.608 5.062,9.218 5.138,8.833 5.245,8.455 5.381,8.087 5.545,7.73 5.737,7.388 5.955,7.061 6.198,6.753 6.464,6.464 6.753,6.198 7.061,5.955 7.388,5.737 7.73,5.545 8.087,5.381 8.455,5.245 8.833,5.138 9.218,5.062 9.608,5.015 10,5 176.821,5 177.213,5.015 177.603,5.062 177.988,5.138 178.366,5.245 178.734,5.381 179.091,5.545 179.433,5.737 179.759,5.955 180.068,6.198 180.356,6.464 180.623,6.753 180.866,7.061 181.084,7.388 181.276,7.73 181.44,8.087 181.576,8.455 181.682,8.833 181.759,9.218 181.805,9.608 181.821,10 181.821,157.133 181.805,157.525 181.759,157.915 181.682,158.3 181.576,158.678 181.44,159.046 181.276,159.402 181.084,159.745 180.866,160.071 180.623,160.38 180.356,160.668 180.068,160.935 179.759,161.178 179.433,161.396 179.091,161.588 178.734,161.752 178.366,161.888 177.988,161.994 177.603,162.071 177.213,162.117 176.821,162.133 10,162.133 9.608,162.117 9.218,162.071 8.833,161.994 8.455,161.888 8.087,161.752 7.73,161.588 7.388,161.396 " />
  </g>
  <g
     inkscape:groupmode="layer"
     id="g3172"
     inkscape:label="Case_Contour"
     style="display:inline">
    <path
       style="fill:none;stroke:#000000;stroke-width:1px;stroke-linecap:butt;stroke-linejoin:miter;stroke-opacity:1"
       d="m 31.889764,432.75474 c -3.716184,0.12054 -7.457723,-1.34631 -10.10183,-3.96036 -2.681331,-2.65085 -4.193631,-6.44437 -4.071398,-10.21287 l 0,-386.220477 c 0.333131,-3.640796 1.989005,-7.146199 4.589577,-9.715906 2.556224,-2.525886 6.004942,-4.129873 9.583651,-4.457323 l 598.818906,0 c 3.64034,0.292194 7.15807,1.92444 9.7317,4.515553 2.54904,2.566355 4.15213,6.052123 4.44153,9.657676 l 0,363.952757 c 0,10.45988 0.24452,21.00837 -1.69136,31.28755 -1.2361,6.56351 -3.42683,12.94645 -6.48187,18.88568 l -68.86615,116 c -1.34852,2.83386 -3.54422,5.25796 -6.23124,6.87943 -2.68702,1.62147 -5.85513,2.43413 -8.99088,2.30629 -2.89652,-0.11809 -5.71421,-1.0117 -8.36223,-2.19143 -2.64803,-1.17972 -5.16042,-2.6393 -7.67549,-4.0809 L 317.52756,439.84135 c -4.01907,-2.30367 -8.1485,-4.51674 -12.62992,-5.69004 -5.39705,-1.41303 -11.05096,-1.39657 -16.62992,-1.39657 l -256.377956,0 z"
       id="path4141"
       inkscape:path-effect="#path-effect4143"
       inkscape:original-d="m 31.889764,432.75474 c 0,0 -7.537064,-1.41021 -10.10183,-3.96036 -2.598824,-2.58401 -4.071398,-10.21287 -4.071398,-10.21287 l 0,-386.220477 c 0,0 2.04932,-7.190768 4.589577,-9.715906 2.498678,-2.483805 9.583651,-4.457323 9.583651,-4.457323 l 598.818906,0 c 0,0 7.2073,1.982593 9.7317,4.515553 2.50128,2.509763 4.44153,9.657676 4.44153,9.657676 l 0,363.952757 c 0,0 0.30487,21.03568 -1.69136,31.28755 -1.2721,6.53299 0.60474,15.34237 -6.48187,18.88568 l -68.86615,116 c 0,0 -9.31724,8.68218 -15.22212,9.18572 -5.71946,0.48773 -16.03772,-6.27233 -16.03772,-6.27233 L 317.52756,439.84135 c 0,0 -8.16004,-4.53185 -12.62992,-5.69004 -5.38499,-1.39531 -16.62992,-1.39657 -16.62992,-1.39657 z"
       inkscape:connector-curvature="0"
       sodipodi:nodetypes="caccaccaccaccaccacc"
       transform="matrix(0.28222222,0,0,0.28222222,0,-1.3705992e-6)" />
  </g>
  <g
     style="display:none"
     inkscape:label="Case_Inner_Contour"
     id="g4242"
     inkscape:groupmode="layer">
    <path
       sodipodi:nodetypes="ccccccc"
       inkscape:connector-curvature="0"
       inkscape:original-d="m 14.143908,116.7009 c 10.872603,-35.713787 -17.2380949,-82.939611 0,-104.533438 18.328912,1.80211 157.976582,-13.09411967 160.199782,0 -13.21117,31.407343 22.93403,80.250514 -0.0205,104.547848 -5.35336,1.57571 -14.78474,37.51362 -20.84706,35.89427 -27.93593,-4.34584 -40.91106,-33.74647 -61.329225,-35.82512 -16.986649,-7.59248 -64.951168,11.57399 -78.002977,-0.0836 z"
       inkscape:path-effect="#path-effect3182"
       id="path4244"
       d="m 14.143908,116.7009 0,-104.533438 160.199782,0 -0.0205,104.547848 -20.84706,35.89427 -61.329225,-35.82512 -78.002977,-0.0836 -2e-5,4e-5 z"
       style="fill:none;stroke:#000000;stroke-width:0.28222221px;stroke-linecap:butt;stroke-linejoin:miter;stroke-opacity:1" />
  </g>
  <g
     inkscape:groupmode="layer"
     id="g4292"
     inkscape:label="Case_Inner_Contour_Top"
     style="display:inline">
    <path
       style="fill:none;stroke:#000000;stroke-width:0.28222221px;stroke-linecap:butt;stroke-linejoin:miter;stroke-opacity:1"
       d="m 14.686222,116.033 0,-77.1 23.712778,0 0,-18.999999 19.481,0 0,-4.819999 19.02,0 0,-2.48 19.100001,0 0,2.52 19.100019,-5e-4 -4e-5,2.280999 19.38006,5e-4 -1.1e-4,76.998996 -19.88008,0 1.5e-4,-2.277 -18.262999,0 0,21.052003 -19.400629,0 -5e-4,2.825 -62.24965,0 z"
       id="path4294"
       inkscape:path-effect="#path-effect4246"
       inkscape:original-d="m 14.686222,116.033 c 1.072035,-25.654788 0.273554,-51.434834 0,-77.1 l 23.712778,0 0,-18.999999 19.481,0 0,-4.819999 c 6.654074,0.274074 22.637403,-18.5344785 19.02,0 l 0,-2.48 19.100001,0 0,2.52 19.100019,-5e-4 -4e-5,2.280999 19.38006,5e-4 -1.1e-4,76.998996 -19.88008,0 1.5e-4,-2.277 -18.262999,0 0,21.052003 -19.400629,0 -5e-4,2.825 c 20.257323,-0.25736 -82.508606,0.006 -62.24965,0 z"
       inkscape:connector-curvature="0"
       sodipodi:nodetypes="ccccccccccccccccccccc" />
    <path
       style="fill:none;stroke:#000000;stroke-width:1px;stroke-linecap:butt;stroke-linejoin:miter;stroke-opacity:1"
       d="M 357.14536,433.76048 536.25119,538.2425 610.1819,409.03661 559.18752,380.78953 575.57454,351.30838 504.063,310.91222 l -41.03918,69.68173 -57.17844,-32.40902 -48.70002,85.57555 z"
       id="path4300"
       inkscape:path-effect="#path-effect4302"
       inkscape:original-d="m 357.14536,433.76048 c 78.94125,41.04929 141.78707,82.95198 179.10583,104.48202 L 610.1819,409.03661 559.18752,380.78953 575.57454,351.30838 504.063,310.91222 463.02382,380.59395 405.84538,348.18493 Z"
       inkscape:connector-curvature="0"
       transform="matrix(0.28222222,0,0,0.28222222,0,-1.3705992e-6)"
       sodipodi:nodetypes="ccccccccc" />
    <polygon
       transform="matrix(1.4143201,0,0,1.4139295,-10.1612,-12.05162)"
       id="polygon3140"
       style="display:inline;fill:none;stroke:#000000;stroke-width:0.14143021"
       points="17.525,17.525 31.525,17.525 31.525,31.525 17.525,31.525 " />
  </g>
  <g
     style="display:none"
     inkscape:label="Case_Switches"
     id="layer4"
     inkscape:groupmode="layer">
    <polygon
       transform="translate(2.426138e-8,-1.8999987)"
       id="polygon14"
       style="display:inline;fill:none;stroke:#000000;stroke-width:0.2"
       points="17.525,17.525 31.525,17.525 31.525,31.525 17.525,31.525 " />
    <polygon
       transform="translate(2.426138e-8,-1.8999987)"
       id="polygon16"
       style="display:inline;fill:none;stroke:#000000;stroke-width:0.2"
       points="19.906,43.719 33.906,43.719 33.906,57.719 19.906,57.719 " />
    <polygon
       transform="translate(2.426138e-8,-1.8999987)"
       id="polygon18"
       style="display:inline;fill:none;stroke:#000000;stroke-width:0.2"
       points="19.906,62.769 33.906,62.769 33.906,76.769 19.906,76.769 " />
    <polygon
       transform="translate(2.426138e-8,-1.8999987)"
       id="polygon20"
       style="display:inline;fill:none;stroke:#000000;stroke-width:0.2"
       points="19.906,81.819 33.906,81.819 33.906,95.819 19.906,95.819 " />
    <polygon
       transform="translate(2.426138e-8,-1.8999987)"
       id="polygon22"
       style="display:inline;fill:none;stroke:#000000;stroke-width:0.2"
       points="19.906,100.964 33.906,100.964 33.906,114.964 19.906,114.964 " />
    <polygon
       transform="translate(2.426138e-8,-1.8999987)"
       id="polygon24"
       style="display:inline;fill:none;stroke:#000000;stroke-width:0.2"
       points="41.337,24.764 55.337,24.764 55.337,38.764 41.337,38.764 " />
    <polygon
       transform="translate(2.426138e-8,-1.8999987)"
       id="polygon26"
       style="display:inline;fill:none;stroke:#000000;stroke-width:0.2"
       points="41.337,43.814 55.337,43.814 55.337,57.814 41.337,57.814 " />
    <polygon
       transform="translate(2.426138e-8,-1.8999987)"
       id="polygon28"
       style="display:inline;fill:none;stroke:#000000;stroke-width:0.2"
       points="41.337,62.864 55.337,62.864 55.337,76.864 41.337,76.864 " />
    <polygon
       transform="translate(2.426138e-8,-1.8999987)"
       id="polygon30"
       style="display:inline;fill:none;stroke:#000000;stroke-width:0.2"
       points="41.337,81.914 55.337,81.914 55.337,95.914 41.337,95.914 " />
    <polygon
       transform="translate(2.426138e-8,-1.8999987)"
       id="polygon32"
       style="display:inline;fill:none;stroke:#000000;stroke-width:0.2"
       points="41.337,100.964 55.337,100.964 55.337,114.964 41.337,114.964 " />
    <polygon
       transform="translate(2.426138e-8,-1.8999987)"
       id="polygon34"
       style="display:inline;fill:none;stroke:#000000;stroke-width:0.2"
       points="60.388,20.002 74.388,20.002 74.388,34.002 60.388,34.002 " />
    <polygon
       transform="translate(2.426138e-8,-1.8999987)"
       id="polygon36"
       style="display:inline;fill:none;stroke:#000000;stroke-width:0.2"
       points="60.388,39.052 74.388,39.052 74.388,53.052 60.388,53.052 " />
    <polygon
       transform="translate(2.426138e-8,-1.8999987)"
       id="polygon38"
       style="display:inline;fill:none;stroke:#000000;stroke-width:0.2"
       points="60.388,58.102 74.388,58.102 74.388,72.102 60.388,72.102 " />
    <polygon
       transform="translate(2.426138e-8,-1.8999987)"
       id="polygon40"
       style="display:inline;fill:none;stroke:#000000;stroke-width:0.2"
       points="60.388,77.152 74.388,77.152 74.388,91.152 60.388,91.152 " />
    <polygon
       transform="translate(2.426138e-8,-1.8999987)"
       id="polygon42"
       style="display:inline;fill:none;stroke:#000000;stroke-width:0.2"
       points="60.388,98.583 74.388,98.583 74.388,112.583 60.388,112.583 " />
    <polygon
       transform="translate(2.426138e-8,-1.8999987)"
       id="polygon44"
       style="display:inline;fill:none;stroke:#000000;stroke-width:0.2"
       points="79.438,17.525 93.438,17.525 93.438,31.525 79.438,31.525 " />
    <polygon
       transform="translate(2.426138e-8,-1.8999987)"
       id="polygon46"
       style="display:inline;fill:none;stroke:#000000;stroke-width:0.2"
       points="79.438,36.575 93.438,36.575 93.438,50.575 79.438,50.575 " />
    <polygon
       transform="translate(2.426138e-8,-1.8999987)"
       id="polygon48"
       style="display:inline;fill:none;stroke:#000000;stroke-width:0.2"
       points="79.438,55.625 93.438,55.625 93.438,69.625 79.438,69.625 " />
    <polygon
       transform="translate(2.426138e-8,-1.8999987)"
       id="polygon50"
       style="display:inline;fill:none;stroke:#000000;stroke-width:0.2"
       points="79.438,74.675 93.438,74.675 93.438,88.675 79.438,88.675 " />
    <polygon
       transform="translate(2.426138e-8,-1.8999987)"
       id="polygon52"
       style="display:inline;fill:none;stroke:#000000;stroke-width:0.2"
       points="98.488,20.002 112.488,20.002 112.488,34.002 98.488,34.002 " />
    <polygon
       transform="translate(2.426138e-8,-1.8999987)"
       id="polygon54"
       style="display:inline;fill:none;stroke:#000000;stroke-width:0.2"
       points="98.488,39.052 112.488,39.052 112.488,53.052 98.488,53.052 " />
    <polygon
       transform="translate(2.426138e-8,-1.8999987)"
       id="polygon56"
       style="display:inline;fill:none;stroke:#000000;stroke-width:0.2"
       points="98.488,58.102 112.488,58.102 112.488,72.102 98.488,72.102 " />
    <polygon
       transform="translate(2.426138e-8,-1.8999987)"
       id="polygon58"
       style="display:inline;fill:none;stroke:#000000;stroke-width:0.2"
       points="98.488,77.152 112.488,77.152 112.488,91.152 98.488,91.152 " />
    <polygon
       transform="translate(0,8.8082758e-6)"
       id="polygon60"
       style="display:inline;fill:none;stroke:#000000;stroke-width:0.2"
       points="125.851,113.384 113.726,106.384 106.726,118.509 118.851,125.509 " />
    <polygon
       transform="translate(2.426138e-8,-1.8999987)"
       id="polygon62"
       style="display:inline;fill:none;stroke:#000000;stroke-width:0.2;stroke-miterlimit:4;stroke-dasharray:none"
       points="117.538,22.288 131.538,22.288 131.538,36.288 117.538,36.288 " />
    <polygon
       transform="translate(2.426138e-8,-1.8999987)"
       id="polygon64"
       style="display:inline;fill:none;stroke:#000000;stroke-width:0.2"
       points="117.538,41.338 131.538,41.338 131.538,55.338 117.538,55.338 " />
    <polygon
       transform="translate(2.426138e-8,-1.8999987)"
       id="polygon66"
       style="display:inline;fill:none;stroke:#000000;stroke-width:0.2"
       points="117.538,60.388 131.538,60.388 131.538,74.388 117.538,74.388 " />
    <polygon
       transform="translate(2.426138e-8,-1.8999987)"
       id="polygon68"
       style="display:inline;fill:none;stroke:#000000;stroke-width:0.2"
       points="117.538,79.438 131.538,79.438 131.538,93.438 117.538,93.438 " />
    <polygon
       transform="translate(0,8.8082758e-6)"
       id="polygon70"
       style="display:inline;fill:none;stroke:#000000;stroke-width:0.2"
       points="127.15,124.174 126.354,123.714 128.004,120.856 128.8,121.316 129.663,119.822 130.356,120.222 131.143,118.858 129.177,117.723 136.177,105.598 138.143,106.733 138.931,105.369 138.238,104.969 139.1,103.475 138.304,103.015 139.954,100.158 140.75,100.618 141.563,99.21 144.36,100.825 144.798,100.068 147.223,101.468 146.785,102.225 152.215,105.36 151.403,106.768 152.251,107.258 150.601,110.115 149.753,109.625 148.89,111.119 148.197,110.719 147.41,112.083 148.302,112.598 141.302,124.723 140.41,124.208 139.622,125.572 140.315,125.972 139.453,127.466 140.301,127.956 138.651,130.814 137.803,130.324 136.99,131.731 131.56,128.596 131.123,129.354 128.698,127.954 129.135,127.196 126.338,125.581 " />
    <polygon
       transform="translate(0,8.8082758e-6)"
       id="polygon72"
       style="display:inline;fill:none;stroke:#000000;stroke-width:0.2"
       points="141.267,137.823 140.47,137.363 142.12,134.505 142.917,134.965 143.779,133.471 144.472,133.871 145.26,132.507 143.294,131.372 150.294,119.248 152.26,120.383 153.047,119.019 152.354,118.619 153.217,117.125 152.42,116.665 154.07,113.807 154.867,114.267 155.679,112.86 158.477,114.475 158.914,113.717 161.339,115.117 160.902,115.875 166.332,119.01 165.519,120.417 166.368,120.907 164.718,123.765 163.869,123.275 163.007,124.769 162.314,124.369 161.526,125.733 162.418,126.248 155.418,138.372 154.526,137.857 153.739,139.221 154.432,139.621 153.569,141.115 154.418,141.605 152.768,144.463 151.919,143.973 151.107,145.38 145.677,142.245 145.239,143.003 142.814,141.603 143.252,140.845 140.454,139.23 " />
    <polygon
       transform="translate(19.051874,-4.3788752)"
       id="polygon42-9"
       style="display:inline;fill:none;stroke:#000000;stroke-width:0.2"
       points="74.388,112.583 60.388,112.583 60.388,98.583 74.388,98.583 " />
  </g>
  <g
     inkscape:groupmode="layer"
     id="g3055"
     inkscape:label="Case_Switches_Top"
     style="display:none"
     sodipodi:insensitive="true">
    <polygon
       points="31.525,31.525 17.525,31.525 17.525,17.525 31.525,17.525 "
       style="display:inline;fill:none;stroke:#000000;stroke-width:0.14141412"
       id="polygon3057"
       transform="matrix(1.4142857,0,0,1.4142857,-10.160357,-12.060355)" />
    <polygon
       points="106.726,118.509 118.851,125.509 125.851,113.384 113.726,106.384 "
       style="display:inline;fill:none;stroke:#000000;stroke-width:0.2"
       id="polygon3103"
       transform="translate(0,8.8082758e-6)" />
    <path
       style="display:inline;fill:none;stroke:#000000;stroke-width:0.7086615"
       d="m 481.4375,497.78125 58.34375,33.6875 L 605.71875,417.25 547.375,383.5625 555.53125,369 l -58.1875,-33.59375 -65.75,113.90625 58.1875,33.59375 z"
       transform="matrix(0.28222222,0,0,0.28222222,0,-1.3705992e-6)"
       id="polygon3057-4-6-1-6-2-4"
       inkscape:connector-curvature="0"
       sodipodi:nodetypes="ccccccccc" />
    <use
       x="0"
       y="0"
       xlink:href="#polygon3057"
       id="use3114"
       transform="translate(2.3809993,26.194)"
       width="186.821"
       height="167.133" />
    <use
       x="0"
       y="0"
       xlink:href="#polygon3057"
       id="use3116"
       transform="translate(2.3809993,83.439)"
       width="186.821"
       height="167.133" />
    <use
       x="0"
       y="0"
       xlink:href="#polygon3057"
       id="use3118"
       transform="translate(23.811999,83.439)"
       width="186.821"
       height="167.133" />
    <use
       x="0"
       y="0"
       xlink:href="#polygon3057"
       id="use3120"
       transform="translate(42.862999,81.058)"
       width="186.821"
       height="167.133" />
    <polygon
       transform="matrix(1.4142857,0,0,1.4142857,70.802642,47.566644)"
       id="use3124"
       style="display:inline;fill:none;stroke:#000000;stroke-width:0.14141412"
       points="17.525,17.525 31.525,17.525 31.525,31.525 17.525,31.525 " />
    <use
       x="0"
       y="0"
       xlink:href="#use3124"
       id="use3126"
       transform="translate(19.05,2.286)"
       width="186.821"
       height="167.133" />
    <use
       x="0"
       y="0"
       xlink:href="#use3126"
       id="use3128"
       transform="translate(2.3176138e-7,-57.15)"
       width="186.821"
       height="167.133" />
    <use
       x="0"
       y="0"
       xlink:href="#use3128"
       id="use3130"
       transform="translate(-19.05,-2.286)"
       width="186.821"
       height="167.133" />
    <use
       x="0"
       y="0"
       xlink:href="#use3130"
       id="use3132"
       transform="translate(-19.05,-2.477)"
       width="186.821"
       height="167.133" />
    <use
       x="0"
       y="0"
       xlink:href="#use3132"
       id="use3134"
       transform="translate(-19.049999,2.477)"
       width="186.821"
       height="167.133" />
    <use
       x="0"
       y="0"
       xlink:href="#use3134"
       id="use3136"
       transform="translate(-19.051,4.762)"
       width="186.821"
       height="167.133" />
    <use
       x="0"
       y="0"
       xlink:href="#polygon3057"
       id="use3138"
       transform="matrix(0.8660254,0.5,-0.5,0.8660254,106.36173,84.090184)"
       width="186.821"
       height="167.133" />
    <use
       x="0"
       y="0"
       xlink:href="#use3120"
       id="use3642"
       transform="translate(1.2317614e-6,-21.431)"
       width="186.821"
       height="167.133" />
    <use
       x="0"
       y="0"
       xlink:href="#use3642"
       id="use3644"
       transform="translate(19.05,-2.4770005)"
       width="186.821"
       height="167.133" />
    <use
       x="0"
       y="0"
       xlink:href="#use3642"
       id="use3646"
       transform="translate(-19.051,4.7619995)"
       width="186.821"
       height="167.133" />
    <use
       style="display:inline"
       x="0"
       y="0"
       xlink:href="#polygon3057"
       id="use3120-8"
       transform="translate(61.914874,78.579135)"
       width="186.821"
       height="167.133" />
  </g>
  <g
     inkscape:groupmode="layer"
     id="layer7"
     inkscape:label="Case_Extras"
     style="display:none">
    <polygon
       points="17.525,31.525 17.525,17.525 31.525,17.525 31.525,31.525 "
       style="display:inline;fill:none;stroke:#000000;stroke-width:0.10645235"
       id="polygon3057-4-6-1-6-2"
       transform="matrix(1.3428571,0,0,2.6285714,15.937825,79.267286)" />
    <polygon
       points="31.525,31.525 17.525,31.525 17.525,17.525 31.525,17.525 "
       style="display:inline;fill:none;stroke:#000000;stroke-width:0.11451586"
       id="polygon3057-4-6-1-6-2-3"
       transform="matrix(1.3428571,0,0,2.2714286,38.920039,90.783474)" />
    <polygon
       transform="matrix(2.6,0,0,2.6,-303.79788,-252.18608)"
       id="polygon8-3"
       style="display:inline;fill:none;stroke:#000000;stroke-width:0.07692308"
       points="177.284,158.559 176.821,158.633 176.357,158.559 175.939,158.346 175.607,158.014 175.394,157.596 175.321,157.133 175.394,156.669 175.607,156.251 175.939,155.919 176.357,155.706 176.821,155.633 177.284,155.706 177.702,155.919 178.034,156.251 178.247,156.669 178.321,157.133 178.247,157.596 178.034,158.014 177.702,158.346 " />
    <use
       x="0"
       y="0"
       xlink:href="#polygon8-3"
       id="use3191"
       transform="translate(21.051565,-56.65113)"
       width="186.821"
       height="167.133" />
    <use
       x="0"
       y="0"
       xlink:href="#polygon8-3"
       id="use3193"
       transform="translate(21.05157,-146.35971)"
       width="186.821"
       height="167.133" />
    <use
       x="0"
       y="0"
       xlink:href="#use3193"
       id="use3195"
       transform="translate(-166.98814,-1.1999999e-6)"
       width="186.821"
       height="167.133" />
    <use
       x="0"
       y="0"
       xlink:href="#use3195"
       id="use3197"
       transform="translate(5.6070043e-8,107.03299)"
       width="186.821"
       height="167.133" />
    <use
       x="0"
       y="0"
       xlink:href="#use3197"
       id="use3199"
       transform="translate(93.730863,-17.396907)"
       width="186.821"
       height="167.133" />
    <rect
       style="fill:none;stroke:#000000;stroke-width:0.19999996;stroke-linejoin:miter;stroke-miterlimit:4;stroke-dasharray:none;stroke-opacity:1"
       id="rect3184"
       height="140"
       x="-26.955999"
       y="-2.8669987"
       width="0.099999957"
       transform="scale(-1,1)" />
    <use
       x="0"
       y="0"
       xlink:href="#use3199"
       id="use3346"
       transform="translate(-9.5955546,21.448879)"
       width="186.821"
       height="167.133" />
    <use
       x="0"
       y="0"
       xlink:href="#use3191"
       id="use3352"
       transform="translate(0,20.383033)"
       width="186.821"
       height="167.133" />
  </g>
</svg>
