<?xml version="1.0" encoding="UTF-8"?>
<!-- Generated by SVGo -->
<svg width="186.821mm" height="167.133mm" viewBox="0.000 0.000 186.821 167.133" xmlns="http://www.w3.org/2000/svg" xmlns:xlink="http://www.w3.org/1999/xlink">
<polygon points="171.821,5.000 172.605,5.031 173.385,5.123 174.155,5.276 174.911,5.489 175.647,5.761 176.360,6.090 177.046,6.474 177.698,6.910 178.315,7.396 178.892,7.929 179.425,8.506 179.911,9.122 180.347,9.775 180.731,10.460 181.059,11.173 181.331,11.910 181.544,12.666 181.697,13.436 181.790,14.215 181.821,15.000 181.821,152.133 181.790,152.917 181.697,153.697 181.544,154.467 181.331,155.223 181.059,155.959 180.731,156.672 180.347,157.357 179.911,158.010 179.425,158.627 178.892,159.204 178.315,159.737 177.698,160.223 177.046,160.659 176.360,161.043 175.647,161.371 174.911,161.643 174.155,161.856 173.385,162.009 172.605,162.102 171.821,162.133 15.000,162.133 14.215,162.102 13.436,162.009 12.666,161.856 11.910,161.643 11.173,161.371 10.460,161.043 9.775,160.659 9.122,160.223 8.506,159.737 7.929,159.204 7.396,158.627 6.910,158.010 6.474,157.357 6.090,156.672 5.761,155.959 5.489,155.223 5.276,154.467 5.123,153.697 5.031,152.917 5.000,152.133 5.000,15.000 5.031,14.215 5.123,13.436 5.276,12.666 5.489,11.910 5.761,11.173 6.090,10.460 6.474,9.775 6.910,9.122 7.396,8.506 7.929,7.929 8.506,7.396 9.122,6.910 9.775,6.474 10.460,6.090 11.173,5.761 11.910,5.489 12.666,5.276 13.436,5.123 14.215,5.031 15.000,5.000" style="fill:none;stroke-width:0.2;stroke:black"/>
<polygon points="176.821,8.500 177.284,8.573 177.702,8.786 178.034,9.118 178.247,9.536 178.321,10.000 178.247,10.464 178.034,10.882 177.702,11.214 177.284,11.427 176.821,11.500 176.357,11.427 175.939,11.214 175.607,10.882 175.394,10.464 175.321,10.000 175.394,9.536 175.607,9.118 175.939,8.786 176.357,8.573" style="fill:none;stroke-width:0.2;stroke:black"/>
<polygon points="176.821,155.633 177.284,155.706 177.702,155.919 178.034,156.251 178.247,156.669 178.321,157.133 178.247,157.596 178.034,158.014 177.702,158.346 177.284,158.559 176.821,158.633 176.357,158.559 175.939,158.346 175.607,158.014 175.394,157.596 175.321,157.133 175.394,156.669 175.607,156.251 175.939,155.919 176.357,155.706" style="fill:none;stroke-width:0.2;stroke:black"/>
<polygon points="10.000,155.633 10.464,155.706 10.882,155.919 11.214,156.251 11.427,156.669 11.500,157.133 11.427,157.596 11.214,158.014 10.882,158.346 10.464,158.559 10.000,158.633 9.536,158.559 9.118,158.346 8.786,158.014 8.573,157.596 8.500,157.133 8.573,156.669 8.786,156.251 9.118,155.919 9.536,155.706" style="fill:none;stroke-width:0.2;stroke:black"/>
<polygon points="10.000,8.500 10.464,8.573 10.882,8.786 11.214,9.118 11.427,9.536 11.500,10.000 11.427,10.464 11.214,10.882 10.882,11.214 10.464,11.427 10.000,11.500 9.536,11.427 9.118,11.214 8.786,10.882 8.573,10.464 8.500,10.000 8.573,9.536 8.786,9.118 9.118,8.786 9.536,8.573" style="fill:none;stroke-width:0.2;stroke:black"/>
<polygon points="17.525,31.525 17.525,17.525 31.525,17.525 31.525,31.525" style="fill:none;stroke-width:0.2;stroke:black"/>
<polygon points="19.906,57.719 19.906,43.719 33.906,43.719 33.906,57.719" style="fill:none;stroke-width:0.2;stroke:black"/>
<polygon points="19.906,76.769 19.906,62.769 33.906,62.769 33.906,76.769" style="fill:none;stroke-width:0.2;stroke:black"/>
<polygon points="19.906,95.819 19.906,81.819 33.906,81.819 33.906,95.819" style="fill:none;stroke-width:0.2;stroke:black"/>
<polygon points="19.906,114.964 19.906,100.964 33.906,100.964 33.906,114.964" style="fill:none;stroke-width:0.2;stroke:black"/>
<polygon points="41.337,38.764 41.337,24.764 55.337,24.764 55.337,38.764" style="fill:none;stroke-width:0.2;stroke:black"/>
<polygon points="41.337,57.814 41.337,43.814 55.337,43.814 55.337,57.814" style="fill:none;stroke-width:0.2;stroke:black"/>
<polygon points="41.337,76.864 41.337,62.864 55.337,62.864 55.337,76.864" style="fill:none;stroke-width:0.2;stroke:black"/>
<polygon points="41.337,95.914 41.337,81.914 55.337,81.914 55.337,95.914" style="fill:none;stroke-width:0.2;stroke:black"/>
<polygon points="41.337,114.964 41.337,100.964 55.337,100.964 55.337,114.964" style="fill:none;stroke-width:0.2;stroke:black"/>
<polygon points="60.388,34.002 60.388,20.002 74.388,20.002 74.388,34.002" style="fill:none;stroke-width:0.2;stroke:black"/>
<polygon points="60.388,53.052 60.388,39.052 74.388,39.052 74.388,53.052" style="fill:none;stroke-width:0.2;stroke:black"/>
<polygon points="60.388,72.102 60.388,58.102 74.388,58.102 74.388,72.102" style="fill:none;stroke-width:0.2;stroke:black"/>
<polygon points="60.388,91.152 60.388,77.152 74.388,77.152 74.388,91.152" style="fill:none;stroke-width:0.2;stroke:black"/>
<polygon points="60.388,112.583 60.388,98.583 74.388,98.583 74.388,112.583" style="fill:none;stroke-width:0.2;stroke:black"/>
<polygon points="79.438,31.525 79.438,17.525 93.438,17.525 93.438,31.525" style="fill:none;stroke-width:0.2;stroke:black"/>
<polygon points="79.438,50.575 79.438,36.575 93.438,36.575 93.438,50.575" style="fill:none;stroke-width:0.2;stroke:black"/>
<polygon points="79.438,69.625 79.438,55.625 93.438,55.625 93.438,69.625" style="fill:none;stroke-width:0.2;stroke:black"/>
<polygon points="79.438,88.675 79.438,74.675 93.438,74.675 93.438,88.675" style="fill:none;stroke-width:0.2;stroke:black"/>
<polygon points="79.438,110.106 79.438,96.106 93.438,96.106 93.438,110.106" style="fill:none;stroke-width:0.2;stroke:black"/>
<polygon points="98.488,34.002 98.488,20.002 112.488,20.002 112.488,34.002" style="fill:none;stroke-width:0.2;stroke:black"/>
<polygon points="98.488,53.052 98.488,39.052 112.488,39.052 112.488,53.052" style="fill:none;stroke-width:0.2;stroke:black"/>
<polygon points="98.488,72.102 98.488,58.102 112.488,58.102 112.488,72.102" style="fill:none;stroke-width:0.2;stroke:black"/>
<polygon points="98.488,91.152 98.488,77.152 112.488,77.152 112.488,91.152" style="fill:none;stroke-width:0.2;stroke:black"/>
<polygon points="125.851,113.384 113.726,106.384 106.726,118.509 118.851,125.509" style="fill:none;stroke-width:0.2;stroke:black"/>
<polygon points="117.538,36.288 117.538,22.288 131.538,22.288 131.538,36.288" style="fill:none;stroke-width:0.2;stroke:black"/>
<polygon points="117.538,55.338 117.538,41.338 131.538,41.338 131.538,55.338" style="fill:none;stroke-width:0.2;stroke:black"/>
<polygon points="117.538,74.388 117.538,60.388 131.538,60.388 131.538,74.388" style="fill:none;stroke-width:0.2;stroke:black"/>
<polygon points="117.538,93.438 117.538,79.438 131.538,79.438 131.538,93.438" style="fill:none;stroke-width:0.2;stroke:black"/>
<polygon points="150.601,110.115 149.753,109.625 148.890,111.119 148.197,110.719 147.410,112.083 148.302,112.598 141.302,124.723 140.410,124.208 139.622,125.572 140.315,125.972 139.453,127.466 140.301,127.956 138.651,130.814 137.803,130.324 136.990,131.731 131.560,128.596 131.123,129.354 128.698,127.954 129.135,127.196 126.338,125.581 127.150,124.174 126.354,123.714 128.004,120.856 128.800,121.316 129.663,119.822 130.356,120.222 131.143,118.858 129.177,117.723 136.177,105.598 138.143,106.733 138.931,105.369 138.238,104.969 139.100,103.475 138.304,103.015 139.954,100.158 140.750,100.618 141.563,99.210 144.360,100.825 144.798,100.068 147.223,101.468 146.785,102.225 152.215,105.360 151.403,106.768 152.251,107.258" style="fill:none;stroke-width:0.2;stroke:black"/>
<polygon points="164.718,123.765 163.869,123.275 163.007,124.769 162.314,124.369 161.526,125.733 162.418,126.248 155.418,138.372 154.526,137.857 153.739,139.221 154.432,139.621 153.569,141.115 154.418,141.605 152.768,144.463 151.919,143.973 151.107,145.380 145.677,142.245 145.239,143.003 142.814,141.603 143.252,140.845 140.454,139.230 141.267,137.823 140.470,137.363 142.120,134.505 142.917,134.965 143.779,133.471 144.472,133.871 145.260,132.507 143.294,131.372 150.294,119.248 152.260,120.383 153.047,119.019 152.354,118.619 153.217,117.125 152.420,116.665 154.070,113.807 154.867,114.267 155.679,112.860 158.477,114.475 158.914,113.717 161.339,115.117 160.902,115.875 166.332,119.010 165.519,120.417 166.368,120.907" style="fill:none;stroke-width:0.2;stroke:black"/>
</svg>