G75*
%MOIN*%
%OFA0B0*%
%FSLAX25Y25*%
%IPPOS*%
%LPD*%
%AMOC8*
5,1,8,0,0,1.08239X$1,22.5*
%
%ADD10C,0.00000*%
D10*
X0001600Y0002700D02*
X0001600Y0120810D01*
X0355931Y0120810D01*
X0355931Y0002700D01*
X0001600Y0002700D01*
X0105537Y0010574D02*
X0105539Y0010732D01*
X0105545Y0010890D01*
X0105555Y0011048D01*
X0105569Y0011206D01*
X0105587Y0011363D01*
X0105608Y0011520D01*
X0105634Y0011676D01*
X0105664Y0011832D01*
X0105697Y0011987D01*
X0105735Y0012140D01*
X0105776Y0012293D01*
X0105821Y0012445D01*
X0105870Y0012596D01*
X0105923Y0012745D01*
X0105979Y0012893D01*
X0106039Y0013039D01*
X0106103Y0013184D01*
X0106171Y0013327D01*
X0106242Y0013469D01*
X0106316Y0013609D01*
X0106394Y0013746D01*
X0106476Y0013882D01*
X0106560Y0014016D01*
X0106649Y0014147D01*
X0106740Y0014276D01*
X0106835Y0014403D01*
X0106932Y0014528D01*
X0107033Y0014650D01*
X0107137Y0014769D01*
X0107244Y0014886D01*
X0107354Y0015000D01*
X0107467Y0015111D01*
X0107582Y0015220D01*
X0107700Y0015325D01*
X0107821Y0015427D01*
X0107944Y0015527D01*
X0108070Y0015623D01*
X0108198Y0015716D01*
X0108328Y0015806D01*
X0108461Y0015892D01*
X0108596Y0015976D01*
X0108732Y0016055D01*
X0108871Y0016132D01*
X0109012Y0016204D01*
X0109154Y0016274D01*
X0109298Y0016339D01*
X0109444Y0016401D01*
X0109591Y0016459D01*
X0109740Y0016514D01*
X0109890Y0016565D01*
X0110041Y0016612D01*
X0110193Y0016655D01*
X0110346Y0016694D01*
X0110501Y0016730D01*
X0110656Y0016761D01*
X0110812Y0016789D01*
X0110968Y0016813D01*
X0111125Y0016833D01*
X0111283Y0016849D01*
X0111440Y0016861D01*
X0111599Y0016869D01*
X0111757Y0016873D01*
X0111915Y0016873D01*
X0112073Y0016869D01*
X0112232Y0016861D01*
X0112389Y0016849D01*
X0112547Y0016833D01*
X0112704Y0016813D01*
X0112860Y0016789D01*
X0113016Y0016761D01*
X0113171Y0016730D01*
X0113326Y0016694D01*
X0113479Y0016655D01*
X0113631Y0016612D01*
X0113782Y0016565D01*
X0113932Y0016514D01*
X0114081Y0016459D01*
X0114228Y0016401D01*
X0114374Y0016339D01*
X0114518Y0016274D01*
X0114660Y0016204D01*
X0114801Y0016132D01*
X0114940Y0016055D01*
X0115076Y0015976D01*
X0115211Y0015892D01*
X0115344Y0015806D01*
X0115474Y0015716D01*
X0115602Y0015623D01*
X0115728Y0015527D01*
X0115851Y0015427D01*
X0115972Y0015325D01*
X0116090Y0015220D01*
X0116205Y0015111D01*
X0116318Y0015000D01*
X0116428Y0014886D01*
X0116535Y0014769D01*
X0116639Y0014650D01*
X0116740Y0014528D01*
X0116837Y0014403D01*
X0116932Y0014276D01*
X0117023Y0014147D01*
X0117112Y0014016D01*
X0117196Y0013882D01*
X0117278Y0013746D01*
X0117356Y0013609D01*
X0117430Y0013469D01*
X0117501Y0013327D01*
X0117569Y0013184D01*
X0117633Y0013039D01*
X0117693Y0012893D01*
X0117749Y0012745D01*
X0117802Y0012596D01*
X0117851Y0012445D01*
X0117896Y0012293D01*
X0117937Y0012140D01*
X0117975Y0011987D01*
X0118008Y0011832D01*
X0118038Y0011676D01*
X0118064Y0011520D01*
X0118085Y0011363D01*
X0118103Y0011206D01*
X0118117Y0011048D01*
X0118127Y0010890D01*
X0118133Y0010732D01*
X0118135Y0010574D01*
X0118133Y0010416D01*
X0118127Y0010258D01*
X0118117Y0010100D01*
X0118103Y0009942D01*
X0118085Y0009785D01*
X0118064Y0009628D01*
X0118038Y0009472D01*
X0118008Y0009316D01*
X0117975Y0009161D01*
X0117937Y0009008D01*
X0117896Y0008855D01*
X0117851Y0008703D01*
X0117802Y0008552D01*
X0117749Y0008403D01*
X0117693Y0008255D01*
X0117633Y0008109D01*
X0117569Y0007964D01*
X0117501Y0007821D01*
X0117430Y0007679D01*
X0117356Y0007539D01*
X0117278Y0007402D01*
X0117196Y0007266D01*
X0117112Y0007132D01*
X0117023Y0007001D01*
X0116932Y0006872D01*
X0116837Y0006745D01*
X0116740Y0006620D01*
X0116639Y0006498D01*
X0116535Y0006379D01*
X0116428Y0006262D01*
X0116318Y0006148D01*
X0116205Y0006037D01*
X0116090Y0005928D01*
X0115972Y0005823D01*
X0115851Y0005721D01*
X0115728Y0005621D01*
X0115602Y0005525D01*
X0115474Y0005432D01*
X0115344Y0005342D01*
X0115211Y0005256D01*
X0115076Y0005172D01*
X0114940Y0005093D01*
X0114801Y0005016D01*
X0114660Y0004944D01*
X0114518Y0004874D01*
X0114374Y0004809D01*
X0114228Y0004747D01*
X0114081Y0004689D01*
X0113932Y0004634D01*
X0113782Y0004583D01*
X0113631Y0004536D01*
X0113479Y0004493D01*
X0113326Y0004454D01*
X0113171Y0004418D01*
X0113016Y0004387D01*
X0112860Y0004359D01*
X0112704Y0004335D01*
X0112547Y0004315D01*
X0112389Y0004299D01*
X0112232Y0004287D01*
X0112073Y0004279D01*
X0111915Y0004275D01*
X0111757Y0004275D01*
X0111599Y0004279D01*
X0111440Y0004287D01*
X0111283Y0004299D01*
X0111125Y0004315D01*
X0110968Y0004335D01*
X0110812Y0004359D01*
X0110656Y0004387D01*
X0110501Y0004418D01*
X0110346Y0004454D01*
X0110193Y0004493D01*
X0110041Y0004536D01*
X0109890Y0004583D01*
X0109740Y0004634D01*
X0109591Y0004689D01*
X0109444Y0004747D01*
X0109298Y0004809D01*
X0109154Y0004874D01*
X0109012Y0004944D01*
X0108871Y0005016D01*
X0108732Y0005093D01*
X0108596Y0005172D01*
X0108461Y0005256D01*
X0108328Y0005342D01*
X0108198Y0005432D01*
X0108070Y0005525D01*
X0107944Y0005621D01*
X0107821Y0005721D01*
X0107700Y0005823D01*
X0107582Y0005928D01*
X0107467Y0006037D01*
X0107354Y0006148D01*
X0107244Y0006262D01*
X0107137Y0006379D01*
X0107033Y0006498D01*
X0106932Y0006620D01*
X0106835Y0006745D01*
X0106740Y0006872D01*
X0106649Y0007001D01*
X0106560Y0007132D01*
X0106476Y0007266D01*
X0106394Y0007402D01*
X0106316Y0007539D01*
X0106242Y0007679D01*
X0106171Y0007821D01*
X0106103Y0007964D01*
X0106039Y0008109D01*
X0105979Y0008255D01*
X0105923Y0008403D01*
X0105870Y0008552D01*
X0105821Y0008703D01*
X0105776Y0008855D01*
X0105735Y0009008D01*
X0105697Y0009161D01*
X0105664Y0009316D01*
X0105634Y0009472D01*
X0105608Y0009628D01*
X0105587Y0009785D01*
X0105569Y0009942D01*
X0105555Y0010100D01*
X0105545Y0010258D01*
X0105539Y0010416D01*
X0105537Y0010574D01*
X0263018Y0010574D02*
X0263020Y0010732D01*
X0263026Y0010890D01*
X0263036Y0011048D01*
X0263050Y0011206D01*
X0263068Y0011363D01*
X0263089Y0011520D01*
X0263115Y0011676D01*
X0263145Y0011832D01*
X0263178Y0011987D01*
X0263216Y0012140D01*
X0263257Y0012293D01*
X0263302Y0012445D01*
X0263351Y0012596D01*
X0263404Y0012745D01*
X0263460Y0012893D01*
X0263520Y0013039D01*
X0263584Y0013184D01*
X0263652Y0013327D01*
X0263723Y0013469D01*
X0263797Y0013609D01*
X0263875Y0013746D01*
X0263957Y0013882D01*
X0264041Y0014016D01*
X0264130Y0014147D01*
X0264221Y0014276D01*
X0264316Y0014403D01*
X0264413Y0014528D01*
X0264514Y0014650D01*
X0264618Y0014769D01*
X0264725Y0014886D01*
X0264835Y0015000D01*
X0264948Y0015111D01*
X0265063Y0015220D01*
X0265181Y0015325D01*
X0265302Y0015427D01*
X0265425Y0015527D01*
X0265551Y0015623D01*
X0265679Y0015716D01*
X0265809Y0015806D01*
X0265942Y0015892D01*
X0266077Y0015976D01*
X0266213Y0016055D01*
X0266352Y0016132D01*
X0266493Y0016204D01*
X0266635Y0016274D01*
X0266779Y0016339D01*
X0266925Y0016401D01*
X0267072Y0016459D01*
X0267221Y0016514D01*
X0267371Y0016565D01*
X0267522Y0016612D01*
X0267674Y0016655D01*
X0267827Y0016694D01*
X0267982Y0016730D01*
X0268137Y0016761D01*
X0268293Y0016789D01*
X0268449Y0016813D01*
X0268606Y0016833D01*
X0268764Y0016849D01*
X0268921Y0016861D01*
X0269080Y0016869D01*
X0269238Y0016873D01*
X0269396Y0016873D01*
X0269554Y0016869D01*
X0269713Y0016861D01*
X0269870Y0016849D01*
X0270028Y0016833D01*
X0270185Y0016813D01*
X0270341Y0016789D01*
X0270497Y0016761D01*
X0270652Y0016730D01*
X0270807Y0016694D01*
X0270960Y0016655D01*
X0271112Y0016612D01*
X0271263Y0016565D01*
X0271413Y0016514D01*
X0271562Y0016459D01*
X0271709Y0016401D01*
X0271855Y0016339D01*
X0271999Y0016274D01*
X0272141Y0016204D01*
X0272282Y0016132D01*
X0272421Y0016055D01*
X0272557Y0015976D01*
X0272692Y0015892D01*
X0272825Y0015806D01*
X0272955Y0015716D01*
X0273083Y0015623D01*
X0273209Y0015527D01*
X0273332Y0015427D01*
X0273453Y0015325D01*
X0273571Y0015220D01*
X0273686Y0015111D01*
X0273799Y0015000D01*
X0273909Y0014886D01*
X0274016Y0014769D01*
X0274120Y0014650D01*
X0274221Y0014528D01*
X0274318Y0014403D01*
X0274413Y0014276D01*
X0274504Y0014147D01*
X0274593Y0014016D01*
X0274677Y0013882D01*
X0274759Y0013746D01*
X0274837Y0013609D01*
X0274911Y0013469D01*
X0274982Y0013327D01*
X0275050Y0013184D01*
X0275114Y0013039D01*
X0275174Y0012893D01*
X0275230Y0012745D01*
X0275283Y0012596D01*
X0275332Y0012445D01*
X0275377Y0012293D01*
X0275418Y0012140D01*
X0275456Y0011987D01*
X0275489Y0011832D01*
X0275519Y0011676D01*
X0275545Y0011520D01*
X0275566Y0011363D01*
X0275584Y0011206D01*
X0275598Y0011048D01*
X0275608Y0010890D01*
X0275614Y0010732D01*
X0275616Y0010574D01*
X0275614Y0010416D01*
X0275608Y0010258D01*
X0275598Y0010100D01*
X0275584Y0009942D01*
X0275566Y0009785D01*
X0275545Y0009628D01*
X0275519Y0009472D01*
X0275489Y0009316D01*
X0275456Y0009161D01*
X0275418Y0009008D01*
X0275377Y0008855D01*
X0275332Y0008703D01*
X0275283Y0008552D01*
X0275230Y0008403D01*
X0275174Y0008255D01*
X0275114Y0008109D01*
X0275050Y0007964D01*
X0274982Y0007821D01*
X0274911Y0007679D01*
X0274837Y0007539D01*
X0274759Y0007402D01*
X0274677Y0007266D01*
X0274593Y0007132D01*
X0274504Y0007001D01*
X0274413Y0006872D01*
X0274318Y0006745D01*
X0274221Y0006620D01*
X0274120Y0006498D01*
X0274016Y0006379D01*
X0273909Y0006262D01*
X0273799Y0006148D01*
X0273686Y0006037D01*
X0273571Y0005928D01*
X0273453Y0005823D01*
X0273332Y0005721D01*
X0273209Y0005621D01*
X0273083Y0005525D01*
X0272955Y0005432D01*
X0272825Y0005342D01*
X0272692Y0005256D01*
X0272557Y0005172D01*
X0272421Y0005093D01*
X0272282Y0005016D01*
X0272141Y0004944D01*
X0271999Y0004874D01*
X0271855Y0004809D01*
X0271709Y0004747D01*
X0271562Y0004689D01*
X0271413Y0004634D01*
X0271263Y0004583D01*
X0271112Y0004536D01*
X0270960Y0004493D01*
X0270807Y0004454D01*
X0270652Y0004418D01*
X0270497Y0004387D01*
X0270341Y0004359D01*
X0270185Y0004335D01*
X0270028Y0004315D01*
X0269870Y0004299D01*
X0269713Y0004287D01*
X0269554Y0004279D01*
X0269396Y0004275D01*
X0269238Y0004275D01*
X0269080Y0004279D01*
X0268921Y0004287D01*
X0268764Y0004299D01*
X0268606Y0004315D01*
X0268449Y0004335D01*
X0268293Y0004359D01*
X0268137Y0004387D01*
X0267982Y0004418D01*
X0267827Y0004454D01*
X0267674Y0004493D01*
X0267522Y0004536D01*
X0267371Y0004583D01*
X0267221Y0004634D01*
X0267072Y0004689D01*
X0266925Y0004747D01*
X0266779Y0004809D01*
X0266635Y0004874D01*
X0266493Y0004944D01*
X0266352Y0005016D01*
X0266213Y0005093D01*
X0266077Y0005172D01*
X0265942Y0005256D01*
X0265809Y0005342D01*
X0265679Y0005432D01*
X0265551Y0005525D01*
X0265425Y0005621D01*
X0265302Y0005721D01*
X0265181Y0005823D01*
X0265063Y0005928D01*
X0264948Y0006037D01*
X0264835Y0006148D01*
X0264725Y0006262D01*
X0264618Y0006379D01*
X0264514Y0006498D01*
X0264413Y0006620D01*
X0264316Y0006745D01*
X0264221Y0006872D01*
X0264130Y0007001D01*
X0264041Y0007132D01*
X0263957Y0007266D01*
X0263875Y0007402D01*
X0263797Y0007539D01*
X0263723Y0007679D01*
X0263652Y0007821D01*
X0263584Y0007964D01*
X0263520Y0008109D01*
X0263460Y0008255D01*
X0263404Y0008403D01*
X0263351Y0008552D01*
X0263302Y0008703D01*
X0263257Y0008855D01*
X0263216Y0009008D01*
X0263178Y0009161D01*
X0263145Y0009316D01*
X0263115Y0009472D01*
X0263089Y0009628D01*
X0263068Y0009785D01*
X0263050Y0009942D01*
X0263036Y0010100D01*
X0263026Y0010258D01*
X0263020Y0010416D01*
X0263018Y0010574D01*
X0241738Y0086342D02*
X0241740Y0086439D01*
X0241746Y0086536D01*
X0241756Y0086632D01*
X0241770Y0086728D01*
X0241788Y0086824D01*
X0241809Y0086918D01*
X0241835Y0087012D01*
X0241864Y0087104D01*
X0241898Y0087195D01*
X0241934Y0087285D01*
X0241975Y0087373D01*
X0242019Y0087459D01*
X0242067Y0087544D01*
X0242118Y0087626D01*
X0242172Y0087707D01*
X0242230Y0087785D01*
X0242291Y0087860D01*
X0242354Y0087933D01*
X0242421Y0088004D01*
X0242491Y0088071D01*
X0242563Y0088136D01*
X0242638Y0088197D01*
X0242716Y0088256D01*
X0242795Y0088311D01*
X0242877Y0088363D01*
X0242961Y0088411D01*
X0243047Y0088456D01*
X0243135Y0088498D01*
X0243224Y0088536D01*
X0243315Y0088570D01*
X0243407Y0088600D01*
X0243500Y0088627D01*
X0243595Y0088649D01*
X0243690Y0088668D01*
X0243786Y0088683D01*
X0243882Y0088694D01*
X0243979Y0088701D01*
X0244076Y0088704D01*
X0244173Y0088703D01*
X0244270Y0088698D01*
X0244366Y0088689D01*
X0244462Y0088676D01*
X0244558Y0088659D01*
X0244653Y0088638D01*
X0244746Y0088614D01*
X0244839Y0088585D01*
X0244931Y0088553D01*
X0245021Y0088517D01*
X0245109Y0088478D01*
X0245196Y0088434D01*
X0245281Y0088388D01*
X0245364Y0088337D01*
X0245445Y0088284D01*
X0245523Y0088227D01*
X0245600Y0088167D01*
X0245673Y0088104D01*
X0245744Y0088038D01*
X0245812Y0087969D01*
X0245878Y0087897D01*
X0245940Y0087823D01*
X0245999Y0087746D01*
X0246055Y0087667D01*
X0246108Y0087585D01*
X0246158Y0087502D01*
X0246203Y0087416D01*
X0246246Y0087329D01*
X0246285Y0087240D01*
X0246320Y0087150D01*
X0246351Y0087058D01*
X0246378Y0086965D01*
X0246402Y0086871D01*
X0246422Y0086776D01*
X0246438Y0086680D01*
X0246450Y0086584D01*
X0246458Y0086487D01*
X0246462Y0086390D01*
X0246462Y0086294D01*
X0246458Y0086197D01*
X0246450Y0086100D01*
X0246438Y0086004D01*
X0246422Y0085908D01*
X0246402Y0085813D01*
X0246378Y0085719D01*
X0246351Y0085626D01*
X0246320Y0085534D01*
X0246285Y0085444D01*
X0246246Y0085355D01*
X0246203Y0085268D01*
X0246158Y0085182D01*
X0246108Y0085099D01*
X0246055Y0085017D01*
X0245999Y0084938D01*
X0245940Y0084861D01*
X0245878Y0084787D01*
X0245812Y0084715D01*
X0245744Y0084646D01*
X0245673Y0084580D01*
X0245600Y0084517D01*
X0245523Y0084457D01*
X0245445Y0084400D01*
X0245364Y0084347D01*
X0245281Y0084296D01*
X0245196Y0084250D01*
X0245109Y0084206D01*
X0245021Y0084167D01*
X0244931Y0084131D01*
X0244839Y0084099D01*
X0244746Y0084070D01*
X0244653Y0084046D01*
X0244558Y0084025D01*
X0244462Y0084008D01*
X0244366Y0083995D01*
X0244270Y0083986D01*
X0244173Y0083981D01*
X0244076Y0083980D01*
X0243979Y0083983D01*
X0243882Y0083990D01*
X0243786Y0084001D01*
X0243690Y0084016D01*
X0243595Y0084035D01*
X0243500Y0084057D01*
X0243407Y0084084D01*
X0243315Y0084114D01*
X0243224Y0084148D01*
X0243135Y0084186D01*
X0243047Y0084228D01*
X0242961Y0084273D01*
X0242877Y0084321D01*
X0242795Y0084373D01*
X0242716Y0084428D01*
X0242638Y0084487D01*
X0242563Y0084548D01*
X0242491Y0084613D01*
X0242421Y0084680D01*
X0242354Y0084751D01*
X0242291Y0084824D01*
X0242230Y0084899D01*
X0242172Y0084977D01*
X0242118Y0085058D01*
X0242067Y0085140D01*
X0242019Y0085225D01*
X0241975Y0085311D01*
X0241934Y0085399D01*
X0241898Y0085489D01*
X0241864Y0085580D01*
X0241835Y0085672D01*
X0241809Y0085766D01*
X0241788Y0085860D01*
X0241770Y0085956D01*
X0241756Y0086052D01*
X0241746Y0086148D01*
X0241740Y0086245D01*
X0241738Y0086342D01*
X0288736Y0101578D02*
X0288738Y0101669D01*
X0288744Y0101759D01*
X0288754Y0101850D01*
X0288768Y0101939D01*
X0288786Y0102028D01*
X0288807Y0102117D01*
X0288833Y0102204D01*
X0288862Y0102290D01*
X0288896Y0102374D01*
X0288932Y0102457D01*
X0288973Y0102539D01*
X0289017Y0102618D01*
X0289064Y0102696D01*
X0289115Y0102771D01*
X0289169Y0102844D01*
X0289226Y0102914D01*
X0289286Y0102982D01*
X0289349Y0103048D01*
X0289415Y0103110D01*
X0289484Y0103169D01*
X0289555Y0103226D01*
X0289629Y0103279D01*
X0289705Y0103329D01*
X0289783Y0103376D01*
X0289863Y0103419D01*
X0289944Y0103458D01*
X0290028Y0103494D01*
X0290113Y0103526D01*
X0290199Y0103555D01*
X0290286Y0103579D01*
X0290375Y0103600D01*
X0290464Y0103617D01*
X0290554Y0103630D01*
X0290644Y0103639D01*
X0290735Y0103644D01*
X0290826Y0103645D01*
X0290916Y0103642D01*
X0291007Y0103635D01*
X0291097Y0103624D01*
X0291187Y0103609D01*
X0291276Y0103590D01*
X0291364Y0103568D01*
X0291450Y0103541D01*
X0291536Y0103511D01*
X0291620Y0103477D01*
X0291703Y0103439D01*
X0291784Y0103398D01*
X0291863Y0103353D01*
X0291940Y0103304D01*
X0292014Y0103253D01*
X0292087Y0103198D01*
X0292157Y0103140D01*
X0292224Y0103079D01*
X0292288Y0103015D01*
X0292350Y0102949D01*
X0292409Y0102879D01*
X0292464Y0102808D01*
X0292517Y0102733D01*
X0292566Y0102657D01*
X0292612Y0102579D01*
X0292654Y0102498D01*
X0292693Y0102416D01*
X0292728Y0102332D01*
X0292759Y0102247D01*
X0292786Y0102160D01*
X0292810Y0102073D01*
X0292830Y0101984D01*
X0292846Y0101895D01*
X0292858Y0101805D01*
X0292866Y0101714D01*
X0292870Y0101623D01*
X0292870Y0101533D01*
X0292866Y0101442D01*
X0292858Y0101351D01*
X0292846Y0101261D01*
X0292830Y0101172D01*
X0292810Y0101083D01*
X0292786Y0100996D01*
X0292759Y0100909D01*
X0292728Y0100824D01*
X0292693Y0100740D01*
X0292654Y0100658D01*
X0292612Y0100577D01*
X0292566Y0100499D01*
X0292517Y0100423D01*
X0292464Y0100348D01*
X0292409Y0100277D01*
X0292350Y0100207D01*
X0292288Y0100141D01*
X0292224Y0100077D01*
X0292157Y0100016D01*
X0292087Y0099958D01*
X0292014Y0099903D01*
X0291940Y0099852D01*
X0291863Y0099803D01*
X0291784Y0099758D01*
X0291703Y0099717D01*
X0291620Y0099679D01*
X0291536Y0099645D01*
X0291450Y0099615D01*
X0291364Y0099588D01*
X0291276Y0099566D01*
X0291187Y0099547D01*
X0291097Y0099532D01*
X0291007Y0099521D01*
X0290916Y0099514D01*
X0290826Y0099511D01*
X0290735Y0099512D01*
X0290644Y0099517D01*
X0290554Y0099526D01*
X0290464Y0099539D01*
X0290375Y0099556D01*
X0290286Y0099577D01*
X0290199Y0099601D01*
X0290113Y0099630D01*
X0290028Y0099662D01*
X0289944Y0099698D01*
X0289863Y0099737D01*
X0289783Y0099780D01*
X0289705Y0099827D01*
X0289629Y0099877D01*
X0289555Y0099930D01*
X0289484Y0099987D01*
X0289415Y0100046D01*
X0289349Y0100108D01*
X0289286Y0100174D01*
X0289226Y0100242D01*
X0289169Y0100312D01*
X0289115Y0100385D01*
X0289064Y0100460D01*
X0289017Y0100538D01*
X0288973Y0100617D01*
X0288932Y0100699D01*
X0288896Y0100782D01*
X0288862Y0100866D01*
X0288833Y0100952D01*
X0288807Y0101039D01*
X0288786Y0101128D01*
X0288768Y0101217D01*
X0288754Y0101306D01*
X0288744Y0101397D01*
X0288738Y0101487D01*
X0288736Y0101578D01*
X0307830Y0101578D02*
X0307832Y0101669D01*
X0307838Y0101759D01*
X0307848Y0101850D01*
X0307862Y0101939D01*
X0307880Y0102028D01*
X0307901Y0102117D01*
X0307927Y0102204D01*
X0307956Y0102290D01*
X0307990Y0102374D01*
X0308026Y0102457D01*
X0308067Y0102539D01*
X0308111Y0102618D01*
X0308158Y0102696D01*
X0308209Y0102771D01*
X0308263Y0102844D01*
X0308320Y0102914D01*
X0308380Y0102982D01*
X0308443Y0103048D01*
X0308509Y0103110D01*
X0308578Y0103169D01*
X0308649Y0103226D01*
X0308723Y0103279D01*
X0308799Y0103329D01*
X0308877Y0103376D01*
X0308957Y0103419D01*
X0309038Y0103458D01*
X0309122Y0103494D01*
X0309207Y0103526D01*
X0309293Y0103555D01*
X0309380Y0103579D01*
X0309469Y0103600D01*
X0309558Y0103617D01*
X0309648Y0103630D01*
X0309738Y0103639D01*
X0309829Y0103644D01*
X0309920Y0103645D01*
X0310010Y0103642D01*
X0310101Y0103635D01*
X0310191Y0103624D01*
X0310281Y0103609D01*
X0310370Y0103590D01*
X0310458Y0103568D01*
X0310544Y0103541D01*
X0310630Y0103511D01*
X0310714Y0103477D01*
X0310797Y0103439D01*
X0310878Y0103398D01*
X0310957Y0103353D01*
X0311034Y0103304D01*
X0311108Y0103253D01*
X0311181Y0103198D01*
X0311251Y0103140D01*
X0311318Y0103079D01*
X0311382Y0103015D01*
X0311444Y0102949D01*
X0311503Y0102879D01*
X0311558Y0102808D01*
X0311611Y0102733D01*
X0311660Y0102657D01*
X0311706Y0102579D01*
X0311748Y0102498D01*
X0311787Y0102416D01*
X0311822Y0102332D01*
X0311853Y0102247D01*
X0311880Y0102160D01*
X0311904Y0102073D01*
X0311924Y0101984D01*
X0311940Y0101895D01*
X0311952Y0101805D01*
X0311960Y0101714D01*
X0311964Y0101623D01*
X0311964Y0101533D01*
X0311960Y0101442D01*
X0311952Y0101351D01*
X0311940Y0101261D01*
X0311924Y0101172D01*
X0311904Y0101083D01*
X0311880Y0100996D01*
X0311853Y0100909D01*
X0311822Y0100824D01*
X0311787Y0100740D01*
X0311748Y0100658D01*
X0311706Y0100577D01*
X0311660Y0100499D01*
X0311611Y0100423D01*
X0311558Y0100348D01*
X0311503Y0100277D01*
X0311444Y0100207D01*
X0311382Y0100141D01*
X0311318Y0100077D01*
X0311251Y0100016D01*
X0311181Y0099958D01*
X0311108Y0099903D01*
X0311034Y0099852D01*
X0310957Y0099803D01*
X0310878Y0099758D01*
X0310797Y0099717D01*
X0310714Y0099679D01*
X0310630Y0099645D01*
X0310544Y0099615D01*
X0310458Y0099588D01*
X0310370Y0099566D01*
X0310281Y0099547D01*
X0310191Y0099532D01*
X0310101Y0099521D01*
X0310010Y0099514D01*
X0309920Y0099511D01*
X0309829Y0099512D01*
X0309738Y0099517D01*
X0309648Y0099526D01*
X0309558Y0099539D01*
X0309469Y0099556D01*
X0309380Y0099577D01*
X0309293Y0099601D01*
X0309207Y0099630D01*
X0309122Y0099662D01*
X0309038Y0099698D01*
X0308957Y0099737D01*
X0308877Y0099780D01*
X0308799Y0099827D01*
X0308723Y0099877D01*
X0308649Y0099930D01*
X0308578Y0099987D01*
X0308509Y0100046D01*
X0308443Y0100108D01*
X0308380Y0100174D01*
X0308320Y0100242D01*
X0308263Y0100312D01*
X0308209Y0100385D01*
X0308158Y0100460D01*
X0308111Y0100538D01*
X0308067Y0100617D01*
X0308026Y0100699D01*
X0307990Y0100782D01*
X0307956Y0100866D01*
X0307927Y0100952D01*
X0307901Y0101039D01*
X0307880Y0101128D01*
X0307862Y0101217D01*
X0307848Y0101306D01*
X0307838Y0101397D01*
X0307832Y0101487D01*
X0307830Y0101578D01*
X0263018Y0112936D02*
X0263020Y0113094D01*
X0263026Y0113252D01*
X0263036Y0113410D01*
X0263050Y0113568D01*
X0263068Y0113725D01*
X0263089Y0113882D01*
X0263115Y0114038D01*
X0263145Y0114194D01*
X0263178Y0114349D01*
X0263216Y0114502D01*
X0263257Y0114655D01*
X0263302Y0114807D01*
X0263351Y0114958D01*
X0263404Y0115107D01*
X0263460Y0115255D01*
X0263520Y0115401D01*
X0263584Y0115546D01*
X0263652Y0115689D01*
X0263723Y0115831D01*
X0263797Y0115971D01*
X0263875Y0116108D01*
X0263957Y0116244D01*
X0264041Y0116378D01*
X0264130Y0116509D01*
X0264221Y0116638D01*
X0264316Y0116765D01*
X0264413Y0116890D01*
X0264514Y0117012D01*
X0264618Y0117131D01*
X0264725Y0117248D01*
X0264835Y0117362D01*
X0264948Y0117473D01*
X0265063Y0117582D01*
X0265181Y0117687D01*
X0265302Y0117789D01*
X0265425Y0117889D01*
X0265551Y0117985D01*
X0265679Y0118078D01*
X0265809Y0118168D01*
X0265942Y0118254D01*
X0266077Y0118338D01*
X0266213Y0118417D01*
X0266352Y0118494D01*
X0266493Y0118566D01*
X0266635Y0118636D01*
X0266779Y0118701D01*
X0266925Y0118763D01*
X0267072Y0118821D01*
X0267221Y0118876D01*
X0267371Y0118927D01*
X0267522Y0118974D01*
X0267674Y0119017D01*
X0267827Y0119056D01*
X0267982Y0119092D01*
X0268137Y0119123D01*
X0268293Y0119151D01*
X0268449Y0119175D01*
X0268606Y0119195D01*
X0268764Y0119211D01*
X0268921Y0119223D01*
X0269080Y0119231D01*
X0269238Y0119235D01*
X0269396Y0119235D01*
X0269554Y0119231D01*
X0269713Y0119223D01*
X0269870Y0119211D01*
X0270028Y0119195D01*
X0270185Y0119175D01*
X0270341Y0119151D01*
X0270497Y0119123D01*
X0270652Y0119092D01*
X0270807Y0119056D01*
X0270960Y0119017D01*
X0271112Y0118974D01*
X0271263Y0118927D01*
X0271413Y0118876D01*
X0271562Y0118821D01*
X0271709Y0118763D01*
X0271855Y0118701D01*
X0271999Y0118636D01*
X0272141Y0118566D01*
X0272282Y0118494D01*
X0272421Y0118417D01*
X0272557Y0118338D01*
X0272692Y0118254D01*
X0272825Y0118168D01*
X0272955Y0118078D01*
X0273083Y0117985D01*
X0273209Y0117889D01*
X0273332Y0117789D01*
X0273453Y0117687D01*
X0273571Y0117582D01*
X0273686Y0117473D01*
X0273799Y0117362D01*
X0273909Y0117248D01*
X0274016Y0117131D01*
X0274120Y0117012D01*
X0274221Y0116890D01*
X0274318Y0116765D01*
X0274413Y0116638D01*
X0274504Y0116509D01*
X0274593Y0116378D01*
X0274677Y0116244D01*
X0274759Y0116108D01*
X0274837Y0115971D01*
X0274911Y0115831D01*
X0274982Y0115689D01*
X0275050Y0115546D01*
X0275114Y0115401D01*
X0275174Y0115255D01*
X0275230Y0115107D01*
X0275283Y0114958D01*
X0275332Y0114807D01*
X0275377Y0114655D01*
X0275418Y0114502D01*
X0275456Y0114349D01*
X0275489Y0114194D01*
X0275519Y0114038D01*
X0275545Y0113882D01*
X0275566Y0113725D01*
X0275584Y0113568D01*
X0275598Y0113410D01*
X0275608Y0113252D01*
X0275614Y0113094D01*
X0275616Y0112936D01*
X0275614Y0112778D01*
X0275608Y0112620D01*
X0275598Y0112462D01*
X0275584Y0112304D01*
X0275566Y0112147D01*
X0275545Y0111990D01*
X0275519Y0111834D01*
X0275489Y0111678D01*
X0275456Y0111523D01*
X0275418Y0111370D01*
X0275377Y0111217D01*
X0275332Y0111065D01*
X0275283Y0110914D01*
X0275230Y0110765D01*
X0275174Y0110617D01*
X0275114Y0110471D01*
X0275050Y0110326D01*
X0274982Y0110183D01*
X0274911Y0110041D01*
X0274837Y0109901D01*
X0274759Y0109764D01*
X0274677Y0109628D01*
X0274593Y0109494D01*
X0274504Y0109363D01*
X0274413Y0109234D01*
X0274318Y0109107D01*
X0274221Y0108982D01*
X0274120Y0108860D01*
X0274016Y0108741D01*
X0273909Y0108624D01*
X0273799Y0108510D01*
X0273686Y0108399D01*
X0273571Y0108290D01*
X0273453Y0108185D01*
X0273332Y0108083D01*
X0273209Y0107983D01*
X0273083Y0107887D01*
X0272955Y0107794D01*
X0272825Y0107704D01*
X0272692Y0107618D01*
X0272557Y0107534D01*
X0272421Y0107455D01*
X0272282Y0107378D01*
X0272141Y0107306D01*
X0271999Y0107236D01*
X0271855Y0107171D01*
X0271709Y0107109D01*
X0271562Y0107051D01*
X0271413Y0106996D01*
X0271263Y0106945D01*
X0271112Y0106898D01*
X0270960Y0106855D01*
X0270807Y0106816D01*
X0270652Y0106780D01*
X0270497Y0106749D01*
X0270341Y0106721D01*
X0270185Y0106697D01*
X0270028Y0106677D01*
X0269870Y0106661D01*
X0269713Y0106649D01*
X0269554Y0106641D01*
X0269396Y0106637D01*
X0269238Y0106637D01*
X0269080Y0106641D01*
X0268921Y0106649D01*
X0268764Y0106661D01*
X0268606Y0106677D01*
X0268449Y0106697D01*
X0268293Y0106721D01*
X0268137Y0106749D01*
X0267982Y0106780D01*
X0267827Y0106816D01*
X0267674Y0106855D01*
X0267522Y0106898D01*
X0267371Y0106945D01*
X0267221Y0106996D01*
X0267072Y0107051D01*
X0266925Y0107109D01*
X0266779Y0107171D01*
X0266635Y0107236D01*
X0266493Y0107306D01*
X0266352Y0107378D01*
X0266213Y0107455D01*
X0266077Y0107534D01*
X0265942Y0107618D01*
X0265809Y0107704D01*
X0265679Y0107794D01*
X0265551Y0107887D01*
X0265425Y0107983D01*
X0265302Y0108083D01*
X0265181Y0108185D01*
X0265063Y0108290D01*
X0264948Y0108399D01*
X0264835Y0108510D01*
X0264725Y0108624D01*
X0264618Y0108741D01*
X0264514Y0108860D01*
X0264413Y0108982D01*
X0264316Y0109107D01*
X0264221Y0109234D01*
X0264130Y0109363D01*
X0264041Y0109494D01*
X0263957Y0109628D01*
X0263875Y0109764D01*
X0263797Y0109901D01*
X0263723Y0110041D01*
X0263652Y0110183D01*
X0263584Y0110326D01*
X0263520Y0110471D01*
X0263460Y0110617D01*
X0263404Y0110765D01*
X0263351Y0110914D01*
X0263302Y0111065D01*
X0263257Y0111217D01*
X0263216Y0111370D01*
X0263178Y0111523D01*
X0263145Y0111678D01*
X0263115Y0111834D01*
X0263089Y0111990D01*
X0263068Y0112147D01*
X0263050Y0112304D01*
X0263036Y0112462D01*
X0263026Y0112620D01*
X0263020Y0112778D01*
X0263018Y0112936D01*
X0241738Y0113901D02*
X0241740Y0113998D01*
X0241746Y0114095D01*
X0241756Y0114191D01*
X0241770Y0114287D01*
X0241788Y0114383D01*
X0241809Y0114477D01*
X0241835Y0114571D01*
X0241864Y0114663D01*
X0241898Y0114754D01*
X0241934Y0114844D01*
X0241975Y0114932D01*
X0242019Y0115018D01*
X0242067Y0115103D01*
X0242118Y0115185D01*
X0242172Y0115266D01*
X0242230Y0115344D01*
X0242291Y0115419D01*
X0242354Y0115492D01*
X0242421Y0115563D01*
X0242491Y0115630D01*
X0242563Y0115695D01*
X0242638Y0115756D01*
X0242716Y0115815D01*
X0242795Y0115870D01*
X0242877Y0115922D01*
X0242961Y0115970D01*
X0243047Y0116015D01*
X0243135Y0116057D01*
X0243224Y0116095D01*
X0243315Y0116129D01*
X0243407Y0116159D01*
X0243500Y0116186D01*
X0243595Y0116208D01*
X0243690Y0116227D01*
X0243786Y0116242D01*
X0243882Y0116253D01*
X0243979Y0116260D01*
X0244076Y0116263D01*
X0244173Y0116262D01*
X0244270Y0116257D01*
X0244366Y0116248D01*
X0244462Y0116235D01*
X0244558Y0116218D01*
X0244653Y0116197D01*
X0244746Y0116173D01*
X0244839Y0116144D01*
X0244931Y0116112D01*
X0245021Y0116076D01*
X0245109Y0116037D01*
X0245196Y0115993D01*
X0245281Y0115947D01*
X0245364Y0115896D01*
X0245445Y0115843D01*
X0245523Y0115786D01*
X0245600Y0115726D01*
X0245673Y0115663D01*
X0245744Y0115597D01*
X0245812Y0115528D01*
X0245878Y0115456D01*
X0245940Y0115382D01*
X0245999Y0115305D01*
X0246055Y0115226D01*
X0246108Y0115144D01*
X0246158Y0115061D01*
X0246203Y0114975D01*
X0246246Y0114888D01*
X0246285Y0114799D01*
X0246320Y0114709D01*
X0246351Y0114617D01*
X0246378Y0114524D01*
X0246402Y0114430D01*
X0246422Y0114335D01*
X0246438Y0114239D01*
X0246450Y0114143D01*
X0246458Y0114046D01*
X0246462Y0113949D01*
X0246462Y0113853D01*
X0246458Y0113756D01*
X0246450Y0113659D01*
X0246438Y0113563D01*
X0246422Y0113467D01*
X0246402Y0113372D01*
X0246378Y0113278D01*
X0246351Y0113185D01*
X0246320Y0113093D01*
X0246285Y0113003D01*
X0246246Y0112914D01*
X0246203Y0112827D01*
X0246158Y0112741D01*
X0246108Y0112658D01*
X0246055Y0112576D01*
X0245999Y0112497D01*
X0245940Y0112420D01*
X0245878Y0112346D01*
X0245812Y0112274D01*
X0245744Y0112205D01*
X0245673Y0112139D01*
X0245600Y0112076D01*
X0245523Y0112016D01*
X0245445Y0111959D01*
X0245364Y0111906D01*
X0245281Y0111855D01*
X0245196Y0111809D01*
X0245109Y0111765D01*
X0245021Y0111726D01*
X0244931Y0111690D01*
X0244839Y0111658D01*
X0244746Y0111629D01*
X0244653Y0111605D01*
X0244558Y0111584D01*
X0244462Y0111567D01*
X0244366Y0111554D01*
X0244270Y0111545D01*
X0244173Y0111540D01*
X0244076Y0111539D01*
X0243979Y0111542D01*
X0243882Y0111549D01*
X0243786Y0111560D01*
X0243690Y0111575D01*
X0243595Y0111594D01*
X0243500Y0111616D01*
X0243407Y0111643D01*
X0243315Y0111673D01*
X0243224Y0111707D01*
X0243135Y0111745D01*
X0243047Y0111787D01*
X0242961Y0111832D01*
X0242877Y0111880D01*
X0242795Y0111932D01*
X0242716Y0111987D01*
X0242638Y0112046D01*
X0242563Y0112107D01*
X0242491Y0112172D01*
X0242421Y0112239D01*
X0242354Y0112310D01*
X0242291Y0112383D01*
X0242230Y0112458D01*
X0242172Y0112536D01*
X0242118Y0112617D01*
X0242067Y0112699D01*
X0242019Y0112784D01*
X0241975Y0112870D01*
X0241934Y0112958D01*
X0241898Y0113048D01*
X0241864Y0113139D01*
X0241835Y0113231D01*
X0241809Y0113325D01*
X0241788Y0113419D01*
X0241770Y0113515D01*
X0241756Y0113611D01*
X0241746Y0113707D01*
X0241740Y0113804D01*
X0241738Y0113901D01*
X0105537Y0112936D02*
X0105539Y0113094D01*
X0105545Y0113252D01*
X0105555Y0113410D01*
X0105569Y0113568D01*
X0105587Y0113725D01*
X0105608Y0113882D01*
X0105634Y0114038D01*
X0105664Y0114194D01*
X0105697Y0114349D01*
X0105735Y0114502D01*
X0105776Y0114655D01*
X0105821Y0114807D01*
X0105870Y0114958D01*
X0105923Y0115107D01*
X0105979Y0115255D01*
X0106039Y0115401D01*
X0106103Y0115546D01*
X0106171Y0115689D01*
X0106242Y0115831D01*
X0106316Y0115971D01*
X0106394Y0116108D01*
X0106476Y0116244D01*
X0106560Y0116378D01*
X0106649Y0116509D01*
X0106740Y0116638D01*
X0106835Y0116765D01*
X0106932Y0116890D01*
X0107033Y0117012D01*
X0107137Y0117131D01*
X0107244Y0117248D01*
X0107354Y0117362D01*
X0107467Y0117473D01*
X0107582Y0117582D01*
X0107700Y0117687D01*
X0107821Y0117789D01*
X0107944Y0117889D01*
X0108070Y0117985D01*
X0108198Y0118078D01*
X0108328Y0118168D01*
X0108461Y0118254D01*
X0108596Y0118338D01*
X0108732Y0118417D01*
X0108871Y0118494D01*
X0109012Y0118566D01*
X0109154Y0118636D01*
X0109298Y0118701D01*
X0109444Y0118763D01*
X0109591Y0118821D01*
X0109740Y0118876D01*
X0109890Y0118927D01*
X0110041Y0118974D01*
X0110193Y0119017D01*
X0110346Y0119056D01*
X0110501Y0119092D01*
X0110656Y0119123D01*
X0110812Y0119151D01*
X0110968Y0119175D01*
X0111125Y0119195D01*
X0111283Y0119211D01*
X0111440Y0119223D01*
X0111599Y0119231D01*
X0111757Y0119235D01*
X0111915Y0119235D01*
X0112073Y0119231D01*
X0112232Y0119223D01*
X0112389Y0119211D01*
X0112547Y0119195D01*
X0112704Y0119175D01*
X0112860Y0119151D01*
X0113016Y0119123D01*
X0113171Y0119092D01*
X0113326Y0119056D01*
X0113479Y0119017D01*
X0113631Y0118974D01*
X0113782Y0118927D01*
X0113932Y0118876D01*
X0114081Y0118821D01*
X0114228Y0118763D01*
X0114374Y0118701D01*
X0114518Y0118636D01*
X0114660Y0118566D01*
X0114801Y0118494D01*
X0114940Y0118417D01*
X0115076Y0118338D01*
X0115211Y0118254D01*
X0115344Y0118168D01*
X0115474Y0118078D01*
X0115602Y0117985D01*
X0115728Y0117889D01*
X0115851Y0117789D01*
X0115972Y0117687D01*
X0116090Y0117582D01*
X0116205Y0117473D01*
X0116318Y0117362D01*
X0116428Y0117248D01*
X0116535Y0117131D01*
X0116639Y0117012D01*
X0116740Y0116890D01*
X0116837Y0116765D01*
X0116932Y0116638D01*
X0117023Y0116509D01*
X0117112Y0116378D01*
X0117196Y0116244D01*
X0117278Y0116108D01*
X0117356Y0115971D01*
X0117430Y0115831D01*
X0117501Y0115689D01*
X0117569Y0115546D01*
X0117633Y0115401D01*
X0117693Y0115255D01*
X0117749Y0115107D01*
X0117802Y0114958D01*
X0117851Y0114807D01*
X0117896Y0114655D01*
X0117937Y0114502D01*
X0117975Y0114349D01*
X0118008Y0114194D01*
X0118038Y0114038D01*
X0118064Y0113882D01*
X0118085Y0113725D01*
X0118103Y0113568D01*
X0118117Y0113410D01*
X0118127Y0113252D01*
X0118133Y0113094D01*
X0118135Y0112936D01*
X0118133Y0112778D01*
X0118127Y0112620D01*
X0118117Y0112462D01*
X0118103Y0112304D01*
X0118085Y0112147D01*
X0118064Y0111990D01*
X0118038Y0111834D01*
X0118008Y0111678D01*
X0117975Y0111523D01*
X0117937Y0111370D01*
X0117896Y0111217D01*
X0117851Y0111065D01*
X0117802Y0110914D01*
X0117749Y0110765D01*
X0117693Y0110617D01*
X0117633Y0110471D01*
X0117569Y0110326D01*
X0117501Y0110183D01*
X0117430Y0110041D01*
X0117356Y0109901D01*
X0117278Y0109764D01*
X0117196Y0109628D01*
X0117112Y0109494D01*
X0117023Y0109363D01*
X0116932Y0109234D01*
X0116837Y0109107D01*
X0116740Y0108982D01*
X0116639Y0108860D01*
X0116535Y0108741D01*
X0116428Y0108624D01*
X0116318Y0108510D01*
X0116205Y0108399D01*
X0116090Y0108290D01*
X0115972Y0108185D01*
X0115851Y0108083D01*
X0115728Y0107983D01*
X0115602Y0107887D01*
X0115474Y0107794D01*
X0115344Y0107704D01*
X0115211Y0107618D01*
X0115076Y0107534D01*
X0114940Y0107455D01*
X0114801Y0107378D01*
X0114660Y0107306D01*
X0114518Y0107236D01*
X0114374Y0107171D01*
X0114228Y0107109D01*
X0114081Y0107051D01*
X0113932Y0106996D01*
X0113782Y0106945D01*
X0113631Y0106898D01*
X0113479Y0106855D01*
X0113326Y0106816D01*
X0113171Y0106780D01*
X0113016Y0106749D01*
X0112860Y0106721D01*
X0112704Y0106697D01*
X0112547Y0106677D01*
X0112389Y0106661D01*
X0112232Y0106649D01*
X0112073Y0106641D01*
X0111915Y0106637D01*
X0111757Y0106637D01*
X0111599Y0106641D01*
X0111440Y0106649D01*
X0111283Y0106661D01*
X0111125Y0106677D01*
X0110968Y0106697D01*
X0110812Y0106721D01*
X0110656Y0106749D01*
X0110501Y0106780D01*
X0110346Y0106816D01*
X0110193Y0106855D01*
X0110041Y0106898D01*
X0109890Y0106945D01*
X0109740Y0106996D01*
X0109591Y0107051D01*
X0109444Y0107109D01*
X0109298Y0107171D01*
X0109154Y0107236D01*
X0109012Y0107306D01*
X0108871Y0107378D01*
X0108732Y0107455D01*
X0108596Y0107534D01*
X0108461Y0107618D01*
X0108328Y0107704D01*
X0108198Y0107794D01*
X0108070Y0107887D01*
X0107944Y0107983D01*
X0107821Y0108083D01*
X0107700Y0108185D01*
X0107582Y0108290D01*
X0107467Y0108399D01*
X0107354Y0108510D01*
X0107244Y0108624D01*
X0107137Y0108741D01*
X0107033Y0108860D01*
X0106932Y0108982D01*
X0106835Y0109107D01*
X0106740Y0109234D01*
X0106649Y0109363D01*
X0106560Y0109494D01*
X0106476Y0109628D01*
X0106394Y0109764D01*
X0106316Y0109901D01*
X0106242Y0110041D01*
X0106171Y0110183D01*
X0106103Y0110326D01*
X0106039Y0110471D01*
X0105979Y0110617D01*
X0105923Y0110765D01*
X0105870Y0110914D01*
X0105821Y0111065D01*
X0105776Y0111217D01*
X0105735Y0111370D01*
X0105697Y0111523D01*
X0105664Y0111678D01*
X0105634Y0111834D01*
X0105608Y0111990D01*
X0105587Y0112147D01*
X0105569Y0112304D01*
X0105555Y0112462D01*
X0105545Y0112620D01*
X0105539Y0112778D01*
X0105537Y0112936D01*
M02*
