G75*
%MOIN*%
%OFA0B0*%
%FSLAX25Y25*%
%IPPOS*%
%LPD*%
%AMOC8*
5,1,8,0,0,1.08239X$1,22.5*
%
%ADD10C,0.00000*%
%ADD11C,0.05600*%
%ADD12OC8,0.05200*%
%ADD13C,0.05200*%
%ADD14R,0.07874X0.07874*%
%ADD15C,0.06000*%
%ADD16R,0.04600X0.06300*%
%ADD17R,0.06300X0.04600*%
%ADD18C,0.01800*%
%ADD19C,0.02400*%
%ADD20C,0.02800*%
%ADD21C,0.01200*%
%ADD22C,0.00800*%
D10*
X0001600Y0002700D02*
X0001600Y0120810D01*
X0355931Y0120810D01*
X0355931Y0002700D01*
X0001600Y0002700D01*
X0105537Y0010574D02*
X0105539Y0010732D01*
X0105545Y0010890D01*
X0105555Y0011048D01*
X0105569Y0011206D01*
X0105587Y0011363D01*
X0105608Y0011520D01*
X0105634Y0011676D01*
X0105664Y0011832D01*
X0105697Y0011987D01*
X0105735Y0012140D01*
X0105776Y0012293D01*
X0105821Y0012445D01*
X0105870Y0012596D01*
X0105923Y0012745D01*
X0105979Y0012893D01*
X0106039Y0013039D01*
X0106103Y0013184D01*
X0106171Y0013327D01*
X0106242Y0013469D01*
X0106316Y0013609D01*
X0106394Y0013746D01*
X0106476Y0013882D01*
X0106560Y0014016D01*
X0106649Y0014147D01*
X0106740Y0014276D01*
X0106835Y0014403D01*
X0106932Y0014528D01*
X0107033Y0014650D01*
X0107137Y0014769D01*
X0107244Y0014886D01*
X0107354Y0015000D01*
X0107467Y0015111D01*
X0107582Y0015220D01*
X0107700Y0015325D01*
X0107821Y0015427D01*
X0107944Y0015527D01*
X0108070Y0015623D01*
X0108198Y0015716D01*
X0108328Y0015806D01*
X0108461Y0015892D01*
X0108596Y0015976D01*
X0108732Y0016055D01*
X0108871Y0016132D01*
X0109012Y0016204D01*
X0109154Y0016274D01*
X0109298Y0016339D01*
X0109444Y0016401D01*
X0109591Y0016459D01*
X0109740Y0016514D01*
X0109890Y0016565D01*
X0110041Y0016612D01*
X0110193Y0016655D01*
X0110346Y0016694D01*
X0110501Y0016730D01*
X0110656Y0016761D01*
X0110812Y0016789D01*
X0110968Y0016813D01*
X0111125Y0016833D01*
X0111283Y0016849D01*
X0111440Y0016861D01*
X0111599Y0016869D01*
X0111757Y0016873D01*
X0111915Y0016873D01*
X0112073Y0016869D01*
X0112232Y0016861D01*
X0112389Y0016849D01*
X0112547Y0016833D01*
X0112704Y0016813D01*
X0112860Y0016789D01*
X0113016Y0016761D01*
X0113171Y0016730D01*
X0113326Y0016694D01*
X0113479Y0016655D01*
X0113631Y0016612D01*
X0113782Y0016565D01*
X0113932Y0016514D01*
X0114081Y0016459D01*
X0114228Y0016401D01*
X0114374Y0016339D01*
X0114518Y0016274D01*
X0114660Y0016204D01*
X0114801Y0016132D01*
X0114940Y0016055D01*
X0115076Y0015976D01*
X0115211Y0015892D01*
X0115344Y0015806D01*
X0115474Y0015716D01*
X0115602Y0015623D01*
X0115728Y0015527D01*
X0115851Y0015427D01*
X0115972Y0015325D01*
X0116090Y0015220D01*
X0116205Y0015111D01*
X0116318Y0015000D01*
X0116428Y0014886D01*
X0116535Y0014769D01*
X0116639Y0014650D01*
X0116740Y0014528D01*
X0116837Y0014403D01*
X0116932Y0014276D01*
X0117023Y0014147D01*
X0117112Y0014016D01*
X0117196Y0013882D01*
X0117278Y0013746D01*
X0117356Y0013609D01*
X0117430Y0013469D01*
X0117501Y0013327D01*
X0117569Y0013184D01*
X0117633Y0013039D01*
X0117693Y0012893D01*
X0117749Y0012745D01*
X0117802Y0012596D01*
X0117851Y0012445D01*
X0117896Y0012293D01*
X0117937Y0012140D01*
X0117975Y0011987D01*
X0118008Y0011832D01*
X0118038Y0011676D01*
X0118064Y0011520D01*
X0118085Y0011363D01*
X0118103Y0011206D01*
X0118117Y0011048D01*
X0118127Y0010890D01*
X0118133Y0010732D01*
X0118135Y0010574D01*
X0118133Y0010416D01*
X0118127Y0010258D01*
X0118117Y0010100D01*
X0118103Y0009942D01*
X0118085Y0009785D01*
X0118064Y0009628D01*
X0118038Y0009472D01*
X0118008Y0009316D01*
X0117975Y0009161D01*
X0117937Y0009008D01*
X0117896Y0008855D01*
X0117851Y0008703D01*
X0117802Y0008552D01*
X0117749Y0008403D01*
X0117693Y0008255D01*
X0117633Y0008109D01*
X0117569Y0007964D01*
X0117501Y0007821D01*
X0117430Y0007679D01*
X0117356Y0007539D01*
X0117278Y0007402D01*
X0117196Y0007266D01*
X0117112Y0007132D01*
X0117023Y0007001D01*
X0116932Y0006872D01*
X0116837Y0006745D01*
X0116740Y0006620D01*
X0116639Y0006498D01*
X0116535Y0006379D01*
X0116428Y0006262D01*
X0116318Y0006148D01*
X0116205Y0006037D01*
X0116090Y0005928D01*
X0115972Y0005823D01*
X0115851Y0005721D01*
X0115728Y0005621D01*
X0115602Y0005525D01*
X0115474Y0005432D01*
X0115344Y0005342D01*
X0115211Y0005256D01*
X0115076Y0005172D01*
X0114940Y0005093D01*
X0114801Y0005016D01*
X0114660Y0004944D01*
X0114518Y0004874D01*
X0114374Y0004809D01*
X0114228Y0004747D01*
X0114081Y0004689D01*
X0113932Y0004634D01*
X0113782Y0004583D01*
X0113631Y0004536D01*
X0113479Y0004493D01*
X0113326Y0004454D01*
X0113171Y0004418D01*
X0113016Y0004387D01*
X0112860Y0004359D01*
X0112704Y0004335D01*
X0112547Y0004315D01*
X0112389Y0004299D01*
X0112232Y0004287D01*
X0112073Y0004279D01*
X0111915Y0004275D01*
X0111757Y0004275D01*
X0111599Y0004279D01*
X0111440Y0004287D01*
X0111283Y0004299D01*
X0111125Y0004315D01*
X0110968Y0004335D01*
X0110812Y0004359D01*
X0110656Y0004387D01*
X0110501Y0004418D01*
X0110346Y0004454D01*
X0110193Y0004493D01*
X0110041Y0004536D01*
X0109890Y0004583D01*
X0109740Y0004634D01*
X0109591Y0004689D01*
X0109444Y0004747D01*
X0109298Y0004809D01*
X0109154Y0004874D01*
X0109012Y0004944D01*
X0108871Y0005016D01*
X0108732Y0005093D01*
X0108596Y0005172D01*
X0108461Y0005256D01*
X0108328Y0005342D01*
X0108198Y0005432D01*
X0108070Y0005525D01*
X0107944Y0005621D01*
X0107821Y0005721D01*
X0107700Y0005823D01*
X0107582Y0005928D01*
X0107467Y0006037D01*
X0107354Y0006148D01*
X0107244Y0006262D01*
X0107137Y0006379D01*
X0107033Y0006498D01*
X0106932Y0006620D01*
X0106835Y0006745D01*
X0106740Y0006872D01*
X0106649Y0007001D01*
X0106560Y0007132D01*
X0106476Y0007266D01*
X0106394Y0007402D01*
X0106316Y0007539D01*
X0106242Y0007679D01*
X0106171Y0007821D01*
X0106103Y0007964D01*
X0106039Y0008109D01*
X0105979Y0008255D01*
X0105923Y0008403D01*
X0105870Y0008552D01*
X0105821Y0008703D01*
X0105776Y0008855D01*
X0105735Y0009008D01*
X0105697Y0009161D01*
X0105664Y0009316D01*
X0105634Y0009472D01*
X0105608Y0009628D01*
X0105587Y0009785D01*
X0105569Y0009942D01*
X0105555Y0010100D01*
X0105545Y0010258D01*
X0105539Y0010416D01*
X0105537Y0010574D01*
X0263018Y0010574D02*
X0263020Y0010732D01*
X0263026Y0010890D01*
X0263036Y0011048D01*
X0263050Y0011206D01*
X0263068Y0011363D01*
X0263089Y0011520D01*
X0263115Y0011676D01*
X0263145Y0011832D01*
X0263178Y0011987D01*
X0263216Y0012140D01*
X0263257Y0012293D01*
X0263302Y0012445D01*
X0263351Y0012596D01*
X0263404Y0012745D01*
X0263460Y0012893D01*
X0263520Y0013039D01*
X0263584Y0013184D01*
X0263652Y0013327D01*
X0263723Y0013469D01*
X0263797Y0013609D01*
X0263875Y0013746D01*
X0263957Y0013882D01*
X0264041Y0014016D01*
X0264130Y0014147D01*
X0264221Y0014276D01*
X0264316Y0014403D01*
X0264413Y0014528D01*
X0264514Y0014650D01*
X0264618Y0014769D01*
X0264725Y0014886D01*
X0264835Y0015000D01*
X0264948Y0015111D01*
X0265063Y0015220D01*
X0265181Y0015325D01*
X0265302Y0015427D01*
X0265425Y0015527D01*
X0265551Y0015623D01*
X0265679Y0015716D01*
X0265809Y0015806D01*
X0265942Y0015892D01*
X0266077Y0015976D01*
X0266213Y0016055D01*
X0266352Y0016132D01*
X0266493Y0016204D01*
X0266635Y0016274D01*
X0266779Y0016339D01*
X0266925Y0016401D01*
X0267072Y0016459D01*
X0267221Y0016514D01*
X0267371Y0016565D01*
X0267522Y0016612D01*
X0267674Y0016655D01*
X0267827Y0016694D01*
X0267982Y0016730D01*
X0268137Y0016761D01*
X0268293Y0016789D01*
X0268449Y0016813D01*
X0268606Y0016833D01*
X0268764Y0016849D01*
X0268921Y0016861D01*
X0269080Y0016869D01*
X0269238Y0016873D01*
X0269396Y0016873D01*
X0269554Y0016869D01*
X0269713Y0016861D01*
X0269870Y0016849D01*
X0270028Y0016833D01*
X0270185Y0016813D01*
X0270341Y0016789D01*
X0270497Y0016761D01*
X0270652Y0016730D01*
X0270807Y0016694D01*
X0270960Y0016655D01*
X0271112Y0016612D01*
X0271263Y0016565D01*
X0271413Y0016514D01*
X0271562Y0016459D01*
X0271709Y0016401D01*
X0271855Y0016339D01*
X0271999Y0016274D01*
X0272141Y0016204D01*
X0272282Y0016132D01*
X0272421Y0016055D01*
X0272557Y0015976D01*
X0272692Y0015892D01*
X0272825Y0015806D01*
X0272955Y0015716D01*
X0273083Y0015623D01*
X0273209Y0015527D01*
X0273332Y0015427D01*
X0273453Y0015325D01*
X0273571Y0015220D01*
X0273686Y0015111D01*
X0273799Y0015000D01*
X0273909Y0014886D01*
X0274016Y0014769D01*
X0274120Y0014650D01*
X0274221Y0014528D01*
X0274318Y0014403D01*
X0274413Y0014276D01*
X0274504Y0014147D01*
X0274593Y0014016D01*
X0274677Y0013882D01*
X0274759Y0013746D01*
X0274837Y0013609D01*
X0274911Y0013469D01*
X0274982Y0013327D01*
X0275050Y0013184D01*
X0275114Y0013039D01*
X0275174Y0012893D01*
X0275230Y0012745D01*
X0275283Y0012596D01*
X0275332Y0012445D01*
X0275377Y0012293D01*
X0275418Y0012140D01*
X0275456Y0011987D01*
X0275489Y0011832D01*
X0275519Y0011676D01*
X0275545Y0011520D01*
X0275566Y0011363D01*
X0275584Y0011206D01*
X0275598Y0011048D01*
X0275608Y0010890D01*
X0275614Y0010732D01*
X0275616Y0010574D01*
X0275614Y0010416D01*
X0275608Y0010258D01*
X0275598Y0010100D01*
X0275584Y0009942D01*
X0275566Y0009785D01*
X0275545Y0009628D01*
X0275519Y0009472D01*
X0275489Y0009316D01*
X0275456Y0009161D01*
X0275418Y0009008D01*
X0275377Y0008855D01*
X0275332Y0008703D01*
X0275283Y0008552D01*
X0275230Y0008403D01*
X0275174Y0008255D01*
X0275114Y0008109D01*
X0275050Y0007964D01*
X0274982Y0007821D01*
X0274911Y0007679D01*
X0274837Y0007539D01*
X0274759Y0007402D01*
X0274677Y0007266D01*
X0274593Y0007132D01*
X0274504Y0007001D01*
X0274413Y0006872D01*
X0274318Y0006745D01*
X0274221Y0006620D01*
X0274120Y0006498D01*
X0274016Y0006379D01*
X0273909Y0006262D01*
X0273799Y0006148D01*
X0273686Y0006037D01*
X0273571Y0005928D01*
X0273453Y0005823D01*
X0273332Y0005721D01*
X0273209Y0005621D01*
X0273083Y0005525D01*
X0272955Y0005432D01*
X0272825Y0005342D01*
X0272692Y0005256D01*
X0272557Y0005172D01*
X0272421Y0005093D01*
X0272282Y0005016D01*
X0272141Y0004944D01*
X0271999Y0004874D01*
X0271855Y0004809D01*
X0271709Y0004747D01*
X0271562Y0004689D01*
X0271413Y0004634D01*
X0271263Y0004583D01*
X0271112Y0004536D01*
X0270960Y0004493D01*
X0270807Y0004454D01*
X0270652Y0004418D01*
X0270497Y0004387D01*
X0270341Y0004359D01*
X0270185Y0004335D01*
X0270028Y0004315D01*
X0269870Y0004299D01*
X0269713Y0004287D01*
X0269554Y0004279D01*
X0269396Y0004275D01*
X0269238Y0004275D01*
X0269080Y0004279D01*
X0268921Y0004287D01*
X0268764Y0004299D01*
X0268606Y0004315D01*
X0268449Y0004335D01*
X0268293Y0004359D01*
X0268137Y0004387D01*
X0267982Y0004418D01*
X0267827Y0004454D01*
X0267674Y0004493D01*
X0267522Y0004536D01*
X0267371Y0004583D01*
X0267221Y0004634D01*
X0267072Y0004689D01*
X0266925Y0004747D01*
X0266779Y0004809D01*
X0266635Y0004874D01*
X0266493Y0004944D01*
X0266352Y0005016D01*
X0266213Y0005093D01*
X0266077Y0005172D01*
X0265942Y0005256D01*
X0265809Y0005342D01*
X0265679Y0005432D01*
X0265551Y0005525D01*
X0265425Y0005621D01*
X0265302Y0005721D01*
X0265181Y0005823D01*
X0265063Y0005928D01*
X0264948Y0006037D01*
X0264835Y0006148D01*
X0264725Y0006262D01*
X0264618Y0006379D01*
X0264514Y0006498D01*
X0264413Y0006620D01*
X0264316Y0006745D01*
X0264221Y0006872D01*
X0264130Y0007001D01*
X0264041Y0007132D01*
X0263957Y0007266D01*
X0263875Y0007402D01*
X0263797Y0007539D01*
X0263723Y0007679D01*
X0263652Y0007821D01*
X0263584Y0007964D01*
X0263520Y0008109D01*
X0263460Y0008255D01*
X0263404Y0008403D01*
X0263351Y0008552D01*
X0263302Y0008703D01*
X0263257Y0008855D01*
X0263216Y0009008D01*
X0263178Y0009161D01*
X0263145Y0009316D01*
X0263115Y0009472D01*
X0263089Y0009628D01*
X0263068Y0009785D01*
X0263050Y0009942D01*
X0263036Y0010100D01*
X0263026Y0010258D01*
X0263020Y0010416D01*
X0263018Y0010574D01*
X0241738Y0086342D02*
X0241740Y0086439D01*
X0241746Y0086536D01*
X0241756Y0086632D01*
X0241770Y0086728D01*
X0241788Y0086824D01*
X0241809Y0086918D01*
X0241835Y0087012D01*
X0241864Y0087104D01*
X0241898Y0087195D01*
X0241934Y0087285D01*
X0241975Y0087373D01*
X0242019Y0087459D01*
X0242067Y0087544D01*
X0242118Y0087626D01*
X0242172Y0087707D01*
X0242230Y0087785D01*
X0242291Y0087860D01*
X0242354Y0087933D01*
X0242421Y0088004D01*
X0242491Y0088071D01*
X0242563Y0088136D01*
X0242638Y0088197D01*
X0242716Y0088256D01*
X0242795Y0088311D01*
X0242877Y0088363D01*
X0242961Y0088411D01*
X0243047Y0088456D01*
X0243135Y0088498D01*
X0243224Y0088536D01*
X0243315Y0088570D01*
X0243407Y0088600D01*
X0243500Y0088627D01*
X0243595Y0088649D01*
X0243690Y0088668D01*
X0243786Y0088683D01*
X0243882Y0088694D01*
X0243979Y0088701D01*
X0244076Y0088704D01*
X0244173Y0088703D01*
X0244270Y0088698D01*
X0244366Y0088689D01*
X0244462Y0088676D01*
X0244558Y0088659D01*
X0244653Y0088638D01*
X0244746Y0088614D01*
X0244839Y0088585D01*
X0244931Y0088553D01*
X0245021Y0088517D01*
X0245109Y0088478D01*
X0245196Y0088434D01*
X0245281Y0088388D01*
X0245364Y0088337D01*
X0245445Y0088284D01*
X0245523Y0088227D01*
X0245600Y0088167D01*
X0245673Y0088104D01*
X0245744Y0088038D01*
X0245812Y0087969D01*
X0245878Y0087897D01*
X0245940Y0087823D01*
X0245999Y0087746D01*
X0246055Y0087667D01*
X0246108Y0087585D01*
X0246158Y0087502D01*
X0246203Y0087416D01*
X0246246Y0087329D01*
X0246285Y0087240D01*
X0246320Y0087150D01*
X0246351Y0087058D01*
X0246378Y0086965D01*
X0246402Y0086871D01*
X0246422Y0086776D01*
X0246438Y0086680D01*
X0246450Y0086584D01*
X0246458Y0086487D01*
X0246462Y0086390D01*
X0246462Y0086294D01*
X0246458Y0086197D01*
X0246450Y0086100D01*
X0246438Y0086004D01*
X0246422Y0085908D01*
X0246402Y0085813D01*
X0246378Y0085719D01*
X0246351Y0085626D01*
X0246320Y0085534D01*
X0246285Y0085444D01*
X0246246Y0085355D01*
X0246203Y0085268D01*
X0246158Y0085182D01*
X0246108Y0085099D01*
X0246055Y0085017D01*
X0245999Y0084938D01*
X0245940Y0084861D01*
X0245878Y0084787D01*
X0245812Y0084715D01*
X0245744Y0084646D01*
X0245673Y0084580D01*
X0245600Y0084517D01*
X0245523Y0084457D01*
X0245445Y0084400D01*
X0245364Y0084347D01*
X0245281Y0084296D01*
X0245196Y0084250D01*
X0245109Y0084206D01*
X0245021Y0084167D01*
X0244931Y0084131D01*
X0244839Y0084099D01*
X0244746Y0084070D01*
X0244653Y0084046D01*
X0244558Y0084025D01*
X0244462Y0084008D01*
X0244366Y0083995D01*
X0244270Y0083986D01*
X0244173Y0083981D01*
X0244076Y0083980D01*
X0243979Y0083983D01*
X0243882Y0083990D01*
X0243786Y0084001D01*
X0243690Y0084016D01*
X0243595Y0084035D01*
X0243500Y0084057D01*
X0243407Y0084084D01*
X0243315Y0084114D01*
X0243224Y0084148D01*
X0243135Y0084186D01*
X0243047Y0084228D01*
X0242961Y0084273D01*
X0242877Y0084321D01*
X0242795Y0084373D01*
X0242716Y0084428D01*
X0242638Y0084487D01*
X0242563Y0084548D01*
X0242491Y0084613D01*
X0242421Y0084680D01*
X0242354Y0084751D01*
X0242291Y0084824D01*
X0242230Y0084899D01*
X0242172Y0084977D01*
X0242118Y0085058D01*
X0242067Y0085140D01*
X0242019Y0085225D01*
X0241975Y0085311D01*
X0241934Y0085399D01*
X0241898Y0085489D01*
X0241864Y0085580D01*
X0241835Y0085672D01*
X0241809Y0085766D01*
X0241788Y0085860D01*
X0241770Y0085956D01*
X0241756Y0086052D01*
X0241746Y0086148D01*
X0241740Y0086245D01*
X0241738Y0086342D01*
X0288736Y0101578D02*
X0288738Y0101669D01*
X0288744Y0101759D01*
X0288754Y0101850D01*
X0288768Y0101939D01*
X0288786Y0102028D01*
X0288807Y0102117D01*
X0288833Y0102204D01*
X0288862Y0102290D01*
X0288896Y0102374D01*
X0288932Y0102457D01*
X0288973Y0102539D01*
X0289017Y0102618D01*
X0289064Y0102696D01*
X0289115Y0102771D01*
X0289169Y0102844D01*
X0289226Y0102914D01*
X0289286Y0102982D01*
X0289349Y0103048D01*
X0289415Y0103110D01*
X0289484Y0103169D01*
X0289555Y0103226D01*
X0289629Y0103279D01*
X0289705Y0103329D01*
X0289783Y0103376D01*
X0289863Y0103419D01*
X0289944Y0103458D01*
X0290028Y0103494D01*
X0290113Y0103526D01*
X0290199Y0103555D01*
X0290286Y0103579D01*
X0290375Y0103600D01*
X0290464Y0103617D01*
X0290554Y0103630D01*
X0290644Y0103639D01*
X0290735Y0103644D01*
X0290826Y0103645D01*
X0290916Y0103642D01*
X0291007Y0103635D01*
X0291097Y0103624D01*
X0291187Y0103609D01*
X0291276Y0103590D01*
X0291364Y0103568D01*
X0291450Y0103541D01*
X0291536Y0103511D01*
X0291620Y0103477D01*
X0291703Y0103439D01*
X0291784Y0103398D01*
X0291863Y0103353D01*
X0291940Y0103304D01*
X0292014Y0103253D01*
X0292087Y0103198D01*
X0292157Y0103140D01*
X0292224Y0103079D01*
X0292288Y0103015D01*
X0292350Y0102949D01*
X0292409Y0102879D01*
X0292464Y0102808D01*
X0292517Y0102733D01*
X0292566Y0102657D01*
X0292612Y0102579D01*
X0292654Y0102498D01*
X0292693Y0102416D01*
X0292728Y0102332D01*
X0292759Y0102247D01*
X0292786Y0102160D01*
X0292810Y0102073D01*
X0292830Y0101984D01*
X0292846Y0101895D01*
X0292858Y0101805D01*
X0292866Y0101714D01*
X0292870Y0101623D01*
X0292870Y0101533D01*
X0292866Y0101442D01*
X0292858Y0101351D01*
X0292846Y0101261D01*
X0292830Y0101172D01*
X0292810Y0101083D01*
X0292786Y0100996D01*
X0292759Y0100909D01*
X0292728Y0100824D01*
X0292693Y0100740D01*
X0292654Y0100658D01*
X0292612Y0100577D01*
X0292566Y0100499D01*
X0292517Y0100423D01*
X0292464Y0100348D01*
X0292409Y0100277D01*
X0292350Y0100207D01*
X0292288Y0100141D01*
X0292224Y0100077D01*
X0292157Y0100016D01*
X0292087Y0099958D01*
X0292014Y0099903D01*
X0291940Y0099852D01*
X0291863Y0099803D01*
X0291784Y0099758D01*
X0291703Y0099717D01*
X0291620Y0099679D01*
X0291536Y0099645D01*
X0291450Y0099615D01*
X0291364Y0099588D01*
X0291276Y0099566D01*
X0291187Y0099547D01*
X0291097Y0099532D01*
X0291007Y0099521D01*
X0290916Y0099514D01*
X0290826Y0099511D01*
X0290735Y0099512D01*
X0290644Y0099517D01*
X0290554Y0099526D01*
X0290464Y0099539D01*
X0290375Y0099556D01*
X0290286Y0099577D01*
X0290199Y0099601D01*
X0290113Y0099630D01*
X0290028Y0099662D01*
X0289944Y0099698D01*
X0289863Y0099737D01*
X0289783Y0099780D01*
X0289705Y0099827D01*
X0289629Y0099877D01*
X0289555Y0099930D01*
X0289484Y0099987D01*
X0289415Y0100046D01*
X0289349Y0100108D01*
X0289286Y0100174D01*
X0289226Y0100242D01*
X0289169Y0100312D01*
X0289115Y0100385D01*
X0289064Y0100460D01*
X0289017Y0100538D01*
X0288973Y0100617D01*
X0288932Y0100699D01*
X0288896Y0100782D01*
X0288862Y0100866D01*
X0288833Y0100952D01*
X0288807Y0101039D01*
X0288786Y0101128D01*
X0288768Y0101217D01*
X0288754Y0101306D01*
X0288744Y0101397D01*
X0288738Y0101487D01*
X0288736Y0101578D01*
X0307830Y0101578D02*
X0307832Y0101669D01*
X0307838Y0101759D01*
X0307848Y0101850D01*
X0307862Y0101939D01*
X0307880Y0102028D01*
X0307901Y0102117D01*
X0307927Y0102204D01*
X0307956Y0102290D01*
X0307990Y0102374D01*
X0308026Y0102457D01*
X0308067Y0102539D01*
X0308111Y0102618D01*
X0308158Y0102696D01*
X0308209Y0102771D01*
X0308263Y0102844D01*
X0308320Y0102914D01*
X0308380Y0102982D01*
X0308443Y0103048D01*
X0308509Y0103110D01*
X0308578Y0103169D01*
X0308649Y0103226D01*
X0308723Y0103279D01*
X0308799Y0103329D01*
X0308877Y0103376D01*
X0308957Y0103419D01*
X0309038Y0103458D01*
X0309122Y0103494D01*
X0309207Y0103526D01*
X0309293Y0103555D01*
X0309380Y0103579D01*
X0309469Y0103600D01*
X0309558Y0103617D01*
X0309648Y0103630D01*
X0309738Y0103639D01*
X0309829Y0103644D01*
X0309920Y0103645D01*
X0310010Y0103642D01*
X0310101Y0103635D01*
X0310191Y0103624D01*
X0310281Y0103609D01*
X0310370Y0103590D01*
X0310458Y0103568D01*
X0310544Y0103541D01*
X0310630Y0103511D01*
X0310714Y0103477D01*
X0310797Y0103439D01*
X0310878Y0103398D01*
X0310957Y0103353D01*
X0311034Y0103304D01*
X0311108Y0103253D01*
X0311181Y0103198D01*
X0311251Y0103140D01*
X0311318Y0103079D01*
X0311382Y0103015D01*
X0311444Y0102949D01*
X0311503Y0102879D01*
X0311558Y0102808D01*
X0311611Y0102733D01*
X0311660Y0102657D01*
X0311706Y0102579D01*
X0311748Y0102498D01*
X0311787Y0102416D01*
X0311822Y0102332D01*
X0311853Y0102247D01*
X0311880Y0102160D01*
X0311904Y0102073D01*
X0311924Y0101984D01*
X0311940Y0101895D01*
X0311952Y0101805D01*
X0311960Y0101714D01*
X0311964Y0101623D01*
X0311964Y0101533D01*
X0311960Y0101442D01*
X0311952Y0101351D01*
X0311940Y0101261D01*
X0311924Y0101172D01*
X0311904Y0101083D01*
X0311880Y0100996D01*
X0311853Y0100909D01*
X0311822Y0100824D01*
X0311787Y0100740D01*
X0311748Y0100658D01*
X0311706Y0100577D01*
X0311660Y0100499D01*
X0311611Y0100423D01*
X0311558Y0100348D01*
X0311503Y0100277D01*
X0311444Y0100207D01*
X0311382Y0100141D01*
X0311318Y0100077D01*
X0311251Y0100016D01*
X0311181Y0099958D01*
X0311108Y0099903D01*
X0311034Y0099852D01*
X0310957Y0099803D01*
X0310878Y0099758D01*
X0310797Y0099717D01*
X0310714Y0099679D01*
X0310630Y0099645D01*
X0310544Y0099615D01*
X0310458Y0099588D01*
X0310370Y0099566D01*
X0310281Y0099547D01*
X0310191Y0099532D01*
X0310101Y0099521D01*
X0310010Y0099514D01*
X0309920Y0099511D01*
X0309829Y0099512D01*
X0309738Y0099517D01*
X0309648Y0099526D01*
X0309558Y0099539D01*
X0309469Y0099556D01*
X0309380Y0099577D01*
X0309293Y0099601D01*
X0309207Y0099630D01*
X0309122Y0099662D01*
X0309038Y0099698D01*
X0308957Y0099737D01*
X0308877Y0099780D01*
X0308799Y0099827D01*
X0308723Y0099877D01*
X0308649Y0099930D01*
X0308578Y0099987D01*
X0308509Y0100046D01*
X0308443Y0100108D01*
X0308380Y0100174D01*
X0308320Y0100242D01*
X0308263Y0100312D01*
X0308209Y0100385D01*
X0308158Y0100460D01*
X0308111Y0100538D01*
X0308067Y0100617D01*
X0308026Y0100699D01*
X0307990Y0100782D01*
X0307956Y0100866D01*
X0307927Y0100952D01*
X0307901Y0101039D01*
X0307880Y0101128D01*
X0307862Y0101217D01*
X0307848Y0101306D01*
X0307838Y0101397D01*
X0307832Y0101487D01*
X0307830Y0101578D01*
X0263018Y0112936D02*
X0263020Y0113094D01*
X0263026Y0113252D01*
X0263036Y0113410D01*
X0263050Y0113568D01*
X0263068Y0113725D01*
X0263089Y0113882D01*
X0263115Y0114038D01*
X0263145Y0114194D01*
X0263178Y0114349D01*
X0263216Y0114502D01*
X0263257Y0114655D01*
X0263302Y0114807D01*
X0263351Y0114958D01*
X0263404Y0115107D01*
X0263460Y0115255D01*
X0263520Y0115401D01*
X0263584Y0115546D01*
X0263652Y0115689D01*
X0263723Y0115831D01*
X0263797Y0115971D01*
X0263875Y0116108D01*
X0263957Y0116244D01*
X0264041Y0116378D01*
X0264130Y0116509D01*
X0264221Y0116638D01*
X0264316Y0116765D01*
X0264413Y0116890D01*
X0264514Y0117012D01*
X0264618Y0117131D01*
X0264725Y0117248D01*
X0264835Y0117362D01*
X0264948Y0117473D01*
X0265063Y0117582D01*
X0265181Y0117687D01*
X0265302Y0117789D01*
X0265425Y0117889D01*
X0265551Y0117985D01*
X0265679Y0118078D01*
X0265809Y0118168D01*
X0265942Y0118254D01*
X0266077Y0118338D01*
X0266213Y0118417D01*
X0266352Y0118494D01*
X0266493Y0118566D01*
X0266635Y0118636D01*
X0266779Y0118701D01*
X0266925Y0118763D01*
X0267072Y0118821D01*
X0267221Y0118876D01*
X0267371Y0118927D01*
X0267522Y0118974D01*
X0267674Y0119017D01*
X0267827Y0119056D01*
X0267982Y0119092D01*
X0268137Y0119123D01*
X0268293Y0119151D01*
X0268449Y0119175D01*
X0268606Y0119195D01*
X0268764Y0119211D01*
X0268921Y0119223D01*
X0269080Y0119231D01*
X0269238Y0119235D01*
X0269396Y0119235D01*
X0269554Y0119231D01*
X0269713Y0119223D01*
X0269870Y0119211D01*
X0270028Y0119195D01*
X0270185Y0119175D01*
X0270341Y0119151D01*
X0270497Y0119123D01*
X0270652Y0119092D01*
X0270807Y0119056D01*
X0270960Y0119017D01*
X0271112Y0118974D01*
X0271263Y0118927D01*
X0271413Y0118876D01*
X0271562Y0118821D01*
X0271709Y0118763D01*
X0271855Y0118701D01*
X0271999Y0118636D01*
X0272141Y0118566D01*
X0272282Y0118494D01*
X0272421Y0118417D01*
X0272557Y0118338D01*
X0272692Y0118254D01*
X0272825Y0118168D01*
X0272955Y0118078D01*
X0273083Y0117985D01*
X0273209Y0117889D01*
X0273332Y0117789D01*
X0273453Y0117687D01*
X0273571Y0117582D01*
X0273686Y0117473D01*
X0273799Y0117362D01*
X0273909Y0117248D01*
X0274016Y0117131D01*
X0274120Y0117012D01*
X0274221Y0116890D01*
X0274318Y0116765D01*
X0274413Y0116638D01*
X0274504Y0116509D01*
X0274593Y0116378D01*
X0274677Y0116244D01*
X0274759Y0116108D01*
X0274837Y0115971D01*
X0274911Y0115831D01*
X0274982Y0115689D01*
X0275050Y0115546D01*
X0275114Y0115401D01*
X0275174Y0115255D01*
X0275230Y0115107D01*
X0275283Y0114958D01*
X0275332Y0114807D01*
X0275377Y0114655D01*
X0275418Y0114502D01*
X0275456Y0114349D01*
X0275489Y0114194D01*
X0275519Y0114038D01*
X0275545Y0113882D01*
X0275566Y0113725D01*
X0275584Y0113568D01*
X0275598Y0113410D01*
X0275608Y0113252D01*
X0275614Y0113094D01*
X0275616Y0112936D01*
X0275614Y0112778D01*
X0275608Y0112620D01*
X0275598Y0112462D01*
X0275584Y0112304D01*
X0275566Y0112147D01*
X0275545Y0111990D01*
X0275519Y0111834D01*
X0275489Y0111678D01*
X0275456Y0111523D01*
X0275418Y0111370D01*
X0275377Y0111217D01*
X0275332Y0111065D01*
X0275283Y0110914D01*
X0275230Y0110765D01*
X0275174Y0110617D01*
X0275114Y0110471D01*
X0275050Y0110326D01*
X0274982Y0110183D01*
X0274911Y0110041D01*
X0274837Y0109901D01*
X0274759Y0109764D01*
X0274677Y0109628D01*
X0274593Y0109494D01*
X0274504Y0109363D01*
X0274413Y0109234D01*
X0274318Y0109107D01*
X0274221Y0108982D01*
X0274120Y0108860D01*
X0274016Y0108741D01*
X0273909Y0108624D01*
X0273799Y0108510D01*
X0273686Y0108399D01*
X0273571Y0108290D01*
X0273453Y0108185D01*
X0273332Y0108083D01*
X0273209Y0107983D01*
X0273083Y0107887D01*
X0272955Y0107794D01*
X0272825Y0107704D01*
X0272692Y0107618D01*
X0272557Y0107534D01*
X0272421Y0107455D01*
X0272282Y0107378D01*
X0272141Y0107306D01*
X0271999Y0107236D01*
X0271855Y0107171D01*
X0271709Y0107109D01*
X0271562Y0107051D01*
X0271413Y0106996D01*
X0271263Y0106945D01*
X0271112Y0106898D01*
X0270960Y0106855D01*
X0270807Y0106816D01*
X0270652Y0106780D01*
X0270497Y0106749D01*
X0270341Y0106721D01*
X0270185Y0106697D01*
X0270028Y0106677D01*
X0269870Y0106661D01*
X0269713Y0106649D01*
X0269554Y0106641D01*
X0269396Y0106637D01*
X0269238Y0106637D01*
X0269080Y0106641D01*
X0268921Y0106649D01*
X0268764Y0106661D01*
X0268606Y0106677D01*
X0268449Y0106697D01*
X0268293Y0106721D01*
X0268137Y0106749D01*
X0267982Y0106780D01*
X0267827Y0106816D01*
X0267674Y0106855D01*
X0267522Y0106898D01*
X0267371Y0106945D01*
X0267221Y0106996D01*
X0267072Y0107051D01*
X0266925Y0107109D01*
X0266779Y0107171D01*
X0266635Y0107236D01*
X0266493Y0107306D01*
X0266352Y0107378D01*
X0266213Y0107455D01*
X0266077Y0107534D01*
X0265942Y0107618D01*
X0265809Y0107704D01*
X0265679Y0107794D01*
X0265551Y0107887D01*
X0265425Y0107983D01*
X0265302Y0108083D01*
X0265181Y0108185D01*
X0265063Y0108290D01*
X0264948Y0108399D01*
X0264835Y0108510D01*
X0264725Y0108624D01*
X0264618Y0108741D01*
X0264514Y0108860D01*
X0264413Y0108982D01*
X0264316Y0109107D01*
X0264221Y0109234D01*
X0264130Y0109363D01*
X0264041Y0109494D01*
X0263957Y0109628D01*
X0263875Y0109764D01*
X0263797Y0109901D01*
X0263723Y0110041D01*
X0263652Y0110183D01*
X0263584Y0110326D01*
X0263520Y0110471D01*
X0263460Y0110617D01*
X0263404Y0110765D01*
X0263351Y0110914D01*
X0263302Y0111065D01*
X0263257Y0111217D01*
X0263216Y0111370D01*
X0263178Y0111523D01*
X0263145Y0111678D01*
X0263115Y0111834D01*
X0263089Y0111990D01*
X0263068Y0112147D01*
X0263050Y0112304D01*
X0263036Y0112462D01*
X0263026Y0112620D01*
X0263020Y0112778D01*
X0263018Y0112936D01*
X0241738Y0113901D02*
X0241740Y0113998D01*
X0241746Y0114095D01*
X0241756Y0114191D01*
X0241770Y0114287D01*
X0241788Y0114383D01*
X0241809Y0114477D01*
X0241835Y0114571D01*
X0241864Y0114663D01*
X0241898Y0114754D01*
X0241934Y0114844D01*
X0241975Y0114932D01*
X0242019Y0115018D01*
X0242067Y0115103D01*
X0242118Y0115185D01*
X0242172Y0115266D01*
X0242230Y0115344D01*
X0242291Y0115419D01*
X0242354Y0115492D01*
X0242421Y0115563D01*
X0242491Y0115630D01*
X0242563Y0115695D01*
X0242638Y0115756D01*
X0242716Y0115815D01*
X0242795Y0115870D01*
X0242877Y0115922D01*
X0242961Y0115970D01*
X0243047Y0116015D01*
X0243135Y0116057D01*
X0243224Y0116095D01*
X0243315Y0116129D01*
X0243407Y0116159D01*
X0243500Y0116186D01*
X0243595Y0116208D01*
X0243690Y0116227D01*
X0243786Y0116242D01*
X0243882Y0116253D01*
X0243979Y0116260D01*
X0244076Y0116263D01*
X0244173Y0116262D01*
X0244270Y0116257D01*
X0244366Y0116248D01*
X0244462Y0116235D01*
X0244558Y0116218D01*
X0244653Y0116197D01*
X0244746Y0116173D01*
X0244839Y0116144D01*
X0244931Y0116112D01*
X0245021Y0116076D01*
X0245109Y0116037D01*
X0245196Y0115993D01*
X0245281Y0115947D01*
X0245364Y0115896D01*
X0245445Y0115843D01*
X0245523Y0115786D01*
X0245600Y0115726D01*
X0245673Y0115663D01*
X0245744Y0115597D01*
X0245812Y0115528D01*
X0245878Y0115456D01*
X0245940Y0115382D01*
X0245999Y0115305D01*
X0246055Y0115226D01*
X0246108Y0115144D01*
X0246158Y0115061D01*
X0246203Y0114975D01*
X0246246Y0114888D01*
X0246285Y0114799D01*
X0246320Y0114709D01*
X0246351Y0114617D01*
X0246378Y0114524D01*
X0246402Y0114430D01*
X0246422Y0114335D01*
X0246438Y0114239D01*
X0246450Y0114143D01*
X0246458Y0114046D01*
X0246462Y0113949D01*
X0246462Y0113853D01*
X0246458Y0113756D01*
X0246450Y0113659D01*
X0246438Y0113563D01*
X0246422Y0113467D01*
X0246402Y0113372D01*
X0246378Y0113278D01*
X0246351Y0113185D01*
X0246320Y0113093D01*
X0246285Y0113003D01*
X0246246Y0112914D01*
X0246203Y0112827D01*
X0246158Y0112741D01*
X0246108Y0112658D01*
X0246055Y0112576D01*
X0245999Y0112497D01*
X0245940Y0112420D01*
X0245878Y0112346D01*
X0245812Y0112274D01*
X0245744Y0112205D01*
X0245673Y0112139D01*
X0245600Y0112076D01*
X0245523Y0112016D01*
X0245445Y0111959D01*
X0245364Y0111906D01*
X0245281Y0111855D01*
X0245196Y0111809D01*
X0245109Y0111765D01*
X0245021Y0111726D01*
X0244931Y0111690D01*
X0244839Y0111658D01*
X0244746Y0111629D01*
X0244653Y0111605D01*
X0244558Y0111584D01*
X0244462Y0111567D01*
X0244366Y0111554D01*
X0244270Y0111545D01*
X0244173Y0111540D01*
X0244076Y0111539D01*
X0243979Y0111542D01*
X0243882Y0111549D01*
X0243786Y0111560D01*
X0243690Y0111575D01*
X0243595Y0111594D01*
X0243500Y0111616D01*
X0243407Y0111643D01*
X0243315Y0111673D01*
X0243224Y0111707D01*
X0243135Y0111745D01*
X0243047Y0111787D01*
X0242961Y0111832D01*
X0242877Y0111880D01*
X0242795Y0111932D01*
X0242716Y0111987D01*
X0242638Y0112046D01*
X0242563Y0112107D01*
X0242491Y0112172D01*
X0242421Y0112239D01*
X0242354Y0112310D01*
X0242291Y0112383D01*
X0242230Y0112458D01*
X0242172Y0112536D01*
X0242118Y0112617D01*
X0242067Y0112699D01*
X0242019Y0112784D01*
X0241975Y0112870D01*
X0241934Y0112958D01*
X0241898Y0113048D01*
X0241864Y0113139D01*
X0241835Y0113231D01*
X0241809Y0113325D01*
X0241788Y0113419D01*
X0241770Y0113515D01*
X0241756Y0113611D01*
X0241746Y0113707D01*
X0241740Y0113804D01*
X0241738Y0113901D01*
X0105537Y0112936D02*
X0105539Y0113094D01*
X0105545Y0113252D01*
X0105555Y0113410D01*
X0105569Y0113568D01*
X0105587Y0113725D01*
X0105608Y0113882D01*
X0105634Y0114038D01*
X0105664Y0114194D01*
X0105697Y0114349D01*
X0105735Y0114502D01*
X0105776Y0114655D01*
X0105821Y0114807D01*
X0105870Y0114958D01*
X0105923Y0115107D01*
X0105979Y0115255D01*
X0106039Y0115401D01*
X0106103Y0115546D01*
X0106171Y0115689D01*
X0106242Y0115831D01*
X0106316Y0115971D01*
X0106394Y0116108D01*
X0106476Y0116244D01*
X0106560Y0116378D01*
X0106649Y0116509D01*
X0106740Y0116638D01*
X0106835Y0116765D01*
X0106932Y0116890D01*
X0107033Y0117012D01*
X0107137Y0117131D01*
X0107244Y0117248D01*
X0107354Y0117362D01*
X0107467Y0117473D01*
X0107582Y0117582D01*
X0107700Y0117687D01*
X0107821Y0117789D01*
X0107944Y0117889D01*
X0108070Y0117985D01*
X0108198Y0118078D01*
X0108328Y0118168D01*
X0108461Y0118254D01*
X0108596Y0118338D01*
X0108732Y0118417D01*
X0108871Y0118494D01*
X0109012Y0118566D01*
X0109154Y0118636D01*
X0109298Y0118701D01*
X0109444Y0118763D01*
X0109591Y0118821D01*
X0109740Y0118876D01*
X0109890Y0118927D01*
X0110041Y0118974D01*
X0110193Y0119017D01*
X0110346Y0119056D01*
X0110501Y0119092D01*
X0110656Y0119123D01*
X0110812Y0119151D01*
X0110968Y0119175D01*
X0111125Y0119195D01*
X0111283Y0119211D01*
X0111440Y0119223D01*
X0111599Y0119231D01*
X0111757Y0119235D01*
X0111915Y0119235D01*
X0112073Y0119231D01*
X0112232Y0119223D01*
X0112389Y0119211D01*
X0112547Y0119195D01*
X0112704Y0119175D01*
X0112860Y0119151D01*
X0113016Y0119123D01*
X0113171Y0119092D01*
X0113326Y0119056D01*
X0113479Y0119017D01*
X0113631Y0118974D01*
X0113782Y0118927D01*
X0113932Y0118876D01*
X0114081Y0118821D01*
X0114228Y0118763D01*
X0114374Y0118701D01*
X0114518Y0118636D01*
X0114660Y0118566D01*
X0114801Y0118494D01*
X0114940Y0118417D01*
X0115076Y0118338D01*
X0115211Y0118254D01*
X0115344Y0118168D01*
X0115474Y0118078D01*
X0115602Y0117985D01*
X0115728Y0117889D01*
X0115851Y0117789D01*
X0115972Y0117687D01*
X0116090Y0117582D01*
X0116205Y0117473D01*
X0116318Y0117362D01*
X0116428Y0117248D01*
X0116535Y0117131D01*
X0116639Y0117012D01*
X0116740Y0116890D01*
X0116837Y0116765D01*
X0116932Y0116638D01*
X0117023Y0116509D01*
X0117112Y0116378D01*
X0117196Y0116244D01*
X0117278Y0116108D01*
X0117356Y0115971D01*
X0117430Y0115831D01*
X0117501Y0115689D01*
X0117569Y0115546D01*
X0117633Y0115401D01*
X0117693Y0115255D01*
X0117749Y0115107D01*
X0117802Y0114958D01*
X0117851Y0114807D01*
X0117896Y0114655D01*
X0117937Y0114502D01*
X0117975Y0114349D01*
X0118008Y0114194D01*
X0118038Y0114038D01*
X0118064Y0113882D01*
X0118085Y0113725D01*
X0118103Y0113568D01*
X0118117Y0113410D01*
X0118127Y0113252D01*
X0118133Y0113094D01*
X0118135Y0112936D01*
X0118133Y0112778D01*
X0118127Y0112620D01*
X0118117Y0112462D01*
X0118103Y0112304D01*
X0118085Y0112147D01*
X0118064Y0111990D01*
X0118038Y0111834D01*
X0118008Y0111678D01*
X0117975Y0111523D01*
X0117937Y0111370D01*
X0117896Y0111217D01*
X0117851Y0111065D01*
X0117802Y0110914D01*
X0117749Y0110765D01*
X0117693Y0110617D01*
X0117633Y0110471D01*
X0117569Y0110326D01*
X0117501Y0110183D01*
X0117430Y0110041D01*
X0117356Y0109901D01*
X0117278Y0109764D01*
X0117196Y0109628D01*
X0117112Y0109494D01*
X0117023Y0109363D01*
X0116932Y0109234D01*
X0116837Y0109107D01*
X0116740Y0108982D01*
X0116639Y0108860D01*
X0116535Y0108741D01*
X0116428Y0108624D01*
X0116318Y0108510D01*
X0116205Y0108399D01*
X0116090Y0108290D01*
X0115972Y0108185D01*
X0115851Y0108083D01*
X0115728Y0107983D01*
X0115602Y0107887D01*
X0115474Y0107794D01*
X0115344Y0107704D01*
X0115211Y0107618D01*
X0115076Y0107534D01*
X0114940Y0107455D01*
X0114801Y0107378D01*
X0114660Y0107306D01*
X0114518Y0107236D01*
X0114374Y0107171D01*
X0114228Y0107109D01*
X0114081Y0107051D01*
X0113932Y0106996D01*
X0113782Y0106945D01*
X0113631Y0106898D01*
X0113479Y0106855D01*
X0113326Y0106816D01*
X0113171Y0106780D01*
X0113016Y0106749D01*
X0112860Y0106721D01*
X0112704Y0106697D01*
X0112547Y0106677D01*
X0112389Y0106661D01*
X0112232Y0106649D01*
X0112073Y0106641D01*
X0111915Y0106637D01*
X0111757Y0106637D01*
X0111599Y0106641D01*
X0111440Y0106649D01*
X0111283Y0106661D01*
X0111125Y0106677D01*
X0110968Y0106697D01*
X0110812Y0106721D01*
X0110656Y0106749D01*
X0110501Y0106780D01*
X0110346Y0106816D01*
X0110193Y0106855D01*
X0110041Y0106898D01*
X0109890Y0106945D01*
X0109740Y0106996D01*
X0109591Y0107051D01*
X0109444Y0107109D01*
X0109298Y0107171D01*
X0109154Y0107236D01*
X0109012Y0107306D01*
X0108871Y0107378D01*
X0108732Y0107455D01*
X0108596Y0107534D01*
X0108461Y0107618D01*
X0108328Y0107704D01*
X0108198Y0107794D01*
X0108070Y0107887D01*
X0107944Y0107983D01*
X0107821Y0108083D01*
X0107700Y0108185D01*
X0107582Y0108290D01*
X0107467Y0108399D01*
X0107354Y0108510D01*
X0107244Y0108624D01*
X0107137Y0108741D01*
X0107033Y0108860D01*
X0106932Y0108982D01*
X0106835Y0109107D01*
X0106740Y0109234D01*
X0106649Y0109363D01*
X0106560Y0109494D01*
X0106476Y0109628D01*
X0106394Y0109764D01*
X0106316Y0109901D01*
X0106242Y0110041D01*
X0106171Y0110183D01*
X0106103Y0110326D01*
X0106039Y0110471D01*
X0105979Y0110617D01*
X0105923Y0110765D01*
X0105870Y0110914D01*
X0105821Y0111065D01*
X0105776Y0111217D01*
X0105735Y0111370D01*
X0105697Y0111523D01*
X0105664Y0111678D01*
X0105634Y0111834D01*
X0105608Y0111990D01*
X0105587Y0112147D01*
X0105569Y0112304D01*
X0105555Y0112462D01*
X0105545Y0112620D01*
X0105539Y0112778D01*
X0105537Y0112936D01*
D11*
X0072673Y0111529D03*
X0064799Y0111529D03*
X0056925Y0111529D03*
X0049051Y0111529D03*
X0041177Y0111529D03*
X0033303Y0111529D03*
X0025429Y0111529D03*
X0017555Y0111529D03*
X0009681Y0111529D03*
X0095350Y0075200D03*
X0103913Y0068950D03*
X0111787Y0068950D03*
X0111600Y0025200D03*
X0103726Y0025200D03*
X0119474Y0025200D03*
X0092673Y0014029D03*
X0084799Y0014029D03*
X0076925Y0014029D03*
X0069051Y0014029D03*
X0061177Y0014029D03*
X0053303Y0014029D03*
X0045429Y0014029D03*
X0037555Y0014029D03*
X0029681Y0014029D03*
X0127791Y0010200D03*
X0135665Y0010200D03*
X0143539Y0010200D03*
X0151413Y0010200D03*
X0159287Y0010200D03*
X0167161Y0010200D03*
X0175035Y0010200D03*
X0182909Y0010200D03*
X0208165Y0010200D03*
X0216039Y0010200D03*
X0223913Y0010200D03*
X0231787Y0010200D03*
X0239661Y0010200D03*
X0247535Y0010200D03*
X0246285Y0023950D03*
X0254159Y0023950D03*
X0238411Y0023950D03*
X0230537Y0023950D03*
X0222663Y0023950D03*
X0214789Y0023950D03*
X0206915Y0023950D03*
X0199041Y0023950D03*
X0286541Y0010200D03*
X0294415Y0010200D03*
X0302289Y0010200D03*
X0310163Y0010200D03*
X0318037Y0010200D03*
X0325911Y0010200D03*
X0333785Y0010200D03*
X0341659Y0010200D03*
X0349100Y0015889D03*
X0349100Y0023763D03*
X0349100Y0031637D03*
X0349100Y0039511D03*
D12*
X0326600Y0064200D03*
D13*
X0326600Y0056200D03*
D14*
X0311078Y0113507D03*
X0289622Y0113507D03*
D15*
X0214100Y0115700D02*
X0214100Y0109700D01*
X0204100Y0109700D02*
X0204100Y0115700D01*
X0194100Y0115700D02*
X0194100Y0109700D01*
X0184100Y0109700D02*
X0184100Y0115700D01*
X0343600Y0065200D02*
X0349600Y0065200D01*
X0349600Y0055200D02*
X0343600Y0055200D01*
D16*
X0109600Y0055200D03*
X0103600Y0055200D03*
D17*
X0219100Y0087950D03*
X0219100Y0093950D03*
X0234100Y0095450D03*
X0219100Y0099950D03*
X0234100Y0101450D03*
X0234100Y0107450D03*
D18*
X0147200Y0090300D02*
X0146800Y0091100D01*
X0136400Y0091100D01*
X0127200Y0081900D01*
X0126400Y0081500D01*
X0126400Y0077100D01*
X0109600Y0060300D01*
X0106800Y0060300D01*
X0104000Y0057500D01*
X0104000Y0055900D01*
X0103600Y0055200D01*
X0103600Y0025500D01*
X0103726Y0025200D01*
X0119474Y0025200D02*
X0119600Y0025500D01*
X0123000Y0028900D01*
X0122400Y0029500D01*
X0115200Y0036700D01*
X0123000Y0028900D02*
X0126000Y0031900D01*
X0175200Y0031900D01*
X0176000Y0032300D01*
X0194350Y0050650D01*
X0210500Y0050650D01*
X0211300Y0050250D01*
X0223650Y0035400D01*
X0269650Y0035400D01*
X0326600Y0056200D02*
X0326800Y0056300D01*
X0331600Y0056300D01*
X0338000Y0062700D01*
X0338800Y0063100D01*
X0346400Y0055500D01*
X0346600Y0055200D01*
X0346800Y0054300D01*
X0348800Y0052300D01*
X0348800Y0039900D01*
X0349100Y0039511D01*
X0338800Y0063100D02*
X0338800Y0067100D01*
X0338000Y0067500D01*
X0323200Y0082300D01*
X0320400Y0082300D01*
X0338800Y0067100D02*
X0347600Y0075900D01*
X0209600Y0066700D02*
X0206000Y0070300D01*
X0188800Y0071500D02*
X0149200Y0071500D01*
X0147200Y0073500D01*
X0147200Y0090300D01*
X0126400Y0081500D02*
X0116800Y0091100D01*
X0047850Y0063950D02*
X0036600Y0063950D01*
X0026600Y0051450D01*
X0012850Y0051450D01*
D19*
X0043000Y0055300D03*
X0047450Y0053650D03*
X0066000Y0064700D03*
X0069600Y0064700D03*
X0082900Y0048700D03*
X0106800Y0048700D03*
X0125200Y0051500D03*
X0144800Y0062300D03*
X0134400Y0064700D03*
X0150400Y0074700D03*
X0123200Y0080300D03*
X0118850Y0082700D03*
X0100000Y0087100D03*
X0154400Y0097500D03*
X0156800Y0099900D03*
X0171200Y0092300D03*
X0180800Y0095500D03*
X0184800Y0093500D03*
X0187600Y0095900D03*
X0194800Y0093500D03*
X0199600Y0086700D03*
X0194800Y0081900D03*
X0212400Y0080300D03*
X0224000Y0078300D03*
X0206000Y0070300D03*
X0209600Y0066700D03*
X0213200Y0066700D03*
X0217200Y0066700D03*
X0204800Y0060300D03*
X0197600Y0062700D03*
X0220800Y0058300D03*
X0250400Y0051100D03*
X0257600Y0051100D03*
X0263600Y0048700D03*
X0280400Y0058300D03*
X0278000Y0060700D03*
X0265200Y0065100D03*
X0262800Y0067500D03*
X0286000Y0072700D03*
X0245600Y0079900D03*
X0245600Y0093500D03*
X0239600Y0095900D03*
X0239600Y0107500D03*
X0191600Y0103900D03*
X0156400Y0084300D03*
X0162400Y0040300D03*
X0165600Y0039500D03*
X0144800Y0028700D03*
X0148800Y0028300D03*
X0165600Y0028300D03*
X0179600Y0023100D03*
X0185600Y0018300D03*
X0190400Y0020700D03*
X0167600Y0016700D03*
X0164000Y0020300D03*
X0195200Y0005100D03*
X0248400Y0015100D03*
X0309600Y0043900D03*
X0347600Y0075900D03*
X0317800Y0105100D03*
X0343950Y0115650D03*
D20*
X0320400Y0082300D03*
X0210500Y0050650D03*
X0175200Y0031900D03*
X0115200Y0036700D03*
X0047850Y0063950D03*
X0012850Y0051450D03*
X0116800Y0091100D03*
X0146800Y0091100D03*
X0188800Y0071500D03*
X0269650Y0035400D03*
D21*
X0297600Y0047811D02*
X0297600Y0052789D01*
X0299689Y0050700D02*
X0294711Y0050700D01*
X0293600Y0051811D02*
X0293600Y0056789D01*
X0295689Y0054700D02*
X0290711Y0054700D01*
X0289600Y0055811D02*
X0289600Y0060789D01*
X0291689Y0058700D02*
X0286711Y0058700D01*
X0285600Y0059811D02*
X0285600Y0064789D01*
X0283689Y0066700D02*
X0267784Y0066700D01*
X0267743Y0066799D02*
X0266899Y0067643D01*
X0266762Y0067700D01*
X0282689Y0067700D01*
X0306600Y0043789D01*
X0306600Y0043303D01*
X0307057Y0042201D01*
X0307901Y0041357D01*
X0309003Y0040900D01*
X0310197Y0040900D01*
X0311299Y0041357D01*
X0312143Y0042201D01*
X0312600Y0043303D01*
X0312600Y0044497D01*
X0312143Y0045599D01*
X0311299Y0046443D01*
X0310197Y0046900D01*
X0309711Y0046900D01*
X0286819Y0069792D01*
X0287699Y0070157D01*
X0288543Y0071001D01*
X0289000Y0072103D01*
X0289000Y0073297D01*
X0288543Y0074399D01*
X0287699Y0075243D01*
X0286597Y0075700D01*
X0286111Y0075700D01*
X0279711Y0082100D01*
X0247643Y0082100D01*
X0247299Y0082443D01*
X0246432Y0082803D01*
X0246458Y0082813D01*
X0247629Y0083984D01*
X0248262Y0085514D01*
X0248262Y0087170D01*
X0247629Y0088699D01*
X0247428Y0088900D01*
X0323631Y0088900D01*
X0323742Y0088811D01*
X0324524Y0088900D01*
X0325311Y0088900D01*
X0325412Y0089001D01*
X0325553Y0089017D01*
X0326044Y0089632D01*
X0326600Y0090189D01*
X0326600Y0090331D01*
X0344373Y0112650D01*
X0344547Y0112650D01*
X0345649Y0113107D01*
X0346493Y0113951D01*
X0346950Y0115053D01*
X0346950Y0116247D01*
X0346493Y0117349D01*
X0345649Y0118193D01*
X0344547Y0118650D01*
X0343353Y0118650D01*
X0342251Y0118193D01*
X0341407Y0117349D01*
X0340950Y0116247D01*
X0340950Y0115414D01*
X0323340Y0093300D01*
X0248600Y0093300D01*
X0248600Y0094097D01*
X0248143Y0095199D01*
X0247299Y0096043D01*
X0246197Y0096500D01*
X0245711Y0096500D01*
X0240200Y0102011D01*
X0239050Y0103161D01*
X0239050Y0104500D01*
X0240197Y0104500D01*
X0241299Y0104957D01*
X0241966Y0105623D01*
X0244689Y0102900D01*
X0287165Y0102900D01*
X0286936Y0102347D01*
X0286936Y0100809D01*
X0287525Y0099388D01*
X0288612Y0098300D01*
X0290034Y0097711D01*
X0291572Y0097711D01*
X0292993Y0098300D01*
X0294081Y0099388D01*
X0294670Y0100809D01*
X0294670Y0102347D01*
X0294441Y0102900D01*
X0306259Y0102900D01*
X0306030Y0102347D01*
X0306030Y0100809D01*
X0306619Y0099388D01*
X0307707Y0098300D01*
X0309128Y0097711D01*
X0310666Y0097711D01*
X0312088Y0098300D01*
X0313175Y0099388D01*
X0313764Y0100809D01*
X0313764Y0102347D01*
X0313535Y0102900D01*
X0315757Y0102900D01*
X0316101Y0102557D01*
X0317203Y0102100D01*
X0318397Y0102100D01*
X0319499Y0102557D01*
X0320343Y0103401D01*
X0320800Y0104503D01*
X0320800Y0105697D01*
X0320343Y0106799D01*
X0319499Y0107643D01*
X0318397Y0108100D01*
X0317203Y0108100D01*
X0316101Y0107643D01*
X0315757Y0107300D01*
X0275134Y0107300D01*
X0276183Y0108348D01*
X0277416Y0111325D01*
X0277416Y0114547D01*
X0276183Y0117524D01*
X0274697Y0119010D01*
X0284705Y0119010D01*
X0283885Y0118190D01*
X0283885Y0108824D01*
X0284939Y0107770D01*
X0294304Y0107770D01*
X0295359Y0108824D01*
X0295359Y0118190D01*
X0294538Y0119010D01*
X0306162Y0119010D01*
X0305341Y0118190D01*
X0305341Y0108824D01*
X0306396Y0107770D01*
X0315761Y0107770D01*
X0316815Y0108824D01*
X0316815Y0118190D01*
X0315995Y0119010D01*
X0354131Y0119010D01*
X0354131Y0065999D01*
X0354087Y0066277D01*
X0353863Y0066966D01*
X0353534Y0067611D01*
X0353109Y0068197D01*
X0352597Y0068709D01*
X0352011Y0069134D01*
X0351366Y0069463D01*
X0350677Y0069687D01*
X0349962Y0069800D01*
X0347000Y0069800D01*
X0347000Y0065600D01*
X0346200Y0065600D01*
X0346200Y0069800D01*
X0345318Y0069800D01*
X0348575Y0073057D01*
X0349299Y0073357D01*
X0350143Y0074201D01*
X0350600Y0075303D01*
X0350600Y0076497D01*
X0350143Y0077599D01*
X0349299Y0078443D01*
X0348197Y0078900D01*
X0347003Y0078900D01*
X0345901Y0078443D01*
X0345057Y0077599D01*
X0344757Y0076875D01*
X0338600Y0070718D01*
X0324729Y0084589D01*
X0323737Y0085000D01*
X0322225Y0085000D01*
X0322213Y0085013D01*
X0321037Y0085500D01*
X0319763Y0085500D01*
X0318587Y0085013D01*
X0317687Y0084113D01*
X0317200Y0082937D01*
X0317200Y0081663D01*
X0317687Y0080487D01*
X0318587Y0079587D01*
X0319763Y0079100D01*
X0321037Y0079100D01*
X0322129Y0079553D01*
X0336023Y0065659D01*
X0336100Y0065570D01*
X0336100Y0064630D01*
X0336023Y0064541D01*
X0330482Y0059000D01*
X0330023Y0059000D01*
X0329092Y0059930D01*
X0328511Y0060171D01*
X0330800Y0062460D01*
X0330800Y0064000D01*
X0326800Y0064000D01*
X0326800Y0064400D01*
X0326400Y0064400D01*
X0326400Y0068400D01*
X0324860Y0068400D01*
X0322400Y0065940D01*
X0322400Y0064400D01*
X0326400Y0064400D01*
X0326400Y0064000D01*
X0322400Y0064000D01*
X0322400Y0062460D01*
X0324689Y0060171D01*
X0324108Y0059930D01*
X0322870Y0058692D01*
X0322200Y0057075D01*
X0322200Y0055325D01*
X0322870Y0053708D01*
X0324108Y0052470D01*
X0325725Y0051800D01*
X0327475Y0051800D01*
X0329092Y0052470D01*
X0330223Y0053600D01*
X0332137Y0053600D01*
X0333129Y0054011D01*
X0338600Y0059482D01*
X0339847Y0058235D01*
X0339531Y0057919D01*
X0338800Y0056155D01*
X0338800Y0054245D01*
X0339531Y0052481D01*
X0340881Y0051131D01*
X0342645Y0050400D01*
X0346100Y0050400D01*
X0346100Y0043016D01*
X0345200Y0042117D01*
X0344500Y0040426D01*
X0344500Y0038596D01*
X0345200Y0036905D01*
X0346494Y0035611D01*
X0346584Y0035574D01*
X0346494Y0035537D01*
X0345200Y0034243D01*
X0344500Y0032552D01*
X0344500Y0030722D01*
X0345200Y0029031D01*
X0346494Y0027737D01*
X0346584Y0027700D01*
X0346494Y0027663D01*
X0345200Y0026369D01*
X0344500Y0024678D01*
X0344500Y0022848D01*
X0345200Y0021157D01*
X0346494Y0019863D01*
X0346584Y0019826D01*
X0346494Y0019789D01*
X0345200Y0018495D01*
X0344500Y0016804D01*
X0344500Y0014974D01*
X0345200Y0013283D01*
X0346494Y0011989D01*
X0348185Y0011289D01*
X0350015Y0011289D01*
X0351706Y0011989D01*
X0353000Y0013283D01*
X0353700Y0014974D01*
X0353700Y0016804D01*
X0353000Y0018495D01*
X0351706Y0019789D01*
X0351616Y0019826D01*
X0351706Y0019863D01*
X0353000Y0021157D01*
X0353700Y0022848D01*
X0353700Y0024678D01*
X0353000Y0026369D01*
X0351706Y0027663D01*
X0351616Y0027700D01*
X0351706Y0027737D01*
X0353000Y0029031D01*
X0353700Y0030722D01*
X0353700Y0032552D01*
X0353000Y0034243D01*
X0351706Y0035537D01*
X0351616Y0035574D01*
X0351706Y0035611D01*
X0353000Y0036905D01*
X0353700Y0038596D01*
X0353700Y0040426D01*
X0353000Y0042117D01*
X0351706Y0043411D01*
X0351500Y0043496D01*
X0351500Y0050792D01*
X0352319Y0051131D01*
X0353669Y0052481D01*
X0354131Y0053595D01*
X0354131Y0004500D01*
X0339311Y0004500D01*
X0340509Y0005697D01*
X0340744Y0005600D01*
X0342574Y0005600D01*
X0344265Y0006300D01*
X0345559Y0007594D01*
X0346259Y0009285D01*
X0346259Y0011115D01*
X0345559Y0012806D01*
X0344265Y0014100D01*
X0342574Y0014800D01*
X0340744Y0014800D01*
X0339053Y0014100D01*
X0337759Y0012806D01*
X0337722Y0012716D01*
X0337685Y0012806D01*
X0336391Y0014100D01*
X0334700Y0014800D01*
X0332870Y0014800D01*
X0331179Y0014100D01*
X0329885Y0012806D01*
X0329848Y0012716D01*
X0329811Y0012806D01*
X0328517Y0014100D01*
X0327800Y0014397D01*
X0327800Y0017611D01*
X0326511Y0018900D01*
X0280111Y0065300D01*
X0278289Y0065300D01*
X0275889Y0065300D01*
X0275489Y0064900D01*
X0268200Y0064900D01*
X0268200Y0065697D01*
X0267743Y0066799D01*
X0269600Y0067700D02*
X0269600Y0064900D01*
X0273600Y0064900D02*
X0273600Y0067700D01*
X0277600Y0067700D02*
X0277600Y0065300D01*
X0281600Y0063811D02*
X0281600Y0067700D01*
X0288243Y0070700D02*
X0330982Y0070700D01*
X0329600Y0072082D02*
X0329600Y0067140D01*
X0330040Y0066700D02*
X0334982Y0066700D01*
X0333600Y0068082D02*
X0333600Y0062118D01*
X0334182Y0062700D02*
X0330800Y0062700D01*
X0330800Y0064400D02*
X0326800Y0064400D01*
X0326800Y0068400D01*
X0328340Y0068400D01*
X0330800Y0065940D01*
X0330800Y0064400D01*
X0329600Y0064400D02*
X0329600Y0064000D01*
X0329600Y0061260D02*
X0329600Y0059423D01*
X0322877Y0058700D02*
X0297911Y0058700D01*
X0297600Y0059011D02*
X0297600Y0088900D01*
X0293600Y0088900D02*
X0293600Y0063011D01*
X0293911Y0062700D02*
X0322400Y0062700D01*
X0325600Y0064000D02*
X0325600Y0064400D01*
X0326400Y0066700D02*
X0326800Y0066700D01*
X0325600Y0068400D02*
X0325600Y0076082D01*
X0326982Y0074700D02*
X0288243Y0074700D01*
X0285600Y0076211D02*
X0285600Y0088900D01*
X0281600Y0088900D02*
X0281600Y0080211D01*
X0283111Y0078700D02*
X0322982Y0078700D01*
X0321600Y0079333D02*
X0321600Y0023811D01*
X0322711Y0022700D02*
X0344561Y0022700D01*
X0345600Y0020758D02*
X0345600Y0018894D01*
X0345406Y0018700D02*
X0326711Y0018700D01*
X0325600Y0019811D02*
X0325600Y0051852D01*
X0329600Y0052977D02*
X0329600Y0013016D01*
X0327800Y0014700D02*
X0332629Y0014700D01*
X0333600Y0014800D02*
X0333600Y0054482D01*
X0333818Y0054700D02*
X0338800Y0054700D01*
X0337600Y0058482D02*
X0337600Y0012890D01*
X0334941Y0014700D02*
X0340503Y0014700D01*
X0341600Y0014800D02*
X0341600Y0050833D01*
X0341921Y0050700D02*
X0305911Y0050700D01*
X0305600Y0051011D02*
X0305600Y0088900D01*
X0301600Y0088900D02*
X0301600Y0055011D01*
X0301911Y0054700D02*
X0322459Y0054700D01*
X0337818Y0058700D02*
X0339382Y0058700D01*
X0345118Y0060600D02*
X0346200Y0060600D01*
X0346200Y0064800D01*
X0347000Y0064800D01*
X0347000Y0060600D01*
X0349962Y0060600D01*
X0350677Y0060713D01*
X0351366Y0060937D01*
X0352011Y0061266D01*
X0352597Y0061691D01*
X0353109Y0062203D01*
X0353534Y0062789D01*
X0353863Y0063434D01*
X0354087Y0064123D01*
X0354131Y0064401D01*
X0354131Y0056805D01*
X0353669Y0057919D01*
X0352319Y0059269D01*
X0350555Y0060000D01*
X0345718Y0060000D01*
X0345118Y0060600D01*
X0345600Y0060600D02*
X0345600Y0060118D01*
X0349600Y0060000D02*
X0349600Y0060600D01*
X0352888Y0058700D02*
X0354131Y0058700D01*
X0353600Y0057988D02*
X0353600Y0062918D01*
X0353470Y0062700D02*
X0354131Y0062700D01*
X0347000Y0062700D02*
X0346200Y0062700D01*
X0346200Y0066700D02*
X0347000Y0066700D01*
X0345600Y0069800D02*
X0345600Y0070082D01*
X0346218Y0070700D02*
X0354131Y0070700D01*
X0349600Y0069800D02*
X0349600Y0073657D01*
X0350350Y0074700D02*
X0354131Y0074700D01*
X0354131Y0078700D02*
X0348680Y0078700D01*
X0349600Y0078143D02*
X0349600Y0119010D01*
X0345600Y0119010D02*
X0345600Y0118214D01*
X0341600Y0117543D02*
X0341600Y0119010D01*
X0337600Y0119010D02*
X0337600Y0111208D01*
X0337196Y0110700D02*
X0316815Y0110700D01*
X0317600Y0108100D02*
X0317600Y0119010D01*
X0316305Y0118700D02*
X0354131Y0118700D01*
X0353600Y0119010D02*
X0353600Y0067482D01*
X0353949Y0066700D02*
X0354131Y0066700D01*
X0337600Y0071718D02*
X0337600Y0104144D01*
X0336450Y0102700D02*
X0354131Y0102700D01*
X0354131Y0098700D02*
X0333264Y0098700D01*
X0333600Y0099121D02*
X0333600Y0075718D01*
X0334618Y0074700D02*
X0342582Y0074700D01*
X0341600Y0073718D02*
X0341600Y0109167D01*
X0342820Y0110700D02*
X0354131Y0110700D01*
X0345600Y0113086D02*
X0345600Y0078143D01*
X0346520Y0078700D02*
X0330618Y0078700D01*
X0329600Y0079718D02*
X0329600Y0094098D01*
X0330079Y0094700D02*
X0354131Y0094700D01*
X0354131Y0090700D02*
X0326894Y0090700D01*
X0325600Y0089075D02*
X0325600Y0083718D01*
X0326618Y0082700D02*
X0354131Y0082700D01*
X0354131Y0086700D02*
X0248262Y0086700D01*
X0249600Y0088900D02*
X0249600Y0082100D01*
X0246680Y0082700D02*
X0317200Y0082700D01*
X0317600Y0083902D02*
X0317600Y0088900D01*
X0313600Y0088900D02*
X0313600Y0031811D01*
X0314711Y0030700D02*
X0344509Y0030700D01*
X0345600Y0028632D02*
X0345600Y0026768D01*
X0345532Y0026700D02*
X0318711Y0026700D01*
X0317600Y0027811D02*
X0317600Y0080698D01*
X0321600Y0085267D02*
X0321600Y0088900D01*
X0309600Y0088900D02*
X0309600Y0047011D01*
X0310680Y0046700D02*
X0346100Y0046700D01*
X0345600Y0050400D02*
X0345600Y0042516D01*
X0345784Y0042700D02*
X0312350Y0042700D01*
X0309600Y0040900D02*
X0309600Y0035811D01*
X0310711Y0034700D02*
X0345658Y0034700D01*
X0345600Y0034642D02*
X0345600Y0036506D01*
X0344500Y0038700D02*
X0306711Y0038700D01*
X0305600Y0039811D02*
X0305600Y0044789D01*
X0301600Y0043811D02*
X0301600Y0048789D01*
X0303689Y0046700D02*
X0298711Y0046700D01*
X0302711Y0042700D02*
X0306850Y0042700D01*
X0351500Y0046700D02*
X0354131Y0046700D01*
X0354131Y0050700D02*
X0351500Y0050700D01*
X0353600Y0052412D02*
X0353600Y0040667D01*
X0354131Y0042700D02*
X0352416Y0042700D01*
X0353700Y0038700D02*
X0354131Y0038700D01*
X0353600Y0038355D02*
X0353600Y0032793D01*
X0354131Y0034700D02*
X0352542Y0034700D01*
X0353691Y0030700D02*
X0354131Y0030700D01*
X0353600Y0030481D02*
X0353600Y0024919D01*
X0354131Y0026700D02*
X0352668Y0026700D01*
X0353639Y0022700D02*
X0354131Y0022700D01*
X0353600Y0022607D02*
X0353600Y0017045D01*
X0354131Y0018700D02*
X0352794Y0018700D01*
X0353600Y0014733D02*
X0353600Y0004500D01*
X0349600Y0004500D02*
X0349600Y0011289D01*
X0346259Y0010700D02*
X0354131Y0010700D01*
X0345600Y0012706D02*
X0345600Y0012884D01*
X0344613Y0014700D02*
X0342815Y0014700D01*
X0353587Y0014700D02*
X0354131Y0014700D01*
X0354131Y0006700D02*
X0344664Y0006700D01*
X0345600Y0007694D02*
X0345600Y0004500D01*
X0341600Y0004500D02*
X0341600Y0005600D01*
X0190689Y0060100D02*
X0181489Y0050900D01*
X0128199Y0050900D01*
X0128200Y0050903D01*
X0128200Y0052097D01*
X0127743Y0053199D01*
X0126899Y0054043D01*
X0125797Y0054500D01*
X0124603Y0054500D01*
X0123501Y0054043D01*
X0123157Y0053700D01*
X0114111Y0053700D01*
X0113700Y0054111D01*
X0113700Y0059096D01*
X0112646Y0060150D01*
X0106554Y0060150D01*
X0106303Y0059898D01*
X0106111Y0059950D01*
X0104150Y0059950D01*
X0104150Y0055750D01*
X0103050Y0055750D01*
X0103050Y0059950D01*
X0101089Y0059950D01*
X0100682Y0059841D01*
X0100318Y0059630D01*
X0100020Y0059332D01*
X0099809Y0058968D01*
X0099700Y0058561D01*
X0099700Y0055750D01*
X0103050Y0055750D01*
X0103050Y0054650D01*
X0104150Y0054650D01*
X0104150Y0050450D01*
X0104307Y0050450D01*
X0104257Y0050399D01*
X0103800Y0049297D01*
X0103800Y0048103D01*
X0104257Y0047001D01*
X0105101Y0046157D01*
X0106203Y0045700D01*
X0107397Y0045700D01*
X0108499Y0046157D01*
X0108843Y0046500D01*
X0181489Y0046500D01*
X0176689Y0041700D01*
X0167643Y0041700D01*
X0167299Y0042043D01*
X0166197Y0042500D01*
X0165003Y0042500D01*
X0164607Y0042336D01*
X0164099Y0042843D01*
X0162997Y0043300D01*
X0161803Y0043300D01*
X0160701Y0042843D01*
X0159857Y0041999D01*
X0159400Y0040897D01*
X0159400Y0039703D01*
X0159857Y0038601D01*
X0160200Y0038257D01*
X0160200Y0038189D01*
X0162200Y0036189D01*
X0163489Y0034900D01*
X0174081Y0034900D01*
X0173387Y0034613D01*
X0173375Y0034600D01*
X0125463Y0034600D01*
X0124471Y0034189D01*
X0123000Y0032718D01*
X0118400Y0037318D01*
X0118400Y0037337D01*
X0117913Y0038513D01*
X0117013Y0039413D01*
X0115837Y0039900D01*
X0114563Y0039900D01*
X0113387Y0039413D01*
X0112487Y0038513D01*
X0112000Y0037337D01*
X0112000Y0036063D01*
X0112487Y0034887D01*
X0113387Y0033987D01*
X0114563Y0033500D01*
X0114582Y0033500D01*
X0118363Y0029719D01*
X0116868Y0029100D01*
X0115574Y0027806D01*
X0115537Y0027716D01*
X0115500Y0027806D01*
X0114206Y0029100D01*
X0112515Y0029800D01*
X0110685Y0029800D01*
X0108994Y0029100D01*
X0107700Y0027806D01*
X0107537Y0027412D01*
X0107489Y0027506D01*
X0107082Y0028066D01*
X0106592Y0028556D01*
X0106032Y0028963D01*
X0105415Y0029278D01*
X0104756Y0029492D01*
X0104072Y0029600D01*
X0103913Y0029600D01*
X0103913Y0025387D01*
X0103539Y0025387D01*
X0103538Y0025387D02*
X0103538Y0025013D01*
X0099326Y0025013D01*
X0099326Y0024854D01*
X0099434Y0024170D01*
X0099648Y0023511D01*
X0099963Y0022894D01*
X0100370Y0022334D01*
X0100860Y0021844D01*
X0101420Y0021437D01*
X0102037Y0021122D01*
X0102696Y0020908D01*
X0103380Y0020800D01*
X0103539Y0020800D01*
X0103539Y0025013D01*
X0103913Y0025013D01*
X0103913Y0020800D01*
X0104072Y0020800D01*
X0104756Y0020908D01*
X0105415Y0021122D01*
X0106032Y0021437D01*
X0106592Y0021844D01*
X0107082Y0022334D01*
X0107489Y0022894D01*
X0107537Y0022988D01*
X0107700Y0022594D01*
X0108994Y0021300D01*
X0110685Y0020600D01*
X0112515Y0020600D01*
X0114206Y0021300D01*
X0115500Y0022594D01*
X0115537Y0022684D01*
X0115574Y0022594D01*
X0116868Y0021300D01*
X0118559Y0020600D01*
X0120389Y0020600D01*
X0122080Y0021300D01*
X0123374Y0022594D01*
X0124074Y0024285D01*
X0124074Y0026115D01*
X0124062Y0026144D01*
X0124529Y0026611D01*
X0124529Y0026611D01*
X0125289Y0027371D01*
X0127118Y0029200D01*
X0137789Y0029200D01*
X0122689Y0014100D01*
X0121400Y0012811D01*
X0121400Y0007789D01*
X0124200Y0004989D01*
X0124689Y0004500D01*
X0117216Y0004500D01*
X0118702Y0005986D01*
X0119935Y0008963D01*
X0119935Y0012185D01*
X0118702Y0015162D01*
X0116424Y0017440D01*
X0113447Y0018673D01*
X0110225Y0018673D01*
X0107248Y0017440D01*
X0104970Y0015162D01*
X0103737Y0012185D01*
X0103737Y0008963D01*
X0104970Y0005986D01*
X0106456Y0004500D01*
X0003400Y0004500D01*
X0003400Y0119010D01*
X0106456Y0119010D01*
X0104970Y0117524D01*
X0103737Y0114547D01*
X0103737Y0111325D01*
X0104970Y0108348D01*
X0107248Y0106070D01*
X0110225Y0104837D01*
X0113447Y0104837D01*
X0116424Y0106070D01*
X0118702Y0108348D01*
X0119935Y0111325D01*
X0119935Y0114547D01*
X0118702Y0117524D01*
X0117216Y0119010D01*
X0180622Y0119010D01*
X0180031Y0118419D01*
X0179300Y0116655D01*
X0179300Y0108745D01*
X0180031Y0106981D01*
X0181381Y0105631D01*
X0183145Y0104900D01*
X0183889Y0104900D01*
X0188289Y0100500D01*
X0172689Y0100500D01*
X0171400Y0099211D01*
X0166600Y0094411D01*
X0166600Y0094011D01*
X0159000Y0086411D01*
X0159000Y0097857D01*
X0159343Y0098201D01*
X0159800Y0099303D01*
X0159800Y0100497D01*
X0159343Y0101599D01*
X0158499Y0102443D01*
X0157397Y0102900D01*
X0156203Y0102900D01*
X0155101Y0102443D01*
X0154257Y0101599D01*
X0153801Y0100499D01*
X0152701Y0100043D01*
X0152357Y0099700D01*
X0116689Y0099700D01*
X0115400Y0098411D01*
X0102652Y0085663D01*
X0103000Y0086503D01*
X0103000Y0087697D01*
X0102543Y0088799D01*
X0101699Y0089643D01*
X0100597Y0090100D01*
X0099403Y0090100D01*
X0098301Y0089643D01*
X0097957Y0089300D01*
X0084949Y0089300D01*
X0084193Y0089403D01*
X0084058Y0089300D01*
X0083889Y0089300D01*
X0083350Y0088761D01*
X0043310Y0058300D01*
X0042403Y0058300D01*
X0041301Y0057843D01*
X0040457Y0056999D01*
X0040000Y0055897D01*
X0040000Y0054703D01*
X0040457Y0053601D01*
X0041301Y0052757D01*
X0042403Y0052300D01*
X0043597Y0052300D01*
X0044591Y0052712D01*
X0044907Y0051951D01*
X0045751Y0051107D01*
X0046853Y0050650D01*
X0048047Y0050650D01*
X0049149Y0051107D01*
X0049496Y0051453D01*
X0077634Y0051498D01*
X0079900Y0048833D01*
X0079900Y0048103D01*
X0080357Y0047001D01*
X0081201Y0046157D01*
X0082303Y0045700D01*
X0083497Y0045700D01*
X0084599Y0046157D01*
X0085443Y0047001D01*
X0085900Y0048103D01*
X0085900Y0049297D01*
X0085443Y0050399D01*
X0084599Y0051243D01*
X0083497Y0051700D01*
X0083237Y0051700D01*
X0080849Y0054510D01*
X0080849Y0054615D01*
X0080267Y0055194D01*
X0079736Y0055819D01*
X0079632Y0055828D01*
X0079558Y0055901D01*
X0078737Y0055900D01*
X0077920Y0055966D01*
X0077840Y0055899D01*
X0049489Y0055853D01*
X0049149Y0056193D01*
X0048281Y0056553D01*
X0085542Y0084900D01*
X0097957Y0084900D01*
X0098301Y0084557D01*
X0099403Y0084100D01*
X0100597Y0084100D01*
X0101437Y0084448D01*
X0096635Y0079647D01*
X0096265Y0079800D01*
X0094435Y0079800D01*
X0092744Y0079100D01*
X0091450Y0077806D01*
X0090750Y0076115D01*
X0090750Y0074285D01*
X0091450Y0072594D01*
X0092744Y0071300D01*
X0093711Y0070900D01*
X0069089Y0070900D01*
X0067800Y0069611D01*
X0065889Y0067700D01*
X0065403Y0067700D01*
X0064301Y0067243D01*
X0063457Y0066399D01*
X0063000Y0065297D01*
X0063000Y0064103D01*
X0063457Y0063001D01*
X0064301Y0062157D01*
X0065403Y0061700D01*
X0066597Y0061700D01*
X0067699Y0062157D01*
X0067800Y0062257D01*
X0067901Y0062157D01*
X0069003Y0061700D01*
X0070197Y0061700D01*
X0071299Y0062157D01*
X0071643Y0062500D01*
X0108511Y0062500D01*
X0110511Y0064500D01*
X0110872Y0064350D01*
X0112702Y0064350D01*
X0114393Y0065050D01*
X0115687Y0066344D01*
X0116387Y0068035D01*
X0116387Y0069865D01*
X0116237Y0070226D01*
X0123311Y0077300D01*
X0123797Y0077300D01*
X0124899Y0077757D01*
X0125743Y0078601D01*
X0126200Y0079703D01*
X0126200Y0080897D01*
X0125743Y0081999D01*
X0124899Y0082843D01*
X0123797Y0083300D01*
X0122603Y0083300D01*
X0121850Y0082988D01*
X0121850Y0083297D01*
X0121393Y0084399D01*
X0120549Y0085243D01*
X0119447Y0085700D01*
X0118253Y0085700D01*
X0117151Y0085243D01*
X0116307Y0084399D01*
X0115850Y0083297D01*
X0115850Y0082936D01*
X0105361Y0073329D01*
X0104828Y0073550D01*
X0102998Y0073550D01*
X0101307Y0072850D01*
X0100013Y0071556D01*
X0099742Y0070900D01*
X0096989Y0070900D01*
X0097956Y0071300D01*
X0099250Y0072594D01*
X0099950Y0074285D01*
X0099950Y0076115D01*
X0099767Y0076556D01*
X0118511Y0095300D01*
X0152357Y0095300D01*
X0152701Y0094957D01*
X0153803Y0094500D01*
X0154600Y0094500D01*
X0154600Y0086743D01*
X0153857Y0085999D01*
X0153400Y0084897D01*
X0153400Y0083703D01*
X0153857Y0082601D01*
X0154523Y0081934D01*
X0150289Y0077700D01*
X0149803Y0077700D01*
X0148701Y0077243D01*
X0147857Y0076399D01*
X0147400Y0075297D01*
X0147400Y0074103D01*
X0147857Y0073001D01*
X0148701Y0072157D01*
X0149803Y0071700D01*
X0150997Y0071700D01*
X0152099Y0072157D01*
X0152943Y0073001D01*
X0153400Y0074103D01*
X0153400Y0074589D01*
X0169034Y0090223D01*
X0169501Y0089757D01*
X0170603Y0089300D01*
X0171797Y0089300D01*
X0172899Y0089757D01*
X0173243Y0090100D01*
X0179089Y0090100D01*
X0197400Y0071789D01*
X0198689Y0070500D01*
X0203000Y0070500D01*
X0203000Y0070500D01*
X0196289Y0070500D01*
X0195000Y0069211D01*
X0192689Y0066900D01*
X0136443Y0066900D01*
X0136099Y0067243D01*
X0134997Y0067700D01*
X0133803Y0067700D01*
X0132701Y0067243D01*
X0131857Y0066399D01*
X0131400Y0065297D01*
X0131400Y0064103D01*
X0131857Y0063001D01*
X0132701Y0062157D01*
X0133803Y0061700D01*
X0134997Y0061700D01*
X0136099Y0062157D01*
X0136443Y0062500D01*
X0141800Y0062500D01*
X0141800Y0061703D01*
X0142257Y0060601D01*
X0143101Y0059757D01*
X0144203Y0059300D01*
X0145397Y0059300D01*
X0146499Y0059757D01*
X0146843Y0060100D01*
X0190689Y0060100D01*
X0189600Y0060100D02*
X0189600Y0059011D01*
X0189289Y0058700D02*
X0113700Y0058700D01*
X0113600Y0059196D02*
X0113600Y0064722D01*
X0109600Y0063589D02*
X0109600Y0060150D01*
X0105600Y0059950D02*
X0105600Y0062500D01*
X0108711Y0062700D02*
X0132157Y0062700D01*
X0133600Y0061784D02*
X0133600Y0050900D01*
X0129600Y0050900D02*
X0129600Y0095300D01*
X0125600Y0095300D02*
X0125600Y0082143D01*
X0125043Y0082700D02*
X0153816Y0082700D01*
X0153600Y0083220D02*
X0153600Y0081011D01*
X0151289Y0078700D02*
X0125784Y0078700D01*
X0125600Y0078457D02*
X0125600Y0054500D01*
X0121600Y0053700D02*
X0121600Y0075589D01*
X0120711Y0074700D02*
X0147400Y0074700D01*
X0149600Y0071784D02*
X0149600Y0066900D01*
X0145600Y0066900D02*
X0145600Y0095300D01*
X0141600Y0095300D02*
X0141600Y0066900D01*
X0137600Y0066900D02*
X0137600Y0095300D01*
X0133600Y0095300D02*
X0133600Y0067616D01*
X0132157Y0066700D02*
X0115834Y0066700D01*
X0116711Y0070700D02*
X0198489Y0070700D01*
X0197600Y0070500D02*
X0197600Y0071589D01*
X0201600Y0070500D02*
X0201600Y0070500D01*
X0193600Y0067811D02*
X0193600Y0075589D01*
X0194489Y0074700D02*
X0153511Y0074700D01*
X0153600Y0074789D02*
X0153600Y0066900D01*
X0157600Y0066900D02*
X0157600Y0078789D01*
X0157511Y0078700D02*
X0190489Y0078700D01*
X0189600Y0079589D02*
X0189600Y0066900D01*
X0185600Y0066900D02*
X0185600Y0083589D01*
X0186489Y0082700D02*
X0161511Y0082700D01*
X0161600Y0082789D02*
X0161600Y0066900D01*
X0165600Y0066900D02*
X0165600Y0086789D01*
X0165511Y0086700D02*
X0182489Y0086700D01*
X0181600Y0087589D02*
X0181600Y0066900D01*
X0177600Y0066900D02*
X0177600Y0090100D01*
X0173600Y0090100D02*
X0173600Y0066900D01*
X0169600Y0066900D02*
X0169600Y0089716D01*
X0163289Y0090700D02*
X0159000Y0090700D01*
X0161600Y0089011D02*
X0161600Y0119010D01*
X0157600Y0119010D02*
X0157600Y0102816D01*
X0157880Y0102700D02*
X0186089Y0102700D01*
X0185600Y0103189D02*
X0185600Y0100500D01*
X0181600Y0100500D02*
X0181600Y0105540D01*
X0180312Y0106700D02*
X0117054Y0106700D01*
X0117600Y0107246D02*
X0117600Y0099700D01*
X0115689Y0098700D02*
X0003400Y0098700D01*
X0003400Y0094700D02*
X0111689Y0094700D01*
X0113600Y0096611D02*
X0113600Y0104900D01*
X0109600Y0105096D02*
X0109600Y0092611D01*
X0107689Y0090700D02*
X0003400Y0090700D01*
X0003400Y0086700D02*
X0080641Y0086700D01*
X0081600Y0087430D02*
X0081600Y0119010D01*
X0077600Y0119010D02*
X0077600Y0084387D01*
X0075383Y0082700D02*
X0003400Y0082700D01*
X0003400Y0078700D02*
X0070125Y0078700D01*
X0069600Y0078301D02*
X0069600Y0108096D01*
X0070067Y0107629D02*
X0071758Y0106929D01*
X0073588Y0106929D01*
X0075279Y0107629D01*
X0076573Y0108923D01*
X0077273Y0110614D01*
X0077273Y0112444D01*
X0076573Y0114134D01*
X0075279Y0115428D01*
X0073588Y0116129D01*
X0071758Y0116129D01*
X0070067Y0115428D01*
X0068773Y0114134D01*
X0068736Y0114044D01*
X0068698Y0114134D01*
X0067405Y0115428D01*
X0065714Y0116129D01*
X0063884Y0116129D01*
X0062193Y0115428D01*
X0060899Y0114134D01*
X0060862Y0114044D01*
X0060824Y0114134D01*
X0059530Y0115428D01*
X0057840Y0116129D01*
X0056010Y0116129D01*
X0054319Y0115428D01*
X0053025Y0114134D01*
X0052988Y0114044D01*
X0052950Y0114134D01*
X0051656Y0115428D01*
X0049966Y0116129D01*
X0048136Y0116129D01*
X0046445Y0115428D01*
X0045151Y0114134D01*
X0045114Y0114044D01*
X0045076Y0114134D01*
X0043782Y0115428D01*
X0042092Y0116129D01*
X0040262Y0116129D01*
X0038571Y0115428D01*
X0037277Y0114134D01*
X0037240Y0114044D01*
X0037202Y0114134D01*
X0035908Y0115428D01*
X0034218Y0116129D01*
X0032388Y0116129D01*
X0030697Y0115428D01*
X0029403Y0114134D01*
X0029366Y0114044D01*
X0029328Y0114134D01*
X0028034Y0115428D01*
X0026344Y0116129D01*
X0024514Y0116129D01*
X0022823Y0115428D01*
X0021529Y0114134D01*
X0021492Y0114044D01*
X0021454Y0114134D01*
X0020160Y0115428D01*
X0018470Y0116129D01*
X0016640Y0116129D01*
X0014949Y0115428D01*
X0013655Y0114134D01*
X0013618Y0114044D01*
X0013580Y0114134D01*
X0012286Y0115428D01*
X0010596Y0116129D01*
X0008766Y0116129D01*
X0007075Y0115428D01*
X0005781Y0114134D01*
X0005081Y0112444D01*
X0005081Y0110614D01*
X0005781Y0108923D01*
X0007075Y0107629D01*
X0008766Y0106929D01*
X0010596Y0106929D01*
X0012286Y0107629D01*
X0013580Y0108923D01*
X0013618Y0109013D01*
X0013655Y0108923D01*
X0014949Y0107629D01*
X0016640Y0106929D01*
X0018470Y0106929D01*
X0020160Y0107629D01*
X0021454Y0108923D01*
X0021492Y0109013D01*
X0021529Y0108923D01*
X0022823Y0107629D01*
X0024514Y0106929D01*
X0026344Y0106929D01*
X0028034Y0107629D01*
X0029328Y0108923D01*
X0029366Y0109013D01*
X0029403Y0108923D01*
X0030697Y0107629D01*
X0032388Y0106929D01*
X0034218Y0106929D01*
X0035908Y0107629D01*
X0037202Y0108923D01*
X0037240Y0109013D01*
X0037277Y0108923D01*
X0038571Y0107629D01*
X0040262Y0106929D01*
X0042092Y0106929D01*
X0043782Y0107629D01*
X0045076Y0108923D01*
X0045114Y0109013D01*
X0045151Y0108923D01*
X0046445Y0107629D01*
X0048136Y0106929D01*
X0049966Y0106929D01*
X0051656Y0107629D01*
X0052950Y0108923D01*
X0052988Y0109013D01*
X0053025Y0108923D01*
X0054319Y0107629D01*
X0056010Y0106929D01*
X0057840Y0106929D01*
X0059530Y0107629D01*
X0060824Y0108923D01*
X0060862Y0109013D01*
X0060899Y0108923D01*
X0062193Y0107629D01*
X0063884Y0106929D01*
X0065714Y0106929D01*
X0067405Y0107629D01*
X0068698Y0108923D01*
X0068736Y0109013D01*
X0068773Y0108923D01*
X0070067Y0107629D01*
X0073600Y0106934D02*
X0073600Y0081344D01*
X0077392Y0078700D02*
X0092345Y0078700D01*
X0093600Y0079454D02*
X0093600Y0084900D01*
X0089600Y0084900D02*
X0089600Y0070900D01*
X0085600Y0070900D02*
X0085600Y0084900D01*
X0082650Y0082700D02*
X0099689Y0082700D01*
X0097600Y0080611D02*
X0097600Y0084900D01*
X0103000Y0086700D02*
X0103689Y0086700D01*
X0105600Y0088611D02*
X0105600Y0107718D01*
X0106618Y0106700D02*
X0003400Y0106700D01*
X0005600Y0109360D02*
X0005600Y0004500D01*
X0009600Y0004500D02*
X0009600Y0106929D01*
X0013600Y0108970D02*
X0013600Y0004500D01*
X0017600Y0004500D02*
X0017600Y0106929D01*
X0021600Y0108852D02*
X0021600Y0004500D01*
X0025600Y0004500D02*
X0025600Y0011860D01*
X0025781Y0011423D02*
X0025081Y0013114D01*
X0025081Y0014944D01*
X0025781Y0016634D01*
X0027075Y0017928D01*
X0028766Y0018629D01*
X0030596Y0018629D01*
X0032286Y0017928D01*
X0033580Y0016634D01*
X0033618Y0016544D01*
X0033655Y0016634D01*
X0034949Y0017928D01*
X0036640Y0018629D01*
X0038470Y0018629D01*
X0040160Y0017928D01*
X0041454Y0016634D01*
X0041492Y0016544D01*
X0041529Y0016634D01*
X0042823Y0017928D01*
X0044514Y0018629D01*
X0046344Y0018629D01*
X0048034Y0017928D01*
X0049328Y0016634D01*
X0049366Y0016544D01*
X0049403Y0016634D01*
X0050697Y0017928D01*
X0052388Y0018629D01*
X0054218Y0018629D01*
X0055908Y0017928D01*
X0057202Y0016634D01*
X0057240Y0016544D01*
X0057277Y0016634D01*
X0058571Y0017928D01*
X0060262Y0018629D01*
X0062092Y0018629D01*
X0063782Y0017928D01*
X0065076Y0016634D01*
X0065114Y0016544D01*
X0065151Y0016634D01*
X0066445Y0017928D01*
X0068136Y0018629D01*
X0069966Y0018629D01*
X0071656Y0017928D01*
X0072950Y0016634D01*
X0072988Y0016544D01*
X0073025Y0016634D01*
X0074319Y0017928D01*
X0076010Y0018629D01*
X0077840Y0018629D01*
X0079530Y0017928D01*
X0080824Y0016634D01*
X0080862Y0016544D01*
X0080899Y0016634D01*
X0082193Y0017928D01*
X0083884Y0018629D01*
X0085714Y0018629D01*
X0087405Y0017928D01*
X0088698Y0016634D01*
X0088736Y0016544D01*
X0088773Y0016634D01*
X0090067Y0017928D01*
X0091758Y0018629D01*
X0093588Y0018629D01*
X0095279Y0017928D01*
X0096573Y0016634D01*
X0097273Y0014944D01*
X0097273Y0013114D01*
X0096573Y0011423D01*
X0095279Y0010129D01*
X0093588Y0009429D01*
X0091758Y0009429D01*
X0090067Y0010129D01*
X0088773Y0011423D01*
X0088736Y0011513D01*
X0088698Y0011423D01*
X0087405Y0010129D01*
X0085714Y0009429D01*
X0083884Y0009429D01*
X0082193Y0010129D01*
X0080899Y0011423D01*
X0080862Y0011513D01*
X0080824Y0011423D01*
X0079530Y0010129D01*
X0077840Y0009429D01*
X0076010Y0009429D01*
X0074319Y0010129D01*
X0073025Y0011423D01*
X0072988Y0011513D01*
X0072950Y0011423D01*
X0071656Y0010129D01*
X0069966Y0009429D01*
X0068136Y0009429D01*
X0066445Y0010129D01*
X0065151Y0011423D01*
X0065114Y0011513D01*
X0065076Y0011423D01*
X0063782Y0010129D01*
X0062092Y0009429D01*
X0060262Y0009429D01*
X0058571Y0010129D01*
X0057277Y0011423D01*
X0057240Y0011513D01*
X0057202Y0011423D01*
X0055908Y0010129D01*
X0054218Y0009429D01*
X0052388Y0009429D01*
X0050697Y0010129D01*
X0049403Y0011423D01*
X0049366Y0011513D01*
X0049328Y0011423D01*
X0048034Y0010129D01*
X0046344Y0009429D01*
X0044514Y0009429D01*
X0042823Y0010129D01*
X0041529Y0011423D01*
X0041492Y0011513D01*
X0041454Y0011423D01*
X0040160Y0010129D01*
X0038470Y0009429D01*
X0036640Y0009429D01*
X0034949Y0010129D01*
X0033655Y0011423D01*
X0033618Y0011513D01*
X0033580Y0011423D01*
X0032286Y0010129D01*
X0030596Y0009429D01*
X0028766Y0009429D01*
X0027075Y0010129D01*
X0025781Y0011423D01*
X0026504Y0010700D02*
X0003400Y0010700D01*
X0003400Y0006700D02*
X0104674Y0006700D01*
X0105600Y0005356D02*
X0105600Y0004500D01*
X0101600Y0004500D02*
X0101600Y0021345D01*
X0100104Y0022700D02*
X0003400Y0022700D01*
X0003400Y0018700D02*
X0127289Y0018700D01*
X0125600Y0017011D02*
X0125600Y0027682D01*
X0125289Y0027371D02*
X0125289Y0027371D01*
X0124618Y0026700D02*
X0135289Y0026700D01*
X0133600Y0025011D02*
X0133600Y0029200D01*
X0129600Y0029200D02*
X0129600Y0021011D01*
X0131289Y0022700D02*
X0123417Y0022700D01*
X0121600Y0021102D02*
X0121600Y0013011D01*
X0123289Y0014700D02*
X0118894Y0014700D01*
X0117600Y0016264D02*
X0117600Y0020997D01*
X0113600Y0021049D02*
X0113600Y0018610D01*
X0109600Y0018414D02*
X0109600Y0021049D01*
X0107657Y0022700D02*
X0107348Y0022700D01*
X0105600Y0021217D02*
X0105600Y0015792D01*
X0104779Y0014700D02*
X0097273Y0014700D01*
X0089600Y0017461D02*
X0089600Y0062500D01*
X0085600Y0062500D02*
X0085600Y0050021D01*
X0085143Y0050700D02*
X0100438Y0050700D01*
X0100318Y0050770D02*
X0100682Y0050559D01*
X0101089Y0050450D01*
X0103050Y0050450D01*
X0103050Y0054650D01*
X0099700Y0054650D01*
X0099700Y0051839D01*
X0099809Y0051432D01*
X0100020Y0051068D01*
X0100318Y0050770D01*
X0101600Y0050450D02*
X0101600Y0029055D01*
X0101420Y0028963D02*
X0100860Y0028556D01*
X0100370Y0028066D01*
X0099963Y0027506D01*
X0099648Y0026889D01*
X0099434Y0026230D01*
X0099326Y0025546D01*
X0099326Y0025387D01*
X0103538Y0025387D01*
X0103539Y0025387D02*
X0103539Y0029600D01*
X0103380Y0029600D01*
X0102696Y0029492D01*
X0102037Y0029278D01*
X0101420Y0028963D01*
X0105600Y0029183D02*
X0105600Y0045950D01*
X0104557Y0046700D02*
X0085143Y0046700D01*
X0085600Y0047379D02*
X0085600Y0018629D01*
X0081600Y0017335D02*
X0081600Y0045991D01*
X0080657Y0046700D02*
X0003400Y0046700D01*
X0003400Y0050700D02*
X0046733Y0050700D01*
X0045600Y0051257D02*
X0045600Y0018629D01*
X0049600Y0016831D02*
X0049600Y0051453D01*
X0048167Y0050700D02*
X0078313Y0050700D01*
X0077600Y0051498D02*
X0077600Y0018629D01*
X0073600Y0017209D02*
X0073600Y0051492D01*
X0069600Y0051485D02*
X0069600Y0018629D01*
X0065600Y0017083D02*
X0065600Y0051479D01*
X0061600Y0051473D02*
X0061600Y0018629D01*
X0057600Y0016957D02*
X0057600Y0051466D01*
X0053600Y0051460D02*
X0053600Y0018629D01*
X0041600Y0016705D02*
X0041600Y0052633D01*
X0040001Y0054700D02*
X0003400Y0054700D01*
X0003400Y0058700D02*
X0043836Y0058700D01*
X0045600Y0060042D02*
X0045600Y0108474D01*
X0041600Y0106929D02*
X0041600Y0057967D01*
X0049600Y0057557D02*
X0049600Y0055853D01*
X0053600Y0055860D02*
X0053600Y0060600D01*
X0051103Y0058700D02*
X0099737Y0058700D01*
X0101600Y0059950D02*
X0101600Y0062500D01*
X0097600Y0062500D02*
X0097600Y0004500D01*
X0093600Y0004500D02*
X0093600Y0009434D01*
X0095849Y0010700D02*
X0103737Y0010700D01*
X0089600Y0010596D02*
X0089600Y0004500D01*
X0085600Y0004500D02*
X0085600Y0009429D01*
X0087975Y0010700D02*
X0089496Y0010700D01*
X0081622Y0010700D02*
X0080101Y0010700D01*
X0081600Y0010722D02*
X0081600Y0004500D01*
X0077600Y0004500D02*
X0077600Y0009429D01*
X0073748Y0010700D02*
X0072227Y0010700D01*
X0073600Y0010848D02*
X0073600Y0004500D01*
X0069600Y0004500D02*
X0069600Y0009429D01*
X0065874Y0010700D02*
X0064353Y0010700D01*
X0065600Y0010974D02*
X0065600Y0004500D01*
X0061600Y0004500D02*
X0061600Y0009429D01*
X0058000Y0010700D02*
X0056479Y0010700D01*
X0057600Y0011100D02*
X0057600Y0004500D01*
X0053600Y0004500D02*
X0053600Y0009429D01*
X0050126Y0010700D02*
X0048605Y0010700D01*
X0049600Y0011226D02*
X0049600Y0004500D01*
X0045600Y0004500D02*
X0045600Y0009429D01*
X0042252Y0010700D02*
X0040731Y0010700D01*
X0041600Y0011352D02*
X0041600Y0004500D01*
X0037600Y0004500D02*
X0037600Y0009429D01*
X0034378Y0010700D02*
X0032857Y0010700D01*
X0033600Y0011470D02*
X0033600Y0004500D01*
X0029600Y0004500D02*
X0029600Y0009429D01*
X0025081Y0014700D02*
X0003400Y0014700D01*
X0025600Y0016197D02*
X0025600Y0106929D01*
X0029600Y0108726D02*
X0029600Y0018629D01*
X0033600Y0016587D02*
X0033600Y0106929D01*
X0037600Y0108600D02*
X0037600Y0018629D01*
X0003400Y0026700D02*
X0099587Y0026700D01*
X0101600Y0025387D02*
X0101600Y0025013D01*
X0103539Y0026700D02*
X0103913Y0026700D01*
X0109600Y0029351D02*
X0109600Y0046500D01*
X0113600Y0046500D02*
X0113600Y0039501D01*
X0112675Y0038700D02*
X0003400Y0038700D01*
X0003400Y0034700D02*
X0112675Y0034700D01*
X0113600Y0033899D02*
X0113600Y0029351D01*
X0117600Y0029403D02*
X0117600Y0030482D01*
X0117382Y0030700D02*
X0003400Y0030700D01*
X0003400Y0042700D02*
X0160557Y0042700D01*
X0161600Y0043216D02*
X0161600Y0046500D01*
X0157600Y0046500D02*
X0157600Y0034600D01*
X0153600Y0034600D02*
X0153600Y0046500D01*
X0149600Y0046500D02*
X0149600Y0034600D01*
X0145600Y0034600D02*
X0145600Y0046500D01*
X0141600Y0046500D02*
X0141600Y0034600D01*
X0137600Y0034600D02*
X0137600Y0046500D01*
X0133600Y0046500D02*
X0133600Y0034600D01*
X0129600Y0034600D02*
X0129600Y0046500D01*
X0125600Y0046500D02*
X0125600Y0034600D01*
X0121600Y0034118D02*
X0121600Y0046500D01*
X0117600Y0046500D02*
X0117600Y0038825D01*
X0117725Y0038700D02*
X0159816Y0038700D01*
X0161600Y0036789D02*
X0161600Y0034600D01*
X0165600Y0034600D02*
X0165600Y0034900D01*
X0169600Y0034900D02*
X0169600Y0034600D01*
X0173598Y0034700D02*
X0121018Y0034700D01*
X0137600Y0029200D02*
X0137600Y0029011D01*
X0173600Y0034701D02*
X0173600Y0034900D01*
X0173600Y0041700D02*
X0173600Y0046500D01*
X0169600Y0046500D02*
X0169600Y0041700D01*
X0165600Y0042500D02*
X0165600Y0046500D01*
X0164243Y0042700D02*
X0177689Y0042700D01*
X0177600Y0042611D02*
X0177600Y0046500D01*
X0177600Y0050900D02*
X0177600Y0060100D01*
X0181600Y0060100D02*
X0181600Y0051011D01*
X0185289Y0054700D02*
X0113700Y0054700D01*
X0117600Y0053700D02*
X0117600Y0071589D01*
X0106857Y0074700D02*
X0099950Y0074700D01*
X0101600Y0072971D02*
X0101600Y0078389D01*
X0101911Y0078700D02*
X0111225Y0078700D01*
X0109600Y0077212D02*
X0109600Y0086389D01*
X0109911Y0086700D02*
X0154557Y0086700D01*
X0153600Y0085380D02*
X0153600Y0094584D01*
X0153320Y0094700D02*
X0117911Y0094700D01*
X0117600Y0094389D02*
X0117600Y0085429D01*
X0121600Y0083900D02*
X0121600Y0095300D01*
X0115400Y0098411D02*
X0115400Y0098411D01*
X0121600Y0099700D02*
X0121600Y0119010D01*
X0117600Y0119010D02*
X0117600Y0118626D01*
X0117526Y0118700D02*
X0180312Y0118700D01*
X0177600Y0119010D02*
X0177600Y0100500D01*
X0173600Y0100500D02*
X0173600Y0119010D01*
X0169600Y0119010D02*
X0169600Y0097411D01*
X0170889Y0098700D02*
X0159550Y0098700D01*
X0153600Y0100416D02*
X0153600Y0119010D01*
X0149600Y0119010D02*
X0149600Y0099700D01*
X0145600Y0099700D02*
X0145600Y0119010D01*
X0141600Y0119010D02*
X0141600Y0099700D01*
X0137600Y0099700D02*
X0137600Y0119010D01*
X0133600Y0119010D02*
X0133600Y0099700D01*
X0129600Y0099700D02*
X0129600Y0119010D01*
X0125600Y0119010D02*
X0125600Y0099700D01*
X0113911Y0090700D02*
X0154600Y0090700D01*
X0159000Y0086700D02*
X0159289Y0086700D01*
X0165600Y0093011D02*
X0165600Y0119010D01*
X0179300Y0114700D02*
X0119872Y0114700D01*
X0119676Y0110700D02*
X0179300Y0110700D01*
X0155720Y0102700D02*
X0003400Y0102700D01*
X0003400Y0110700D02*
X0005081Y0110700D01*
X0005600Y0113697D02*
X0005600Y0119010D01*
X0003400Y0118700D02*
X0106146Y0118700D01*
X0105600Y0119010D02*
X0105600Y0118154D01*
X0101600Y0119010D02*
X0101600Y0089684D01*
X0097600Y0089300D02*
X0097600Y0119010D01*
X0093600Y0119010D02*
X0093600Y0089300D01*
X0089600Y0089300D02*
X0089600Y0119010D01*
X0085600Y0119010D02*
X0085600Y0089300D01*
X0081600Y0081901D02*
X0081600Y0070900D01*
X0077600Y0070900D02*
X0077600Y0078858D01*
X0073600Y0075815D02*
X0073600Y0070900D01*
X0069600Y0070900D02*
X0069600Y0072772D01*
X0072134Y0074700D02*
X0090750Y0074700D01*
X0093600Y0070946D02*
X0093600Y0070900D01*
X0097600Y0070900D02*
X0097600Y0071153D01*
X0105600Y0073549D02*
X0105600Y0082389D01*
X0105911Y0082700D02*
X0115593Y0082700D01*
X0113600Y0080875D02*
X0113600Y0090389D01*
X0149600Y0095300D02*
X0149600Y0077616D01*
X0141600Y0062500D02*
X0141600Y0050900D01*
X0137600Y0050900D02*
X0137600Y0062500D01*
X0145600Y0059384D02*
X0145600Y0050900D01*
X0149600Y0050900D02*
X0149600Y0060100D01*
X0153600Y0060100D02*
X0153600Y0050900D01*
X0157600Y0050900D02*
X0157600Y0060100D01*
X0161600Y0060100D02*
X0161600Y0050900D01*
X0165600Y0050900D02*
X0165600Y0060100D01*
X0169600Y0060100D02*
X0169600Y0050900D01*
X0173600Y0050900D02*
X0173600Y0060100D01*
X0185600Y0060100D02*
X0185600Y0055011D01*
X0253600Y0082100D02*
X0253600Y0088900D01*
X0257600Y0088900D02*
X0257600Y0082100D01*
X0261600Y0082100D02*
X0261600Y0088900D01*
X0265600Y0088900D02*
X0265600Y0082100D01*
X0269600Y0082100D02*
X0269600Y0088900D01*
X0273600Y0088900D02*
X0273600Y0082100D01*
X0277600Y0082100D02*
X0277600Y0088900D01*
X0289600Y0088900D02*
X0289600Y0067011D01*
X0289911Y0066700D02*
X0323160Y0066700D01*
X0287689Y0062700D02*
X0282711Y0062700D01*
X0281600Y0093300D02*
X0281600Y0102900D01*
X0277600Y0102900D02*
X0277600Y0093300D01*
X0273600Y0093300D02*
X0273600Y0102900D01*
X0269600Y0102900D02*
X0269600Y0093300D01*
X0265600Y0093300D02*
X0265600Y0102900D01*
X0261600Y0102900D02*
X0261600Y0093300D01*
X0257600Y0093300D02*
X0257600Y0102900D01*
X0253600Y0102900D02*
X0253600Y0093300D01*
X0249600Y0093300D02*
X0249600Y0102900D01*
X0245600Y0102900D02*
X0245600Y0096611D01*
X0248350Y0094700D02*
X0324454Y0094700D01*
X0325600Y0096139D02*
X0325600Y0119010D01*
X0321600Y0119010D02*
X0321600Y0093300D01*
X0317600Y0093300D02*
X0317600Y0102100D01*
X0315957Y0102700D02*
X0313618Y0102700D01*
X0313600Y0102743D02*
X0313600Y0102900D01*
X0313600Y0100412D02*
X0313600Y0093300D01*
X0309600Y0093300D02*
X0309600Y0097711D01*
X0307307Y0098700D02*
X0293393Y0098700D01*
X0293600Y0098907D02*
X0293600Y0093300D01*
X0297600Y0093300D02*
X0297600Y0102900D01*
X0294524Y0102700D02*
X0306176Y0102700D01*
X0305600Y0102900D02*
X0305600Y0093300D01*
X0301600Y0093300D02*
X0301600Y0102900D01*
X0301600Y0107300D02*
X0301600Y0119010D01*
X0297600Y0119010D02*
X0297600Y0107300D01*
X0293600Y0107300D02*
X0293600Y0107770D01*
X0295359Y0110700D02*
X0305341Y0110700D01*
X0305600Y0108566D02*
X0305600Y0107300D01*
X0309600Y0107300D02*
X0309600Y0107770D01*
X0313600Y0107770D02*
X0313600Y0107300D01*
X0320384Y0106700D02*
X0334010Y0106700D01*
X0333600Y0106185D02*
X0333600Y0119010D01*
X0329600Y0119010D02*
X0329600Y0101162D01*
X0330825Y0102700D02*
X0319643Y0102700D01*
X0312488Y0098700D02*
X0327640Y0098700D01*
X0339635Y0106700D02*
X0354131Y0106700D01*
X0354131Y0114700D02*
X0346804Y0114700D01*
X0340381Y0114700D02*
X0316815Y0114700D01*
X0305341Y0114700D02*
X0295359Y0114700D01*
X0294848Y0118700D02*
X0305852Y0118700D01*
X0305600Y0118448D02*
X0305600Y0119010D01*
X0284395Y0118700D02*
X0275007Y0118700D01*
X0277600Y0119010D02*
X0277600Y0107300D01*
X0281600Y0107300D02*
X0281600Y0119010D01*
X0283885Y0114700D02*
X0277352Y0114700D01*
X0277157Y0110700D02*
X0283885Y0110700D01*
X0285600Y0107770D02*
X0285600Y0107300D01*
X0289600Y0107300D02*
X0289600Y0107770D01*
X0287082Y0102700D02*
X0239511Y0102700D01*
X0241600Y0100611D02*
X0241600Y0105257D01*
X0243511Y0098700D02*
X0288212Y0098700D01*
X0289600Y0097891D02*
X0289600Y0093300D01*
X0285600Y0093300D02*
X0285600Y0102900D01*
X0166889Y0094700D02*
X0159000Y0094700D01*
X0103996Y0110700D02*
X0077273Y0110700D01*
X0076007Y0114700D02*
X0103800Y0114700D01*
X0073600Y0116124D02*
X0073600Y0119010D01*
X0069600Y0119010D02*
X0069600Y0114961D01*
X0069339Y0114700D02*
X0068133Y0114700D01*
X0065600Y0116129D02*
X0065600Y0119010D01*
X0061600Y0119010D02*
X0061600Y0114835D01*
X0061465Y0114700D02*
X0060259Y0114700D01*
X0057600Y0116129D02*
X0057600Y0119010D01*
X0053600Y0119010D02*
X0053600Y0114709D01*
X0053591Y0114700D02*
X0052385Y0114700D01*
X0049600Y0116129D02*
X0049600Y0119010D01*
X0045600Y0119010D02*
X0045600Y0114583D01*
X0045717Y0114700D02*
X0044511Y0114700D01*
X0041600Y0116129D02*
X0041600Y0119010D01*
X0037600Y0119010D02*
X0037600Y0114457D01*
X0037843Y0114700D02*
X0036637Y0114700D01*
X0033600Y0116129D02*
X0033600Y0119010D01*
X0029600Y0119010D02*
X0029600Y0114331D01*
X0029969Y0114700D02*
X0028763Y0114700D01*
X0025600Y0116129D02*
X0025600Y0119010D01*
X0021600Y0119010D02*
X0021600Y0114205D01*
X0022095Y0114700D02*
X0020889Y0114700D01*
X0017600Y0116129D02*
X0017600Y0119010D01*
X0013600Y0119010D02*
X0013600Y0114087D01*
X0013015Y0114700D02*
X0014221Y0114700D01*
X0009600Y0116129D02*
X0009600Y0119010D01*
X0006347Y0114700D02*
X0003400Y0114700D01*
X0049600Y0106929D02*
X0049600Y0063085D01*
X0049094Y0062700D02*
X0003400Y0062700D01*
X0003400Y0066700D02*
X0054351Y0066700D01*
X0053600Y0066128D02*
X0053600Y0108348D01*
X0057600Y0106929D02*
X0057600Y0069171D01*
X0059609Y0070700D02*
X0003400Y0070700D01*
X0003400Y0074700D02*
X0064867Y0074700D01*
X0065600Y0075258D02*
X0065600Y0106929D01*
X0061600Y0108222D02*
X0061600Y0072215D01*
X0066876Y0070700D02*
X0068889Y0070700D01*
X0065600Y0069729D02*
X0065600Y0067700D01*
X0063757Y0066700D02*
X0061618Y0066700D01*
X0061600Y0066686D02*
X0061600Y0055873D01*
X0065600Y0055879D02*
X0065600Y0061700D01*
X0063757Y0062700D02*
X0056361Y0062700D01*
X0057600Y0063643D02*
X0057600Y0055866D01*
X0069600Y0055885D02*
X0069600Y0061700D01*
X0073600Y0062500D02*
X0073600Y0055892D01*
X0077600Y0055898D02*
X0077600Y0062500D01*
X0081600Y0062500D02*
X0081600Y0053626D01*
X0080763Y0054700D02*
X0103050Y0054700D01*
X0101600Y0054650D02*
X0101600Y0055750D01*
X0103050Y0058700D02*
X0104150Y0058700D01*
X0093600Y0062500D02*
X0093600Y0018624D01*
X0103539Y0022700D02*
X0103913Y0022700D01*
X0119935Y0010700D02*
X0121400Y0010700D01*
X0121600Y0007589D02*
X0121600Y0004500D01*
X0117600Y0004500D02*
X0117600Y0004884D01*
X0118998Y0006700D02*
X0122489Y0006700D01*
X0104150Y0050700D02*
X0103050Y0050700D01*
D22*
X0106800Y0048700D02*
X0182400Y0048700D01*
X0196400Y0062700D01*
X0197600Y0062700D01*
X0196400Y0065100D02*
X0193600Y0062300D01*
X0144800Y0062300D01*
X0134400Y0064700D02*
X0193600Y0064700D01*
X0197200Y0068300D01*
X0204400Y0068300D01*
X0208400Y0064300D01*
X0264400Y0064300D01*
X0265200Y0065100D01*
X0262800Y0067500D02*
X0228800Y0067500D01*
X0207200Y0089100D01*
X0185600Y0089100D01*
X0180800Y0093900D01*
X0180800Y0095500D01*
X0180000Y0092300D02*
X0171200Y0092300D01*
X0168800Y0093100D02*
X0168800Y0093500D01*
X0173600Y0098300D01*
X0213600Y0098300D01*
X0217600Y0094300D01*
X0218800Y0094300D01*
X0219100Y0093950D01*
X0219200Y0088300D02*
X0219100Y0087950D01*
X0219200Y0088300D02*
X0227200Y0088300D01*
X0234000Y0095100D01*
X0234100Y0095450D01*
X0234400Y0095500D01*
X0234800Y0095900D01*
X0239600Y0095900D01*
X0238000Y0101100D02*
X0245600Y0093500D01*
X0243200Y0091100D02*
X0324400Y0091100D01*
X0343950Y0115650D01*
X0317800Y0105100D02*
X0245600Y0105100D01*
X0239600Y0111100D01*
X0221600Y0111100D01*
X0212000Y0101500D01*
X0190400Y0101500D01*
X0184400Y0107500D01*
X0184400Y0112700D01*
X0184100Y0112700D01*
X0191600Y0103900D02*
X0195200Y0103900D01*
X0204000Y0112700D01*
X0204100Y0112700D01*
X0225600Y0100300D02*
X0232400Y0107100D01*
X0234000Y0107100D01*
X0234100Y0107450D01*
X0234400Y0107500D01*
X0239600Y0107500D01*
X0238000Y0101100D02*
X0234400Y0101100D01*
X0234100Y0101450D01*
X0225600Y0100300D02*
X0219200Y0100300D01*
X0219100Y0099950D01*
X0202800Y0095900D02*
X0228800Y0069900D01*
X0283600Y0069900D01*
X0309600Y0043900D01*
X0277200Y0051100D02*
X0318000Y0010300D01*
X0318037Y0010200D01*
X0325600Y0010300D02*
X0325911Y0010200D01*
X0325600Y0010300D02*
X0325600Y0016700D01*
X0279200Y0063100D01*
X0276800Y0063100D01*
X0276400Y0062700D01*
X0207600Y0062700D01*
X0205200Y0065100D01*
X0196400Y0065100D01*
X0204800Y0060300D02*
X0219200Y0060300D01*
X0219600Y0060700D01*
X0278000Y0060700D01*
X0280400Y0058300D02*
X0220800Y0058300D01*
X0217200Y0066700D02*
X0202000Y0081900D01*
X0194800Y0081900D01*
X0199600Y0086700D02*
X0206000Y0086700D01*
X0212400Y0080300D01*
X0224000Y0078300D02*
X0230400Y0078300D01*
X0243200Y0091100D01*
X0245600Y0079900D02*
X0278800Y0079900D01*
X0286000Y0072700D01*
X0264800Y0040300D02*
X0249200Y0055900D01*
X0194000Y0055900D01*
X0177600Y0039500D01*
X0165600Y0039500D01*
X0164400Y0037100D02*
X0162400Y0039100D01*
X0162400Y0040300D01*
X0164400Y0037100D02*
X0177600Y0037100D01*
X0194800Y0054300D01*
X0247200Y0054300D01*
X0250400Y0051100D01*
X0257600Y0051100D02*
X0277200Y0051100D01*
X0263600Y0048700D02*
X0302000Y0010300D01*
X0302289Y0010200D01*
X0284800Y0005900D02*
X0337600Y0005900D01*
X0341600Y0009900D01*
X0341659Y0010200D01*
X0284800Y0005900D02*
X0282400Y0008300D01*
X0282400Y0027500D01*
X0269600Y0040300D01*
X0264800Y0040300D01*
X0246000Y0017500D02*
X0199600Y0017500D01*
X0188800Y0028300D01*
X0165600Y0028300D01*
X0152400Y0028300D02*
X0166400Y0014300D01*
X0178800Y0014300D01*
X0182800Y0010300D01*
X0182909Y0010200D01*
X0175035Y0010200D02*
X0174800Y0009900D01*
X0170800Y0005900D01*
X0126400Y0005900D01*
X0123600Y0008700D01*
X0123600Y0011900D01*
X0140400Y0028700D01*
X0144800Y0028700D01*
X0148800Y0028300D02*
X0152400Y0028300D01*
X0164000Y0020300D02*
X0184000Y0020300D01*
X0184400Y0020700D01*
X0186800Y0020700D01*
X0201600Y0005900D01*
X0219600Y0005900D01*
X0223600Y0009900D01*
X0223913Y0010200D01*
X0226000Y0004300D02*
X0231600Y0009900D01*
X0231787Y0010200D01*
X0235600Y0014300D02*
X0239600Y0010300D01*
X0239661Y0010200D01*
X0241600Y0015900D02*
X0247200Y0010300D01*
X0247535Y0010200D01*
X0248400Y0015100D02*
X0246000Y0017500D01*
X0241600Y0015900D02*
X0198800Y0015900D01*
X0191600Y0023100D01*
X0179600Y0023100D01*
X0185600Y0018300D02*
X0186800Y0018300D01*
X0200800Y0004300D01*
X0226000Y0004300D01*
X0235600Y0014300D02*
X0198000Y0014300D01*
X0191600Y0020700D01*
X0190400Y0020700D01*
X0183600Y0016700D02*
X0195200Y0005100D01*
X0183600Y0016700D02*
X0167600Y0016700D01*
X0082900Y0048700D02*
X0078650Y0053700D01*
X0047450Y0053650D01*
X0043000Y0055300D02*
X0084800Y0087100D01*
X0100000Y0087100D01*
X0104000Y0069100D02*
X0118850Y0082700D01*
X0123200Y0080300D02*
X0112000Y0069100D01*
X0111787Y0068950D01*
X0111600Y0068700D01*
X0107600Y0064700D01*
X0069600Y0064700D01*
X0066000Y0064700D02*
X0070000Y0068700D01*
X0103600Y0068700D01*
X0103913Y0068950D01*
X0104000Y0069100D01*
X0095600Y0075500D02*
X0095350Y0075200D01*
X0095600Y0075500D02*
X0117600Y0097500D01*
X0154400Y0097500D01*
X0156800Y0099900D02*
X0156800Y0084700D01*
X0156400Y0084300D01*
X0150400Y0074700D02*
X0168800Y0093100D01*
X0180000Y0092300D02*
X0199600Y0072700D01*
X0207200Y0072700D01*
X0213200Y0066700D01*
X0194800Y0093500D02*
X0184800Y0093500D01*
X0187600Y0095900D02*
X0202800Y0095900D01*
X0113200Y0051500D02*
X0109600Y0055100D01*
X0109600Y0055200D01*
X0113200Y0051500D02*
X0125200Y0051500D01*
M02*
