G75*
%MOIN*%
%OFA0B0*%
%FSLAX25Y25*%
%IPPOS*%
%LPD*%
%AMOC8*
5,1,8,0,0,1.08239X$1,22.5*
%
%ADD10C,0.00000*%
%ADD11C,0.00300*%
%ADD12C,0.01600*%
%ADD13C,0.00400*%
%ADD14R,0.02000X0.02000*%
%ADD15C,0.00600*%
%ADD16C,0.00500*%
%ADD17C,0.00800*%
%ADD18C,0.03000*%
%ADD19R,0.00591X0.01181*%
%ADD20R,0.01181X0.01181*%
%ADD21C,0.01000*%
%ADD22C,0.00200*%
D10*
X0001600Y0002700D02*
X0001600Y0120810D01*
X0355931Y0120810D01*
X0355931Y0002700D01*
X0001600Y0002700D01*
X0105537Y0010574D02*
X0105539Y0010732D01*
X0105545Y0010890D01*
X0105555Y0011048D01*
X0105569Y0011206D01*
X0105587Y0011363D01*
X0105608Y0011520D01*
X0105634Y0011676D01*
X0105664Y0011832D01*
X0105697Y0011987D01*
X0105735Y0012140D01*
X0105776Y0012293D01*
X0105821Y0012445D01*
X0105870Y0012596D01*
X0105923Y0012745D01*
X0105979Y0012893D01*
X0106039Y0013039D01*
X0106103Y0013184D01*
X0106171Y0013327D01*
X0106242Y0013469D01*
X0106316Y0013609D01*
X0106394Y0013746D01*
X0106476Y0013882D01*
X0106560Y0014016D01*
X0106649Y0014147D01*
X0106740Y0014276D01*
X0106835Y0014403D01*
X0106932Y0014528D01*
X0107033Y0014650D01*
X0107137Y0014769D01*
X0107244Y0014886D01*
X0107354Y0015000D01*
X0107467Y0015111D01*
X0107582Y0015220D01*
X0107700Y0015325D01*
X0107821Y0015427D01*
X0107944Y0015527D01*
X0108070Y0015623D01*
X0108198Y0015716D01*
X0108328Y0015806D01*
X0108461Y0015892D01*
X0108596Y0015976D01*
X0108732Y0016055D01*
X0108871Y0016132D01*
X0109012Y0016204D01*
X0109154Y0016274D01*
X0109298Y0016339D01*
X0109444Y0016401D01*
X0109591Y0016459D01*
X0109740Y0016514D01*
X0109890Y0016565D01*
X0110041Y0016612D01*
X0110193Y0016655D01*
X0110346Y0016694D01*
X0110501Y0016730D01*
X0110656Y0016761D01*
X0110812Y0016789D01*
X0110968Y0016813D01*
X0111125Y0016833D01*
X0111283Y0016849D01*
X0111440Y0016861D01*
X0111599Y0016869D01*
X0111757Y0016873D01*
X0111915Y0016873D01*
X0112073Y0016869D01*
X0112232Y0016861D01*
X0112389Y0016849D01*
X0112547Y0016833D01*
X0112704Y0016813D01*
X0112860Y0016789D01*
X0113016Y0016761D01*
X0113171Y0016730D01*
X0113326Y0016694D01*
X0113479Y0016655D01*
X0113631Y0016612D01*
X0113782Y0016565D01*
X0113932Y0016514D01*
X0114081Y0016459D01*
X0114228Y0016401D01*
X0114374Y0016339D01*
X0114518Y0016274D01*
X0114660Y0016204D01*
X0114801Y0016132D01*
X0114940Y0016055D01*
X0115076Y0015976D01*
X0115211Y0015892D01*
X0115344Y0015806D01*
X0115474Y0015716D01*
X0115602Y0015623D01*
X0115728Y0015527D01*
X0115851Y0015427D01*
X0115972Y0015325D01*
X0116090Y0015220D01*
X0116205Y0015111D01*
X0116318Y0015000D01*
X0116428Y0014886D01*
X0116535Y0014769D01*
X0116639Y0014650D01*
X0116740Y0014528D01*
X0116837Y0014403D01*
X0116932Y0014276D01*
X0117023Y0014147D01*
X0117112Y0014016D01*
X0117196Y0013882D01*
X0117278Y0013746D01*
X0117356Y0013609D01*
X0117430Y0013469D01*
X0117501Y0013327D01*
X0117569Y0013184D01*
X0117633Y0013039D01*
X0117693Y0012893D01*
X0117749Y0012745D01*
X0117802Y0012596D01*
X0117851Y0012445D01*
X0117896Y0012293D01*
X0117937Y0012140D01*
X0117975Y0011987D01*
X0118008Y0011832D01*
X0118038Y0011676D01*
X0118064Y0011520D01*
X0118085Y0011363D01*
X0118103Y0011206D01*
X0118117Y0011048D01*
X0118127Y0010890D01*
X0118133Y0010732D01*
X0118135Y0010574D01*
X0118133Y0010416D01*
X0118127Y0010258D01*
X0118117Y0010100D01*
X0118103Y0009942D01*
X0118085Y0009785D01*
X0118064Y0009628D01*
X0118038Y0009472D01*
X0118008Y0009316D01*
X0117975Y0009161D01*
X0117937Y0009008D01*
X0117896Y0008855D01*
X0117851Y0008703D01*
X0117802Y0008552D01*
X0117749Y0008403D01*
X0117693Y0008255D01*
X0117633Y0008109D01*
X0117569Y0007964D01*
X0117501Y0007821D01*
X0117430Y0007679D01*
X0117356Y0007539D01*
X0117278Y0007402D01*
X0117196Y0007266D01*
X0117112Y0007132D01*
X0117023Y0007001D01*
X0116932Y0006872D01*
X0116837Y0006745D01*
X0116740Y0006620D01*
X0116639Y0006498D01*
X0116535Y0006379D01*
X0116428Y0006262D01*
X0116318Y0006148D01*
X0116205Y0006037D01*
X0116090Y0005928D01*
X0115972Y0005823D01*
X0115851Y0005721D01*
X0115728Y0005621D01*
X0115602Y0005525D01*
X0115474Y0005432D01*
X0115344Y0005342D01*
X0115211Y0005256D01*
X0115076Y0005172D01*
X0114940Y0005093D01*
X0114801Y0005016D01*
X0114660Y0004944D01*
X0114518Y0004874D01*
X0114374Y0004809D01*
X0114228Y0004747D01*
X0114081Y0004689D01*
X0113932Y0004634D01*
X0113782Y0004583D01*
X0113631Y0004536D01*
X0113479Y0004493D01*
X0113326Y0004454D01*
X0113171Y0004418D01*
X0113016Y0004387D01*
X0112860Y0004359D01*
X0112704Y0004335D01*
X0112547Y0004315D01*
X0112389Y0004299D01*
X0112232Y0004287D01*
X0112073Y0004279D01*
X0111915Y0004275D01*
X0111757Y0004275D01*
X0111599Y0004279D01*
X0111440Y0004287D01*
X0111283Y0004299D01*
X0111125Y0004315D01*
X0110968Y0004335D01*
X0110812Y0004359D01*
X0110656Y0004387D01*
X0110501Y0004418D01*
X0110346Y0004454D01*
X0110193Y0004493D01*
X0110041Y0004536D01*
X0109890Y0004583D01*
X0109740Y0004634D01*
X0109591Y0004689D01*
X0109444Y0004747D01*
X0109298Y0004809D01*
X0109154Y0004874D01*
X0109012Y0004944D01*
X0108871Y0005016D01*
X0108732Y0005093D01*
X0108596Y0005172D01*
X0108461Y0005256D01*
X0108328Y0005342D01*
X0108198Y0005432D01*
X0108070Y0005525D01*
X0107944Y0005621D01*
X0107821Y0005721D01*
X0107700Y0005823D01*
X0107582Y0005928D01*
X0107467Y0006037D01*
X0107354Y0006148D01*
X0107244Y0006262D01*
X0107137Y0006379D01*
X0107033Y0006498D01*
X0106932Y0006620D01*
X0106835Y0006745D01*
X0106740Y0006872D01*
X0106649Y0007001D01*
X0106560Y0007132D01*
X0106476Y0007266D01*
X0106394Y0007402D01*
X0106316Y0007539D01*
X0106242Y0007679D01*
X0106171Y0007821D01*
X0106103Y0007964D01*
X0106039Y0008109D01*
X0105979Y0008255D01*
X0105923Y0008403D01*
X0105870Y0008552D01*
X0105821Y0008703D01*
X0105776Y0008855D01*
X0105735Y0009008D01*
X0105697Y0009161D01*
X0105664Y0009316D01*
X0105634Y0009472D01*
X0105608Y0009628D01*
X0105587Y0009785D01*
X0105569Y0009942D01*
X0105555Y0010100D01*
X0105545Y0010258D01*
X0105539Y0010416D01*
X0105537Y0010574D01*
X0263018Y0010574D02*
X0263020Y0010732D01*
X0263026Y0010890D01*
X0263036Y0011048D01*
X0263050Y0011206D01*
X0263068Y0011363D01*
X0263089Y0011520D01*
X0263115Y0011676D01*
X0263145Y0011832D01*
X0263178Y0011987D01*
X0263216Y0012140D01*
X0263257Y0012293D01*
X0263302Y0012445D01*
X0263351Y0012596D01*
X0263404Y0012745D01*
X0263460Y0012893D01*
X0263520Y0013039D01*
X0263584Y0013184D01*
X0263652Y0013327D01*
X0263723Y0013469D01*
X0263797Y0013609D01*
X0263875Y0013746D01*
X0263957Y0013882D01*
X0264041Y0014016D01*
X0264130Y0014147D01*
X0264221Y0014276D01*
X0264316Y0014403D01*
X0264413Y0014528D01*
X0264514Y0014650D01*
X0264618Y0014769D01*
X0264725Y0014886D01*
X0264835Y0015000D01*
X0264948Y0015111D01*
X0265063Y0015220D01*
X0265181Y0015325D01*
X0265302Y0015427D01*
X0265425Y0015527D01*
X0265551Y0015623D01*
X0265679Y0015716D01*
X0265809Y0015806D01*
X0265942Y0015892D01*
X0266077Y0015976D01*
X0266213Y0016055D01*
X0266352Y0016132D01*
X0266493Y0016204D01*
X0266635Y0016274D01*
X0266779Y0016339D01*
X0266925Y0016401D01*
X0267072Y0016459D01*
X0267221Y0016514D01*
X0267371Y0016565D01*
X0267522Y0016612D01*
X0267674Y0016655D01*
X0267827Y0016694D01*
X0267982Y0016730D01*
X0268137Y0016761D01*
X0268293Y0016789D01*
X0268449Y0016813D01*
X0268606Y0016833D01*
X0268764Y0016849D01*
X0268921Y0016861D01*
X0269080Y0016869D01*
X0269238Y0016873D01*
X0269396Y0016873D01*
X0269554Y0016869D01*
X0269713Y0016861D01*
X0269870Y0016849D01*
X0270028Y0016833D01*
X0270185Y0016813D01*
X0270341Y0016789D01*
X0270497Y0016761D01*
X0270652Y0016730D01*
X0270807Y0016694D01*
X0270960Y0016655D01*
X0271112Y0016612D01*
X0271263Y0016565D01*
X0271413Y0016514D01*
X0271562Y0016459D01*
X0271709Y0016401D01*
X0271855Y0016339D01*
X0271999Y0016274D01*
X0272141Y0016204D01*
X0272282Y0016132D01*
X0272421Y0016055D01*
X0272557Y0015976D01*
X0272692Y0015892D01*
X0272825Y0015806D01*
X0272955Y0015716D01*
X0273083Y0015623D01*
X0273209Y0015527D01*
X0273332Y0015427D01*
X0273453Y0015325D01*
X0273571Y0015220D01*
X0273686Y0015111D01*
X0273799Y0015000D01*
X0273909Y0014886D01*
X0274016Y0014769D01*
X0274120Y0014650D01*
X0274221Y0014528D01*
X0274318Y0014403D01*
X0274413Y0014276D01*
X0274504Y0014147D01*
X0274593Y0014016D01*
X0274677Y0013882D01*
X0274759Y0013746D01*
X0274837Y0013609D01*
X0274911Y0013469D01*
X0274982Y0013327D01*
X0275050Y0013184D01*
X0275114Y0013039D01*
X0275174Y0012893D01*
X0275230Y0012745D01*
X0275283Y0012596D01*
X0275332Y0012445D01*
X0275377Y0012293D01*
X0275418Y0012140D01*
X0275456Y0011987D01*
X0275489Y0011832D01*
X0275519Y0011676D01*
X0275545Y0011520D01*
X0275566Y0011363D01*
X0275584Y0011206D01*
X0275598Y0011048D01*
X0275608Y0010890D01*
X0275614Y0010732D01*
X0275616Y0010574D01*
X0275614Y0010416D01*
X0275608Y0010258D01*
X0275598Y0010100D01*
X0275584Y0009942D01*
X0275566Y0009785D01*
X0275545Y0009628D01*
X0275519Y0009472D01*
X0275489Y0009316D01*
X0275456Y0009161D01*
X0275418Y0009008D01*
X0275377Y0008855D01*
X0275332Y0008703D01*
X0275283Y0008552D01*
X0275230Y0008403D01*
X0275174Y0008255D01*
X0275114Y0008109D01*
X0275050Y0007964D01*
X0274982Y0007821D01*
X0274911Y0007679D01*
X0274837Y0007539D01*
X0274759Y0007402D01*
X0274677Y0007266D01*
X0274593Y0007132D01*
X0274504Y0007001D01*
X0274413Y0006872D01*
X0274318Y0006745D01*
X0274221Y0006620D01*
X0274120Y0006498D01*
X0274016Y0006379D01*
X0273909Y0006262D01*
X0273799Y0006148D01*
X0273686Y0006037D01*
X0273571Y0005928D01*
X0273453Y0005823D01*
X0273332Y0005721D01*
X0273209Y0005621D01*
X0273083Y0005525D01*
X0272955Y0005432D01*
X0272825Y0005342D01*
X0272692Y0005256D01*
X0272557Y0005172D01*
X0272421Y0005093D01*
X0272282Y0005016D01*
X0272141Y0004944D01*
X0271999Y0004874D01*
X0271855Y0004809D01*
X0271709Y0004747D01*
X0271562Y0004689D01*
X0271413Y0004634D01*
X0271263Y0004583D01*
X0271112Y0004536D01*
X0270960Y0004493D01*
X0270807Y0004454D01*
X0270652Y0004418D01*
X0270497Y0004387D01*
X0270341Y0004359D01*
X0270185Y0004335D01*
X0270028Y0004315D01*
X0269870Y0004299D01*
X0269713Y0004287D01*
X0269554Y0004279D01*
X0269396Y0004275D01*
X0269238Y0004275D01*
X0269080Y0004279D01*
X0268921Y0004287D01*
X0268764Y0004299D01*
X0268606Y0004315D01*
X0268449Y0004335D01*
X0268293Y0004359D01*
X0268137Y0004387D01*
X0267982Y0004418D01*
X0267827Y0004454D01*
X0267674Y0004493D01*
X0267522Y0004536D01*
X0267371Y0004583D01*
X0267221Y0004634D01*
X0267072Y0004689D01*
X0266925Y0004747D01*
X0266779Y0004809D01*
X0266635Y0004874D01*
X0266493Y0004944D01*
X0266352Y0005016D01*
X0266213Y0005093D01*
X0266077Y0005172D01*
X0265942Y0005256D01*
X0265809Y0005342D01*
X0265679Y0005432D01*
X0265551Y0005525D01*
X0265425Y0005621D01*
X0265302Y0005721D01*
X0265181Y0005823D01*
X0265063Y0005928D01*
X0264948Y0006037D01*
X0264835Y0006148D01*
X0264725Y0006262D01*
X0264618Y0006379D01*
X0264514Y0006498D01*
X0264413Y0006620D01*
X0264316Y0006745D01*
X0264221Y0006872D01*
X0264130Y0007001D01*
X0264041Y0007132D01*
X0263957Y0007266D01*
X0263875Y0007402D01*
X0263797Y0007539D01*
X0263723Y0007679D01*
X0263652Y0007821D01*
X0263584Y0007964D01*
X0263520Y0008109D01*
X0263460Y0008255D01*
X0263404Y0008403D01*
X0263351Y0008552D01*
X0263302Y0008703D01*
X0263257Y0008855D01*
X0263216Y0009008D01*
X0263178Y0009161D01*
X0263145Y0009316D01*
X0263115Y0009472D01*
X0263089Y0009628D01*
X0263068Y0009785D01*
X0263050Y0009942D01*
X0263036Y0010100D01*
X0263026Y0010258D01*
X0263020Y0010416D01*
X0263018Y0010574D01*
X0241738Y0086342D02*
X0241740Y0086439D01*
X0241746Y0086536D01*
X0241756Y0086632D01*
X0241770Y0086728D01*
X0241788Y0086824D01*
X0241809Y0086918D01*
X0241835Y0087012D01*
X0241864Y0087104D01*
X0241898Y0087195D01*
X0241934Y0087285D01*
X0241975Y0087373D01*
X0242019Y0087459D01*
X0242067Y0087544D01*
X0242118Y0087626D01*
X0242172Y0087707D01*
X0242230Y0087785D01*
X0242291Y0087860D01*
X0242354Y0087933D01*
X0242421Y0088004D01*
X0242491Y0088071D01*
X0242563Y0088136D01*
X0242638Y0088197D01*
X0242716Y0088256D01*
X0242795Y0088311D01*
X0242877Y0088363D01*
X0242961Y0088411D01*
X0243047Y0088456D01*
X0243135Y0088498D01*
X0243224Y0088536D01*
X0243315Y0088570D01*
X0243407Y0088600D01*
X0243500Y0088627D01*
X0243595Y0088649D01*
X0243690Y0088668D01*
X0243786Y0088683D01*
X0243882Y0088694D01*
X0243979Y0088701D01*
X0244076Y0088704D01*
X0244173Y0088703D01*
X0244270Y0088698D01*
X0244366Y0088689D01*
X0244462Y0088676D01*
X0244558Y0088659D01*
X0244653Y0088638D01*
X0244746Y0088614D01*
X0244839Y0088585D01*
X0244931Y0088553D01*
X0245021Y0088517D01*
X0245109Y0088478D01*
X0245196Y0088434D01*
X0245281Y0088388D01*
X0245364Y0088337D01*
X0245445Y0088284D01*
X0245523Y0088227D01*
X0245600Y0088167D01*
X0245673Y0088104D01*
X0245744Y0088038D01*
X0245812Y0087969D01*
X0245878Y0087897D01*
X0245940Y0087823D01*
X0245999Y0087746D01*
X0246055Y0087667D01*
X0246108Y0087585D01*
X0246158Y0087502D01*
X0246203Y0087416D01*
X0246246Y0087329D01*
X0246285Y0087240D01*
X0246320Y0087150D01*
X0246351Y0087058D01*
X0246378Y0086965D01*
X0246402Y0086871D01*
X0246422Y0086776D01*
X0246438Y0086680D01*
X0246450Y0086584D01*
X0246458Y0086487D01*
X0246462Y0086390D01*
X0246462Y0086294D01*
X0246458Y0086197D01*
X0246450Y0086100D01*
X0246438Y0086004D01*
X0246422Y0085908D01*
X0246402Y0085813D01*
X0246378Y0085719D01*
X0246351Y0085626D01*
X0246320Y0085534D01*
X0246285Y0085444D01*
X0246246Y0085355D01*
X0246203Y0085268D01*
X0246158Y0085182D01*
X0246108Y0085099D01*
X0246055Y0085017D01*
X0245999Y0084938D01*
X0245940Y0084861D01*
X0245878Y0084787D01*
X0245812Y0084715D01*
X0245744Y0084646D01*
X0245673Y0084580D01*
X0245600Y0084517D01*
X0245523Y0084457D01*
X0245445Y0084400D01*
X0245364Y0084347D01*
X0245281Y0084296D01*
X0245196Y0084250D01*
X0245109Y0084206D01*
X0245021Y0084167D01*
X0244931Y0084131D01*
X0244839Y0084099D01*
X0244746Y0084070D01*
X0244653Y0084046D01*
X0244558Y0084025D01*
X0244462Y0084008D01*
X0244366Y0083995D01*
X0244270Y0083986D01*
X0244173Y0083981D01*
X0244076Y0083980D01*
X0243979Y0083983D01*
X0243882Y0083990D01*
X0243786Y0084001D01*
X0243690Y0084016D01*
X0243595Y0084035D01*
X0243500Y0084057D01*
X0243407Y0084084D01*
X0243315Y0084114D01*
X0243224Y0084148D01*
X0243135Y0084186D01*
X0243047Y0084228D01*
X0242961Y0084273D01*
X0242877Y0084321D01*
X0242795Y0084373D01*
X0242716Y0084428D01*
X0242638Y0084487D01*
X0242563Y0084548D01*
X0242491Y0084613D01*
X0242421Y0084680D01*
X0242354Y0084751D01*
X0242291Y0084824D01*
X0242230Y0084899D01*
X0242172Y0084977D01*
X0242118Y0085058D01*
X0242067Y0085140D01*
X0242019Y0085225D01*
X0241975Y0085311D01*
X0241934Y0085399D01*
X0241898Y0085489D01*
X0241864Y0085580D01*
X0241835Y0085672D01*
X0241809Y0085766D01*
X0241788Y0085860D01*
X0241770Y0085956D01*
X0241756Y0086052D01*
X0241746Y0086148D01*
X0241740Y0086245D01*
X0241738Y0086342D01*
X0288736Y0101578D02*
X0288738Y0101669D01*
X0288744Y0101759D01*
X0288754Y0101850D01*
X0288768Y0101939D01*
X0288786Y0102028D01*
X0288807Y0102117D01*
X0288833Y0102204D01*
X0288862Y0102290D01*
X0288896Y0102374D01*
X0288932Y0102457D01*
X0288973Y0102539D01*
X0289017Y0102618D01*
X0289064Y0102696D01*
X0289115Y0102771D01*
X0289169Y0102844D01*
X0289226Y0102914D01*
X0289286Y0102982D01*
X0289349Y0103048D01*
X0289415Y0103110D01*
X0289484Y0103169D01*
X0289555Y0103226D01*
X0289629Y0103279D01*
X0289705Y0103329D01*
X0289783Y0103376D01*
X0289863Y0103419D01*
X0289944Y0103458D01*
X0290028Y0103494D01*
X0290113Y0103526D01*
X0290199Y0103555D01*
X0290286Y0103579D01*
X0290375Y0103600D01*
X0290464Y0103617D01*
X0290554Y0103630D01*
X0290644Y0103639D01*
X0290735Y0103644D01*
X0290826Y0103645D01*
X0290916Y0103642D01*
X0291007Y0103635D01*
X0291097Y0103624D01*
X0291187Y0103609D01*
X0291276Y0103590D01*
X0291364Y0103568D01*
X0291450Y0103541D01*
X0291536Y0103511D01*
X0291620Y0103477D01*
X0291703Y0103439D01*
X0291784Y0103398D01*
X0291863Y0103353D01*
X0291940Y0103304D01*
X0292014Y0103253D01*
X0292087Y0103198D01*
X0292157Y0103140D01*
X0292224Y0103079D01*
X0292288Y0103015D01*
X0292350Y0102949D01*
X0292409Y0102879D01*
X0292464Y0102808D01*
X0292517Y0102733D01*
X0292566Y0102657D01*
X0292612Y0102579D01*
X0292654Y0102498D01*
X0292693Y0102416D01*
X0292728Y0102332D01*
X0292759Y0102247D01*
X0292786Y0102160D01*
X0292810Y0102073D01*
X0292830Y0101984D01*
X0292846Y0101895D01*
X0292858Y0101805D01*
X0292866Y0101714D01*
X0292870Y0101623D01*
X0292870Y0101533D01*
X0292866Y0101442D01*
X0292858Y0101351D01*
X0292846Y0101261D01*
X0292830Y0101172D01*
X0292810Y0101083D01*
X0292786Y0100996D01*
X0292759Y0100909D01*
X0292728Y0100824D01*
X0292693Y0100740D01*
X0292654Y0100658D01*
X0292612Y0100577D01*
X0292566Y0100499D01*
X0292517Y0100423D01*
X0292464Y0100348D01*
X0292409Y0100277D01*
X0292350Y0100207D01*
X0292288Y0100141D01*
X0292224Y0100077D01*
X0292157Y0100016D01*
X0292087Y0099958D01*
X0292014Y0099903D01*
X0291940Y0099852D01*
X0291863Y0099803D01*
X0291784Y0099758D01*
X0291703Y0099717D01*
X0291620Y0099679D01*
X0291536Y0099645D01*
X0291450Y0099615D01*
X0291364Y0099588D01*
X0291276Y0099566D01*
X0291187Y0099547D01*
X0291097Y0099532D01*
X0291007Y0099521D01*
X0290916Y0099514D01*
X0290826Y0099511D01*
X0290735Y0099512D01*
X0290644Y0099517D01*
X0290554Y0099526D01*
X0290464Y0099539D01*
X0290375Y0099556D01*
X0290286Y0099577D01*
X0290199Y0099601D01*
X0290113Y0099630D01*
X0290028Y0099662D01*
X0289944Y0099698D01*
X0289863Y0099737D01*
X0289783Y0099780D01*
X0289705Y0099827D01*
X0289629Y0099877D01*
X0289555Y0099930D01*
X0289484Y0099987D01*
X0289415Y0100046D01*
X0289349Y0100108D01*
X0289286Y0100174D01*
X0289226Y0100242D01*
X0289169Y0100312D01*
X0289115Y0100385D01*
X0289064Y0100460D01*
X0289017Y0100538D01*
X0288973Y0100617D01*
X0288932Y0100699D01*
X0288896Y0100782D01*
X0288862Y0100866D01*
X0288833Y0100952D01*
X0288807Y0101039D01*
X0288786Y0101128D01*
X0288768Y0101217D01*
X0288754Y0101306D01*
X0288744Y0101397D01*
X0288738Y0101487D01*
X0288736Y0101578D01*
X0307830Y0101578D02*
X0307832Y0101669D01*
X0307838Y0101759D01*
X0307848Y0101850D01*
X0307862Y0101939D01*
X0307880Y0102028D01*
X0307901Y0102117D01*
X0307927Y0102204D01*
X0307956Y0102290D01*
X0307990Y0102374D01*
X0308026Y0102457D01*
X0308067Y0102539D01*
X0308111Y0102618D01*
X0308158Y0102696D01*
X0308209Y0102771D01*
X0308263Y0102844D01*
X0308320Y0102914D01*
X0308380Y0102982D01*
X0308443Y0103048D01*
X0308509Y0103110D01*
X0308578Y0103169D01*
X0308649Y0103226D01*
X0308723Y0103279D01*
X0308799Y0103329D01*
X0308877Y0103376D01*
X0308957Y0103419D01*
X0309038Y0103458D01*
X0309122Y0103494D01*
X0309207Y0103526D01*
X0309293Y0103555D01*
X0309380Y0103579D01*
X0309469Y0103600D01*
X0309558Y0103617D01*
X0309648Y0103630D01*
X0309738Y0103639D01*
X0309829Y0103644D01*
X0309920Y0103645D01*
X0310010Y0103642D01*
X0310101Y0103635D01*
X0310191Y0103624D01*
X0310281Y0103609D01*
X0310370Y0103590D01*
X0310458Y0103568D01*
X0310544Y0103541D01*
X0310630Y0103511D01*
X0310714Y0103477D01*
X0310797Y0103439D01*
X0310878Y0103398D01*
X0310957Y0103353D01*
X0311034Y0103304D01*
X0311108Y0103253D01*
X0311181Y0103198D01*
X0311251Y0103140D01*
X0311318Y0103079D01*
X0311382Y0103015D01*
X0311444Y0102949D01*
X0311503Y0102879D01*
X0311558Y0102808D01*
X0311611Y0102733D01*
X0311660Y0102657D01*
X0311706Y0102579D01*
X0311748Y0102498D01*
X0311787Y0102416D01*
X0311822Y0102332D01*
X0311853Y0102247D01*
X0311880Y0102160D01*
X0311904Y0102073D01*
X0311924Y0101984D01*
X0311940Y0101895D01*
X0311952Y0101805D01*
X0311960Y0101714D01*
X0311964Y0101623D01*
X0311964Y0101533D01*
X0311960Y0101442D01*
X0311952Y0101351D01*
X0311940Y0101261D01*
X0311924Y0101172D01*
X0311904Y0101083D01*
X0311880Y0100996D01*
X0311853Y0100909D01*
X0311822Y0100824D01*
X0311787Y0100740D01*
X0311748Y0100658D01*
X0311706Y0100577D01*
X0311660Y0100499D01*
X0311611Y0100423D01*
X0311558Y0100348D01*
X0311503Y0100277D01*
X0311444Y0100207D01*
X0311382Y0100141D01*
X0311318Y0100077D01*
X0311251Y0100016D01*
X0311181Y0099958D01*
X0311108Y0099903D01*
X0311034Y0099852D01*
X0310957Y0099803D01*
X0310878Y0099758D01*
X0310797Y0099717D01*
X0310714Y0099679D01*
X0310630Y0099645D01*
X0310544Y0099615D01*
X0310458Y0099588D01*
X0310370Y0099566D01*
X0310281Y0099547D01*
X0310191Y0099532D01*
X0310101Y0099521D01*
X0310010Y0099514D01*
X0309920Y0099511D01*
X0309829Y0099512D01*
X0309738Y0099517D01*
X0309648Y0099526D01*
X0309558Y0099539D01*
X0309469Y0099556D01*
X0309380Y0099577D01*
X0309293Y0099601D01*
X0309207Y0099630D01*
X0309122Y0099662D01*
X0309038Y0099698D01*
X0308957Y0099737D01*
X0308877Y0099780D01*
X0308799Y0099827D01*
X0308723Y0099877D01*
X0308649Y0099930D01*
X0308578Y0099987D01*
X0308509Y0100046D01*
X0308443Y0100108D01*
X0308380Y0100174D01*
X0308320Y0100242D01*
X0308263Y0100312D01*
X0308209Y0100385D01*
X0308158Y0100460D01*
X0308111Y0100538D01*
X0308067Y0100617D01*
X0308026Y0100699D01*
X0307990Y0100782D01*
X0307956Y0100866D01*
X0307927Y0100952D01*
X0307901Y0101039D01*
X0307880Y0101128D01*
X0307862Y0101217D01*
X0307848Y0101306D01*
X0307838Y0101397D01*
X0307832Y0101487D01*
X0307830Y0101578D01*
X0263018Y0112936D02*
X0263020Y0113094D01*
X0263026Y0113252D01*
X0263036Y0113410D01*
X0263050Y0113568D01*
X0263068Y0113725D01*
X0263089Y0113882D01*
X0263115Y0114038D01*
X0263145Y0114194D01*
X0263178Y0114349D01*
X0263216Y0114502D01*
X0263257Y0114655D01*
X0263302Y0114807D01*
X0263351Y0114958D01*
X0263404Y0115107D01*
X0263460Y0115255D01*
X0263520Y0115401D01*
X0263584Y0115546D01*
X0263652Y0115689D01*
X0263723Y0115831D01*
X0263797Y0115971D01*
X0263875Y0116108D01*
X0263957Y0116244D01*
X0264041Y0116378D01*
X0264130Y0116509D01*
X0264221Y0116638D01*
X0264316Y0116765D01*
X0264413Y0116890D01*
X0264514Y0117012D01*
X0264618Y0117131D01*
X0264725Y0117248D01*
X0264835Y0117362D01*
X0264948Y0117473D01*
X0265063Y0117582D01*
X0265181Y0117687D01*
X0265302Y0117789D01*
X0265425Y0117889D01*
X0265551Y0117985D01*
X0265679Y0118078D01*
X0265809Y0118168D01*
X0265942Y0118254D01*
X0266077Y0118338D01*
X0266213Y0118417D01*
X0266352Y0118494D01*
X0266493Y0118566D01*
X0266635Y0118636D01*
X0266779Y0118701D01*
X0266925Y0118763D01*
X0267072Y0118821D01*
X0267221Y0118876D01*
X0267371Y0118927D01*
X0267522Y0118974D01*
X0267674Y0119017D01*
X0267827Y0119056D01*
X0267982Y0119092D01*
X0268137Y0119123D01*
X0268293Y0119151D01*
X0268449Y0119175D01*
X0268606Y0119195D01*
X0268764Y0119211D01*
X0268921Y0119223D01*
X0269080Y0119231D01*
X0269238Y0119235D01*
X0269396Y0119235D01*
X0269554Y0119231D01*
X0269713Y0119223D01*
X0269870Y0119211D01*
X0270028Y0119195D01*
X0270185Y0119175D01*
X0270341Y0119151D01*
X0270497Y0119123D01*
X0270652Y0119092D01*
X0270807Y0119056D01*
X0270960Y0119017D01*
X0271112Y0118974D01*
X0271263Y0118927D01*
X0271413Y0118876D01*
X0271562Y0118821D01*
X0271709Y0118763D01*
X0271855Y0118701D01*
X0271999Y0118636D01*
X0272141Y0118566D01*
X0272282Y0118494D01*
X0272421Y0118417D01*
X0272557Y0118338D01*
X0272692Y0118254D01*
X0272825Y0118168D01*
X0272955Y0118078D01*
X0273083Y0117985D01*
X0273209Y0117889D01*
X0273332Y0117789D01*
X0273453Y0117687D01*
X0273571Y0117582D01*
X0273686Y0117473D01*
X0273799Y0117362D01*
X0273909Y0117248D01*
X0274016Y0117131D01*
X0274120Y0117012D01*
X0274221Y0116890D01*
X0274318Y0116765D01*
X0274413Y0116638D01*
X0274504Y0116509D01*
X0274593Y0116378D01*
X0274677Y0116244D01*
X0274759Y0116108D01*
X0274837Y0115971D01*
X0274911Y0115831D01*
X0274982Y0115689D01*
X0275050Y0115546D01*
X0275114Y0115401D01*
X0275174Y0115255D01*
X0275230Y0115107D01*
X0275283Y0114958D01*
X0275332Y0114807D01*
X0275377Y0114655D01*
X0275418Y0114502D01*
X0275456Y0114349D01*
X0275489Y0114194D01*
X0275519Y0114038D01*
X0275545Y0113882D01*
X0275566Y0113725D01*
X0275584Y0113568D01*
X0275598Y0113410D01*
X0275608Y0113252D01*
X0275614Y0113094D01*
X0275616Y0112936D01*
X0275614Y0112778D01*
X0275608Y0112620D01*
X0275598Y0112462D01*
X0275584Y0112304D01*
X0275566Y0112147D01*
X0275545Y0111990D01*
X0275519Y0111834D01*
X0275489Y0111678D01*
X0275456Y0111523D01*
X0275418Y0111370D01*
X0275377Y0111217D01*
X0275332Y0111065D01*
X0275283Y0110914D01*
X0275230Y0110765D01*
X0275174Y0110617D01*
X0275114Y0110471D01*
X0275050Y0110326D01*
X0274982Y0110183D01*
X0274911Y0110041D01*
X0274837Y0109901D01*
X0274759Y0109764D01*
X0274677Y0109628D01*
X0274593Y0109494D01*
X0274504Y0109363D01*
X0274413Y0109234D01*
X0274318Y0109107D01*
X0274221Y0108982D01*
X0274120Y0108860D01*
X0274016Y0108741D01*
X0273909Y0108624D01*
X0273799Y0108510D01*
X0273686Y0108399D01*
X0273571Y0108290D01*
X0273453Y0108185D01*
X0273332Y0108083D01*
X0273209Y0107983D01*
X0273083Y0107887D01*
X0272955Y0107794D01*
X0272825Y0107704D01*
X0272692Y0107618D01*
X0272557Y0107534D01*
X0272421Y0107455D01*
X0272282Y0107378D01*
X0272141Y0107306D01*
X0271999Y0107236D01*
X0271855Y0107171D01*
X0271709Y0107109D01*
X0271562Y0107051D01*
X0271413Y0106996D01*
X0271263Y0106945D01*
X0271112Y0106898D01*
X0270960Y0106855D01*
X0270807Y0106816D01*
X0270652Y0106780D01*
X0270497Y0106749D01*
X0270341Y0106721D01*
X0270185Y0106697D01*
X0270028Y0106677D01*
X0269870Y0106661D01*
X0269713Y0106649D01*
X0269554Y0106641D01*
X0269396Y0106637D01*
X0269238Y0106637D01*
X0269080Y0106641D01*
X0268921Y0106649D01*
X0268764Y0106661D01*
X0268606Y0106677D01*
X0268449Y0106697D01*
X0268293Y0106721D01*
X0268137Y0106749D01*
X0267982Y0106780D01*
X0267827Y0106816D01*
X0267674Y0106855D01*
X0267522Y0106898D01*
X0267371Y0106945D01*
X0267221Y0106996D01*
X0267072Y0107051D01*
X0266925Y0107109D01*
X0266779Y0107171D01*
X0266635Y0107236D01*
X0266493Y0107306D01*
X0266352Y0107378D01*
X0266213Y0107455D01*
X0266077Y0107534D01*
X0265942Y0107618D01*
X0265809Y0107704D01*
X0265679Y0107794D01*
X0265551Y0107887D01*
X0265425Y0107983D01*
X0265302Y0108083D01*
X0265181Y0108185D01*
X0265063Y0108290D01*
X0264948Y0108399D01*
X0264835Y0108510D01*
X0264725Y0108624D01*
X0264618Y0108741D01*
X0264514Y0108860D01*
X0264413Y0108982D01*
X0264316Y0109107D01*
X0264221Y0109234D01*
X0264130Y0109363D01*
X0264041Y0109494D01*
X0263957Y0109628D01*
X0263875Y0109764D01*
X0263797Y0109901D01*
X0263723Y0110041D01*
X0263652Y0110183D01*
X0263584Y0110326D01*
X0263520Y0110471D01*
X0263460Y0110617D01*
X0263404Y0110765D01*
X0263351Y0110914D01*
X0263302Y0111065D01*
X0263257Y0111217D01*
X0263216Y0111370D01*
X0263178Y0111523D01*
X0263145Y0111678D01*
X0263115Y0111834D01*
X0263089Y0111990D01*
X0263068Y0112147D01*
X0263050Y0112304D01*
X0263036Y0112462D01*
X0263026Y0112620D01*
X0263020Y0112778D01*
X0263018Y0112936D01*
X0241738Y0113901D02*
X0241740Y0113998D01*
X0241746Y0114095D01*
X0241756Y0114191D01*
X0241770Y0114287D01*
X0241788Y0114383D01*
X0241809Y0114477D01*
X0241835Y0114571D01*
X0241864Y0114663D01*
X0241898Y0114754D01*
X0241934Y0114844D01*
X0241975Y0114932D01*
X0242019Y0115018D01*
X0242067Y0115103D01*
X0242118Y0115185D01*
X0242172Y0115266D01*
X0242230Y0115344D01*
X0242291Y0115419D01*
X0242354Y0115492D01*
X0242421Y0115563D01*
X0242491Y0115630D01*
X0242563Y0115695D01*
X0242638Y0115756D01*
X0242716Y0115815D01*
X0242795Y0115870D01*
X0242877Y0115922D01*
X0242961Y0115970D01*
X0243047Y0116015D01*
X0243135Y0116057D01*
X0243224Y0116095D01*
X0243315Y0116129D01*
X0243407Y0116159D01*
X0243500Y0116186D01*
X0243595Y0116208D01*
X0243690Y0116227D01*
X0243786Y0116242D01*
X0243882Y0116253D01*
X0243979Y0116260D01*
X0244076Y0116263D01*
X0244173Y0116262D01*
X0244270Y0116257D01*
X0244366Y0116248D01*
X0244462Y0116235D01*
X0244558Y0116218D01*
X0244653Y0116197D01*
X0244746Y0116173D01*
X0244839Y0116144D01*
X0244931Y0116112D01*
X0245021Y0116076D01*
X0245109Y0116037D01*
X0245196Y0115993D01*
X0245281Y0115947D01*
X0245364Y0115896D01*
X0245445Y0115843D01*
X0245523Y0115786D01*
X0245600Y0115726D01*
X0245673Y0115663D01*
X0245744Y0115597D01*
X0245812Y0115528D01*
X0245878Y0115456D01*
X0245940Y0115382D01*
X0245999Y0115305D01*
X0246055Y0115226D01*
X0246108Y0115144D01*
X0246158Y0115061D01*
X0246203Y0114975D01*
X0246246Y0114888D01*
X0246285Y0114799D01*
X0246320Y0114709D01*
X0246351Y0114617D01*
X0246378Y0114524D01*
X0246402Y0114430D01*
X0246422Y0114335D01*
X0246438Y0114239D01*
X0246450Y0114143D01*
X0246458Y0114046D01*
X0246462Y0113949D01*
X0246462Y0113853D01*
X0246458Y0113756D01*
X0246450Y0113659D01*
X0246438Y0113563D01*
X0246422Y0113467D01*
X0246402Y0113372D01*
X0246378Y0113278D01*
X0246351Y0113185D01*
X0246320Y0113093D01*
X0246285Y0113003D01*
X0246246Y0112914D01*
X0246203Y0112827D01*
X0246158Y0112741D01*
X0246108Y0112658D01*
X0246055Y0112576D01*
X0245999Y0112497D01*
X0245940Y0112420D01*
X0245878Y0112346D01*
X0245812Y0112274D01*
X0245744Y0112205D01*
X0245673Y0112139D01*
X0245600Y0112076D01*
X0245523Y0112016D01*
X0245445Y0111959D01*
X0245364Y0111906D01*
X0245281Y0111855D01*
X0245196Y0111809D01*
X0245109Y0111765D01*
X0245021Y0111726D01*
X0244931Y0111690D01*
X0244839Y0111658D01*
X0244746Y0111629D01*
X0244653Y0111605D01*
X0244558Y0111584D01*
X0244462Y0111567D01*
X0244366Y0111554D01*
X0244270Y0111545D01*
X0244173Y0111540D01*
X0244076Y0111539D01*
X0243979Y0111542D01*
X0243882Y0111549D01*
X0243786Y0111560D01*
X0243690Y0111575D01*
X0243595Y0111594D01*
X0243500Y0111616D01*
X0243407Y0111643D01*
X0243315Y0111673D01*
X0243224Y0111707D01*
X0243135Y0111745D01*
X0243047Y0111787D01*
X0242961Y0111832D01*
X0242877Y0111880D01*
X0242795Y0111932D01*
X0242716Y0111987D01*
X0242638Y0112046D01*
X0242563Y0112107D01*
X0242491Y0112172D01*
X0242421Y0112239D01*
X0242354Y0112310D01*
X0242291Y0112383D01*
X0242230Y0112458D01*
X0242172Y0112536D01*
X0242118Y0112617D01*
X0242067Y0112699D01*
X0242019Y0112784D01*
X0241975Y0112870D01*
X0241934Y0112958D01*
X0241898Y0113048D01*
X0241864Y0113139D01*
X0241835Y0113231D01*
X0241809Y0113325D01*
X0241788Y0113419D01*
X0241770Y0113515D01*
X0241756Y0113611D01*
X0241746Y0113707D01*
X0241740Y0113804D01*
X0241738Y0113901D01*
X0105537Y0112936D02*
X0105539Y0113094D01*
X0105545Y0113252D01*
X0105555Y0113410D01*
X0105569Y0113568D01*
X0105587Y0113725D01*
X0105608Y0113882D01*
X0105634Y0114038D01*
X0105664Y0114194D01*
X0105697Y0114349D01*
X0105735Y0114502D01*
X0105776Y0114655D01*
X0105821Y0114807D01*
X0105870Y0114958D01*
X0105923Y0115107D01*
X0105979Y0115255D01*
X0106039Y0115401D01*
X0106103Y0115546D01*
X0106171Y0115689D01*
X0106242Y0115831D01*
X0106316Y0115971D01*
X0106394Y0116108D01*
X0106476Y0116244D01*
X0106560Y0116378D01*
X0106649Y0116509D01*
X0106740Y0116638D01*
X0106835Y0116765D01*
X0106932Y0116890D01*
X0107033Y0117012D01*
X0107137Y0117131D01*
X0107244Y0117248D01*
X0107354Y0117362D01*
X0107467Y0117473D01*
X0107582Y0117582D01*
X0107700Y0117687D01*
X0107821Y0117789D01*
X0107944Y0117889D01*
X0108070Y0117985D01*
X0108198Y0118078D01*
X0108328Y0118168D01*
X0108461Y0118254D01*
X0108596Y0118338D01*
X0108732Y0118417D01*
X0108871Y0118494D01*
X0109012Y0118566D01*
X0109154Y0118636D01*
X0109298Y0118701D01*
X0109444Y0118763D01*
X0109591Y0118821D01*
X0109740Y0118876D01*
X0109890Y0118927D01*
X0110041Y0118974D01*
X0110193Y0119017D01*
X0110346Y0119056D01*
X0110501Y0119092D01*
X0110656Y0119123D01*
X0110812Y0119151D01*
X0110968Y0119175D01*
X0111125Y0119195D01*
X0111283Y0119211D01*
X0111440Y0119223D01*
X0111599Y0119231D01*
X0111757Y0119235D01*
X0111915Y0119235D01*
X0112073Y0119231D01*
X0112232Y0119223D01*
X0112389Y0119211D01*
X0112547Y0119195D01*
X0112704Y0119175D01*
X0112860Y0119151D01*
X0113016Y0119123D01*
X0113171Y0119092D01*
X0113326Y0119056D01*
X0113479Y0119017D01*
X0113631Y0118974D01*
X0113782Y0118927D01*
X0113932Y0118876D01*
X0114081Y0118821D01*
X0114228Y0118763D01*
X0114374Y0118701D01*
X0114518Y0118636D01*
X0114660Y0118566D01*
X0114801Y0118494D01*
X0114940Y0118417D01*
X0115076Y0118338D01*
X0115211Y0118254D01*
X0115344Y0118168D01*
X0115474Y0118078D01*
X0115602Y0117985D01*
X0115728Y0117889D01*
X0115851Y0117789D01*
X0115972Y0117687D01*
X0116090Y0117582D01*
X0116205Y0117473D01*
X0116318Y0117362D01*
X0116428Y0117248D01*
X0116535Y0117131D01*
X0116639Y0117012D01*
X0116740Y0116890D01*
X0116837Y0116765D01*
X0116932Y0116638D01*
X0117023Y0116509D01*
X0117112Y0116378D01*
X0117196Y0116244D01*
X0117278Y0116108D01*
X0117356Y0115971D01*
X0117430Y0115831D01*
X0117501Y0115689D01*
X0117569Y0115546D01*
X0117633Y0115401D01*
X0117693Y0115255D01*
X0117749Y0115107D01*
X0117802Y0114958D01*
X0117851Y0114807D01*
X0117896Y0114655D01*
X0117937Y0114502D01*
X0117975Y0114349D01*
X0118008Y0114194D01*
X0118038Y0114038D01*
X0118064Y0113882D01*
X0118085Y0113725D01*
X0118103Y0113568D01*
X0118117Y0113410D01*
X0118127Y0113252D01*
X0118133Y0113094D01*
X0118135Y0112936D01*
X0118133Y0112778D01*
X0118127Y0112620D01*
X0118117Y0112462D01*
X0118103Y0112304D01*
X0118085Y0112147D01*
X0118064Y0111990D01*
X0118038Y0111834D01*
X0118008Y0111678D01*
X0117975Y0111523D01*
X0117937Y0111370D01*
X0117896Y0111217D01*
X0117851Y0111065D01*
X0117802Y0110914D01*
X0117749Y0110765D01*
X0117693Y0110617D01*
X0117633Y0110471D01*
X0117569Y0110326D01*
X0117501Y0110183D01*
X0117430Y0110041D01*
X0117356Y0109901D01*
X0117278Y0109764D01*
X0117196Y0109628D01*
X0117112Y0109494D01*
X0117023Y0109363D01*
X0116932Y0109234D01*
X0116837Y0109107D01*
X0116740Y0108982D01*
X0116639Y0108860D01*
X0116535Y0108741D01*
X0116428Y0108624D01*
X0116318Y0108510D01*
X0116205Y0108399D01*
X0116090Y0108290D01*
X0115972Y0108185D01*
X0115851Y0108083D01*
X0115728Y0107983D01*
X0115602Y0107887D01*
X0115474Y0107794D01*
X0115344Y0107704D01*
X0115211Y0107618D01*
X0115076Y0107534D01*
X0114940Y0107455D01*
X0114801Y0107378D01*
X0114660Y0107306D01*
X0114518Y0107236D01*
X0114374Y0107171D01*
X0114228Y0107109D01*
X0114081Y0107051D01*
X0113932Y0106996D01*
X0113782Y0106945D01*
X0113631Y0106898D01*
X0113479Y0106855D01*
X0113326Y0106816D01*
X0113171Y0106780D01*
X0113016Y0106749D01*
X0112860Y0106721D01*
X0112704Y0106697D01*
X0112547Y0106677D01*
X0112389Y0106661D01*
X0112232Y0106649D01*
X0112073Y0106641D01*
X0111915Y0106637D01*
X0111757Y0106637D01*
X0111599Y0106641D01*
X0111440Y0106649D01*
X0111283Y0106661D01*
X0111125Y0106677D01*
X0110968Y0106697D01*
X0110812Y0106721D01*
X0110656Y0106749D01*
X0110501Y0106780D01*
X0110346Y0106816D01*
X0110193Y0106855D01*
X0110041Y0106898D01*
X0109890Y0106945D01*
X0109740Y0106996D01*
X0109591Y0107051D01*
X0109444Y0107109D01*
X0109298Y0107171D01*
X0109154Y0107236D01*
X0109012Y0107306D01*
X0108871Y0107378D01*
X0108732Y0107455D01*
X0108596Y0107534D01*
X0108461Y0107618D01*
X0108328Y0107704D01*
X0108198Y0107794D01*
X0108070Y0107887D01*
X0107944Y0107983D01*
X0107821Y0108083D01*
X0107700Y0108185D01*
X0107582Y0108290D01*
X0107467Y0108399D01*
X0107354Y0108510D01*
X0107244Y0108624D01*
X0107137Y0108741D01*
X0107033Y0108860D01*
X0106932Y0108982D01*
X0106835Y0109107D01*
X0106740Y0109234D01*
X0106649Y0109363D01*
X0106560Y0109494D01*
X0106476Y0109628D01*
X0106394Y0109764D01*
X0106316Y0109901D01*
X0106242Y0110041D01*
X0106171Y0110183D01*
X0106103Y0110326D01*
X0106039Y0110471D01*
X0105979Y0110617D01*
X0105923Y0110765D01*
X0105870Y0110914D01*
X0105821Y0111065D01*
X0105776Y0111217D01*
X0105735Y0111370D01*
X0105697Y0111523D01*
X0105664Y0111678D01*
X0105634Y0111834D01*
X0105608Y0111990D01*
X0105587Y0112147D01*
X0105569Y0112304D01*
X0105555Y0112462D01*
X0105545Y0112620D01*
X0105539Y0112778D01*
X0105537Y0112936D01*
D11*
X0079935Y0110350D02*
X0078000Y0110350D01*
X0078967Y0110350D02*
X0078967Y0113252D01*
X0078000Y0112285D01*
X0100984Y0075752D02*
X0100500Y0075269D01*
X0100500Y0074785D01*
X0100984Y0074301D01*
X0101951Y0074301D01*
X0102435Y0073817D01*
X0102435Y0073334D01*
X0101951Y0072850D01*
X0100984Y0072850D01*
X0100500Y0073334D01*
X0103447Y0073334D02*
X0103930Y0072850D01*
X0104898Y0072850D01*
X0105381Y0073334D01*
X0106393Y0072850D02*
X0108328Y0072850D01*
X0106393Y0072850D02*
X0106393Y0075752D01*
X0105381Y0075269D02*
X0104898Y0075752D01*
X0103930Y0075752D01*
X0103447Y0075269D01*
X0103447Y0073334D01*
X0102435Y0075269D02*
X0101951Y0075752D01*
X0100984Y0075752D01*
X0098559Y0070752D02*
X0097107Y0069301D01*
X0099042Y0069301D01*
X0098559Y0067850D02*
X0098559Y0070752D01*
X0096096Y0070752D02*
X0094161Y0070752D01*
X0095128Y0070752D02*
X0095128Y0067850D01*
X0093149Y0067850D02*
X0093149Y0070752D01*
X0091214Y0070752D02*
X0093149Y0067850D01*
X0091214Y0067850D02*
X0091214Y0070752D01*
X0090217Y0070752D02*
X0089250Y0070752D01*
X0089734Y0070752D02*
X0089734Y0067850D01*
X0090217Y0067850D02*
X0089250Y0067850D01*
X0108000Y0064019D02*
X0108000Y0063535D01*
X0108484Y0063051D01*
X0109451Y0063051D01*
X0109935Y0062567D01*
X0109935Y0062084D01*
X0109451Y0061600D01*
X0108484Y0061600D01*
X0108000Y0062084D01*
X0110947Y0061600D02*
X0112398Y0061600D01*
X0112881Y0062084D01*
X0112881Y0064019D01*
X0112398Y0064502D01*
X0110947Y0064502D01*
X0110947Y0061600D01*
X0113893Y0061600D02*
X0113893Y0063535D01*
X0114861Y0064502D01*
X0115828Y0063535D01*
X0115828Y0061600D01*
X0115828Y0063051D02*
X0113893Y0063051D01*
X0109935Y0064019D02*
X0109451Y0064502D01*
X0108484Y0064502D01*
X0108000Y0064019D01*
X0108000Y0033252D02*
X0108000Y0030350D01*
X0108000Y0031801D02*
X0109935Y0031801D01*
X0109935Y0033252D02*
X0109935Y0030350D01*
X0110947Y0030350D02*
X0111914Y0031317D01*
X0112881Y0030350D01*
X0112881Y0033252D01*
X0113893Y0033252D02*
X0115344Y0033252D01*
X0115828Y0032769D01*
X0115828Y0032285D01*
X0115344Y0031801D01*
X0113893Y0031801D01*
X0113893Y0030350D02*
X0115344Y0030350D01*
X0115828Y0030834D01*
X0115828Y0031317D01*
X0115344Y0031801D01*
X0113893Y0030350D02*
X0113893Y0033252D01*
X0110947Y0033252D02*
X0110947Y0030350D01*
X0123967Y0017002D02*
X0123967Y0014100D01*
X0123000Y0014100D02*
X0124935Y0014100D01*
X0126750Y0014584D02*
X0127234Y0014100D01*
X0128201Y0014100D01*
X0128685Y0014584D01*
X0129697Y0014584D02*
X0130180Y0014100D01*
X0131148Y0014100D01*
X0131631Y0014584D01*
X0131631Y0016519D01*
X0131148Y0017002D01*
X0130180Y0017002D01*
X0129697Y0016519D01*
X0129697Y0014584D01*
X0128685Y0016519D02*
X0128201Y0017002D01*
X0127234Y0017002D01*
X0126750Y0016519D01*
X0126750Y0014584D01*
X0132643Y0014100D02*
X0134578Y0014100D01*
X0135590Y0014584D02*
X0136073Y0014100D01*
X0137041Y0014100D01*
X0137525Y0014584D01*
X0137525Y0017002D01*
X0138536Y0017002D02*
X0139504Y0016035D01*
X0140471Y0017002D01*
X0140471Y0014100D01*
X0141483Y0014584D02*
X0141966Y0014100D01*
X0142934Y0014100D01*
X0143418Y0014584D01*
X0143418Y0015067D01*
X0142934Y0015551D01*
X0141966Y0015551D01*
X0141483Y0016035D01*
X0141483Y0016519D01*
X0141966Y0017002D01*
X0142934Y0017002D01*
X0143418Y0016519D01*
X0138536Y0017002D02*
X0138536Y0014100D01*
X0135590Y0014584D02*
X0135590Y0017002D01*
X0132643Y0017002D02*
X0132643Y0014100D01*
X0123967Y0017002D02*
X0123000Y0016035D01*
X0200500Y0011035D02*
X0200500Y0009100D01*
X0200500Y0010551D02*
X0202435Y0010551D01*
X0202435Y0011035D02*
X0202435Y0009100D01*
X0202435Y0011035D02*
X0201467Y0012002D01*
X0200500Y0011035D01*
X0205500Y0015350D02*
X0205500Y0018252D01*
X0206951Y0018252D01*
X0207435Y0017769D01*
X0207435Y0016801D01*
X0206951Y0016317D01*
X0205500Y0016317D01*
X0206467Y0016317D02*
X0207435Y0015350D01*
X0208447Y0015834D02*
X0208930Y0015350D01*
X0209898Y0015350D01*
X0210381Y0015834D01*
X0210381Y0017769D01*
X0209898Y0018252D01*
X0208930Y0018252D01*
X0208447Y0017769D01*
X0208447Y0015834D01*
X0211393Y0015350D02*
X0212361Y0016317D01*
X0213328Y0015350D01*
X0213328Y0018252D01*
X0214340Y0017769D02*
X0214340Y0017285D01*
X0214823Y0016801D01*
X0215791Y0016801D01*
X0216275Y0016317D01*
X0216275Y0015834D01*
X0215791Y0015350D01*
X0214823Y0015350D01*
X0214340Y0015834D01*
X0214340Y0017769D02*
X0214823Y0018252D01*
X0215791Y0018252D01*
X0216275Y0017769D01*
X0211393Y0018252D02*
X0211393Y0015350D01*
X0240500Y0028334D02*
X0240984Y0027850D01*
X0241951Y0027850D01*
X0242435Y0028334D01*
X0243447Y0028334D02*
X0243930Y0027850D01*
X0244898Y0027850D01*
X0245381Y0028334D01*
X0245381Y0030269D01*
X0244898Y0030752D01*
X0243930Y0030752D01*
X0243447Y0030269D01*
X0243447Y0028334D01*
X0240500Y0028334D02*
X0240500Y0030269D01*
X0240984Y0030752D01*
X0241951Y0030752D01*
X0242435Y0030269D01*
X0246393Y0030752D02*
X0246393Y0027850D01*
X0248328Y0027850D01*
X0249340Y0028334D02*
X0249823Y0027850D01*
X0250791Y0027850D01*
X0251275Y0028334D01*
X0251275Y0030752D01*
X0252286Y0030752D02*
X0253254Y0029785D01*
X0254221Y0030752D01*
X0254221Y0027850D01*
X0255233Y0028334D02*
X0255716Y0027850D01*
X0256684Y0027850D01*
X0257168Y0028334D01*
X0257168Y0028817D01*
X0256684Y0029301D01*
X0255716Y0029301D01*
X0255233Y0029785D01*
X0255233Y0030269D01*
X0255716Y0030752D01*
X0256684Y0030752D01*
X0257168Y0030269D01*
X0252286Y0030752D02*
X0252286Y0027850D01*
X0249340Y0028334D02*
X0249340Y0030752D01*
X0259250Y0025269D02*
X0259250Y0024785D01*
X0259734Y0024301D01*
X0261185Y0024301D01*
X0260966Y0024301D02*
X0259515Y0024301D01*
X0259515Y0023334D02*
X0259515Y0025269D01*
X0259999Y0025752D01*
X0260966Y0025752D01*
X0261450Y0025269D01*
X0261450Y0024785D01*
X0260966Y0024301D01*
X0261185Y0023334D02*
X0261185Y0025269D01*
X0260701Y0025752D01*
X0259734Y0025752D01*
X0259250Y0025269D01*
X0259250Y0023334D02*
X0259734Y0022850D01*
X0260701Y0022850D01*
X0261185Y0023334D01*
X0261450Y0023334D02*
X0260966Y0022850D01*
X0259999Y0022850D01*
X0259515Y0023334D01*
X0326750Y0016519D02*
X0326750Y0014584D01*
X0327234Y0014100D01*
X0328201Y0014100D01*
X0328685Y0014584D01*
X0329697Y0014584D02*
X0330180Y0014100D01*
X0331148Y0014100D01*
X0331631Y0014584D01*
X0331631Y0016519D01*
X0331148Y0017002D01*
X0330180Y0017002D01*
X0329697Y0016519D01*
X0329697Y0014584D01*
X0328685Y0016519D02*
X0328201Y0017002D01*
X0327234Y0017002D01*
X0326750Y0016519D01*
X0332643Y0017002D02*
X0332643Y0014100D01*
X0334578Y0014100D01*
X0335590Y0014584D02*
X0336073Y0014100D01*
X0337041Y0014100D01*
X0337525Y0014584D01*
X0337525Y0017002D01*
X0338536Y0017002D02*
X0339504Y0016035D01*
X0340471Y0017002D01*
X0340471Y0014100D01*
X0341483Y0014584D02*
X0341966Y0014100D01*
X0342934Y0014100D01*
X0343418Y0014584D01*
X0343418Y0015067D01*
X0342934Y0015551D01*
X0341966Y0015551D01*
X0341483Y0016035D01*
X0341483Y0016519D01*
X0341966Y0017002D01*
X0342934Y0017002D01*
X0343418Y0016519D01*
X0338536Y0017002D02*
X0338536Y0014100D01*
X0335590Y0014584D02*
X0335590Y0017002D01*
X0341048Y0022850D02*
X0343950Y0022850D01*
X0343950Y0024785D01*
X0343950Y0025797D02*
X0343950Y0027731D01*
X0343950Y0028743D02*
X0343950Y0030194D01*
X0343466Y0030678D01*
X0341531Y0030678D01*
X0341048Y0030194D01*
X0341048Y0028743D01*
X0343950Y0028743D01*
X0341048Y0027731D02*
X0341048Y0025797D01*
X0343950Y0025797D01*
X0342499Y0025797D02*
X0342499Y0026764D01*
X0342499Y0031690D02*
X0342015Y0032173D01*
X0342015Y0033625D01*
X0342983Y0033141D02*
X0342983Y0032173D01*
X0342499Y0031690D01*
X0343950Y0031690D02*
X0343950Y0033141D01*
X0343466Y0033625D01*
X0342983Y0033141D01*
X0347819Y0009502D02*
X0347819Y0009019D01*
X0349753Y0007084D01*
X0349753Y0006600D01*
X0349935Y0006600D02*
X0348000Y0006600D01*
X0348967Y0006600D02*
X0348967Y0009502D01*
X0348000Y0008535D01*
X0347819Y0009502D02*
X0349753Y0009502D01*
X0350947Y0009502D02*
X0352881Y0009502D01*
X0352881Y0009019D01*
X0350947Y0007084D01*
X0350947Y0006600D01*
X0350765Y0006600D02*
X0352700Y0006600D01*
X0351733Y0006600D02*
X0351733Y0009502D01*
X0352700Y0008535D01*
X0038328Y0005350D02*
X0036393Y0005350D01*
X0037361Y0005350D02*
X0037361Y0008252D01*
X0036393Y0007285D01*
X0035381Y0007285D02*
X0034898Y0006801D01*
X0033447Y0006801D01*
X0032435Y0005834D02*
X0031951Y0005350D01*
X0030984Y0005350D01*
X0030500Y0005834D01*
X0030500Y0007769D01*
X0030984Y0008252D01*
X0031951Y0008252D01*
X0032435Y0007769D01*
X0033447Y0008252D02*
X0033447Y0005350D01*
X0034898Y0005350D01*
X0035381Y0005834D01*
X0035381Y0006317D01*
X0034898Y0006801D01*
X0035381Y0007285D02*
X0035381Y0007769D01*
X0034898Y0008252D01*
X0033447Y0008252D01*
X0026185Y0010350D02*
X0024250Y0010350D01*
X0025217Y0010350D02*
X0025217Y0013252D01*
X0024250Y0012285D01*
D12*
X0096850Y0022700D02*
X0096852Y0022763D01*
X0096858Y0022825D01*
X0096868Y0022887D01*
X0096881Y0022949D01*
X0096899Y0023009D01*
X0096920Y0023068D01*
X0096945Y0023126D01*
X0096974Y0023182D01*
X0097006Y0023236D01*
X0097041Y0023288D01*
X0097079Y0023337D01*
X0097121Y0023385D01*
X0097165Y0023429D01*
X0097213Y0023471D01*
X0097262Y0023509D01*
X0097314Y0023544D01*
X0097368Y0023576D01*
X0097424Y0023605D01*
X0097482Y0023630D01*
X0097541Y0023651D01*
X0097601Y0023669D01*
X0097663Y0023682D01*
X0097725Y0023692D01*
X0097787Y0023698D01*
X0097850Y0023700D01*
X0097913Y0023698D01*
X0097975Y0023692D01*
X0098037Y0023682D01*
X0098099Y0023669D01*
X0098159Y0023651D01*
X0098218Y0023630D01*
X0098276Y0023605D01*
X0098332Y0023576D01*
X0098386Y0023544D01*
X0098438Y0023509D01*
X0098487Y0023471D01*
X0098535Y0023429D01*
X0098579Y0023385D01*
X0098621Y0023337D01*
X0098659Y0023288D01*
X0098694Y0023236D01*
X0098726Y0023182D01*
X0098755Y0023126D01*
X0098780Y0023068D01*
X0098801Y0023009D01*
X0098819Y0022949D01*
X0098832Y0022887D01*
X0098842Y0022825D01*
X0098848Y0022763D01*
X0098850Y0022700D01*
X0098848Y0022637D01*
X0098842Y0022575D01*
X0098832Y0022513D01*
X0098819Y0022451D01*
X0098801Y0022391D01*
X0098780Y0022332D01*
X0098755Y0022274D01*
X0098726Y0022218D01*
X0098694Y0022164D01*
X0098659Y0022112D01*
X0098621Y0022063D01*
X0098579Y0022015D01*
X0098535Y0021971D01*
X0098487Y0021929D01*
X0098438Y0021891D01*
X0098386Y0021856D01*
X0098332Y0021824D01*
X0098276Y0021795D01*
X0098218Y0021770D01*
X0098159Y0021749D01*
X0098099Y0021731D01*
X0098037Y0021718D01*
X0097975Y0021708D01*
X0097913Y0021702D01*
X0097850Y0021700D01*
X0097787Y0021702D01*
X0097725Y0021708D01*
X0097663Y0021718D01*
X0097601Y0021731D01*
X0097541Y0021749D01*
X0097482Y0021770D01*
X0097424Y0021795D01*
X0097368Y0021824D01*
X0097314Y0021856D01*
X0097262Y0021891D01*
X0097213Y0021929D01*
X0097165Y0021971D01*
X0097121Y0022015D01*
X0097079Y0022063D01*
X0097041Y0022112D01*
X0097006Y0022164D01*
X0096974Y0022218D01*
X0096945Y0022274D01*
X0096920Y0022332D01*
X0096899Y0022391D01*
X0096881Y0022451D01*
X0096868Y0022513D01*
X0096858Y0022575D01*
X0096852Y0022637D01*
X0096850Y0022700D01*
X0339350Y0071450D02*
X0339352Y0071513D01*
X0339358Y0071575D01*
X0339368Y0071637D01*
X0339381Y0071699D01*
X0339399Y0071759D01*
X0339420Y0071818D01*
X0339445Y0071876D01*
X0339474Y0071932D01*
X0339506Y0071986D01*
X0339541Y0072038D01*
X0339579Y0072087D01*
X0339621Y0072135D01*
X0339665Y0072179D01*
X0339713Y0072221D01*
X0339762Y0072259D01*
X0339814Y0072294D01*
X0339868Y0072326D01*
X0339924Y0072355D01*
X0339982Y0072380D01*
X0340041Y0072401D01*
X0340101Y0072419D01*
X0340163Y0072432D01*
X0340225Y0072442D01*
X0340287Y0072448D01*
X0340350Y0072450D01*
X0340413Y0072448D01*
X0340475Y0072442D01*
X0340537Y0072432D01*
X0340599Y0072419D01*
X0340659Y0072401D01*
X0340718Y0072380D01*
X0340776Y0072355D01*
X0340832Y0072326D01*
X0340886Y0072294D01*
X0340938Y0072259D01*
X0340987Y0072221D01*
X0341035Y0072179D01*
X0341079Y0072135D01*
X0341121Y0072087D01*
X0341159Y0072038D01*
X0341194Y0071986D01*
X0341226Y0071932D01*
X0341255Y0071876D01*
X0341280Y0071818D01*
X0341301Y0071759D01*
X0341319Y0071699D01*
X0341332Y0071637D01*
X0341342Y0071575D01*
X0341348Y0071513D01*
X0341350Y0071450D01*
X0341348Y0071387D01*
X0341342Y0071325D01*
X0341332Y0071263D01*
X0341319Y0071201D01*
X0341301Y0071141D01*
X0341280Y0071082D01*
X0341255Y0071024D01*
X0341226Y0070968D01*
X0341194Y0070914D01*
X0341159Y0070862D01*
X0341121Y0070813D01*
X0341079Y0070765D01*
X0341035Y0070721D01*
X0340987Y0070679D01*
X0340938Y0070641D01*
X0340886Y0070606D01*
X0340832Y0070574D01*
X0340776Y0070545D01*
X0340718Y0070520D01*
X0340659Y0070499D01*
X0340599Y0070481D01*
X0340537Y0070468D01*
X0340475Y0070458D01*
X0340413Y0070452D01*
X0340350Y0070450D01*
X0340287Y0070452D01*
X0340225Y0070458D01*
X0340163Y0070468D01*
X0340101Y0070481D01*
X0340041Y0070499D01*
X0339982Y0070520D01*
X0339924Y0070545D01*
X0339868Y0070574D01*
X0339814Y0070606D01*
X0339762Y0070641D01*
X0339713Y0070679D01*
X0339665Y0070721D01*
X0339621Y0070765D01*
X0339579Y0070813D01*
X0339541Y0070862D01*
X0339506Y0070914D01*
X0339474Y0070968D01*
X0339445Y0071024D01*
X0339420Y0071082D01*
X0339399Y0071141D01*
X0339381Y0071201D01*
X0339368Y0071263D01*
X0339358Y0071325D01*
X0339352Y0071387D01*
X0339350Y0071450D01*
X0221850Y0116450D02*
X0221852Y0116513D01*
X0221858Y0116575D01*
X0221868Y0116637D01*
X0221881Y0116699D01*
X0221899Y0116759D01*
X0221920Y0116818D01*
X0221945Y0116876D01*
X0221974Y0116932D01*
X0222006Y0116986D01*
X0222041Y0117038D01*
X0222079Y0117087D01*
X0222121Y0117135D01*
X0222165Y0117179D01*
X0222213Y0117221D01*
X0222262Y0117259D01*
X0222314Y0117294D01*
X0222368Y0117326D01*
X0222424Y0117355D01*
X0222482Y0117380D01*
X0222541Y0117401D01*
X0222601Y0117419D01*
X0222663Y0117432D01*
X0222725Y0117442D01*
X0222787Y0117448D01*
X0222850Y0117450D01*
X0222913Y0117448D01*
X0222975Y0117442D01*
X0223037Y0117432D01*
X0223099Y0117419D01*
X0223159Y0117401D01*
X0223218Y0117380D01*
X0223276Y0117355D01*
X0223332Y0117326D01*
X0223386Y0117294D01*
X0223438Y0117259D01*
X0223487Y0117221D01*
X0223535Y0117179D01*
X0223579Y0117135D01*
X0223621Y0117087D01*
X0223659Y0117038D01*
X0223694Y0116986D01*
X0223726Y0116932D01*
X0223755Y0116876D01*
X0223780Y0116818D01*
X0223801Y0116759D01*
X0223819Y0116699D01*
X0223832Y0116637D01*
X0223842Y0116575D01*
X0223848Y0116513D01*
X0223850Y0116450D01*
X0223848Y0116387D01*
X0223842Y0116325D01*
X0223832Y0116263D01*
X0223819Y0116201D01*
X0223801Y0116141D01*
X0223780Y0116082D01*
X0223755Y0116024D01*
X0223726Y0115968D01*
X0223694Y0115914D01*
X0223659Y0115862D01*
X0223621Y0115813D01*
X0223579Y0115765D01*
X0223535Y0115721D01*
X0223487Y0115679D01*
X0223438Y0115641D01*
X0223386Y0115606D01*
X0223332Y0115574D01*
X0223276Y0115545D01*
X0223218Y0115520D01*
X0223159Y0115499D01*
X0223099Y0115481D01*
X0223037Y0115468D01*
X0222975Y0115458D01*
X0222913Y0115452D01*
X0222850Y0115450D01*
X0222787Y0115452D01*
X0222725Y0115458D01*
X0222663Y0115468D01*
X0222601Y0115481D01*
X0222541Y0115499D01*
X0222482Y0115520D01*
X0222424Y0115545D01*
X0222368Y0115574D01*
X0222314Y0115606D01*
X0222262Y0115641D01*
X0222213Y0115679D01*
X0222165Y0115721D01*
X0222121Y0115765D01*
X0222079Y0115813D01*
X0222041Y0115862D01*
X0222006Y0115914D01*
X0221974Y0115968D01*
X0221945Y0116024D01*
X0221920Y0116082D01*
X0221899Y0116141D01*
X0221881Y0116201D01*
X0221868Y0116263D01*
X0221858Y0116325D01*
X0221852Y0116387D01*
X0221850Y0116450D01*
D13*
X0164473Y0106452D02*
X0161404Y0106452D01*
X0163706Y0108754D01*
X0163706Y0104150D01*
X0159869Y0104917D02*
X0159102Y0104150D01*
X0157567Y0104150D01*
X0156800Y0104917D01*
X0156800Y0107987D01*
X0157567Y0108754D01*
X0159102Y0108754D01*
X0159869Y0107987D01*
X0140723Y0104150D02*
X0137654Y0104150D01*
X0139189Y0104150D02*
X0139189Y0108754D01*
X0137654Y0107219D01*
X0136119Y0107987D02*
X0135352Y0108754D01*
X0133817Y0108754D01*
X0133050Y0107987D01*
X0133050Y0104917D01*
X0133817Y0104150D01*
X0135352Y0104150D01*
X0136119Y0104917D01*
X0121400Y0093098D02*
X0120633Y0093865D01*
X0117563Y0093865D01*
X0120633Y0090796D01*
X0121400Y0091563D01*
X0121400Y0093098D01*
X0120633Y0090796D02*
X0117563Y0090796D01*
X0116796Y0091563D01*
X0116796Y0093098D01*
X0117563Y0093865D01*
X0117563Y0089261D02*
X0116796Y0088494D01*
X0116796Y0086959D01*
X0117563Y0086192D01*
X0117563Y0084657D02*
X0116796Y0083890D01*
X0116796Y0082356D01*
X0117563Y0081588D01*
X0120633Y0081588D01*
X0121400Y0082356D01*
X0121400Y0083890D01*
X0120633Y0084657D01*
X0121400Y0086192D02*
X0118331Y0089261D01*
X0117563Y0089261D01*
X0121400Y0089261D02*
X0121400Y0086192D01*
X0096577Y0091167D02*
X0095810Y0090400D01*
X0094275Y0090400D01*
X0093508Y0091167D01*
X0091973Y0090400D02*
X0088904Y0090400D01*
X0090439Y0090400D02*
X0090439Y0095004D01*
X0088904Y0093469D01*
X0087369Y0094237D02*
X0086602Y0095004D01*
X0085067Y0095004D01*
X0084300Y0094237D01*
X0084300Y0091167D01*
X0085067Y0090400D01*
X0086602Y0090400D01*
X0087369Y0091167D01*
X0093508Y0094237D02*
X0094275Y0095004D01*
X0095810Y0095004D01*
X0096577Y0094237D01*
X0096577Y0093469D01*
X0095810Y0092702D01*
X0096577Y0091935D01*
X0096577Y0091167D01*
X0095810Y0092702D02*
X0095042Y0092702D01*
X0094498Y0095400D02*
X0092963Y0095400D01*
X0092196Y0096167D01*
X0095265Y0099237D01*
X0095265Y0096167D01*
X0094498Y0095400D01*
X0092196Y0096167D02*
X0092196Y0099237D01*
X0092963Y0100004D01*
X0094498Y0100004D01*
X0095265Y0099237D01*
X0089127Y0100004D02*
X0087592Y0098469D01*
X0086057Y0097702D02*
X0085290Y0096935D01*
X0082988Y0096935D01*
X0084523Y0096935D02*
X0086057Y0095400D01*
X0087592Y0095400D02*
X0090661Y0095400D01*
X0089127Y0095400D02*
X0089127Y0100004D01*
X0086057Y0099237D02*
X0086057Y0097702D01*
X0086057Y0099237D02*
X0085290Y0100004D01*
X0082988Y0100004D01*
X0082988Y0095400D01*
X0019015Y0089237D02*
X0019015Y0086167D01*
X0018248Y0085400D01*
X0016713Y0085400D01*
X0015946Y0086167D01*
X0014411Y0085400D02*
X0012877Y0086935D01*
X0013644Y0086935D02*
X0011342Y0086935D01*
X0013644Y0086935D02*
X0014411Y0087702D01*
X0014411Y0089237D01*
X0013644Y0090004D01*
X0011342Y0090004D01*
X0011342Y0085400D01*
X0015946Y0088469D02*
X0016713Y0087702D01*
X0019015Y0087702D01*
X0019015Y0089237D02*
X0018248Y0090004D01*
X0016713Y0090004D01*
X0015946Y0089237D01*
X0015946Y0088469D01*
X0015439Y0075004D02*
X0015439Y0070400D01*
X0016973Y0070400D02*
X0013904Y0070400D01*
X0012369Y0071167D02*
X0011602Y0070400D01*
X0010067Y0070400D01*
X0009300Y0071167D01*
X0009300Y0074237D01*
X0010067Y0075004D01*
X0011602Y0075004D01*
X0012369Y0074237D01*
X0013904Y0073469D02*
X0015439Y0075004D01*
X0018508Y0072702D02*
X0020810Y0072702D01*
X0021577Y0071935D01*
X0021577Y0071167D01*
X0020810Y0070400D01*
X0019275Y0070400D01*
X0018508Y0071167D01*
X0018508Y0072702D01*
X0020042Y0074237D01*
X0021577Y0075004D01*
X0032047Y0055907D02*
X0035150Y0055907D01*
X0035150Y0054873D02*
X0035150Y0056941D01*
X0033082Y0054873D02*
X0032047Y0055907D01*
X0032047Y0053718D02*
X0034633Y0053718D01*
X0035150Y0053201D01*
X0035150Y0052167D01*
X0034633Y0051650D01*
X0032047Y0051650D01*
X0020327Y0028754D02*
X0017258Y0028754D01*
X0017258Y0026452D01*
X0018792Y0027219D01*
X0019560Y0027219D01*
X0020327Y0026452D01*
X0020327Y0024917D01*
X0019560Y0024150D01*
X0018025Y0024150D01*
X0017258Y0024917D01*
X0015723Y0024150D02*
X0012654Y0024150D01*
X0014189Y0024150D02*
X0014189Y0028754D01*
X0012654Y0027219D01*
X0011119Y0027987D02*
X0010352Y0028754D01*
X0008817Y0028754D01*
X0008050Y0027987D01*
X0008050Y0024917D01*
X0008817Y0024150D01*
X0010352Y0024150D01*
X0011119Y0024917D01*
X0010154Y0013754D02*
X0010154Y0009150D01*
X0013223Y0009150D01*
X0014758Y0009150D02*
X0017827Y0013754D01*
X0014758Y0013754D02*
X0017827Y0009150D01*
X0011689Y0011452D02*
X0010154Y0011452D01*
X0008619Y0011452D02*
X0007852Y0010685D01*
X0005550Y0010685D01*
X0007085Y0010685D02*
X0008619Y0009150D01*
X0008619Y0011452D02*
X0008619Y0012987D01*
X0007852Y0013754D01*
X0005550Y0013754D01*
X0005550Y0009150D01*
X0010154Y0013754D02*
X0013223Y0013754D01*
X0091796Y0042900D02*
X0091796Y0045202D01*
X0092563Y0045969D01*
X0094098Y0045969D01*
X0094865Y0045202D01*
X0094865Y0042900D01*
X0094865Y0044435D02*
X0096400Y0045969D01*
X0096400Y0047504D02*
X0096400Y0050573D01*
X0096400Y0049039D02*
X0091796Y0049039D01*
X0093331Y0047504D01*
X0091796Y0042900D02*
X0096400Y0042900D01*
X0103046Y0042900D02*
X0103046Y0045202D01*
X0103813Y0045969D01*
X0105348Y0045969D01*
X0106115Y0045202D01*
X0106115Y0042900D01*
X0106115Y0044435D02*
X0107650Y0045969D01*
X0107650Y0047504D02*
X0104581Y0050573D01*
X0103813Y0050573D01*
X0103046Y0049806D01*
X0103046Y0048271D01*
X0103813Y0047504D01*
X0107650Y0047504D02*
X0107650Y0050573D01*
X0107650Y0042900D02*
X0103046Y0042900D01*
X0204196Y0047951D02*
X0205281Y0049036D01*
X0204739Y0048493D02*
X0207994Y0045238D01*
X0207452Y0044695D02*
X0208537Y0045780D01*
X0209079Y0047408D02*
X0210164Y0047408D01*
X0211250Y0048493D01*
X0211250Y0049578D01*
X0212877Y0050121D02*
X0215048Y0052291D01*
X0213962Y0051206D02*
X0210707Y0054462D01*
X0210707Y0052291D01*
X0209079Y0051749D02*
X0207994Y0051749D01*
X0206909Y0050663D01*
X0206909Y0049578D01*
X0209079Y0047408D01*
X0226800Y0051167D02*
X0226800Y0054237D01*
X0227567Y0055004D01*
X0229102Y0055004D01*
X0229869Y0054237D01*
X0231404Y0054237D02*
X0232171Y0055004D01*
X0233706Y0055004D01*
X0234473Y0054237D01*
X0234473Y0053469D01*
X0233706Y0052702D01*
X0234473Y0051935D01*
X0234473Y0051167D01*
X0233706Y0050400D01*
X0232171Y0050400D01*
X0231404Y0051167D01*
X0229869Y0051167D02*
X0229102Y0050400D01*
X0227567Y0050400D01*
X0226800Y0051167D01*
X0232939Y0052702D02*
X0233706Y0052702D01*
X0234473Y0062900D02*
X0231404Y0062900D01*
X0234473Y0065969D01*
X0234473Y0066737D01*
X0233706Y0067504D01*
X0232171Y0067504D01*
X0231404Y0066737D01*
X0229869Y0066737D02*
X0229102Y0067504D01*
X0227567Y0067504D01*
X0226800Y0066737D01*
X0226800Y0063667D01*
X0227567Y0062900D01*
X0229102Y0062900D01*
X0229869Y0063667D01*
X0285092Y0071650D02*
X0285092Y0076254D01*
X0287394Y0076254D01*
X0288161Y0075487D01*
X0288161Y0073952D01*
X0287394Y0073185D01*
X0285092Y0073185D01*
X0286627Y0073185D02*
X0288161Y0071650D01*
X0291998Y0071650D02*
X0291998Y0076254D01*
X0289696Y0073952D01*
X0292765Y0073952D01*
X0292592Y0062504D02*
X0294894Y0062504D01*
X0295661Y0061737D01*
X0295661Y0060202D01*
X0294894Y0059435D01*
X0292592Y0059435D01*
X0294127Y0059435D02*
X0295661Y0057900D01*
X0297196Y0058667D02*
X0297963Y0057900D01*
X0299498Y0057900D01*
X0300265Y0058667D01*
X0300265Y0059435D01*
X0299498Y0060202D01*
X0298731Y0060202D01*
X0299498Y0060202D02*
X0300265Y0060969D01*
X0300265Y0061737D01*
X0299498Y0062504D01*
X0297963Y0062504D01*
X0297196Y0061737D01*
X0292592Y0062504D02*
X0292592Y0057900D01*
X0296738Y0045004D02*
X0299040Y0045004D01*
X0299807Y0044237D01*
X0299807Y0042702D01*
X0299040Y0041935D01*
X0296738Y0041935D01*
X0298273Y0041935D02*
X0299807Y0040400D01*
X0301342Y0040400D02*
X0304411Y0040400D01*
X0302877Y0040400D02*
X0302877Y0045004D01*
X0301342Y0043469D01*
X0305946Y0045004D02*
X0309015Y0045004D01*
X0309015Y0044237D01*
X0305946Y0041167D01*
X0305946Y0040400D01*
X0296738Y0040400D02*
X0296738Y0045004D01*
X0311738Y0033754D02*
X0314040Y0033754D01*
X0314807Y0032987D01*
X0314807Y0031452D01*
X0314040Y0030685D01*
X0311738Y0030685D01*
X0313273Y0030685D02*
X0314807Y0029150D01*
X0316342Y0029150D02*
X0319411Y0029150D01*
X0317877Y0029150D02*
X0317877Y0033754D01*
X0316342Y0032219D01*
X0320946Y0031452D02*
X0320946Y0029917D01*
X0321713Y0029150D01*
X0323248Y0029150D01*
X0324015Y0029917D01*
X0324015Y0030685D01*
X0323248Y0031452D01*
X0320946Y0031452D01*
X0322481Y0032987D01*
X0324015Y0033754D01*
X0311738Y0033754D02*
X0311738Y0029150D01*
X0312988Y0023754D02*
X0315290Y0023754D01*
X0316057Y0022987D01*
X0316057Y0021452D01*
X0315290Y0020685D01*
X0312988Y0020685D01*
X0314523Y0020685D02*
X0316057Y0019150D01*
X0317592Y0019150D02*
X0320661Y0019150D01*
X0319127Y0019150D02*
X0319127Y0023754D01*
X0317592Y0022219D01*
X0322196Y0021452D02*
X0323731Y0022219D01*
X0324498Y0022219D01*
X0325265Y0021452D01*
X0325265Y0019917D01*
X0324498Y0019150D01*
X0322963Y0019150D01*
X0322196Y0019917D01*
X0322196Y0021452D02*
X0322196Y0023754D01*
X0325265Y0023754D01*
X0312988Y0023754D02*
X0312988Y0019150D01*
X0338046Y0082442D02*
X0338046Y0084744D01*
X0338813Y0085511D01*
X0340348Y0085511D01*
X0341115Y0084744D01*
X0341115Y0082442D01*
X0341115Y0083977D02*
X0342650Y0085511D01*
X0341883Y0087046D02*
X0342650Y0087813D01*
X0342650Y0089348D01*
X0341883Y0090115D01*
X0340348Y0090115D01*
X0339581Y0089348D01*
X0339581Y0088581D01*
X0340348Y0087046D01*
X0338046Y0087046D01*
X0338046Y0090115D01*
X0323223Y0089435D02*
X0323223Y0088667D01*
X0322456Y0087900D01*
X0320921Y0087900D01*
X0320154Y0088667D01*
X0320154Y0090202D01*
X0322456Y0090202D01*
X0323223Y0089435D01*
X0321689Y0091737D02*
X0320154Y0090202D01*
X0318619Y0090202D02*
X0318619Y0091737D01*
X0317852Y0092504D01*
X0315550Y0092504D01*
X0315550Y0087900D01*
X0317085Y0089435D02*
X0318619Y0087900D01*
X0317852Y0089435D02*
X0315550Y0089435D01*
X0317852Y0089435D02*
X0318619Y0090202D01*
X0321689Y0091737D02*
X0323223Y0092504D01*
X0323644Y0099150D02*
X0323644Y0103754D01*
X0325946Y0103754D01*
X0326713Y0102987D01*
X0326713Y0101452D01*
X0325946Y0100685D01*
X0323644Y0100685D01*
X0325179Y0100685D02*
X0326713Y0099150D01*
X0328248Y0099917D02*
X0329015Y0099150D01*
X0330550Y0099150D01*
X0331317Y0099917D01*
X0331317Y0100685D01*
X0330550Y0101452D01*
X0329015Y0101452D01*
X0328248Y0102219D01*
X0328248Y0102987D01*
X0329015Y0103754D01*
X0330550Y0103754D01*
X0331317Y0102987D01*
X0332852Y0103754D02*
X0335921Y0103754D01*
X0334387Y0103754D02*
X0334387Y0099150D01*
X0340488Y0099150D02*
X0340488Y0103754D01*
X0343557Y0099150D01*
X0343557Y0103754D01*
X0345092Y0103754D02*
X0348161Y0103754D01*
X0349696Y0102987D02*
X0350463Y0103754D01*
X0351998Y0103754D01*
X0352765Y0102987D01*
X0352765Y0099917D01*
X0351998Y0099150D01*
X0350463Y0099150D01*
X0349696Y0099917D01*
X0349696Y0102987D01*
X0346627Y0101452D02*
X0345092Y0101452D01*
X0345092Y0099150D02*
X0345092Y0103754D01*
X0342650Y0082442D02*
X0338046Y0082442D01*
D14*
X0349100Y0039511D03*
X0349100Y0031637D03*
X0349100Y0023763D03*
X0349100Y0015889D03*
X0341659Y0010200D03*
X0333785Y0010200D03*
X0325911Y0010200D03*
X0318037Y0010200D03*
X0310163Y0010200D03*
X0302289Y0010200D03*
X0294415Y0010200D03*
X0286541Y0010200D03*
X0254159Y0023950D03*
X0246285Y0023950D03*
X0238411Y0023950D03*
X0230537Y0023950D03*
X0222663Y0023950D03*
X0214789Y0023950D03*
X0206915Y0023950D03*
X0199041Y0023950D03*
X0208165Y0010200D03*
X0216039Y0010200D03*
X0223913Y0010200D03*
X0231787Y0010200D03*
X0239661Y0010200D03*
X0247535Y0010200D03*
X0182909Y0010200D03*
X0175035Y0010200D03*
X0167161Y0010200D03*
X0159287Y0010200D03*
X0151413Y0010200D03*
X0143539Y0010200D03*
X0135665Y0010200D03*
X0127791Y0010200D03*
X0092673Y0014029D03*
X0084799Y0014029D03*
X0076925Y0014029D03*
X0069051Y0014029D03*
X0061177Y0014029D03*
X0053303Y0014029D03*
X0045429Y0014029D03*
X0037555Y0014029D03*
X0029681Y0014029D03*
X0103726Y0025200D03*
X0111600Y0025200D03*
X0119474Y0025200D03*
X0111787Y0068950D03*
X0103913Y0068950D03*
X0095350Y0075200D03*
X0072673Y0111529D03*
X0064799Y0111529D03*
X0056925Y0111529D03*
X0049051Y0111529D03*
X0041177Y0111529D03*
X0033303Y0111529D03*
X0025429Y0111529D03*
X0017555Y0111529D03*
X0009681Y0111529D03*
D15*
X0128309Y0060200D02*
X0166600Y0098491D01*
X0203689Y0061403D01*
X0203688Y0058998D01*
X0166600Y0021909D01*
X0128309Y0060200D01*
X0197139Y0060200D02*
X0197141Y0060293D01*
X0197147Y0060387D01*
X0197157Y0060479D01*
X0197171Y0060572D01*
X0197188Y0060663D01*
X0197210Y0060754D01*
X0197235Y0060844D01*
X0197265Y0060933D01*
X0197298Y0061020D01*
X0197334Y0061106D01*
X0197375Y0061190D01*
X0197418Y0061273D01*
X0197466Y0061353D01*
X0197516Y0061432D01*
X0197570Y0061508D01*
X0197627Y0061582D01*
X0197688Y0061653D01*
X0197751Y0061722D01*
X0197817Y0061788D01*
X0197886Y0061851D01*
X0197957Y0061912D01*
X0198031Y0061969D01*
X0198107Y0062023D01*
X0198186Y0062073D01*
X0198266Y0062121D01*
X0198349Y0062164D01*
X0198433Y0062205D01*
X0198519Y0062241D01*
X0198606Y0062274D01*
X0198695Y0062304D01*
X0198785Y0062329D01*
X0198876Y0062351D01*
X0198967Y0062368D01*
X0199060Y0062382D01*
X0199152Y0062392D01*
X0199246Y0062398D01*
X0199339Y0062400D01*
X0199432Y0062398D01*
X0199526Y0062392D01*
X0199618Y0062382D01*
X0199711Y0062368D01*
X0199802Y0062351D01*
X0199893Y0062329D01*
X0199983Y0062304D01*
X0200072Y0062274D01*
X0200159Y0062241D01*
X0200245Y0062205D01*
X0200329Y0062164D01*
X0200412Y0062121D01*
X0200492Y0062073D01*
X0200571Y0062023D01*
X0200647Y0061969D01*
X0200721Y0061912D01*
X0200792Y0061851D01*
X0200861Y0061788D01*
X0200927Y0061722D01*
X0200990Y0061653D01*
X0201051Y0061582D01*
X0201108Y0061508D01*
X0201162Y0061432D01*
X0201212Y0061353D01*
X0201260Y0061273D01*
X0201303Y0061190D01*
X0201344Y0061106D01*
X0201380Y0061020D01*
X0201413Y0060933D01*
X0201443Y0060844D01*
X0201468Y0060754D01*
X0201490Y0060663D01*
X0201507Y0060572D01*
X0201521Y0060479D01*
X0201531Y0060387D01*
X0201537Y0060293D01*
X0201539Y0060200D01*
X0201537Y0060107D01*
X0201531Y0060013D01*
X0201521Y0059921D01*
X0201507Y0059828D01*
X0201490Y0059737D01*
X0201468Y0059646D01*
X0201443Y0059556D01*
X0201413Y0059467D01*
X0201380Y0059380D01*
X0201344Y0059294D01*
X0201303Y0059210D01*
X0201260Y0059127D01*
X0201212Y0059047D01*
X0201162Y0058968D01*
X0201108Y0058892D01*
X0201051Y0058818D01*
X0200990Y0058747D01*
X0200927Y0058678D01*
X0200861Y0058612D01*
X0200792Y0058549D01*
X0200721Y0058488D01*
X0200647Y0058431D01*
X0200571Y0058377D01*
X0200492Y0058327D01*
X0200412Y0058279D01*
X0200329Y0058236D01*
X0200245Y0058195D01*
X0200159Y0058159D01*
X0200072Y0058126D01*
X0199983Y0058096D01*
X0199893Y0058071D01*
X0199802Y0058049D01*
X0199711Y0058032D01*
X0199618Y0058018D01*
X0199526Y0058008D01*
X0199432Y0058002D01*
X0199339Y0058000D01*
X0199246Y0058002D01*
X0199152Y0058008D01*
X0199060Y0058018D01*
X0198967Y0058032D01*
X0198876Y0058049D01*
X0198785Y0058071D01*
X0198695Y0058096D01*
X0198606Y0058126D01*
X0198519Y0058159D01*
X0198433Y0058195D01*
X0198349Y0058236D01*
X0198266Y0058279D01*
X0198186Y0058327D01*
X0198107Y0058377D01*
X0198031Y0058431D01*
X0197957Y0058488D01*
X0197886Y0058549D01*
X0197817Y0058612D01*
X0197751Y0058678D01*
X0197688Y0058747D01*
X0197627Y0058818D01*
X0197570Y0058892D01*
X0197516Y0058968D01*
X0197466Y0059047D01*
X0197418Y0059127D01*
X0197375Y0059210D01*
X0197334Y0059294D01*
X0197298Y0059380D01*
X0197265Y0059467D01*
X0197235Y0059556D01*
X0197210Y0059646D01*
X0197188Y0059737D01*
X0197171Y0059828D01*
X0197157Y0059921D01*
X0197147Y0060013D01*
X0197141Y0060107D01*
X0197139Y0060200D01*
X0319600Y0058200D02*
X0321600Y0058200D01*
X0320600Y0057200D02*
X0320600Y0059200D01*
X0320600Y0061700D02*
X0320600Y0063700D01*
X0318100Y0060200D02*
X0318103Y0060409D01*
X0318110Y0060617D01*
X0318123Y0060825D01*
X0318141Y0061033D01*
X0318164Y0061240D01*
X0318192Y0061447D01*
X0318225Y0061653D01*
X0318263Y0061858D01*
X0318307Y0062062D01*
X0318355Y0062265D01*
X0318408Y0062467D01*
X0318466Y0062667D01*
X0318529Y0062866D01*
X0318597Y0063064D01*
X0318670Y0063259D01*
X0318747Y0063453D01*
X0318829Y0063645D01*
X0318916Y0063834D01*
X0319008Y0064022D01*
X0319104Y0064207D01*
X0319204Y0064390D01*
X0319309Y0064570D01*
X0319419Y0064747D01*
X0319533Y0064922D01*
X0319651Y0065094D01*
X0319773Y0065263D01*
X0319899Y0065429D01*
X0320029Y0065592D01*
X0320164Y0065752D01*
X0320302Y0065908D01*
X0320444Y0066061D01*
X0320590Y0066210D01*
X0320739Y0066356D01*
X0320892Y0066498D01*
X0321048Y0066636D01*
X0321208Y0066771D01*
X0321371Y0066901D01*
X0321537Y0067027D01*
X0321706Y0067149D01*
X0321878Y0067267D01*
X0322053Y0067381D01*
X0322230Y0067491D01*
X0322410Y0067596D01*
X0322593Y0067696D01*
X0322778Y0067792D01*
X0322966Y0067884D01*
X0323155Y0067971D01*
X0323347Y0068053D01*
X0323541Y0068130D01*
X0323736Y0068203D01*
X0323934Y0068271D01*
X0324133Y0068334D01*
X0324333Y0068392D01*
X0324535Y0068445D01*
X0324738Y0068493D01*
X0324942Y0068537D01*
X0325147Y0068575D01*
X0325353Y0068608D01*
X0325560Y0068636D01*
X0325767Y0068659D01*
X0325975Y0068677D01*
X0326183Y0068690D01*
X0326391Y0068697D01*
X0326600Y0068700D01*
X0326809Y0068697D01*
X0327017Y0068690D01*
X0327225Y0068677D01*
X0327433Y0068659D01*
X0327640Y0068636D01*
X0327847Y0068608D01*
X0328053Y0068575D01*
X0328258Y0068537D01*
X0328462Y0068493D01*
X0328665Y0068445D01*
X0328867Y0068392D01*
X0329067Y0068334D01*
X0329266Y0068271D01*
X0329464Y0068203D01*
X0329659Y0068130D01*
X0329853Y0068053D01*
X0330045Y0067971D01*
X0330234Y0067884D01*
X0330422Y0067792D01*
X0330607Y0067696D01*
X0330790Y0067596D01*
X0330970Y0067491D01*
X0331147Y0067381D01*
X0331322Y0067267D01*
X0331494Y0067149D01*
X0331663Y0067027D01*
X0331829Y0066901D01*
X0331992Y0066771D01*
X0332152Y0066636D01*
X0332308Y0066498D01*
X0332461Y0066356D01*
X0332610Y0066210D01*
X0332756Y0066061D01*
X0332898Y0065908D01*
X0333036Y0065752D01*
X0333171Y0065592D01*
X0333301Y0065429D01*
X0333427Y0065263D01*
X0333549Y0065094D01*
X0333667Y0064922D01*
X0333781Y0064747D01*
X0333891Y0064570D01*
X0333996Y0064390D01*
X0334096Y0064207D01*
X0334192Y0064022D01*
X0334284Y0063834D01*
X0334371Y0063645D01*
X0334453Y0063453D01*
X0334530Y0063259D01*
X0334603Y0063064D01*
X0334671Y0062866D01*
X0334734Y0062667D01*
X0334792Y0062467D01*
X0334845Y0062265D01*
X0334893Y0062062D01*
X0334937Y0061858D01*
X0334975Y0061653D01*
X0335008Y0061447D01*
X0335036Y0061240D01*
X0335059Y0061033D01*
X0335077Y0060825D01*
X0335090Y0060617D01*
X0335097Y0060409D01*
X0335100Y0060200D01*
X0335097Y0059991D01*
X0335090Y0059783D01*
X0335077Y0059575D01*
X0335059Y0059367D01*
X0335036Y0059160D01*
X0335008Y0058953D01*
X0334975Y0058747D01*
X0334937Y0058542D01*
X0334893Y0058338D01*
X0334845Y0058135D01*
X0334792Y0057933D01*
X0334734Y0057733D01*
X0334671Y0057534D01*
X0334603Y0057336D01*
X0334530Y0057141D01*
X0334453Y0056947D01*
X0334371Y0056755D01*
X0334284Y0056566D01*
X0334192Y0056378D01*
X0334096Y0056193D01*
X0333996Y0056010D01*
X0333891Y0055830D01*
X0333781Y0055653D01*
X0333667Y0055478D01*
X0333549Y0055306D01*
X0333427Y0055137D01*
X0333301Y0054971D01*
X0333171Y0054808D01*
X0333036Y0054648D01*
X0332898Y0054492D01*
X0332756Y0054339D01*
X0332610Y0054190D01*
X0332461Y0054044D01*
X0332308Y0053902D01*
X0332152Y0053764D01*
X0331992Y0053629D01*
X0331829Y0053499D01*
X0331663Y0053373D01*
X0331494Y0053251D01*
X0331322Y0053133D01*
X0331147Y0053019D01*
X0330970Y0052909D01*
X0330790Y0052804D01*
X0330607Y0052704D01*
X0330422Y0052608D01*
X0330234Y0052516D01*
X0330045Y0052429D01*
X0329853Y0052347D01*
X0329659Y0052270D01*
X0329464Y0052197D01*
X0329266Y0052129D01*
X0329067Y0052066D01*
X0328867Y0052008D01*
X0328665Y0051955D01*
X0328462Y0051907D01*
X0328258Y0051863D01*
X0328053Y0051825D01*
X0327847Y0051792D01*
X0327640Y0051764D01*
X0327433Y0051741D01*
X0327225Y0051723D01*
X0327017Y0051710D01*
X0326809Y0051703D01*
X0326600Y0051700D01*
X0326391Y0051703D01*
X0326183Y0051710D01*
X0325975Y0051723D01*
X0325767Y0051741D01*
X0325560Y0051764D01*
X0325353Y0051792D01*
X0325147Y0051825D01*
X0324942Y0051863D01*
X0324738Y0051907D01*
X0324535Y0051955D01*
X0324333Y0052008D01*
X0324133Y0052066D01*
X0323934Y0052129D01*
X0323736Y0052197D01*
X0323541Y0052270D01*
X0323347Y0052347D01*
X0323155Y0052429D01*
X0322966Y0052516D01*
X0322778Y0052608D01*
X0322593Y0052704D01*
X0322410Y0052804D01*
X0322230Y0052909D01*
X0322053Y0053019D01*
X0321878Y0053133D01*
X0321706Y0053251D01*
X0321537Y0053373D01*
X0321371Y0053499D01*
X0321208Y0053629D01*
X0321048Y0053764D01*
X0320892Y0053902D01*
X0320739Y0054044D01*
X0320590Y0054190D01*
X0320444Y0054339D01*
X0320302Y0054492D01*
X0320164Y0054648D01*
X0320029Y0054808D01*
X0319899Y0054971D01*
X0319773Y0055137D01*
X0319651Y0055306D01*
X0319533Y0055478D01*
X0319419Y0055653D01*
X0319309Y0055830D01*
X0319204Y0056010D01*
X0319104Y0056193D01*
X0319008Y0056378D01*
X0318916Y0056566D01*
X0318829Y0056755D01*
X0318747Y0056947D01*
X0318670Y0057141D01*
X0318597Y0057336D01*
X0318529Y0057534D01*
X0318466Y0057733D01*
X0318408Y0057933D01*
X0318355Y0058135D01*
X0318307Y0058338D01*
X0318263Y0058542D01*
X0318225Y0058747D01*
X0318192Y0058953D01*
X0318164Y0059160D01*
X0318141Y0059367D01*
X0318123Y0059575D01*
X0318110Y0059783D01*
X0318103Y0059991D01*
X0318100Y0060200D01*
X0341600Y0057700D02*
X0341600Y0052700D01*
X0344100Y0050200D01*
X0349100Y0050200D01*
X0351600Y0052700D01*
X0351600Y0057700D01*
X0349100Y0060200D01*
X0351600Y0062700D01*
X0351600Y0067700D01*
X0349100Y0070200D01*
X0344100Y0070200D01*
X0341600Y0067700D01*
X0341600Y0062700D01*
X0344100Y0060200D01*
X0349100Y0060200D01*
X0344100Y0060200D02*
X0341600Y0057700D01*
X0219100Y0110200D02*
X0216600Y0107700D01*
X0211600Y0107700D01*
X0209100Y0110200D01*
X0206600Y0107700D01*
X0201600Y0107700D01*
X0199100Y0110200D01*
X0199100Y0115200D01*
X0201600Y0117700D01*
X0206600Y0117700D01*
X0209100Y0115200D01*
X0211600Y0117700D01*
X0216600Y0117700D01*
X0219100Y0115200D01*
X0219100Y0110200D01*
X0209100Y0110200D02*
X0209100Y0115200D01*
X0199100Y0115200D02*
X0196600Y0117700D01*
X0191600Y0117700D01*
X0189100Y0115200D01*
X0186600Y0117700D01*
X0181600Y0117700D01*
X0179100Y0115200D01*
X0179100Y0110200D01*
X0181600Y0107700D01*
X0186600Y0107700D01*
X0189100Y0110200D01*
X0189100Y0115200D01*
X0189100Y0110200D02*
X0191600Y0107700D01*
X0196600Y0107700D01*
X0199100Y0110200D01*
D16*
X0207373Y0105254D02*
X0208874Y0105254D01*
X0208123Y0105254D02*
X0208123Y0100750D01*
X0207373Y0100750D02*
X0208874Y0100750D01*
X0210442Y0101501D02*
X0211193Y0100750D01*
X0212694Y0100750D01*
X0213445Y0101501D01*
X0213445Y0102251D01*
X0212694Y0103002D01*
X0211193Y0103002D01*
X0210442Y0103753D01*
X0210442Y0104503D01*
X0211193Y0105254D01*
X0212694Y0105254D01*
X0213445Y0104503D01*
X0215046Y0105254D02*
X0217298Y0105254D01*
X0218049Y0104503D01*
X0218049Y0103002D01*
X0217298Y0102251D01*
X0215046Y0102251D01*
X0215046Y0100750D02*
X0215046Y0105254D01*
X0285586Y0100515D02*
X0287555Y0100515D01*
X0285586Y0100515D02*
X0285586Y0120200D01*
X0315114Y0120200D02*
X0315114Y0100515D01*
X0313145Y0100515D01*
X0323601Y0049704D02*
X0322850Y0048953D01*
X0322850Y0045951D01*
X0323601Y0045200D01*
X0325102Y0045200D01*
X0325853Y0045951D01*
X0327454Y0045951D02*
X0328205Y0045200D01*
X0329706Y0045200D01*
X0330456Y0045951D01*
X0330456Y0047452D01*
X0329706Y0048203D01*
X0328955Y0048203D01*
X0327454Y0047452D01*
X0327454Y0049704D01*
X0330456Y0049704D01*
X0325853Y0048953D02*
X0325102Y0049704D01*
X0323601Y0049704D01*
X0338338Y0045502D02*
X0341341Y0045502D01*
X0342942Y0045502D02*
X0344443Y0046253D01*
X0345194Y0046253D01*
X0345945Y0045502D01*
X0345945Y0044001D01*
X0345194Y0043250D01*
X0343693Y0043250D01*
X0342942Y0044001D01*
X0339839Y0044001D02*
X0339839Y0047003D01*
X0342942Y0047754D02*
X0342942Y0045502D01*
X0342942Y0047754D02*
X0345945Y0047754D01*
X0347546Y0047754D02*
X0347546Y0044751D01*
X0349047Y0043250D01*
X0350549Y0044751D01*
X0350549Y0047754D01*
X0141443Y0092651D02*
X0141443Y0105249D01*
X0121757Y0105249D01*
X0121757Y0092651D01*
X0141443Y0092651D01*
D17*
X0077929Y0069186D02*
X0037771Y0069186D01*
X0037771Y0051511D01*
X0040568Y0048714D01*
X0077929Y0048714D01*
X0077929Y0069186D01*
D18*
X0037850Y0046450D03*
D19*
X0346738Y0112041D03*
X0351462Y0112041D03*
D20*
X0349100Y0112041D03*
D21*
X0257092Y0110751D02*
X0257092Y0118231D01*
X0231108Y0118231D02*
X0231108Y0078861D01*
X0231108Y0072169D02*
X0257092Y0072169D01*
X0257092Y0076893D01*
X0257092Y0083192D02*
X0257092Y0092641D01*
X0257092Y0098940D02*
X0257092Y0104452D01*
D22*
X0316196Y0111619D02*
X0318531Y0111619D01*
X0318998Y0112086D01*
X0318998Y0113020D01*
X0318531Y0113487D01*
X0316196Y0113487D01*
X0316663Y0114382D02*
X0317130Y0114382D01*
X0317597Y0114849D01*
X0317597Y0115783D01*
X0318064Y0116250D01*
X0318531Y0116250D01*
X0318998Y0115783D01*
X0318998Y0114849D01*
X0318531Y0114382D01*
X0316663Y0114382D02*
X0316196Y0114849D01*
X0316196Y0115783D01*
X0316663Y0116250D01*
X0316196Y0117144D02*
X0316196Y0118545D01*
X0316663Y0119012D01*
X0317130Y0119012D01*
X0317597Y0118545D01*
X0317597Y0117144D01*
X0318998Y0117144D02*
X0316196Y0117144D01*
X0317597Y0118545D02*
X0318064Y0119012D01*
X0318531Y0119012D01*
X0318998Y0118545D01*
X0318998Y0117144D01*
M02*
