G75*
%MOIN*%
%OFA0B0*%
%FSLAX25Y25*%
%IPPOS*%
%LPD*%
%AMOC8*
5,1,8,0,0,1.08239X$1,22.5*
%
%ADD10C,0.00000*%
%ADD11R,0.06299X0.07087*%
%ADD12R,0.07087X0.06299*%
%ADD13C,0.05600*%
%ADD14R,0.02200X0.04700*%
%ADD15R,0.04700X0.02200*%
%ADD16R,0.07087X0.04724*%
%ADD17R,0.07098X0.06299*%
%ADD18R,0.06299X0.07098*%
%ADD19R,0.01575X0.05906*%
%ADD20OC8,0.05200*%
%ADD21C,0.05200*%
%ADD22R,0.04724X0.04724*%
%ADD23R,0.09843X0.04724*%
%ADD24R,0.01575X0.06890*%
%ADD25R,0.07874X0.07874*%
%ADD26C,0.06000*%
%ADD27R,0.03937X0.03937*%
%ADD28R,0.06693X0.02165*%
%ADD29C,0.01800*%
%ADD30C,0.02400*%
%ADD31C,0.02800*%
%ADD32C,0.01200*%
%ADD33C,0.00800*%
D10*
X0001600Y0002700D02*
X0001600Y0120810D01*
X0355931Y0120810D01*
X0355931Y0002700D01*
X0001600Y0002700D01*
X0105537Y0010574D02*
X0105539Y0010732D01*
X0105545Y0010890D01*
X0105555Y0011048D01*
X0105569Y0011206D01*
X0105587Y0011363D01*
X0105608Y0011520D01*
X0105634Y0011676D01*
X0105664Y0011832D01*
X0105697Y0011987D01*
X0105735Y0012140D01*
X0105776Y0012293D01*
X0105821Y0012445D01*
X0105870Y0012596D01*
X0105923Y0012745D01*
X0105979Y0012893D01*
X0106039Y0013039D01*
X0106103Y0013184D01*
X0106171Y0013327D01*
X0106242Y0013469D01*
X0106316Y0013609D01*
X0106394Y0013746D01*
X0106476Y0013882D01*
X0106560Y0014016D01*
X0106649Y0014147D01*
X0106740Y0014276D01*
X0106835Y0014403D01*
X0106932Y0014528D01*
X0107033Y0014650D01*
X0107137Y0014769D01*
X0107244Y0014886D01*
X0107354Y0015000D01*
X0107467Y0015111D01*
X0107582Y0015220D01*
X0107700Y0015325D01*
X0107821Y0015427D01*
X0107944Y0015527D01*
X0108070Y0015623D01*
X0108198Y0015716D01*
X0108328Y0015806D01*
X0108461Y0015892D01*
X0108596Y0015976D01*
X0108732Y0016055D01*
X0108871Y0016132D01*
X0109012Y0016204D01*
X0109154Y0016274D01*
X0109298Y0016339D01*
X0109444Y0016401D01*
X0109591Y0016459D01*
X0109740Y0016514D01*
X0109890Y0016565D01*
X0110041Y0016612D01*
X0110193Y0016655D01*
X0110346Y0016694D01*
X0110501Y0016730D01*
X0110656Y0016761D01*
X0110812Y0016789D01*
X0110968Y0016813D01*
X0111125Y0016833D01*
X0111283Y0016849D01*
X0111440Y0016861D01*
X0111599Y0016869D01*
X0111757Y0016873D01*
X0111915Y0016873D01*
X0112073Y0016869D01*
X0112232Y0016861D01*
X0112389Y0016849D01*
X0112547Y0016833D01*
X0112704Y0016813D01*
X0112860Y0016789D01*
X0113016Y0016761D01*
X0113171Y0016730D01*
X0113326Y0016694D01*
X0113479Y0016655D01*
X0113631Y0016612D01*
X0113782Y0016565D01*
X0113932Y0016514D01*
X0114081Y0016459D01*
X0114228Y0016401D01*
X0114374Y0016339D01*
X0114518Y0016274D01*
X0114660Y0016204D01*
X0114801Y0016132D01*
X0114940Y0016055D01*
X0115076Y0015976D01*
X0115211Y0015892D01*
X0115344Y0015806D01*
X0115474Y0015716D01*
X0115602Y0015623D01*
X0115728Y0015527D01*
X0115851Y0015427D01*
X0115972Y0015325D01*
X0116090Y0015220D01*
X0116205Y0015111D01*
X0116318Y0015000D01*
X0116428Y0014886D01*
X0116535Y0014769D01*
X0116639Y0014650D01*
X0116740Y0014528D01*
X0116837Y0014403D01*
X0116932Y0014276D01*
X0117023Y0014147D01*
X0117112Y0014016D01*
X0117196Y0013882D01*
X0117278Y0013746D01*
X0117356Y0013609D01*
X0117430Y0013469D01*
X0117501Y0013327D01*
X0117569Y0013184D01*
X0117633Y0013039D01*
X0117693Y0012893D01*
X0117749Y0012745D01*
X0117802Y0012596D01*
X0117851Y0012445D01*
X0117896Y0012293D01*
X0117937Y0012140D01*
X0117975Y0011987D01*
X0118008Y0011832D01*
X0118038Y0011676D01*
X0118064Y0011520D01*
X0118085Y0011363D01*
X0118103Y0011206D01*
X0118117Y0011048D01*
X0118127Y0010890D01*
X0118133Y0010732D01*
X0118135Y0010574D01*
X0118133Y0010416D01*
X0118127Y0010258D01*
X0118117Y0010100D01*
X0118103Y0009942D01*
X0118085Y0009785D01*
X0118064Y0009628D01*
X0118038Y0009472D01*
X0118008Y0009316D01*
X0117975Y0009161D01*
X0117937Y0009008D01*
X0117896Y0008855D01*
X0117851Y0008703D01*
X0117802Y0008552D01*
X0117749Y0008403D01*
X0117693Y0008255D01*
X0117633Y0008109D01*
X0117569Y0007964D01*
X0117501Y0007821D01*
X0117430Y0007679D01*
X0117356Y0007539D01*
X0117278Y0007402D01*
X0117196Y0007266D01*
X0117112Y0007132D01*
X0117023Y0007001D01*
X0116932Y0006872D01*
X0116837Y0006745D01*
X0116740Y0006620D01*
X0116639Y0006498D01*
X0116535Y0006379D01*
X0116428Y0006262D01*
X0116318Y0006148D01*
X0116205Y0006037D01*
X0116090Y0005928D01*
X0115972Y0005823D01*
X0115851Y0005721D01*
X0115728Y0005621D01*
X0115602Y0005525D01*
X0115474Y0005432D01*
X0115344Y0005342D01*
X0115211Y0005256D01*
X0115076Y0005172D01*
X0114940Y0005093D01*
X0114801Y0005016D01*
X0114660Y0004944D01*
X0114518Y0004874D01*
X0114374Y0004809D01*
X0114228Y0004747D01*
X0114081Y0004689D01*
X0113932Y0004634D01*
X0113782Y0004583D01*
X0113631Y0004536D01*
X0113479Y0004493D01*
X0113326Y0004454D01*
X0113171Y0004418D01*
X0113016Y0004387D01*
X0112860Y0004359D01*
X0112704Y0004335D01*
X0112547Y0004315D01*
X0112389Y0004299D01*
X0112232Y0004287D01*
X0112073Y0004279D01*
X0111915Y0004275D01*
X0111757Y0004275D01*
X0111599Y0004279D01*
X0111440Y0004287D01*
X0111283Y0004299D01*
X0111125Y0004315D01*
X0110968Y0004335D01*
X0110812Y0004359D01*
X0110656Y0004387D01*
X0110501Y0004418D01*
X0110346Y0004454D01*
X0110193Y0004493D01*
X0110041Y0004536D01*
X0109890Y0004583D01*
X0109740Y0004634D01*
X0109591Y0004689D01*
X0109444Y0004747D01*
X0109298Y0004809D01*
X0109154Y0004874D01*
X0109012Y0004944D01*
X0108871Y0005016D01*
X0108732Y0005093D01*
X0108596Y0005172D01*
X0108461Y0005256D01*
X0108328Y0005342D01*
X0108198Y0005432D01*
X0108070Y0005525D01*
X0107944Y0005621D01*
X0107821Y0005721D01*
X0107700Y0005823D01*
X0107582Y0005928D01*
X0107467Y0006037D01*
X0107354Y0006148D01*
X0107244Y0006262D01*
X0107137Y0006379D01*
X0107033Y0006498D01*
X0106932Y0006620D01*
X0106835Y0006745D01*
X0106740Y0006872D01*
X0106649Y0007001D01*
X0106560Y0007132D01*
X0106476Y0007266D01*
X0106394Y0007402D01*
X0106316Y0007539D01*
X0106242Y0007679D01*
X0106171Y0007821D01*
X0106103Y0007964D01*
X0106039Y0008109D01*
X0105979Y0008255D01*
X0105923Y0008403D01*
X0105870Y0008552D01*
X0105821Y0008703D01*
X0105776Y0008855D01*
X0105735Y0009008D01*
X0105697Y0009161D01*
X0105664Y0009316D01*
X0105634Y0009472D01*
X0105608Y0009628D01*
X0105587Y0009785D01*
X0105569Y0009942D01*
X0105555Y0010100D01*
X0105545Y0010258D01*
X0105539Y0010416D01*
X0105537Y0010574D01*
X0263018Y0010574D02*
X0263020Y0010732D01*
X0263026Y0010890D01*
X0263036Y0011048D01*
X0263050Y0011206D01*
X0263068Y0011363D01*
X0263089Y0011520D01*
X0263115Y0011676D01*
X0263145Y0011832D01*
X0263178Y0011987D01*
X0263216Y0012140D01*
X0263257Y0012293D01*
X0263302Y0012445D01*
X0263351Y0012596D01*
X0263404Y0012745D01*
X0263460Y0012893D01*
X0263520Y0013039D01*
X0263584Y0013184D01*
X0263652Y0013327D01*
X0263723Y0013469D01*
X0263797Y0013609D01*
X0263875Y0013746D01*
X0263957Y0013882D01*
X0264041Y0014016D01*
X0264130Y0014147D01*
X0264221Y0014276D01*
X0264316Y0014403D01*
X0264413Y0014528D01*
X0264514Y0014650D01*
X0264618Y0014769D01*
X0264725Y0014886D01*
X0264835Y0015000D01*
X0264948Y0015111D01*
X0265063Y0015220D01*
X0265181Y0015325D01*
X0265302Y0015427D01*
X0265425Y0015527D01*
X0265551Y0015623D01*
X0265679Y0015716D01*
X0265809Y0015806D01*
X0265942Y0015892D01*
X0266077Y0015976D01*
X0266213Y0016055D01*
X0266352Y0016132D01*
X0266493Y0016204D01*
X0266635Y0016274D01*
X0266779Y0016339D01*
X0266925Y0016401D01*
X0267072Y0016459D01*
X0267221Y0016514D01*
X0267371Y0016565D01*
X0267522Y0016612D01*
X0267674Y0016655D01*
X0267827Y0016694D01*
X0267982Y0016730D01*
X0268137Y0016761D01*
X0268293Y0016789D01*
X0268449Y0016813D01*
X0268606Y0016833D01*
X0268764Y0016849D01*
X0268921Y0016861D01*
X0269080Y0016869D01*
X0269238Y0016873D01*
X0269396Y0016873D01*
X0269554Y0016869D01*
X0269713Y0016861D01*
X0269870Y0016849D01*
X0270028Y0016833D01*
X0270185Y0016813D01*
X0270341Y0016789D01*
X0270497Y0016761D01*
X0270652Y0016730D01*
X0270807Y0016694D01*
X0270960Y0016655D01*
X0271112Y0016612D01*
X0271263Y0016565D01*
X0271413Y0016514D01*
X0271562Y0016459D01*
X0271709Y0016401D01*
X0271855Y0016339D01*
X0271999Y0016274D01*
X0272141Y0016204D01*
X0272282Y0016132D01*
X0272421Y0016055D01*
X0272557Y0015976D01*
X0272692Y0015892D01*
X0272825Y0015806D01*
X0272955Y0015716D01*
X0273083Y0015623D01*
X0273209Y0015527D01*
X0273332Y0015427D01*
X0273453Y0015325D01*
X0273571Y0015220D01*
X0273686Y0015111D01*
X0273799Y0015000D01*
X0273909Y0014886D01*
X0274016Y0014769D01*
X0274120Y0014650D01*
X0274221Y0014528D01*
X0274318Y0014403D01*
X0274413Y0014276D01*
X0274504Y0014147D01*
X0274593Y0014016D01*
X0274677Y0013882D01*
X0274759Y0013746D01*
X0274837Y0013609D01*
X0274911Y0013469D01*
X0274982Y0013327D01*
X0275050Y0013184D01*
X0275114Y0013039D01*
X0275174Y0012893D01*
X0275230Y0012745D01*
X0275283Y0012596D01*
X0275332Y0012445D01*
X0275377Y0012293D01*
X0275418Y0012140D01*
X0275456Y0011987D01*
X0275489Y0011832D01*
X0275519Y0011676D01*
X0275545Y0011520D01*
X0275566Y0011363D01*
X0275584Y0011206D01*
X0275598Y0011048D01*
X0275608Y0010890D01*
X0275614Y0010732D01*
X0275616Y0010574D01*
X0275614Y0010416D01*
X0275608Y0010258D01*
X0275598Y0010100D01*
X0275584Y0009942D01*
X0275566Y0009785D01*
X0275545Y0009628D01*
X0275519Y0009472D01*
X0275489Y0009316D01*
X0275456Y0009161D01*
X0275418Y0009008D01*
X0275377Y0008855D01*
X0275332Y0008703D01*
X0275283Y0008552D01*
X0275230Y0008403D01*
X0275174Y0008255D01*
X0275114Y0008109D01*
X0275050Y0007964D01*
X0274982Y0007821D01*
X0274911Y0007679D01*
X0274837Y0007539D01*
X0274759Y0007402D01*
X0274677Y0007266D01*
X0274593Y0007132D01*
X0274504Y0007001D01*
X0274413Y0006872D01*
X0274318Y0006745D01*
X0274221Y0006620D01*
X0274120Y0006498D01*
X0274016Y0006379D01*
X0273909Y0006262D01*
X0273799Y0006148D01*
X0273686Y0006037D01*
X0273571Y0005928D01*
X0273453Y0005823D01*
X0273332Y0005721D01*
X0273209Y0005621D01*
X0273083Y0005525D01*
X0272955Y0005432D01*
X0272825Y0005342D01*
X0272692Y0005256D01*
X0272557Y0005172D01*
X0272421Y0005093D01*
X0272282Y0005016D01*
X0272141Y0004944D01*
X0271999Y0004874D01*
X0271855Y0004809D01*
X0271709Y0004747D01*
X0271562Y0004689D01*
X0271413Y0004634D01*
X0271263Y0004583D01*
X0271112Y0004536D01*
X0270960Y0004493D01*
X0270807Y0004454D01*
X0270652Y0004418D01*
X0270497Y0004387D01*
X0270341Y0004359D01*
X0270185Y0004335D01*
X0270028Y0004315D01*
X0269870Y0004299D01*
X0269713Y0004287D01*
X0269554Y0004279D01*
X0269396Y0004275D01*
X0269238Y0004275D01*
X0269080Y0004279D01*
X0268921Y0004287D01*
X0268764Y0004299D01*
X0268606Y0004315D01*
X0268449Y0004335D01*
X0268293Y0004359D01*
X0268137Y0004387D01*
X0267982Y0004418D01*
X0267827Y0004454D01*
X0267674Y0004493D01*
X0267522Y0004536D01*
X0267371Y0004583D01*
X0267221Y0004634D01*
X0267072Y0004689D01*
X0266925Y0004747D01*
X0266779Y0004809D01*
X0266635Y0004874D01*
X0266493Y0004944D01*
X0266352Y0005016D01*
X0266213Y0005093D01*
X0266077Y0005172D01*
X0265942Y0005256D01*
X0265809Y0005342D01*
X0265679Y0005432D01*
X0265551Y0005525D01*
X0265425Y0005621D01*
X0265302Y0005721D01*
X0265181Y0005823D01*
X0265063Y0005928D01*
X0264948Y0006037D01*
X0264835Y0006148D01*
X0264725Y0006262D01*
X0264618Y0006379D01*
X0264514Y0006498D01*
X0264413Y0006620D01*
X0264316Y0006745D01*
X0264221Y0006872D01*
X0264130Y0007001D01*
X0264041Y0007132D01*
X0263957Y0007266D01*
X0263875Y0007402D01*
X0263797Y0007539D01*
X0263723Y0007679D01*
X0263652Y0007821D01*
X0263584Y0007964D01*
X0263520Y0008109D01*
X0263460Y0008255D01*
X0263404Y0008403D01*
X0263351Y0008552D01*
X0263302Y0008703D01*
X0263257Y0008855D01*
X0263216Y0009008D01*
X0263178Y0009161D01*
X0263145Y0009316D01*
X0263115Y0009472D01*
X0263089Y0009628D01*
X0263068Y0009785D01*
X0263050Y0009942D01*
X0263036Y0010100D01*
X0263026Y0010258D01*
X0263020Y0010416D01*
X0263018Y0010574D01*
X0241738Y0086342D02*
X0241740Y0086439D01*
X0241746Y0086536D01*
X0241756Y0086632D01*
X0241770Y0086728D01*
X0241788Y0086824D01*
X0241809Y0086918D01*
X0241835Y0087012D01*
X0241864Y0087104D01*
X0241898Y0087195D01*
X0241934Y0087285D01*
X0241975Y0087373D01*
X0242019Y0087459D01*
X0242067Y0087544D01*
X0242118Y0087626D01*
X0242172Y0087707D01*
X0242230Y0087785D01*
X0242291Y0087860D01*
X0242354Y0087933D01*
X0242421Y0088004D01*
X0242491Y0088071D01*
X0242563Y0088136D01*
X0242638Y0088197D01*
X0242716Y0088256D01*
X0242795Y0088311D01*
X0242877Y0088363D01*
X0242961Y0088411D01*
X0243047Y0088456D01*
X0243135Y0088498D01*
X0243224Y0088536D01*
X0243315Y0088570D01*
X0243407Y0088600D01*
X0243500Y0088627D01*
X0243595Y0088649D01*
X0243690Y0088668D01*
X0243786Y0088683D01*
X0243882Y0088694D01*
X0243979Y0088701D01*
X0244076Y0088704D01*
X0244173Y0088703D01*
X0244270Y0088698D01*
X0244366Y0088689D01*
X0244462Y0088676D01*
X0244558Y0088659D01*
X0244653Y0088638D01*
X0244746Y0088614D01*
X0244839Y0088585D01*
X0244931Y0088553D01*
X0245021Y0088517D01*
X0245109Y0088478D01*
X0245196Y0088434D01*
X0245281Y0088388D01*
X0245364Y0088337D01*
X0245445Y0088284D01*
X0245523Y0088227D01*
X0245600Y0088167D01*
X0245673Y0088104D01*
X0245744Y0088038D01*
X0245812Y0087969D01*
X0245878Y0087897D01*
X0245940Y0087823D01*
X0245999Y0087746D01*
X0246055Y0087667D01*
X0246108Y0087585D01*
X0246158Y0087502D01*
X0246203Y0087416D01*
X0246246Y0087329D01*
X0246285Y0087240D01*
X0246320Y0087150D01*
X0246351Y0087058D01*
X0246378Y0086965D01*
X0246402Y0086871D01*
X0246422Y0086776D01*
X0246438Y0086680D01*
X0246450Y0086584D01*
X0246458Y0086487D01*
X0246462Y0086390D01*
X0246462Y0086294D01*
X0246458Y0086197D01*
X0246450Y0086100D01*
X0246438Y0086004D01*
X0246422Y0085908D01*
X0246402Y0085813D01*
X0246378Y0085719D01*
X0246351Y0085626D01*
X0246320Y0085534D01*
X0246285Y0085444D01*
X0246246Y0085355D01*
X0246203Y0085268D01*
X0246158Y0085182D01*
X0246108Y0085099D01*
X0246055Y0085017D01*
X0245999Y0084938D01*
X0245940Y0084861D01*
X0245878Y0084787D01*
X0245812Y0084715D01*
X0245744Y0084646D01*
X0245673Y0084580D01*
X0245600Y0084517D01*
X0245523Y0084457D01*
X0245445Y0084400D01*
X0245364Y0084347D01*
X0245281Y0084296D01*
X0245196Y0084250D01*
X0245109Y0084206D01*
X0245021Y0084167D01*
X0244931Y0084131D01*
X0244839Y0084099D01*
X0244746Y0084070D01*
X0244653Y0084046D01*
X0244558Y0084025D01*
X0244462Y0084008D01*
X0244366Y0083995D01*
X0244270Y0083986D01*
X0244173Y0083981D01*
X0244076Y0083980D01*
X0243979Y0083983D01*
X0243882Y0083990D01*
X0243786Y0084001D01*
X0243690Y0084016D01*
X0243595Y0084035D01*
X0243500Y0084057D01*
X0243407Y0084084D01*
X0243315Y0084114D01*
X0243224Y0084148D01*
X0243135Y0084186D01*
X0243047Y0084228D01*
X0242961Y0084273D01*
X0242877Y0084321D01*
X0242795Y0084373D01*
X0242716Y0084428D01*
X0242638Y0084487D01*
X0242563Y0084548D01*
X0242491Y0084613D01*
X0242421Y0084680D01*
X0242354Y0084751D01*
X0242291Y0084824D01*
X0242230Y0084899D01*
X0242172Y0084977D01*
X0242118Y0085058D01*
X0242067Y0085140D01*
X0242019Y0085225D01*
X0241975Y0085311D01*
X0241934Y0085399D01*
X0241898Y0085489D01*
X0241864Y0085580D01*
X0241835Y0085672D01*
X0241809Y0085766D01*
X0241788Y0085860D01*
X0241770Y0085956D01*
X0241756Y0086052D01*
X0241746Y0086148D01*
X0241740Y0086245D01*
X0241738Y0086342D01*
X0288736Y0101578D02*
X0288738Y0101669D01*
X0288744Y0101759D01*
X0288754Y0101850D01*
X0288768Y0101939D01*
X0288786Y0102028D01*
X0288807Y0102117D01*
X0288833Y0102204D01*
X0288862Y0102290D01*
X0288896Y0102374D01*
X0288932Y0102457D01*
X0288973Y0102539D01*
X0289017Y0102618D01*
X0289064Y0102696D01*
X0289115Y0102771D01*
X0289169Y0102844D01*
X0289226Y0102914D01*
X0289286Y0102982D01*
X0289349Y0103048D01*
X0289415Y0103110D01*
X0289484Y0103169D01*
X0289555Y0103226D01*
X0289629Y0103279D01*
X0289705Y0103329D01*
X0289783Y0103376D01*
X0289863Y0103419D01*
X0289944Y0103458D01*
X0290028Y0103494D01*
X0290113Y0103526D01*
X0290199Y0103555D01*
X0290286Y0103579D01*
X0290375Y0103600D01*
X0290464Y0103617D01*
X0290554Y0103630D01*
X0290644Y0103639D01*
X0290735Y0103644D01*
X0290826Y0103645D01*
X0290916Y0103642D01*
X0291007Y0103635D01*
X0291097Y0103624D01*
X0291187Y0103609D01*
X0291276Y0103590D01*
X0291364Y0103568D01*
X0291450Y0103541D01*
X0291536Y0103511D01*
X0291620Y0103477D01*
X0291703Y0103439D01*
X0291784Y0103398D01*
X0291863Y0103353D01*
X0291940Y0103304D01*
X0292014Y0103253D01*
X0292087Y0103198D01*
X0292157Y0103140D01*
X0292224Y0103079D01*
X0292288Y0103015D01*
X0292350Y0102949D01*
X0292409Y0102879D01*
X0292464Y0102808D01*
X0292517Y0102733D01*
X0292566Y0102657D01*
X0292612Y0102579D01*
X0292654Y0102498D01*
X0292693Y0102416D01*
X0292728Y0102332D01*
X0292759Y0102247D01*
X0292786Y0102160D01*
X0292810Y0102073D01*
X0292830Y0101984D01*
X0292846Y0101895D01*
X0292858Y0101805D01*
X0292866Y0101714D01*
X0292870Y0101623D01*
X0292870Y0101533D01*
X0292866Y0101442D01*
X0292858Y0101351D01*
X0292846Y0101261D01*
X0292830Y0101172D01*
X0292810Y0101083D01*
X0292786Y0100996D01*
X0292759Y0100909D01*
X0292728Y0100824D01*
X0292693Y0100740D01*
X0292654Y0100658D01*
X0292612Y0100577D01*
X0292566Y0100499D01*
X0292517Y0100423D01*
X0292464Y0100348D01*
X0292409Y0100277D01*
X0292350Y0100207D01*
X0292288Y0100141D01*
X0292224Y0100077D01*
X0292157Y0100016D01*
X0292087Y0099958D01*
X0292014Y0099903D01*
X0291940Y0099852D01*
X0291863Y0099803D01*
X0291784Y0099758D01*
X0291703Y0099717D01*
X0291620Y0099679D01*
X0291536Y0099645D01*
X0291450Y0099615D01*
X0291364Y0099588D01*
X0291276Y0099566D01*
X0291187Y0099547D01*
X0291097Y0099532D01*
X0291007Y0099521D01*
X0290916Y0099514D01*
X0290826Y0099511D01*
X0290735Y0099512D01*
X0290644Y0099517D01*
X0290554Y0099526D01*
X0290464Y0099539D01*
X0290375Y0099556D01*
X0290286Y0099577D01*
X0290199Y0099601D01*
X0290113Y0099630D01*
X0290028Y0099662D01*
X0289944Y0099698D01*
X0289863Y0099737D01*
X0289783Y0099780D01*
X0289705Y0099827D01*
X0289629Y0099877D01*
X0289555Y0099930D01*
X0289484Y0099987D01*
X0289415Y0100046D01*
X0289349Y0100108D01*
X0289286Y0100174D01*
X0289226Y0100242D01*
X0289169Y0100312D01*
X0289115Y0100385D01*
X0289064Y0100460D01*
X0289017Y0100538D01*
X0288973Y0100617D01*
X0288932Y0100699D01*
X0288896Y0100782D01*
X0288862Y0100866D01*
X0288833Y0100952D01*
X0288807Y0101039D01*
X0288786Y0101128D01*
X0288768Y0101217D01*
X0288754Y0101306D01*
X0288744Y0101397D01*
X0288738Y0101487D01*
X0288736Y0101578D01*
X0307830Y0101578D02*
X0307832Y0101669D01*
X0307838Y0101759D01*
X0307848Y0101850D01*
X0307862Y0101939D01*
X0307880Y0102028D01*
X0307901Y0102117D01*
X0307927Y0102204D01*
X0307956Y0102290D01*
X0307990Y0102374D01*
X0308026Y0102457D01*
X0308067Y0102539D01*
X0308111Y0102618D01*
X0308158Y0102696D01*
X0308209Y0102771D01*
X0308263Y0102844D01*
X0308320Y0102914D01*
X0308380Y0102982D01*
X0308443Y0103048D01*
X0308509Y0103110D01*
X0308578Y0103169D01*
X0308649Y0103226D01*
X0308723Y0103279D01*
X0308799Y0103329D01*
X0308877Y0103376D01*
X0308957Y0103419D01*
X0309038Y0103458D01*
X0309122Y0103494D01*
X0309207Y0103526D01*
X0309293Y0103555D01*
X0309380Y0103579D01*
X0309469Y0103600D01*
X0309558Y0103617D01*
X0309648Y0103630D01*
X0309738Y0103639D01*
X0309829Y0103644D01*
X0309920Y0103645D01*
X0310010Y0103642D01*
X0310101Y0103635D01*
X0310191Y0103624D01*
X0310281Y0103609D01*
X0310370Y0103590D01*
X0310458Y0103568D01*
X0310544Y0103541D01*
X0310630Y0103511D01*
X0310714Y0103477D01*
X0310797Y0103439D01*
X0310878Y0103398D01*
X0310957Y0103353D01*
X0311034Y0103304D01*
X0311108Y0103253D01*
X0311181Y0103198D01*
X0311251Y0103140D01*
X0311318Y0103079D01*
X0311382Y0103015D01*
X0311444Y0102949D01*
X0311503Y0102879D01*
X0311558Y0102808D01*
X0311611Y0102733D01*
X0311660Y0102657D01*
X0311706Y0102579D01*
X0311748Y0102498D01*
X0311787Y0102416D01*
X0311822Y0102332D01*
X0311853Y0102247D01*
X0311880Y0102160D01*
X0311904Y0102073D01*
X0311924Y0101984D01*
X0311940Y0101895D01*
X0311952Y0101805D01*
X0311960Y0101714D01*
X0311964Y0101623D01*
X0311964Y0101533D01*
X0311960Y0101442D01*
X0311952Y0101351D01*
X0311940Y0101261D01*
X0311924Y0101172D01*
X0311904Y0101083D01*
X0311880Y0100996D01*
X0311853Y0100909D01*
X0311822Y0100824D01*
X0311787Y0100740D01*
X0311748Y0100658D01*
X0311706Y0100577D01*
X0311660Y0100499D01*
X0311611Y0100423D01*
X0311558Y0100348D01*
X0311503Y0100277D01*
X0311444Y0100207D01*
X0311382Y0100141D01*
X0311318Y0100077D01*
X0311251Y0100016D01*
X0311181Y0099958D01*
X0311108Y0099903D01*
X0311034Y0099852D01*
X0310957Y0099803D01*
X0310878Y0099758D01*
X0310797Y0099717D01*
X0310714Y0099679D01*
X0310630Y0099645D01*
X0310544Y0099615D01*
X0310458Y0099588D01*
X0310370Y0099566D01*
X0310281Y0099547D01*
X0310191Y0099532D01*
X0310101Y0099521D01*
X0310010Y0099514D01*
X0309920Y0099511D01*
X0309829Y0099512D01*
X0309738Y0099517D01*
X0309648Y0099526D01*
X0309558Y0099539D01*
X0309469Y0099556D01*
X0309380Y0099577D01*
X0309293Y0099601D01*
X0309207Y0099630D01*
X0309122Y0099662D01*
X0309038Y0099698D01*
X0308957Y0099737D01*
X0308877Y0099780D01*
X0308799Y0099827D01*
X0308723Y0099877D01*
X0308649Y0099930D01*
X0308578Y0099987D01*
X0308509Y0100046D01*
X0308443Y0100108D01*
X0308380Y0100174D01*
X0308320Y0100242D01*
X0308263Y0100312D01*
X0308209Y0100385D01*
X0308158Y0100460D01*
X0308111Y0100538D01*
X0308067Y0100617D01*
X0308026Y0100699D01*
X0307990Y0100782D01*
X0307956Y0100866D01*
X0307927Y0100952D01*
X0307901Y0101039D01*
X0307880Y0101128D01*
X0307862Y0101217D01*
X0307848Y0101306D01*
X0307838Y0101397D01*
X0307832Y0101487D01*
X0307830Y0101578D01*
X0263018Y0112936D02*
X0263020Y0113094D01*
X0263026Y0113252D01*
X0263036Y0113410D01*
X0263050Y0113568D01*
X0263068Y0113725D01*
X0263089Y0113882D01*
X0263115Y0114038D01*
X0263145Y0114194D01*
X0263178Y0114349D01*
X0263216Y0114502D01*
X0263257Y0114655D01*
X0263302Y0114807D01*
X0263351Y0114958D01*
X0263404Y0115107D01*
X0263460Y0115255D01*
X0263520Y0115401D01*
X0263584Y0115546D01*
X0263652Y0115689D01*
X0263723Y0115831D01*
X0263797Y0115971D01*
X0263875Y0116108D01*
X0263957Y0116244D01*
X0264041Y0116378D01*
X0264130Y0116509D01*
X0264221Y0116638D01*
X0264316Y0116765D01*
X0264413Y0116890D01*
X0264514Y0117012D01*
X0264618Y0117131D01*
X0264725Y0117248D01*
X0264835Y0117362D01*
X0264948Y0117473D01*
X0265063Y0117582D01*
X0265181Y0117687D01*
X0265302Y0117789D01*
X0265425Y0117889D01*
X0265551Y0117985D01*
X0265679Y0118078D01*
X0265809Y0118168D01*
X0265942Y0118254D01*
X0266077Y0118338D01*
X0266213Y0118417D01*
X0266352Y0118494D01*
X0266493Y0118566D01*
X0266635Y0118636D01*
X0266779Y0118701D01*
X0266925Y0118763D01*
X0267072Y0118821D01*
X0267221Y0118876D01*
X0267371Y0118927D01*
X0267522Y0118974D01*
X0267674Y0119017D01*
X0267827Y0119056D01*
X0267982Y0119092D01*
X0268137Y0119123D01*
X0268293Y0119151D01*
X0268449Y0119175D01*
X0268606Y0119195D01*
X0268764Y0119211D01*
X0268921Y0119223D01*
X0269080Y0119231D01*
X0269238Y0119235D01*
X0269396Y0119235D01*
X0269554Y0119231D01*
X0269713Y0119223D01*
X0269870Y0119211D01*
X0270028Y0119195D01*
X0270185Y0119175D01*
X0270341Y0119151D01*
X0270497Y0119123D01*
X0270652Y0119092D01*
X0270807Y0119056D01*
X0270960Y0119017D01*
X0271112Y0118974D01*
X0271263Y0118927D01*
X0271413Y0118876D01*
X0271562Y0118821D01*
X0271709Y0118763D01*
X0271855Y0118701D01*
X0271999Y0118636D01*
X0272141Y0118566D01*
X0272282Y0118494D01*
X0272421Y0118417D01*
X0272557Y0118338D01*
X0272692Y0118254D01*
X0272825Y0118168D01*
X0272955Y0118078D01*
X0273083Y0117985D01*
X0273209Y0117889D01*
X0273332Y0117789D01*
X0273453Y0117687D01*
X0273571Y0117582D01*
X0273686Y0117473D01*
X0273799Y0117362D01*
X0273909Y0117248D01*
X0274016Y0117131D01*
X0274120Y0117012D01*
X0274221Y0116890D01*
X0274318Y0116765D01*
X0274413Y0116638D01*
X0274504Y0116509D01*
X0274593Y0116378D01*
X0274677Y0116244D01*
X0274759Y0116108D01*
X0274837Y0115971D01*
X0274911Y0115831D01*
X0274982Y0115689D01*
X0275050Y0115546D01*
X0275114Y0115401D01*
X0275174Y0115255D01*
X0275230Y0115107D01*
X0275283Y0114958D01*
X0275332Y0114807D01*
X0275377Y0114655D01*
X0275418Y0114502D01*
X0275456Y0114349D01*
X0275489Y0114194D01*
X0275519Y0114038D01*
X0275545Y0113882D01*
X0275566Y0113725D01*
X0275584Y0113568D01*
X0275598Y0113410D01*
X0275608Y0113252D01*
X0275614Y0113094D01*
X0275616Y0112936D01*
X0275614Y0112778D01*
X0275608Y0112620D01*
X0275598Y0112462D01*
X0275584Y0112304D01*
X0275566Y0112147D01*
X0275545Y0111990D01*
X0275519Y0111834D01*
X0275489Y0111678D01*
X0275456Y0111523D01*
X0275418Y0111370D01*
X0275377Y0111217D01*
X0275332Y0111065D01*
X0275283Y0110914D01*
X0275230Y0110765D01*
X0275174Y0110617D01*
X0275114Y0110471D01*
X0275050Y0110326D01*
X0274982Y0110183D01*
X0274911Y0110041D01*
X0274837Y0109901D01*
X0274759Y0109764D01*
X0274677Y0109628D01*
X0274593Y0109494D01*
X0274504Y0109363D01*
X0274413Y0109234D01*
X0274318Y0109107D01*
X0274221Y0108982D01*
X0274120Y0108860D01*
X0274016Y0108741D01*
X0273909Y0108624D01*
X0273799Y0108510D01*
X0273686Y0108399D01*
X0273571Y0108290D01*
X0273453Y0108185D01*
X0273332Y0108083D01*
X0273209Y0107983D01*
X0273083Y0107887D01*
X0272955Y0107794D01*
X0272825Y0107704D01*
X0272692Y0107618D01*
X0272557Y0107534D01*
X0272421Y0107455D01*
X0272282Y0107378D01*
X0272141Y0107306D01*
X0271999Y0107236D01*
X0271855Y0107171D01*
X0271709Y0107109D01*
X0271562Y0107051D01*
X0271413Y0106996D01*
X0271263Y0106945D01*
X0271112Y0106898D01*
X0270960Y0106855D01*
X0270807Y0106816D01*
X0270652Y0106780D01*
X0270497Y0106749D01*
X0270341Y0106721D01*
X0270185Y0106697D01*
X0270028Y0106677D01*
X0269870Y0106661D01*
X0269713Y0106649D01*
X0269554Y0106641D01*
X0269396Y0106637D01*
X0269238Y0106637D01*
X0269080Y0106641D01*
X0268921Y0106649D01*
X0268764Y0106661D01*
X0268606Y0106677D01*
X0268449Y0106697D01*
X0268293Y0106721D01*
X0268137Y0106749D01*
X0267982Y0106780D01*
X0267827Y0106816D01*
X0267674Y0106855D01*
X0267522Y0106898D01*
X0267371Y0106945D01*
X0267221Y0106996D01*
X0267072Y0107051D01*
X0266925Y0107109D01*
X0266779Y0107171D01*
X0266635Y0107236D01*
X0266493Y0107306D01*
X0266352Y0107378D01*
X0266213Y0107455D01*
X0266077Y0107534D01*
X0265942Y0107618D01*
X0265809Y0107704D01*
X0265679Y0107794D01*
X0265551Y0107887D01*
X0265425Y0107983D01*
X0265302Y0108083D01*
X0265181Y0108185D01*
X0265063Y0108290D01*
X0264948Y0108399D01*
X0264835Y0108510D01*
X0264725Y0108624D01*
X0264618Y0108741D01*
X0264514Y0108860D01*
X0264413Y0108982D01*
X0264316Y0109107D01*
X0264221Y0109234D01*
X0264130Y0109363D01*
X0264041Y0109494D01*
X0263957Y0109628D01*
X0263875Y0109764D01*
X0263797Y0109901D01*
X0263723Y0110041D01*
X0263652Y0110183D01*
X0263584Y0110326D01*
X0263520Y0110471D01*
X0263460Y0110617D01*
X0263404Y0110765D01*
X0263351Y0110914D01*
X0263302Y0111065D01*
X0263257Y0111217D01*
X0263216Y0111370D01*
X0263178Y0111523D01*
X0263145Y0111678D01*
X0263115Y0111834D01*
X0263089Y0111990D01*
X0263068Y0112147D01*
X0263050Y0112304D01*
X0263036Y0112462D01*
X0263026Y0112620D01*
X0263020Y0112778D01*
X0263018Y0112936D01*
X0241738Y0113901D02*
X0241740Y0113998D01*
X0241746Y0114095D01*
X0241756Y0114191D01*
X0241770Y0114287D01*
X0241788Y0114383D01*
X0241809Y0114477D01*
X0241835Y0114571D01*
X0241864Y0114663D01*
X0241898Y0114754D01*
X0241934Y0114844D01*
X0241975Y0114932D01*
X0242019Y0115018D01*
X0242067Y0115103D01*
X0242118Y0115185D01*
X0242172Y0115266D01*
X0242230Y0115344D01*
X0242291Y0115419D01*
X0242354Y0115492D01*
X0242421Y0115563D01*
X0242491Y0115630D01*
X0242563Y0115695D01*
X0242638Y0115756D01*
X0242716Y0115815D01*
X0242795Y0115870D01*
X0242877Y0115922D01*
X0242961Y0115970D01*
X0243047Y0116015D01*
X0243135Y0116057D01*
X0243224Y0116095D01*
X0243315Y0116129D01*
X0243407Y0116159D01*
X0243500Y0116186D01*
X0243595Y0116208D01*
X0243690Y0116227D01*
X0243786Y0116242D01*
X0243882Y0116253D01*
X0243979Y0116260D01*
X0244076Y0116263D01*
X0244173Y0116262D01*
X0244270Y0116257D01*
X0244366Y0116248D01*
X0244462Y0116235D01*
X0244558Y0116218D01*
X0244653Y0116197D01*
X0244746Y0116173D01*
X0244839Y0116144D01*
X0244931Y0116112D01*
X0245021Y0116076D01*
X0245109Y0116037D01*
X0245196Y0115993D01*
X0245281Y0115947D01*
X0245364Y0115896D01*
X0245445Y0115843D01*
X0245523Y0115786D01*
X0245600Y0115726D01*
X0245673Y0115663D01*
X0245744Y0115597D01*
X0245812Y0115528D01*
X0245878Y0115456D01*
X0245940Y0115382D01*
X0245999Y0115305D01*
X0246055Y0115226D01*
X0246108Y0115144D01*
X0246158Y0115061D01*
X0246203Y0114975D01*
X0246246Y0114888D01*
X0246285Y0114799D01*
X0246320Y0114709D01*
X0246351Y0114617D01*
X0246378Y0114524D01*
X0246402Y0114430D01*
X0246422Y0114335D01*
X0246438Y0114239D01*
X0246450Y0114143D01*
X0246458Y0114046D01*
X0246462Y0113949D01*
X0246462Y0113853D01*
X0246458Y0113756D01*
X0246450Y0113659D01*
X0246438Y0113563D01*
X0246422Y0113467D01*
X0246402Y0113372D01*
X0246378Y0113278D01*
X0246351Y0113185D01*
X0246320Y0113093D01*
X0246285Y0113003D01*
X0246246Y0112914D01*
X0246203Y0112827D01*
X0246158Y0112741D01*
X0246108Y0112658D01*
X0246055Y0112576D01*
X0245999Y0112497D01*
X0245940Y0112420D01*
X0245878Y0112346D01*
X0245812Y0112274D01*
X0245744Y0112205D01*
X0245673Y0112139D01*
X0245600Y0112076D01*
X0245523Y0112016D01*
X0245445Y0111959D01*
X0245364Y0111906D01*
X0245281Y0111855D01*
X0245196Y0111809D01*
X0245109Y0111765D01*
X0245021Y0111726D01*
X0244931Y0111690D01*
X0244839Y0111658D01*
X0244746Y0111629D01*
X0244653Y0111605D01*
X0244558Y0111584D01*
X0244462Y0111567D01*
X0244366Y0111554D01*
X0244270Y0111545D01*
X0244173Y0111540D01*
X0244076Y0111539D01*
X0243979Y0111542D01*
X0243882Y0111549D01*
X0243786Y0111560D01*
X0243690Y0111575D01*
X0243595Y0111594D01*
X0243500Y0111616D01*
X0243407Y0111643D01*
X0243315Y0111673D01*
X0243224Y0111707D01*
X0243135Y0111745D01*
X0243047Y0111787D01*
X0242961Y0111832D01*
X0242877Y0111880D01*
X0242795Y0111932D01*
X0242716Y0111987D01*
X0242638Y0112046D01*
X0242563Y0112107D01*
X0242491Y0112172D01*
X0242421Y0112239D01*
X0242354Y0112310D01*
X0242291Y0112383D01*
X0242230Y0112458D01*
X0242172Y0112536D01*
X0242118Y0112617D01*
X0242067Y0112699D01*
X0242019Y0112784D01*
X0241975Y0112870D01*
X0241934Y0112958D01*
X0241898Y0113048D01*
X0241864Y0113139D01*
X0241835Y0113231D01*
X0241809Y0113325D01*
X0241788Y0113419D01*
X0241770Y0113515D01*
X0241756Y0113611D01*
X0241746Y0113707D01*
X0241740Y0113804D01*
X0241738Y0113901D01*
X0105537Y0112936D02*
X0105539Y0113094D01*
X0105545Y0113252D01*
X0105555Y0113410D01*
X0105569Y0113568D01*
X0105587Y0113725D01*
X0105608Y0113882D01*
X0105634Y0114038D01*
X0105664Y0114194D01*
X0105697Y0114349D01*
X0105735Y0114502D01*
X0105776Y0114655D01*
X0105821Y0114807D01*
X0105870Y0114958D01*
X0105923Y0115107D01*
X0105979Y0115255D01*
X0106039Y0115401D01*
X0106103Y0115546D01*
X0106171Y0115689D01*
X0106242Y0115831D01*
X0106316Y0115971D01*
X0106394Y0116108D01*
X0106476Y0116244D01*
X0106560Y0116378D01*
X0106649Y0116509D01*
X0106740Y0116638D01*
X0106835Y0116765D01*
X0106932Y0116890D01*
X0107033Y0117012D01*
X0107137Y0117131D01*
X0107244Y0117248D01*
X0107354Y0117362D01*
X0107467Y0117473D01*
X0107582Y0117582D01*
X0107700Y0117687D01*
X0107821Y0117789D01*
X0107944Y0117889D01*
X0108070Y0117985D01*
X0108198Y0118078D01*
X0108328Y0118168D01*
X0108461Y0118254D01*
X0108596Y0118338D01*
X0108732Y0118417D01*
X0108871Y0118494D01*
X0109012Y0118566D01*
X0109154Y0118636D01*
X0109298Y0118701D01*
X0109444Y0118763D01*
X0109591Y0118821D01*
X0109740Y0118876D01*
X0109890Y0118927D01*
X0110041Y0118974D01*
X0110193Y0119017D01*
X0110346Y0119056D01*
X0110501Y0119092D01*
X0110656Y0119123D01*
X0110812Y0119151D01*
X0110968Y0119175D01*
X0111125Y0119195D01*
X0111283Y0119211D01*
X0111440Y0119223D01*
X0111599Y0119231D01*
X0111757Y0119235D01*
X0111915Y0119235D01*
X0112073Y0119231D01*
X0112232Y0119223D01*
X0112389Y0119211D01*
X0112547Y0119195D01*
X0112704Y0119175D01*
X0112860Y0119151D01*
X0113016Y0119123D01*
X0113171Y0119092D01*
X0113326Y0119056D01*
X0113479Y0119017D01*
X0113631Y0118974D01*
X0113782Y0118927D01*
X0113932Y0118876D01*
X0114081Y0118821D01*
X0114228Y0118763D01*
X0114374Y0118701D01*
X0114518Y0118636D01*
X0114660Y0118566D01*
X0114801Y0118494D01*
X0114940Y0118417D01*
X0115076Y0118338D01*
X0115211Y0118254D01*
X0115344Y0118168D01*
X0115474Y0118078D01*
X0115602Y0117985D01*
X0115728Y0117889D01*
X0115851Y0117789D01*
X0115972Y0117687D01*
X0116090Y0117582D01*
X0116205Y0117473D01*
X0116318Y0117362D01*
X0116428Y0117248D01*
X0116535Y0117131D01*
X0116639Y0117012D01*
X0116740Y0116890D01*
X0116837Y0116765D01*
X0116932Y0116638D01*
X0117023Y0116509D01*
X0117112Y0116378D01*
X0117196Y0116244D01*
X0117278Y0116108D01*
X0117356Y0115971D01*
X0117430Y0115831D01*
X0117501Y0115689D01*
X0117569Y0115546D01*
X0117633Y0115401D01*
X0117693Y0115255D01*
X0117749Y0115107D01*
X0117802Y0114958D01*
X0117851Y0114807D01*
X0117896Y0114655D01*
X0117937Y0114502D01*
X0117975Y0114349D01*
X0118008Y0114194D01*
X0118038Y0114038D01*
X0118064Y0113882D01*
X0118085Y0113725D01*
X0118103Y0113568D01*
X0118117Y0113410D01*
X0118127Y0113252D01*
X0118133Y0113094D01*
X0118135Y0112936D01*
X0118133Y0112778D01*
X0118127Y0112620D01*
X0118117Y0112462D01*
X0118103Y0112304D01*
X0118085Y0112147D01*
X0118064Y0111990D01*
X0118038Y0111834D01*
X0118008Y0111678D01*
X0117975Y0111523D01*
X0117937Y0111370D01*
X0117896Y0111217D01*
X0117851Y0111065D01*
X0117802Y0110914D01*
X0117749Y0110765D01*
X0117693Y0110617D01*
X0117633Y0110471D01*
X0117569Y0110326D01*
X0117501Y0110183D01*
X0117430Y0110041D01*
X0117356Y0109901D01*
X0117278Y0109764D01*
X0117196Y0109628D01*
X0117112Y0109494D01*
X0117023Y0109363D01*
X0116932Y0109234D01*
X0116837Y0109107D01*
X0116740Y0108982D01*
X0116639Y0108860D01*
X0116535Y0108741D01*
X0116428Y0108624D01*
X0116318Y0108510D01*
X0116205Y0108399D01*
X0116090Y0108290D01*
X0115972Y0108185D01*
X0115851Y0108083D01*
X0115728Y0107983D01*
X0115602Y0107887D01*
X0115474Y0107794D01*
X0115344Y0107704D01*
X0115211Y0107618D01*
X0115076Y0107534D01*
X0114940Y0107455D01*
X0114801Y0107378D01*
X0114660Y0107306D01*
X0114518Y0107236D01*
X0114374Y0107171D01*
X0114228Y0107109D01*
X0114081Y0107051D01*
X0113932Y0106996D01*
X0113782Y0106945D01*
X0113631Y0106898D01*
X0113479Y0106855D01*
X0113326Y0106816D01*
X0113171Y0106780D01*
X0113016Y0106749D01*
X0112860Y0106721D01*
X0112704Y0106697D01*
X0112547Y0106677D01*
X0112389Y0106661D01*
X0112232Y0106649D01*
X0112073Y0106641D01*
X0111915Y0106637D01*
X0111757Y0106637D01*
X0111599Y0106641D01*
X0111440Y0106649D01*
X0111283Y0106661D01*
X0111125Y0106677D01*
X0110968Y0106697D01*
X0110812Y0106721D01*
X0110656Y0106749D01*
X0110501Y0106780D01*
X0110346Y0106816D01*
X0110193Y0106855D01*
X0110041Y0106898D01*
X0109890Y0106945D01*
X0109740Y0106996D01*
X0109591Y0107051D01*
X0109444Y0107109D01*
X0109298Y0107171D01*
X0109154Y0107236D01*
X0109012Y0107306D01*
X0108871Y0107378D01*
X0108732Y0107455D01*
X0108596Y0107534D01*
X0108461Y0107618D01*
X0108328Y0107704D01*
X0108198Y0107794D01*
X0108070Y0107887D01*
X0107944Y0107983D01*
X0107821Y0108083D01*
X0107700Y0108185D01*
X0107582Y0108290D01*
X0107467Y0108399D01*
X0107354Y0108510D01*
X0107244Y0108624D01*
X0107137Y0108741D01*
X0107033Y0108860D01*
X0106932Y0108982D01*
X0106835Y0109107D01*
X0106740Y0109234D01*
X0106649Y0109363D01*
X0106560Y0109494D01*
X0106476Y0109628D01*
X0106394Y0109764D01*
X0106316Y0109901D01*
X0106242Y0110041D01*
X0106171Y0110183D01*
X0106103Y0110326D01*
X0106039Y0110471D01*
X0105979Y0110617D01*
X0105923Y0110765D01*
X0105870Y0110914D01*
X0105821Y0111065D01*
X0105776Y0111217D01*
X0105735Y0111370D01*
X0105697Y0111523D01*
X0105664Y0111678D01*
X0105634Y0111834D01*
X0105608Y0111990D01*
X0105587Y0112147D01*
X0105569Y0112304D01*
X0105555Y0112462D01*
X0105545Y0112620D01*
X0105539Y0112778D01*
X0105537Y0112936D01*
D11*
X0131088Y0113950D03*
X0142112Y0113950D03*
X0156088Y0113950D03*
X0167112Y0113950D03*
X0094612Y0085200D03*
X0083588Y0085200D03*
X0019612Y0065200D03*
X0008588Y0065200D03*
X0008588Y0033950D03*
X0019612Y0033950D03*
X0226088Y0045200D03*
X0237112Y0045200D03*
X0237112Y0057700D03*
X0226088Y0057700D03*
D12*
X0111600Y0084688D03*
X0111600Y0095712D03*
D13*
X0072673Y0111529D03*
X0064799Y0111529D03*
X0056925Y0111529D03*
X0049051Y0111529D03*
X0041177Y0111529D03*
X0033303Y0111529D03*
X0025429Y0111529D03*
X0017555Y0111529D03*
X0009681Y0111529D03*
X0095350Y0075200D03*
X0103913Y0068950D03*
X0111787Y0068950D03*
X0111600Y0025200D03*
X0103726Y0025200D03*
X0119474Y0025200D03*
X0092673Y0014029D03*
X0084799Y0014029D03*
X0076925Y0014029D03*
X0069051Y0014029D03*
X0061177Y0014029D03*
X0053303Y0014029D03*
X0045429Y0014029D03*
X0037555Y0014029D03*
X0029681Y0014029D03*
X0127791Y0010200D03*
X0135665Y0010200D03*
X0143539Y0010200D03*
X0151413Y0010200D03*
X0159287Y0010200D03*
X0167161Y0010200D03*
X0175035Y0010200D03*
X0182909Y0010200D03*
X0208165Y0010200D03*
X0216039Y0010200D03*
X0223913Y0010200D03*
X0231787Y0010200D03*
X0239661Y0010200D03*
X0247535Y0010200D03*
X0246285Y0023950D03*
X0254159Y0023950D03*
X0238411Y0023950D03*
X0230537Y0023950D03*
X0222663Y0023950D03*
X0214789Y0023950D03*
X0206915Y0023950D03*
X0199041Y0023950D03*
X0286541Y0010200D03*
X0294415Y0010200D03*
X0302289Y0010200D03*
X0310163Y0010200D03*
X0318037Y0010200D03*
X0325911Y0010200D03*
X0333785Y0010200D03*
X0341659Y0010200D03*
X0349100Y0015889D03*
X0349100Y0023763D03*
X0349100Y0031637D03*
X0349100Y0039511D03*
D14*
G36*
X0202203Y0055921D02*
X0203759Y0057477D01*
X0207081Y0054155D01*
X0205525Y0052599D01*
X0202203Y0055921D01*
G37*
G36*
X0200011Y0053729D02*
X0201567Y0055285D01*
X0204889Y0051963D01*
X0203333Y0050407D01*
X0200011Y0053729D01*
G37*
G36*
X0197819Y0051537D02*
X0199375Y0053093D01*
X0202697Y0049771D01*
X0201141Y0048215D01*
X0197819Y0051537D01*
G37*
G36*
X0195627Y0049345D02*
X0197183Y0050901D01*
X0200505Y0047579D01*
X0198949Y0046023D01*
X0195627Y0049345D01*
G37*
G36*
X0193435Y0047153D02*
X0194991Y0048709D01*
X0198313Y0045387D01*
X0196757Y0043831D01*
X0193435Y0047153D01*
G37*
G36*
X0191243Y0044961D02*
X0192799Y0046517D01*
X0196121Y0043195D01*
X0194565Y0041639D01*
X0191243Y0044961D01*
G37*
G36*
X0189051Y0042769D02*
X0190607Y0044325D01*
X0193929Y0041003D01*
X0192373Y0039447D01*
X0189051Y0042769D01*
G37*
G36*
X0186859Y0040577D02*
X0188415Y0042133D01*
X0191737Y0038811D01*
X0190181Y0037255D01*
X0186859Y0040577D01*
G37*
G36*
X0184667Y0038385D02*
X0186223Y0039941D01*
X0189545Y0036619D01*
X0187989Y0035063D01*
X0184667Y0038385D01*
G37*
G36*
X0182475Y0036193D02*
X0184031Y0037749D01*
X0187353Y0034427D01*
X0185797Y0032871D01*
X0182475Y0036193D01*
G37*
G36*
X0180283Y0034001D02*
X0181839Y0035557D01*
X0185161Y0032235D01*
X0183605Y0030679D01*
X0180283Y0034001D01*
G37*
G36*
X0178091Y0031809D02*
X0179647Y0033365D01*
X0182969Y0030043D01*
X0181413Y0028487D01*
X0178091Y0031809D01*
G37*
G36*
X0175899Y0029617D02*
X0177455Y0031173D01*
X0180777Y0027851D01*
X0179221Y0026295D01*
X0175899Y0029617D01*
G37*
G36*
X0173707Y0027425D02*
X0175263Y0028981D01*
X0178585Y0025659D01*
X0177029Y0024103D01*
X0173707Y0027425D01*
G37*
G36*
X0171515Y0025233D02*
X0173071Y0026789D01*
X0176393Y0023467D01*
X0174837Y0021911D01*
X0171515Y0025233D01*
G37*
G36*
X0169323Y0023041D02*
X0170879Y0024597D01*
X0174201Y0021275D01*
X0172645Y0019719D01*
X0169323Y0023041D01*
G37*
G36*
X0126119Y0066245D02*
X0127675Y0067801D01*
X0130997Y0064479D01*
X0129441Y0062923D01*
X0126119Y0066245D01*
G37*
G36*
X0128311Y0068437D02*
X0129867Y0069993D01*
X0133189Y0066671D01*
X0131633Y0065115D01*
X0128311Y0068437D01*
G37*
G36*
X0130503Y0070629D02*
X0132059Y0072185D01*
X0135381Y0068863D01*
X0133825Y0067307D01*
X0130503Y0070629D01*
G37*
G36*
X0132695Y0072821D02*
X0134251Y0074377D01*
X0137573Y0071055D01*
X0136017Y0069499D01*
X0132695Y0072821D01*
G37*
G36*
X0134887Y0075013D02*
X0136443Y0076569D01*
X0139765Y0073247D01*
X0138209Y0071691D01*
X0134887Y0075013D01*
G37*
G36*
X0137079Y0077205D02*
X0138635Y0078761D01*
X0141957Y0075439D01*
X0140401Y0073883D01*
X0137079Y0077205D01*
G37*
G36*
X0139271Y0079397D02*
X0140827Y0080953D01*
X0144149Y0077631D01*
X0142593Y0076075D01*
X0139271Y0079397D01*
G37*
G36*
X0141463Y0081589D02*
X0143019Y0083145D01*
X0146341Y0079823D01*
X0144785Y0078267D01*
X0141463Y0081589D01*
G37*
G36*
X0143655Y0083781D02*
X0145211Y0085337D01*
X0148533Y0082015D01*
X0146977Y0080459D01*
X0143655Y0083781D01*
G37*
G36*
X0145847Y0085973D02*
X0147403Y0087529D01*
X0150725Y0084207D01*
X0149169Y0082651D01*
X0145847Y0085973D01*
G37*
G36*
X0148039Y0088165D02*
X0149595Y0089721D01*
X0152917Y0086399D01*
X0151361Y0084843D01*
X0148039Y0088165D01*
G37*
G36*
X0150231Y0090357D02*
X0151787Y0091913D01*
X0155109Y0088591D01*
X0153553Y0087035D01*
X0150231Y0090357D01*
G37*
G36*
X0152423Y0092549D02*
X0153979Y0094105D01*
X0157301Y0090783D01*
X0155745Y0089227D01*
X0152423Y0092549D01*
G37*
G36*
X0154615Y0094741D02*
X0156171Y0096297D01*
X0159493Y0092975D01*
X0157937Y0091419D01*
X0154615Y0094741D01*
G37*
G36*
X0156807Y0096933D02*
X0158363Y0098489D01*
X0161685Y0095167D01*
X0160129Y0093611D01*
X0156807Y0096933D01*
G37*
G36*
X0158999Y0099125D02*
X0160555Y0100681D01*
X0163877Y0097359D01*
X0162321Y0095803D01*
X0158999Y0099125D01*
G37*
D15*
G36*
X0169323Y0097359D02*
X0172645Y0100681D01*
X0174201Y0099125D01*
X0170879Y0095803D01*
X0169323Y0097359D01*
G37*
G36*
X0171515Y0095167D02*
X0174837Y0098489D01*
X0176393Y0096933D01*
X0173071Y0093611D01*
X0171515Y0095167D01*
G37*
G36*
X0173707Y0092975D02*
X0177029Y0096297D01*
X0178585Y0094741D01*
X0175263Y0091419D01*
X0173707Y0092975D01*
G37*
G36*
X0175899Y0090783D02*
X0179221Y0094105D01*
X0180777Y0092549D01*
X0177455Y0089227D01*
X0175899Y0090783D01*
G37*
G36*
X0178091Y0088591D02*
X0181413Y0091913D01*
X0182969Y0090357D01*
X0179647Y0087035D01*
X0178091Y0088591D01*
G37*
G36*
X0180283Y0086399D02*
X0183605Y0089721D01*
X0185161Y0088165D01*
X0181839Y0084843D01*
X0180283Y0086399D01*
G37*
G36*
X0182475Y0084207D02*
X0185797Y0087529D01*
X0187353Y0085973D01*
X0184031Y0082651D01*
X0182475Y0084207D01*
G37*
G36*
X0184667Y0082015D02*
X0187989Y0085337D01*
X0189545Y0083781D01*
X0186223Y0080459D01*
X0184667Y0082015D01*
G37*
G36*
X0186859Y0079823D02*
X0190181Y0083145D01*
X0191737Y0081589D01*
X0188415Y0078267D01*
X0186859Y0079823D01*
G37*
G36*
X0189051Y0077631D02*
X0192373Y0080953D01*
X0193929Y0079397D01*
X0190607Y0076075D01*
X0189051Y0077631D01*
G37*
G36*
X0191243Y0075439D02*
X0194565Y0078761D01*
X0196121Y0077205D01*
X0192799Y0073883D01*
X0191243Y0075439D01*
G37*
G36*
X0193435Y0073247D02*
X0196757Y0076569D01*
X0198313Y0075013D01*
X0194991Y0071691D01*
X0193435Y0073247D01*
G37*
G36*
X0195627Y0071055D02*
X0198949Y0074377D01*
X0200505Y0072821D01*
X0197183Y0069499D01*
X0195627Y0071055D01*
G37*
G36*
X0197819Y0068863D02*
X0201141Y0072185D01*
X0202697Y0070629D01*
X0199375Y0067307D01*
X0197819Y0068863D01*
G37*
G36*
X0200011Y0066671D02*
X0203333Y0069993D01*
X0204889Y0068437D01*
X0201567Y0065115D01*
X0200011Y0066671D01*
G37*
G36*
X0202203Y0064479D02*
X0205525Y0067801D01*
X0207081Y0066245D01*
X0203759Y0062923D01*
X0202203Y0064479D01*
G37*
G36*
X0139271Y0041003D02*
X0142593Y0044325D01*
X0144149Y0042769D01*
X0140827Y0039447D01*
X0139271Y0041003D01*
G37*
G36*
X0141463Y0038811D02*
X0144785Y0042133D01*
X0146341Y0040577D01*
X0143019Y0037255D01*
X0141463Y0038811D01*
G37*
G36*
X0143655Y0036619D02*
X0146977Y0039941D01*
X0148533Y0038385D01*
X0145211Y0035063D01*
X0143655Y0036619D01*
G37*
G36*
X0145847Y0034427D02*
X0149169Y0037749D01*
X0150725Y0036193D01*
X0147403Y0032871D01*
X0145847Y0034427D01*
G37*
G36*
X0148039Y0032235D02*
X0151361Y0035557D01*
X0152917Y0034001D01*
X0149595Y0030679D01*
X0148039Y0032235D01*
G37*
G36*
X0150231Y0030043D02*
X0153553Y0033365D01*
X0155109Y0031809D01*
X0151787Y0028487D01*
X0150231Y0030043D01*
G37*
G36*
X0152423Y0027851D02*
X0155745Y0031173D01*
X0157301Y0029617D01*
X0153979Y0026295D01*
X0152423Y0027851D01*
G37*
G36*
X0154615Y0025659D02*
X0157937Y0028981D01*
X0159493Y0027425D01*
X0156171Y0024103D01*
X0154615Y0025659D01*
G37*
G36*
X0156807Y0023467D02*
X0160129Y0026789D01*
X0161685Y0025233D01*
X0158363Y0021911D01*
X0156807Y0023467D01*
G37*
G36*
X0158999Y0021275D02*
X0162321Y0024597D01*
X0163877Y0023041D01*
X0160555Y0019719D01*
X0158999Y0021275D01*
G37*
G36*
X0137079Y0043195D02*
X0140401Y0046517D01*
X0141957Y0044961D01*
X0138635Y0041639D01*
X0137079Y0043195D01*
G37*
G36*
X0134887Y0045387D02*
X0138209Y0048709D01*
X0139765Y0047153D01*
X0136443Y0043831D01*
X0134887Y0045387D01*
G37*
G36*
X0132695Y0047579D02*
X0136017Y0050901D01*
X0137573Y0049345D01*
X0134251Y0046023D01*
X0132695Y0047579D01*
G37*
G36*
X0130503Y0049771D02*
X0133825Y0053093D01*
X0135381Y0051537D01*
X0132059Y0048215D01*
X0130503Y0049771D01*
G37*
G36*
X0128311Y0051963D02*
X0131633Y0055285D01*
X0133189Y0053729D01*
X0129867Y0050407D01*
X0128311Y0051963D01*
G37*
G36*
X0126119Y0054155D02*
X0129441Y0057477D01*
X0130997Y0055921D01*
X0127675Y0052599D01*
X0126119Y0054155D01*
G37*
D16*
X0124317Y0094422D03*
X0138883Y0094422D03*
X0138883Y0103478D03*
X0124317Y0103478D03*
D17*
X0112850Y0053298D03*
X0101600Y0053298D03*
X0101600Y0042102D03*
X0112850Y0042102D03*
X0347850Y0082102D03*
X0347850Y0093298D03*
D18*
X0325948Y0082700D03*
X0314752Y0082700D03*
X0294698Y0081450D03*
X0283502Y0081450D03*
X0291002Y0067700D03*
X0302198Y0067700D03*
X0299752Y0050200D03*
X0310948Y0050200D03*
X0314752Y0038950D03*
X0325948Y0038950D03*
X0327198Y0028950D03*
X0316002Y0028950D03*
X0097198Y0105200D03*
X0086002Y0105200D03*
X0019698Y0080200D03*
X0008502Y0080200D03*
X0008502Y0018950D03*
X0019698Y0018950D03*
D19*
X0041216Y0044678D03*
X0043775Y0044678D03*
X0046334Y0044678D03*
X0048893Y0044678D03*
X0051452Y0044678D03*
X0054011Y0044678D03*
X0056570Y0044678D03*
X0059130Y0044678D03*
X0061689Y0044678D03*
X0064248Y0044678D03*
X0066807Y0044678D03*
X0069366Y0044678D03*
X0071925Y0044678D03*
X0074484Y0044678D03*
X0074484Y0073222D03*
X0071925Y0073222D03*
X0069366Y0073222D03*
X0066807Y0073222D03*
X0064248Y0073222D03*
X0061689Y0073222D03*
X0059130Y0073222D03*
X0056570Y0073222D03*
X0054011Y0073222D03*
X0051452Y0073222D03*
X0048893Y0073222D03*
X0046334Y0073222D03*
X0043775Y0073222D03*
X0041216Y0073222D03*
D20*
X0326600Y0064200D03*
D21*
X0326600Y0056200D03*
D22*
X0349100Y0107316D03*
X0349100Y0115584D03*
D23*
X0256895Y0107602D03*
X0256895Y0095791D03*
X0256895Y0080043D03*
X0231305Y0075712D03*
D24*
X0295232Y0102385D03*
X0297791Y0102385D03*
X0300350Y0102385D03*
X0302909Y0102385D03*
X0305468Y0102385D03*
D25*
X0311078Y0113507D03*
X0289622Y0113507D03*
D26*
X0214100Y0115700D02*
X0214100Y0109700D01*
X0204100Y0109700D02*
X0204100Y0115700D01*
X0194100Y0115700D02*
X0194100Y0109700D01*
X0184100Y0109700D02*
X0184100Y0115700D01*
X0343600Y0065200D02*
X0349600Y0065200D01*
X0349600Y0055200D02*
X0343600Y0055200D01*
D27*
X0339474Y0108300D03*
X0323726Y0108300D03*
X0323726Y0114600D03*
X0339474Y0114600D03*
D28*
X0331600Y0105840D03*
D29*
X0324100Y0108300D02*
X0324100Y0108950D01*
X0339100Y0108950D01*
X0339474Y0108300D01*
X0339600Y0108300D01*
X0339600Y0072300D01*
X0338800Y0071900D01*
X0331200Y0064300D01*
X0326800Y0064300D01*
X0326600Y0064200D01*
X0326000Y0063500D01*
X0307200Y0063500D01*
X0306000Y0062300D01*
X0298400Y0062300D01*
X0296000Y0064700D01*
X0296000Y0071900D01*
X0292000Y0075900D01*
X0290800Y0075900D01*
X0288400Y0078300D01*
X0288400Y0094550D01*
X0284300Y0098650D01*
X0284300Y0103500D01*
X0287950Y0107150D01*
X0293650Y0107150D01*
X0295200Y0105600D01*
X0295200Y0102700D01*
X0295232Y0102385D01*
X0305468Y0102385D02*
X0305600Y0102300D01*
X0305600Y0091500D01*
X0314400Y0082700D01*
X0314752Y0082700D01*
X0315600Y0082300D01*
X0320400Y0082300D01*
X0347600Y0081900D02*
X0347600Y0075900D01*
X0339600Y0072300D02*
X0346400Y0065500D01*
X0346600Y0065200D01*
X0326600Y0056200D02*
X0326400Y0056300D01*
X0293200Y0056300D01*
X0269600Y0079900D01*
X0257200Y0079900D01*
X0256895Y0080043D01*
X0259600Y0079100D01*
X0259600Y0061500D01*
X0269650Y0051450D01*
X0269650Y0035400D01*
X0237112Y0045200D02*
X0237200Y0045500D01*
X0237200Y0050700D01*
X0217450Y0050700D01*
X0215450Y0047450D01*
X0207650Y0047450D01*
X0202800Y0052300D01*
X0202450Y0052846D01*
X0202400Y0053100D01*
X0200400Y0055100D01*
X0198800Y0055100D01*
X0189800Y0046100D01*
X0153200Y0082700D01*
X0153200Y0084300D01*
X0150800Y0086700D01*
X0150478Y0087282D01*
X0150400Y0087500D01*
X0147600Y0090300D01*
X0147600Y0091100D01*
X0146800Y0091100D01*
X0147600Y0091100D02*
X0147600Y0105500D01*
X0156000Y0113900D01*
X0156088Y0113950D01*
X0166800Y0114300D02*
X0167112Y0113950D01*
X0166800Y0114300D02*
X0150400Y0097900D01*
X0150400Y0091500D01*
X0152400Y0089500D01*
X0152670Y0089474D01*
X0153200Y0089100D01*
X0154800Y0087500D01*
X0162800Y0087500D01*
X0172800Y0077500D01*
X0184800Y0077500D01*
X0185600Y0077100D01*
X0189200Y0080700D01*
X0189298Y0080706D01*
X0185600Y0077100D02*
X0185600Y0070300D01*
X0188400Y0067500D01*
X0198000Y0067500D01*
X0200000Y0069500D01*
X0200258Y0069746D01*
X0200800Y0070300D01*
X0202400Y0071900D01*
X0204400Y0071900D01*
X0206000Y0070300D01*
X0209600Y0066700D02*
X0209600Y0060700D01*
X0204800Y0055900D01*
X0204642Y0055038D01*
X0204800Y0054700D01*
X0207600Y0051900D01*
X0210500Y0050650D01*
X0189800Y0046100D02*
X0178400Y0034700D01*
X0178400Y0033100D01*
X0180400Y0031100D01*
X0180530Y0030926D01*
X0178338Y0028734D02*
X0178000Y0029100D01*
X0175200Y0031900D01*
X0115200Y0036700D02*
X0113200Y0038700D01*
X0113200Y0041500D01*
X0112850Y0042102D01*
X0112800Y0042300D01*
X0101600Y0042300D01*
X0101600Y0042102D01*
X0101200Y0041500D01*
X0099200Y0039500D01*
X0099200Y0011500D01*
X0095600Y0007900D01*
X0021600Y0007900D01*
X0014800Y0014700D01*
X0014800Y0023500D01*
X0019600Y0028300D01*
X0019600Y0033100D01*
X0019612Y0033950D01*
X0040975Y0033950D01*
X0043475Y0036450D01*
X0043787Y0041763D01*
X0043775Y0044678D01*
X0051452Y0044678D02*
X0051452Y0061598D01*
X0047850Y0063950D01*
X0066807Y0073222D02*
X0066800Y0073500D01*
X0066800Y0077100D01*
X0074800Y0085100D01*
X0083200Y0085100D01*
X0083588Y0085200D01*
X0084000Y0085900D01*
X0086000Y0087900D01*
X0086000Y0105100D01*
X0086002Y0105200D01*
X0086800Y0105500D01*
X0092000Y0110700D01*
X0101200Y0110700D01*
X0112200Y0099700D01*
X0111600Y0099100D01*
X0111600Y0095712D01*
X0112400Y0095500D01*
X0116800Y0091100D01*
X0112200Y0099700D02*
X0126400Y0113900D01*
X0130800Y0113900D01*
X0131088Y0113950D01*
X0194000Y0076700D02*
X0220800Y0103500D01*
X0284300Y0103500D01*
X0323726Y0108300D02*
X0324100Y0108300D01*
X0323726Y0114600D02*
X0339474Y0114600D01*
X0347850Y0082102D02*
X0347600Y0081900D01*
X0237200Y0057500D02*
X0237200Y0050700D01*
X0237200Y0057500D02*
X0237112Y0057700D01*
X0236400Y0058300D01*
X0231600Y0063100D01*
X0231600Y0075500D01*
X0231305Y0075712D01*
X0194000Y0076700D02*
X0193682Y0076322D01*
X0193200Y0075900D01*
X0188800Y0071500D01*
X0103726Y0025200D02*
X0103600Y0025100D01*
X0103600Y0011900D01*
X0096800Y0005100D01*
X0020400Y0005100D01*
X0009200Y0016300D01*
X0009200Y0018300D01*
X0008502Y0018950D01*
X0008800Y0019100D01*
X0008800Y0033900D01*
X0008588Y0033950D01*
X0008800Y0034700D01*
X0008800Y0053950D01*
X0012850Y0051450D01*
X0008800Y0053950D02*
X0008800Y0065100D01*
X0008588Y0065200D01*
X0019200Y0065900D02*
X0019612Y0065200D01*
X0019600Y0065100D01*
X0019600Y0034300D01*
X0019612Y0033950D01*
X0019200Y0065900D02*
X0008800Y0076300D01*
X0008800Y0079900D01*
X0008502Y0080200D01*
D30*
X0066000Y0064700D03*
X0069600Y0064700D03*
X0047450Y0053650D03*
X0043000Y0055300D03*
X0082900Y0048700D03*
X0106800Y0048700D03*
X0125200Y0051500D03*
X0144800Y0062300D03*
X0134400Y0064700D03*
X0150400Y0074700D03*
X0123200Y0080300D03*
X0118850Y0082700D03*
X0100000Y0087100D03*
X0154400Y0097500D03*
X0156800Y0099900D03*
X0171200Y0092300D03*
X0180800Y0095500D03*
X0184800Y0093500D03*
X0187600Y0095900D03*
X0194800Y0093500D03*
X0199600Y0086700D03*
X0194800Y0081900D03*
X0212400Y0080300D03*
X0224000Y0078300D03*
X0206000Y0070300D03*
X0209600Y0066700D03*
X0213200Y0066700D03*
X0217200Y0066700D03*
X0204800Y0060300D03*
X0197600Y0062700D03*
X0220800Y0058300D03*
X0250400Y0051100D03*
X0257600Y0051100D03*
X0263600Y0048700D03*
X0280400Y0058300D03*
X0278000Y0060700D03*
X0265200Y0065100D03*
X0262800Y0067500D03*
X0286000Y0072700D03*
X0245600Y0079900D03*
X0245600Y0093500D03*
X0239600Y0095900D03*
X0239600Y0107500D03*
X0191600Y0103900D03*
X0156400Y0084300D03*
X0162400Y0040300D03*
X0165600Y0039500D03*
X0144800Y0028700D03*
X0148800Y0028300D03*
X0165600Y0028300D03*
X0179600Y0023100D03*
X0185600Y0018300D03*
X0190400Y0020700D03*
X0167600Y0016700D03*
X0164000Y0020300D03*
X0195200Y0005100D03*
X0248400Y0015100D03*
X0309600Y0043900D03*
X0347600Y0075900D03*
X0317800Y0105100D03*
X0343950Y0115650D03*
D31*
X0320400Y0082300D03*
X0210500Y0050650D03*
X0175200Y0031900D03*
X0115200Y0036700D03*
X0047850Y0063950D03*
X0012850Y0051450D03*
X0116800Y0091100D03*
X0146800Y0091100D03*
X0188800Y0071500D03*
X0269650Y0035400D03*
D32*
X0263800Y0034700D02*
X0246711Y0034700D01*
X0245600Y0035811D02*
X0245600Y0063589D01*
X0246489Y0062700D02*
X0240938Y0062700D01*
X0240879Y0062734D02*
X0240472Y0062843D01*
X0237712Y0062843D01*
X0237712Y0058300D01*
X0241861Y0058300D01*
X0241861Y0061454D01*
X0241752Y0061861D01*
X0241542Y0062226D01*
X0241244Y0062524D01*
X0240879Y0062734D01*
X0241600Y0062125D02*
X0241600Y0071589D01*
X0242489Y0070700D02*
X0213111Y0070700D01*
X0213600Y0071189D02*
X0213600Y0069700D01*
X0213797Y0069700D02*
X0212603Y0069700D01*
X0211763Y0069352D01*
X0218511Y0076100D01*
X0221957Y0076100D01*
X0222301Y0075757D01*
X0223403Y0075300D01*
X0224597Y0075300D01*
X0225699Y0075757D01*
X0226236Y0076293D01*
X0230724Y0076293D01*
X0230724Y0075131D01*
X0231886Y0075131D01*
X0231886Y0076293D01*
X0236896Y0076293D01*
X0244200Y0068989D01*
X0244200Y0064989D01*
X0255723Y0053466D01*
X0255557Y0053300D01*
X0252443Y0053300D01*
X0252099Y0053643D01*
X0250997Y0054100D01*
X0249803Y0054100D01*
X0248701Y0053643D01*
X0247857Y0052799D01*
X0247400Y0051697D01*
X0247400Y0050503D01*
X0247857Y0049401D01*
X0248701Y0048557D01*
X0249803Y0048100D01*
X0250997Y0048100D01*
X0252099Y0048557D01*
X0252443Y0048900D01*
X0255557Y0048900D01*
X0255901Y0048557D01*
X0257003Y0048100D01*
X0258197Y0048100D01*
X0259299Y0048557D01*
X0259966Y0049223D01*
X0260600Y0048589D01*
X0260600Y0048103D01*
X0261057Y0047001D01*
X0261901Y0046157D01*
X0263003Y0045700D01*
X0263800Y0045700D01*
X0263800Y0030811D01*
X0258494Y0025505D01*
X0258059Y0026556D01*
X0256765Y0027850D01*
X0255074Y0028550D01*
X0253244Y0028550D01*
X0252973Y0028438D01*
X0241311Y0040100D01*
X0240634Y0040100D01*
X0240879Y0040166D01*
X0241244Y0040376D01*
X0241542Y0040674D01*
X0241752Y0041039D01*
X0241861Y0041446D01*
X0241861Y0044600D01*
X0237712Y0044600D01*
X0237712Y0045800D01*
X0241861Y0045800D01*
X0241861Y0048954D01*
X0241752Y0049361D01*
X0241542Y0049726D01*
X0241244Y0050024D01*
X0240879Y0050234D01*
X0240472Y0050343D01*
X0237712Y0050343D01*
X0237712Y0045800D01*
X0236512Y0045800D01*
X0236512Y0050343D01*
X0233752Y0050343D01*
X0233345Y0050234D01*
X0232980Y0050024D01*
X0232682Y0049726D01*
X0232471Y0049361D01*
X0232362Y0048954D01*
X0232362Y0045800D01*
X0236512Y0045800D01*
X0236512Y0044600D01*
X0232362Y0044600D01*
X0232362Y0041446D01*
X0232471Y0041039D01*
X0232682Y0040674D01*
X0232980Y0040376D01*
X0233345Y0040166D01*
X0233590Y0040100D01*
X0230227Y0040100D01*
X0231038Y0040911D01*
X0231038Y0049489D01*
X0229983Y0050543D01*
X0222193Y0050543D01*
X0221139Y0049489D01*
X0221139Y0046450D01*
X0207311Y0046450D01*
X0204498Y0049263D01*
X0204498Y0049307D01*
X0205243Y0050053D01*
X0202450Y0052846D01*
X0199657Y0055639D01*
X0198912Y0054894D01*
X0198629Y0054894D01*
X0196437Y0052702D01*
X0196437Y0052702D01*
X0194245Y0050509D01*
X0192053Y0048317D01*
X0189443Y0045707D01*
X0187669Y0043933D01*
X0185477Y0041741D01*
X0182867Y0039131D01*
X0181093Y0037357D01*
X0181093Y0037357D01*
X0178483Y0034747D01*
X0178483Y0034464D01*
X0177822Y0033804D01*
X0177013Y0034613D01*
X0175837Y0035100D01*
X0174563Y0035100D01*
X0173387Y0034613D01*
X0172487Y0033713D01*
X0172000Y0032537D01*
X0172000Y0031263D01*
X0172487Y0030087D01*
X0173155Y0029420D01*
X0172324Y0028589D01*
X0170200Y0026465D01*
X0170200Y0043611D01*
X0168911Y0044900D01*
X0141438Y0072373D01*
X0141565Y0072500D01*
X0148357Y0072500D01*
X0148701Y0072157D01*
X0149803Y0071700D01*
X0150997Y0071700D01*
X0152099Y0072157D01*
X0152943Y0073001D01*
X0153400Y0074103D01*
X0153400Y0075297D01*
X0152943Y0076399D01*
X0152099Y0077243D01*
X0150997Y0077700D01*
X0149803Y0077700D01*
X0148701Y0077243D01*
X0148357Y0076900D01*
X0145965Y0076900D01*
X0148141Y0079077D01*
X0150333Y0081269D01*
X0152525Y0083461D01*
X0152525Y0083744D01*
X0153271Y0084489D01*
X0150478Y0087282D01*
X0150478Y0087282D01*
X0153271Y0084489D01*
X0153400Y0084618D01*
X0153400Y0083703D01*
X0153857Y0082601D01*
X0154701Y0081757D01*
X0155803Y0081300D01*
X0156997Y0081300D01*
X0158099Y0081757D01*
X0158443Y0082100D01*
X0161889Y0082100D01*
X0184600Y0059389D01*
X0185889Y0058100D01*
X0201835Y0058100D01*
X0200403Y0056668D01*
X0200403Y0056385D01*
X0199657Y0055639D01*
X0202450Y0052846D01*
X0202450Y0052846D01*
X0202450Y0052846D01*
X0205243Y0050053D01*
X0205436Y0050246D01*
X0205677Y0050005D01*
X0206038Y0049633D01*
X0206056Y0049625D01*
X0206071Y0049611D01*
X0206549Y0049413D01*
X0207766Y0048888D01*
X0207787Y0048837D01*
X0208687Y0047937D01*
X0209863Y0047450D01*
X0211137Y0047450D01*
X0212313Y0047937D01*
X0213213Y0048837D01*
X0213700Y0050013D01*
X0213700Y0051287D01*
X0213213Y0052463D01*
X0212313Y0053363D01*
X0211137Y0053850D01*
X0209897Y0053850D01*
X0209144Y0054175D01*
X0208882Y0054437D01*
X0208882Y0054900D01*
X0208250Y0055532D01*
X0211889Y0059171D01*
X0212300Y0060163D01*
X0212300Y0063689D01*
X0217800Y0058189D01*
X0217800Y0057703D01*
X0218257Y0056601D01*
X0219101Y0055757D01*
X0220203Y0055300D01*
X0221139Y0055300D01*
X0221139Y0053411D01*
X0222193Y0052357D01*
X0229983Y0052357D01*
X0231038Y0053411D01*
X0231038Y0061989D01*
X0229983Y0063043D01*
X0223968Y0063043D01*
X0220200Y0066811D01*
X0220200Y0067297D01*
X0219743Y0068399D01*
X0218899Y0069243D01*
X0217797Y0069700D01*
X0216603Y0069700D01*
X0215501Y0069243D01*
X0215200Y0068943D01*
X0214899Y0069243D01*
X0213797Y0069700D01*
X0217600Y0069700D02*
X0217600Y0075189D01*
X0217111Y0074700D02*
X0224783Y0074700D01*
X0224783Y0075131D02*
X0224783Y0073139D01*
X0224892Y0072732D01*
X0225103Y0072367D01*
X0225401Y0072069D01*
X0225766Y0071859D01*
X0226173Y0071750D01*
X0230724Y0071750D01*
X0230724Y0075131D01*
X0224783Y0075131D01*
X0225600Y0075131D02*
X0225600Y0075716D01*
X0221600Y0076100D02*
X0221600Y0065411D01*
X0220311Y0066700D02*
X0244200Y0066700D01*
X0237712Y0062700D02*
X0236512Y0062700D01*
X0236512Y0062843D02*
X0233752Y0062843D01*
X0233345Y0062734D01*
X0232980Y0062524D01*
X0232682Y0062226D01*
X0232471Y0061861D01*
X0232362Y0061454D01*
X0232362Y0058300D01*
X0236512Y0058300D01*
X0236512Y0062843D01*
X0233600Y0062803D02*
X0233600Y0071750D01*
X0231886Y0071750D02*
X0236437Y0071750D01*
X0236844Y0071859D01*
X0237208Y0072069D01*
X0237506Y0072367D01*
X0237717Y0072732D01*
X0237826Y0073139D01*
X0237826Y0075131D01*
X0231886Y0075131D01*
X0231886Y0071750D01*
X0229600Y0071750D02*
X0229600Y0063043D01*
X0230327Y0062700D02*
X0233285Y0062700D01*
X0225600Y0063043D02*
X0225600Y0071954D01*
X0229600Y0075131D02*
X0229600Y0076293D01*
X0230724Y0074700D02*
X0231886Y0074700D01*
X0233600Y0075131D02*
X0233600Y0076293D01*
X0237600Y0075589D02*
X0237600Y0075131D01*
X0237826Y0074700D02*
X0238489Y0074700D01*
X0237600Y0072529D02*
X0237600Y0058300D01*
X0237712Y0058300D02*
X0236512Y0058300D01*
X0236512Y0057100D01*
X0237712Y0057100D01*
X0237712Y0058300D01*
X0237712Y0058700D02*
X0236512Y0058700D01*
X0236512Y0057100D02*
X0232362Y0057100D01*
X0232362Y0053946D01*
X0232471Y0053539D01*
X0232682Y0053174D01*
X0232980Y0052876D01*
X0233345Y0052666D01*
X0233752Y0052557D01*
X0236512Y0052557D01*
X0236512Y0057100D01*
X0237600Y0057100D02*
X0237600Y0045800D01*
X0237712Y0046700D02*
X0236512Y0046700D01*
X0233600Y0045800D02*
X0233600Y0044600D01*
X0232362Y0042700D02*
X0231038Y0042700D01*
X0241600Y0044600D02*
X0241600Y0045800D01*
X0241861Y0046700D02*
X0261357Y0046700D01*
X0261600Y0046457D02*
X0261600Y0028611D01*
X0263689Y0030700D02*
X0250711Y0030700D01*
X0249600Y0031811D02*
X0249600Y0048184D01*
X0247400Y0050700D02*
X0213700Y0050700D01*
X0213600Y0051528D02*
X0213600Y0062389D01*
X0213289Y0062700D02*
X0212300Y0062700D01*
X0211418Y0058700D02*
X0217289Y0058700D01*
X0217600Y0058389D02*
X0217600Y0046450D01*
X0221139Y0046700D02*
X0207061Y0046700D01*
X0205600Y0048161D02*
X0205600Y0050082D01*
X0204596Y0050700D02*
X0204596Y0050700D01*
X0201600Y0053696D02*
X0201600Y0053696D01*
X0200596Y0054700D02*
X0200596Y0054700D01*
X0198435Y0054700D02*
X0159111Y0054700D01*
X0157600Y0056211D02*
X0157600Y0081550D01*
X0153816Y0082700D02*
X0151765Y0082700D01*
X0153600Y0083220D02*
X0153600Y0060211D01*
X0155111Y0058700D02*
X0185289Y0058700D01*
X0185600Y0058389D02*
X0185600Y0041865D01*
X0186435Y0042700D02*
X0170200Y0042700D01*
X0169600Y0044211D02*
X0169600Y0074389D01*
X0169289Y0074700D02*
X0153400Y0074700D01*
X0149600Y0071784D02*
X0149600Y0064211D01*
X0151111Y0062700D02*
X0181289Y0062700D01*
X0181600Y0062389D02*
X0181600Y0037865D01*
X0182435Y0038700D02*
X0170200Y0038700D01*
X0170200Y0034700D02*
X0173598Y0034700D01*
X0173600Y0034701D02*
X0173600Y0070389D01*
X0173289Y0070700D02*
X0143111Y0070700D01*
X0141600Y0072211D02*
X0141600Y0072500D01*
X0145600Y0072500D02*
X0145600Y0068211D01*
X0147111Y0066700D02*
X0177289Y0066700D01*
X0177600Y0066389D02*
X0177600Y0034025D01*
X0176802Y0034700D02*
X0178483Y0034700D01*
X0180530Y0030926D02*
X0183323Y0028133D01*
X0184069Y0028878D01*
X0184351Y0028878D01*
X0184531Y0029058D01*
X0189889Y0023700D01*
X0189803Y0023700D01*
X0188701Y0023243D01*
X0188357Y0022900D01*
X0182600Y0022900D01*
X0182600Y0023697D01*
X0182143Y0024799D01*
X0181299Y0025643D01*
X0181170Y0025697D01*
X0182577Y0027104D01*
X0182577Y0027387D01*
X0183323Y0028133D01*
X0180530Y0030926D01*
X0180530Y0030926D01*
X0180756Y0030700D02*
X0180756Y0030700D01*
X0181600Y0029856D02*
X0181600Y0029856D01*
X0185600Y0027989D02*
X0185600Y0022900D01*
X0189600Y0023616D02*
X0189600Y0023989D01*
X0186889Y0026700D02*
X0182173Y0026700D01*
X0181600Y0026127D02*
X0181600Y0025343D01*
X0172324Y0028589D02*
X0172324Y0028589D01*
X0172233Y0030700D02*
X0170200Y0030700D01*
X0170200Y0026700D02*
X0170435Y0026700D01*
X0182867Y0039131D02*
X0182867Y0039131D01*
X0187669Y0043933D02*
X0187669Y0043933D01*
X0189443Y0045707D02*
X0189443Y0045707D01*
X0189600Y0045865D02*
X0189600Y0058100D01*
X0193600Y0058100D02*
X0193600Y0049865D01*
X0194435Y0050700D02*
X0163111Y0050700D01*
X0161600Y0052211D02*
X0161600Y0082100D01*
X0165289Y0078700D02*
X0147765Y0078700D01*
X0149600Y0077616D02*
X0149600Y0080535D01*
X0150333Y0081269D02*
X0150333Y0081269D01*
X0151060Y0086700D02*
X0151060Y0086700D01*
X0150478Y0087282D02*
X0147685Y0090075D01*
X0146939Y0089330D01*
X0146832Y0089330D01*
X0146200Y0089961D01*
X0146200Y0099211D01*
X0144227Y0101184D01*
X0144227Y0106585D01*
X0144200Y0106612D01*
X0144200Y0108607D01*
X0146007Y0108607D01*
X0147061Y0109661D01*
X0147061Y0118239D01*
X0146290Y0119010D01*
X0152418Y0119010D01*
X0152321Y0118984D01*
X0151956Y0118774D01*
X0151658Y0118476D01*
X0151448Y0118111D01*
X0151339Y0117704D01*
X0151339Y0114550D01*
X0155488Y0114550D01*
X0155488Y0113350D01*
X0151339Y0113350D01*
X0151339Y0110196D01*
X0151448Y0109789D01*
X0151658Y0109424D01*
X0151956Y0109126D01*
X0152321Y0108916D01*
X0152728Y0108807D01*
X0155488Y0108807D01*
X0155488Y0113350D01*
X0156688Y0113350D01*
X0156688Y0108807D01*
X0157488Y0108807D01*
X0148111Y0099429D01*
X0147700Y0098437D01*
X0147700Y0090963D01*
X0147956Y0090346D01*
X0147685Y0090075D01*
X0150478Y0087282D01*
X0150478Y0087282D01*
X0149600Y0088160D02*
X0149600Y0088160D01*
X0147809Y0090700D02*
X0146200Y0090700D01*
X0146200Y0094700D02*
X0147700Y0094700D01*
X0147809Y0098700D02*
X0146200Y0098700D01*
X0145600Y0099811D02*
X0145600Y0108607D01*
X0144200Y0106700D02*
X0155382Y0106700D01*
X0153600Y0104918D02*
X0153600Y0108807D01*
X0155488Y0110700D02*
X0156688Y0110700D01*
X0160838Y0112156D02*
X0160838Y0113350D01*
X0156688Y0113350D01*
X0156688Y0114550D01*
X0160838Y0114550D01*
X0160838Y0117704D01*
X0160729Y0118111D01*
X0160518Y0118476D01*
X0160220Y0118774D01*
X0159855Y0118984D01*
X0159758Y0119010D01*
X0162934Y0119010D01*
X0162162Y0118239D01*
X0162162Y0113481D01*
X0160838Y0112156D01*
X0161600Y0112918D02*
X0161600Y0119010D01*
X0162623Y0118700D02*
X0160294Y0118700D01*
X0160838Y0114700D02*
X0162162Y0114700D01*
X0157600Y0114550D02*
X0157600Y0113350D01*
X0153600Y0113350D02*
X0153600Y0114550D01*
X0151339Y0114700D02*
X0147061Y0114700D01*
X0147061Y0110700D02*
X0151339Y0110700D01*
X0139800Y0108607D02*
X0139800Y0107640D01*
X0134595Y0107640D01*
X0133540Y0106585D01*
X0133540Y0100370D01*
X0134595Y0099315D01*
X0139873Y0099315D01*
X0140604Y0098585D01*
X0134595Y0098585D01*
X0133540Y0097530D01*
X0133540Y0092900D01*
X0129660Y0092900D01*
X0129660Y0097530D01*
X0128605Y0098585D01*
X0120028Y0098585D01*
X0118973Y0097530D01*
X0118973Y0092384D01*
X0116058Y0089469D01*
X0115889Y0089638D01*
X0107311Y0089638D01*
X0106257Y0088583D01*
X0106257Y0084355D01*
X0103000Y0087611D01*
X0103000Y0087697D01*
X0102543Y0088799D01*
X0101699Y0089643D01*
X0101400Y0089767D01*
X0101400Y0100157D01*
X0102148Y0100905D01*
X0102148Y0109495D01*
X0101094Y0110549D01*
X0093303Y0110549D01*
X0092249Y0109495D01*
X0092249Y0100905D01*
X0093303Y0099851D01*
X0097000Y0099851D01*
X0097000Y0090543D01*
X0090717Y0090543D01*
X0089662Y0089489D01*
X0089662Y0083473D01*
X0088689Y0082500D01*
X0088338Y0082500D01*
X0088338Y0084600D01*
X0084188Y0084600D01*
X0084188Y0085800D01*
X0082988Y0085800D01*
X0082988Y0084600D01*
X0078839Y0084600D01*
X0078839Y0082500D01*
X0075089Y0082500D01*
X0070563Y0077974D01*
X0067833Y0077974D01*
X0067633Y0077774D01*
X0066807Y0077774D01*
X0066807Y0076948D01*
X0066807Y0076948D01*
X0066807Y0076948D01*
X0066807Y0077774D01*
X0065981Y0077774D01*
X0065781Y0077974D01*
X0061600Y0077974D01*
X0061600Y0097306D01*
X0071380Y0107085D01*
X0071758Y0106929D01*
X0073588Y0106929D01*
X0075279Y0107629D01*
X0076573Y0108923D01*
X0077273Y0110614D01*
X0077273Y0112444D01*
X0076573Y0114134D01*
X0075279Y0115428D01*
X0073588Y0116129D01*
X0071758Y0116129D01*
X0070067Y0115428D01*
X0068773Y0114134D01*
X0068736Y0114044D01*
X0068698Y0114134D01*
X0067405Y0115428D01*
X0065714Y0116129D01*
X0063884Y0116129D01*
X0062193Y0115428D01*
X0060899Y0114134D01*
X0060862Y0114044D01*
X0060824Y0114134D01*
X0059530Y0115428D01*
X0057840Y0116129D01*
X0056010Y0116129D01*
X0054319Y0115428D01*
X0053025Y0114134D01*
X0052988Y0114044D01*
X0052950Y0114134D01*
X0051656Y0115428D01*
X0049966Y0116129D01*
X0048136Y0116129D01*
X0046445Y0115428D01*
X0045151Y0114134D01*
X0045114Y0114044D01*
X0045076Y0114134D01*
X0043782Y0115428D01*
X0042092Y0116129D01*
X0040262Y0116129D01*
X0038571Y0115428D01*
X0037277Y0114134D01*
X0037240Y0114044D01*
X0037202Y0114134D01*
X0035908Y0115428D01*
X0034218Y0116129D01*
X0032388Y0116129D01*
X0030697Y0115428D01*
X0029403Y0114134D01*
X0029366Y0114044D01*
X0029328Y0114134D01*
X0028034Y0115428D01*
X0026344Y0116129D01*
X0024514Y0116129D01*
X0022823Y0115428D01*
X0021529Y0114134D01*
X0021492Y0114044D01*
X0021454Y0114134D01*
X0020160Y0115428D01*
X0018470Y0116129D01*
X0016640Y0116129D01*
X0014949Y0115428D01*
X0013655Y0114134D01*
X0013618Y0114044D01*
X0013580Y0114134D01*
X0012286Y0115428D01*
X0010596Y0116129D01*
X0008766Y0116129D01*
X0007075Y0115428D01*
X0005781Y0114134D01*
X0005081Y0112444D01*
X0005081Y0110614D01*
X0005781Y0108923D01*
X0007075Y0107629D01*
X0008766Y0106929D01*
X0010596Y0106929D01*
X0010800Y0107013D01*
X0010800Y0085549D01*
X0004606Y0085549D01*
X0003552Y0084495D01*
X0003552Y0075905D01*
X0004606Y0074851D01*
X0006478Y0074851D01*
X0006511Y0074771D01*
X0010938Y0070343D01*
X0009188Y0070343D01*
X0009188Y0065800D01*
X0007988Y0065800D01*
X0007988Y0064600D01*
X0003839Y0064600D01*
X0003839Y0061446D01*
X0003948Y0061039D01*
X0004158Y0060674D01*
X0004456Y0060376D01*
X0004821Y0060166D01*
X0005228Y0060057D01*
X0007988Y0060057D01*
X0007988Y0064600D01*
X0009188Y0064600D01*
X0009188Y0060057D01*
X0011948Y0060057D01*
X0012355Y0060166D01*
X0012720Y0060376D01*
X0013018Y0060674D01*
X0013229Y0061039D01*
X0013338Y0061446D01*
X0013338Y0064600D01*
X0009188Y0064600D01*
X0009188Y0065800D01*
X0013338Y0065800D01*
X0013338Y0067944D01*
X0014662Y0066619D01*
X0014662Y0060911D01*
X0015717Y0059857D01*
X0016900Y0059857D01*
X0016900Y0039293D01*
X0015717Y0039293D01*
X0014662Y0038239D01*
X0014662Y0029661D01*
X0015717Y0028607D01*
X0016088Y0028607D01*
X0013271Y0025789D01*
X0012511Y0025029D01*
X0012100Y0024037D01*
X0012100Y0024035D01*
X0011862Y0024099D01*
X0009102Y0024099D01*
X0009102Y0019550D01*
X0007902Y0019550D01*
X0007902Y0024099D01*
X0005141Y0024099D01*
X0004734Y0023990D01*
X0004370Y0023780D01*
X0004072Y0023482D01*
X0003861Y0023117D01*
X0003752Y0022710D01*
X0003752Y0019550D01*
X0007902Y0019550D01*
X0007902Y0018350D01*
X0009102Y0018350D01*
X0009102Y0013801D01*
X0011862Y0013801D01*
X0012211Y0013894D01*
X0012511Y0013171D01*
X0019311Y0006371D01*
X0020071Y0005611D01*
X0021063Y0005200D01*
X0096137Y0005200D01*
X0097129Y0005611D01*
X0100729Y0009211D01*
X0101489Y0009971D01*
X0101900Y0010963D01*
X0101900Y0021192D01*
X0102037Y0021122D01*
X0102696Y0020908D01*
X0103380Y0020800D01*
X0103539Y0020800D01*
X0103539Y0025013D01*
X0103913Y0025013D01*
X0103913Y0020800D01*
X0104072Y0020800D01*
X0104756Y0020908D01*
X0105415Y0021122D01*
X0106032Y0021437D01*
X0106592Y0021844D01*
X0107082Y0022334D01*
X0107489Y0022894D01*
X0107537Y0022988D01*
X0107700Y0022594D01*
X0108994Y0021300D01*
X0110685Y0020600D01*
X0112515Y0020600D01*
X0114206Y0021300D01*
X0115500Y0022594D01*
X0115537Y0022684D01*
X0115574Y0022594D01*
X0116868Y0021300D01*
X0118559Y0020600D01*
X0120389Y0020600D01*
X0122080Y0021300D01*
X0123374Y0022594D01*
X0124074Y0024285D01*
X0124074Y0026115D01*
X0123374Y0027806D01*
X0122080Y0029100D01*
X0120389Y0029800D01*
X0119011Y0029800D01*
X0121050Y0031839D01*
X0121050Y0047839D01*
X0122834Y0049623D01*
X0123501Y0048957D01*
X0124603Y0048500D01*
X0125797Y0048500D01*
X0126899Y0048957D01*
X0127743Y0049801D01*
X0127797Y0049930D01*
X0128702Y0049025D01*
X0128702Y0049025D01*
X0128958Y0048769D01*
X0127089Y0046900D01*
X0125800Y0045611D01*
X0125800Y0014354D01*
X0125185Y0014100D01*
X0123891Y0012806D01*
X0123191Y0011115D01*
X0123191Y0009285D01*
X0123891Y0007594D01*
X0125185Y0006300D01*
X0126876Y0005600D01*
X0128706Y0005600D01*
X0130397Y0006300D01*
X0131691Y0007594D01*
X0131728Y0007684D01*
X0131765Y0007594D01*
X0133059Y0006300D01*
X0134750Y0005600D01*
X0136580Y0005600D01*
X0138271Y0006300D01*
X0139565Y0007594D01*
X0139602Y0007684D01*
X0139639Y0007594D01*
X0140933Y0006300D01*
X0142624Y0005600D01*
X0144454Y0005600D01*
X0146145Y0006300D01*
X0147439Y0007594D01*
X0147476Y0007684D01*
X0147513Y0007594D01*
X0148807Y0006300D01*
X0150498Y0005600D01*
X0152328Y0005600D01*
X0154019Y0006300D01*
X0155313Y0007594D01*
X0155350Y0007684D01*
X0155387Y0007594D01*
X0156681Y0006300D01*
X0158372Y0005600D01*
X0160202Y0005600D01*
X0161893Y0006300D01*
X0163187Y0007594D01*
X0163224Y0007684D01*
X0163261Y0007594D01*
X0164555Y0006300D01*
X0166246Y0005600D01*
X0168076Y0005600D01*
X0169767Y0006300D01*
X0171061Y0007594D01*
X0171098Y0007684D01*
X0171135Y0007594D01*
X0172429Y0006300D01*
X0174120Y0005600D01*
X0175950Y0005600D01*
X0177641Y0006300D01*
X0178935Y0007594D01*
X0178972Y0007684D01*
X0179009Y0007594D01*
X0180303Y0006300D01*
X0181994Y0005600D01*
X0183824Y0005600D01*
X0185515Y0006300D01*
X0186809Y0007594D01*
X0187509Y0009285D01*
X0187509Y0011115D01*
X0187101Y0012100D01*
X0203973Y0012100D01*
X0203565Y0011115D01*
X0203565Y0009285D01*
X0204265Y0007594D01*
X0204560Y0007300D01*
X0197243Y0007300D01*
X0196899Y0007643D01*
X0195797Y0008100D01*
X0194603Y0008100D01*
X0193501Y0007643D01*
X0192657Y0006799D01*
X0192200Y0005697D01*
X0192200Y0004503D01*
X0192201Y0004500D01*
X0117216Y0004500D01*
X0118702Y0005986D01*
X0119935Y0008963D01*
X0119935Y0012185D01*
X0118702Y0015162D01*
X0116424Y0017440D01*
X0113447Y0018673D01*
X0110225Y0018673D01*
X0107248Y0017440D01*
X0104970Y0015162D01*
X0103737Y0012185D01*
X0103737Y0008963D01*
X0104970Y0005986D01*
X0106456Y0004500D01*
X0003400Y0004500D01*
X0003400Y0119010D01*
X0106456Y0119010D01*
X0104970Y0117524D01*
X0103737Y0114547D01*
X0103737Y0111325D01*
X0104970Y0108348D01*
X0107248Y0106070D01*
X0110225Y0104837D01*
X0113447Y0104837D01*
X0116424Y0106070D01*
X0118702Y0108348D01*
X0119935Y0111325D01*
X0119935Y0114547D01*
X0118702Y0117524D01*
X0117216Y0119010D01*
X0127418Y0119010D01*
X0127321Y0118984D01*
X0126956Y0118774D01*
X0126658Y0118476D01*
X0126448Y0118111D01*
X0126339Y0117704D01*
X0126339Y0114550D01*
X0130488Y0114550D01*
X0130488Y0113350D01*
X0126339Y0113350D01*
X0126339Y0110196D01*
X0126448Y0109789D01*
X0126658Y0109424D01*
X0126956Y0109126D01*
X0127321Y0108916D01*
X0127728Y0108807D01*
X0130488Y0108807D01*
X0130488Y0113350D01*
X0131688Y0113350D01*
X0131688Y0108807D01*
X0134448Y0108807D01*
X0134855Y0108916D01*
X0135220Y0109126D01*
X0135518Y0109424D01*
X0135729Y0109789D01*
X0135838Y0110196D01*
X0135838Y0113350D01*
X0131688Y0113350D01*
X0131688Y0114550D01*
X0135838Y0114550D01*
X0135838Y0117704D01*
X0135729Y0118111D01*
X0135518Y0118476D01*
X0135220Y0118774D01*
X0134855Y0118984D01*
X0134758Y0119010D01*
X0137934Y0119010D01*
X0137162Y0118239D01*
X0137162Y0109661D01*
X0138217Y0108607D01*
X0139800Y0108607D01*
X0137600Y0109223D02*
X0137600Y0107640D01*
X0137162Y0110700D02*
X0135838Y0110700D01*
X0131688Y0110700D02*
X0130488Y0110700D01*
X0129600Y0108807D02*
X0129600Y0106645D01*
X0129545Y0106700D02*
X0133655Y0106700D01*
X0133600Y0106645D02*
X0133600Y0108807D01*
X0129660Y0106585D02*
X0128605Y0107640D01*
X0120028Y0107640D01*
X0118973Y0106585D01*
X0118973Y0100370D01*
X0120028Y0099315D01*
X0128605Y0099315D01*
X0129660Y0100370D01*
X0129660Y0106585D01*
X0125600Y0107640D02*
X0125600Y0119010D01*
X0126883Y0118700D02*
X0117526Y0118700D01*
X0117600Y0118626D02*
X0117600Y0119010D01*
X0121600Y0119010D02*
X0121600Y0107640D01*
X0119088Y0106700D02*
X0117054Y0106700D01*
X0117600Y0107246D02*
X0117600Y0091011D01*
X0117289Y0090700D02*
X0101400Y0090700D01*
X0101600Y0089684D02*
X0101600Y0100357D01*
X0101400Y0098700D02*
X0106457Y0098700D01*
X0106457Y0099072D02*
X0106457Y0096312D01*
X0111000Y0096312D01*
X0111000Y0100461D01*
X0107846Y0100461D01*
X0107439Y0100352D01*
X0107074Y0100142D01*
X0106776Y0099844D01*
X0106566Y0099479D01*
X0106457Y0099072D01*
X0109600Y0100461D02*
X0109600Y0105096D01*
X0106618Y0106700D02*
X0102148Y0106700D01*
X0105600Y0107718D02*
X0105600Y0085011D01*
X0106257Y0086700D02*
X0103911Y0086700D01*
X0109600Y0089638D02*
X0109600Y0090962D01*
X0111000Y0090962D02*
X0111000Y0095112D01*
X0106457Y0095112D01*
X0106457Y0092352D01*
X0106566Y0091945D01*
X0106776Y0091580D01*
X0107074Y0091282D01*
X0107439Y0091071D01*
X0107846Y0090962D01*
X0111000Y0090962D01*
X0112200Y0090962D02*
X0115354Y0090962D01*
X0115761Y0091071D01*
X0116126Y0091282D01*
X0116424Y0091580D01*
X0116634Y0091945D01*
X0116743Y0092352D01*
X0116743Y0095112D01*
X0112200Y0095112D01*
X0112200Y0096312D01*
X0111000Y0096312D01*
X0111000Y0095112D01*
X0112200Y0095112D01*
X0112200Y0090962D01*
X0113600Y0090962D02*
X0113600Y0089638D01*
X0112200Y0094700D02*
X0111000Y0094700D01*
X0109600Y0095112D02*
X0109600Y0096312D01*
X0112200Y0096312D02*
X0112200Y0100461D01*
X0115354Y0100461D01*
X0115761Y0100352D01*
X0116126Y0100142D01*
X0116424Y0099844D01*
X0116634Y0099479D01*
X0116743Y0099072D01*
X0116743Y0096312D01*
X0112200Y0096312D01*
X0113600Y0096312D02*
X0113600Y0095112D01*
X0116743Y0094700D02*
X0118973Y0094700D01*
X0116743Y0098700D02*
X0140489Y0098700D01*
X0137600Y0098585D02*
X0137600Y0099315D01*
X0133600Y0100310D02*
X0133600Y0097590D01*
X0129600Y0097590D02*
X0129600Y0100310D01*
X0125600Y0099315D02*
X0125600Y0098585D01*
X0121600Y0098585D02*
X0121600Y0099315D01*
X0113600Y0100461D02*
X0113600Y0104900D01*
X0118973Y0102700D02*
X0102148Y0102700D01*
X0097000Y0098700D02*
X0062994Y0098700D01*
X0061600Y0097306D02*
X0061600Y0077974D01*
X0061600Y0078700D02*
X0071289Y0078700D01*
X0069600Y0077974D02*
X0069600Y0105306D01*
X0070994Y0106700D02*
X0081252Y0106700D01*
X0081252Y0105800D02*
X0085402Y0105800D01*
X0085402Y0110349D01*
X0082641Y0110349D01*
X0082234Y0110240D01*
X0081870Y0110030D01*
X0081572Y0109732D01*
X0081361Y0109367D01*
X0081252Y0108960D01*
X0081252Y0105800D01*
X0081600Y0105800D02*
X0081600Y0104600D01*
X0081252Y0104600D02*
X0081252Y0101440D01*
X0081361Y0101033D01*
X0081572Y0100668D01*
X0081870Y0100370D01*
X0082234Y0100160D01*
X0082641Y0100051D01*
X0085402Y0100051D01*
X0085402Y0104600D01*
X0086602Y0104600D01*
X0086602Y0105800D01*
X0090751Y0105800D01*
X0090751Y0108960D01*
X0090642Y0109367D01*
X0090431Y0109732D01*
X0090134Y0110030D01*
X0089769Y0110240D01*
X0089362Y0110349D01*
X0086602Y0110349D01*
X0086602Y0105800D01*
X0085402Y0105800D01*
X0085402Y0104600D01*
X0081252Y0104600D01*
X0081252Y0102700D02*
X0066994Y0102700D01*
X0065600Y0101306D02*
X0065600Y0077974D01*
X0073600Y0081011D02*
X0073600Y0106934D01*
X0081600Y0109760D02*
X0081600Y0119010D01*
X0077600Y0119010D02*
X0077600Y0082500D01*
X0078839Y0082700D02*
X0061600Y0082700D01*
X0061600Y0086700D02*
X0078839Y0086700D01*
X0078839Y0085800D02*
X0082988Y0085800D01*
X0082988Y0090343D01*
X0080228Y0090343D01*
X0079821Y0090234D01*
X0079456Y0090024D01*
X0079158Y0089726D01*
X0078948Y0089361D01*
X0078839Y0088954D01*
X0078839Y0085800D01*
X0081600Y0085800D02*
X0081600Y0084600D01*
X0082988Y0086700D02*
X0084188Y0086700D01*
X0084188Y0085800D02*
X0084188Y0090343D01*
X0086948Y0090343D01*
X0087355Y0090234D01*
X0087720Y0090024D01*
X0088018Y0089726D01*
X0088229Y0089361D01*
X0088338Y0088954D01*
X0088338Y0085800D01*
X0084188Y0085800D01*
X0085600Y0085800D02*
X0085600Y0084600D01*
X0088338Y0086700D02*
X0089662Y0086700D01*
X0089600Y0083411D02*
X0089600Y0100115D01*
X0089769Y0100160D02*
X0090134Y0100370D01*
X0090431Y0100668D01*
X0090642Y0101033D01*
X0090751Y0101440D01*
X0090751Y0104600D01*
X0086602Y0104600D01*
X0086602Y0100051D01*
X0089362Y0100051D01*
X0089769Y0100160D01*
X0093600Y0099851D02*
X0093600Y0090543D01*
X0097000Y0090700D02*
X0061600Y0090700D01*
X0061600Y0094700D02*
X0097000Y0094700D01*
X0101400Y0094700D02*
X0106457Y0094700D01*
X0111000Y0098700D02*
X0112200Y0098700D01*
X0129660Y0094700D02*
X0133540Y0094700D01*
X0149600Y0100918D02*
X0149600Y0119010D01*
X0151883Y0118700D02*
X0146600Y0118700D01*
X0137623Y0118700D02*
X0135294Y0118700D01*
X0137600Y0118677D02*
X0137600Y0119010D01*
X0137162Y0114700D02*
X0135838Y0114700D01*
X0133600Y0114550D02*
X0133600Y0113350D01*
X0129600Y0113350D02*
X0129600Y0114550D01*
X0126339Y0114700D02*
X0119872Y0114700D01*
X0119676Y0110700D02*
X0126339Y0110700D01*
X0129660Y0102700D02*
X0133540Y0102700D01*
X0144227Y0102700D02*
X0151382Y0102700D01*
X0187311Y0088900D02*
X0191800Y0093389D01*
X0191800Y0092903D01*
X0192257Y0091801D01*
X0193101Y0090957D01*
X0194203Y0090500D01*
X0195397Y0090500D01*
X0196499Y0090957D01*
X0197343Y0091801D01*
X0197800Y0092903D01*
X0197800Y0093389D01*
X0210712Y0106300D01*
X0211381Y0105631D01*
X0213145Y0104900D01*
X0215055Y0104900D01*
X0216819Y0105631D01*
X0218169Y0106981D01*
X0218900Y0108745D01*
X0218900Y0116655D01*
X0218169Y0118419D01*
X0217578Y0119010D01*
X0263937Y0119010D01*
X0262450Y0117524D01*
X0261217Y0114547D01*
X0261217Y0111764D01*
X0251228Y0111764D01*
X0250174Y0110709D01*
X0250174Y0109700D01*
X0241643Y0109700D01*
X0241299Y0110043D01*
X0240197Y0110500D01*
X0239003Y0110500D01*
X0237901Y0110043D01*
X0237057Y0109199D01*
X0236600Y0108097D01*
X0236600Y0106903D01*
X0237057Y0105801D01*
X0237901Y0104957D01*
X0239003Y0104500D01*
X0240197Y0104500D01*
X0241299Y0104957D01*
X0241643Y0105300D01*
X0250174Y0105300D01*
X0250174Y0104494D01*
X0251228Y0103439D01*
X0262562Y0103439D01*
X0263617Y0104494D01*
X0263617Y0107182D01*
X0264729Y0106070D01*
X0267705Y0104837D01*
X0270928Y0104837D01*
X0273904Y0106070D01*
X0276183Y0108348D01*
X0277416Y0111325D01*
X0277416Y0114547D01*
X0276183Y0117524D01*
X0274697Y0119010D01*
X0284705Y0119010D01*
X0283885Y0118190D01*
X0283885Y0108824D01*
X0284939Y0107770D01*
X0294304Y0107770D01*
X0295359Y0108824D01*
X0295359Y0118190D01*
X0294538Y0119010D01*
X0306162Y0119010D01*
X0305341Y0118190D01*
X0305341Y0108824D01*
X0306396Y0107770D01*
X0315761Y0107770D01*
X0316815Y0108824D01*
X0316815Y0118190D01*
X0315995Y0119010D01*
X0345256Y0119010D01*
X0344938Y0118692D01*
X0344938Y0118488D01*
X0344547Y0118650D01*
X0343353Y0118650D01*
X0342330Y0118226D01*
X0342188Y0118368D01*
X0336760Y0118368D01*
X0335706Y0117314D01*
X0335706Y0117300D01*
X0327494Y0117300D01*
X0327494Y0117314D01*
X0326440Y0118368D01*
X0321012Y0118368D01*
X0319957Y0117314D01*
X0319957Y0113769D01*
X0319489Y0113300D01*
X0318200Y0112011D01*
X0318200Y0108100D01*
X0317203Y0108100D01*
X0316101Y0107643D01*
X0315257Y0106799D01*
X0314800Y0105697D01*
X0314800Y0104503D01*
X0315257Y0103401D01*
X0316101Y0102557D01*
X0317203Y0102100D01*
X0318200Y0102100D01*
X0318200Y0088049D01*
X0312869Y0088049D01*
X0308300Y0092618D01*
X0308300Y0098054D01*
X0309128Y0097711D01*
X0310666Y0097711D01*
X0312088Y0098300D01*
X0313175Y0099388D01*
X0313764Y0100809D01*
X0313764Y0102347D01*
X0313175Y0103768D01*
X0312088Y0104856D01*
X0310666Y0105445D01*
X0309128Y0105445D01*
X0308055Y0105001D01*
X0308055Y0106576D01*
X0307001Y0107630D01*
X0296258Y0107630D01*
X0296058Y0107430D01*
X0295232Y0107430D01*
X0295232Y0106604D01*
X0295232Y0106604D01*
X0295232Y0107430D01*
X0294234Y0107430D01*
X0293827Y0107321D01*
X0293462Y0107110D01*
X0293164Y0106812D01*
X0292954Y0106447D01*
X0292844Y0106041D01*
X0292844Y0104918D01*
X0291572Y0105445D01*
X0290034Y0105445D01*
X0288612Y0104856D01*
X0287525Y0103768D01*
X0286936Y0102347D01*
X0286936Y0100809D01*
X0287525Y0099388D01*
X0288612Y0098300D01*
X0290034Y0097711D01*
X0291572Y0097711D01*
X0292972Y0098291D01*
X0293164Y0097958D01*
X0293462Y0097660D01*
X0293827Y0097449D01*
X0294234Y0097340D01*
X0295232Y0097340D01*
X0296058Y0097340D01*
X0296258Y0097140D01*
X0297800Y0097140D01*
X0297800Y0087611D01*
X0296988Y0086799D01*
X0290803Y0086799D01*
X0289749Y0085745D01*
X0289749Y0077155D01*
X0290803Y0076101D01*
X0298594Y0076101D01*
X0299648Y0077155D01*
X0299648Y0083237D01*
X0300600Y0084189D01*
X0300600Y0073049D01*
X0298303Y0073049D01*
X0297249Y0071995D01*
X0297249Y0063405D01*
X0298303Y0062351D01*
X0306094Y0062351D01*
X0307148Y0063405D01*
X0307148Y0071995D01*
X0306094Y0073049D01*
X0305000Y0073049D01*
X0305000Y0088282D01*
X0309802Y0083480D01*
X0309802Y0078405D01*
X0310856Y0077351D01*
X0318647Y0077351D01*
X0319701Y0078405D01*
X0319701Y0079126D01*
X0319763Y0079100D01*
X0320999Y0079100D01*
X0320999Y0078405D01*
X0322053Y0077351D01*
X0329844Y0077351D01*
X0330898Y0078405D01*
X0330898Y0086995D01*
X0329844Y0088049D01*
X0323362Y0088049D01*
X0322600Y0088811D01*
X0322600Y0104732D01*
X0323342Y0104732D01*
X0323342Y0107916D01*
X0324110Y0107916D01*
X0324110Y0104732D01*
X0325905Y0104732D01*
X0326312Y0104841D01*
X0326454Y0104923D01*
X0326454Y0104011D01*
X0327508Y0102957D01*
X0335692Y0102957D01*
X0336746Y0104011D01*
X0336746Y0104923D01*
X0336888Y0104841D01*
X0337295Y0104732D01*
X0339090Y0104732D01*
X0339090Y0107916D01*
X0339858Y0107916D01*
X0339858Y0104732D01*
X0341653Y0104732D01*
X0342060Y0104841D01*
X0342425Y0105052D01*
X0342723Y0105349D01*
X0342933Y0105714D01*
X0343043Y0106121D01*
X0343043Y0107916D01*
X0339858Y0107916D01*
X0339858Y0108685D01*
X0339090Y0108685D01*
X0339090Y0110831D01*
X0339858Y0110831D01*
X0339858Y0108685D01*
X0343043Y0108685D01*
X0343043Y0110480D01*
X0342933Y0110886D01*
X0342723Y0111251D01*
X0342666Y0111309D01*
X0343243Y0111886D01*
X0343243Y0112696D01*
X0343353Y0112650D01*
X0344547Y0112650D01*
X0344938Y0112812D01*
X0344938Y0112476D01*
X0345964Y0111450D01*
X0344938Y0110424D01*
X0344938Y0104208D01*
X0345992Y0103154D01*
X0346600Y0103154D01*
X0346600Y0098248D01*
X0343555Y0098248D01*
X0342501Y0097194D01*
X0342501Y0089403D01*
X0343555Y0088349D01*
X0352145Y0088349D01*
X0353199Y0089403D01*
X0353199Y0097194D01*
X0352145Y0098248D01*
X0351000Y0098248D01*
X0351000Y0103154D01*
X0352208Y0103154D01*
X0353262Y0104208D01*
X0353262Y0110424D01*
X0352236Y0111450D01*
X0353262Y0112476D01*
X0353262Y0118692D01*
X0352944Y0119010D01*
X0354131Y0119010D01*
X0354131Y0065999D01*
X0354087Y0066277D01*
X0353863Y0066966D01*
X0353534Y0067611D01*
X0353109Y0068197D01*
X0352597Y0068709D01*
X0352011Y0069134D01*
X0351366Y0069463D01*
X0350677Y0069687D01*
X0349962Y0069800D01*
X0347000Y0069800D01*
X0347000Y0065600D01*
X0346200Y0065600D01*
X0346200Y0069800D01*
X0343238Y0069800D01*
X0342523Y0069687D01*
X0341834Y0069463D01*
X0341189Y0069134D01*
X0340603Y0068709D01*
X0340091Y0068197D01*
X0339666Y0067611D01*
X0339337Y0066966D01*
X0339113Y0066277D01*
X0339006Y0065600D01*
X0346200Y0065600D01*
X0346200Y0064800D01*
X0347000Y0064800D01*
X0347000Y0060600D01*
X0349962Y0060600D01*
X0350677Y0060713D01*
X0351366Y0060937D01*
X0352011Y0061266D01*
X0352597Y0061691D01*
X0353109Y0062203D01*
X0353534Y0062789D01*
X0353863Y0063434D01*
X0354087Y0064123D01*
X0354131Y0064401D01*
X0354131Y0056805D01*
X0353669Y0057919D01*
X0352319Y0059269D01*
X0350555Y0060000D01*
X0342645Y0060000D01*
X0340881Y0059269D01*
X0339531Y0057919D01*
X0338800Y0056155D01*
X0338800Y0054245D01*
X0339531Y0052481D01*
X0340881Y0051131D01*
X0342645Y0050400D01*
X0350555Y0050400D01*
X0352319Y0051131D01*
X0353669Y0052481D01*
X0354131Y0053595D01*
X0354131Y0004500D01*
X0331311Y0004500D01*
X0332546Y0005734D01*
X0332870Y0005600D01*
X0334700Y0005600D01*
X0336391Y0006300D01*
X0337685Y0007594D01*
X0337722Y0007684D01*
X0337759Y0007594D01*
X0339053Y0006300D01*
X0340744Y0005600D01*
X0342574Y0005600D01*
X0344265Y0006300D01*
X0345559Y0007594D01*
X0346259Y0009285D01*
X0346259Y0011115D01*
X0345559Y0012806D01*
X0344265Y0014100D01*
X0342574Y0014800D01*
X0340744Y0014800D01*
X0339053Y0014100D01*
X0337759Y0012806D01*
X0337722Y0012716D01*
X0337685Y0012806D01*
X0336391Y0014100D01*
X0334700Y0014800D01*
X0332870Y0014800D01*
X0331179Y0014100D01*
X0329885Y0012806D01*
X0329848Y0012716D01*
X0329811Y0012806D01*
X0328517Y0014100D01*
X0326826Y0014800D01*
X0324996Y0014800D01*
X0323305Y0014100D01*
X0322011Y0012806D01*
X0321974Y0012716D01*
X0321937Y0012806D01*
X0320643Y0014100D01*
X0318952Y0014800D01*
X0317122Y0014800D01*
X0315431Y0014100D01*
X0314137Y0012806D01*
X0314100Y0012716D01*
X0314063Y0012806D01*
X0312769Y0014100D01*
X0312200Y0014335D01*
X0312200Y0017611D01*
X0310911Y0018900D01*
X0267400Y0062411D01*
X0267400Y0063057D01*
X0267743Y0063401D01*
X0268200Y0064503D01*
X0268200Y0065697D01*
X0267743Y0066799D01*
X0266899Y0067643D01*
X0265799Y0068099D01*
X0265343Y0069199D01*
X0264499Y0070043D01*
X0263397Y0070500D01*
X0262300Y0070500D01*
X0262300Y0075880D01*
X0262562Y0075880D01*
X0263617Y0076935D01*
X0263617Y0077200D01*
X0268482Y0077200D01*
X0282782Y0062900D01*
X0280043Y0062900D01*
X0279699Y0063243D01*
X0278597Y0063700D01*
X0277403Y0063700D01*
X0276301Y0063243D01*
X0275457Y0062399D01*
X0275000Y0061297D01*
X0275000Y0060103D01*
X0275457Y0059001D01*
X0276301Y0058157D01*
X0277401Y0057701D01*
X0277857Y0056601D01*
X0278701Y0055757D01*
X0279803Y0055300D01*
X0280997Y0055300D01*
X0282099Y0055757D01*
X0282366Y0056023D01*
X0310200Y0028189D01*
X0311052Y0027337D01*
X0311052Y0024655D01*
X0312106Y0023601D01*
X0319897Y0023601D01*
X0320951Y0024655D01*
X0320951Y0033245D01*
X0319897Y0034299D01*
X0319345Y0034299D01*
X0319701Y0034655D01*
X0319701Y0043245D01*
X0318647Y0044299D01*
X0312600Y0044299D01*
X0312600Y0044497D01*
X0312453Y0044851D01*
X0314844Y0044851D01*
X0315898Y0045905D01*
X0315898Y0047700D01*
X0329889Y0047700D01*
X0344657Y0032932D01*
X0344500Y0032552D01*
X0344500Y0031311D01*
X0334911Y0040900D01*
X0330898Y0040900D01*
X0330898Y0043245D01*
X0329844Y0044299D01*
X0322053Y0044299D01*
X0320999Y0043245D01*
X0320999Y0034655D01*
X0322053Y0033601D01*
X0322605Y0033601D01*
X0322249Y0033245D01*
X0322249Y0024655D01*
X0323303Y0023601D01*
X0331094Y0023601D01*
X0332148Y0024655D01*
X0332148Y0026500D01*
X0335089Y0026500D01*
X0344583Y0017005D01*
X0344500Y0016804D01*
X0344500Y0014974D01*
X0345200Y0013283D01*
X0346494Y0011989D01*
X0348185Y0011289D01*
X0350015Y0011289D01*
X0351706Y0011989D01*
X0353000Y0013283D01*
X0353700Y0014974D01*
X0353700Y0016804D01*
X0353000Y0018495D01*
X0351706Y0019789D01*
X0351616Y0019826D01*
X0351706Y0019863D01*
X0353000Y0021157D01*
X0353700Y0022848D01*
X0353700Y0024678D01*
X0353000Y0026369D01*
X0351706Y0027663D01*
X0351616Y0027700D01*
X0351706Y0027737D01*
X0353000Y0029031D01*
X0353700Y0030722D01*
X0353700Y0032552D01*
X0353000Y0034243D01*
X0351706Y0035537D01*
X0351616Y0035574D01*
X0351706Y0035611D01*
X0353000Y0036905D01*
X0353700Y0038596D01*
X0353700Y0040426D01*
X0353000Y0042117D01*
X0351706Y0043411D01*
X0350015Y0044111D01*
X0348185Y0044111D01*
X0346494Y0043411D01*
X0345200Y0042117D01*
X0344500Y0040426D01*
X0344500Y0039311D01*
X0331711Y0052100D01*
X0328199Y0052100D01*
X0329092Y0052470D01*
X0330330Y0053708D01*
X0331000Y0055325D01*
X0331000Y0057075D01*
X0330330Y0058692D01*
X0329092Y0059930D01*
X0328511Y0060171D01*
X0330800Y0062460D01*
X0330800Y0064000D01*
X0326800Y0064000D01*
X0326800Y0064400D01*
X0326400Y0064400D01*
X0326400Y0068400D01*
X0324860Y0068400D01*
X0322400Y0065940D01*
X0322400Y0064400D01*
X0326400Y0064400D01*
X0326400Y0064000D01*
X0322400Y0064000D01*
X0322400Y0062460D01*
X0324689Y0060171D01*
X0324108Y0059930D01*
X0323177Y0059000D01*
X0294318Y0059000D01*
X0290968Y0062351D01*
X0294897Y0062351D01*
X0295951Y0063405D01*
X0295951Y0071995D01*
X0294897Y0073049D01*
X0289000Y0073049D01*
X0289000Y0073297D01*
X0288543Y0074399D01*
X0287699Y0075243D01*
X0286597Y0075700D01*
X0285403Y0075700D01*
X0284301Y0075243D01*
X0283457Y0074399D01*
X0283000Y0073297D01*
X0283000Y0072103D01*
X0283457Y0071001D01*
X0284301Y0070157D01*
X0285403Y0069700D01*
X0285889Y0069700D01*
X0286052Y0069537D01*
X0286052Y0067266D01*
X0271889Y0081429D01*
X0271889Y0081429D01*
X0271129Y0082189D01*
X0270137Y0082600D01*
X0263617Y0082600D01*
X0263617Y0083150D01*
X0262562Y0084205D01*
X0251228Y0084205D01*
X0250200Y0083176D01*
X0250200Y0092011D01*
X0248600Y0093611D01*
X0248600Y0093700D01*
X0250174Y0093700D01*
X0250174Y0092683D01*
X0251228Y0091628D01*
X0262562Y0091628D01*
X0263617Y0092683D01*
X0263617Y0097300D01*
X0264289Y0097300D01*
X0278552Y0083037D01*
X0278552Y0077155D01*
X0279606Y0076101D01*
X0287397Y0076101D01*
X0288451Y0077155D01*
X0288451Y0085745D01*
X0287397Y0086799D01*
X0281012Y0086799D01*
X0266111Y0101700D01*
X0221089Y0101700D01*
X0219800Y0100411D01*
X0197631Y0078242D01*
X0197504Y0078370D01*
X0197221Y0078370D01*
X0196475Y0079115D01*
X0196311Y0079279D01*
X0196499Y0079357D01*
X0197343Y0080201D01*
X0197800Y0081303D01*
X0197800Y0082497D01*
X0197343Y0083599D01*
X0196499Y0084443D01*
X0196362Y0084500D01*
X0197557Y0084500D01*
X0197901Y0084157D01*
X0199003Y0083700D01*
X0200197Y0083700D01*
X0201299Y0084157D01*
X0202143Y0085001D01*
X0202600Y0086103D01*
X0202600Y0087297D01*
X0202143Y0088399D01*
X0201299Y0089243D01*
X0200197Y0089700D01*
X0199003Y0089700D01*
X0197901Y0089243D01*
X0197557Y0088900D01*
X0187311Y0088900D01*
X0189600Y0088900D02*
X0189600Y0091189D01*
X0189111Y0090700D02*
X0193720Y0090700D01*
X0193600Y0090750D02*
X0193600Y0088900D01*
X0195880Y0090700D02*
X0210089Y0090700D01*
X0209600Y0090211D02*
X0209600Y0105189D01*
X0213600Y0104900D02*
X0213600Y0094211D01*
X0214089Y0094700D02*
X0199111Y0094700D01*
X0197600Y0092420D02*
X0197600Y0088943D01*
X0201600Y0088943D02*
X0201600Y0097189D01*
X0203111Y0098700D02*
X0218089Y0098700D01*
X0217600Y0098211D02*
X0217600Y0106412D01*
X0217888Y0106700D02*
X0236684Y0106700D01*
X0237600Y0105257D02*
X0237600Y0101700D01*
X0233600Y0101700D02*
X0233600Y0119010D01*
X0229600Y0119010D02*
X0229600Y0101700D01*
X0225600Y0101700D02*
X0225600Y0119010D01*
X0221600Y0119010D02*
X0221600Y0101700D01*
X0207111Y0102700D02*
X0287082Y0102700D01*
X0289600Y0105265D02*
X0289600Y0107770D01*
X0293099Y0106700D02*
X0274534Y0106700D01*
X0273600Y0105944D02*
X0273600Y0094211D01*
X0273111Y0094700D02*
X0297800Y0094700D01*
X0297600Y0097140D02*
X0297600Y0087411D01*
X0293600Y0086799D02*
X0293600Y0097580D01*
X0295232Y0097340D02*
X0295232Y0098166D01*
X0295232Y0097340D01*
X0295232Y0098166D02*
X0295232Y0098166D01*
X0289600Y0097891D02*
X0289600Y0073049D01*
X0288243Y0074700D02*
X0300600Y0074700D01*
X0297600Y0076101D02*
X0297600Y0072346D01*
X0297249Y0070700D02*
X0295951Y0070700D01*
X0293600Y0073049D02*
X0293600Y0076101D01*
X0289749Y0078700D02*
X0288451Y0078700D01*
X0285600Y0076101D02*
X0285600Y0075700D01*
X0283757Y0074700D02*
X0278618Y0074700D01*
X0277600Y0075718D02*
X0277600Y0083989D01*
X0278552Y0082700D02*
X0263617Y0082700D01*
X0265600Y0082600D02*
X0265600Y0095989D01*
X0266889Y0094700D02*
X0263617Y0094700D01*
X0269600Y0098211D02*
X0269600Y0104837D01*
X0265600Y0105709D02*
X0265600Y0101700D01*
X0261600Y0101700D02*
X0261600Y0103439D01*
X0257600Y0103439D02*
X0257600Y0101700D01*
X0253600Y0101700D02*
X0253600Y0103439D01*
X0249600Y0101700D02*
X0249600Y0105300D01*
X0245600Y0105300D02*
X0245600Y0101700D01*
X0241600Y0101700D02*
X0241600Y0105257D01*
X0241600Y0109743D02*
X0241600Y0110515D01*
X0241742Y0110372D02*
X0243272Y0109739D01*
X0244928Y0109739D01*
X0246458Y0110372D01*
X0247629Y0111543D01*
X0248262Y0113073D01*
X0248262Y0114729D01*
X0247629Y0116258D01*
X0246458Y0117429D01*
X0244928Y0118063D01*
X0243272Y0118063D01*
X0241742Y0117429D01*
X0240571Y0116258D01*
X0239938Y0114729D01*
X0239938Y0113073D01*
X0240571Y0111543D01*
X0241742Y0110372D01*
X0241415Y0110700D02*
X0218900Y0110700D01*
X0218900Y0114700D02*
X0239938Y0114700D01*
X0241600Y0117287D02*
X0241600Y0119010D01*
X0245600Y0119010D02*
X0245600Y0117785D01*
X0249600Y0119010D02*
X0249600Y0109700D01*
X0250174Y0110700D02*
X0246785Y0110700D01*
X0245600Y0110017D02*
X0245600Y0109700D01*
X0237600Y0109743D02*
X0237600Y0119010D01*
X0248262Y0114700D02*
X0261281Y0114700D01*
X0261600Y0115471D02*
X0261600Y0119010D01*
X0263626Y0118700D02*
X0217888Y0118700D01*
X0217600Y0118988D02*
X0217600Y0119010D01*
X0253600Y0119010D02*
X0253600Y0111764D01*
X0257600Y0111764D02*
X0257600Y0119010D01*
X0275007Y0118700D02*
X0284395Y0118700D01*
X0281600Y0119010D02*
X0281600Y0086799D01*
X0285600Y0086799D02*
X0285600Y0107770D01*
X0283885Y0110700D02*
X0277157Y0110700D01*
X0277352Y0114700D02*
X0283885Y0114700D01*
X0277600Y0119010D02*
X0277600Y0090211D01*
X0277111Y0090700D02*
X0297800Y0090700D01*
X0305600Y0087682D02*
X0305600Y0073049D01*
X0305000Y0074700D02*
X0344850Y0074700D01*
X0345057Y0074201D02*
X0345901Y0073357D01*
X0347003Y0072900D01*
X0348197Y0072900D01*
X0349299Y0073357D01*
X0350143Y0074201D01*
X0350600Y0075303D01*
X0350600Y0076497D01*
X0350329Y0077152D01*
X0352145Y0077152D01*
X0353199Y0078206D01*
X0353199Y0085997D01*
X0352145Y0087051D01*
X0343555Y0087051D01*
X0342501Y0085997D01*
X0342501Y0078206D01*
X0343555Y0077152D01*
X0344871Y0077152D01*
X0344600Y0076497D01*
X0344600Y0075303D01*
X0345057Y0074201D01*
X0345600Y0073657D02*
X0345600Y0069800D01*
X0349600Y0069800D02*
X0349600Y0073657D01*
X0350350Y0074700D02*
X0354131Y0074700D01*
X0354131Y0070700D02*
X0307148Y0070700D01*
X0307148Y0066700D02*
X0323160Y0066700D01*
X0325600Y0068400D02*
X0325600Y0077351D01*
X0321600Y0077804D02*
X0321600Y0059000D01*
X0317600Y0059000D02*
X0317600Y0077351D01*
X0319701Y0078700D02*
X0320999Y0078700D01*
X0313600Y0077351D02*
X0313600Y0059000D01*
X0309600Y0059000D02*
X0309600Y0083682D01*
X0309802Y0082700D02*
X0305000Y0082700D01*
X0300600Y0082700D02*
X0299648Y0082700D01*
X0289749Y0082700D02*
X0288451Y0082700D01*
X0287496Y0086700D02*
X0290704Y0086700D01*
X0305000Y0086700D02*
X0306582Y0086700D01*
X0313600Y0088049D02*
X0313600Y0100412D01*
X0312488Y0098700D02*
X0318200Y0098700D01*
X0317600Y0102100D02*
X0317600Y0088049D01*
X0318200Y0090700D02*
X0310218Y0090700D01*
X0309600Y0091318D02*
X0309600Y0097711D01*
X0308300Y0094700D02*
X0318200Y0094700D01*
X0322600Y0094700D02*
X0342501Y0094700D01*
X0345600Y0098248D02*
X0345600Y0103546D01*
X0346600Y0102700D02*
X0322600Y0102700D01*
X0325600Y0104732D02*
X0325600Y0088049D01*
X0329600Y0088049D02*
X0329600Y0102957D01*
X0333600Y0102957D02*
X0333600Y0050211D01*
X0333111Y0050700D02*
X0341921Y0050700D01*
X0341600Y0050833D02*
X0341600Y0042211D01*
X0341111Y0042700D02*
X0345784Y0042700D01*
X0345600Y0042516D02*
X0345600Y0050400D01*
X0349600Y0050400D02*
X0349600Y0044111D01*
X0352416Y0042700D02*
X0354131Y0042700D01*
X0353600Y0040667D02*
X0353600Y0052412D01*
X0354131Y0050700D02*
X0351279Y0050700D01*
X0354131Y0046700D02*
X0337111Y0046700D01*
X0337600Y0046211D02*
X0337600Y0104732D01*
X0341600Y0104732D02*
X0341600Y0069344D01*
X0339251Y0066700D02*
X0330040Y0066700D01*
X0329600Y0067140D02*
X0329600Y0077351D01*
X0330898Y0078700D02*
X0342501Y0078700D01*
X0342501Y0082700D02*
X0330898Y0082700D01*
X0330898Y0086700D02*
X0343204Y0086700D01*
X0345600Y0087051D02*
X0345600Y0088349D01*
X0342501Y0090700D02*
X0322600Y0090700D01*
X0322600Y0098700D02*
X0346600Y0098700D01*
X0351000Y0098700D02*
X0354131Y0098700D01*
X0354131Y0102700D02*
X0351000Y0102700D01*
X0353262Y0106700D02*
X0354131Y0106700D01*
X0344938Y0106700D02*
X0343043Y0106700D01*
X0341600Y0107916D02*
X0341600Y0108685D01*
X0339090Y0108685D02*
X0339090Y0107916D01*
X0336498Y0107916D01*
X0335692Y0108722D01*
X0327508Y0108722D01*
X0326702Y0107916D01*
X0324110Y0107916D01*
X0324110Y0108685D01*
X0323342Y0108685D01*
X0323342Y0110831D01*
X0324110Y0110831D01*
X0324110Y0108685D01*
X0327294Y0108685D01*
X0327294Y0110480D01*
X0327185Y0110886D01*
X0326975Y0111251D01*
X0326918Y0111309D01*
X0327494Y0111886D01*
X0327494Y0111900D01*
X0335706Y0111900D01*
X0335706Y0111886D01*
X0336282Y0111309D01*
X0336225Y0111251D01*
X0336015Y0110886D01*
X0335906Y0110480D01*
X0335906Y0108685D01*
X0339090Y0108685D01*
X0337600Y0108685D02*
X0337600Y0107916D01*
X0339090Y0106700D02*
X0339858Y0106700D01*
X0333600Y0108722D02*
X0333600Y0111900D01*
X0335965Y0110700D02*
X0327235Y0110700D01*
X0329600Y0111900D02*
X0329600Y0108722D01*
X0325600Y0108685D02*
X0325600Y0107916D01*
X0324110Y0106700D02*
X0323342Y0106700D01*
X0317600Y0108100D02*
X0317600Y0119010D01*
X0316305Y0118700D02*
X0344946Y0118700D01*
X0341600Y0119010D02*
X0341600Y0118368D01*
X0337600Y0118368D02*
X0337600Y0119010D01*
X0333600Y0119010D02*
X0333600Y0117300D01*
X0329600Y0117300D02*
X0329600Y0119010D01*
X0325600Y0119010D02*
X0325600Y0118368D01*
X0321600Y0118368D02*
X0321600Y0119010D01*
X0319957Y0114700D02*
X0316815Y0114700D01*
X0316815Y0110700D02*
X0318200Y0110700D01*
X0323342Y0110700D02*
X0324110Y0110700D01*
X0315216Y0106700D02*
X0307931Y0106700D01*
X0309600Y0107770D02*
X0309600Y0105445D01*
X0305600Y0107630D02*
X0305600Y0108566D01*
X0301600Y0107630D02*
X0301600Y0119010D01*
X0297600Y0119010D02*
X0297600Y0107630D01*
X0295232Y0106700D02*
X0295232Y0106700D01*
X0293600Y0107190D02*
X0293600Y0107770D01*
X0295359Y0110700D02*
X0305341Y0110700D01*
X0313600Y0107770D02*
X0313600Y0102743D01*
X0313618Y0102700D02*
X0315957Y0102700D01*
X0339090Y0110700D02*
X0339858Y0110700D01*
X0342983Y0110700D02*
X0345214Y0110700D01*
X0345600Y0111086D02*
X0345600Y0111814D01*
X0352986Y0110700D02*
X0354131Y0110700D01*
X0354131Y0114700D02*
X0353262Y0114700D01*
X0353254Y0118700D02*
X0354131Y0118700D01*
X0353600Y0119010D02*
X0353600Y0067482D01*
X0353949Y0066700D02*
X0354131Y0066700D01*
X0347000Y0066700D02*
X0346200Y0066700D01*
X0345600Y0065600D02*
X0345600Y0064800D01*
X0346200Y0064800D02*
X0339006Y0064800D01*
X0339113Y0064123D01*
X0339337Y0063434D01*
X0339666Y0062789D01*
X0340091Y0062203D01*
X0340603Y0061691D01*
X0341189Y0061266D01*
X0341834Y0060937D01*
X0342523Y0060713D01*
X0343238Y0060600D01*
X0346200Y0060600D01*
X0346200Y0064800D01*
X0341600Y0064800D02*
X0341600Y0065600D01*
X0339730Y0062700D02*
X0330800Y0062700D01*
X0330800Y0064400D02*
X0326800Y0064400D01*
X0326800Y0068400D01*
X0328340Y0068400D01*
X0330800Y0065940D01*
X0330800Y0064400D01*
X0329600Y0064400D02*
X0329600Y0064000D01*
X0329600Y0061260D02*
X0329600Y0059423D01*
X0330323Y0058700D02*
X0340312Y0058700D01*
X0341600Y0059567D02*
X0341600Y0061056D01*
X0345600Y0060600D02*
X0345600Y0060000D01*
X0349600Y0060000D02*
X0349600Y0060600D01*
X0352888Y0058700D02*
X0354131Y0058700D01*
X0353600Y0057988D02*
X0353600Y0062918D01*
X0353470Y0062700D02*
X0354131Y0062700D01*
X0347000Y0062700D02*
X0346200Y0062700D01*
X0326800Y0066700D02*
X0326400Y0066700D01*
X0325600Y0064400D02*
X0325600Y0064000D01*
X0322400Y0062700D02*
X0306443Y0062700D01*
X0305600Y0062351D02*
X0305600Y0059000D01*
X0301600Y0059000D02*
X0301600Y0062351D01*
X0297954Y0062700D02*
X0295246Y0062700D01*
X0293600Y0062351D02*
X0293600Y0059718D01*
X0297600Y0059000D02*
X0297600Y0063054D01*
X0297249Y0066700D02*
X0295951Y0066700D01*
X0285600Y0067718D02*
X0285600Y0069700D01*
X0283757Y0070700D02*
X0282618Y0070700D01*
X0281600Y0071718D02*
X0281600Y0076101D01*
X0278552Y0078700D02*
X0274618Y0078700D01*
X0273600Y0079718D02*
X0273600Y0087989D01*
X0274889Y0086700D02*
X0250200Y0086700D01*
X0253600Y0084205D02*
X0253600Y0091628D01*
X0250200Y0090700D02*
X0270889Y0090700D01*
X0269600Y0091989D02*
X0269600Y0082600D01*
X0261600Y0084205D02*
X0261600Y0091628D01*
X0257600Y0091628D02*
X0257600Y0084205D01*
X0265600Y0077200D02*
X0265600Y0068580D01*
X0267784Y0066700D02*
X0278982Y0066700D01*
X0277600Y0068082D02*
X0277600Y0063700D01*
X0275757Y0062700D02*
X0267400Y0062700D01*
X0269600Y0060211D02*
X0269600Y0076082D01*
X0270982Y0074700D02*
X0262300Y0074700D01*
X0262300Y0070700D02*
X0274982Y0070700D01*
X0273600Y0072082D02*
X0273600Y0056211D01*
X0275111Y0054700D02*
X0283689Y0054700D01*
X0281600Y0055550D02*
X0281600Y0048211D01*
X0283111Y0046700D02*
X0291689Y0046700D01*
X0289600Y0048789D02*
X0289600Y0040211D01*
X0287111Y0042700D02*
X0295689Y0042700D01*
X0297600Y0040789D02*
X0297600Y0032211D01*
X0299111Y0030700D02*
X0307689Y0030700D01*
X0309600Y0028789D02*
X0309600Y0020211D01*
X0310911Y0018900D02*
X0310911Y0018900D01*
X0311111Y0018700D02*
X0342889Y0018700D01*
X0341600Y0019989D02*
X0341600Y0014800D01*
X0340503Y0014700D02*
X0334941Y0014700D01*
X0333600Y0014800D02*
X0333600Y0026500D01*
X0337600Y0023989D02*
X0337600Y0012890D01*
X0332629Y0014700D02*
X0327067Y0014700D01*
X0325600Y0014800D02*
X0325600Y0023601D01*
X0329600Y0023601D02*
X0329600Y0013016D01*
X0324755Y0014700D02*
X0319193Y0014700D01*
X0317600Y0014800D02*
X0317600Y0023601D01*
X0313600Y0023601D02*
X0313600Y0013268D01*
X0312200Y0014700D02*
X0316881Y0014700D01*
X0321600Y0013142D02*
X0321600Y0034054D01*
X0320999Y0034700D02*
X0319701Y0034700D01*
X0319701Y0038700D02*
X0320999Y0038700D01*
X0320999Y0042700D02*
X0319701Y0042700D01*
X0321600Y0043846D02*
X0321600Y0047700D01*
X0317600Y0047700D02*
X0317600Y0044299D01*
X0313600Y0044299D02*
X0313600Y0044851D01*
X0315898Y0046700D02*
X0330889Y0046700D01*
X0329600Y0047700D02*
X0329600Y0044299D01*
X0333600Y0043989D02*
X0333600Y0040900D01*
X0334889Y0042700D02*
X0330898Y0042700D01*
X0325600Y0044299D02*
X0325600Y0047700D01*
X0329600Y0052100D02*
X0329600Y0052977D01*
X0330741Y0054700D02*
X0338800Y0054700D01*
X0337600Y0039989D02*
X0337600Y0038211D01*
X0337111Y0038700D02*
X0338889Y0038700D01*
X0341600Y0035989D02*
X0341600Y0034211D01*
X0341111Y0034700D02*
X0342889Y0034700D01*
X0352542Y0034700D02*
X0354131Y0034700D01*
X0353600Y0032793D02*
X0353600Y0038355D01*
X0353700Y0038700D02*
X0354131Y0038700D01*
X0354131Y0030700D02*
X0353691Y0030700D01*
X0353600Y0030481D02*
X0353600Y0024919D01*
X0354131Y0026700D02*
X0352668Y0026700D01*
X0353639Y0022700D02*
X0354131Y0022700D01*
X0353600Y0022607D02*
X0353600Y0017045D01*
X0354131Y0018700D02*
X0352794Y0018700D01*
X0353600Y0014733D02*
X0353600Y0004500D01*
X0349600Y0004500D02*
X0349600Y0011289D01*
X0346259Y0010700D02*
X0354131Y0010700D01*
X0345600Y0012706D02*
X0345600Y0012884D01*
X0344613Y0014700D02*
X0342815Y0014700D01*
X0353587Y0014700D02*
X0354131Y0014700D01*
X0354131Y0006700D02*
X0344664Y0006700D01*
X0345600Y0007694D02*
X0345600Y0004500D01*
X0341600Y0004500D02*
X0341600Y0005600D01*
X0338654Y0006700D02*
X0336790Y0006700D01*
X0337600Y0007510D02*
X0337600Y0004500D01*
X0333600Y0004500D02*
X0333600Y0005600D01*
X0338889Y0022700D02*
X0307111Y0022700D01*
X0305600Y0024211D02*
X0305600Y0032789D01*
X0303689Y0034700D02*
X0295111Y0034700D01*
X0293600Y0036211D02*
X0293600Y0044789D01*
X0285600Y0044211D02*
X0285600Y0052789D01*
X0287689Y0050700D02*
X0279111Y0050700D01*
X0277600Y0052211D02*
X0277600Y0057220D01*
X0275757Y0058700D02*
X0271111Y0058700D01*
X0281600Y0062900D02*
X0281600Y0064082D01*
X0254489Y0054700D02*
X0241861Y0054700D01*
X0241861Y0053946D02*
X0241861Y0057100D01*
X0237712Y0057100D01*
X0237712Y0052557D01*
X0240472Y0052557D01*
X0240879Y0052666D01*
X0241244Y0052876D01*
X0241542Y0053174D01*
X0241752Y0053539D01*
X0241861Y0053946D01*
X0241600Y0053275D02*
X0241600Y0049625D01*
X0233600Y0050303D02*
X0233600Y0052597D01*
X0229600Y0052357D02*
X0229600Y0050543D01*
X0225600Y0050543D02*
X0225600Y0052357D01*
X0221600Y0052950D02*
X0221600Y0049950D01*
X0231038Y0046700D02*
X0232362Y0046700D01*
X0241861Y0042700D02*
X0263800Y0042700D01*
X0263800Y0038700D02*
X0242711Y0038700D01*
X0241600Y0039811D02*
X0241600Y0040775D01*
X0253600Y0048900D02*
X0253600Y0028550D01*
X0257600Y0027014D02*
X0257600Y0048100D01*
X0253600Y0053300D02*
X0253600Y0055589D01*
X0249600Y0054016D02*
X0249600Y0059589D01*
X0250489Y0058700D02*
X0241861Y0058700D01*
X0241600Y0058300D02*
X0241600Y0057100D01*
X0237712Y0054700D02*
X0236512Y0054700D01*
X0232362Y0054700D02*
X0231038Y0054700D01*
X0233600Y0057100D02*
X0233600Y0058300D01*
X0232362Y0058700D02*
X0231038Y0058700D01*
X0221139Y0054700D02*
X0208882Y0054700D01*
X0209600Y0053978D02*
X0209600Y0056882D01*
X0201600Y0057865D02*
X0201600Y0058100D01*
X0197600Y0058100D02*
X0197600Y0053865D01*
X0213600Y0049772D02*
X0213600Y0046450D01*
X0209600Y0046450D02*
X0209600Y0047559D01*
X0190435Y0046700D02*
X0167111Y0046700D01*
X0165600Y0048211D02*
X0165600Y0078389D01*
X0188300Y0075835D02*
X0188300Y0071418D01*
X0189518Y0070200D01*
X0193935Y0070200D01*
X0193827Y0070308D01*
X0191635Y0072501D01*
X0191635Y0072783D01*
X0190889Y0073529D01*
X0193682Y0076322D01*
X0193682Y0076322D01*
X0190889Y0073529D01*
X0190144Y0074275D01*
X0189861Y0074275D01*
X0188300Y0075835D01*
X0188300Y0074700D02*
X0189435Y0074700D01*
X0189600Y0074535D02*
X0189600Y0070200D01*
X0189018Y0070700D02*
X0193435Y0070700D01*
X0193600Y0070535D02*
X0193600Y0070200D01*
X0192060Y0074700D02*
X0192060Y0074700D01*
X0193600Y0076240D02*
X0193600Y0076240D01*
X0193682Y0076322D02*
X0196475Y0079115D01*
X0193682Y0076322D01*
X0193682Y0076322D01*
X0196060Y0078700D02*
X0196060Y0078700D01*
X0196890Y0078700D02*
X0198089Y0078700D01*
X0197600Y0078273D02*
X0197600Y0080820D01*
X0197716Y0082700D02*
X0202089Y0082700D01*
X0201600Y0082211D02*
X0201600Y0084457D01*
X0202600Y0086700D02*
X0206089Y0086700D01*
X0205600Y0086211D02*
X0205600Y0101189D01*
X0249600Y0093700D02*
X0249600Y0092611D01*
X0269111Y0098700D02*
X0288212Y0098700D01*
X0264099Y0106700D02*
X0263617Y0106700D01*
X0295359Y0114700D02*
X0305341Y0114700D01*
X0305600Y0118448D02*
X0305600Y0119010D01*
X0305852Y0118700D02*
X0294848Y0118700D01*
X0353199Y0094700D02*
X0354131Y0094700D01*
X0354131Y0090700D02*
X0353199Y0090700D01*
X0349600Y0088349D02*
X0349600Y0087051D01*
X0352496Y0086700D02*
X0354131Y0086700D01*
X0354131Y0082700D02*
X0353199Y0082700D01*
X0353199Y0078700D02*
X0354131Y0078700D01*
X0309802Y0078700D02*
X0305000Y0078700D01*
X0300600Y0078700D02*
X0299648Y0078700D01*
X0197600Y0082980D02*
X0197600Y0084457D01*
X0103996Y0110700D02*
X0077273Y0110700D01*
X0072673Y0111529D02*
X0072400Y0111500D01*
X0059200Y0098300D01*
X0059200Y0073500D01*
X0059130Y0073222D01*
X0056800Y0073500D02*
X0056570Y0073222D01*
X0056800Y0073500D02*
X0056800Y0103900D01*
X0064400Y0111500D01*
X0064799Y0111529D01*
X0061600Y0114835D02*
X0061600Y0119010D01*
X0065600Y0119010D02*
X0065600Y0116129D01*
X0068133Y0114700D02*
X0069339Y0114700D01*
X0069600Y0114961D02*
X0069600Y0119010D01*
X0073600Y0119010D02*
X0073600Y0116124D01*
X0076007Y0114700D02*
X0103800Y0114700D01*
X0105600Y0118154D02*
X0105600Y0119010D01*
X0106146Y0118700D02*
X0003400Y0118700D01*
X0005600Y0119010D02*
X0005600Y0113697D01*
X0006347Y0114700D02*
X0003400Y0114700D01*
X0009600Y0116129D02*
X0009600Y0119010D01*
X0013600Y0119010D02*
X0013600Y0114087D01*
X0013015Y0114700D02*
X0014221Y0114700D01*
X0017600Y0116129D02*
X0017600Y0119010D01*
X0021600Y0119010D02*
X0021600Y0114205D01*
X0022095Y0114700D02*
X0020889Y0114700D01*
X0017600Y0111500D02*
X0017555Y0111529D01*
X0017600Y0111500D02*
X0041200Y0087900D01*
X0041200Y0073500D01*
X0041216Y0073222D01*
X0043600Y0073500D02*
X0043775Y0073222D01*
X0043600Y0073500D02*
X0043600Y0093500D01*
X0025600Y0111500D01*
X0025429Y0111529D01*
X0028763Y0114700D02*
X0029969Y0114700D01*
X0029600Y0114331D02*
X0029600Y0119010D01*
X0025600Y0119010D02*
X0025600Y0116129D01*
X0033600Y0116129D02*
X0033600Y0119010D01*
X0037600Y0119010D02*
X0037600Y0114457D01*
X0037843Y0114700D02*
X0036637Y0114700D01*
X0041600Y0116129D02*
X0041600Y0119010D01*
X0045600Y0119010D02*
X0045600Y0114583D01*
X0045717Y0114700D02*
X0044511Y0114700D01*
X0049600Y0116129D02*
X0049600Y0119010D01*
X0053600Y0119010D02*
X0053600Y0114709D01*
X0053591Y0114700D02*
X0052385Y0114700D01*
X0057600Y0116129D02*
X0057600Y0119010D01*
X0060259Y0114700D02*
X0061465Y0114700D01*
X0056925Y0111529D02*
X0056800Y0111500D01*
X0054000Y0108700D01*
X0054000Y0073500D01*
X0054011Y0073222D01*
X0051452Y0073222D02*
X0051200Y0073500D01*
X0051200Y0109500D01*
X0049200Y0111500D01*
X0049051Y0111529D01*
X0048800Y0103900D02*
X0041200Y0111500D01*
X0041177Y0111529D01*
X0033600Y0111500D02*
X0033303Y0111529D01*
X0033600Y0111500D02*
X0046000Y0099100D01*
X0046000Y0073500D01*
X0046334Y0073222D01*
X0048800Y0073500D02*
X0048893Y0073222D01*
X0048800Y0073500D02*
X0048800Y0103900D01*
X0029600Y0096106D02*
X0029600Y0075714D01*
X0030667Y0074700D02*
X0038629Y0074700D01*
X0038629Y0076920D02*
X0038629Y0069523D01*
X0039683Y0068469D01*
X0059800Y0068469D01*
X0059800Y0067789D01*
X0063000Y0064589D01*
X0063000Y0064103D01*
X0063457Y0063001D01*
X0064301Y0062157D01*
X0065403Y0061700D01*
X0066597Y0061700D01*
X0067699Y0062157D01*
X0067800Y0062257D01*
X0067901Y0062157D01*
X0069003Y0061700D01*
X0070197Y0061700D01*
X0071299Y0062157D01*
X0072143Y0063001D01*
X0072400Y0063620D01*
X0072400Y0051630D01*
X0072374Y0051233D01*
X0072400Y0051155D01*
X0072400Y0051073D01*
X0072552Y0050705D01*
X0072680Y0050328D01*
X0072734Y0050267D01*
X0072765Y0050191D01*
X0073047Y0049909D01*
X0073465Y0049431D01*
X0072951Y0049431D01*
X0052478Y0049431D01*
X0052278Y0049231D01*
X0051452Y0049231D01*
X0051095Y0049231D01*
X0050151Y0052331D01*
X0050450Y0053053D01*
X0050450Y0054247D01*
X0049993Y0055349D01*
X0049251Y0056092D01*
X0049250Y0056128D01*
X0049250Y0057011D01*
X0049227Y0057034D01*
X0049226Y0057067D01*
X0048586Y0057675D01*
X0047961Y0058300D01*
X0047928Y0058300D01*
X0024648Y0080419D01*
X0024648Y0084495D01*
X0023594Y0085549D01*
X0015803Y0085549D01*
X0015600Y0085346D01*
X0015600Y0107359D01*
X0016640Y0106929D01*
X0018470Y0106929D01*
X0018687Y0107019D01*
X0038800Y0086906D01*
X0038800Y0077091D01*
X0038629Y0076920D01*
X0038800Y0078700D02*
X0026457Y0078700D01*
X0025600Y0079514D02*
X0025600Y0100106D01*
X0027006Y0098700D02*
X0015600Y0098700D01*
X0010800Y0098700D02*
X0003400Y0098700D01*
X0003400Y0094700D02*
X0010800Y0094700D01*
X0015600Y0094700D02*
X0031006Y0094700D01*
X0033600Y0092106D02*
X0033600Y0071913D01*
X0034877Y0070700D02*
X0038629Y0070700D01*
X0037600Y0068113D02*
X0037600Y0088106D01*
X0038800Y0086700D02*
X0015600Y0086700D01*
X0017600Y0085549D02*
X0017600Y0106929D01*
X0019006Y0106700D02*
X0015600Y0106700D01*
X0013200Y0108300D02*
X0010000Y0111500D01*
X0009681Y0111529D01*
X0005081Y0110700D02*
X0003400Y0110700D01*
X0005600Y0109360D02*
X0005600Y0085549D01*
X0003400Y0086700D02*
X0010800Y0086700D01*
X0009600Y0085549D02*
X0009600Y0106929D01*
X0010800Y0106700D02*
X0003400Y0106700D01*
X0003400Y0102700D02*
X0010800Y0102700D01*
X0015600Y0102700D02*
X0023006Y0102700D01*
X0021600Y0104106D02*
X0021600Y0085549D01*
X0024648Y0082700D02*
X0038800Y0082700D01*
X0035006Y0090700D02*
X0015600Y0090700D01*
X0010800Y0090700D02*
X0003400Y0090700D01*
X0003400Y0082700D02*
X0003552Y0082700D01*
X0003552Y0078700D02*
X0003400Y0078700D01*
X0003400Y0074700D02*
X0006582Y0074700D01*
X0005600Y0074851D02*
X0005600Y0070343D01*
X0005228Y0070343D02*
X0004821Y0070234D01*
X0004456Y0070024D01*
X0004158Y0069726D01*
X0003948Y0069361D01*
X0003839Y0068954D01*
X0003839Y0065800D01*
X0007988Y0065800D01*
X0007988Y0070343D01*
X0005228Y0070343D01*
X0003400Y0070700D02*
X0010582Y0070700D01*
X0009600Y0070343D02*
X0009600Y0071682D01*
X0013200Y0077900D02*
X0016000Y0075100D01*
X0018400Y0075100D01*
X0041200Y0052300D01*
X0041200Y0044700D01*
X0041216Y0044678D01*
X0051452Y0048405D02*
X0051452Y0049231D01*
X0051452Y0048405D01*
X0051452Y0048405D01*
X0051452Y0048405D01*
X0053600Y0049431D02*
X0053600Y0068469D01*
X0049600Y0068469D02*
X0049600Y0055743D01*
X0050262Y0054700D02*
X0072400Y0054700D01*
X0074800Y0051550D02*
X0092350Y0031500D01*
X0092350Y0014350D01*
X0092673Y0014029D01*
X0084799Y0014029D02*
X0084750Y0014350D01*
X0074800Y0024300D01*
X0074800Y0044300D01*
X0074484Y0044678D01*
X0072000Y0044300D02*
X0071925Y0044678D01*
X0072000Y0044300D02*
X0072000Y0019100D01*
X0076750Y0014350D01*
X0076925Y0014029D01*
X0069600Y0014750D02*
X0068750Y0014350D01*
X0069051Y0014029D01*
X0069600Y0014750D02*
X0069600Y0044300D01*
X0069366Y0044678D01*
X0066807Y0044678D02*
X0066800Y0044300D01*
X0066800Y0019600D01*
X0062800Y0014350D01*
X0061177Y0014029D01*
X0054800Y0014350D02*
X0053303Y0014029D01*
X0054800Y0014350D02*
X0064000Y0024800D01*
X0064000Y0044300D01*
X0064248Y0044678D01*
X0061689Y0044678D02*
X0061600Y0044300D01*
X0061600Y0029150D01*
X0048050Y0015600D01*
X0045429Y0014029D01*
X0039200Y0014350D02*
X0037555Y0014029D01*
X0039200Y0014350D02*
X0058800Y0032700D01*
X0058800Y0044300D01*
X0059130Y0044678D01*
X0056570Y0044678D02*
X0056400Y0044300D01*
X0056400Y0038300D01*
X0031200Y0014350D01*
X0029681Y0014029D01*
X0017600Y0008082D02*
X0017600Y0004500D01*
X0021600Y0004500D02*
X0021600Y0005200D01*
X0018982Y0006700D02*
X0003400Y0006700D01*
X0005600Y0004500D02*
X0005600Y0013801D01*
X0005141Y0013801D02*
X0007902Y0013801D01*
X0007902Y0018350D01*
X0003752Y0018350D01*
X0003752Y0015190D01*
X0003861Y0014783D01*
X0004072Y0014418D01*
X0004370Y0014120D01*
X0004734Y0013910D01*
X0005141Y0013801D01*
X0003909Y0014700D02*
X0003400Y0014700D01*
X0007902Y0014700D02*
X0009102Y0014700D01*
X0009600Y0013801D02*
X0009600Y0004500D01*
X0013600Y0004500D02*
X0013600Y0012082D01*
X0014982Y0010700D02*
X0003400Y0010700D01*
X0005600Y0018350D02*
X0005600Y0019550D01*
X0003400Y0018700D02*
X0007902Y0018700D01*
X0007902Y0022700D02*
X0009102Y0022700D01*
X0009600Y0024099D02*
X0009600Y0028807D01*
X0009188Y0028807D02*
X0011948Y0028807D01*
X0012355Y0028916D01*
X0012720Y0029126D01*
X0013018Y0029424D01*
X0013229Y0029789D01*
X0013338Y0030196D01*
X0013338Y0033350D01*
X0009188Y0033350D01*
X0009188Y0028807D01*
X0007988Y0028807D02*
X0007988Y0033350D01*
X0003839Y0033350D01*
X0003839Y0030196D01*
X0003948Y0029789D01*
X0004158Y0029424D01*
X0004456Y0029126D01*
X0004821Y0028916D01*
X0005228Y0028807D01*
X0007988Y0028807D01*
X0007988Y0030700D02*
X0009188Y0030700D01*
X0005600Y0028807D02*
X0005600Y0024099D01*
X0003752Y0022700D02*
X0003400Y0022700D01*
X0003400Y0026700D02*
X0014182Y0026700D01*
X0013600Y0026118D02*
X0013600Y0067682D01*
X0013338Y0066700D02*
X0014582Y0066700D01*
X0009600Y0065800D02*
X0009600Y0064600D01*
X0009188Y0062700D02*
X0007988Y0062700D01*
X0005600Y0064600D02*
X0005600Y0065800D01*
X0003839Y0066700D02*
X0003400Y0066700D01*
X0007988Y0066700D02*
X0009188Y0066700D01*
X0013338Y0062700D02*
X0014662Y0062700D01*
X0009600Y0060057D02*
X0009600Y0039093D01*
X0009188Y0039093D02*
X0011948Y0039093D01*
X0012355Y0038984D01*
X0012720Y0038774D01*
X0013018Y0038476D01*
X0013229Y0038111D01*
X0013338Y0037704D01*
X0013338Y0034550D01*
X0009188Y0034550D01*
X0007988Y0034550D01*
X0007988Y0033350D01*
X0009188Y0033350D01*
X0009188Y0034550D01*
X0009188Y0039093D01*
X0009188Y0038700D02*
X0007988Y0038700D01*
X0007988Y0039093D02*
X0005228Y0039093D01*
X0004821Y0038984D01*
X0004456Y0038774D01*
X0004158Y0038476D01*
X0003948Y0038111D01*
X0003839Y0037704D01*
X0003839Y0034550D01*
X0007988Y0034550D01*
X0007988Y0039093D01*
X0005600Y0039093D02*
X0005600Y0060057D01*
X0003400Y0058700D02*
X0016900Y0058700D01*
X0016900Y0054700D02*
X0003400Y0054700D01*
X0003400Y0050700D02*
X0016900Y0050700D01*
X0016900Y0046700D02*
X0003400Y0046700D01*
X0003400Y0042700D02*
X0016900Y0042700D01*
X0015123Y0038700D02*
X0012794Y0038700D01*
X0004383Y0038700D02*
X0003400Y0038700D01*
X0003400Y0034700D02*
X0003839Y0034700D01*
X0005600Y0034550D02*
X0005600Y0033350D01*
X0007988Y0034700D02*
X0009188Y0034700D01*
X0009600Y0034550D02*
X0009600Y0033350D01*
X0013338Y0034700D02*
X0014662Y0034700D01*
X0014662Y0030700D02*
X0013338Y0030700D01*
X0003839Y0030700D02*
X0003400Y0030700D01*
X0057600Y0049431D02*
X0057600Y0068469D01*
X0060889Y0066700D02*
X0039087Y0066700D01*
X0041600Y0068469D02*
X0041600Y0064313D01*
X0043297Y0062700D02*
X0063757Y0062700D01*
X0065600Y0061700D02*
X0065600Y0049431D01*
X0061600Y0049431D02*
X0061600Y0065989D01*
X0071843Y0062700D02*
X0072400Y0062700D01*
X0069600Y0061700D02*
X0069600Y0049431D01*
X0072554Y0050700D02*
X0050647Y0050700D01*
X0047507Y0058700D02*
X0072400Y0058700D01*
X0074800Y0051550D02*
X0074800Y0073100D01*
X0074484Y0073222D01*
X0088338Y0082700D02*
X0088889Y0082700D01*
X0085600Y0090343D02*
X0085600Y0104600D01*
X0085600Y0105800D02*
X0085600Y0119010D01*
X0089600Y0119010D02*
X0089600Y0110285D01*
X0093600Y0110549D02*
X0093600Y0119010D01*
X0097600Y0119010D02*
X0097600Y0110549D01*
X0101600Y0110043D02*
X0101600Y0119010D01*
X0092249Y0106700D02*
X0090751Y0106700D01*
X0089600Y0105800D02*
X0089600Y0104600D01*
X0090751Y0102700D02*
X0092249Y0102700D01*
X0086602Y0102700D02*
X0085402Y0102700D01*
X0081600Y0100640D02*
X0081600Y0090343D01*
X0085402Y0106700D02*
X0086602Y0106700D01*
X0013200Y0108300D02*
X0013200Y0077900D01*
X0045600Y0068469D02*
X0045600Y0060512D01*
X0003839Y0062700D02*
X0003400Y0062700D01*
X0101900Y0037152D02*
X0101900Y0029208D01*
X0102037Y0029278D01*
X0102696Y0029492D01*
X0103380Y0029600D01*
X0103539Y0029600D01*
X0103539Y0025387D01*
X0103913Y0025387D01*
X0103913Y0029600D01*
X0104072Y0029600D01*
X0104756Y0029492D01*
X0105415Y0029278D01*
X0106032Y0028963D01*
X0106592Y0028556D01*
X0107082Y0028066D01*
X0107489Y0027506D01*
X0107537Y0027412D01*
X0107700Y0027806D01*
X0108994Y0029100D01*
X0110685Y0029800D01*
X0112515Y0029800D01*
X0112709Y0029720D01*
X0116650Y0033661D01*
X0116650Y0033837D01*
X0115837Y0033500D01*
X0114563Y0033500D01*
X0113387Y0033987D01*
X0112487Y0034887D01*
X0112000Y0036063D01*
X0112000Y0036082D01*
X0110930Y0037152D01*
X0108555Y0037152D01*
X0107501Y0038206D01*
X0107501Y0039600D01*
X0106949Y0039600D01*
X0106949Y0038206D01*
X0105895Y0037152D01*
X0101900Y0037152D01*
X0105600Y0037152D02*
X0105600Y0029183D01*
X0101900Y0030700D02*
X0113689Y0030700D01*
X0113600Y0030611D02*
X0113600Y0033899D01*
X0112675Y0034700D02*
X0101900Y0034700D01*
X0109600Y0037152D02*
X0109600Y0029351D01*
X0103913Y0026700D02*
X0103539Y0026700D01*
X0103539Y0022700D02*
X0103913Y0022700D01*
X0105600Y0021217D02*
X0105600Y0015792D01*
X0104779Y0014700D02*
X0101900Y0014700D01*
X0101900Y0018700D02*
X0125800Y0018700D01*
X0121600Y0021102D02*
X0121600Y0004500D01*
X0125600Y0004500D02*
X0125600Y0006129D01*
X0124786Y0006700D02*
X0118998Y0006700D01*
X0117600Y0004884D02*
X0117600Y0004500D01*
X0105600Y0004500D02*
X0105600Y0005356D01*
X0104674Y0006700D02*
X0098218Y0006700D01*
X0097600Y0006082D02*
X0097600Y0004500D01*
X0093600Y0004500D02*
X0093600Y0005200D01*
X0089600Y0005200D02*
X0089600Y0004500D01*
X0085600Y0004500D02*
X0085600Y0005200D01*
X0081600Y0005200D02*
X0081600Y0004500D01*
X0077600Y0004500D02*
X0077600Y0005200D01*
X0073600Y0005200D02*
X0073600Y0004500D01*
X0069600Y0004500D02*
X0069600Y0005200D01*
X0065600Y0005200D02*
X0065600Y0004500D01*
X0061600Y0004500D02*
X0061600Y0005200D01*
X0057600Y0005200D02*
X0057600Y0004500D01*
X0053600Y0004500D02*
X0053600Y0005200D01*
X0049600Y0005200D02*
X0049600Y0004500D01*
X0045600Y0004500D02*
X0045600Y0005200D01*
X0041600Y0005200D02*
X0041600Y0004500D01*
X0037600Y0004500D02*
X0037600Y0005200D01*
X0033600Y0005200D02*
X0033600Y0004500D01*
X0029600Y0004500D02*
X0029600Y0005200D01*
X0025600Y0005200D02*
X0025600Y0004500D01*
X0101600Y0004500D02*
X0101600Y0010239D01*
X0101791Y0010700D02*
X0103737Y0010700D01*
X0117600Y0016264D02*
X0117600Y0020997D01*
X0113600Y0021049D02*
X0113600Y0018610D01*
X0109600Y0018414D02*
X0109600Y0021049D01*
X0107657Y0022700D02*
X0107348Y0022700D01*
X0121600Y0029298D02*
X0121600Y0048389D01*
X0121050Y0046700D02*
X0126889Y0046700D01*
X0125600Y0048500D02*
X0125600Y0014271D01*
X0125800Y0014700D02*
X0118894Y0014700D01*
X0119935Y0010700D02*
X0123191Y0010700D01*
X0130796Y0006700D02*
X0132660Y0006700D01*
X0133600Y0006076D02*
X0133600Y0004500D01*
X0129600Y0004500D02*
X0129600Y0005970D01*
X0137600Y0006023D02*
X0137600Y0004500D01*
X0141600Y0004500D02*
X0141600Y0006024D01*
X0140534Y0006700D02*
X0138670Y0006700D01*
X0145600Y0006075D02*
X0145600Y0004500D01*
X0149600Y0004500D02*
X0149600Y0005972D01*
X0148408Y0006700D02*
X0146544Y0006700D01*
X0153600Y0006127D02*
X0153600Y0004500D01*
X0157600Y0004500D02*
X0157600Y0005920D01*
X0156282Y0006700D02*
X0154418Y0006700D01*
X0161600Y0006179D02*
X0161600Y0004500D01*
X0165600Y0004500D02*
X0165600Y0005868D01*
X0164156Y0006700D02*
X0162292Y0006700D01*
X0169600Y0006231D02*
X0169600Y0004500D01*
X0173600Y0004500D02*
X0173600Y0005815D01*
X0172030Y0006700D02*
X0170166Y0006700D01*
X0177600Y0006283D02*
X0177600Y0004500D01*
X0181600Y0004500D02*
X0181600Y0005763D01*
X0179904Y0006700D02*
X0178040Y0006700D01*
X0185600Y0006386D02*
X0185600Y0004500D01*
X0189600Y0004500D02*
X0189600Y0012100D01*
X0187509Y0010700D02*
X0203565Y0010700D01*
X0201600Y0012100D02*
X0201600Y0007300D01*
X0197600Y0007300D02*
X0197600Y0012100D01*
X0193600Y0012100D02*
X0193600Y0007684D01*
X0192616Y0006700D02*
X0185914Y0006700D01*
X0125800Y0022700D02*
X0123417Y0022700D01*
X0123832Y0026700D02*
X0125800Y0026700D01*
X0125800Y0030700D02*
X0119911Y0030700D01*
X0121050Y0034700D02*
X0125800Y0034700D01*
X0125800Y0038700D02*
X0121050Y0038700D01*
X0121050Y0042700D02*
X0125800Y0042700D01*
X0107501Y0038700D02*
X0106949Y0038700D01*
X0257914Y0026700D02*
X0259689Y0026700D01*
X0291111Y0038700D02*
X0299689Y0038700D01*
X0301600Y0036789D02*
X0301600Y0028211D01*
X0303111Y0026700D02*
X0311052Y0026700D01*
X0320951Y0026700D02*
X0322249Y0026700D01*
X0322249Y0030700D02*
X0320951Y0030700D01*
D33*
X0316000Y0029100D02*
X0316002Y0028950D01*
X0316000Y0029100D02*
X0312400Y0029100D01*
X0283200Y0058300D01*
X0280400Y0058300D01*
X0278000Y0060700D02*
X0285600Y0060700D01*
X0296000Y0050300D01*
X0299600Y0050300D01*
X0299752Y0050200D01*
X0310948Y0050200D02*
X0311200Y0049900D01*
X0330800Y0049900D01*
X0348800Y0031900D01*
X0349100Y0031637D01*
X0336000Y0028700D02*
X0348800Y0015900D01*
X0349100Y0015889D01*
X0333785Y0010200D02*
X0333600Y0009900D01*
X0329600Y0005900D01*
X0284800Y0005900D01*
X0282400Y0008300D01*
X0282400Y0008700D01*
X0272800Y0018300D01*
X0266000Y0018300D01*
X0252000Y0004300D01*
X0211600Y0004300D01*
X0210800Y0005100D01*
X0195200Y0005100D01*
X0208165Y0010200D02*
X0208400Y0009900D01*
X0212400Y0005900D01*
X0249200Y0005900D01*
X0251600Y0008300D01*
X0251600Y0011900D01*
X0248400Y0015100D01*
X0245600Y0015900D02*
X0249600Y0019900D01*
X0256000Y0019900D01*
X0266000Y0029900D01*
X0266000Y0051900D01*
X0248000Y0069900D01*
X0248000Y0091100D01*
X0245600Y0093500D01*
X0239600Y0095900D02*
X0256800Y0095900D01*
X0256895Y0095791D01*
X0265200Y0099500D02*
X0283200Y0081500D01*
X0283502Y0081450D01*
X0294698Y0081450D02*
X0294800Y0081500D01*
X0300000Y0086700D01*
X0300000Y0102300D01*
X0300350Y0102385D01*
X0302800Y0102300D02*
X0302909Y0102385D01*
X0302800Y0102300D02*
X0302800Y0068300D01*
X0302400Y0067900D01*
X0302198Y0067700D01*
X0291002Y0067700D02*
X0290800Y0067900D01*
X0286000Y0072700D01*
X0265200Y0065100D02*
X0265200Y0061500D01*
X0310000Y0016700D01*
X0310000Y0010300D01*
X0310163Y0010200D01*
X0294415Y0010200D02*
X0294400Y0010300D01*
X0294400Y0029900D01*
X0262800Y0061500D01*
X0262800Y0067500D01*
X0246400Y0065900D02*
X0263600Y0048700D01*
X0257600Y0051100D02*
X0250400Y0051100D01*
X0227250Y0044250D02*
X0226088Y0045200D01*
X0227250Y0044250D02*
X0206400Y0044250D01*
X0202850Y0047800D01*
X0200400Y0050300D01*
X0200258Y0050654D01*
X0199200Y0048300D02*
X0198400Y0048300D01*
X0198066Y0048462D01*
X0199200Y0048300D02*
X0209600Y0037900D01*
X0240400Y0037900D01*
X0254000Y0024300D01*
X0254159Y0023950D01*
X0246285Y0023950D02*
X0246000Y0024300D01*
X0234000Y0036300D01*
X0206800Y0036300D01*
X0197200Y0045900D01*
X0196000Y0045900D01*
X0195874Y0046270D01*
X0194000Y0043900D02*
X0193682Y0044078D01*
X0194000Y0043900D02*
X0194800Y0043900D01*
X0204000Y0034700D01*
X0228000Y0034700D01*
X0238400Y0024300D01*
X0238411Y0023950D01*
X0230537Y0023950D02*
X0230400Y0024300D01*
X0221600Y0033100D01*
X0201200Y0033100D01*
X0192800Y0041500D01*
X0191600Y0041500D01*
X0191490Y0041886D01*
X0190400Y0039500D02*
X0198400Y0031500D01*
X0215200Y0031500D01*
X0222400Y0024300D01*
X0222663Y0023950D01*
X0214789Y0023950D02*
X0214400Y0024300D01*
X0208800Y0029900D01*
X0195600Y0029900D01*
X0188000Y0037500D01*
X0187200Y0037500D01*
X0187106Y0037502D01*
X0186000Y0035100D02*
X0192800Y0028300D01*
X0202800Y0028300D01*
X0206800Y0024300D01*
X0206915Y0023950D01*
X0199041Y0023950D02*
X0198800Y0024300D01*
X0192400Y0024300D01*
X0183600Y0033100D01*
X0182800Y0033100D01*
X0182722Y0033118D01*
X0184914Y0035310D02*
X0185200Y0035100D01*
X0186000Y0035100D01*
X0189298Y0039694D02*
X0189600Y0039500D01*
X0190400Y0039500D01*
X0168000Y0042700D02*
X0168000Y0022300D01*
X0174400Y0015900D01*
X0245600Y0015900D01*
X0216039Y0010200D02*
X0216000Y0010300D01*
X0212000Y0014300D01*
X0173600Y0014300D01*
X0166400Y0021500D01*
X0166400Y0022300D01*
X0162800Y0025900D01*
X0161600Y0025900D01*
X0160400Y0024700D01*
X0159600Y0024700D01*
X0159246Y0024350D01*
X0161438Y0022158D02*
X0161600Y0021900D01*
X0162400Y0021900D01*
X0164000Y0020300D01*
X0171762Y0022158D02*
X0172000Y0021900D01*
X0172800Y0021900D01*
X0176400Y0018300D01*
X0185600Y0018300D01*
X0190400Y0020700D02*
X0178400Y0020700D01*
X0174800Y0024300D01*
X0174000Y0024300D01*
X0173954Y0024350D01*
X0176400Y0026300D02*
X0179600Y0023100D01*
X0176400Y0026300D02*
X0176146Y0026542D01*
X0165600Y0028300D02*
X0159600Y0028300D01*
X0158000Y0026700D01*
X0157200Y0026700D01*
X0157054Y0026542D01*
X0154862Y0028734D02*
X0155200Y0029100D01*
X0165600Y0039500D01*
X0162400Y0040300D02*
X0133200Y0069500D01*
X0132942Y0069746D01*
X0131600Y0067500D02*
X0134400Y0064700D01*
X0128558Y0065362D02*
X0128400Y0065500D01*
X0122000Y0065500D01*
X0100200Y0087300D01*
X0100000Y0087100D01*
X0100200Y0087300D02*
X0099200Y0088300D01*
X0099200Y0103100D01*
X0097200Y0105100D01*
X0097198Y0105200D01*
X0114400Y0084700D02*
X0124000Y0094300D01*
X0124317Y0094422D01*
X0124400Y0094300D01*
X0128000Y0090700D01*
X0137200Y0090700D01*
X0144800Y0083100D01*
X0146000Y0083100D01*
X0146094Y0082898D01*
X0143600Y0081100D02*
X0143902Y0080706D01*
X0143600Y0081100D02*
X0142400Y0081100D01*
X0140800Y0082700D01*
X0118850Y0082700D01*
X0114400Y0084700D02*
X0111600Y0084700D01*
X0111600Y0084688D01*
X0123200Y0080300D02*
X0138800Y0080300D01*
X0140400Y0078700D01*
X0141600Y0078700D01*
X0141710Y0078514D01*
X0140400Y0076300D02*
X0142000Y0074700D01*
X0150400Y0074700D01*
X0140400Y0076300D02*
X0139600Y0076300D01*
X0139518Y0076322D01*
X0137600Y0073900D02*
X0137326Y0074130D01*
X0137600Y0073900D02*
X0137600Y0073100D01*
X0168000Y0042700D01*
X0152000Y0041500D02*
X0152000Y0035500D01*
X0150800Y0034300D01*
X0150800Y0033500D01*
X0150478Y0033118D01*
X0148000Y0033900D02*
X0146800Y0032700D01*
X0146800Y0030300D01*
X0148800Y0028300D01*
X0151200Y0028700D02*
X0151200Y0027100D01*
X0161600Y0016700D01*
X0167600Y0016700D01*
X0162800Y0014300D02*
X0166800Y0010300D01*
X0167161Y0010200D01*
X0159287Y0010200D02*
X0159200Y0010300D01*
X0157200Y0010300D01*
X0140000Y0027500D01*
X0140000Y0039100D01*
X0141600Y0040700D01*
X0141600Y0041500D01*
X0141710Y0041886D01*
X0139200Y0042700D02*
X0139200Y0043900D01*
X0139518Y0044078D01*
X0137200Y0045100D02*
X0135600Y0043500D01*
X0135600Y0017900D01*
X0143200Y0010300D01*
X0143539Y0010200D01*
X0151200Y0010300D02*
X0151413Y0010200D01*
X0151200Y0010300D02*
X0138000Y0023500D01*
X0138000Y0041500D01*
X0139200Y0042700D01*
X0137200Y0045100D02*
X0137200Y0045900D01*
X0137326Y0046270D01*
X0134800Y0047100D02*
X0133600Y0045900D01*
X0133600Y0012300D01*
X0135600Y0010300D01*
X0135665Y0010200D01*
X0128000Y0010300D02*
X0127791Y0010200D01*
X0128000Y0010300D02*
X0128000Y0044700D01*
X0132800Y0049500D01*
X0132800Y0050300D01*
X0132942Y0050654D01*
X0134800Y0048300D02*
X0135134Y0048462D01*
X0134800Y0048300D02*
X0134800Y0047100D01*
X0128400Y0054700D02*
X0125200Y0051500D01*
X0118850Y0048750D02*
X0118850Y0032750D01*
X0111600Y0025500D01*
X0111600Y0025200D01*
X0142400Y0027500D02*
X0142400Y0037100D01*
X0143600Y0038300D01*
X0143600Y0039500D01*
X0143902Y0039694D01*
X0146000Y0037500D02*
X0146094Y0037502D01*
X0146000Y0037500D02*
X0146000Y0036300D01*
X0144400Y0034700D01*
X0144400Y0029100D01*
X0144800Y0028700D01*
X0142400Y0027500D02*
X0155600Y0014300D01*
X0162800Y0014300D01*
X0151200Y0028700D02*
X0152400Y0029900D01*
X0152400Y0030700D01*
X0152670Y0030926D01*
X0148000Y0033900D02*
X0148000Y0035100D01*
X0148286Y0035310D01*
X0152000Y0041500D02*
X0134800Y0058700D01*
X0128800Y0058700D01*
X0118850Y0048750D01*
X0106800Y0048700D02*
X0082900Y0048700D01*
X0101600Y0053298D02*
X0101600Y0053500D01*
X0101600Y0066700D01*
X0103600Y0068700D01*
X0103913Y0068950D01*
X0111787Y0068950D02*
X0112000Y0068700D01*
X0112800Y0067900D01*
X0112800Y0053500D01*
X0112850Y0053298D01*
X0128400Y0054700D02*
X0128558Y0055038D01*
X0144800Y0062300D02*
X0135200Y0071900D01*
X0135134Y0071938D01*
X0131600Y0067500D02*
X0130800Y0067500D01*
X0130750Y0067554D01*
X0094400Y0085100D02*
X0089600Y0080300D01*
X0076000Y0080300D01*
X0072000Y0076300D01*
X0072000Y0073500D01*
X0071925Y0073222D01*
X0064400Y0073100D02*
X0064248Y0073222D01*
X0064400Y0073100D02*
X0064400Y0069900D01*
X0069600Y0064700D01*
X0066000Y0064700D02*
X0062000Y0068700D01*
X0062000Y0073100D01*
X0061689Y0073222D01*
X0094400Y0085100D02*
X0094612Y0085200D01*
X0139200Y0103100D02*
X0144000Y0098300D01*
X0144000Y0089050D01*
X0148000Y0085050D01*
X0148000Y0085100D01*
X0148286Y0085090D01*
X0156400Y0084300D02*
X0162800Y0084300D01*
X0186800Y0060300D01*
X0204800Y0060300D01*
X0197600Y0062700D02*
X0202400Y0067500D01*
X0202450Y0067554D01*
X0204642Y0065362D02*
X0204800Y0065500D01*
X0217600Y0078300D01*
X0224000Y0078300D01*
X0222400Y0080300D02*
X0222800Y0080700D01*
X0235600Y0080700D01*
X0246400Y0069900D01*
X0246400Y0065900D01*
X0226088Y0057700D02*
X0226000Y0057900D01*
X0217200Y0066700D01*
X0213200Y0066700D02*
X0213200Y0065900D01*
X0220800Y0058300D01*
X0199200Y0072300D02*
X0198400Y0072300D01*
X0198066Y0071938D01*
X0199200Y0072300D02*
X0209600Y0082700D01*
X0242800Y0082700D01*
X0245600Y0079900D01*
X0222400Y0080300D02*
X0212400Y0080300D01*
X0196800Y0074300D02*
X0222000Y0099500D01*
X0265200Y0099500D01*
X0256800Y0107500D02*
X0256895Y0107602D01*
X0256800Y0107500D02*
X0239600Y0107500D01*
X0214100Y0112700D02*
X0214000Y0112700D01*
X0194800Y0093500D01*
X0187600Y0095900D02*
X0183600Y0099900D01*
X0174400Y0099900D01*
X0172800Y0098300D01*
X0172000Y0098300D01*
X0171762Y0098242D01*
X0173600Y0095900D02*
X0173954Y0096050D01*
X0173600Y0095900D02*
X0173600Y0094700D01*
X0171200Y0092300D01*
X0170000Y0089900D02*
X0168000Y0091900D01*
X0168000Y0097900D01*
X0174000Y0103900D01*
X0191600Y0103900D01*
X0194000Y0098700D02*
X0194000Y0112700D01*
X0194100Y0112700D01*
X0184100Y0112700D02*
X0184000Y0112700D01*
X0180400Y0112700D01*
X0166400Y0098700D01*
X0166400Y0097900D01*
X0158400Y0089900D01*
X0157600Y0089900D01*
X0156000Y0091500D01*
X0155200Y0091500D01*
X0154862Y0091666D01*
X0158000Y0096300D02*
X0156800Y0097500D01*
X0154400Y0097500D01*
X0158000Y0096300D02*
X0159200Y0096300D01*
X0159246Y0096050D01*
X0160400Y0098300D02*
X0158800Y0099900D01*
X0156800Y0099900D01*
X0160400Y0098300D02*
X0161200Y0098300D01*
X0161438Y0098242D01*
X0176146Y0093858D02*
X0176400Y0093900D01*
X0177200Y0093900D01*
X0178800Y0095500D01*
X0180800Y0095500D01*
X0184800Y0093500D02*
X0180800Y0089500D01*
X0180530Y0089474D01*
X0178338Y0091666D02*
X0178000Y0091500D01*
X0177200Y0091500D01*
X0175600Y0089900D01*
X0170000Y0089900D01*
X0182722Y0087282D02*
X0182800Y0087500D01*
X0194000Y0098700D01*
X0199600Y0086700D02*
X0187600Y0086700D01*
X0186000Y0085100D01*
X0185200Y0085100D01*
X0184914Y0085090D01*
X0191600Y0078700D02*
X0194800Y0081900D01*
X0191600Y0078700D02*
X0191490Y0078514D01*
X0196000Y0074300D02*
X0195874Y0074130D01*
X0196000Y0074300D02*
X0196800Y0074300D01*
X0142000Y0106300D02*
X0139200Y0103500D01*
X0138883Y0103478D01*
X0139200Y0103100D01*
X0142000Y0106300D02*
X0142000Y0113900D01*
X0142112Y0113950D01*
X0047050Y0056100D02*
X0022000Y0079900D01*
X0020000Y0079900D01*
X0019698Y0080200D01*
X0047050Y0056100D02*
X0047050Y0054900D01*
X0047450Y0053650D01*
X0049200Y0047900D01*
X0049200Y0044700D01*
X0048893Y0044678D01*
X0046400Y0044700D02*
X0046334Y0044678D01*
X0046400Y0044700D02*
X0046400Y0048700D01*
X0043000Y0055300D01*
X0054011Y0044678D02*
X0054000Y0044300D01*
X0054000Y0041500D01*
X0031600Y0019100D01*
X0020000Y0019100D01*
X0019698Y0018950D01*
X0309600Y0043900D02*
X0314400Y0039100D01*
X0314752Y0038950D01*
X0325948Y0038950D02*
X0326000Y0038700D01*
X0334000Y0038700D01*
X0348800Y0023900D01*
X0349100Y0023763D01*
X0336000Y0028700D02*
X0327200Y0028700D01*
X0327198Y0028950D01*
X0325948Y0082700D02*
X0325600Y0082700D01*
X0320400Y0087900D01*
X0320400Y0105100D01*
X0317800Y0105100D01*
X0320400Y0105100D02*
X0320400Y0111100D01*
X0323600Y0114300D01*
X0323726Y0114600D01*
X0343950Y0115650D02*
X0348800Y0115500D01*
X0349100Y0115584D01*
X0349100Y0107316D02*
X0348800Y0107100D01*
X0348800Y0094300D01*
X0348000Y0093500D01*
X0347850Y0093298D01*
M02*
