%
M48
M72
T01C0.01200
T02C0.01600
T03C0.03150
T04C0.03200
T05C0.04000
T06C0.04134
T07C0.04724
T08C0.12598
%
T01
X82900Y48700
X106800Y48700
X125200Y51500
X144800Y62300
X134400Y64700
X150400Y74700
X123200Y80300
X118850Y82700
X100000Y87100
X154400Y97500
X156800Y99900
X171200Y92300
X180800Y95500
X184800Y93500
X187600Y95900
X194800Y93500
X199600Y86700
X194800Y81900
X212400Y80300
X224000Y78300
X206000Y70300
X209600Y66700
X213200Y66700
X217200Y66700
X204800Y60300
X197600Y62700
X220800Y58300
X250400Y51100
X257600Y51100
X263600Y48700
X280400Y58300
X278000Y60700
X265200Y65100
X262800Y67500
X286000Y72700
X245600Y79900
X245600Y93500
X239600Y95900
X239600Y107500
X191600Y103900
X156400Y84300
X69600Y64700
X66000Y64700
X43000Y55300
X47450Y53650
X144800Y28700
X148800Y28300
X165600Y28300
X179600Y23100
X185600Y18300
X190400Y20700
X167600Y16700
X164000Y20300
X195200Y5100
X248400Y15100
X309600Y43900
X347600Y75900
X317800Y105100
X343950Y115650
X162400Y40300
X165600Y39500
T02
X175200Y31900
X210500Y50650
X188800Y71500
X146800Y91100
X116800Y91100
X47850Y63950
X12850Y51450
X115200Y36700
X269650Y35400
X320400Y82300
T03
X29681Y14029
X37555Y14029
X45429Y14029
X53303Y14029
X61177Y14029
X69051Y14029
X76925Y14029
X84799Y14029
X92673Y14029
X103726Y25200
X111600Y25200
X119474Y25200
X127791Y10200
X135665Y10200
X143539Y10200
X151413Y10200
X159287Y10200
X167161Y10200
X175035Y10200
X182909Y10200
X208165Y10200
X216039Y10200
X223913Y10200
X231787Y10200
X239661Y10200
X247535Y10200
X246285Y23950
X254159Y23950
X238411Y23950
X230537Y23950
X222663Y23950
X214789Y23950
X206915Y23950
X199041Y23950
X286541Y10200
X294415Y10200
X302289Y10200
X310163Y10200
X318037Y10200
X325911Y10200
X333785Y10200
X341659Y10200
X349100Y15889
X349100Y23763
X349100Y31637
X349100Y39511
X111787Y68950
X103913Y68950
X95350Y75200
X72673Y111529
X64799Y111529
X56925Y111529
X49051Y111529
X41177Y111529
X33303Y111529
X25429Y111529
X17555Y111529
X9681Y111529
T04
X326600Y64200
X326600Y56200
T05
X346600Y55200
X346600Y65200
X214100Y112700
X204100Y112700
X194100Y112700
X184100Y112700
T06
X290803Y101578
X309897Y101578
T07
X311078Y113507
X289622Y113507
X244100Y113901
X244100Y86342
T08
X269317Y112936
X111836Y112936
X111836Y10574
X269317Y10574
M30
