<?xml version="1.0" encoding="UTF-8" standalone="no"?>
<!-- Generated by SVGo -->

<svg
   xmlns:dc="http://purl.org/dc/elements/1.1/"
   xmlns:cc="http://creativecommons.org/ns#"
   xmlns:rdf="http://www.w3.org/1999/02/22-rdf-syntax-ns#"
   xmlns:svg="http://www.w3.org/2000/svg"
   xmlns="http://www.w3.org/2000/svg"
   xmlns:xlink="http://www.w3.org/1999/xlink"
   xmlns:sodipodi="http://sodipodi.sourceforge.net/DTD/sodipodi-0.dtd"
   xmlns:inkscape="http://www.inkscape.org/namespaces/inkscape"
   width="166.875mm"
   height="178.063mm"
   viewBox="0.000 0.000 166.875 178.063"
   id="svg2"
   version="1.1"
   inkscape:version="0.91 r13725"
   sodipodi:docname="left__gk_tl1.svg">
  <metadata
     id="metadata86">
    <rdf:RDF>
      <cc:Work
         rdf:about="">
        <dc:format>image/svg+xml</dc:format>
        <dc:type
           rdf:resource="http://purl.org/dc/dcmitype/StillImage" />
        <dc:title />
      </cc:Work>
    </rdf:RDF>
  </metadata>
  <defs
     id="defs84">
    <linearGradient
       id="DCS">
      <stop
         id="stop4904"
         stop-opacity="0"
         stop-color="black"
         offset="0%" />
      <stop
         id="stop4906"
         stop-opacity="0.1"
         stop-color="black"
         offset="40%" />
      <stop
         id="stop4908"
         stop-opacity="0.1"
         stop-color="black"
         offset="60%" />
      <stop
         id="stop4910"
         stop-opacity="0"
         stop-color="black"
         offset="100%" />
    </linearGradient>
    <linearGradient
       y2="100%"
       y1="0%"
       x2="0%"
       x1="0%"
       id="SPACE">
      <stop
         id="stop4913"
         stop-opacity="0.1"
         stop-color="black"
         offset="0%" />
      <stop
         id="stop4915"
         stop-opacity="0.0"
         stop-color="black"
         offset="20%" />
      <stop
         id="stop4917"
         stop-opacity="0.0"
         stop-color="black"
         offset="40%" />
      <stop
         id="stop4919"
         stop-opacity="0.1"
         stop-color="black"
         offset="100%" />
    </linearGradient>
    <radialGradient
       id="DSA">
      <stop
         id="stop4922"
         stop-opacity="0.1"
         stop-color="black"
         offset="0%" />
      <stop
         id="stop4924"
         stop-opacity="0.1"
         stop-color="black"
         offset="10%" />
      <stop
         id="stop4926"
         stop-opacity="0"
         stop-color="black"
         offset="100%" />
    </radialGradient>
    <radialGradient
       xlink:href="#DSA"
       id="SA" />
  </defs>
  <sodipodi:namedview
     pagecolor="#ffffff"
     bordercolor="#666666"
     borderopacity="1"
     objecttolerance="10"
     gridtolerance="10"
     guidetolerance="10"
     inkscape:pageopacity="0"
     inkscape:pageshadow="2"
     inkscape:window-width="1274"
     inkscape:window-height="1358"
     id="namedview82"
     showgrid="false"
     inkscape:zoom="1.1483379"
     inkscape:cx="295.64469"
     inkscape:cy="315.46595"
     inkscape:window-x="0"
     inkscape:window-y="0"
     inkscape:window-maximized="0"
     inkscape:current-layer="layer14"
     inkscape:document-units="mm"
     showguides="false"
     inkscape:guide-bbox="true"
     inkscape:snap-bbox="true"
     inkscape:snap-bbox-midpoints="true"
     inkscape:snap-global="true"
     inkscape:snap-nodes="false">
    <sodipodi:guide
       position="27.166023,156.60413"
       orientation="0,1"
       id="guide4527" />
    <sodipodi:guide
       position="45.124514,160.10451"
       orientation="1,0"
       id="guide4531" />
    <sodipodi:guide
       position="80.765063,152.65189"
       orientation="1,0"
       id="guide4533" />
    <sodipodi:guide
       position="85.204182,152.59808"
       orientation="1,0"
       id="guide4535" />
    <sodipodi:guide
       position="120.79785,154.37373"
       orientation="1,0"
       id="guide4537" />
    <sodipodi:guide
       position="125.15625,154.53515"
       orientation="1,0"
       id="guide4539" />
    <sodipodi:guide
       position="34.242886,134.68868"
       orientation="0,1"
       id="guide4541" />
    <sodipodi:guide
       position="14.134702,26.728475"
       orientation="1,0"
       id="guide4543" />
    <sodipodi:guide
       position="18.034586,56.84319"
       orientation="0,1"
       id="guide4545" />
    <sodipodi:guide
       position="18.54823,81.498068"
       orientation="0,1"
       id="guide4547" />
    <sodipodi:guide
       position="19.651612,21.544482"
       orientation="0,1"
       id="guide4549" />
    <sodipodi:guide
       position="152.64717,38.428127"
       orientation="1,0"
       id="guide4551" />
    <sodipodi:guide
       position="158.32579,153.03716"
       orientation="1,0"
       id="guide4589" />
    <sodipodi:guide
       position="14.886143,31.075419"
       orientation="0,1"
       id="guide4651" />
    <sodipodi:guide
       position="31.100737,86.845311"
       orientation="1,0"
       id="guide4653" />
    <sodipodi:guide
       position="135.75402,123.27439"
       orientation="1,0"
       id="guide4655" />
  </sodipodi:namedview>
  <g
     inkscape:groupmode="layer"
     id="layer14"
     inkscape:label="faceplate"
     style="display:inline">
    <g
       id="g6152"
       transform="translate(4.8627458e-7,2.5005023)"
       style="fill:none;stroke:#0000ff;stroke-opacity:1;opacity:1;stroke-width:0.2;stroke-miterlimit:4;stroke-dasharray:none">
      <polygon
         id="polygon6136"
         style="fill:none;stroke:#0000ff;stroke-width:0.2;stroke-opacity:1;stroke-miterlimit:4;stroke-dasharray:none"
         points="159.376,5 159.572,5.007 159.767,5.03 159.959,5.069 160.148,5.122 160.332,5.19 160.51,5.272 160.682,5.368 160.845,5.477 160.999,5.598 161.143,5.732 161.277,5.876 161.398,6.03 161.507,6.193 161.603,6.365 161.685,6.543 161.753,6.727 161.806,6.916 161.845,7.108 161.868,7.303 161.875,7.5 161.876,165.563 161.868,165.759 161.845,165.954 161.806,166.147 161.753,166.336 161.685,166.52 161.603,166.698 161.507,166.869 161.398,167.032 161.277,167.187 161.143,167.331 160.999,167.464 160.845,167.586 160.682,167.695 160.51,167.791 160.332,167.873 160.148,167.941 159.959,167.994 159.767,168.032 159.572,168.055 159.376,168.063 7.5,168.063 7.303,168.055 7.108,168.032 6.916,167.994 6.727,167.941 6.543,167.873 6.365,167.791 6.193,167.695 6.03,167.586 5.876,167.464 5.732,167.331 5.598,167.187 5.477,167.032 5.368,166.869 5.272,166.698 5.19,166.52 5.122,166.336 5.069,166.147 5.03,165.954 5.007,165.759 4.999,165.563 5,7.5 5.007,7.303 5.03,7.108 5.069,6.916 5.122,6.727 5.19,6.543 5.272,6.365 5.368,6.193 5.477,6.03 5.598,5.876 5.732,5.732 5.876,5.598 6.03,5.477 6.193,5.368 6.365,5.272 6.543,5.19 6.727,5.122 6.916,5.069 7.108,5.03 7.303,5.007 7.5,4.999 " />
      <polygon
         id="polygon6138"
         style="fill:none;stroke:#0000ff;stroke-width:0.2;stroke-opacity:1;stroke-miterlimit:4;stroke-dasharray:none"
         points="11.998,65.811 11.998,84.863 11.999,84.863 11.999,161.063 150.113,161.063 150.113,122.961 140.588,122.961 140.588,103.911 135.826,103.911 135.826,84.863 145.351,84.863 145.351,65.811 " />
      <polygon
         id="polygon6140"
         style="fill:none;stroke:#0000ff;stroke-width:0.2;stroke-opacity:1;stroke-miterlimit:4;stroke-dasharray:none"
         points="11.998,41.998 11.998,61.051 31.051,61.051 31.051,41.998 " />
      <polygon
         id="polygon6142"
         style="fill:none;stroke:#0000ff;stroke-width:0.2;stroke-opacity:1;stroke-miterlimit:4;stroke-dasharray:none"
         points="35.811,41.998 35.811,61.051 112.013,61.051 112.013,41.998 " />
      <polygon
         id="polygon6144"
         style="fill:none;stroke:#0000ff;stroke-width:0.2;stroke-opacity:1;stroke-miterlimit:4;stroke-dasharray:none"
         points="116.774,41.998 116.774,61.051 154.876,61.051 154.876,41.998 " />
    </g>
  </g>
  <g
     style="display:inline"
     inkscape:label="matrix_2_leds"
     id="g4509"
     inkscape:groupmode="layer">
    <rect
       y="20.174046"
       x="23.095545"
       height="19.799999"
       width="119.8"
       id="rect4511"
       style="opacity:1;fill:none;fill-opacity:1;stroke:#0000ff;stroke-width:0.2;stroke-linejoin:miter;stroke-miterlimit:4;stroke-dasharray:none;stroke-opacity:1" />
  </g>
  <style
     id="style4899"
     type="text/css">
    .keycap .border { stroke: black; stroke-width: 2; }
    .keycap .inner.border { stroke: rgba(0,0,0,.1); }
    </style>
</svg>
