  0
SECTION
  2
HEADER
  9
$ACADVER
  1
AC1009
  9
$EXTMIN
 10
0.0
 20
0.0
 30
0.0
  9
$EXTMAX
 10
1000.0
 20
1000.0
 30
0.0
  9
$FILLMODE
 70
 0
  9
$SPLFRAME
 70
 1
  0
ENDSEC
  0
SECTION
  2
TABLES
  0
TABLE
  2
LAYER
 70
1
  0
LAYER
  2
0
 70
     0
 62
     7
  6
CONTINUOUS
  0
ENDTAB
  0
ENDSEC
  0
SECTION
  2
ENTITIES
  0
LINE
  8
0
 62
     0
 10
363.922
 20
148.919
 30
0.0
 11
364.077
 21
148.901
 31
0.0
  0
LINE
  8
0
 62
     0
 10
364.077
 20
148.901
 30
0.0
 11
364.229
 21
148.871
 31
0.0
  0
LINE
  8
0
 62
     0
 10
364.229
 20
148.871
 30
0.0
 11
364.381
 21
148.828
 31
0.0
  0
LINE
  8
0
 62
     0
 10
364.381
 20
148.828
 30
0.0
 11
364.529
 21
148.773
 31
0.0
  0
LINE
  8
0
 62
     0
 10
364.529
 20
148.773
 30
0.0
 11
364.67
 21
148.708
 31
0.0
  0
LINE
  8
0
 62
     0
 10
364.67
 20
148.708
 30
0.0
 11
364.811
 21
148.631
 31
0.0
  0
LINE
  8
0
 62
     0
 10
364.811
 20
148.631
 30
0.0
 11
364.942
 21
148.544
 31
0.0
  0
LINE
  8
0
 62
     0
 10
364.942
 20
148.544
 30
0.0
 11
365.061
 21
148.446
 31
0.0
  0
LINE
  8
0
 62
     0
 10
365.061
 20
148.446
 30
0.0
 11
365.178
 21
148.34
 31
0.0
  0
LINE
  8
0
 62
     0
 10
365.178
 20
148.34
 30
0.0
 11
365.284
 21
148.225
 31
0.0
  0
LINE
  8
0
 62
     0
 10
365.284
 20
148.225
 30
0.0
 11
365.383
 21
148.102
 31
0.0
  0
LINE
  8
0
 62
     0
 10
365.383
 20
148.102
 30
0.0
 11
365.471
 21
147.971
 31
0.0
  0
LINE
  8
0
 62
     0
 10
365.471
 20
147.971
 30
0.0
 11
365.548
 21
147.833
 31
0.0
  0
LINE
  8
0
 62
     0
 10
365.548
 20
147.833
 30
0.0
 11
365.612
 21
147.691
 31
0.0
  0
LINE
  8
0
 62
     0
 10
365.612
 20
147.691
 30
0.0
 11
365.668
 21
147.545
 31
0.0
  0
LINE
  8
0
 62
     0
 10
365.668
 20
147.545
 30
0.0
 11
365.711
 21
147.392
 31
0.0
  0
LINE
  8
0
 62
     0
 10
365.711
 20
147.392
 30
0.0
 11
365.739
 21
147.239
 31
0.0
  0
LINE
  8
0
 62
     0
 10
365.739
 20
147.239
 30
0.0
 11
365.756
 21
147.082
 31
0.0
  0
LINE
  8
0
 62
     0
 10
365.756
 20
147.082
 30
0.0
 11
365.764
 21
146.925
 31
0.0
  0
LINE
  8
0
 62
     0
 10
365.764
 20
146.925
 30
0.0
 11
365.764
 21
2.10013
 31
0.0
  0
LINE
  8
0
 62
     0
 10
365.764
 20
2.10013
 30
0.0
 11
365.756
 21
1.94303
 31
0.0
  0
LINE
  8
0
 62
     0
 10
365.756
 20
1.94303
 30
0.0
 11
365.739
 21
1.78732
 31
0.0
  0
LINE
  8
0
 62
     0
 10
365.739
 20
1.78732
 30
0.0
 11
365.711
 21
1.63298
 31
0.0
  0
LINE
  8
0
 62
     0
 10
365.711
 20
1.63298
 30
0.0
 11
365.668
 21
1.48139
 31
0.0
  0
LINE
  8
0
 62
     0
 10
365.668
 20
1.48139
 30
0.0
 11
365.612
 21
1.33394
 31
0.0
  0
LINE
  8
0
 62
     0
 10
365.612
 20
1.33394
 30
0.0
 11
365.548
 21
1.192
 31
0.0
  0
LINE
  8
0
 62
     0
 10
365.548
 20
1.192
 30
0.0
 11
365.471
 21
1.05558
 31
0.0
  0
LINE
  8
0
 62
     0
 10
365.471
 20
1.05558
 30
0.0
 11
365.383
 21
0.924662
 31
0.0
  0
LINE
  8
0
 62
     0
 10
365.383
 20
0.924662
 30
0.0
 11
365.284
 21
0.802019
 31
0.0
  0
LINE
  8
0
 62
     0
 10
365.284
 20
0.802019
 30
0.0
 11
365.178
 21
0.684886
 31
0.0
  0
LINE
  8
0
 62
     0
 10
365.178
 20
0.684886
 30
0.0
 11
365.061
 21
0.580154
 31
0.0
  0
LINE
  8
0
 62
     0
 10
365.061
 20
0.580154
 30
0.0
 11
364.942
 21
0.480935
 31
0.0
  0
LINE
  8
0
 62
     0
 10
364.942
 20
0.480935
 30
0.0
 11
364.811
 21
0.39412
 31
0.0
  0
LINE
  8
0
 62
     0
 10
364.811
 20
0.39412
 30
0.0
 11
364.67
 21
0.316949
 31
0.0
  0
LINE
  8
0
 62
     0
 10
364.67
 20
0.316949
 30
0.0
 11
364.529
 21
0.252181
 31
0.0
  0
LINE
  8
0
 62
     0
 10
364.529
 20
0.252181
 30
0.0
 11
364.381
 21
0.19706
 31
0.0
  0
LINE
  8
0
 62
     0
 10
364.381
 20
0.19706
 30
0.0
 11
364.229
 21
0.155718
 31
0.0
  0
LINE
  8
0
 62
     0
 10
364.229
 20
0.155718
 30
0.0
 11
364.077
 21
0.124024
 31
0.0
  0
LINE
  8
0
 62
     0
 10
364.077
 20
0.124024
 30
0.0
 11
363.922
 21
0.106109
 31
0.0
  0
LINE
  8
0
 62
     0
 10
363.922
 20
0.106109
 30
0.0
 11
363.763
 21
0.0992188
 31
0.0
  0
LINE
  8
0
 62
     0
 10
363.763
 20
0.0992188
 30
0.0
 11
2.10151
 21
0.0992188
 31
0.0
  0
LINE
  8
0
 62
     0
 10
2.10151
 20
0.0992188
 30
0.0
 11
1.94441
 21
0.106109
 31
0.0
  0
LINE
  8
0
 62
     0
 10
1.94441
 20
0.106109
 30
0.0
 11
1.78732
 21
0.124024
 31
0.0
  0
LINE
  8
0
 62
     0
 10
1.78732
 20
0.124024
 30
0.0
 11
1.63435
 21
0.155718
 31
0.0
  0
LINE
  8
0
 62
     0
 10
1.63435
 20
0.155718
 30
0.0
 11
1.48139
 21
0.19706
 31
0.0
  0
LINE
  8
0
 62
     0
 10
1.48139
 20
0.19706
 30
0.0
 11
1.33532
 21
0.252181
 31
0.0
  0
LINE
  8
0
 62
     0
 10
1.33532
 20
0.252181
 30
0.0
 11
1.19338
 21
0.316949
 31
0.0
  0
LINE
  8
0
 62
     0
 10
1.19338
 20
0.316949
 30
0.0
 11
1.05558
 21
0.39412
 31
0.0
  0
LINE
  8
0
 62
     0
 10
1.05558
 20
0.39412
 30
0.0
 11
0.924662
 21
0.480935
 31
0.0
  0
LINE
  8
0
 62
     0
 10
0.924662
 20
0.480935
 30
0.0
 11
0.802019
 21
0.580154
 31
0.0
  0
LINE
  8
0
 62
     0
 10
0.802019
 20
0.580154
 30
0.0
 11
0.686262
 21
0.684886
 31
0.0
  0
LINE
  8
0
 62
     0
 10
0.686262
 20
0.684886
 30
0.0
 11
0.580154
 21
0.802019
 31
0.0
  0
LINE
  8
0
 62
     0
 10
0.580154
 20
0.802019
 30
0.0
 11
0.482314
 21
0.924662
 31
0.0
  0
LINE
  8
0
 62
     0
 10
0.482314
 20
0.924662
 30
0.0
 11
0.395496
 21
1.05558
 31
0.0
  0
LINE
  8
0
 62
     0
 10
0.395496
 20
1.05558
 30
0.0
 11
0.318327
 21
1.192
 31
0.0
  0
LINE
  8
0
 62
     0
 10
0.318327
 20
1.192
 30
0.0
 11
0.253559
 21
1.33394
 31
0.0
  0
LINE
  8
0
 62
     0
 10
0.253559
 20
1.33394
 30
0.0
 11
0.198438
 21
1.48139
 31
0.0
  0
LINE
  8
0
 62
     0
 10
0.198438
 20
1.48139
 30
0.0
 11
0.155718
 21
1.63298
 31
0.0
  0
LINE
  8
0
 62
     0
 10
0.155718
 20
1.63298
 30
0.0
 11
0.125402
 21
1.78732
 31
0.0
  0
LINE
  8
0
 62
     0
 10
0.125402
 20
1.78732
 30
0.0
 11
0.107487
 21
1.94303
 31
0.0
  0
LINE
  8
0
 62
     0
 10
0.107487
 20
1.94303
 30
0.0
 11
0.100597
 21
2.10013
 31
0.0
  0
LINE
  8
0
 62
     0
 10
0.100597
 20
2.10013
 30
0.0
 11
0.100597
 21
146.925
 31
0.0
  0
LINE
  8
0
 62
     0
 10
0.100597
 20
146.925
 30
0.0
 11
0.107487
 21
147.082
 31
0.0
  0
LINE
  8
0
 62
     0
 10
0.107487
 20
147.082
 30
0.0
 11
0.125402
 21
147.239
 31
0.0
  0
LINE
  8
0
 62
     0
 10
0.125402
 20
147.239
 30
0.0
 11
0.155718
 21
147.392
 31
0.0
  0
LINE
  8
0
 62
     0
 10
0.155718
 20
147.392
 30
0.0
 11
0.198438
 21
147.545
 31
0.0
  0
LINE
  8
0
 62
     0
 10
0.198438
 20
147.545
 30
0.0
 11
0.253559
 21
147.691
 31
0.0
  0
LINE
  8
0
 62
     0
 10
0.253559
 20
147.691
 30
0.0
 11
0.318327
 21
147.833
 31
0.0
  0
LINE
  8
0
 62
     0
 10
0.318327
 20
147.833
 30
0.0
 11
0.395496
 21
147.971
 31
0.0
  0
LINE
  8
0
 62
     0
 10
0.395496
 20
147.971
 30
0.0
 11
0.482314
 21
148.102
 31
0.0
  0
LINE
  8
0
 62
     0
 10
0.482314
 20
148.102
 30
0.0
 11
0.580154
 21
148.225
 31
0.0
  0
LINE
  8
0
 62
     0
 10
0.580154
 20
148.225
 30
0.0
 11
0.686262
 21
148.34
 31
0.0
  0
LINE
  8
0
 62
     0
 10
0.686262
 20
148.34
 30
0.0
 11
0.802019
 21
148.446
 31
0.0
  0
LINE
  8
0
 62
     0
 10
0.802019
 20
148.446
 30
0.0
 11
0.924662
 21
148.544
 31
0.0
  0
LINE
  8
0
 62
     0
 10
0.924662
 20
148.544
 30
0.0
 11
1.05558
 21
148.631
 31
0.0
  0
LINE
  8
0
 62
     0
 10
1.05558
 20
148.631
 30
0.0
 11
1.19338
 21
148.708
 31
0.0
  0
LINE
  8
0
 62
     0
 10
1.19338
 20
148.708
 30
0.0
 11
1.33532
 21
148.773
 31
0.0
  0
LINE
  8
0
 62
     0
 10
1.33532
 20
148.773
 30
0.0
 11
1.48139
 21
148.828
 31
0.0
  0
LINE
  8
0
 62
     0
 10
1.48139
 20
148.828
 30
0.0
 11
1.63435
 21
148.871
 31
0.0
  0
LINE
  8
0
 62
     0
 10
1.63435
 20
148.871
 30
0.0
 11
1.78732
 21
148.901
 31
0.0
  0
LINE
  8
0
 62
     0
 10
1.78732
 20
148.901
 30
0.0
 11
1.94441
 21
148.919
 31
0.0
  0
LINE
  8
0
 62
     0
 10
1.94441
 20
148.919
 30
0.0
 11
2.10151
 21
148.926
 31
0.0
  0
LINE
  8
0
 62
     0
 10
2.10151
 20
148.926
 30
0.0
 11
363.763
 21
148.926
 31
0.0
  0
LINE
  8
0
 62
     0
 10
363.763
 20
148.926
 30
0.0
 11
363.922
 21
148.919
 31
0.0
  0
LINE
  8
0
 62
     0
 10
8.1001
 20
67.9496
 30
0.0
 11
8.1001
 21
9.60078
 31
0.0
  0
LINE
  8
0
 62
     0
 10
8.1001
 20
9.60078
 30
0.0
 11
295.851
 21
9.60078
 31
0.0
  0
LINE
  8
0
 62
     0
 10
295.851
 20
9.60078
 30
0.0
 11
295.851
 21
106.848
 31
0.0
  0
LINE
  8
0
 62
     0
 10
295.851
 20
106.848
 30
0.0
 11
8.1001
 21
106.848
 31
0.0
  0
LINE
  8
0
 62
     0
 10
8.1001
 20
106.848
 30
0.0
 11
8.1001
 21
67.9496
 31
0.0
  0
LINE
  8
0
 62
     0
 10
298.615
 20
49.6947
 30
0.0
 11
357.763
 21
49.6947
 31
0.0
  0
LINE
  8
0
 62
     0
 10
357.763
 20
49.6947
 30
0.0
 11
357.763
 21
9.60356
 31
0.0
  0
LINE
  8
0
 62
     0
 10
357.763
 20
9.60356
 30
0.0
 11
298.615
 21
9.60356
 31
0.0
  0
LINE
  8
0
 62
     0
 10
298.615
 20
9.60356
 30
0.0
 11
298.615
 21
49.6947
 31
0.0
  0
LINE
  8
0
 62
     0
 10
298.615
 20
106.845
 30
0.0
 11
357.763
 21
106.845
 31
0.0
  0
LINE
  8
0
 62
     0
 10
357.763
 20
106.845
 30
0.0
 11
357.763
 21
66.7537
 31
0.0
  0
LINE
  8
0
 62
     0
 10
357.763
 20
66.7537
 30
0.0
 11
298.615
 21
66.7537
 31
0.0
  0
LINE
  8
0
 62
     0
 10
298.615
 20
66.7537
 30
0.0
 11
298.615
 21
106.845
 31
0.0
  0
LINE
  8
0
 62
     0
 10
8.10426
 20
135.414
 30
0.0
 11
48.1969
 21
135.414
 31
0.0
  0
LINE
  8
0
 62
     0
 10
48.1969
 20
135.414
 30
0.0
 11
48.1969
 21
114.384
 31
0.0
  0
LINE
  8
0
 62
     0
 10
48.1969
 20
114.384
 30
0.0
 11
8.10426
 21
114.384
 31
0.0
  0
LINE
  8
0
 62
     0
 10
8.10426
 20
114.384
 30
0.0
 11
8.10426
 21
135.414
 31
0.0
  0
LINE
  8
0
 62
     0
 10
55.728
 20
135.425
 30
0.0
 11
133.925
 21
135.425
 31
0.0
  0
LINE
  8
0
 62
     0
 10
133.925
 20
135.425
 30
0.0
 11
133.925
 21
114.373
 31
0.0
  0
LINE
  8
0
 62
     0
 10
133.925
 20
114.373
 30
0.0
 11
55.728
 21
114.373
 31
0.0
  0
LINE
  8
0
 62
     0
 10
55.728
 20
114.373
 30
0.0
 11
55.728
 21
135.425
 31
0.0
  0
LINE
  8
0
 62
     0
 10
136.689
 20
135.425
 30
0.0
 11
214.886
 21
135.425
 31
0.0
  0
LINE
  8
0
 62
     0
 10
214.886
 20
135.425
 30
0.0
 11
214.886
 21
114.373
 31
0.0
  0
LINE
  8
0
 62
     0
 10
214.886
 20
114.373
 30
0.0
 11
136.689
 21
114.373
 31
0.0
  0
LINE
  8
0
 62
     0
 10
136.689
 20
114.373
 30
0.0
 11
136.689
 21
135.425
 31
0.0
  0
LINE
  8
0
 62
     0
 10
217.653
 20
135.425
 30
0.0
 11
295.85
 21
135.425
 31
0.0
  0
LINE
  8
0
 62
     0
 10
295.85
 20
135.425
 30
0.0
 11
295.85
 21
114.373
 31
0.0
  0
LINE
  8
0
 62
     0
 10
295.85
 20
114.373
 30
0.0
 11
217.653
 21
114.373
 31
0.0
  0
LINE
  8
0
 62
     0
 10
217.653
 20
114.373
 30
0.0
 11
217.653
 21
135.425
 31
0.0
  0
LINE
  8
0
 62
     0
 10
298.615
 20
135.425
 30
0.0
 11
357.759
 21
135.425
 31
0.0
  0
LINE
  8
0
 62
     0
 10
357.759
 20
135.425
 30
0.0
 11
357.759
 21
114.373
 31
0.0
  0
LINE
  8
0
 62
     0
 10
357.759
 20
114.373
 30
0.0
 11
298.615
 21
114.373
 31
0.0
  0
LINE
  8
0
 62
     0
 10
298.615
 20
114.373
 30
0.0
 11
298.615
 21
135.425
 31
0.0
  0
LINE
  8
0
 62
     0
 10
320.052
 20
110.612
 30
0.0
 11
320.052
 21
110.477
 31
0.0
  0
LINE
  8
0
 62
     0
 10
320.052
 20
110.477
 30
0.0
 11
319.942
 21
110.068
 31
0.0
  0
LINE
  8
0
 62
     0
 10
319.942
 20
110.068
 30
0.0
 11
319.641
 21
109.623
 31
0.0
  0
LINE
  8
0
 62
     0
 10
319.641
 20
109.623
 30
0.0
 11
319.197
 21
109.323
 31
0.0
  0
LINE
  8
0
 62
     0
 10
319.197
 20
109.323
 30
0.0
 11
318.787
 21
109.212
 31
0.0
  0
LINE
  8
0
 62
     0
 10
318.787
 20
109.212
 30
0.0
 11
318.652
 21
109.212
 31
0.0
  0
LINE
  8
0
 62
     0
 10
318.652
 20
109.212
 30
0.0
 11
318.516
 21
109.212
 31
0.0
  0
LINE
  8
0
 62
     0
 10
318.516
 20
109.212
 30
0.0
 11
318.106
 21
109.323
 31
0.0
  0
LINE
  8
0
 62
     0
 10
318.106
 20
109.323
 30
0.0
 11
317.661
 21
109.623
 31
0.0
  0
LINE
  8
0
 62
     0
 10
317.661
 20
109.623
 30
0.0
 11
317.361
 21
110.068
 31
0.0
  0
LINE
  8
0
 62
     0
 10
317.361
 20
110.068
 30
0.0
 11
317.252
 21
110.477
 31
0.0
  0
LINE
  8
0
 62
     0
 10
317.252
 20
110.477
 30
0.0
 11
317.252
 21
110.612
 31
0.0
  0
LINE
  8
0
 62
     0
 10
317.252
 20
110.612
 30
0.0
 11
317.252
 21
110.749
 31
0.0
  0
LINE
  8
0
 62
     0
 10
317.252
 20
110.749
 30
0.0
 11
317.361
 21
111.158
 31
0.0
  0
LINE
  8
0
 62
     0
 10
317.361
 20
111.158
 30
0.0
 11
317.661
 21
111.603
 31
0.0
  0
LINE
  8
0
 62
     0
 10
317.661
 20
111.603
 30
0.0
 11
318.106
 21
111.904
 31
0.0
  0
LINE
  8
0
 62
     0
 10
318.106
 20
111.904
 30
0.0
 11
318.516
 21
112.013
 31
0.0
  0
LINE
  8
0
 62
     0
 10
318.516
 20
112.013
 30
0.0
 11
318.652
 21
112.013
 31
0.0
  0
LINE
  8
0
 62
     0
 10
318.652
 20
112.013
 30
0.0
 11
318.787
 21
112.013
 31
0.0
  0
LINE
  8
0
 62
     0
 10
318.787
 20
112.013
 30
0.0
 11
319.197
 21
111.904
 31
0.0
  0
LINE
  8
0
 62
     0
 10
319.197
 20
111.904
 30
0.0
 11
319.641
 21
111.603
 31
0.0
  0
LINE
  8
0
 62
     0
 10
319.641
 20
111.603
 30
0.0
 11
319.942
 21
111.158
 31
0.0
  0
LINE
  8
0
 62
     0
 10
319.942
 20
111.158
 30
0.0
 11
320.052
 21
110.749
 31
0.0
  0
LINE
  8
0
 62
     0
 10
320.052
 20
110.749
 30
0.0
 11
320.052
 21
110.612
 31
0.0
  0
LINE
  8
0
 62
     0
 10
339.113
 20
110.611
 30
0.0
 11
339.113
 21
110.476
 31
0.0
  0
LINE
  8
0
 62
     0
 10
339.113
 20
110.476
 30
0.0
 11
339.003
 21
110.067
 31
0.0
  0
LINE
  8
0
 62
     0
 10
339.003
 20
110.067
 30
0.0
 11
338.703
 21
109.621
 31
0.0
  0
LINE
  8
0
 62
     0
 10
338.703
 20
109.621
 30
0.0
 11
338.257
 21
109.321
 31
0.0
  0
LINE
  8
0
 62
     0
 10
338.257
 20
109.321
 30
0.0
 11
337.848
 21
109.211
 31
0.0
  0
LINE
  8
0
 62
     0
 10
337.848
 20
109.211
 30
0.0
 11
337.713
 21
109.211
 31
0.0
  0
LINE
  8
0
 62
     0
 10
337.713
 20
109.211
 30
0.0
 11
337.577
 21
109.211
 31
0.0
  0
LINE
  8
0
 62
     0
 10
337.577
 20
109.211
 30
0.0
 11
337.167
 21
109.321
 31
0.0
  0
LINE
  8
0
 62
     0
 10
337.167
 20
109.321
 30
0.0
 11
336.722
 21
109.621
 31
0.0
  0
LINE
  8
0
 62
     0
 10
336.722
 20
109.621
 30
0.0
 11
336.422
 21
110.067
 31
0.0
  0
LINE
  8
0
 62
     0
 10
336.422
 20
110.067
 30
0.0
 11
336.313
 21
110.476
 31
0.0
  0
LINE
  8
0
 62
     0
 10
336.313
 20
110.476
 30
0.0
 11
336.313
 21
110.611
 31
0.0
  0
LINE
  8
0
 62
     0
 10
336.313
 20
110.611
 30
0.0
 11
336.313
 21
110.748
 31
0.0
  0
LINE
  8
0
 62
     0
 10
336.313
 20
110.748
 30
0.0
 11
336.422
 21
111.157
 31
0.0
  0
LINE
  8
0
 62
     0
 10
336.422
 20
111.157
 30
0.0
 11
336.722
 21
111.602
 31
0.0
  0
LINE
  8
0
 62
     0
 10
336.722
 20
111.602
 30
0.0
 11
337.167
 21
111.902
 31
0.0
  0
LINE
  8
0
 62
     0
 10
337.167
 20
111.902
 30
0.0
 11
337.577
 21
112.011
 31
0.0
  0
LINE
  8
0
 62
     0
 10
337.577
 20
112.011
 30
0.0
 11
337.713
 21
112.011
 31
0.0
  0
LINE
  8
0
 62
     0
 10
337.713
 20
112.011
 30
0.0
 11
337.848
 21
112.011
 31
0.0
  0
LINE
  8
0
 62
     0
 10
337.848
 20
112.011
 30
0.0
 11
338.257
 21
111.902
 31
0.0
  0
LINE
  8
0
 62
     0
 10
338.257
 20
111.902
 30
0.0
 11
338.703
 21
111.602
 31
0.0
  0
LINE
  8
0
 62
     0
 10
338.703
 20
111.602
 30
0.0
 11
339.003
 21
111.157
 31
0.0
  0
LINE
  8
0
 62
     0
 10
339.003
 20
111.157
 30
0.0
 11
339.113
 21
110.748
 31
0.0
  0
LINE
  8
0
 62
     0
 10
339.113
 20
110.748
 30
0.0
 11
339.113
 21
110.611
 31
0.0
  0
ENDSEC
  0
EOF
