  0
SECTION
  2
HEADER
  9
$ACADVER
  1
AC1009
  9
$EXTMIN
 10
0.0
 20
0.0
 30
0.0
  9
$EXTMAX
 10
1000.0
 20
1000.0
 30
0.0
  9
$FILLMODE
 70
 0
  9
$SPLFRAME
 70
 1
  0
ENDSEC
  0
SECTION
  2
TABLES
  0
TABLE
  2
LAYER
 70
1
  0
LAYER
  2
0
 70
     0
 62
     7
  6
CONTINUOUS
  0
ENDTAB
  0
ENDSEC
  0
SECTION
  2
ENTITIES
  0
LINE
  8
0
 62
     0
 10
6.34037
 20
129.464
 30
0.0
 11
6.22184
 21
128.881
 31
0.0
  0
LINE
  8
0
 62
     0
 10
6.22184
 20
128.881
 30
0.0
 11
5.90077
 21
128.404
 31
0.0
  0
LINE
  8
0
 62
     0
 10
5.90077
 20
128.404
 30
0.0
 11
5.42396
 21
128.082
 31
0.0
  0
LINE
  8
0
 62
     0
 10
5.42396
 20
128.082
 30
0.0
 11
4.84106
 21
127.963
 31
0.0
  0
LINE
  8
0
 62
     0
 10
4.84106
 20
127.963
 30
0.0
 11
4.25538
 21
128.082
 31
0.0
  0
LINE
  8
0
 62
     0
 10
4.25538
 20
128.082
 30
0.0
 11
3.77857
 21
128.404
 31
0.0
  0
LINE
  8
0
 62
     0
 10
3.77857
 20
128.404
 30
0.0
 11
3.4575
 21
128.881
 31
0.0
  0
LINE
  8
0
 62
     0
 10
3.4575
 20
128.881
 30
0.0
 11
3.34036
 21
129.464
 31
0.0
  0
LINE
  8
0
 62
     0
 10
3.34036
 20
129.464
 30
0.0
 11
3.4575
 21
130.048
 31
0.0
  0
LINE
  8
0
 62
     0
 10
3.4575
 20
130.048
 30
0.0
 11
3.77857
 21
130.525
 31
0.0
  0
LINE
  8
0
 62
     0
 10
3.77857
 20
130.525
 30
0.0
 11
4.25538
 21
130.846
 31
0.0
  0
LINE
  8
0
 62
     0
 10
4.25538
 20
130.846
 30
0.0
 11
4.84106
 21
130.963
 31
0.0
  0
LINE
  8
0
 62
     0
 10
4.84106
 20
130.963
 30
0.0
 11
5.42396
 21
130.846
 31
0.0
  0
LINE
  8
0
 62
     0
 10
5.42396
 20
130.846
 30
0.0
 11
5.90077
 21
130.525
 31
0.0
  0
LINE
  8
0
 62
     0
 10
5.90077
 20
130.525
 30
0.0
 11
6.22184
 21
130.048
 31
0.0
  0
LINE
  8
0
 62
     0
 10
6.22184
 20
130.048
 30
0.0
 11
6.34037
 21
129.464
 31
0.0
  0
LINE
  8
0
 62
     0
 10
6.34312
 20
129.464
 30
0.0
 11
6.22459
 21
128.881
 31
0.0
  0
LINE
  8
0
 62
     0
 10
6.22459
 20
128.881
 30
0.0
 11
5.90352
 21
128.404
 31
0.0
  0
LINE
  8
0
 62
     0
 10
5.90352
 20
128.404
 30
0.0
 11
5.42671
 21
128.082
 31
0.0
  0
LINE
  8
0
 62
     0
 10
5.42671
 20
128.082
 30
0.0
 11
4.84382
 21
127.963
 31
0.0
  0
LINE
  8
0
 62
     0
 10
4.84382
 20
127.963
 30
0.0
 11
4.25951
 21
128.082
 31
0.0
  0
LINE
  8
0
 62
     0
 10
4.25951
 20
128.082
 30
0.0
 11
3.78273
 21
128.404
 31
0.0
  0
LINE
  8
0
 62
     0
 10
3.78273
 20
128.404
 30
0.0
 11
3.46025
 21
128.881
 31
0.0
  0
LINE
  8
0
 62
     0
 10
3.46025
 20
128.881
 30
0.0
 11
3.34312
 21
129.464
 31
0.0
  0
LINE
  8
0
 62
     0
 10
3.34312
 20
129.464
 30
0.0
 11
3.46025
 21
130.048
 31
0.0
  0
LINE
  8
0
 62
     0
 10
3.46025
 20
130.048
 30
0.0
 11
3.78273
 21
130.525
 31
0.0
  0
LINE
  8
0
 62
     0
 10
3.78273
 20
130.525
 30
0.0
 11
4.25951
 21
130.846
 31
0.0
  0
LINE
  8
0
 62
     0
 10
4.25951
 20
130.846
 30
0.0
 11
4.84382
 21
130.963
 31
0.0
  0
LINE
  8
0
 62
     0
 10
4.84382
 20
130.963
 30
0.0
 11
5.42671
 21
130.846
 31
0.0
  0
LINE
  8
0
 62
     0
 10
5.42671
 20
130.846
 30
0.0
 11
5.90352
 21
130.525
 31
0.0
  0
LINE
  8
0
 62
     0
 10
5.90352
 20
130.525
 30
0.0
 11
6.22459
 21
130.048
 31
0.0
  0
LINE
  8
0
 62
     0
 10
6.22459
 20
130.048
 30
0.0
 11
6.34312
 21
129.464
 31
0.0
  0
LINE
  8
0
 62
     0
 10
6.34725
 20
20.4088
 30
0.0
 11
6.22875
 21
19.8258
 31
0.0
  0
LINE
  8
0
 62
     0
 10
6.22875
 20
19.8258
 30
0.0
 11
5.90628
 21
19.349
 31
0.0
  0
LINE
  8
0
 62
     0
 10
5.90628
 20
19.349
 30
0.0
 11
5.42946
 21
19.0266
 31
0.0
  0
LINE
  8
0
 62
     0
 10
5.42946
 20
19.0266
 30
0.0
 11
4.84657
 21
18.9081
 31
0.0
  0
LINE
  8
0
 62
     0
 10
4.84657
 20
18.9081
 30
0.0
 11
4.26226
 21
19.0266
 31
0.0
  0
LINE
  8
0
 62
     0
 10
4.26226
 20
19.0266
 30
0.0
 11
3.78548
 21
19.349
 31
0.0
  0
LINE
  8
0
 62
     0
 10
3.78548
 20
19.349
 30
0.0
 11
3.46439
 21
19.8258
 31
0.0
  0
LINE
  8
0
 62
     0
 10
3.46439
 20
19.8258
 30
0.0
 11
3.34725
 21
20.4088
 31
0.0
  0
LINE
  8
0
 62
     0
 10
3.34725
 20
20.4088
 30
0.0
 11
3.46439
 21
20.993
 31
0.0
  0
LINE
  8
0
 62
     0
 10
3.46439
 20
20.993
 30
0.0
 11
3.78548
 21
21.4698
 31
0.0
  0
LINE
  8
0
 62
     0
 10
3.78548
 20
21.4698
 30
0.0
 11
4.26226
 21
21.7909
 31
0.0
  0
LINE
  8
0
 62
     0
 10
4.26226
 20
21.7909
 30
0.0
 11
4.84657
 21
21.9081
 31
0.0
  0
LINE
  8
0
 62
     0
 10
4.84657
 20
21.9081
 30
0.0
 11
5.42946
 21
21.7909
 31
0.0
  0
LINE
  8
0
 62
     0
 10
5.42946
 20
21.7909
 30
0.0
 11
5.90628
 21
21.4698
 31
0.0
  0
LINE
  8
0
 62
     0
 10
5.90628
 20
21.4698
 30
0.0
 11
6.22875
 21
20.993
 31
0.0
  0
LINE
  8
0
 62
     0
 10
6.22875
 20
20.993
 30
0.0
 11
6.34725
 21
20.4088
 31
0.0
  0
LINE
  8
0
 62
     0
 10
6.34725
 20
20.4088
 30
0.0
 11
6.22875
 21
19.8258
 31
0.0
  0
LINE
  8
0
 62
     0
 10
6.22875
 20
19.8258
 30
0.0
 11
5.90628
 21
19.349
 31
0.0
  0
LINE
  8
0
 62
     0
 10
5.90628
 20
19.349
 30
0.0
 11
5.42946
 21
19.0266
 31
0.0
  0
LINE
  8
0
 62
     0
 10
5.42946
 20
19.0266
 30
0.0
 11
4.84657
 21
18.9081
 31
0.0
  0
LINE
  8
0
 62
     0
 10
4.84657
 20
18.9081
 30
0.0
 11
4.26226
 21
19.0266
 31
0.0
  0
LINE
  8
0
 62
     0
 10
4.26226
 20
19.0266
 30
0.0
 11
3.78548
 21
19.349
 31
0.0
  0
LINE
  8
0
 62
     0
 10
3.78548
 20
19.349
 30
0.0
 11
3.46439
 21
19.8258
 31
0.0
  0
LINE
  8
0
 62
     0
 10
3.46439
 20
19.8258
 30
0.0
 11
3.34725
 21
20.4088
 31
0.0
  0
LINE
  8
0
 62
     0
 10
3.34725
 20
20.4088
 30
0.0
 11
3.46439
 21
20.993
 31
0.0
  0
LINE
  8
0
 62
     0
 10
3.46439
 20
20.993
 30
0.0
 11
3.78548
 21
21.4698
 31
0.0
  0
LINE
  8
0
 62
     0
 10
3.78548
 20
21.4698
 30
0.0
 11
4.26226
 21
21.7909
 31
0.0
  0
LINE
  8
0
 62
     0
 10
4.26226
 20
21.7909
 30
0.0
 11
4.84657
 21
21.9081
 31
0.0
  0
LINE
  8
0
 62
     0
 10
4.84657
 20
21.9081
 30
0.0
 11
5.42946
 21
21.7909
 31
0.0
  0
LINE
  8
0
 62
     0
 10
5.42946
 20
21.7909
 30
0.0
 11
5.90628
 21
21.4698
 31
0.0
  0
LINE
  8
0
 62
     0
 10
5.90628
 20
21.4698
 30
0.0
 11
6.22875
 21
20.993
 31
0.0
  0
LINE
  8
0
 62
     0
 10
6.22875
 20
20.993
 30
0.0
 11
6.34725
 21
20.4088
 31
0.0
  0
LINE
  8
0
 62
     0
 10
29.643
 20
143.176
 30
0.0
 11
29.5245
 21
142.592
 31
0.0
  0
LINE
  8
0
 62
     0
 10
29.5245
 20
142.592
 30
0.0
 11
29.2034
 21
142.116
 31
0.0
  0
LINE
  8
0
 62
     0
 10
29.2034
 20
142.116
 30
0.0
 11
28.7266
 21
141.795
 31
0.0
  0
LINE
  8
0
 62
     0
 10
28.7266
 20
141.795
 30
0.0
 11
28.1437
 21
141.676
 31
0.0
  0
LINE
  8
0
 62
     0
 10
28.1437
 20
141.676
 30
0.0
 11
27.5594
 21
141.795
 31
0.0
  0
LINE
  8
0
 62
     0
 10
27.5594
 20
141.795
 30
0.0
 11
27.0826
 21
142.116
 31
0.0
  0
LINE
  8
0
 62
     0
 10
27.0826
 20
142.116
 30
0.0
 11
26.7601
 21
142.592
 31
0.0
  0
LINE
  8
0
 62
     0
 10
26.7601
 20
142.592
 30
0.0
 11
26.643
 21
143.176
 31
0.0
  0
LINE
  8
0
 62
     0
 10
26.643
 20
143.176
 30
0.0
 11
26.7601
 21
143.76
 31
0.0
  0
LINE
  8
0
 62
     0
 10
26.7601
 20
143.76
 30
0.0
 11
27.0826
 21
144.236
 31
0.0
  0
LINE
  8
0
 62
     0
 10
27.0826
 20
144.236
 30
0.0
 11
27.5594
 21
144.559
 31
0.0
  0
LINE
  8
0
 62
     0
 10
27.5594
 20
144.559
 30
0.0
 11
28.1437
 21
144.676
 31
0.0
  0
LINE
  8
0
 62
     0
 10
28.1437
 20
144.676
 30
0.0
 11
28.7266
 21
144.559
 31
0.0
  0
LINE
  8
0
 62
     0
 10
28.7266
 20
144.559
 30
0.0
 11
29.2034
 21
144.236
 31
0.0
  0
LINE
  8
0
 62
     0
 10
29.2034
 20
144.236
 30
0.0
 11
29.5245
 21
143.76
 31
0.0
  0
LINE
  8
0
 62
     0
 10
29.5245
 20
143.76
 30
0.0
 11
29.643
 21
143.176
 31
0.0
  0
LINE
  8
0
 62
     0
 10
29.6444
 20
5.83875
 30
0.0
 11
29.5258
 21
5.25582
 31
0.0
  0
LINE
  8
0
 62
     0
 10
29.5258
 20
5.25582
 30
0.0
 11
29.2034
 21
4.77905
 31
0.0
  0
LINE
  8
0
 62
     0
 10
29.2034
 20
4.77905
 30
0.0
 11
28.7266
 21
4.45795
 31
0.0
  0
LINE
  8
0
 62
     0
 10
28.7266
 20
4.45795
 30
0.0
 11
28.1437
 21
4.33945
 31
0.0
  0
LINE
  8
0
 62
     0
 10
28.1437
 20
4.33945
 30
0.0
 11
27.5594
 21
4.45795
 31
0.0
  0
LINE
  8
0
 62
     0
 10
27.5594
 20
4.45795
 30
0.0
 11
27.0826
 21
4.77905
 31
0.0
  0
LINE
  8
0
 62
     0
 10
27.0826
 20
4.77905
 30
0.0
 11
26.7615
 21
5.25582
 31
0.0
  0
LINE
  8
0
 62
     0
 10
26.7615
 20
5.25582
 30
0.0
 11
26.6444
 21
5.83875
 31
0.0
  0
LINE
  8
0
 62
     0
 10
26.6444
 20
5.83875
 30
0.0
 11
26.7615
 21
6.4244
 31
0.0
  0
LINE
  8
0
 62
     0
 10
26.7615
 20
6.4244
 30
0.0
 11
27.0826
 21
6.90122
 31
0.0
  0
LINE
  8
0
 62
     0
 10
27.0826
 20
6.90122
 30
0.0
 11
27.5594
 21
7.22231
 31
0.0
  0
LINE
  8
0
 62
     0
 10
27.5594
 20
7.22231
 30
0.0
 11
28.1437
 21
7.33944
 31
0.0
  0
LINE
  8
0
 62
     0
 10
28.1437
 20
7.33944
 30
0.0
 11
28.7266
 21
7.22231
 31
0.0
  0
LINE
  8
0
 62
     0
 10
28.7266
 20
7.22231
 30
0.0
 11
29.2034
 21
6.90122
 31
0.0
  0
LINE
  8
0
 62
     0
 10
29.2034
 20
6.90122
 30
0.0
 11
29.5258
 21
6.4244
 31
0.0
  0
LINE
  8
0
 62
     0
 10
29.5258
 20
6.4244
 30
0.0
 11
29.6444
 21
5.83875
 31
0.0
  0
LINE
  8
0
 62
     0
 10
29.6444
 20
5.83875
 30
0.0
 11
29.5258
 21
5.25582
 31
0.0
  0
LINE
  8
0
 62
     0
 10
29.5258
 20
5.25582
 30
0.0
 11
29.2034
 21
4.77905
 31
0.0
  0
LINE
  8
0
 62
     0
 10
29.2034
 20
4.77905
 30
0.0
 11
28.7266
 21
4.45795
 31
0.0
  0
LINE
  8
0
 62
     0
 10
28.7266
 20
4.45795
 30
0.0
 11
28.1437
 21
4.33945
 31
0.0
  0
LINE
  8
0
 62
     0
 10
28.1437
 20
4.33945
 30
0.0
 11
27.5594
 21
4.45795
 31
0.0
  0
LINE
  8
0
 62
     0
 10
27.5594
 20
4.45795
 30
0.0
 11
27.0826
 21
4.77905
 31
0.0
  0
LINE
  8
0
 62
     0
 10
27.0826
 20
4.77905
 30
0.0
 11
26.7615
 21
5.25582
 31
0.0
  0
LINE
  8
0
 62
     0
 10
26.7615
 20
5.25582
 30
0.0
 11
26.6444
 21
5.83875
 31
0.0
  0
LINE
  8
0
 62
     0
 10
26.6444
 20
5.83875
 30
0.0
 11
26.7615
 21
6.4244
 31
0.0
  0
LINE
  8
0
 62
     0
 10
26.7615
 20
6.4244
 30
0.0
 11
27.0826
 21
6.90122
 31
0.0
  0
LINE
  8
0
 62
     0
 10
27.0826
 20
6.90122
 30
0.0
 11
27.5594
 21
7.22231
 31
0.0
  0
LINE
  8
0
 62
     0
 10
27.5594
 20
7.22231
 30
0.0
 11
28.1437
 21
7.33944
 31
0.0
  0
LINE
  8
0
 62
     0
 10
28.1437
 20
7.33944
 30
0.0
 11
28.7266
 21
7.22231
 31
0.0
  0
LINE
  8
0
 62
     0
 10
28.7266
 20
7.22231
 30
0.0
 11
29.2034
 21
6.90122
 31
0.0
  0
LINE
  8
0
 62
     0
 10
29.2034
 20
6.90122
 30
0.0
 11
29.5258
 21
6.4244
 31
0.0
  0
LINE
  8
0
 62
     0
 10
29.5258
 20
6.4244
 30
0.0
 11
29.6444
 21
5.83875
 31
0.0
  0
LINE
  8
0
 62
     0
 10
362.529
 20
20.4088
 30
0.0
 11
362.409
 21
19.8258
 31
0.0
  0
LINE
  8
0
 62
     0
 10
362.409
 20
19.8258
 30
0.0
 11
362.088
 21
19.349
 31
0.0
  0
LINE
  8
0
 62
     0
 10
362.088
 20
19.349
 30
0.0
 11
361.611
 21
19.028
 31
0.0
  0
LINE
  8
0
 62
     0
 10
361.611
 20
19.028
 30
0.0
 11
361.029
 21
18.9095
 31
0.0
  0
LINE
  8
0
 62
     0
 10
361.029
 20
18.9095
 30
0.0
 11
360.444
 21
19.028
 31
0.0
  0
LINE
  8
0
 62
     0
 10
360.444
 20
19.028
 30
0.0
 11
359.967
 21
19.349
 31
0.0
  0
LINE
  8
0
 62
     0
 10
359.967
 20
19.349
 30
0.0
 11
359.646
 21
19.8258
 31
0.0
  0
LINE
  8
0
 62
     0
 10
359.646
 20
19.8258
 30
0.0
 11
359.53
 21
20.4088
 31
0.0
  0
LINE
  8
0
 62
     0
 10
359.53
 20
20.4088
 30
0.0
 11
359.646
 21
20.9944
 31
0.0
  0
LINE
  8
0
 62
     0
 10
359.646
 20
20.9944
 30
0.0
 11
359.967
 21
21.4712
 31
0.0
  0
LINE
  8
0
 62
     0
 10
359.967
 20
21.4712
 30
0.0
 11
360.444
 21
21.7923
 31
0.0
  0
LINE
  8
0
 62
     0
 10
360.444
 20
21.7923
 30
0.0
 11
361.029
 21
21.9094
 31
0.0
  0
LINE
  8
0
 62
     0
 10
361.029
 20
21.9094
 30
0.0
 11
361.611
 21
21.7923
 31
0.0
  0
LINE
  8
0
 62
     0
 10
361.611
 20
21.7923
 30
0.0
 11
362.088
 21
21.4712
 31
0.0
  0
LINE
  8
0
 62
     0
 10
362.088
 20
21.4712
 30
0.0
 11
362.409
 21
20.9944
 31
0.0
  0
LINE
  8
0
 62
     0
 10
362.409
 20
20.9944
 30
0.0
 11
362.529
 21
20.4088
 31
0.0
  0
LINE
  8
0
 62
     0
 10
129.819
 20
143.181
 30
0.0
 11
129.701
 21
142.598
 31
0.0
  0
LINE
  8
0
 62
     0
 10
129.701
 20
142.598
 30
0.0
 11
129.38
 21
142.121
 31
0.0
  0
LINE
  8
0
 62
     0
 10
129.38
 20
142.121
 30
0.0
 11
128.903
 21
141.8
 31
0.0
  0
LINE
  8
0
 62
     0
 10
128.903
 20
141.8
 30
0.0
 11
128.32
 21
141.682
 31
0.0
  0
LINE
  8
0
 62
     0
 10
128.32
 20
141.682
 30
0.0
 11
127.734
 21
141.8
 31
0.0
  0
LINE
  8
0
 62
     0
 10
127.734
 20
141.8
 30
0.0
 11
127.258
 21
142.121
 31
0.0
  0
LINE
  8
0
 62
     0
 10
127.258
 20
142.121
 30
0.0
 11
126.937
 21
142.598
 31
0.0
  0
LINE
  8
0
 62
     0
 10
126.937
 20
142.598
 30
0.0
 11
126.819
 21
143.181
 31
0.0
  0
LINE
  8
0
 62
     0
 10
126.819
 20
143.181
 30
0.0
 11
126.937
 21
143.766
 31
0.0
  0
LINE
  8
0
 62
     0
 10
126.937
 20
143.766
 30
0.0
 11
127.258
 21
144.243
 31
0.0
  0
LINE
  8
0
 62
     0
 10
127.258
 20
144.243
 30
0.0
 11
127.734
 21
144.564
 31
0.0
  0
LINE
  8
0
 62
     0
 10
127.734
 20
144.564
 30
0.0
 11
128.32
 21
144.682
 31
0.0
  0
LINE
  8
0
 62
     0
 10
128.32
 20
144.682
 30
0.0
 11
128.903
 21
144.564
 31
0.0
  0
LINE
  8
0
 62
     0
 10
128.903
 20
144.564
 30
0.0
 11
129.38
 21
144.243
 31
0.0
  0
LINE
  8
0
 62
     0
 10
129.38
 20
144.243
 30
0.0
 11
129.701
 21
143.766
 31
0.0
  0
LINE
  8
0
 62
     0
 10
129.701
 20
143.766
 30
0.0
 11
129.819
 21
143.181
 31
0.0
  0
LINE
  8
0
 62
     0
 10
277.212
 20
143.185
 30
0.0
 11
277.093
 21
142.602
 31
0.0
  0
LINE
  8
0
 62
     0
 10
277.093
 20
142.602
 30
0.0
 11
276.771
 21
142.125
 31
0.0
  0
LINE
  8
0
 62
     0
 10
276.771
 20
142.125
 30
0.0
 11
276.294
 21
141.804
 31
0.0
  0
LINE
  8
0
 62
     0
 10
276.294
 20
141.804
 30
0.0
 11
275.711
 21
141.686
 31
0.0
  0
LINE
  8
0
 62
     0
 10
275.711
 20
141.686
 30
0.0
 11
275.127
 21
141.804
 31
0.0
  0
LINE
  8
0
 62
     0
 10
275.127
 20
141.804
 30
0.0
 11
274.65
 21
142.125
 31
0.0
  0
LINE
  8
0
 62
     0
 10
274.65
 20
142.125
 30
0.0
 11
274.329
 21
142.602
 31
0.0
  0
LINE
  8
0
 62
     0
 10
274.329
 20
142.602
 30
0.0
 11
274.212
 21
143.185
 31
0.0
  0
LINE
  8
0
 62
     0
 10
274.212
 20
143.185
 30
0.0
 11
274.329
 21
143.769
 31
0.0
  0
LINE
  8
0
 62
     0
 10
274.329
 20
143.769
 30
0.0
 11
274.65
 21
144.246
 31
0.0
  0
LINE
  8
0
 62
     0
 10
274.65
 20
144.246
 30
0.0
 11
275.127
 21
144.569
 31
0.0
  0
LINE
  8
0
 62
     0
 10
275.127
 20
144.569
 30
0.0
 11
275.711
 21
144.686
 31
0.0
  0
LINE
  8
0
 62
     0
 10
275.711
 20
144.686
 30
0.0
 11
276.294
 21
144.569
 31
0.0
  0
LINE
  8
0
 62
     0
 10
276.294
 20
144.569
 30
0.0
 11
276.771
 21
144.246
 31
0.0
  0
LINE
  8
0
 62
     0
 10
276.771
 20
144.246
 30
0.0
 11
277.093
 21
143.769
 31
0.0
  0
LINE
  8
0
 62
     0
 10
277.093
 20
143.769
 30
0.0
 11
277.212
 21
143.185
 31
0.0
  0
LINE
  8
0
 62
     0
 10
339.192
 20
143.188
 30
0.0
 11
339.073
 21
142.605
 31
0.0
  0
LINE
  8
0
 62
     0
 10
339.073
 20
142.605
 30
0.0
 11
338.751
 21
142.128
 31
0.0
  0
LINE
  8
0
 62
     0
 10
338.751
 20
142.128
 30
0.0
 11
338.274
 21
141.806
 31
0.0
  0
LINE
  8
0
 62
     0
 10
338.274
 20
141.806
 30
0.0
 11
337.691
 21
141.687
 31
0.0
  0
LINE
  8
0
 62
     0
 10
337.691
 20
141.687
 30
0.0
 11
337.107
 21
141.806
 31
0.0
  0
LINE
  8
0
 62
     0
 10
337.107
 20
141.806
 30
0.0
 11
336.63
 21
142.128
 31
0.0
  0
LINE
  8
0
 62
     0
 10
336.63
 20
142.128
 30
0.0
 11
336.309
 21
142.605
 31
0.0
  0
LINE
  8
0
 62
     0
 10
336.309
 20
142.605
 30
0.0
 11
336.192
 21
143.188
 31
0.0
  0
LINE
  8
0
 62
     0
 10
336.192
 20
143.188
 30
0.0
 11
336.309
 21
143.772
 31
0.0
  0
LINE
  8
0
 62
     0
 10
336.309
 20
143.772
 30
0.0
 11
336.63
 21
144.249
 31
0.0
  0
LINE
  8
0
 62
     0
 10
336.63
 20
144.249
 30
0.0
 11
337.107
 21
144.57
 31
0.0
  0
LINE
  8
0
 62
     0
 10
337.107
 20
144.57
 30
0.0
 11
337.691
 21
144.687
 31
0.0
  0
LINE
  8
0
 62
     0
 10
337.691
 20
144.687
 30
0.0
 11
338.274
 21
144.57
 31
0.0
  0
LINE
  8
0
 62
     0
 10
338.274
 20
144.57
 30
0.0
 11
338.751
 21
144.249
 31
0.0
  0
LINE
  8
0
 62
     0
 10
338.751
 20
144.249
 30
0.0
 11
339.073
 21
143.772
 31
0.0
  0
LINE
  8
0
 62
     0
 10
339.073
 20
143.772
 30
0.0
 11
339.192
 21
143.188
 31
0.0
  0
LINE
  8
0
 62
     0
 10
129.811
 20
5.83875
 30
0.0
 11
129.693
 21
5.25445
 31
0.0
  0
LINE
  8
0
 62
     0
 10
129.693
 20
5.25445
 30
0.0
 11
129.372
 21
4.77767
 31
0.0
  0
LINE
  8
0
 62
     0
 10
129.372
 20
4.77767
 30
0.0
 11
128.895
 21
4.45657
 31
0.0
  0
LINE
  8
0
 62
     0
 10
128.895
 20
4.45657
 30
0.0
 11
128.312
 21
4.33807
 31
0.0
  0
LINE
  8
0
 62
     0
 10
128.312
 20
4.33807
 30
0.0
 11
127.728
 21
4.45657
 31
0.0
  0
LINE
  8
0
 62
     0
 10
127.728
 20
4.45657
 30
0.0
 11
127.251
 21
4.77767
 31
0.0
  0
LINE
  8
0
 62
     0
 10
127.251
 20
4.77767
 30
0.0
 11
126.928
 21
5.25445
 31
0.0
  0
LINE
  8
0
 62
     0
 10
126.928
 20
5.25445
 30
0.0
 11
126.811
 21
5.83875
 31
0.0
  0
LINE
  8
0
 62
     0
 10
126.811
 20
5.83875
 30
0.0
 11
126.928
 21
6.42303
 31
0.0
  0
LINE
  8
0
 62
     0
 10
126.928
 20
6.42303
 30
0.0
 11
127.251
 21
6.89984
 31
0.0
  0
LINE
  8
0
 62
     0
 10
127.251
 20
6.89984
 30
0.0
 11
127.728
 21
7.22094
 31
0.0
  0
LINE
  8
0
 62
     0
 10
127.728
 20
7.22094
 30
0.0
 11
128.312
 21
7.33806
 31
0.0
  0
LINE
  8
0
 62
     0
 10
128.312
 20
7.33806
 30
0.0
 11
128.895
 21
7.22094
 31
0.0
  0
LINE
  8
0
 62
     0
 10
128.895
 20
7.22094
 30
0.0
 11
129.372
 21
6.89984
 31
0.0
  0
LINE
  8
0
 62
     0
 10
129.372
 20
6.89984
 30
0.0
 11
129.693
 21
6.42303
 31
0.0
  0
LINE
  8
0
 62
     0
 10
129.693
 20
6.42303
 30
0.0
 11
129.811
 21
5.83875
 31
0.0
  0
LINE
  8
0
 62
     0
 10
248.489
 20
5.84013
 30
0.0
 11
248.371
 21
5.2572
 31
0.0
  0
LINE
  8
0
 62
     0
 10
248.371
 20
5.2572
 30
0.0
 11
248.048
 21
4.78042
 31
0.0
  0
LINE
  8
0
 62
     0
 10
248.048
 20
4.78042
 30
0.0
 11
247.571
 21
4.45932
 31
0.0
  0
LINE
  8
0
 62
     0
 10
247.571
 20
4.45932
 30
0.0
 11
246.989
 21
4.34082
 31
0.0
  0
LINE
  8
0
 62
     0
 10
246.989
 20
4.34082
 30
0.0
 11
246.404
 21
4.45932
 31
0.0
  0
LINE
  8
0
 62
     0
 10
246.404
 20
4.45932
 30
0.0
 11
245.927
 21
4.78042
 31
0.0
  0
LINE
  8
0
 62
     0
 10
245.927
 20
4.78042
 30
0.0
 11
245.606
 21
5.2572
 31
0.0
  0
LINE
  8
0
 62
     0
 10
245.606
 20
5.2572
 30
0.0
 11
245.489
 21
5.84013
 31
0.0
  0
LINE
  8
0
 62
     0
 10
245.489
 20
5.84013
 30
0.0
 11
245.606
 21
6.4244
 31
0.0
  0
LINE
  8
0
 62
     0
 10
245.606
 20
6.4244
 30
0.0
 11
245.927
 21
6.90122
 31
0.0
  0
LINE
  8
0
 62
     0
 10
245.927
 20
6.90122
 30
0.0
 11
246.404
 21
7.22369
 31
0.0
  0
LINE
  8
0
 62
     0
 10
246.404
 20
7.22369
 30
0.0
 11
246.989
 21
7.34081
 31
0.0
  0
LINE
  8
0
 62
     0
 10
246.989
 20
7.34081
 30
0.0
 11
247.571
 21
7.22369
 31
0.0
  0
LINE
  8
0
 62
     0
 10
247.571
 20
7.22369
 30
0.0
 11
248.048
 21
6.90122
 31
0.0
  0
LINE
  8
0
 62
     0
 10
248.048
 20
6.90122
 30
0.0
 11
248.371
 21
6.4244
 31
0.0
  0
LINE
  8
0
 62
     0
 10
248.371
 20
6.4244
 30
0.0
 11
248.489
 21
5.84013
 31
0.0
  0
LINE
  8
0
 62
     0
 10
339.192
 20
5.83875
 30
0.0
 11
339.073
 21
5.25445
 31
0.0
  0
LINE
  8
0
 62
     0
 10
339.073
 20
5.25445
 30
0.0
 11
338.751
 21
4.77767
 31
0.0
  0
LINE
  8
0
 62
     0
 10
338.751
 20
4.77767
 30
0.0
 11
338.274
 21
4.45657
 31
0.0
  0
LINE
  8
0
 62
     0
 10
338.274
 20
4.45657
 30
0.0
 11
337.691
 21
4.33807
 31
0.0
  0
LINE
  8
0
 62
     0
 10
337.691
 20
4.33807
 30
0.0
 11
337.107
 21
4.45657
 31
0.0
  0
LINE
  8
0
 62
     0
 10
337.107
 20
4.45657
 30
0.0
 11
336.63
 21
4.77767
 31
0.0
  0
LINE
  8
0
 62
     0
 10
336.63
 20
4.77767
 30
0.0
 11
336.309
 21
5.25445
 31
0.0
  0
LINE
  8
0
 62
     0
 10
336.309
 20
5.25445
 30
0.0
 11
336.192
 21
5.83875
 31
0.0
  0
LINE
  8
0
 62
     0
 10
336.192
 20
5.83875
 30
0.0
 11
336.309
 21
6.42303
 31
0.0
  0
LINE
  8
0
 62
     0
 10
336.309
 20
6.42303
 30
0.0
 11
336.63
 21
6.89984
 31
0.0
  0
LINE
  8
0
 62
     0
 10
336.63
 20
6.89984
 30
0.0
 11
337.107
 21
7.22094
 31
0.0
  0
LINE
  8
0
 62
     0
 10
337.107
 20
7.22094
 30
0.0
 11
337.691
 21
7.33806
 31
0.0
  0
LINE
  8
0
 62
     0
 10
337.691
 20
7.33806
 30
0.0
 11
338.274
 21
7.22094
 31
0.0
  0
LINE
  8
0
 62
     0
 10
338.274
 20
7.22094
 30
0.0
 11
338.751
 21
6.89984
 31
0.0
  0
LINE
  8
0
 62
     0
 10
338.751
 20
6.89984
 30
0.0
 11
339.073
 21
6.42303
 31
0.0
  0
LINE
  8
0
 62
     0
 10
339.073
 20
6.42303
 30
0.0
 11
339.192
 21
5.83875
 31
0.0
  0
LINE
  8
0
 62
     0
 10
362.525
 20
129.464
 30
0.0
 11
362.405
 21
128.881
 31
0.0
  0
LINE
  8
0
 62
     0
 10
362.405
 20
128.881
 30
0.0
 11
362.084
 21
128.404
 31
0.0
  0
LINE
  8
0
 62
     0
 10
362.084
 20
128.404
 30
0.0
 11
361.608
 21
128.083
 31
0.0
  0
LINE
  8
0
 62
     0
 10
361.608
 20
128.083
 30
0.0
 11
361.026
 21
127.964
 31
0.0
  0
LINE
  8
0
 62
     0
 10
361.026
 20
127.964
 30
0.0
 11
360.44
 21
128.083
 31
0.0
  0
LINE
  8
0
 62
     0
 10
360.44
 20
128.083
 30
0.0
 11
359.964
 21
128.404
 31
0.0
  0
LINE
  8
0
 62
     0
 10
359.964
 20
128.404
 30
0.0
 11
359.643
 21
128.881
 31
0.0
  0
LINE
  8
0
 62
     0
 10
359.643
 20
128.881
 30
0.0
 11
359.526
 21
129.464
 31
0.0
  0
LINE
  8
0
 62
     0
 10
359.526
 20
129.464
 30
0.0
 11
359.643
 21
130.048
 31
0.0
  0
LINE
  8
0
 62
     0
 10
359.643
 20
130.048
 30
0.0
 11
359.964
 21
130.525
 31
0.0
  0
LINE
  8
0
 62
     0
 10
359.964
 20
130.525
 30
0.0
 11
360.44
 21
130.847
 31
0.0
  0
LINE
  8
0
 62
     0
 10
360.44
 20
130.847
 30
0.0
 11
361.026
 21
130.965
 31
0.0
  0
LINE
  8
0
 62
     0
 10
361.026
 20
130.965
 30
0.0
 11
361.608
 21
130.847
 31
0.0
  0
LINE
  8
0
 62
     0
 10
361.608
 20
130.847
 30
0.0
 11
362.084
 21
130.525
 31
0.0
  0
LINE
  8
0
 62
     0
 10
362.084
 20
130.525
 30
0.0
 11
362.405
 21
130.048
 31
0.0
  0
LINE
  8
0
 62
     0
 10
362.405
 20
130.048
 30
0.0
 11
362.525
 21
129.464
 31
0.0
  0
LINE
  8
0
 62
     0
 10
287.187
 20
141.379
 30
0.0
 11
285.919
 21
141.099
 31
0.0
  0
LINE
  8
0
 62
     0
 10
285.919
 20
141.099
 30
0.0
 11
284.887
 21
140.381
 31
0.0
  0
LINE
  8
0
 62
     0
 10
284.887
 20
140.381
 30
0.0
 11
284.191
 21
139.409
 31
0.0
  0
LINE
  8
0
 62
     0
 10
284.191
 20
139.409
 30
0.0
 11
283.938
 21
138.365
 31
0.0
  0
LINE
  8
0
 62
     0
 10
283.938
 20
138.365
 30
0.0
 11
283.938
 21
138.35
 31
0.0
  0
LINE
  8
0
 62
     0
 10
283.938
 20
138.35
 30
0.0
 11
9.10333
 21
138.35
 31
0.0
  0
LINE
  8
0
 62
     0
 10
9.10333
 20
138.35
 30
0.0
 11
9.10333
 21
10.6757
 31
0.0
  0
LINE
  8
0
 62
     0
 10
9.10333
 20
10.6757
 30
0.0
 11
356.764
 21
10.6757
 31
0.0
  0
LINE
  8
0
 62
     0
 10
356.764
 20
10.6757
 30
0.0
 11
356.764
 21
138.35
 31
0.0
  0
LINE
  8
0
 62
     0
 10
356.764
 20
138.35
 30
0.0
 11
310.526
 21
138.35
 31
0.0
  0
LINE
  8
0
 62
     0
 10
310.526
 20
138.35
 30
0.0
 11
310.526
 21
138.365
 31
0.0
  0
LINE
  8
0
 62
     0
 10
310.526
 20
138.365
 30
0.0
 11
310.271
 21
139.416
 31
0.0
  0
LINE
  8
0
 62
     0
 10
310.271
 20
139.416
 30
0.0
 11
309.575
 21
140.4
 31
0.0
  0
LINE
  8
0
 62
     0
 10
309.575
 20
140.4
 30
0.0
 11
308.541
 21
141.121
 31
0.0
  0
LINE
  8
0
 62
     0
 10
308.541
 20
141.121
 30
0.0
 11
307.277
 21
141.379
 31
0.0
  0
LINE
  8
0
 62
     0
 10
307.277
 20
141.379
 30
0.0
 11
287.184
 21
141.379
 31
0.0
  0
LINE
  8
0
 62
     0
 10
287.184
 20
141.379
 30
0.0
 11
287.187
 21
141.379
 31
0.0
  0
LINE
  8
0
 62
     0
 10
2.10151
 20
148.926
 30
0.0
 11
1.94441
 21
148.919
 31
0.0
  0
LINE
  8
0
 62
     0
 10
1.94441
 20
148.919
 30
0.0
 11
1.78869
 21
148.901
 31
0.0
  0
LINE
  8
0
 62
     0
 10
1.78869
 20
148.901
 30
0.0
 11
1.63435
 21
148.871
 31
0.0
  0
LINE
  8
0
 62
     0
 10
1.63435
 20
148.871
 30
0.0
 11
1.48277
 21
148.828
 31
0.0
  0
LINE
  8
0
 62
     0
 10
1.48277
 20
148.828
 30
0.0
 11
1.33532
 21
148.773
 31
0.0
  0
LINE
  8
0
 62
     0
 10
1.33532
 20
148.773
 30
0.0
 11
1.19338
 21
148.708
 31
0.0
  0
LINE
  8
0
 62
     0
 10
1.19338
 20
148.708
 30
0.0
 11
1.05695
 21
148.631
 31
0.0
  0
LINE
  8
0
 62
     0
 10
1.05695
 20
148.631
 30
0.0
 11
0.924662
 21
148.544
 31
0.0
  0
LINE
  8
0
 62
     0
 10
0.924662
 20
148.544
 30
0.0
 11
0.802019
 21
148.446
 31
0.0
  0
LINE
  8
0
 62
     0
 10
0.802019
 20
148.446
 30
0.0
 11
0.686262
 21
148.34
 31
0.0
  0
LINE
  8
0
 62
     0
 10
0.686262
 20
148.34
 30
0.0
 11
0.580154
 21
148.225
 31
0.0
  0
LINE
  8
0
 62
     0
 10
0.580154
 20
148.225
 30
0.0
 11
0.482314
 21
148.102
 31
0.0
  0
LINE
  8
0
 62
     0
 10
0.482314
 20
148.102
 30
0.0
 11
0.395496
 21
147.969
 31
0.0
  0
LINE
  8
0
 62
     0
 10
0.395496
 20
147.969
 30
0.0
 11
0.318327
 21
147.833
 31
0.0
  0
LINE
  8
0
 62
     0
 10
0.318327
 20
147.833
 30
0.0
 11
0.253559
 21
147.691
 31
0.0
  0
LINE
  8
0
 62
     0
 10
0.253559
 20
147.691
 30
0.0
 11
0.198438
 21
147.545
 31
0.0
  0
LINE
  8
0
 62
     0
 10
0.198438
 20
147.545
 30
0.0
 11
0.155718
 21
147.392
 31
0.0
  0
LINE
  8
0
 62
     0
 10
0.155718
 20
147.392
 30
0.0
 11
0.125402
 21
147.238
 31
0.0
  0
LINE
  8
0
 62
     0
 10
0.125402
 20
147.238
 30
0.0
 11
0.107487
 21
147.082
 31
0.0
  0
LINE
  8
0
 62
     0
 10
0.107487
 20
147.082
 30
0.0
 11
0.100597
 21
146.925
 31
0.0
  0
LINE
  8
0
 62
     0
 10
0.100597
 20
146.925
 30
0.0
 11
0.100597
 21
2.09875
 31
0.0
  0
LINE
  8
0
 62
     0
 10
0.100597
 20
2.09875
 30
0.0
 11
0.107487
 21
1.94303
 31
0.0
  0
LINE
  8
0
 62
     0
 10
0.107487
 20
1.94303
 30
0.0
 11
0.125402
 21
1.78732
 31
0.0
  0
LINE
  8
0
 62
     0
 10
0.125402
 20
1.78732
 30
0.0
 11
0.155718
 21
1.63298
 31
0.0
  0
LINE
  8
0
 62
     0
 10
0.155718
 20
1.63298
 30
0.0
 11
0.198438
 21
1.48139
 31
0.0
  0
LINE
  8
0
 62
     0
 10
0.198438
 20
1.48139
 30
0.0
 11
0.253559
 21
1.33394
 31
0.0
  0
LINE
  8
0
 62
     0
 10
0.253559
 20
1.33394
 30
0.0
 11
0.318327
 21
1.192
 31
0.0
  0
LINE
  8
0
 62
     0
 10
0.318327
 20
1.192
 30
0.0
 11
0.395496
 21
1.05558
 31
0.0
  0
LINE
  8
0
 62
     0
 10
0.395496
 20
1.05558
 30
0.0
 11
0.482314
 21
0.924662
 31
0.0
  0
LINE
  8
0
 62
     0
 10
0.482314
 20
0.924662
 30
0.0
 11
0.580154
 21
0.80064
 31
0.0
  0
LINE
  8
0
 62
     0
 10
0.580154
 20
0.80064
 30
0.0
 11
0.686262
 21
0.684886
 31
0.0
  0
LINE
  8
0
 62
     0
 10
0.686262
 20
0.684886
 30
0.0
 11
0.802019
 21
0.580154
 31
0.0
  0
LINE
  8
0
 62
     0
 10
0.802019
 20
0.580154
 30
0.0
 11
0.924662
 21
0.480935
 31
0.0
  0
LINE
  8
0
 62
     0
 10
0.924662
 20
0.480935
 30
0.0
 11
1.05695
 21
0.39412
 31
0.0
  0
LINE
  8
0
 62
     0
 10
1.05695
 20
0.39412
 30
0.0
 11
1.19338
 21
0.316949
 31
0.0
  0
LINE
  8
0
 62
     0
 10
1.19338
 20
0.316949
 30
0.0
 11
1.33532
 21
0.252181
 31
0.0
  0
LINE
  8
0
 62
     0
 10
1.33532
 20
0.252181
 30
0.0
 11
1.48277
 21
0.19706
 31
0.0
  0
LINE
  8
0
 62
     0
 10
1.48277
 20
0.19706
 30
0.0
 11
1.63435
 21
0.155718
 31
0.0
  0
LINE
  8
0
 62
     0
 10
1.63435
 20
0.155718
 30
0.0
 11
1.78869
 21
0.124024
 31
0.0
  0
LINE
  8
0
 62
     0
 10
1.78869
 20
0.124024
 30
0.0
 11
1.94441
 21
0.106109
 31
0.0
  0
LINE
  8
0
 62
     0
 10
1.94441
 20
0.106109
 30
0.0
 11
2.10151
 21
0.0992188
 31
0.0
  0
LINE
  8
0
 62
     0
 10
2.10151
 20
0.0992188
 30
0.0
 11
363.763
 21
0.0992188
 31
0.0
  0
LINE
  8
0
 62
     0
 10
363.763
 20
0.0992188
 30
0.0
 11
363.922
 21
0.106109
 31
0.0
  0
LINE
  8
0
 62
     0
 10
363.922
 20
0.106109
 30
0.0
 11
364.077
 21
0.124024
 31
0.0
  0
LINE
  8
0
 62
     0
 10
364.077
 20
0.124024
 30
0.0
 11
364.229
 21
0.155718
 31
0.0
  0
LINE
  8
0
 62
     0
 10
364.229
 20
0.155718
 30
0.0
 11
364.381
 21
0.19706
 31
0.0
  0
LINE
  8
0
 62
     0
 10
364.381
 20
0.19706
 30
0.0
 11
364.529
 21
0.252181
 31
0.0
  0
LINE
  8
0
 62
     0
 10
364.529
 20
0.252181
 30
0.0
 11
364.67
 21
0.316949
 31
0.0
  0
LINE
  8
0
 62
     0
 10
364.67
 20
0.316949
 30
0.0
 11
364.811
 21
0.39412
 31
0.0
  0
LINE
  8
0
 62
     0
 10
364.811
 20
0.39412
 30
0.0
 11
364.942
 21
0.480935
 31
0.0
  0
LINE
  8
0
 62
     0
 10
364.942
 20
0.480935
 30
0.0
 11
365.061
 21
0.580154
 31
0.0
  0
LINE
  8
0
 62
     0
 10
365.061
 20
0.580154
 30
0.0
 11
365.178
 21
0.684886
 31
0.0
  0
LINE
  8
0
 62
     0
 10
365.178
 20
0.684886
 30
0.0
 11
365.284
 21
0.80064
 31
0.0
  0
LINE
  8
0
 62
     0
 10
365.284
 20
0.80064
 30
0.0
 11
365.383
 21
0.924662
 31
0.0
  0
LINE
  8
0
 62
     0
 10
365.383
 20
0.924662
 30
0.0
 11
365.471
 21
1.05558
 31
0.0
  0
LINE
  8
0
 62
     0
 10
365.471
 20
1.05558
 30
0.0
 11
365.548
 21
1.192
 31
0.0
  0
LINE
  8
0
 62
     0
 10
365.548
 20
1.192
 30
0.0
 11
365.612
 21
1.33394
 31
0.0
  0
LINE
  8
0
 62
     0
 10
365.612
 20
1.33394
 30
0.0
 11
365.668
 21
1.48139
 31
0.0
  0
LINE
  8
0
 62
     0
 10
365.668
 20
1.48139
 30
0.0
 11
365.711
 21
1.63298
 31
0.0
  0
LINE
  8
0
 62
     0
 10
365.711
 20
1.63298
 30
0.0
 11
365.739
 21
1.78732
 31
0.0
  0
LINE
  8
0
 62
     0
 10
365.739
 20
1.78732
 30
0.0
 11
365.756
 21
1.94303
 31
0.0
  0
LINE
  8
0
 62
     0
 10
365.756
 20
1.94303
 30
0.0
 11
365.764
 21
2.09875
 31
0.0
  0
LINE
  8
0
 62
     0
 10
365.764
 20
2.09875
 30
0.0
 11
365.764
 21
146.925
 31
0.0
  0
LINE
  8
0
 62
     0
 10
365.764
 20
146.925
 30
0.0
 11
365.756
 21
147.082
 31
0.0
  0
LINE
  8
0
 62
     0
 10
365.756
 20
147.082
 30
0.0
 11
365.739
 21
147.238
 31
0.0
  0
LINE
  8
0
 62
     0
 10
365.739
 20
147.238
 30
0.0
 11
365.711
 21
147.392
 31
0.0
  0
LINE
  8
0
 62
     0
 10
365.711
 20
147.392
 30
0.0
 11
365.668
 21
147.545
 31
0.0
  0
LINE
  8
0
 62
     0
 10
365.668
 20
147.545
 30
0.0
 11
365.612
 21
147.691
 31
0.0
  0
LINE
  8
0
 62
     0
 10
365.612
 20
147.691
 30
0.0
 11
365.548
 21
147.833
 31
0.0
  0
LINE
  8
0
 62
     0
 10
365.548
 20
147.833
 30
0.0
 11
365.471
 21
147.969
 31
0.0
  0
LINE
  8
0
 62
     0
 10
365.471
 20
147.969
 30
0.0
 11
365.383
 21
148.102
 31
0.0
  0
LINE
  8
0
 62
     0
 10
365.383
 20
148.102
 30
0.0
 11
365.284
 21
148.225
 31
0.0
  0
LINE
  8
0
 62
     0
 10
365.284
 20
148.225
 30
0.0
 11
365.178
 21
148.34
 31
0.0
  0
LINE
  8
0
 62
     0
 10
365.178
 20
148.34
 30
0.0
 11
365.061
 21
148.446
 31
0.0
  0
LINE
  8
0
 62
     0
 10
365.061
 20
148.446
 30
0.0
 11
364.942
 21
148.544
 31
0.0
  0
LINE
  8
0
 62
     0
 10
364.942
 20
148.544
 30
0.0
 11
364.811
 21
148.631
 31
0.0
  0
LINE
  8
0
 62
     0
 10
364.811
 20
148.631
 30
0.0
 11
364.67
 21
148.708
 31
0.0
  0
LINE
  8
0
 62
     0
 10
364.67
 20
148.708
 30
0.0
 11
364.529
 21
148.773
 31
0.0
  0
LINE
  8
0
 62
     0
 10
364.529
 20
148.773
 30
0.0
 11
364.381
 21
148.828
 31
0.0
  0
LINE
  8
0
 62
     0
 10
364.381
 20
148.828
 30
0.0
 11
364.229
 21
148.871
 31
0.0
  0
LINE
  8
0
 62
     0
 10
364.229
 20
148.871
 30
0.0
 11
364.077
 21
148.901
 31
0.0
  0
LINE
  8
0
 62
     0
 10
364.077
 20
148.901
 30
0.0
 11
363.922
 21
148.919
 31
0.0
  0
LINE
  8
0
 62
     0
 10
363.922
 20
148.919
 30
0.0
 11
363.763
 21
148.926
 31
0.0
  0
LINE
  8
0
 62
     0
 10
363.763
 20
148.926
 30
0.0
 11
307.705
 21
148.926
 31
0.0
  0
LINE
  8
0
 62
     0
 10
307.705
 20
148.926
 30
0.0
 11
307.444
 21
148.151
 31
0.0
  0
LINE
  8
0
 62
     0
 10
307.444
 20
148.151
 30
0.0
 11
306.748
 21
147.766
 31
0.0
  0
LINE
  8
0
 62
     0
 10
306.748
 20
147.766
 30
0.0
 11
305.718
 21
147.632
 31
0.0
  0
LINE
  8
0
 62
     0
 10
305.718
 20
147.632
 30
0.0
 11
304.455
 21
147.617
 31
0.0
  0
LINE
  8
0
 62
     0
 10
304.455
 20
147.617
 30
0.0
 11
290.009
 21
147.617
 31
0.0
  0
LINE
  8
0
 62
     0
 10
290.009
 20
147.617
 30
0.0
 11
288.746
 21
147.632
 31
0.0
  0
LINE
  8
0
 62
     0
 10
288.746
 20
147.632
 30
0.0
 11
287.715
 21
147.766
 31
0.0
  0
LINE
  8
0
 62
     0
 10
287.715
 20
147.766
 30
0.0
 11
287.019
 21
148.151
 31
0.0
  0
LINE
  8
0
 62
     0
 10
287.019
 20
148.151
 30
0.0
 11
286.76
 21
148.926
 31
0.0
  0
LINE
  8
0
 62
     0
 10
286.76
 20
148.926
 30
0.0
 11
2.10151
 21
148.926
 31
0.0
  0
ENDSEC
  0
EOF
