  0
SECTION
  2
HEADER
  9
$ACADVER
  1
AC1009
  9
$EXTMIN
 10
0.0
 20
0.0
 30
0.0
  9
$EXTMAX
 10
1000.0
 20
1000.0
 30
0.0
  9
$FILLMODE
 70
 0
  9
$SPLFRAME
 70
 1
  0
ENDSEC
  0
SECTION
  2
TABLES
  0
TABLE
  2
LAYER
 70
1
  0
LAYER
  2
0
 70
     0
 62
     7
  6
CONTINUOUS
  0
ENDTAB
  0
ENDSEC
  0
SECTION
  2
ENTITIES
  0
LINE
  8
0
 62
     0
 10
337.686
 20
144.715
 30
0.0
 11
337.145
 21
144.617
 31
0.0
  0
LINE
  8
0
 62
     0
 10
337.145
 20
144.617
 30
0.0
 11
336.693
 21
144.344
 31
0.0
  0
LINE
  8
0
 62
     0
 10
336.693
 20
144.344
 30
0.0
 11
336.361
 21
143.936
 31
0.0
  0
LINE
  8
0
 62
     0
 10
336.361
 20
143.936
 30
0.0
 11
336.186
 21
143.426
 31
0.0
  0
LINE
  8
0
 62
     0
 10
336.186
 20
143.426
 30
0.0
 11
277.212
 21
143.426
 31
0.0
  0
LINE
  8
0
 62
     0
 10
277.212
 20
143.426
 30
0.0
 11
277.033
 21
143.932
 31
0.0
  0
LINE
  8
0
 62
     0
 10
277.033
 20
143.932
 30
0.0
 11
276.701
 21
144.338
 31
0.0
  0
LINE
  8
0
 62
     0
 10
276.701
 20
144.338
 30
0.0
 11
276.248
 21
144.607
 31
0.0
  0
LINE
  8
0
 62
     0
 10
276.248
 20
144.607
 30
0.0
 11
275.712
 21
144.705
 31
0.0
  0
LINE
  8
0
 62
     0
 10
275.712
 20
144.705
 30
0.0
 11
275.174
 21
144.607
 31
0.0
  0
LINE
  8
0
 62
     0
 10
275.174
 20
144.607
 30
0.0
 11
274.721
 21
144.338
 31
0.0
  0
LINE
  8
0
 62
     0
 10
274.721
 20
144.338
 30
0.0
 11
274.389
 21
143.932
 31
0.0
  0
LINE
  8
0
 62
     0
 10
274.389
 20
143.932
 30
0.0
 11
274.213
 21
143.426
 31
0.0
  0
LINE
  8
0
 62
     0
 10
274.213
 20
143.426
 30
0.0
 11
129.821
 21
143.436
 31
0.0
  0
LINE
  8
0
 62
     0
 10
129.821
 20
143.436
 30
0.0
 11
129.64
 21
143.939
 31
0.0
  0
LINE
  8
0
 62
     0
 10
129.64
 20
143.939
 30
0.0
 11
129.308
 21
144.341
 31
0.0
  0
LINE
  8
0
 62
     0
 10
129.308
 20
144.341
 30
0.0
 11
128.856
 21
144.609
 31
0.0
  0
LINE
  8
0
 62
     0
 10
128.856
 20
144.609
 30
0.0
 11
128.322
 21
144.705
 31
0.0
  0
LINE
  8
0
 62
     0
 10
128.322
 20
144.705
 30
0.0
 11
127.784
 21
144.609
 31
0.0
  0
LINE
  8
0
 62
     0
 10
127.784
 20
144.609
 30
0.0
 11
127.329
 21
144.341
 31
0.0
  0
LINE
  8
0
 62
     0
 10
127.329
 20
144.341
 30
0.0
 11
126.993
 21
143.939
 31
0.0
  0
LINE
  8
0
 62
     0
 10
126.993
 20
143.939
 30
0.0
 11
126.813
 21
143.436
 31
0.0
  0
LINE
  8
0
 62
     0
 10
126.813
 20
143.436
 30
0.0
 11
29.6402
 21
143.436
 31
0.0
  0
LINE
  8
0
 62
     0
 10
29.6402
 20
143.436
 30
0.0
 11
29.4583
 21
143.935
 31
0.0
  0
LINE
  8
0
 62
     0
 10
29.4583
 20
143.935
 30
0.0
 11
29.1248
 21
144.336
 31
0.0
  0
LINE
  8
0
 62
     0
 10
29.1248
 20
144.336
 30
0.0
 11
28.6742
 21
144.602
 31
0.0
  0
LINE
  8
0
 62
     0
 10
28.6742
 20
144.602
 30
0.0
 11
28.1409
 21
144.697
 31
0.0
  0
LINE
  8
0
 62
     0
 10
28.1409
 20
144.697
 30
0.0
 11
27.6062
 21
144.602
 31
0.0
  0
LINE
  8
0
 62
     0
 10
27.6062
 20
144.602
 30
0.0
 11
27.1556
 21
144.336
 31
0.0
  0
LINE
  8
0
 62
     0
 10
27.1556
 20
144.336
 30
0.0
 11
26.8222
 21
143.935
 31
0.0
  0
LINE
  8
0
 62
     0
 10
26.8222
 20
143.935
 30
0.0
 11
26.6416
 21
143.436
 31
0.0
  0
LINE
  8
0
 62
     0
 10
26.6416
 20
143.436
 30
0.0
 11
6.55119
 21
143.436
 31
0.0
  0
LINE
  8
0
 62
     0
 10
6.55119
 20
143.436
 30
0.0
 11
6.39272
 21
143.426
 31
0.0
  0
LINE
  8
0
 62
     0
 10
6.39272
 20
143.426
 30
0.0
 11
6.24251
 21
143.41
 31
0.0
  0
LINE
  8
0
 62
     0
 10
6.24251
 20
143.41
 30
0.0
 11
6.0923
 21
143.382
 31
0.0
  0
LINE
  8
0
 62
     0
 10
6.0923
 20
143.382
 30
0.0
 11
5.94212
 21
143.338
 31
0.0
  0
LINE
  8
0
 62
     0
 10
5.94212
 20
143.338
 30
0.0
 11
5.66099
 21
143.233
 31
0.0
  0
LINE
  8
0
 62
     0
 10
5.66099
 20
143.233
 30
0.0
 11
5.5287
 21
143.162
 31
0.0
  0
LINE
  8
0
 62
     0
 10
5.5287
 20
143.162
 30
0.0
 11
5.28066
 21
142.985
 31
0.0
  0
LINE
  8
0
 62
     0
 10
5.28066
 20
142.985
 30
0.0
 11
5.16625
 21
142.889
 31
0.0
  0
LINE
  8
0
 62
     0
 10
5.16625
 20
142.889
 30
0.0
 11
5.0698
 21
142.783
 31
0.0
  0
LINE
  8
0
 62
     0
 10
5.0698
 20
142.783
 30
0.0
 11
4.97198
 21
142.668
 31
0.0
  0
LINE
  8
0
 62
     0
 10
4.97198
 20
142.668
 30
0.0
 11
4.88378
 21
142.544
 31
0.0
  0
LINE
  8
0
 62
     0
 10
4.88378
 20
142.544
 30
0.0
 11
4.81348
 21
142.422
 31
0.0
  0
LINE
  8
0
 62
     0
 10
4.81348
 20
142.422
 30
0.0
 11
4.7432
 21
142.289
 31
0.0
  0
LINE
  8
0
 62
     0
 10
4.7432
 20
142.289
 30
0.0
 11
4.69085
 21
142.148
 31
0.0
  0
LINE
  8
0
 62
     0
 10
4.69085
 20
142.148
 30
0.0
 11
4.6192
 21
141.866
 31
0.0
  0
LINE
  8
0
 62
     0
 10
4.6192
 20
141.866
 30
0.0
 11
4.60266
 21
141.724
 31
0.0
  0
LINE
  8
0
 62
     0
 10
4.60266
 20
141.724
 30
0.0
 11
4.60266
 21
130.965
 31
0.0
  0
LINE
  8
0
 62
     0
 10
4.60266
 20
130.965
 30
0.0
 11
4.09554
 21
130.79
 31
0.0
  0
LINE
  8
0
 62
     0
 10
4.09554
 20
130.79
 30
0.0
 11
3.69037
 21
130.458
 31
0.0
  0
LINE
  8
0
 62
     0
 10
3.69037
 20
130.458
 30
0.0
 11
3.42029
 21
130.004
 31
0.0
  0
LINE
  8
0
 62
     0
 10
3.42029
 20
130.004
 30
0.0
 11
3.32383
 21
129.465
 31
0.0
  0
LINE
  8
0
 62
     0
 10
3.32383
 20
129.465
 30
0.0
 11
3.42029
 21
128.928
 31
0.0
  0
LINE
  8
0
 62
     0
 10
3.42029
 20
128.928
 30
0.0
 11
3.69037
 21
128.475
 31
0.0
  0
LINE
  8
0
 62
     0
 10
3.69037
 20
128.475
 30
0.0
 11
4.09554
 21
128.142
 31
0.0
  0
LINE
  8
0
 62
     0
 10
4.09554
 20
128.142
 30
0.0
 11
4.60266
 21
127.966
 31
0.0
  0
LINE
  8
0
 62
     0
 10
4.60266
 20
127.966
 30
0.0
 11
4.59299
 21
21.9122
 31
0.0
  0
LINE
  8
0
 62
     0
 10
4.59299
 20
21.9122
 30
0.0
 11
4.09003
 21
21.7344
 31
0.0
  0
LINE
  8
0
 62
     0
 10
4.09003
 20
21.7344
 30
0.0
 11
3.68762
 21
21.4009
 31
0.0
  0
LINE
  8
0
 62
     0
 10
3.68762
 20
21.4009
 30
0.0
 11
3.42029
 21
20.9489
 31
0.0
  0
LINE
  8
0
 62
     0
 10
3.42029
 20
20.9489
 30
0.0
 11
3.32383
 21
20.4129
 31
0.0
  0
LINE
  8
0
 62
     0
 10
3.32383
 20
20.4129
 30
0.0
 11
3.42029
 21
19.8768
 31
0.0
  0
LINE
  8
0
 62
     0
 10
3.42029
 20
19.8768
 30
0.0
 11
3.68762
 21
19.4221
 31
0.0
  0
LINE
  8
0
 62
     0
 10
3.68762
 20
19.4221
 30
0.0
 11
4.09003
 21
19.0858
 31
0.0
  0
LINE
  8
0
 62
     0
 10
4.09003
 20
19.0858
 30
0.0
 11
4.59299
 21
18.9053
 31
0.0
  0
LINE
  8
0
 62
     0
 10
4.59299
 20
18.9053
 30
0.0
 11
4.59299
 21
7.4483
 31
0.0
  0
LINE
  8
0
 62
     0
 10
4.59299
 20
7.4483
 30
0.0
 11
4.60266
 21
7.29809
 31
0.0
  0
LINE
  8
0
 62
     0
 10
4.60266
 20
7.29809
 30
0.0
 11
4.6192
 21
7.15754
 31
0.0
  0
LINE
  8
0
 62
     0
 10
4.6192
 20
7.15754
 30
0.0
 11
4.65501
 21
7.01696
 31
0.0
  0
LINE
  8
0
 62
     0
 10
4.65501
 20
7.01696
 30
0.0
 11
4.69085
 21
6.87504
 31
0.0
  0
LINE
  8
0
 62
     0
 10
4.69085
 20
6.87504
 30
0.0
 11
4.7432
 21
6.73446
 31
0.0
  0
LINE
  8
0
 62
     0
 10
4.7432
 20
6.73446
 30
0.0
 11
4.81348
 21
6.61046
 31
0.0
  0
LINE
  8
0
 62
     0
 10
4.81348
 20
6.61046
 30
0.0
 11
4.88378
 21
6.47816
 31
0.0
  0
LINE
  8
0
 62
     0
 10
4.88378
 20
6.47816
 30
0.0
 11
4.97198
 21
6.3555
 31
0.0
  0
LINE
  8
0
 62
     0
 10
4.97198
 20
6.3555
 30
0.0
 11
5.0698
 21
6.24939
 31
0.0
  0
LINE
  8
0
 62
     0
 10
5.0698
 20
6.24939
 30
0.0
 11
5.16625
 21
6.13502
 31
0.0
  0
LINE
  8
0
 62
     0
 10
5.16625
 20
6.13502
 30
0.0
 11
5.28066
 21
6.03719
 31
0.0
  0
LINE
  8
0
 62
     0
 10
5.28066
 20
6.03719
 30
0.0
 11
5.40466
 21
5.949
 31
0.0
  0
LINE
  8
0
 62
     0
 10
5.40466
 20
5.949
 30
0.0
 11
5.5287
 21
5.87043
 31
0.0
  0
LINE
  8
0
 62
     0
 10
5.5287
 20
5.87043
 30
0.0
 11
5.66099
 21
5.79878
 31
0.0
  0
LINE
  8
0
 62
     0
 10
5.66099
 20
5.79878
 30
0.0
 11
5.80154
 21
5.73814
 31
0.0
  0
LINE
  8
0
 62
     0
 10
5.80154
 20
5.73814
 30
0.0
 11
5.94212
 21
5.68441
 31
0.0
  0
LINE
  8
0
 62
     0
 10
5.94212
 20
5.68441
 30
0.0
 11
6.0923
 21
5.64995
 31
0.0
  0
LINE
  8
0
 62
     0
 10
6.0923
 20
5.64995
 30
0.0
 11
6.24251
 21
5.61414
 31
0.0
  0
LINE
  8
0
 62
     0
 10
6.24251
 20
5.61414
 30
0.0
 11
6.39272
 21
5.60585
 31
0.0
  0
LINE
  8
0
 62
     0
 10
6.39272
 20
5.60585
 30
0.0
 11
6.55119
 21
5.59622
 31
0.0
  0
LINE
  8
0
 62
     0
 10
6.55119
 20
5.59622
 30
0.0
 11
26.6416
 21
5.59622
 31
0.0
  0
LINE
  8
0
 62
     0
 10
26.6416
 20
5.59622
 30
0.0
 11
26.818
 21
5.09185
 31
0.0
  0
LINE
  8
0
 62
     0
 10
26.818
 20
5.09185
 30
0.0
 11
27.1501
 21
4.68672
 31
0.0
  0
LINE
  8
0
 62
     0
 10
27.1501
 20
4.68672
 30
0.0
 11
27.6021
 21
4.4166
 31
0.0
  0
LINE
  8
0
 62
     0
 10
27.6021
 20
4.4166
 30
0.0
 11
28.1409
 21
4.3174
 31
0.0
  0
LINE
  8
0
 62
     0
 10
28.1409
 20
4.3174
 30
0.0
 11
28.6784
 21
4.4166
 31
0.0
  0
LINE
  8
0
 62
     0
 10
28.6784
 20
4.4166
 30
0.0
 11
29.1303
 21
4.68672
 31
0.0
  0
LINE
  8
0
 62
     0
 10
29.1303
 20
4.68672
 30
0.0
 11
29.4624
 21
5.09185
 31
0.0
  0
LINE
  8
0
 62
     0
 10
29.4624
 20
5.09185
 30
0.0
 11
29.6402
 21
5.59622
 31
0.0
  0
LINE
  8
0
 62
     0
 10
29.6402
 20
5.59622
 30
0.0
 11
126.813
 21
5.59622
 31
0.0
  0
LINE
  8
0
 62
     0
 10
126.813
 20
5.59622
 30
0.0
 11
126.99
 21
5.09185
 31
0.0
  0
LINE
  8
0
 62
     0
 10
126.99
 20
5.09185
 30
0.0
 11
127.322
 21
4.68672
 31
0.0
  0
LINE
  8
0
 62
     0
 10
127.322
 20
4.68672
 30
0.0
 11
127.774
 21
4.4166
 31
0.0
  0
LINE
  8
0
 62
     0
 10
127.774
 20
4.4166
 30
0.0
 11
128.312
 21
4.3174
 31
0.0
  0
LINE
  8
0
 62
     0
 10
128.312
 20
4.3174
 30
0.0
 11
128.849
 21
4.4166
 31
0.0
  0
LINE
  8
0
 62
     0
 10
128.849
 20
4.4166
 30
0.0
 11
129.301
 21
4.68672
 31
0.0
  0
LINE
  8
0
 62
     0
 10
129.301
 20
4.68672
 30
0.0
 11
129.633
 21
5.09185
 31
0.0
  0
LINE
  8
0
 62
     0
 10
129.633
 20
5.09185
 30
0.0
 11
129.811
 21
5.59622
 31
0.0
  0
LINE
  8
0
 62
     0
 10
129.811
 20
5.59622
 30
0.0
 11
245.488
 21
5.59622
 31
0.0
  0
LINE
  8
0
 62
     0
 10
245.488
 20
5.59622
 30
0.0
 11
245.664
 21
5.09185
 31
0.0
  0
LINE
  8
0
 62
     0
 10
245.664
 20
5.09185
 30
0.0
 11
245.997
 21
4.68672
 31
0.0
  0
LINE
  8
0
 62
     0
 10
245.997
 20
4.68672
 30
0.0
 11
246.448
 21
4.4166
 31
0.0
  0
LINE
  8
0
 62
     0
 10
246.448
 20
4.4166
 30
0.0
 11
246.987
 21
4.3174
 31
0.0
  0
LINE
  8
0
 62
     0
 10
246.987
 20
4.3174
 30
0.0
 11
247.523
 21
4.4166
 31
0.0
  0
LINE
  8
0
 62
     0
 10
247.523
 20
4.4166
 30
0.0
 11
247.977
 21
4.68672
 31
0.0
  0
LINE
  8
0
 62
     0
 10
247.977
 20
4.68672
 30
0.0
 11
248.309
 21
5.09185
 31
0.0
  0
LINE
  8
0
 62
     0
 10
248.309
 20
5.09185
 30
0.0
 11
248.486
 21
5.59622
 31
0.0
  0
LINE
  8
0
 62
     0
 10
248.486
 20
5.59622
 30
0.0
 11
336.186
 21
5.59622
 31
0.0
  0
LINE
  8
0
 62
     0
 10
336.186
 20
5.59622
 30
0.0
 11
336.363
 21
5.09185
 31
0.0
  0
LINE
  8
0
 62
     0
 10
336.363
 20
5.09185
 30
0.0
 11
336.696
 21
4.68535
 31
0.0
  0
LINE
  8
0
 62
     0
 10
336.696
 20
4.68535
 30
0.0
 11
337.148
 21
4.4166
 31
0.0
  0
LINE
  8
0
 62
     0
 10
337.148
 20
4.4166
 30
0.0
 11
337.686
 21
4.3174
 31
0.0
  0
LINE
  8
0
 62
     0
 10
337.686
 20
4.3174
 30
0.0
 11
338.224
 21
4.4166
 31
0.0
  0
LINE
  8
0
 62
     0
 10
338.224
 20
4.4166
 30
0.0
 11
338.679
 21
4.68535
 31
0.0
  0
LINE
  8
0
 62
     0
 10
338.679
 20
4.68535
 30
0.0
 11
339.015
 21
5.09185
 31
0.0
  0
LINE
  8
0
 62
     0
 10
339.015
 20
5.09185
 30
0.0
 11
339.194
 21
5.59622
 31
0.0
  0
LINE
  8
0
 62
     0
 10
339.194
 20
5.59622
 30
0.0
 11
359.322
 21
5.59622
 31
0.0
  0
LINE
  8
0
 62
     0
 10
359.322
 20
5.59622
 30
0.0
 11
359.47
 21
5.60585
 31
0.0
  0
LINE
  8
0
 62
     0
 10
359.47
 20
5.60585
 30
0.0
 11
359.629
 21
5.61414
 31
0.0
  0
LINE
  8
0
 62
     0
 10
359.629
 20
5.61414
 30
0.0
 11
359.777
 21
5.64995
 31
0.0
  0
LINE
  8
0
 62
     0
 10
359.777
 20
5.64995
 30
0.0
 11
359.922
 21
5.68441
 31
0.0
  0
LINE
  8
0
 62
     0
 10
359.922
 20
5.68441
 30
0.0
 11
360.07
 21
5.73814
 31
0.0
  0
LINE
  8
0
 62
     0
 10
360.07
 20
5.73814
 30
0.0
 11
360.204
 21
5.79878
 31
0.0
  0
LINE
  8
0
 62
     0
 10
360.204
 20
5.79878
 30
0.0
 11
360.345
 21
5.87043
 31
0.0
  0
LINE
  8
0
 62
     0
 10
360.345
 20
5.87043
 30
0.0
 11
360.468
 21
5.949
 31
0.0
  0
LINE
  8
0
 62
     0
 10
360.468
 20
5.949
 30
0.0
 11
360.588
 21
6.03719
 31
0.0
  0
LINE
  8
0
 62
     0
 10
360.588
 20
6.03719
 30
0.0
 11
360.698
 21
6.13502
 31
0.0
  0
LINE
  8
0
 62
     0
 10
360.698
 20
6.13502
 30
0.0
 11
360.803
 21
6.24939
 31
0.0
  0
LINE
  8
0
 62
     0
 10
360.803
 20
6.24939
 30
0.0
 11
360.899
 21
6.3555
 31
0.0
  0
LINE
  8
0
 62
     0
 10
360.899
 20
6.3555
 30
0.0
 11
360.987
 21
6.47816
 31
0.0
  0
LINE
  8
0
 62
     0
 10
360.987
 20
6.47816
 30
0.0
 11
361.057
 21
6.61046
 31
0.0
  0
LINE
  8
0
 62
     0
 10
361.057
 20
6.61046
 30
0.0
 11
361.117
 21
6.73446
 31
0.0
  0
LINE
  8
0
 62
     0
 10
361.117
 20
6.73446
 30
0.0
 11
361.174
 21
6.87504
 31
0.0
  0
LINE
  8
0
 62
     0
 10
361.174
 20
6.87504
 30
0.0
 11
361.216
 21
7.01696
 31
0.0
  0
LINE
  8
0
 62
     0
 10
361.216
 20
7.01696
 30
0.0
 11
361.269
 21
7.29809
 31
0.0
  0
LINE
  8
0
 62
     0
 10
361.269
 20
7.29809
 30
0.0
 11
361.269
 21
18.9053
 31
0.0
  0
LINE
  8
0
 62
     0
 10
361.269
 20
18.9053
 30
0.0
 11
361.774
 21
19.0845
 31
0.0
  0
LINE
  8
0
 62
     0
 10
361.774
 20
19.0845
 30
0.0
 11
362.179
 21
19.4193
 31
0.0
  0
LINE
  8
0
 62
     0
 10
362.179
 20
19.4193
 30
0.0
 11
362.447
 21
19.8741
 31
0.0
  0
LINE
  8
0
 62
     0
 10
362.447
 20
19.8741
 30
0.0
 11
362.55
 21
20.4129
 31
0.0
  0
LINE
  8
0
 62
     0
 10
362.55
 20
20.4129
 30
0.0
 11
362.447
 21
20.9517
 31
0.0
  0
LINE
  8
0
 62
     0
 10
362.447
 20
20.9517
 30
0.0
 11
362.179
 21
21.4037
 31
0.0
  0
LINE
  8
0
 62
     0
 10
362.179
 20
21.4037
 30
0.0
 11
361.774
 21
21.7358
 31
0.0
  0
LINE
  8
0
 62
     0
 10
361.774
 20
21.7358
 30
0.0
 11
361.269
 21
21.9122
 31
0.0
  0
LINE
  8
0
 62
     0
 10
361.269
 20
21.9122
 30
0.0
 11
361.269
 21
127.966
 31
0.0
  0
LINE
  8
0
 62
     0
 10
361.269
 20
127.966
 30
0.0
 11
361.774
 21
128.144
 31
0.0
  0
LINE
  8
0
 62
     0
 10
361.774
 20
128.144
 30
0.0
 11
362.179
 21
128.476
 31
0.0
  0
LINE
  8
0
 62
     0
 10
362.179
 20
128.476
 30
0.0
 11
362.447
 21
128.929
 31
0.0
  0
LINE
  8
0
 62
     0
 10
362.447
 20
128.929
 30
0.0
 11
362.55
 21
129.465
 31
0.0
  0
LINE
  8
0
 62
     0
 10
362.55
 20
129.465
 30
0.0
 11
362.447
 21
130.004
 31
0.0
  0
LINE
  8
0
 62
     0
 10
362.447
 20
130.004
 30
0.0
 11
362.179
 21
130.456
 31
0.0
  0
LINE
  8
0
 62
     0
 10
362.179
 20
130.456
 30
0.0
 11
361.774
 21
130.788
 31
0.0
  0
LINE
  8
0
 62
     0
 10
361.774
 20
130.788
 30
0.0
 11
361.269
 21
130.965
 31
0.0
  0
LINE
  8
0
 62
     0
 10
361.269
 20
130.965
 30
0.0
 11
361.269
 21
141.724
 31
0.0
  0
LINE
  8
0
 62
     0
 10
361.269
 20
141.724
 30
0.0
 11
361.244
 21
141.866
 31
0.0
  0
LINE
  8
0
 62
     0
 10
361.244
 20
141.866
 30
0.0
 11
361.216
 21
142.007
 31
0.0
  0
LINE
  8
0
 62
     0
 10
361.216
 20
142.007
 30
0.0
 11
361.174
 21
142.148
 31
0.0
  0
LINE
  8
0
 62
     0
 10
361.174
 20
142.148
 30
0.0
 11
361.117
 21
142.289
 31
0.0
  0
LINE
  8
0
 62
     0
 10
361.117
 20
142.289
 30
0.0
 11
361.057
 21
142.422
 31
0.0
  0
LINE
  8
0
 62
     0
 10
361.057
 20
142.422
 30
0.0
 11
360.987
 21
142.544
 31
0.0
  0
LINE
  8
0
 62
     0
 10
360.987
 20
142.544
 30
0.0
 11
360.899
 21
142.668
 31
0.0
  0
LINE
  8
0
 62
     0
 10
360.899
 20
142.668
 30
0.0
 11
360.803
 21
142.783
 31
0.0
  0
LINE
  8
0
 62
     0
 10
360.803
 20
142.783
 30
0.0
 11
360.698
 21
142.889
 31
0.0
  0
LINE
  8
0
 62
     0
 10
360.698
 20
142.889
 30
0.0
 11
360.588
 21
142.985
 31
0.0
  0
LINE
  8
0
 62
     0
 10
360.588
 20
142.985
 30
0.0
 11
360.468
 21
143.074
 31
0.0
  0
LINE
  8
0
 62
     0
 10
360.468
 20
143.074
 30
0.0
 11
360.345
 21
143.162
 31
0.0
  0
LINE
  8
0
 62
     0
 10
360.345
 20
143.162
 30
0.0
 11
360.204
 21
143.233
 31
0.0
  0
LINE
  8
0
 62
     0
 10
360.204
 20
143.233
 30
0.0
 11
360.07
 21
143.286
 31
0.0
  0
LINE
  8
0
 62
     0
 10
360.07
 20
143.286
 30
0.0
 11
359.922
 21
143.338
 31
0.0
  0
LINE
  8
0
 62
     0
 10
359.922
 20
143.338
 30
0.0
 11
359.777
 21
143.382
 31
0.0
  0
LINE
  8
0
 62
     0
 10
359.777
 20
143.382
 30
0.0
 11
359.629
 21
143.41
 31
0.0
  0
LINE
  8
0
 62
     0
 10
359.629
 20
143.41
 30
0.0
 11
359.47
 21
143.426
 31
0.0
  0
LINE
  8
0
 62
     0
 10
359.47
 20
143.426
 30
0.0
 11
339.194
 21
143.426
 31
0.0
  0
LINE
  8
0
 62
     0
 10
339.194
 20
143.426
 30
0.0
 11
339.017
 21
143.936
 31
0.0
  0
LINE
  8
0
 62
     0
 10
339.017
 20
143.936
 30
0.0
 11
338.682
 21
144.344
 31
0.0
  0
LINE
  8
0
 62
     0
 10
338.682
 20
144.344
 30
0.0
 11
338.226
 21
144.617
 31
0.0
  0
LINE
  8
0
 62
     0
 10
338.226
 20
144.617
 30
0.0
 11
337.686
 21
144.715
 31
0.0
  0
LINE
  8
0
 62
     0
 10
1.94441
 20
0.106109
 30
0.0
 11
1.78732
 21
0.124024
 31
0.0
  0
LINE
  8
0
 62
     0
 10
1.78732
 20
0.124024
 30
0.0
 11
1.63435
 21
0.155718
 31
0.0
  0
LINE
  8
0
 62
     0
 10
1.63435
 20
0.155718
 30
0.0
 11
1.48139
 21
0.19706
 31
0.0
  0
LINE
  8
0
 62
     0
 10
1.48139
 20
0.19706
 30
0.0
 11
1.33532
 21
0.252181
 31
0.0
  0
LINE
  8
0
 62
     0
 10
1.33532
 20
0.252181
 30
0.0
 11
1.19338
 21
0.316949
 31
0.0
  0
LINE
  8
0
 62
     0
 10
1.19338
 20
0.316949
 30
0.0
 11
1.05558
 21
0.39412
 31
0.0
  0
LINE
  8
0
 62
     0
 10
1.05558
 20
0.39412
 30
0.0
 11
0.924662
 21
0.480935
 31
0.0
  0
LINE
  8
0
 62
     0
 10
0.924662
 20
0.480935
 30
0.0
 11
0.802019
 21
0.580154
 31
0.0
  0
LINE
  8
0
 62
     0
 10
0.802019
 20
0.580154
 30
0.0
 11
0.686262
 21
0.684886
 31
0.0
  0
LINE
  8
0
 62
     0
 10
0.686262
 20
0.684886
 30
0.0
 11
0.580154
 21
0.802019
 31
0.0
  0
LINE
  8
0
 62
     0
 10
0.580154
 20
0.802019
 30
0.0
 11
0.482314
 21
0.924662
 31
0.0
  0
LINE
  8
0
 62
     0
 10
0.482314
 20
0.924662
 30
0.0
 11
0.395496
 21
1.05558
 31
0.0
  0
LINE
  8
0
 62
     0
 10
0.395496
 20
1.05558
 30
0.0
 11
0.318327
 21
1.192
 31
0.0
  0
LINE
  8
0
 62
     0
 10
0.318327
 20
1.192
 30
0.0
 11
0.253559
 21
1.33394
 31
0.0
  0
LINE
  8
0
 62
     0
 10
0.253559
 20
1.33394
 30
0.0
 11
0.198438
 21
1.48139
 31
0.0
  0
LINE
  8
0
 62
     0
 10
0.198438
 20
1.48139
 30
0.0
 11
0.155718
 21
1.63298
 31
0.0
  0
LINE
  8
0
 62
     0
 10
0.155718
 20
1.63298
 30
0.0
 11
0.125402
 21
1.78732
 31
0.0
  0
LINE
  8
0
 62
     0
 10
0.125402
 20
1.78732
 30
0.0
 11
0.107487
 21
1.94303
 31
0.0
  0
LINE
  8
0
 62
     0
 10
0.107487
 20
1.94303
 30
0.0
 11
0.100597
 21
2.10013
 31
0.0
  0
LINE
  8
0
 62
     0
 10
0.100597
 20
2.10013
 30
0.0
 11
0.100597
 21
146.925
 31
0.0
  0
LINE
  8
0
 62
     0
 10
0.100597
 20
146.925
 30
0.0
 11
0.107487
 21
147.082
 31
0.0
  0
LINE
  8
0
 62
     0
 10
0.107487
 20
147.082
 30
0.0
 11
0.125402
 21
147.239
 31
0.0
  0
LINE
  8
0
 62
     0
 10
0.125402
 20
147.239
 30
0.0
 11
0.155718
 21
147.392
 31
0.0
  0
LINE
  8
0
 62
     0
 10
0.155718
 20
147.392
 30
0.0
 11
0.198438
 21
147.545
 31
0.0
  0
LINE
  8
0
 62
     0
 10
0.198438
 20
147.545
 30
0.0
 11
0.253559
 21
147.691
 31
0.0
  0
LINE
  8
0
 62
     0
 10
0.253559
 20
147.691
 30
0.0
 11
0.318327
 21
147.833
 31
0.0
  0
LINE
  8
0
 62
     0
 10
0.318327
 20
147.833
 30
0.0
 11
0.395496
 21
147.971
 31
0.0
  0
LINE
  8
0
 62
     0
 10
0.395496
 20
147.971
 30
0.0
 11
0.482314
 21
148.102
 31
0.0
  0
LINE
  8
0
 62
     0
 10
0.482314
 20
148.102
 30
0.0
 11
0.580154
 21
148.225
 31
0.0
  0
LINE
  8
0
 62
     0
 10
0.580154
 20
148.225
 30
0.0
 11
0.686262
 21
148.34
 31
0.0
  0
LINE
  8
0
 62
     0
 10
0.686262
 20
148.34
 30
0.0
 11
0.802019
 21
148.446
 31
0.0
  0
LINE
  8
0
 62
     0
 10
0.802019
 20
148.446
 30
0.0
 11
0.924662
 21
148.544
 31
0.0
  0
LINE
  8
0
 62
     0
 10
0.924662
 20
148.544
 30
0.0
 11
1.05558
 21
148.631
 31
0.0
  0
LINE
  8
0
 62
     0
 10
1.05558
 20
148.631
 30
0.0
 11
1.19338
 21
148.708
 31
0.0
  0
LINE
  8
0
 62
     0
 10
1.19338
 20
148.708
 30
0.0
 11
1.33532
 21
148.773
 31
0.0
  0
LINE
  8
0
 62
     0
 10
1.33532
 20
148.773
 30
0.0
 11
1.48139
 21
148.828
 31
0.0
  0
LINE
  8
0
 62
     0
 10
1.48139
 20
148.828
 30
0.0
 11
1.63435
 21
148.871
 31
0.0
  0
LINE
  8
0
 62
     0
 10
1.63435
 20
148.871
 30
0.0
 11
1.78732
 21
148.901
 31
0.0
  0
LINE
  8
0
 62
     0
 10
1.78732
 20
148.901
 30
0.0
 11
1.94441
 21
148.919
 31
0.0
  0
LINE
  8
0
 62
     0
 10
1.94441
 20
148.919
 30
0.0
 11
2.10151
 21
148.926
 31
0.0
  0
LINE
  8
0
 62
     0
 10
2.10151
 20
148.926
 30
0.0
 11
363.763
 21
148.926
 31
0.0
  0
LINE
  8
0
 62
     0
 10
363.763
 20
148.926
 30
0.0
 11
363.922
 21
148.919
 31
0.0
  0
LINE
  8
0
 62
     0
 10
363.922
 20
148.919
 30
0.0
 11
364.077
 21
148.901
 31
0.0
  0
LINE
  8
0
 62
     0
 10
364.077
 20
148.901
 30
0.0
 11
364.229
 21
148.871
 31
0.0
  0
LINE
  8
0
 62
     0
 10
364.229
 20
148.871
 30
0.0
 11
364.381
 21
148.828
 31
0.0
  0
LINE
  8
0
 62
     0
 10
364.381
 20
148.828
 30
0.0
 11
364.529
 21
148.773
 31
0.0
  0
LINE
  8
0
 62
     0
 10
364.529
 20
148.773
 30
0.0
 11
364.67
 21
148.708
 31
0.0
  0
LINE
  8
0
 62
     0
 10
364.67
 20
148.708
 30
0.0
 11
364.811
 21
148.631
 31
0.0
  0
LINE
  8
0
 62
     0
 10
364.811
 20
148.631
 30
0.0
 11
364.942
 21
148.544
 31
0.0
  0
LINE
  8
0
 62
     0
 10
364.942
 20
148.544
 30
0.0
 11
365.061
 21
148.446
 31
0.0
  0
LINE
  8
0
 62
     0
 10
365.061
 20
148.446
 30
0.0
 11
365.178
 21
148.34
 31
0.0
  0
LINE
  8
0
 62
     0
 10
365.178
 20
148.34
 30
0.0
 11
365.284
 21
148.225
 31
0.0
  0
LINE
  8
0
 62
     0
 10
365.284
 20
148.225
 30
0.0
 11
365.383
 21
148.102
 31
0.0
  0
LINE
  8
0
 62
     0
 10
365.383
 20
148.102
 30
0.0
 11
365.471
 21
147.971
 31
0.0
  0
LINE
  8
0
 62
     0
 10
365.471
 20
147.971
 30
0.0
 11
365.548
 21
147.833
 31
0.0
  0
LINE
  8
0
 62
     0
 10
365.548
 20
147.833
 30
0.0
 11
365.612
 21
147.691
 31
0.0
  0
LINE
  8
0
 62
     0
 10
365.612
 20
147.691
 30
0.0
 11
365.668
 21
147.545
 31
0.0
  0
LINE
  8
0
 62
     0
 10
365.668
 20
147.545
 30
0.0
 11
365.711
 21
147.392
 31
0.0
  0
LINE
  8
0
 62
     0
 10
365.711
 20
147.392
 30
0.0
 11
365.739
 21
147.239
 31
0.0
  0
LINE
  8
0
 62
     0
 10
365.739
 20
147.239
 30
0.0
 11
365.756
 21
147.082
 31
0.0
  0
LINE
  8
0
 62
     0
 10
365.756
 20
147.082
 30
0.0
 11
365.764
 21
146.925
 31
0.0
  0
LINE
  8
0
 62
     0
 10
365.764
 20
146.925
 30
0.0
 11
365.764
 21
2.10013
 31
0.0
  0
LINE
  8
0
 62
     0
 10
365.764
 20
2.10013
 30
0.0
 11
365.756
 21
1.94303
 31
0.0
  0
LINE
  8
0
 62
     0
 10
365.756
 20
1.94303
 30
0.0
 11
365.739
 21
1.78732
 31
0.0
  0
LINE
  8
0
 62
     0
 10
365.739
 20
1.78732
 30
0.0
 11
365.711
 21
1.63298
 31
0.0
  0
LINE
  8
0
 62
     0
 10
365.711
 20
1.63298
 30
0.0
 11
365.668
 21
1.48139
 31
0.0
  0
LINE
  8
0
 62
     0
 10
365.668
 20
1.48139
 30
0.0
 11
365.612
 21
1.33394
 31
0.0
  0
LINE
  8
0
 62
     0
 10
365.612
 20
1.33394
 30
0.0
 11
365.548
 21
1.192
 31
0.0
  0
LINE
  8
0
 62
     0
 10
365.548
 20
1.192
 30
0.0
 11
365.471
 21
1.05558
 31
0.0
  0
LINE
  8
0
 62
     0
 10
365.471
 20
1.05558
 30
0.0
 11
365.383
 21
0.924662
 31
0.0
  0
LINE
  8
0
 62
     0
 10
365.383
 20
0.924662
 30
0.0
 11
365.284
 21
0.802019
 31
0.0
  0
LINE
  8
0
 62
     0
 10
365.284
 20
0.802019
 30
0.0
 11
365.178
 21
0.684886
 31
0.0
  0
LINE
  8
0
 62
     0
 10
365.178
 20
0.684886
 30
0.0
 11
365.061
 21
0.580154
 31
0.0
  0
LINE
  8
0
 62
     0
 10
365.061
 20
0.580154
 30
0.0
 11
364.942
 21
0.480935
 31
0.0
  0
LINE
  8
0
 62
     0
 10
364.942
 20
0.480935
 30
0.0
 11
364.811
 21
0.39412
 31
0.0
  0
LINE
  8
0
 62
     0
 10
364.811
 20
0.39412
 30
0.0
 11
364.67
 21
0.316949
 31
0.0
  0
LINE
  8
0
 62
     0
 10
364.67
 20
0.316949
 30
0.0
 11
364.529
 21
0.252181
 31
0.0
  0
LINE
  8
0
 62
     0
 10
364.529
 20
0.252181
 30
0.0
 11
364.381
 21
0.19706
 31
0.0
  0
LINE
  8
0
 62
     0
 10
364.381
 20
0.19706
 30
0.0
 11
364.229
 21
0.155718
 31
0.0
  0
LINE
  8
0
 62
     0
 10
364.229
 20
0.155718
 30
0.0
 11
364.077
 21
0.124024
 31
0.0
  0
LINE
  8
0
 62
     0
 10
364.077
 20
0.124024
 30
0.0
 11
363.922
 21
0.106109
 31
0.0
  0
LINE
  8
0
 62
     0
 10
363.922
 20
0.106109
 30
0.0
 11
363.763
 21
0.0992188
 31
0.0
  0
LINE
  8
0
 62
     0
 10
363.763
 20
0.0992188
 30
0.0
 11
2.10151
 21
0.0992188
 31
0.0
  0
LINE
  8
0
 62
     0
 10
2.10151
 20
0.0992188
 30
0.0
 11
1.94441
 21
0.106109
 31
0.0
  0
ENDSEC
  0
EOF
