  0
SECTION
  2
HEADER
  9
$ACADVER
  1
AC1009
  9
$EXTMIN
 10
0.0
 20
0.0
 30
0.0
  9
$EXTMAX
 10
1000.0
 20
1000.0
 30
0.0
  9
$FILLMODE
 70
 0
  9
$SPLFRAME
 70
 1
  0
ENDSEC
  0
SECTION
  2
TABLES
  0
TABLE
  2
LAYER
 70
1
  0
LAYER
  2
0
 70
     0
 62
     7
  6
CONTINUOUS
  0
ENDTAB
  0
ENDSEC
  0
SECTION
  2
ENTITIES
  0
LINE
  8
0
 62
     0
 10
285.633
 20
132.224
 30
0.0
 11
285.542
 21
131.778
 31
0.0
  0
LINE
  8
0
 62
     0
 10
285.542
 20
131.778
 30
0.0
 11
285.295
 21
131.411
 31
0.0
  0
LINE
  8
0
 62
     0
 10
285.295
 20
131.411
 30
0.0
 11
284.93
 21
131.165
 31
0.0
  0
LINE
  8
0
 62
     0
 10
284.93
 20
131.165
 30
0.0
 11
284.484
 21
131.074
 31
0.0
  0
LINE
  8
0
 62
     0
 10
284.484
 20
131.074
 30
0.0
 11
284.036
 21
131.165
 31
0.0
  0
LINE
  8
0
 62
     0
 10
284.036
 20
131.165
 30
0.0
 11
283.669
 21
131.411
 31
0.0
  0
LINE
  8
0
 62
     0
 10
283.669
 20
131.411
 30
0.0
 11
283.422
 21
131.778
 31
0.0
  0
LINE
  8
0
 62
     0
 10
283.422
 20
131.778
 30
0.0
 11
283.333
 21
132.224
 31
0.0
  0
LINE
  8
0
 62
     0
 10
283.333
 20
132.224
 30
0.0
 11
283.422
 21
132.672
 31
0.0
  0
LINE
  8
0
 62
     0
 10
283.422
 20
132.672
 30
0.0
 11
283.669
 21
133.037
 31
0.0
  0
LINE
  8
0
 62
     0
 10
283.669
 20
133.037
 30
0.0
 11
284.036
 21
133.284
 31
0.0
  0
LINE
  8
0
 62
     0
 10
284.036
 20
133.284
 30
0.0
 11
284.484
 21
133.373
 31
0.0
  0
LINE
  8
0
 62
     0
 10
284.484
 20
133.373
 30
0.0
 11
284.93
 21
133.284
 31
0.0
  0
LINE
  8
0
 62
     0
 10
284.93
 20
133.284
 30
0.0
 11
285.295
 21
133.037
 31
0.0
  0
LINE
  8
0
 62
     0
 10
285.295
 20
133.037
 30
0.0
 11
285.542
 21
132.672
 31
0.0
  0
LINE
  8
0
 62
     0
 10
285.542
 20
132.672
 30
0.0
 11
285.633
 21
132.224
 31
0.0
  0
LINE
  8
0
 62
     0
 10
301.133
 20
132.224
 30
0.0
 11
301.042
 21
131.778
 31
0.0
  0
LINE
  8
0
 62
     0
 10
301.042
 20
131.778
 30
0.0
 11
300.795
 21
131.411
 31
0.0
  0
LINE
  8
0
 62
     0
 10
300.795
 20
131.411
 30
0.0
 11
300.43
 21
131.165
 31
0.0
  0
LINE
  8
0
 62
     0
 10
300.43
 20
131.165
 30
0.0
 11
299.984
 21
131.074
 31
0.0
  0
LINE
  8
0
 62
     0
 10
299.984
 20
131.074
 30
0.0
 11
299.536
 21
131.165
 31
0.0
  0
LINE
  8
0
 62
     0
 10
299.536
 20
131.165
 30
0.0
 11
299.169
 21
131.411
 31
0.0
  0
LINE
  8
0
 62
     0
 10
299.169
 20
131.411
 30
0.0
 11
298.923
 21
131.778
 31
0.0
  0
LINE
  8
0
 62
     0
 10
298.923
 20
131.778
 30
0.0
 11
298.833
 21
132.224
 31
0.0
  0
LINE
  8
0
 62
     0
 10
298.833
 20
132.224
 30
0.0
 11
298.923
 21
132.672
 31
0.0
  0
LINE
  8
0
 62
     0
 10
298.923
 20
132.672
 30
0.0
 11
299.169
 21
133.037
 31
0.0
  0
LINE
  8
0
 62
     0
 10
299.169
 20
133.037
 30
0.0
 11
299.536
 21
133.284
 31
0.0
  0
LINE
  8
0
 62
     0
 10
299.536
 20
133.284
 30
0.0
 11
299.984
 21
133.373
 31
0.0
  0
LINE
  8
0
 62
     0
 10
299.984
 20
133.373
 30
0.0
 11
300.43
 21
133.284
 31
0.0
  0
LINE
  8
0
 62
     0
 10
300.43
 20
133.284
 30
0.0
 11
300.795
 21
133.037
 31
0.0
  0
LINE
  8
0
 62
     0
 10
300.795
 20
133.037
 30
0.0
 11
301.042
 21
132.672
 31
0.0
  0
LINE
  8
0
 62
     0
 10
301.042
 20
132.672
 30
0.0
 11
301.133
 21
132.224
 31
0.0
  0
LINE
  8
0
 62
     0
 10
1.89067
 20
136.933
 30
0.0
 11
1.74046
 21
136.916
 31
0.0
  0
LINE
  8
0
 62
     0
 10
1.74046
 20
136.916
 30
0.0
 11
1.44005
 21
136.845
 31
0.0
  0
LINE
  8
0
 62
     0
 10
1.44005
 20
136.845
 30
0.0
 11
1.15893
 21
136.74
 31
0.0
  0
LINE
  8
0
 62
     0
 10
1.15893
 20
136.74
 30
0.0
 11
1.02664
 21
136.668
 31
0.0
  0
LINE
  8
0
 62
     0
 10
1.02664
 20
136.668
 30
0.0
 11
0.902614
 21
136.59
 31
0.0
  0
LINE
  8
0
 62
     0
 10
0.902614
 20
136.59
 30
0.0
 11
0.778591
 21
136.492
 31
0.0
  0
LINE
  8
0
 62
     0
 10
0.778591
 20
136.492
 30
0.0
 11
0.664214
 21
136.396
 31
0.0
  0
LINE
  8
0
 62
     0
 10
0.664214
 20
136.396
 30
0.0
 11
0.567754
 21
136.289
 31
0.0
  0
LINE
  8
0
 62
     0
 10
0.567754
 20
136.289
 30
0.0
 11
0.469911
 21
136.175
 31
0.0
  0
LINE
  8
0
 62
     0
 10
0.469911
 20
136.175
 30
0.0
 11
0.381716
 21
136.061
 31
0.0
  0
LINE
  8
0
 62
     0
 10
0.381716
 20
136.061
 30
0.0
 11
0.311437
 21
135.928
 31
0.0
  0
LINE
  8
0
 62
     0
 10
0.311437
 20
135.928
 30
0.0
 11
0.241157
 21
135.804
 31
0.0
  0
LINE
  8
0
 62
     0
 10
0.241157
 20
135.804
 30
0.0
 11
0.188791
 21
135.664
 31
0.0
  0
LINE
  8
0
 62
     0
 10
0.188791
 20
135.664
 30
0.0
 11
0.152962
 21
135.522
 31
0.0
  0
LINE
  8
0
 62
     0
 10
0.152962
 20
135.522
 30
0.0
 11
0.117133
 21
135.381
 31
0.0
  0
LINE
  8
0
 62
     0
 10
0.117133
 20
135.381
 30
0.0
 11
0.100597
 21
135.241
 31
0.0
  0
LINE
  8
0
 62
     0
 10
0.100597
 20
135.241
 30
0.0
 11
0.100597
 21
125.441
 31
0.0
  0
LINE
  8
0
 62
     0
 10
0.100597
 20
125.441
 30
0.0
 11
0.777215
 21
125.224
 31
0.0
  0
LINE
  8
0
 62
     0
 10
0.777215
 20
125.224
 30
0.0
 11
1.32292
 21
124.792
 31
0.0
  0
LINE
  8
0
 62
     0
 10
1.32292
 20
124.792
 30
0.0
 11
1.68672
 21
124.196
 31
0.0
  0
LINE
  8
0
 62
     0
 10
1.68672
 20
124.196
 30
0.0
 11
1.82039
 21
123.483
 31
0.0
  0
LINE
  8
0
 62
     0
 10
1.82039
 20
123.483
 30
0.0
 11
1.68672
 21
122.775
 31
0.0
  0
LINE
  8
0
 62
     0
 10
1.68672
 20
122.775
 30
0.0
 11
1.32292
 21
122.181
 31
0.0
  0
LINE
  8
0
 62
     0
 10
1.32292
 20
122.181
 30
0.0
 11
0.777215
 21
121.752
 31
0.0
  0
LINE
  8
0
 62
     0
 10
0.777215
 20
121.752
 30
0.0
 11
0.100597
 21
121.535
 31
0.0
  0
LINE
  8
0
 62
     0
 10
0.100597
 20
121.535
 30
0.0
 11
0.100597
 21
16.389
 31
0.0
  0
LINE
  8
0
 62
     0
 10
0.100597
 20
16.389
 30
0.0
 11
0.778591
 21
16.174
 31
0.0
  0
LINE
  8
0
 62
     0
 10
0.778591
 20
16.174
 30
0.0
 11
1.3243
 21
15.7427
 31
0.0
  0
LINE
  8
0
 62
     0
 10
1.3243
 20
15.7427
 30
0.0
 11
1.6881
 21
15.1446
 31
0.0
  0
LINE
  8
0
 62
     0
 10
1.6881
 20
15.1446
 30
0.0
 11
1.82039
 21
14.4308
 31
0.0
  0
LINE
  8
0
 62
     0
 10
1.82039
 20
14.4308
 30
0.0
 11
1.6881
 21
13.7197
 31
0.0
  0
LINE
  8
0
 62
     0
 10
1.6881
 20
13.7197
 30
0.0
 11
1.3243
 21
13.1258
 31
0.0
  0
LINE
  8
0
 62
     0
 10
1.3243
 20
13.1258
 30
0.0
 11
0.778591
 21
12.6972
 31
0.0
  0
LINE
  8
0
 62
     0
 10
0.778591
 20
12.6972
 30
0.0
 11
0.100597
 21
12.4823
 31
0.0
  0
LINE
  8
0
 62
     0
 10
0.100597
 20
12.4823
 30
0.0
 11
0.100597
 21
1.79283
 31
0.0
  0
LINE
  8
0
 62
     0
 10
0.100597
 20
1.79283
 30
0.0
 11
0.117133
 21
1.65227
 31
0.0
  0
LINE
  8
0
 62
     0
 10
0.117133
 20
1.65227
 30
0.0
 11
0.152962
 21
1.51033
 31
0.0
  0
LINE
  8
0
 62
     0
 10
0.152962
 20
1.51033
 30
0.0
 11
0.188791
 21
1.36977
 31
0.0
  0
LINE
  8
0
 62
     0
 10
0.188791
 20
1.36977
 30
0.0
 11
0.241157
 21
1.23748
 31
0.0
  0
LINE
  8
0
 62
     0
 10
0.241157
 20
1.23748
 30
0.0
 11
0.311437
 21
1.10519
 31
0.0
  0
LINE
  8
0
 62
     0
 10
0.311437
 20
1.10519
 30
0.0
 11
0.381716
 21
0.981163
 31
0.0
  0
LINE
  8
0
 62
     0
 10
0.381716
 20
0.981163
 30
0.0
 11
0.469911
 21
0.858516
 31
0.0
  0
LINE
  8
0
 62
     0
 10
0.469911
 20
0.858516
 30
0.0
 11
0.567754
 21
0.744142
 31
0.0
  0
LINE
  8
0
 62
     0
 10
0.567754
 20
0.744142
 30
0.0
 11
0.664214
 21
0.63803
 31
0.0
  0
LINE
  8
0
 62
     0
 10
0.664214
 20
0.63803
 30
0.0
 11
0.778591
 21
0.540191
 31
0.0
  0
LINE
  8
0
 62
     0
 10
0.778591
 20
0.540191
 30
0.0
 11
0.902614
 21
0.451997
 31
0.0
  0
LINE
  8
0
 62
     0
 10
0.902614
 20
0.451997
 30
0.0
 11
1.02664
 21
0.373447
 31
0.0
  0
LINE
  8
0
 62
     0
 10
1.02664
 20
0.373447
 30
0.0
 11
1.15893
 21
0.303168
 31
0.0
  0
LINE
  8
0
 62
     0
 10
1.15893
 20
0.303168
 30
0.0
 11
1.29949
 21
0.241157
 31
0.0
  0
LINE
  8
0
 62
     0
 10
1.29949
 20
0.241157
 30
0.0
 11
1.44005
 21
0.187413
 31
0.0
  0
LINE
  8
0
 62
     0
 10
1.44005
 20
0.187413
 30
0.0
 11
1.59026
 21
0.152962
 31
0.0
  0
LINE
  8
0
 62
     0
 10
1.59026
 20
0.152962
 30
0.0
 11
1.74046
 21
0.12678
 31
0.0
  0
LINE
  8
0
 62
     0
 10
1.74046
 20
0.12678
 30
0.0
 11
1.89067
 21
0.108865
 31
0.0
  0
LINE
  8
0
 62
     0
 10
1.89067
 20
0.108865
 30
0.0
 11
2.04088
 21
0.0992188
 31
0.0
  0
LINE
  8
0
 62
     0
 10
2.04088
 20
0.0992188
 30
0.0
 11
21.1956
 21
0.0992188
 31
0.0
  0
LINE
  8
0
 62
     0
 10
21.1956
 20
0.0992188
 30
0.0
 11
21.4078
 21
0.784105
 31
0.0
  0
LINE
  8
0
 62
     0
 10
21.4078
 20
0.784105
 30
0.0
 11
21.8364
 21
1.33532
 31
0.0
  0
LINE
  8
0
 62
     0
 10
21.8364
 20
1.33532
 30
0.0
 11
22.4317
 21
1.70326
 31
0.0
  0
LINE
  8
0
 62
     0
 10
22.4317
 20
1.70326
 30
0.0
 11
23.1455
 21
1.83692
 31
0.0
  0
LINE
  8
0
 62
     0
 10
23.1455
 20
1.83692
 30
0.0
 11
23.8593
 21
1.70326
 31
0.0
  0
LINE
  8
0
 62
     0
 10
23.8593
 20
1.70326
 30
0.0
 11
24.4574
 21
1.33532
 31
0.0
  0
LINE
  8
0
 62
     0
 10
24.4574
 20
1.33532
 30
0.0
 11
24.8888
 21
0.784105
 31
0.0
  0
LINE
  8
0
 62
     0
 10
24.8888
 20
0.784105
 30
0.0
 11
25.1037
 21
0.0992188
 31
0.0
  0
LINE
  8
0
 62
     0
 10
25.1037
 20
0.0992188
 30
0.0
 11
121.358
 21
0.0992188
 31
0.0
  0
LINE
  8
0
 62
     0
 10
121.358
 20
0.0992188
 30
0.0
 11
121.572
 21
0.784105
 31
0.0
  0
LINE
  8
0
 62
     0
 10
121.572
 20
0.784105
 30
0.0
 11
122.003
 21
1.33532
 31
0.0
  0
LINE
  8
0
 62
     0
 10
122.003
 20
1.33532
 30
0.0
 11
122.601
 21
1.70326
 31
0.0
  0
LINE
  8
0
 62
     0
 10
122.601
 20
1.70326
 30
0.0
 11
123.317
 21
1.83692
 31
0.0
  0
LINE
  8
0
 62
     0
 10
123.317
 20
1.83692
 30
0.0
 11
124.029
 21
1.70326
 31
0.0
  0
LINE
  8
0
 62
     0
 10
124.029
 20
1.70326
 30
0.0
 11
124.624
 21
1.33532
 31
0.0
  0
LINE
  8
0
 62
     0
 10
124.624
 20
1.33532
 30
0.0
 11
125.053
 21
0.784105
 31
0.0
  0
LINE
  8
0
 62
     0
 10
125.053
 20
0.784105
 30
0.0
 11
125.265
 21
0.0992188
 31
0.0
  0
LINE
  8
0
 62
     0
 10
125.265
 20
0.0992188
 30
0.0
 11
240.042
 21
0.0992188
 31
0.0
  0
LINE
  8
0
 62
     0
 10
240.042
 20
0.0992188
 30
0.0
 11
240.253
 21
0.784105
 31
0.0
  0
LINE
  8
0
 62
     0
 10
240.253
 20
0.784105
 30
0.0
 11
240.681
 21
1.33532
 31
0.0
  0
LINE
  8
0
 62
     0
 10
240.681
 20
1.33532
 30
0.0
 11
241.277
 21
1.70326
 31
0.0
  0
LINE
  8
0
 62
     0
 10
241.277
 20
1.70326
 30
0.0
 11
241.99
 21
1.83692
 31
0.0
  0
LINE
  8
0
 62
     0
 10
241.99
 20
1.83692
 30
0.0
 11
242.705
 21
1.70326
 31
0.0
  0
LINE
  8
0
 62
     0
 10
242.705
 20
1.70326
 30
0.0
 11
243.304
 21
1.33532
 31
0.0
  0
LINE
  8
0
 62
     0
 10
243.304
 20
1.33532
 30
0.0
 11
243.735
 21
0.784105
 31
0.0
  0
LINE
  8
0
 62
     0
 10
243.735
 20
0.784105
 30
0.0
 11
243.949
 21
0.0992188
 31
0.0
  0
LINE
  8
0
 62
     0
 10
243.949
 20
0.0992188
 30
0.0
 11
330.742
 21
0.0992188
 31
0.0
  0
LINE
  8
0
 62
     0
 10
330.742
 20
0.0992188
 30
0.0
 11
330.954
 21
0.784105
 31
0.0
  0
LINE
  8
0
 62
     0
 10
330.954
 20
0.784105
 30
0.0
 11
331.385
 21
1.33532
 31
0.0
  0
LINE
  8
0
 62
     0
 10
331.385
 20
1.33532
 30
0.0
 11
331.983
 21
1.70326
 31
0.0
  0
LINE
  8
0
 62
     0
 10
331.983
 20
1.70326
 30
0.0
 11
332.698
 21
1.83692
 31
0.0
  0
LINE
  8
0
 62
     0
 10
332.698
 20
1.83692
 30
0.0
 11
333.412
 21
1.70326
 31
0.0
  0
LINE
  8
0
 62
     0
 10
333.412
 20
1.70326
 30
0.0
 11
334.008
 21
1.33532
 31
0.0
  0
LINE
  8
0
 62
     0
 10
334.008
 20
1.33532
 30
0.0
 11
334.435
 21
0.784105
 31
0.0
  0
LINE
  8
0
 62
     0
 10
334.435
 20
0.784105
 30
0.0
 11
334.648
 21
0.0992188
 31
0.0
  0
LINE
  8
0
 62
     0
 10
334.648
 20
0.0992188
 30
0.0
 11
353.822
 21
0.0992188
 31
0.0
  0
LINE
  8
0
 62
     0
 10
353.822
 20
0.0992188
 30
0.0
 11
353.981
 21
0.108865
 31
0.0
  0
LINE
  8
0
 62
     0
 10
353.981
 20
0.108865
 30
0.0
 11
354.129
 21
0.12678
 31
0.0
  0
LINE
  8
0
 62
     0
 10
354.129
 20
0.12678
 30
0.0
 11
354.281
 21
0.152962
 31
0.0
  0
LINE
  8
0
 62
     0
 10
354.281
 20
0.152962
 30
0.0
 11
354.429
 21
0.187413
 31
0.0
  0
LINE
  8
0
 62
     0
 10
354.429
 20
0.187413
 30
0.0
 11
354.57
 21
0.241157
 31
0.0
  0
LINE
  8
0
 62
     0
 10
354.57
 20
0.241157
 30
0.0
 11
354.711
 21
0.303168
 31
0.0
  0
LINE
  8
0
 62
     0
 10
354.711
 20
0.303168
 30
0.0
 11
354.845
 21
0.373447
 31
0.0
  0
LINE
  8
0
 62
     0
 10
354.845
 20
0.373447
 30
0.0
 11
354.969
 21
0.451997
 31
0.0
  0
LINE
  8
0
 62
     0
 10
354.969
 20
0.451997
 30
0.0
 11
355.092
 21
0.540191
 31
0.0
  0
LINE
  8
0
 62
     0
 10
355.092
 20
0.540191
 30
0.0
 11
355.198
 21
0.63803
 31
0.0
  0
LINE
  8
0
 62
     0
 10
355.198
 20
0.63803
 30
0.0
 11
355.304
 21
0.744142
 31
0.0
  0
LINE
  8
0
 62
     0
 10
355.304
 20
0.744142
 30
0.0
 11
355.399
 21
0.858516
 31
0.0
  0
LINE
  8
0
 62
     0
 10
355.399
 20
0.858516
 30
0.0
 11
355.48
 21
0.981163
 31
0.0
  0
LINE
  8
0
 62
     0
 10
355.48
 20
0.981163
 30
0.0
 11
355.558
 21
1.10519
 31
0.0
  0
LINE
  8
0
 62
     0
 10
355.558
 20
1.10519
 30
0.0
 11
355.621
 21
1.23748
 31
0.0
  0
LINE
  8
0
 62
     0
 10
355.621
 20
1.23748
 30
0.0
 11
355.674
 21
1.36977
 31
0.0
  0
LINE
  8
0
 62
     0
 10
355.674
 20
1.36977
 30
0.0
 11
355.716
 21
1.51033
 31
0.0
  0
LINE
  8
0
 62
     0
 10
355.716
 20
1.51033
 30
0.0
 11
355.745
 21
1.65227
 31
0.0
  0
LINE
  8
0
 62
     0
 10
355.745
 20
1.65227
 30
0.0
 11
355.762
 21
1.79283
 31
0.0
  0
LINE
  8
0
 62
     0
 10
355.762
 20
1.79283
 30
0.0
 11
355.769
 21
1.93477
 31
0.0
  0
LINE
  8
0
 62
     0
 10
355.769
 20
1.93477
 30
0.0
 11
355.769
 21
12.4823
 31
0.0
  0
LINE
  8
0
 62
     0
 10
355.769
 20
12.4823
 30
0.0
 11
355.096
 21
12.7014
 31
0.0
  0
LINE
  8
0
 62
     0
 10
355.096
 20
12.7014
 30
0.0
 11
354.552
 21
13.1313
 31
0.0
  0
LINE
  8
0
 62
     0
 10
354.552
 20
13.1313
 30
0.0
 11
354.189
 21
13.7239
 31
0.0
  0
LINE
  8
0
 62
     0
 10
354.189
 20
13.7239
 30
0.0
 11
354.058
 21
14.4308
 31
0.0
  0
LINE
  8
0
 62
     0
 10
354.058
 20
14.4308
 30
0.0
 11
354.189
 21
15.1419
 31
0.0
  0
LINE
  8
0
 62
     0
 10
354.189
 20
15.1419
 30
0.0
 11
354.552
 21
15.7372
 31
0.0
  0
LINE
  8
0
 62
     0
 10
354.552
 20
15.7372
 30
0.0
 11
355.096
 21
16.1699
 31
0.0
  0
LINE
  8
0
 62
     0
 10
355.096
 20
16.1699
 30
0.0
 11
355.769
 21
16.389
 31
0.0
  0
LINE
  8
0
 62
     0
 10
355.769
 20
16.389
 30
0.0
 11
355.769
 21
121.535
 31
0.0
  0
LINE
  8
0
 62
     0
 10
355.769
 20
121.535
 30
0.0
 11
355.092
 21
121.752
 31
0.0
  0
LINE
  8
0
 62
     0
 10
355.092
 20
121.752
 30
0.0
 11
354.549
 21
122.181
 31
0.0
  0
LINE
  8
0
 62
     0
 10
354.549
 20
122.181
 30
0.0
 11
354.182
 21
122.775
 31
0.0
  0
LINE
  8
0
 62
     0
 10
354.182
 20
122.775
 30
0.0
 11
354.051
 21
123.483
 31
0.0
  0
LINE
  8
0
 62
     0
 10
354.051
 20
123.483
 30
0.0
 11
354.182
 21
124.196
 31
0.0
  0
LINE
  8
0
 62
     0
 10
354.182
 20
124.196
 30
0.0
 11
354.549
 21
124.792
 31
0.0
  0
LINE
  8
0
 62
     0
 10
354.549
 20
124.792
 30
0.0
 11
355.092
 21
125.224
 31
0.0
  0
LINE
  8
0
 62
     0
 10
355.092
 20
125.224
 30
0.0
 11
355.769
 21
125.441
 31
0.0
  0
LINE
  8
0
 62
     0
 10
355.769
 20
125.441
 30
0.0
 11
355.769
 21
135.099
 31
0.0
  0
LINE
  8
0
 62
     0
 10
355.769
 20
135.099
 30
0.0
 11
355.762
 21
135.241
 31
0.0
  0
LINE
  8
0
 62
     0
 10
355.762
 20
135.241
 30
0.0
 11
355.745
 21
135.381
 31
0.0
  0
LINE
  8
0
 62
     0
 10
355.745
 20
135.381
 30
0.0
 11
355.716
 21
135.522
 31
0.0
  0
LINE
  8
0
 62
     0
 10
355.716
 20
135.522
 30
0.0
 11
355.674
 21
135.664
 31
0.0
  0
LINE
  8
0
 62
     0
 10
355.674
 20
135.664
 30
0.0
 11
355.621
 21
135.804
 31
0.0
  0
LINE
  8
0
 62
     0
 10
355.621
 20
135.804
 30
0.0
 11
355.558
 21
135.928
 31
0.0
  0
LINE
  8
0
 62
     0
 10
355.558
 20
135.928
 30
0.0
 11
355.48
 21
136.061
 31
0.0
  0
LINE
  8
0
 62
     0
 10
355.48
 20
136.061
 30
0.0
 11
355.399
 21
136.175
 31
0.0
  0
LINE
  8
0
 62
     0
 10
355.399
 20
136.175
 30
0.0
 11
355.304
 21
136.289
 31
0.0
  0
LINE
  8
0
 62
     0
 10
355.304
 20
136.289
 30
0.0
 11
355.198
 21
136.396
 31
0.0
  0
LINE
  8
0
 62
     0
 10
355.198
 20
136.396
 30
0.0
 11
355.092
 21
136.492
 31
0.0
  0
LINE
  8
0
 62
     0
 10
355.092
 20
136.492
 30
0.0
 11
354.969
 21
136.59
 31
0.0
  0
LINE
  8
0
 62
     0
 10
354.969
 20
136.59
 30
0.0
 11
354.845
 21
136.668
 31
0.0
  0
LINE
  8
0
 62
     0
 10
354.845
 20
136.668
 30
0.0
 11
354.711
 21
136.74
 31
0.0
  0
LINE
  8
0
 62
     0
 10
354.711
 20
136.74
 30
0.0
 11
354.57
 21
136.792
 31
0.0
  0
LINE
  8
0
 62
     0
 10
354.57
 20
136.792
 30
0.0
 11
354.429
 21
136.845
 31
0.0
  0
LINE
  8
0
 62
     0
 10
354.429
 20
136.845
 30
0.0
 11
354.129
 21
136.916
 31
0.0
  0
LINE
  8
0
 62
     0
 10
354.129
 20
136.916
 30
0.0
 11
353.981
 21
136.933
 31
0.0
  0
LINE
  8
0
 62
     0
 10
353.981
 20
136.933
 30
0.0
 11
334.648
 21
136.933
 31
0.0
  0
LINE
  8
0
 62
     0
 10
334.648
 20
136.933
 30
0.0
 11
334.426
 21
136.266
 31
0.0
  0
LINE
  8
0
 62
     0
 10
334.426
 20
136.266
 30
0.0
 11
333.995
 21
135.728
 31
0.0
  0
LINE
  8
0
 62
     0
 10
333.995
 20
135.728
 30
0.0
 11
333.403
 21
135.371
 31
0.0
  0
LINE
  8
0
 62
     0
 10
333.403
 20
135.371
 30
0.0
 11
332.698
 21
135.241
 31
0.0
  0
LINE
  8
0
 62
     0
 10
332.698
 20
135.241
 30
0.0
 11
331.991
 21
135.371
 31
0.0
  0
LINE
  8
0
 62
     0
 10
331.991
 20
135.371
 30
0.0
 11
331.398
 21
135.728
 31
0.0
  0
LINE
  8
0
 62
     0
 10
331.398
 20
135.728
 30
0.0
 11
330.963
 21
136.266
 31
0.0
  0
LINE
  8
0
 62
     0
 10
330.963
 20
136.266
 30
0.0
 11
330.742
 21
136.933
 31
0.0
  0
LINE
  8
0
 62
     0
 10
330.742
 20
136.933
 30
0.0
 11
272.665
 21
136.933
 31
0.0
  0
LINE
  8
0
 62
     0
 10
272.665
 20
136.933
 30
0.0
 11
272.444
 21
136.265
 31
0.0
  0
LINE
  8
0
 62
     0
 10
272.444
 20
136.265
 30
0.0
 11
272.014
 21
135.727
 31
0.0
  0
LINE
  8
0
 62
     0
 10
272.014
 20
135.727
 30
0.0
 11
271.421
 21
135.37
 31
0.0
  0
LINE
  8
0
 62
     0
 10
271.421
 20
135.37
 30
0.0
 11
270.716
 21
135.241
 31
0.0
  0
LINE
  8
0
 62
     0
 10
270.716
 20
135.241
 30
0.0
 11
270.007
 21
135.37
 31
0.0
  0
LINE
  8
0
 62
     0
 10
270.007
 20
135.37
 30
0.0
 11
269.412
 21
135.727
 31
0.0
  0
LINE
  8
0
 62
     0
 10
269.412
 20
135.727
 30
0.0
 11
268.979
 21
136.265
 31
0.0
  0
LINE
  8
0
 62
     0
 10
268.979
 20
136.265
 30
0.0
 11
268.757
 21
136.933
 31
0.0
  0
LINE
  8
0
 62
     0
 10
268.757
 20
136.933
 30
0.0
 11
125.275
 21
136.933
 31
0.0
  0
LINE
  8
0
 62
     0
 10
125.275
 20
136.933
 30
0.0
 11
125.053
 21
136.263
 31
0.0
  0
LINE
  8
0
 62
     0
 10
125.053
 20
136.263
 30
0.0
 11
124.623
 21
135.723
 31
0.0
  0
LINE
  8
0
 62
     0
 10
124.623
 20
135.723
 30
0.0
 11
124.03
 21
135.363
 31
0.0
  0
LINE
  8
0
 62
     0
 10
124.03
 20
135.363
 30
0.0
 11
123.325
 21
135.231
 31
0.0
  0
LINE
  8
0
 62
     0
 10
123.325
 20
135.231
 30
0.0
 11
122.616
 21
135.362
 31
0.0
  0
LINE
  8
0
 62
     0
 10
122.616
 20
135.362
 30
0.0
 11
122.021
 21
135.723
 31
0.0
  0
LINE
  8
0
 62
     0
 10
122.021
 20
135.723
 30
0.0
 11
121.588
 21
136.262
 31
0.0
  0
LINE
  8
0
 62
     0
 10
121.588
 20
136.262
 30
0.0
 11
121.368
 21
136.933
 31
0.0
  0
LINE
  8
0
 62
     0
 10
121.368
 20
136.933
 30
0.0
 11
25.1037
 21
136.933
 31
0.0
  0
LINE
  8
0
 62
     0
 10
25.1037
 20
136.933
 30
0.0
 11
24.8833
 21
136.259
 31
0.0
  0
LINE
  8
0
 62
     0
 10
24.8833
 20
136.259
 30
0.0
 11
24.4505
 21
135.716
 31
0.0
  0
LINE
  8
0
 62
     0
 10
24.4505
 20
135.716
 30
0.0
 11
23.8538
 21
135.355
 31
0.0
  0
LINE
  8
0
 62
     0
 10
23.8538
 20
135.355
 30
0.0
 11
23.1455
 21
135.223
 31
0.0
  0
LINE
  8
0
 62
     0
 10
23.1455
 20
135.223
 30
0.0
 11
22.4359
 21
135.355
 31
0.0
  0
LINE
  8
0
 62
     0
 10
22.4359
 20
135.355
 30
0.0
 11
21.8433
 21
135.717
 31
0.0
  0
LINE
  8
0
 62
     0
 10
21.8433
 20
135.717
 30
0.0
 11
21.4133
 21
136.26
 31
0.0
  0
LINE
  8
0
 62
     0
 10
21.4133
 20
136.26
 30
0.0
 11
21.1956
 21
136.933
 31
0.0
  0
LINE
  8
0
 62
     0
 10
21.1956
 20
136.933
 30
0.0
 11
1.89067
 21
136.933
 31
0.0
  0
LINE
  8
0
 62
     0
 10
77.41
 20
6.58428
 30
0.0
 11
77.319
 21
6.13777
 31
0.0
  0
LINE
  8
0
 62
     0
 10
77.319
 20
6.13777
 30
0.0
 11
77.0724
 21
5.77123
 31
0.0
  0
LINE
  8
0
 62
     0
 10
77.0724
 20
5.77123
 30
0.0
 11
76.7069
 21
5.52457
 31
0.0
  0
LINE
  8
0
 62
     0
 10
76.7069
 20
5.52457
 30
0.0
 11
76.2607
 21
5.43359
 31
0.0
  0
LINE
  8
0
 62
     0
 10
76.2607
 20
5.43359
 30
0.0
 11
75.8126
 21
5.52457
 31
0.0
  0
LINE
  8
0
 62
     0
 10
75.8126
 20
5.52457
 30
0.0
 11
75.4461
 21
5.77123
 31
0.0
  0
LINE
  8
0
 62
     0
 10
75.4461
 20
5.77123
 30
0.0
 11
75.1995
 21
6.13777
 31
0.0
  0
LINE
  8
0
 62
     0
 10
75.1995
 20
6.13777
 30
0.0
 11
75.1099
 21
6.58428
 31
0.0
  0
LINE
  8
0
 62
     0
 10
75.1099
 20
6.58428
 30
0.0
 11
75.1995
 21
7.03213
 31
0.0
  0
LINE
  8
0
 62
     0
 10
75.1995
 20
7.03213
 30
0.0
 11
75.4461
 21
7.39733
 31
0.0
  0
LINE
  8
0
 62
     0
 10
75.4461
 20
7.39733
 30
0.0
 11
75.8126
 21
7.64399
 31
0.0
  0
LINE
  8
0
 62
     0
 10
75.8126
 20
7.64399
 30
0.0
 11
76.2607
 21
7.73356
 31
0.0
  0
LINE
  8
0
 62
     0
 10
76.2607
 20
7.73356
 30
0.0
 11
76.7069
 21
7.64399
 31
0.0
  0
LINE
  8
0
 62
     0
 10
76.7069
 20
7.64399
 30
0.0
 11
77.0724
 21
7.39733
 31
0.0
  0
LINE
  8
0
 62
     0
 10
77.0724
 20
7.39733
 30
0.0
 11
77.319
 21
7.03213
 31
0.0
  0
LINE
  8
0
 62
     0
 10
77.319
 20
7.03213
 30
0.0
 11
77.41
 21
6.58428
 31
0.0
  0
LINE
  8
0
 62
     0
 10
77.41
 20
130.449
 30
0.0
 11
77.319
 21
130.003
 31
0.0
  0
LINE
  8
0
 62
     0
 10
77.319
 20
130.003
 30
0.0
 11
77.0724
 21
129.636
 31
0.0
  0
LINE
  8
0
 62
     0
 10
77.0724
 20
129.636
 30
0.0
 11
76.7069
 21
129.389
 31
0.0
  0
LINE
  8
0
 62
     0
 10
76.7069
 20
129.389
 30
0.0
 11
76.2607
 21
129.299
 31
0.0
  0
LINE
  8
0
 62
     0
 10
76.2607
 20
129.299
 30
0.0
 11
75.8126
 21
129.389
 31
0.0
  0
LINE
  8
0
 62
     0
 10
75.8126
 20
129.389
 30
0.0
 11
75.4461
 21
129.636
 31
0.0
  0
LINE
  8
0
 62
     0
 10
75.4461
 20
129.636
 30
0.0
 11
75.1995
 21
130.003
 31
0.0
  0
LINE
  8
0
 62
     0
 10
75.1995
 20
130.003
 30
0.0
 11
75.1099
 21
130.449
 31
0.0
  0
LINE
  8
0
 62
     0
 10
75.1099
 20
130.449
 30
0.0
 11
75.1995
 21
130.897
 31
0.0
  0
LINE
  8
0
 62
     0
 10
75.1995
 20
130.897
 30
0.0
 11
75.4461
 21
131.262
 31
0.0
  0
LINE
  8
0
 62
     0
 10
75.4461
 20
131.262
 30
0.0
 11
75.8126
 21
131.509
 31
0.0
  0
LINE
  8
0
 62
     0
 10
75.8126
 20
131.509
 30
0.0
 11
76.2607
 21
131.598
 31
0.0
  0
LINE
  8
0
 62
     0
 10
76.2607
 20
131.598
 30
0.0
 11
76.7069
 21
131.509
 31
0.0
  0
LINE
  8
0
 62
     0
 10
76.7069
 20
131.509
 30
0.0
 11
77.0724
 21
131.262
 31
0.0
  0
LINE
  8
0
 62
     0
 10
77.0724
 20
131.262
 30
0.0
 11
77.319
 21
130.897
 31
0.0
  0
LINE
  8
0
 62
     0
 10
77.319
 20
130.897
 30
0.0
 11
77.41
 21
130.449
 31
0.0
  0
LINE
  8
0
 62
     0
 10
266.744
 20
6.5829
 30
0.0
 11
266.653
 21
6.13639
 31
0.0
  0
LINE
  8
0
 62
     0
 10
266.653
 20
6.13639
 30
0.0
 11
266.407
 21
5.76986
 31
0.0
  0
LINE
  8
0
 62
     0
 10
266.407
 20
5.76986
 30
0.0
 11
266.041
 21
5.52319
 31
0.0
  0
LINE
  8
0
 62
     0
 10
266.041
 20
5.52319
 30
0.0
 11
265.595
 21
5.43221
 31
0.0
  0
LINE
  8
0
 62
     0
 10
265.595
 20
5.43221
 30
0.0
 11
265.147
 21
5.52319
 31
0.0
  0
LINE
  8
0
 62
     0
 10
265.147
 20
5.52319
 30
0.0
 11
264.781
 21
5.76986
 31
0.0
  0
LINE
  8
0
 62
     0
 10
264.781
 20
5.76986
 30
0.0
 11
264.534
 21
6.13639
 31
0.0
  0
LINE
  8
0
 62
     0
 10
264.534
 20
6.13639
 30
0.0
 11
264.444
 21
6.5829
 31
0.0
  0
LINE
  8
0
 62
     0
 10
264.444
 20
6.5829
 30
0.0
 11
264.534
 21
7.03076
 31
0.0
  0
LINE
  8
0
 62
     0
 10
264.534
 20
7.03076
 30
0.0
 11
264.781
 21
7.39592
 31
0.0
  0
LINE
  8
0
 62
     0
 10
264.781
 20
7.39592
 30
0.0
 11
265.147
 21
7.64261
 31
0.0
  0
LINE
  8
0
 62
     0
 10
265.147
 20
7.64261
 30
0.0
 11
265.595
 21
7.73218
 31
0.0
  0
LINE
  8
0
 62
     0
 10
265.595
 20
7.73218
 30
0.0
 11
266.041
 21
7.64261
 31
0.0
  0
LINE
  8
0
 62
     0
 10
266.041
 20
7.64261
 30
0.0
 11
266.407
 21
7.39592
 31
0.0
  0
LINE
  8
0
 62
     0
 10
266.407
 20
7.39592
 30
0.0
 11
266.653
 21
7.03076
 31
0.0
  0
LINE
  8
0
 62
     0
 10
266.653
 20
7.03076
 30
0.0
 11
266.744
 21
6.5829
 31
0.0
  0
LINE
  8
0
 62
     0
 10
266.746
 20
130.447
 30
0.0
 11
266.654
 21
130
 31
0.0
  0
LINE
  8
0
 62
     0
 10
266.654
 20
130
 30
0.0
 11
266.408
 21
129.635
 31
0.0
  0
LINE
  8
0
 62
     0
 10
266.408
 20
129.635
 30
0.0
 11
266.041
 21
129.388
 31
0.0
  0
LINE
  8
0
 62
     0
 10
266.041
 20
129.388
 30
0.0
 11
265.595
 21
129.297
 31
0.0
  0
LINE
  8
0
 62
     0
 10
265.595
 20
129.297
 30
0.0
 11
265.147
 21
129.388
 31
0.0
  0
LINE
  8
0
 62
     0
 10
265.147
 20
129.388
 30
0.0
 11
264.782
 21
129.635
 31
0.0
  0
LINE
  8
0
 62
     0
 10
264.782
 20
129.635
 30
0.0
 11
264.535
 21
130
 31
0.0
  0
LINE
  8
0
 62
     0
 10
264.535
 20
130
 30
0.0
 11
264.445
 21
130.447
 31
0.0
  0
LINE
  8
0
 62
     0
 10
264.445
 20
130.447
 30
0.0
 11
264.535
 21
130.894
 31
0.0
  0
LINE
  8
0
 62
     0
 10
264.535
 20
130.894
 30
0.0
 11
264.782
 21
131.261
 31
0.0
  0
LINE
  8
0
 62
     0
 10
264.782
 20
131.261
 30
0.0
 11
265.147
 21
131.507
 31
0.0
  0
LINE
  8
0
 62
     0
 10
265.147
 20
131.507
 30
0.0
 11
265.595
 21
131.597
 31
0.0
  0
LINE
  8
0
 62
     0
 10
265.595
 20
131.597
 30
0.0
 11
266.041
 21
131.507
 31
0.0
  0
LINE
  8
0
 62
     0
 10
266.041
 20
131.507
 30
0.0
 11
266.408
 21
131.261
 31
0.0
  0
LINE
  8
0
 62
     0
 10
266.408
 20
131.261
 30
0.0
 11
266.654
 21
130.894
 31
0.0
  0
LINE
  8
0
 62
     0
 10
266.654
 20
130.894
 30
0.0
 11
266.746
 21
130.447
 31
0.0
  0
LINE
  8
0
 62
     0
 10
188.396
 20
19.6591
 30
0.0
 11
186.72
 21
19.6591
 31
0.0
  0
LINE
  8
0
 62
     0
 10
186.72
 20
19.6591
 30
0.0
 11
186.72
 21
20.5796
 31
0.0
  0
LINE
  8
0
 62
     0
 10
186.72
 20
20.5796
 30
0.0
 11
183.421
 21
20.5796
 31
0.0
  0
LINE
  8
0
 62
     0
 10
183.421
 20
20.5796
 30
0.0
 11
183.421
 21
19.6591
 31
0.0
  0
LINE
  8
0
 62
     0
 10
183.421
 20
19.6591
 30
0.0
 11
181.745
 21
19.6591
 31
0.0
  0
LINE
  8
0
 62
     0
 10
181.745
 20
19.6591
 30
0.0
 11
181.745
 21
16.429
 31
0.0
  0
LINE
  8
0
 62
     0
 10
181.745
 20
16.429
 30
0.0
 11
142.07
 21
16.429
 31
0.0
  0
LINE
  8
0
 62
     0
 10
142.07
 20
16.429
 30
0.0
 11
142.07
 21
17.0298
 31
0.0
  0
LINE
  8
0
 62
     0
 10
142.07
 20
17.0298
 30
0.0
 11
142.871
 21
17.0298
 31
0.0
  0
LINE
  8
0
 62
     0
 10
142.871
 20
17.0298
 30
0.0
 11
142.871
 21
20.129
 31
0.0
  0
LINE
  8
0
 62
     0
 10
142.871
 20
20.129
 30
0.0
 11
142.07
 21
20.129
 31
0.0
  0
LINE
  8
0
 62
     0
 10
142.07
 20
20.129
 30
0.0
 11
142.07
 21
21.1294
 31
0.0
  0
LINE
  8
0
 62
     0
 10
142.07
 20
21.1294
 30
0.0
 11
128.071
 21
21.1294
 31
0.0
  0
LINE
  8
0
 62
     0
 10
128.071
 20
21.1294
 30
0.0
 11
128.071
 21
20.129
 31
0.0
  0
LINE
  8
0
 62
     0
 10
128.071
 20
20.129
 30
0.0
 11
127.27
 21
20.129
 31
0.0
  0
LINE
  8
0
 62
     0
 10
127.27
 20
20.129
 30
0.0
 11
127.27
 21
17.0298
 31
0.0
  0
LINE
  8
0
 62
     0
 10
127.27
 20
17.0298
 30
0.0
 11
128.071
 21
17.0298
 31
0.0
  0
LINE
  8
0
 62
     0
 10
128.071
 20
17.0298
 30
0.0
 11
128.071
 21
16.429
 31
0.0
  0
LINE
  8
0
 62
     0
 10
128.071
 20
16.429
 30
0.0
 11
88.3955
 21
16.429
 31
0.0
  0
LINE
  8
0
 62
     0
 10
88.3955
 20
16.429
 30
0.0
 11
88.3955
 21
19.6591
 31
0.0
  0
LINE
  8
0
 62
     0
 10
88.3955
 20
19.6591
 30
0.0
 11
86.7198
 21
19.6591
 31
0.0
  0
LINE
  8
0
 62
     0
 10
86.7198
 20
19.6591
 30
0.0
 11
86.7198
 21
20.5796
 31
0.0
  0
LINE
  8
0
 62
     0
 10
86.7198
 20
20.5796
 30
0.0
 11
83.421
 21
20.5796
 31
0.0
  0
LINE
  8
0
 62
     0
 10
83.421
 20
20.5796
 30
0.0
 11
83.421
 21
19.6591
 31
0.0
  0
LINE
  8
0
 62
     0
 10
83.421
 20
19.6591
 30
0.0
 11
81.7453
 21
19.6591
 31
0.0
  0
LINE
  8
0
 62
     0
 10
81.7453
 20
19.6591
 30
0.0
 11
81.7453
 21
16.429
 31
0.0
  0
LINE
  8
0
 62
     0
 10
81.7453
 20
16.429
 30
0.0
 11
80.8701
 21
16.429
 31
0.0
  0
LINE
  8
0
 62
     0
 10
80.8701
 20
16.429
 30
0.0
 11
80.8701
 21
13.6302
 31
0.0
  0
LINE
  8
0
 62
     0
 10
80.8701
 20
13.6302
 30
0.0
 11
81.7453
 21
13.6302
 31
0.0
  0
LINE
  8
0
 62
     0
 10
81.7453
 20
13.6302
 30
0.0
 11
81.7453
 21
7.36011
 31
0.0
  0
LINE
  8
0
 62
     0
 10
81.7453
 20
7.36011
 30
0.0
 11
83.421
 21
7.36011
 31
0.0
  0
LINE
  8
0
 62
     0
 10
83.421
 20
7.36011
 30
0.0
 11
83.421
 21
6.37893
 31
0.0
  0
LINE
  8
0
 62
     0
 10
83.421
 20
6.37893
 30
0.0
 11
86.7198
 21
6.37893
 31
0.0
  0
LINE
  8
0
 62
     0
 10
86.7198
 20
6.37893
 30
0.0
 11
86.7198
 21
7.36011
 31
0.0
  0
LINE
  8
0
 62
     0
 10
86.7198
 20
7.36011
 30
0.0
 11
88.3955
 21
7.36011
 31
0.0
  0
LINE
  8
0
 62
     0
 10
88.3955
 20
7.36011
 30
0.0
 11
88.3955
 21
11.8291
 31
0.0
  0
LINE
  8
0
 62
     0
 10
88.3955
 20
11.8291
 30
0.0
 11
128.071
 21
11.8291
 31
0.0
  0
LINE
  8
0
 62
     0
 10
128.071
 20
11.8291
 30
0.0
 11
128.071
 21
11.2296
 31
0.0
  0
LINE
  8
0
 62
     0
 10
128.071
 20
11.2296
 30
0.0
 11
127.27
 21
11.2296
 31
0.0
  0
LINE
  8
0
 62
     0
 10
127.27
 20
11.2296
 30
0.0
 11
127.27
 21
8.12906
 31
0.0
  0
LINE
  8
0
 62
     0
 10
127.27
 20
8.12906
 30
0.0
 11
128.071
 21
8.12906
 31
0.0
  0
LINE
  8
0
 62
     0
 10
128.071
 20
8.12906
 30
0.0
 11
128.071
 21
7.12996
 31
0.0
  0
LINE
  8
0
 62
     0
 10
128.071
 20
7.12996
 30
0.0
 11
142.07
 21
7.12996
 31
0.0
  0
LINE
  8
0
 62
     0
 10
142.07
 20
7.12996
 30
0.0
 11
142.07
 21
8.12906
 31
0.0
  0
LINE
  8
0
 62
     0
 10
142.07
 20
8.12906
 30
0.0
 11
142.871
 21
8.12906
 31
0.0
  0
LINE
  8
0
 62
     0
 10
142.871
 20
8.12906
 30
0.0
 11
142.871
 21
11.2296
 31
0.0
  0
LINE
  8
0
 62
     0
 10
142.871
 20
11.2296
 30
0.0
 11
142.07
 21
11.2296
 31
0.0
  0
LINE
  8
0
 62
     0
 10
142.07
 20
11.2296
 30
0.0
 11
142.07
 21
11.8291
 31
0.0
  0
LINE
  8
0
 62
     0
 10
142.07
 20
11.8291
 30
0.0
 11
181.745
 21
11.8291
 31
0.0
  0
LINE
  8
0
 62
     0
 10
181.745
 20
11.8291
 30
0.0
 11
181.745
 21
7.36011
 31
0.0
  0
LINE
  8
0
 62
     0
 10
181.745
 20
7.36011
 30
0.0
 11
183.421
 21
7.36011
 31
0.0
  0
LINE
  8
0
 62
     0
 10
183.421
 20
7.36011
 30
0.0
 11
183.421
 21
6.37893
 31
0.0
  0
LINE
  8
0
 62
     0
 10
183.421
 20
6.37893
 30
0.0
 11
186.72
 21
6.37893
 31
0.0
  0
LINE
  8
0
 62
     0
 10
186.72
 20
6.37893
 30
0.0
 11
186.72
 21
7.36011
 31
0.0
  0
LINE
  8
0
 62
     0
 10
186.72
 20
7.36011
 30
0.0
 11
188.396
 21
7.36011
 31
0.0
  0
LINE
  8
0
 62
     0
 10
188.396
 20
7.36011
 30
0.0
 11
188.396
 21
13.6302
 31
0.0
  0
LINE
  8
0
 62
     0
 10
188.396
 20
13.6302
 30
0.0
 11
189.271
 21
13.6302
 31
0.0
  0
LINE
  8
0
 62
     0
 10
189.271
 20
13.6302
 30
0.0
 11
189.271
 21
16.429
 31
0.0
  0
LINE
  8
0
 62
     0
 10
189.271
 20
16.429
 30
0.0
 11
188.396
 21
16.429
 31
0.0
  0
LINE
  8
0
 62
     0
 10
188.396
 20
16.429
 30
0.0
 11
188.396
 21
19.6591
 31
0.0
  0
LINE
  8
0
 62
     0
 10
8.20896
 20
8.12906
 30
0.0
 11
9.00825
 21
8.12906
 31
0.0
  0
LINE
  8
0
 62
     0
 10
9.00825
 20
8.12906
 30
0.0
 11
9.00825
 21
7.12996
 31
0.0
  0
LINE
  8
0
 62
     0
 10
9.00825
 20
7.12996
 30
0.0
 11
23.0091
 21
7.12996
 31
0.0
  0
LINE
  8
0
 62
     0
 10
23.0091
 20
7.12996
 30
0.0
 11
23.0091
 21
8.12906
 31
0.0
  0
LINE
  8
0
 62
     0
 10
23.0091
 20
8.12906
 30
0.0
 11
23.8084
 21
8.12906
 31
0.0
  0
LINE
  8
0
 62
     0
 10
23.8084
 20
8.12906
 30
0.0
 11
23.8084
 21
11.2296
 31
0.0
  0
LINE
  8
0
 62
     0
 10
23.8084
 20
11.2296
 30
0.0
 11
23.0091
 21
11.2296
 31
0.0
  0
LINE
  8
0
 62
     0
 10
23.0091
 20
11.2296
 30
0.0
 11
23.0091
 21
17.0298
 31
0.0
  0
LINE
  8
0
 62
     0
 10
23.0091
 20
17.0298
 30
0.0
 11
23.8084
 21
17.0298
 31
0.0
  0
LINE
  8
0
 62
     0
 10
23.8084
 20
17.0298
 30
0.0
 11
23.8084
 21
20.129
 31
0.0
  0
LINE
  8
0
 62
     0
 10
23.8084
 20
20.129
 30
0.0
 11
23.0091
 21
20.129
 31
0.0
  0
LINE
  8
0
 62
     0
 10
23.0091
 20
20.129
 30
0.0
 11
23.0091
 21
21.1294
 31
0.0
  0
LINE
  8
0
 62
     0
 10
23.0091
 20
21.1294
 30
0.0
 11
9.00825
 21
21.1294
 31
0.0
  0
LINE
  8
0
 62
     0
 10
9.00825
 20
21.1294
 30
0.0
 11
9.00825
 21
20.129
 31
0.0
  0
LINE
  8
0
 62
     0
 10
9.00825
 20
20.129
 30
0.0
 11
8.20896
 21
20.129
 31
0.0
  0
LINE
  8
0
 62
     0
 10
8.20896
 20
20.129
 30
0.0
 11
8.20896
 21
17.0298
 31
0.0
  0
LINE
  8
0
 62
     0
 10
8.20896
 20
17.0298
 30
0.0
 11
9.00825
 21
17.0298
 31
0.0
  0
LINE
  8
0
 62
     0
 10
9.00825
 20
17.0298
 30
0.0
 11
9.00825
 21
11.2296
 31
0.0
  0
LINE
  8
0
 62
     0
 10
9.00825
 20
11.2296
 30
0.0
 11
8.20896
 21
11.2296
 31
0.0
  0
LINE
  8
0
 62
     0
 10
8.20896
 20
11.2296
 30
0.0
 11
8.20896
 21
8.12906
 31
0.0
  0
LINE
  8
0
 62
     0
 10
32.0201
 20
8.12906
 30
0.0
 11
32.8208
 21
8.12906
 31
0.0
  0
LINE
  8
0
 62
     0
 10
32.8208
 20
8.12906
 30
0.0
 11
32.8208
 21
7.12996
 31
0.0
  0
LINE
  8
0
 62
     0
 10
32.8208
 20
7.12996
 30
0.0
 11
46.8203
 21
7.12996
 31
0.0
  0
LINE
  8
0
 62
     0
 10
46.8203
 20
7.12996
 30
0.0
 11
46.8203
 21
8.12906
 31
0.0
  0
LINE
  8
0
 62
     0
 10
46.8203
 20
8.12906
 30
0.0
 11
47.6208
 21
8.12906
 31
0.0
  0
LINE
  8
0
 62
     0
 10
47.6208
 20
8.12906
 30
0.0
 11
47.6208
 21
11.2296
 31
0.0
  0
LINE
  8
0
 62
     0
 10
47.6208
 20
11.2296
 30
0.0
 11
46.8203
 21
11.2296
 31
0.0
  0
LINE
  8
0
 62
     0
 10
46.8203
 20
11.2296
 30
0.0
 11
46.8203
 21
17.0298
 31
0.0
  0
LINE
  8
0
 62
     0
 10
46.8203
 20
17.0298
 30
0.0
 11
47.6208
 21
17.0298
 31
0.0
  0
LINE
  8
0
 62
     0
 10
47.6208
 20
17.0298
 30
0.0
 11
47.6208
 21
20.129
 31
0.0
  0
LINE
  8
0
 62
     0
 10
47.6208
 20
20.129
 30
0.0
 11
46.8203
 21
20.129
 31
0.0
  0
LINE
  8
0
 62
     0
 10
46.8203
 20
20.129
 30
0.0
 11
46.8203
 21
21.1294
 31
0.0
  0
LINE
  8
0
 62
     0
 10
46.8203
 20
21.1294
 30
0.0
 11
32.8208
 21
21.1294
 31
0.0
  0
LINE
  8
0
 62
     0
 10
32.8208
 20
21.1294
 30
0.0
 11
32.8208
 21
20.129
 31
0.0
  0
LINE
  8
0
 62
     0
 10
32.8208
 20
20.129
 30
0.0
 11
32.0201
 21
20.129
 31
0.0
  0
LINE
  8
0
 62
     0
 10
32.0201
 20
20.129
 30
0.0
 11
32.0201
 21
17.0298
 31
0.0
  0
LINE
  8
0
 62
     0
 10
32.0201
 20
17.0298
 30
0.0
 11
32.8208
 21
17.0298
 31
0.0
  0
LINE
  8
0
 62
     0
 10
32.8208
 20
17.0298
 30
0.0
 11
32.8208
 21
11.2296
 31
0.0
  0
LINE
  8
0
 62
     0
 10
32.8208
 20
11.2296
 30
0.0
 11
32.0201
 21
11.2296
 31
0.0
  0
LINE
  8
0
 62
     0
 10
32.0201
 20
11.2296
 30
0.0
 11
32.0201
 21
8.12906
 31
0.0
  0
LINE
  8
0
 62
     0
 10
55.8341
 20
8.12906
 30
0.0
 11
56.6332
 21
8.12906
 31
0.0
  0
LINE
  8
0
 62
     0
 10
56.6332
 20
8.12906
 30
0.0
 11
56.6332
 21
7.12996
 31
0.0
  0
LINE
  8
0
 62
     0
 10
56.6332
 20
7.12996
 30
0.0
 11
70.6342
 21
7.12996
 31
0.0
  0
LINE
  8
0
 62
     0
 10
70.6342
 20
7.12996
 30
0.0
 11
70.6342
 21
8.12906
 31
0.0
  0
LINE
  8
0
 62
     0
 10
70.6342
 20
8.12906
 30
0.0
 11
71.4333
 21
8.12906
 31
0.0
  0
LINE
  8
0
 62
     0
 10
71.4333
 20
8.12906
 30
0.0
 11
71.4333
 21
11.2296
 31
0.0
  0
LINE
  8
0
 62
     0
 10
71.4333
 20
11.2296
 30
0.0
 11
70.6342
 21
11.2296
 31
0.0
  0
LINE
  8
0
 62
     0
 10
70.6342
 20
11.2296
 30
0.0
 11
70.6342
 21
17.0298
 31
0.0
  0
LINE
  8
0
 62
     0
 10
70.6342
 20
17.0298
 30
0.0
 11
71.4333
 21
17.0298
 31
0.0
  0
LINE
  8
0
 62
     0
 10
71.4333
 20
17.0298
 30
0.0
 11
71.4333
 21
20.129
 31
0.0
  0
LINE
  8
0
 62
     0
 10
71.4333
 20
20.129
 30
0.0
 11
70.6342
 21
20.129
 31
0.0
  0
LINE
  8
0
 62
     0
 10
70.6342
 20
20.129
 30
0.0
 11
70.6342
 21
21.1294
 31
0.0
  0
LINE
  8
0
 62
     0
 10
70.6342
 20
21.1294
 30
0.0
 11
56.6332
 21
21.1294
 31
0.0
  0
LINE
  8
0
 62
     0
 10
56.6332
 20
21.1294
 30
0.0
 11
56.6332
 21
20.129
 31
0.0
  0
LINE
  8
0
 62
     0
 10
56.6332
 20
20.129
 30
0.0
 11
55.8341
 21
20.129
 31
0.0
  0
LINE
  8
0
 62
     0
 10
55.8341
 20
20.129
 30
0.0
 11
55.8341
 21
17.0298
 31
0.0
  0
LINE
  8
0
 62
     0
 10
55.8341
 20
17.0298
 30
0.0
 11
56.6332
 21
17.0298
 31
0.0
  0
LINE
  8
0
 62
     0
 10
56.6332
 20
17.0298
 30
0.0
 11
56.6332
 21
11.2296
 31
0.0
  0
LINE
  8
0
 62
     0
 10
56.6332
 20
11.2296
 30
0.0
 11
55.8341
 21
11.2296
 31
0.0
  0
LINE
  8
0
 62
     0
 10
55.8341
 20
11.2296
 30
0.0
 11
55.8341
 21
8.12906
 31
0.0
  0
LINE
  8
0
 62
     0
 10
198.709
 20
8.12906
 30
0.0
 11
199.508
 21
8.12906
 31
0.0
  0
LINE
  8
0
 62
     0
 10
199.508
 20
8.12906
 30
0.0
 11
199.508
 21
7.12996
 31
0.0
  0
LINE
  8
0
 62
     0
 10
199.508
 20
7.12996
 30
0.0
 11
213.509
 21
7.12996
 31
0.0
  0
LINE
  8
0
 62
     0
 10
213.509
 20
7.12996
 30
0.0
 11
213.509
 21
8.12906
 31
0.0
  0
LINE
  8
0
 62
     0
 10
213.509
 20
8.12906
 30
0.0
 11
214.308
 21
8.12906
 31
0.0
  0
LINE
  8
0
 62
     0
 10
214.308
 20
8.12906
 30
0.0
 11
214.308
 21
11.2296
 31
0.0
  0
LINE
  8
0
 62
     0
 10
214.308
 20
11.2296
 30
0.0
 11
213.509
 21
11.2296
 31
0.0
  0
LINE
  8
0
 62
     0
 10
213.509
 20
11.2296
 30
0.0
 11
213.509
 21
17.0298
 31
0.0
  0
LINE
  8
0
 62
     0
 10
213.509
 20
17.0298
 30
0.0
 11
214.308
 21
17.0298
 31
0.0
  0
LINE
  8
0
 62
     0
 10
214.308
 20
17.0298
 30
0.0
 11
214.308
 21
20.129
 31
0.0
  0
LINE
  8
0
 62
     0
 10
214.308
 20
20.129
 30
0.0
 11
213.509
 21
20.129
 31
0.0
  0
LINE
  8
0
 62
     0
 10
213.509
 20
20.129
 30
0.0
 11
213.509
 21
21.1294
 31
0.0
  0
LINE
  8
0
 62
     0
 10
213.509
 20
21.1294
 30
0.0
 11
199.508
 21
21.1294
 31
0.0
  0
LINE
  8
0
 62
     0
 10
199.508
 20
21.1294
 30
0.0
 11
199.508
 21
20.129
 31
0.0
  0
LINE
  8
0
 62
     0
 10
199.508
 20
20.129
 30
0.0
 11
198.709
 21
20.129
 31
0.0
  0
LINE
  8
0
 62
     0
 10
198.709
 20
20.129
 30
0.0
 11
198.709
 21
17.0298
 31
0.0
  0
LINE
  8
0
 62
     0
 10
198.709
 20
17.0298
 30
0.0
 11
199.508
 21
17.0298
 31
0.0
  0
LINE
  8
0
 62
     0
 10
199.508
 20
17.0298
 30
0.0
 11
199.508
 21
11.2296
 31
0.0
  0
LINE
  8
0
 62
     0
 10
199.508
 20
11.2296
 30
0.0
 11
198.709
 21
11.2296
 31
0.0
  0
LINE
  8
0
 62
     0
 10
198.709
 20
11.2296
 30
0.0
 11
198.709
 21
8.12906
 31
0.0
  0
LINE
  8
0
 62
     0
 10
222.52
 20
8.12906
 30
0.0
 11
223.321
 21
8.12906
 31
0.0
  0
LINE
  8
0
 62
     0
 10
223.321
 20
8.12906
 30
0.0
 11
223.321
 21
7.12996
 31
0.0
  0
LINE
  8
0
 62
     0
 10
223.321
 20
7.12996
 30
0.0
 11
237.32
 21
7.12996
 31
0.0
  0
LINE
  8
0
 62
     0
 10
237.32
 20
7.12996
 30
0.0
 11
237.32
 21
8.12906
 31
0.0
  0
LINE
  8
0
 62
     0
 10
237.32
 20
8.12906
 30
0.0
 11
238.121
 21
8.12906
 31
0.0
  0
LINE
  8
0
 62
     0
 10
238.121
 20
8.12906
 30
0.0
 11
238.121
 21
11.2296
 31
0.0
  0
LINE
  8
0
 62
     0
 10
238.121
 20
11.2296
 30
0.0
 11
237.32
 21
11.2296
 31
0.0
  0
LINE
  8
0
 62
     0
 10
237.32
 20
11.2296
 30
0.0
 11
237.32
 21
17.0298
 31
0.0
  0
LINE
  8
0
 62
     0
 10
237.32
 20
17.0298
 30
0.0
 11
238.121
 21
17.0298
 31
0.0
  0
LINE
  8
0
 62
     0
 10
238.121
 20
17.0298
 30
0.0
 11
238.121
 21
20.129
 31
0.0
  0
LINE
  8
0
 62
     0
 10
238.121
 20
20.129
 30
0.0
 11
237.32
 21
20.129
 31
0.0
  0
LINE
  8
0
 62
     0
 10
237.32
 20
20.129
 30
0.0
 11
237.32
 21
21.1294
 31
0.0
  0
LINE
  8
0
 62
     0
 10
237.32
 20
21.1294
 30
0.0
 11
223.321
 21
21.1294
 31
0.0
  0
LINE
  8
0
 62
     0
 10
223.321
 20
21.1294
 30
0.0
 11
223.321
 21
20.129
 31
0.0
  0
LINE
  8
0
 62
     0
 10
223.321
 20
20.129
 30
0.0
 11
222.52
 21
20.129
 31
0.0
  0
LINE
  8
0
 62
     0
 10
222.52
 20
20.129
 30
0.0
 11
222.52
 21
17.0298
 31
0.0
  0
LINE
  8
0
 62
     0
 10
222.52
 20
17.0298
 30
0.0
 11
223.321
 21
17.0298
 31
0.0
  0
LINE
  8
0
 62
     0
 10
223.321
 20
17.0298
 30
0.0
 11
223.321
 21
11.2296
 31
0.0
  0
LINE
  8
0
 62
     0
 10
223.321
 20
11.2296
 30
0.0
 11
222.52
 21
11.2296
 31
0.0
  0
LINE
  8
0
 62
     0
 10
222.52
 20
11.2296
 30
0.0
 11
222.52
 21
8.12906
 31
0.0
  0
LINE
  8
0
 62
     0
 10
246.334
 20
8.12906
 30
0.0
 11
247.133
 21
8.12906
 31
0.0
  0
LINE
  8
0
 62
     0
 10
247.133
 20
8.12906
 30
0.0
 11
247.133
 21
7.12996
 31
0.0
  0
LINE
  8
0
 62
     0
 10
247.133
 20
7.12996
 30
0.0
 11
261.134
 21
7.12996
 31
0.0
  0
LINE
  8
0
 62
     0
 10
261.134
 20
7.12996
 30
0.0
 11
261.134
 21
8.12906
 31
0.0
  0
LINE
  8
0
 62
     0
 10
261.134
 20
8.12906
 30
0.0
 11
261.933
 21
8.12906
 31
0.0
  0
LINE
  8
0
 62
     0
 10
261.933
 20
8.12906
 30
0.0
 11
261.933
 21
11.2296
 31
0.0
  0
LINE
  8
0
 62
     0
 10
261.933
 20
11.2296
 30
0.0
 11
261.134
 21
11.2296
 31
0.0
  0
LINE
  8
0
 62
     0
 10
261.134
 20
11.2296
 30
0.0
 11
261.134
 21
17.0298
 31
0.0
  0
LINE
  8
0
 62
     0
 10
261.134
 20
17.0298
 30
0.0
 11
261.933
 21
17.0298
 31
0.0
  0
LINE
  8
0
 62
     0
 10
261.933
 20
17.0298
 30
0.0
 11
261.933
 21
20.129
 31
0.0
  0
LINE
  8
0
 62
     0
 10
261.933
 20
20.129
 30
0.0
 11
261.134
 21
20.129
 31
0.0
  0
LINE
  8
0
 62
     0
 10
261.134
 20
20.129
 30
0.0
 11
261.134
 21
21.1294
 31
0.0
  0
LINE
  8
0
 62
     0
 10
261.134
 20
21.1294
 30
0.0
 11
247.133
 21
21.1294
 31
0.0
  0
LINE
  8
0
 62
     0
 10
247.133
 20
21.1294
 30
0.0
 11
247.133
 21
20.129
 31
0.0
  0
LINE
  8
0
 62
     0
 10
247.133
 20
20.129
 30
0.0
 11
246.334
 21
20.129
 31
0.0
  0
LINE
  8
0
 62
     0
 10
246.334
 20
20.129
 30
0.0
 11
246.334
 21
17.0298
 31
0.0
  0
LINE
  8
0
 62
     0
 10
246.334
 20
17.0298
 30
0.0
 11
247.133
 21
17.0298
 31
0.0
  0
LINE
  8
0
 62
     0
 10
247.133
 20
17.0298
 30
0.0
 11
247.133
 21
11.2296
 31
0.0
  0
LINE
  8
0
 62
     0
 10
247.133
 20
11.2296
 30
0.0
 11
246.334
 21
11.2296
 31
0.0
  0
LINE
  8
0
 62
     0
 10
246.334
 20
11.2296
 30
0.0
 11
246.334
 21
8.12906
 31
0.0
  0
LINE
  8
0
 62
     0
 10
270.145
 20
8.12906
 30
0.0
 11
270.946
 21
8.12906
 31
0.0
  0
LINE
  8
0
 62
     0
 10
270.946
 20
8.12906
 30
0.0
 11
270.946
 21
7.12996
 31
0.0
  0
LINE
  8
0
 62
     0
 10
270.946
 20
7.12996
 30
0.0
 11
284.945
 21
7.12996
 31
0.0
  0
LINE
  8
0
 62
     0
 10
284.945
 20
7.12996
 30
0.0
 11
284.945
 21
8.12906
 31
0.0
  0
LINE
  8
0
 62
     0
 10
284.945
 20
8.12906
 30
0.0
 11
285.746
 21
8.12906
 31
0.0
  0
LINE
  8
0
 62
     0
 10
285.746
 20
8.12906
 30
0.0
 11
285.746
 21
11.2296
 31
0.0
  0
LINE
  8
0
 62
     0
 10
285.746
 20
11.2296
 30
0.0
 11
284.945
 21
11.2296
 31
0.0
  0
LINE
  8
0
 62
     0
 10
284.945
 20
11.2296
 30
0.0
 11
284.945
 21
17.0298
 31
0.0
  0
LINE
  8
0
 62
     0
 10
284.945
 20
17.0298
 30
0.0
 11
285.746
 21
17.0298
 31
0.0
  0
LINE
  8
0
 62
     0
 10
285.746
 20
17.0298
 30
0.0
 11
285.746
 21
20.129
 31
0.0
  0
LINE
  8
0
 62
     0
 10
285.746
 20
20.129
 30
0.0
 11
284.945
 21
20.129
 31
0.0
  0
LINE
  8
0
 62
     0
 10
284.945
 20
20.129
 30
0.0
 11
284.945
 21
21.1294
 31
0.0
  0
LINE
  8
0
 62
     0
 10
284.945
 20
21.1294
 30
0.0
 11
270.946
 21
21.1294
 31
0.0
  0
LINE
  8
0
 62
     0
 10
270.946
 20
21.1294
 30
0.0
 11
270.946
 21
20.129
 31
0.0
  0
LINE
  8
0
 62
     0
 10
270.946
 20
20.129
 30
0.0
 11
270.145
 21
20.129
 31
0.0
  0
LINE
  8
0
 62
     0
 10
270.145
 20
20.129
 30
0.0
 11
270.145
 21
17.0298
 31
0.0
  0
LINE
  8
0
 62
     0
 10
270.145
 20
17.0298
 30
0.0
 11
270.946
 21
17.0298
 31
0.0
  0
LINE
  8
0
 62
     0
 10
270.946
 20
17.0298
 30
0.0
 11
270.946
 21
11.2296
 31
0.0
  0
LINE
  8
0
 62
     0
 10
270.946
 20
11.2296
 30
0.0
 11
270.145
 21
11.2296
 31
0.0
  0
LINE
  8
0
 62
     0
 10
270.145
 20
11.2296
 30
0.0
 11
270.145
 21
8.12906
 31
0.0
  0
LINE
  8
0
 62
     0
 10
296.34
 20
8.12906
 30
0.0
 11
297.139
 21
8.12906
 31
0.0
  0
LINE
  8
0
 62
     0
 10
297.139
 20
8.12906
 30
0.0
 11
297.139
 21
7.12996
 31
0.0
  0
LINE
  8
0
 62
     0
 10
297.139
 20
7.12996
 30
0.0
 11
311.139
 21
7.12996
 31
0.0
  0
LINE
  8
0
 62
     0
 10
311.139
 20
7.12996
 30
0.0
 11
311.139
 21
8.12906
 31
0.0
  0
LINE
  8
0
 62
     0
 10
311.139
 20
8.12906
 30
0.0
 11
311.94
 21
8.12906
 31
0.0
  0
LINE
  8
0
 62
     0
 10
311.94
 20
8.12906
 30
0.0
 11
311.94
 21
11.2296
 31
0.0
  0
LINE
  8
0
 62
     0
 10
311.94
 20
11.2296
 30
0.0
 11
311.139
 21
11.2296
 31
0.0
  0
LINE
  8
0
 62
     0
 10
311.139
 20
11.2296
 30
0.0
 11
311.139
 21
17.0298
 31
0.0
  0
LINE
  8
0
 62
     0
 10
311.139
 20
17.0298
 30
0.0
 11
311.94
 21
17.0298
 31
0.0
  0
LINE
  8
0
 62
     0
 10
311.94
 20
17.0298
 30
0.0
 11
311.94
 21
20.129
 31
0.0
  0
LINE
  8
0
 62
     0
 10
311.94
 20
20.129
 30
0.0
 11
311.139
 21
20.129
 31
0.0
  0
LINE
  8
0
 62
     0
 10
311.139
 20
20.129
 30
0.0
 11
311.139
 21
21.1294
 31
0.0
  0
LINE
  8
0
 62
     0
 10
311.139
 20
21.1294
 30
0.0
 11
297.139
 21
21.1294
 31
0.0
  0
LINE
  8
0
 62
     0
 10
297.139
 20
21.1294
 30
0.0
 11
297.139
 21
20.129
 31
0.0
  0
LINE
  8
0
 62
     0
 10
297.139
 20
20.129
 30
0.0
 11
296.34
 21
20.129
 31
0.0
  0
LINE
  8
0
 62
     0
 10
296.34
 20
20.129
 30
0.0
 11
296.34
 21
17.0298
 31
0.0
  0
LINE
  8
0
 62
     0
 10
296.34
 20
17.0298
 30
0.0
 11
297.139
 21
17.0298
 31
0.0
  0
LINE
  8
0
 62
     0
 10
297.139
 20
17.0298
 30
0.0
 11
297.139
 21
11.2296
 31
0.0
  0
LINE
  8
0
 62
     0
 10
297.139
 20
11.2296
 30
0.0
 11
296.34
 21
11.2296
 31
0.0
  0
LINE
  8
0
 62
     0
 10
296.34
 20
11.2296
 30
0.0
 11
296.34
 21
8.12906
 31
0.0
  0
LINE
  8
0
 62
     0
 10
315.39
 20
8.12906
 30
0.0
 11
316.189
 21
8.12906
 31
0.0
  0
LINE
  8
0
 62
     0
 10
316.189
 20
8.12906
 30
0.0
 11
316.189
 21
7.12996
 31
0.0
  0
LINE
  8
0
 62
     0
 10
316.189
 20
7.12996
 30
0.0
 11
330.189
 21
7.12996
 31
0.0
  0
LINE
  8
0
 62
     0
 10
330.189
 20
7.12996
 30
0.0
 11
330.189
 21
8.12906
 31
0.0
  0
LINE
  8
0
 62
     0
 10
330.189
 20
8.12906
 30
0.0
 11
330.99
 21
8.12906
 31
0.0
  0
LINE
  8
0
 62
     0
 10
330.99
 20
8.12906
 30
0.0
 11
330.99
 21
11.2296
 31
0.0
  0
LINE
  8
0
 62
     0
 10
330.99
 20
11.2296
 30
0.0
 11
330.189
 21
11.2296
 31
0.0
  0
LINE
  8
0
 62
     0
 10
330.189
 20
11.2296
 30
0.0
 11
330.189
 21
17.0298
 31
0.0
  0
LINE
  8
0
 62
     0
 10
330.189
 20
17.0298
 30
0.0
 11
330.99
 21
17.0298
 31
0.0
  0
LINE
  8
0
 62
     0
 10
330.99
 20
17.0298
 30
0.0
 11
330.99
 21
20.129
 31
0.0
  0
LINE
  8
0
 62
     0
 10
330.99
 20
20.129
 30
0.0
 11
330.189
 21
20.129
 31
0.0
  0
LINE
  8
0
 62
     0
 10
330.189
 20
20.129
 30
0.0
 11
330.189
 21
21.1294
 31
0.0
  0
LINE
  8
0
 62
     0
 10
330.189
 20
21.1294
 30
0.0
 11
316.189
 21
21.1294
 31
0.0
  0
LINE
  8
0
 62
     0
 10
316.189
 20
21.1294
 30
0.0
 11
316.189
 21
20.129
 31
0.0
  0
LINE
  8
0
 62
     0
 10
316.189
 20
20.129
 30
0.0
 11
315.39
 21
20.129
 31
0.0
  0
LINE
  8
0
 62
     0
 10
315.39
 20
20.129
 30
0.0
 11
315.39
 21
17.0298
 31
0.0
  0
LINE
  8
0
 62
     0
 10
315.39
 20
17.0298
 30
0.0
 11
316.189
 21
17.0298
 31
0.0
  0
LINE
  8
0
 62
     0
 10
316.189
 20
17.0298
 30
0.0
 11
316.189
 21
11.2296
 31
0.0
  0
LINE
  8
0
 62
     0
 10
316.189
 20
11.2296
 30
0.0
 11
315.39
 21
11.2296
 31
0.0
  0
LINE
  8
0
 62
     0
 10
315.39
 20
11.2296
 30
0.0
 11
315.39
 21
8.12906
 31
0.0
  0
LINE
  8
0
 62
     0
 10
334.44
 20
8.12906
 30
0.0
 11
335.239
 21
8.12906
 31
0.0
  0
LINE
  8
0
 62
     0
 10
335.239
 20
8.12906
 30
0.0
 11
335.239
 21
7.12996
 31
0.0
  0
LINE
  8
0
 62
     0
 10
335.239
 20
7.12996
 30
0.0
 11
349.239
 21
7.12996
 31
0.0
  0
LINE
  8
0
 62
     0
 10
349.239
 20
7.12996
 30
0.0
 11
349.239
 21
8.12906
 31
0.0
  0
LINE
  8
0
 62
     0
 10
349.239
 20
8.12906
 30
0.0
 11
350.04
 21
8.12906
 31
0.0
  0
LINE
  8
0
 62
     0
 10
350.04
 20
8.12906
 30
0.0
 11
350.04
 21
11.2296
 31
0.0
  0
LINE
  8
0
 62
     0
 10
350.04
 20
11.2296
 30
0.0
 11
349.239
 21
11.2296
 31
0.0
  0
LINE
  8
0
 62
     0
 10
349.239
 20
11.2296
 30
0.0
 11
349.239
 21
17.0298
 31
0.0
  0
LINE
  8
0
 62
     0
 10
349.239
 20
17.0298
 30
0.0
 11
350.04
 21
17.0298
 31
0.0
  0
LINE
  8
0
 62
     0
 10
350.04
 20
17.0298
 30
0.0
 11
350.04
 21
20.129
 31
0.0
  0
LINE
  8
0
 62
     0
 10
350.04
 20
20.129
 30
0.0
 11
349.239
 21
20.129
 31
0.0
  0
LINE
  8
0
 62
     0
 10
349.239
 20
20.129
 30
0.0
 11
349.239
 21
21.1294
 31
0.0
  0
LINE
  8
0
 62
     0
 10
349.239
 20
21.1294
 30
0.0
 11
335.239
 21
21.1294
 31
0.0
  0
LINE
  8
0
 62
     0
 10
335.239
 20
21.1294
 30
0.0
 11
335.239
 21
20.129
 31
0.0
  0
LINE
  8
0
 62
     0
 10
335.239
 20
20.129
 30
0.0
 11
334.44
 21
20.129
 31
0.0
  0
LINE
  8
0
 62
     0
 10
334.44
 20
20.129
 30
0.0
 11
334.44
 21
17.0298
 31
0.0
  0
LINE
  8
0
 62
     0
 10
334.44
 20
17.0298
 30
0.0
 11
335.239
 21
17.0298
 31
0.0
  0
LINE
  8
0
 62
     0
 10
335.239
 20
17.0298
 30
0.0
 11
335.239
 21
11.2296
 31
0.0
  0
LINE
  8
0
 62
     0
 10
335.239
 20
11.2296
 30
0.0
 11
334.44
 21
11.2296
 31
0.0
  0
LINE
  8
0
 62
     0
 10
334.44
 20
11.2296
 30
0.0
 11
334.44
 21
8.12906
 31
0.0
  0
LINE
  8
0
 62
     0
 10
278.883
 20
38.7092
 30
0.0
 11
277.209
 21
38.7092
 31
0.0
  0
LINE
  8
0
 62
     0
 10
277.209
 20
38.7092
 30
0.0
 11
277.209
 21
39.6296
 31
0.0
  0
LINE
  8
0
 62
     0
 10
277.209
 20
39.6296
 30
0.0
 11
273.909
 21
39.6296
 31
0.0
  0
LINE
  8
0
 62
     0
 10
273.909
 20
39.6296
 30
0.0
 11
273.909
 21
38.7092
 31
0.0
  0
LINE
  8
0
 62
     0
 10
273.909
 20
38.7092
 30
0.0
 11
272.234
 21
38.7092
 31
0.0
  0
LINE
  8
0
 62
     0
 10
272.234
 20
38.7092
 30
0.0
 11
272.234
 21
35.4789
 31
0.0
  0
LINE
  8
0
 62
     0
 10
272.234
 20
35.4789
 30
0.0
 11
270.659
 21
35.4789
 31
0.0
  0
LINE
  8
0
 62
     0
 10
270.659
 20
35.4789
 30
0.0
 11
270.659
 21
36.0796
 31
0.0
  0
LINE
  8
0
 62
     0
 10
270.659
 20
36.0796
 30
0.0
 11
271.458
 21
36.0796
 31
0.0
  0
LINE
  8
0
 62
     0
 10
271.458
 20
36.0796
 30
0.0
 11
271.458
 21
39.1791
 31
0.0
  0
LINE
  8
0
 62
     0
 10
271.458
 20
39.1791
 30
0.0
 11
270.659
 21
39.1791
 31
0.0
  0
LINE
  8
0
 62
     0
 10
270.659
 20
39.1791
 30
0.0
 11
270.659
 21
40.1796
 31
0.0
  0
LINE
  8
0
 62
     0
 10
270.659
 20
40.1796
 30
0.0
 11
256.658
 21
40.1796
 31
0.0
  0
LINE
  8
0
 62
     0
 10
256.658
 20
40.1796
 30
0.0
 11
256.658
 21
39.1791
 31
0.0
  0
LINE
  8
0
 62
     0
 10
256.658
 20
39.1791
 30
0.0
 11
255.859
 21
39.1791
 31
0.0
  0
LINE
  8
0
 62
     0
 10
255.859
 20
39.1791
 30
0.0
 11
255.859
 21
36.0796
 31
0.0
  0
LINE
  8
0
 62
     0
 10
255.859
 20
36.0796
 30
0.0
 11
256.658
 21
36.0796
 31
0.0
  0
LINE
  8
0
 62
     0
 10
256.658
 20
36.0796
 30
0.0
 11
256.658
 21
35.4789
 31
0.0
  0
LINE
  8
0
 62
     0
 10
256.658
 20
35.4789
 30
0.0
 11
255.083
 21
35.4789
 31
0.0
  0
LINE
  8
0
 62
     0
 10
255.083
 20
35.4789
 30
0.0
 11
255.083
 21
38.7092
 31
0.0
  0
LINE
  8
0
 62
     0
 10
255.083
 20
38.7092
 30
0.0
 11
253.409
 21
38.7092
 31
0.0
  0
LINE
  8
0
 62
     0
 10
253.409
 20
38.7092
 30
0.0
 11
253.409
 21
39.6296
 31
0.0
  0
LINE
  8
0
 62
     0
 10
253.409
 20
39.6296
 30
0.0
 11
250.107
 21
39.6296
 31
0.0
  0
LINE
  8
0
 62
     0
 10
250.107
 20
39.6296
 30
0.0
 11
250.107
 21
38.7092
 31
0.0
  0
LINE
  8
0
 62
     0
 10
250.107
 20
38.7092
 30
0.0
 11
248.434
 21
38.7092
 31
0.0
  0
LINE
  8
0
 62
     0
 10
248.434
 20
38.7092
 30
0.0
 11
248.434
 21
35.4789
 31
0.0
  0
LINE
  8
0
 62
     0
 10
248.434
 20
35.4789
 30
0.0
 11
247.559
 21
35.4789
 31
0.0
  0
LINE
  8
0
 62
     0
 10
247.559
 20
35.4789
 30
0.0
 11
247.559
 21
32.6802
 31
0.0
  0
LINE
  8
0
 62
     0
 10
247.559
 20
32.6802
 30
0.0
 11
248.434
 21
32.6802
 31
0.0
  0
LINE
  8
0
 62
     0
 10
248.434
 20
32.6802
 30
0.0
 11
248.434
 21
26.4101
 31
0.0
  0
LINE
  8
0
 62
     0
 10
248.434
 20
26.4101
 30
0.0
 11
250.107
 21
26.4101
 31
0.0
  0
LINE
  8
0
 62
     0
 10
250.107
 20
26.4101
 30
0.0
 11
250.107
 21
25.4289
 31
0.0
  0
LINE
  8
0
 62
     0
 10
250.107
 20
25.4289
 30
0.0
 11
253.409
 21
25.4289
 31
0.0
  0
LINE
  8
0
 62
     0
 10
253.409
 20
25.4289
 30
0.0
 11
253.409
 21
26.4101
 31
0.0
  0
LINE
  8
0
 62
     0
 10
253.409
 20
26.4101
 30
0.0
 11
255.083
 21
26.4101
 31
0.0
  0
LINE
  8
0
 62
     0
 10
255.083
 20
26.4101
 30
0.0
 11
255.083
 21
30.8791
 31
0.0
  0
LINE
  8
0
 62
     0
 10
255.083
 20
30.8791
 30
0.0
 11
256.658
 21
30.8791
 31
0.0
  0
LINE
  8
0
 62
     0
 10
256.658
 20
30.8791
 30
0.0
 11
256.658
 21
30.2796
 31
0.0
  0
LINE
  8
0
 62
     0
 10
256.658
 20
30.2796
 30
0.0
 11
255.859
 21
30.2796
 31
0.0
  0
LINE
  8
0
 62
     0
 10
255.859
 20
30.2796
 30
0.0
 11
255.859
 21
27.1791
 31
0.0
  0
LINE
  8
0
 62
     0
 10
255.859
 20
27.1791
 30
0.0
 11
256.658
 21
27.1791
 31
0.0
  0
LINE
  8
0
 62
     0
 10
256.658
 20
27.1791
 30
0.0
 11
256.658
 21
26.18
 31
0.0
  0
LINE
  8
0
 62
     0
 10
256.658
 20
26.18
 30
0.0
 11
270.659
 21
26.18
 31
0.0
  0
LINE
  8
0
 62
     0
 10
270.659
 20
26.18
 30
0.0
 11
270.659
 21
27.1791
 31
0.0
  0
LINE
  8
0
 62
     0
 10
270.659
 20
27.1791
 30
0.0
 11
271.458
 21
27.1791
 31
0.0
  0
LINE
  8
0
 62
     0
 10
271.458
 20
27.1791
 30
0.0
 11
271.458
 21
30.2796
 31
0.0
  0
LINE
  8
0
 62
     0
 10
271.458
 20
30.2796
 30
0.0
 11
270.659
 21
30.2796
 31
0.0
  0
LINE
  8
0
 62
     0
 10
270.659
 20
30.2796
 30
0.0
 11
270.659
 21
30.8791
 31
0.0
  0
LINE
  8
0
 62
     0
 10
270.659
 20
30.8791
 30
0.0
 11
272.234
 21
30.8791
 31
0.0
  0
LINE
  8
0
 62
     0
 10
272.234
 20
30.8791
 30
0.0
 11
272.234
 21
26.4101
 31
0.0
  0
LINE
  8
0
 62
     0
 10
272.234
 20
26.4101
 30
0.0
 11
273.909
 21
26.4101
 31
0.0
  0
LINE
  8
0
 62
     0
 10
273.909
 20
26.4101
 30
0.0
 11
273.909
 21
25.4289
 31
0.0
  0
LINE
  8
0
 62
     0
 10
273.909
 20
25.4289
 30
0.0
 11
277.209
 21
25.4289
 31
0.0
  0
LINE
  8
0
 62
     0
 10
277.209
 20
25.4289
 30
0.0
 11
277.209
 21
26.4101
 31
0.0
  0
LINE
  8
0
 62
     0
 10
277.209
 20
26.4101
 30
0.0
 11
278.883
 21
26.4101
 31
0.0
  0
LINE
  8
0
 62
     0
 10
278.883
 20
26.4101
 30
0.0
 11
278.883
 21
32.6802
 31
0.0
  0
LINE
  8
0
 62
     0
 10
278.883
 20
32.6802
 30
0.0
 11
279.758
 21
32.6802
 31
0.0
  0
LINE
  8
0
 62
     0
 10
279.758
 20
32.6802
 30
0.0
 11
279.758
 21
35.4789
 31
0.0
  0
LINE
  8
0
 62
     0
 10
279.758
 20
35.4789
 30
0.0
 11
278.883
 21
35.4789
 31
0.0
  0
LINE
  8
0
 62
     0
 10
278.883
 20
35.4789
 30
0.0
 11
278.883
 21
38.7092
 31
0.0
  0
LINE
  8
0
 62
     0
 10
8.20896
 20
27.1791
 30
0.0
 11
9.00825
 21
27.1791
 31
0.0
  0
LINE
  8
0
 62
     0
 10
9.00825
 20
27.1791
 30
0.0
 11
9.00825
 21
26.18
 31
0.0
  0
LINE
  8
0
 62
     0
 10
9.00825
 20
26.18
 30
0.0
 11
23.0091
 21
26.18
 31
0.0
  0
LINE
  8
0
 62
     0
 10
23.0091
 20
26.18
 30
0.0
 11
23.0091
 21
27.1791
 31
0.0
  0
LINE
  8
0
 62
     0
 10
23.0091
 20
27.1791
 30
0.0
 11
23.8084
 21
27.1791
 31
0.0
  0
LINE
  8
0
 62
     0
 10
23.8084
 20
27.1791
 30
0.0
 11
23.8084
 21
30.2796
 31
0.0
  0
LINE
  8
0
 62
     0
 10
23.8084
 20
30.2796
 30
0.0
 11
23.0091
 21
30.2796
 31
0.0
  0
LINE
  8
0
 62
     0
 10
23.0091
 20
30.2796
 30
0.0
 11
23.0091
 21
36.0796
 31
0.0
  0
LINE
  8
0
 62
     0
 10
23.0091
 20
36.0796
 30
0.0
 11
23.8084
 21
36.0796
 31
0.0
  0
LINE
  8
0
 62
     0
 10
23.8084
 20
36.0796
 30
0.0
 11
23.8084
 21
39.1791
 31
0.0
  0
LINE
  8
0
 62
     0
 10
23.8084
 20
39.1791
 30
0.0
 11
23.0091
 21
39.1791
 31
0.0
  0
LINE
  8
0
 62
     0
 10
23.0091
 20
39.1791
 30
0.0
 11
23.0091
 21
40.1796
 31
0.0
  0
LINE
  8
0
 62
     0
 10
23.0091
 20
40.1796
 30
0.0
 11
9.00825
 21
40.1796
 31
0.0
  0
LINE
  8
0
 62
     0
 10
9.00825
 20
40.1796
 30
0.0
 11
9.00825
 21
39.1791
 31
0.0
  0
LINE
  8
0
 62
     0
 10
9.00825
 20
39.1791
 30
0.0
 11
8.20896
 21
39.1791
 31
0.0
  0
LINE
  8
0
 62
     0
 10
8.20896
 20
39.1791
 30
0.0
 11
8.20896
 21
36.0796
 31
0.0
  0
LINE
  8
0
 62
     0
 10
8.20896
 20
36.0796
 30
0.0
 11
9.00825
 21
36.0796
 31
0.0
  0
LINE
  8
0
 62
     0
 10
9.00825
 20
36.0796
 30
0.0
 11
9.00825
 21
30.2796
 31
0.0
  0
LINE
  8
0
 62
     0
 10
9.00825
 20
30.2796
 30
0.0
 11
8.20896
 21
30.2796
 31
0.0
  0
LINE
  8
0
 62
     0
 10
8.20896
 20
30.2796
 30
0.0
 11
8.20896
 21
27.1791
 31
0.0
  0
LINE
  8
0
 62
     0
 10
29.6402
 20
27.1791
 30
0.0
 11
30.4395
 21
27.1791
 31
0.0
  0
LINE
  8
0
 62
     0
 10
30.4395
 20
27.1791
 30
0.0
 11
30.4395
 21
26.18
 31
0.0
  0
LINE
  8
0
 62
     0
 10
30.4395
 20
26.18
 30
0.0
 11
44.4391
 21
26.18
 31
0.0
  0
LINE
  8
0
 62
     0
 10
44.4391
 20
26.18
 30
0.0
 11
44.4391
 21
27.1791
 31
0.0
  0
LINE
  8
0
 62
     0
 10
44.4391
 20
27.1791
 30
0.0
 11
45.2395
 21
27.1791
 31
0.0
  0
LINE
  8
0
 62
     0
 10
45.2395
 20
27.1791
 30
0.0
 11
45.2395
 21
30.2796
 31
0.0
  0
LINE
  8
0
 62
     0
 10
45.2395
 20
30.2796
 30
0.0
 11
44.4391
 21
30.2796
 31
0.0
  0
LINE
  8
0
 62
     0
 10
44.4391
 20
30.2796
 30
0.0
 11
44.4391
 21
36.0796
 31
0.0
  0
LINE
  8
0
 62
     0
 10
44.4391
 20
36.0796
 30
0.0
 11
45.2395
 21
36.0796
 31
0.0
  0
LINE
  8
0
 62
     0
 10
45.2395
 20
36.0796
 30
0.0
 11
45.2395
 21
39.1791
 31
0.0
  0
LINE
  8
0
 62
     0
 10
45.2395
 20
39.1791
 30
0.0
 11
44.4391
 21
39.1791
 31
0.0
  0
LINE
  8
0
 62
     0
 10
44.4391
 20
39.1791
 30
0.0
 11
44.4391
 21
40.1796
 31
0.0
  0
LINE
  8
0
 62
     0
 10
44.4391
 20
40.1796
 30
0.0
 11
30.4395
 21
40.1796
 31
0.0
  0
LINE
  8
0
 62
     0
 10
30.4395
 20
40.1796
 30
0.0
 11
30.4395
 21
39.1791
 31
0.0
  0
LINE
  8
0
 62
     0
 10
30.4395
 20
39.1791
 30
0.0
 11
29.6402
 21
39.1791
 31
0.0
  0
LINE
  8
0
 62
     0
 10
29.6402
 20
39.1791
 30
0.0
 11
29.6402
 21
36.0796
 31
0.0
  0
LINE
  8
0
 62
     0
 10
29.6402
 20
36.0796
 30
0.0
 11
30.4395
 21
36.0796
 31
0.0
  0
LINE
  8
0
 62
     0
 10
30.4395
 20
36.0796
 30
0.0
 11
30.4395
 21
30.2796
 31
0.0
  0
LINE
  8
0
 62
     0
 10
30.4395
 20
30.2796
 30
0.0
 11
29.6402
 21
30.2796
 31
0.0
  0
LINE
  8
0
 62
     0
 10
29.6402
 20
30.2796
 30
0.0
 11
29.6402
 21
27.1791
 31
0.0
  0
LINE
  8
0
 62
     0
 10
48.6904
 20
27.1791
 30
0.0
 11
49.4894
 21
27.1791
 31
0.0
  0
LINE
  8
0
 62
     0
 10
49.4894
 20
27.1791
 30
0.0
 11
49.4894
 21
26.18
 31
0.0
  0
LINE
  8
0
 62
     0
 10
49.4894
 20
26.18
 30
0.0
 11
63.4891
 21
26.18
 31
0.0
  0
LINE
  8
0
 62
     0
 10
63.4891
 20
26.18
 30
0.0
 11
63.4891
 21
27.1791
 31
0.0
  0
LINE
  8
0
 62
     0
 10
63.4891
 20
27.1791
 30
0.0
 11
64.2895
 21
27.1791
 31
0.0
  0
LINE
  8
0
 62
     0
 10
64.2895
 20
27.1791
 30
0.0
 11
64.2895
 21
30.2796
 31
0.0
  0
LINE
  8
0
 62
     0
 10
64.2895
 20
30.2796
 30
0.0
 11
63.4891
 21
30.2796
 31
0.0
  0
LINE
  8
0
 62
     0
 10
63.4891
 20
30.2796
 30
0.0
 11
63.4891
 21
36.0796
 31
0.0
  0
LINE
  8
0
 62
     0
 10
63.4891
 20
36.0796
 30
0.0
 11
64.2895
 21
36.0796
 31
0.0
  0
LINE
  8
0
 62
     0
 10
64.2895
 20
36.0796
 30
0.0
 11
64.2895
 21
39.1791
 31
0.0
  0
LINE
  8
0
 62
     0
 10
64.2895
 20
39.1791
 30
0.0
 11
63.4891
 21
39.1791
 31
0.0
  0
LINE
  8
0
 62
     0
 10
63.4891
 20
39.1791
 30
0.0
 11
63.4891
 21
40.1796
 31
0.0
  0
LINE
  8
0
 62
     0
 10
63.4891
 20
40.1796
 30
0.0
 11
49.4894
 21
40.1796
 31
0.0
  0
LINE
  8
0
 62
     0
 10
49.4894
 20
40.1796
 30
0.0
 11
49.4894
 21
39.1791
 31
0.0
  0
LINE
  8
0
 62
     0
 10
49.4894
 20
39.1791
 30
0.0
 11
48.6904
 21
39.1791
 31
0.0
  0
LINE
  8
0
 62
     0
 10
48.6904
 20
39.1791
 30
0.0
 11
48.6904
 21
36.0796
 31
0.0
  0
LINE
  8
0
 62
     0
 10
48.6904
 20
36.0796
 30
0.0
 11
49.4894
 21
36.0796
 31
0.0
  0
LINE
  8
0
 62
     0
 10
49.4894
 20
36.0796
 30
0.0
 11
49.4894
 21
30.2796
 31
0.0
  0
LINE
  8
0
 62
     0
 10
49.4894
 20
30.2796
 30
0.0
 11
48.6904
 21
30.2796
 31
0.0
  0
LINE
  8
0
 62
     0
 10
48.6904
 20
30.2796
 30
0.0
 11
48.6904
 21
27.1791
 31
0.0
  0
LINE
  8
0
 62
     0
 10
67.7404
 20
27.1791
 30
0.0
 11
68.5394
 21
27.1791
 31
0.0
  0
LINE
  8
0
 62
     0
 10
68.5394
 20
27.1791
 30
0.0
 11
68.5394
 21
26.18
 31
0.0
  0
LINE
  8
0
 62
     0
 10
68.5394
 20
26.18
 30
0.0
 11
82.5391
 21
26.18
 31
0.0
  0
LINE
  8
0
 62
     0
 10
82.5391
 20
26.18
 30
0.0
 11
82.5391
 21
27.1791
 31
0.0
  0
LINE
  8
0
 62
     0
 10
82.5391
 20
27.1791
 30
0.0
 11
83.3395
 21
27.1791
 31
0.0
  0
LINE
  8
0
 62
     0
 10
83.3395
 20
27.1791
 30
0.0
 11
83.3395
 21
30.2796
 31
0.0
  0
LINE
  8
0
 62
     0
 10
83.3395
 20
30.2796
 30
0.0
 11
82.5391
 21
30.2796
 31
0.0
  0
LINE
  8
0
 62
     0
 10
82.5391
 20
30.2796
 30
0.0
 11
82.5391
 21
36.0796
 31
0.0
  0
LINE
  8
0
 62
     0
 10
82.5391
 20
36.0796
 30
0.0
 11
83.3395
 21
36.0796
 31
0.0
  0
LINE
  8
0
 62
     0
 10
83.3395
 20
36.0796
 30
0.0
 11
83.3395
 21
39.1791
 31
0.0
  0
LINE
  8
0
 62
     0
 10
83.3395
 20
39.1791
 30
0.0
 11
82.5391
 21
39.1791
 31
0.0
  0
LINE
  8
0
 62
     0
 10
82.5391
 20
39.1791
 30
0.0
 11
82.5391
 21
40.1796
 31
0.0
  0
LINE
  8
0
 62
     0
 10
82.5391
 20
40.1796
 30
0.0
 11
68.5394
 21
40.1796
 31
0.0
  0
LINE
  8
0
 62
     0
 10
68.5394
 20
40.1796
 30
0.0
 11
68.5394
 21
39.1791
 31
0.0
  0
LINE
  8
0
 62
     0
 10
68.5394
 20
39.1791
 30
0.0
 11
67.7404
 21
39.1791
 31
0.0
  0
LINE
  8
0
 62
     0
 10
67.7404
 20
39.1791
 30
0.0
 11
67.7404
 21
36.0796
 31
0.0
  0
LINE
  8
0
 62
     0
 10
67.7404
 20
36.0796
 30
0.0
 11
68.5394
 21
36.0796
 31
0.0
  0
LINE
  8
0
 62
     0
 10
68.5394
 20
36.0796
 30
0.0
 11
68.5394
 21
30.2796
 31
0.0
  0
LINE
  8
0
 62
     0
 10
68.5394
 20
30.2796
 30
0.0
 11
67.7404
 21
30.2796
 31
0.0
  0
LINE
  8
0
 62
     0
 10
67.7404
 20
30.2796
 30
0.0
 11
67.7404
 21
27.1791
 31
0.0
  0
LINE
  8
0
 62
     0
 10
86.7904
 20
27.1791
 30
0.0
 11
87.5894
 21
27.1791
 31
0.0
  0
LINE
  8
0
 62
     0
 10
87.5894
 20
27.1791
 30
0.0
 11
87.5894
 21
26.18
 31
0.0
  0
LINE
  8
0
 62
     0
 10
87.5894
 20
26.18
 30
0.0
 11
101.589
 21
26.18
 31
0.0
  0
LINE
  8
0
 62
     0
 10
101.589
 20
26.18
 30
0.0
 11
101.589
 21
27.1791
 31
0.0
  0
LINE
  8
0
 62
     0
 10
101.589
 20
27.1791
 30
0.0
 11
102.39
 21
27.1791
 31
0.0
  0
LINE
  8
0
 62
     0
 10
102.39
 20
27.1791
 30
0.0
 11
102.39
 21
30.2796
 31
0.0
  0
LINE
  8
0
 62
     0
 10
102.39
 20
30.2796
 30
0.0
 11
101.589
 21
30.2796
 31
0.0
  0
LINE
  8
0
 62
     0
 10
101.589
 20
30.2796
 30
0.0
 11
101.589
 21
36.0796
 31
0.0
  0
LINE
  8
0
 62
     0
 10
101.589
 20
36.0796
 30
0.0
 11
102.39
 21
36.0796
 31
0.0
  0
LINE
  8
0
 62
     0
 10
102.39
 20
36.0796
 30
0.0
 11
102.39
 21
39.1791
 31
0.0
  0
LINE
  8
0
 62
     0
 10
102.39
 20
39.1791
 30
0.0
 11
101.589
 21
39.1791
 31
0.0
  0
LINE
  8
0
 62
     0
 10
101.589
 20
39.1791
 30
0.0
 11
101.589
 21
40.1796
 31
0.0
  0
LINE
  8
0
 62
     0
 10
101.589
 20
40.1796
 30
0.0
 11
87.5894
 21
40.1796
 31
0.0
  0
LINE
  8
0
 62
     0
 10
87.5894
 20
40.1796
 30
0.0
 11
87.5894
 21
39.1791
 31
0.0
  0
LINE
  8
0
 62
     0
 10
87.5894
 20
39.1791
 30
0.0
 11
86.7904
 21
39.1791
 31
0.0
  0
LINE
  8
0
 62
     0
 10
86.7904
 20
39.1791
 30
0.0
 11
86.7904
 21
36.0796
 31
0.0
  0
LINE
  8
0
 62
     0
 10
86.7904
 20
36.0796
 30
0.0
 11
87.5894
 21
36.0796
 31
0.0
  0
LINE
  8
0
 62
     0
 10
87.5894
 20
36.0796
 30
0.0
 11
87.5894
 21
30.2796
 31
0.0
  0
LINE
  8
0
 62
     0
 10
87.5894
 20
30.2796
 30
0.0
 11
86.7904
 21
30.2796
 31
0.0
  0
LINE
  8
0
 62
     0
 10
86.7904
 20
30.2796
 30
0.0
 11
86.7904
 21
27.1791
 31
0.0
  0
LINE
  8
0
 62
     0
 10
105.84
 20
27.1791
 30
0.0
 11
106.639
 21
27.1791
 31
0.0
  0
LINE
  8
0
 62
     0
 10
106.639
 20
27.1791
 30
0.0
 11
106.639
 21
26.18
 31
0.0
  0
LINE
  8
0
 62
     0
 10
106.639
 20
26.18
 30
0.0
 11
120.639
 21
26.18
 31
0.0
  0
LINE
  8
0
 62
     0
 10
120.639
 20
26.18
 30
0.0
 11
120.639
 21
27.1791
 31
0.0
  0
LINE
  8
0
 62
     0
 10
120.639
 20
27.1791
 30
0.0
 11
121.44
 21
27.1791
 31
0.0
  0
LINE
  8
0
 62
     0
 10
121.44
 20
27.1791
 30
0.0
 11
121.44
 21
30.2796
 31
0.0
  0
LINE
  8
0
 62
     0
 10
121.44
 20
30.2796
 30
0.0
 11
120.639
 21
30.2796
 31
0.0
  0
LINE
  8
0
 62
     0
 10
120.639
 20
30.2796
 30
0.0
 11
120.639
 21
36.0796
 31
0.0
  0
LINE
  8
0
 62
     0
 10
120.639
 20
36.0796
 30
0.0
 11
121.44
 21
36.0796
 31
0.0
  0
LINE
  8
0
 62
     0
 10
121.44
 20
36.0796
 30
0.0
 11
121.44
 21
39.1791
 31
0.0
  0
LINE
  8
0
 62
     0
 10
121.44
 20
39.1791
 30
0.0
 11
120.639
 21
39.1791
 31
0.0
  0
LINE
  8
0
 62
     0
 10
120.639
 20
39.1791
 30
0.0
 11
120.639
 21
40.1796
 31
0.0
  0
LINE
  8
0
 62
     0
 10
120.639
 20
40.1796
 30
0.0
 11
106.639
 21
40.1796
 31
0.0
  0
LINE
  8
0
 62
     0
 10
106.639
 20
40.1796
 30
0.0
 11
106.639
 21
39.1791
 31
0.0
  0
LINE
  8
0
 62
     0
 10
106.639
 20
39.1791
 30
0.0
 11
105.84
 21
39.1791
 31
0.0
  0
LINE
  8
0
 62
     0
 10
105.84
 20
39.1791
 30
0.0
 11
105.84
 21
36.0796
 31
0.0
  0
LINE
  8
0
 62
     0
 10
105.84
 20
36.0796
 30
0.0
 11
106.639
 21
36.0796
 31
0.0
  0
LINE
  8
0
 62
     0
 10
106.639
 20
36.0796
 30
0.0
 11
106.639
 21
30.2796
 31
0.0
  0
LINE
  8
0
 62
     0
 10
106.639
 20
30.2796
 30
0.0
 11
105.84
 21
30.2796
 31
0.0
  0
LINE
  8
0
 62
     0
 10
105.84
 20
30.2796
 30
0.0
 11
105.84
 21
27.1791
 31
0.0
  0
LINE
  8
0
 62
     0
 10
124.89
 20
27.1791
 30
0.0
 11
125.689
 21
27.1791
 31
0.0
  0
LINE
  8
0
 62
     0
 10
125.689
 20
27.1791
 30
0.0
 11
125.689
 21
26.18
 31
0.0
  0
LINE
  8
0
 62
     0
 10
125.689
 20
26.18
 30
0.0
 11
139.689
 21
26.18
 31
0.0
  0
LINE
  8
0
 62
     0
 10
139.689
 20
26.18
 30
0.0
 11
139.689
 21
27.1791
 31
0.0
  0
LINE
  8
0
 62
     0
 10
139.689
 20
27.1791
 30
0.0
 11
140.49
 21
27.1791
 31
0.0
  0
LINE
  8
0
 62
     0
 10
140.49
 20
27.1791
 30
0.0
 11
140.49
 21
30.2796
 31
0.0
  0
LINE
  8
0
 62
     0
 10
140.49
 20
30.2796
 30
0.0
 11
139.689
 21
30.2796
 31
0.0
  0
LINE
  8
0
 62
     0
 10
139.689
 20
30.2796
 30
0.0
 11
139.689
 21
36.0796
 31
0.0
  0
LINE
  8
0
 62
     0
 10
139.689
 20
36.0796
 30
0.0
 11
140.49
 21
36.0796
 31
0.0
  0
LINE
  8
0
 62
     0
 10
140.49
 20
36.0796
 30
0.0
 11
140.49
 21
39.1791
 31
0.0
  0
LINE
  8
0
 62
     0
 10
140.49
 20
39.1791
 30
0.0
 11
139.689
 21
39.1791
 31
0.0
  0
LINE
  8
0
 62
     0
 10
139.689
 20
39.1791
 30
0.0
 11
139.689
 21
40.1796
 31
0.0
  0
LINE
  8
0
 62
     0
 10
139.689
 20
40.1796
 30
0.0
 11
125.689
 21
40.1796
 31
0.0
  0
LINE
  8
0
 62
     0
 10
125.689
 20
40.1796
 30
0.0
 11
125.689
 21
39.1791
 31
0.0
  0
LINE
  8
0
 62
     0
 10
125.689
 20
39.1791
 30
0.0
 11
124.89
 21
39.1791
 31
0.0
  0
LINE
  8
0
 62
     0
 10
124.89
 20
39.1791
 30
0.0
 11
124.89
 21
36.0796
 31
0.0
  0
LINE
  8
0
 62
     0
 10
124.89
 20
36.0796
 30
0.0
 11
125.689
 21
36.0796
 31
0.0
  0
LINE
  8
0
 62
     0
 10
125.689
 20
36.0796
 30
0.0
 11
125.689
 21
30.2796
 31
0.0
  0
LINE
  8
0
 62
     0
 10
125.689
 20
30.2796
 30
0.0
 11
124.89
 21
30.2796
 31
0.0
  0
LINE
  8
0
 62
     0
 10
124.89
 20
30.2796
 30
0.0
 11
124.89
 21
27.1791
 31
0.0
  0
LINE
  8
0
 62
     0
 10
143.94
 20
27.1791
 30
0.0
 11
144.739
 21
27.1791
 31
0.0
  0
LINE
  8
0
 62
     0
 10
144.739
 20
27.1791
 30
0.0
 11
144.739
 21
26.18
 31
0.0
  0
LINE
  8
0
 62
     0
 10
144.739
 20
26.18
 30
0.0
 11
158.739
 21
26.18
 31
0.0
  0
LINE
  8
0
 62
     0
 10
158.739
 20
26.18
 30
0.0
 11
158.739
 21
27.1791
 31
0.0
  0
LINE
  8
0
 62
     0
 10
158.739
 20
27.1791
 30
0.0
 11
159.54
 21
27.1791
 31
0.0
  0
LINE
  8
0
 62
     0
 10
159.54
 20
27.1791
 30
0.0
 11
159.54
 21
30.2796
 31
0.0
  0
LINE
  8
0
 62
     0
 10
159.54
 20
30.2796
 30
0.0
 11
158.739
 21
30.2796
 31
0.0
  0
LINE
  8
0
 62
     0
 10
158.739
 20
30.2796
 30
0.0
 11
158.739
 21
36.0796
 31
0.0
  0
LINE
  8
0
 62
     0
 10
158.739
 20
36.0796
 30
0.0
 11
159.54
 21
36.0796
 31
0.0
  0
LINE
  8
0
 62
     0
 10
159.54
 20
36.0796
 30
0.0
 11
159.54
 21
39.1791
 31
0.0
  0
LINE
  8
0
 62
     0
 10
159.54
 20
39.1791
 30
0.0
 11
158.739
 21
39.1791
 31
0.0
  0
LINE
  8
0
 62
     0
 10
158.739
 20
39.1791
 30
0.0
 11
158.739
 21
40.1796
 31
0.0
  0
LINE
  8
0
 62
     0
 10
158.739
 20
40.1796
 30
0.0
 11
144.739
 21
40.1796
 31
0.0
  0
LINE
  8
0
 62
     0
 10
144.739
 20
40.1796
 30
0.0
 11
144.739
 21
39.1791
 31
0.0
  0
LINE
  8
0
 62
     0
 10
144.739
 20
39.1791
 30
0.0
 11
143.94
 21
39.1791
 31
0.0
  0
LINE
  8
0
 62
     0
 10
143.94
 20
39.1791
 30
0.0
 11
143.94
 21
36.0796
 31
0.0
  0
LINE
  8
0
 62
     0
 10
143.94
 20
36.0796
 30
0.0
 11
144.739
 21
36.0796
 31
0.0
  0
LINE
  8
0
 62
     0
 10
144.739
 20
36.0796
 30
0.0
 11
144.739
 21
30.2796
 31
0.0
  0
LINE
  8
0
 62
     0
 10
144.739
 20
30.2796
 30
0.0
 11
143.94
 21
30.2796
 31
0.0
  0
LINE
  8
0
 62
     0
 10
143.94
 20
30.2796
 30
0.0
 11
143.94
 21
27.1791
 31
0.0
  0
LINE
  8
0
 62
     0
 10
162.99
 20
27.1791
 30
0.0
 11
163.789
 21
27.1791
 31
0.0
  0
LINE
  8
0
 62
     0
 10
163.789
 20
27.1791
 30
0.0
 11
163.789
 21
26.18
 31
0.0
  0
LINE
  8
0
 62
     0
 10
163.789
 20
26.18
 30
0.0
 11
177.789
 21
26.18
 31
0.0
  0
LINE
  8
0
 62
     0
 10
177.789
 20
26.18
 30
0.0
 11
177.789
 21
27.1791
 31
0.0
  0
LINE
  8
0
 62
     0
 10
177.789
 20
27.1791
 30
0.0
 11
178.59
 21
27.1791
 31
0.0
  0
LINE
  8
0
 62
     0
 10
178.59
 20
27.1791
 30
0.0
 11
178.59
 21
30.2796
 31
0.0
  0
LINE
  8
0
 62
     0
 10
178.59
 20
30.2796
 30
0.0
 11
177.789
 21
30.2796
 31
0.0
  0
LINE
  8
0
 62
     0
 10
177.789
 20
30.2796
 30
0.0
 11
177.789
 21
36.0796
 31
0.0
  0
LINE
  8
0
 62
     0
 10
177.789
 20
36.0796
 30
0.0
 11
178.59
 21
36.0796
 31
0.0
  0
LINE
  8
0
 62
     0
 10
178.59
 20
36.0796
 30
0.0
 11
178.59
 21
39.1791
 31
0.0
  0
LINE
  8
0
 62
     0
 10
178.59
 20
39.1791
 30
0.0
 11
177.789
 21
39.1791
 31
0.0
  0
LINE
  8
0
 62
     0
 10
177.789
 20
39.1791
 30
0.0
 11
177.789
 21
40.1796
 31
0.0
  0
LINE
  8
0
 62
     0
 10
177.789
 20
40.1796
 30
0.0
 11
163.789
 21
40.1796
 31
0.0
  0
LINE
  8
0
 62
     0
 10
163.789
 20
40.1796
 30
0.0
 11
163.789
 21
39.1791
 31
0.0
  0
LINE
  8
0
 62
     0
 10
163.789
 20
39.1791
 30
0.0
 11
162.99
 21
39.1791
 31
0.0
  0
LINE
  8
0
 62
     0
 10
162.99
 20
39.1791
 30
0.0
 11
162.99
 21
36.0796
 31
0.0
  0
LINE
  8
0
 62
     0
 10
162.99
 20
36.0796
 30
0.0
 11
163.789
 21
36.0796
 31
0.0
  0
LINE
  8
0
 62
     0
 10
163.789
 20
36.0796
 30
0.0
 11
163.789
 21
30.2796
 31
0.0
  0
LINE
  8
0
 62
     0
 10
163.789
 20
30.2796
 30
0.0
 11
162.99
 21
30.2796
 31
0.0
  0
LINE
  8
0
 62
     0
 10
162.99
 20
30.2796
 30
0.0
 11
162.99
 21
27.1791
 31
0.0
  0
LINE
  8
0
 62
     0
 10
182.04
 20
27.1791
 30
0.0
 11
182.839
 21
27.1791
 31
0.0
  0
LINE
  8
0
 62
     0
 10
182.839
 20
27.1791
 30
0.0
 11
182.839
 21
26.18
 31
0.0
  0
LINE
  8
0
 62
     0
 10
182.839
 20
26.18
 30
0.0
 11
196.839
 21
26.18
 31
0.0
  0
LINE
  8
0
 62
     0
 10
196.839
 20
26.18
 30
0.0
 11
196.839
 21
27.1791
 31
0.0
  0
LINE
  8
0
 62
     0
 10
196.839
 20
27.1791
 30
0.0
 11
197.64
 21
27.1791
 31
0.0
  0
LINE
  8
0
 62
     0
 10
197.64
 20
27.1791
 30
0.0
 11
197.64
 21
30.2796
 31
0.0
  0
LINE
  8
0
 62
     0
 10
197.64
 20
30.2796
 30
0.0
 11
196.839
 21
30.2796
 31
0.0
  0
LINE
  8
0
 62
     0
 10
196.839
 20
30.2796
 30
0.0
 11
196.839
 21
36.0796
 31
0.0
  0
LINE
  8
0
 62
     0
 10
196.839
 20
36.0796
 30
0.0
 11
197.64
 21
36.0796
 31
0.0
  0
LINE
  8
0
 62
     0
 10
197.64
 20
36.0796
 30
0.0
 11
197.64
 21
39.1791
 31
0.0
  0
LINE
  8
0
 62
     0
 10
197.64
 20
39.1791
 30
0.0
 11
196.839
 21
39.1791
 31
0.0
  0
LINE
  8
0
 62
     0
 10
196.839
 20
39.1791
 30
0.0
 11
196.839
 21
40.1796
 31
0.0
  0
LINE
  8
0
 62
     0
 10
196.839
 20
40.1796
 30
0.0
 11
182.839
 21
40.1796
 31
0.0
  0
LINE
  8
0
 62
     0
 10
182.839
 20
40.1796
 30
0.0
 11
182.839
 21
39.1791
 31
0.0
  0
LINE
  8
0
 62
     0
 10
182.839
 20
39.1791
 30
0.0
 11
182.04
 21
39.1791
 31
0.0
  0
LINE
  8
0
 62
     0
 10
182.04
 20
39.1791
 30
0.0
 11
182.04
 21
36.0796
 31
0.0
  0
LINE
  8
0
 62
     0
 10
182.04
 20
36.0796
 30
0.0
 11
182.839
 21
36.0796
 31
0.0
  0
LINE
  8
0
 62
     0
 10
182.839
 20
36.0796
 30
0.0
 11
182.839
 21
30.2796
 31
0.0
  0
LINE
  8
0
 62
     0
 10
182.839
 20
30.2796
 30
0.0
 11
182.04
 21
30.2796
 31
0.0
  0
LINE
  8
0
 62
     0
 10
182.04
 20
30.2796
 30
0.0
 11
182.04
 21
27.1791
 31
0.0
  0
LINE
  8
0
 62
     0
 10
201.09
 20
27.1791
 30
0.0
 11
201.889
 21
27.1791
 31
0.0
  0
LINE
  8
0
 62
     0
 10
201.889
 20
27.1791
 30
0.0
 11
201.889
 21
26.18
 31
0.0
  0
LINE
  8
0
 62
     0
 10
201.889
 20
26.18
 30
0.0
 11
215.889
 21
26.18
 31
0.0
  0
LINE
  8
0
 62
     0
 10
215.889
 20
26.18
 30
0.0
 11
215.889
 21
27.1791
 31
0.0
  0
LINE
  8
0
 62
     0
 10
215.889
 20
27.1791
 30
0.0
 11
216.69
 21
27.1791
 31
0.0
  0
LINE
  8
0
 62
     0
 10
216.69
 20
27.1791
 30
0.0
 11
216.69
 21
30.2796
 31
0.0
  0
LINE
  8
0
 62
     0
 10
216.69
 20
30.2796
 30
0.0
 11
215.889
 21
30.2796
 31
0.0
  0
LINE
  8
0
 62
     0
 10
215.889
 20
30.2796
 30
0.0
 11
215.889
 21
36.0796
 31
0.0
  0
LINE
  8
0
 62
     0
 10
215.889
 20
36.0796
 30
0.0
 11
216.69
 21
36.0796
 31
0.0
  0
LINE
  8
0
 62
     0
 10
216.69
 20
36.0796
 30
0.0
 11
216.69
 21
39.1791
 31
0.0
  0
LINE
  8
0
 62
     0
 10
216.69
 20
39.1791
 30
0.0
 11
215.889
 21
39.1791
 31
0.0
  0
LINE
  8
0
 62
     0
 10
215.889
 20
39.1791
 30
0.0
 11
215.889
 21
40.1796
 31
0.0
  0
LINE
  8
0
 62
     0
 10
215.889
 20
40.1796
 30
0.0
 11
201.889
 21
40.1796
 31
0.0
  0
LINE
  8
0
 62
     0
 10
201.889
 20
40.1796
 30
0.0
 11
201.889
 21
39.1791
 31
0.0
  0
LINE
  8
0
 62
     0
 10
201.889
 20
39.1791
 30
0.0
 11
201.09
 21
39.1791
 31
0.0
  0
LINE
  8
0
 62
     0
 10
201.09
 20
39.1791
 30
0.0
 11
201.09
 21
36.0796
 31
0.0
  0
LINE
  8
0
 62
     0
 10
201.09
 20
36.0796
 30
0.0
 11
201.889
 21
36.0796
 31
0.0
  0
LINE
  8
0
 62
     0
 10
201.889
 20
36.0796
 30
0.0
 11
201.889
 21
30.2796
 31
0.0
  0
LINE
  8
0
 62
     0
 10
201.889
 20
30.2796
 30
0.0
 11
201.09
 21
30.2796
 31
0.0
  0
LINE
  8
0
 62
     0
 10
201.09
 20
30.2796
 30
0.0
 11
201.09
 21
27.1791
 31
0.0
  0
LINE
  8
0
 62
     0
 10
220.14
 20
27.1791
 30
0.0
 11
220.939
 21
27.1791
 31
0.0
  0
LINE
  8
0
 62
     0
 10
220.939
 20
27.1791
 30
0.0
 11
220.939
 21
26.18
 31
0.0
  0
LINE
  8
0
 62
     0
 10
220.939
 20
26.18
 30
0.0
 11
234.939
 21
26.18
 31
0.0
  0
LINE
  8
0
 62
     0
 10
234.939
 20
26.18
 30
0.0
 11
234.939
 21
27.1791
 31
0.0
  0
LINE
  8
0
 62
     0
 10
234.939
 20
27.1791
 30
0.0
 11
235.74
 21
27.1791
 31
0.0
  0
LINE
  8
0
 62
     0
 10
235.74
 20
27.1791
 30
0.0
 11
235.74
 21
30.2796
 31
0.0
  0
LINE
  8
0
 62
     0
 10
235.74
 20
30.2796
 30
0.0
 11
234.939
 21
30.2796
 31
0.0
  0
LINE
  8
0
 62
     0
 10
234.939
 20
30.2796
 30
0.0
 11
234.939
 21
36.0796
 31
0.0
  0
LINE
  8
0
 62
     0
 10
234.939
 20
36.0796
 30
0.0
 11
235.74
 21
36.0796
 31
0.0
  0
LINE
  8
0
 62
     0
 10
235.74
 20
36.0796
 30
0.0
 11
235.74
 21
39.1791
 31
0.0
  0
LINE
  8
0
 62
     0
 10
235.74
 20
39.1791
 30
0.0
 11
234.939
 21
39.1791
 31
0.0
  0
LINE
  8
0
 62
     0
 10
234.939
 20
39.1791
 30
0.0
 11
234.939
 21
40.1796
 31
0.0
  0
LINE
  8
0
 62
     0
 10
234.939
 20
40.1796
 30
0.0
 11
220.939
 21
40.1796
 31
0.0
  0
LINE
  8
0
 62
     0
 10
220.939
 20
40.1796
 30
0.0
 11
220.939
 21
39.1791
 31
0.0
  0
LINE
  8
0
 62
     0
 10
220.939
 20
39.1791
 30
0.0
 11
220.14
 21
39.1791
 31
0.0
  0
LINE
  8
0
 62
     0
 10
220.14
 20
39.1791
 30
0.0
 11
220.14
 21
36.0796
 31
0.0
  0
LINE
  8
0
 62
     0
 10
220.14
 20
36.0796
 30
0.0
 11
220.939
 21
36.0796
 31
0.0
  0
LINE
  8
0
 62
     0
 10
220.939
 20
36.0796
 30
0.0
 11
220.939
 21
30.2796
 31
0.0
  0
LINE
  8
0
 62
     0
 10
220.939
 20
30.2796
 30
0.0
 11
220.14
 21
30.2796
 31
0.0
  0
LINE
  8
0
 62
     0
 10
220.14
 20
30.2796
 30
0.0
 11
220.14
 21
27.1791
 31
0.0
  0
LINE
  8
0
 62
     0
 10
315.39
 20
27.1791
 30
0.0
 11
316.189
 21
27.1791
 31
0.0
  0
LINE
  8
0
 62
     0
 10
316.189
 20
27.1791
 30
0.0
 11
316.189
 21
26.18
 31
0.0
  0
LINE
  8
0
 62
     0
 10
316.189
 20
26.18
 30
0.0
 11
330.189
 21
26.18
 31
0.0
  0
LINE
  8
0
 62
     0
 10
330.189
 20
26.18
 30
0.0
 11
330.189
 21
27.1791
 31
0.0
  0
LINE
  8
0
 62
     0
 10
330.189
 20
27.1791
 30
0.0
 11
330.99
 21
27.1791
 31
0.0
  0
LINE
  8
0
 62
     0
 10
330.99
 20
27.1791
 30
0.0
 11
330.99
 21
30.2796
 31
0.0
  0
LINE
  8
0
 62
     0
 10
330.99
 20
30.2796
 30
0.0
 11
330.189
 21
30.2796
 31
0.0
  0
LINE
  8
0
 62
     0
 10
330.189
 20
30.2796
 30
0.0
 11
330.189
 21
36.0796
 31
0.0
  0
LINE
  8
0
 62
     0
 10
330.189
 20
36.0796
 30
0.0
 11
330.99
 21
36.0796
 31
0.0
  0
LINE
  8
0
 62
     0
 10
330.99
 20
36.0796
 30
0.0
 11
330.99
 21
39.1791
 31
0.0
  0
LINE
  8
0
 62
     0
 10
330.99
 20
39.1791
 30
0.0
 11
330.189
 21
39.1791
 31
0.0
  0
LINE
  8
0
 62
     0
 10
330.189
 20
39.1791
 30
0.0
 11
330.189
 21
40.1796
 31
0.0
  0
LINE
  8
0
 62
     0
 10
330.189
 20
40.1796
 30
0.0
 11
316.189
 21
40.1796
 31
0.0
  0
LINE
  8
0
 62
     0
 10
316.189
 20
40.1796
 30
0.0
 11
316.189
 21
39.1791
 31
0.0
  0
LINE
  8
0
 62
     0
 10
316.189
 20
39.1791
 30
0.0
 11
315.39
 21
39.1791
 31
0.0
  0
LINE
  8
0
 62
     0
 10
315.39
 20
39.1791
 30
0.0
 11
315.39
 21
36.0796
 31
0.0
  0
LINE
  8
0
 62
     0
 10
315.39
 20
36.0796
 30
0.0
 11
316.189
 21
36.0796
 31
0.0
  0
LINE
  8
0
 62
     0
 10
316.189
 20
36.0796
 30
0.0
 11
316.189
 21
30.2796
 31
0.0
  0
LINE
  8
0
 62
     0
 10
316.189
 20
30.2796
 30
0.0
 11
315.39
 21
30.2796
 31
0.0
  0
LINE
  8
0
 62
     0
 10
315.39
 20
30.2796
 30
0.0
 11
315.39
 21
27.1791
 31
0.0
  0
LINE
  8
0
 62
     0
 10
12.9701
 20
46.2291
 30
0.0
 11
13.7708
 21
46.2291
 31
0.0
  0
LINE
  8
0
 62
     0
 10
13.7708
 20
46.2291
 30
0.0
 11
13.7708
 21
45.23
 31
0.0
  0
LINE
  8
0
 62
     0
 10
13.7708
 20
45.23
 30
0.0
 11
27.7702
 21
45.23
 31
0.0
  0
LINE
  8
0
 62
     0
 10
27.7702
 20
45.23
 30
0.0
 11
27.7702
 21
46.2291
 31
0.0
  0
LINE
  8
0
 62
     0
 10
27.7702
 20
46.2291
 30
0.0
 11
28.5709
 21
46.2291
 31
0.0
  0
LINE
  8
0
 62
     0
 10
28.5709
 20
46.2291
 30
0.0
 11
28.5709
 21
49.3296
 31
0.0
  0
LINE
  8
0
 62
     0
 10
28.5709
 20
49.3296
 30
0.0
 11
27.7702
 21
49.3296
 31
0.0
  0
LINE
  8
0
 62
     0
 10
27.7702
 20
49.3296
 30
0.0
 11
27.7702
 21
55.1296
 31
0.0
  0
LINE
  8
0
 62
     0
 10
27.7702
 20
55.1296
 30
0.0
 11
28.5709
 21
55.1296
 31
0.0
  0
LINE
  8
0
 62
     0
 10
28.5709
 20
55.1296
 30
0.0
 11
28.5709
 21
58.2291
 31
0.0
  0
LINE
  8
0
 62
     0
 10
28.5709
 20
58.2291
 30
0.0
 11
27.7702
 21
58.2291
 31
0.0
  0
LINE
  8
0
 62
     0
 10
27.7702
 20
58.2291
 30
0.0
 11
27.7702
 21
59.2296
 31
0.0
  0
LINE
  8
0
 62
     0
 10
27.7702
 20
59.2296
 30
0.0
 11
13.7708
 21
59.2296
 31
0.0
  0
LINE
  8
0
 62
     0
 10
13.7708
 20
59.2296
 30
0.0
 11
13.7708
 21
58.2291
 31
0.0
  0
LINE
  8
0
 62
     0
 10
13.7708
 20
58.2291
 30
0.0
 11
12.9701
 21
58.2291
 31
0.0
  0
LINE
  8
0
 62
     0
 10
12.9701
 20
58.2291
 30
0.0
 11
12.9701
 21
55.1296
 31
0.0
  0
LINE
  8
0
 62
     0
 10
12.9701
 20
55.1296
 30
0.0
 11
13.7708
 21
55.1296
 31
0.0
  0
LINE
  8
0
 62
     0
 10
13.7708
 20
55.1296
 30
0.0
 11
13.7708
 21
49.3296
 31
0.0
  0
LINE
  8
0
 62
     0
 10
13.7708
 20
49.3296
 30
0.0
 11
12.9701
 21
49.3296
 31
0.0
  0
LINE
  8
0
 62
     0
 10
12.9701
 20
49.3296
 30
0.0
 11
12.9701
 21
46.2291
 31
0.0
  0
LINE
  8
0
 62
     0
 10
39.1654
 20
46.2291
 30
0.0
 11
39.9644
 21
46.2291
 31
0.0
  0
LINE
  8
0
 62
     0
 10
39.9644
 20
46.2291
 30
0.0
 11
39.9644
 21
45.23
 31
0.0
  0
LINE
  8
0
 62
     0
 10
39.9644
 20
45.23
 30
0.0
 11
53.9641
 21
45.23
 31
0.0
  0
LINE
  8
0
 62
     0
 10
53.9641
 20
45.23
 30
0.0
 11
53.9641
 21
46.2291
 31
0.0
  0
LINE
  8
0
 62
     0
 10
53.9641
 20
46.2291
 30
0.0
 11
54.7645
 21
46.2291
 31
0.0
  0
LINE
  8
0
 62
     0
 10
54.7645
 20
46.2291
 30
0.0
 11
54.7645
 21
49.3296
 31
0.0
  0
LINE
  8
0
 62
     0
 10
54.7645
 20
49.3296
 30
0.0
 11
53.9641
 21
49.3296
 31
0.0
  0
LINE
  8
0
 62
     0
 10
53.9641
 20
49.3296
 30
0.0
 11
53.9641
 21
55.1296
 31
0.0
  0
LINE
  8
0
 62
     0
 10
53.9641
 20
55.1296
 30
0.0
 11
54.7645
 21
55.1296
 31
0.0
  0
LINE
  8
0
 62
     0
 10
54.7645
 20
55.1296
 30
0.0
 11
54.7645
 21
58.2291
 31
0.0
  0
LINE
  8
0
 62
     0
 10
54.7645
 20
58.2291
 30
0.0
 11
53.9641
 21
58.2291
 31
0.0
  0
LINE
  8
0
 62
     0
 10
53.9641
 20
58.2291
 30
0.0
 11
53.9641
 21
59.2296
 31
0.0
  0
LINE
  8
0
 62
     0
 10
53.9641
 20
59.2296
 30
0.0
 11
39.9644
 21
59.2296
 31
0.0
  0
LINE
  8
0
 62
     0
 10
39.9644
 20
59.2296
 30
0.0
 11
39.9644
 21
58.2291
 31
0.0
  0
LINE
  8
0
 62
     0
 10
39.9644
 20
58.2291
 30
0.0
 11
39.1654
 21
58.2291
 31
0.0
  0
LINE
  8
0
 62
     0
 10
39.1654
 20
58.2291
 30
0.0
 11
39.1654
 21
55.1296
 31
0.0
  0
LINE
  8
0
 62
     0
 10
39.1654
 20
55.1296
 30
0.0
 11
39.9644
 21
55.1296
 31
0.0
  0
LINE
  8
0
 62
     0
 10
39.9644
 20
55.1296
 30
0.0
 11
39.9644
 21
49.3296
 31
0.0
  0
LINE
  8
0
 62
     0
 10
39.9644
 20
49.3296
 30
0.0
 11
39.1654
 21
49.3296
 31
0.0
  0
LINE
  8
0
 62
     0
 10
39.1654
 20
49.3296
 30
0.0
 11
39.1654
 21
46.2291
 31
0.0
  0
LINE
  8
0
 62
     0
 10
58.2154
 20
46.2291
 30
0.0
 11
59.0144
 21
46.2291
 31
0.0
  0
LINE
  8
0
 62
     0
 10
59.0144
 20
46.2291
 30
0.0
 11
59.0144
 21
45.23
 31
0.0
  0
LINE
  8
0
 62
     0
 10
59.0144
 20
45.23
 30
0.0
 11
73.0141
 21
45.23
 31
0.0
  0
LINE
  8
0
 62
     0
 10
73.0141
 20
45.23
 30
0.0
 11
73.0141
 21
46.2291
 31
0.0
  0
LINE
  8
0
 62
     0
 10
73.0141
 20
46.2291
 30
0.0
 11
73.8145
 21
46.2291
 31
0.0
  0
LINE
  8
0
 62
     0
 10
73.8145
 20
46.2291
 30
0.0
 11
73.8145
 21
49.3296
 31
0.0
  0
LINE
  8
0
 62
     0
 10
73.8145
 20
49.3296
 30
0.0
 11
73.0141
 21
49.3296
 31
0.0
  0
LINE
  8
0
 62
     0
 10
73.0141
 20
49.3296
 30
0.0
 11
73.0141
 21
55.1296
 31
0.0
  0
LINE
  8
0
 62
     0
 10
73.0141
 20
55.1296
 30
0.0
 11
73.8145
 21
55.1296
 31
0.0
  0
LINE
  8
0
 62
     0
 10
73.8145
 20
55.1296
 30
0.0
 11
73.8145
 21
58.2291
 31
0.0
  0
LINE
  8
0
 62
     0
 10
73.8145
 20
58.2291
 30
0.0
 11
73.0141
 21
58.2291
 31
0.0
  0
LINE
  8
0
 62
     0
 10
73.0141
 20
58.2291
 30
0.0
 11
73.0141
 21
59.2296
 31
0.0
  0
LINE
  8
0
 62
     0
 10
73.0141
 20
59.2296
 30
0.0
 11
59.0144
 21
59.2296
 31
0.0
  0
LINE
  8
0
 62
     0
 10
59.0144
 20
59.2296
 30
0.0
 11
59.0144
 21
58.2291
 31
0.0
  0
LINE
  8
0
 62
     0
 10
59.0144
 20
58.2291
 30
0.0
 11
58.2154
 21
58.2291
 31
0.0
  0
LINE
  8
0
 62
     0
 10
58.2154
 20
58.2291
 30
0.0
 11
58.2154
 21
55.1296
 31
0.0
  0
LINE
  8
0
 62
     0
 10
58.2154
 20
55.1296
 30
0.0
 11
59.0144
 21
55.1296
 31
0.0
  0
LINE
  8
0
 62
     0
 10
59.0144
 20
55.1296
 30
0.0
 11
59.0144
 21
49.3296
 31
0.0
  0
LINE
  8
0
 62
     0
 10
59.0144
 20
49.3296
 30
0.0
 11
58.2154
 21
49.3296
 31
0.0
  0
LINE
  8
0
 62
     0
 10
58.2154
 20
49.3296
 30
0.0
 11
58.2154
 21
46.2291
 31
0.0
  0
LINE
  8
0
 62
     0
 10
77.2654
 20
46.2291
 30
0.0
 11
78.0644
 21
46.2291
 31
0.0
  0
LINE
  8
0
 62
     0
 10
78.0644
 20
46.2291
 30
0.0
 11
78.0644
 21
45.23
 31
0.0
  0
LINE
  8
0
 62
     0
 10
78.0644
 20
45.23
 30
0.0
 11
92.0641
 21
45.23
 31
0.0
  0
LINE
  8
0
 62
     0
 10
92.0641
 20
45.23
 30
0.0
 11
92.0641
 21
46.2291
 31
0.0
  0
LINE
  8
0
 62
     0
 10
92.0641
 20
46.2291
 30
0.0
 11
92.8645
 21
46.2291
 31
0.0
  0
LINE
  8
0
 62
     0
 10
92.8645
 20
46.2291
 30
0.0
 11
92.8645
 21
49.3296
 31
0.0
  0
LINE
  8
0
 62
     0
 10
92.8645
 20
49.3296
 30
0.0
 11
92.0641
 21
49.3296
 31
0.0
  0
LINE
  8
0
 62
     0
 10
92.0641
 20
49.3296
 30
0.0
 11
92.0641
 21
55.1296
 31
0.0
  0
LINE
  8
0
 62
     0
 10
92.0641
 20
55.1296
 30
0.0
 11
92.8645
 21
55.1296
 31
0.0
  0
LINE
  8
0
 62
     0
 10
92.8645
 20
55.1296
 30
0.0
 11
92.8645
 21
58.2291
 31
0.0
  0
LINE
  8
0
 62
     0
 10
92.8645
 20
58.2291
 30
0.0
 11
92.0641
 21
58.2291
 31
0.0
  0
LINE
  8
0
 62
     0
 10
92.0641
 20
58.2291
 30
0.0
 11
92.0641
 21
59.2296
 31
0.0
  0
LINE
  8
0
 62
     0
 10
92.0641
 20
59.2296
 30
0.0
 11
78.0644
 21
59.2296
 31
0.0
  0
LINE
  8
0
 62
     0
 10
78.0644
 20
59.2296
 30
0.0
 11
78.0644
 21
58.2291
 31
0.0
  0
LINE
  8
0
 62
     0
 10
78.0644
 20
58.2291
 30
0.0
 11
77.2654
 21
58.2291
 31
0.0
  0
LINE
  8
0
 62
     0
 10
77.2654
 20
58.2291
 30
0.0
 11
77.2654
 21
55.1296
 31
0.0
  0
LINE
  8
0
 62
     0
 10
77.2654
 20
55.1296
 30
0.0
 11
78.0644
 21
55.1296
 31
0.0
  0
LINE
  8
0
 62
     0
 10
78.0644
 20
55.1296
 30
0.0
 11
78.0644
 21
49.3296
 31
0.0
  0
LINE
  8
0
 62
     0
 10
78.0644
 20
49.3296
 30
0.0
 11
77.2654
 21
49.3296
 31
0.0
  0
LINE
  8
0
 62
     0
 10
77.2654
 20
49.3296
 30
0.0
 11
77.2654
 21
46.2291
 31
0.0
  0
LINE
  8
0
 62
     0
 10
96.3154
 20
46.2291
 30
0.0
 11
97.1144
 21
46.2291
 31
0.0
  0
LINE
  8
0
 62
     0
 10
97.1144
 20
46.2291
 30
0.0
 11
97.1144
 21
45.23
 31
0.0
  0
LINE
  8
0
 62
     0
 10
97.1144
 20
45.23
 30
0.0
 11
111.114
 21
45.23
 31
0.0
  0
LINE
  8
0
 62
     0
 10
111.114
 20
45.23
 30
0.0
 11
111.114
 21
46.2291
 31
0.0
  0
LINE
  8
0
 62
     0
 10
111.114
 20
46.2291
 30
0.0
 11
111.915
 21
46.2291
 31
0.0
  0
LINE
  8
0
 62
     0
 10
111.915
 20
46.2291
 30
0.0
 11
111.915
 21
49.3296
 31
0.0
  0
LINE
  8
0
 62
     0
 10
111.915
 20
49.3296
 30
0.0
 11
111.114
 21
49.3296
 31
0.0
  0
LINE
  8
0
 62
     0
 10
111.114
 20
49.3296
 30
0.0
 11
111.114
 21
55.1296
 31
0.0
  0
LINE
  8
0
 62
     0
 10
111.114
 20
55.1296
 30
0.0
 11
111.915
 21
55.1296
 31
0.0
  0
LINE
  8
0
 62
     0
 10
111.915
 20
55.1296
 30
0.0
 11
111.915
 21
58.2291
 31
0.0
  0
LINE
  8
0
 62
     0
 10
111.915
 20
58.2291
 30
0.0
 11
111.114
 21
58.2291
 31
0.0
  0
LINE
  8
0
 62
     0
 10
111.114
 20
58.2291
 30
0.0
 11
111.114
 21
59.2296
 31
0.0
  0
LINE
  8
0
 62
     0
 10
111.114
 20
59.2296
 30
0.0
 11
97.1144
 21
59.2296
 31
0.0
  0
LINE
  8
0
 62
     0
 10
97.1144
 20
59.2296
 30
0.0
 11
97.1144
 21
58.2291
 31
0.0
  0
LINE
  8
0
 62
     0
 10
97.1144
 20
58.2291
 30
0.0
 11
96.3154
 21
58.2291
 31
0.0
  0
LINE
  8
0
 62
     0
 10
96.3154
 20
58.2291
 30
0.0
 11
96.3154
 21
55.1296
 31
0.0
  0
LINE
  8
0
 62
     0
 10
96.3154
 20
55.1296
 30
0.0
 11
97.1144
 21
55.1296
 31
0.0
  0
LINE
  8
0
 62
     0
 10
97.1144
 20
55.1296
 30
0.0
 11
97.1144
 21
49.3296
 31
0.0
  0
LINE
  8
0
 62
     0
 10
97.1144
 20
49.3296
 30
0.0
 11
96.3154
 21
49.3296
 31
0.0
  0
LINE
  8
0
 62
     0
 10
96.3154
 20
49.3296
 30
0.0
 11
96.3154
 21
46.2291
 31
0.0
  0
LINE
  8
0
 62
     0
 10
115.365
 20
46.2291
 30
0.0
 11
116.164
 21
46.2291
 31
0.0
  0
LINE
  8
0
 62
     0
 10
116.164
 20
46.2291
 30
0.0
 11
116.164
 21
45.23
 31
0.0
  0
LINE
  8
0
 62
     0
 10
116.164
 20
45.23
 30
0.0
 11
130.164
 21
45.23
 31
0.0
  0
LINE
  8
0
 62
     0
 10
130.164
 20
45.23
 30
0.0
 11
130.164
 21
46.2291
 31
0.0
  0
LINE
  8
0
 62
     0
 10
130.164
 20
46.2291
 30
0.0
 11
130.965
 21
46.2291
 31
0.0
  0
LINE
  8
0
 62
     0
 10
130.965
 20
46.2291
 30
0.0
 11
130.965
 21
49.3296
 31
0.0
  0
LINE
  8
0
 62
     0
 10
130.965
 20
49.3296
 30
0.0
 11
130.164
 21
49.3296
 31
0.0
  0
LINE
  8
0
 62
     0
 10
130.164
 20
49.3296
 30
0.0
 11
130.164
 21
55.1296
 31
0.0
  0
LINE
  8
0
 62
     0
 10
130.164
 20
55.1296
 30
0.0
 11
130.965
 21
55.1296
 31
0.0
  0
LINE
  8
0
 62
     0
 10
130.965
 20
55.1296
 30
0.0
 11
130.965
 21
58.2291
 31
0.0
  0
LINE
  8
0
 62
     0
 10
130.965
 20
58.2291
 30
0.0
 11
130.164
 21
58.2291
 31
0.0
  0
LINE
  8
0
 62
     0
 10
130.164
 20
58.2291
 30
0.0
 11
130.164
 21
59.2296
 31
0.0
  0
LINE
  8
0
 62
     0
 10
130.164
 20
59.2296
 30
0.0
 11
116.164
 21
59.2296
 31
0.0
  0
LINE
  8
0
 62
     0
 10
116.164
 20
59.2296
 30
0.0
 11
116.164
 21
58.2291
 31
0.0
  0
LINE
  8
0
 62
     0
 10
116.164
 20
58.2291
 30
0.0
 11
115.365
 21
58.2291
 31
0.0
  0
LINE
  8
0
 62
     0
 10
115.365
 20
58.2291
 30
0.0
 11
115.365
 21
55.1296
 31
0.0
  0
LINE
  8
0
 62
     0
 10
115.365
 20
55.1296
 30
0.0
 11
116.164
 21
55.1296
 31
0.0
  0
LINE
  8
0
 62
     0
 10
116.164
 20
55.1296
 30
0.0
 11
116.164
 21
49.3296
 31
0.0
  0
LINE
  8
0
 62
     0
 10
116.164
 20
49.3296
 30
0.0
 11
115.365
 21
49.3296
 31
0.0
  0
LINE
  8
0
 62
     0
 10
115.365
 20
49.3296
 30
0.0
 11
115.365
 21
46.2291
 31
0.0
  0
LINE
  8
0
 62
     0
 10
134.415
 20
46.2291
 30
0.0
 11
135.214
 21
46.2291
 31
0.0
  0
LINE
  8
0
 62
     0
 10
135.214
 20
46.2291
 30
0.0
 11
135.214
 21
45.23
 31
0.0
  0
LINE
  8
0
 62
     0
 10
135.214
 20
45.23
 30
0.0
 11
149.214
 21
45.23
 31
0.0
  0
LINE
  8
0
 62
     0
 10
149.214
 20
45.23
 30
0.0
 11
149.214
 21
46.2291
 31
0.0
  0
LINE
  8
0
 62
     0
 10
149.214
 20
46.2291
 30
0.0
 11
150.015
 21
46.2291
 31
0.0
  0
LINE
  8
0
 62
     0
 10
150.015
 20
46.2291
 30
0.0
 11
150.015
 21
49.3296
 31
0.0
  0
LINE
  8
0
 62
     0
 10
150.015
 20
49.3296
 30
0.0
 11
149.214
 21
49.3296
 31
0.0
  0
LINE
  8
0
 62
     0
 10
149.214
 20
49.3296
 30
0.0
 11
149.214
 21
55.1296
 31
0.0
  0
LINE
  8
0
 62
     0
 10
149.214
 20
55.1296
 30
0.0
 11
150.015
 21
55.1296
 31
0.0
  0
LINE
  8
0
 62
     0
 10
150.015
 20
55.1296
 30
0.0
 11
150.015
 21
58.2291
 31
0.0
  0
LINE
  8
0
 62
     0
 10
150.015
 20
58.2291
 30
0.0
 11
149.214
 21
58.2291
 31
0.0
  0
LINE
  8
0
 62
     0
 10
149.214
 20
58.2291
 30
0.0
 11
149.214
 21
59.2296
 31
0.0
  0
LINE
  8
0
 62
     0
 10
149.214
 20
59.2296
 30
0.0
 11
135.214
 21
59.2296
 31
0.0
  0
LINE
  8
0
 62
     0
 10
135.214
 20
59.2296
 30
0.0
 11
135.214
 21
58.2291
 31
0.0
  0
LINE
  8
0
 62
     0
 10
135.214
 20
58.2291
 30
0.0
 11
134.415
 21
58.2291
 31
0.0
  0
LINE
  8
0
 62
     0
 10
134.415
 20
58.2291
 30
0.0
 11
134.415
 21
55.1296
 31
0.0
  0
LINE
  8
0
 62
     0
 10
134.415
 20
55.1296
 30
0.0
 11
135.214
 21
55.1296
 31
0.0
  0
LINE
  8
0
 62
     0
 10
135.214
 20
55.1296
 30
0.0
 11
135.214
 21
49.3296
 31
0.0
  0
LINE
  8
0
 62
     0
 10
135.214
 20
49.3296
 30
0.0
 11
134.415
 21
49.3296
 31
0.0
  0
LINE
  8
0
 62
     0
 10
134.415
 20
49.3296
 30
0.0
 11
134.415
 21
46.2291
 31
0.0
  0
LINE
  8
0
 62
     0
 10
153.465
 20
46.2291
 30
0.0
 11
154.264
 21
46.2291
 31
0.0
  0
LINE
  8
0
 62
     0
 10
154.264
 20
46.2291
 30
0.0
 11
154.264
 21
45.23
 31
0.0
  0
LINE
  8
0
 62
     0
 10
154.264
 20
45.23
 30
0.0
 11
168.264
 21
45.23
 31
0.0
  0
LINE
  8
0
 62
     0
 10
168.264
 20
45.23
 30
0.0
 11
168.264
 21
46.2291
 31
0.0
  0
LINE
  8
0
 62
     0
 10
168.264
 20
46.2291
 30
0.0
 11
169.065
 21
46.2291
 31
0.0
  0
LINE
  8
0
 62
     0
 10
169.065
 20
46.2291
 30
0.0
 11
169.065
 21
49.3296
 31
0.0
  0
LINE
  8
0
 62
     0
 10
169.065
 20
49.3296
 30
0.0
 11
168.264
 21
49.3296
 31
0.0
  0
LINE
  8
0
 62
     0
 10
168.264
 20
49.3296
 30
0.0
 11
168.264
 21
55.1296
 31
0.0
  0
LINE
  8
0
 62
     0
 10
168.264
 20
55.1296
 30
0.0
 11
169.065
 21
55.1296
 31
0.0
  0
LINE
  8
0
 62
     0
 10
169.065
 20
55.1296
 30
0.0
 11
169.065
 21
58.2291
 31
0.0
  0
LINE
  8
0
 62
     0
 10
169.065
 20
58.2291
 30
0.0
 11
168.264
 21
58.2291
 31
0.0
  0
LINE
  8
0
 62
     0
 10
168.264
 20
58.2291
 30
0.0
 11
168.264
 21
59.2296
 31
0.0
  0
LINE
  8
0
 62
     0
 10
168.264
 20
59.2296
 30
0.0
 11
154.264
 21
59.2296
 31
0.0
  0
LINE
  8
0
 62
     0
 10
154.264
 20
59.2296
 30
0.0
 11
154.264
 21
58.2291
 31
0.0
  0
LINE
  8
0
 62
     0
 10
154.264
 20
58.2291
 30
0.0
 11
153.465
 21
58.2291
 31
0.0
  0
LINE
  8
0
 62
     0
 10
153.465
 20
58.2291
 30
0.0
 11
153.465
 21
55.1296
 31
0.0
  0
LINE
  8
0
 62
     0
 10
153.465
 20
55.1296
 30
0.0
 11
154.264
 21
55.1296
 31
0.0
  0
LINE
  8
0
 62
     0
 10
154.264
 20
55.1296
 30
0.0
 11
154.264
 21
49.3296
 31
0.0
  0
LINE
  8
0
 62
     0
 10
154.264
 20
49.3296
 30
0.0
 11
153.465
 21
49.3296
 31
0.0
  0
LINE
  8
0
 62
     0
 10
153.465
 20
49.3296
 30
0.0
 11
153.465
 21
46.2291
 31
0.0
  0
LINE
  8
0
 62
     0
 10
172.515
 20
46.2291
 30
0.0
 11
173.314
 21
46.2291
 31
0.0
  0
LINE
  8
0
 62
     0
 10
173.314
 20
46.2291
 30
0.0
 11
173.314
 21
45.23
 31
0.0
  0
LINE
  8
0
 62
     0
 10
173.314
 20
45.23
 30
0.0
 11
187.314
 21
45.23
 31
0.0
  0
LINE
  8
0
 62
     0
 10
187.314
 20
45.23
 30
0.0
 11
187.314
 21
46.2291
 31
0.0
  0
LINE
  8
0
 62
     0
 10
187.314
 20
46.2291
 30
0.0
 11
188.115
 21
46.2291
 31
0.0
  0
LINE
  8
0
 62
     0
 10
188.115
 20
46.2291
 30
0.0
 11
188.115
 21
49.3296
 31
0.0
  0
LINE
  8
0
 62
     0
 10
188.115
 20
49.3296
 30
0.0
 11
187.314
 21
49.3296
 31
0.0
  0
LINE
  8
0
 62
     0
 10
187.314
 20
49.3296
 30
0.0
 11
187.314
 21
55.1296
 31
0.0
  0
LINE
  8
0
 62
     0
 10
187.314
 20
55.1296
 30
0.0
 11
188.115
 21
55.1296
 31
0.0
  0
LINE
  8
0
 62
     0
 10
188.115
 20
55.1296
 30
0.0
 11
188.115
 21
58.2291
 31
0.0
  0
LINE
  8
0
 62
     0
 10
188.115
 20
58.2291
 30
0.0
 11
187.314
 21
58.2291
 31
0.0
  0
LINE
  8
0
 62
     0
 10
187.314
 20
58.2291
 30
0.0
 11
187.314
 21
59.2296
 31
0.0
  0
LINE
  8
0
 62
     0
 10
187.314
 20
59.2296
 30
0.0
 11
173.314
 21
59.2296
 31
0.0
  0
LINE
  8
0
 62
     0
 10
173.314
 20
59.2296
 30
0.0
 11
173.314
 21
58.2291
 31
0.0
  0
LINE
  8
0
 62
     0
 10
173.314
 20
58.2291
 30
0.0
 11
172.515
 21
58.2291
 31
0.0
  0
LINE
  8
0
 62
     0
 10
172.515
 20
58.2291
 30
0.0
 11
172.515
 21
55.1296
 31
0.0
  0
LINE
  8
0
 62
     0
 10
172.515
 20
55.1296
 30
0.0
 11
173.314
 21
55.1296
 31
0.0
  0
LINE
  8
0
 62
     0
 10
173.314
 20
55.1296
 30
0.0
 11
173.314
 21
49.3296
 31
0.0
  0
LINE
  8
0
 62
     0
 10
173.314
 20
49.3296
 30
0.0
 11
172.515
 21
49.3296
 31
0.0
  0
LINE
  8
0
 62
     0
 10
172.515
 20
49.3296
 30
0.0
 11
172.515
 21
46.2291
 31
0.0
  0
LINE
  8
0
 62
     0
 10
191.565
 20
46.2291
 30
0.0
 11
192.364
 21
46.2291
 31
0.0
  0
LINE
  8
0
 62
     0
 10
192.364
 20
46.2291
 30
0.0
 11
192.364
 21
45.23
 31
0.0
  0
LINE
  8
0
 62
     0
 10
192.364
 20
45.23
 30
0.0
 11
206.364
 21
45.23
 31
0.0
  0
LINE
  8
0
 62
     0
 10
206.364
 20
45.23
 30
0.0
 11
206.364
 21
46.2291
 31
0.0
  0
LINE
  8
0
 62
     0
 10
206.364
 20
46.2291
 30
0.0
 11
207.165
 21
46.2291
 31
0.0
  0
LINE
  8
0
 62
     0
 10
207.165
 20
46.2291
 30
0.0
 11
207.165
 21
49.3296
 31
0.0
  0
LINE
  8
0
 62
     0
 10
207.165
 20
49.3296
 30
0.0
 11
206.364
 21
49.3296
 31
0.0
  0
LINE
  8
0
 62
     0
 10
206.364
 20
49.3296
 30
0.0
 11
206.364
 21
55.1296
 31
0.0
  0
LINE
  8
0
 62
     0
 10
206.364
 20
55.1296
 30
0.0
 11
207.165
 21
55.1296
 31
0.0
  0
LINE
  8
0
 62
     0
 10
207.165
 20
55.1296
 30
0.0
 11
207.165
 21
58.2291
 31
0.0
  0
LINE
  8
0
 62
     0
 10
207.165
 20
58.2291
 30
0.0
 11
206.364
 21
58.2291
 31
0.0
  0
LINE
  8
0
 62
     0
 10
206.364
 20
58.2291
 30
0.0
 11
206.364
 21
59.2296
 31
0.0
  0
LINE
  8
0
 62
     0
 10
206.364
 20
59.2296
 30
0.0
 11
192.364
 21
59.2296
 31
0.0
  0
LINE
  8
0
 62
     0
 10
192.364
 20
59.2296
 30
0.0
 11
192.364
 21
58.2291
 31
0.0
  0
LINE
  8
0
 62
     0
 10
192.364
 20
58.2291
 30
0.0
 11
191.565
 21
58.2291
 31
0.0
  0
LINE
  8
0
 62
     0
 10
191.565
 20
58.2291
 30
0.0
 11
191.565
 21
55.1296
 31
0.0
  0
LINE
  8
0
 62
     0
 10
191.565
 20
55.1296
 30
0.0
 11
192.364
 21
55.1296
 31
0.0
  0
LINE
  8
0
 62
     0
 10
192.364
 20
55.1296
 30
0.0
 11
192.364
 21
49.3296
 31
0.0
  0
LINE
  8
0
 62
     0
 10
192.364
 20
49.3296
 30
0.0
 11
191.565
 21
49.3296
 31
0.0
  0
LINE
  8
0
 62
     0
 10
191.565
 20
49.3296
 30
0.0
 11
191.565
 21
46.2291
 31
0.0
  0
LINE
  8
0
 62
     0
 10
210.615
 20
46.2291
 30
0.0
 11
211.414
 21
46.2291
 31
0.0
  0
LINE
  8
0
 62
     0
 10
211.414
 20
46.2291
 30
0.0
 11
211.414
 21
45.23
 31
0.0
  0
LINE
  8
0
 62
     0
 10
211.414
 20
45.23
 30
0.0
 11
225.414
 21
45.23
 31
0.0
  0
LINE
  8
0
 62
     0
 10
225.414
 20
45.23
 30
0.0
 11
225.414
 21
46.2291
 31
0.0
  0
LINE
  8
0
 62
     0
 10
225.414
 20
46.2291
 30
0.0
 11
226.215
 21
46.2291
 31
0.0
  0
LINE
  8
0
 62
     0
 10
226.215
 20
46.2291
 30
0.0
 11
226.215
 21
49.3296
 31
0.0
  0
LINE
  8
0
 62
     0
 10
226.215
 20
49.3296
 30
0.0
 11
225.414
 21
49.3296
 31
0.0
  0
LINE
  8
0
 62
     0
 10
225.414
 20
49.3296
 30
0.0
 11
225.414
 21
55.1296
 31
0.0
  0
LINE
  8
0
 62
     0
 10
225.414
 20
55.1296
 30
0.0
 11
226.215
 21
55.1296
 31
0.0
  0
LINE
  8
0
 62
     0
 10
226.215
 20
55.1296
 30
0.0
 11
226.215
 21
58.2291
 31
0.0
  0
LINE
  8
0
 62
     0
 10
226.215
 20
58.2291
 30
0.0
 11
225.414
 21
58.2291
 31
0.0
  0
LINE
  8
0
 62
     0
 10
225.414
 20
58.2291
 30
0.0
 11
225.414
 21
59.2296
 31
0.0
  0
LINE
  8
0
 62
     0
 10
225.414
 20
59.2296
 30
0.0
 11
211.414
 21
59.2296
 31
0.0
  0
LINE
  8
0
 62
     0
 10
211.414
 20
59.2296
 30
0.0
 11
211.414
 21
58.2291
 31
0.0
  0
LINE
  8
0
 62
     0
 10
211.414
 20
58.2291
 30
0.0
 11
210.615
 21
58.2291
 31
0.0
  0
LINE
  8
0
 62
     0
 10
210.615
 20
58.2291
 30
0.0
 11
210.615
 21
55.1296
 31
0.0
  0
LINE
  8
0
 62
     0
 10
210.615
 20
55.1296
 30
0.0
 11
211.414
 21
55.1296
 31
0.0
  0
LINE
  8
0
 62
     0
 10
211.414
 20
55.1296
 30
0.0
 11
211.414
 21
49.3296
 31
0.0
  0
LINE
  8
0
 62
     0
 10
211.414
 20
49.3296
 30
0.0
 11
210.615
 21
49.3296
 31
0.0
  0
LINE
  8
0
 62
     0
 10
210.615
 20
49.3296
 30
0.0
 11
210.615
 21
46.2291
 31
0.0
  0
LINE
  8
0
 62
     0
 10
229.665
 20
46.2291
 30
0.0
 11
230.464
 21
46.2291
 31
0.0
  0
LINE
  8
0
 62
     0
 10
230.464
 20
46.2291
 30
0.0
 11
230.464
 21
45.23
 31
0.0
  0
LINE
  8
0
 62
     0
 10
230.464
 20
45.23
 30
0.0
 11
244.464
 21
45.23
 31
0.0
  0
LINE
  8
0
 62
     0
 10
244.464
 20
45.23
 30
0.0
 11
244.464
 21
46.2291
 31
0.0
  0
LINE
  8
0
 62
     0
 10
244.464
 20
46.2291
 30
0.0
 11
245.265
 21
46.2291
 31
0.0
  0
LINE
  8
0
 62
     0
 10
245.265
 20
46.2291
 30
0.0
 11
245.265
 21
49.3296
 31
0.0
  0
LINE
  8
0
 62
     0
 10
245.265
 20
49.3296
 30
0.0
 11
244.464
 21
49.3296
 31
0.0
  0
LINE
  8
0
 62
     0
 10
244.464
 20
49.3296
 30
0.0
 11
244.464
 21
55.1296
 31
0.0
  0
LINE
  8
0
 62
     0
 10
244.464
 20
55.1296
 30
0.0
 11
245.265
 21
55.1296
 31
0.0
  0
LINE
  8
0
 62
     0
 10
245.265
 20
55.1296
 30
0.0
 11
245.265
 21
58.2291
 31
0.0
  0
LINE
  8
0
 62
     0
 10
245.265
 20
58.2291
 30
0.0
 11
244.464
 21
58.2291
 31
0.0
  0
LINE
  8
0
 62
     0
 10
244.464
 20
58.2291
 30
0.0
 11
244.464
 21
59.2296
 31
0.0
  0
LINE
  8
0
 62
     0
 10
244.464
 20
59.2296
 30
0.0
 11
230.464
 21
59.2296
 31
0.0
  0
LINE
  8
0
 62
     0
 10
230.464
 20
59.2296
 30
0.0
 11
230.464
 21
58.2291
 31
0.0
  0
LINE
  8
0
 62
     0
 10
230.464
 20
58.2291
 30
0.0
 11
229.665
 21
58.2291
 31
0.0
  0
LINE
  8
0
 62
     0
 10
229.665
 20
58.2291
 30
0.0
 11
229.665
 21
55.1296
 31
0.0
  0
LINE
  8
0
 62
     0
 10
229.665
 20
55.1296
 30
0.0
 11
230.464
 21
55.1296
 31
0.0
  0
LINE
  8
0
 62
     0
 10
230.464
 20
55.1296
 30
0.0
 11
230.464
 21
49.3296
 31
0.0
  0
LINE
  8
0
 62
     0
 10
230.464
 20
49.3296
 30
0.0
 11
229.665
 21
49.3296
 31
0.0
  0
LINE
  8
0
 62
     0
 10
229.665
 20
49.3296
 30
0.0
 11
229.665
 21
46.2291
 31
0.0
  0
LINE
  8
0
 62
     0
 10
248.715
 20
46.2291
 30
0.0
 11
249.513
 21
46.2291
 31
0.0
  0
LINE
  8
0
 62
     0
 10
249.513
 20
46.2291
 30
0.0
 11
249.513
 21
45.23
 31
0.0
  0
LINE
  8
0
 62
     0
 10
249.513
 20
45.23
 30
0.0
 11
263.514
 21
45.23
 31
0.0
  0
LINE
  8
0
 62
     0
 10
263.514
 20
45.23
 30
0.0
 11
263.514
 21
46.2291
 31
0.0
  0
LINE
  8
0
 62
     0
 10
263.514
 20
46.2291
 30
0.0
 11
264.315
 21
46.2291
 31
0.0
  0
LINE
  8
0
 62
     0
 10
264.315
 20
46.2291
 30
0.0
 11
264.315
 21
49.3296
 31
0.0
  0
LINE
  8
0
 62
     0
 10
264.315
 20
49.3296
 30
0.0
 11
263.514
 21
49.3296
 31
0.0
  0
LINE
  8
0
 62
     0
 10
263.514
 20
49.3296
 30
0.0
 11
263.514
 21
55.1296
 31
0.0
  0
LINE
  8
0
 62
     0
 10
263.514
 20
55.1296
 30
0.0
 11
264.315
 21
55.1296
 31
0.0
  0
LINE
  8
0
 62
     0
 10
264.315
 20
55.1296
 30
0.0
 11
264.315
 21
58.2291
 31
0.0
  0
LINE
  8
0
 62
     0
 10
264.315
 20
58.2291
 30
0.0
 11
263.514
 21
58.2291
 31
0.0
  0
LINE
  8
0
 62
     0
 10
263.514
 20
58.2291
 30
0.0
 11
263.514
 21
59.2296
 31
0.0
  0
LINE
  8
0
 62
     0
 10
263.514
 20
59.2296
 30
0.0
 11
249.513
 21
59.2296
 31
0.0
  0
LINE
  8
0
 62
     0
 10
249.513
 20
59.2296
 30
0.0
 11
249.513
 21
58.2291
 31
0.0
  0
LINE
  8
0
 62
     0
 10
249.513
 20
58.2291
 30
0.0
 11
248.715
 21
58.2291
 31
0.0
  0
LINE
  8
0
 62
     0
 10
248.715
 20
58.2291
 30
0.0
 11
248.715
 21
55.1296
 31
0.0
  0
LINE
  8
0
 62
     0
 10
248.715
 20
55.1296
 30
0.0
 11
249.513
 21
55.1296
 31
0.0
  0
LINE
  8
0
 62
     0
 10
249.513
 20
55.1296
 30
0.0
 11
249.513
 21
49.3296
 31
0.0
  0
LINE
  8
0
 62
     0
 10
249.513
 20
49.3296
 30
0.0
 11
248.715
 21
49.3296
 31
0.0
  0
LINE
  8
0
 62
     0
 10
248.715
 20
49.3296
 30
0.0
 11
248.715
 21
46.2291
 31
0.0
  0
LINE
  8
0
 62
     0
 10
283.946
 20
69.5551
 30
0.0
 11
280.846
 21
69.5551
 31
0.0
  0
LINE
  8
0
 62
     0
 10
280.846
 20
69.5551
 30
0.0
 11
280.846
 21
68.7546
 31
0.0
  0
LINE
  8
0
 62
     0
 10
280.846
 20
68.7546
 30
0.0
 11
280.246
 21
68.7546
 31
0.0
  0
LINE
  8
0
 62
     0
 10
280.246
 20
68.7546
 30
0.0
 11
280.246
 21
70.3294
 31
0.0
  0
LINE
  8
0
 62
     0
 10
280.246
 20
70.3294
 30
0.0
 11
283.476
 21
70.3294
 31
0.0
  0
LINE
  8
0
 62
     0
 10
283.476
 20
70.3294
 30
0.0
 11
283.476
 21
72.0037
 31
0.0
  0
LINE
  8
0
 62
     0
 10
283.476
 20
72.0037
 30
0.0
 11
284.395
 21
72.0037
 31
0.0
  0
LINE
  8
0
 62
     0
 10
284.395
 20
72.0037
 30
0.0
 11
284.395
 21
75.3043
 31
0.0
  0
LINE
  8
0
 62
     0
 10
284.395
 20
75.3043
 30
0.0
 11
283.476
 21
75.3043
 31
0.0
  0
LINE
  8
0
 62
     0
 10
283.476
 20
75.3043
 30
0.0
 11
283.476
 21
76.98
 31
0.0
  0
LINE
  8
0
 62
     0
 10
283.476
 20
76.98
 30
0.0
 11
280.246
 21
76.98
 31
0.0
  0
LINE
  8
0
 62
     0
 10
280.246
 20
76.98
 30
0.0
 11
280.246
 21
77.8549
 31
0.0
  0
LINE
  8
0
 62
     0
 10
280.246
 20
77.8549
 30
0.0
 11
277.446
 21
77.8549
 31
0.0
  0
LINE
  8
0
 62
     0
 10
277.446
 20
77.8549
 30
0.0
 11
277.446
 21
76.98
 31
0.0
  0
LINE
  8
0
 62
     0
 10
277.446
 20
76.98
 30
0.0
 11
271.176
 21
76.98
 31
0.0
  0
LINE
  8
0
 62
     0
 10
271.176
 20
76.98
 30
0.0
 11
271.176
 21
75.3043
 31
0.0
  0
LINE
  8
0
 62
     0
 10
271.176
 20
75.3043
 30
0.0
 11
270.196
 21
75.3043
 31
0.0
  0
LINE
  8
0
 62
     0
 10
270.196
 20
75.3043
 30
0.0
 11
270.196
 21
72.0037
 31
0.0
  0
LINE
  8
0
 62
     0
 10
270.196
 20
72.0037
 30
0.0
 11
271.176
 21
72.0037
 31
0.0
  0
LINE
  8
0
 62
     0
 10
271.176
 20
72.0037
 30
0.0
 11
271.176
 21
70.3294
 31
0.0
  0
LINE
  8
0
 62
     0
 10
271.176
 20
70.3294
 30
0.0
 11
275.646
 21
70.3294
 31
0.0
  0
LINE
  8
0
 62
     0
 10
275.646
 20
70.3294
 30
0.0
 11
275.646
 21
68.7546
 31
0.0
  0
LINE
  8
0
 62
     0
 10
275.646
 20
68.7546
 30
0.0
 11
275.045
 21
68.7546
 31
0.0
  0
LINE
  8
0
 62
     0
 10
275.045
 20
68.7546
 30
0.0
 11
275.045
 21
69.5551
 31
0.0
  0
LINE
  8
0
 62
     0
 10
275.045
 20
69.5551
 30
0.0
 11
271.946
 21
69.5551
 31
0.0
  0
LINE
  8
0
 62
     0
 10
271.946
 20
69.5551
 30
0.0
 11
271.946
 21
68.7546
 31
0.0
  0
LINE
  8
0
 62
     0
 10
271.946
 20
68.7546
 30
0.0
 11
270.946
 21
68.7546
 31
0.0
  0
LINE
  8
0
 62
     0
 10
270.946
 20
68.7546
 30
0.0
 11
270.946
 21
54.755
 31
0.0
  0
LINE
  8
0
 62
     0
 10
270.946
 20
54.755
 30
0.0
 11
271.946
 21
54.755
 31
0.0
  0
LINE
  8
0
 62
     0
 10
271.946
 20
54.755
 30
0.0
 11
271.946
 21
53.9542
 31
0.0
  0
LINE
  8
0
 62
     0
 10
271.946
 20
53.9542
 30
0.0
 11
275.045
 21
53.9542
 31
0.0
  0
LINE
  8
0
 62
     0
 10
275.045
 20
53.9542
 30
0.0
 11
275.045
 21
54.755
 31
0.0
  0
LINE
  8
0
 62
     0
 10
275.045
 20
54.755
 30
0.0
 11
275.646
 21
54.755
 31
0.0
  0
LINE
  8
0
 62
     0
 10
275.646
 20
54.755
 30
0.0
 11
275.646
 21
53.1798
 31
0.0
  0
LINE
  8
0
 62
     0
 10
275.646
 20
53.1798
 30
0.0
 11
271.176
 21
53.1798
 31
0.0
  0
LINE
  8
0
 62
     0
 10
271.176
 20
53.1798
 30
0.0
 11
271.176
 21
51.5041
 31
0.0
  0
LINE
  8
0
 62
     0
 10
271.176
 20
51.5041
 30
0.0
 11
270.196
 21
51.5041
 31
0.0
  0
LINE
  8
0
 62
     0
 10
270.196
 20
51.5041
 30
0.0
 11
270.196
 21
48.2053
 31
0.0
  0
LINE
  8
0
 62
     0
 10
270.196
 20
48.2053
 30
0.0
 11
271.176
 21
48.2053
 31
0.0
  0
LINE
  8
0
 62
     0
 10
271.176
 20
48.2053
 30
0.0
 11
271.176
 21
46.5296
 31
0.0
  0
LINE
  8
0
 62
     0
 10
271.176
 20
46.5296
 30
0.0
 11
277.446
 21
46.5296
 31
0.0
  0
LINE
  8
0
 62
     0
 10
277.446
 20
46.5296
 30
0.0
 11
277.446
 21
45.6544
 31
0.0
  0
LINE
  8
0
 62
     0
 10
277.446
 20
45.6544
 30
0.0
 11
280.246
 21
45.6544
 31
0.0
  0
LINE
  8
0
 62
     0
 10
280.246
 20
45.6544
 30
0.0
 11
280.246
 21
46.5296
 31
0.0
  0
LINE
  8
0
 62
     0
 10
280.246
 20
46.5296
 30
0.0
 11
283.476
 21
46.5296
 31
0.0
  0
LINE
  8
0
 62
     0
 10
283.476
 20
46.5296
 30
0.0
 11
283.476
 21
48.2053
 31
0.0
  0
LINE
  8
0
 62
     0
 10
283.476
 20
48.2053
 30
0.0
 11
284.395
 21
48.2053
 31
0.0
  0
LINE
  8
0
 62
     0
 10
284.395
 20
48.2053
 30
0.0
 11
284.395
 21
51.5041
 31
0.0
  0
LINE
  8
0
 62
     0
 10
284.395
 20
51.5041
 30
0.0
 11
283.476
 21
51.5041
 31
0.0
  0
LINE
  8
0
 62
     0
 10
283.476
 20
51.5041
 30
0.0
 11
283.476
 21
53.1798
 31
0.0
  0
LINE
  8
0
 62
     0
 10
283.476
 20
53.1798
 30
0.0
 11
280.246
 21
53.1798
 31
0.0
  0
LINE
  8
0
 62
     0
 10
280.246
 20
53.1798
 30
0.0
 11
280.246
 21
54.755
 31
0.0
  0
LINE
  8
0
 62
     0
 10
280.246
 20
54.755
 30
0.0
 11
280.846
 21
54.755
 31
0.0
  0
LINE
  8
0
 62
     0
 10
280.846
 20
54.755
 30
0.0
 11
280.846
 21
53.9542
 31
0.0
  0
LINE
  8
0
 62
     0
 10
280.846
 20
53.9542
 30
0.0
 11
283.946
 21
53.9542
 31
0.0
  0
LINE
  8
0
 62
     0
 10
283.946
 20
53.9542
 30
0.0
 11
283.946
 21
54.755
 31
0.0
  0
LINE
  8
0
 62
     0
 10
283.946
 20
54.755
 30
0.0
 11
284.945
 21
54.755
 31
0.0
  0
LINE
  8
0
 62
     0
 10
284.945
 20
54.755
 30
0.0
 11
284.945
 21
68.7546
 31
0.0
  0
LINE
  8
0
 62
     0
 10
284.945
 20
68.7546
 30
0.0
 11
283.946
 21
68.7546
 31
0.0
  0
LINE
  8
0
 62
     0
 10
283.946
 20
68.7546
 30
0.0
 11
283.946
 21
69.5551
 31
0.0
  0
LINE
  8
0
 62
     0
 10
10.5902
 20
65.2791
 30
0.0
 11
11.3895
 21
65.2791
 31
0.0
  0
LINE
  8
0
 62
     0
 10
11.3895
 20
65.2791
 30
0.0
 11
11.3895
 21
64.28
 31
0.0
  0
LINE
  8
0
 62
     0
 10
11.3895
 20
64.28
 30
0.0
 11
25.389
 21
64.28
 31
0.0
  0
LINE
  8
0
 62
     0
 10
25.389
 20
64.28
 30
0.0
 11
25.389
 21
65.2791
 31
0.0
  0
LINE
  8
0
 62
     0
 10
25.389
 20
65.2791
 30
0.0
 11
26.1896
 21
65.2791
 31
0.0
  0
LINE
  8
0
 62
     0
 10
26.1896
 20
65.2791
 30
0.0
 11
26.1896
 21
68.3796
 31
0.0
  0
LINE
  8
0
 62
     0
 10
26.1896
 20
68.3796
 30
0.0
 11
25.389
 21
68.3796
 31
0.0
  0
LINE
  8
0
 62
     0
 10
25.389
 20
68.3796
 30
0.0
 11
25.389
 21
74.1796
 31
0.0
  0
LINE
  8
0
 62
     0
 10
25.389
 20
74.1796
 30
0.0
 11
26.1896
 21
74.1796
 31
0.0
  0
LINE
  8
0
 62
     0
 10
26.1896
 20
74.1796
 30
0.0
 11
26.1896
 21
77.2791
 31
0.0
  0
LINE
  8
0
 62
     0
 10
26.1896
 20
77.2791
 30
0.0
 11
25.389
 21
77.2791
 31
0.0
  0
LINE
  8
0
 62
     0
 10
25.389
 20
77.2791
 30
0.0
 11
25.389
 21
78.2796
 31
0.0
  0
LINE
  8
0
 62
     0
 10
25.389
 20
78.2796
 30
0.0
 11
11.3895
 21
78.2796
 31
0.0
  0
LINE
  8
0
 62
     0
 10
11.3895
 20
78.2796
 30
0.0
 11
11.3895
 21
77.2791
 31
0.0
  0
LINE
  8
0
 62
     0
 10
11.3895
 20
77.2791
 30
0.0
 11
10.5902
 21
77.2791
 31
0.0
  0
LINE
  8
0
 62
     0
 10
10.5902
 20
77.2791
 30
0.0
 11
10.5902
 21
74.1796
 31
0.0
  0
LINE
  8
0
 62
     0
 10
10.5902
 20
74.1796
 30
0.0
 11
11.3895
 21
74.1796
 31
0.0
  0
LINE
  8
0
 62
     0
 10
11.3895
 20
74.1796
 30
0.0
 11
11.3895
 21
68.3796
 31
0.0
  0
LINE
  8
0
 62
     0
 10
11.3895
 20
68.3796
 30
0.0
 11
10.5902
 21
68.3796
 31
0.0
  0
LINE
  8
0
 62
     0
 10
10.5902
 20
68.3796
 30
0.0
 11
10.5902
 21
65.2791
 31
0.0
  0
LINE
  8
0
 62
     0
 10
34.4027
 20
65.2791
 30
0.0
 11
35.202
 21
65.2791
 31
0.0
  0
LINE
  8
0
 62
     0
 10
35.202
 20
65.2791
 30
0.0
 11
35.202
 21
64.28
 31
0.0
  0
LINE
  8
0
 62
     0
 10
35.202
 20
64.28
 30
0.0
 11
49.203
 21
64.28
 31
0.0
  0
LINE
  8
0
 62
     0
 10
49.203
 20
64.28
 30
0.0
 11
49.203
 21
65.2791
 31
0.0
  0
LINE
  8
0
 62
     0
 10
49.203
 20
65.2791
 30
0.0
 11
50.002
 21
65.2791
 31
0.0
  0
LINE
  8
0
 62
     0
 10
50.002
 20
65.2791
 30
0.0
 11
50.002
 21
68.3796
 31
0.0
  0
LINE
  8
0
 62
     0
 10
50.002
 20
68.3796
 30
0.0
 11
49.203
 21
68.3796
 31
0.0
  0
LINE
  8
0
 62
     0
 10
49.203
 20
68.3796
 30
0.0
 11
49.203
 21
74.1796
 31
0.0
  0
LINE
  8
0
 62
     0
 10
49.203
 20
74.1796
 30
0.0
 11
50.002
 21
74.1796
 31
0.0
  0
LINE
  8
0
 62
     0
 10
50.002
 20
74.1796
 30
0.0
 11
50.002
 21
77.2791
 31
0.0
  0
LINE
  8
0
 62
     0
 10
50.002
 20
77.2791
 30
0.0
 11
49.203
 21
77.2791
 31
0.0
  0
LINE
  8
0
 62
     0
 10
49.203
 20
77.2791
 30
0.0
 11
49.203
 21
78.2796
 31
0.0
  0
LINE
  8
0
 62
     0
 10
49.203
 20
78.2796
 30
0.0
 11
35.202
 21
78.2796
 31
0.0
  0
LINE
  8
0
 62
     0
 10
35.202
 20
78.2796
 30
0.0
 11
35.202
 21
77.2791
 31
0.0
  0
LINE
  8
0
 62
     0
 10
35.202
 20
77.2791
 30
0.0
 11
34.4027
 21
77.2791
 31
0.0
  0
LINE
  8
0
 62
     0
 10
34.4027
 20
77.2791
 30
0.0
 11
34.4027
 21
74.1796
 31
0.0
  0
LINE
  8
0
 62
     0
 10
34.4027
 20
74.1796
 30
0.0
 11
35.202
 21
74.1796
 31
0.0
  0
LINE
  8
0
 62
     0
 10
35.202
 20
74.1796
 30
0.0
 11
35.202
 21
68.3796
 31
0.0
  0
LINE
  8
0
 62
     0
 10
35.202
 20
68.3796
 30
0.0
 11
34.4027
 21
68.3796
 31
0.0
  0
LINE
  8
0
 62
     0
 10
34.4027
 20
68.3796
 30
0.0
 11
34.4027
 21
65.2791
 31
0.0
  0
LINE
  8
0
 62
     0
 10
53.4529
 20
65.2791
 30
0.0
 11
54.2519
 21
65.2791
 31
0.0
  0
LINE
  8
0
 62
     0
 10
54.2519
 20
65.2791
 30
0.0
 11
54.2519
 21
64.28
 31
0.0
  0
LINE
  8
0
 62
     0
 10
54.2519
 20
64.28
 30
0.0
 11
68.253
 21
64.28
 31
0.0
  0
LINE
  8
0
 62
     0
 10
68.253
 20
64.28
 30
0.0
 11
68.253
 21
65.2791
 31
0.0
  0
LINE
  8
0
 62
     0
 10
68.253
 20
65.2791
 30
0.0
 11
69.052
 21
65.2791
 31
0.0
  0
LINE
  8
0
 62
     0
 10
69.052
 20
65.2791
 30
0.0
 11
69.052
 21
68.3796
 31
0.0
  0
LINE
  8
0
 62
     0
 10
69.052
 20
68.3796
 30
0.0
 11
68.253
 21
68.3796
 31
0.0
  0
LINE
  8
0
 62
     0
 10
68.253
 20
68.3796
 30
0.0
 11
68.253
 21
74.1796
 31
0.0
  0
LINE
  8
0
 62
     0
 10
68.253
 20
74.1796
 30
0.0
 11
69.052
 21
74.1796
 31
0.0
  0
LINE
  8
0
 62
     0
 10
69.052
 20
74.1796
 30
0.0
 11
69.052
 21
77.2791
 31
0.0
  0
LINE
  8
0
 62
     0
 10
69.052
 20
77.2791
 30
0.0
 11
68.253
 21
77.2791
 31
0.0
  0
LINE
  8
0
 62
     0
 10
68.253
 20
77.2791
 30
0.0
 11
68.253
 21
78.2796
 31
0.0
  0
LINE
  8
0
 62
     0
 10
68.253
 20
78.2796
 30
0.0
 11
54.2519
 21
78.2796
 31
0.0
  0
LINE
  8
0
 62
     0
 10
54.2519
 20
78.2796
 30
0.0
 11
54.2519
 21
77.2791
 31
0.0
  0
LINE
  8
0
 62
     0
 10
54.2519
 20
77.2791
 30
0.0
 11
53.4529
 21
77.2791
 31
0.0
  0
LINE
  8
0
 62
     0
 10
53.4529
 20
77.2791
 30
0.0
 11
53.4529
 21
74.1796
 31
0.0
  0
LINE
  8
0
 62
     0
 10
53.4529
 20
74.1796
 30
0.0
 11
54.2519
 21
74.1796
 31
0.0
  0
LINE
  8
0
 62
     0
 10
54.2519
 20
74.1796
 30
0.0
 11
54.2519
 21
68.3796
 31
0.0
  0
LINE
  8
0
 62
     0
 10
54.2519
 20
68.3796
 30
0.0
 11
53.4529
 21
68.3796
 31
0.0
  0
LINE
  8
0
 62
     0
 10
53.4529
 20
68.3796
 30
0.0
 11
53.4529
 21
65.2791
 31
0.0
  0
LINE
  8
0
 62
     0
 10
72.5029
 20
65.2791
 30
0.0
 11
73.3019
 21
65.2791
 31
0.0
  0
LINE
  8
0
 62
     0
 10
73.3019
 20
65.2791
 30
0.0
 11
73.3019
 21
64.28
 31
0.0
  0
LINE
  8
0
 62
     0
 10
73.3019
 20
64.28
 30
0.0
 11
87.303
 21
64.28
 31
0.0
  0
LINE
  8
0
 62
     0
 10
87.303
 20
64.28
 30
0.0
 11
87.303
 21
65.2791
 31
0.0
  0
LINE
  8
0
 62
     0
 10
87.303
 20
65.2791
 30
0.0
 11
88.102
 21
65.2791
 31
0.0
  0
LINE
  8
0
 62
     0
 10
88.102
 20
65.2791
 30
0.0
 11
88.102
 21
68.3796
 31
0.0
  0
LINE
  8
0
 62
     0
 10
88.102
 20
68.3796
 30
0.0
 11
87.303
 21
68.3796
 31
0.0
  0
LINE
  8
0
 62
     0
 10
87.303
 20
68.3796
 30
0.0
 11
87.303
 21
74.1796
 31
0.0
  0
LINE
  8
0
 62
     0
 10
87.303
 20
74.1796
 30
0.0
 11
88.102
 21
74.1796
 31
0.0
  0
LINE
  8
0
 62
     0
 10
88.102
 20
74.1796
 30
0.0
 11
88.102
 21
77.2791
 31
0.0
  0
LINE
  8
0
 62
     0
 10
88.102
 20
77.2791
 30
0.0
 11
87.303
 21
77.2791
 31
0.0
  0
LINE
  8
0
 62
     0
 10
87.303
 20
77.2791
 30
0.0
 11
87.303
 21
78.2796
 31
0.0
  0
LINE
  8
0
 62
     0
 10
87.303
 20
78.2796
 30
0.0
 11
73.3019
 21
78.2796
 31
0.0
  0
LINE
  8
0
 62
     0
 10
73.3019
 20
78.2796
 30
0.0
 11
73.3019
 21
77.2791
 31
0.0
  0
LINE
  8
0
 62
     0
 10
73.3019
 20
77.2791
 30
0.0
 11
72.5029
 21
77.2791
 31
0.0
  0
LINE
  8
0
 62
     0
 10
72.5029
 20
77.2791
 30
0.0
 11
72.5029
 21
74.1796
 31
0.0
  0
LINE
  8
0
 62
     0
 10
72.5029
 20
74.1796
 30
0.0
 11
73.3019
 21
74.1796
 31
0.0
  0
LINE
  8
0
 62
     0
 10
73.3019
 20
74.1796
 30
0.0
 11
73.3019
 21
68.3796
 31
0.0
  0
LINE
  8
0
 62
     0
 10
73.3019
 20
68.3796
 30
0.0
 11
72.5029
 21
68.3796
 31
0.0
  0
LINE
  8
0
 62
     0
 10
72.5029
 20
68.3796
 30
0.0
 11
72.5029
 21
65.2791
 31
0.0
  0
LINE
  8
0
 62
     0
 10
91.5529
 20
65.2791
 30
0.0
 11
92.3519
 21
65.2791
 31
0.0
  0
LINE
  8
0
 62
     0
 10
92.3519
 20
65.2791
 30
0.0
 11
92.3519
 21
64.28
 31
0.0
  0
LINE
  8
0
 62
     0
 10
92.3519
 20
64.28
 30
0.0
 11
106.353
 21
64.28
 31
0.0
  0
LINE
  8
0
 62
     0
 10
106.353
 20
64.28
 30
0.0
 11
106.353
 21
65.2791
 31
0.0
  0
LINE
  8
0
 62
     0
 10
106.353
 20
65.2791
 30
0.0
 11
107.152
 21
65.2791
 31
0.0
  0
LINE
  8
0
 62
     0
 10
107.152
 20
65.2791
 30
0.0
 11
107.152
 21
68.3796
 31
0.0
  0
LINE
  8
0
 62
     0
 10
107.152
 20
68.3796
 30
0.0
 11
106.353
 21
68.3796
 31
0.0
  0
LINE
  8
0
 62
     0
 10
106.353
 20
68.3796
 30
0.0
 11
106.353
 21
74.1796
 31
0.0
  0
LINE
  8
0
 62
     0
 10
106.353
 20
74.1796
 30
0.0
 11
107.152
 21
74.1796
 31
0.0
  0
LINE
  8
0
 62
     0
 10
107.152
 20
74.1796
 30
0.0
 11
107.152
 21
77.2791
 31
0.0
  0
LINE
  8
0
 62
     0
 10
107.152
 20
77.2791
 30
0.0
 11
106.353
 21
77.2791
 31
0.0
  0
LINE
  8
0
 62
     0
 10
106.353
 20
77.2791
 30
0.0
 11
106.353
 21
78.2796
 31
0.0
  0
LINE
  8
0
 62
     0
 10
106.353
 20
78.2796
 30
0.0
 11
92.3519
 21
78.2796
 31
0.0
  0
LINE
  8
0
 62
     0
 10
92.3519
 20
78.2796
 30
0.0
 11
92.3519
 21
77.2791
 31
0.0
  0
LINE
  8
0
 62
     0
 10
92.3519
 20
77.2791
 30
0.0
 11
91.5529
 21
77.2791
 31
0.0
  0
LINE
  8
0
 62
     0
 10
91.5529
 20
77.2791
 30
0.0
 11
91.5529
 21
74.1796
 31
0.0
  0
LINE
  8
0
 62
     0
 10
91.5529
 20
74.1796
 30
0.0
 11
92.3519
 21
74.1796
 31
0.0
  0
LINE
  8
0
 62
     0
 10
92.3519
 20
74.1796
 30
0.0
 11
92.3519
 21
68.3796
 31
0.0
  0
LINE
  8
0
 62
     0
 10
92.3519
 20
68.3796
 30
0.0
 11
91.5529
 21
68.3796
 31
0.0
  0
LINE
  8
0
 62
     0
 10
91.5529
 20
68.3796
 30
0.0
 11
91.5529
 21
65.2791
 31
0.0
  0
LINE
  8
0
 62
     0
 10
110.603
 20
65.2791
 30
0.0
 11
111.402
 21
65.2791
 31
0.0
  0
LINE
  8
0
 62
     0
 10
111.402
 20
65.2791
 30
0.0
 11
111.402
 21
64.28
 31
0.0
  0
LINE
  8
0
 62
     0
 10
111.402
 20
64.28
 30
0.0
 11
125.403
 21
64.28
 31
0.0
  0
LINE
  8
0
 62
     0
 10
125.403
 20
64.28
 30
0.0
 11
125.403
 21
65.2791
 31
0.0
  0
LINE
  8
0
 62
     0
 10
125.403
 20
65.2791
 30
0.0
 11
126.202
 21
65.2791
 31
0.0
  0
LINE
  8
0
 62
     0
 10
126.202
 20
65.2791
 30
0.0
 11
126.202
 21
68.3796
 31
0.0
  0
LINE
  8
0
 62
     0
 10
126.202
 20
68.3796
 30
0.0
 11
125.403
 21
68.3796
 31
0.0
  0
LINE
  8
0
 62
     0
 10
125.403
 20
68.3796
 30
0.0
 11
125.403
 21
74.1796
 31
0.0
  0
LINE
  8
0
 62
     0
 10
125.403
 20
74.1796
 30
0.0
 11
126.202
 21
74.1796
 31
0.0
  0
LINE
  8
0
 62
     0
 10
126.202
 20
74.1796
 30
0.0
 11
126.202
 21
77.2791
 31
0.0
  0
LINE
  8
0
 62
     0
 10
126.202
 20
77.2791
 30
0.0
 11
125.403
 21
77.2791
 31
0.0
  0
LINE
  8
0
 62
     0
 10
125.403
 20
77.2791
 30
0.0
 11
125.403
 21
78.2796
 31
0.0
  0
LINE
  8
0
 62
     0
 10
125.403
 20
78.2796
 30
0.0
 11
111.402
 21
78.2796
 31
0.0
  0
LINE
  8
0
 62
     0
 10
111.402
 20
78.2796
 30
0.0
 11
111.402
 21
77.2791
 31
0.0
  0
LINE
  8
0
 62
     0
 10
111.402
 20
77.2791
 30
0.0
 11
110.603
 21
77.2791
 31
0.0
  0
LINE
  8
0
 62
     0
 10
110.603
 20
77.2791
 30
0.0
 11
110.603
 21
74.1796
 31
0.0
  0
LINE
  8
0
 62
     0
 10
110.603
 20
74.1796
 30
0.0
 11
111.402
 21
74.1796
 31
0.0
  0
LINE
  8
0
 62
     0
 10
111.402
 20
74.1796
 30
0.0
 11
111.402
 21
68.3796
 31
0.0
  0
LINE
  8
0
 62
     0
 10
111.402
 20
68.3796
 30
0.0
 11
110.603
 21
68.3796
 31
0.0
  0
LINE
  8
0
 62
     0
 10
110.603
 20
68.3796
 30
0.0
 11
110.603
 21
65.2791
 31
0.0
  0
LINE
  8
0
 62
     0
 10
129.653
 20
65.2791
 30
0.0
 11
130.452
 21
65.2791
 31
0.0
  0
LINE
  8
0
 62
     0
 10
130.452
 20
65.2791
 30
0.0
 11
130.452
 21
64.28
 31
0.0
  0
LINE
  8
0
 62
     0
 10
130.452
 20
64.28
 30
0.0
 11
144.453
 21
64.28
 31
0.0
  0
LINE
  8
0
 62
     0
 10
144.453
 20
64.28
 30
0.0
 11
144.453
 21
65.2791
 31
0.0
  0
LINE
  8
0
 62
     0
 10
144.453
 20
65.2791
 30
0.0
 11
145.252
 21
65.2791
 31
0.0
  0
LINE
  8
0
 62
     0
 10
145.252
 20
65.2791
 30
0.0
 11
145.252
 21
68.3796
 31
0.0
  0
LINE
  8
0
 62
     0
 10
145.252
 20
68.3796
 30
0.0
 11
144.453
 21
68.3796
 31
0.0
  0
LINE
  8
0
 62
     0
 10
144.453
 20
68.3796
 30
0.0
 11
144.453
 21
74.1796
 31
0.0
  0
LINE
  8
0
 62
     0
 10
144.453
 20
74.1796
 30
0.0
 11
145.252
 21
74.1796
 31
0.0
  0
LINE
  8
0
 62
     0
 10
145.252
 20
74.1796
 30
0.0
 11
145.252
 21
77.2791
 31
0.0
  0
LINE
  8
0
 62
     0
 10
145.252
 20
77.2791
 30
0.0
 11
144.453
 21
77.2791
 31
0.0
  0
LINE
  8
0
 62
     0
 10
144.453
 20
77.2791
 30
0.0
 11
144.453
 21
78.2796
 31
0.0
  0
LINE
  8
0
 62
     0
 10
144.453
 20
78.2796
 30
0.0
 11
130.452
 21
78.2796
 31
0.0
  0
LINE
  8
0
 62
     0
 10
130.452
 20
78.2796
 30
0.0
 11
130.452
 21
77.2791
 31
0.0
  0
LINE
  8
0
 62
     0
 10
130.452
 20
77.2791
 30
0.0
 11
129.653
 21
77.2791
 31
0.0
  0
LINE
  8
0
 62
     0
 10
129.653
 20
77.2791
 30
0.0
 11
129.653
 21
74.1796
 31
0.0
  0
LINE
  8
0
 62
     0
 10
129.653
 20
74.1796
 30
0.0
 11
130.452
 21
74.1796
 31
0.0
  0
LINE
  8
0
 62
     0
 10
130.452
 20
74.1796
 30
0.0
 11
130.452
 21
68.3796
 31
0.0
  0
LINE
  8
0
 62
     0
 10
130.452
 20
68.3796
 30
0.0
 11
129.653
 21
68.3796
 31
0.0
  0
LINE
  8
0
 62
     0
 10
129.653
 20
68.3796
 30
0.0
 11
129.653
 21
65.2791
 31
0.0
  0
LINE
  8
0
 62
     0
 10
148.703
 20
65.2791
 30
0.0
 11
149.502
 21
65.2791
 31
0.0
  0
LINE
  8
0
 62
     0
 10
149.502
 20
65.2791
 30
0.0
 11
149.502
 21
64.28
 31
0.0
  0
LINE
  8
0
 62
     0
 10
149.502
 20
64.28
 30
0.0
 11
163.503
 21
64.28
 31
0.0
  0
LINE
  8
0
 62
     0
 10
163.503
 20
64.28
 30
0.0
 11
163.503
 21
65.2791
 31
0.0
  0
LINE
  8
0
 62
     0
 10
163.503
 20
65.2791
 30
0.0
 11
164.302
 21
65.2791
 31
0.0
  0
LINE
  8
0
 62
     0
 10
164.302
 20
65.2791
 30
0.0
 11
164.302
 21
68.3796
 31
0.0
  0
LINE
  8
0
 62
     0
 10
164.302
 20
68.3796
 30
0.0
 11
163.503
 21
68.3796
 31
0.0
  0
LINE
  8
0
 62
     0
 10
163.503
 20
68.3796
 30
0.0
 11
163.503
 21
74.1796
 31
0.0
  0
LINE
  8
0
 62
     0
 10
163.503
 20
74.1796
 30
0.0
 11
164.302
 21
74.1796
 31
0.0
  0
LINE
  8
0
 62
     0
 10
164.302
 20
74.1796
 30
0.0
 11
164.302
 21
77.2791
 31
0.0
  0
LINE
  8
0
 62
     0
 10
164.302
 20
77.2791
 30
0.0
 11
163.503
 21
77.2791
 31
0.0
  0
LINE
  8
0
 62
     0
 10
163.503
 20
77.2791
 30
0.0
 11
163.503
 21
78.2796
 31
0.0
  0
LINE
  8
0
 62
     0
 10
163.503
 20
78.2796
 30
0.0
 11
149.502
 21
78.2796
 31
0.0
  0
LINE
  8
0
 62
     0
 10
149.502
 20
78.2796
 30
0.0
 11
149.502
 21
77.2791
 31
0.0
  0
LINE
  8
0
 62
     0
 10
149.502
 20
77.2791
 30
0.0
 11
148.703
 21
77.2791
 31
0.0
  0
LINE
  8
0
 62
     0
 10
148.703
 20
77.2791
 30
0.0
 11
148.703
 21
74.1796
 31
0.0
  0
LINE
  8
0
 62
     0
 10
148.703
 20
74.1796
 30
0.0
 11
149.502
 21
74.1796
 31
0.0
  0
LINE
  8
0
 62
     0
 10
149.502
 20
74.1796
 30
0.0
 11
149.502
 21
68.3796
 31
0.0
  0
LINE
  8
0
 62
     0
 10
149.502
 20
68.3796
 30
0.0
 11
148.703
 21
68.3796
 31
0.0
  0
LINE
  8
0
 62
     0
 10
148.703
 20
68.3796
 30
0.0
 11
148.703
 21
65.2791
 31
0.0
  0
LINE
  8
0
 62
     0
 10
167.753
 20
65.2791
 30
0.0
 11
168.552
 21
65.2791
 31
0.0
  0
LINE
  8
0
 62
     0
 10
168.552
 20
65.2791
 30
0.0
 11
168.552
 21
64.28
 31
0.0
  0
LINE
  8
0
 62
     0
 10
168.552
 20
64.28
 30
0.0
 11
182.553
 21
64.28
 31
0.0
  0
LINE
  8
0
 62
     0
 10
182.553
 20
64.28
 30
0.0
 11
182.553
 21
65.2791
 31
0.0
  0
LINE
  8
0
 62
     0
 10
182.553
 20
65.2791
 30
0.0
 11
183.352
 21
65.2791
 31
0.0
  0
LINE
  8
0
 62
     0
 10
183.352
 20
65.2791
 30
0.0
 11
183.352
 21
68.3796
 31
0.0
  0
LINE
  8
0
 62
     0
 10
183.352
 20
68.3796
 30
0.0
 11
182.553
 21
68.3796
 31
0.0
  0
LINE
  8
0
 62
     0
 10
182.553
 20
68.3796
 30
0.0
 11
182.553
 21
74.1796
 31
0.0
  0
LINE
  8
0
 62
     0
 10
182.553
 20
74.1796
 30
0.0
 11
183.352
 21
74.1796
 31
0.0
  0
LINE
  8
0
 62
     0
 10
183.352
 20
74.1796
 30
0.0
 11
183.352
 21
77.2791
 31
0.0
  0
LINE
  8
0
 62
     0
 10
183.352
 20
77.2791
 30
0.0
 11
182.553
 21
77.2791
 31
0.0
  0
LINE
  8
0
 62
     0
 10
182.553
 20
77.2791
 30
0.0
 11
182.553
 21
78.2796
 31
0.0
  0
LINE
  8
0
 62
     0
 10
182.553
 20
78.2796
 30
0.0
 11
168.552
 21
78.2796
 31
0.0
  0
LINE
  8
0
 62
     0
 10
168.552
 20
78.2796
 30
0.0
 11
168.552
 21
77.2791
 31
0.0
  0
LINE
  8
0
 62
     0
 10
168.552
 20
77.2791
 30
0.0
 11
167.753
 21
77.2791
 31
0.0
  0
LINE
  8
0
 62
     0
 10
167.753
 20
77.2791
 30
0.0
 11
167.753
 21
74.1796
 31
0.0
  0
LINE
  8
0
 62
     0
 10
167.753
 20
74.1796
 30
0.0
 11
168.552
 21
74.1796
 31
0.0
  0
LINE
  8
0
 62
     0
 10
168.552
 20
74.1796
 30
0.0
 11
168.552
 21
68.3796
 31
0.0
  0
LINE
  8
0
 62
     0
 10
168.552
 20
68.3796
 30
0.0
 11
167.753
 21
68.3796
 31
0.0
  0
LINE
  8
0
 62
     0
 10
167.753
 20
68.3796
 30
0.0
 11
167.753
 21
65.2791
 31
0.0
  0
LINE
  8
0
 62
     0
 10
186.803
 20
65.2791
 30
0.0
 11
187.602
 21
65.2791
 31
0.0
  0
LINE
  8
0
 62
     0
 10
187.602
 20
65.2791
 30
0.0
 11
187.602
 21
64.28
 31
0.0
  0
LINE
  8
0
 62
     0
 10
187.602
 20
64.28
 30
0.0
 11
201.603
 21
64.28
 31
0.0
  0
LINE
  8
0
 62
     0
 10
201.603
 20
64.28
 30
0.0
 11
201.603
 21
65.2791
 31
0.0
  0
LINE
  8
0
 62
     0
 10
201.603
 20
65.2791
 30
0.0
 11
202.402
 21
65.2791
 31
0.0
  0
LINE
  8
0
 62
     0
 10
202.402
 20
65.2791
 30
0.0
 11
202.402
 21
68.3796
 31
0.0
  0
LINE
  8
0
 62
     0
 10
202.402
 20
68.3796
 30
0.0
 11
201.603
 21
68.3796
 31
0.0
  0
LINE
  8
0
 62
     0
 10
201.603
 20
68.3796
 30
0.0
 11
201.603
 21
74.1796
 31
0.0
  0
LINE
  8
0
 62
     0
 10
201.603
 20
74.1796
 30
0.0
 11
202.402
 21
74.1796
 31
0.0
  0
LINE
  8
0
 62
     0
 10
202.402
 20
74.1796
 30
0.0
 11
202.402
 21
77.2791
 31
0.0
  0
LINE
  8
0
 62
     0
 10
202.402
 20
77.2791
 30
0.0
 11
201.603
 21
77.2791
 31
0.0
  0
LINE
  8
0
 62
     0
 10
201.603
 20
77.2791
 30
0.0
 11
201.603
 21
78.2796
 31
0.0
  0
LINE
  8
0
 62
     0
 10
201.603
 20
78.2796
 30
0.0
 11
187.602
 21
78.2796
 31
0.0
  0
LINE
  8
0
 62
     0
 10
187.602
 20
78.2796
 30
0.0
 11
187.602
 21
77.2791
 31
0.0
  0
LINE
  8
0
 62
     0
 10
187.602
 20
77.2791
 30
0.0
 11
186.803
 21
77.2791
 31
0.0
  0
LINE
  8
0
 62
     0
 10
186.803
 20
77.2791
 30
0.0
 11
186.803
 21
74.1796
 31
0.0
  0
LINE
  8
0
 62
     0
 10
186.803
 20
74.1796
 30
0.0
 11
187.602
 21
74.1796
 31
0.0
  0
LINE
  8
0
 62
     0
 10
187.602
 20
74.1796
 30
0.0
 11
187.602
 21
68.3796
 31
0.0
  0
LINE
  8
0
 62
     0
 10
187.602
 20
68.3796
 30
0.0
 11
186.803
 21
68.3796
 31
0.0
  0
LINE
  8
0
 62
     0
 10
186.803
 20
68.3796
 30
0.0
 11
186.803
 21
65.2791
 31
0.0
  0
LINE
  8
0
 62
     0
 10
205.853
 20
65.2791
 30
0.0
 11
206.652
 21
65.2791
 31
0.0
  0
LINE
  8
0
 62
     0
 10
206.652
 20
65.2791
 30
0.0
 11
206.652
 21
64.28
 31
0.0
  0
LINE
  8
0
 62
     0
 10
206.652
 20
64.28
 30
0.0
 11
220.653
 21
64.28
 31
0.0
  0
LINE
  8
0
 62
     0
 10
220.653
 20
64.28
 30
0.0
 11
220.653
 21
65.2791
 31
0.0
  0
LINE
  8
0
 62
     0
 10
220.653
 20
65.2791
 30
0.0
 11
221.452
 21
65.2791
 31
0.0
  0
LINE
  8
0
 62
     0
 10
221.452
 20
65.2791
 30
0.0
 11
221.452
 21
68.3796
 31
0.0
  0
LINE
  8
0
 62
     0
 10
221.452
 20
68.3796
 30
0.0
 11
220.653
 21
68.3796
 31
0.0
  0
LINE
  8
0
 62
     0
 10
220.653
 20
68.3796
 30
0.0
 11
220.653
 21
74.1796
 31
0.0
  0
LINE
  8
0
 62
     0
 10
220.653
 20
74.1796
 30
0.0
 11
221.452
 21
74.1796
 31
0.0
  0
LINE
  8
0
 62
     0
 10
221.452
 20
74.1796
 30
0.0
 11
221.452
 21
77.2791
 31
0.0
  0
LINE
  8
0
 62
     0
 10
221.452
 20
77.2791
 30
0.0
 11
220.653
 21
77.2791
 31
0.0
  0
LINE
  8
0
 62
     0
 10
220.653
 20
77.2791
 30
0.0
 11
220.653
 21
78.2796
 31
0.0
  0
LINE
  8
0
 62
     0
 10
220.653
 20
78.2796
 30
0.0
 11
206.652
 21
78.2796
 31
0.0
  0
LINE
  8
0
 62
     0
 10
206.652
 20
78.2796
 30
0.0
 11
206.652
 21
77.2791
 31
0.0
  0
LINE
  8
0
 62
     0
 10
206.652
 20
77.2791
 30
0.0
 11
205.853
 21
77.2791
 31
0.0
  0
LINE
  8
0
 62
     0
 10
205.853
 20
77.2791
 30
0.0
 11
205.853
 21
74.1796
 31
0.0
  0
LINE
  8
0
 62
     0
 10
205.853
 20
74.1796
 30
0.0
 11
206.652
 21
74.1796
 31
0.0
  0
LINE
  8
0
 62
     0
 10
206.652
 20
74.1796
 30
0.0
 11
206.652
 21
68.3796
 31
0.0
  0
LINE
  8
0
 62
     0
 10
206.652
 20
68.3796
 30
0.0
 11
205.853
 21
68.3796
 31
0.0
  0
LINE
  8
0
 62
     0
 10
205.853
 20
68.3796
 30
0.0
 11
205.853
 21
65.2791
 31
0.0
  0
LINE
  8
0
 62
     0
 10
224.903
 20
65.2791
 30
0.0
 11
225.702
 21
65.2791
 31
0.0
  0
LINE
  8
0
 62
     0
 10
225.702
 20
65.2791
 30
0.0
 11
225.702
 21
64.28
 31
0.0
  0
LINE
  8
0
 62
     0
 10
225.702
 20
64.28
 30
0.0
 11
239.703
 21
64.28
 31
0.0
  0
LINE
  8
0
 62
     0
 10
239.703
 20
64.28
 30
0.0
 11
239.703
 21
65.2791
 31
0.0
  0
LINE
  8
0
 62
     0
 10
239.703
 20
65.2791
 30
0.0
 11
240.502
 21
65.2791
 31
0.0
  0
LINE
  8
0
 62
     0
 10
240.502
 20
65.2791
 30
0.0
 11
240.502
 21
68.3796
 31
0.0
  0
LINE
  8
0
 62
     0
 10
240.502
 20
68.3796
 30
0.0
 11
239.703
 21
68.3796
 31
0.0
  0
LINE
  8
0
 62
     0
 10
239.703
 20
68.3796
 30
0.0
 11
239.703
 21
74.1796
 31
0.0
  0
LINE
  8
0
 62
     0
 10
239.703
 20
74.1796
 30
0.0
 11
240.502
 21
74.1796
 31
0.0
  0
LINE
  8
0
 62
     0
 10
240.502
 20
74.1796
 30
0.0
 11
240.502
 21
77.2791
 31
0.0
  0
LINE
  8
0
 62
     0
 10
240.502
 20
77.2791
 30
0.0
 11
239.703
 21
77.2791
 31
0.0
  0
LINE
  8
0
 62
     0
 10
239.703
 20
77.2791
 30
0.0
 11
239.703
 21
78.2796
 31
0.0
  0
LINE
  8
0
 62
     0
 10
239.703
 20
78.2796
 30
0.0
 11
225.702
 21
78.2796
 31
0.0
  0
LINE
  8
0
 62
     0
 10
225.702
 20
78.2796
 30
0.0
 11
225.702
 21
77.2791
 31
0.0
  0
LINE
  8
0
 62
     0
 10
225.702
 20
77.2791
 30
0.0
 11
224.903
 21
77.2791
 31
0.0
  0
LINE
  8
0
 62
     0
 10
224.903
 20
77.2791
 30
0.0
 11
224.903
 21
74.1796
 31
0.0
  0
LINE
  8
0
 62
     0
 10
224.903
 20
74.1796
 30
0.0
 11
225.702
 21
74.1796
 31
0.0
  0
LINE
  8
0
 62
     0
 10
225.702
 20
74.1796
 30
0.0
 11
225.702
 21
68.3796
 31
0.0
  0
LINE
  8
0
 62
     0
 10
225.702
 20
68.3796
 30
0.0
 11
224.903
 21
68.3796
 31
0.0
  0
LINE
  8
0
 62
     0
 10
224.903
 20
68.3796
 30
0.0
 11
224.903
 21
65.2791
 31
0.0
  0
LINE
  8
0
 62
     0
 10
243.953
 20
65.2791
 30
0.0
 11
244.752
 21
65.2791
 31
0.0
  0
LINE
  8
0
 62
     0
 10
244.752
 20
65.2791
 30
0.0
 11
244.752
 21
64.28
 31
0.0
  0
LINE
  8
0
 62
     0
 10
244.752
 20
64.28
 30
0.0
 11
258.753
 21
64.28
 31
0.0
  0
LINE
  8
0
 62
     0
 10
258.753
 20
64.28
 30
0.0
 11
258.753
 21
65.2791
 31
0.0
  0
LINE
  8
0
 62
     0
 10
258.753
 20
65.2791
 30
0.0
 11
259.552
 21
65.2791
 31
0.0
  0
LINE
  8
0
 62
     0
 10
259.552
 20
65.2791
 30
0.0
 11
259.552
 21
68.3796
 31
0.0
  0
LINE
  8
0
 62
     0
 10
259.552
 20
68.3796
 30
0.0
 11
258.753
 21
68.3796
 31
0.0
  0
LINE
  8
0
 62
     0
 10
258.753
 20
68.3796
 30
0.0
 11
258.753
 21
74.1796
 31
0.0
  0
LINE
  8
0
 62
     0
 10
258.753
 20
74.1796
 30
0.0
 11
259.552
 21
74.1796
 31
0.0
  0
LINE
  8
0
 62
     0
 10
259.552
 20
74.1796
 30
0.0
 11
259.552
 21
77.2791
 31
0.0
  0
LINE
  8
0
 62
     0
 10
259.552
 20
77.2791
 30
0.0
 11
258.753
 21
77.2791
 31
0.0
  0
LINE
  8
0
 62
     0
 10
258.753
 20
77.2791
 30
0.0
 11
258.753
 21
78.2796
 31
0.0
  0
LINE
  8
0
 62
     0
 10
258.753
 20
78.2796
 30
0.0
 11
244.752
 21
78.2796
 31
0.0
  0
LINE
  8
0
 62
     0
 10
244.752
 20
78.2796
 30
0.0
 11
244.752
 21
77.2791
 31
0.0
  0
LINE
  8
0
 62
     0
 10
244.752
 20
77.2791
 30
0.0
 11
243.953
 21
77.2791
 31
0.0
  0
LINE
  8
0
 62
     0
 10
243.953
 20
77.2791
 30
0.0
 11
243.953
 21
74.1796
 31
0.0
  0
LINE
  8
0
 62
     0
 10
243.953
 20
74.1796
 30
0.0
 11
244.752
 21
74.1796
 31
0.0
  0
LINE
  8
0
 62
     0
 10
244.752
 20
74.1796
 30
0.0
 11
244.752
 21
68.3796
 31
0.0
  0
LINE
  8
0
 62
     0
 10
244.752
 20
68.3796
 30
0.0
 11
243.953
 21
68.3796
 31
0.0
  0
LINE
  8
0
 62
     0
 10
243.953
 20
68.3796
 30
0.0
 11
243.953
 21
65.2791
 31
0.0
  0
LINE
  8
0
 62
     0
 10
296.34
 20
65.2791
 30
0.0
 11
297.139
 21
65.2791
 31
0.0
  0
LINE
  8
0
 62
     0
 10
297.139
 20
65.2791
 30
0.0
 11
297.139
 21
64.28
 31
0.0
  0
LINE
  8
0
 62
     0
 10
297.139
 20
64.28
 30
0.0
 11
311.139
 21
64.28
 31
0.0
  0
LINE
  8
0
 62
     0
 10
311.139
 20
64.28
 30
0.0
 11
311.139
 21
65.2791
 31
0.0
  0
LINE
  8
0
 62
     0
 10
311.139
 20
65.2791
 30
0.0
 11
311.94
 21
65.2791
 31
0.0
  0
LINE
  8
0
 62
     0
 10
311.94
 20
65.2791
 30
0.0
 11
311.94
 21
68.3796
 31
0.0
  0
LINE
  8
0
 62
     0
 10
311.94
 20
68.3796
 30
0.0
 11
311.139
 21
68.3796
 31
0.0
  0
LINE
  8
0
 62
     0
 10
311.139
 20
68.3796
 30
0.0
 11
311.139
 21
74.1796
 31
0.0
  0
LINE
  8
0
 62
     0
 10
311.139
 20
74.1796
 30
0.0
 11
311.94
 21
74.1796
 31
0.0
  0
LINE
  8
0
 62
     0
 10
311.94
 20
74.1796
 30
0.0
 11
311.94
 21
77.2791
 31
0.0
  0
LINE
  8
0
 62
     0
 10
311.94
 20
77.2791
 30
0.0
 11
311.139
 21
77.2791
 31
0.0
  0
LINE
  8
0
 62
     0
 10
311.139
 20
77.2791
 30
0.0
 11
311.139
 21
78.2796
 31
0.0
  0
LINE
  8
0
 62
     0
 10
311.139
 20
78.2796
 30
0.0
 11
297.139
 21
78.2796
 31
0.0
  0
LINE
  8
0
 62
     0
 10
297.139
 20
78.2796
 30
0.0
 11
297.139
 21
77.2791
 31
0.0
  0
LINE
  8
0
 62
     0
 10
297.139
 20
77.2791
 30
0.0
 11
296.34
 21
77.2791
 31
0.0
  0
LINE
  8
0
 62
     0
 10
296.34
 20
77.2791
 30
0.0
 11
296.34
 21
74.1796
 31
0.0
  0
LINE
  8
0
 62
     0
 10
296.34
 20
74.1796
 30
0.0
 11
297.139
 21
74.1796
 31
0.0
  0
LINE
  8
0
 62
     0
 10
297.139
 20
74.1796
 30
0.0
 11
297.139
 21
68.3796
 31
0.0
  0
LINE
  8
0
 62
     0
 10
297.139
 20
68.3796
 30
0.0
 11
296.34
 21
68.3796
 31
0.0
  0
LINE
  8
0
 62
     0
 10
296.34
 20
68.3796
 30
0.0
 11
296.34
 21
65.2791
 31
0.0
  0
LINE
  8
0
 62
     0
 10
315.39
 20
65.2791
 30
0.0
 11
316.189
 21
65.2791
 31
0.0
  0
LINE
  8
0
 62
     0
 10
316.189
 20
65.2791
 30
0.0
 11
316.189
 21
64.28
 31
0.0
  0
LINE
  8
0
 62
     0
 10
316.189
 20
64.28
 30
0.0
 11
330.189
 21
64.28
 31
0.0
  0
LINE
  8
0
 62
     0
 10
330.189
 20
64.28
 30
0.0
 11
330.189
 21
65.2791
 31
0.0
  0
LINE
  8
0
 62
     0
 10
330.189
 20
65.2791
 30
0.0
 11
330.99
 21
65.2791
 31
0.0
  0
LINE
  8
0
 62
     0
 10
330.99
 20
65.2791
 30
0.0
 11
330.99
 21
68.3796
 31
0.0
  0
LINE
  8
0
 62
     0
 10
330.99
 20
68.3796
 30
0.0
 11
330.189
 21
68.3796
 31
0.0
  0
LINE
  8
0
 62
     0
 10
330.189
 20
68.3796
 30
0.0
 11
330.189
 21
74.1796
 31
0.0
  0
LINE
  8
0
 62
     0
 10
330.189
 20
74.1796
 30
0.0
 11
330.99
 21
74.1796
 31
0.0
  0
LINE
  8
0
 62
     0
 10
330.99
 20
74.1796
 30
0.0
 11
330.99
 21
77.2791
 31
0.0
  0
LINE
  8
0
 62
     0
 10
330.99
 20
77.2791
 30
0.0
 11
330.189
 21
77.2791
 31
0.0
  0
LINE
  8
0
 62
     0
 10
330.189
 20
77.2791
 30
0.0
 11
330.189
 21
78.2796
 31
0.0
  0
LINE
  8
0
 62
     0
 10
330.189
 20
78.2796
 30
0.0
 11
316.189
 21
78.2796
 31
0.0
  0
LINE
  8
0
 62
     0
 10
316.189
 20
78.2796
 30
0.0
 11
316.189
 21
77.2791
 31
0.0
  0
LINE
  8
0
 62
     0
 10
316.189
 20
77.2791
 30
0.0
 11
315.39
 21
77.2791
 31
0.0
  0
LINE
  8
0
 62
     0
 10
315.39
 20
77.2791
 30
0.0
 11
315.39
 21
74.1796
 31
0.0
  0
LINE
  8
0
 62
     0
 10
315.39
 20
74.1796
 30
0.0
 11
316.189
 21
74.1796
 31
0.0
  0
LINE
  8
0
 62
     0
 10
316.189
 20
74.1796
 30
0.0
 11
316.189
 21
68.3796
 31
0.0
  0
LINE
  8
0
 62
     0
 10
316.189
 20
68.3796
 30
0.0
 11
315.39
 21
68.3796
 31
0.0
  0
LINE
  8
0
 62
     0
 10
315.39
 20
68.3796
 30
0.0
 11
315.39
 21
65.2791
 31
0.0
  0
LINE
  8
0
 62
     0
 10
334.44
 20
65.2791
 30
0.0
 11
335.239
 21
65.2791
 31
0.0
  0
LINE
  8
0
 62
     0
 10
335.239
 20
65.2791
 30
0.0
 11
335.239
 21
64.28
 31
0.0
  0
LINE
  8
0
 62
     0
 10
335.239
 20
64.28
 30
0.0
 11
349.239
 21
64.28
 31
0.0
  0
LINE
  8
0
 62
     0
 10
349.239
 20
64.28
 30
0.0
 11
349.239
 21
65.2791
 31
0.0
  0
LINE
  8
0
 62
     0
 10
349.239
 20
65.2791
 30
0.0
 11
350.04
 21
65.2791
 31
0.0
  0
LINE
  8
0
 62
     0
 10
350.04
 20
65.2791
 30
0.0
 11
350.04
 21
68.3796
 31
0.0
  0
LINE
  8
0
 62
     0
 10
350.04
 20
68.3796
 30
0.0
 11
349.239
 21
68.3796
 31
0.0
  0
LINE
  8
0
 62
     0
 10
349.239
 20
68.3796
 30
0.0
 11
349.239
 21
74.1796
 31
0.0
  0
LINE
  8
0
 62
     0
 10
349.239
 20
74.1796
 30
0.0
 11
350.04
 21
74.1796
 31
0.0
  0
LINE
  8
0
 62
     0
 10
350.04
 20
74.1796
 30
0.0
 11
350.04
 21
77.2791
 31
0.0
  0
LINE
  8
0
 62
     0
 10
350.04
 20
77.2791
 30
0.0
 11
349.239
 21
77.2791
 31
0.0
  0
LINE
  8
0
 62
     0
 10
349.239
 20
77.2791
 30
0.0
 11
349.239
 21
78.2796
 31
0.0
  0
LINE
  8
0
 62
     0
 10
349.239
 20
78.2796
 30
0.0
 11
335.239
 21
78.2796
 31
0.0
  0
LINE
  8
0
 62
     0
 10
335.239
 20
78.2796
 30
0.0
 11
335.239
 21
77.2791
 31
0.0
  0
LINE
  8
0
 62
     0
 10
335.239
 20
77.2791
 30
0.0
 11
334.44
 21
77.2791
 31
0.0
  0
LINE
  8
0
 62
     0
 10
334.44
 20
77.2791
 30
0.0
 11
334.44
 21
74.1796
 31
0.0
  0
LINE
  8
0
 62
     0
 10
334.44
 20
74.1796
 30
0.0
 11
335.239
 21
74.1796
 31
0.0
  0
LINE
  8
0
 62
     0
 10
335.239
 20
74.1796
 30
0.0
 11
335.239
 21
68.3796
 31
0.0
  0
LINE
  8
0
 62
     0
 10
335.239
 20
68.3796
 30
0.0
 11
334.44
 21
68.3796
 31
0.0
  0
LINE
  8
0
 62
     0
 10
334.44
 20
68.3796
 30
0.0
 11
334.44
 21
65.2791
 31
0.0
  0
LINE
  8
0
 62
     0
 10
286.027
 20
95.8592
 30
0.0
 11
284.353
 21
95.8592
 31
0.0
  0
LINE
  8
0
 62
     0
 10
284.353
 20
95.8592
 30
0.0
 11
284.353
 21
96.7796
 31
0.0
  0
LINE
  8
0
 62
     0
 10
284.353
 20
96.7796
 30
0.0
 11
281.052
 21
96.7796
 31
0.0
  0
LINE
  8
0
 62
     0
 10
281.052
 20
96.7796
 30
0.0
 11
281.052
 21
95.8592
 31
0.0
  0
LINE
  8
0
 62
     0
 10
281.052
 20
95.8592
 30
0.0
 11
279.378
 21
95.8592
 31
0.0
  0
LINE
  8
0
 62
     0
 10
279.378
 20
95.8592
 30
0.0
 11
279.378
 21
92.6289
 31
0.0
  0
LINE
  8
0
 62
     0
 10
279.378
 20
92.6289
 30
0.0
 11
277.803
 21
92.6289
 31
0.0
  0
LINE
  8
0
 62
     0
 10
277.803
 20
92.6289
 30
0.0
 11
277.803
 21
93.2296
 31
0.0
  0
LINE
  8
0
 62
     0
 10
277.803
 20
93.2296
 30
0.0
 11
278.602
 21
93.2296
 31
0.0
  0
LINE
  8
0
 62
     0
 10
278.602
 20
93.2296
 30
0.0
 11
278.602
 21
96.3291
 31
0.0
  0
LINE
  8
0
 62
     0
 10
278.602
 20
96.3291
 30
0.0
 11
277.803
 21
96.3291
 31
0.0
  0
LINE
  8
0
 62
     0
 10
277.803
 20
96.3291
 30
0.0
 11
277.803
 21
97.3296
 31
0.0
  0
LINE
  8
0
 62
     0
 10
277.803
 20
97.3296
 30
0.0
 11
263.802
 21
97.3296
 31
0.0
  0
LINE
  8
0
 62
     0
 10
263.802
 20
97.3296
 30
0.0
 11
263.802
 21
96.3291
 31
0.0
  0
LINE
  8
0
 62
     0
 10
263.802
 20
96.3291
 30
0.0
 11
263.003
 21
96.3291
 31
0.0
  0
LINE
  8
0
 62
     0
 10
263.003
 20
96.3291
 30
0.0
 11
263.003
 21
93.2296
 31
0.0
  0
LINE
  8
0
 62
     0
 10
263.003
 20
93.2296
 30
0.0
 11
263.802
 21
93.2296
 31
0.0
  0
LINE
  8
0
 62
     0
 10
263.802
 20
93.2296
 30
0.0
 11
263.802
 21
92.6289
 31
0.0
  0
LINE
  8
0
 62
     0
 10
263.802
 20
92.6289
 30
0.0
 11
262.228
 21
92.6289
 31
0.0
  0
LINE
  8
0
 62
     0
 10
262.228
 20
92.6289
 30
0.0
 11
262.228
 21
95.8592
 31
0.0
  0
LINE
  8
0
 62
     0
 10
262.228
 20
95.8592
 30
0.0
 11
260.552
 21
95.8592
 31
0.0
  0
LINE
  8
0
 62
     0
 10
260.552
 20
95.8592
 30
0.0
 11
260.552
 21
96.7796
 31
0.0
  0
LINE
  8
0
 62
     0
 10
260.552
 20
96.7796
 30
0.0
 11
257.252
 21
96.7796
 31
0.0
  0
LINE
  8
0
 62
     0
 10
257.252
 20
96.7796
 30
0.0
 11
257.252
 21
95.8592
 31
0.0
  0
LINE
  8
0
 62
     0
 10
257.252
 20
95.8592
 30
0.0
 11
255.578
 21
95.8592
 31
0.0
  0
LINE
  8
0
 62
     0
 10
255.578
 20
95.8592
 30
0.0
 11
255.578
 21
92.6289
 31
0.0
  0
LINE
  8
0
 62
     0
 10
255.578
 20
92.6289
 30
0.0
 11
254.703
 21
92.6289
 31
0.0
  0
LINE
  8
0
 62
     0
 10
254.703
 20
92.6289
 30
0.0
 11
254.703
 21
89.8303
 31
0.0
  0
LINE
  8
0
 62
     0
 10
254.703
 20
89.8303
 30
0.0
 11
255.578
 21
89.8303
 31
0.0
  0
LINE
  8
0
 62
     0
 10
255.578
 20
89.8303
 30
0.0
 11
255.578
 21
83.56
 31
0.0
  0
LINE
  8
0
 62
     0
 10
255.578
 20
83.56
 30
0.0
 11
257.252
 21
83.56
 31
0.0
  0
LINE
  8
0
 62
     0
 10
257.252
 20
83.56
 30
0.0
 11
257.252
 21
82.5789
 31
0.0
  0
LINE
  8
0
 62
     0
 10
257.252
 20
82.5789
 30
0.0
 11
260.552
 21
82.5789
 31
0.0
  0
LINE
  8
0
 62
     0
 10
260.552
 20
82.5789
 30
0.0
 11
260.552
 21
83.56
 31
0.0
  0
LINE
  8
0
 62
     0
 10
260.552
 20
83.56
 30
0.0
 11
262.228
 21
83.56
 31
0.0
  0
LINE
  8
0
 62
     0
 10
262.228
 20
83.56
 30
0.0
 11
262.228
 21
88.029
 31
0.0
  0
LINE
  8
0
 62
     0
 10
262.228
 20
88.029
 30
0.0
 11
263.802
 21
88.029
 31
0.0
  0
LINE
  8
0
 62
     0
 10
263.802
 20
88.029
 30
0.0
 11
263.802
 21
87.4296
 31
0.0
  0
LINE
  8
0
 62
     0
 10
263.802
 20
87.4296
 30
0.0
 11
263.003
 21
87.4296
 31
0.0
  0
LINE
  8
0
 62
     0
 10
263.003
 20
87.4296
 30
0.0
 11
263.003
 21
84.3305
 31
0.0
  0
LINE
  8
0
 62
     0
 10
263.003
 20
84.3305
 30
0.0
 11
263.802
 21
84.3305
 31
0.0
  0
LINE
  8
0
 62
     0
 10
263.802
 20
84.3305
 30
0.0
 11
263.802
 21
83.33
 31
0.0
  0
LINE
  8
0
 62
     0
 10
263.802
 20
83.33
 30
0.0
 11
277.803
 21
83.33
 31
0.0
  0
LINE
  8
0
 62
     0
 10
277.803
 20
83.33
 30
0.0
 11
277.803
 21
84.3305
 31
0.0
  0
LINE
  8
0
 62
     0
 10
277.803
 20
84.3305
 30
0.0
 11
278.602
 21
84.3305
 31
0.0
  0
LINE
  8
0
 62
     0
 10
278.602
 20
84.3305
 30
0.0
 11
278.602
 21
87.4296
 31
0.0
  0
LINE
  8
0
 62
     0
 10
278.602
 20
87.4296
 30
0.0
 11
277.803
 21
87.4296
 31
0.0
  0
LINE
  8
0
 62
     0
 10
277.803
 20
87.4296
 30
0.0
 11
277.803
 21
88.029
 31
0.0
  0
LINE
  8
0
 62
     0
 10
277.803
 20
88.029
 30
0.0
 11
279.378
 21
88.029
 31
0.0
  0
LINE
  8
0
 62
     0
 10
279.378
 20
88.029
 30
0.0
 11
279.378
 21
83.56
 31
0.0
  0
LINE
  8
0
 62
     0
 10
279.378
 20
83.56
 30
0.0
 11
281.052
 21
83.56
 31
0.0
  0
LINE
  8
0
 62
     0
 10
281.052
 20
83.56
 30
0.0
 11
281.052
 21
82.5789
 31
0.0
  0
LINE
  8
0
 62
     0
 10
281.052
 20
82.5789
 30
0.0
 11
284.353
 21
82.5789
 31
0.0
  0
LINE
  8
0
 62
     0
 10
284.353
 20
82.5789
 30
0.0
 11
284.353
 21
83.56
 31
0.0
  0
LINE
  8
0
 62
     0
 10
284.353
 20
83.56
 30
0.0
 11
286.027
 21
83.56
 31
0.0
  0
LINE
  8
0
 62
     0
 10
286.027
 20
83.56
 30
0.0
 11
286.027
 21
89.8303
 31
0.0
  0
LINE
  8
0
 62
     0
 10
286.027
 20
89.8303
 30
0.0
 11
286.902
 21
89.8303
 31
0.0
  0
LINE
  8
0
 62
     0
 10
286.902
 20
89.8303
 30
0.0
 11
286.902
 21
92.6289
 31
0.0
  0
LINE
  8
0
 62
     0
 10
286.902
 20
92.6289
 30
0.0
 11
286.027
 21
92.6289
 31
0.0
  0
LINE
  8
0
 62
     0
 10
286.027
 20
92.6289
 30
0.0
 11
286.027
 21
95.8592
 31
0.0
  0
LINE
  8
0
 62
     0
 10
5.82634
 20
84.3305
 30
0.0
 11
6.627
 21
84.3305
 31
0.0
  0
LINE
  8
0
 62
     0
 10
6.627
 20
84.3305
 30
0.0
 11
6.627
 21
83.33
 31
0.0
  0
LINE
  8
0
 62
     0
 10
6.627
 20
83.33
 30
0.0
 11
20.6279
 21
83.33
 31
0.0
  0
LINE
  8
0
 62
     0
 10
20.6279
 20
83.33
 30
0.0
 11
20.6279
 21
84.3305
 31
0.0
  0
LINE
  8
0
 62
     0
 10
20.6279
 20
84.3305
 30
0.0
 11
21.4271
 21
84.3305
 31
0.0
  0
LINE
  8
0
 62
     0
 10
21.4271
 20
84.3305
 30
0.0
 11
21.4271
 21
87.4296
 31
0.0
  0
LINE
  8
0
 62
     0
 10
21.4271
 20
87.4296
 30
0.0
 11
20.6279
 21
87.4296
 31
0.0
  0
LINE
  8
0
 62
     0
 10
20.6279
 20
87.4296
 30
0.0
 11
20.6279
 21
93.2296
 31
0.0
  0
LINE
  8
0
 62
     0
 10
20.6279
 20
93.2296
 30
0.0
 11
21.4271
 21
93.2296
 31
0.0
  0
LINE
  8
0
 62
     0
 10
21.4271
 20
93.2296
 30
0.0
 11
21.4271
 21
96.3291
 31
0.0
  0
LINE
  8
0
 62
     0
 10
21.4271
 20
96.3291
 30
0.0
 11
20.6279
 21
96.3291
 31
0.0
  0
LINE
  8
0
 62
     0
 10
20.6279
 20
96.3291
 30
0.0
 11
20.6279
 21
97.3296
 31
0.0
  0
LINE
  8
0
 62
     0
 10
20.6279
 20
97.3296
 30
0.0
 11
6.627
 21
97.3296
 31
0.0
  0
LINE
  8
0
 62
     0
 10
6.627
 20
97.3296
 30
0.0
 11
6.627
 21
96.3291
 31
0.0
  0
LINE
  8
0
 62
     0
 10
6.627
 20
96.3291
 30
0.0
 11
5.82634
 21
96.3291
 31
0.0
  0
LINE
  8
0
 62
     0
 10
5.82634
 20
96.3291
 30
0.0
 11
5.82634
 21
93.2296
 31
0.0
  0
LINE
  8
0
 62
     0
 10
5.82634
 20
93.2296
 30
0.0
 11
6.627
 21
93.2296
 31
0.0
  0
LINE
  8
0
 62
     0
 10
6.627
 20
93.2296
 30
0.0
 11
6.627
 21
87.4296
 31
0.0
  0
LINE
  8
0
 62
     0
 10
6.627
 20
87.4296
 30
0.0
 11
5.82634
 21
87.4296
 31
0.0
  0
LINE
  8
0
 62
     0
 10
5.82634
 20
87.4296
 30
0.0
 11
5.82634
 21
84.3305
 31
0.0
  0
LINE
  8
0
 62
     0
 10
24.8777
 20
84.3305
 30
0.0
 11
25.677
 21
84.3305
 31
0.0
  0
LINE
  8
0
 62
     0
 10
25.677
 20
84.3305
 30
0.0
 11
25.677
 21
83.33
 31
0.0
  0
LINE
  8
0
 62
     0
 10
25.677
 20
83.33
 30
0.0
 11
39.678
 21
83.33
 31
0.0
  0
LINE
  8
0
 62
     0
 10
39.678
 20
83.33
 30
0.0
 11
39.678
 21
84.3305
 31
0.0
  0
LINE
  8
0
 62
     0
 10
39.678
 20
84.3305
 30
0.0
 11
40.477
 21
84.3305
 31
0.0
  0
LINE
  8
0
 62
     0
 10
40.477
 20
84.3305
 30
0.0
 11
40.477
 21
87.4296
 31
0.0
  0
LINE
  8
0
 62
     0
 10
40.477
 20
87.4296
 30
0.0
 11
39.678
 21
87.4296
 31
0.0
  0
LINE
  8
0
 62
     0
 10
39.678
 20
87.4296
 30
0.0
 11
39.678
 21
93.2296
 31
0.0
  0
LINE
  8
0
 62
     0
 10
39.678
 20
93.2296
 30
0.0
 11
40.477
 21
93.2296
 31
0.0
  0
LINE
  8
0
 62
     0
 10
40.477
 20
93.2296
 30
0.0
 11
40.477
 21
96.3291
 31
0.0
  0
LINE
  8
0
 62
     0
 10
40.477
 20
96.3291
 30
0.0
 11
39.678
 21
96.3291
 31
0.0
  0
LINE
  8
0
 62
     0
 10
39.678
 20
96.3291
 30
0.0
 11
39.678
 21
97.3296
 31
0.0
  0
LINE
  8
0
 62
     0
 10
39.678
 20
97.3296
 30
0.0
 11
25.677
 21
97.3296
 31
0.0
  0
LINE
  8
0
 62
     0
 10
25.677
 20
97.3296
 30
0.0
 11
25.677
 21
96.3291
 31
0.0
  0
LINE
  8
0
 62
     0
 10
25.677
 20
96.3291
 30
0.0
 11
24.8777
 21
96.3291
 31
0.0
  0
LINE
  8
0
 62
     0
 10
24.8777
 20
96.3291
 30
0.0
 11
24.8777
 21
93.2296
 31
0.0
  0
LINE
  8
0
 62
     0
 10
24.8777
 20
93.2296
 30
0.0
 11
25.677
 21
93.2296
 31
0.0
  0
LINE
  8
0
 62
     0
 10
25.677
 20
93.2296
 30
0.0
 11
25.677
 21
87.4296
 31
0.0
  0
LINE
  8
0
 62
     0
 10
25.677
 20
87.4296
 30
0.0
 11
24.8777
 21
87.4296
 31
0.0
  0
LINE
  8
0
 62
     0
 10
24.8777
 20
87.4296
 30
0.0
 11
24.8777
 21
84.3305
 31
0.0
  0
LINE
  8
0
 62
     0
 10
43.9279
 20
84.3305
 30
0.0
 11
44.7269
 21
84.3305
 31
0.0
  0
LINE
  8
0
 62
     0
 10
44.7269
 20
84.3305
 30
0.0
 11
44.7269
 21
83.33
 31
0.0
  0
LINE
  8
0
 62
     0
 10
44.7269
 20
83.33
 30
0.0
 11
58.728
 21
83.33
 31
0.0
  0
LINE
  8
0
 62
     0
 10
58.728
 20
83.33
 30
0.0
 11
58.728
 21
84.3305
 31
0.0
  0
LINE
  8
0
 62
     0
 10
58.728
 20
84.3305
 30
0.0
 11
59.527
 21
84.3305
 31
0.0
  0
LINE
  8
0
 62
     0
 10
59.527
 20
84.3305
 30
0.0
 11
59.527
 21
87.4296
 31
0.0
  0
LINE
  8
0
 62
     0
 10
59.527
 20
87.4296
 30
0.0
 11
58.728
 21
87.4296
 31
0.0
  0
LINE
  8
0
 62
     0
 10
58.728
 20
87.4296
 30
0.0
 11
58.728
 21
93.2296
 31
0.0
  0
LINE
  8
0
 62
     0
 10
58.728
 20
93.2296
 30
0.0
 11
59.527
 21
93.2296
 31
0.0
  0
LINE
  8
0
 62
     0
 10
59.527
 20
93.2296
 30
0.0
 11
59.527
 21
96.3291
 31
0.0
  0
LINE
  8
0
 62
     0
 10
59.527
 20
96.3291
 30
0.0
 11
58.728
 21
96.3291
 31
0.0
  0
LINE
  8
0
 62
     0
 10
58.728
 20
96.3291
 30
0.0
 11
58.728
 21
97.3296
 31
0.0
  0
LINE
  8
0
 62
     0
 10
58.728
 20
97.3296
 30
0.0
 11
44.7269
 21
97.3296
 31
0.0
  0
LINE
  8
0
 62
     0
 10
44.7269
 20
97.3296
 30
0.0
 11
44.7269
 21
96.3291
 31
0.0
  0
LINE
  8
0
 62
     0
 10
44.7269
 20
96.3291
 30
0.0
 11
43.9279
 21
96.3291
 31
0.0
  0
LINE
  8
0
 62
     0
 10
43.9279
 20
96.3291
 30
0.0
 11
43.9279
 21
93.2296
 31
0.0
  0
LINE
  8
0
 62
     0
 10
43.9279
 20
93.2296
 30
0.0
 11
44.7269
 21
93.2296
 31
0.0
  0
LINE
  8
0
 62
     0
 10
44.7269
 20
93.2296
 30
0.0
 11
44.7269
 21
87.4296
 31
0.0
  0
LINE
  8
0
 62
     0
 10
44.7269
 20
87.4296
 30
0.0
 11
43.9279
 21
87.4296
 31
0.0
  0
LINE
  8
0
 62
     0
 10
43.9279
 20
87.4296
 30
0.0
 11
43.9279
 21
84.3305
 31
0.0
  0
LINE
  8
0
 62
     0
 10
62.9779
 20
84.3305
 30
0.0
 11
63.7769
 21
84.3305
 31
0.0
  0
LINE
  8
0
 62
     0
 10
63.7769
 20
84.3305
 30
0.0
 11
63.7769
 21
83.33
 31
0.0
  0
LINE
  8
0
 62
     0
 10
63.7769
 20
83.33
 30
0.0
 11
77.778
 21
83.33
 31
0.0
  0
LINE
  8
0
 62
     0
 10
77.778
 20
83.33
 30
0.0
 11
77.778
 21
84.3305
 31
0.0
  0
LINE
  8
0
 62
     0
 10
77.778
 20
84.3305
 30
0.0
 11
78.577
 21
84.3305
 31
0.0
  0
LINE
  8
0
 62
     0
 10
78.577
 20
84.3305
 30
0.0
 11
78.577
 21
87.4296
 31
0.0
  0
LINE
  8
0
 62
     0
 10
78.577
 20
87.4296
 30
0.0
 11
77.778
 21
87.4296
 31
0.0
  0
LINE
  8
0
 62
     0
 10
77.778
 20
87.4296
 30
0.0
 11
77.778
 21
93.2296
 31
0.0
  0
LINE
  8
0
 62
     0
 10
77.778
 20
93.2296
 30
0.0
 11
78.577
 21
93.2296
 31
0.0
  0
LINE
  8
0
 62
     0
 10
78.577
 20
93.2296
 30
0.0
 11
78.577
 21
96.3291
 31
0.0
  0
LINE
  8
0
 62
     0
 10
78.577
 20
96.3291
 30
0.0
 11
77.778
 21
96.3291
 31
0.0
  0
LINE
  8
0
 62
     0
 10
77.778
 20
96.3291
 30
0.0
 11
77.778
 21
97.3296
 31
0.0
  0
LINE
  8
0
 62
     0
 10
77.778
 20
97.3296
 30
0.0
 11
63.7769
 21
97.3296
 31
0.0
  0
LINE
  8
0
 62
     0
 10
63.7769
 20
97.3296
 30
0.0
 11
63.7769
 21
96.3291
 31
0.0
  0
LINE
  8
0
 62
     0
 10
63.7769
 20
96.3291
 30
0.0
 11
62.9779
 21
96.3291
 31
0.0
  0
LINE
  8
0
 62
     0
 10
62.9779
 20
96.3291
 30
0.0
 11
62.9779
 21
93.2296
 31
0.0
  0
LINE
  8
0
 62
     0
 10
62.9779
 20
93.2296
 30
0.0
 11
63.7769
 21
93.2296
 31
0.0
  0
LINE
  8
0
 62
     0
 10
63.7769
 20
93.2296
 30
0.0
 11
63.7769
 21
87.4296
 31
0.0
  0
LINE
  8
0
 62
     0
 10
63.7769
 20
87.4296
 30
0.0
 11
62.9779
 21
87.4296
 31
0.0
  0
LINE
  8
0
 62
     0
 10
62.9779
 20
87.4296
 30
0.0
 11
62.9779
 21
84.3305
 31
0.0
  0
LINE
  8
0
 62
     0
 10
82.0279
 20
84.3305
 30
0.0
 11
82.8269
 21
84.3305
 31
0.0
  0
LINE
  8
0
 62
     0
 10
82.8269
 20
84.3305
 30
0.0
 11
82.8269
 21
83.33
 31
0.0
  0
LINE
  8
0
 62
     0
 10
82.8269
 20
83.33
 30
0.0
 11
96.828
 21
83.33
 31
0.0
  0
LINE
  8
0
 62
     0
 10
96.828
 20
83.33
 30
0.0
 11
96.828
 21
84.3305
 31
0.0
  0
LINE
  8
0
 62
     0
 10
96.828
 20
84.3305
 30
0.0
 11
97.627
 21
84.3305
 31
0.0
  0
LINE
  8
0
 62
     0
 10
97.627
 20
84.3305
 30
0.0
 11
97.627
 21
87.4296
 31
0.0
  0
LINE
  8
0
 62
     0
 10
97.627
 20
87.4296
 30
0.0
 11
96.828
 21
87.4296
 31
0.0
  0
LINE
  8
0
 62
     0
 10
96.828
 20
87.4296
 30
0.0
 11
96.828
 21
93.2296
 31
0.0
  0
LINE
  8
0
 62
     0
 10
96.828
 20
93.2296
 30
0.0
 11
97.627
 21
93.2296
 31
0.0
  0
LINE
  8
0
 62
     0
 10
97.627
 20
93.2296
 30
0.0
 11
97.627
 21
96.3291
 31
0.0
  0
LINE
  8
0
 62
     0
 10
97.627
 20
96.3291
 30
0.0
 11
96.828
 21
96.3291
 31
0.0
  0
LINE
  8
0
 62
     0
 10
96.828
 20
96.3291
 30
0.0
 11
96.828
 21
97.3296
 31
0.0
  0
LINE
  8
0
 62
     0
 10
96.828
 20
97.3296
 30
0.0
 11
82.8269
 21
97.3296
 31
0.0
  0
LINE
  8
0
 62
     0
 10
82.8269
 20
97.3296
 30
0.0
 11
82.8269
 21
96.3291
 31
0.0
  0
LINE
  8
0
 62
     0
 10
82.8269
 20
96.3291
 30
0.0
 11
82.0279
 21
96.3291
 31
0.0
  0
LINE
  8
0
 62
     0
 10
82.0279
 20
96.3291
 30
0.0
 11
82.0279
 21
93.2296
 31
0.0
  0
LINE
  8
0
 62
     0
 10
82.0279
 20
93.2296
 30
0.0
 11
82.8269
 21
93.2296
 31
0.0
  0
LINE
  8
0
 62
     0
 10
82.8269
 20
93.2296
 30
0.0
 11
82.8269
 21
87.4296
 31
0.0
  0
LINE
  8
0
 62
     0
 10
82.8269
 20
87.4296
 30
0.0
 11
82.0279
 21
87.4296
 31
0.0
  0
LINE
  8
0
 62
     0
 10
82.0279
 20
87.4296
 30
0.0
 11
82.0279
 21
84.3305
 31
0.0
  0
LINE
  8
0
 62
     0
 10
101.078
 20
84.3305
 30
0.0
 11
101.877
 21
84.3305
 31
0.0
  0
LINE
  8
0
 62
     0
 10
101.877
 20
84.3305
 30
0.0
 11
101.877
 21
83.33
 31
0.0
  0
LINE
  8
0
 62
     0
 10
101.877
 20
83.33
 30
0.0
 11
115.877
 21
83.33
 31
0.0
  0
LINE
  8
0
 62
     0
 10
115.877
 20
83.33
 30
0.0
 11
115.877
 21
84.3305
 31
0.0
  0
LINE
  8
0
 62
     0
 10
115.877
 20
84.3305
 30
0.0
 11
116.677
 21
84.3305
 31
0.0
  0
LINE
  8
0
 62
     0
 10
116.677
 20
84.3305
 30
0.0
 11
116.677
 21
87.4296
 31
0.0
  0
LINE
  8
0
 62
     0
 10
116.677
 20
87.4296
 30
0.0
 11
115.877
 21
87.4296
 31
0.0
  0
LINE
  8
0
 62
     0
 10
115.877
 20
87.4296
 30
0.0
 11
115.877
 21
93.2296
 31
0.0
  0
LINE
  8
0
 62
     0
 10
115.877
 20
93.2296
 30
0.0
 11
116.677
 21
93.2296
 31
0.0
  0
LINE
  8
0
 62
     0
 10
116.677
 20
93.2296
 30
0.0
 11
116.677
 21
96.3291
 31
0.0
  0
LINE
  8
0
 62
     0
 10
116.677
 20
96.3291
 30
0.0
 11
115.877
 21
96.3291
 31
0.0
  0
LINE
  8
0
 62
     0
 10
115.877
 20
96.3291
 30
0.0
 11
115.877
 21
97.3296
 31
0.0
  0
LINE
  8
0
 62
     0
 10
115.877
 20
97.3296
 30
0.0
 11
101.877
 21
97.3296
 31
0.0
  0
LINE
  8
0
 62
     0
 10
101.877
 20
97.3296
 30
0.0
 11
101.877
 21
96.3291
 31
0.0
  0
LINE
  8
0
 62
     0
 10
101.877
 20
96.3291
 30
0.0
 11
101.078
 21
96.3291
 31
0.0
  0
LINE
  8
0
 62
     0
 10
101.078
 20
96.3291
 30
0.0
 11
101.078
 21
93.2296
 31
0.0
  0
LINE
  8
0
 62
     0
 10
101.078
 20
93.2296
 30
0.0
 11
101.877
 21
93.2296
 31
0.0
  0
LINE
  8
0
 62
     0
 10
101.877
 20
93.2296
 30
0.0
 11
101.877
 21
87.4296
 31
0.0
  0
LINE
  8
0
 62
     0
 10
101.877
 20
87.4296
 30
0.0
 11
101.078
 21
87.4296
 31
0.0
  0
LINE
  8
0
 62
     0
 10
101.078
 20
87.4296
 30
0.0
 11
101.078
 21
84.3305
 31
0.0
  0
LINE
  8
0
 62
     0
 10
120.126
 20
84.3305
 30
0.0
 11
120.927
 21
84.3305
 31
0.0
  0
LINE
  8
0
 62
     0
 10
120.927
 20
84.3305
 30
0.0
 11
120.927
 21
83.33
 31
0.0
  0
LINE
  8
0
 62
     0
 10
120.927
 20
83.33
 30
0.0
 11
134.928
 21
83.33
 31
0.0
  0
LINE
  8
0
 62
     0
 10
134.928
 20
83.33
 30
0.0
 11
134.928
 21
84.3305
 31
0.0
  0
LINE
  8
0
 62
     0
 10
134.928
 20
84.3305
 30
0.0
 11
135.727
 21
84.3305
 31
0.0
  0
LINE
  8
0
 62
     0
 10
135.727
 20
84.3305
 30
0.0
 11
135.727
 21
87.4296
 31
0.0
  0
LINE
  8
0
 62
     0
 10
135.727
 20
87.4296
 30
0.0
 11
134.928
 21
87.4296
 31
0.0
  0
LINE
  8
0
 62
     0
 10
134.928
 20
87.4296
 30
0.0
 11
134.928
 21
93.2296
 31
0.0
  0
LINE
  8
0
 62
     0
 10
134.928
 20
93.2296
 30
0.0
 11
135.727
 21
93.2296
 31
0.0
  0
LINE
  8
0
 62
     0
 10
135.727
 20
93.2296
 30
0.0
 11
135.727
 21
96.3291
 31
0.0
  0
LINE
  8
0
 62
     0
 10
135.727
 20
96.3291
 30
0.0
 11
134.928
 21
96.3291
 31
0.0
  0
LINE
  8
0
 62
     0
 10
134.928
 20
96.3291
 30
0.0
 11
134.928
 21
97.3296
 31
0.0
  0
LINE
  8
0
 62
     0
 10
134.928
 20
97.3296
 30
0.0
 11
120.927
 21
97.3296
 31
0.0
  0
LINE
  8
0
 62
     0
 10
120.927
 20
97.3296
 30
0.0
 11
120.927
 21
96.3291
 31
0.0
  0
LINE
  8
0
 62
     0
 10
120.927
 20
96.3291
 30
0.0
 11
120.126
 21
96.3291
 31
0.0
  0
LINE
  8
0
 62
     0
 10
120.126
 20
96.3291
 30
0.0
 11
120.126
 21
93.2296
 31
0.0
  0
LINE
  8
0
 62
     0
 10
120.126
 20
93.2296
 30
0.0
 11
120.927
 21
93.2296
 31
0.0
  0
LINE
  8
0
 62
     0
 10
120.927
 20
93.2296
 30
0.0
 11
120.927
 21
87.4296
 31
0.0
  0
LINE
  8
0
 62
     0
 10
120.927
 20
87.4296
 30
0.0
 11
120.126
 21
87.4296
 31
0.0
  0
LINE
  8
0
 62
     0
 10
120.126
 20
87.4296
 30
0.0
 11
120.126
 21
84.3305
 31
0.0
  0
LINE
  8
0
 62
     0
 10
139.178
 20
84.3305
 30
0.0
 11
139.977
 21
84.3305
 31
0.0
  0
LINE
  8
0
 62
     0
 10
139.977
 20
84.3305
 30
0.0
 11
139.977
 21
83.33
 31
0.0
  0
LINE
  8
0
 62
     0
 10
139.977
 20
83.33
 30
0.0
 11
153.978
 21
83.33
 31
0.0
  0
LINE
  8
0
 62
     0
 10
153.978
 20
83.33
 30
0.0
 11
153.978
 21
84.3305
 31
0.0
  0
LINE
  8
0
 62
     0
 10
153.978
 20
84.3305
 30
0.0
 11
154.777
 21
84.3305
 31
0.0
  0
LINE
  8
0
 62
     0
 10
154.777
 20
84.3305
 30
0.0
 11
154.777
 21
87.4296
 31
0.0
  0
LINE
  8
0
 62
     0
 10
154.777
 20
87.4296
 30
0.0
 11
153.978
 21
87.4296
 31
0.0
  0
LINE
  8
0
 62
     0
 10
153.978
 20
87.4296
 30
0.0
 11
153.978
 21
93.2296
 31
0.0
  0
LINE
  8
0
 62
     0
 10
153.978
 20
93.2296
 30
0.0
 11
154.777
 21
93.2296
 31
0.0
  0
LINE
  8
0
 62
     0
 10
154.777
 20
93.2296
 30
0.0
 11
154.777
 21
96.3291
 31
0.0
  0
LINE
  8
0
 62
     0
 10
154.777
 20
96.3291
 30
0.0
 11
153.978
 21
96.3291
 31
0.0
  0
LINE
  8
0
 62
     0
 10
153.978
 20
96.3291
 30
0.0
 11
153.978
 21
97.3296
 31
0.0
  0
LINE
  8
0
 62
     0
 10
153.978
 20
97.3296
 30
0.0
 11
139.977
 21
97.3296
 31
0.0
  0
LINE
  8
0
 62
     0
 10
139.977
 20
97.3296
 30
0.0
 11
139.977
 21
96.3291
 31
0.0
  0
LINE
  8
0
 62
     0
 10
139.977
 20
96.3291
 30
0.0
 11
139.178
 21
96.3291
 31
0.0
  0
LINE
  8
0
 62
     0
 10
139.178
 20
96.3291
 30
0.0
 11
139.178
 21
93.2296
 31
0.0
  0
LINE
  8
0
 62
     0
 10
139.178
 20
93.2296
 30
0.0
 11
139.977
 21
93.2296
 31
0.0
  0
LINE
  8
0
 62
     0
 10
139.977
 20
93.2296
 30
0.0
 11
139.977
 21
87.4296
 31
0.0
  0
LINE
  8
0
 62
     0
 10
139.977
 20
87.4296
 30
0.0
 11
139.178
 21
87.4296
 31
0.0
  0
LINE
  8
0
 62
     0
 10
139.178
 20
87.4296
 30
0.0
 11
139.178
 21
84.3305
 31
0.0
  0
LINE
  8
0
 62
     0
 10
158.228
 20
84.3305
 30
0.0
 11
159.027
 21
84.3305
 31
0.0
  0
LINE
  8
0
 62
     0
 10
159.027
 20
84.3305
 30
0.0
 11
159.027
 21
83.33
 31
0.0
  0
LINE
  8
0
 62
     0
 10
159.027
 20
83.33
 30
0.0
 11
173.028
 21
83.33
 31
0.0
  0
LINE
  8
0
 62
     0
 10
173.028
 20
83.33
 30
0.0
 11
173.028
 21
84.3305
 31
0.0
  0
LINE
  8
0
 62
     0
 10
173.028
 20
84.3305
 30
0.0
 11
173.827
 21
84.3305
 31
0.0
  0
LINE
  8
0
 62
     0
 10
173.827
 20
84.3305
 30
0.0
 11
173.827
 21
87.4296
 31
0.0
  0
LINE
  8
0
 62
     0
 10
173.827
 20
87.4296
 30
0.0
 11
173.028
 21
87.4296
 31
0.0
  0
LINE
  8
0
 62
     0
 10
173.028
 20
87.4296
 30
0.0
 11
173.028
 21
93.2296
 31
0.0
  0
LINE
  8
0
 62
     0
 10
173.028
 20
93.2296
 30
0.0
 11
173.827
 21
93.2296
 31
0.0
  0
LINE
  8
0
 62
     0
 10
173.827
 20
93.2296
 30
0.0
 11
173.827
 21
96.3291
 31
0.0
  0
LINE
  8
0
 62
     0
 10
173.827
 20
96.3291
 30
0.0
 11
173.028
 21
96.3291
 31
0.0
  0
LINE
  8
0
 62
     0
 10
173.028
 20
96.3291
 30
0.0
 11
173.028
 21
97.3296
 31
0.0
  0
LINE
  8
0
 62
     0
 10
173.028
 20
97.3296
 30
0.0
 11
159.027
 21
97.3296
 31
0.0
  0
LINE
  8
0
 62
     0
 10
159.027
 20
97.3296
 30
0.0
 11
159.027
 21
96.3291
 31
0.0
  0
LINE
  8
0
 62
     0
 10
159.027
 20
96.3291
 30
0.0
 11
158.228
 21
96.3291
 31
0.0
  0
LINE
  8
0
 62
     0
 10
158.228
 20
96.3291
 30
0.0
 11
158.228
 21
93.2296
 31
0.0
  0
LINE
  8
0
 62
     0
 10
158.228
 20
93.2296
 30
0.0
 11
159.027
 21
93.2296
 31
0.0
  0
LINE
  8
0
 62
     0
 10
159.027
 20
93.2296
 30
0.0
 11
159.027
 21
87.4296
 31
0.0
  0
LINE
  8
0
 62
     0
 10
159.027
 20
87.4296
 30
0.0
 11
158.228
 21
87.4296
 31
0.0
  0
LINE
  8
0
 62
     0
 10
158.228
 20
87.4296
 30
0.0
 11
158.228
 21
84.3305
 31
0.0
  0
LINE
  8
0
 62
     0
 10
177.278
 20
84.3305
 30
0.0
 11
178.077
 21
84.3305
 31
0.0
  0
LINE
  8
0
 62
     0
 10
178.077
 20
84.3305
 30
0.0
 11
178.077
 21
83.33
 31
0.0
  0
LINE
  8
0
 62
     0
 10
178.077
 20
83.33
 30
0.0
 11
192.078
 21
83.33
 31
0.0
  0
LINE
  8
0
 62
     0
 10
192.078
 20
83.33
 30
0.0
 11
192.078
 21
84.3305
 31
0.0
  0
LINE
  8
0
 62
     0
 10
192.078
 20
84.3305
 30
0.0
 11
192.877
 21
84.3305
 31
0.0
  0
LINE
  8
0
 62
     0
 10
192.877
 20
84.3305
 30
0.0
 11
192.877
 21
87.4296
 31
0.0
  0
LINE
  8
0
 62
     0
 10
192.877
 20
87.4296
 30
0.0
 11
192.078
 21
87.4296
 31
0.0
  0
LINE
  8
0
 62
     0
 10
192.078
 20
87.4296
 30
0.0
 11
192.078
 21
93.2296
 31
0.0
  0
LINE
  8
0
 62
     0
 10
192.078
 20
93.2296
 30
0.0
 11
192.877
 21
93.2296
 31
0.0
  0
LINE
  8
0
 62
     0
 10
192.877
 20
93.2296
 30
0.0
 11
192.877
 21
96.3291
 31
0.0
  0
LINE
  8
0
 62
     0
 10
192.877
 20
96.3291
 30
0.0
 11
192.078
 21
96.3291
 31
0.0
  0
LINE
  8
0
 62
     0
 10
192.078
 20
96.3291
 30
0.0
 11
192.078
 21
97.3296
 31
0.0
  0
LINE
  8
0
 62
     0
 10
192.078
 20
97.3296
 30
0.0
 11
178.077
 21
97.3296
 31
0.0
  0
LINE
  8
0
 62
     0
 10
178.077
 20
97.3296
 30
0.0
 11
178.077
 21
96.3291
 31
0.0
  0
LINE
  8
0
 62
     0
 10
178.077
 20
96.3291
 30
0.0
 11
177.278
 21
96.3291
 31
0.0
  0
LINE
  8
0
 62
     0
 10
177.278
 20
96.3291
 30
0.0
 11
177.278
 21
93.2296
 31
0.0
  0
LINE
  8
0
 62
     0
 10
177.278
 20
93.2296
 30
0.0
 11
178.077
 21
93.2296
 31
0.0
  0
LINE
  8
0
 62
     0
 10
178.077
 20
93.2296
 30
0.0
 11
178.077
 21
87.4296
 31
0.0
  0
LINE
  8
0
 62
     0
 10
178.077
 20
87.4296
 30
0.0
 11
177.278
 21
87.4296
 31
0.0
  0
LINE
  8
0
 62
     0
 10
177.278
 20
87.4296
 30
0.0
 11
177.278
 21
84.3305
 31
0.0
  0
LINE
  8
0
 62
     0
 10
196.328
 20
84.3305
 30
0.0
 11
197.127
 21
84.3305
 31
0.0
  0
LINE
  8
0
 62
     0
 10
197.127
 20
84.3305
 30
0.0
 11
197.127
 21
83.33
 31
0.0
  0
LINE
  8
0
 62
     0
 10
197.127
 20
83.33
 30
0.0
 11
211.128
 21
83.33
 31
0.0
  0
LINE
  8
0
 62
     0
 10
211.128
 20
83.33
 30
0.0
 11
211.128
 21
84.3305
 31
0.0
  0
LINE
  8
0
 62
     0
 10
211.128
 20
84.3305
 30
0.0
 11
211.927
 21
84.3305
 31
0.0
  0
LINE
  8
0
 62
     0
 10
211.927
 20
84.3305
 30
0.0
 11
211.927
 21
87.4296
 31
0.0
  0
LINE
  8
0
 62
     0
 10
211.927
 20
87.4296
 30
0.0
 11
211.128
 21
87.4296
 31
0.0
  0
LINE
  8
0
 62
     0
 10
211.128
 20
87.4296
 30
0.0
 11
211.128
 21
93.2296
 31
0.0
  0
LINE
  8
0
 62
     0
 10
211.128
 20
93.2296
 30
0.0
 11
211.927
 21
93.2296
 31
0.0
  0
LINE
  8
0
 62
     0
 10
211.927
 20
93.2296
 30
0.0
 11
211.927
 21
96.3291
 31
0.0
  0
LINE
  8
0
 62
     0
 10
211.927
 20
96.3291
 30
0.0
 11
211.128
 21
96.3291
 31
0.0
  0
LINE
  8
0
 62
     0
 10
211.128
 20
96.3291
 30
0.0
 11
211.128
 21
97.3296
 31
0.0
  0
LINE
  8
0
 62
     0
 10
211.128
 20
97.3296
 30
0.0
 11
197.127
 21
97.3296
 31
0.0
  0
LINE
  8
0
 62
     0
 10
197.127
 20
97.3296
 30
0.0
 11
197.127
 21
96.3291
 31
0.0
  0
LINE
  8
0
 62
     0
 10
197.127
 20
96.3291
 30
0.0
 11
196.328
 21
96.3291
 31
0.0
  0
LINE
  8
0
 62
     0
 10
196.328
 20
96.3291
 30
0.0
 11
196.328
 21
93.2296
 31
0.0
  0
LINE
  8
0
 62
     0
 10
196.328
 20
93.2296
 30
0.0
 11
197.127
 21
93.2296
 31
0.0
  0
LINE
  8
0
 62
     0
 10
197.127
 20
93.2296
 30
0.0
 11
197.127
 21
87.4296
 31
0.0
  0
LINE
  8
0
 62
     0
 10
197.127
 20
87.4296
 30
0.0
 11
196.328
 21
87.4296
 31
0.0
  0
LINE
  8
0
 62
     0
 10
196.328
 20
87.4296
 30
0.0
 11
196.328
 21
84.3305
 31
0.0
  0
LINE
  8
0
 62
     0
 10
215.378
 20
84.3305
 30
0.0
 11
216.177
 21
84.3305
 31
0.0
  0
LINE
  8
0
 62
     0
 10
216.177
 20
84.3305
 30
0.0
 11
216.177
 21
83.33
 31
0.0
  0
LINE
  8
0
 62
     0
 10
216.177
 20
83.33
 30
0.0
 11
230.178
 21
83.33
 31
0.0
  0
LINE
  8
0
 62
     0
 10
230.178
 20
83.33
 30
0.0
 11
230.178
 21
84.3305
 31
0.0
  0
LINE
  8
0
 62
     0
 10
230.178
 20
84.3305
 30
0.0
 11
230.977
 21
84.3305
 31
0.0
  0
LINE
  8
0
 62
     0
 10
230.977
 20
84.3305
 30
0.0
 11
230.977
 21
87.4296
 31
0.0
  0
LINE
  8
0
 62
     0
 10
230.977
 20
87.4296
 30
0.0
 11
230.178
 21
87.4296
 31
0.0
  0
LINE
  8
0
 62
     0
 10
230.178
 20
87.4296
 30
0.0
 11
230.178
 21
93.2296
 31
0.0
  0
LINE
  8
0
 62
     0
 10
230.178
 20
93.2296
 30
0.0
 11
230.977
 21
93.2296
 31
0.0
  0
LINE
  8
0
 62
     0
 10
230.977
 20
93.2296
 30
0.0
 11
230.977
 21
96.3291
 31
0.0
  0
LINE
  8
0
 62
     0
 10
230.977
 20
96.3291
 30
0.0
 11
230.178
 21
96.3291
 31
0.0
  0
LINE
  8
0
 62
     0
 10
230.178
 20
96.3291
 30
0.0
 11
230.178
 21
97.3296
 31
0.0
  0
LINE
  8
0
 62
     0
 10
230.178
 20
97.3296
 30
0.0
 11
216.177
 21
97.3296
 31
0.0
  0
LINE
  8
0
 62
     0
 10
216.177
 20
97.3296
 30
0.0
 11
216.177
 21
96.3291
 31
0.0
  0
LINE
  8
0
 62
     0
 10
216.177
 20
96.3291
 30
0.0
 11
215.378
 21
96.3291
 31
0.0
  0
LINE
  8
0
 62
     0
 10
215.378
 20
96.3291
 30
0.0
 11
215.378
 21
93.2296
 31
0.0
  0
LINE
  8
0
 62
     0
 10
215.378
 20
93.2296
 30
0.0
 11
216.177
 21
93.2296
 31
0.0
  0
LINE
  8
0
 62
     0
 10
216.177
 20
93.2296
 30
0.0
 11
216.177
 21
87.4296
 31
0.0
  0
LINE
  8
0
 62
     0
 10
216.177
 20
87.4296
 30
0.0
 11
215.378
 21
87.4296
 31
0.0
  0
LINE
  8
0
 62
     0
 10
215.378
 20
87.4296
 30
0.0
 11
215.378
 21
84.3305
 31
0.0
  0
LINE
  8
0
 62
     0
 10
234.428
 20
84.3305
 30
0.0
 11
235.227
 21
84.3305
 31
0.0
  0
LINE
  8
0
 62
     0
 10
235.227
 20
84.3305
 30
0.0
 11
235.227
 21
83.33
 31
0.0
  0
LINE
  8
0
 62
     0
 10
235.227
 20
83.33
 30
0.0
 11
249.228
 21
83.33
 31
0.0
  0
LINE
  8
0
 62
     0
 10
249.228
 20
83.33
 30
0.0
 11
249.228
 21
84.3305
 31
0.0
  0
LINE
  8
0
 62
     0
 10
249.228
 20
84.3305
 30
0.0
 11
250.027
 21
84.3305
 31
0.0
  0
LINE
  8
0
 62
     0
 10
250.027
 20
84.3305
 30
0.0
 11
250.027
 21
87.4296
 31
0.0
  0
LINE
  8
0
 62
     0
 10
250.027
 20
87.4296
 30
0.0
 11
249.228
 21
87.4296
 31
0.0
  0
LINE
  8
0
 62
     0
 10
249.228
 20
87.4296
 30
0.0
 11
249.228
 21
93.2296
 31
0.0
  0
LINE
  8
0
 62
     0
 10
249.228
 20
93.2296
 30
0.0
 11
250.027
 21
93.2296
 31
0.0
  0
LINE
  8
0
 62
     0
 10
250.027
 20
93.2296
 30
0.0
 11
250.027
 21
96.3291
 31
0.0
  0
LINE
  8
0
 62
     0
 10
250.027
 20
96.3291
 30
0.0
 11
249.228
 21
96.3291
 31
0.0
  0
LINE
  8
0
 62
     0
 10
249.228
 20
96.3291
 30
0.0
 11
249.228
 21
97.3296
 31
0.0
  0
LINE
  8
0
 62
     0
 10
249.228
 20
97.3296
 30
0.0
 11
235.227
 21
97.3296
 31
0.0
  0
LINE
  8
0
 62
     0
 10
235.227
 20
97.3296
 30
0.0
 11
235.227
 21
96.3291
 31
0.0
  0
LINE
  8
0
 62
     0
 10
235.227
 20
96.3291
 30
0.0
 11
234.428
 21
96.3291
 31
0.0
  0
LINE
  8
0
 62
     0
 10
234.428
 20
96.3291
 30
0.0
 11
234.428
 21
93.2296
 31
0.0
  0
LINE
  8
0
 62
     0
 10
234.428
 20
93.2296
 30
0.0
 11
235.227
 21
93.2296
 31
0.0
  0
LINE
  8
0
 62
     0
 10
235.227
 20
93.2296
 30
0.0
 11
235.227
 21
87.4296
 31
0.0
  0
LINE
  8
0
 62
     0
 10
235.227
 20
87.4296
 30
0.0
 11
234.428
 21
87.4296
 31
0.0
  0
LINE
  8
0
 62
     0
 10
234.428
 20
87.4296
 30
0.0
 11
234.428
 21
84.3305
 31
0.0
  0
LINE
  8
0
 62
     0
 10
296.34
 20
84.3305
 30
0.0
 11
297.139
 21
84.3305
 31
0.0
  0
LINE
  8
0
 62
     0
 10
297.139
 20
84.3305
 30
0.0
 11
297.139
 21
83.33
 31
0.0
  0
LINE
  8
0
 62
     0
 10
297.139
 20
83.33
 30
0.0
 11
311.139
 21
83.33
 31
0.0
  0
LINE
  8
0
 62
     0
 10
311.139
 20
83.33
 30
0.0
 11
311.139
 21
84.3305
 31
0.0
  0
LINE
  8
0
 62
     0
 10
311.139
 20
84.3305
 30
0.0
 11
311.94
 21
84.3305
 31
0.0
  0
LINE
  8
0
 62
     0
 10
311.94
 20
84.3305
 30
0.0
 11
311.94
 21
87.4296
 31
0.0
  0
LINE
  8
0
 62
     0
 10
311.94
 20
87.4296
 30
0.0
 11
311.139
 21
87.4296
 31
0.0
  0
LINE
  8
0
 62
     0
 10
311.139
 20
87.4296
 30
0.0
 11
311.139
 21
93.2296
 31
0.0
  0
LINE
  8
0
 62
     0
 10
311.139
 20
93.2296
 30
0.0
 11
311.94
 21
93.2296
 31
0.0
  0
LINE
  8
0
 62
     0
 10
311.94
 20
93.2296
 30
0.0
 11
311.94
 21
96.3291
 31
0.0
  0
LINE
  8
0
 62
     0
 10
311.94
 20
96.3291
 30
0.0
 11
311.139
 21
96.3291
 31
0.0
  0
LINE
  8
0
 62
     0
 10
311.139
 20
96.3291
 30
0.0
 11
311.139
 21
97.3296
 31
0.0
  0
LINE
  8
0
 62
     0
 10
311.139
 20
97.3296
 30
0.0
 11
297.139
 21
97.3296
 31
0.0
  0
LINE
  8
0
 62
     0
 10
297.139
 20
97.3296
 30
0.0
 11
297.139
 21
96.3291
 31
0.0
  0
LINE
  8
0
 62
     0
 10
297.139
 20
96.3291
 30
0.0
 11
296.34
 21
96.3291
 31
0.0
  0
LINE
  8
0
 62
     0
 10
296.34
 20
96.3291
 30
0.0
 11
296.34
 21
93.2296
 31
0.0
  0
LINE
  8
0
 62
     0
 10
296.34
 20
93.2296
 30
0.0
 11
297.139
 21
93.2296
 31
0.0
  0
LINE
  8
0
 62
     0
 10
297.139
 20
93.2296
 30
0.0
 11
297.139
 21
87.4296
 31
0.0
  0
LINE
  8
0
 62
     0
 10
297.139
 20
87.4296
 30
0.0
 11
296.34
 21
87.4296
 31
0.0
  0
LINE
  8
0
 62
     0
 10
296.34
 20
87.4296
 30
0.0
 11
296.34
 21
84.3305
 31
0.0
  0
LINE
  8
0
 62
     0
 10
315.39
 20
84.3305
 30
0.0
 11
316.189
 21
84.3305
 31
0.0
  0
LINE
  8
0
 62
     0
 10
316.189
 20
84.3305
 30
0.0
 11
316.189
 21
83.33
 31
0.0
  0
LINE
  8
0
 62
     0
 10
316.189
 20
83.33
 30
0.0
 11
330.189
 21
83.33
 31
0.0
  0
LINE
  8
0
 62
     0
 10
330.189
 20
83.33
 30
0.0
 11
330.189
 21
84.3305
 31
0.0
  0
LINE
  8
0
 62
     0
 10
330.189
 20
84.3305
 30
0.0
 11
330.99
 21
84.3305
 31
0.0
  0
LINE
  8
0
 62
     0
 10
330.99
 20
84.3305
 30
0.0
 11
330.99
 21
87.4296
 31
0.0
  0
LINE
  8
0
 62
     0
 10
330.99
 20
87.4296
 30
0.0
 11
330.189
 21
87.4296
 31
0.0
  0
LINE
  8
0
 62
     0
 10
330.189
 20
87.4296
 30
0.0
 11
330.189
 21
93.2296
 31
0.0
  0
LINE
  8
0
 62
     0
 10
330.189
 20
93.2296
 30
0.0
 11
330.99
 21
93.2296
 31
0.0
  0
LINE
  8
0
 62
     0
 10
330.99
 20
93.2296
 30
0.0
 11
330.99
 21
96.3291
 31
0.0
  0
LINE
  8
0
 62
     0
 10
330.99
 20
96.3291
 30
0.0
 11
330.189
 21
96.3291
 31
0.0
  0
LINE
  8
0
 62
     0
 10
330.189
 20
96.3291
 30
0.0
 11
330.189
 21
97.3296
 31
0.0
  0
LINE
  8
0
 62
     0
 10
330.189
 20
97.3296
 30
0.0
 11
316.189
 21
97.3296
 31
0.0
  0
LINE
  8
0
 62
     0
 10
316.189
 20
97.3296
 30
0.0
 11
316.189
 21
96.3291
 31
0.0
  0
LINE
  8
0
 62
     0
 10
316.189
 20
96.3291
 30
0.0
 11
315.39
 21
96.3291
 31
0.0
  0
LINE
  8
0
 62
     0
 10
315.39
 20
96.3291
 30
0.0
 11
315.39
 21
93.2296
 31
0.0
  0
LINE
  8
0
 62
     0
 10
315.39
 20
93.2296
 30
0.0
 11
316.189
 21
93.2296
 31
0.0
  0
LINE
  8
0
 62
     0
 10
316.189
 20
93.2296
 30
0.0
 11
316.189
 21
87.4296
 31
0.0
  0
LINE
  8
0
 62
     0
 10
316.189
 20
87.4296
 30
0.0
 11
315.39
 21
87.4296
 31
0.0
  0
LINE
  8
0
 62
     0
 10
315.39
 20
87.4296
 30
0.0
 11
315.39
 21
84.3305
 31
0.0
  0
LINE
  8
0
 62
     0
 10
334.44
 20
84.3305
 30
0.0
 11
335.239
 21
84.3305
 31
0.0
  0
LINE
  8
0
 62
     0
 10
335.239
 20
84.3305
 30
0.0
 11
335.239
 21
83.33
 31
0.0
  0
LINE
  8
0
 62
     0
 10
335.239
 20
83.33
 30
0.0
 11
349.239
 21
83.33
 31
0.0
  0
LINE
  8
0
 62
     0
 10
349.239
 20
83.33
 30
0.0
 11
349.239
 21
84.3305
 31
0.0
  0
LINE
  8
0
 62
     0
 10
349.239
 20
84.3305
 30
0.0
 11
350.04
 21
84.3305
 31
0.0
  0
LINE
  8
0
 62
     0
 10
350.04
 20
84.3305
 30
0.0
 11
350.04
 21
87.4296
 31
0.0
  0
LINE
  8
0
 62
     0
 10
350.04
 20
87.4296
 30
0.0
 11
349.239
 21
87.4296
 31
0.0
  0
LINE
  8
0
 62
     0
 10
349.239
 20
87.4296
 30
0.0
 11
349.239
 21
93.2296
 31
0.0
  0
LINE
  8
0
 62
     0
 10
349.239
 20
93.2296
 30
0.0
 11
350.04
 21
93.2296
 31
0.0
  0
LINE
  8
0
 62
     0
 10
350.04
 20
93.2296
 30
0.0
 11
350.04
 21
96.3291
 31
0.0
  0
LINE
  8
0
 62
     0
 10
350.04
 20
96.3291
 30
0.0
 11
349.239
 21
96.3291
 31
0.0
  0
LINE
  8
0
 62
     0
 10
349.239
 20
96.3291
 30
0.0
 11
349.239
 21
97.3296
 31
0.0
  0
LINE
  8
0
 62
     0
 10
349.239
 20
97.3296
 30
0.0
 11
335.239
 21
97.3296
 31
0.0
  0
LINE
  8
0
 62
     0
 10
335.239
 20
97.3296
 30
0.0
 11
335.239
 21
96.3291
 31
0.0
  0
LINE
  8
0
 62
     0
 10
335.239
 20
96.3291
 30
0.0
 11
334.44
 21
96.3291
 31
0.0
  0
LINE
  8
0
 62
     0
 10
334.44
 20
96.3291
 30
0.0
 11
334.44
 21
93.2296
 31
0.0
  0
LINE
  8
0
 62
     0
 10
334.44
 20
93.2296
 30
0.0
 11
335.239
 21
93.2296
 31
0.0
  0
LINE
  8
0
 62
     0
 10
335.239
 20
93.2296
 30
0.0
 11
335.239
 21
87.4296
 31
0.0
  0
LINE
  8
0
 62
     0
 10
335.239
 20
87.4296
 30
0.0
 11
334.44
 21
87.4296
 31
0.0
  0
LINE
  8
0
 62
     0
 10
334.44
 20
87.4296
 30
0.0
 11
334.44
 21
84.3305
 31
0.0
  0
LINE
  8
0
 62
     0
 10
5.82634
 20
112.904
 30
0.0
 11
6.627
 21
112.904
 31
0.0
  0
LINE
  8
0
 62
     0
 10
6.627
 20
112.904
 30
0.0
 11
6.627
 21
111.905
 31
0.0
  0
LINE
  8
0
 62
     0
 10
6.627
 20
111.905
 30
0.0
 11
20.6279
 21
111.905
 31
0.0
  0
LINE
  8
0
 62
     0
 10
20.6279
 20
111.905
 30
0.0
 11
20.6279
 21
112.904
 31
0.0
  0
LINE
  8
0
 62
     0
 10
20.6279
 20
112.904
 30
0.0
 11
21.4271
 21
112.904
 31
0.0
  0
LINE
  8
0
 62
     0
 10
21.4271
 20
112.904
 30
0.0
 11
21.4271
 21
116.006
 31
0.0
  0
LINE
  8
0
 62
     0
 10
21.4271
 20
116.006
 30
0.0
 11
20.6279
 21
116.006
 31
0.0
  0
LINE
  8
0
 62
     0
 10
20.6279
 20
116.006
 30
0.0
 11
20.6279
 21
121.805
 31
0.0
  0
LINE
  8
0
 62
     0
 10
20.6279
 20
121.805
 30
0.0
 11
21.4271
 21
121.805
 31
0.0
  0
LINE
  8
0
 62
     0
 10
21.4271
 20
121.805
 30
0.0
 11
21.4271
 21
124.904
 31
0.0
  0
LINE
  8
0
 62
     0
 10
21.4271
 20
124.904
 30
0.0
 11
20.6279
 21
124.904
 31
0.0
  0
LINE
  8
0
 62
     0
 10
20.6279
 20
124.904
 30
0.0
 11
20.6279
 21
125.905
 31
0.0
  0
LINE
  8
0
 62
     0
 10
20.6279
 20
125.905
 30
0.0
 11
6.627
 21
125.905
 31
0.0
  0
LINE
  8
0
 62
     0
 10
6.627
 20
125.905
 30
0.0
 11
6.627
 21
124.904
 31
0.0
  0
LINE
  8
0
 62
     0
 10
6.627
 20
124.904
 30
0.0
 11
5.82634
 21
124.904
 31
0.0
  0
LINE
  8
0
 62
     0
 10
5.82634
 20
124.904
 30
0.0
 11
5.82634
 21
121.805
 31
0.0
  0
LINE
  8
0
 62
     0
 10
5.82634
 20
121.805
 30
0.0
 11
6.627
 21
121.805
 31
0.0
  0
LINE
  8
0
 62
     0
 10
6.627
 20
121.805
 30
0.0
 11
6.627
 21
116.006
 31
0.0
  0
LINE
  8
0
 62
     0
 10
6.627
 20
116.006
 30
0.0
 11
5.82634
 21
116.006
 31
0.0
  0
LINE
  8
0
 62
     0
 10
5.82634
 20
116.006
 30
0.0
 11
5.82634
 21
112.904
 31
0.0
  0
LINE
  8
0
 62
     0
 10
24.8777
 20
112.904
 30
0.0
 11
25.677
 21
112.904
 31
0.0
  0
LINE
  8
0
 62
     0
 10
25.677
 20
112.904
 30
0.0
 11
25.677
 21
111.905
 31
0.0
  0
LINE
  8
0
 62
     0
 10
25.677
 20
111.905
 30
0.0
 11
39.678
 21
111.905
 31
0.0
  0
LINE
  8
0
 62
     0
 10
39.678
 20
111.905
 30
0.0
 11
39.678
 21
112.904
 31
0.0
  0
LINE
  8
0
 62
     0
 10
39.678
 20
112.904
 30
0.0
 11
40.477
 21
112.904
 31
0.0
  0
LINE
  8
0
 62
     0
 10
40.477
 20
112.904
 30
0.0
 11
40.477
 21
116.006
 31
0.0
  0
LINE
  8
0
 62
     0
 10
40.477
 20
116.006
 30
0.0
 11
39.678
 21
116.006
 31
0.0
  0
LINE
  8
0
 62
     0
 10
39.678
 20
116.006
 30
0.0
 11
39.678
 21
121.805
 31
0.0
  0
LINE
  8
0
 62
     0
 10
39.678
 20
121.805
 30
0.0
 11
40.477
 21
121.805
 31
0.0
  0
LINE
  8
0
 62
     0
 10
40.477
 20
121.805
 30
0.0
 11
40.477
 21
124.904
 31
0.0
  0
LINE
  8
0
 62
     0
 10
40.477
 20
124.904
 30
0.0
 11
39.678
 21
124.904
 31
0.0
  0
LINE
  8
0
 62
     0
 10
39.678
 20
124.904
 30
0.0
 11
39.678
 21
125.905
 31
0.0
  0
LINE
  8
0
 62
     0
 10
39.678
 20
125.905
 30
0.0
 11
25.677
 21
125.905
 31
0.0
  0
LINE
  8
0
 62
     0
 10
25.677
 20
125.905
 30
0.0
 11
25.677
 21
124.904
 31
0.0
  0
LINE
  8
0
 62
     0
 10
25.677
 20
124.904
 30
0.0
 11
24.8777
 21
124.904
 31
0.0
  0
LINE
  8
0
 62
     0
 10
24.8777
 20
124.904
 30
0.0
 11
24.8777
 21
121.805
 31
0.0
  0
LINE
  8
0
 62
     0
 10
24.8777
 20
121.805
 30
0.0
 11
25.677
 21
121.805
 31
0.0
  0
LINE
  8
0
 62
     0
 10
25.677
 20
121.805
 30
0.0
 11
25.677
 21
116.006
 31
0.0
  0
LINE
  8
0
 62
     0
 10
25.677
 20
116.006
 30
0.0
 11
24.8777
 21
116.006
 31
0.0
  0
LINE
  8
0
 62
     0
 10
24.8777
 20
116.006
 30
0.0
 11
24.8777
 21
112.904
 31
0.0
  0
LINE
  8
0
 62
     0
 10
53.4529
 20
112.904
 30
0.0
 11
54.2519
 21
112.904
 31
0.0
  0
LINE
  8
0
 62
     0
 10
54.2519
 20
112.904
 30
0.0
 11
54.2519
 21
111.905
 31
0.0
  0
LINE
  8
0
 62
     0
 10
54.2519
 20
111.905
 30
0.0
 11
68.253
 21
111.905
 31
0.0
  0
LINE
  8
0
 62
     0
 10
68.253
 20
111.905
 30
0.0
 11
68.253
 21
112.904
 31
0.0
  0
LINE
  8
0
 62
     0
 10
68.253
 20
112.904
 30
0.0
 11
69.052
 21
112.904
 31
0.0
  0
LINE
  8
0
 62
     0
 10
69.052
 20
112.904
 30
0.0
 11
69.052
 21
116.006
 31
0.0
  0
LINE
  8
0
 62
     0
 10
69.052
 20
116.006
 30
0.0
 11
68.253
 21
116.006
 31
0.0
  0
LINE
  8
0
 62
     0
 10
68.253
 20
116.006
 30
0.0
 11
68.253
 21
121.805
 31
0.0
  0
LINE
  8
0
 62
     0
 10
68.253
 20
121.805
 30
0.0
 11
69.052
 21
121.805
 31
0.0
  0
LINE
  8
0
 62
     0
 10
69.052
 20
121.805
 30
0.0
 11
69.052
 21
124.904
 31
0.0
  0
LINE
  8
0
 62
     0
 10
69.052
 20
124.904
 30
0.0
 11
68.253
 21
124.904
 31
0.0
  0
LINE
  8
0
 62
     0
 10
68.253
 20
124.904
 30
0.0
 11
68.253
 21
125.905
 31
0.0
  0
LINE
  8
0
 62
     0
 10
68.253
 20
125.905
 30
0.0
 11
54.2519
 21
125.905
 31
0.0
  0
LINE
  8
0
 62
     0
 10
54.2519
 20
125.905
 30
0.0
 11
54.2519
 21
124.904
 31
0.0
  0
LINE
  8
0
 62
     0
 10
54.2519
 20
124.904
 30
0.0
 11
53.4529
 21
124.904
 31
0.0
  0
LINE
  8
0
 62
     0
 10
53.4529
 20
124.904
 30
0.0
 11
53.4529
 21
121.805
 31
0.0
  0
LINE
  8
0
 62
     0
 10
53.4529
 20
121.805
 30
0.0
 11
54.2519
 21
121.805
 31
0.0
  0
LINE
  8
0
 62
     0
 10
54.2519
 20
121.805
 30
0.0
 11
54.2519
 21
116.006
 31
0.0
  0
LINE
  8
0
 62
     0
 10
54.2519
 20
116.006
 30
0.0
 11
53.4529
 21
116.006
 31
0.0
  0
LINE
  8
0
 62
     0
 10
53.4529
 20
116.006
 30
0.0
 11
53.4529
 21
112.904
 31
0.0
  0
LINE
  8
0
 62
     0
 10
72.5029
 20
112.904
 30
0.0
 11
73.3019
 21
112.904
 31
0.0
  0
LINE
  8
0
 62
     0
 10
73.3019
 20
112.904
 30
0.0
 11
73.3019
 21
111.905
 31
0.0
  0
LINE
  8
0
 62
     0
 10
73.3019
 20
111.905
 30
0.0
 11
87.303
 21
111.905
 31
0.0
  0
LINE
  8
0
 62
     0
 10
87.303
 20
111.905
 30
0.0
 11
87.303
 21
112.904
 31
0.0
  0
LINE
  8
0
 62
     0
 10
87.303
 20
112.904
 30
0.0
 11
88.102
 21
112.904
 31
0.0
  0
LINE
  8
0
 62
     0
 10
88.102
 20
112.904
 30
0.0
 11
88.102
 21
116.006
 31
0.0
  0
LINE
  8
0
 62
     0
 10
88.102
 20
116.006
 30
0.0
 11
87.303
 21
116.006
 31
0.0
  0
LINE
  8
0
 62
     0
 10
87.303
 20
116.006
 30
0.0
 11
87.303
 21
121.805
 31
0.0
  0
LINE
  8
0
 62
     0
 10
87.303
 20
121.805
 30
0.0
 11
88.102
 21
121.805
 31
0.0
  0
LINE
  8
0
 62
     0
 10
88.102
 20
121.805
 30
0.0
 11
88.102
 21
124.904
 31
0.0
  0
LINE
  8
0
 62
     0
 10
88.102
 20
124.904
 30
0.0
 11
87.303
 21
124.904
 31
0.0
  0
LINE
  8
0
 62
     0
 10
87.303
 20
124.904
 30
0.0
 11
87.303
 21
125.905
 31
0.0
  0
LINE
  8
0
 62
     0
 10
87.303
 20
125.905
 30
0.0
 11
73.3019
 21
125.905
 31
0.0
  0
LINE
  8
0
 62
     0
 10
73.3019
 20
125.905
 30
0.0
 11
73.3019
 21
124.904
 31
0.0
  0
LINE
  8
0
 62
     0
 10
73.3019
 20
124.904
 30
0.0
 11
72.5029
 21
124.904
 31
0.0
  0
LINE
  8
0
 62
     0
 10
72.5029
 20
124.904
 30
0.0
 11
72.5029
 21
121.805
 31
0.0
  0
LINE
  8
0
 62
     0
 10
72.5029
 20
121.805
 30
0.0
 11
73.3019
 21
121.805
 31
0.0
  0
LINE
  8
0
 62
     0
 10
73.3019
 20
121.805
 30
0.0
 11
73.3019
 21
116.006
 31
0.0
  0
LINE
  8
0
 62
     0
 10
73.3019
 20
116.006
 30
0.0
 11
72.5029
 21
116.006
 31
0.0
  0
LINE
  8
0
 62
     0
 10
72.5029
 20
116.006
 30
0.0
 11
72.5029
 21
112.904
 31
0.0
  0
LINE
  8
0
 62
     0
 10
91.5529
 20
112.904
 30
0.0
 11
92.3519
 21
112.904
 31
0.0
  0
LINE
  8
0
 62
     0
 10
92.3519
 20
112.904
 30
0.0
 11
92.3519
 21
111.905
 31
0.0
  0
LINE
  8
0
 62
     0
 10
92.3519
 20
111.905
 30
0.0
 11
106.353
 21
111.905
 31
0.0
  0
LINE
  8
0
 62
     0
 10
106.353
 20
111.905
 30
0.0
 11
106.353
 21
112.904
 31
0.0
  0
LINE
  8
0
 62
     0
 10
106.353
 20
112.904
 30
0.0
 11
107.152
 21
112.904
 31
0.0
  0
LINE
  8
0
 62
     0
 10
107.152
 20
112.904
 30
0.0
 11
107.152
 21
116.006
 31
0.0
  0
LINE
  8
0
 62
     0
 10
107.152
 20
116.006
 30
0.0
 11
106.353
 21
116.006
 31
0.0
  0
LINE
  8
0
 62
     0
 10
106.353
 20
116.006
 30
0.0
 11
106.353
 21
121.805
 31
0.0
  0
LINE
  8
0
 62
     0
 10
106.353
 20
121.805
 30
0.0
 11
107.152
 21
121.805
 31
0.0
  0
LINE
  8
0
 62
     0
 10
107.152
 20
121.805
 30
0.0
 11
107.152
 21
124.904
 31
0.0
  0
LINE
  8
0
 62
     0
 10
107.152
 20
124.904
 30
0.0
 11
106.353
 21
124.904
 31
0.0
  0
LINE
  8
0
 62
     0
 10
106.353
 20
124.904
 30
0.0
 11
106.353
 21
125.905
 31
0.0
  0
LINE
  8
0
 62
     0
 10
106.353
 20
125.905
 30
0.0
 11
92.3519
 21
125.905
 31
0.0
  0
LINE
  8
0
 62
     0
 10
92.3519
 20
125.905
 30
0.0
 11
92.3519
 21
124.904
 31
0.0
  0
LINE
  8
0
 62
     0
 10
92.3519
 20
124.904
 30
0.0
 11
91.5529
 21
124.904
 31
0.0
  0
LINE
  8
0
 62
     0
 10
91.5529
 20
124.904
 30
0.0
 11
91.5529
 21
121.805
 31
0.0
  0
LINE
  8
0
 62
     0
 10
91.5529
 20
121.805
 30
0.0
 11
92.3519
 21
121.805
 31
0.0
  0
LINE
  8
0
 62
     0
 10
92.3519
 20
121.805
 30
0.0
 11
92.3519
 21
116.006
 31
0.0
  0
LINE
  8
0
 62
     0
 10
92.3519
 20
116.006
 30
0.0
 11
91.5529
 21
116.006
 31
0.0
  0
LINE
  8
0
 62
     0
 10
91.5529
 20
116.006
 30
0.0
 11
91.5529
 21
112.904
 31
0.0
  0
LINE
  8
0
 62
     0
 10
110.603
 20
112.904
 30
0.0
 11
111.402
 21
112.904
 31
0.0
  0
LINE
  8
0
 62
     0
 10
111.402
 20
112.904
 30
0.0
 11
111.402
 21
111.905
 31
0.0
  0
LINE
  8
0
 62
     0
 10
111.402
 20
111.905
 30
0.0
 11
125.403
 21
111.905
 31
0.0
  0
LINE
  8
0
 62
     0
 10
125.403
 20
111.905
 30
0.0
 11
125.403
 21
112.904
 31
0.0
  0
LINE
  8
0
 62
     0
 10
125.403
 20
112.904
 30
0.0
 11
126.202
 21
112.904
 31
0.0
  0
LINE
  8
0
 62
     0
 10
126.202
 20
112.904
 30
0.0
 11
126.202
 21
116.006
 31
0.0
  0
LINE
  8
0
 62
     0
 10
126.202
 20
116.006
 30
0.0
 11
125.403
 21
116.006
 31
0.0
  0
LINE
  8
0
 62
     0
 10
125.403
 20
116.006
 30
0.0
 11
125.403
 21
121.805
 31
0.0
  0
LINE
  8
0
 62
     0
 10
125.403
 20
121.805
 30
0.0
 11
126.202
 21
121.805
 31
0.0
  0
LINE
  8
0
 62
     0
 10
126.202
 20
121.805
 30
0.0
 11
126.202
 21
124.904
 31
0.0
  0
LINE
  8
0
 62
     0
 10
126.202
 20
124.904
 30
0.0
 11
125.403
 21
124.904
 31
0.0
  0
LINE
  8
0
 62
     0
 10
125.403
 20
124.904
 30
0.0
 11
125.403
 21
125.905
 31
0.0
  0
LINE
  8
0
 62
     0
 10
125.403
 20
125.905
 30
0.0
 11
111.402
 21
125.905
 31
0.0
  0
LINE
  8
0
 62
     0
 10
111.402
 20
125.905
 30
0.0
 11
111.402
 21
124.904
 31
0.0
  0
LINE
  8
0
 62
     0
 10
111.402
 20
124.904
 30
0.0
 11
110.603
 21
124.904
 31
0.0
  0
LINE
  8
0
 62
     0
 10
110.603
 20
124.904
 30
0.0
 11
110.603
 21
121.805
 31
0.0
  0
LINE
  8
0
 62
     0
 10
110.603
 20
121.805
 30
0.0
 11
111.402
 21
121.805
 31
0.0
  0
LINE
  8
0
 62
     0
 10
111.402
 20
121.805
 30
0.0
 11
111.402
 21
116.006
 31
0.0
  0
LINE
  8
0
 62
     0
 10
111.402
 20
116.006
 30
0.0
 11
110.603
 21
116.006
 31
0.0
  0
LINE
  8
0
 62
     0
 10
110.603
 20
116.006
 30
0.0
 11
110.603
 21
112.904
 31
0.0
  0
LINE
  8
0
 62
     0
 10
134.415
 20
112.904
 30
0.0
 11
135.214
 21
112.904
 31
0.0
  0
LINE
  8
0
 62
     0
 10
135.214
 20
112.904
 30
0.0
 11
135.214
 21
111.905
 31
0.0
  0
LINE
  8
0
 62
     0
 10
135.214
 20
111.905
 30
0.0
 11
149.214
 21
111.905
 31
0.0
  0
LINE
  8
0
 62
     0
 10
149.214
 20
111.905
 30
0.0
 11
149.214
 21
112.904
 31
0.0
  0
LINE
  8
0
 62
     0
 10
149.214
 20
112.904
 30
0.0
 11
150.015
 21
112.904
 31
0.0
  0
LINE
  8
0
 62
     0
 10
150.015
 20
112.904
 30
0.0
 11
150.015
 21
116.006
 31
0.0
  0
LINE
  8
0
 62
     0
 10
150.015
 20
116.006
 30
0.0
 11
149.214
 21
116.006
 31
0.0
  0
LINE
  8
0
 62
     0
 10
149.214
 20
116.006
 30
0.0
 11
149.214
 21
121.805
 31
0.0
  0
LINE
  8
0
 62
     0
 10
149.214
 20
121.805
 30
0.0
 11
150.015
 21
121.805
 31
0.0
  0
LINE
  8
0
 62
     0
 10
150.015
 20
121.805
 30
0.0
 11
150.015
 21
124.904
 31
0.0
  0
LINE
  8
0
 62
     0
 10
150.015
 20
124.904
 30
0.0
 11
149.214
 21
124.904
 31
0.0
  0
LINE
  8
0
 62
     0
 10
149.214
 20
124.904
 30
0.0
 11
149.214
 21
125.905
 31
0.0
  0
LINE
  8
0
 62
     0
 10
149.214
 20
125.905
 30
0.0
 11
135.214
 21
125.905
 31
0.0
  0
LINE
  8
0
 62
     0
 10
135.214
 20
125.905
 30
0.0
 11
135.214
 21
124.904
 31
0.0
  0
LINE
  8
0
 62
     0
 10
135.214
 20
124.904
 30
0.0
 11
134.415
 21
124.904
 31
0.0
  0
LINE
  8
0
 62
     0
 10
134.415
 20
124.904
 30
0.0
 11
134.415
 21
121.805
 31
0.0
  0
LINE
  8
0
 62
     0
 10
134.415
 20
121.805
 30
0.0
 11
135.214
 21
121.805
 31
0.0
  0
LINE
  8
0
 62
     0
 10
135.214
 20
121.805
 30
0.0
 11
135.214
 21
116.006
 31
0.0
  0
LINE
  8
0
 62
     0
 10
135.214
 20
116.006
 30
0.0
 11
134.415
 21
116.006
 31
0.0
  0
LINE
  8
0
 62
     0
 10
134.415
 20
116.006
 30
0.0
 11
134.415
 21
112.904
 31
0.0
  0
LINE
  8
0
 62
     0
 10
153.465
 20
112.904
 30
0.0
 11
154.264
 21
112.904
 31
0.0
  0
LINE
  8
0
 62
     0
 10
154.264
 20
112.904
 30
0.0
 11
154.264
 21
111.905
 31
0.0
  0
LINE
  8
0
 62
     0
 10
154.264
 20
111.905
 30
0.0
 11
168.264
 21
111.905
 31
0.0
  0
LINE
  8
0
 62
     0
 10
168.264
 20
111.905
 30
0.0
 11
168.264
 21
112.904
 31
0.0
  0
LINE
  8
0
 62
     0
 10
168.264
 20
112.904
 30
0.0
 11
169.065
 21
112.904
 31
0.0
  0
LINE
  8
0
 62
     0
 10
169.065
 20
112.904
 30
0.0
 11
169.065
 21
116.006
 31
0.0
  0
LINE
  8
0
 62
     0
 10
169.065
 20
116.006
 30
0.0
 11
168.264
 21
116.006
 31
0.0
  0
LINE
  8
0
 62
     0
 10
168.264
 20
116.006
 30
0.0
 11
168.264
 21
121.805
 31
0.0
  0
LINE
  8
0
 62
     0
 10
168.264
 20
121.805
 30
0.0
 11
169.065
 21
121.805
 31
0.0
  0
LINE
  8
0
 62
     0
 10
169.065
 20
121.805
 30
0.0
 11
169.065
 21
124.904
 31
0.0
  0
LINE
  8
0
 62
     0
 10
169.065
 20
124.904
 30
0.0
 11
168.264
 21
124.904
 31
0.0
  0
LINE
  8
0
 62
     0
 10
168.264
 20
124.904
 30
0.0
 11
168.264
 21
125.905
 31
0.0
  0
LINE
  8
0
 62
     0
 10
168.264
 20
125.905
 30
0.0
 11
154.264
 21
125.905
 31
0.0
  0
LINE
  8
0
 62
     0
 10
154.264
 20
125.905
 30
0.0
 11
154.264
 21
124.904
 31
0.0
  0
LINE
  8
0
 62
     0
 10
154.264
 20
124.904
 30
0.0
 11
153.465
 21
124.904
 31
0.0
  0
LINE
  8
0
 62
     0
 10
153.465
 20
124.904
 30
0.0
 11
153.465
 21
121.805
 31
0.0
  0
LINE
  8
0
 62
     0
 10
153.465
 20
121.805
 30
0.0
 11
154.264
 21
121.805
 31
0.0
  0
LINE
  8
0
 62
     0
 10
154.264
 20
121.805
 30
0.0
 11
154.264
 21
116.006
 31
0.0
  0
LINE
  8
0
 62
     0
 10
154.264
 20
116.006
 30
0.0
 11
153.465
 21
116.006
 31
0.0
  0
LINE
  8
0
 62
     0
 10
153.465
 20
116.006
 30
0.0
 11
153.465
 21
112.904
 31
0.0
  0
LINE
  8
0
 62
     0
 10
172.515
 20
112.904
 30
0.0
 11
173.314
 21
112.904
 31
0.0
  0
LINE
  8
0
 62
     0
 10
173.314
 20
112.904
 30
0.0
 11
173.314
 21
111.905
 31
0.0
  0
LINE
  8
0
 62
     0
 10
173.314
 20
111.905
 30
0.0
 11
187.314
 21
111.905
 31
0.0
  0
LINE
  8
0
 62
     0
 10
187.314
 20
111.905
 30
0.0
 11
187.314
 21
112.904
 31
0.0
  0
LINE
  8
0
 62
     0
 10
187.314
 20
112.904
 30
0.0
 11
188.115
 21
112.904
 31
0.0
  0
LINE
  8
0
 62
     0
 10
188.115
 20
112.904
 30
0.0
 11
188.115
 21
116.006
 31
0.0
  0
LINE
  8
0
 62
     0
 10
188.115
 20
116.006
 30
0.0
 11
187.314
 21
116.006
 31
0.0
  0
LINE
  8
0
 62
     0
 10
187.314
 20
116.006
 30
0.0
 11
187.314
 21
121.805
 31
0.0
  0
LINE
  8
0
 62
     0
 10
187.314
 20
121.805
 30
0.0
 11
188.115
 21
121.805
 31
0.0
  0
LINE
  8
0
 62
     0
 10
188.115
 20
121.805
 30
0.0
 11
188.115
 21
124.904
 31
0.0
  0
LINE
  8
0
 62
     0
 10
188.115
 20
124.904
 30
0.0
 11
187.314
 21
124.904
 31
0.0
  0
LINE
  8
0
 62
     0
 10
187.314
 20
124.904
 30
0.0
 11
187.314
 21
125.905
 31
0.0
  0
LINE
  8
0
 62
     0
 10
187.314
 20
125.905
 30
0.0
 11
173.314
 21
125.905
 31
0.0
  0
LINE
  8
0
 62
     0
 10
173.314
 20
125.905
 30
0.0
 11
173.314
 21
124.904
 31
0.0
  0
LINE
  8
0
 62
     0
 10
173.314
 20
124.904
 30
0.0
 11
172.515
 21
124.904
 31
0.0
  0
LINE
  8
0
 62
     0
 10
172.515
 20
124.904
 30
0.0
 11
172.515
 21
121.805
 31
0.0
  0
LINE
  8
0
 62
     0
 10
172.515
 20
121.805
 30
0.0
 11
173.314
 21
121.805
 31
0.0
  0
LINE
  8
0
 62
     0
 10
173.314
 20
121.805
 30
0.0
 11
173.314
 21
116.006
 31
0.0
  0
LINE
  8
0
 62
     0
 10
173.314
 20
116.006
 30
0.0
 11
172.515
 21
116.006
 31
0.0
  0
LINE
  8
0
 62
     0
 10
172.515
 20
116.006
 30
0.0
 11
172.515
 21
112.904
 31
0.0
  0
LINE
  8
0
 62
     0
 10
191.565
 20
112.904
 30
0.0
 11
192.364
 21
112.904
 31
0.0
  0
LINE
  8
0
 62
     0
 10
192.364
 20
112.904
 30
0.0
 11
192.364
 21
111.905
 31
0.0
  0
LINE
  8
0
 62
     0
 10
192.364
 20
111.905
 30
0.0
 11
206.364
 21
111.905
 31
0.0
  0
LINE
  8
0
 62
     0
 10
206.364
 20
111.905
 30
0.0
 11
206.364
 21
112.904
 31
0.0
  0
LINE
  8
0
 62
     0
 10
206.364
 20
112.904
 30
0.0
 11
207.165
 21
112.904
 31
0.0
  0
LINE
  8
0
 62
     0
 10
207.165
 20
112.904
 30
0.0
 11
207.165
 21
116.006
 31
0.0
  0
LINE
  8
0
 62
     0
 10
207.165
 20
116.006
 30
0.0
 11
206.364
 21
116.006
 31
0.0
  0
LINE
  8
0
 62
     0
 10
206.364
 20
116.006
 30
0.0
 11
206.364
 21
121.805
 31
0.0
  0
LINE
  8
0
 62
     0
 10
206.364
 20
121.805
 30
0.0
 11
207.165
 21
121.805
 31
0.0
  0
LINE
  8
0
 62
     0
 10
207.165
 20
121.805
 30
0.0
 11
207.165
 21
124.904
 31
0.0
  0
LINE
  8
0
 62
     0
 10
207.165
 20
124.904
 30
0.0
 11
206.364
 21
124.904
 31
0.0
  0
LINE
  8
0
 62
     0
 10
206.364
 20
124.904
 30
0.0
 11
206.364
 21
125.905
 31
0.0
  0
LINE
  8
0
 62
     0
 10
206.364
 20
125.905
 30
0.0
 11
192.364
 21
125.905
 31
0.0
  0
LINE
  8
0
 62
     0
 10
192.364
 20
125.905
 30
0.0
 11
192.364
 21
124.904
 31
0.0
  0
LINE
  8
0
 62
     0
 10
192.364
 20
124.904
 30
0.0
 11
191.565
 21
124.904
 31
0.0
  0
LINE
  8
0
 62
     0
 10
191.565
 20
124.904
 30
0.0
 11
191.565
 21
121.805
 31
0.0
  0
LINE
  8
0
 62
     0
 10
191.565
 20
121.805
 30
0.0
 11
192.364
 21
121.805
 31
0.0
  0
LINE
  8
0
 62
     0
 10
192.364
 20
121.805
 30
0.0
 11
192.364
 21
116.006
 31
0.0
  0
LINE
  8
0
 62
     0
 10
192.364
 20
116.006
 30
0.0
 11
191.565
 21
116.006
 31
0.0
  0
LINE
  8
0
 62
     0
 10
191.565
 20
116.006
 30
0.0
 11
191.565
 21
112.904
 31
0.0
  0
LINE
  8
0
 62
     0
 10
215.378
 20
112.904
 30
0.0
 11
216.177
 21
112.904
 31
0.0
  0
LINE
  8
0
 62
     0
 10
216.177
 20
112.904
 30
0.0
 11
216.177
 21
111.905
 31
0.0
  0
LINE
  8
0
 62
     0
 10
216.177
 20
111.905
 30
0.0
 11
230.178
 21
111.905
 31
0.0
  0
LINE
  8
0
 62
     0
 10
230.178
 20
111.905
 30
0.0
 11
230.178
 21
112.904
 31
0.0
  0
LINE
  8
0
 62
     0
 10
230.178
 20
112.904
 30
0.0
 11
230.977
 21
112.904
 31
0.0
  0
LINE
  8
0
 62
     0
 10
230.977
 20
112.904
 30
0.0
 11
230.977
 21
116.006
 31
0.0
  0
LINE
  8
0
 62
     0
 10
230.977
 20
116.006
 30
0.0
 11
230.178
 21
116.006
 31
0.0
  0
LINE
  8
0
 62
     0
 10
230.178
 20
116.006
 30
0.0
 11
230.178
 21
121.805
 31
0.0
  0
LINE
  8
0
 62
     0
 10
230.178
 20
121.805
 30
0.0
 11
230.977
 21
121.805
 31
0.0
  0
LINE
  8
0
 62
     0
 10
230.977
 20
121.805
 30
0.0
 11
230.977
 21
124.904
 31
0.0
  0
LINE
  8
0
 62
     0
 10
230.977
 20
124.904
 30
0.0
 11
230.178
 21
124.904
 31
0.0
  0
LINE
  8
0
 62
     0
 10
230.178
 20
124.904
 30
0.0
 11
230.178
 21
125.905
 31
0.0
  0
LINE
  8
0
 62
     0
 10
230.178
 20
125.905
 30
0.0
 11
216.177
 21
125.905
 31
0.0
  0
LINE
  8
0
 62
     0
 10
216.177
 20
125.905
 30
0.0
 11
216.177
 21
124.904
 31
0.0
  0
LINE
  8
0
 62
     0
 10
216.177
 20
124.904
 30
0.0
 11
215.378
 21
124.904
 31
0.0
  0
LINE
  8
0
 62
     0
 10
215.378
 20
124.904
 30
0.0
 11
215.378
 21
121.805
 31
0.0
  0
LINE
  8
0
 62
     0
 10
215.378
 20
121.805
 30
0.0
 11
216.177
 21
121.805
 31
0.0
  0
LINE
  8
0
 62
     0
 10
216.177
 20
121.805
 30
0.0
 11
216.177
 21
116.006
 31
0.0
  0
LINE
  8
0
 62
     0
 10
216.177
 20
116.006
 30
0.0
 11
215.378
 21
116.006
 31
0.0
  0
LINE
  8
0
 62
     0
 10
215.378
 20
116.006
 30
0.0
 11
215.378
 21
112.904
 31
0.0
  0
LINE
  8
0
 62
     0
 10
234.428
 20
112.904
 30
0.0
 11
235.227
 21
112.904
 31
0.0
  0
LINE
  8
0
 62
     0
 10
235.227
 20
112.904
 30
0.0
 11
235.227
 21
111.905
 31
0.0
  0
LINE
  8
0
 62
     0
 10
235.227
 20
111.905
 30
0.0
 11
249.228
 21
111.905
 31
0.0
  0
LINE
  8
0
 62
     0
 10
249.228
 20
111.905
 30
0.0
 11
249.228
 21
112.904
 31
0.0
  0
LINE
  8
0
 62
     0
 10
249.228
 20
112.904
 30
0.0
 11
250.027
 21
112.904
 31
0.0
  0
LINE
  8
0
 62
     0
 10
250.027
 20
112.904
 30
0.0
 11
250.027
 21
116.006
 31
0.0
  0
LINE
  8
0
 62
     0
 10
250.027
 20
116.006
 30
0.0
 11
249.228
 21
116.006
 31
0.0
  0
LINE
  8
0
 62
     0
 10
249.228
 20
116.006
 30
0.0
 11
249.228
 21
121.805
 31
0.0
  0
LINE
  8
0
 62
     0
 10
249.228
 20
121.805
 30
0.0
 11
250.027
 21
121.805
 31
0.0
  0
LINE
  8
0
 62
     0
 10
250.027
 20
121.805
 30
0.0
 11
250.027
 21
124.904
 31
0.0
  0
LINE
  8
0
 62
     0
 10
250.027
 20
124.904
 30
0.0
 11
249.228
 21
124.904
 31
0.0
  0
LINE
  8
0
 62
     0
 10
249.228
 20
124.904
 30
0.0
 11
249.228
 21
125.905
 31
0.0
  0
LINE
  8
0
 62
     0
 10
249.228
 20
125.905
 30
0.0
 11
235.227
 21
125.905
 31
0.0
  0
LINE
  8
0
 62
     0
 10
235.227
 20
125.905
 30
0.0
 11
235.227
 21
124.904
 31
0.0
  0
LINE
  8
0
 62
     0
 10
235.227
 20
124.904
 30
0.0
 11
234.428
 21
124.904
 31
0.0
  0
LINE
  8
0
 62
     0
 10
234.428
 20
124.904
 30
0.0
 11
234.428
 21
121.805
 31
0.0
  0
LINE
  8
0
 62
     0
 10
234.428
 20
121.805
 30
0.0
 11
235.227
 21
121.805
 31
0.0
  0
LINE
  8
0
 62
     0
 10
235.227
 20
121.805
 30
0.0
 11
235.227
 21
116.006
 31
0.0
  0
LINE
  8
0
 62
     0
 10
235.227
 20
116.006
 30
0.0
 11
234.428
 21
116.006
 31
0.0
  0
LINE
  8
0
 62
     0
 10
234.428
 20
116.006
 30
0.0
 11
234.428
 21
112.904
 31
0.0
  0
LINE
  8
0
 62
     0
 10
253.478
 20
112.904
 30
0.0
 11
254.277
 21
112.904
 31
0.0
  0
LINE
  8
0
 62
     0
 10
254.277
 20
112.904
 30
0.0
 11
254.277
 21
111.905
 31
0.0
  0
LINE
  8
0
 62
     0
 10
254.277
 20
111.905
 30
0.0
 11
268.278
 21
111.905
 31
0.0
  0
LINE
  8
0
 62
     0
 10
268.278
 20
111.905
 30
0.0
 11
268.278
 21
112.904
 31
0.0
  0
LINE
  8
0
 62
     0
 10
268.278
 20
112.904
 30
0.0
 11
269.077
 21
112.904
 31
0.0
  0
LINE
  8
0
 62
     0
 10
269.077
 20
112.904
 30
0.0
 11
269.077
 21
116.006
 31
0.0
  0
LINE
  8
0
 62
     0
 10
269.077
 20
116.006
 30
0.0
 11
268.278
 21
116.006
 31
0.0
  0
LINE
  8
0
 62
     0
 10
268.278
 20
116.006
 30
0.0
 11
268.278
 21
121.805
 31
0.0
  0
LINE
  8
0
 62
     0
 10
268.278
 20
121.805
 30
0.0
 11
269.077
 21
121.805
 31
0.0
  0
LINE
  8
0
 62
     0
 10
269.077
 20
121.805
 30
0.0
 11
269.077
 21
124.904
 31
0.0
  0
LINE
  8
0
 62
     0
 10
269.077
 20
124.904
 30
0.0
 11
268.278
 21
124.904
 31
0.0
  0
LINE
  8
0
 62
     0
 10
268.278
 20
124.904
 30
0.0
 11
268.278
 21
125.905
 31
0.0
  0
LINE
  8
0
 62
     0
 10
268.278
 20
125.905
 30
0.0
 11
254.277
 21
125.905
 31
0.0
  0
LINE
  8
0
 62
     0
 10
254.277
 20
125.905
 30
0.0
 11
254.277
 21
124.904
 31
0.0
  0
LINE
  8
0
 62
     0
 10
254.277
 20
124.904
 30
0.0
 11
253.478
 21
124.904
 31
0.0
  0
LINE
  8
0
 62
     0
 10
253.478
 20
124.904
 30
0.0
 11
253.478
 21
121.805
 31
0.0
  0
LINE
  8
0
 62
     0
 10
253.478
 20
121.805
 30
0.0
 11
254.277
 21
121.805
 31
0.0
  0
LINE
  8
0
 62
     0
 10
254.277
 20
121.805
 30
0.0
 11
254.277
 21
116.006
 31
0.0
  0
LINE
  8
0
 62
     0
 10
254.277
 20
116.006
 30
0.0
 11
253.478
 21
116.006
 31
0.0
  0
LINE
  8
0
 62
     0
 10
253.478
 20
116.006
 30
0.0
 11
253.478
 21
112.904
 31
0.0
  0
LINE
  8
0
 62
     0
 10
272.528
 20
112.904
 30
0.0
 11
273.327
 21
112.904
 31
0.0
  0
LINE
  8
0
 62
     0
 10
273.327
 20
112.904
 30
0.0
 11
273.327
 21
111.905
 31
0.0
  0
LINE
  8
0
 62
     0
 10
273.327
 20
111.905
 30
0.0
 11
287.328
 21
111.905
 31
0.0
  0
LINE
  8
0
 62
     0
 10
287.328
 20
111.905
 30
0.0
 11
287.328
 21
112.904
 31
0.0
  0
LINE
  8
0
 62
     0
 10
287.328
 20
112.904
 30
0.0
 11
288.127
 21
112.904
 31
0.0
  0
LINE
  8
0
 62
     0
 10
288.127
 20
112.904
 30
0.0
 11
288.127
 21
116.006
 31
0.0
  0
LINE
  8
0
 62
     0
 10
288.127
 20
116.006
 30
0.0
 11
287.328
 21
116.006
 31
0.0
  0
LINE
  8
0
 62
     0
 10
287.328
 20
116.006
 30
0.0
 11
287.328
 21
121.805
 31
0.0
  0
LINE
  8
0
 62
     0
 10
287.328
 20
121.805
 30
0.0
 11
288.127
 21
121.805
 31
0.0
  0
LINE
  8
0
 62
     0
 10
288.127
 20
121.805
 30
0.0
 11
288.127
 21
124.904
 31
0.0
  0
LINE
  8
0
 62
     0
 10
288.127
 20
124.904
 30
0.0
 11
287.328
 21
124.904
 31
0.0
  0
LINE
  8
0
 62
     0
 10
287.328
 20
124.904
 30
0.0
 11
287.328
 21
125.905
 31
0.0
  0
LINE
  8
0
 62
     0
 10
287.328
 20
125.905
 30
0.0
 11
273.327
 21
125.905
 31
0.0
  0
LINE
  8
0
 62
     0
 10
273.327
 20
125.905
 30
0.0
 11
273.327
 21
124.904
 31
0.0
  0
LINE
  8
0
 62
     0
 10
273.327
 20
124.904
 30
0.0
 11
272.528
 21
124.904
 31
0.0
  0
LINE
  8
0
 62
     0
 10
272.528
 20
124.904
 30
0.0
 11
272.528
 21
121.805
 31
0.0
  0
LINE
  8
0
 62
     0
 10
272.528
 20
121.805
 30
0.0
 11
273.327
 21
121.805
 31
0.0
  0
LINE
  8
0
 62
     0
 10
273.327
 20
121.805
 30
0.0
 11
273.327
 21
116.006
 31
0.0
  0
LINE
  8
0
 62
     0
 10
273.327
 20
116.006
 30
0.0
 11
272.528
 21
116.006
 31
0.0
  0
LINE
  8
0
 62
     0
 10
272.528
 20
116.006
 30
0.0
 11
272.528
 21
112.904
 31
0.0
  0
LINE
  8
0
 62
     0
 10
296.34
 20
112.904
 30
0.0
 11
297.139
 21
112.904
 31
0.0
  0
LINE
  8
0
 62
     0
 10
297.139
 20
112.904
 30
0.0
 11
297.139
 21
111.905
 31
0.0
  0
LINE
  8
0
 62
     0
 10
297.139
 20
111.905
 30
0.0
 11
311.139
 21
111.905
 31
0.0
  0
LINE
  8
0
 62
     0
 10
311.139
 20
111.905
 30
0.0
 11
311.139
 21
112.904
 31
0.0
  0
LINE
  8
0
 62
     0
 10
311.139
 20
112.904
 30
0.0
 11
311.94
 21
112.904
 31
0.0
  0
LINE
  8
0
 62
     0
 10
311.94
 20
112.904
 30
0.0
 11
311.94
 21
116.006
 31
0.0
  0
LINE
  8
0
 62
     0
 10
311.94
 20
116.006
 30
0.0
 11
311.139
 21
116.006
 31
0.0
  0
LINE
  8
0
 62
     0
 10
311.139
 20
116.006
 30
0.0
 11
311.139
 21
121.805
 31
0.0
  0
LINE
  8
0
 62
     0
 10
311.139
 20
121.805
 30
0.0
 11
311.94
 21
121.805
 31
0.0
  0
LINE
  8
0
 62
     0
 10
311.94
 20
121.805
 30
0.0
 11
311.94
 21
124.904
 31
0.0
  0
LINE
  8
0
 62
     0
 10
311.94
 20
124.904
 30
0.0
 11
311.139
 21
124.904
 31
0.0
  0
LINE
  8
0
 62
     0
 10
311.139
 20
124.904
 30
0.0
 11
311.139
 21
125.905
 31
0.0
  0
LINE
  8
0
 62
     0
 10
311.139
 20
125.905
 30
0.0
 11
297.139
 21
125.905
 31
0.0
  0
LINE
  8
0
 62
     0
 10
297.139
 20
125.905
 30
0.0
 11
297.139
 21
124.904
 31
0.0
  0
LINE
  8
0
 62
     0
 10
297.139
 20
124.904
 30
0.0
 11
296.34
 21
124.904
 31
0.0
  0
LINE
  8
0
 62
     0
 10
296.34
 20
124.904
 30
0.0
 11
296.34
 21
121.805
 31
0.0
  0
LINE
  8
0
 62
     0
 10
296.34
 20
121.805
 30
0.0
 11
297.139
 21
121.805
 31
0.0
  0
LINE
  8
0
 62
     0
 10
297.139
 20
121.805
 30
0.0
 11
297.139
 21
116.006
 31
0.0
  0
LINE
  8
0
 62
     0
 10
297.139
 20
116.006
 30
0.0
 11
296.34
 21
116.006
 31
0.0
  0
LINE
  8
0
 62
     0
 10
296.34
 20
116.006
 30
0.0
 11
296.34
 21
112.904
 31
0.0
  0
LINE
  8
0
 62
     0
 10
315.39
 20
112.904
 30
0.0
 11
316.189
 21
112.904
 31
0.0
  0
LINE
  8
0
 62
     0
 10
316.189
 20
112.904
 30
0.0
 11
316.189
 21
111.905
 31
0.0
  0
LINE
  8
0
 62
     0
 10
316.189
 20
111.905
 30
0.0
 11
330.189
 21
111.905
 31
0.0
  0
LINE
  8
0
 62
     0
 10
330.189
 20
111.905
 30
0.0
 11
330.189
 21
112.904
 31
0.0
  0
LINE
  8
0
 62
     0
 10
330.189
 20
112.904
 30
0.0
 11
330.99
 21
112.904
 31
0.0
  0
LINE
  8
0
 62
     0
 10
330.99
 20
112.904
 30
0.0
 11
330.99
 21
116.006
 31
0.0
  0
LINE
  8
0
 62
     0
 10
330.99
 20
116.006
 30
0.0
 11
330.189
 21
116.006
 31
0.0
  0
LINE
  8
0
 62
     0
 10
330.189
 20
116.006
 30
0.0
 11
330.189
 21
121.805
 31
0.0
  0
LINE
  8
0
 62
     0
 10
330.189
 20
121.805
 30
0.0
 11
330.99
 21
121.805
 31
0.0
  0
LINE
  8
0
 62
     0
 10
330.99
 20
121.805
 30
0.0
 11
330.99
 21
124.904
 31
0.0
  0
LINE
  8
0
 62
     0
 10
330.99
 20
124.904
 30
0.0
 11
330.189
 21
124.904
 31
0.0
  0
LINE
  8
0
 62
     0
 10
330.189
 20
124.904
 30
0.0
 11
330.189
 21
125.905
 31
0.0
  0
LINE
  8
0
 62
     0
 10
330.189
 20
125.905
 30
0.0
 11
316.189
 21
125.905
 31
0.0
  0
LINE
  8
0
 62
     0
 10
316.189
 20
125.905
 30
0.0
 11
316.189
 21
124.904
 31
0.0
  0
LINE
  8
0
 62
     0
 10
316.189
 20
124.904
 30
0.0
 11
315.39
 21
124.904
 31
0.0
  0
LINE
  8
0
 62
     0
 10
315.39
 20
124.904
 30
0.0
 11
315.39
 21
121.805
 31
0.0
  0
LINE
  8
0
 62
     0
 10
315.39
 20
121.805
 30
0.0
 11
316.189
 21
121.805
 31
0.0
  0
LINE
  8
0
 62
     0
 10
316.189
 20
121.805
 30
0.0
 11
316.189
 21
116.006
 31
0.0
  0
LINE
  8
0
 62
     0
 10
316.189
 20
116.006
 30
0.0
 11
315.39
 21
116.006
 31
0.0
  0
LINE
  8
0
 62
     0
 10
315.39
 20
116.006
 30
0.0
 11
315.39
 21
112.904
 31
0.0
  0
LINE
  8
0
 62
     0
 10
334.44
 20
112.904
 30
0.0
 11
335.239
 21
112.904
 31
0.0
  0
LINE
  8
0
 62
     0
 10
335.239
 20
112.904
 30
0.0
 11
335.239
 21
111.905
 31
0.0
  0
LINE
  8
0
 62
     0
 10
335.239
 20
111.905
 30
0.0
 11
349.239
 21
111.905
 31
0.0
  0
LINE
  8
0
 62
     0
 10
349.239
 20
111.905
 30
0.0
 11
349.239
 21
112.904
 31
0.0
  0
LINE
  8
0
 62
     0
 10
349.239
 20
112.904
 30
0.0
 11
350.04
 21
112.904
 31
0.0
  0
LINE
  8
0
 62
     0
 10
350.04
 20
112.904
 30
0.0
 11
350.04
 21
116.006
 31
0.0
  0
LINE
  8
0
 62
     0
 10
350.04
 20
116.006
 30
0.0
 11
349.239
 21
116.006
 31
0.0
  0
LINE
  8
0
 62
     0
 10
349.239
 20
116.006
 30
0.0
 11
349.239
 21
121.805
 31
0.0
  0
LINE
  8
0
 62
     0
 10
349.239
 20
121.805
 30
0.0
 11
350.04
 21
121.805
 31
0.0
  0
LINE
  8
0
 62
     0
 10
350.04
 20
121.805
 30
0.0
 11
350.04
 21
124.904
 31
0.0
  0
LINE
  8
0
 62
     0
 10
350.04
 20
124.904
 30
0.0
 11
349.239
 21
124.904
 31
0.0
  0
LINE
  8
0
 62
     0
 10
349.239
 20
124.904
 30
0.0
 11
349.239
 21
125.905
 31
0.0
  0
LINE
  8
0
 62
     0
 10
349.239
 20
125.905
 30
0.0
 11
335.239
 21
125.905
 31
0.0
  0
LINE
  8
0
 62
     0
 10
335.239
 20
125.905
 30
0.0
 11
335.239
 21
124.904
 31
0.0
  0
LINE
  8
0
 62
     0
 10
335.239
 20
124.904
 30
0.0
 11
334.44
 21
124.904
 31
0.0
  0
LINE
  8
0
 62
     0
 10
334.44
 20
124.904
 30
0.0
 11
334.44
 21
121.805
 31
0.0
  0
LINE
  8
0
 62
     0
 10
334.44
 20
121.805
 30
0.0
 11
335.239
 21
121.805
 31
0.0
  0
LINE
  8
0
 62
     0
 10
335.239
 20
121.805
 30
0.0
 11
335.239
 21
116.006
 31
0.0
  0
LINE
  8
0
 62
     0
 10
335.239
 20
116.006
 30
0.0
 11
334.44
 21
116.006
 31
0.0
  0
LINE
  8
0
 62
     0
 10
334.44
 20
116.006
 30
0.0
 11
334.44
 21
112.904
 31
0.0
  0
ENDSEC
  0
EOF
