  0
SECTION
  2
HEADER
  9
$ACADVER
  1
AC1009
  9
$EXTMIN
 10
0.0
 20
0.0
 30
0.0
  9
$EXTMAX
 10
1000.0
 20
1000.0
 30
0.0
  9
$FILLMODE
 70
 0
  9
$SPLFRAME
 70
 1
  0
ENDSEC
  0
SECTION
  2
TABLES
  0
TABLE
  2
LAYER
 70
1
  0
LAYER
  2
0
 70
     0
 62
     7
  6
CONTINUOUS
  0
ENDTAB
  0
ENDSEC
  0
SECTION
  2
ENTITIES
  0
LINE
  8
0
 62
     0
 10
77.4139
 20
130.455
 30
0.0
 11
77.3232
 21
130.008
 31
0.0
  0
LINE
  8
0
 62
     0
 10
77.3232
 20
130.008
 30
0.0
 11
77.0763
 21
129.643
 31
0.0
  0
LINE
  8
0
 62
     0
 10
77.0763
 20
129.643
 30
0.0
 11
76.7098
 21
129.396
 31
0.0
  0
LINE
  8
0
 62
     0
 10
76.7098
 20
129.396
 30
0.0
 11
76.2635
 21
129.305
 31
0.0
  0
LINE
  8
0
 62
     0
 10
76.2635
 20
129.305
 30
0.0
 11
75.8155
 21
129.396
 31
0.0
  0
LINE
  8
0
 62
     0
 10
75.8155
 20
129.396
 30
0.0
 11
75.4489
 21
129.643
 31
0.0
  0
LINE
  8
0
 62
     0
 10
75.4489
 20
129.643
 30
0.0
 11
75.2023
 21
130.008
 31
0.0
  0
LINE
  8
0
 62
     0
 10
75.2023
 20
130.008
 30
0.0
 11
75.1127
 21
130.455
 31
0.0
  0
LINE
  8
0
 62
     0
 10
75.1127
 20
130.455
 30
0.0
 11
75.2023
 21
130.904
 31
0.0
  0
LINE
  8
0
 62
     0
 10
75.2023
 20
130.904
 30
0.0
 11
75.4489
 21
131.27
 31
0.0
  0
LINE
  8
0
 62
     0
 10
75.4489
 20
131.27
 30
0.0
 11
75.8155
 21
131.517
 31
0.0
  0
LINE
  8
0
 62
     0
 10
75.8155
 20
131.517
 30
0.0
 11
76.2635
 21
131.607
 31
0.0
  0
LINE
  8
0
 62
     0
 10
76.2635
 20
131.607
 30
0.0
 11
76.7098
 21
131.517
 31
0.0
  0
LINE
  8
0
 62
     0
 10
76.7098
 20
131.517
 30
0.0
 11
77.0763
 21
131.27
 31
0.0
  0
LINE
  8
0
 62
     0
 10
77.0763
 20
131.27
 30
0.0
 11
77.3232
 21
130.904
 31
0.0
  0
LINE
  8
0
 62
     0
 10
77.3232
 20
130.904
 30
0.0
 11
77.4139
 21
130.455
 31
0.0
  0
LINE
  8
0
 62
     0
 10
266.748
 20
130.453
 30
0.0
 11
266.657
 21
130.007
 31
0.0
  0
LINE
  8
0
 62
     0
 10
266.657
 20
130.007
 30
0.0
 11
266.411
 21
129.64
 31
0.0
  0
LINE
  8
0
 62
     0
 10
266.411
 20
129.64
 30
0.0
 11
266.046
 21
129.394
 31
0.0
  0
LINE
  8
0
 62
     0
 10
266.046
 20
129.394
 30
0.0
 11
265.599
 21
129.303
 31
0.0
  0
LINE
  8
0
 62
     0
 10
265.599
 20
129.303
 30
0.0
 11
265.151
 21
129.394
 31
0.0
  0
LINE
  8
0
 62
     0
 10
265.151
 20
129.394
 30
0.0
 11
264.784
 21
129.64
 31
0.0
  0
LINE
  8
0
 62
     0
 10
264.784
 20
129.64
 30
0.0
 11
264.538
 21
130.007
 31
0.0
  0
LINE
  8
0
 62
     0
 10
264.538
 20
130.007
 30
0.0
 11
264.448
 21
130.453
 31
0.0
  0
LINE
  8
0
 62
     0
 10
264.448
 20
130.453
 30
0.0
 11
264.538
 21
130.903
 31
0.0
  0
LINE
  8
0
 62
     0
 10
264.538
 20
130.903
 30
0.0
 11
264.784
 21
131.268
 31
0.0
  0
LINE
  8
0
 62
     0
 10
264.784
 20
131.268
 30
0.0
 11
265.151
 21
131.514
 31
0.0
  0
LINE
  8
0
 62
     0
 10
265.151
 20
131.514
 30
0.0
 11
265.599
 21
131.604
 31
0.0
  0
LINE
  8
0
 62
     0
 10
265.599
 20
131.604
 30
0.0
 11
266.046
 21
131.514
 31
0.0
  0
LINE
  8
0
 62
     0
 10
266.046
 20
131.514
 30
0.0
 11
266.411
 21
131.268
 31
0.0
  0
LINE
  8
0
 62
     0
 10
266.411
 20
131.268
 30
0.0
 11
266.657
 21
130.903
 31
0.0
  0
LINE
  8
0
 62
     0
 10
266.657
 20
130.903
 30
0.0
 11
266.748
 21
130.453
 31
0.0
  0
LINE
  8
0
 62
     0
 10
77.4139
 20
6.59116
 30
0.0
 11
77.3232
 21
6.14331
 31
0.0
  0
LINE
  8
0
 62
     0
 10
77.3232
 20
6.14331
 30
0.0
 11
77.0763
 21
5.77811
 31
0.0
  0
LINE
  8
0
 62
     0
 10
77.0763
 20
5.77811
 30
0.0
 11
76.7098
 21
5.53145
 31
0.0
  0
LINE
  8
0
 62
     0
 10
76.7098
 20
5.53145
 30
0.0
 11
76.2635
 21
5.4405
 31
0.0
  0
LINE
  8
0
 62
     0
 10
76.2635
 20
5.4405
 30
0.0
 11
75.8155
 21
5.53145
 31
0.0
  0
LINE
  8
0
 62
     0
 10
75.8155
 20
5.53145
 30
0.0
 11
75.4489
 21
5.77811
 31
0.0
  0
LINE
  8
0
 62
     0
 10
75.4489
 20
5.77811
 30
0.0
 11
75.2023
 21
6.14331
 31
0.0
  0
LINE
  8
0
 62
     0
 10
75.2023
 20
6.14331
 30
0.0
 11
75.1127
 21
6.59116
 31
0.0
  0
LINE
  8
0
 62
     0
 10
75.1127
 20
6.59116
 30
0.0
 11
75.2023
 21
7.03901
 31
0.0
  0
LINE
  8
0
 62
     0
 10
75.2023
 20
7.03901
 30
0.0
 11
75.4489
 21
7.40558
 31
0.0
  0
LINE
  8
0
 62
     0
 10
75.4489
 20
7.40558
 30
0.0
 11
75.8155
 21
7.65224
 31
0.0
  0
LINE
  8
0
 62
     0
 10
75.8155
 20
7.65224
 30
0.0
 11
76.2635
 21
7.74181
 31
0.0
  0
LINE
  8
0
 62
     0
 10
76.2635
 20
7.74181
 30
0.0
 11
76.7098
 21
7.65224
 31
0.0
  0
LINE
  8
0
 62
     0
 10
76.7098
 20
7.65224
 30
0.0
 11
77.0763
 21
7.40558
 31
0.0
  0
LINE
  8
0
 62
     0
 10
77.0763
 20
7.40558
 30
0.0
 11
77.3232
 21
7.03901
 31
0.0
  0
LINE
  8
0
 62
     0
 10
77.3232
 20
7.03901
 30
0.0
 11
77.4139
 21
6.59116
 31
0.0
  0
LINE
  8
0
 62
     0
 10
266.747
 20
6.58978
 30
0.0
 11
266.656
 21
6.14193
 31
0.0
  0
LINE
  8
0
 62
     0
 10
266.656
 20
6.14193
 30
0.0
 11
266.409
 21
5.77674
 31
0.0
  0
LINE
  8
0
 62
     0
 10
266.409
 20
5.77674
 30
0.0
 11
266.044
 21
5.53007
 31
0.0
  0
LINE
  8
0
 62
     0
 10
266.044
 20
5.53007
 30
0.0
 11
265.598
 21
5.43913
 31
0.0
  0
LINE
  8
0
 62
     0
 10
265.598
 20
5.43913
 30
0.0
 11
265.15
 21
5.53007
 31
0.0
  0
LINE
  8
0
 62
     0
 10
265.15
 20
5.53007
 30
0.0
 11
264.783
 21
5.77674
 31
0.0
  0
LINE
  8
0
 62
     0
 10
264.783
 20
5.77674
 30
0.0
 11
264.536
 21
6.14193
 31
0.0
  0
LINE
  8
0
 62
     0
 10
264.536
 20
6.14193
 30
0.0
 11
264.447
 21
6.58978
 31
0.0
  0
LINE
  8
0
 62
     0
 10
264.447
 20
6.58978
 30
0.0
 11
264.536
 21
7.03763
 31
0.0
  0
LINE
  8
0
 62
     0
 10
264.536
 20
7.03763
 30
0.0
 11
264.783
 21
7.40421
 31
0.0
  0
LINE
  8
0
 62
     0
 10
264.783
 20
7.40421
 30
0.0
 11
265.15
 21
7.65087
 31
0.0
  0
LINE
  8
0
 62
     0
 10
265.15
 20
7.65087
 30
0.0
 11
265.598
 21
7.74044
 31
0.0
  0
LINE
  8
0
 62
     0
 10
265.598
 20
7.74044
 30
0.0
 11
266.044
 21
7.65087
 31
0.0
  0
LINE
  8
0
 62
     0
 10
266.044
 20
7.65087
 30
0.0
 11
266.409
 21
7.40421
 31
0.0
  0
LINE
  8
0
 62
     0
 10
266.409
 20
7.40421
 30
0.0
 11
266.656
 21
7.03763
 31
0.0
  0
LINE
  8
0
 62
     0
 10
266.656
 20
7.03763
 30
0.0
 11
266.747
 21
6.58978
 31
0.0
  0
LINE
  8
0
 62
     0
 10
336.208
 20
66.6888
 30
0.0
 11
349.096
 21
66.6888
 31
0.0
  0
LINE
  8
0
 62
     0
 10
349.096
 20
66.6888
 30
0.0
 11
349.096
 21
41.5519
 31
0.0
  0
LINE
  8
0
 62
     0
 10
349.096
 20
41.5519
 30
0.0
 11
336.208
 21
41.5519
 31
0.0
  0
LINE
  8
0
 62
     0
 10
336.208
 20
41.5519
 30
0.0
 11
336.208
 21
66.6888
 31
0.0
  0
LINE
  8
0
 62
     0
 10
2.04914
 20
136.943
 30
0.0
 11
1.89894
 21
136.933
 31
0.0
  0
LINE
  8
0
 62
     0
 10
1.89894
 20
136.933
 30
0.0
 11
1.74046
 21
136.916
 31
0.0
  0
LINE
  8
0
 62
     0
 10
1.74046
 20
136.916
 30
0.0
 11
1.59026
 21
136.889
 31
0.0
  0
LINE
  8
0
 62
     0
 10
1.59026
 20
136.889
 30
0.0
 11
1.4497
 21
136.854
 31
0.0
  0
LINE
  8
0
 62
     0
 10
1.4497
 20
136.854
 30
0.0
 11
1.29949
 21
136.801
 31
0.0
  0
LINE
  8
0
 62
     0
 10
1.29949
 20
136.801
 30
0.0
 11
1.1672
 21
136.74
 31
0.0
  0
LINE
  8
0
 62
     0
 10
1.1672
 20
136.74
 30
0.0
 11
1.03491
 21
136.668
 31
0.0
  0
LINE
  8
0
 62
     0
 10
1.03491
 20
136.668
 30
0.0
 11
0.902614
 21
136.59
 31
0.0
  0
LINE
  8
0
 62
     0
 10
0.902614
 20
136.59
 30
0.0
 11
0.78824
 21
136.502
 31
0.0
  0
LINE
  8
0
 62
     0
 10
0.78824
 20
136.502
 30
0.0
 11
0.673862
 21
136.404
 31
0.0
  0
LINE
  8
0
 62
     0
 10
0.673862
 20
136.404
 30
0.0
 11
0.567754
 21
136.299
 31
0.0
  0
LINE
  8
0
 62
     0
 10
0.567754
 20
136.299
 30
0.0
 11
0.469911
 21
136.183
 31
0.0
  0
LINE
  8
0
 62
     0
 10
0.469911
 20
136.183
 30
0.0
 11
0.391365
 21
136.061
 31
0.0
  0
LINE
  8
0
 62
     0
 10
0.391365
 20
136.061
 30
0.0
 11
0.311437
 21
135.937
 31
0.0
  0
LINE
  8
0
 62
     0
 10
0.311437
 20
135.937
 30
0.0
 11
0.249425
 21
135.804
 31
0.0
  0
LINE
  8
0
 62
     0
 10
0.249425
 20
135.804
 30
0.0
 11
0.19706
 21
135.672
 31
0.0
  0
LINE
  8
0
 62
     0
 10
0.19706
 20
135.672
 30
0.0
 11
0.152962
 21
135.532
 31
0.0
  0
LINE
  8
0
 62
     0
 10
0.152962
 20
135.532
 30
0.0
 11
0.12678
 21
135.389
 31
0.0
  0
LINE
  8
0
 62
     0
 10
0.12678
 20
135.389
 30
0.0
 11
0.108865
 21
135.25
 31
0.0
  0
LINE
  8
0
 62
     0
 10
0.108865
 20
135.25
 30
0.0
 11
0.100597
 21
135.099
 31
0.0
  0
LINE
  8
0
 62
     0
 10
0.100597
 20
135.099
 30
0.0
 11
0.100597
 21
124.976
 31
0.0
  0
LINE
  8
0
 62
     0
 10
0.100597
 20
124.976
 30
0.0
 11
0.602202
 21
124.797
 31
0.0
  0
LINE
  8
0
 62
     0
 10
0.602202
 20
124.797
 30
0.0
 11
1.00459
 21
124.463
 31
0.0
  0
LINE
  8
0
 62
     0
 10
1.00459
 20
124.463
 30
0.0
 11
1.27193
 21
124.012
 31
0.0
  0
LINE
  8
0
 62
     0
 10
1.27193
 20
124.012
 30
0.0
 11
1.36977
 21
123.476
 31
0.0
  0
LINE
  8
0
 62
     0
 10
1.36977
 20
123.476
 30
0.0
 11
1.27193
 21
122.94
 31
0.0
  0
LINE
  8
0
 62
     0
 10
1.27193
 20
122.94
 30
0.0
 11
1.00459
 21
122.488
 31
0.0
  0
LINE
  8
0
 62
     0
 10
1.00459
 20
122.488
 30
0.0
 11
0.602202
 21
122.156
 31
0.0
  0
LINE
  8
0
 62
     0
 10
0.602202
 20
122.156
 30
0.0
 11
0.100597
 21
121.977
 31
0.0
  0
LINE
  8
0
 62
     0
 10
0.100597
 20
121.977
 30
0.0
 11
0.100597
 21
15.9232
 31
0.0
  0
LINE
  8
0
 62
     0
 10
0.100597
 20
15.9232
 30
0.0
 11
0.602202
 21
15.7441
 31
0.0
  0
LINE
  8
0
 62
     0
 10
0.602202
 20
15.7441
 30
0.0
 11
1.00459
 21
15.4106
 31
0.0
  0
LINE
  8
0
 62
     0
 10
1.00459
 20
15.4106
 30
0.0
 11
1.27193
 21
14.96
 31
0.0
  0
LINE
  8
0
 62
     0
 10
1.27193
 20
14.96
 30
0.0
 11
1.36977
 21
14.4239
 31
0.0
  0
LINE
  8
0
 62
     0
 10
1.36977
 20
14.4239
 30
0.0
 11
1.27193
 21
13.8865
 31
0.0
  0
LINE
  8
0
 62
     0
 10
1.27193
 20
13.8865
 30
0.0
 11
1.00459
 21
13.4317
 31
0.0
  0
LINE
  8
0
 62
     0
 10
1.00459
 20
13.4317
 30
0.0
 11
0.602202
 21
13.0955
 31
0.0
  0
LINE
  8
0
 62
     0
 10
0.602202
 20
13.0955
 30
0.0
 11
0.100597
 21
12.915
 31
0.0
  0
LINE
  8
0
 62
     0
 10
0.100597
 20
12.915
 30
0.0
 11
0.100597
 21
1.94441
 31
0.0
  0
LINE
  8
0
 62
     0
 10
0.100597
 20
1.94441
 30
0.0
 11
0.108865
 21
1.80248
 31
0.0
  0
LINE
  8
0
 62
     0
 10
0.108865
 20
1.80248
 30
0.0
 11
0.12678
 21
1.65227
 31
0.0
  0
LINE
  8
0
 62
     0
 10
0.12678
 20
1.65227
 30
0.0
 11
0.152962
 21
1.51033
 31
0.0
  0
LINE
  8
0
 62
     0
 10
0.152962
 20
1.51033
 30
0.0
 11
0.19706
 21
1.37804
 31
0.0
  0
LINE
  8
0
 62
     0
 10
0.19706
 20
1.37804
 30
0.0
 11
0.249425
 21
1.23886
 31
0.0
  0
LINE
  8
0
 62
     0
 10
0.249425
 20
1.23886
 30
0.0
 11
0.311437
 21
1.10657
 31
0.0
  0
LINE
  8
0
 62
     0
 10
0.311437
 20
1.10657
 30
0.0
 11
0.391365
 21
0.981163
 31
0.0
  0
LINE
  8
0
 62
     0
 10
0.391365
 20
0.981163
 30
0.0
 11
0.469911
 21
0.858516
 31
0.0
  0
LINE
  8
0
 62
     0
 10
0.469911
 20
0.858516
 30
0.0
 11
0.567754
 21
0.753787
 31
0.0
  0
LINE
  8
0
 62
     0
 10
0.567754
 20
0.753787
 30
0.0
 11
0.673862
 21
0.646299
 31
0.0
  0
LINE
  8
0
 62
     0
 10
0.673862
 20
0.646299
 30
0.0
 11
0.78824
 21
0.549836
 31
0.0
  0
LINE
  8
0
 62
     0
 10
0.78824
 20
0.549836
 30
0.0
 11
0.902614
 21
0.451997
 31
0.0
  0
LINE
  8
0
 62
     0
 10
0.902614
 20
0.451997
 30
0.0
 11
1.03491
 21
0.373447
 31
0.0
  0
LINE
  8
0
 62
     0
 10
1.03491
 20
0.373447
 30
0.0
 11
1.1672
 21
0.303168
 31
0.0
  0
LINE
  8
0
 62
     0
 10
1.1672
 20
0.303168
 30
0.0
 11
1.29949
 21
0.241157
 31
0.0
  0
LINE
  8
0
 62
     0
 10
1.29949
 20
0.241157
 30
0.0
 11
1.4497
 21
0.19706
 31
0.0
  0
LINE
  8
0
 62
     0
 10
1.4497
 20
0.19706
 30
0.0
 11
1.59026
 21
0.152962
 31
0.0
  0
LINE
  8
0
 62
     0
 10
1.59026
 20
0.152962
 30
0.0
 11
1.74046
 21
0.12678
 31
0.0
  0
LINE
  8
0
 62
     0
 10
1.74046
 20
0.12678
 30
0.0
 11
1.89894
 21
0.108865
 31
0.0
  0
LINE
  8
0
 62
     0
 10
1.89894
 20
0.108865
 30
0.0
 11
2.04914
 21
0.0992188
 31
0.0
  0
LINE
  8
0
 62
     0
 10
2.04914
 20
0.0992188
 30
0.0
 11
21.6462
 21
0.0992188
 31
0.0
  0
LINE
  8
0
 62
     0
 10
21.6462
 20
0.0992188
 30
0.0
 11
21.8254
 21
0.602202
 31
0.0
  0
LINE
  8
0
 62
     0
 10
21.8254
 20
0.602202
 30
0.0
 11
22.1575
 21
1.00597
 31
0.0
  0
LINE
  8
0
 62
     0
 10
22.1575
 20
1.00597
 30
0.0
 11
22.6095
 21
1.27468
 31
0.0
  0
LINE
  8
0
 62
     0
 10
22.6095
 20
1.27468
 30
0.0
 11
23.1455
 21
1.37115
 31
0.0
  0
LINE
  8
0
 62
     0
 10
23.1455
 20
1.37115
 30
0.0
 11
23.6802
 21
1.27468
 31
0.0
  0
LINE
  8
0
 62
     0
 10
23.6802
 20
1.27468
 30
0.0
 11
24.1322
 21
1.00597
 31
0.0
  0
LINE
  8
0
 62
     0
 10
24.1322
 20
1.00597
 30
0.0
 11
24.4643
 21
0.602202
 31
0.0
  0
LINE
  8
0
 62
     0
 10
24.4643
 20
0.602202
 30
0.0
 11
24.6448
 21
0.0992188
 31
0.0
  0
LINE
  8
0
 62
     0
 10
24.6448
 20
0.0992188
 30
0.0
 11
121.817
 21
0.0992188
 31
0.0
  0
LINE
  8
0
 62
     0
 10
121.817
 20
0.0992188
 30
0.0
 11
121.996
 21
0.602202
 31
0.0
  0
LINE
  8
0
 62
     0
 10
121.996
 20
0.602202
 30
0.0
 11
122.329
 21
1.00597
 31
0.0
  0
LINE
  8
0
 62
     0
 10
122.329
 20
1.00597
 30
0.0
 11
122.78
 21
1.27468
 31
0.0
  0
LINE
  8
0
 62
     0
 10
122.78
 20
1.27468
 30
0.0
 11
123.317
 21
1.37115
 31
0.0
  0
LINE
  8
0
 62
     0
 10
123.317
 20
1.37115
 30
0.0
 11
123.851
 21
1.27468
 31
0.0
  0
LINE
  8
0
 62
     0
 10
123.851
 20
1.27468
 30
0.0
 11
124.303
 21
1.00597
 31
0.0
  0
LINE
  8
0
 62
     0
 10
124.303
 20
1.00597
 30
0.0
 11
124.635
 21
0.602202
 31
0.0
  0
LINE
  8
0
 62
     0
 10
124.635
 20
0.602202
 30
0.0
 11
124.816
 21
0.0992188
 31
0.0
  0
LINE
  8
0
 62
     0
 10
124.816
 20
0.0992188
 30
0.0
 11
240.491
 21
0.0992188
 31
0.0
  0
LINE
  8
0
 62
     0
 10
240.491
 20
0.0992188
 30
0.0
 11
240.67
 21
0.602202
 31
0.0
  0
LINE
  8
0
 62
     0
 10
240.67
 20
0.602202
 30
0.0
 11
241.002
 21
1.00597
 31
0.0
  0
LINE
  8
0
 62
     0
 10
241.002
 20
1.00597
 30
0.0
 11
241.455
 21
1.27468
 31
0.0
  0
LINE
  8
0
 62
     0
 10
241.455
 20
1.27468
 30
0.0
 11
241.99
 21
1.37115
 31
0.0
  0
LINE
  8
0
 62
     0
 10
241.99
 20
1.37115
 30
0.0
 11
242.525
 21
1.27468
 31
0.0
  0
LINE
  8
0
 62
     0
 10
242.525
 20
1.27468
 30
0.0
 11
242.977
 21
1.00597
 31
0.0
  0
LINE
  8
0
 62
     0
 10
242.977
 20
1.00597
 30
0.0
 11
243.31
 21
0.602202
 31
0.0
  0
LINE
  8
0
 62
     0
 10
243.31
 20
0.602202
 30
0.0
 11
243.49
 21
0.0992188
 31
0.0
  0
LINE
  8
0
 62
     0
 10
243.49
 20
0.0992188
 30
0.0
 11
331.191
 21
0.0992188
 31
0.0
  0
LINE
  8
0
 62
     0
 10
331.191
 20
0.0992188
 30
0.0
 11
331.37
 21
0.602202
 31
0.0
  0
LINE
  8
0
 62
     0
 10
331.37
 20
0.602202
 30
0.0
 11
331.702
 21
1.00597
 31
0.0
  0
LINE
  8
0
 62
     0
 10
331.702
 20
1.00597
 30
0.0
 11
332.154
 21
1.27468
 31
0.0
  0
LINE
  8
0
 62
     0
 10
332.154
 20
1.27468
 30
0.0
 11
332.69
 21
1.37115
 31
0.0
  0
LINE
  8
0
 62
     0
 10
332.69
 20
1.37115
 30
0.0
 11
333.226
 21
1.27468
 31
0.0
  0
LINE
  8
0
 62
     0
 10
333.226
 20
1.27468
 30
0.0
 11
333.681
 21
1.00597
 31
0.0
  0
LINE
  8
0
 62
     0
 10
333.681
 20
1.00597
 30
0.0
 11
334.017
 21
0.602202
 31
0.0
  0
LINE
  8
0
 62
     0
 10
334.017
 20
0.602202
 30
0.0
 11
334.198
 21
0.0992188
 31
0.0
  0
LINE
  8
0
 62
     0
 10
334.198
 20
0.0992188
 30
0.0
 11
353.829
 21
0.0992188
 31
0.0
  0
LINE
  8
0
 62
     0
 10
353.829
 20
0.0992188
 30
0.0
 11
353.981
 21
0.108865
 31
0.0
  0
LINE
  8
0
 62
     0
 10
353.981
 20
0.108865
 30
0.0
 11
354.129
 21
0.12678
 31
0.0
  0
LINE
  8
0
 62
     0
 10
354.129
 20
0.12678
 30
0.0
 11
354.281
 21
0.152962
 31
0.0
  0
LINE
  8
0
 62
     0
 10
354.281
 20
0.152962
 30
0.0
 11
354.429
 21
0.19706
 31
0.0
  0
LINE
  8
0
 62
     0
 10
354.429
 20
0.19706
 30
0.0
 11
354.57
 21
0.241157
 31
0.0
  0
LINE
  8
0
 62
     0
 10
354.57
 20
0.241157
 30
0.0
 11
354.711
 21
0.303168
 31
0.0
  0
LINE
  8
0
 62
     0
 10
354.711
 20
0.303168
 30
0.0
 11
354.845
 21
0.373447
 31
0.0
  0
LINE
  8
0
 62
     0
 10
354.845
 20
0.373447
 30
0.0
 11
354.976
 21
0.451997
 31
0.0
  0
LINE
  8
0
 62
     0
 10
354.976
 20
0.451997
 30
0.0
 11
355.092
 21
0.549836
 31
0.0
  0
LINE
  8
0
 62
     0
 10
355.092
 20
0.549836
 30
0.0
 11
355.205
 21
0.646299
 31
0.0
  0
LINE
  8
0
 62
     0
 10
355.205
 20
0.646299
 30
0.0
 11
355.311
 21
0.753787
 31
0.0
  0
LINE
  8
0
 62
     0
 10
355.311
 20
0.753787
 30
0.0
 11
355.399
 21
0.858516
 31
0.0
  0
LINE
  8
0
 62
     0
 10
355.399
 20
0.858516
 30
0.0
 11
355.487
 21
0.981163
 31
0.0
  0
LINE
  8
0
 62
     0
 10
355.487
 20
0.981163
 30
0.0
 11
355.558
 21
1.10657
 31
0.0
  0
LINE
  8
0
 62
     0
 10
355.558
 20
1.10657
 30
0.0
 11
355.628
 21
1.23886
 31
0.0
  0
LINE
  8
0
 62
     0
 10
355.628
 20
1.23886
 30
0.0
 11
355.681
 21
1.37804
 31
0.0
  0
LINE
  8
0
 62
     0
 10
355.681
 20
1.37804
 30
0.0
 11
355.716
 21
1.51033
 31
0.0
  0
LINE
  8
0
 62
     0
 10
355.716
 20
1.51033
 30
0.0
 11
355.752
 21
1.65227
 31
0.0
  0
LINE
  8
0
 62
     0
 10
355.752
 20
1.65227
 30
0.0
 11
355.769
 21
1.80248
 31
0.0
  0
LINE
  8
0
 62
     0
 10
355.769
 20
1.80248
 30
0.0
 11
355.78
 21
1.94441
 31
0.0
  0
LINE
  8
0
 62
     0
 10
355.78
 20
1.94441
 30
0.0
 11
355.78
 21
12.915
 31
0.0
  0
LINE
  8
0
 62
     0
 10
355.78
 20
12.915
 30
0.0
 11
355.275
 21
13.0955
 31
0.0
  0
LINE
  8
0
 62
     0
 10
355.275
 20
13.0955
 30
0.0
 11
354.873
 21
13.4317
 31
0.0
  0
LINE
  8
0
 62
     0
 10
354.873
 20
13.4317
 30
0.0
 11
354.605
 21
13.8865
 31
0.0
  0
LINE
  8
0
 62
     0
 10
354.605
 20
13.8865
 30
0.0
 11
354.51
 21
14.4239
 31
0.0
  0
LINE
  8
0
 62
     0
 10
354.51
 20
14.4239
 30
0.0
 11
354.605
 21
14.96
 31
0.0
  0
LINE
  8
0
 62
     0
 10
354.605
 20
14.96
 30
0.0
 11
354.873
 21
15.4106
 31
0.0
  0
LINE
  8
0
 62
     0
 10
354.873
 20
15.4106
 30
0.0
 11
355.275
 21
15.7441
 31
0.0
  0
LINE
  8
0
 62
     0
 10
355.275
 20
15.7441
 30
0.0
 11
355.78
 21
15.9232
 31
0.0
  0
LINE
  8
0
 62
     0
 10
355.78
 20
15.9232
 30
0.0
 11
355.78
 21
121.977
 31
0.0
  0
LINE
  8
0
 62
     0
 10
355.78
 20
121.977
 30
0.0
 11
355.272
 21
122.155
 31
0.0
  0
LINE
  8
0
 62
     0
 10
355.272
 20
122.155
 30
0.0
 11
354.87
 21
122.487
 31
0.0
  0
LINE
  8
0
 62
     0
 10
354.87
 20
122.487
 30
0.0
 11
354.598
 21
122.939
 31
0.0
  0
LINE
  8
0
 62
     0
 10
354.598
 20
122.939
 30
0.0
 11
354.499
 21
123.476
 31
0.0
  0
LINE
  8
0
 62
     0
 10
354.499
 20
123.476
 30
0.0
 11
354.598
 21
124.014
 31
0.0
  0
LINE
  8
0
 62
     0
 10
354.598
 20
124.014
 30
0.0
 11
354.87
 21
124.466
 31
0.0
  0
LINE
  8
0
 62
     0
 10
354.87
 20
124.466
 30
0.0
 11
355.272
 21
124.798
 31
0.0
  0
LINE
  8
0
 62
     0
 10
355.272
 20
124.798
 30
0.0
 11
355.78
 21
124.976
 31
0.0
  0
LINE
  8
0
 62
     0
 10
355.78
 20
124.976
 30
0.0
 11
355.78
 21
135.099
 31
0.0
  0
LINE
  8
0
 62
     0
 10
355.78
 20
135.099
 30
0.0
 11
355.769
 21
135.25
 31
0.0
  0
LINE
  8
0
 62
     0
 10
355.769
 20
135.25
 30
0.0
 11
355.752
 21
135.389
 31
0.0
  0
LINE
  8
0
 62
     0
 10
355.752
 20
135.389
 30
0.0
 11
355.716
 21
135.532
 31
0.0
  0
LINE
  8
0
 62
     0
 10
355.716
 20
135.532
 30
0.0
 11
355.681
 21
135.672
 31
0.0
  0
LINE
  8
0
 62
     0
 10
355.681
 20
135.672
 30
0.0
 11
355.628
 21
135.804
 31
0.0
  0
LINE
  8
0
 62
     0
 10
355.628
 20
135.804
 30
0.0
 11
355.558
 21
135.937
 31
0.0
  0
LINE
  8
0
 62
     0
 10
355.558
 20
135.937
 30
0.0
 11
355.487
 21
136.061
 31
0.0
  0
LINE
  8
0
 62
     0
 10
355.487
 20
136.061
 30
0.0
 11
355.399
 21
136.183
 31
0.0
  0
LINE
  8
0
 62
     0
 10
355.399
 20
136.183
 30
0.0
 11
355.311
 21
136.299
 31
0.0
  0
LINE
  8
0
 62
     0
 10
355.311
 20
136.299
 30
0.0
 11
355.205
 21
136.404
 31
0.0
  0
LINE
  8
0
 62
     0
 10
355.205
 20
136.404
 30
0.0
 11
355.092
 21
136.502
 31
0.0
  0
LINE
  8
0
 62
     0
 10
355.092
 20
136.502
 30
0.0
 11
354.976
 21
136.59
 31
0.0
  0
LINE
  8
0
 62
     0
 10
354.976
 20
136.59
 30
0.0
 11
354.845
 21
136.668
 31
0.0
  0
LINE
  8
0
 62
     0
 10
354.845
 20
136.668
 30
0.0
 11
354.711
 21
136.74
 31
0.0
  0
LINE
  8
0
 62
     0
 10
354.711
 20
136.74
 30
0.0
 11
354.57
 21
136.801
 31
0.0
  0
LINE
  8
0
 62
     0
 10
354.57
 20
136.801
 30
0.0
 11
354.429
 21
136.854
 31
0.0
  0
LINE
  8
0
 62
     0
 10
354.429
 20
136.854
 30
0.0
 11
354.281
 21
136.889
 31
0.0
  0
LINE
  8
0
 62
     0
 10
354.281
 20
136.889
 30
0.0
 11
354.129
 21
136.916
 31
0.0
  0
LINE
  8
0
 62
     0
 10
354.129
 20
136.916
 30
0.0
 11
353.981
 21
136.933
 31
0.0
  0
LINE
  8
0
 62
     0
 10
353.981
 20
136.933
 30
0.0
 11
353.829
 21
136.943
 31
0.0
  0
LINE
  8
0
 62
     0
 10
353.829
 20
136.943
 30
0.0
 11
334.198
 21
136.943
 31
0.0
  0
LINE
  8
0
 62
     0
 10
334.198
 20
136.943
 30
0.0
 11
334.017
 21
136.441
 31
0.0
  0
LINE
  8
0
 62
     0
 10
334.017
 20
136.441
 30
0.0
 11
333.681
 21
136.039
 31
0.0
  0
LINE
  8
0
 62
     0
 10
333.681
 20
136.039
 30
0.0
 11
333.226
 21
135.77
 31
0.0
  0
LINE
  8
0
 62
     0
 10
333.226
 20
135.77
 30
0.0
 11
332.69
 21
135.672
 31
0.0
  0
LINE
  8
0
 62
     0
 10
332.69
 20
135.672
 30
0.0
 11
332.154
 21
135.77
 31
0.0
  0
LINE
  8
0
 62
     0
 10
332.154
 20
135.77
 30
0.0
 11
331.702
 21
136.039
 31
0.0
  0
LINE
  8
0
 62
     0
 10
331.702
 20
136.039
 30
0.0
 11
331.37
 21
136.441
 31
0.0
  0
LINE
  8
0
 62
     0
 10
331.37
 20
136.441
 30
0.0
 11
331.191
 21
136.943
 31
0.0
  0
LINE
  8
0
 62
     0
 10
331.191
 20
136.943
 30
0.0
 11
272.215
 21
136.943
 31
0.0
  0
LINE
  8
0
 62
     0
 10
272.215
 20
136.943
 30
0.0
 11
272.034
 21
136.441
 31
0.0
  0
LINE
  8
0
 62
     0
 10
272.034
 20
136.441
 30
0.0
 11
271.702
 21
136.039
 31
0.0
  0
LINE
  8
0
 62
     0
 10
271.702
 20
136.039
 30
0.0
 11
271.25
 21
135.77
 31
0.0
  0
LINE
  8
0
 62
     0
 10
271.25
 20
135.77
 30
0.0
 11
270.716
 21
135.672
 31
0.0
  0
LINE
  8
0
 62
     0
 10
270.716
 20
135.672
 30
0.0
 11
270.179
 21
135.77
 31
0.0
  0
LINE
  8
0
 62
     0
 10
270.179
 20
135.77
 30
0.0
 11
269.728
 21
136.039
 31
0.0
  0
LINE
  8
0
 62
     0
 10
269.728
 20
136.039
 30
0.0
 11
269.396
 21
136.441
 31
0.0
  0
LINE
  8
0
 62
     0
 10
269.396
 20
136.441
 30
0.0
 11
269.216
 21
136.943
 31
0.0
  0
LINE
  8
0
 62
     0
 10
269.216
 20
136.943
 30
0.0
 11
124.824
 21
136.943
 31
0.0
  0
LINE
  8
0
 62
     0
 10
124.824
 20
136.943
 30
0.0
 11
124.645
 21
136.44
 31
0.0
  0
LINE
  8
0
 62
     0
 10
124.645
 20
136.44
 30
0.0
 11
124.313
 21
136.037
 31
0.0
  0
LINE
  8
0
 62
     0
 10
124.313
 20
136.037
 30
0.0
 11
123.861
 21
135.77
 31
0.0
  0
LINE
  8
0
 62
     0
 10
123.861
 20
135.77
 30
0.0
 11
123.325
 21
135.672
 31
0.0
  0
LINE
  8
0
 62
     0
 10
123.325
 20
135.672
 30
0.0
 11
122.786
 21
135.77
 31
0.0
  0
LINE
  8
0
 62
     0
 10
122.786
 20
135.77
 30
0.0
 11
122.331
 21
136.037
 31
0.0
  0
LINE
  8
0
 62
     0
 10
122.331
 20
136.037
 30
0.0
 11
121.996
 21
136.44
 31
0.0
  0
LINE
  8
0
 62
     0
 10
121.996
 20
136.44
 30
0.0
 11
121.817
 21
136.943
 31
0.0
  0
LINE
  8
0
 62
     0
 10
121.817
 20
136.943
 30
0.0
 11
24.6448
 21
136.943
 31
0.0
  0
LINE
  8
0
 62
     0
 10
24.6448
 20
136.943
 30
0.0
 11
24.4671
 21
136.438
 31
0.0
  0
LINE
  8
0
 62
     0
 10
24.4671
 20
136.438
 30
0.0
 11
24.135
 21
136.032
 31
0.0
  0
LINE
  8
0
 62
     0
 10
24.135
 20
136.032
 30
0.0
 11
23.6816
 21
135.763
 31
0.0
  0
LINE
  8
0
 62
     0
 10
23.6816
 20
135.763
 30
0.0
 11
23.1455
 21
135.664
 31
0.0
  0
LINE
  8
0
 62
     0
 10
23.1455
 20
135.664
 30
0.0
 11
22.6067
 21
135.763
 31
0.0
  0
LINE
  8
0
 62
     0
 10
22.6067
 20
135.763
 30
0.0
 11
22.1547
 21
136.032
 31
0.0
  0
LINE
  8
0
 62
     0
 10
22.1547
 20
136.032
 30
0.0
 11
21.8226
 21
136.438
 31
0.0
  0
LINE
  8
0
 62
     0
 10
21.8226
 20
136.438
 30
0.0
 11
21.6462
 21
136.943
 31
0.0
  0
LINE
  8
0
 62
     0
 10
21.6462
 20
136.943
 30
0.0
 11
2.04914
 21
136.943
 31
0.0
  0
ENDSEC
  0
EOF
