  0
SECTION
  2
HEADER
  9
$ACADVER
  1
AC1009
  9
$EXTMIN
 10
0.0
 20
0.0
 30
0.0
  9
$EXTMAX
 10
1000.0
 20
1000.0
 30
0.0
  9
$FILLMODE
 70
 0
  9
$SPLFRAME
 70
 1
  0
ENDSEC
  0
SECTION
  2
TABLES
  0
TABLE
  2
LAYER
 70
1
  0
LAYER
  2
0
 70
     0
 62
     7
  6
CONTINUOUS
  0
ENDTAB
  0
ENDSEC
  0
SECTION
  2
ENTITIES
  0
LINE
  8
0
 62
     0
 10
337.688
 20
145.161
 30
0.0
 11
336.979
 21
145.03
 31
0.0
  0
LINE
  8
0
 62
     0
 10
336.979
 20
145.03
 30
0.0
 11
336.382
 21
144.666
 31
0.0
  0
LINE
  8
0
 62
     0
 10
336.382
 20
144.666
 30
0.0
 11
335.948
 21
144.118
 31
0.0
  0
LINE
  8
0
 62
     0
 10
335.948
 20
144.118
 30
0.0
 11
335.732
 21
143.43
 31
0.0
  0
LINE
  8
0
 62
     0
 10
335.732
 20
143.43
 30
0.0
 11
277.662
 21
143.43
 31
0.0
  0
LINE
  8
0
 62
     0
 10
277.662
 20
143.43
 30
0.0
 11
277.445
 21
144.117
 31
0.0
  0
LINE
  8
0
 62
     0
 10
277.445
 20
144.117
 30
0.0
 11
277.011
 21
144.665
 31
0.0
  0
LINE
  8
0
 62
     0
 10
277.011
 20
144.665
 30
0.0
 11
276.414
 21
145.028
 31
0.0
  0
LINE
  8
0
 62
     0
 10
276.414
 20
145.028
 30
0.0
 11
275.707
 21
145.159
 31
0.0
  0
LINE
  8
0
 62
     0
 10
275.707
 20
145.159
 30
0.0
 11
274.998
 21
145.028
 31
0.0
  0
LINE
  8
0
 62
     0
 10
274.998
 20
145.028
 30
0.0
 11
274.402
 21
144.665
 31
0.0
  0
LINE
  8
0
 62
     0
 10
274.402
 20
144.665
 30
0.0
 11
273.968
 21
144.117
 31
0.0
  0
LINE
  8
0
 62
     0
 10
273.968
 20
144.117
 30
0.0
 11
273.751
 21
143.43
 31
0.0
  0
LINE
  8
0
 62
     0
 10
273.751
 20
143.43
 30
0.0
 11
130.27
 21
143.432
 31
0.0
  0
LINE
  8
0
 62
     0
 10
130.27
 20
143.432
 30
0.0
 11
130.051
 21
144.117
 31
0.0
  0
LINE
  8
0
 62
     0
 10
130.051
 20
144.117
 30
0.0
 11
129.617
 21
144.662
 31
0.0
  0
LINE
  8
0
 62
     0
 10
129.617
 20
144.662
 30
0.0
 11
129.021
 21
145.023
 31
0.0
  0
LINE
  8
0
 62
     0
 10
129.021
 20
145.023
 30
0.0
 11
128.316
 21
145.154
 31
0.0
  0
LINE
  8
0
 62
     0
 10
128.316
 20
145.154
 30
0.0
 11
127.609
 21
145.025
 31
0.0
  0
LINE
  8
0
 62
     0
 10
127.609
 20
145.025
 30
0.0
 11
127.012
 21
144.662
 31
0.0
  0
LINE
  8
0
 62
     0
 10
127.012
 20
144.662
 30
0.0
 11
126.578
 21
144.117
 31
0.0
  0
LINE
  8
0
 62
     0
 10
126.578
 20
144.117
 30
0.0
 11
126.361
 21
143.432
 31
0.0
  0
LINE
  8
0
 62
     0
 10
126.361
 20
143.432
 30
0.0
 11
30.0936
 21
143.432
 31
0.0
  0
LINE
  8
0
 62
     0
 10
30.0936
 20
143.432
 30
0.0
 11
29.8731
 21
144.114
 31
0.0
  0
LINE
  8
0
 62
     0
 10
29.8731
 20
144.114
 30
0.0
 11
29.439
 21
144.658
 31
0.0
  0
LINE
  8
0
 62
     0
 10
29.439
 20
144.658
 30
0.0
 11
28.8437
 21
145.019
 31
0.0
  0
LINE
  8
0
 62
     0
 10
28.8437
 20
145.019
 30
0.0
 11
28.1395
 21
145.149
 31
0.0
  0
LINE
  8
0
 62
     0
 10
28.1395
 20
145.149
 30
0.0
 11
27.434
 21
145.019
 31
0.0
  0
LINE
  8
0
 62
     0
 10
27.434
 20
145.019
 30
0.0
 11
26.8387
 21
144.658
 31
0.0
  0
LINE
  8
0
 62
     0
 10
26.8387
 20
144.658
 30
0.0
 11
26.4046
 21
144.114
 31
0.0
  0
LINE
  8
0
 62
     0
 10
26.4046
 20
144.114
 30
0.0
 11
26.1855
 21
143.432
 31
0.0
  0
LINE
  8
0
 62
     0
 10
26.1855
 20
143.432
 30
0.0
 11
6.54706
 21
143.432
 31
0.0
  0
LINE
  8
0
 62
     0
 10
6.54706
 20
143.432
 30
0.0
 11
6.3941
 21
143.425
 31
0.0
  0
LINE
  8
0
 62
     0
 10
6.3941
 20
143.425
 30
0.0
 11
6.24113
 21
143.408
 31
0.0
  0
LINE
  8
0
 62
     0
 10
6.24113
 20
143.408
 30
0.0
 11
6.09092
 21
143.379
 31
0.0
  0
LINE
  8
0
 62
     0
 10
6.09092
 20
143.379
 30
0.0
 11
5.94349
 21
143.341
 31
0.0
  0
LINE
  8
0
 62
     0
 10
5.94349
 20
143.341
 30
0.0
 11
5.80016
 21
143.29
 31
0.0
  0
LINE
  8
0
 62
     0
 10
5.80016
 20
143.29
 30
0.0
 11
5.66099
 21
143.231
 31
0.0
  0
LINE
  8
0
 62
     0
 10
5.66099
 20
143.231
 30
0.0
 11
5.52732
 21
143.159
 31
0.0
  0
LINE
  8
0
 62
     0
 10
5.52732
 20
143.159
 30
0.0
 11
5.39916
 21
143.077
 31
0.0
  0
LINE
  8
0
 62
     0
 10
5.39916
 20
143.077
 30
0.0
 11
5.27925
 21
142.986
 31
0.0
  0
LINE
  8
0
 62
     0
 10
5.27925
 20
142.986
 30
0.0
 11
5.16625
 21
142.889
 31
0.0
  0
LINE
  8
0
 62
     0
 10
5.16625
 20
142.889
 30
0.0
 11
5.06293
 21
142.781
 31
0.0
  0
LINE
  8
0
 62
     0
 10
5.06293
 20
142.781
 30
0.0
 11
4.96782
 21
142.668
 31
0.0
  0
LINE
  8
0
 62
     0
 10
4.96782
 20
142.668
 30
0.0
 11
4.88237
 21
142.547
 31
0.0
  0
LINE
  8
0
 62
     0
 10
4.88237
 20
142.547
 30
0.0
 11
4.80797
 21
142.419
 31
0.0
  0
LINE
  8
0
 62
     0
 10
4.80797
 20
142.419
 30
0.0
 11
4.74458
 21
142.288
 31
0.0
  0
LINE
  8
0
 62
     0
 10
4.74458
 20
142.288
 30
0.0
 11
4.69085
 21
142.151
 31
0.0
  0
LINE
  8
0
 62
     0
 10
4.69085
 20
142.151
 30
0.0
 11
4.64951
 21
142.011
 31
0.0
  0
LINE
  8
0
 62
     0
 10
4.64951
 20
142.011
 30
0.0
 11
4.6192
 21
141.869
 31
0.0
  0
LINE
  8
0
 62
     0
 10
4.6192
 20
141.869
 30
0.0
 11
4.60266
 21
141.724
 31
0.0
  0
LINE
  8
0
 62
     0
 10
4.60266
 20
141.724
 30
0.0
 11
4.59574
 21
141.578
 31
0.0
  0
LINE
  8
0
 62
     0
 10
4.59574
 20
141.578
 30
0.0
 11
4.59574
 21
131.419
 31
0.0
  0
LINE
  8
0
 62
     0
 10
4.59574
 20
131.419
 30
0.0
 11
3.90811
 21
131.203
 31
0.0
  0
LINE
  8
0
 62
     0
 10
3.90811
 20
131.203
 30
0.0
 11
3.36103
 21
130.769
 31
0.0
  0
LINE
  8
0
 62
     0
 10
3.36103
 20
130.769
 30
0.0
 11
2.99723
 21
130.172
 31
0.0
  0
LINE
  8
0
 62
     0
 10
2.99723
 20
130.172
 30
0.0
 11
2.86632
 21
129.464
 31
0.0
  0
LINE
  8
0
 62
     0
 10
2.86632
 20
129.464
 30
0.0
 11
2.99723
 21
128.757
 31
0.0
  0
LINE
  8
0
 62
     0
 10
2.99723
 20
128.757
 30
0.0
 11
3.36103
 21
128.16
 31
0.0
  0
LINE
  8
0
 62
     0
 10
3.36103
 20
128.16
 30
0.0
 11
3.90811
 21
127.726
 31
0.0
  0
LINE
  8
0
 62
     0
 10
3.90811
 20
127.726
 30
0.0
 11
4.59574
 21
127.508
 31
0.0
  0
LINE
  8
0
 62
     0
 10
4.59574
 20
127.508
 30
0.0
 11
4.59437
 21
22.3642
 31
0.0
  0
LINE
  8
0
 62
     0
 10
4.59437
 20
22.3642
 30
0.0
 11
3.90811
 21
22.1464
 31
0.0
  0
LINE
  8
0
 62
     0
 10
3.90811
 20
22.1464
 30
0.0
 11
3.36241
 21
21.7124
 31
0.0
  0
LINE
  8
0
 62
     0
 10
3.36241
 20
21.7124
 30
0.0
 11
2.99999
 21
21.1171
 31
0.0
  0
LINE
  8
0
 62
     0
 10
2.99999
 20
21.1171
 30
0.0
 11
2.86907
 21
20.4088
 31
0.0
  0
LINE
  8
0
 62
     0
 10
2.86907
 20
20.4088
 30
0.0
 11
2.99999
 21
19.7018
 31
0.0
  0
LINE
  8
0
 62
     0
 10
2.99999
 20
19.7018
 30
0.0
 11
3.36241
 21
19.1065
 31
0.0
  0
LINE
  8
0
 62
     0
 10
3.36241
 20
19.1065
 30
0.0
 11
3.90811
 21
18.6724
 31
0.0
  0
LINE
  8
0
 62
     0
 10
3.90811
 20
18.6724
 30
0.0
 11
4.59437
 21
18.4533
 31
0.0
  0
LINE
  8
0
 62
     0
 10
4.59437
 20
18.4533
 30
0.0
 11
4.59437
 21
7.44693
 31
0.0
  0
LINE
  8
0
 62
     0
 10
4.59437
 20
7.44693
 30
0.0
 11
4.60266
 21
7.30222
 31
0.0
  0
LINE
  8
0
 62
     0
 10
4.60266
 20
7.30222
 30
0.0
 11
4.6192
 21
7.15754
 31
0.0
  0
LINE
  8
0
 62
     0
 10
4.6192
 20
7.15754
 30
0.0
 11
4.64951
 21
7.01559
 31
0.0
  0
LINE
  8
0
 62
     0
 10
4.64951
 20
7.01559
 30
0.0
 11
4.69085
 21
6.87504
 31
0.0
  0
LINE
  8
0
 62
     0
 10
4.69085
 20
6.87504
 30
0.0
 11
4.74458
 21
6.73862
 31
0.0
  0
LINE
  8
0
 62
     0
 10
4.74458
 20
6.73862
 30
0.0
 11
4.80797
 21
6.60633
 31
0.0
  0
LINE
  8
0
 62
     0
 10
4.80797
 20
6.60633
 30
0.0
 11
4.88237
 21
6.47954
 31
0.0
  0
LINE
  8
0
 62
     0
 10
4.88237
 20
6.47954
 30
0.0
 11
4.96782
 21
6.35825
 31
0.0
  0
LINE
  8
0
 62
     0
 10
4.96782
 20
6.35825
 30
0.0
 11
5.06293
 21
6.24526
 31
0.0
  0
LINE
  8
0
 62
     0
 10
5.06293
 20
6.24526
 30
0.0
 11
5.16625
 21
6.13777
 31
0.0
  0
LINE
  8
0
 62
     0
 10
5.16625
 20
6.13777
 30
0.0
 11
5.27925
 21
6.03857
 31
0.0
  0
LINE
  8
0
 62
     0
 10
5.27925
 20
6.03857
 30
0.0
 11
5.39916
 21
5.94762
 31
0.0
  0
LINE
  8
0
 62
     0
 10
5.39916
 20
5.94762
 30
0.0
 11
5.52732
 21
5.86768
 31
0.0
  0
LINE
  8
0
 62
     0
 10
5.52732
 20
5.86768
 30
0.0
 11
5.66099
 21
5.79603
 31
0.0
  0
LINE
  8
0
 62
     0
 10
5.66099
 20
5.79603
 30
0.0
 11
5.80016
 21
5.73677
 31
0.0
  0
LINE
  8
0
 62
     0
 10
5.80016
 20
5.73677
 30
0.0
 11
5.94349
 21
5.68579
 31
0.0
  0
LINE
  8
0
 62
     0
 10
5.94349
 20
5.68579
 30
0.0
 11
6.09092
 21
5.6472
 31
0.0
  0
LINE
  8
0
 62
     0
 10
6.09092
 20
5.6472
 30
0.0
 11
6.24113
 21
5.61827
 31
0.0
  0
LINE
  8
0
 62
     0
 10
6.24113
 20
5.61827
 30
0.0
 11
6.3941
 21
5.60035
 31
0.0
  0
LINE
  8
0
 62
     0
 10
6.3941
 20
5.60035
 30
0.0
 11
6.54706
 21
5.59484
 31
0.0
  0
LINE
  8
0
 62
     0
 10
6.54706
 20
5.59484
 30
0.0
 11
26.1855
 21
5.59484
 31
0.0
  0
LINE
  8
0
 62
     0
 10
26.1855
 20
5.59484
 30
0.0
 11
26.4018
 21
4.90996
 31
0.0
  0
LINE
  8
0
 62
     0
 10
26.4018
 20
4.90996
 30
0.0
 11
26.8359
 21
4.3615
 31
0.0
  0
LINE
  8
0
 62
     0
 10
26.8359
 20
4.3615
 30
0.0
 11
27.4312
 21
3.99905
 31
0.0
  0
LINE
  8
0
 62
     0
 10
27.4312
 20
3.99905
 30
0.0
 11
28.1395
 21
3.86676
 31
0.0
  0
LINE
  8
0
 62
     0
 10
28.1395
 20
3.86676
 30
0.0
 11
28.8465
 21
3.99905
 31
0.0
  0
LINE
  8
0
 62
     0
 10
28.8465
 20
3.99905
 30
0.0
 11
29.4445
 21
4.3615
 31
0.0
  0
LINE
  8
0
 62
     0
 10
29.4445
 20
4.3615
 30
0.0
 11
29.8772
 21
4.90859
 31
0.0
  0
LINE
  8
0
 62
     0
 10
29.8772
 20
4.90859
 30
0.0
 11
30.0964
 21
5.59484
 31
0.0
  0
LINE
  8
0
 62
     0
 10
30.0964
 20
5.59484
 30
0.0
 11
126.352
 21
5.59484
 31
0.0
  0
LINE
  8
0
 62
     0
 10
126.352
 20
5.59484
 30
0.0
 11
126.569
 21
4.90859
 31
0.0
  0
LINE
  8
0
 62
     0
 10
126.569
 20
4.90859
 30
0.0
 11
127.003
 21
4.3615
 31
0.0
  0
LINE
  8
0
 62
     0
 10
127.003
 20
4.3615
 30
0.0
 11
127.599
 21
3.99768
 31
0.0
  0
LINE
  8
0
 62
     0
 10
127.599
 20
3.99768
 30
0.0
 11
128.308
 21
3.86539
 31
0.0
  0
LINE
  8
0
 62
     0
 10
128.308
 20
3.86539
 30
0.0
 11
129.015
 21
3.99768
 31
0.0
  0
LINE
  8
0
 62
     0
 10
129.015
 20
3.99768
 30
0.0
 11
129.611
 21
4.3615
 31
0.0
  0
LINE
  8
0
 62
     0
 10
129.611
 20
4.3615
 30
0.0
 11
130.046
 21
4.90859
 31
0.0
  0
LINE
  8
0
 62
     0
 10
130.046
 20
4.90859
 30
0.0
 11
130.263
 21
5.59484
 31
0.0
  0
LINE
  8
0
 62
     0
 10
130.263
 20
5.59484
 30
0.0
 11
245.029
 21
5.59484
 31
0.0
  0
LINE
  8
0
 62
     0
 10
245.029
 20
5.59484
 30
0.0
 11
245.247
 21
4.90996
 31
0.0
  0
LINE
  8
0
 62
     0
 10
245.247
 20
4.90996
 30
0.0
 11
245.679
 21
4.36287
 31
0.0
  0
LINE
  8
0
 62
     0
 10
245.679
 20
4.36287
 30
0.0
 11
246.276
 21
4.00043
 31
0.0
  0
LINE
  8
0
 62
     0
 10
246.276
 20
4.00043
 30
0.0
 11
246.984
 21
3.86814
 31
0.0
  0
LINE
  8
0
 62
     0
 10
246.984
 20
3.86814
 30
0.0
 11
247.691
 21
4.00043
 31
0.0
  0
LINE
  8
0
 62
     0
 10
247.691
 20
4.00043
 30
0.0
 11
248.29
 21
4.3615
 31
0.0
  0
LINE
  8
0
 62
     0
 10
248.29
 20
4.3615
 30
0.0
 11
248.722
 21
4.90996
 31
0.0
  0
LINE
  8
0
 62
     0
 10
248.722
 20
4.90996
 30
0.0
 11
248.941
 21
5.59484
 31
0.0
  0
LINE
  8
0
 62
     0
 10
248.941
 20
5.59484
 30
0.0
 11
335.732
 21
5.59484
 31
0.0
  0
LINE
  8
0
 62
     0
 10
335.732
 20
5.59484
 30
0.0
 11
335.949
 21
4.90859
 31
0.0
  0
LINE
  8
0
 62
     0
 10
335.949
 20
4.90859
 30
0.0
 11
336.383
 21
4.3615
 31
0.0
  0
LINE
  8
0
 62
     0
 10
336.383
 20
4.3615
 30
0.0
 11
336.98
 21
3.99768
 31
0.0
  0
LINE
  8
0
 62
     0
 10
336.98
 20
3.99768
 30
0.0
 11
337.688
 21
3.86539
 31
0.0
  0
LINE
  8
0
 62
     0
 10
337.688
 20
3.86539
 30
0.0
 11
338.395
 21
3.99768
 31
0.0
  0
LINE
  8
0
 62
     0
 10
338.395
 20
3.99768
 30
0.0
 11
338.992
 21
4.3615
 31
0.0
  0
LINE
  8
0
 62
     0
 10
338.992
 20
4.3615
 30
0.0
 11
339.426
 21
4.90859
 31
0.0
  0
LINE
  8
0
 62
     0
 10
339.426
 20
4.90859
 30
0.0
 11
339.644
 21
5.59484
 31
0.0
  0
LINE
  8
0
 62
     0
 10
339.644
 20
5.59484
 30
0.0
 11
359.318
 21
5.59484
 31
0.0
  0
LINE
  8
0
 62
     0
 10
359.318
 20
5.59484
 30
0.0
 11
359.47
 21
5.60035
 31
0.0
  0
LINE
  8
0
 62
     0
 10
359.47
 20
5.60035
 30
0.0
 11
359.625
 21
5.61827
 31
0.0
  0
LINE
  8
0
 62
     0
 10
359.625
 20
5.61827
 30
0.0
 11
359.773
 21
5.6472
 31
0.0
  0
LINE
  8
0
 62
     0
 10
359.773
 20
5.6472
 30
0.0
 11
359.922
 21
5.68579
 31
0.0
  0
LINE
  8
0
 62
     0
 10
359.922
 20
5.68579
 30
0.0
 11
360.066
 21
5.73677
 31
0.0
  0
LINE
  8
0
 62
     0
 10
360.066
 20
5.73677
 30
0.0
 11
360.204
 21
5.79603
 31
0.0
  0
LINE
  8
0
 62
     0
 10
360.204
 20
5.79603
 30
0.0
 11
360.338
 21
5.86768
 31
0.0
  0
LINE
  8
0
 62
     0
 10
360.338
 20
5.86768
 30
0.0
 11
360.465
 21
5.94762
 31
0.0
  0
LINE
  8
0
 62
     0
 10
360.465
 20
5.94762
 30
0.0
 11
360.585
 21
6.03857
 31
0.0
  0
LINE
  8
0
 62
     0
 10
360.585
 20
6.03857
 30
0.0
 11
360.698
 21
6.13777
 31
0.0
  0
LINE
  8
0
 62
     0
 10
360.698
 20
6.13777
 30
0.0
 11
360.803
 21
6.24526
 31
0.0
  0
LINE
  8
0
 62
     0
 10
360.803
 20
6.24526
 30
0.0
 11
360.899
 21
6.35825
 31
0.0
  0
LINE
  8
0
 62
     0
 10
360.899
 20
6.35825
 30
0.0
 11
360.98
 21
6.47954
 31
0.0
  0
LINE
  8
0
 62
     0
 10
360.98
 20
6.47954
 30
0.0
 11
361.057
 21
6.60633
 31
0.0
  0
LINE
  8
0
 62
     0
 10
361.057
 20
6.60633
 30
0.0
 11
361.121
 21
6.73862
 31
0.0
  0
LINE
  8
0
 62
     0
 10
361.121
 20
6.73862
 30
0.0
 11
361.174
 21
6.87504
 31
0.0
  0
LINE
  8
0
 62
     0
 10
361.174
 20
6.87504
 30
0.0
 11
361.216
 21
7.01559
 31
0.0
  0
LINE
  8
0
 62
     0
 10
361.216
 20
7.01559
 30
0.0
 11
361.244
 21
7.15754
 31
0.0
  0
LINE
  8
0
 62
     0
 10
361.244
 20
7.15754
 30
0.0
 11
361.262
 21
7.30222
 31
0.0
  0
LINE
  8
0
 62
     0
 10
361.262
 20
7.30222
 30
0.0
 11
361.269
 21
7.44693
 31
0.0
  0
LINE
  8
0
 62
     0
 10
361.269
 20
7.44693
 30
0.0
 11
361.269
 21
18.4547
 31
0.0
  0
LINE
  8
0
 62
     0
 10
361.269
 20
18.4547
 30
0.0
 11
361.954
 21
18.6724
 31
0.0
  0
LINE
  8
0
 62
     0
 10
361.954
 20
18.6724
 30
0.0
 11
362.504
 21
19.1051
 31
0.0
  0
LINE
  8
0
 62
     0
 10
362.504
 20
19.1051
 30
0.0
 11
362.864
 21
19.7018
 31
0.0
  0
LINE
  8
0
 62
     0
 10
362.864
 20
19.7018
 30
0.0
 11
362.998
 21
20.4088
 31
0.0
  0
LINE
  8
0
 62
     0
 10
362.998
 20
20.4088
 30
0.0
 11
362.864
 21
21.1171
 31
0.0
  0
LINE
  8
0
 62
     0
 10
362.864
 20
21.1171
 30
0.0
 11
362.504
 21
21.7138
 31
0.0
  0
LINE
  8
0
 62
     0
 10
362.504
 20
21.7138
 30
0.0
 11
361.954
 21
22.1478
 31
0.0
  0
LINE
  8
0
 62
     0
 10
361.954
 20
22.1478
 30
0.0
 11
361.269
 21
22.3655
 31
0.0
  0
LINE
  8
0
 62
     0
 10
361.269
 20
22.3655
 30
0.0
 11
361.269
 21
127.51
 31
0.0
  0
LINE
  8
0
 62
     0
 10
361.269
 20
127.51
 30
0.0
 11
361.954
 21
127.729
 31
0.0
  0
LINE
  8
0
 62
     0
 10
361.954
 20
127.729
 30
0.0
 11
362.5
 21
128.162
 31
0.0
  0
LINE
  8
0
 62
     0
 10
362.5
 20
128.162
 30
0.0
 11
362.86
 21
128.758
 31
0.0
  0
LINE
  8
0
 62
     0
 10
362.86
 20
128.758
 30
0.0
 11
362.994
 21
129.464
 31
0.0
  0
LINE
  8
0
 62
     0
 10
362.994
 20
129.464
 30
0.0
 11
362.86
 21
130.172
 31
0.0
  0
LINE
  8
0
 62
     0
 10
362.86
 20
130.172
 30
0.0
 11
362.5
 21
130.768
 31
0.0
  0
LINE
  8
0
 62
     0
 10
362.5
 20
130.768
 30
0.0
 11
361.954
 21
131.202
 31
0.0
  0
LINE
  8
0
 62
     0
 10
361.954
 20
131.202
 30
0.0
 11
361.269
 21
131.419
 31
0.0
  0
LINE
  8
0
 62
     0
 10
361.269
 20
131.419
 30
0.0
 11
361.269
 21
141.578
 31
0.0
  0
LINE
  8
0
 62
     0
 10
361.269
 20
141.578
 30
0.0
 11
361.262
 21
141.724
 31
0.0
  0
LINE
  8
0
 62
     0
 10
361.262
 20
141.724
 30
0.0
 11
361.244
 21
141.869
 31
0.0
  0
LINE
  8
0
 62
     0
 10
361.244
 20
141.869
 30
0.0
 11
361.216
 21
142.011
 31
0.0
  0
LINE
  8
0
 62
     0
 10
361.216
 20
142.011
 30
0.0
 11
361.174
 21
142.151
 31
0.0
  0
LINE
  8
0
 62
     0
 10
361.174
 20
142.151
 30
0.0
 11
361.121
 21
142.288
 31
0.0
  0
LINE
  8
0
 62
     0
 10
361.121
 20
142.288
 30
0.0
 11
361.057
 21
142.419
 31
0.0
  0
LINE
  8
0
 62
     0
 10
361.057
 20
142.419
 30
0.0
 11
360.98
 21
142.547
 31
0.0
  0
LINE
  8
0
 62
     0
 10
360.98
 20
142.547
 30
0.0
 11
360.899
 21
142.668
 31
0.0
  0
LINE
  8
0
 62
     0
 10
360.899
 20
142.668
 30
0.0
 11
360.803
 21
142.781
 31
0.0
  0
LINE
  8
0
 62
     0
 10
360.803
 20
142.781
 30
0.0
 11
360.698
 21
142.889
 31
0.0
  0
LINE
  8
0
 62
     0
 10
360.698
 20
142.889
 30
0.0
 11
360.585
 21
142.986
 31
0.0
  0
LINE
  8
0
 62
     0
 10
360.585
 20
142.986
 30
0.0
 11
360.465
 21
143.077
 31
0.0
  0
LINE
  8
0
 62
     0
 10
360.465
 20
143.077
 30
0.0
 11
360.338
 21
143.159
 31
0.0
  0
LINE
  8
0
 62
     0
 10
360.338
 20
143.159
 30
0.0
 11
360.204
 21
143.231
 31
0.0
  0
LINE
  8
0
 62
     0
 10
360.204
 20
143.231
 30
0.0
 11
360.066
 21
143.29
 31
0.0
  0
LINE
  8
0
 62
     0
 10
360.066
 20
143.29
 30
0.0
 11
359.922
 21
143.341
 31
0.0
  0
LINE
  8
0
 62
     0
 10
359.922
 20
143.341
 30
0.0
 11
359.773
 21
143.379
 31
0.0
  0
LINE
  8
0
 62
     0
 10
359.773
 20
143.379
 30
0.0
 11
359.625
 21
143.408
 31
0.0
  0
LINE
  8
0
 62
     0
 10
359.625
 20
143.408
 30
0.0
 11
359.47
 21
143.425
 31
0.0
  0
LINE
  8
0
 62
     0
 10
359.47
 20
143.425
 30
0.0
 11
359.318
 21
143.43
 31
0.0
  0
LINE
  8
0
 62
     0
 10
359.318
 20
143.43
 30
0.0
 11
339.642
 21
143.43
 31
0.0
  0
LINE
  8
0
 62
     0
 10
339.642
 20
143.43
 30
0.0
 11
339.424
 21
144.118
 31
0.0
  0
LINE
  8
0
 62
     0
 10
339.424
 20
144.118
 30
0.0
 11
338.992
 21
144.666
 31
0.0
  0
LINE
  8
0
 62
     0
 10
338.992
 20
144.666
 30
0.0
 11
338.395
 21
145.03
 31
0.0
  0
LINE
  8
0
 62
     0
 10
338.395
 20
145.03
 30
0.0
 11
337.688
 21
145.161
 31
0.0
  0
LINE
  8
0
 62
     0
 10
0.253559
 20
1.33394
 30
0.0
 11
0.198438
 21
1.48139
 31
0.0
  0
LINE
  8
0
 62
     0
 10
0.198438
 20
1.48139
 30
0.0
 11
0.155718
 21
1.63298
 31
0.0
  0
LINE
  8
0
 62
     0
 10
0.155718
 20
1.63298
 30
0.0
 11
0.125402
 21
1.78732
 31
0.0
  0
LINE
  8
0
 62
     0
 10
0.125402
 20
1.78732
 30
0.0
 11
0.107487
 21
1.94303
 31
0.0
  0
LINE
  8
0
 62
     0
 10
0.107487
 20
1.94303
 30
0.0
 11
0.100597
 21
2.10013
 31
0.0
  0
LINE
  8
0
 62
     0
 10
0.100597
 20
2.10013
 30
0.0
 11
0.100597
 21
146.925
 31
0.0
  0
LINE
  8
0
 62
     0
 10
0.100597
 20
146.925
 30
0.0
 11
0.107487
 21
147.082
 31
0.0
  0
LINE
  8
0
 62
     0
 10
0.107487
 20
147.082
 30
0.0
 11
0.125402
 21
147.239
 31
0.0
  0
LINE
  8
0
 62
     0
 10
0.125402
 20
147.239
 30
0.0
 11
0.155718
 21
147.392
 31
0.0
  0
LINE
  8
0
 62
     0
 10
0.155718
 20
147.392
 30
0.0
 11
0.198438
 21
147.545
 31
0.0
  0
LINE
  8
0
 62
     0
 10
0.198438
 20
147.545
 30
0.0
 11
0.253559
 21
147.691
 31
0.0
  0
LINE
  8
0
 62
     0
 10
0.253559
 20
147.691
 30
0.0
 11
0.318327
 21
147.833
 31
0.0
  0
LINE
  8
0
 62
     0
 10
0.318327
 20
147.833
 30
0.0
 11
0.395496
 21
147.971
 31
0.0
  0
LINE
  8
0
 62
     0
 10
0.395496
 20
147.971
 30
0.0
 11
0.482314
 21
148.102
 31
0.0
  0
LINE
  8
0
 62
     0
 10
0.482314
 20
148.102
 30
0.0
 11
0.580154
 21
148.225
 31
0.0
  0
LINE
  8
0
 62
     0
 10
0.580154
 20
148.225
 30
0.0
 11
0.686262
 21
148.34
 31
0.0
  0
LINE
  8
0
 62
     0
 10
0.686262
 20
148.34
 30
0.0
 11
0.802019
 21
148.446
 31
0.0
  0
LINE
  8
0
 62
     0
 10
0.802019
 20
148.446
 30
0.0
 11
0.924662
 21
148.544
 31
0.0
  0
LINE
  8
0
 62
     0
 10
0.924662
 20
148.544
 30
0.0
 11
1.05558
 21
148.631
 31
0.0
  0
LINE
  8
0
 62
     0
 10
1.05558
 20
148.631
 30
0.0
 11
1.19338
 21
148.708
 31
0.0
  0
LINE
  8
0
 62
     0
 10
1.19338
 20
148.708
 30
0.0
 11
1.33532
 21
148.773
 31
0.0
  0
LINE
  8
0
 62
     0
 10
1.33532
 20
148.773
 30
0.0
 11
1.48139
 21
148.828
 31
0.0
  0
LINE
  8
0
 62
     0
 10
1.48139
 20
148.828
 30
0.0
 11
1.63435
 21
148.871
 31
0.0
  0
LINE
  8
0
 62
     0
 10
1.63435
 20
148.871
 30
0.0
 11
1.78732
 21
148.901
 31
0.0
  0
LINE
  8
0
 62
     0
 10
1.78732
 20
148.901
 30
0.0
 11
1.94441
 21
148.919
 31
0.0
  0
LINE
  8
0
 62
     0
 10
1.94441
 20
148.919
 30
0.0
 11
2.10151
 21
148.926
 31
0.0
  0
LINE
  8
0
 62
     0
 10
2.10151
 20
148.926
 30
0.0
 11
363.763
 21
148.926
 31
0.0
  0
LINE
  8
0
 62
     0
 10
363.763
 20
148.926
 30
0.0
 11
363.922
 21
148.919
 31
0.0
  0
LINE
  8
0
 62
     0
 10
363.922
 20
148.919
 30
0.0
 11
364.077
 21
148.901
 31
0.0
  0
LINE
  8
0
 62
     0
 10
364.077
 20
148.901
 30
0.0
 11
364.229
 21
148.871
 31
0.0
  0
LINE
  8
0
 62
     0
 10
364.229
 20
148.871
 30
0.0
 11
364.381
 21
148.828
 31
0.0
  0
LINE
  8
0
 62
     0
 10
364.381
 20
148.828
 30
0.0
 11
364.529
 21
148.773
 31
0.0
  0
LINE
  8
0
 62
     0
 10
364.529
 20
148.773
 30
0.0
 11
364.67
 21
148.708
 31
0.0
  0
LINE
  8
0
 62
     0
 10
364.67
 20
148.708
 30
0.0
 11
364.811
 21
148.631
 31
0.0
  0
LINE
  8
0
 62
     0
 10
364.811
 20
148.631
 30
0.0
 11
364.942
 21
148.544
 31
0.0
  0
LINE
  8
0
 62
     0
 10
364.942
 20
148.544
 30
0.0
 11
365.061
 21
148.446
 31
0.0
  0
LINE
  8
0
 62
     0
 10
365.061
 20
148.446
 30
0.0
 11
365.178
 21
148.34
 31
0.0
  0
LINE
  8
0
 62
     0
 10
365.178
 20
148.34
 30
0.0
 11
365.284
 21
148.225
 31
0.0
  0
LINE
  8
0
 62
     0
 10
365.284
 20
148.225
 30
0.0
 11
365.383
 21
148.102
 31
0.0
  0
LINE
  8
0
 62
     0
 10
365.383
 20
148.102
 30
0.0
 11
365.471
 21
147.971
 31
0.0
  0
LINE
  8
0
 62
     0
 10
365.471
 20
147.971
 30
0.0
 11
365.548
 21
147.833
 31
0.0
  0
LINE
  8
0
 62
     0
 10
365.548
 20
147.833
 30
0.0
 11
365.612
 21
147.691
 31
0.0
  0
LINE
  8
0
 62
     0
 10
365.612
 20
147.691
 30
0.0
 11
365.668
 21
147.545
 31
0.0
  0
LINE
  8
0
 62
     0
 10
365.668
 20
147.545
 30
0.0
 11
365.711
 21
147.392
 31
0.0
  0
LINE
  8
0
 62
     0
 10
365.711
 20
147.392
 30
0.0
 11
365.739
 21
147.239
 31
0.0
  0
LINE
  8
0
 62
     0
 10
365.739
 20
147.239
 30
0.0
 11
365.756
 21
147.082
 31
0.0
  0
LINE
  8
0
 62
     0
 10
365.756
 20
147.082
 30
0.0
 11
365.764
 21
146.925
 31
0.0
  0
LINE
  8
0
 62
     0
 10
365.764
 20
146.925
 30
0.0
 11
365.764
 21
2.10013
 31
0.0
  0
LINE
  8
0
 62
     0
 10
365.764
 20
2.10013
 30
0.0
 11
365.756
 21
1.94303
 31
0.0
  0
LINE
  8
0
 62
     0
 10
365.756
 20
1.94303
 30
0.0
 11
365.739
 21
1.78732
 31
0.0
  0
LINE
  8
0
 62
     0
 10
365.739
 20
1.78732
 30
0.0
 11
365.711
 21
1.63298
 31
0.0
  0
LINE
  8
0
 62
     0
 10
365.711
 20
1.63298
 30
0.0
 11
365.668
 21
1.48139
 31
0.0
  0
LINE
  8
0
 62
     0
 10
365.668
 20
1.48139
 30
0.0
 11
365.612
 21
1.33394
 31
0.0
  0
LINE
  8
0
 62
     0
 10
365.612
 20
1.33394
 30
0.0
 11
365.548
 21
1.192
 31
0.0
  0
LINE
  8
0
 62
     0
 10
365.548
 20
1.192
 30
0.0
 11
365.471
 21
1.05558
 31
0.0
  0
LINE
  8
0
 62
     0
 10
365.471
 20
1.05558
 30
0.0
 11
365.383
 21
0.924662
 31
0.0
  0
LINE
  8
0
 62
     0
 10
365.383
 20
0.924662
 30
0.0
 11
365.284
 21
0.802019
 31
0.0
  0
LINE
  8
0
 62
     0
 10
365.284
 20
0.802019
 30
0.0
 11
365.178
 21
0.684886
 31
0.0
  0
LINE
  8
0
 62
     0
 10
365.178
 20
0.684886
 30
0.0
 11
365.061
 21
0.580154
 31
0.0
  0
LINE
  8
0
 62
     0
 10
365.061
 20
0.580154
 30
0.0
 11
364.942
 21
0.480935
 31
0.0
  0
LINE
  8
0
 62
     0
 10
364.942
 20
0.480935
 30
0.0
 11
364.811
 21
0.39412
 31
0.0
  0
LINE
  8
0
 62
     0
 10
364.811
 20
0.39412
 30
0.0
 11
364.67
 21
0.316949
 31
0.0
  0
LINE
  8
0
 62
     0
 10
364.67
 20
0.316949
 30
0.0
 11
364.529
 21
0.252181
 31
0.0
  0
LINE
  8
0
 62
     0
 10
364.529
 20
0.252181
 30
0.0
 11
364.381
 21
0.19706
 31
0.0
  0
LINE
  8
0
 62
     0
 10
364.381
 20
0.19706
 30
0.0
 11
364.229
 21
0.155718
 31
0.0
  0
LINE
  8
0
 62
     0
 10
364.229
 20
0.155718
 30
0.0
 11
364.077
 21
0.124024
 31
0.0
  0
LINE
  8
0
 62
     0
 10
364.077
 20
0.124024
 30
0.0
 11
363.922
 21
0.106109
 31
0.0
  0
LINE
  8
0
 62
     0
 10
363.922
 20
0.106109
 30
0.0
 11
363.763
 21
0.0992188
 31
0.0
  0
LINE
  8
0
 62
     0
 10
363.763
 20
0.0992188
 30
0.0
 11
2.10151
 21
0.0992188
 31
0.0
  0
LINE
  8
0
 62
     0
 10
2.10151
 20
0.0992188
 30
0.0
 11
1.94441
 21
0.106109
 31
0.0
  0
LINE
  8
0
 62
     0
 10
1.94441
 20
0.106109
 30
0.0
 11
1.78732
 21
0.124024
 31
0.0
  0
LINE
  8
0
 62
     0
 10
1.78732
 20
0.124024
 30
0.0
 11
1.63435
 21
0.155718
 31
0.0
  0
LINE
  8
0
 62
     0
 10
1.63435
 20
0.155718
 30
0.0
 11
1.48139
 21
0.19706
 31
0.0
  0
LINE
  8
0
 62
     0
 10
1.48139
 20
0.19706
 30
0.0
 11
1.33532
 21
0.252181
 31
0.0
  0
LINE
  8
0
 62
     0
 10
1.33532
 20
0.252181
 30
0.0
 11
1.19338
 21
0.316949
 31
0.0
  0
LINE
  8
0
 62
     0
 10
1.19338
 20
0.316949
 30
0.0
 11
1.05558
 21
0.39412
 31
0.0
  0
LINE
  8
0
 62
     0
 10
1.05558
 20
0.39412
 30
0.0
 11
0.924662
 21
0.480935
 31
0.0
  0
LINE
  8
0
 62
     0
 10
0.924662
 20
0.480935
 30
0.0
 11
0.802019
 21
0.580154
 31
0.0
  0
LINE
  8
0
 62
     0
 10
0.802019
 20
0.580154
 30
0.0
 11
0.686262
 21
0.684886
 31
0.0
  0
LINE
  8
0
 62
     0
 10
0.686262
 20
0.684886
 30
0.0
 11
0.580154
 21
0.802019
 31
0.0
  0
LINE
  8
0
 62
     0
 10
0.580154
 20
0.802019
 30
0.0
 11
0.482314
 21
0.924662
 31
0.0
  0
LINE
  8
0
 62
     0
 10
0.482314
 20
0.924662
 30
0.0
 11
0.395496
 21
1.05558
 31
0.0
  0
LINE
  8
0
 62
     0
 10
0.395496
 20
1.05558
 30
0.0
 11
0.318327
 21
1.192
 31
0.0
  0
LINE
  8
0
 62
     0
 10
0.318327
 20
1.192
 30
0.0
 11
0.253559
 21
1.33394
 31
0.0
  0
ENDSEC
  0
EOF
