  0
SECTION
  2
HEADER
  9
$ACADVER
  1
AC1009
  9
$EXTMIN
 10
0.0
 20
0.0
 30
0.0
  9
$EXTMAX
 10
1000.0
 20
1000.0
 30
0.0
  9
$FILLMODE
 70
 0
  9
$SPLFRAME
 70
 1
  0
ENDSEC
  0
SECTION
  2
TABLES
  0
TABLE
  2
LAYER
 70
1
  0
LAYER
  2
0
 70
     0
 62
     7
  6
CONTINUOUS
  0
ENDTAB
  0
ENDSEC
  0
SECTION
  2
ENTITIES
  0
LINE
  8
0
 62
     0
 10
5.99309
 20
129.483
 30
0.0
 11
5.90215
 21
129.037
 31
0.0
  0
LINE
  8
0
 62
     0
 10
5.90215
 20
129.037
 30
0.0
 11
5.65549
 21
128.671
 31
0.0
  0
LINE
  8
0
 62
     0
 10
5.65549
 20
128.671
 30
0.0
 11
5.28891
 21
128.425
 31
0.0
  0
LINE
  8
0
 62
     0
 10
5.28891
 20
128.425
 30
0.0
 11
4.84244
 21
128.334
 31
0.0
  0
LINE
  8
0
 62
     0
 10
4.84244
 20
128.334
 30
0.0
 11
4.39455
 21
128.425
 31
0.0
  0
LINE
  8
0
 62
     0
 10
4.39455
 20
128.425
 30
0.0
 11
4.02802
 21
128.671
 31
0.0
  0
LINE
  8
0
 62
     0
 10
4.02802
 20
128.671
 30
0.0
 11
3.78135
 21
129.037
 31
0.0
  0
LINE
  8
0
 62
     0
 10
3.78135
 20
129.037
 30
0.0
 11
3.69175
 21
129.483
 31
0.0
  0
LINE
  8
0
 62
     0
 10
3.69175
 20
129.483
 30
0.0
 11
3.78135
 21
129.931
 31
0.0
  0
LINE
  8
0
 62
     0
 10
3.78135
 20
129.931
 30
0.0
 11
4.02802
 21
130.298
 31
0.0
  0
LINE
  8
0
 62
     0
 10
4.02802
 20
130.298
 30
0.0
 11
4.39455
 21
130.544
 31
0.0
  0
LINE
  8
0
 62
     0
 10
4.39455
 20
130.544
 30
0.0
 11
4.84244
 21
130.634
 31
0.0
  0
LINE
  8
0
 62
     0
 10
4.84244
 20
130.634
 30
0.0
 11
5.28891
 21
130.544
 31
0.0
  0
LINE
  8
0
 62
     0
 10
5.28891
 20
130.544
 30
0.0
 11
5.65549
 21
130.298
 31
0.0
  0
LINE
  8
0
 62
     0
 10
5.65549
 20
130.298
 30
0.0
 11
5.90215
 21
129.931
 31
0.0
  0
LINE
  8
0
 62
     0
 10
5.90215
 20
129.931
 30
0.0
 11
5.99309
 21
129.483
 31
0.0
  0
LINE
  8
0
 62
     0
 10
5.99309
 20
129.483
 30
0.0
 11
5.90215
 21
129.037
 31
0.0
  0
LINE
  8
0
 62
     0
 10
5.90215
 20
129.037
 30
0.0
 11
5.65549
 21
128.671
 31
0.0
  0
LINE
  8
0
 62
     0
 10
5.65549
 20
128.671
 30
0.0
 11
5.28891
 21
128.425
 31
0.0
  0
LINE
  8
0
 62
     0
 10
5.28891
 20
128.425
 30
0.0
 11
4.84244
 21
128.334
 31
0.0
  0
LINE
  8
0
 62
     0
 10
4.84244
 20
128.334
 30
0.0
 11
4.39455
 21
128.425
 31
0.0
  0
LINE
  8
0
 62
     0
 10
4.39455
 20
128.425
 30
0.0
 11
4.02802
 21
128.671
 31
0.0
  0
LINE
  8
0
 62
     0
 10
4.02802
 20
128.671
 30
0.0
 11
3.78135
 21
129.037
 31
0.0
  0
LINE
  8
0
 62
     0
 10
3.78135
 20
129.037
 30
0.0
 11
3.69175
 21
129.483
 31
0.0
  0
LINE
  8
0
 62
     0
 10
3.69175
 20
129.483
 30
0.0
 11
3.78135
 21
129.931
 31
0.0
  0
LINE
  8
0
 62
     0
 10
3.78135
 20
129.931
 30
0.0
 11
4.02802
 21
130.298
 31
0.0
  0
LINE
  8
0
 62
     0
 10
4.02802
 20
130.298
 30
0.0
 11
4.39455
 21
130.544
 31
0.0
  0
LINE
  8
0
 62
     0
 10
4.39455
 20
130.544
 30
0.0
 11
4.84244
 21
130.634
 31
0.0
  0
LINE
  8
0
 62
     0
 10
4.84244
 20
130.634
 30
0.0
 11
5.28891
 21
130.544
 31
0.0
  0
LINE
  8
0
 62
     0
 10
5.28891
 20
130.544
 30
0.0
 11
5.65549
 21
130.298
 31
0.0
  0
LINE
  8
0
 62
     0
 10
5.65549
 20
130.298
 30
0.0
 11
5.90215
 21
129.931
 31
0.0
  0
LINE
  8
0
 62
     0
 10
5.90215
 20
129.931
 30
0.0
 11
5.99309
 21
129.483
 31
0.0
  0
LINE
  8
0
 62
     0
 10
5.9986
 20
20.4281
 30
0.0
 11
5.90765
 21
19.9815
 31
0.0
  0
LINE
  8
0
 62
     0
 10
5.90765
 20
19.9815
 30
0.0
 11
5.66099
 21
19.6164
 31
0.0
  0
LINE
  8
0
 62
     0
 10
5.66099
 20
19.6164
 30
0.0
 11
5.29579
 21
19.3697
 31
0.0
  0
LINE
  8
0
 62
     0
 10
5.29579
 20
19.3697
 30
0.0
 11
4.84932
 21
19.2787
 31
0.0
  0
LINE
  8
0
 62
     0
 10
4.84932
 20
19.2787
 30
0.0
 11
4.40147
 21
19.3697
 31
0.0
  0
LINE
  8
0
 62
     0
 10
4.40147
 20
19.3697
 30
0.0
 11
4.0349
 21
19.6164
 31
0.0
  0
LINE
  8
0
 62
     0
 10
4.0349
 20
19.6164
 30
0.0
 11
3.78823
 21
19.9815
 31
0.0
  0
LINE
  8
0
 62
     0
 10
3.78823
 20
19.9815
 30
0.0
 11
3.69866
 21
20.4281
 31
0.0
  0
LINE
  8
0
 62
     0
 10
3.69866
 20
20.4281
 30
0.0
 11
3.78823
 21
20.8759
 31
0.0
  0
LINE
  8
0
 62
     0
 10
3.78823
 20
20.8759
 30
0.0
 11
4.0349
 21
21.2424
 31
0.0
  0
LINE
  8
0
 62
     0
 10
4.0349
 20
21.2424
 30
0.0
 11
4.40147
 21
21.4891
 31
0.0
  0
LINE
  8
0
 62
     0
 10
4.40147
 20
21.4891
 30
0.0
 11
4.84932
 21
21.5787
 31
0.0
  0
LINE
  8
0
 62
     0
 10
4.84932
 20
21.5787
 30
0.0
 11
5.29579
 21
21.4891
 31
0.0
  0
LINE
  8
0
 62
     0
 10
5.29579
 20
21.4891
 30
0.0
 11
5.66099
 21
21.2424
 31
0.0
  0
LINE
  8
0
 62
     0
 10
5.66099
 20
21.2424
 30
0.0
 11
5.90765
 21
20.8759
 31
0.0
  0
LINE
  8
0
 62
     0
 10
5.90765
 20
20.8759
 30
0.0
 11
5.9986
 21
20.4281
 31
0.0
  0
LINE
  8
0
 62
     0
 10
5.9986
 20
20.4281
 30
0.0
 11
5.90765
 21
19.9815
 31
0.0
  0
LINE
  8
0
 62
     0
 10
5.90765
 20
19.9815
 30
0.0
 11
5.66099
 21
19.6164
 31
0.0
  0
LINE
  8
0
 62
     0
 10
5.66099
 20
19.6164
 30
0.0
 11
5.29579
 21
19.3697
 31
0.0
  0
LINE
  8
0
 62
     0
 10
5.29579
 20
19.3697
 30
0.0
 11
4.84932
 21
19.2787
 31
0.0
  0
LINE
  8
0
 62
     0
 10
4.84932
 20
19.2787
 30
0.0
 11
4.40147
 21
19.3697
 31
0.0
  0
LINE
  8
0
 62
     0
 10
4.40147
 20
19.3697
 30
0.0
 11
4.0349
 21
19.6164
 31
0.0
  0
LINE
  8
0
 62
     0
 10
4.0349
 20
19.6164
 30
0.0
 11
3.78823
 21
19.9815
 31
0.0
  0
LINE
  8
0
 62
     0
 10
3.78823
 20
19.9815
 30
0.0
 11
3.69866
 21
20.4281
 31
0.0
  0
LINE
  8
0
 62
     0
 10
3.69866
 20
20.4281
 30
0.0
 11
3.78823
 21
20.8759
 31
0.0
  0
LINE
  8
0
 62
     0
 10
3.78823
 20
20.8759
 30
0.0
 11
4.0349
 21
21.2424
 31
0.0
  0
LINE
  8
0
 62
     0
 10
4.0349
 20
21.2424
 30
0.0
 11
4.40147
 21
21.4891
 31
0.0
  0
LINE
  8
0
 62
     0
 10
4.40147
 20
21.4891
 30
0.0
 11
4.84932
 21
21.5787
 31
0.0
  0
LINE
  8
0
 62
     0
 10
4.84932
 20
21.5787
 30
0.0
 11
5.29579
 21
21.4891
 31
0.0
  0
LINE
  8
0
 62
     0
 10
5.29579
 20
21.4891
 30
0.0
 11
5.66099
 21
21.2424
 31
0.0
  0
LINE
  8
0
 62
     0
 10
5.66099
 20
21.2424
 30
0.0
 11
5.90765
 21
20.8759
 31
0.0
  0
LINE
  8
0
 62
     0
 10
5.90765
 20
20.8759
 30
0.0
 11
5.9986
 21
20.4281
 31
0.0
  0
LINE
  8
0
 62
     0
 10
29.2957
 20
143.196
 30
0.0
 11
29.2048
 21
142.75
 31
0.0
  0
LINE
  8
0
 62
     0
 10
29.2048
 20
142.75
 30
0.0
 11
28.9581
 21
142.383
 31
0.0
  0
LINE
  8
0
 62
     0
 10
28.9581
 20
142.383
 30
0.0
 11
28.5915
 21
142.136
 31
0.0
  0
LINE
  8
0
 62
     0
 10
28.5915
 20
142.136
 30
0.0
 11
28.1451
 21
142.045
 31
0.0
  0
LINE
  8
0
 62
     0
 10
28.1451
 20
142.045
 30
0.0
 11
27.6972
 21
142.136
 31
0.0
  0
LINE
  8
0
 62
     0
 10
27.6972
 20
142.136
 30
0.0
 11
27.332
 21
142.383
 31
0.0
  0
LINE
  8
0
 62
     0
 10
27.332
 20
142.383
 30
0.0
 11
27.0853
 21
142.75
 31
0.0
  0
LINE
  8
0
 62
     0
 10
27.0853
 20
142.75
 30
0.0
 11
26.9958
 21
143.196
 31
0.0
  0
LINE
  8
0
 62
     0
 10
26.9958
 20
143.196
 30
0.0
 11
27.0853
 21
143.644
 31
0.0
  0
LINE
  8
0
 62
     0
 10
27.0853
 20
143.644
 30
0.0
 11
27.332
 21
144.009
 31
0.0
  0
LINE
  8
0
 62
     0
 10
27.332
 20
144.009
 30
0.0
 11
27.6972
 21
144.256
 31
0.0
  0
LINE
  8
0
 62
     0
 10
27.6972
 20
144.256
 30
0.0
 11
28.1451
 21
144.345
 31
0.0
  0
LINE
  8
0
 62
     0
 10
28.1451
 20
144.345
 30
0.0
 11
28.5915
 21
144.256
 31
0.0
  0
LINE
  8
0
 62
     0
 10
28.5915
 20
144.256
 30
0.0
 11
28.9581
 21
144.009
 31
0.0
  0
LINE
  8
0
 62
     0
 10
28.9581
 20
144.009
 30
0.0
 11
29.2048
 21
143.644
 31
0.0
  0
LINE
  8
0
 62
     0
 10
29.2048
 20
143.644
 30
0.0
 11
29.2957
 21
143.196
 31
0.0
  0
LINE
  8
0
 62
     0
 10
29.2957
 20
5.85943
 30
0.0
 11
29.2048
 21
5.41295
 31
0.0
  0
LINE
  8
0
 62
     0
 10
29.2048
 20
5.41295
 30
0.0
 11
28.9581
 21
5.04638
 31
0.0
  0
LINE
  8
0
 62
     0
 10
28.9581
 20
5.04638
 30
0.0
 11
28.5929
 21
4.79972
 31
0.0
  0
LINE
  8
0
 62
     0
 10
28.5929
 20
4.79972
 30
0.0
 11
28.1464
 21
4.70877
 31
0.0
  0
LINE
  8
0
 62
     0
 10
28.1464
 20
4.70877
 30
0.0
 11
27.6986
 21
4.79972
 31
0.0
  0
LINE
  8
0
 62
     0
 10
27.6986
 20
4.79972
 30
0.0
 11
27.332
 21
5.04638
 31
0.0
  0
LINE
  8
0
 62
     0
 10
27.332
 20
5.04638
 30
0.0
 11
27.0853
 21
5.41295
 31
0.0
  0
LINE
  8
0
 62
     0
 10
27.0853
 20
5.41295
 30
0.0
 11
26.9958
 21
5.85943
 31
0.0
  0
LINE
  8
0
 62
     0
 10
26.9958
 20
5.85943
 30
0.0
 11
27.0853
 21
6.30728
 31
0.0
  0
LINE
  8
0
 62
     0
 10
27.0853
 20
6.30728
 30
0.0
 11
27.332
 21
6.67247
 31
0.0
  0
LINE
  8
0
 62
     0
 10
27.332
 20
6.67247
 30
0.0
 11
27.6986
 21
6.91914
 31
0.0
  0
LINE
  8
0
 62
     0
 10
27.6986
 20
6.91914
 30
0.0
 11
28.1464
 21
7.00871
 31
0.0
  0
LINE
  8
0
 62
     0
 10
28.1464
 20
7.00871
 30
0.0
 11
28.5929
 21
6.91914
 31
0.0
  0
LINE
  8
0
 62
     0
 10
28.5929
 20
6.91914
 30
0.0
 11
28.9581
 21
6.67247
 31
0.0
  0
LINE
  8
0
 62
     0
 10
28.9581
 20
6.67247
 30
0.0
 11
29.2048
 21
6.30728
 31
0.0
  0
LINE
  8
0
 62
     0
 10
29.2048
 20
6.30728
 30
0.0
 11
29.2957
 21
5.85943
 31
0.0
  0
LINE
  8
0
 62
     0
 10
29.2957
 20
5.85943
 30
0.0
 11
29.2048
 21
5.41295
 31
0.0
  0
LINE
  8
0
 62
     0
 10
29.2048
 20
5.41295
 30
0.0
 11
28.9581
 21
5.04638
 31
0.0
  0
LINE
  8
0
 62
     0
 10
28.9581
 20
5.04638
 30
0.0
 11
28.5929
 21
4.79972
 31
0.0
  0
LINE
  8
0
 62
     0
 10
28.5929
 20
4.79972
 30
0.0
 11
28.1464
 21
4.70877
 31
0.0
  0
LINE
  8
0
 62
     0
 10
28.1464
 20
4.70877
 30
0.0
 11
27.6986
 21
4.79972
 31
0.0
  0
LINE
  8
0
 62
     0
 10
27.6986
 20
4.79972
 30
0.0
 11
27.332
 21
5.04638
 31
0.0
  0
LINE
  8
0
 62
     0
 10
27.332
 20
5.04638
 30
0.0
 11
27.0853
 21
5.41295
 31
0.0
  0
LINE
  8
0
 62
     0
 10
27.0853
 20
5.41295
 30
0.0
 11
26.9958
 21
5.85943
 31
0.0
  0
LINE
  8
0
 62
     0
 10
26.9958
 20
5.85943
 30
0.0
 11
27.0853
 21
6.30728
 31
0.0
  0
LINE
  8
0
 62
     0
 10
27.0853
 20
6.30728
 30
0.0
 11
27.332
 21
6.67247
 31
0.0
  0
LINE
  8
0
 62
     0
 10
27.332
 20
6.67247
 30
0.0
 11
27.6986
 21
6.91914
 31
0.0
  0
LINE
  8
0
 62
     0
 10
27.6986
 20
6.91914
 30
0.0
 11
28.1464
 21
7.00871
 31
0.0
  0
LINE
  8
0
 62
     0
 10
28.1464
 20
7.00871
 30
0.0
 11
28.5929
 21
6.91914
 31
0.0
  0
LINE
  8
0
 62
     0
 10
28.5929
 20
6.91914
 30
0.0
 11
28.9581
 21
6.67247
 31
0.0
  0
LINE
  8
0
 62
     0
 10
28.9581
 20
6.67247
 30
0.0
 11
29.2048
 21
6.30728
 31
0.0
  0
LINE
  8
0
 62
     0
 10
29.2048
 20
6.30728
 30
0.0
 11
29.2957
 21
5.85943
 31
0.0
  0
LINE
  8
0
 62
     0
 10
362.179
 20
20.4294
 30
0.0
 11
362.088
 21
19.9829
 31
0.0
  0
LINE
  8
0
 62
     0
 10
362.088
 20
19.9829
 30
0.0
 11
361.844
 21
19.6164
 31
0.0
  0
LINE
  8
0
 62
     0
 10
361.844
 20
19.6164
 30
0.0
 11
361.477
 21
19.3697
 31
0.0
  0
LINE
  8
0
 62
     0
 10
361.477
 20
19.3697
 30
0.0
 11
361.029
 21
19.2787
 31
0.0
  0
LINE
  8
0
 62
     0
 10
361.029
 20
19.2787
 30
0.0
 11
360.585
 21
19.3697
 31
0.0
  0
LINE
  8
0
 62
     0
 10
360.585
 20
19.3697
 30
0.0
 11
360.218
 21
19.6164
 31
0.0
  0
LINE
  8
0
 62
     0
 10
360.218
 20
19.6164
 30
0.0
 11
359.971
 21
19.9829
 31
0.0
  0
LINE
  8
0
 62
     0
 10
359.971
 20
19.9829
 30
0.0
 11
359.879
 21
20.4294
 31
0.0
  0
LINE
  8
0
 62
     0
 10
359.879
 20
20.4294
 30
0.0
 11
359.971
 21
20.8773
 31
0.0
  0
LINE
  8
0
 62
     0
 10
359.971
 20
20.8773
 30
0.0
 11
360.218
 21
21.2424
 31
0.0
  0
LINE
  8
0
 62
     0
 10
360.218
 20
21.2424
 30
0.0
 11
360.585
 21
21.4891
 31
0.0
  0
LINE
  8
0
 62
     0
 10
360.585
 20
21.4891
 30
0.0
 11
361.029
 21
21.5787
 31
0.0
  0
LINE
  8
0
 62
     0
 10
361.029
 20
21.5787
 30
0.0
 11
361.477
 21
21.4891
 31
0.0
  0
LINE
  8
0
 62
     0
 10
361.477
 20
21.4891
 30
0.0
 11
361.844
 21
21.2424
 31
0.0
  0
LINE
  8
0
 62
     0
 10
361.844
 20
21.2424
 30
0.0
 11
362.088
 21
20.8773
 31
0.0
  0
LINE
  8
0
 62
     0
 10
362.088
 20
20.8773
 30
0.0
 11
362.179
 21
20.4294
 31
0.0
  0
LINE
  8
0
 62
     0
 10
129.472
 20
143.202
 30
0.0
 11
129.381
 21
142.755
 31
0.0
  0
LINE
  8
0
 62
     0
 10
129.381
 20
142.755
 30
0.0
 11
129.135
 21
142.389
 31
0.0
  0
LINE
  8
0
 62
     0
 10
129.135
 20
142.389
 30
0.0
 11
128.768
 21
142.142
 31
0.0
  0
LINE
  8
0
 62
     0
 10
128.768
 20
142.142
 30
0.0
 11
128.322
 21
142.051
 31
0.0
  0
LINE
  8
0
 62
     0
 10
128.322
 20
142.051
 30
0.0
 11
127.874
 21
142.142
 31
0.0
  0
LINE
  8
0
 62
     0
 10
127.874
 20
142.142
 30
0.0
 11
127.508
 21
142.389
 31
0.0
  0
LINE
  8
0
 62
     0
 10
127.508
 20
142.389
 30
0.0
 11
127.262
 21
142.755
 31
0.0
  0
LINE
  8
0
 62
     0
 10
127.262
 20
142.755
 30
0.0
 11
127.172
 21
143.202
 31
0.0
  0
LINE
  8
0
 62
     0
 10
127.172
 20
143.202
 30
0.0
 11
127.262
 21
143.649
 31
0.0
  0
LINE
  8
0
 62
     0
 10
127.262
 20
143.649
 30
0.0
 11
127.508
 21
144.014
 31
0.0
  0
LINE
  8
0
 62
     0
 10
127.508
 20
144.014
 30
0.0
 11
127.874
 21
144.261
 31
0.0
  0
LINE
  8
0
 62
     0
 10
127.874
 20
144.261
 30
0.0
 11
128.322
 21
144.351
 31
0.0
  0
LINE
  8
0
 62
     0
 10
128.322
 20
144.351
 30
0.0
 11
128.768
 21
144.261
 31
0.0
  0
LINE
  8
0
 62
     0
 10
128.768
 20
144.261
 30
0.0
 11
129.135
 21
144.014
 31
0.0
  0
LINE
  8
0
 62
     0
 10
129.135
 20
144.014
 30
0.0
 11
129.381
 21
143.649
 31
0.0
  0
LINE
  8
0
 62
     0
 10
129.381
 20
143.649
 30
0.0
 11
129.472
 21
143.202
 31
0.0
  0
LINE
  8
0
 62
     0
 10
276.863
 20
143.206
 30
0.0
 11
276.772
 21
142.759
 31
0.0
  0
LINE
  8
0
 62
     0
 10
276.772
 20
142.759
 30
0.0
 11
276.526
 21
142.393
 31
0.0
  0
LINE
  8
0
 62
     0
 10
276.526
 20
142.393
 30
0.0
 11
276.16
 21
142.146
 31
0.0
  0
LINE
  8
0
 62
     0
 10
276.16
 20
142.146
 30
0.0
 11
275.714
 21
142.055
 31
0.0
  0
LINE
  8
0
 62
     0
 10
275.714
 20
142.055
 30
0.0
 11
275.266
 21
142.146
 31
0.0
  0
LINE
  8
0
 62
     0
 10
275.266
 20
142.146
 30
0.0
 11
274.899
 21
142.393
 31
0.0
  0
LINE
  8
0
 62
     0
 10
274.899
 20
142.393
 30
0.0
 11
274.653
 21
142.759
 31
0.0
  0
LINE
  8
0
 62
     0
 10
274.653
 20
142.759
 30
0.0
 11
274.563
 21
143.206
 31
0.0
  0
LINE
  8
0
 62
     0
 10
274.563
 20
143.206
 30
0.0
 11
274.653
 21
143.654
 31
0.0
  0
LINE
  8
0
 62
     0
 10
274.653
 20
143.654
 30
0.0
 11
274.899
 21
144.019
 31
0.0
  0
LINE
  8
0
 62
     0
 10
274.899
 20
144.019
 30
0.0
 11
275.266
 21
144.265
 31
0.0
  0
LINE
  8
0
 62
     0
 10
275.266
 20
144.265
 30
0.0
 11
275.714
 21
144.355
 31
0.0
  0
LINE
  8
0
 62
     0
 10
275.714
 20
144.355
 30
0.0
 11
276.16
 21
144.265
 31
0.0
  0
LINE
  8
0
 62
     0
 10
276.16
 20
144.265
 30
0.0
 11
276.526
 21
144.019
 31
0.0
  0
LINE
  8
0
 62
     0
 10
276.526
 20
144.019
 30
0.0
 11
276.772
 21
143.654
 31
0.0
  0
LINE
  8
0
 62
     0
 10
276.772
 20
143.654
 30
0.0
 11
276.863
 21
143.206
 31
0.0
  0
LINE
  8
0
 62
     0
 10
338.843
 20
143.207
 30
0.0
 11
338.752
 21
142.761
 31
0.0
  0
LINE
  8
0
 62
     0
 10
338.752
 20
142.761
 30
0.0
 11
338.505
 21
142.396
 31
0.0
  0
LINE
  8
0
 62
     0
 10
338.505
 20
142.396
 30
0.0
 11
338.14
 21
142.149
 31
0.0
  0
LINE
  8
0
 62
     0
 10
338.14
 20
142.149
 30
0.0
 11
337.694
 21
142.058
 31
0.0
  0
LINE
  8
0
 62
     0
 10
337.694
 20
142.058
 30
0.0
 11
337.246
 21
142.149
 31
0.0
  0
LINE
  8
0
 62
     0
 10
337.246
 20
142.149
 30
0.0
 11
336.88
 21
142.396
 31
0.0
  0
LINE
  8
0
 62
     0
 10
336.88
 20
142.396
 30
0.0
 11
336.633
 21
142.761
 31
0.0
  0
LINE
  8
0
 62
     0
 10
336.633
 20
142.761
 30
0.0
 11
336.543
 21
143.207
 31
0.0
  0
LINE
  8
0
 62
     0
 10
336.543
 20
143.207
 30
0.0
 11
336.633
 21
143.655
 31
0.0
  0
LINE
  8
0
 62
     0
 10
336.633
 20
143.655
 30
0.0
 11
336.88
 21
144.022
 31
0.0
  0
LINE
  8
0
 62
     0
 10
336.88
 20
144.022
 30
0.0
 11
337.246
 21
144.268
 31
0.0
  0
LINE
  8
0
 62
     0
 10
337.246
 20
144.268
 30
0.0
 11
337.694
 21
144.358
 31
0.0
  0
LINE
  8
0
 62
     0
 10
337.694
 20
144.358
 30
0.0
 11
338.14
 21
144.268
 31
0.0
  0
LINE
  8
0
 62
     0
 10
338.14
 20
144.268
 30
0.0
 11
338.505
 21
144.022
 31
0.0
  0
LINE
  8
0
 62
     0
 10
338.505
 20
144.022
 30
0.0
 11
338.752
 21
143.655
 31
0.0
  0
LINE
  8
0
 62
     0
 10
338.752
 20
143.655
 30
0.0
 11
338.843
 21
143.207
 31
0.0
  0
LINE
  8
0
 62
     0
 10
129.464
 20
5.85805
 30
0.0
 11
129.373
 21
5.41154
 31
0.0
  0
LINE
  8
0
 62
     0
 10
129.373
 20
5.41154
 30
0.0
 11
129.126
 21
5.04638
 31
0.0
  0
LINE
  8
0
 62
     0
 10
129.126
 20
5.04638
 30
0.0
 11
128.76
 21
4.79972
 31
0.0
  0
LINE
  8
0
 62
     0
 10
128.76
 20
4.79972
 30
0.0
 11
128.313
 21
4.70877
 31
0.0
  0
LINE
  8
0
 62
     0
 10
128.313
 20
4.70877
 30
0.0
 11
127.865
 21
4.79972
 31
0.0
  0
LINE
  8
0
 62
     0
 10
127.865
 20
4.79972
 30
0.0
 11
127.5
 21
5.04638
 31
0.0
  0
LINE
  8
0
 62
     0
 10
127.5
 20
5.04638
 30
0.0
 11
127.254
 21
5.41154
 31
0.0
  0
LINE
  8
0
 62
     0
 10
127.254
 20
5.41154
 30
0.0
 11
127.164
 21
5.85805
 31
0.0
  0
LINE
  8
0
 62
     0
 10
127.164
 20
5.85805
 30
0.0
 11
127.254
 21
6.3059
 31
0.0
  0
LINE
  8
0
 62
     0
 10
127.254
 20
6.3059
 30
0.0
 11
127.5
 21
6.67247
 31
0.0
  0
LINE
  8
0
 62
     0
 10
127.5
 20
6.67247
 30
0.0
 11
127.865
 21
6.91914
 31
0.0
  0
LINE
  8
0
 62
     0
 10
127.865
 20
6.91914
 30
0.0
 11
128.313
 21
7.00871
 31
0.0
  0
LINE
  8
0
 62
     0
 10
128.313
 20
7.00871
 30
0.0
 11
128.76
 21
6.91914
 31
0.0
  0
LINE
  8
0
 62
     0
 10
128.76
 20
6.91914
 30
0.0
 11
129.126
 21
6.67247
 31
0.0
  0
LINE
  8
0
 62
     0
 10
129.126
 20
6.67247
 30
0.0
 11
129.373
 21
6.3059
 31
0.0
  0
LINE
  8
0
 62
     0
 10
129.373
 20
6.3059
 30
0.0
 11
129.464
 21
5.85805
 31
0.0
  0
LINE
  8
0
 62
     0
 10
248.141
 20
5.8608
 30
0.0
 11
248.05
 21
5.41433
 31
0.0
  0
LINE
  8
0
 62
     0
 10
248.05
 20
5.41433
 30
0.0
 11
247.803
 21
5.04776
 31
0.0
  0
LINE
  8
0
 62
     0
 10
247.803
 20
5.04776
 30
0.0
 11
247.438
 21
4.80109
 31
0.0
  0
LINE
  8
0
 62
     0
 10
247.438
 20
4.80109
 30
0.0
 11
246.991
 21
4.71015
 31
0.0
  0
LINE
  8
0
 62
     0
 10
246.991
 20
4.71015
 30
0.0
 11
246.543
 21
4.80109
 31
0.0
  0
LINE
  8
0
 62
     0
 10
246.543
 20
4.80109
 30
0.0
 11
246.177
 21
5.04776
 31
0.0
  0
LINE
  8
0
 62
     0
 10
246.177
 20
5.04776
 30
0.0
 11
245.93
 21
5.41433
 31
0.0
  0
LINE
  8
0
 62
     0
 10
245.93
 20
5.41433
 30
0.0
 11
245.841
 21
5.8608
 31
0.0
  0
LINE
  8
0
 62
     0
 10
245.841
 20
5.8608
 30
0.0
 11
245.93
 21
6.30865
 31
0.0
  0
LINE
  8
0
 62
     0
 10
245.93
 20
6.30865
 30
0.0
 11
246.177
 21
6.67385
 31
0.0
  0
LINE
  8
0
 62
     0
 10
246.177
 20
6.67385
 30
0.0
 11
246.543
 21
6.92051
 31
0.0
  0
LINE
  8
0
 62
     0
 10
246.543
 20
6.92051
 30
0.0
 11
246.991
 21
7.01008
 31
0.0
  0
LINE
  8
0
 62
     0
 10
246.991
 20
7.01008
 30
0.0
 11
247.438
 21
6.92051
 31
0.0
  0
LINE
  8
0
 62
     0
 10
247.438
 20
6.92051
 30
0.0
 11
247.803
 21
6.67385
 31
0.0
  0
LINE
  8
0
 62
     0
 10
247.803
 20
6.67385
 30
0.0
 11
248.05
 21
6.30865
 31
0.0
  0
LINE
  8
0
 62
     0
 10
248.05
 20
6.30865
 30
0.0
 11
248.141
 21
5.8608
 31
0.0
  0
LINE
  8
0
 62
     0
 10
338.843
 20
5.85805
 30
0.0
 11
338.752
 21
5.41154
 31
0.0
  0
LINE
  8
0
 62
     0
 10
338.752
 20
5.41154
 30
0.0
 11
338.505
 21
5.04638
 31
0.0
  0
LINE
  8
0
 62
     0
 10
338.505
 20
5.04638
 30
0.0
 11
338.14
 21
4.79972
 31
0.0
  0
LINE
  8
0
 62
     0
 10
338.14
 20
4.79972
 30
0.0
 11
337.694
 21
4.70877
 31
0.0
  0
LINE
  8
0
 62
     0
 10
337.694
 20
4.70877
 30
0.0
 11
337.246
 21
4.79972
 31
0.0
  0
LINE
  8
0
 62
     0
 10
337.246
 20
4.79972
 30
0.0
 11
336.88
 21
5.04638
 31
0.0
  0
LINE
  8
0
 62
     0
 10
336.88
 20
5.04638
 30
0.0
 11
336.633
 21
5.41154
 31
0.0
  0
LINE
  8
0
 62
     0
 10
336.633
 20
5.41154
 30
0.0
 11
336.543
 21
5.85805
 31
0.0
  0
LINE
  8
0
 62
     0
 10
336.543
 20
5.85805
 30
0.0
 11
336.633
 21
6.3059
 31
0.0
  0
LINE
  8
0
 62
     0
 10
336.633
 20
6.3059
 30
0.0
 11
336.88
 21
6.67247
 31
0.0
  0
LINE
  8
0
 62
     0
 10
336.88
 20
6.67247
 30
0.0
 11
337.246
 21
6.91914
 31
0.0
  0
LINE
  8
0
 62
     0
 10
337.246
 20
6.91914
 30
0.0
 11
337.694
 21
7.00871
 31
0.0
  0
LINE
  8
0
 62
     0
 10
337.694
 20
7.00871
 30
0.0
 11
338.14
 21
6.91914
 31
0.0
  0
LINE
  8
0
 62
     0
 10
338.14
 20
6.91914
 30
0.0
 11
338.505
 21
6.67247
 31
0.0
  0
LINE
  8
0
 62
     0
 10
338.505
 20
6.67247
 30
0.0
 11
338.752
 21
6.3059
 31
0.0
  0
LINE
  8
0
 62
     0
 10
338.752
 20
6.3059
 30
0.0
 11
338.843
 21
5.85805
 31
0.0
  0
LINE
  8
0
 62
     0
 10
362.176
 20
129.485
 30
0.0
 11
362.088
 21
129.038
 31
0.0
  0
LINE
  8
0
 62
     0
 10
362.088
 20
129.038
 30
0.0
 11
361.841
 21
128.671
 31
0.0
  0
LINE
  8
0
 62
     0
 10
361.841
 20
128.671
 30
0.0
 11
361.474
 21
128.425
 31
0.0
  0
LINE
  8
0
 62
     0
 10
361.474
 20
128.425
 30
0.0
 11
361.026
 21
128.334
 31
0.0
  0
LINE
  8
0
 62
     0
 10
361.026
 20
128.334
 30
0.0
 11
360.578
 21
128.425
 31
0.0
  0
LINE
  8
0
 62
     0
 10
360.578
 20
128.425
 30
0.0
 11
360.211
 21
128.671
 31
0.0
  0
LINE
  8
0
 62
     0
 10
360.211
 20
128.671
 30
0.0
 11
359.967
 21
129.038
 31
0.0
  0
LINE
  8
0
 62
     0
 10
359.967
 20
129.038
 30
0.0
 11
359.876
 21
129.485
 31
0.0
  0
LINE
  8
0
 62
     0
 10
359.876
 20
129.485
 30
0.0
 11
359.967
 21
129.933
 31
0.0
  0
LINE
  8
0
 62
     0
 10
359.967
 20
129.933
 30
0.0
 11
360.211
 21
130.298
 31
0.0
  0
LINE
  8
0
 62
     0
 10
360.211
 20
130.298
 30
0.0
 11
360.578
 21
130.544
 31
0.0
  0
LINE
  8
0
 62
     0
 10
360.578
 20
130.544
 30
0.0
 11
361.026
 21
130.634
 31
0.0
  0
LINE
  8
0
 62
     0
 10
361.026
 20
130.634
 30
0.0
 11
361.474
 21
130.544
 31
0.0
  0
LINE
  8
0
 62
     0
 10
361.474
 20
130.544
 30
0.0
 11
361.841
 21
130.298
 31
0.0
  0
LINE
  8
0
 62
     0
 10
361.841
 20
130.298
 30
0.0
 11
362.088
 21
129.933
 31
0.0
  0
LINE
  8
0
 62
     0
 10
362.088
 20
129.933
 30
0.0
 11
362.176
 21
129.485
 31
0.0
  0
LINE
  8
0
 62
     0
 10
0.198438
 20
147.545
 30
0.0
 11
0.253559
 21
147.691
 31
0.0
  0
LINE
  8
0
 62
     0
 10
0.253559
 20
147.691
 30
0.0
 11
0.318327
 21
147.833
 31
0.0
  0
LINE
  8
0
 62
     0
 10
0.318327
 20
147.833
 30
0.0
 11
0.395496
 21
147.971
 31
0.0
  0
LINE
  8
0
 62
     0
 10
0.395496
 20
147.971
 30
0.0
 11
0.482314
 21
148.102
 31
0.0
  0
LINE
  8
0
 62
     0
 10
0.482314
 20
148.102
 30
0.0
 11
0.580154
 21
148.225
 31
0.0
  0
LINE
  8
0
 62
     0
 10
0.580154
 20
148.225
 30
0.0
 11
0.686262
 21
148.34
 31
0.0
  0
LINE
  8
0
 62
     0
 10
0.686262
 20
148.34
 30
0.0
 11
0.802019
 21
148.446
 31
0.0
  0
LINE
  8
0
 62
     0
 10
0.802019
 20
148.446
 30
0.0
 11
0.924662
 21
148.544
 31
0.0
  0
LINE
  8
0
 62
     0
 10
0.924662
 20
148.544
 30
0.0
 11
1.05558
 21
148.631
 31
0.0
  0
LINE
  8
0
 62
     0
 10
1.05558
 20
148.631
 30
0.0
 11
1.19338
 21
148.708
 31
0.0
  0
LINE
  8
0
 62
     0
 10
1.19338
 20
148.708
 30
0.0
 11
1.33532
 21
148.773
 31
0.0
  0
LINE
  8
0
 62
     0
 10
1.33532
 20
148.773
 30
0.0
 11
1.48139
 21
148.828
 31
0.0
  0
LINE
  8
0
 62
     0
 10
1.48139
 20
148.828
 30
0.0
 11
1.63435
 21
148.871
 31
0.0
  0
LINE
  8
0
 62
     0
 10
1.63435
 20
148.871
 30
0.0
 11
1.78732
 21
148.901
 31
0.0
  0
LINE
  8
0
 62
     0
 10
1.78732
 20
148.901
 30
0.0
 11
1.94441
 21
148.919
 31
0.0
  0
LINE
  8
0
 62
     0
 10
1.94441
 20
148.919
 30
0.0
 11
2.10151
 21
148.926
 31
0.0
  0
LINE
  8
0
 62
     0
 10
2.10151
 20
148.926
 30
0.0
 11
363.763
 21
148.926
 31
0.0
  0
LINE
  8
0
 62
     0
 10
363.763
 20
148.926
 30
0.0
 11
363.922
 21
148.919
 31
0.0
  0
LINE
  8
0
 62
     0
 10
363.922
 20
148.919
 30
0.0
 11
364.077
 21
148.901
 31
0.0
  0
LINE
  8
0
 62
     0
 10
364.077
 20
148.901
 30
0.0
 11
364.229
 21
148.871
 31
0.0
  0
LINE
  8
0
 62
     0
 10
364.229
 20
148.871
 30
0.0
 11
364.381
 21
148.828
 31
0.0
  0
LINE
  8
0
 62
     0
 10
364.381
 20
148.828
 30
0.0
 11
364.529
 21
148.773
 31
0.0
  0
LINE
  8
0
 62
     0
 10
364.529
 20
148.773
 30
0.0
 11
364.67
 21
148.708
 31
0.0
  0
LINE
  8
0
 62
     0
 10
364.67
 20
148.708
 30
0.0
 11
364.811
 21
148.631
 31
0.0
  0
LINE
  8
0
 62
     0
 10
364.811
 20
148.631
 30
0.0
 11
364.942
 21
148.544
 31
0.0
  0
LINE
  8
0
 62
     0
 10
364.942
 20
148.544
 30
0.0
 11
365.061
 21
148.446
 31
0.0
  0
LINE
  8
0
 62
     0
 10
365.061
 20
148.446
 30
0.0
 11
365.178
 21
148.34
 31
0.0
  0
LINE
  8
0
 62
     0
 10
365.178
 20
148.34
 30
0.0
 11
365.284
 21
148.225
 31
0.0
  0
LINE
  8
0
 62
     0
 10
365.284
 20
148.225
 30
0.0
 11
365.383
 21
148.102
 31
0.0
  0
LINE
  8
0
 62
     0
 10
365.383
 20
148.102
 30
0.0
 11
365.471
 21
147.971
 31
0.0
  0
LINE
  8
0
 62
     0
 10
365.471
 20
147.971
 30
0.0
 11
365.548
 21
147.833
 31
0.0
  0
LINE
  8
0
 62
     0
 10
365.548
 20
147.833
 30
0.0
 11
365.612
 21
147.691
 31
0.0
  0
LINE
  8
0
 62
     0
 10
365.612
 20
147.691
 30
0.0
 11
365.668
 21
147.545
 31
0.0
  0
LINE
  8
0
 62
     0
 10
365.668
 20
147.545
 30
0.0
 11
365.711
 21
147.392
 31
0.0
  0
LINE
  8
0
 62
     0
 10
365.711
 20
147.392
 30
0.0
 11
365.739
 21
147.239
 31
0.0
  0
LINE
  8
0
 62
     0
 10
365.739
 20
147.239
 30
0.0
 11
365.756
 21
147.082
 31
0.0
  0
LINE
  8
0
 62
     0
 10
365.756
 20
147.082
 30
0.0
 11
365.764
 21
146.925
 31
0.0
  0
LINE
  8
0
 62
     0
 10
365.764
 20
146.925
 30
0.0
 11
365.764
 21
2.10013
 31
0.0
  0
LINE
  8
0
 62
     0
 10
365.764
 20
2.10013
 30
0.0
 11
365.756
 21
1.94303
 31
0.0
  0
LINE
  8
0
 62
     0
 10
365.756
 20
1.94303
 30
0.0
 11
365.739
 21
1.78732
 31
0.0
  0
LINE
  8
0
 62
     0
 10
365.739
 20
1.78732
 30
0.0
 11
365.711
 21
1.63298
 31
0.0
  0
LINE
  8
0
 62
     0
 10
365.711
 20
1.63298
 30
0.0
 11
365.668
 21
1.48139
 31
0.0
  0
LINE
  8
0
 62
     0
 10
365.668
 20
1.48139
 30
0.0
 11
365.612
 21
1.33394
 31
0.0
  0
LINE
  8
0
 62
     0
 10
365.612
 20
1.33394
 30
0.0
 11
365.548
 21
1.192
 31
0.0
  0
LINE
  8
0
 62
     0
 10
365.548
 20
1.192
 30
0.0
 11
365.471
 21
1.05558
 31
0.0
  0
LINE
  8
0
 62
     0
 10
365.471
 20
1.05558
 30
0.0
 11
365.383
 21
0.924662
 31
0.0
  0
LINE
  8
0
 62
     0
 10
365.383
 20
0.924662
 30
0.0
 11
365.284
 21
0.802019
 31
0.0
  0
LINE
  8
0
 62
     0
 10
365.284
 20
0.802019
 30
0.0
 11
365.178
 21
0.684886
 31
0.0
  0
LINE
  8
0
 62
     0
 10
365.178
 20
0.684886
 30
0.0
 11
365.061
 21
0.580154
 31
0.0
  0
LINE
  8
0
 62
     0
 10
365.061
 20
0.580154
 30
0.0
 11
364.942
 21
0.480935
 31
0.0
  0
LINE
  8
0
 62
     0
 10
364.942
 20
0.480935
 30
0.0
 11
364.811
 21
0.39412
 31
0.0
  0
LINE
  8
0
 62
     0
 10
364.811
 20
0.39412
 30
0.0
 11
364.67
 21
0.316949
 31
0.0
  0
LINE
  8
0
 62
     0
 10
364.67
 20
0.316949
 30
0.0
 11
364.529
 21
0.252181
 31
0.0
  0
LINE
  8
0
 62
     0
 10
364.529
 20
0.252181
 30
0.0
 11
364.381
 21
0.19706
 31
0.0
  0
LINE
  8
0
 62
     0
 10
364.381
 20
0.19706
 30
0.0
 11
364.229
 21
0.155718
 31
0.0
  0
LINE
  8
0
 62
     0
 10
364.229
 20
0.155718
 30
0.0
 11
364.077
 21
0.124024
 31
0.0
  0
LINE
  8
0
 62
     0
 10
364.077
 20
0.124024
 30
0.0
 11
363.922
 21
0.106109
 31
0.0
  0
LINE
  8
0
 62
     0
 10
363.922
 20
0.106109
 30
0.0
 11
363.763
 21
0.0992188
 31
0.0
  0
LINE
  8
0
 62
     0
 10
363.763
 20
0.0992188
 30
0.0
 11
2.10151
 21
0.0992188
 31
0.0
  0
LINE
  8
0
 62
     0
 10
2.10151
 20
0.0992188
 30
0.0
 11
1.94441
 21
0.106109
 31
0.0
  0
LINE
  8
0
 62
     0
 10
1.94441
 20
0.106109
 30
0.0
 11
1.78732
 21
0.124024
 31
0.0
  0
LINE
  8
0
 62
     0
 10
1.78732
 20
0.124024
 30
0.0
 11
1.63435
 21
0.155718
 31
0.0
  0
LINE
  8
0
 62
     0
 10
1.63435
 20
0.155718
 30
0.0
 11
1.48139
 21
0.19706
 31
0.0
  0
LINE
  8
0
 62
     0
 10
1.48139
 20
0.19706
 30
0.0
 11
1.33532
 21
0.252181
 31
0.0
  0
LINE
  8
0
 62
     0
 10
1.33532
 20
0.252181
 30
0.0
 11
1.19338
 21
0.316949
 31
0.0
  0
LINE
  8
0
 62
     0
 10
1.19338
 20
0.316949
 30
0.0
 11
1.05558
 21
0.39412
 31
0.0
  0
LINE
  8
0
 62
     0
 10
1.05558
 20
0.39412
 30
0.0
 11
0.924662
 21
0.480935
 31
0.0
  0
LINE
  8
0
 62
     0
 10
0.924662
 20
0.480935
 30
0.0
 11
0.802019
 21
0.580154
 31
0.0
  0
LINE
  8
0
 62
     0
 10
0.802019
 20
0.580154
 30
0.0
 11
0.686262
 21
0.684886
 31
0.0
  0
LINE
  8
0
 62
     0
 10
0.686262
 20
0.684886
 30
0.0
 11
0.580154
 21
0.802019
 31
0.0
  0
LINE
  8
0
 62
     0
 10
0.580154
 20
0.802019
 30
0.0
 11
0.482314
 21
0.924662
 31
0.0
  0
LINE
  8
0
 62
     0
 10
0.482314
 20
0.924662
 30
0.0
 11
0.395496
 21
1.05558
 31
0.0
  0
LINE
  8
0
 62
     0
 10
0.395496
 20
1.05558
 30
0.0
 11
0.318327
 21
1.192
 31
0.0
  0
LINE
  8
0
 62
     0
 10
0.318327
 20
1.192
 30
0.0
 11
0.253559
 21
1.33394
 31
0.0
  0
LINE
  8
0
 62
     0
 10
0.253559
 20
1.33394
 30
0.0
 11
0.198438
 21
1.48139
 31
0.0
  0
LINE
  8
0
 62
     0
 10
0.198438
 20
1.48139
 30
0.0
 11
0.155718
 21
1.63298
 31
0.0
  0
LINE
  8
0
 62
     0
 10
0.155718
 20
1.63298
 30
0.0
 11
0.125402
 21
1.78732
 31
0.0
  0
LINE
  8
0
 62
     0
 10
0.125402
 20
1.78732
 30
0.0
 11
0.107487
 21
1.94303
 31
0.0
  0
LINE
  8
0
 62
     0
 10
0.107487
 20
1.94303
 30
0.0
 11
0.100597
 21
2.10013
 31
0.0
  0
LINE
  8
0
 62
     0
 10
0.100597
 20
2.10013
 30
0.0
 11
0.100597
 21
146.925
 31
0.0
  0
LINE
  8
0
 62
     0
 10
0.100597
 20
146.925
 30
0.0
 11
0.107487
 21
147.082
 31
0.0
  0
LINE
  8
0
 62
     0
 10
0.107487
 20
147.082
 30
0.0
 11
0.125402
 21
147.239
 31
0.0
  0
LINE
  8
0
 62
     0
 10
0.125402
 20
147.239
 30
0.0
 11
0.155718
 21
147.392
 31
0.0
  0
LINE
  8
0
 62
     0
 10
0.155718
 20
147.392
 30
0.0
 11
0.198438
 21
147.545
 31
0.0
  0
LINE
  8
0
 62
     0
 10
8.1001
 20
86.8976
 30
0.0
 11
8.1001
 21
9.10195
 31
0.0
  0
LINE
  8
0
 62
     0
 10
8.1001
 20
9.10195
 30
0.0
 11
295.851
 21
9.10195
 31
0.0
  0
LINE
  8
0
 62
     0
 10
295.851
 20
9.10195
 30
0.0
 11
295.851
 21
106.35
 31
0.0
  0
LINE
  8
0
 62
     0
 10
295.851
 20
106.35
 30
0.0
 11
8.1001
 21
106.35
 31
0.0
  0
LINE
  8
0
 62
     0
 10
8.1001
 20
106.35
 30
0.0
 11
8.1001
 21
86.8976
 31
0.0
  0
LINE
  8
0
 62
     0
 10
298.615
 20
9.1047
 30
0.0
 11
357.763
 21
9.1047
 31
0.0
  0
LINE
  8
0
 62
     0
 10
357.763
 20
9.1047
 30
0.0
 11
357.763
 21
30.1515
 31
0.0
  0
LINE
  8
0
 62
     0
 10
357.763
 20
30.1515
 30
0.0
 11
338.61
 21
30.1515
 31
0.0
  0
LINE
  8
0
 62
     0
 10
338.61
 20
30.1515
 30
0.0
 11
338.61
 21
49.1959
 31
0.0
  0
LINE
  8
0
 62
     0
 10
338.61
 20
49.1959
 30
0.0
 11
317.766
 21
49.1959
 31
0.0
  0
LINE
  8
0
 62
     0
 10
317.766
 20
49.1959
 30
0.0
 11
317.766
 21
30.1515
 31
0.0
  0
LINE
  8
0
 62
     0
 10
317.766
 20
30.1515
 30
0.0
 11
298.615
 21
30.1515
 31
0.0
  0
LINE
  8
0
 62
     0
 10
298.615
 20
30.1515
 30
0.0
 11
298.615
 21
9.1047
 31
0.0
  0
LINE
  8
0
 62
     0
 10
298.615
 20
106.346
 30
0.0
 11
357.763
 21
106.346
 31
0.0
  0
LINE
  8
0
 62
     0
 10
357.763
 20
106.346
 30
0.0
 11
357.763
 21
66.2548
 31
0.0
  0
LINE
  8
0
 62
     0
 10
357.763
 20
66.2548
 30
0.0
 11
298.615
 21
66.2548
 31
0.0
  0
LINE
  8
0
 62
     0
 10
298.615
 20
66.2548
 30
0.0
 11
298.615
 21
106.346
 31
0.0
  0
LINE
  8
0
 62
     0
 10
8.10426
 20
134.917
 30
0.0
 11
48.1969
 21
134.917
 31
0.0
  0
LINE
  8
0
 62
     0
 10
48.1969
 20
134.917
 30
0.0
 11
48.1969
 21
113.885
 31
0.0
  0
LINE
  8
0
 62
     0
 10
48.1969
 20
113.885
 30
0.0
 11
8.10426
 21
113.885
 31
0.0
  0
LINE
  8
0
 62
     0
 10
8.10426
 20
113.885
 30
0.0
 11
8.10426
 21
134.917
 31
0.0
  0
LINE
  8
0
 62
     0
 10
55.728
 20
134.927
 30
0.0
 11
133.925
 21
134.927
 31
0.0
  0
LINE
  8
0
 62
     0
 10
133.925
 20
134.927
 30
0.0
 11
133.925
 21
113.874
 31
0.0
  0
LINE
  8
0
 62
     0
 10
133.925
 20
113.874
 30
0.0
 11
55.728
 21
113.874
 31
0.0
  0
LINE
  8
0
 62
     0
 10
55.728
 20
113.874
 30
0.0
 11
55.728
 21
134.927
 31
0.0
  0
LINE
  8
0
 62
     0
 10
136.689
 20
134.927
 30
0.0
 11
214.886
 21
134.927
 31
0.0
  0
LINE
  8
0
 62
     0
 10
214.886
 20
134.927
 30
0.0
 11
214.886
 21
113.874
 31
0.0
  0
LINE
  8
0
 62
     0
 10
214.886
 20
113.874
 30
0.0
 11
136.689
 21
113.874
 31
0.0
  0
LINE
  8
0
 62
     0
 10
136.689
 20
113.874
 30
0.0
 11
136.689
 21
134.927
 31
0.0
  0
LINE
  8
0
 62
     0
 10
217.653
 20
134.927
 30
0.0
 11
295.85
 21
134.927
 31
0.0
  0
LINE
  8
0
 62
     0
 10
295.85
 20
134.927
 30
0.0
 11
295.85
 21
113.874
 31
0.0
  0
LINE
  8
0
 62
     0
 10
295.85
 20
113.874
 30
0.0
 11
217.653
 21
113.874
 31
0.0
  0
LINE
  8
0
 62
     0
 10
217.653
 20
113.874
 30
0.0
 11
217.653
 21
134.927
 31
0.0
  0
LINE
  8
0
 62
     0
 10
298.615
 20
134.927
 30
0.0
 11
357.759
 21
134.927
 31
0.0
  0
LINE
  8
0
 62
     0
 10
357.759
 20
134.927
 30
0.0
 11
357.759
 21
113.874
 31
0.0
  0
LINE
  8
0
 62
     0
 10
357.759
 20
113.874
 30
0.0
 11
298.615
 21
113.874
 31
0.0
  0
LINE
  8
0
 62
     0
 10
298.615
 20
113.874
 30
0.0
 11
298.615
 21
134.927
 31
0.0
  0
LINE
  8
0
 62
     0
 10
320.052
 20
110.612
 30
0.0
 11
319.942
 21
110.068
 31
0.0
  0
LINE
  8
0
 62
     0
 10
319.942
 20
110.068
 30
0.0
 11
319.641
 21
109.623
 31
0.0
  0
LINE
  8
0
 62
     0
 10
319.641
 20
109.623
 30
0.0
 11
319.197
 21
109.323
 31
0.0
  0
LINE
  8
0
 62
     0
 10
319.197
 20
109.323
 30
0.0
 11
318.652
 21
109.212
 31
0.0
  0
LINE
  8
0
 62
     0
 10
318.652
 20
109.212
 30
0.0
 11
318.106
 21
109.323
 31
0.0
  0
LINE
  8
0
 62
     0
 10
318.106
 20
109.323
 30
0.0
 11
317.661
 21
109.623
 31
0.0
  0
LINE
  8
0
 62
     0
 10
317.661
 20
109.623
 30
0.0
 11
317.361
 21
110.068
 31
0.0
  0
LINE
  8
0
 62
     0
 10
317.361
 20
110.068
 30
0.0
 11
317.252
 21
110.612
 31
0.0
  0
LINE
  8
0
 62
     0
 10
317.252
 20
110.612
 30
0.0
 11
317.361
 21
111.158
 31
0.0
  0
LINE
  8
0
 62
     0
 10
317.361
 20
111.158
 30
0.0
 11
317.661
 21
111.603
 31
0.0
  0
LINE
  8
0
 62
     0
 10
317.661
 20
111.603
 30
0.0
 11
318.106
 21
111.904
 31
0.0
  0
LINE
  8
0
 62
     0
 10
318.106
 20
111.904
 30
0.0
 11
318.652
 21
112.013
 31
0.0
  0
LINE
  8
0
 62
     0
 10
318.652
 20
112.013
 30
0.0
 11
319.197
 21
111.904
 31
0.0
  0
LINE
  8
0
 62
     0
 10
319.197
 20
111.904
 30
0.0
 11
319.641
 21
111.603
 31
0.0
  0
LINE
  8
0
 62
     0
 10
319.641
 20
111.603
 30
0.0
 11
319.942
 21
111.158
 31
0.0
  0
LINE
  8
0
 62
     0
 10
319.942
 20
111.158
 30
0.0
 11
320.052
 21
110.612
 31
0.0
  0
LINE
  8
0
 62
     0
 10
339.113
 20
110.611
 30
0.0
 11
339.003
 21
110.067
 31
0.0
  0
LINE
  8
0
 62
     0
 10
339.003
 20
110.067
 30
0.0
 11
338.703
 21
109.621
 31
0.0
  0
LINE
  8
0
 62
     0
 10
338.703
 20
109.621
 30
0.0
 11
338.257
 21
109.321
 31
0.0
  0
LINE
  8
0
 62
     0
 10
338.257
 20
109.321
 30
0.0
 11
337.713
 21
109.211
 31
0.0
  0
LINE
  8
0
 62
     0
 10
337.713
 20
109.211
 30
0.0
 11
337.167
 21
109.321
 31
0.0
  0
LINE
  8
0
 62
     0
 10
337.167
 20
109.321
 30
0.0
 11
336.722
 21
109.621
 31
0.0
  0
LINE
  8
0
 62
     0
 10
336.722
 20
109.621
 30
0.0
 11
336.422
 21
110.067
 31
0.0
  0
LINE
  8
0
 62
     0
 10
336.422
 20
110.067
 30
0.0
 11
336.313
 21
110.611
 31
0.0
  0
LINE
  8
0
 62
     0
 10
336.313
 20
110.611
 30
0.0
 11
336.422
 21
111.157
 31
0.0
  0
LINE
  8
0
 62
     0
 10
336.422
 20
111.157
 30
0.0
 11
336.722
 21
111.602
 31
0.0
  0
LINE
  8
0
 62
     0
 10
336.722
 20
111.602
 30
0.0
 11
337.167
 21
111.902
 31
0.0
  0
LINE
  8
0
 62
     0
 10
337.167
 20
111.902
 30
0.0
 11
337.713
 21
112.011
 31
0.0
  0
LINE
  8
0
 62
     0
 10
337.713
 20
112.011
 30
0.0
 11
338.257
 21
111.902
 31
0.0
  0
LINE
  8
0
 62
     0
 10
338.257
 20
111.902
 30
0.0
 11
338.703
 21
111.602
 31
0.0
  0
LINE
  8
0
 62
     0
 10
338.703
 20
111.602
 30
0.0
 11
339.003
 21
111.157
 31
0.0
  0
LINE
  8
0
 62
     0
 10
339.003
 20
111.157
 30
0.0
 11
339.113
 21
110.611
 31
0.0
  0
ENDSEC
  0
EOF
