<?xml version="1.0" encoding="UTF-8" standalone="no"?>
<!-- Created with Inkscape (http://www.inkscape.org/) -->

<svg
   xmlns:dc="http://purl.org/dc/elements/1.1/"
   xmlns:cc="http://creativecommons.org/ns#"
   xmlns:rdf="http://www.w3.org/1999/02/22-rdf-syntax-ns#"
   xmlns:svg="http://www.w3.org/2000/svg"
   xmlns="http://www.w3.org/2000/svg"
   xmlns:xlink="http://www.w3.org/1999/xlink"
   xmlns:sodipodi="http://sodipodi.sourceforge.net/DTD/sodipodi-0.dtd"
   xmlns:inkscape="http://www.inkscape.org/namespaces/inkscape"
   width="365.86398mm"
   height="149.02699mm"
   viewBox="0 0 1296.3684 528.0484"
   id="svg9163"
   version="1.1"
   inkscape:version="0.91 r13725"
   sodipodi:docname="prod_tkl_top_drills_fixed.svg">
  <defs
     id="defs9165" />
  <sodipodi:namedview
     id="base"
     pagecolor="#ffffff"
     bordercolor="#666666"
     borderopacity="1.0"
     inkscape:pageopacity="0.0"
     inkscape:pageshadow="2"
     inkscape:zoom="1.5304291"
     inkscape:cx="636.06329"
     inkscape:cy="222.14694"
     inkscape:document-units="mm"
     inkscape:current-layer="layer2"
     showgrid="false"
     fit-margin-top="0"
     fit-margin-left="0"
     fit-margin-right="0"
     fit-margin-bottom="0"
     inkscape:showpageshadow="false"
     showborder="false"
     inkscape:window-width="2560"
     inkscape:window-height="1359"
     inkscape:window-x="0"
     inkscape:window-y="0"
     inkscape:window-maximized="1" />
  <metadata
     id="metadata9168">
    <rdf:RDF>
      <cc:Work
         rdf:about="">
        <dc:format>image/svg+xml</dc:format>
        <dc:type
           rdf:resource="http://purl.org/dc/dcmitype/StillImage" />
        <dc:title />
      </cc:Work>
    </rdf:RDF>
  </metadata>
  <g
     inkscape:label="Ebene 1"
     inkscape:groupmode="layer"
     id="layer1"
     transform="translate(225.3271,-102.62371)">
    <polygon
       transform="matrix(3.543307,0,0,3.543307,-242.6893,85.261509)"
       points="368.821,5.007 368.977,5.025 369.131,5.056 369.282,5.098 369.429,5.153 369.572,5.218 369.709,5.295 369.84,5.382 369.963,5.48 370.078,5.586 370.185,5.702 370.282,5.825 370.369,5.956 370.446,6.093 370.512,6.235 370.566,6.382 370.609,6.534 370.639,6.688 370.658,6.844 370.664,7.001 370.664,151.827 370.658,151.983 370.639,152.139 370.609,152.293 370.566,152.445 370.512,152.592 370.446,152.734 370.369,152.871 370.282,153.002 370.185,153.125 370.078,153.241 369.963,153.347 369.84,153.445 369.709,153.532 369.572,153.609 369.429,153.674 369.282,153.729 369.131,153.771 368.977,153.802 368.821,153.82 368.664,153.827 7.001,153.827 6.844,153.82 6.688,153.802 6.534,153.771 6.382,153.729 6.235,153.674 6.093,153.609 5.956,153.532 5.825,153.445 5.702,153.347 5.586,153.241 5.48,153.125 5.382,153.002 5.295,152.871 5.218,152.734 5.153,152.592 5.098,152.445 5.056,152.293 5.025,152.139 5.007,151.983 5,151.827 5.001,7.001 5.007,6.844 5.025,6.688 5.056,6.534 5.098,6.382 5.153,6.235 5.218,6.093 5.295,5.956 5.382,5.825 5.48,5.702 5.586,5.586 5.702,5.48 5.825,5.382 5.956,5.295 6.093,5.218 6.235,5.153 6.382,5.098 6.534,5.056 6.688,5.025 6.844,5.007 7.001,5 368.664,5.001 "
       style="display:inline;fill:none;stroke:#000000;stroke-width:0.1;stroke-opacity:1;stroke-miterlimit:4;stroke-dasharray:none"
       id="polygon4-4" />
    <polygon
       transform="matrix(3.5680894,0,0,3.6175497,-246.57706,76.352594)"
       points="14,86.675 13.999,86.675 13.999,105.727 14,105.727 14,143.827 299.752,143.827 299.752,48.575 13.999,48.575 13.999,67.627 14,67.627 "
       style="display:inline;fill:none;stroke:#000000;stroke-width:0.09862424;stroke-opacity:1;stroke-miterlimit:4;stroke-dasharray:none"
       id="polygon6-2" />
    <path
       style="display:inline;fill:none;stroke:#000000;stroke-width:0.35433071;stroke-opacity:1;stroke-miterlimit:4;stroke-dasharray:none"
       d="m 832.75921,596.64283 209.56899,0 0,-74.57517 -67.85389,0 0,-67.48152 -73.8612,0 0,67.48152 -67.8539,0 z"
       id="polygon8-2"
       inkscape:connector-curvature="0"
       sodipodi:nodetypes="ccccccccc" />
    <polygon
       transform="matrix(3.6668705,0,0,3.7283264,-283.84682,70.982686)"
       points="361.664,86.677 361.664,48.575 304.512,48.575 304.512,86.677 "
       style="display:inline;fill:none;stroke:#000000;stroke-width:0.09583056;stroke-opacity:1;stroke-miterlimit:4;stroke-dasharray:none"
       id="polygon10-6" />
    <polygon
       transform="matrix(3.7283216,0,0,3.9114045,-248.80412,72.626368)"
       points="13.999,39.052 52.102,39.052 52.102,20 13.999,20 "
       style="display:inline;fill:none;stroke:#000000;stroke-width:0.0927867;stroke-opacity:1;stroke-miterlimit:4;stroke-dasharray:none"
       id="polygon14-3" />
    <polygon
       transform="matrix(3.6360613,0,0,3.9152323,-251.93931,72.513349)"
       points="137.827,20 61.625,20 61.625,39.052 137.827,39.052 "
       style="display:inline;fill:none;stroke:#000000;stroke-width:0.09391056;stroke-opacity:1;stroke-miterlimit:4;stroke-dasharray:none"
       id="polygon16-0" />
    <polygon
       transform="matrix(3.6360613,0,0,3.9152323,-259.44889,72.513349)"
       points="218.789,20 142.587,20 142.587,39.052 218.789,39.052 "
       style="display:inline;fill:none;stroke:#000000;stroke-width:0.09391056;stroke-opacity:1;stroke-miterlimit:4;stroke-dasharray:none"
       id="polygon18-1" />
    <polygon
       transform="matrix(3.6360613,0,0,3.9152323,-266.95854,72.513349)"
       points="223.55,20 223.55,39.052 299.752,39.052 299.752,20 "
       style="display:inline;fill:none;stroke:#000000;stroke-width:0.09391056;stroke-opacity:1;stroke-miterlimit:4;stroke-dasharray:none"
       id="polygon20-0" />
    <polygon
       transform="matrix(3.6668705,0,0,3.9152323,-283.84695,72.513389)"
       points="361.664,39.052 361.664,20 304.512,20 304.512,39.052 "
       style="display:inline;fill:none;stroke:#000000;stroke-width:0.09351521;stroke-opacity:1;stroke-miterlimit:4;stroke-dasharray:none"
       id="polygon22-0" />
    <circle
       style="display:inline;fill:none;stroke:#000000;stroke-width:0.35433071;stroke-miterlimit:4;stroke-dasharray:none;stroke-opacity:1"
       id="path3198"
       cx="903.75507"
       cy="238.73877"
       r="7.6181102" />
    <circle
       cy="238.74268"
       cx="971.29364"
       id="use3976"
       style="display:inline;fill:none;stroke:#000000;stroke-width:0.35433071;stroke-miterlimit:4;stroke-dasharray:none;stroke-opacity:1"
       r="7.6181102" />
  </g>
  <g
     inkscape:groupmode="layer"
     id="layer2"
     inkscape:label="Ebene 2">
    <circle
       id="use4712"
       style="display:inline;fill:none;stroke:#000000;stroke-width:0.35433072;stroke-miterlimit:4;stroke-dasharray:none;stroke-opacity:1"
       cx="17.14221"
       cy="69.316734"
       r="4.0748034" />
    <use
       style="fill:none;stroke:#000000;stroke-width:0.35433072;stroke-miterlimit:4;stroke-dasharray:none;stroke-opacity:1"
       x="0"
       y="0"
       xlink:href="#use4712"
       id="use4724"
       transform="translate(0.02249105,386.41533)"
       width="1367.2346"
       height="598.91455" />
    <use
       style="fill:none;stroke:#000000;stroke-width:0.35433072;stroke-miterlimit:4;stroke-dasharray:none;stroke-opacity:1"
       x="0"
       y="0"
       xlink:href="#use4724"
       id="use4736"
       transform="translate(82.546932,-435.00174)"
       width="1367.2346"
       height="598.91455" />
    <use
       style="fill:none;stroke:#000000;stroke-width:0.35433072;stroke-miterlimit:4;stroke-dasharray:none;stroke-opacity:1"
       x="0"
       y="0"
       xlink:href="#use4736"
       id="use4748"
       transform="translate(0.0022515,486.62589)"
       width="1367.2346"
       height="598.91455" />
    <use
       style="fill:none;stroke:#000000;stroke-width:0.35433072;stroke-miterlimit:4;stroke-dasharray:none;stroke-opacity:1"
       x="0"
       y="0"
       xlink:href="#use4736"
       id="use4859"
       transform="translate(1179.5146,434.99952)"
       width="1367.2346"
       height="598.91455" />
    <use
       style="fill:none;stroke:#000000;stroke-width:0.35433072;stroke-miterlimit:4;stroke-dasharray:none;stroke-opacity:1"
       x="0"
       y="0"
       xlink:href="#use4859"
       id="use4867"
       transform="translate(-824.55937,-435.01918)"
       width="1367.2346"
       height="598.91455" />
    <use
       style="fill:none;stroke:#000000;stroke-width:0.35433072;stroke-miterlimit:4;stroke-dasharray:none;stroke-opacity:1"
       x="0"
       y="0"
       xlink:href="#use4867"
       id="use4875"
       transform="translate(522.25414,-0.01385907)"
       width="1367.2346"
       height="598.91455" />
    <use
       style="fill:none;stroke:#000000;stroke-width:0.35433072;stroke-miterlimit:4;stroke-dasharray:none;stroke-opacity:1"
       x="0"
       y="0"
       xlink:href="#use4875"
       id="use4883"
       transform="translate(219.6146,-0.00808058)"
       width="1367.2346"
       height="598.91455" />
    <use
       style="fill:none;stroke:#000000;stroke-width:0.35433072;stroke-miterlimit:4;stroke-dasharray:none;stroke-opacity:1"
       x="0"
       y="0"
       xlink:href="#use4859"
       id="use4891"
       transform="translate(-824.58696,51.629828)"
       width="1367.2346"
       height="598.91455" />
    <use
       style="fill:none;stroke:#000000;stroke-width:0.35433072;stroke-miterlimit:4;stroke-dasharray:none;stroke-opacity:1"
       x="0"
       y="0"
       xlink:href="#use4859"
       id="use4899"
       transform="translate(-404.07784,51.622332)"
       width="1367.2346"
       height="598.91455" />
    <use
       style="fill:none;stroke:#000000;stroke-width:0.35433072;stroke-miterlimit:4;stroke-dasharray:none;stroke-opacity:1"
       x="0"
       y="0"
       xlink:href="#use4859"
       id="use4907"
       transform="translate(-82.690491,51.629828)"
       width="1367.2346"
       height="598.91455" />
    <use
       style="fill:none;stroke:#000000;stroke-width:0.35433072;stroke-miterlimit:4;stroke-dasharray:none;stroke-opacity:1"
       x="0"
       y="0"
       xlink:href="#use4859"
       id="use4915"
       transform="translate(-0.01381337,-386.4145)"
       width="1367.2346"
       height="598.91455" />
  </g>
</svg>
