  0
SECTION
  2
HEADER
  9
$ACADVER
  1
AC1009
  9
$EXTMIN
 10
0.0
 20
0.0
 30
0.0
  9
$EXTMAX
 10
1000.0
 20
1000.0
 30
0.0
  9
$FILLMODE
 70
 0
  9
$SPLFRAME
 70
 1
  0
ENDSEC
  0
SECTION
  2
TABLES
  0
TABLE
  2
LAYER
 70
1
  0
LAYER
  2
0
 70
     0
 62
     7
  6
CONTINUOUS
  0
ENDTAB
  0
ENDSEC
  0
SECTION
  2
ENTITIES
  0
LINE
  8
0
 62
     0
 10
285.558
 20
132.148
 30
0.0
 11
285.467
 21
131.702
 31
0.0
  0
LINE
  8
0
 62
     0
 10
285.467
 20
131.702
 30
0.0
 11
285.221
 21
131.337
 31
0.0
  0
LINE
  8
0
 62
     0
 10
285.221
 20
131.337
 30
0.0
 11
284.854
 21
131.09
 31
0.0
  0
LINE
  8
0
 62
     0
 10
284.854
 20
131.09
 30
0.0
 11
284.408
 21
130.999
 31
0.0
  0
LINE
  8
0
 62
     0
 10
284.408
 20
130.999
 30
0.0
 11
283.96
 21
131.09
 31
0.0
  0
LINE
  8
0
 62
     0
 10
283.96
 20
131.09
 30
0.0
 11
283.595
 21
131.337
 31
0.0
  0
LINE
  8
0
 62
     0
 10
283.595
 20
131.337
 30
0.0
 11
283.348
 21
131.702
 31
0.0
  0
LINE
  8
0
 62
     0
 10
283.348
 20
131.702
 30
0.0
 11
283.259
 21
132.148
 31
0.0
  0
LINE
  8
0
 62
     0
 10
283.259
 20
132.148
 30
0.0
 11
283.348
 21
132.596
 31
0.0
  0
LINE
  8
0
 62
     0
 10
283.348
 20
132.596
 30
0.0
 11
283.595
 21
132.963
 31
0.0
  0
LINE
  8
0
 62
     0
 10
283.595
 20
132.963
 30
0.0
 11
283.96
 21
133.21
 31
0.0
  0
LINE
  8
0
 62
     0
 10
283.96
 20
133.21
 30
0.0
 11
284.408
 21
133.299
 31
0.0
  0
LINE
  8
0
 62
     0
 10
284.408
 20
133.299
 30
0.0
 11
284.854
 21
133.21
 31
0.0
  0
LINE
  8
0
 62
     0
 10
284.854
 20
133.21
 30
0.0
 11
285.221
 21
132.963
 31
0.0
  0
LINE
  8
0
 62
     0
 10
285.221
 20
132.963
 30
0.0
 11
285.467
 21
132.596
 31
0.0
  0
LINE
  8
0
 62
     0
 10
285.467
 20
132.596
 30
0.0
 11
285.558
 21
132.148
 31
0.0
  0
LINE
  8
0
 62
     0
 10
301.059
 20
132.148
 30
0.0
 11
300.968
 21
131.702
 31
0.0
  0
LINE
  8
0
 62
     0
 10
300.968
 20
131.702
 30
0.0
 11
300.721
 21
131.337
 31
0.0
  0
LINE
  8
0
 62
     0
 10
300.721
 20
131.337
 30
0.0
 11
300.354
 21
131.09
 31
0.0
  0
LINE
  8
0
 62
     0
 10
300.354
 20
131.09
 30
0.0
 11
299.908
 21
130.999
 31
0.0
  0
LINE
  8
0
 62
     0
 10
299.908
 20
130.999
 30
0.0
 11
299.46
 21
131.09
 31
0.0
  0
LINE
  8
0
 62
     0
 10
299.46
 20
131.09
 30
0.0
 11
299.095
 21
131.337
 31
0.0
  0
LINE
  8
0
 62
     0
 10
299.095
 20
131.337
 30
0.0
 11
298.848
 21
131.702
 31
0.0
  0
LINE
  8
0
 62
     0
 10
298.848
 20
131.702
 30
0.0
 11
298.759
 21
132.148
 31
0.0
  0
LINE
  8
0
 62
     0
 10
298.759
 20
132.148
 30
0.0
 11
298.848
 21
132.596
 31
0.0
  0
LINE
  8
0
 62
     0
 10
298.848
 20
132.596
 30
0.0
 11
299.095
 21
132.963
 31
0.0
  0
LINE
  8
0
 62
     0
 10
299.095
 20
132.963
 30
0.0
 11
299.46
 21
133.21
 31
0.0
  0
LINE
  8
0
 62
     0
 10
299.46
 20
133.21
 30
0.0
 11
299.908
 21
133.299
 31
0.0
  0
LINE
  8
0
 62
     0
 10
299.908
 20
133.299
 30
0.0
 11
300.354
 21
133.21
 31
0.0
  0
LINE
  8
0
 62
     0
 10
300.354
 20
133.21
 30
0.0
 11
300.721
 21
132.963
 31
0.0
  0
LINE
  8
0
 62
     0
 10
300.721
 20
132.963
 30
0.0
 11
300.968
 21
132.596
 31
0.0
  0
LINE
  8
0
 62
     0
 10
300.968
 20
132.596
 30
0.0
 11
301.059
 21
132.148
 31
0.0
  0
LINE
  8
0
 62
     0
 10
1.81488
 20
136.858
 30
0.0
 11
1.66605
 21
136.841
 31
0.0
  0
LINE
  8
0
 62
     0
 10
1.66605
 20
136.841
 30
0.0
 11
1.51584
 21
136.805
 31
0.0
  0
LINE
  8
0
 62
     0
 10
1.51584
 20
136.805
 30
0.0
 11
1.36563
 21
136.77
 31
0.0
  0
LINE
  8
0
 62
     0
 10
1.36563
 20
136.77
 30
0.0
 11
1.22508
 21
136.717
 31
0.0
  0
LINE
  8
0
 62
     0
 10
1.22508
 20
136.717
 30
0.0
 11
1.08314
 21
136.664
 31
0.0
  0
LINE
  8
0
 62
     0
 10
1.08314
 20
136.664
 30
0.0
 11
0.950846
 21
136.594
 31
0.0
  0
LINE
  8
0
 62
     0
 10
0.950846
 20
136.594
 30
0.0
 11
0.828202
 21
136.514
 31
0.0
  0
LINE
  8
0
 62
     0
 10
0.828202
 20
136.514
 30
0.0
 11
0.704176
 21
136.417
 31
0.0
  0
LINE
  8
0
 62
     0
 10
0.704176
 20
136.417
 30
0.0
 11
0.589802
 21
136.32
 31
0.0
  0
LINE
  8
0
 62
     0
 10
0.589802
 20
136.32
 30
0.0
 11
0.491959
 21
136.215
 31
0.0
  0
LINE
  8
0
 62
     0
 10
0.491959
 20
136.215
 30
0.0
 11
0.395496
 21
136.099
 31
0.0
  0
LINE
  8
0
 62
     0
 10
0.395496
 20
136.099
 30
0.0
 11
0.307303
 21
135.985
 31
0.0
  0
LINE
  8
0
 62
     0
 10
0.307303
 20
135.985
 30
0.0
 11
0.237023
 21
135.853
 31
0.0
  0
LINE
  8
0
 62
     0
 10
0.237023
 20
135.853
 30
0.0
 11
0.166743
 21
135.73
 31
0.0
  0
LINE
  8
0
 62
     0
 10
0.166743
 20
135.73
 30
0.0
 11
0.112999
 21
135.588
 31
0.0
  0
LINE
  8
0
 62
     0
 10
0.112999
 20
135.588
 30
0.0
 11
0.0785481
 21
135.447
 31
0.0
  0
LINE
  8
0
 62
     0
 10
0.0785481
 20
135.447
 30
0.0
 11
0.0427193
 21
135.305
 31
0.0
  0
LINE
  8
0
 62
     0
 10
0.0427193
 20
135.305
 30
0.0
 11
0.0248047
 21
135.165
 31
0.0
  0
LINE
  8
0
 62
     0
 10
0.0248047
 20
135.165
 30
0.0
 11
0.0248047
 21
125.367
 31
0.0
  0
LINE
  8
0
 62
     0
 10
0.0248047
 20
125.367
 30
0.0
 11
0.701421
 21
125.149
 31
0.0
  0
LINE
  8
0
 62
     0
 10
0.701421
 20
125.149
 30
0.0
 11
1.24713
 21
124.718
 31
0.0
  0
LINE
  8
0
 62
     0
 10
1.24713
 20
124.718
 30
0.0
 11
1.61093
 21
124.121
 31
0.0
  0
LINE
  8
0
 62
     0
 10
1.61093
 20
124.121
 30
0.0
 11
1.7446
 21
123.409
 31
0.0
  0
LINE
  8
0
 62
     0
 10
1.7446
 20
123.409
 30
0.0
 11
1.61093
 21
122.699
 31
0.0
  0
LINE
  8
0
 62
     0
 10
1.61093
 20
122.699
 30
0.0
 11
1.24713
 21
122.105
 31
0.0
  0
LINE
  8
0
 62
     0
 10
1.24713
 20
122.105
 30
0.0
 11
0.701421
 21
121.677
 31
0.0
  0
LINE
  8
0
 62
     0
 10
0.701421
 20
121.677
 30
0.0
 11
0.0248047
 21
121.459
 31
0.0
  0
LINE
  8
0
 62
     0
 10
0.0248047
 20
121.459
 30
0.0
 11
0.0248047
 21
16.3146
 31
0.0
  0
LINE
  8
0
 62
     0
 10
0.0248047
 20
16.3146
 30
0.0
 11
0.7028
 21
16.0996
 31
0.0
  0
LINE
  8
0
 62
     0
 10
0.7028
 20
16.0996
 30
0.0
 11
1.2485
 21
15.6669
 31
0.0
  0
LINE
  8
0
 62
     0
 10
1.2485
 20
15.6669
 30
0.0
 11
1.6123
 21
15.0702
 31
0.0
  0
LINE
  8
0
 62
     0
 10
1.6123
 20
15.0702
 30
0.0
 11
1.7446
 21
14.3564
 31
0.0
  0
LINE
  8
0
 62
     0
 10
1.7446
 20
14.3564
 30
0.0
 11
1.6123
 21
13.6453
 31
0.0
  0
LINE
  8
0
 62
     0
 10
1.6123
 20
13.6453
 30
0.0
 11
1.2485
 21
13.0514
 31
0.0
  0
LINE
  8
0
 62
     0
 10
1.2485
 20
13.0514
 30
0.0
 11
0.7028
 21
12.6214
 31
0.0
  0
LINE
  8
0
 62
     0
 10
0.7028
 20
12.6214
 30
0.0
 11
0.0248047
 21
12.4065
 31
0.0
  0
LINE
  8
0
 62
     0
 10
0.0248047
 20
12.4065
 30
0.0
 11
0.0248047
 21
1.71841
 31
0.0
  0
LINE
  8
0
 62
     0
 10
0.0248047
 20
1.71841
 30
0.0
 11
0.0427193
 21
1.57648
 31
0.0
  0
LINE
  8
0
 62
     0
 10
0.0427193
 20
1.57648
 30
0.0
 11
0.0785481
 21
1.43591
 31
0.0
  0
LINE
  8
0
 62
     0
 10
0.0785481
 20
1.43591
 30
0.0
 11
0.112999
 21
1.29398
 31
0.0
  0
LINE
  8
0
 62
     0
 10
0.112999
 20
1.29398
 30
0.0
 11
0.166743
 21
1.16169
 31
0.0
  0
LINE
  8
0
 62
     0
 10
0.166743
 20
1.16169
 30
0.0
 11
0.237023
 21
1.02939
 31
0.0
  0
LINE
  8
0
 62
     0
 10
0.237023
 20
1.02939
 30
0.0
 11
0.307303
 21
0.906748
 31
0.0
  0
LINE
  8
0
 62
     0
 10
0.307303
 20
0.906748
 30
0.0
 11
0.395496
 21
0.782726
 31
0.0
  0
LINE
  8
0
 62
     0
 10
0.395496
 20
0.782726
 30
0.0
 11
0.491959
 21
0.668348
 31
0.0
  0
LINE
  8
0
 62
     0
 10
0.491959
 20
0.668348
 30
0.0
 11
0.589802
 21
0.56224
 31
0.0
  0
LINE
  8
0
 62
     0
 10
0.589802
 20
0.56224
 30
0.0
 11
0.704176
 21
0.465776
 31
0.0
  0
LINE
  8
0
 62
     0
 10
0.704176
 20
0.465776
 30
0.0
 11
0.828202
 21
0.377582
 31
0.0
  0
LINE
  8
0
 62
     0
 10
0.828202
 20
0.377582
 30
0.0
 11
0.950846
 21
0.297656
 31
0.0
  0
LINE
  8
0
 62
     0
 10
0.950846
 20
0.297656
 30
0.0
 11
1.08314
 21
0.227376
 31
0.0
  0
LINE
  8
0
 62
     0
 10
1.08314
 20
0.227376
 30
0.0
 11
1.22508
 21
0.165365
 31
0.0
  0
LINE
  8
0
 62
     0
 10
1.22508
 20
0.165365
 30
0.0
 11
1.36563
 21
0.112999
 31
0.0
  0
LINE
  8
0
 62
     0
 10
1.36563
 20
0.112999
 30
0.0
 11
1.51584
 21
0.0771701
 31
0.0
  0
LINE
  8
0
 62
     0
 10
1.51584
 20
0.0771701
 30
0.0
 11
1.66605
 21
0.0509873
 31
0.0
  0
LINE
  8
0
 62
     0
 10
1.66605
 20
0.0509873
 30
0.0
 11
1.81488
 21
0.0330729
 31
0.0
  0
LINE
  8
0
 62
     0
 10
1.81488
 20
0.0330729
 30
0.0
 11
1.96508
 21
0.0248047
 31
0.0
  0
LINE
  8
0
 62
     0
 10
1.96508
 20
0.0248047
 30
0.0
 11
21.1212
 21
0.0248047
 31
0.0
  0
LINE
  8
0
 62
     0
 10
21.1212
 20
0.0248047
 30
0.0
 11
21.332
 21
0.70969
 31
0.0
  0
LINE
  8
0
 62
     0
 10
21.332
 20
0.70969
 30
0.0
 11
21.7606
 21
1.26091
 31
0.0
  0
LINE
  8
0
 62
     0
 10
21.7606
 20
1.26091
 30
0.0
 11
22.3559
 21
1.62884
 31
0.0
  0
LINE
  8
0
 62
     0
 10
22.3559
 20
1.62884
 30
0.0
 11
23.0697
 21
1.76251
 31
0.0
  0
LINE
  8
0
 62
     0
 10
23.0697
 20
1.76251
 30
0.0
 11
23.7849
 21
1.62884
 31
0.0
  0
LINE
  8
0
 62
     0
 10
23.7849
 20
1.62884
 30
0.0
 11
24.383
 21
1.26091
 31
0.0
  0
LINE
  8
0
 62
     0
 10
24.383
 20
1.26091
 30
0.0
 11
24.8143
 21
0.70969
 31
0.0
  0
LINE
  8
0
 62
     0
 10
24.8143
 20
0.70969
 30
0.0
 11
25.0279
 21
0.0248047
 31
0.0
  0
LINE
  8
0
 62
     0
 10
25.0279
 20
0.0248047
 30
0.0
 11
121.284
 21
0.0248047
 31
0.0
  0
LINE
  8
0
 62
     0
 10
121.284
 20
0.0248047
 30
0.0
 11
121.496
 21
0.70969
 31
0.0
  0
LINE
  8
0
 62
     0
 10
121.496
 20
0.70969
 30
0.0
 11
121.927
 21
1.26091
 31
0.0
  0
LINE
  8
0
 62
     0
 10
121.927
 20
1.26091
 30
0.0
 11
122.525
 21
1.62884
 31
0.0
  0
LINE
  8
0
 62
     0
 10
122.525
 20
1.62884
 30
0.0
 11
123.242
 21
1.76251
 31
0.0
  0
LINE
  8
0
 62
     0
 10
123.242
 20
1.76251
 30
0.0
 11
123.954
 21
1.62884
 31
0.0
  0
LINE
  8
0
 62
     0
 10
123.954
 20
1.62884
 30
0.0
 11
124.55
 21
1.26091
 31
0.0
  0
LINE
  8
0
 62
     0
 10
124.55
 20
1.26091
 30
0.0
 11
124.979
 21
0.70969
 31
0.0
  0
LINE
  8
0
 62
     0
 10
124.979
 20
0.70969
 30
0.0
 11
125.191
 21
0.0248047
 31
0.0
  0
LINE
  8
0
 62
     0
 10
125.191
 20
0.0248047
 30
0.0
 11
239.968
 21
0.0248047
 31
0.0
  0
LINE
  8
0
 62
     0
 10
239.968
 20
0.0248047
 30
0.0
 11
240.178
 21
0.70969
 31
0.0
  0
LINE
  8
0
 62
     0
 10
240.178
 20
0.70969
 30
0.0
 11
240.607
 21
1.26091
 31
0.0
  0
LINE
  8
0
 62
     0
 10
240.607
 20
1.26091
 30
0.0
 11
241.202
 21
1.62884
 31
0.0
  0
LINE
  8
0
 62
     0
 10
241.202
 20
1.62884
 30
0.0
 11
241.916
 21
1.76251
 31
0.0
  0
LINE
  8
0
 62
     0
 10
241.916
 20
1.76251
 30
0.0
 11
242.63
 21
1.62884
 31
0.0
  0
LINE
  8
0
 62
     0
 10
242.63
 20
1.62884
 30
0.0
 11
243.228
 21
1.26091
 31
0.0
  0
LINE
  8
0
 62
     0
 10
243.228
 20
1.26091
 30
0.0
 11
243.659
 21
0.70969
 31
0.0
  0
LINE
  8
0
 62
     0
 10
243.659
 20
0.70969
 30
0.0
 11
243.874
 21
0.0248047
 31
0.0
  0
LINE
  8
0
 62
     0
 10
243.874
 20
0.0248047
 30
0.0
 11
330.666
 21
0.0248047
 31
0.0
  0
LINE
  8
0
 62
     0
 10
330.666
 20
0.0248047
 30
0.0
 11
330.879
 21
0.70969
 31
0.0
  0
LINE
  8
0
 62
     0
 10
330.879
 20
0.70969
 30
0.0
 11
331.311
 21
1.26091
 31
0.0
  0
LINE
  8
0
 62
     0
 10
331.311
 20
1.26091
 30
0.0
 11
331.909
 21
1.62884
 31
0.0
  0
LINE
  8
0
 62
     0
 10
331.909
 20
1.62884
 30
0.0
 11
332.624
 21
1.76251
 31
0.0
  0
LINE
  8
0
 62
     0
 10
332.624
 20
1.76251
 30
0.0
 11
333.337
 21
1.62884
 31
0.0
  0
LINE
  8
0
 62
     0
 10
333.337
 20
1.62884
 30
0.0
 11
333.932
 21
1.26091
 31
0.0
  0
LINE
  8
0
 62
     0
 10
333.932
 20
1.26091
 30
0.0
 11
334.36
 21
0.70969
 31
0.0
  0
LINE
  8
0
 62
     0
 10
334.36
 20
0.70969
 30
0.0
 11
334.573
 21
0.0248047
 31
0.0
  0
LINE
  8
0
 62
     0
 10
334.573
 20
0.0248047
 30
0.0
 11
353.748
 21
0.0248047
 31
0.0
  0
LINE
  8
0
 62
     0
 10
353.748
 20
0.0248047
 30
0.0
 11
353.907
 21
0.0330729
 31
0.0
  0
LINE
  8
0
 62
     0
 10
353.907
 20
0.0330729
 30
0.0
 11
354.055
 21
0.0509873
 31
0.0
  0
LINE
  8
0
 62
     0
 10
354.055
 20
0.0509873
 30
0.0
 11
354.207
 21
0.0771701
 31
0.0
  0
LINE
  8
0
 62
     0
 10
354.207
 20
0.0771701
 30
0.0
 11
354.355
 21
0.112999
 31
0.0
  0
LINE
  8
0
 62
     0
 10
354.355
 20
0.112999
 30
0.0
 11
354.496
 21
0.165365
 31
0.0
  0
LINE
  8
0
 62
     0
 10
354.496
 20
0.165365
 30
0.0
 11
354.637
 21
0.227376
 31
0.0
  0
LINE
  8
0
 62
     0
 10
354.637
 20
0.227376
 30
0.0
 11
354.767
 21
0.297656
 31
0.0
  0
LINE
  8
0
 62
     0
 10
354.767
 20
0.297656
 30
0.0
 11
354.894
 21
0.377582
 31
0.0
  0
LINE
  8
0
 62
     0
 10
354.894
 20
0.377582
 30
0.0
 11
355.018
 21
0.465776
 31
0.0
  0
LINE
  8
0
 62
     0
 10
355.018
 20
0.465776
 30
0.0
 11
355.12
 21
0.56224
 31
0.0
  0
LINE
  8
0
 62
     0
 10
355.12
 20
0.56224
 30
0.0
 11
355.23
 21
0.668348
 31
0.0
  0
LINE
  8
0
 62
     0
 10
355.23
 20
0.668348
 30
0.0
 11
355.325
 21
0.782726
 31
0.0
  0
LINE
  8
0
 62
     0
 10
355.325
 20
0.782726
 30
0.0
 11
355.406
 21
0.906748
 31
0.0
  0
LINE
  8
0
 62
     0
 10
355.406
 20
0.906748
 30
0.0
 11
355.484
 21
1.02939
 31
0.0
  0
LINE
  8
0
 62
     0
 10
355.484
 20
1.02939
 30
0.0
 11
355.547
 21
1.16169
 31
0.0
  0
LINE
  8
0
 62
     0
 10
355.547
 20
1.16169
 30
0.0
 11
355.6
 21
1.29398
 31
0.0
  0
LINE
  8
0
 62
     0
 10
355.6
 20
1.29398
 30
0.0
 11
355.642
 21
1.43591
 31
0.0
  0
LINE
  8
0
 62
     0
 10
355.642
 20
1.43591
 30
0.0
 11
355.671
 21
1.57648
 31
0.0
  0
LINE
  8
0
 62
     0
 10
355.671
 20
1.57648
 30
0.0
 11
355.688
 21
1.71841
 31
0.0
  0
LINE
  8
0
 62
     0
 10
355.688
 20
1.71841
 30
0.0
 11
355.695
 21
1.85897
 31
0.0
  0
LINE
  8
0
 62
     0
 10
355.695
 20
1.85897
 30
0.0
 11
355.695
 21
12.4065
 31
0.0
  0
LINE
  8
0
 62
     0
 10
355.695
 20
12.4065
 30
0.0
 11
355.021
 21
12.6256
 31
0.0
  0
LINE
  8
0
 62
     0
 10
355.021
 20
12.6256
 30
0.0
 11
354.478
 21
13.0555
 31
0.0
  0
LINE
  8
0
 62
     0
 10
354.478
 20
13.0555
 30
0.0
 11
354.115
 21
13.6481
 31
0.0
  0
LINE
  8
0
 62
     0
 10
354.115
 20
13.6481
 30
0.0
 11
353.984
 21
14.3564
 31
0.0
  0
LINE
  8
0
 62
     0
 10
353.984
 20
14.3564
 30
0.0
 11
354.115
 21
15.0675
 31
0.0
  0
LINE
  8
0
 62
     0
 10
354.115
 20
15.0675
 30
0.0
 11
354.478
 21
15.6628
 31
0.0
  0
LINE
  8
0
 62
     0
 10
354.478
 20
15.6628
 30
0.0
 11
355.021
 21
16.0955
 31
0.0
  0
LINE
  8
0
 62
     0
 10
355.021
 20
16.0955
 30
0.0
 11
355.695
 21
16.3146
 31
0.0
  0
LINE
  8
0
 62
     0
 10
355.695
 20
16.3146
 30
0.0
 11
355.695
 21
121.459
 31
0.0
  0
LINE
  8
0
 62
     0
 10
355.695
 20
121.459
 30
0.0
 11
355.018
 21
121.677
 31
0.0
  0
LINE
  8
0
 62
     0
 10
355.018
 20
121.677
 30
0.0
 11
354.471
 21
122.105
 31
0.0
  0
LINE
  8
0
 62
     0
 10
354.471
 20
122.105
 30
0.0
 11
354.108
 21
122.699
 31
0.0
  0
LINE
  8
0
 62
     0
 10
354.108
 20
122.699
 30
0.0
 11
353.974
 21
123.409
 31
0.0
  0
LINE
  8
0
 62
     0
 10
353.974
 20
123.409
 30
0.0
 11
354.108
 21
124.121
 31
0.0
  0
LINE
  8
0
 62
     0
 10
354.108
 20
124.121
 30
0.0
 11
354.471
 21
124.718
 31
0.0
  0
LINE
  8
0
 62
     0
 10
354.471
 20
124.718
 30
0.0
 11
355.018
 21
125.149
 31
0.0
  0
LINE
  8
0
 62
     0
 10
355.018
 20
125.149
 30
0.0
 11
355.695
 21
125.367
 31
0.0
  0
LINE
  8
0
 62
     0
 10
355.695
 20
125.367
 30
0.0
 11
355.695
 21
135.024
 31
0.0
  0
LINE
  8
0
 62
     0
 10
355.695
 20
135.024
 30
0.0
 11
355.688
 21
135.165
 31
0.0
  0
LINE
  8
0
 62
     0
 10
355.688
 20
135.165
 30
0.0
 11
355.671
 21
135.305
 31
0.0
  0
LINE
  8
0
 62
     0
 10
355.671
 20
135.305
 30
0.0
 11
355.642
 21
135.447
 31
0.0
  0
LINE
  8
0
 62
     0
 10
355.642
 20
135.447
 30
0.0
 11
355.6
 21
135.588
 31
0.0
  0
LINE
  8
0
 62
     0
 10
355.6
 20
135.588
 30
0.0
 11
355.547
 21
135.73
 31
0.0
  0
LINE
  8
0
 62
     0
 10
355.547
 20
135.73
 30
0.0
 11
355.484
 21
135.853
 31
0.0
  0
LINE
  8
0
 62
     0
 10
355.484
 20
135.853
 30
0.0
 11
355.406
 21
135.985
 31
0.0
  0
LINE
  8
0
 62
     0
 10
355.406
 20
135.985
 30
0.0
 11
355.325
 21
136.099
 31
0.0
  0
LINE
  8
0
 62
     0
 10
355.325
 20
136.099
 30
0.0
 11
355.23
 21
136.215
 31
0.0
  0
LINE
  8
0
 62
     0
 10
355.23
 20
136.215
 30
0.0
 11
355.12
 21
136.32
 31
0.0
  0
LINE
  8
0
 62
     0
 10
355.12
 20
136.32
 30
0.0
 11
355.018
 21
136.417
 31
0.0
  0
LINE
  8
0
 62
     0
 10
355.018
 20
136.417
 30
0.0
 11
354.894
 21
136.514
 31
0.0
  0
LINE
  8
0
 62
     0
 10
354.894
 20
136.514
 30
0.0
 11
354.767
 21
136.594
 31
0.0
  0
LINE
  8
0
 62
     0
 10
354.767
 20
136.594
 30
0.0
 11
354.637
 21
136.664
 31
0.0
  0
LINE
  8
0
 62
     0
 10
354.637
 20
136.664
 30
0.0
 11
354.496
 21
136.717
 31
0.0
  0
LINE
  8
0
 62
     0
 10
354.496
 20
136.717
 30
0.0
 11
354.355
 21
136.77
 31
0.0
  0
LINE
  8
0
 62
     0
 10
354.355
 20
136.77
 30
0.0
 11
354.207
 21
136.805
 31
0.0
  0
LINE
  8
0
 62
     0
 10
354.207
 20
136.805
 30
0.0
 11
354.055
 21
136.841
 31
0.0
  0
LINE
  8
0
 62
     0
 10
354.055
 20
136.841
 30
0.0
 11
353.907
 21
136.858
 31
0.0
  0
LINE
  8
0
 62
     0
 10
353.907
 20
136.858
 30
0.0
 11
334.573
 21
136.858
 31
0.0
  0
LINE
  8
0
 62
     0
 10
334.573
 20
136.858
 30
0.0
 11
334.351
 21
136.19
 31
0.0
  0
LINE
  8
0
 62
     0
 10
334.351
 20
136.19
 30
0.0
 11
333.921
 21
135.653
 31
0.0
  0
LINE
  8
0
 62
     0
 10
333.921
 20
135.653
 30
0.0
 11
333.328
 21
135.296
 31
0.0
  0
LINE
  8
0
 62
     0
 10
333.328
 20
135.296
 30
0.0
 11
332.624
 21
135.165
 31
0.0
  0
LINE
  8
0
 62
     0
 10
332.624
 20
135.165
 30
0.0
 11
331.917
 21
135.296
 31
0.0
  0
LINE
  8
0
 62
     0
 10
331.917
 20
135.296
 30
0.0
 11
331.322
 21
135.653
 31
0.0
  0
LINE
  8
0
 62
     0
 10
331.322
 20
135.653
 30
0.0
 11
330.888
 21
136.19
 31
0.0
  0
LINE
  8
0
 62
     0
 10
330.888
 20
136.19
 30
0.0
 11
330.666
 21
136.858
 31
0.0
  0
LINE
  8
0
 62
     0
 10
330.666
 20
136.858
 30
0.0
 11
272.59
 21
136.858
 31
0.0
  0
LINE
  8
0
 62
     0
 10
272.59
 20
136.858
 30
0.0
 11
272.368
 21
136.189
 31
0.0
  0
LINE
  8
0
 62
     0
 10
272.368
 20
136.189
 30
0.0
 11
271.938
 21
135.653
 31
0.0
  0
LINE
  8
0
 62
     0
 10
271.938
 20
135.653
 30
0.0
 11
271.347
 21
135.296
 31
0.0
  0
LINE
  8
0
 62
     0
 10
271.347
 20
135.296
 30
0.0
 11
270.641
 21
135.165
 31
0.0
  0
LINE
  8
0
 62
     0
 10
270.641
 20
135.165
 30
0.0
 11
269.933
 21
135.296
 31
0.0
  0
LINE
  8
0
 62
     0
 10
269.933
 20
135.296
 30
0.0
 11
269.338
 21
135.653
 31
0.0
  0
LINE
  8
0
 62
     0
 10
269.338
 20
135.653
 30
0.0
 11
268.903
 21
136.189
 31
0.0
  0
LINE
  8
0
 62
     0
 10
268.903
 20
136.189
 30
0.0
 11
268.683
 21
136.858
 31
0.0
  0
LINE
  8
0
 62
     0
 10
268.683
 20
136.858
 30
0.0
 11
125.199
 21
136.858
 31
0.0
  0
LINE
  8
0
 62
     0
 10
125.199
 20
136.858
 30
0.0
 11
124.979
 21
136.187
 31
0.0
  0
LINE
  8
0
 62
     0
 10
124.979
 20
136.187
 30
0.0
 11
124.549
 21
135.649
 31
0.0
  0
LINE
  8
0
 62
     0
 10
124.549
 20
135.649
 30
0.0
 11
123.956
 21
135.287
 31
0.0
  0
LINE
  8
0
 62
     0
 10
123.956
 20
135.287
 30
0.0
 11
123.25
 21
135.157
 31
0.0
  0
LINE
  8
0
 62
     0
 10
123.25
 20
135.157
 30
0.0
 11
122.542
 21
135.287
 31
0.0
  0
LINE
  8
0
 62
     0
 10
122.542
 20
135.287
 30
0.0
 11
121.947
 21
135.649
 31
0.0
  0
LINE
  8
0
 62
     0
 10
121.947
 20
135.649
 30
0.0
 11
121.514
 21
136.187
 31
0.0
  0
LINE
  8
0
 62
     0
 10
121.514
 20
136.187
 30
0.0
 11
121.292
 21
136.858
 31
0.0
  0
LINE
  8
0
 62
     0
 10
121.292
 20
136.858
 30
0.0
 11
25.0279
 21
136.858
 31
0.0
  0
LINE
  8
0
 62
     0
 10
25.0279
 20
136.858
 30
0.0
 11
24.8074
 21
136.185
 31
0.0
  0
LINE
  8
0
 62
     0
 10
24.8074
 20
136.185
 30
0.0
 11
24.3748
 21
135.642
 31
0.0
  0
LINE
  8
0
 62
     0
 10
24.3748
 20
135.642
 30
0.0
 11
23.7794
 21
135.279
 31
0.0
  0
LINE
  8
0
 62
     0
 10
23.7794
 20
135.279
 30
0.0
 11
23.0697
 21
135.147
 31
0.0
  0
LINE
  8
0
 62
     0
 10
23.0697
 20
135.147
 30
0.0
 11
22.3614
 21
135.279
 31
0.0
  0
LINE
  8
0
 62
     0
 10
22.3614
 20
135.279
 30
0.0
 11
21.7689
 21
135.642
 31
0.0
  0
LINE
  8
0
 62
     0
 10
21.7689
 20
135.642
 30
0.0
 11
21.3389
 21
136.185
 31
0.0
  0
LINE
  8
0
 62
     0
 10
21.3389
 20
136.185
 30
0.0
 11
21.1212
 21
136.858
 31
0.0
  0
LINE
  8
0
 62
     0
 10
21.1212
 20
136.858
 30
0.0
 11
1.81488
 21
136.858
 31
0.0
  0
LINE
  8
0
 62
     0
 10
77.3356
 20
6.50847
 30
0.0
 11
77.2446
 21
6.06199
 31
0.0
  0
LINE
  8
0
 62
     0
 10
77.2446
 20
6.06199
 30
0.0
 11
76.998
 21
5.6968
 31
0.0
  0
LINE
  8
0
 62
     0
 10
76.998
 20
5.6968
 30
0.0
 11
76.6315
 21
5.45013
 31
0.0
  0
LINE
  8
0
 62
     0
 10
76.6315
 20
5.45013
 30
0.0
 11
76.1848
 21
5.35919
 31
0.0
  0
LINE
  8
0
 62
     0
 10
76.1848
 20
5.35919
 30
0.0
 11
75.7372
 21
5.45013
 31
0.0
  0
LINE
  8
0
 62
     0
 10
75.7372
 20
5.45013
 30
0.0
 11
75.3717
 21
5.6968
 31
0.0
  0
LINE
  8
0
 62
     0
 10
75.3717
 20
5.6968
 30
0.0
 11
75.1251
 21
6.06199
 31
0.0
  0
LINE
  8
0
 62
     0
 10
75.1251
 20
6.06199
 30
0.0
 11
75.0355
 21
6.50847
 31
0.0
  0
LINE
  8
0
 62
     0
 10
75.0355
 20
6.50847
 30
0.0
 11
75.1251
 21
6.95635
 31
0.0
  0
LINE
  8
0
 62
     0
 10
75.1251
 20
6.95635
 30
0.0
 11
75.3717
 21
7.32289
 31
0.0
  0
LINE
  8
0
 62
     0
 10
75.3717
 20
7.32289
 30
0.0
 11
75.7372
 21
7.56955
 31
0.0
  0
LINE
  8
0
 62
     0
 10
75.7372
 20
7.56955
 30
0.0
 11
76.1848
 21
7.65912
 31
0.0
  0
LINE
  8
0
 62
     0
 10
76.1848
 20
7.65912
 30
0.0
 11
76.6315
 21
7.56955
 31
0.0
  0
LINE
  8
0
 62
     0
 10
76.6315
 20
7.56955
 30
0.0
 11
76.998
 21
7.32289
 31
0.0
  0
LINE
  8
0
 62
     0
 10
76.998
 20
7.32289
 30
0.0
 11
77.2446
 21
6.95635
 31
0.0
  0
LINE
  8
0
 62
     0
 10
77.2446
 20
6.95635
 30
0.0
 11
77.3356
 21
6.50847
 31
0.0
  0
LINE
  8
0
 62
     0
 10
77.3356
 20
130.374
 30
0.0
 11
77.2446
 21
129.927
 31
0.0
  0
LINE
  8
0
 62
     0
 10
77.2446
 20
129.927
 30
0.0
 11
76.998
 21
129.562
 31
0.0
  0
LINE
  8
0
 62
     0
 10
76.998
 20
129.562
 30
0.0
 11
76.6315
 21
129.315
 31
0.0
  0
LINE
  8
0
 62
     0
 10
76.6315
 20
129.315
 30
0.0
 11
76.1848
 21
129.224
 31
0.0
  0
LINE
  8
0
 62
     0
 10
76.1848
 20
129.224
 30
0.0
 11
75.7372
 21
129.315
 31
0.0
  0
LINE
  8
0
 62
     0
 10
75.7372
 20
129.315
 30
0.0
 11
75.3717
 21
129.562
 31
0.0
  0
LINE
  8
0
 62
     0
 10
75.3717
 20
129.562
 30
0.0
 11
75.1251
 21
129.927
 31
0.0
  0
LINE
  8
0
 62
     0
 10
75.1251
 20
129.927
 30
0.0
 11
75.0355
 21
130.374
 31
0.0
  0
LINE
  8
0
 62
     0
 10
75.0355
 20
130.374
 30
0.0
 11
75.1251
 21
130.821
 31
0.0
  0
LINE
  8
0
 62
     0
 10
75.1251
 20
130.821
 30
0.0
 11
75.3717
 21
131.188
 31
0.0
  0
LINE
  8
0
 62
     0
 10
75.3717
 20
131.188
 30
0.0
 11
75.7372
 21
131.434
 31
0.0
  0
LINE
  8
0
 62
     0
 10
75.7372
 20
131.434
 30
0.0
 11
76.1848
 21
131.524
 31
0.0
  0
LINE
  8
0
 62
     0
 10
76.1848
 20
131.524
 30
0.0
 11
76.6315
 21
131.434
 31
0.0
  0
LINE
  8
0
 62
     0
 10
76.6315
 20
131.434
 30
0.0
 11
76.998
 21
131.188
 31
0.0
  0
LINE
  8
0
 62
     0
 10
76.998
 20
131.188
 30
0.0
 11
77.2446
 21
130.821
 31
0.0
  0
LINE
  8
0
 62
     0
 10
77.2446
 20
130.821
 30
0.0
 11
77.3356
 21
130.374
 31
0.0
  0
LINE
  8
0
 62
     0
 10
266.67
 20
6.50709
 30
0.0
 11
266.579
 21
6.06062
 31
0.0
  0
LINE
  8
0
 62
     0
 10
266.579
 20
6.06062
 30
0.0
 11
266.332
 21
5.69542
 31
0.0
  0
LINE
  8
0
 62
     0
 10
266.332
 20
5.69542
 30
0.0
 11
265.966
 21
5.44876
 31
0.0
  0
LINE
  8
0
 62
     0
 10
265.966
 20
5.44876
 30
0.0
 11
265.519
 21
5.35781
 31
0.0
  0
LINE
  8
0
 62
     0
 10
265.519
 20
5.35781
 30
0.0
 11
265.071
 21
5.44876
 31
0.0
  0
LINE
  8
0
 62
     0
 10
265.071
 20
5.44876
 30
0.0
 11
264.706
 21
5.69542
 31
0.0
  0
LINE
  8
0
 62
     0
 10
264.706
 20
5.69542
 30
0.0
 11
264.459
 21
6.06062
 31
0.0
  0
LINE
  8
0
 62
     0
 10
264.459
 20
6.06062
 30
0.0
 11
264.37
 21
6.50709
 31
0.0
  0
LINE
  8
0
 62
     0
 10
264.37
 20
6.50709
 30
0.0
 11
264.459
 21
6.95494
 31
0.0
  0
LINE
  8
0
 62
     0
 10
264.459
 20
6.95494
 30
0.0
 11
264.706
 21
7.32151
 31
0.0
  0
LINE
  8
0
 62
     0
 10
264.706
 20
7.32151
 30
0.0
 11
265.071
 21
7.56818
 31
0.0
  0
LINE
  8
0
 62
     0
 10
265.071
 20
7.56818
 30
0.0
 11
265.519
 21
7.65775
 31
0.0
  0
LINE
  8
0
 62
     0
 10
265.519
 20
7.65775
 30
0.0
 11
265.966
 21
7.56818
 31
0.0
  0
LINE
  8
0
 62
     0
 10
265.966
 20
7.56818
 30
0.0
 11
266.332
 21
7.32151
 31
0.0
  0
LINE
  8
0
 62
     0
 10
266.332
 20
7.32151
 30
0.0
 11
266.579
 21
6.95494
 31
0.0
  0
LINE
  8
0
 62
     0
 10
266.579
 20
6.95494
 30
0.0
 11
266.67
 21
6.50709
 31
0.0
  0
LINE
  8
0
 62
     0
 10
266.67
 20
130.372
 30
0.0
 11
266.579
 21
129.926
 31
0.0
  0
LINE
  8
0
 62
     0
 10
266.579
 20
129.926
 30
0.0
 11
266.332
 21
129.559
 31
0.0
  0
LINE
  8
0
 62
     0
 10
266.332
 20
129.559
 30
0.0
 11
265.967
 21
129.312
 31
0.0
  0
LINE
  8
0
 62
     0
 10
265.967
 20
129.312
 30
0.0
 11
265.52
 21
129.221
 31
0.0
  0
LINE
  8
0
 62
     0
 10
265.52
 20
129.221
 30
0.0
 11
265.073
 21
129.312
 31
0.0
  0
LINE
  8
0
 62
     0
 10
265.073
 20
129.312
 30
0.0
 11
264.706
 21
129.559
 31
0.0
  0
LINE
  8
0
 62
     0
 10
264.706
 20
129.559
 30
0.0
 11
264.459
 21
129.926
 31
0.0
  0
LINE
  8
0
 62
     0
 10
264.459
 20
129.926
 30
0.0
 11
264.37
 21
130.372
 31
0.0
  0
LINE
  8
0
 62
     0
 10
264.37
 20
130.372
 30
0.0
 11
264.459
 21
130.82
 31
0.0
  0
LINE
  8
0
 62
     0
 10
264.459
 20
130.82
 30
0.0
 11
264.706
 21
131.185
 31
0.0
  0
LINE
  8
0
 62
     0
 10
264.706
 20
131.185
 30
0.0
 11
265.073
 21
131.432
 31
0.0
  0
LINE
  8
0
 62
     0
 10
265.073
 20
131.432
 30
0.0
 11
265.52
 21
131.521
 31
0.0
  0
LINE
  8
0
 62
     0
 10
265.52
 20
131.521
 30
0.0
 11
265.967
 21
131.432
 31
0.0
  0
LINE
  8
0
 62
     0
 10
265.967
 20
131.432
 30
0.0
 11
266.332
 21
131.185
 31
0.0
  0
LINE
  8
0
 62
     0
 10
266.332
 20
131.185
 30
0.0
 11
266.579
 21
130.82
 31
0.0
  0
LINE
  8
0
 62
     0
 10
266.579
 20
130.82
 30
0.0
 11
266.67
 21
130.372
 31
0.0
  0
LINE
  8
0
 62
     0
 10
183.345
 20
19.5847
 30
0.0
 11
181.671
 21
19.5847
 31
0.0
  0
LINE
  8
0
 62
     0
 10
181.671
 20
19.5847
 30
0.0
 11
181.671
 21
16.3546
 31
0.0
  0
LINE
  8
0
 62
     0
 10
181.671
 20
16.3546
 30
0.0
 11
141.996
 21
16.3546
 31
0.0
  0
LINE
  8
0
 62
     0
 10
141.996
 20
16.3546
 30
0.0
 11
141.996
 21
16.954
 31
0.0
  0
LINE
  8
0
 62
     0
 10
141.996
 20
16.954
 30
0.0
 11
142.795
 21
16.954
 31
0.0
  0
LINE
  8
0
 62
     0
 10
142.795
 20
16.954
 30
0.0
 11
142.795
 21
20.0546
 31
0.0
  0
LINE
  8
0
 62
     0
 10
142.795
 20
20.0546
 30
0.0
 11
141.996
 21
20.0546
 31
0.0
  0
LINE
  8
0
 62
     0
 10
141.996
 20
20.0546
 30
0.0
 11
141.996
 21
21.0537
 31
0.0
  0
LINE
  8
0
 62
     0
 10
141.996
 20
21.0537
 30
0.0
 11
127.995
 21
21.0537
 31
0.0
  0
LINE
  8
0
 62
     0
 10
127.995
 20
21.0537
 30
0.0
 11
127.995
 21
20.0546
 31
0.0
  0
LINE
  8
0
 62
     0
 10
127.995
 20
20.0546
 30
0.0
 11
127.196
 21
20.0546
 31
0.0
  0
LINE
  8
0
 62
     0
 10
127.196
 20
20.0546
 30
0.0
 11
127.196
 21
16.954
 31
0.0
  0
LINE
  8
0
 62
     0
 10
127.196
 20
16.954
 30
0.0
 11
127.995
 21
16.954
 31
0.0
  0
LINE
  8
0
 62
     0
 10
127.995
 20
16.954
 30
0.0
 11
127.995
 21
16.3546
 31
0.0
  0
LINE
  8
0
 62
     0
 10
127.995
 20
16.3546
 30
0.0
 11
88.3211
 21
16.3546
 31
0.0
  0
LINE
  8
0
 62
     0
 10
88.3211
 20
16.3546
 30
0.0
 11
88.3211
 21
19.5847
 31
0.0
  0
LINE
  8
0
 62
     0
 10
88.3211
 20
19.5847
 30
0.0
 11
86.6454
 21
19.5847
 31
0.0
  0
LINE
  8
0
 62
     0
 10
86.6454
 20
19.5847
 30
0.0
 11
86.6454
 21
20.5038
 31
0.0
  0
LINE
  8
0
 62
     0
 10
86.6454
 20
20.5038
 30
0.0
 11
83.3452
 21
20.5038
 31
0.0
  0
LINE
  8
0
 62
     0
 10
83.3452
 20
20.5038
 30
0.0
 11
83.3452
 21
19.5847
 31
0.0
  0
LINE
  8
0
 62
     0
 10
83.3452
 20
19.5847
 30
0.0
 11
81.6709
 21
19.5847
 31
0.0
  0
LINE
  8
0
 62
     0
 10
81.6709
 20
19.5847
 30
0.0
 11
81.6709
 21
16.3546
 31
0.0
  0
LINE
  8
0
 62
     0
 10
81.6709
 20
16.3546
 30
0.0
 11
80.7956
 21
16.3546
 31
0.0
  0
LINE
  8
0
 62
     0
 10
80.7956
 20
16.3546
 30
0.0
 11
80.7956
 21
13.5544
 31
0.0
  0
LINE
  8
0
 62
     0
 10
80.7956
 20
13.5544
 30
0.0
 11
81.6709
 21
13.5544
 31
0.0
  0
LINE
  8
0
 62
     0
 10
81.6709
 20
13.5544
 30
0.0
 11
81.6709
 21
7.2843
 31
0.0
  0
LINE
  8
0
 62
     0
 10
81.6709
 20
7.2843
 30
0.0
 11
83.3452
 21
7.2843
 31
0.0
  0
LINE
  8
0
 62
     0
 10
83.3452
 20
7.2843
 30
0.0
 11
83.3452
 21
6.30453
 31
0.0
  0
LINE
  8
0
 62
     0
 10
83.3452
 20
6.30453
 30
0.0
 11
86.6454
 21
6.30453
 31
0.0
  0
LINE
  8
0
 62
     0
 10
86.6454
 20
6.30453
 30
0.0
 11
86.6454
 21
7.2843
 31
0.0
  0
LINE
  8
0
 62
     0
 10
86.6454
 20
7.2843
 30
0.0
 11
88.3211
 21
7.2843
 31
0.0
  0
LINE
  8
0
 62
     0
 10
88.3211
 20
7.2843
 30
0.0
 11
88.3211
 21
11.7547
 31
0.0
  0
LINE
  8
0
 62
     0
 10
88.3211
 20
11.7547
 30
0.0
 11
127.995
 21
11.7547
 31
0.0
  0
LINE
  8
0
 62
     0
 10
127.995
 20
11.7547
 30
0.0
 11
127.995
 21
11.1538
 31
0.0
  0
LINE
  8
0
 62
     0
 10
127.995
 20
11.1538
 30
0.0
 11
127.196
 21
11.1538
 31
0.0
  0
LINE
  8
0
 62
     0
 10
127.196
 20
11.1538
 30
0.0
 11
127.196
 21
8.05462
 31
0.0
  0
LINE
  8
0
 62
     0
 10
127.196
 20
8.05462
 30
0.0
 11
127.995
 21
8.05462
 31
0.0
  0
LINE
  8
0
 62
     0
 10
127.995
 20
8.05462
 30
0.0
 11
127.995
 21
7.05418
 31
0.0
  0
LINE
  8
0
 62
     0
 10
127.995
 20
7.05418
 30
0.0
 11
141.996
 21
7.05418
 31
0.0
  0
LINE
  8
0
 62
     0
 10
141.996
 20
7.05418
 30
0.0
 11
141.996
 21
8.05462
 31
0.0
  0
LINE
  8
0
 62
     0
 10
141.996
 20
8.05462
 30
0.0
 11
142.795
 21
8.05462
 31
0.0
  0
LINE
  8
0
 62
     0
 10
142.795
 20
8.05462
 30
0.0
 11
142.795
 21
11.1538
 31
0.0
  0
LINE
  8
0
 62
     0
 10
142.795
 20
11.1538
 30
0.0
 11
141.996
 21
11.1538
 31
0.0
  0
LINE
  8
0
 62
     0
 10
141.996
 20
11.1538
 30
0.0
 11
141.996
 21
11.7547
 31
0.0
  0
LINE
  8
0
 62
     0
 10
141.996
 20
11.7547
 30
0.0
 11
181.671
 21
11.7547
 31
0.0
  0
LINE
  8
0
 62
     0
 10
181.671
 20
11.7547
 30
0.0
 11
181.671
 21
7.2843
 31
0.0
  0
LINE
  8
0
 62
     0
 10
181.671
 20
7.2843
 30
0.0
 11
183.345
 21
7.2843
 31
0.0
  0
LINE
  8
0
 62
     0
 10
183.345
 20
7.2843
 30
0.0
 11
183.345
 21
6.30453
 31
0.0
  0
LINE
  8
0
 62
     0
 10
183.345
 20
6.30453
 30
0.0
 11
186.646
 21
6.30453
 31
0.0
  0
LINE
  8
0
 62
     0
 10
186.646
 20
6.30453
 30
0.0
 11
186.646
 21
7.2843
 31
0.0
  0
LINE
  8
0
 62
     0
 10
186.646
 20
7.2843
 30
0.0
 11
188.32
 21
7.2843
 31
0.0
  0
LINE
  8
0
 62
     0
 10
188.32
 20
7.2843
 30
0.0
 11
188.32
 21
13.5544
 31
0.0
  0
LINE
  8
0
 62
     0
 10
188.32
 20
13.5544
 30
0.0
 11
189.195
 21
13.5544
 31
0.0
  0
LINE
  8
0
 62
     0
 10
189.195
 20
13.5544
 30
0.0
 11
189.195
 21
16.3546
 31
0.0
  0
LINE
  8
0
 62
     0
 10
189.195
 20
16.3546
 30
0.0
 11
188.32
 21
16.3546
 31
0.0
  0
LINE
  8
0
 62
     0
 10
188.32
 20
16.3546
 30
0.0
 11
188.32
 21
19.5847
 31
0.0
  0
LINE
  8
0
 62
     0
 10
188.32
 20
19.5847
 30
0.0
 11
186.646
 21
19.5847
 31
0.0
  0
LINE
  8
0
 62
     0
 10
186.646
 20
19.5847
 30
0.0
 11
186.646
 21
20.5038
 31
0.0
  0
LINE
  8
0
 62
     0
 10
186.646
 20
20.5038
 30
0.0
 11
183.345
 21
20.5038
 31
0.0
  0
LINE
  8
0
 62
     0
 10
183.345
 20
20.5038
 30
0.0
 11
183.345
 21
19.5847
 31
0.0
  0
LINE
  8
0
 62
     0
 10
22.9333
 20
8.05462
 30
0.0
 11
23.7339
 21
8.05462
 31
0.0
  0
LINE
  8
0
 62
     0
 10
23.7339
 20
8.05462
 30
0.0
 11
23.7339
 21
11.1538
 31
0.0
  0
LINE
  8
0
 62
     0
 10
23.7339
 20
11.1538
 30
0.0
 11
22.9333
 21
11.1538
 31
0.0
  0
LINE
  8
0
 62
     0
 10
22.9333
 20
11.1538
 30
0.0
 11
22.9333
 21
16.954
 31
0.0
  0
LINE
  8
0
 62
     0
 10
22.9333
 20
16.954
 30
0.0
 11
23.7339
 21
16.954
 31
0.0
  0
LINE
  8
0
 62
     0
 10
23.7339
 20
16.954
 30
0.0
 11
23.7339
 21
20.0546
 31
0.0
  0
LINE
  8
0
 62
     0
 10
23.7339
 20
20.0546
 30
0.0
 11
22.9333
 21
20.0546
 31
0.0
  0
LINE
  8
0
 62
     0
 10
22.9333
 20
20.0546
 30
0.0
 11
22.9333
 21
21.0537
 31
0.0
  0
LINE
  8
0
 62
     0
 10
22.9333
 20
21.0537
 30
0.0
 11
8.93381
 21
21.0537
 31
0.0
  0
LINE
  8
0
 62
     0
 10
8.93381
 20
21.0537
 30
0.0
 11
8.93381
 21
20.0546
 31
0.0
  0
LINE
  8
0
 62
     0
 10
8.93381
 20
20.0546
 30
0.0
 11
8.13319
 21
20.0546
 31
0.0
  0
LINE
  8
0
 62
     0
 10
8.13319
 20
20.0546
 30
0.0
 11
8.13319
 21
16.954
 31
0.0
  0
LINE
  8
0
 62
     0
 10
8.13319
 20
16.954
 30
0.0
 11
8.93381
 21
16.954
 31
0.0
  0
LINE
  8
0
 62
     0
 10
8.93381
 20
16.954
 30
0.0
 11
8.93381
 21
11.1538
 31
0.0
  0
LINE
  8
0
 62
     0
 10
8.93381
 20
11.1538
 30
0.0
 11
8.13319
 21
11.1538
 31
0.0
  0
LINE
  8
0
 62
     0
 10
8.13319
 20
11.1538
 30
0.0
 11
8.13319
 21
8.05462
 31
0.0
  0
LINE
  8
0
 62
     0
 10
8.13319
 20
8.05462
 30
0.0
 11
8.93381
 21
8.05462
 31
0.0
  0
LINE
  8
0
 62
     0
 10
8.93381
 20
8.05462
 30
0.0
 11
8.93381
 21
7.05418
 31
0.0
  0
LINE
  8
0
 62
     0
 10
8.93381
 20
7.05418
 30
0.0
 11
22.9333
 21
7.05418
 31
0.0
  0
LINE
  8
0
 62
     0
 10
22.9333
 20
7.05418
 30
0.0
 11
22.9333
 21
8.05462
 31
0.0
  0
LINE
  8
0
 62
     0
 10
46.7459
 20
8.05462
 30
0.0
 11
47.5449
 21
8.05462
 31
0.0
  0
LINE
  8
0
 62
     0
 10
47.5449
 20
8.05462
 30
0.0
 11
47.5449
 21
11.1538
 31
0.0
  0
LINE
  8
0
 62
     0
 10
47.5449
 20
11.1538
 30
0.0
 11
46.7459
 21
11.1538
 31
0.0
  0
LINE
  8
0
 62
     0
 10
46.7459
 20
11.1538
 30
0.0
 11
46.7459
 21
16.954
 31
0.0
  0
LINE
  8
0
 62
     0
 10
46.7459
 20
16.954
 30
0.0
 11
47.5449
 21
16.954
 31
0.0
  0
LINE
  8
0
 62
     0
 10
47.5449
 20
16.954
 30
0.0
 11
47.5449
 21
20.0546
 31
0.0
  0
LINE
  8
0
 62
     0
 10
47.5449
 20
20.0546
 30
0.0
 11
46.7459
 21
20.0546
 31
0.0
  0
LINE
  8
0
 62
     0
 10
46.7459
 20
20.0546
 30
0.0
 11
46.7459
 21
21.0537
 31
0.0
  0
LINE
  8
0
 62
     0
 10
46.7459
 20
21.0537
 30
0.0
 11
32.7449
 21
21.0537
 31
0.0
  0
LINE
  8
0
 62
     0
 10
32.7449
 20
21.0537
 30
0.0
 11
32.7449
 21
20.0546
 31
0.0
  0
LINE
  8
0
 62
     0
 10
32.7449
 20
20.0546
 30
0.0
 11
31.9457
 21
20.0546
 31
0.0
  0
LINE
  8
0
 62
     0
 10
31.9457
 20
20.0546
 30
0.0
 11
31.9457
 21
16.954
 31
0.0
  0
LINE
  8
0
 62
     0
 10
31.9457
 20
16.954
 30
0.0
 11
32.7449
 21
16.954
 31
0.0
  0
LINE
  8
0
 62
     0
 10
32.7449
 20
16.954
 30
0.0
 11
32.7449
 21
11.1538
 31
0.0
  0
LINE
  8
0
 62
     0
 10
32.7449
 20
11.1538
 30
0.0
 11
31.9457
 21
11.1538
 31
0.0
  0
LINE
  8
0
 62
     0
 10
31.9457
 20
11.1538
 30
0.0
 11
31.9457
 21
8.05462
 31
0.0
  0
LINE
  8
0
 62
     0
 10
31.9457
 20
8.05462
 30
0.0
 11
32.7449
 21
8.05462
 31
0.0
  0
LINE
  8
0
 62
     0
 10
32.7449
 20
8.05462
 30
0.0
 11
32.7449
 21
7.05418
 31
0.0
  0
LINE
  8
0
 62
     0
 10
32.7449
 20
7.05418
 30
0.0
 11
46.7459
 21
7.05418
 31
0.0
  0
LINE
  8
0
 62
     0
 10
46.7459
 20
7.05418
 30
0.0
 11
46.7459
 21
8.05462
 31
0.0
  0
LINE
  8
0
 62
     0
 10
70.5584
 20
8.05462
 30
0.0
 11
71.3588
 21
8.05462
 31
0.0
  0
LINE
  8
0
 62
     0
 10
71.3588
 20
8.05462
 30
0.0
 11
71.3588
 21
11.1538
 31
0.0
  0
LINE
  8
0
 62
     0
 10
71.3588
 20
11.1538
 30
0.0
 11
70.5584
 21
11.1538
 31
0.0
  0
LINE
  8
0
 62
     0
 10
70.5584
 20
11.1538
 30
0.0
 11
70.5584
 21
16.954
 31
0.0
  0
LINE
  8
0
 62
     0
 10
70.5584
 20
16.954
 30
0.0
 11
71.3588
 21
16.954
 31
0.0
  0
LINE
  8
0
 62
     0
 10
71.3588
 20
16.954
 30
0.0
 11
71.3588
 21
20.0546
 31
0.0
  0
LINE
  8
0
 62
     0
 10
71.3588
 20
20.0546
 30
0.0
 11
70.5584
 21
20.0546
 31
0.0
  0
LINE
  8
0
 62
     0
 10
70.5584
 20
20.0546
 30
0.0
 11
70.5584
 21
21.0537
 31
0.0
  0
LINE
  8
0
 62
     0
 10
70.5584
 20
21.0537
 30
0.0
 11
56.5587
 21
21.0537
 31
0.0
  0
LINE
  8
0
 62
     0
 10
56.5587
 20
21.0537
 30
0.0
 11
56.5587
 21
20.0546
 31
0.0
  0
LINE
  8
0
 62
     0
 10
56.5587
 20
20.0546
 30
0.0
 11
55.7583
 21
20.0546
 31
0.0
  0
LINE
  8
0
 62
     0
 10
55.7583
 20
20.0546
 30
0.0
 11
55.7583
 21
16.954
 31
0.0
  0
LINE
  8
0
 62
     0
 10
55.7583
 20
16.954
 30
0.0
 11
56.5587
 21
16.954
 31
0.0
  0
LINE
  8
0
 62
     0
 10
56.5587
 20
16.954
 30
0.0
 11
56.5587
 21
11.1538
 31
0.0
  0
LINE
  8
0
 62
     0
 10
56.5587
 20
11.1538
 30
0.0
 11
55.7583
 21
11.1538
 31
0.0
  0
LINE
  8
0
 62
     0
 10
55.7583
 20
11.1538
 30
0.0
 11
55.7583
 21
8.05462
 31
0.0
  0
LINE
  8
0
 62
     0
 10
55.7583
 20
8.05462
 30
0.0
 11
56.5587
 21
8.05462
 31
0.0
  0
LINE
  8
0
 62
     0
 10
56.5587
 20
8.05462
 30
0.0
 11
56.5587
 21
7.05418
 31
0.0
  0
LINE
  8
0
 62
     0
 10
56.5587
 20
7.05418
 30
0.0
 11
70.5584
 21
7.05418
 31
0.0
  0
LINE
  8
0
 62
     0
 10
70.5584
 20
7.05418
 30
0.0
 11
70.5584
 21
8.05462
 31
0.0
  0
LINE
  8
0
 62
     0
 10
213.433
 20
8.05462
 30
0.0
 11
214.234
 21
8.05462
 31
0.0
  0
LINE
  8
0
 62
     0
 10
214.234
 20
8.05462
 30
0.0
 11
214.234
 21
11.1538
 31
0.0
  0
LINE
  8
0
 62
     0
 10
214.234
 20
11.1538
 30
0.0
 11
213.433
 21
11.1538
 31
0.0
  0
LINE
  8
0
 62
     0
 10
213.433
 20
11.1538
 30
0.0
 11
213.433
 21
16.954
 31
0.0
  0
LINE
  8
0
 62
     0
 10
213.433
 20
16.954
 30
0.0
 11
214.234
 21
16.954
 31
0.0
  0
LINE
  8
0
 62
     0
 10
214.234
 20
16.954
 30
0.0
 11
214.234
 21
20.0546
 31
0.0
  0
LINE
  8
0
 62
     0
 10
214.234
 20
20.0546
 30
0.0
 11
213.433
 21
20.0546
 31
0.0
  0
LINE
  8
0
 62
     0
 10
213.433
 20
20.0546
 30
0.0
 11
213.433
 21
21.0537
 31
0.0
  0
LINE
  8
0
 62
     0
 10
213.433
 20
21.0537
 30
0.0
 11
199.434
 21
21.0537
 31
0.0
  0
LINE
  8
0
 62
     0
 10
199.434
 20
21.0537
 30
0.0
 11
199.434
 21
20.0546
 31
0.0
  0
LINE
  8
0
 62
     0
 10
199.434
 20
20.0546
 30
0.0
 11
198.633
 21
20.0546
 31
0.0
  0
LINE
  8
0
 62
     0
 10
198.633
 20
20.0546
 30
0.0
 11
198.633
 21
16.954
 31
0.0
  0
LINE
  8
0
 62
     0
 10
198.633
 20
16.954
 30
0.0
 11
199.434
 21
16.954
 31
0.0
  0
LINE
  8
0
 62
     0
 10
199.434
 20
16.954
 30
0.0
 11
199.434
 21
11.1538
 31
0.0
  0
LINE
  8
0
 62
     0
 10
199.434
 20
11.1538
 30
0.0
 11
198.633
 21
11.1538
 31
0.0
  0
LINE
  8
0
 62
     0
 10
198.633
 20
11.1538
 30
0.0
 11
198.633
 21
8.05462
 31
0.0
  0
LINE
  8
0
 62
     0
 10
198.633
 20
8.05462
 30
0.0
 11
199.434
 21
8.05462
 31
0.0
  0
LINE
  8
0
 62
     0
 10
199.434
 20
8.05462
 30
0.0
 11
199.434
 21
7.05418
 31
0.0
  0
LINE
  8
0
 62
     0
 10
199.434
 20
7.05418
 30
0.0
 11
213.433
 21
7.05418
 31
0.0
  0
LINE
  8
0
 62
     0
 10
213.433
 20
7.05418
 30
0.0
 11
213.433
 21
8.05462
 31
0.0
  0
LINE
  8
0
 62
     0
 10
237.246
 20
8.05462
 30
0.0
 11
238.045
 21
8.05462
 31
0.0
  0
LINE
  8
0
 62
     0
 10
238.045
 20
8.05462
 30
0.0
 11
238.045
 21
11.1538
 31
0.0
  0
LINE
  8
0
 62
     0
 10
238.045
 20
11.1538
 30
0.0
 11
237.246
 21
11.1538
 31
0.0
  0
LINE
  8
0
 62
     0
 10
237.246
 20
11.1538
 30
0.0
 11
237.246
 21
16.954
 31
0.0
  0
LINE
  8
0
 62
     0
 10
237.246
 20
16.954
 30
0.0
 11
238.045
 21
16.954
 31
0.0
  0
LINE
  8
0
 62
     0
 10
238.045
 20
16.954
 30
0.0
 11
238.045
 21
20.0546
 31
0.0
  0
LINE
  8
0
 62
     0
 10
238.045
 20
20.0546
 30
0.0
 11
237.246
 21
20.0546
 31
0.0
  0
LINE
  8
0
 62
     0
 10
237.246
 20
20.0546
 30
0.0
 11
237.246
 21
21.0537
 31
0.0
  0
LINE
  8
0
 62
     0
 10
237.246
 20
21.0537
 30
0.0
 11
223.245
 21
21.0537
 31
0.0
  0
LINE
  8
0
 62
     0
 10
223.245
 20
21.0537
 30
0.0
 11
223.245
 21
20.0546
 31
0.0
  0
LINE
  8
0
 62
     0
 10
223.245
 20
20.0546
 30
0.0
 11
222.446
 21
20.0546
 31
0.0
  0
LINE
  8
0
 62
     0
 10
222.446
 20
20.0546
 30
0.0
 11
222.446
 21
16.954
 31
0.0
  0
LINE
  8
0
 62
     0
 10
222.446
 20
16.954
 30
0.0
 11
223.245
 21
16.954
 31
0.0
  0
LINE
  8
0
 62
     0
 10
223.245
 20
16.954
 30
0.0
 11
223.245
 21
11.1538
 31
0.0
  0
LINE
  8
0
 62
     0
 10
223.245
 20
11.1538
 30
0.0
 11
222.446
 21
11.1538
 31
0.0
  0
LINE
  8
0
 62
     0
 10
222.446
 20
11.1538
 30
0.0
 11
222.446
 21
8.05462
 31
0.0
  0
LINE
  8
0
 62
     0
 10
222.446
 20
8.05462
 30
0.0
 11
223.245
 21
8.05462
 31
0.0
  0
LINE
  8
0
 62
     0
 10
223.245
 20
8.05462
 30
0.0
 11
223.245
 21
7.05418
 31
0.0
  0
LINE
  8
0
 62
     0
 10
223.245
 20
7.05418
 30
0.0
 11
237.246
 21
7.05418
 31
0.0
  0
LINE
  8
0
 62
     0
 10
237.246
 20
7.05418
 30
0.0
 11
237.246
 21
8.05462
 31
0.0
  0
LINE
  8
0
 62
     0
 10
261.058
 20
8.05462
 30
0.0
 11
261.859
 21
8.05462
 31
0.0
  0
LINE
  8
0
 62
     0
 10
261.859
 20
8.05462
 30
0.0
 11
261.859
 21
11.1538
 31
0.0
  0
LINE
  8
0
 62
     0
 10
261.859
 20
11.1538
 30
0.0
 11
261.058
 21
11.1538
 31
0.0
  0
LINE
  8
0
 62
     0
 10
261.058
 20
11.1538
 30
0.0
 11
261.058
 21
16.954
 31
0.0
  0
LINE
  8
0
 62
     0
 10
261.058
 20
16.954
 30
0.0
 11
261.859
 21
16.954
 31
0.0
  0
LINE
  8
0
 62
     0
 10
261.859
 20
16.954
 30
0.0
 11
261.859
 21
20.0546
 31
0.0
  0
LINE
  8
0
 62
     0
 10
261.859
 20
20.0546
 30
0.0
 11
261.058
 21
20.0546
 31
0.0
  0
LINE
  8
0
 62
     0
 10
261.058
 20
20.0546
 30
0.0
 11
261.058
 21
21.0537
 31
0.0
  0
LINE
  8
0
 62
     0
 10
261.058
 20
21.0537
 30
0.0
 11
247.059
 21
21.0537
 31
0.0
  0
LINE
  8
0
 62
     0
 10
247.059
 20
21.0537
 30
0.0
 11
247.059
 21
20.0546
 31
0.0
  0
LINE
  8
0
 62
     0
 10
247.059
 20
20.0546
 30
0.0
 11
246.258
 21
20.0546
 31
0.0
  0
LINE
  8
0
 62
     0
 10
246.258
 20
20.0546
 30
0.0
 11
246.258
 21
16.954
 31
0.0
  0
LINE
  8
0
 62
     0
 10
246.258
 20
16.954
 30
0.0
 11
247.059
 21
16.954
 31
0.0
  0
LINE
  8
0
 62
     0
 10
247.059
 20
16.954
 30
0.0
 11
247.059
 21
11.1538
 31
0.0
  0
LINE
  8
0
 62
     0
 10
247.059
 20
11.1538
 30
0.0
 11
246.258
 21
11.1538
 31
0.0
  0
LINE
  8
0
 62
     0
 10
246.258
 20
11.1538
 30
0.0
 11
246.258
 21
8.05462
 31
0.0
  0
LINE
  8
0
 62
     0
 10
246.258
 20
8.05462
 30
0.0
 11
247.059
 21
8.05462
 31
0.0
  0
LINE
  8
0
 62
     0
 10
247.059
 20
8.05462
 30
0.0
 11
247.059
 21
7.05418
 31
0.0
  0
LINE
  8
0
 62
     0
 10
247.059
 20
7.05418
 30
0.0
 11
261.058
 21
7.05418
 31
0.0
  0
LINE
  8
0
 62
     0
 10
261.058
 20
7.05418
 30
0.0
 11
261.058
 21
8.05462
 31
0.0
  0
LINE
  8
0
 62
     0
 10
284.871
 20
8.05462
 30
0.0
 11
285.67
 21
8.05462
 31
0.0
  0
LINE
  8
0
 62
     0
 10
285.67
 20
8.05462
 30
0.0
 11
285.67
 21
11.1538
 31
0.0
  0
LINE
  8
0
 62
     0
 10
285.67
 20
11.1538
 30
0.0
 11
284.871
 21
11.1538
 31
0.0
  0
LINE
  8
0
 62
     0
 10
284.871
 20
11.1538
 30
0.0
 11
284.871
 21
16.954
 31
0.0
  0
LINE
  8
0
 62
     0
 10
284.871
 20
16.954
 30
0.0
 11
285.67
 21
16.954
 31
0.0
  0
LINE
  8
0
 62
     0
 10
285.67
 20
16.954
 30
0.0
 11
285.67
 21
20.0546
 31
0.0
  0
LINE
  8
0
 62
     0
 10
285.67
 20
20.0546
 30
0.0
 11
284.871
 21
20.0546
 31
0.0
  0
LINE
  8
0
 62
     0
 10
284.871
 20
20.0546
 30
0.0
 11
284.871
 21
21.0537
 31
0.0
  0
LINE
  8
0
 62
     0
 10
284.871
 20
21.0537
 30
0.0
 11
270.87
 21
21.0537
 31
0.0
  0
LINE
  8
0
 62
     0
 10
270.87
 20
21.0537
 30
0.0
 11
270.87
 21
20.0546
 31
0.0
  0
LINE
  8
0
 62
     0
 10
270.87
 20
20.0546
 30
0.0
 11
270.071
 21
20.0546
 31
0.0
  0
LINE
  8
0
 62
     0
 10
270.071
 20
20.0546
 30
0.0
 11
270.071
 21
16.954
 31
0.0
  0
LINE
  8
0
 62
     0
 10
270.071
 20
16.954
 30
0.0
 11
270.87
 21
16.954
 31
0.0
  0
LINE
  8
0
 62
     0
 10
270.87
 20
16.954
 30
0.0
 11
270.87
 21
11.1538
 31
0.0
  0
LINE
  8
0
 62
     0
 10
270.87
 20
11.1538
 30
0.0
 11
270.071
 21
11.1538
 31
0.0
  0
LINE
  8
0
 62
     0
 10
270.071
 20
11.1538
 30
0.0
 11
270.071
 21
8.05462
 31
0.0
  0
LINE
  8
0
 62
     0
 10
270.071
 20
8.05462
 30
0.0
 11
270.87
 21
8.05462
 31
0.0
  0
LINE
  8
0
 62
     0
 10
270.87
 20
8.05462
 30
0.0
 11
270.87
 21
7.05418
 31
0.0
  0
LINE
  8
0
 62
     0
 10
270.87
 20
7.05418
 30
0.0
 11
284.871
 21
7.05418
 31
0.0
  0
LINE
  8
0
 62
     0
 10
284.871
 20
7.05418
 30
0.0
 11
284.871
 21
8.05462
 31
0.0
  0
LINE
  8
0
 62
     0
 10
311.065
 20
8.05462
 30
0.0
 11
311.865
 21
8.05462
 31
0.0
  0
LINE
  8
0
 62
     0
 10
311.865
 20
8.05462
 30
0.0
 11
311.865
 21
11.1538
 31
0.0
  0
LINE
  8
0
 62
     0
 10
311.865
 20
11.1538
 30
0.0
 11
311.065
 21
11.1538
 31
0.0
  0
LINE
  8
0
 62
     0
 10
311.065
 20
11.1538
 30
0.0
 11
311.065
 21
16.954
 31
0.0
  0
LINE
  8
0
 62
     0
 10
311.065
 20
16.954
 30
0.0
 11
311.865
 21
16.954
 31
0.0
  0
LINE
  8
0
 62
     0
 10
311.865
 20
16.954
 30
0.0
 11
311.865
 21
20.0546
 31
0.0
  0
LINE
  8
0
 62
     0
 10
311.865
 20
20.0546
 30
0.0
 11
311.065
 21
20.0546
 31
0.0
  0
LINE
  8
0
 62
     0
 10
311.065
 20
20.0546
 30
0.0
 11
311.065
 21
21.0537
 31
0.0
  0
LINE
  8
0
 62
     0
 10
311.065
 20
21.0537
 30
0.0
 11
297.065
 21
21.0537
 31
0.0
  0
LINE
  8
0
 62
     0
 10
297.065
 20
21.0537
 30
0.0
 11
297.065
 21
20.0546
 31
0.0
  0
LINE
  8
0
 62
     0
 10
297.065
 20
20.0546
 30
0.0
 11
296.265
 21
20.0546
 31
0.0
  0
LINE
  8
0
 62
     0
 10
296.265
 20
20.0546
 30
0.0
 11
296.265
 21
16.954
 31
0.0
  0
LINE
  8
0
 62
     0
 10
296.265
 20
16.954
 30
0.0
 11
297.065
 21
16.954
 31
0.0
  0
LINE
  8
0
 62
     0
 10
297.065
 20
16.954
 30
0.0
 11
297.065
 21
11.1538
 31
0.0
  0
LINE
  8
0
 62
     0
 10
297.065
 20
11.1538
 30
0.0
 11
296.265
 21
11.1538
 31
0.0
  0
LINE
  8
0
 62
     0
 10
296.265
 20
11.1538
 30
0.0
 11
296.265
 21
8.05462
 31
0.0
  0
LINE
  8
0
 62
     0
 10
296.265
 20
8.05462
 30
0.0
 11
297.065
 21
8.05462
 31
0.0
  0
LINE
  8
0
 62
     0
 10
297.065
 20
8.05462
 30
0.0
 11
297.065
 21
7.05418
 31
0.0
  0
LINE
  8
0
 62
     0
 10
297.065
 20
7.05418
 30
0.0
 11
311.065
 21
7.05418
 31
0.0
  0
LINE
  8
0
 62
     0
 10
311.065
 20
7.05418
 30
0.0
 11
311.065
 21
8.05462
 31
0.0
  0
LINE
  8
0
 62
     0
 10
330.115
 20
8.05462
 30
0.0
 11
330.915
 21
8.05462
 31
0.0
  0
LINE
  8
0
 62
     0
 10
330.915
 20
8.05462
 30
0.0
 11
330.915
 21
11.1538
 31
0.0
  0
LINE
  8
0
 62
     0
 10
330.915
 20
11.1538
 30
0.0
 11
330.115
 21
11.1538
 31
0.0
  0
LINE
  8
0
 62
     0
 10
330.115
 20
11.1538
 30
0.0
 11
330.115
 21
16.954
 31
0.0
  0
LINE
  8
0
 62
     0
 10
330.115
 20
16.954
 30
0.0
 11
330.915
 21
16.954
 31
0.0
  0
LINE
  8
0
 62
     0
 10
330.915
 20
16.954
 30
0.0
 11
330.915
 21
20.0546
 31
0.0
  0
LINE
  8
0
 62
     0
 10
330.915
 20
20.0546
 30
0.0
 11
330.115
 21
20.0546
 31
0.0
  0
LINE
  8
0
 62
     0
 10
330.115
 20
20.0546
 30
0.0
 11
330.115
 21
21.0537
 31
0.0
  0
LINE
  8
0
 62
     0
 10
330.115
 20
21.0537
 30
0.0
 11
316.115
 21
21.0537
 31
0.0
  0
LINE
  8
0
 62
     0
 10
316.115
 20
21.0537
 30
0.0
 11
316.115
 21
20.0546
 31
0.0
  0
LINE
  8
0
 62
     0
 10
316.115
 20
20.0546
 30
0.0
 11
315.315
 21
20.0546
 31
0.0
  0
LINE
  8
0
 62
     0
 10
315.315
 20
20.0546
 30
0.0
 11
315.315
 21
16.954
 31
0.0
  0
LINE
  8
0
 62
     0
 10
315.315
 20
16.954
 30
0.0
 11
316.115
 21
16.954
 31
0.0
  0
LINE
  8
0
 62
     0
 10
316.115
 20
16.954
 30
0.0
 11
316.115
 21
11.1538
 31
0.0
  0
LINE
  8
0
 62
     0
 10
316.115
 20
11.1538
 30
0.0
 11
315.315
 21
11.1538
 31
0.0
  0
LINE
  8
0
 62
     0
 10
315.315
 20
11.1538
 30
0.0
 11
315.315
 21
8.05462
 31
0.0
  0
LINE
  8
0
 62
     0
 10
315.315
 20
8.05462
 30
0.0
 11
316.115
 21
8.05462
 31
0.0
  0
LINE
  8
0
 62
     0
 10
316.115
 20
8.05462
 30
0.0
 11
316.115
 21
7.05418
 31
0.0
  0
LINE
  8
0
 62
     0
 10
316.115
 20
7.05418
 30
0.0
 11
330.115
 21
7.05418
 31
0.0
  0
LINE
  8
0
 62
     0
 10
330.115
 20
7.05418
 30
0.0
 11
330.115
 21
8.05462
 31
0.0
  0
LINE
  8
0
 62
     0
 10
349.165
 20
8.05462
 30
0.0
 11
349.965
 21
8.05462
 31
0.0
  0
LINE
  8
0
 62
     0
 10
349.965
 20
8.05462
 30
0.0
 11
349.965
 21
11.1538
 31
0.0
  0
LINE
  8
0
 62
     0
 10
349.965
 20
11.1538
 30
0.0
 11
349.165
 21
11.1538
 31
0.0
  0
LINE
  8
0
 62
     0
 10
349.165
 20
11.1538
 30
0.0
 11
349.165
 21
16.954
 31
0.0
  0
LINE
  8
0
 62
     0
 10
349.165
 20
16.954
 30
0.0
 11
349.965
 21
16.954
 31
0.0
  0
LINE
  8
0
 62
     0
 10
349.965
 20
16.954
 30
0.0
 11
349.965
 21
20.0546
 31
0.0
  0
LINE
  8
0
 62
     0
 10
349.965
 20
20.0546
 30
0.0
 11
349.165
 21
20.0546
 31
0.0
  0
LINE
  8
0
 62
     0
 10
349.165
 20
20.0546
 30
0.0
 11
349.165
 21
21.0537
 31
0.0
  0
LINE
  8
0
 62
     0
 10
349.165
 20
21.0537
 30
0.0
 11
335.165
 21
21.0537
 31
0.0
  0
LINE
  8
0
 62
     0
 10
335.165
 20
21.0537
 30
0.0
 11
335.165
 21
20.0546
 31
0.0
  0
LINE
  8
0
 62
     0
 10
335.165
 20
20.0546
 30
0.0
 11
334.365
 21
20.0546
 31
0.0
  0
LINE
  8
0
 62
     0
 10
334.365
 20
20.0546
 30
0.0
 11
334.365
 21
16.954
 31
0.0
  0
LINE
  8
0
 62
     0
 10
334.365
 20
16.954
 30
0.0
 11
335.165
 21
16.954
 31
0.0
  0
LINE
  8
0
 62
     0
 10
335.165
 20
16.954
 30
0.0
 11
335.165
 21
11.1538
 31
0.0
  0
LINE
  8
0
 62
     0
 10
335.165
 20
11.1538
 30
0.0
 11
334.365
 21
11.1538
 31
0.0
  0
LINE
  8
0
 62
     0
 10
334.365
 20
11.1538
 30
0.0
 11
334.365
 21
8.05462
 31
0.0
  0
LINE
  8
0
 62
     0
 10
334.365
 20
8.05462
 30
0.0
 11
335.165
 21
8.05462
 31
0.0
  0
LINE
  8
0
 62
     0
 10
335.165
 20
8.05462
 30
0.0
 11
335.165
 21
7.05418
 31
0.0
  0
LINE
  8
0
 62
     0
 10
335.165
 20
7.05418
 30
0.0
 11
349.165
 21
7.05418
 31
0.0
  0
LINE
  8
0
 62
     0
 10
349.165
 20
7.05418
 30
0.0
 11
349.165
 21
8.05462
 31
0.0
  0
LINE
  8
0
 62
     0
 10
273.834
 20
38.6348
 30
0.0
 11
272.159
 21
38.6348
 31
0.0
  0
LINE
  8
0
 62
     0
 10
272.159
 20
38.6348
 30
0.0
 11
272.159
 21
35.4044
 31
0.0
  0
LINE
  8
0
 62
     0
 10
272.159
 20
35.4044
 30
0.0
 11
270.583
 21
35.4044
 31
0.0
  0
LINE
  8
0
 62
     0
 10
270.583
 20
35.4044
 30
0.0
 11
270.583
 21
36.0041
 31
0.0
  0
LINE
  8
0
 62
     0
 10
270.583
 20
36.0041
 30
0.0
 11
271.384
 21
36.0041
 31
0.0
  0
LINE
  8
0
 62
     0
 10
271.384
 20
36.0041
 30
0.0
 11
271.384
 21
39.1047
 31
0.0
  0
LINE
  8
0
 62
     0
 10
271.384
 20
39.1047
 30
0.0
 11
270.583
 21
39.1047
 31
0.0
  0
LINE
  8
0
 62
     0
 10
270.583
 20
39.1047
 30
0.0
 11
270.583
 21
40.1038
 31
0.0
  0
LINE
  8
0
 62
     0
 10
270.583
 20
40.1038
 30
0.0
 11
256.584
 21
40.1038
 31
0.0
  0
LINE
  8
0
 62
     0
 10
256.584
 20
40.1038
 30
0.0
 11
256.584
 21
39.1047
 31
0.0
  0
LINE
  8
0
 62
     0
 10
256.584
 20
39.1047
 30
0.0
 11
255.783
 21
39.1047
 31
0.0
  0
LINE
  8
0
 62
     0
 10
255.783
 20
39.1047
 30
0.0
 11
255.783
 21
36.0041
 31
0.0
  0
LINE
  8
0
 62
     0
 10
255.783
 20
36.0041
 30
0.0
 11
256.584
 21
36.0041
 31
0.0
  0
LINE
  8
0
 62
     0
 10
256.584
 20
36.0041
 30
0.0
 11
256.584
 21
35.4044
 31
0.0
  0
LINE
  8
0
 62
     0
 10
256.584
 20
35.4044
 30
0.0
 11
255.009
 21
35.4044
 31
0.0
  0
LINE
  8
0
 62
     0
 10
255.009
 20
35.4044
 30
0.0
 11
255.009
 21
38.6348
 31
0.0
  0
LINE
  8
0
 62
     0
 10
255.009
 20
38.6348
 30
0.0
 11
253.333
 21
38.6348
 31
0.0
  0
LINE
  8
0
 62
     0
 10
253.333
 20
38.6348
 30
0.0
 11
253.333
 21
39.5538
 31
0.0
  0
LINE
  8
0
 62
     0
 10
253.333
 20
39.5538
 30
0.0
 11
250.033
 21
39.5538
 31
0.0
  0
LINE
  8
0
 62
     0
 10
250.033
 20
39.5538
 30
0.0
 11
250.033
 21
38.6348
 31
0.0
  0
LINE
  8
0
 62
     0
 10
250.033
 20
38.6348
 30
0.0
 11
248.358
 21
38.6348
 31
0.0
  0
LINE
  8
0
 62
     0
 10
248.358
 20
38.6348
 30
0.0
 11
248.358
 21
35.4044
 31
0.0
  0
LINE
  8
0
 62
     0
 10
248.358
 20
35.4044
 30
0.0
 11
247.483
 21
35.4044
 31
0.0
  0
LINE
  8
0
 62
     0
 10
247.483
 20
35.4044
 30
0.0
 11
247.483
 21
32.6044
 31
0.0
  0
LINE
  8
0
 62
     0
 10
247.483
 20
32.6044
 30
0.0
 11
248.358
 21
32.6044
 31
0.0
  0
LINE
  8
0
 62
     0
 10
248.358
 20
32.6044
 30
0.0
 11
248.358
 21
26.3343
 31
0.0
  0
LINE
  8
0
 62
     0
 10
248.358
 20
26.3343
 30
0.0
 11
250.033
 21
26.3343
 31
0.0
  0
LINE
  8
0
 62
     0
 10
250.033
 20
26.3343
 30
0.0
 11
250.033
 21
25.3545
 31
0.0
  0
LINE
  8
0
 62
     0
 10
250.033
 20
25.3545
 30
0.0
 11
253.333
 21
25.3545
 31
0.0
  0
LINE
  8
0
 62
     0
 10
253.333
 20
25.3545
 30
0.0
 11
253.333
 21
26.3343
 31
0.0
  0
LINE
  8
0
 62
     0
 10
253.333
 20
26.3343
 30
0.0
 11
255.009
 21
26.3343
 31
0.0
  0
LINE
  8
0
 62
     0
 10
255.009
 20
26.3343
 30
0.0
 11
255.009
 21
30.8047
 31
0.0
  0
LINE
  8
0
 62
     0
 10
255.009
 20
30.8047
 30
0.0
 11
256.584
 21
30.8047
 31
0.0
  0
LINE
  8
0
 62
     0
 10
256.584
 20
30.8047
 30
0.0
 11
256.584
 21
30.2038
 31
0.0
  0
LINE
  8
0
 62
     0
 10
256.584
 20
30.2038
 30
0.0
 11
255.783
 21
30.2038
 31
0.0
  0
LINE
  8
0
 62
     0
 10
255.783
 20
30.2038
 30
0.0
 11
255.783
 21
27.1046
 31
0.0
  0
LINE
  8
0
 62
     0
 10
255.783
 20
27.1046
 30
0.0
 11
256.584
 21
27.1046
 31
0.0
  0
LINE
  8
0
 62
     0
 10
256.584
 20
27.1046
 30
0.0
 11
256.584
 21
26.1042
 31
0.0
  0
LINE
  8
0
 62
     0
 10
256.584
 20
26.1042
 30
0.0
 11
270.583
 21
26.1042
 31
0.0
  0
LINE
  8
0
 62
     0
 10
270.583
 20
26.1042
 30
0.0
 11
270.583
 21
27.1046
 31
0.0
  0
LINE
  8
0
 62
     0
 10
270.583
 20
27.1046
 30
0.0
 11
271.384
 21
27.1046
 31
0.0
  0
LINE
  8
0
 62
     0
 10
271.384
 20
27.1046
 30
0.0
 11
271.384
 21
30.2038
 31
0.0
  0
LINE
  8
0
 62
     0
 10
271.384
 20
30.2038
 30
0.0
 11
270.583
 21
30.2038
 31
0.0
  0
LINE
  8
0
 62
     0
 10
270.583
 20
30.2038
 30
0.0
 11
270.583
 21
30.8047
 31
0.0
  0
LINE
  8
0
 62
     0
 10
270.583
 20
30.8047
 30
0.0
 11
272.159
 21
30.8047
 31
0.0
  0
LINE
  8
0
 62
     0
 10
272.159
 20
30.8047
 30
0.0
 11
272.159
 21
26.3343
 31
0.0
  0
LINE
  8
0
 62
     0
 10
272.159
 20
26.3343
 30
0.0
 11
273.834
 21
26.3343
 31
0.0
  0
LINE
  8
0
 62
     0
 10
273.834
 20
26.3343
 30
0.0
 11
273.834
 21
25.3545
 31
0.0
  0
LINE
  8
0
 62
     0
 10
273.834
 20
25.3545
 30
0.0
 11
277.133
 21
25.3545
 31
0.0
  0
LINE
  8
0
 62
     0
 10
277.133
 20
25.3545
 30
0.0
 11
277.133
 21
26.3343
 31
0.0
  0
LINE
  8
0
 62
     0
 10
277.133
 20
26.3343
 30
0.0
 11
278.809
 21
26.3343
 31
0.0
  0
LINE
  8
0
 62
     0
 10
278.809
 20
26.3343
 30
0.0
 11
278.809
 21
32.6044
 31
0.0
  0
LINE
  8
0
 62
     0
 10
278.809
 20
32.6044
 30
0.0
 11
279.684
 21
32.6044
 31
0.0
  0
LINE
  8
0
 62
     0
 10
279.684
 20
32.6044
 30
0.0
 11
279.684
 21
35.4044
 31
0.0
  0
LINE
  8
0
 62
     0
 10
279.684
 20
35.4044
 30
0.0
 11
278.809
 21
35.4044
 31
0.0
  0
LINE
  8
0
 62
     0
 10
278.809
 20
35.4044
 30
0.0
 11
278.809
 21
38.6348
 31
0.0
  0
LINE
  8
0
 62
     0
 10
278.809
 20
38.6348
 30
0.0
 11
277.133
 21
38.6348
 31
0.0
  0
LINE
  8
0
 62
     0
 10
277.133
 20
38.6348
 30
0.0
 11
277.133
 21
39.5538
 31
0.0
  0
LINE
  8
0
 62
     0
 10
277.133
 20
39.5538
 30
0.0
 11
273.834
 21
39.5538
 31
0.0
  0
LINE
  8
0
 62
     0
 10
273.834
 20
39.5538
 30
0.0
 11
273.834
 21
38.6348
 31
0.0
  0
LINE
  8
0
 62
     0
 10
22.9333
 20
27.1046
 30
0.0
 11
23.7339
 21
27.1046
 31
0.0
  0
LINE
  8
0
 62
     0
 10
23.7339
 20
27.1046
 30
0.0
 11
23.7339
 21
30.2038
 31
0.0
  0
LINE
  8
0
 62
     0
 10
23.7339
 20
30.2038
 30
0.0
 11
22.9333
 21
30.2038
 31
0.0
  0
LINE
  8
0
 62
     0
 10
22.9333
 20
30.2038
 30
0.0
 11
22.9333
 21
36.0041
 31
0.0
  0
LINE
  8
0
 62
     0
 10
22.9333
 20
36.0041
 30
0.0
 11
23.7339
 21
36.0041
 31
0.0
  0
LINE
  8
0
 62
     0
 10
23.7339
 20
36.0041
 30
0.0
 11
23.7339
 21
39.1047
 31
0.0
  0
LINE
  8
0
 62
     0
 10
23.7339
 20
39.1047
 30
0.0
 11
22.9333
 21
39.1047
 31
0.0
  0
LINE
  8
0
 62
     0
 10
22.9333
 20
39.1047
 30
0.0
 11
22.9333
 21
40.1038
 31
0.0
  0
LINE
  8
0
 62
     0
 10
22.9333
 20
40.1038
 30
0.0
 11
8.93381
 21
40.1038
 31
0.0
  0
LINE
  8
0
 62
     0
 10
8.93381
 20
40.1038
 30
0.0
 11
8.93381
 21
39.1047
 31
0.0
  0
LINE
  8
0
 62
     0
 10
8.93381
 20
39.1047
 30
0.0
 11
8.13319
 21
39.1047
 31
0.0
  0
LINE
  8
0
 62
     0
 10
8.13319
 20
39.1047
 30
0.0
 11
8.13319
 21
36.0041
 31
0.0
  0
LINE
  8
0
 62
     0
 10
8.13319
 20
36.0041
 30
0.0
 11
8.93381
 21
36.0041
 31
0.0
  0
LINE
  8
0
 62
     0
 10
8.93381
 20
36.0041
 30
0.0
 11
8.93381
 21
30.2038
 31
0.0
  0
LINE
  8
0
 62
     0
 10
8.93381
 20
30.2038
 30
0.0
 11
8.13319
 21
30.2038
 31
0.0
  0
LINE
  8
0
 62
     0
 10
8.13319
 20
30.2038
 30
0.0
 11
8.13319
 21
27.1046
 31
0.0
  0
LINE
  8
0
 62
     0
 10
8.13319
 20
27.1046
 30
0.0
 11
8.93381
 21
27.1046
 31
0.0
  0
LINE
  8
0
 62
     0
 10
8.93381
 20
27.1046
 30
0.0
 11
8.93381
 21
26.1042
 31
0.0
  0
LINE
  8
0
 62
     0
 10
8.93381
 20
26.1042
 30
0.0
 11
22.9333
 21
26.1042
 31
0.0
  0
LINE
  8
0
 62
     0
 10
22.9333
 20
26.1042
 30
0.0
 11
22.9333
 21
27.1046
 31
0.0
  0
LINE
  8
0
 62
     0
 10
44.3646
 20
27.1046
 30
0.0
 11
45.1651
 21
27.1046
 31
0.0
  0
LINE
  8
0
 62
     0
 10
45.1651
 20
27.1046
 30
0.0
 11
45.1651
 21
30.2038
 31
0.0
  0
LINE
  8
0
 62
     0
 10
45.1651
 20
30.2038
 30
0.0
 11
44.3646
 21
30.2038
 31
0.0
  0
LINE
  8
0
 62
     0
 10
44.3646
 20
30.2038
 30
0.0
 11
44.3646
 21
36.0041
 31
0.0
  0
LINE
  8
0
 62
     0
 10
44.3646
 20
36.0041
 30
0.0
 11
45.1651
 21
36.0041
 31
0.0
  0
LINE
  8
0
 62
     0
 10
45.1651
 20
36.0041
 30
0.0
 11
45.1651
 21
39.1047
 31
0.0
  0
LINE
  8
0
 62
     0
 10
45.1651
 20
39.1047
 30
0.0
 11
44.3646
 21
39.1047
 31
0.0
  0
LINE
  8
0
 62
     0
 10
44.3646
 20
39.1047
 30
0.0
 11
44.3646
 21
40.1038
 31
0.0
  0
LINE
  8
0
 62
     0
 10
44.3646
 20
40.1038
 30
0.0
 11
30.3651
 21
40.1038
 31
0.0
  0
LINE
  8
0
 62
     0
 10
30.3651
 20
40.1038
 30
0.0
 11
30.3651
 21
39.1047
 31
0.0
  0
LINE
  8
0
 62
     0
 10
30.3651
 20
39.1047
 30
0.0
 11
29.5644
 21
39.1047
 31
0.0
  0
LINE
  8
0
 62
     0
 10
29.5644
 20
39.1047
 30
0.0
 11
29.5644
 21
36.0041
 31
0.0
  0
LINE
  8
0
 62
     0
 10
29.5644
 20
36.0041
 30
0.0
 11
30.3651
 21
36.0041
 31
0.0
  0
LINE
  8
0
 62
     0
 10
30.3651
 20
36.0041
 30
0.0
 11
30.3651
 21
30.2038
 31
0.0
  0
LINE
  8
0
 62
     0
 10
30.3651
 20
30.2038
 30
0.0
 11
29.5644
 21
30.2038
 31
0.0
  0
LINE
  8
0
 62
     0
 10
29.5644
 20
30.2038
 30
0.0
 11
29.5644
 21
27.1046
 31
0.0
  0
LINE
  8
0
 62
     0
 10
29.5644
 20
27.1046
 30
0.0
 11
30.3651
 21
27.1046
 31
0.0
  0
LINE
  8
0
 62
     0
 10
30.3651
 20
27.1046
 30
0.0
 11
30.3651
 21
26.1042
 31
0.0
  0
LINE
  8
0
 62
     0
 10
30.3651
 20
26.1042
 30
0.0
 11
44.3646
 21
26.1042
 31
0.0
  0
LINE
  8
0
 62
     0
 10
44.3646
 20
26.1042
 30
0.0
 11
44.3646
 21
27.1046
 31
0.0
  0
LINE
  8
0
 62
     0
 10
63.4146
 20
27.1046
 30
0.0
 11
64.2151
 21
27.1046
 31
0.0
  0
LINE
  8
0
 62
     0
 10
64.2151
 20
27.1046
 30
0.0
 11
64.2151
 21
30.2038
 31
0.0
  0
LINE
  8
0
 62
     0
 10
64.2151
 20
30.2038
 30
0.0
 11
63.4146
 21
30.2038
 31
0.0
  0
LINE
  8
0
 62
     0
 10
63.4146
 20
30.2038
 30
0.0
 11
63.4146
 21
36.0041
 31
0.0
  0
LINE
  8
0
 62
     0
 10
63.4146
 20
36.0041
 30
0.0
 11
64.2151
 21
36.0041
 31
0.0
  0
LINE
  8
0
 62
     0
 10
64.2151
 20
36.0041
 30
0.0
 11
64.2151
 21
39.1047
 31
0.0
  0
LINE
  8
0
 62
     0
 10
64.2151
 20
39.1047
 30
0.0
 11
63.4146
 21
39.1047
 31
0.0
  0
LINE
  8
0
 62
     0
 10
63.4146
 20
39.1047
 30
0.0
 11
63.4146
 21
40.1038
 31
0.0
  0
LINE
  8
0
 62
     0
 10
63.4146
 20
40.1038
 30
0.0
 11
49.415
 21
40.1038
 31
0.0
  0
LINE
  8
0
 62
     0
 10
49.415
 20
40.1038
 30
0.0
 11
49.415
 21
39.1047
 31
0.0
  0
LINE
  8
0
 62
     0
 10
49.415
 20
39.1047
 30
0.0
 11
48.6145
 21
39.1047
 31
0.0
  0
LINE
  8
0
 62
     0
 10
48.6145
 20
39.1047
 30
0.0
 11
48.6145
 21
36.0041
 31
0.0
  0
LINE
  8
0
 62
     0
 10
48.6145
 20
36.0041
 30
0.0
 11
49.415
 21
36.0041
 31
0.0
  0
LINE
  8
0
 62
     0
 10
49.415
 20
36.0041
 30
0.0
 11
49.415
 21
30.2038
 31
0.0
  0
LINE
  8
0
 62
     0
 10
49.415
 20
30.2038
 30
0.0
 11
48.6145
 21
30.2038
 31
0.0
  0
LINE
  8
0
 62
     0
 10
48.6145
 20
30.2038
 30
0.0
 11
48.6145
 21
27.1046
 31
0.0
  0
LINE
  8
0
 62
     0
 10
48.6145
 20
27.1046
 30
0.0
 11
49.415
 21
27.1046
 31
0.0
  0
LINE
  8
0
 62
     0
 10
49.415
 20
27.1046
 30
0.0
 11
49.415
 21
26.1042
 31
0.0
  0
LINE
  8
0
 62
     0
 10
49.415
 20
26.1042
 30
0.0
 11
63.4146
 21
26.1042
 31
0.0
  0
LINE
  8
0
 62
     0
 10
63.4146
 20
26.1042
 30
0.0
 11
63.4146
 21
27.1046
 31
0.0
  0
LINE
  8
0
 62
     0
 10
82.4646
 20
27.1046
 30
0.0
 11
83.2651
 21
27.1046
 31
0.0
  0
LINE
  8
0
 62
     0
 10
83.2651
 20
27.1046
 30
0.0
 11
83.2651
 21
30.2038
 31
0.0
  0
LINE
  8
0
 62
     0
 10
83.2651
 20
30.2038
 30
0.0
 11
82.4646
 21
30.2038
 31
0.0
  0
LINE
  8
0
 62
     0
 10
82.4646
 20
30.2038
 30
0.0
 11
82.4646
 21
36.0041
 31
0.0
  0
LINE
  8
0
 62
     0
 10
82.4646
 20
36.0041
 30
0.0
 11
83.2651
 21
36.0041
 31
0.0
  0
LINE
  8
0
 62
     0
 10
83.2651
 20
36.0041
 30
0.0
 11
83.2651
 21
39.1047
 31
0.0
  0
LINE
  8
0
 62
     0
 10
83.2651
 20
39.1047
 30
0.0
 11
82.4646
 21
39.1047
 31
0.0
  0
LINE
  8
0
 62
     0
 10
82.4646
 20
39.1047
 30
0.0
 11
82.4646
 21
40.1038
 31
0.0
  0
LINE
  8
0
 62
     0
 10
82.4646
 20
40.1038
 30
0.0
 11
68.465
 21
40.1038
 31
0.0
  0
LINE
  8
0
 62
     0
 10
68.465
 20
40.1038
 30
0.0
 11
68.465
 21
39.1047
 31
0.0
  0
LINE
  8
0
 62
     0
 10
68.465
 20
39.1047
 30
0.0
 11
67.6645
 21
39.1047
 31
0.0
  0
LINE
  8
0
 62
     0
 10
67.6645
 20
39.1047
 30
0.0
 11
67.6645
 21
36.0041
 31
0.0
  0
LINE
  8
0
 62
     0
 10
67.6645
 20
36.0041
 30
0.0
 11
68.465
 21
36.0041
 31
0.0
  0
LINE
  8
0
 62
     0
 10
68.465
 20
36.0041
 30
0.0
 11
68.465
 21
30.2038
 31
0.0
  0
LINE
  8
0
 62
     0
 10
68.465
 20
30.2038
 30
0.0
 11
67.6645
 21
30.2038
 31
0.0
  0
LINE
  8
0
 62
     0
 10
67.6645
 20
30.2038
 30
0.0
 11
67.6645
 21
27.1046
 31
0.0
  0
LINE
  8
0
 62
     0
 10
67.6645
 20
27.1046
 30
0.0
 11
68.465
 21
27.1046
 31
0.0
  0
LINE
  8
0
 62
     0
 10
68.465
 20
27.1046
 30
0.0
 11
68.465
 21
26.1042
 31
0.0
  0
LINE
  8
0
 62
     0
 10
68.465
 20
26.1042
 30
0.0
 11
82.4646
 21
26.1042
 31
0.0
  0
LINE
  8
0
 62
     0
 10
82.4646
 20
26.1042
 30
0.0
 11
82.4646
 21
27.1046
 31
0.0
  0
LINE
  8
0
 62
     0
 10
101.515
 20
27.1046
 30
0.0
 11
102.315
 21
27.1046
 31
0.0
  0
LINE
  8
0
 62
     0
 10
102.315
 20
27.1046
 30
0.0
 11
102.315
 21
30.2038
 31
0.0
  0
LINE
  8
0
 62
     0
 10
102.315
 20
30.2038
 30
0.0
 11
101.515
 21
30.2038
 31
0.0
  0
LINE
  8
0
 62
     0
 10
101.515
 20
30.2038
 30
0.0
 11
101.515
 21
36.0041
 31
0.0
  0
LINE
  8
0
 62
     0
 10
101.515
 20
36.0041
 30
0.0
 11
102.315
 21
36.0041
 31
0.0
  0
LINE
  8
0
 62
     0
 10
102.315
 20
36.0041
 30
0.0
 11
102.315
 21
39.1047
 31
0.0
  0
LINE
  8
0
 62
     0
 10
102.315
 20
39.1047
 30
0.0
 11
101.515
 21
39.1047
 31
0.0
  0
LINE
  8
0
 62
     0
 10
101.515
 20
39.1047
 30
0.0
 11
101.515
 21
40.1038
 31
0.0
  0
LINE
  8
0
 62
     0
 10
101.515
 20
40.1038
 30
0.0
 11
87.515
 21
40.1038
 31
0.0
  0
LINE
  8
0
 62
     0
 10
87.515
 20
40.1038
 30
0.0
 11
87.515
 21
39.1047
 31
0.0
  0
LINE
  8
0
 62
     0
 10
87.515
 20
39.1047
 30
0.0
 11
86.7145
 21
39.1047
 31
0.0
  0
LINE
  8
0
 62
     0
 10
86.7145
 20
39.1047
 30
0.0
 11
86.7145
 21
36.0041
 31
0.0
  0
LINE
  8
0
 62
     0
 10
86.7145
 20
36.0041
 30
0.0
 11
87.515
 21
36.0041
 31
0.0
  0
LINE
  8
0
 62
     0
 10
87.515
 20
36.0041
 30
0.0
 11
87.515
 21
30.2038
 31
0.0
  0
LINE
  8
0
 62
     0
 10
87.515
 20
30.2038
 30
0.0
 11
86.7145
 21
30.2038
 31
0.0
  0
LINE
  8
0
 62
     0
 10
86.7145
 20
30.2038
 30
0.0
 11
86.7145
 21
27.1046
 31
0.0
  0
LINE
  8
0
 62
     0
 10
86.7145
 20
27.1046
 30
0.0
 11
87.515
 21
27.1046
 31
0.0
  0
LINE
  8
0
 62
     0
 10
87.515
 20
27.1046
 30
0.0
 11
87.515
 21
26.1042
 31
0.0
  0
LINE
  8
0
 62
     0
 10
87.515
 20
26.1042
 30
0.0
 11
101.515
 21
26.1042
 31
0.0
  0
LINE
  8
0
 62
     0
 10
101.515
 20
26.1042
 30
0.0
 11
101.515
 21
27.1046
 31
0.0
  0
LINE
  8
0
 62
     0
 10
120.565
 20
27.1046
 30
0.0
 11
121.365
 21
27.1046
 31
0.0
  0
LINE
  8
0
 62
     0
 10
121.365
 20
27.1046
 30
0.0
 11
121.365
 21
30.2038
 31
0.0
  0
LINE
  8
0
 62
     0
 10
121.365
 20
30.2038
 30
0.0
 11
120.565
 21
30.2038
 31
0.0
  0
LINE
  8
0
 62
     0
 10
120.565
 20
30.2038
 30
0.0
 11
120.565
 21
36.0041
 31
0.0
  0
LINE
  8
0
 62
     0
 10
120.565
 20
36.0041
 30
0.0
 11
121.365
 21
36.0041
 31
0.0
  0
LINE
  8
0
 62
     0
 10
121.365
 20
36.0041
 30
0.0
 11
121.365
 21
39.1047
 31
0.0
  0
LINE
  8
0
 62
     0
 10
121.365
 20
39.1047
 30
0.0
 11
120.565
 21
39.1047
 31
0.0
  0
LINE
  8
0
 62
     0
 10
120.565
 20
39.1047
 30
0.0
 11
120.565
 21
40.1038
 31
0.0
  0
LINE
  8
0
 62
     0
 10
120.565
 20
40.1038
 30
0.0
 11
106.565
 21
40.1038
 31
0.0
  0
LINE
  8
0
 62
     0
 10
106.565
 20
40.1038
 30
0.0
 11
106.565
 21
39.1047
 31
0.0
  0
LINE
  8
0
 62
     0
 10
106.565
 20
39.1047
 30
0.0
 11
105.765
 21
39.1047
 31
0.0
  0
LINE
  8
0
 62
     0
 10
105.765
 20
39.1047
 30
0.0
 11
105.765
 21
36.0041
 31
0.0
  0
LINE
  8
0
 62
     0
 10
105.765
 20
36.0041
 30
0.0
 11
106.565
 21
36.0041
 31
0.0
  0
LINE
  8
0
 62
     0
 10
106.565
 20
36.0041
 30
0.0
 11
106.565
 21
30.2038
 31
0.0
  0
LINE
  8
0
 62
     0
 10
106.565
 20
30.2038
 30
0.0
 11
105.765
 21
30.2038
 31
0.0
  0
LINE
  8
0
 62
     0
 10
105.765
 20
30.2038
 30
0.0
 11
105.765
 21
27.1046
 31
0.0
  0
LINE
  8
0
 62
     0
 10
105.765
 20
27.1046
 30
0.0
 11
106.565
 21
27.1046
 31
0.0
  0
LINE
  8
0
 62
     0
 10
106.565
 20
27.1046
 30
0.0
 11
106.565
 21
26.1042
 31
0.0
  0
LINE
  8
0
 62
     0
 10
106.565
 20
26.1042
 30
0.0
 11
120.565
 21
26.1042
 31
0.0
  0
LINE
  8
0
 62
     0
 10
120.565
 20
26.1042
 30
0.0
 11
120.565
 21
27.1046
 31
0.0
  0
LINE
  8
0
 62
     0
 10
139.615
 20
27.1046
 30
0.0
 11
140.415
 21
27.1046
 31
0.0
  0
LINE
  8
0
 62
     0
 10
140.415
 20
27.1046
 30
0.0
 11
140.415
 21
30.2038
 31
0.0
  0
LINE
  8
0
 62
     0
 10
140.415
 20
30.2038
 30
0.0
 11
139.615
 21
30.2038
 31
0.0
  0
LINE
  8
0
 62
     0
 10
139.615
 20
30.2038
 30
0.0
 11
139.615
 21
36.0041
 31
0.0
  0
LINE
  8
0
 62
     0
 10
139.615
 20
36.0041
 30
0.0
 11
140.415
 21
36.0041
 31
0.0
  0
LINE
  8
0
 62
     0
 10
140.415
 20
36.0041
 30
0.0
 11
140.415
 21
39.1047
 31
0.0
  0
LINE
  8
0
 62
     0
 10
140.415
 20
39.1047
 30
0.0
 11
139.615
 21
39.1047
 31
0.0
  0
LINE
  8
0
 62
     0
 10
139.615
 20
39.1047
 30
0.0
 11
139.615
 21
40.1038
 31
0.0
  0
LINE
  8
0
 62
     0
 10
139.615
 20
40.1038
 30
0.0
 11
125.615
 21
40.1038
 31
0.0
  0
LINE
  8
0
 62
     0
 10
125.615
 20
40.1038
 30
0.0
 11
125.615
 21
39.1047
 31
0.0
  0
LINE
  8
0
 62
     0
 10
125.615
 20
39.1047
 30
0.0
 11
124.815
 21
39.1047
 31
0.0
  0
LINE
  8
0
 62
     0
 10
124.815
 20
39.1047
 30
0.0
 11
124.815
 21
36.0041
 31
0.0
  0
LINE
  8
0
 62
     0
 10
124.815
 20
36.0041
 30
0.0
 11
125.615
 21
36.0041
 31
0.0
  0
LINE
  8
0
 62
     0
 10
125.615
 20
36.0041
 30
0.0
 11
125.615
 21
30.2038
 31
0.0
  0
LINE
  8
0
 62
     0
 10
125.615
 20
30.2038
 30
0.0
 11
124.815
 21
30.2038
 31
0.0
  0
LINE
  8
0
 62
     0
 10
124.815
 20
30.2038
 30
0.0
 11
124.815
 21
27.1046
 31
0.0
  0
LINE
  8
0
 62
     0
 10
124.815
 20
27.1046
 30
0.0
 11
125.615
 21
27.1046
 31
0.0
  0
LINE
  8
0
 62
     0
 10
125.615
 20
27.1046
 30
0.0
 11
125.615
 21
26.1042
 31
0.0
  0
LINE
  8
0
 62
     0
 10
125.615
 20
26.1042
 30
0.0
 11
139.615
 21
26.1042
 31
0.0
  0
LINE
  8
0
 62
     0
 10
139.615
 20
26.1042
 30
0.0
 11
139.615
 21
27.1046
 31
0.0
  0
LINE
  8
0
 62
     0
 10
158.665
 20
27.1046
 30
0.0
 11
159.465
 21
27.1046
 31
0.0
  0
LINE
  8
0
 62
     0
 10
159.465
 20
27.1046
 30
0.0
 11
159.465
 21
30.2038
 31
0.0
  0
LINE
  8
0
 62
     0
 10
159.465
 20
30.2038
 30
0.0
 11
158.665
 21
30.2038
 31
0.0
  0
LINE
  8
0
 62
     0
 10
158.665
 20
30.2038
 30
0.0
 11
158.665
 21
36.0041
 31
0.0
  0
LINE
  8
0
 62
     0
 10
158.665
 20
36.0041
 30
0.0
 11
159.465
 21
36.0041
 31
0.0
  0
LINE
  8
0
 62
     0
 10
159.465
 20
36.0041
 30
0.0
 11
159.465
 21
39.1047
 31
0.0
  0
LINE
  8
0
 62
     0
 10
159.465
 20
39.1047
 30
0.0
 11
158.665
 21
39.1047
 31
0.0
  0
LINE
  8
0
 62
     0
 10
158.665
 20
39.1047
 30
0.0
 11
158.665
 21
40.1038
 31
0.0
  0
LINE
  8
0
 62
     0
 10
158.665
 20
40.1038
 30
0.0
 11
144.665
 21
40.1038
 31
0.0
  0
LINE
  8
0
 62
     0
 10
144.665
 20
40.1038
 30
0.0
 11
144.665
 21
39.1047
 31
0.0
  0
LINE
  8
0
 62
     0
 10
144.665
 20
39.1047
 30
0.0
 11
143.865
 21
39.1047
 31
0.0
  0
LINE
  8
0
 62
     0
 10
143.865
 20
39.1047
 30
0.0
 11
143.865
 21
36.0041
 31
0.0
  0
LINE
  8
0
 62
     0
 10
143.865
 20
36.0041
 30
0.0
 11
144.665
 21
36.0041
 31
0.0
  0
LINE
  8
0
 62
     0
 10
144.665
 20
36.0041
 30
0.0
 11
144.665
 21
30.2038
 31
0.0
  0
LINE
  8
0
 62
     0
 10
144.665
 20
30.2038
 30
0.0
 11
143.865
 21
30.2038
 31
0.0
  0
LINE
  8
0
 62
     0
 10
143.865
 20
30.2038
 30
0.0
 11
143.865
 21
27.1046
 31
0.0
  0
LINE
  8
0
 62
     0
 10
143.865
 20
27.1046
 30
0.0
 11
144.665
 21
27.1046
 31
0.0
  0
LINE
  8
0
 62
     0
 10
144.665
 20
27.1046
 30
0.0
 11
144.665
 21
26.1042
 31
0.0
  0
LINE
  8
0
 62
     0
 10
144.665
 20
26.1042
 30
0.0
 11
158.665
 21
26.1042
 31
0.0
  0
LINE
  8
0
 62
     0
 10
158.665
 20
26.1042
 30
0.0
 11
158.665
 21
27.1046
 31
0.0
  0
LINE
  8
0
 62
     0
 10
177.715
 20
27.1046
 30
0.0
 11
178.515
 21
27.1046
 31
0.0
  0
LINE
  8
0
 62
     0
 10
178.515
 20
27.1046
 30
0.0
 11
178.515
 21
30.2038
 31
0.0
  0
LINE
  8
0
 62
     0
 10
178.515
 20
30.2038
 30
0.0
 11
177.715
 21
30.2038
 31
0.0
  0
LINE
  8
0
 62
     0
 10
177.715
 20
30.2038
 30
0.0
 11
177.715
 21
36.0041
 31
0.0
  0
LINE
  8
0
 62
     0
 10
177.715
 20
36.0041
 30
0.0
 11
178.515
 21
36.0041
 31
0.0
  0
LINE
  8
0
 62
     0
 10
178.515
 20
36.0041
 30
0.0
 11
178.515
 21
39.1047
 31
0.0
  0
LINE
  8
0
 62
     0
 10
178.515
 20
39.1047
 30
0.0
 11
177.715
 21
39.1047
 31
0.0
  0
LINE
  8
0
 62
     0
 10
177.715
 20
39.1047
 30
0.0
 11
177.715
 21
40.1038
 31
0.0
  0
LINE
  8
0
 62
     0
 10
177.715
 20
40.1038
 30
0.0
 11
163.715
 21
40.1038
 31
0.0
  0
LINE
  8
0
 62
     0
 10
163.715
 20
40.1038
 30
0.0
 11
163.715
 21
39.1047
 31
0.0
  0
LINE
  8
0
 62
     0
 10
163.715
 20
39.1047
 30
0.0
 11
162.915
 21
39.1047
 31
0.0
  0
LINE
  8
0
 62
     0
 10
162.915
 20
39.1047
 30
0.0
 11
162.915
 21
36.0041
 31
0.0
  0
LINE
  8
0
 62
     0
 10
162.915
 20
36.0041
 30
0.0
 11
163.715
 21
36.0041
 31
0.0
  0
LINE
  8
0
 62
     0
 10
163.715
 20
36.0041
 30
0.0
 11
163.715
 21
30.2038
 31
0.0
  0
LINE
  8
0
 62
     0
 10
163.715
 20
30.2038
 30
0.0
 11
162.915
 21
30.2038
 31
0.0
  0
LINE
  8
0
 62
     0
 10
162.915
 20
30.2038
 30
0.0
 11
162.915
 21
27.1046
 31
0.0
  0
LINE
  8
0
 62
     0
 10
162.915
 20
27.1046
 30
0.0
 11
163.715
 21
27.1046
 31
0.0
  0
LINE
  8
0
 62
     0
 10
163.715
 20
27.1046
 30
0.0
 11
163.715
 21
26.1042
 31
0.0
  0
LINE
  8
0
 62
     0
 10
163.715
 20
26.1042
 30
0.0
 11
177.715
 21
26.1042
 31
0.0
  0
LINE
  8
0
 62
     0
 10
177.715
 20
26.1042
 30
0.0
 11
177.715
 21
27.1046
 31
0.0
  0
LINE
  8
0
 62
     0
 10
196.765
 20
27.1046
 30
0.0
 11
197.565
 21
27.1046
 31
0.0
  0
LINE
  8
0
 62
     0
 10
197.565
 20
27.1046
 30
0.0
 11
197.565
 21
30.2038
 31
0.0
  0
LINE
  8
0
 62
     0
 10
197.565
 20
30.2038
 30
0.0
 11
196.765
 21
30.2038
 31
0.0
  0
LINE
  8
0
 62
     0
 10
196.765
 20
30.2038
 30
0.0
 11
196.765
 21
36.0041
 31
0.0
  0
LINE
  8
0
 62
     0
 10
196.765
 20
36.0041
 30
0.0
 11
197.565
 21
36.0041
 31
0.0
  0
LINE
  8
0
 62
     0
 10
197.565
 20
36.0041
 30
0.0
 11
197.565
 21
39.1047
 31
0.0
  0
LINE
  8
0
 62
     0
 10
197.565
 20
39.1047
 30
0.0
 11
196.765
 21
39.1047
 31
0.0
  0
LINE
  8
0
 62
     0
 10
196.765
 20
39.1047
 30
0.0
 11
196.765
 21
40.1038
 31
0.0
  0
LINE
  8
0
 62
     0
 10
196.765
 20
40.1038
 30
0.0
 11
182.765
 21
40.1038
 31
0.0
  0
LINE
  8
0
 62
     0
 10
182.765
 20
40.1038
 30
0.0
 11
182.765
 21
39.1047
 31
0.0
  0
LINE
  8
0
 62
     0
 10
182.765
 20
39.1047
 30
0.0
 11
181.965
 21
39.1047
 31
0.0
  0
LINE
  8
0
 62
     0
 10
181.965
 20
39.1047
 30
0.0
 11
181.965
 21
36.0041
 31
0.0
  0
LINE
  8
0
 62
     0
 10
181.965
 20
36.0041
 30
0.0
 11
182.765
 21
36.0041
 31
0.0
  0
LINE
  8
0
 62
     0
 10
182.765
 20
36.0041
 30
0.0
 11
182.765
 21
30.2038
 31
0.0
  0
LINE
  8
0
 62
     0
 10
182.765
 20
30.2038
 30
0.0
 11
181.965
 21
30.2038
 31
0.0
  0
LINE
  8
0
 62
     0
 10
181.965
 20
30.2038
 30
0.0
 11
181.965
 21
27.1046
 31
0.0
  0
LINE
  8
0
 62
     0
 10
181.965
 20
27.1046
 30
0.0
 11
182.765
 21
27.1046
 31
0.0
  0
LINE
  8
0
 62
     0
 10
182.765
 20
27.1046
 30
0.0
 11
182.765
 21
26.1042
 31
0.0
  0
LINE
  8
0
 62
     0
 10
182.765
 20
26.1042
 30
0.0
 11
196.765
 21
26.1042
 31
0.0
  0
LINE
  8
0
 62
     0
 10
196.765
 20
26.1042
 30
0.0
 11
196.765
 21
27.1046
 31
0.0
  0
LINE
  8
0
 62
     0
 10
215.815
 20
27.1046
 30
0.0
 11
216.615
 21
27.1046
 31
0.0
  0
LINE
  8
0
 62
     0
 10
216.615
 20
27.1046
 30
0.0
 11
216.615
 21
30.2038
 31
0.0
  0
LINE
  8
0
 62
     0
 10
216.615
 20
30.2038
 30
0.0
 11
215.815
 21
30.2038
 31
0.0
  0
LINE
  8
0
 62
     0
 10
215.815
 20
30.2038
 30
0.0
 11
215.815
 21
36.0041
 31
0.0
  0
LINE
  8
0
 62
     0
 10
215.815
 20
36.0041
 30
0.0
 11
216.615
 21
36.0041
 31
0.0
  0
LINE
  8
0
 62
     0
 10
216.615
 20
36.0041
 30
0.0
 11
216.615
 21
39.1047
 31
0.0
  0
LINE
  8
0
 62
     0
 10
216.615
 20
39.1047
 30
0.0
 11
215.815
 21
39.1047
 31
0.0
  0
LINE
  8
0
 62
     0
 10
215.815
 20
39.1047
 30
0.0
 11
215.815
 21
40.1038
 31
0.0
  0
LINE
  8
0
 62
     0
 10
215.815
 20
40.1038
 30
0.0
 11
201.815
 21
40.1038
 31
0.0
  0
LINE
  8
0
 62
     0
 10
201.815
 20
40.1038
 30
0.0
 11
201.815
 21
39.1047
 31
0.0
  0
LINE
  8
0
 62
     0
 10
201.815
 20
39.1047
 30
0.0
 11
201.015
 21
39.1047
 31
0.0
  0
LINE
  8
0
 62
     0
 10
201.015
 20
39.1047
 30
0.0
 11
201.015
 21
36.0041
 31
0.0
  0
LINE
  8
0
 62
     0
 10
201.015
 20
36.0041
 30
0.0
 11
201.815
 21
36.0041
 31
0.0
  0
LINE
  8
0
 62
     0
 10
201.815
 20
36.0041
 30
0.0
 11
201.815
 21
30.2038
 31
0.0
  0
LINE
  8
0
 62
     0
 10
201.815
 20
30.2038
 30
0.0
 11
201.015
 21
30.2038
 31
0.0
  0
LINE
  8
0
 62
     0
 10
201.015
 20
30.2038
 30
0.0
 11
201.015
 21
27.1046
 31
0.0
  0
LINE
  8
0
 62
     0
 10
201.015
 20
27.1046
 30
0.0
 11
201.815
 21
27.1046
 31
0.0
  0
LINE
  8
0
 62
     0
 10
201.815
 20
27.1046
 30
0.0
 11
201.815
 21
26.1042
 31
0.0
  0
LINE
  8
0
 62
     0
 10
201.815
 20
26.1042
 30
0.0
 11
215.815
 21
26.1042
 31
0.0
  0
LINE
  8
0
 62
     0
 10
215.815
 20
26.1042
 30
0.0
 11
215.815
 21
27.1046
 31
0.0
  0
LINE
  8
0
 62
     0
 10
234.865
 20
27.1046
 30
0.0
 11
235.665
 21
27.1046
 31
0.0
  0
LINE
  8
0
 62
     0
 10
235.665
 20
27.1046
 30
0.0
 11
235.665
 21
30.2038
 31
0.0
  0
LINE
  8
0
 62
     0
 10
235.665
 20
30.2038
 30
0.0
 11
234.865
 21
30.2038
 31
0.0
  0
LINE
  8
0
 62
     0
 10
234.865
 20
30.2038
 30
0.0
 11
234.865
 21
36.0041
 31
0.0
  0
LINE
  8
0
 62
     0
 10
234.865
 20
36.0041
 30
0.0
 11
235.665
 21
36.0041
 31
0.0
  0
LINE
  8
0
 62
     0
 10
235.665
 20
36.0041
 30
0.0
 11
235.665
 21
39.1047
 31
0.0
  0
LINE
  8
0
 62
     0
 10
235.665
 20
39.1047
 30
0.0
 11
234.865
 21
39.1047
 31
0.0
  0
LINE
  8
0
 62
     0
 10
234.865
 20
39.1047
 30
0.0
 11
234.865
 21
40.1038
 31
0.0
  0
LINE
  8
0
 62
     0
 10
234.865
 20
40.1038
 30
0.0
 11
220.865
 21
40.1038
 31
0.0
  0
LINE
  8
0
 62
     0
 10
220.865
 20
40.1038
 30
0.0
 11
220.865
 21
39.1047
 31
0.0
  0
LINE
  8
0
 62
     0
 10
220.865
 20
39.1047
 30
0.0
 11
220.065
 21
39.1047
 31
0.0
  0
LINE
  8
0
 62
     0
 10
220.065
 20
39.1047
 30
0.0
 11
220.065
 21
36.0041
 31
0.0
  0
LINE
  8
0
 62
     0
 10
220.065
 20
36.0041
 30
0.0
 11
220.865
 21
36.0041
 31
0.0
  0
LINE
  8
0
 62
     0
 10
220.865
 20
36.0041
 30
0.0
 11
220.865
 21
30.2038
 31
0.0
  0
LINE
  8
0
 62
     0
 10
220.865
 20
30.2038
 30
0.0
 11
220.065
 21
30.2038
 31
0.0
  0
LINE
  8
0
 62
     0
 10
220.065
 20
30.2038
 30
0.0
 11
220.065
 21
27.1046
 31
0.0
  0
LINE
  8
0
 62
     0
 10
220.065
 20
27.1046
 30
0.0
 11
220.865
 21
27.1046
 31
0.0
  0
LINE
  8
0
 62
     0
 10
220.865
 20
27.1046
 30
0.0
 11
220.865
 21
26.1042
 31
0.0
  0
LINE
  8
0
 62
     0
 10
220.865
 20
26.1042
 30
0.0
 11
234.865
 21
26.1042
 31
0.0
  0
LINE
  8
0
 62
     0
 10
234.865
 20
26.1042
 30
0.0
 11
234.865
 21
27.1046
 31
0.0
  0
LINE
  8
0
 62
     0
 10
330.115
 20
27.1046
 30
0.0
 11
330.915
 21
27.1046
 31
0.0
  0
LINE
  8
0
 62
     0
 10
330.915
 20
27.1046
 30
0.0
 11
330.915
 21
30.2038
 31
0.0
  0
LINE
  8
0
 62
     0
 10
330.915
 20
30.2038
 30
0.0
 11
330.115
 21
30.2038
 31
0.0
  0
LINE
  8
0
 62
     0
 10
330.115
 20
30.2038
 30
0.0
 11
330.115
 21
36.0041
 31
0.0
  0
LINE
  8
0
 62
     0
 10
330.115
 20
36.0041
 30
0.0
 11
330.915
 21
36.0041
 31
0.0
  0
LINE
  8
0
 62
     0
 10
330.915
 20
36.0041
 30
0.0
 11
330.915
 21
39.1047
 31
0.0
  0
LINE
  8
0
 62
     0
 10
330.915
 20
39.1047
 30
0.0
 11
330.115
 21
39.1047
 31
0.0
  0
LINE
  8
0
 62
     0
 10
330.115
 20
39.1047
 30
0.0
 11
330.115
 21
40.1038
 31
0.0
  0
LINE
  8
0
 62
     0
 10
330.115
 20
40.1038
 30
0.0
 11
316.115
 21
40.1038
 31
0.0
  0
LINE
  8
0
 62
     0
 10
316.115
 20
40.1038
 30
0.0
 11
316.115
 21
39.1047
 31
0.0
  0
LINE
  8
0
 62
     0
 10
316.115
 20
39.1047
 30
0.0
 11
315.315
 21
39.1047
 31
0.0
  0
LINE
  8
0
 62
     0
 10
315.315
 20
39.1047
 30
0.0
 11
315.315
 21
36.0041
 31
0.0
  0
LINE
  8
0
 62
     0
 10
315.315
 20
36.0041
 30
0.0
 11
316.115
 21
36.0041
 31
0.0
  0
LINE
  8
0
 62
     0
 10
316.115
 20
36.0041
 30
0.0
 11
316.115
 21
30.2038
 31
0.0
  0
LINE
  8
0
 62
     0
 10
316.115
 20
30.2038
 30
0.0
 11
315.315
 21
30.2038
 31
0.0
  0
LINE
  8
0
 62
     0
 10
315.315
 20
30.2038
 30
0.0
 11
315.315
 21
27.1046
 31
0.0
  0
LINE
  8
0
 62
     0
 10
315.315
 20
27.1046
 30
0.0
 11
316.115
 21
27.1046
 31
0.0
  0
LINE
  8
0
 62
     0
 10
316.115
 20
27.1046
 30
0.0
 11
316.115
 21
26.1042
 31
0.0
  0
LINE
  8
0
 62
     0
 10
316.115
 20
26.1042
 30
0.0
 11
330.115
 21
26.1042
 31
0.0
  0
LINE
  8
0
 62
     0
 10
330.115
 20
26.1042
 30
0.0
 11
330.115
 21
27.1046
 31
0.0
  0
LINE
  8
0
 62
     0
 10
27.6958
 20
46.1546
 30
0.0
 11
28.4951
 21
46.1546
 31
0.0
  0
LINE
  8
0
 62
     0
 10
28.4951
 20
46.1546
 30
0.0
 11
28.4951
 21
49.2538
 31
0.0
  0
LINE
  8
0
 62
     0
 10
28.4951
 20
49.2538
 30
0.0
 11
27.6958
 21
49.2538
 31
0.0
  0
LINE
  8
0
 62
     0
 10
27.6958
 20
49.2538
 30
0.0
 11
27.6958
 21
55.0541
 31
0.0
  0
LINE
  8
0
 62
     0
 10
27.6958
 20
55.0541
 30
0.0
 11
28.4951
 21
55.0541
 31
0.0
  0
LINE
  8
0
 62
     0
 10
28.4951
 20
55.0541
 30
0.0
 11
28.4951
 21
58.1547
 31
0.0
  0
LINE
  8
0
 62
     0
 10
28.4951
 20
58.1547
 30
0.0
 11
27.6958
 21
58.1547
 31
0.0
  0
LINE
  8
0
 62
     0
 10
27.6958
 20
58.1547
 30
0.0
 11
27.6958
 21
59.1538
 31
0.0
  0
LINE
  8
0
 62
     0
 10
27.6958
 20
59.1538
 30
0.0
 11
13.6949
 21
59.1538
 31
0.0
  0
LINE
  8
0
 62
     0
 10
13.6949
 20
59.1538
 30
0.0
 11
13.6949
 21
58.1547
 31
0.0
  0
LINE
  8
0
 62
     0
 10
13.6949
 20
58.1547
 30
0.0
 11
12.8957
 21
58.1547
 31
0.0
  0
LINE
  8
0
 62
     0
 10
12.8957
 20
58.1547
 30
0.0
 11
12.8957
 21
55.0541
 31
0.0
  0
LINE
  8
0
 62
     0
 10
12.8957
 20
55.0541
 30
0.0
 11
13.6949
 21
55.0541
 31
0.0
  0
LINE
  8
0
 62
     0
 10
13.6949
 20
55.0541
 30
0.0
 11
13.6949
 21
49.2538
 31
0.0
  0
LINE
  8
0
 62
     0
 10
13.6949
 20
49.2538
 30
0.0
 11
12.8957
 21
49.2538
 31
0.0
  0
LINE
  8
0
 62
     0
 10
12.8957
 20
49.2538
 30
0.0
 11
12.8957
 21
46.1546
 31
0.0
  0
LINE
  8
0
 62
     0
 10
12.8957
 20
46.1546
 30
0.0
 11
13.6949
 21
46.1546
 31
0.0
  0
LINE
  8
0
 62
     0
 10
13.6949
 20
46.1546
 30
0.0
 11
13.6949
 21
45.1541
 31
0.0
  0
LINE
  8
0
 62
     0
 10
13.6949
 20
45.1541
 30
0.0
 11
27.6958
 21
45.1541
 31
0.0
  0
LINE
  8
0
 62
     0
 10
27.6958
 20
45.1541
 30
0.0
 11
27.6958
 21
46.1546
 31
0.0
  0
LINE
  8
0
 62
     0
 10
53.8896
 20
46.1546
 30
0.0
 11
54.6901
 21
46.1546
 31
0.0
  0
LINE
  8
0
 62
     0
 10
54.6901
 20
46.1546
 30
0.0
 11
54.6901
 21
49.2538
 31
0.0
  0
LINE
  8
0
 62
     0
 10
54.6901
 20
49.2538
 30
0.0
 11
53.8896
 21
49.2538
 31
0.0
  0
LINE
  8
0
 62
     0
 10
53.8896
 20
49.2538
 30
0.0
 11
53.8896
 21
55.0541
 31
0.0
  0
LINE
  8
0
 62
     0
 10
53.8896
 20
55.0541
 30
0.0
 11
54.6901
 21
55.0541
 31
0.0
  0
LINE
  8
0
 62
     0
 10
54.6901
 20
55.0541
 30
0.0
 11
54.6901
 21
58.1547
 31
0.0
  0
LINE
  8
0
 62
     0
 10
54.6901
 20
58.1547
 30
0.0
 11
53.8896
 21
58.1547
 31
0.0
  0
LINE
  8
0
 62
     0
 10
53.8896
 20
58.1547
 30
0.0
 11
53.8896
 21
59.1538
 31
0.0
  0
LINE
  8
0
 62
     0
 10
53.8896
 20
59.1538
 30
0.0
 11
39.89
 21
59.1538
 31
0.0
  0
LINE
  8
0
 62
     0
 10
39.89
 20
59.1538
 30
0.0
 11
39.89
 21
58.1547
 31
0.0
  0
LINE
  8
0
 62
     0
 10
39.89
 20
58.1547
 30
0.0
 11
39.0895
 21
58.1547
 31
0.0
  0
LINE
  8
0
 62
     0
 10
39.0895
 20
58.1547
 30
0.0
 11
39.0895
 21
55.0541
 31
0.0
  0
LINE
  8
0
 62
     0
 10
39.0895
 20
55.0541
 30
0.0
 11
39.89
 21
55.0541
 31
0.0
  0
LINE
  8
0
 62
     0
 10
39.89
 20
55.0541
 30
0.0
 11
39.89
 21
49.2538
 31
0.0
  0
LINE
  8
0
 62
     0
 10
39.89
 20
49.2538
 30
0.0
 11
39.0895
 21
49.2538
 31
0.0
  0
LINE
  8
0
 62
     0
 10
39.0895
 20
49.2538
 30
0.0
 11
39.0895
 21
46.1546
 31
0.0
  0
LINE
  8
0
 62
     0
 10
39.0895
 20
46.1546
 30
0.0
 11
39.89
 21
46.1546
 31
0.0
  0
LINE
  8
0
 62
     0
 10
39.89
 20
46.1546
 30
0.0
 11
39.89
 21
45.1541
 31
0.0
  0
LINE
  8
0
 62
     0
 10
39.89
 20
45.1541
 30
0.0
 11
53.8896
 21
45.1541
 31
0.0
  0
LINE
  8
0
 62
     0
 10
53.8896
 20
45.1541
 30
0.0
 11
53.8896
 21
46.1546
 31
0.0
  0
LINE
  8
0
 62
     0
 10
72.9396
 20
46.1546
 30
0.0
 11
73.7401
 21
46.1546
 31
0.0
  0
LINE
  8
0
 62
     0
 10
73.7401
 20
46.1546
 30
0.0
 11
73.7401
 21
49.2538
 31
0.0
  0
LINE
  8
0
 62
     0
 10
73.7401
 20
49.2538
 30
0.0
 11
72.9396
 21
49.2538
 31
0.0
  0
LINE
  8
0
 62
     0
 10
72.9396
 20
49.2538
 30
0.0
 11
72.9396
 21
55.0541
 31
0.0
  0
LINE
  8
0
 62
     0
 10
72.9396
 20
55.0541
 30
0.0
 11
73.7401
 21
55.0541
 31
0.0
  0
LINE
  8
0
 62
     0
 10
73.7401
 20
55.0541
 30
0.0
 11
73.7401
 21
58.1547
 31
0.0
  0
LINE
  8
0
 62
     0
 10
73.7401
 20
58.1547
 30
0.0
 11
72.9396
 21
58.1547
 31
0.0
  0
LINE
  8
0
 62
     0
 10
72.9396
 20
58.1547
 30
0.0
 11
72.9396
 21
59.1538
 31
0.0
  0
LINE
  8
0
 62
     0
 10
72.9396
 20
59.1538
 30
0.0
 11
58.94
 21
59.1538
 31
0.0
  0
LINE
  8
0
 62
     0
 10
58.94
 20
59.1538
 30
0.0
 11
58.94
 21
58.1547
 31
0.0
  0
LINE
  8
0
 62
     0
 10
58.94
 20
58.1547
 30
0.0
 11
58.1395
 21
58.1547
 31
0.0
  0
LINE
  8
0
 62
     0
 10
58.1395
 20
58.1547
 30
0.0
 11
58.1395
 21
55.0541
 31
0.0
  0
LINE
  8
0
 62
     0
 10
58.1395
 20
55.0541
 30
0.0
 11
58.94
 21
55.0541
 31
0.0
  0
LINE
  8
0
 62
     0
 10
58.94
 20
55.0541
 30
0.0
 11
58.94
 21
49.2538
 31
0.0
  0
LINE
  8
0
 62
     0
 10
58.94
 20
49.2538
 30
0.0
 11
58.1395
 21
49.2538
 31
0.0
  0
LINE
  8
0
 62
     0
 10
58.1395
 20
49.2538
 30
0.0
 11
58.1395
 21
46.1546
 31
0.0
  0
LINE
  8
0
 62
     0
 10
58.1395
 20
46.1546
 30
0.0
 11
58.94
 21
46.1546
 31
0.0
  0
LINE
  8
0
 62
     0
 10
58.94
 20
46.1546
 30
0.0
 11
58.94
 21
45.1541
 31
0.0
  0
LINE
  8
0
 62
     0
 10
58.94
 20
45.1541
 30
0.0
 11
72.9396
 21
45.1541
 31
0.0
  0
LINE
  8
0
 62
     0
 10
72.9396
 20
45.1541
 30
0.0
 11
72.9396
 21
46.1546
 31
0.0
  0
LINE
  8
0
 62
     0
 10
91.9896
 20
46.1546
 30
0.0
 11
92.7901
 21
46.1546
 31
0.0
  0
LINE
  8
0
 62
     0
 10
92.7901
 20
46.1546
 30
0.0
 11
92.7901
 21
49.2538
 31
0.0
  0
LINE
  8
0
 62
     0
 10
92.7901
 20
49.2538
 30
0.0
 11
91.9896
 21
49.2538
 31
0.0
  0
LINE
  8
0
 62
     0
 10
91.9896
 20
49.2538
 30
0.0
 11
91.9896
 21
55.0541
 31
0.0
  0
LINE
  8
0
 62
     0
 10
91.9896
 20
55.0541
 30
0.0
 11
92.7901
 21
55.0541
 31
0.0
  0
LINE
  8
0
 62
     0
 10
92.7901
 20
55.0541
 30
0.0
 11
92.7901
 21
58.1547
 31
0.0
  0
LINE
  8
0
 62
     0
 10
92.7901
 20
58.1547
 30
0.0
 11
91.9896
 21
58.1547
 31
0.0
  0
LINE
  8
0
 62
     0
 10
91.9896
 20
58.1547
 30
0.0
 11
91.9896
 21
59.1538
 31
0.0
  0
LINE
  8
0
 62
     0
 10
91.9896
 20
59.1538
 30
0.0
 11
77.99
 21
59.1538
 31
0.0
  0
LINE
  8
0
 62
     0
 10
77.99
 20
59.1538
 30
0.0
 11
77.99
 21
58.1547
 31
0.0
  0
LINE
  8
0
 62
     0
 10
77.99
 20
58.1547
 30
0.0
 11
77.1895
 21
58.1547
 31
0.0
  0
LINE
  8
0
 62
     0
 10
77.1895
 20
58.1547
 30
0.0
 11
77.1895
 21
55.0541
 31
0.0
  0
LINE
  8
0
 62
     0
 10
77.1895
 20
55.0541
 30
0.0
 11
77.99
 21
55.0541
 31
0.0
  0
LINE
  8
0
 62
     0
 10
77.99
 20
55.0541
 30
0.0
 11
77.99
 21
49.2538
 31
0.0
  0
LINE
  8
0
 62
     0
 10
77.99
 20
49.2538
 30
0.0
 11
77.1895
 21
49.2538
 31
0.0
  0
LINE
  8
0
 62
     0
 10
77.1895
 20
49.2538
 30
0.0
 11
77.1895
 21
46.1546
 31
0.0
  0
LINE
  8
0
 62
     0
 10
77.1895
 20
46.1546
 30
0.0
 11
77.99
 21
46.1546
 31
0.0
  0
LINE
  8
0
 62
     0
 10
77.99
 20
46.1546
 30
0.0
 11
77.99
 21
45.1541
 31
0.0
  0
LINE
  8
0
 62
     0
 10
77.99
 20
45.1541
 30
0.0
 11
91.9896
 21
45.1541
 31
0.0
  0
LINE
  8
0
 62
     0
 10
91.9896
 20
45.1541
 30
0.0
 11
91.9896
 21
46.1546
 31
0.0
  0
LINE
  8
0
 62
     0
 10
111.04
 20
46.1546
 30
0.0
 11
111.84
 21
46.1546
 31
0.0
  0
LINE
  8
0
 62
     0
 10
111.84
 20
46.1546
 30
0.0
 11
111.84
 21
49.2538
 31
0.0
  0
LINE
  8
0
 62
     0
 10
111.84
 20
49.2538
 30
0.0
 11
111.04
 21
49.2538
 31
0.0
  0
LINE
  8
0
 62
     0
 10
111.04
 20
49.2538
 30
0.0
 11
111.04
 21
55.0541
 31
0.0
  0
LINE
  8
0
 62
     0
 10
111.04
 20
55.0541
 30
0.0
 11
111.84
 21
55.0541
 31
0.0
  0
LINE
  8
0
 62
     0
 10
111.84
 20
55.0541
 30
0.0
 11
111.84
 21
58.1547
 31
0.0
  0
LINE
  8
0
 62
     0
 10
111.84
 20
58.1547
 30
0.0
 11
111.04
 21
58.1547
 31
0.0
  0
LINE
  8
0
 62
     0
 10
111.04
 20
58.1547
 30
0.0
 11
111.04
 21
59.1538
 31
0.0
  0
LINE
  8
0
 62
     0
 10
111.04
 20
59.1538
 30
0.0
 11
97.04
 21
59.1538
 31
0.0
  0
LINE
  8
0
 62
     0
 10
97.04
 20
59.1538
 30
0.0
 11
97.04
 21
58.1547
 31
0.0
  0
LINE
  8
0
 62
     0
 10
97.04
 20
58.1547
 30
0.0
 11
96.2395
 21
58.1547
 31
0.0
  0
LINE
  8
0
 62
     0
 10
96.2395
 20
58.1547
 30
0.0
 11
96.2395
 21
55.0541
 31
0.0
  0
LINE
  8
0
 62
     0
 10
96.2395
 20
55.0541
 30
0.0
 11
97.04
 21
55.0541
 31
0.0
  0
LINE
  8
0
 62
     0
 10
97.04
 20
55.0541
 30
0.0
 11
97.04
 21
49.2538
 31
0.0
  0
LINE
  8
0
 62
     0
 10
97.04
 20
49.2538
 30
0.0
 11
96.2395
 21
49.2538
 31
0.0
  0
LINE
  8
0
 62
     0
 10
96.2395
 20
49.2538
 30
0.0
 11
96.2395
 21
46.1546
 31
0.0
  0
LINE
  8
0
 62
     0
 10
96.2395
 20
46.1546
 30
0.0
 11
97.04
 21
46.1546
 31
0.0
  0
LINE
  8
0
 62
     0
 10
97.04
 20
46.1546
 30
0.0
 11
97.04
 21
45.1541
 31
0.0
  0
LINE
  8
0
 62
     0
 10
97.04
 20
45.1541
 30
0.0
 11
111.04
 21
45.1541
 31
0.0
  0
LINE
  8
0
 62
     0
 10
111.04
 20
45.1541
 30
0.0
 11
111.04
 21
46.1546
 31
0.0
  0
LINE
  8
0
 62
     0
 10
130.09
 20
46.1546
 30
0.0
 11
130.89
 21
46.1546
 31
0.0
  0
LINE
  8
0
 62
     0
 10
130.89
 20
46.1546
 30
0.0
 11
130.89
 21
49.2538
 31
0.0
  0
LINE
  8
0
 62
     0
 10
130.89
 20
49.2538
 30
0.0
 11
130.09
 21
49.2538
 31
0.0
  0
LINE
  8
0
 62
     0
 10
130.09
 20
49.2538
 30
0.0
 11
130.09
 21
55.0541
 31
0.0
  0
LINE
  8
0
 62
     0
 10
130.09
 20
55.0541
 30
0.0
 11
130.89
 21
55.0541
 31
0.0
  0
LINE
  8
0
 62
     0
 10
130.89
 20
55.0541
 30
0.0
 11
130.89
 21
58.1547
 31
0.0
  0
LINE
  8
0
 62
     0
 10
130.89
 20
58.1547
 30
0.0
 11
130.09
 21
58.1547
 31
0.0
  0
LINE
  8
0
 62
     0
 10
130.09
 20
58.1547
 30
0.0
 11
130.09
 21
59.1538
 31
0.0
  0
LINE
  8
0
 62
     0
 10
130.09
 20
59.1538
 30
0.0
 11
116.09
 21
59.1538
 31
0.0
  0
LINE
  8
0
 62
     0
 10
116.09
 20
59.1538
 30
0.0
 11
116.09
 21
58.1547
 31
0.0
  0
LINE
  8
0
 62
     0
 10
116.09
 20
58.1547
 30
0.0
 11
115.29
 21
58.1547
 31
0.0
  0
LINE
  8
0
 62
     0
 10
115.29
 20
58.1547
 30
0.0
 11
115.29
 21
55.0541
 31
0.0
  0
LINE
  8
0
 62
     0
 10
115.29
 20
55.0541
 30
0.0
 11
116.09
 21
55.0541
 31
0.0
  0
LINE
  8
0
 62
     0
 10
116.09
 20
55.0541
 30
0.0
 11
116.09
 21
49.2538
 31
0.0
  0
LINE
  8
0
 62
     0
 10
116.09
 20
49.2538
 30
0.0
 11
115.29
 21
49.2538
 31
0.0
  0
LINE
  8
0
 62
     0
 10
115.29
 20
49.2538
 30
0.0
 11
115.29
 21
46.1546
 31
0.0
  0
LINE
  8
0
 62
     0
 10
115.29
 20
46.1546
 30
0.0
 11
116.09
 21
46.1546
 31
0.0
  0
LINE
  8
0
 62
     0
 10
116.09
 20
46.1546
 30
0.0
 11
116.09
 21
45.1541
 31
0.0
  0
LINE
  8
0
 62
     0
 10
116.09
 20
45.1541
 30
0.0
 11
130.09
 21
45.1541
 31
0.0
  0
LINE
  8
0
 62
     0
 10
130.09
 20
45.1541
 30
0.0
 11
130.09
 21
46.1546
 31
0.0
  0
LINE
  8
0
 62
     0
 10
149.14
 20
46.1546
 30
0.0
 11
149.94
 21
46.1546
 31
0.0
  0
LINE
  8
0
 62
     0
 10
149.94
 20
46.1546
 30
0.0
 11
149.94
 21
49.2538
 31
0.0
  0
LINE
  8
0
 62
     0
 10
149.94
 20
49.2538
 30
0.0
 11
149.14
 21
49.2538
 31
0.0
  0
LINE
  8
0
 62
     0
 10
149.14
 20
49.2538
 30
0.0
 11
149.14
 21
55.0541
 31
0.0
  0
LINE
  8
0
 62
     0
 10
149.14
 20
55.0541
 30
0.0
 11
149.94
 21
55.0541
 31
0.0
  0
LINE
  8
0
 62
     0
 10
149.94
 20
55.0541
 30
0.0
 11
149.94
 21
58.1547
 31
0.0
  0
LINE
  8
0
 62
     0
 10
149.94
 20
58.1547
 30
0.0
 11
149.14
 21
58.1547
 31
0.0
  0
LINE
  8
0
 62
     0
 10
149.14
 20
58.1547
 30
0.0
 11
149.14
 21
59.1538
 31
0.0
  0
LINE
  8
0
 62
     0
 10
149.14
 20
59.1538
 30
0.0
 11
135.14
 21
59.1538
 31
0.0
  0
LINE
  8
0
 62
     0
 10
135.14
 20
59.1538
 30
0.0
 11
135.14
 21
58.1547
 31
0.0
  0
LINE
  8
0
 62
     0
 10
135.14
 20
58.1547
 30
0.0
 11
134.34
 21
58.1547
 31
0.0
  0
LINE
  8
0
 62
     0
 10
134.34
 20
58.1547
 30
0.0
 11
134.34
 21
55.0541
 31
0.0
  0
LINE
  8
0
 62
     0
 10
134.34
 20
55.0541
 30
0.0
 11
135.14
 21
55.0541
 31
0.0
  0
LINE
  8
0
 62
     0
 10
135.14
 20
55.0541
 30
0.0
 11
135.14
 21
49.2538
 31
0.0
  0
LINE
  8
0
 62
     0
 10
135.14
 20
49.2538
 30
0.0
 11
134.34
 21
49.2538
 31
0.0
  0
LINE
  8
0
 62
     0
 10
134.34
 20
49.2538
 30
0.0
 11
134.34
 21
46.1546
 31
0.0
  0
LINE
  8
0
 62
     0
 10
134.34
 20
46.1546
 30
0.0
 11
135.14
 21
46.1546
 31
0.0
  0
LINE
  8
0
 62
     0
 10
135.14
 20
46.1546
 30
0.0
 11
135.14
 21
45.1541
 31
0.0
  0
LINE
  8
0
 62
     0
 10
135.14
 20
45.1541
 30
0.0
 11
149.14
 21
45.1541
 31
0.0
  0
LINE
  8
0
 62
     0
 10
149.14
 20
45.1541
 30
0.0
 11
149.14
 21
46.1546
 31
0.0
  0
LINE
  8
0
 62
     0
 10
168.19
 20
46.1546
 30
0.0
 11
168.99
 21
46.1546
 31
0.0
  0
LINE
  8
0
 62
     0
 10
168.99
 20
46.1546
 30
0.0
 11
168.99
 21
49.2538
 31
0.0
  0
LINE
  8
0
 62
     0
 10
168.99
 20
49.2538
 30
0.0
 11
168.19
 21
49.2538
 31
0.0
  0
LINE
  8
0
 62
     0
 10
168.19
 20
49.2538
 30
0.0
 11
168.19
 21
55.0541
 31
0.0
  0
LINE
  8
0
 62
     0
 10
168.19
 20
55.0541
 30
0.0
 11
168.99
 21
55.0541
 31
0.0
  0
LINE
  8
0
 62
     0
 10
168.99
 20
55.0541
 30
0.0
 11
168.99
 21
58.1547
 31
0.0
  0
LINE
  8
0
 62
     0
 10
168.99
 20
58.1547
 30
0.0
 11
168.19
 21
58.1547
 31
0.0
  0
LINE
  8
0
 62
     0
 10
168.19
 20
58.1547
 30
0.0
 11
168.19
 21
59.1538
 31
0.0
  0
LINE
  8
0
 62
     0
 10
168.19
 20
59.1538
 30
0.0
 11
154.19
 21
59.1538
 31
0.0
  0
LINE
  8
0
 62
     0
 10
154.19
 20
59.1538
 30
0.0
 11
154.19
 21
58.1547
 31
0.0
  0
LINE
  8
0
 62
     0
 10
154.19
 20
58.1547
 30
0.0
 11
153.39
 21
58.1547
 31
0.0
  0
LINE
  8
0
 62
     0
 10
153.39
 20
58.1547
 30
0.0
 11
153.39
 21
55.0541
 31
0.0
  0
LINE
  8
0
 62
     0
 10
153.39
 20
55.0541
 30
0.0
 11
154.19
 21
55.0541
 31
0.0
  0
LINE
  8
0
 62
     0
 10
154.19
 20
55.0541
 30
0.0
 11
154.19
 21
49.2538
 31
0.0
  0
LINE
  8
0
 62
     0
 10
154.19
 20
49.2538
 30
0.0
 11
153.39
 21
49.2538
 31
0.0
  0
LINE
  8
0
 62
     0
 10
153.39
 20
49.2538
 30
0.0
 11
153.39
 21
46.1546
 31
0.0
  0
LINE
  8
0
 62
     0
 10
153.39
 20
46.1546
 30
0.0
 11
154.19
 21
46.1546
 31
0.0
  0
LINE
  8
0
 62
     0
 10
154.19
 20
46.1546
 30
0.0
 11
154.19
 21
45.1541
 31
0.0
  0
LINE
  8
0
 62
     0
 10
154.19
 20
45.1541
 30
0.0
 11
168.19
 21
45.1541
 31
0.0
  0
LINE
  8
0
 62
     0
 10
168.19
 20
45.1541
 30
0.0
 11
168.19
 21
46.1546
 31
0.0
  0
LINE
  8
0
 62
     0
 10
187.24
 20
46.1546
 30
0.0
 11
188.04
 21
46.1546
 31
0.0
  0
LINE
  8
0
 62
     0
 10
188.04
 20
46.1546
 30
0.0
 11
188.04
 21
49.2538
 31
0.0
  0
LINE
  8
0
 62
     0
 10
188.04
 20
49.2538
 30
0.0
 11
187.24
 21
49.2538
 31
0.0
  0
LINE
  8
0
 62
     0
 10
187.24
 20
49.2538
 30
0.0
 11
187.24
 21
55.0541
 31
0.0
  0
LINE
  8
0
 62
     0
 10
187.24
 20
55.0541
 30
0.0
 11
188.04
 21
55.0541
 31
0.0
  0
LINE
  8
0
 62
     0
 10
188.04
 20
55.0541
 30
0.0
 11
188.04
 21
58.1547
 31
0.0
  0
LINE
  8
0
 62
     0
 10
188.04
 20
58.1547
 30
0.0
 11
187.24
 21
58.1547
 31
0.0
  0
LINE
  8
0
 62
     0
 10
187.24
 20
58.1547
 30
0.0
 11
187.24
 21
59.1538
 31
0.0
  0
LINE
  8
0
 62
     0
 10
187.24
 20
59.1538
 30
0.0
 11
173.24
 21
59.1538
 31
0.0
  0
LINE
  8
0
 62
     0
 10
173.24
 20
59.1538
 30
0.0
 11
173.24
 21
58.1547
 31
0.0
  0
LINE
  8
0
 62
     0
 10
173.24
 20
58.1547
 30
0.0
 11
172.44
 21
58.1547
 31
0.0
  0
LINE
  8
0
 62
     0
 10
172.44
 20
58.1547
 30
0.0
 11
172.44
 21
55.0541
 31
0.0
  0
LINE
  8
0
 62
     0
 10
172.44
 20
55.0541
 30
0.0
 11
173.24
 21
55.0541
 31
0.0
  0
LINE
  8
0
 62
     0
 10
173.24
 20
55.0541
 30
0.0
 11
173.24
 21
49.2538
 31
0.0
  0
LINE
  8
0
 62
     0
 10
173.24
 20
49.2538
 30
0.0
 11
172.44
 21
49.2538
 31
0.0
  0
LINE
  8
0
 62
     0
 10
172.44
 20
49.2538
 30
0.0
 11
172.44
 21
46.1546
 31
0.0
  0
LINE
  8
0
 62
     0
 10
172.44
 20
46.1546
 30
0.0
 11
173.24
 21
46.1546
 31
0.0
  0
LINE
  8
0
 62
     0
 10
173.24
 20
46.1546
 30
0.0
 11
173.24
 21
45.1541
 31
0.0
  0
LINE
  8
0
 62
     0
 10
173.24
 20
45.1541
 30
0.0
 11
187.24
 21
45.1541
 31
0.0
  0
LINE
  8
0
 62
     0
 10
187.24
 20
45.1541
 30
0.0
 11
187.24
 21
46.1546
 31
0.0
  0
LINE
  8
0
 62
     0
 10
206.29
 20
46.1546
 30
0.0
 11
207.09
 21
46.1546
 31
0.0
  0
LINE
  8
0
 62
     0
 10
207.09
 20
46.1546
 30
0.0
 11
207.09
 21
49.2538
 31
0.0
  0
LINE
  8
0
 62
     0
 10
207.09
 20
49.2538
 30
0.0
 11
206.29
 21
49.2538
 31
0.0
  0
LINE
  8
0
 62
     0
 10
206.29
 20
49.2538
 30
0.0
 11
206.29
 21
55.0541
 31
0.0
  0
LINE
  8
0
 62
     0
 10
206.29
 20
55.0541
 30
0.0
 11
207.09
 21
55.0541
 31
0.0
  0
LINE
  8
0
 62
     0
 10
207.09
 20
55.0541
 30
0.0
 11
207.09
 21
58.1547
 31
0.0
  0
LINE
  8
0
 62
     0
 10
207.09
 20
58.1547
 30
0.0
 11
206.29
 21
58.1547
 31
0.0
  0
LINE
  8
0
 62
     0
 10
206.29
 20
58.1547
 30
0.0
 11
206.29
 21
59.1538
 31
0.0
  0
LINE
  8
0
 62
     0
 10
206.29
 20
59.1538
 30
0.0
 11
192.29
 21
59.1538
 31
0.0
  0
LINE
  8
0
 62
     0
 10
192.29
 20
59.1538
 30
0.0
 11
192.29
 21
58.1547
 31
0.0
  0
LINE
  8
0
 62
     0
 10
192.29
 20
58.1547
 30
0.0
 11
191.49
 21
58.1547
 31
0.0
  0
LINE
  8
0
 62
     0
 10
191.49
 20
58.1547
 30
0.0
 11
191.49
 21
55.0541
 31
0.0
  0
LINE
  8
0
 62
     0
 10
191.49
 20
55.0541
 30
0.0
 11
192.29
 21
55.0541
 31
0.0
  0
LINE
  8
0
 62
     0
 10
192.29
 20
55.0541
 30
0.0
 11
192.29
 21
49.2538
 31
0.0
  0
LINE
  8
0
 62
     0
 10
192.29
 20
49.2538
 30
0.0
 11
191.49
 21
49.2538
 31
0.0
  0
LINE
  8
0
 62
     0
 10
191.49
 20
49.2538
 30
0.0
 11
191.49
 21
46.1546
 31
0.0
  0
LINE
  8
0
 62
     0
 10
191.49
 20
46.1546
 30
0.0
 11
192.29
 21
46.1546
 31
0.0
  0
LINE
  8
0
 62
     0
 10
192.29
 20
46.1546
 30
0.0
 11
192.29
 21
45.1541
 31
0.0
  0
LINE
  8
0
 62
     0
 10
192.29
 20
45.1541
 30
0.0
 11
206.29
 21
45.1541
 31
0.0
  0
LINE
  8
0
 62
     0
 10
206.29
 20
45.1541
 30
0.0
 11
206.29
 21
46.1546
 31
0.0
  0
LINE
  8
0
 62
     0
 10
225.34
 20
46.1546
 30
0.0
 11
226.14
 21
46.1546
 31
0.0
  0
LINE
  8
0
 62
     0
 10
226.14
 20
46.1546
 30
0.0
 11
226.14
 21
49.2538
 31
0.0
  0
LINE
  8
0
 62
     0
 10
226.14
 20
49.2538
 30
0.0
 11
225.34
 21
49.2538
 31
0.0
  0
LINE
  8
0
 62
     0
 10
225.34
 20
49.2538
 30
0.0
 11
225.34
 21
55.0541
 31
0.0
  0
LINE
  8
0
 62
     0
 10
225.34
 20
55.0541
 30
0.0
 11
226.14
 21
55.0541
 31
0.0
  0
LINE
  8
0
 62
     0
 10
226.14
 20
55.0541
 30
0.0
 11
226.14
 21
58.1547
 31
0.0
  0
LINE
  8
0
 62
     0
 10
226.14
 20
58.1547
 30
0.0
 11
225.34
 21
58.1547
 31
0.0
  0
LINE
  8
0
 62
     0
 10
225.34
 20
58.1547
 30
0.0
 11
225.34
 21
59.1538
 31
0.0
  0
LINE
  8
0
 62
     0
 10
225.34
 20
59.1538
 30
0.0
 11
211.34
 21
59.1538
 31
0.0
  0
LINE
  8
0
 62
     0
 10
211.34
 20
59.1538
 30
0.0
 11
211.34
 21
58.1547
 31
0.0
  0
LINE
  8
0
 62
     0
 10
211.34
 20
58.1547
 30
0.0
 11
210.54
 21
58.1547
 31
0.0
  0
LINE
  8
0
 62
     0
 10
210.54
 20
58.1547
 30
0.0
 11
210.54
 21
55.0541
 31
0.0
  0
LINE
  8
0
 62
     0
 10
210.54
 20
55.0541
 30
0.0
 11
211.34
 21
55.0541
 31
0.0
  0
LINE
  8
0
 62
     0
 10
211.34
 20
55.0541
 30
0.0
 11
211.34
 21
49.2538
 31
0.0
  0
LINE
  8
0
 62
     0
 10
211.34
 20
49.2538
 30
0.0
 11
210.54
 21
49.2538
 31
0.0
  0
LINE
  8
0
 62
     0
 10
210.54
 20
49.2538
 30
0.0
 11
210.54
 21
46.1546
 31
0.0
  0
LINE
  8
0
 62
     0
 10
210.54
 20
46.1546
 30
0.0
 11
211.34
 21
46.1546
 31
0.0
  0
LINE
  8
0
 62
     0
 10
211.34
 20
46.1546
 30
0.0
 11
211.34
 21
45.1541
 31
0.0
  0
LINE
  8
0
 62
     0
 10
211.34
 20
45.1541
 30
0.0
 11
225.34
 21
45.1541
 31
0.0
  0
LINE
  8
0
 62
     0
 10
225.34
 20
45.1541
 30
0.0
 11
225.34
 21
46.1546
 31
0.0
  0
LINE
  8
0
 62
     0
 10
244.39
 20
46.1546
 30
0.0
 11
245.19
 21
46.1546
 31
0.0
  0
LINE
  8
0
 62
     0
 10
245.19
 20
46.1546
 30
0.0
 11
245.19
 21
49.2538
 31
0.0
  0
LINE
  8
0
 62
     0
 10
245.19
 20
49.2538
 30
0.0
 11
244.39
 21
49.2538
 31
0.0
  0
LINE
  8
0
 62
     0
 10
244.39
 20
49.2538
 30
0.0
 11
244.39
 21
55.0541
 31
0.0
  0
LINE
  8
0
 62
     0
 10
244.39
 20
55.0541
 30
0.0
 11
245.19
 21
55.0541
 31
0.0
  0
LINE
  8
0
 62
     0
 10
245.19
 20
55.0541
 30
0.0
 11
245.19
 21
58.1547
 31
0.0
  0
LINE
  8
0
 62
     0
 10
245.19
 20
58.1547
 30
0.0
 11
244.39
 21
58.1547
 31
0.0
  0
LINE
  8
0
 62
     0
 10
244.39
 20
58.1547
 30
0.0
 11
244.39
 21
59.1538
 31
0.0
  0
LINE
  8
0
 62
     0
 10
244.39
 20
59.1538
 30
0.0
 11
230.39
 21
59.1538
 31
0.0
  0
LINE
  8
0
 62
     0
 10
230.39
 20
59.1538
 30
0.0
 11
230.39
 21
58.1547
 31
0.0
  0
LINE
  8
0
 62
     0
 10
230.39
 20
58.1547
 30
0.0
 11
229.59
 21
58.1547
 31
0.0
  0
LINE
  8
0
 62
     0
 10
229.59
 20
58.1547
 30
0.0
 11
229.59
 21
55.0541
 31
0.0
  0
LINE
  8
0
 62
     0
 10
229.59
 20
55.0541
 30
0.0
 11
230.39
 21
55.0541
 31
0.0
  0
LINE
  8
0
 62
     0
 10
230.39
 20
55.0541
 30
0.0
 11
230.39
 21
49.2538
 31
0.0
  0
LINE
  8
0
 62
     0
 10
230.39
 20
49.2538
 30
0.0
 11
229.59
 21
49.2538
 31
0.0
  0
LINE
  8
0
 62
     0
 10
229.59
 20
49.2538
 30
0.0
 11
229.59
 21
46.1546
 31
0.0
  0
LINE
  8
0
 62
     0
 10
229.59
 20
46.1546
 30
0.0
 11
230.39
 21
46.1546
 31
0.0
  0
LINE
  8
0
 62
     0
 10
230.39
 20
46.1546
 30
0.0
 11
230.39
 21
45.1541
 31
0.0
  0
LINE
  8
0
 62
     0
 10
230.39
 20
45.1541
 30
0.0
 11
244.39
 21
45.1541
 31
0.0
  0
LINE
  8
0
 62
     0
 10
244.39
 20
45.1541
 30
0.0
 11
244.39
 21
46.1546
 31
0.0
  0
LINE
  8
0
 62
     0
 10
263.44
 20
46.1546
 30
0.0
 11
264.24
 21
46.1546
 31
0.0
  0
LINE
  8
0
 62
     0
 10
264.24
 20
46.1546
 30
0.0
 11
264.24
 21
49.2538
 31
0.0
  0
LINE
  8
0
 62
     0
 10
264.24
 20
49.2538
 30
0.0
 11
263.44
 21
49.2538
 31
0.0
  0
LINE
  8
0
 62
     0
 10
263.44
 20
49.2538
 30
0.0
 11
263.44
 21
55.0541
 31
0.0
  0
LINE
  8
0
 62
     0
 10
263.44
 20
55.0541
 30
0.0
 11
264.24
 21
55.0541
 31
0.0
  0
LINE
  8
0
 62
     0
 10
264.24
 20
55.0541
 30
0.0
 11
264.24
 21
58.1547
 31
0.0
  0
LINE
  8
0
 62
     0
 10
264.24
 20
58.1547
 30
0.0
 11
263.44
 21
58.1547
 31
0.0
  0
LINE
  8
0
 62
     0
 10
263.44
 20
58.1547
 30
0.0
 11
263.44
 21
59.1538
 31
0.0
  0
LINE
  8
0
 62
     0
 10
263.44
 20
59.1538
 30
0.0
 11
249.439
 21
59.1538
 31
0.0
  0
LINE
  8
0
 62
     0
 10
249.439
 20
59.1538
 30
0.0
 11
249.439
 21
58.1547
 31
0.0
  0
LINE
  8
0
 62
     0
 10
249.439
 20
58.1547
 30
0.0
 11
248.64
 21
58.1547
 31
0.0
  0
LINE
  8
0
 62
     0
 10
248.64
 20
58.1547
 30
0.0
 11
248.64
 21
55.0541
 31
0.0
  0
LINE
  8
0
 62
     0
 10
248.64
 20
55.0541
 30
0.0
 11
249.439
 21
55.0541
 31
0.0
  0
LINE
  8
0
 62
     0
 10
249.439
 20
55.0541
 30
0.0
 11
249.439
 21
49.2538
 31
0.0
  0
LINE
  8
0
 62
     0
 10
249.439
 20
49.2538
 30
0.0
 11
248.64
 21
49.2538
 31
0.0
  0
LINE
  8
0
 62
     0
 10
248.64
 20
49.2538
 30
0.0
 11
248.64
 21
46.1546
 31
0.0
  0
LINE
  8
0
 62
     0
 10
248.64
 20
46.1546
 30
0.0
 11
249.439
 21
46.1546
 31
0.0
  0
LINE
  8
0
 62
     0
 10
249.439
 20
46.1546
 30
0.0
 11
249.439
 21
45.1541
 31
0.0
  0
LINE
  8
0
 62
     0
 10
249.439
 20
45.1541
 30
0.0
 11
263.44
 21
45.1541
 31
0.0
  0
LINE
  8
0
 62
     0
 10
263.44
 20
45.1541
 30
0.0
 11
263.44
 21
46.1546
 31
0.0
  0
LINE
  8
0
 62
     0
 10
280.17
 20
70.2539
 30
0.0
 11
283.401
 21
70.2539
 31
0.0
  0
LINE
  8
0
 62
     0
 10
283.401
 20
70.2539
 30
0.0
 11
283.401
 21
71.9296
 31
0.0
  0
LINE
  8
0
 62
     0
 10
283.401
 20
71.9296
 30
0.0
 11
284.321
 21
71.9296
 31
0.0
  0
LINE
  8
0
 62
     0
 10
284.321
 20
71.9296
 30
0.0
 11
284.321
 21
75.2299
 31
0.0
  0
LINE
  8
0
 62
     0
 10
284.321
 20
75.2299
 30
0.0
 11
283.401
 21
75.2299
 31
0.0
  0
LINE
  8
0
 62
     0
 10
283.401
 20
75.2299
 30
0.0
 11
283.401
 21
76.9041
 31
0.0
  0
LINE
  8
0
 62
     0
 10
283.401
 20
76.9041
 30
0.0
 11
280.17
 21
76.9041
 31
0.0
  0
LINE
  8
0
 62
     0
 10
280.17
 20
76.9041
 30
0.0
 11
280.17
 21
77.7794
 31
0.0
  0
LINE
  8
0
 62
     0
 10
280.17
 20
77.7794
 30
0.0
 11
277.37
 21
77.7794
 31
0.0
  0
LINE
  8
0
 62
     0
 10
277.37
 20
77.7794
 30
0.0
 11
277.37
 21
76.9041
 31
0.0
  0
LINE
  8
0
 62
     0
 10
277.37
 20
76.9041
 30
0.0
 11
271.1
 21
76.9041
 31
0.0
  0
LINE
  8
0
 62
     0
 10
271.1
 20
76.9041
 30
0.0
 11
271.1
 21
75.2299
 31
0.0
  0
LINE
  8
0
 62
     0
 10
271.1
 20
75.2299
 30
0.0
 11
270.12
 21
75.2299
 31
0.0
  0
LINE
  8
0
 62
     0
 10
270.12
 20
75.2299
 30
0.0
 11
270.12
 21
71.9296
 31
0.0
  0
LINE
  8
0
 62
     0
 10
270.12
 20
71.9296
 30
0.0
 11
271.1
 21
71.9296
 31
0.0
  0
LINE
  8
0
 62
     0
 10
271.1
 20
71.9296
 30
0.0
 11
271.1
 21
70.2539
 31
0.0
  0
LINE
  8
0
 62
     0
 10
271.1
 20
70.2539
 30
0.0
 11
275.571
 21
70.2539
 31
0.0
  0
LINE
  8
0
 62
     0
 10
275.571
 20
70.2539
 30
0.0
 11
275.571
 21
68.6788
 31
0.0
  0
LINE
  8
0
 62
     0
 10
275.571
 20
68.6788
 30
0.0
 11
274.971
 21
68.6788
 31
0.0
  0
LINE
  8
0
 62
     0
 10
274.971
 20
68.6788
 30
0.0
 11
274.971
 21
69.4792
 31
0.0
  0
LINE
  8
0
 62
     0
 10
274.971
 20
69.4792
 30
0.0
 11
271.87
 21
69.4792
 31
0.0
  0
LINE
  8
0
 62
     0
 10
271.87
 20
69.4792
 30
0.0
 11
271.87
 21
68.6788
 31
0.0
  0
LINE
  8
0
 62
     0
 10
271.87
 20
68.6788
 30
0.0
 11
270.87
 21
68.6788
 31
0.0
  0
LINE
  8
0
 62
     0
 10
270.87
 20
68.6788
 30
0.0
 11
270.87
 21
54.6791
 31
0.0
  0
LINE
  8
0
 62
     0
 10
270.87
 20
54.6791
 30
0.0
 11
271.87
 21
54.6791
 31
0.0
  0
LINE
  8
0
 62
     0
 10
271.87
 20
54.6791
 30
0.0
 11
271.87
 21
53.8797
 31
0.0
  0
LINE
  8
0
 62
     0
 10
271.87
 20
53.8797
 30
0.0
 11
274.971
 21
53.8797
 31
0.0
  0
LINE
  8
0
 62
     0
 10
274.971
 20
53.8797
 30
0.0
 11
274.971
 21
54.6791
 31
0.0
  0
LINE
  8
0
 62
     0
 10
274.971
 20
54.6791
 30
0.0
 11
275.571
 21
54.6791
 31
0.0
  0
LINE
  8
0
 62
     0
 10
275.571
 20
54.6791
 30
0.0
 11
275.571
 21
53.104
 31
0.0
  0
LINE
  8
0
 62
     0
 10
275.571
 20
53.104
 30
0.0
 11
271.1
 21
53.104
 31
0.0
  0
LINE
  8
0
 62
     0
 10
271.1
 20
53.104
 30
0.0
 11
271.1
 21
51.4297
 31
0.0
  0
LINE
  8
0
 62
     0
 10
271.1
 20
51.4297
 30
0.0
 11
270.12
 21
51.4297
 31
0.0
  0
LINE
  8
0
 62
     0
 10
270.12
 20
51.4297
 30
0.0
 11
270.12
 21
48.1295
 31
0.0
  0
LINE
  8
0
 62
     0
 10
270.12
 20
48.1295
 30
0.0
 11
271.1
 21
48.1295
 31
0.0
  0
LINE
  8
0
 62
     0
 10
271.1
 20
48.1295
 30
0.0
 11
271.1
 21
46.4538
 31
0.0
  0
LINE
  8
0
 62
     0
 10
271.1
 20
46.4538
 30
0.0
 11
277.37
 21
46.4538
 31
0.0
  0
LINE
  8
0
 62
     0
 10
277.37
 20
46.4538
 30
0.0
 11
277.37
 21
45.5799
 31
0.0
  0
LINE
  8
0
 62
     0
 10
277.37
 20
45.5799
 30
0.0
 11
280.17
 21
45.5799
 31
0.0
  0
LINE
  8
0
 62
     0
 10
280.17
 20
45.5799
 30
0.0
 11
280.17
 21
46.4538
 31
0.0
  0
LINE
  8
0
 62
     0
 10
280.17
 20
46.4538
 30
0.0
 11
283.401
 21
46.4538
 31
0.0
  0
LINE
  8
0
 62
     0
 10
283.401
 20
46.4538
 30
0.0
 11
283.401
 21
48.1295
 31
0.0
  0
LINE
  8
0
 62
     0
 10
283.401
 20
48.1295
 30
0.0
 11
284.321
 21
48.1295
 31
0.0
  0
LINE
  8
0
 62
     0
 10
284.321
 20
48.1295
 30
0.0
 11
284.321
 21
51.4297
 31
0.0
  0
LINE
  8
0
 62
     0
 10
284.321
 20
51.4297
 30
0.0
 11
283.401
 21
51.4297
 31
0.0
  0
LINE
  8
0
 62
     0
 10
283.401
 20
51.4297
 30
0.0
 11
283.401
 21
53.104
 31
0.0
  0
LINE
  8
0
 62
     0
 10
283.401
 20
53.104
 30
0.0
 11
280.17
 21
53.104
 31
0.0
  0
LINE
  8
0
 62
     0
 10
280.17
 20
53.104
 30
0.0
 11
280.17
 21
54.6791
 31
0.0
  0
LINE
  8
0
 62
     0
 10
280.17
 20
54.6791
 30
0.0
 11
280.771
 21
54.6791
 31
0.0
  0
LINE
  8
0
 62
     0
 10
280.771
 20
54.6791
 30
0.0
 11
280.771
 21
53.8797
 31
0.0
  0
LINE
  8
0
 62
     0
 10
280.771
 20
53.8797
 30
0.0
 11
283.87
 21
53.8797
 31
0.0
  0
LINE
  8
0
 62
     0
 10
283.87
 20
53.8797
 30
0.0
 11
283.87
 21
54.6791
 31
0.0
  0
LINE
  8
0
 62
     0
 10
283.87
 20
54.6791
 30
0.0
 11
284.871
 21
54.6791
 31
0.0
  0
LINE
  8
0
 62
     0
 10
284.871
 20
54.6791
 30
0.0
 11
284.871
 21
68.6788
 31
0.0
  0
LINE
  8
0
 62
     0
 10
284.871
 20
68.6788
 30
0.0
 11
283.87
 21
68.6788
 31
0.0
  0
LINE
  8
0
 62
     0
 10
283.87
 20
68.6788
 30
0.0
 11
283.87
 21
69.4792
 31
0.0
  0
LINE
  8
0
 62
     0
 10
283.87
 20
69.4792
 30
0.0
 11
280.771
 21
69.4792
 31
0.0
  0
LINE
  8
0
 62
     0
 10
280.771
 20
69.4792
 30
0.0
 11
280.771
 21
68.6788
 31
0.0
  0
LINE
  8
0
 62
     0
 10
280.771
 20
68.6788
 30
0.0
 11
280.17
 21
68.6788
 31
0.0
  0
LINE
  8
0
 62
     0
 10
280.17
 20
68.6788
 30
0.0
 11
280.17
 21
70.2539
 31
0.0
  0
LINE
  8
0
 62
     0
 10
25.3146
 20
65.2046
 30
0.0
 11
26.1152
 21
65.2046
 31
0.0
  0
LINE
  8
0
 62
     0
 10
26.1152
 20
65.2046
 30
0.0
 11
26.1152
 21
68.3038
 31
0.0
  0
LINE
  8
0
 62
     0
 10
26.1152
 20
68.3038
 30
0.0
 11
25.3146
 21
68.3038
 31
0.0
  0
LINE
  8
0
 62
     0
 10
25.3146
 20
68.3038
 30
0.0
 11
25.3146
 21
74.1041
 31
0.0
  0
LINE
  8
0
 62
     0
 10
25.3146
 20
74.1041
 30
0.0
 11
26.1152
 21
74.1041
 31
0.0
  0
LINE
  8
0
 62
     0
 10
26.1152
 20
74.1041
 30
0.0
 11
26.1152
 21
77.2047
 31
0.0
  0
LINE
  8
0
 62
     0
 10
26.1152
 20
77.2047
 30
0.0
 11
25.3146
 21
77.2047
 31
0.0
  0
LINE
  8
0
 62
     0
 10
25.3146
 20
77.2047
 30
0.0
 11
25.3146
 21
78.2038
 31
0.0
  0
LINE
  8
0
 62
     0
 10
25.3146
 20
78.2038
 30
0.0
 11
11.3151
 21
78.2038
 31
0.0
  0
LINE
  8
0
 62
     0
 10
11.3151
 20
78.2038
 30
0.0
 11
11.3151
 21
77.2047
 31
0.0
  0
LINE
  8
0
 62
     0
 10
11.3151
 20
77.2047
 30
0.0
 11
10.5144
 21
77.2047
 31
0.0
  0
LINE
  8
0
 62
     0
 10
10.5144
 20
77.2047
 30
0.0
 11
10.5144
 21
74.1041
 31
0.0
  0
LINE
  8
0
 62
     0
 10
10.5144
 20
74.1041
 30
0.0
 11
11.3151
 21
74.1041
 31
0.0
  0
LINE
  8
0
 62
     0
 10
11.3151
 20
74.1041
 30
0.0
 11
11.3151
 21
68.3038
 31
0.0
  0
LINE
  8
0
 62
     0
 10
11.3151
 20
68.3038
 30
0.0
 11
10.5144
 21
68.3038
 31
0.0
  0
LINE
  8
0
 62
     0
 10
10.5144
 20
68.3038
 30
0.0
 11
10.5144
 21
65.2046
 31
0.0
  0
LINE
  8
0
 62
     0
 10
10.5144
 20
65.2046
 30
0.0
 11
11.3151
 21
65.2046
 31
0.0
  0
LINE
  8
0
 62
     0
 10
11.3151
 20
65.2046
 30
0.0
 11
11.3151
 21
64.2041
 31
0.0
  0
LINE
  8
0
 62
     0
 10
11.3151
 20
64.2041
 30
0.0
 11
25.3146
 21
64.2041
 31
0.0
  0
LINE
  8
0
 62
     0
 10
25.3146
 20
64.2041
 30
0.0
 11
25.3146
 21
65.2046
 31
0.0
  0
LINE
  8
0
 62
     0
 10
49.1271
 20
65.2046
 30
0.0
 11
49.9276
 21
65.2046
 31
0.0
  0
LINE
  8
0
 62
     0
 10
49.9276
 20
65.2046
 30
0.0
 11
49.9276
 21
68.3038
 31
0.0
  0
LINE
  8
0
 62
     0
 10
49.9276
 20
68.3038
 30
0.0
 11
49.1271
 21
68.3038
 31
0.0
  0
LINE
  8
0
 62
     0
 10
49.1271
 20
68.3038
 30
0.0
 11
49.1271
 21
74.1041
 31
0.0
  0
LINE
  8
0
 62
     0
 10
49.1271
 20
74.1041
 30
0.0
 11
49.9276
 21
74.1041
 31
0.0
  0
LINE
  8
0
 62
     0
 10
49.9276
 20
74.1041
 30
0.0
 11
49.9276
 21
77.2047
 31
0.0
  0
LINE
  8
0
 62
     0
 10
49.9276
 20
77.2047
 30
0.0
 11
49.1271
 21
77.2047
 31
0.0
  0
LINE
  8
0
 62
     0
 10
49.1271
 20
77.2047
 30
0.0
 11
49.1271
 21
78.2038
 31
0.0
  0
LINE
  8
0
 62
     0
 10
49.1271
 20
78.2038
 30
0.0
 11
35.1276
 21
78.2038
 31
0.0
  0
LINE
  8
0
 62
     0
 10
35.1276
 20
78.2038
 30
0.0
 11
35.1276
 21
77.2047
 31
0.0
  0
LINE
  8
0
 62
     0
 10
35.1276
 20
77.2047
 30
0.0
 11
34.3283
 21
77.2047
 31
0.0
  0
LINE
  8
0
 62
     0
 10
34.3283
 20
77.2047
 30
0.0
 11
34.3283
 21
74.1041
 31
0.0
  0
LINE
  8
0
 62
     0
 10
34.3283
 20
74.1041
 30
0.0
 11
35.1276
 21
74.1041
 31
0.0
  0
LINE
  8
0
 62
     0
 10
35.1276
 20
74.1041
 30
0.0
 11
35.1276
 21
68.3038
 31
0.0
  0
LINE
  8
0
 62
     0
 10
35.1276
 20
68.3038
 30
0.0
 11
34.3283
 21
68.3038
 31
0.0
  0
LINE
  8
0
 62
     0
 10
34.3283
 20
68.3038
 30
0.0
 11
34.3283
 21
65.2046
 31
0.0
  0
LINE
  8
0
 62
     0
 10
34.3283
 20
65.2046
 30
0.0
 11
35.1276
 21
65.2046
 31
0.0
  0
LINE
  8
0
 62
     0
 10
35.1276
 20
65.2046
 30
0.0
 11
35.1276
 21
64.2041
 31
0.0
  0
LINE
  8
0
 62
     0
 10
35.1276
 20
64.2041
 30
0.0
 11
49.1271
 21
64.2041
 31
0.0
  0
LINE
  8
0
 62
     0
 10
49.1271
 20
64.2041
 30
0.0
 11
49.1271
 21
65.2046
 31
0.0
  0
LINE
  8
0
 62
     0
 10
68.1771
 20
65.2046
 30
0.0
 11
68.9776
 21
65.2046
 31
0.0
  0
LINE
  8
0
 62
     0
 10
68.9776
 20
65.2046
 30
0.0
 11
68.9776
 21
68.3038
 31
0.0
  0
LINE
  8
0
 62
     0
 10
68.9776
 20
68.3038
 30
0.0
 11
68.1771
 21
68.3038
 31
0.0
  0
LINE
  8
0
 62
     0
 10
68.1771
 20
68.3038
 30
0.0
 11
68.1771
 21
74.1041
 31
0.0
  0
LINE
  8
0
 62
     0
 10
68.1771
 20
74.1041
 30
0.0
 11
68.9776
 21
74.1041
 31
0.0
  0
LINE
  8
0
 62
     0
 10
68.9776
 20
74.1041
 30
0.0
 11
68.9776
 21
77.2047
 31
0.0
  0
LINE
  8
0
 62
     0
 10
68.9776
 20
77.2047
 30
0.0
 11
68.1771
 21
77.2047
 31
0.0
  0
LINE
  8
0
 62
     0
 10
68.1771
 20
77.2047
 30
0.0
 11
68.1771
 21
78.2038
 31
0.0
  0
LINE
  8
0
 62
     0
 10
68.1771
 20
78.2038
 30
0.0
 11
54.1775
 21
78.2038
 31
0.0
  0
LINE
  8
0
 62
     0
 10
54.1775
 20
78.2038
 30
0.0
 11
54.1775
 21
77.2047
 31
0.0
  0
LINE
  8
0
 62
     0
 10
54.1775
 20
77.2047
 30
0.0
 11
53.3785
 21
77.2047
 31
0.0
  0
LINE
  8
0
 62
     0
 10
53.3785
 20
77.2047
 30
0.0
 11
53.3785
 21
74.1041
 31
0.0
  0
LINE
  8
0
 62
     0
 10
53.3785
 20
74.1041
 30
0.0
 11
54.1775
 21
74.1041
 31
0.0
  0
LINE
  8
0
 62
     0
 10
54.1775
 20
74.1041
 30
0.0
 11
54.1775
 21
68.3038
 31
0.0
  0
LINE
  8
0
 62
     0
 10
54.1775
 20
68.3038
 30
0.0
 11
53.3785
 21
68.3038
 31
0.0
  0
LINE
  8
0
 62
     0
 10
53.3785
 20
68.3038
 30
0.0
 11
53.3785
 21
65.2046
 31
0.0
  0
LINE
  8
0
 62
     0
 10
53.3785
 20
65.2046
 30
0.0
 11
54.1775
 21
65.2046
 31
0.0
  0
LINE
  8
0
 62
     0
 10
54.1775
 20
65.2046
 30
0.0
 11
54.1775
 21
64.2041
 31
0.0
  0
LINE
  8
0
 62
     0
 10
54.1775
 20
64.2041
 30
0.0
 11
68.1771
 21
64.2041
 31
0.0
  0
LINE
  8
0
 62
     0
 10
68.1771
 20
64.2041
 30
0.0
 11
68.1771
 21
65.2046
 31
0.0
  0
LINE
  8
0
 62
     0
 10
87.2271
 20
65.2046
 30
0.0
 11
88.0276
 21
65.2046
 31
0.0
  0
LINE
  8
0
 62
     0
 10
88.0276
 20
65.2046
 30
0.0
 11
88.0276
 21
68.3038
 31
0.0
  0
LINE
  8
0
 62
     0
 10
88.0276
 20
68.3038
 30
0.0
 11
87.2271
 21
68.3038
 31
0.0
  0
LINE
  8
0
 62
     0
 10
87.2271
 20
68.3038
 30
0.0
 11
87.2271
 21
74.1041
 31
0.0
  0
LINE
  8
0
 62
     0
 10
87.2271
 20
74.1041
 30
0.0
 11
88.0276
 21
74.1041
 31
0.0
  0
LINE
  8
0
 62
     0
 10
88.0276
 20
74.1041
 30
0.0
 11
88.0276
 21
77.2047
 31
0.0
  0
LINE
  8
0
 62
     0
 10
88.0276
 20
77.2047
 30
0.0
 11
87.2271
 21
77.2047
 31
0.0
  0
LINE
  8
0
 62
     0
 10
87.2271
 20
77.2047
 30
0.0
 11
87.2271
 21
78.2038
 31
0.0
  0
LINE
  8
0
 62
     0
 10
87.2271
 20
78.2038
 30
0.0
 11
73.2275
 21
78.2038
 31
0.0
  0
LINE
  8
0
 62
     0
 10
73.2275
 20
78.2038
 30
0.0
 11
73.2275
 21
77.2047
 31
0.0
  0
LINE
  8
0
 62
     0
 10
73.2275
 20
77.2047
 30
0.0
 11
72.4285
 21
77.2047
 31
0.0
  0
LINE
  8
0
 62
     0
 10
72.4285
 20
77.2047
 30
0.0
 11
72.4285
 21
74.1041
 31
0.0
  0
LINE
  8
0
 62
     0
 10
72.4285
 20
74.1041
 30
0.0
 11
73.2275
 21
74.1041
 31
0.0
  0
LINE
  8
0
 62
     0
 10
73.2275
 20
74.1041
 30
0.0
 11
73.2275
 21
68.3038
 31
0.0
  0
LINE
  8
0
 62
     0
 10
73.2275
 20
68.3038
 30
0.0
 11
72.4285
 21
68.3038
 31
0.0
  0
LINE
  8
0
 62
     0
 10
72.4285
 20
68.3038
 30
0.0
 11
72.4285
 21
65.2046
 31
0.0
  0
LINE
  8
0
 62
     0
 10
72.4285
 20
65.2046
 30
0.0
 11
73.2275
 21
65.2046
 31
0.0
  0
LINE
  8
0
 62
     0
 10
73.2275
 20
65.2046
 30
0.0
 11
73.2275
 21
64.2041
 31
0.0
  0
LINE
  8
0
 62
     0
 10
73.2275
 20
64.2041
 30
0.0
 11
87.2271
 21
64.2041
 31
0.0
  0
LINE
  8
0
 62
     0
 10
87.2271
 20
64.2041
 30
0.0
 11
87.2271
 21
65.2046
 31
0.0
  0
LINE
  8
0
 62
     0
 10
106.277
 20
65.2046
 30
0.0
 11
107.078
 21
65.2046
 31
0.0
  0
LINE
  8
0
 62
     0
 10
107.078
 20
65.2046
 30
0.0
 11
107.078
 21
68.3038
 31
0.0
  0
LINE
  8
0
 62
     0
 10
107.078
 20
68.3038
 30
0.0
 11
106.277
 21
68.3038
 31
0.0
  0
LINE
  8
0
 62
     0
 10
106.277
 20
68.3038
 30
0.0
 11
106.277
 21
74.1041
 31
0.0
  0
LINE
  8
0
 62
     0
 10
106.277
 20
74.1041
 30
0.0
 11
107.078
 21
74.1041
 31
0.0
  0
LINE
  8
0
 62
     0
 10
107.078
 20
74.1041
 30
0.0
 11
107.078
 21
77.2047
 31
0.0
  0
LINE
  8
0
 62
     0
 10
107.078
 20
77.2047
 30
0.0
 11
106.277
 21
77.2047
 31
0.0
  0
LINE
  8
0
 62
     0
 10
106.277
 20
77.2047
 30
0.0
 11
106.277
 21
78.2038
 31
0.0
  0
LINE
  8
0
 62
     0
 10
106.277
 20
78.2038
 30
0.0
 11
92.2775
 21
78.2038
 31
0.0
  0
LINE
  8
0
 62
     0
 10
92.2775
 20
78.2038
 30
0.0
 11
92.2775
 21
77.2047
 31
0.0
  0
LINE
  8
0
 62
     0
 10
92.2775
 20
77.2047
 30
0.0
 11
91.4784
 21
77.2047
 31
0.0
  0
LINE
  8
0
 62
     0
 10
91.4784
 20
77.2047
 30
0.0
 11
91.4784
 21
74.1041
 31
0.0
  0
LINE
  8
0
 62
     0
 10
91.4784
 20
74.1041
 30
0.0
 11
92.2775
 21
74.1041
 31
0.0
  0
LINE
  8
0
 62
     0
 10
92.2775
 20
74.1041
 30
0.0
 11
92.2775
 21
68.3038
 31
0.0
  0
LINE
  8
0
 62
     0
 10
92.2775
 20
68.3038
 30
0.0
 11
91.4784
 21
68.3038
 31
0.0
  0
LINE
  8
0
 62
     0
 10
91.4784
 20
68.3038
 30
0.0
 11
91.4784
 21
65.2046
 31
0.0
  0
LINE
  8
0
 62
     0
 10
91.4784
 20
65.2046
 30
0.0
 11
92.2775
 21
65.2046
 31
0.0
  0
LINE
  8
0
 62
     0
 10
92.2775
 20
65.2046
 30
0.0
 11
92.2775
 21
64.2041
 31
0.0
  0
LINE
  8
0
 62
     0
 10
92.2775
 20
64.2041
 30
0.0
 11
106.277
 21
64.2041
 31
0.0
  0
LINE
  8
0
 62
     0
 10
106.277
 20
64.2041
 30
0.0
 11
106.277
 21
65.2046
 31
0.0
  0
LINE
  8
0
 62
     0
 10
125.327
 20
65.2046
 30
0.0
 11
126.128
 21
65.2046
 31
0.0
  0
LINE
  8
0
 62
     0
 10
126.128
 20
65.2046
 30
0.0
 11
126.128
 21
68.3038
 31
0.0
  0
LINE
  8
0
 62
     0
 10
126.128
 20
68.3038
 30
0.0
 11
125.327
 21
68.3038
 31
0.0
  0
LINE
  8
0
 62
     0
 10
125.327
 20
68.3038
 30
0.0
 11
125.327
 21
74.1041
 31
0.0
  0
LINE
  8
0
 62
     0
 10
125.327
 20
74.1041
 30
0.0
 11
126.128
 21
74.1041
 31
0.0
  0
LINE
  8
0
 62
     0
 10
126.128
 20
74.1041
 30
0.0
 11
126.128
 21
77.2047
 31
0.0
  0
LINE
  8
0
 62
     0
 10
126.128
 20
77.2047
 30
0.0
 11
125.327
 21
77.2047
 31
0.0
  0
LINE
  8
0
 62
     0
 10
125.327
 20
77.2047
 30
0.0
 11
125.327
 21
78.2038
 31
0.0
  0
LINE
  8
0
 62
     0
 10
125.327
 20
78.2038
 30
0.0
 11
111.327
 21
78.2038
 31
0.0
  0
LINE
  8
0
 62
     0
 10
111.327
 20
78.2038
 30
0.0
 11
111.327
 21
77.2047
 31
0.0
  0
LINE
  8
0
 62
     0
 10
111.327
 20
77.2047
 30
0.0
 11
110.527
 21
77.2047
 31
0.0
  0
LINE
  8
0
 62
     0
 10
110.527
 20
77.2047
 30
0.0
 11
110.527
 21
74.1041
 31
0.0
  0
LINE
  8
0
 62
     0
 10
110.527
 20
74.1041
 30
0.0
 11
111.327
 21
74.1041
 31
0.0
  0
LINE
  8
0
 62
     0
 10
111.327
 20
74.1041
 30
0.0
 11
111.327
 21
68.3038
 31
0.0
  0
LINE
  8
0
 62
     0
 10
111.327
 20
68.3038
 30
0.0
 11
110.527
 21
68.3038
 31
0.0
  0
LINE
  8
0
 62
     0
 10
110.527
 20
68.3038
 30
0.0
 11
110.527
 21
65.2046
 31
0.0
  0
LINE
  8
0
 62
     0
 10
110.527
 20
65.2046
 30
0.0
 11
111.327
 21
65.2046
 31
0.0
  0
LINE
  8
0
 62
     0
 10
111.327
 20
65.2046
 30
0.0
 11
111.327
 21
64.2041
 31
0.0
  0
LINE
  8
0
 62
     0
 10
111.327
 20
64.2041
 30
0.0
 11
125.327
 21
64.2041
 31
0.0
  0
LINE
  8
0
 62
     0
 10
125.327
 20
64.2041
 30
0.0
 11
125.327
 21
65.2046
 31
0.0
  0
LINE
  8
0
 62
     0
 10
144.377
 20
65.2046
 30
0.0
 11
145.178
 21
65.2046
 31
0.0
  0
LINE
  8
0
 62
     0
 10
145.178
 20
65.2046
 30
0.0
 11
145.178
 21
68.3038
 31
0.0
  0
LINE
  8
0
 62
     0
 10
145.178
 20
68.3038
 30
0.0
 11
144.377
 21
68.3038
 31
0.0
  0
LINE
  8
0
 62
     0
 10
144.377
 20
68.3038
 30
0.0
 11
144.377
 21
74.1041
 31
0.0
  0
LINE
  8
0
 62
     0
 10
144.377
 20
74.1041
 30
0.0
 11
145.178
 21
74.1041
 31
0.0
  0
LINE
  8
0
 62
     0
 10
145.178
 20
74.1041
 30
0.0
 11
145.178
 21
77.2047
 31
0.0
  0
LINE
  8
0
 62
     0
 10
145.178
 20
77.2047
 30
0.0
 11
144.377
 21
77.2047
 31
0.0
  0
LINE
  8
0
 62
     0
 10
144.377
 20
77.2047
 30
0.0
 11
144.377
 21
78.2038
 31
0.0
  0
LINE
  8
0
 62
     0
 10
144.377
 20
78.2038
 30
0.0
 11
130.377
 21
78.2038
 31
0.0
  0
LINE
  8
0
 62
     0
 10
130.377
 20
78.2038
 30
0.0
 11
130.377
 21
77.2047
 31
0.0
  0
LINE
  8
0
 62
     0
 10
130.377
 20
77.2047
 30
0.0
 11
129.577
 21
77.2047
 31
0.0
  0
LINE
  8
0
 62
     0
 10
129.577
 20
77.2047
 30
0.0
 11
129.577
 21
74.1041
 31
0.0
  0
LINE
  8
0
 62
     0
 10
129.577
 20
74.1041
 30
0.0
 11
130.377
 21
74.1041
 31
0.0
  0
LINE
  8
0
 62
     0
 10
130.377
 20
74.1041
 30
0.0
 11
130.377
 21
68.3038
 31
0.0
  0
LINE
  8
0
 62
     0
 10
130.377
 20
68.3038
 30
0.0
 11
129.577
 21
68.3038
 31
0.0
  0
LINE
  8
0
 62
     0
 10
129.577
 20
68.3038
 30
0.0
 11
129.577
 21
65.2046
 31
0.0
  0
LINE
  8
0
 62
     0
 10
129.577
 20
65.2046
 30
0.0
 11
130.377
 21
65.2046
 31
0.0
  0
LINE
  8
0
 62
     0
 10
130.377
 20
65.2046
 30
0.0
 11
130.377
 21
64.2041
 31
0.0
  0
LINE
  8
0
 62
     0
 10
130.377
 20
64.2041
 30
0.0
 11
144.377
 21
64.2041
 31
0.0
  0
LINE
  8
0
 62
     0
 10
144.377
 20
64.2041
 30
0.0
 11
144.377
 21
65.2046
 31
0.0
  0
LINE
  8
0
 62
     0
 10
163.427
 20
65.2046
 30
0.0
 11
164.228
 21
65.2046
 31
0.0
  0
LINE
  8
0
 62
     0
 10
164.228
 20
65.2046
 30
0.0
 11
164.228
 21
68.3038
 31
0.0
  0
LINE
  8
0
 62
     0
 10
164.228
 20
68.3038
 30
0.0
 11
163.427
 21
68.3038
 31
0.0
  0
LINE
  8
0
 62
     0
 10
163.427
 20
68.3038
 30
0.0
 11
163.427
 21
74.1041
 31
0.0
  0
LINE
  8
0
 62
     0
 10
163.427
 20
74.1041
 30
0.0
 11
164.228
 21
74.1041
 31
0.0
  0
LINE
  8
0
 62
     0
 10
164.228
 20
74.1041
 30
0.0
 11
164.228
 21
77.2047
 31
0.0
  0
LINE
  8
0
 62
     0
 10
164.228
 20
77.2047
 30
0.0
 11
163.427
 21
77.2047
 31
0.0
  0
LINE
  8
0
 62
     0
 10
163.427
 20
77.2047
 30
0.0
 11
163.427
 21
78.2038
 31
0.0
  0
LINE
  8
0
 62
     0
 10
163.427
 20
78.2038
 30
0.0
 11
149.427
 21
78.2038
 31
0.0
  0
LINE
  8
0
 62
     0
 10
149.427
 20
78.2038
 30
0.0
 11
149.427
 21
77.2047
 31
0.0
  0
LINE
  8
0
 62
     0
 10
149.427
 20
77.2047
 30
0.0
 11
148.627
 21
77.2047
 31
0.0
  0
LINE
  8
0
 62
     0
 10
148.627
 20
77.2047
 30
0.0
 11
148.627
 21
74.1041
 31
0.0
  0
LINE
  8
0
 62
     0
 10
148.627
 20
74.1041
 30
0.0
 11
149.427
 21
74.1041
 31
0.0
  0
LINE
  8
0
 62
     0
 10
149.427
 20
74.1041
 30
0.0
 11
149.427
 21
68.3038
 31
0.0
  0
LINE
  8
0
 62
     0
 10
149.427
 20
68.3038
 30
0.0
 11
148.627
 21
68.3038
 31
0.0
  0
LINE
  8
0
 62
     0
 10
148.627
 20
68.3038
 30
0.0
 11
148.627
 21
65.2046
 31
0.0
  0
LINE
  8
0
 62
     0
 10
148.627
 20
65.2046
 30
0.0
 11
149.427
 21
65.2046
 31
0.0
  0
LINE
  8
0
 62
     0
 10
149.427
 20
65.2046
 30
0.0
 11
149.427
 21
64.2041
 31
0.0
  0
LINE
  8
0
 62
     0
 10
149.427
 20
64.2041
 30
0.0
 11
163.427
 21
64.2041
 31
0.0
  0
LINE
  8
0
 62
     0
 10
163.427
 20
64.2041
 30
0.0
 11
163.427
 21
65.2046
 31
0.0
  0
LINE
  8
0
 62
     0
 10
182.477
 20
65.2046
 30
0.0
 11
183.278
 21
65.2046
 31
0.0
  0
LINE
  8
0
 62
     0
 10
183.278
 20
65.2046
 30
0.0
 11
183.278
 21
68.3038
 31
0.0
  0
LINE
  8
0
 62
     0
 10
183.278
 20
68.3038
 30
0.0
 11
182.477
 21
68.3038
 31
0.0
  0
LINE
  8
0
 62
     0
 10
182.477
 20
68.3038
 30
0.0
 11
182.477
 21
74.1041
 31
0.0
  0
LINE
  8
0
 62
     0
 10
182.477
 20
74.1041
 30
0.0
 11
183.278
 21
74.1041
 31
0.0
  0
LINE
  8
0
 62
     0
 10
183.278
 20
74.1041
 30
0.0
 11
183.278
 21
77.2047
 31
0.0
  0
LINE
  8
0
 62
     0
 10
183.278
 20
77.2047
 30
0.0
 11
182.477
 21
77.2047
 31
0.0
  0
LINE
  8
0
 62
     0
 10
182.477
 20
77.2047
 30
0.0
 11
182.477
 21
78.2038
 31
0.0
  0
LINE
  8
0
 62
     0
 10
182.477
 20
78.2038
 30
0.0
 11
168.477
 21
78.2038
 31
0.0
  0
LINE
  8
0
 62
     0
 10
168.477
 20
78.2038
 30
0.0
 11
168.477
 21
77.2047
 31
0.0
  0
LINE
  8
0
 62
     0
 10
168.477
 20
77.2047
 30
0.0
 11
167.677
 21
77.2047
 31
0.0
  0
LINE
  8
0
 62
     0
 10
167.677
 20
77.2047
 30
0.0
 11
167.677
 21
74.1041
 31
0.0
  0
LINE
  8
0
 62
     0
 10
167.677
 20
74.1041
 30
0.0
 11
168.477
 21
74.1041
 31
0.0
  0
LINE
  8
0
 62
     0
 10
168.477
 20
74.1041
 30
0.0
 11
168.477
 21
68.3038
 31
0.0
  0
LINE
  8
0
 62
     0
 10
168.477
 20
68.3038
 30
0.0
 11
167.677
 21
68.3038
 31
0.0
  0
LINE
  8
0
 62
     0
 10
167.677
 20
68.3038
 30
0.0
 11
167.677
 21
65.2046
 31
0.0
  0
LINE
  8
0
 62
     0
 10
167.677
 20
65.2046
 30
0.0
 11
168.477
 21
65.2046
 31
0.0
  0
LINE
  8
0
 62
     0
 10
168.477
 20
65.2046
 30
0.0
 11
168.477
 21
64.2041
 31
0.0
  0
LINE
  8
0
 62
     0
 10
168.477
 20
64.2041
 30
0.0
 11
182.477
 21
64.2041
 31
0.0
  0
LINE
  8
0
 62
     0
 10
182.477
 20
64.2041
 30
0.0
 11
182.477
 21
65.2046
 31
0.0
  0
LINE
  8
0
 62
     0
 10
201.527
 20
65.2046
 30
0.0
 11
202.328
 21
65.2046
 31
0.0
  0
LINE
  8
0
 62
     0
 10
202.328
 20
65.2046
 30
0.0
 11
202.328
 21
68.3038
 31
0.0
  0
LINE
  8
0
 62
     0
 10
202.328
 20
68.3038
 30
0.0
 11
201.527
 21
68.3038
 31
0.0
  0
LINE
  8
0
 62
     0
 10
201.527
 20
68.3038
 30
0.0
 11
201.527
 21
74.1041
 31
0.0
  0
LINE
  8
0
 62
     0
 10
201.527
 20
74.1041
 30
0.0
 11
202.328
 21
74.1041
 31
0.0
  0
LINE
  8
0
 62
     0
 10
202.328
 20
74.1041
 30
0.0
 11
202.328
 21
77.2047
 31
0.0
  0
LINE
  8
0
 62
     0
 10
202.328
 20
77.2047
 30
0.0
 11
201.527
 21
77.2047
 31
0.0
  0
LINE
  8
0
 62
     0
 10
201.527
 20
77.2047
 30
0.0
 11
201.527
 21
78.2038
 31
0.0
  0
LINE
  8
0
 62
     0
 10
201.527
 20
78.2038
 30
0.0
 11
187.527
 21
78.2038
 31
0.0
  0
LINE
  8
0
 62
     0
 10
187.527
 20
78.2038
 30
0.0
 11
187.527
 21
77.2047
 31
0.0
  0
LINE
  8
0
 62
     0
 10
187.527
 20
77.2047
 30
0.0
 11
186.727
 21
77.2047
 31
0.0
  0
LINE
  8
0
 62
     0
 10
186.727
 20
77.2047
 30
0.0
 11
186.727
 21
74.1041
 31
0.0
  0
LINE
  8
0
 62
     0
 10
186.727
 20
74.1041
 30
0.0
 11
187.527
 21
74.1041
 31
0.0
  0
LINE
  8
0
 62
     0
 10
187.527
 20
74.1041
 30
0.0
 11
187.527
 21
68.3038
 31
0.0
  0
LINE
  8
0
 62
     0
 10
187.527
 20
68.3038
 30
0.0
 11
186.727
 21
68.3038
 31
0.0
  0
LINE
  8
0
 62
     0
 10
186.727
 20
68.3038
 30
0.0
 11
186.727
 21
65.2046
 31
0.0
  0
LINE
  8
0
 62
     0
 10
186.727
 20
65.2046
 30
0.0
 11
187.527
 21
65.2046
 31
0.0
  0
LINE
  8
0
 62
     0
 10
187.527
 20
65.2046
 30
0.0
 11
187.527
 21
64.2041
 31
0.0
  0
LINE
  8
0
 62
     0
 10
187.527
 20
64.2041
 30
0.0
 11
201.527
 21
64.2041
 31
0.0
  0
LINE
  8
0
 62
     0
 10
201.527
 20
64.2041
 30
0.0
 11
201.527
 21
65.2046
 31
0.0
  0
LINE
  8
0
 62
     0
 10
220.577
 20
65.2046
 30
0.0
 11
221.378
 21
65.2046
 31
0.0
  0
LINE
  8
0
 62
     0
 10
221.378
 20
65.2046
 30
0.0
 11
221.378
 21
68.3038
 31
0.0
  0
LINE
  8
0
 62
     0
 10
221.378
 20
68.3038
 30
0.0
 11
220.577
 21
68.3038
 31
0.0
  0
LINE
  8
0
 62
     0
 10
220.577
 20
68.3038
 30
0.0
 11
220.577
 21
74.1041
 31
0.0
  0
LINE
  8
0
 62
     0
 10
220.577
 20
74.1041
 30
0.0
 11
221.378
 21
74.1041
 31
0.0
  0
LINE
  8
0
 62
     0
 10
221.378
 20
74.1041
 30
0.0
 11
221.378
 21
77.2047
 31
0.0
  0
LINE
  8
0
 62
     0
 10
221.378
 20
77.2047
 30
0.0
 11
220.577
 21
77.2047
 31
0.0
  0
LINE
  8
0
 62
     0
 10
220.577
 20
77.2047
 30
0.0
 11
220.577
 21
78.2038
 31
0.0
  0
LINE
  8
0
 62
     0
 10
220.577
 20
78.2038
 30
0.0
 11
206.577
 21
78.2038
 31
0.0
  0
LINE
  8
0
 62
     0
 10
206.577
 20
78.2038
 30
0.0
 11
206.577
 21
77.2047
 31
0.0
  0
LINE
  8
0
 62
     0
 10
206.577
 20
77.2047
 30
0.0
 11
205.777
 21
77.2047
 31
0.0
  0
LINE
  8
0
 62
     0
 10
205.777
 20
77.2047
 30
0.0
 11
205.777
 21
74.1041
 31
0.0
  0
LINE
  8
0
 62
     0
 10
205.777
 20
74.1041
 30
0.0
 11
206.577
 21
74.1041
 31
0.0
  0
LINE
  8
0
 62
     0
 10
206.577
 20
74.1041
 30
0.0
 11
206.577
 21
68.3038
 31
0.0
  0
LINE
  8
0
 62
     0
 10
206.577
 20
68.3038
 30
0.0
 11
205.777
 21
68.3038
 31
0.0
  0
LINE
  8
0
 62
     0
 10
205.777
 20
68.3038
 30
0.0
 11
205.777
 21
65.2046
 31
0.0
  0
LINE
  8
0
 62
     0
 10
205.777
 20
65.2046
 30
0.0
 11
206.577
 21
65.2046
 31
0.0
  0
LINE
  8
0
 62
     0
 10
206.577
 20
65.2046
 30
0.0
 11
206.577
 21
64.2041
 31
0.0
  0
LINE
  8
0
 62
     0
 10
206.577
 20
64.2041
 30
0.0
 11
220.577
 21
64.2041
 31
0.0
  0
LINE
  8
0
 62
     0
 10
220.577
 20
64.2041
 30
0.0
 11
220.577
 21
65.2046
 31
0.0
  0
LINE
  8
0
 62
     0
 10
239.627
 20
65.2046
 30
0.0
 11
240.428
 21
65.2046
 31
0.0
  0
LINE
  8
0
 62
     0
 10
240.428
 20
65.2046
 30
0.0
 11
240.428
 21
68.3038
 31
0.0
  0
LINE
  8
0
 62
     0
 10
240.428
 20
68.3038
 30
0.0
 11
239.627
 21
68.3038
 31
0.0
  0
LINE
  8
0
 62
     0
 10
239.627
 20
68.3038
 30
0.0
 11
239.627
 21
74.1041
 31
0.0
  0
LINE
  8
0
 62
     0
 10
239.627
 20
74.1041
 30
0.0
 11
240.428
 21
74.1041
 31
0.0
  0
LINE
  8
0
 62
     0
 10
240.428
 20
74.1041
 30
0.0
 11
240.428
 21
77.2047
 31
0.0
  0
LINE
  8
0
 62
     0
 10
240.428
 20
77.2047
 30
0.0
 11
239.627
 21
77.2047
 31
0.0
  0
LINE
  8
0
 62
     0
 10
239.627
 20
77.2047
 30
0.0
 11
239.627
 21
78.2038
 31
0.0
  0
LINE
  8
0
 62
     0
 10
239.627
 20
78.2038
 30
0.0
 11
225.627
 21
78.2038
 31
0.0
  0
LINE
  8
0
 62
     0
 10
225.627
 20
78.2038
 30
0.0
 11
225.627
 21
77.2047
 31
0.0
  0
LINE
  8
0
 62
     0
 10
225.627
 20
77.2047
 30
0.0
 11
224.827
 21
77.2047
 31
0.0
  0
LINE
  8
0
 62
     0
 10
224.827
 20
77.2047
 30
0.0
 11
224.827
 21
74.1041
 31
0.0
  0
LINE
  8
0
 62
     0
 10
224.827
 20
74.1041
 30
0.0
 11
225.627
 21
74.1041
 31
0.0
  0
LINE
  8
0
 62
     0
 10
225.627
 20
74.1041
 30
0.0
 11
225.627
 21
68.3038
 31
0.0
  0
LINE
  8
0
 62
     0
 10
225.627
 20
68.3038
 30
0.0
 11
224.827
 21
68.3038
 31
0.0
  0
LINE
  8
0
 62
     0
 10
224.827
 20
68.3038
 30
0.0
 11
224.827
 21
65.2046
 31
0.0
  0
LINE
  8
0
 62
     0
 10
224.827
 20
65.2046
 30
0.0
 11
225.627
 21
65.2046
 31
0.0
  0
LINE
  8
0
 62
     0
 10
225.627
 20
65.2046
 30
0.0
 11
225.627
 21
64.2041
 31
0.0
  0
LINE
  8
0
 62
     0
 10
225.627
 20
64.2041
 30
0.0
 11
239.627
 21
64.2041
 31
0.0
  0
LINE
  8
0
 62
     0
 10
239.627
 20
64.2041
 30
0.0
 11
239.627
 21
65.2046
 31
0.0
  0
LINE
  8
0
 62
     0
 10
258.677
 20
65.2046
 30
0.0
 11
259.478
 21
65.2046
 31
0.0
  0
LINE
  8
0
 62
     0
 10
259.478
 20
65.2046
 30
0.0
 11
259.478
 21
68.3038
 31
0.0
  0
LINE
  8
0
 62
     0
 10
259.478
 20
68.3038
 30
0.0
 11
258.677
 21
68.3038
 31
0.0
  0
LINE
  8
0
 62
     0
 10
258.677
 20
68.3038
 30
0.0
 11
258.677
 21
74.1041
 31
0.0
  0
LINE
  8
0
 62
     0
 10
258.677
 20
74.1041
 30
0.0
 11
259.478
 21
74.1041
 31
0.0
  0
LINE
  8
0
 62
     0
 10
259.478
 20
74.1041
 30
0.0
 11
259.478
 21
77.2047
 31
0.0
  0
LINE
  8
0
 62
     0
 10
259.478
 20
77.2047
 30
0.0
 11
258.677
 21
77.2047
 31
0.0
  0
LINE
  8
0
 62
     0
 10
258.677
 20
77.2047
 30
0.0
 11
258.677
 21
78.2038
 31
0.0
  0
LINE
  8
0
 62
     0
 10
258.677
 20
78.2038
 30
0.0
 11
244.677
 21
78.2038
 31
0.0
  0
LINE
  8
0
 62
     0
 10
244.677
 20
78.2038
 30
0.0
 11
244.677
 21
77.2047
 31
0.0
  0
LINE
  8
0
 62
     0
 10
244.677
 20
77.2047
 30
0.0
 11
243.877
 21
77.2047
 31
0.0
  0
LINE
  8
0
 62
     0
 10
243.877
 20
77.2047
 30
0.0
 11
243.877
 21
74.1041
 31
0.0
  0
LINE
  8
0
 62
     0
 10
243.877
 20
74.1041
 30
0.0
 11
244.677
 21
74.1041
 31
0.0
  0
LINE
  8
0
 62
     0
 10
244.677
 20
74.1041
 30
0.0
 11
244.677
 21
68.3038
 31
0.0
  0
LINE
  8
0
 62
     0
 10
244.677
 20
68.3038
 30
0.0
 11
243.877
 21
68.3038
 31
0.0
  0
LINE
  8
0
 62
     0
 10
243.877
 20
68.3038
 30
0.0
 11
243.877
 21
65.2046
 31
0.0
  0
LINE
  8
0
 62
     0
 10
243.877
 20
65.2046
 30
0.0
 11
244.677
 21
65.2046
 31
0.0
  0
LINE
  8
0
 62
     0
 10
244.677
 20
65.2046
 30
0.0
 11
244.677
 21
64.2041
 31
0.0
  0
LINE
  8
0
 62
     0
 10
244.677
 20
64.2041
 30
0.0
 11
258.677
 21
64.2041
 31
0.0
  0
LINE
  8
0
 62
     0
 10
258.677
 20
64.2041
 30
0.0
 11
258.677
 21
65.2046
 31
0.0
  0
LINE
  8
0
 62
     0
 10
311.065
 20
65.2046
 30
0.0
 11
311.865
 21
65.2046
 31
0.0
  0
LINE
  8
0
 62
     0
 10
311.865
 20
65.2046
 30
0.0
 11
311.865
 21
68.3038
 31
0.0
  0
LINE
  8
0
 62
     0
 10
311.865
 20
68.3038
 30
0.0
 11
311.065
 21
68.3038
 31
0.0
  0
LINE
  8
0
 62
     0
 10
311.065
 20
68.3038
 30
0.0
 11
311.065
 21
74.1041
 31
0.0
  0
LINE
  8
0
 62
     0
 10
311.065
 20
74.1041
 30
0.0
 11
311.865
 21
74.1041
 31
0.0
  0
LINE
  8
0
 62
     0
 10
311.865
 20
74.1041
 30
0.0
 11
311.865
 21
77.2047
 31
0.0
  0
LINE
  8
0
 62
     0
 10
311.865
 20
77.2047
 30
0.0
 11
311.065
 21
77.2047
 31
0.0
  0
LINE
  8
0
 62
     0
 10
311.065
 20
77.2047
 30
0.0
 11
311.065
 21
78.2038
 31
0.0
  0
LINE
  8
0
 62
     0
 10
311.065
 20
78.2038
 30
0.0
 11
297.065
 21
78.2038
 31
0.0
  0
LINE
  8
0
 62
     0
 10
297.065
 20
78.2038
 30
0.0
 11
297.065
 21
77.2047
 31
0.0
  0
LINE
  8
0
 62
     0
 10
297.065
 20
77.2047
 30
0.0
 11
296.265
 21
77.2047
 31
0.0
  0
LINE
  8
0
 62
     0
 10
296.265
 20
77.2047
 30
0.0
 11
296.265
 21
74.1041
 31
0.0
  0
LINE
  8
0
 62
     0
 10
296.265
 20
74.1041
 30
0.0
 11
297.065
 21
74.1041
 31
0.0
  0
LINE
  8
0
 62
     0
 10
297.065
 20
74.1041
 30
0.0
 11
297.065
 21
68.3038
 31
0.0
  0
LINE
  8
0
 62
     0
 10
297.065
 20
68.3038
 30
0.0
 11
296.265
 21
68.3038
 31
0.0
  0
LINE
  8
0
 62
     0
 10
296.265
 20
68.3038
 30
0.0
 11
296.265
 21
65.2046
 31
0.0
  0
LINE
  8
0
 62
     0
 10
296.265
 20
65.2046
 30
0.0
 11
297.065
 21
65.2046
 31
0.0
  0
LINE
  8
0
 62
     0
 10
297.065
 20
65.2046
 30
0.0
 11
297.065
 21
64.2041
 31
0.0
  0
LINE
  8
0
 62
     0
 10
297.065
 20
64.2041
 30
0.0
 11
311.065
 21
64.2041
 31
0.0
  0
LINE
  8
0
 62
     0
 10
311.065
 20
64.2041
 30
0.0
 11
311.065
 21
65.2046
 31
0.0
  0
LINE
  8
0
 62
     0
 10
330.115
 20
65.2046
 30
0.0
 11
330.915
 21
65.2046
 31
0.0
  0
LINE
  8
0
 62
     0
 10
330.915
 20
65.2046
 30
0.0
 11
330.915
 21
68.3038
 31
0.0
  0
LINE
  8
0
 62
     0
 10
330.915
 20
68.3038
 30
0.0
 11
330.115
 21
68.3038
 31
0.0
  0
LINE
  8
0
 62
     0
 10
330.115
 20
68.3038
 30
0.0
 11
330.115
 21
74.1041
 31
0.0
  0
LINE
  8
0
 62
     0
 10
330.115
 20
74.1041
 30
0.0
 11
330.915
 21
74.1041
 31
0.0
  0
LINE
  8
0
 62
     0
 10
330.915
 20
74.1041
 30
0.0
 11
330.915
 21
77.2047
 31
0.0
  0
LINE
  8
0
 62
     0
 10
330.915
 20
77.2047
 30
0.0
 11
330.115
 21
77.2047
 31
0.0
  0
LINE
  8
0
 62
     0
 10
330.115
 20
77.2047
 30
0.0
 11
330.115
 21
78.2038
 31
0.0
  0
LINE
  8
0
 62
     0
 10
330.115
 20
78.2038
 30
0.0
 11
316.115
 21
78.2038
 31
0.0
  0
LINE
  8
0
 62
     0
 10
316.115
 20
78.2038
 30
0.0
 11
316.115
 21
77.2047
 31
0.0
  0
LINE
  8
0
 62
     0
 10
316.115
 20
77.2047
 30
0.0
 11
315.315
 21
77.2047
 31
0.0
  0
LINE
  8
0
 62
     0
 10
315.315
 20
77.2047
 30
0.0
 11
315.315
 21
74.1041
 31
0.0
  0
LINE
  8
0
 62
     0
 10
315.315
 20
74.1041
 30
0.0
 11
316.115
 21
74.1041
 31
0.0
  0
LINE
  8
0
 62
     0
 10
316.115
 20
74.1041
 30
0.0
 11
316.115
 21
68.3038
 31
0.0
  0
LINE
  8
0
 62
     0
 10
316.115
 20
68.3038
 30
0.0
 11
315.315
 21
68.3038
 31
0.0
  0
LINE
  8
0
 62
     0
 10
315.315
 20
68.3038
 30
0.0
 11
315.315
 21
65.2046
 31
0.0
  0
LINE
  8
0
 62
     0
 10
315.315
 20
65.2046
 30
0.0
 11
316.115
 21
65.2046
 31
0.0
  0
LINE
  8
0
 62
     0
 10
316.115
 20
65.2046
 30
0.0
 11
316.115
 21
64.2041
 31
0.0
  0
LINE
  8
0
 62
     0
 10
316.115
 20
64.2041
 30
0.0
 11
330.115
 21
64.2041
 31
0.0
  0
LINE
  8
0
 62
     0
 10
330.115
 20
64.2041
 30
0.0
 11
330.115
 21
65.2046
 31
0.0
  0
LINE
  8
0
 62
     0
 10
349.165
 20
65.2046
 30
0.0
 11
349.965
 21
65.2046
 31
0.0
  0
LINE
  8
0
 62
     0
 10
349.965
 20
65.2046
 30
0.0
 11
349.965
 21
68.3038
 31
0.0
  0
LINE
  8
0
 62
     0
 10
349.965
 20
68.3038
 30
0.0
 11
349.165
 21
68.3038
 31
0.0
  0
LINE
  8
0
 62
     0
 10
349.165
 20
68.3038
 30
0.0
 11
349.165
 21
74.1041
 31
0.0
  0
LINE
  8
0
 62
     0
 10
349.165
 20
74.1041
 30
0.0
 11
349.965
 21
74.1041
 31
0.0
  0
LINE
  8
0
 62
     0
 10
349.965
 20
74.1041
 30
0.0
 11
349.965
 21
77.2047
 31
0.0
  0
LINE
  8
0
 62
     0
 10
349.965
 20
77.2047
 30
0.0
 11
349.165
 21
77.2047
 31
0.0
  0
LINE
  8
0
 62
     0
 10
349.165
 20
77.2047
 30
0.0
 11
349.165
 21
78.2038
 31
0.0
  0
LINE
  8
0
 62
     0
 10
349.165
 20
78.2038
 30
0.0
 11
335.165
 21
78.2038
 31
0.0
  0
LINE
  8
0
 62
     0
 10
335.165
 20
78.2038
 30
0.0
 11
335.165
 21
77.2047
 31
0.0
  0
LINE
  8
0
 62
     0
 10
335.165
 20
77.2047
 30
0.0
 11
334.365
 21
77.2047
 31
0.0
  0
LINE
  8
0
 62
     0
 10
334.365
 20
77.2047
 30
0.0
 11
334.365
 21
74.1041
 31
0.0
  0
LINE
  8
0
 62
     0
 10
334.365
 20
74.1041
 30
0.0
 11
335.165
 21
74.1041
 31
0.0
  0
LINE
  8
0
 62
     0
 10
335.165
 20
74.1041
 30
0.0
 11
335.165
 21
68.3038
 31
0.0
  0
LINE
  8
0
 62
     0
 10
335.165
 20
68.3038
 30
0.0
 11
334.365
 21
68.3038
 31
0.0
  0
LINE
  8
0
 62
     0
 10
334.365
 20
68.3038
 30
0.0
 11
334.365
 21
65.2046
 31
0.0
  0
LINE
  8
0
 62
     0
 10
334.365
 20
65.2046
 30
0.0
 11
335.165
 21
65.2046
 31
0.0
  0
LINE
  8
0
 62
     0
 10
335.165
 20
65.2046
 30
0.0
 11
335.165
 21
64.2041
 31
0.0
  0
LINE
  8
0
 62
     0
 10
335.165
 20
64.2041
 30
0.0
 11
349.165
 21
64.2041
 31
0.0
  0
LINE
  8
0
 62
     0
 10
349.165
 20
64.2041
 30
0.0
 11
349.165
 21
65.2046
 31
0.0
  0
LINE
  8
0
 62
     0
 10
280.978
 20
95.7848
 30
0.0
 11
279.302
 21
95.7848
 31
0.0
  0
LINE
  8
0
 62
     0
 10
279.302
 20
95.7848
 30
0.0
 11
279.302
 21
92.5544
 31
0.0
  0
LINE
  8
0
 62
     0
 10
279.302
 20
92.5544
 30
0.0
 11
277.727
 21
92.5544
 31
0.0
  0
LINE
  8
0
 62
     0
 10
277.727
 20
92.5544
 30
0.0
 11
277.727
 21
93.1541
 31
0.0
  0
LINE
  8
0
 62
     0
 10
277.727
 20
93.1541
 30
0.0
 11
278.528
 21
93.1541
 31
0.0
  0
LINE
  8
0
 62
     0
 10
278.528
 20
93.1541
 30
0.0
 11
278.528
 21
96.2547
 31
0.0
  0
LINE
  8
0
 62
     0
 10
278.528
 20
96.2547
 30
0.0
 11
277.727
 21
96.2547
 31
0.0
  0
LINE
  8
0
 62
     0
 10
277.727
 20
96.2547
 30
0.0
 11
277.727
 21
97.2538
 31
0.0
  0
LINE
  8
0
 62
     0
 10
277.727
 20
97.2538
 30
0.0
 11
263.727
 21
97.2538
 31
0.0
  0
LINE
  8
0
 62
     0
 10
263.727
 20
97.2538
 30
0.0
 11
263.727
 21
96.2547
 31
0.0
  0
LINE
  8
0
 62
     0
 10
263.727
 20
96.2547
 30
0.0
 11
262.927
 21
96.2547
 31
0.0
  0
LINE
  8
0
 62
     0
 10
262.927
 20
96.2547
 30
0.0
 11
262.927
 21
93.1541
 31
0.0
  0
LINE
  8
0
 62
     0
 10
262.927
 20
93.1541
 30
0.0
 11
263.727
 21
93.1541
 31
0.0
  0
LINE
  8
0
 62
     0
 10
263.727
 20
93.1541
 30
0.0
 11
263.727
 21
92.5544
 31
0.0
  0
LINE
  8
0
 62
     0
 10
263.727
 20
92.5544
 30
0.0
 11
262.152
 21
92.5544
 31
0.0
  0
LINE
  8
0
 62
     0
 10
262.152
 20
92.5544
 30
0.0
 11
262.152
 21
95.7848
 31
0.0
  0
LINE
  8
0
 62
     0
 10
262.152
 20
95.7848
 30
0.0
 11
260.478
 21
95.7848
 31
0.0
  0
LINE
  8
0
 62
     0
 10
260.478
 20
95.7848
 30
0.0
 11
260.478
 21
96.7038
 31
0.0
  0
LINE
  8
0
 62
     0
 10
260.478
 20
96.7038
 30
0.0
 11
257.178
 21
96.7038
 31
0.0
  0
LINE
  8
0
 62
     0
 10
257.178
 20
96.7038
 30
0.0
 11
257.178
 21
95.7848
 31
0.0
  0
LINE
  8
0
 62
     0
 10
257.178
 20
95.7848
 30
0.0
 11
255.502
 21
95.7848
 31
0.0
  0
LINE
  8
0
 62
     0
 10
255.502
 20
95.7848
 30
0.0
 11
255.502
 21
92.5544
 31
0.0
  0
LINE
  8
0
 62
     0
 10
255.502
 20
92.5544
 30
0.0
 11
254.627
 21
92.5544
 31
0.0
  0
LINE
  8
0
 62
     0
 10
254.627
 20
92.5544
 30
0.0
 11
254.627
 21
89.7544
 31
0.0
  0
LINE
  8
0
 62
     0
 10
254.627
 20
89.7544
 30
0.0
 11
255.502
 21
89.7544
 31
0.0
  0
LINE
  8
0
 62
     0
 10
255.502
 20
89.7544
 30
0.0
 11
255.502
 21
83.4842
 31
0.0
  0
LINE
  8
0
 62
     0
 10
255.502
 20
83.4842
 30
0.0
 11
257.178
 21
83.4842
 31
0.0
  0
LINE
  8
0
 62
     0
 10
257.178
 20
83.4842
 30
0.0
 11
257.178
 21
82.5045
 31
0.0
  0
LINE
  8
0
 62
     0
 10
257.178
 20
82.5045
 30
0.0
 11
260.478
 21
82.5045
 31
0.0
  0
LINE
  8
0
 62
     0
 10
260.478
 20
82.5045
 30
0.0
 11
260.478
 21
83.4842
 31
0.0
  0
LINE
  8
0
 62
     0
 10
260.478
 20
83.4842
 30
0.0
 11
262.152
 21
83.4842
 31
0.0
  0
LINE
  8
0
 62
     0
 10
262.152
 20
83.4842
 30
0.0
 11
262.152
 21
87.9546
 31
0.0
  0
LINE
  8
0
 62
     0
 10
262.152
 20
87.9546
 30
0.0
 11
263.727
 21
87.9546
 31
0.0
  0
LINE
  8
0
 62
     0
 10
263.727
 20
87.9546
 30
0.0
 11
263.727
 21
87.3538
 31
0.0
  0
LINE
  8
0
 62
     0
 10
263.727
 20
87.3538
 30
0.0
 11
262.927
 21
87.3538
 31
0.0
  0
LINE
  8
0
 62
     0
 10
262.927
 20
87.3538
 30
0.0
 11
262.927
 21
84.2546
 31
0.0
  0
LINE
  8
0
 62
     0
 10
262.927
 20
84.2546
 30
0.0
 11
263.727
 21
84.2546
 31
0.0
  0
LINE
  8
0
 62
     0
 10
263.727
 20
84.2546
 30
0.0
 11
263.727
 21
83.2556
 31
0.0
  0
LINE
  8
0
 62
     0
 10
263.727
 20
83.2556
 30
0.0
 11
277.727
 21
83.2556
 31
0.0
  0
LINE
  8
0
 62
     0
 10
277.727
 20
83.2556
 30
0.0
 11
277.727
 21
84.2546
 31
0.0
  0
LINE
  8
0
 62
     0
 10
277.727
 20
84.2546
 30
0.0
 11
278.528
 21
84.2546
 31
0.0
  0
LINE
  8
0
 62
     0
 10
278.528
 20
84.2546
 30
0.0
 11
278.528
 21
87.3538
 31
0.0
  0
LINE
  8
0
 62
     0
 10
278.528
 20
87.3538
 30
0.0
 11
277.727
 21
87.3538
 31
0.0
  0
LINE
  8
0
 62
     0
 10
277.727
 20
87.3538
 30
0.0
 11
277.727
 21
87.9546
 31
0.0
  0
LINE
  8
0
 62
     0
 10
277.727
 20
87.9546
 30
0.0
 11
279.302
 21
87.9546
 31
0.0
  0
LINE
  8
0
 62
     0
 10
279.302
 20
87.9546
 30
0.0
 11
279.302
 21
83.4842
 31
0.0
  0
LINE
  8
0
 62
     0
 10
279.302
 20
83.4842
 30
0.0
 11
280.978
 21
83.4842
 31
0.0
  0
LINE
  8
0
 62
     0
 10
280.978
 20
83.4842
 30
0.0
 11
280.978
 21
82.5045
 31
0.0
  0
LINE
  8
0
 62
     0
 10
280.978
 20
82.5045
 30
0.0
 11
284.278
 21
82.5045
 31
0.0
  0
LINE
  8
0
 62
     0
 10
284.278
 20
82.5045
 30
0.0
 11
284.278
 21
83.4842
 31
0.0
  0
LINE
  8
0
 62
     0
 10
284.278
 20
83.4842
 30
0.0
 11
285.952
 21
83.4842
 31
0.0
  0
LINE
  8
0
 62
     0
 10
285.952
 20
83.4842
 30
0.0
 11
285.952
 21
89.7544
 31
0.0
  0
LINE
  8
0
 62
     0
 10
285.952
 20
89.7544
 30
0.0
 11
286.828
 21
89.7544
 31
0.0
  0
LINE
  8
0
 62
     0
 10
286.828
 20
89.7544
 30
0.0
 11
286.828
 21
92.5544
 31
0.0
  0
LINE
  8
0
 62
     0
 10
286.828
 20
92.5544
 30
0.0
 11
285.952
 21
92.5544
 31
0.0
  0
LINE
  8
0
 62
     0
 10
285.952
 20
92.5544
 30
0.0
 11
285.952
 21
95.7848
 31
0.0
  0
LINE
  8
0
 62
     0
 10
285.952
 20
95.7848
 30
0.0
 11
284.278
 21
95.7848
 31
0.0
  0
LINE
  8
0
 62
     0
 10
284.278
 20
95.7848
 30
0.0
 11
284.278
 21
96.7038
 31
0.0
  0
LINE
  8
0
 62
     0
 10
284.278
 20
96.7038
 30
0.0
 11
280.978
 21
96.7038
 31
0.0
  0
LINE
  8
0
 62
     0
 10
280.978
 20
96.7038
 30
0.0
 11
280.978
 21
95.7848
 31
0.0
  0
LINE
  8
0
 62
     0
 10
20.5521
 20
84.2546
 30
0.0
 11
21.3527
 21
84.2546
 31
0.0
  0
LINE
  8
0
 62
     0
 10
21.3527
 20
84.2546
 30
0.0
 11
21.3527
 21
87.3538
 31
0.0
  0
LINE
  8
0
 62
     0
 10
21.3527
 20
87.3538
 30
0.0
 11
20.5521
 21
87.3538
 31
0.0
  0
LINE
  8
0
 62
     0
 10
20.5521
 20
87.3538
 30
0.0
 11
20.5521
 21
93.1541
 31
0.0
  0
LINE
  8
0
 62
     0
 10
20.5521
 20
93.1541
 30
0.0
 11
21.3527
 21
93.1541
 31
0.0
  0
LINE
  8
0
 62
     0
 10
21.3527
 20
93.1541
 30
0.0
 11
21.3527
 21
96.2547
 31
0.0
  0
LINE
  8
0
 62
     0
 10
21.3527
 20
96.2547
 30
0.0
 11
20.5521
 21
96.2547
 31
0.0
  0
LINE
  8
0
 62
     0
 10
20.5521
 20
96.2547
 30
0.0
 11
20.5521
 21
97.2538
 31
0.0
  0
LINE
  8
0
 62
     0
 10
20.5521
 20
97.2538
 30
0.0
 11
6.55256
 21
97.2538
 31
0.0
  0
LINE
  8
0
 62
     0
 10
6.55256
 20
97.2538
 30
0.0
 11
6.55256
 21
96.2547
 31
0.0
  0
LINE
  8
0
 62
     0
 10
6.55256
 20
96.2547
 30
0.0
 11
5.75194
 21
96.2547
 31
0.0
  0
LINE
  8
0
 62
     0
 10
5.75194
 20
96.2547
 30
0.0
 11
5.75194
 21
93.1541
 31
0.0
  0
LINE
  8
0
 62
     0
 10
5.75194
 20
93.1541
 30
0.0
 11
6.55256
 21
93.1541
 31
0.0
  0
LINE
  8
0
 62
     0
 10
6.55256
 20
93.1541
 30
0.0
 11
6.55256
 21
87.3538
 31
0.0
  0
LINE
  8
0
 62
     0
 10
6.55256
 20
87.3538
 30
0.0
 11
5.75194
 21
87.3538
 31
0.0
  0
LINE
  8
0
 62
     0
 10
5.75194
 20
87.3538
 30
0.0
 11
5.75194
 21
84.2546
 31
0.0
  0
LINE
  8
0
 62
     0
 10
5.75194
 20
84.2546
 30
0.0
 11
6.55256
 21
84.2546
 31
0.0
  0
LINE
  8
0
 62
     0
 10
6.55256
 20
84.2546
 30
0.0
 11
6.55256
 21
83.2556
 31
0.0
  0
LINE
  8
0
 62
     0
 10
6.55256
 20
83.2556
 30
0.0
 11
20.5521
 21
83.2556
 31
0.0
  0
LINE
  8
0
 62
     0
 10
20.5521
 20
83.2556
 30
0.0
 11
20.5521
 21
84.2546
 31
0.0
  0
LINE
  8
0
 62
     0
 10
39.6021
 20
84.2546
 30
0.0
 11
40.4026
 21
84.2546
 31
0.0
  0
LINE
  8
0
 62
     0
 10
40.4026
 20
84.2546
 30
0.0
 11
40.4026
 21
87.3538
 31
0.0
  0
LINE
  8
0
 62
     0
 10
40.4026
 20
87.3538
 30
0.0
 11
39.6021
 21
87.3538
 31
0.0
  0
LINE
  8
0
 62
     0
 10
39.6021
 20
87.3538
 30
0.0
 11
39.6021
 21
93.1541
 31
0.0
  0
LINE
  8
0
 62
     0
 10
39.6021
 20
93.1541
 30
0.0
 11
40.4026
 21
93.1541
 31
0.0
  0
LINE
  8
0
 62
     0
 10
40.4026
 20
93.1541
 30
0.0
 11
40.4026
 21
96.2547
 31
0.0
  0
LINE
  8
0
 62
     0
 10
40.4026
 20
96.2547
 30
0.0
 11
39.6021
 21
96.2547
 31
0.0
  0
LINE
  8
0
 62
     0
 10
39.6021
 20
96.2547
 30
0.0
 11
39.6021
 21
97.2538
 31
0.0
  0
LINE
  8
0
 62
     0
 10
39.6021
 20
97.2538
 30
0.0
 11
25.6026
 21
97.2538
 31
0.0
  0
LINE
  8
0
 62
     0
 10
25.6026
 20
97.2538
 30
0.0
 11
25.6026
 21
96.2547
 31
0.0
  0
LINE
  8
0
 62
     0
 10
25.6026
 20
96.2547
 30
0.0
 11
24.8033
 21
96.2547
 31
0.0
  0
LINE
  8
0
 62
     0
 10
24.8033
 20
96.2547
 30
0.0
 11
24.8033
 21
93.1541
 31
0.0
  0
LINE
  8
0
 62
     0
 10
24.8033
 20
93.1541
 30
0.0
 11
25.6026
 21
93.1541
 31
0.0
  0
LINE
  8
0
 62
     0
 10
25.6026
 20
93.1541
 30
0.0
 11
25.6026
 21
87.3538
 31
0.0
  0
LINE
  8
0
 62
     0
 10
25.6026
 20
87.3538
 30
0.0
 11
24.8033
 21
87.3538
 31
0.0
  0
LINE
  8
0
 62
     0
 10
24.8033
 20
87.3538
 30
0.0
 11
24.8033
 21
84.2546
 31
0.0
  0
LINE
  8
0
 62
     0
 10
24.8033
 20
84.2546
 30
0.0
 11
25.6026
 21
84.2546
 31
0.0
  0
LINE
  8
0
 62
     0
 10
25.6026
 20
84.2546
 30
0.0
 11
25.6026
 21
83.2556
 31
0.0
  0
LINE
  8
0
 62
     0
 10
25.6026
 20
83.2556
 30
0.0
 11
39.6021
 21
83.2556
 31
0.0
  0
LINE
  8
0
 62
     0
 10
39.6021
 20
83.2556
 30
0.0
 11
39.6021
 21
84.2546
 31
0.0
  0
LINE
  8
0
 62
     0
 10
58.6521
 20
84.2546
 30
0.0
 11
59.4526
 21
84.2546
 31
0.0
  0
LINE
  8
0
 62
     0
 10
59.4526
 20
84.2546
 30
0.0
 11
59.4526
 21
87.3538
 31
0.0
  0
LINE
  8
0
 62
     0
 10
59.4526
 20
87.3538
 30
0.0
 11
58.6521
 21
87.3538
 31
0.0
  0
LINE
  8
0
 62
     0
 10
58.6521
 20
87.3538
 30
0.0
 11
58.6521
 21
93.1541
 31
0.0
  0
LINE
  8
0
 62
     0
 10
58.6521
 20
93.1541
 30
0.0
 11
59.4526
 21
93.1541
 31
0.0
  0
LINE
  8
0
 62
     0
 10
59.4526
 20
93.1541
 30
0.0
 11
59.4526
 21
96.2547
 31
0.0
  0
LINE
  8
0
 62
     0
 10
59.4526
 20
96.2547
 30
0.0
 11
58.6521
 21
96.2547
 31
0.0
  0
LINE
  8
0
 62
     0
 10
58.6521
 20
96.2547
 30
0.0
 11
58.6521
 21
97.2538
 31
0.0
  0
LINE
  8
0
 62
     0
 10
58.6521
 20
97.2538
 30
0.0
 11
44.6525
 21
97.2538
 31
0.0
  0
LINE
  8
0
 62
     0
 10
44.6525
 20
97.2538
 30
0.0
 11
44.6525
 21
96.2547
 31
0.0
  0
LINE
  8
0
 62
     0
 10
44.6525
 20
96.2547
 30
0.0
 11
43.8535
 21
96.2547
 31
0.0
  0
LINE
  8
0
 62
     0
 10
43.8535
 20
96.2547
 30
0.0
 11
43.8535
 21
93.1541
 31
0.0
  0
LINE
  8
0
 62
     0
 10
43.8535
 20
93.1541
 30
0.0
 11
44.6525
 21
93.1541
 31
0.0
  0
LINE
  8
0
 62
     0
 10
44.6525
 20
93.1541
 30
0.0
 11
44.6525
 21
87.3538
 31
0.0
  0
LINE
  8
0
 62
     0
 10
44.6525
 20
87.3538
 30
0.0
 11
43.8535
 21
87.3538
 31
0.0
  0
LINE
  8
0
 62
     0
 10
43.8535
 20
87.3538
 30
0.0
 11
43.8535
 21
84.2546
 31
0.0
  0
LINE
  8
0
 62
     0
 10
43.8535
 20
84.2546
 30
0.0
 11
44.6525
 21
84.2546
 31
0.0
  0
LINE
  8
0
 62
     0
 10
44.6525
 20
84.2546
 30
0.0
 11
44.6525
 21
83.2556
 31
0.0
  0
LINE
  8
0
 62
     0
 10
44.6525
 20
83.2556
 30
0.0
 11
58.6521
 21
83.2556
 31
0.0
  0
LINE
  8
0
 62
     0
 10
58.6521
 20
83.2556
 30
0.0
 11
58.6521
 21
84.2546
 31
0.0
  0
LINE
  8
0
 62
     0
 10
77.7021
 20
84.2546
 30
0.0
 11
78.5026
 21
84.2546
 31
0.0
  0
LINE
  8
0
 62
     0
 10
78.5026
 20
84.2546
 30
0.0
 11
78.5026
 21
87.3538
 31
0.0
  0
LINE
  8
0
 62
     0
 10
78.5026
 20
87.3538
 30
0.0
 11
77.7021
 21
87.3538
 31
0.0
  0
LINE
  8
0
 62
     0
 10
77.7021
 20
87.3538
 30
0.0
 11
77.7021
 21
93.1541
 31
0.0
  0
LINE
  8
0
 62
     0
 10
77.7021
 20
93.1541
 30
0.0
 11
78.5026
 21
93.1541
 31
0.0
  0
LINE
  8
0
 62
     0
 10
78.5026
 20
93.1541
 30
0.0
 11
78.5026
 21
96.2547
 31
0.0
  0
LINE
  8
0
 62
     0
 10
78.5026
 20
96.2547
 30
0.0
 11
77.7021
 21
96.2547
 31
0.0
  0
LINE
  8
0
 62
     0
 10
77.7021
 20
96.2547
 30
0.0
 11
77.7021
 21
97.2538
 31
0.0
  0
LINE
  8
0
 62
     0
 10
77.7021
 20
97.2538
 30
0.0
 11
63.7025
 21
97.2538
 31
0.0
  0
LINE
  8
0
 62
     0
 10
63.7025
 20
97.2538
 30
0.0
 11
63.7025
 21
96.2547
 31
0.0
  0
LINE
  8
0
 62
     0
 10
63.7025
 20
96.2547
 30
0.0
 11
62.9035
 21
96.2547
 31
0.0
  0
LINE
  8
0
 62
     0
 10
62.9035
 20
96.2547
 30
0.0
 11
62.9035
 21
93.1541
 31
0.0
  0
LINE
  8
0
 62
     0
 10
62.9035
 20
93.1541
 30
0.0
 11
63.7025
 21
93.1541
 31
0.0
  0
LINE
  8
0
 62
     0
 10
63.7025
 20
93.1541
 30
0.0
 11
63.7025
 21
87.3538
 31
0.0
  0
LINE
  8
0
 62
     0
 10
63.7025
 20
87.3538
 30
0.0
 11
62.9035
 21
87.3538
 31
0.0
  0
LINE
  8
0
 62
     0
 10
62.9035
 20
87.3538
 30
0.0
 11
62.9035
 21
84.2546
 31
0.0
  0
LINE
  8
0
 62
     0
 10
62.9035
 20
84.2546
 30
0.0
 11
63.7025
 21
84.2546
 31
0.0
  0
LINE
  8
0
 62
     0
 10
63.7025
 20
84.2546
 30
0.0
 11
63.7025
 21
83.2556
 31
0.0
  0
LINE
  8
0
 62
     0
 10
63.7025
 20
83.2556
 30
0.0
 11
77.7021
 21
83.2556
 31
0.0
  0
LINE
  8
0
 62
     0
 10
77.7021
 20
83.2556
 30
0.0
 11
77.7021
 21
84.2546
 31
0.0
  0
LINE
  8
0
 62
     0
 10
96.7521
 20
84.2546
 30
0.0
 11
97.5512
 21
84.2546
 31
0.0
  0
LINE
  8
0
 62
     0
 10
97.5512
 20
84.2546
 30
0.0
 11
97.5512
 21
87.3538
 31
0.0
  0
LINE
  8
0
 62
     0
 10
97.5512
 20
87.3538
 30
0.0
 11
96.7521
 21
87.3538
 31
0.0
  0
LINE
  8
0
 62
     0
 10
96.7521
 20
87.3538
 30
0.0
 11
96.7521
 21
93.1541
 31
0.0
  0
LINE
  8
0
 62
     0
 10
96.7521
 20
93.1541
 30
0.0
 11
97.5512
 21
93.1541
 31
0.0
  0
LINE
  8
0
 62
     0
 10
97.5512
 20
93.1541
 30
0.0
 11
97.5512
 21
96.2547
 31
0.0
  0
LINE
  8
0
 62
     0
 10
97.5512
 20
96.2547
 30
0.0
 11
96.7521
 21
96.2547
 31
0.0
  0
LINE
  8
0
 62
     0
 10
96.7521
 20
96.2547
 30
0.0
 11
96.7521
 21
97.2538
 31
0.0
  0
LINE
  8
0
 62
     0
 10
96.7521
 20
97.2538
 30
0.0
 11
82.7525
 21
97.2538
 31
0.0
  0
LINE
  8
0
 62
     0
 10
82.7525
 20
97.2538
 30
0.0
 11
82.7525
 21
96.2547
 31
0.0
  0
LINE
  8
0
 62
     0
 10
82.7525
 20
96.2547
 30
0.0
 11
81.9535
 21
96.2547
 31
0.0
  0
LINE
  8
0
 62
     0
 10
81.9535
 20
96.2547
 30
0.0
 11
81.9535
 21
93.1541
 31
0.0
  0
LINE
  8
0
 62
     0
 10
81.9535
 20
93.1541
 30
0.0
 11
82.7525
 21
93.1541
 31
0.0
  0
LINE
  8
0
 62
     0
 10
82.7525
 20
93.1541
 30
0.0
 11
82.7525
 21
87.3538
 31
0.0
  0
LINE
  8
0
 62
     0
 10
82.7525
 20
87.3538
 30
0.0
 11
81.9535
 21
87.3538
 31
0.0
  0
LINE
  8
0
 62
     0
 10
81.9535
 20
87.3538
 30
0.0
 11
81.9535
 21
84.2546
 31
0.0
  0
LINE
  8
0
 62
     0
 10
81.9535
 20
84.2546
 30
0.0
 11
82.7525
 21
84.2546
 31
0.0
  0
LINE
  8
0
 62
     0
 10
82.7525
 20
84.2546
 30
0.0
 11
82.7525
 21
83.2556
 31
0.0
  0
LINE
  8
0
 62
     0
 10
82.7525
 20
83.2556
 30
0.0
 11
96.7521
 21
83.2556
 31
0.0
  0
LINE
  8
0
 62
     0
 10
96.7521
 20
83.2556
 30
0.0
 11
96.7521
 21
84.2546
 31
0.0
  0
LINE
  8
0
 62
     0
 10
115.802
 20
84.2546
 30
0.0
 11
116.601
 21
84.2546
 31
0.0
  0
LINE
  8
0
 62
     0
 10
116.601
 20
84.2546
 30
0.0
 11
116.601
 21
87.3538
 31
0.0
  0
LINE
  8
0
 62
     0
 10
116.601
 20
87.3538
 30
0.0
 11
115.802
 21
87.3538
 31
0.0
  0
LINE
  8
0
 62
     0
 10
115.802
 20
87.3538
 30
0.0
 11
115.802
 21
93.1541
 31
0.0
  0
LINE
  8
0
 62
     0
 10
115.802
 20
93.1541
 30
0.0
 11
116.601
 21
93.1541
 31
0.0
  0
LINE
  8
0
 62
     0
 10
116.601
 20
93.1541
 30
0.0
 11
116.601
 21
96.2547
 31
0.0
  0
LINE
  8
0
 62
     0
 10
116.601
 20
96.2547
 30
0.0
 11
115.802
 21
96.2547
 31
0.0
  0
LINE
  8
0
 62
     0
 10
115.802
 20
96.2547
 30
0.0
 11
115.802
 21
97.2538
 31
0.0
  0
LINE
  8
0
 62
     0
 10
115.802
 20
97.2538
 30
0.0
 11
101.801
 21
97.2538
 31
0.0
  0
LINE
  8
0
 62
     0
 10
101.801
 20
97.2538
 30
0.0
 11
101.801
 21
96.2547
 31
0.0
  0
LINE
  8
0
 62
     0
 10
101.801
 20
96.2547
 30
0.0
 11
101.002
 21
96.2547
 31
0.0
  0
LINE
  8
0
 62
     0
 10
101.002
 20
96.2547
 30
0.0
 11
101.002
 21
93.1541
 31
0.0
  0
LINE
  8
0
 62
     0
 10
101.002
 20
93.1541
 30
0.0
 11
101.801
 21
93.1541
 31
0.0
  0
LINE
  8
0
 62
     0
 10
101.801
 20
93.1541
 30
0.0
 11
101.801
 21
87.3538
 31
0.0
  0
LINE
  8
0
 62
     0
 10
101.801
 20
87.3538
 30
0.0
 11
101.002
 21
87.3538
 31
0.0
  0
LINE
  8
0
 62
     0
 10
101.002
 20
87.3538
 30
0.0
 11
101.002
 21
84.2546
 31
0.0
  0
LINE
  8
0
 62
     0
 10
101.002
 20
84.2546
 30
0.0
 11
101.801
 21
84.2546
 31
0.0
  0
LINE
  8
0
 62
     0
 10
101.801
 20
84.2546
 30
0.0
 11
101.801
 21
83.2556
 31
0.0
  0
LINE
  8
0
 62
     0
 10
101.801
 20
83.2556
 30
0.0
 11
115.802
 21
83.2556
 31
0.0
  0
LINE
  8
0
 62
     0
 10
115.802
 20
83.2556
 30
0.0
 11
115.802
 21
84.2546
 31
0.0
  0
LINE
  8
0
 62
     0
 10
134.852
 20
84.2546
 30
0.0
 11
135.653
 21
84.2546
 31
0.0
  0
LINE
  8
0
 62
     0
 10
135.653
 20
84.2546
 30
0.0
 11
135.653
 21
87.3538
 31
0.0
  0
LINE
  8
0
 62
     0
 10
135.653
 20
87.3538
 30
0.0
 11
134.852
 21
87.3538
 31
0.0
  0
LINE
  8
0
 62
     0
 10
134.852
 20
87.3538
 30
0.0
 11
134.852
 21
93.1541
 31
0.0
  0
LINE
  8
0
 62
     0
 10
134.852
 20
93.1541
 30
0.0
 11
135.653
 21
93.1541
 31
0.0
  0
LINE
  8
0
 62
     0
 10
135.653
 20
93.1541
 30
0.0
 11
135.653
 21
96.2547
 31
0.0
  0
LINE
  8
0
 62
     0
 10
135.653
 20
96.2547
 30
0.0
 11
134.852
 21
96.2547
 31
0.0
  0
LINE
  8
0
 62
     0
 10
134.852
 20
96.2547
 30
0.0
 11
134.852
 21
97.2538
 31
0.0
  0
LINE
  8
0
 62
     0
 10
134.852
 20
97.2538
 30
0.0
 11
120.851
 21
97.2538
 31
0.0
  0
LINE
  8
0
 62
     0
 10
120.851
 20
97.2538
 30
0.0
 11
120.851
 21
96.2547
 31
0.0
  0
LINE
  8
0
 62
     0
 10
120.851
 20
96.2547
 30
0.0
 11
120.052
 21
96.2547
 31
0.0
  0
LINE
  8
0
 62
     0
 10
120.052
 20
96.2547
 30
0.0
 11
120.052
 21
93.1541
 31
0.0
  0
LINE
  8
0
 62
     0
 10
120.052
 20
93.1541
 30
0.0
 11
120.851
 21
93.1541
 31
0.0
  0
LINE
  8
0
 62
     0
 10
120.851
 20
93.1541
 30
0.0
 11
120.851
 21
87.3538
 31
0.0
  0
LINE
  8
0
 62
     0
 10
120.851
 20
87.3538
 30
0.0
 11
120.052
 21
87.3538
 31
0.0
  0
LINE
  8
0
 62
     0
 10
120.052
 20
87.3538
 30
0.0
 11
120.052
 21
84.2546
 31
0.0
  0
LINE
  8
0
 62
     0
 10
120.052
 20
84.2546
 30
0.0
 11
120.851
 21
84.2546
 31
0.0
  0
LINE
  8
0
 62
     0
 10
120.851
 20
84.2546
 30
0.0
 11
120.851
 21
83.2556
 31
0.0
  0
LINE
  8
0
 62
     0
 10
120.851
 20
83.2556
 30
0.0
 11
134.852
 21
83.2556
 31
0.0
  0
LINE
  8
0
 62
     0
 10
134.852
 20
83.2556
 30
0.0
 11
134.852
 21
84.2546
 31
0.0
  0
LINE
  8
0
 62
     0
 10
153.902
 20
84.2546
 30
0.0
 11
154.703
 21
84.2546
 31
0.0
  0
LINE
  8
0
 62
     0
 10
154.703
 20
84.2546
 30
0.0
 11
154.703
 21
87.3538
 31
0.0
  0
LINE
  8
0
 62
     0
 10
154.703
 20
87.3538
 30
0.0
 11
153.902
 21
87.3538
 31
0.0
  0
LINE
  8
0
 62
     0
 10
153.902
 20
87.3538
 30
0.0
 11
153.902
 21
93.1541
 31
0.0
  0
LINE
  8
0
 62
     0
 10
153.902
 20
93.1541
 30
0.0
 11
154.703
 21
93.1541
 31
0.0
  0
LINE
  8
0
 62
     0
 10
154.703
 20
93.1541
 30
0.0
 11
154.703
 21
96.2547
 31
0.0
  0
LINE
  8
0
 62
     0
 10
154.703
 20
96.2547
 30
0.0
 11
153.902
 21
96.2547
 31
0.0
  0
LINE
  8
0
 62
     0
 10
153.902
 20
96.2547
 30
0.0
 11
153.902
 21
97.2538
 31
0.0
  0
LINE
  8
0
 62
     0
 10
153.902
 20
97.2538
 30
0.0
 11
139.902
 21
97.2538
 31
0.0
  0
LINE
  8
0
 62
     0
 10
139.902
 20
97.2538
 30
0.0
 11
139.902
 21
96.2547
 31
0.0
  0
LINE
  8
0
 62
     0
 10
139.902
 20
96.2547
 30
0.0
 11
139.102
 21
96.2547
 31
0.0
  0
LINE
  8
0
 62
     0
 10
139.102
 20
96.2547
 30
0.0
 11
139.102
 21
93.1541
 31
0.0
  0
LINE
  8
0
 62
     0
 10
139.102
 20
93.1541
 30
0.0
 11
139.902
 21
93.1541
 31
0.0
  0
LINE
  8
0
 62
     0
 10
139.902
 20
93.1541
 30
0.0
 11
139.902
 21
87.3538
 31
0.0
  0
LINE
  8
0
 62
     0
 10
139.902
 20
87.3538
 30
0.0
 11
139.102
 21
87.3538
 31
0.0
  0
LINE
  8
0
 62
     0
 10
139.102
 20
87.3538
 30
0.0
 11
139.102
 21
84.2546
 31
0.0
  0
LINE
  8
0
 62
     0
 10
139.102
 20
84.2546
 30
0.0
 11
139.902
 21
84.2546
 31
0.0
  0
LINE
  8
0
 62
     0
 10
139.902
 20
84.2546
 30
0.0
 11
139.902
 21
83.2556
 31
0.0
  0
LINE
  8
0
 62
     0
 10
139.902
 20
83.2556
 30
0.0
 11
153.902
 21
83.2556
 31
0.0
  0
LINE
  8
0
 62
     0
 10
153.902
 20
83.2556
 30
0.0
 11
153.902
 21
84.2546
 31
0.0
  0
LINE
  8
0
 62
     0
 10
172.952
 20
84.2546
 30
0.0
 11
173.753
 21
84.2546
 31
0.0
  0
LINE
  8
0
 62
     0
 10
173.753
 20
84.2546
 30
0.0
 11
173.753
 21
87.3538
 31
0.0
  0
LINE
  8
0
 62
     0
 10
173.753
 20
87.3538
 30
0.0
 11
172.952
 21
87.3538
 31
0.0
  0
LINE
  8
0
 62
     0
 10
172.952
 20
87.3538
 30
0.0
 11
172.952
 21
93.1541
 31
0.0
  0
LINE
  8
0
 62
     0
 10
172.952
 20
93.1541
 30
0.0
 11
173.753
 21
93.1541
 31
0.0
  0
LINE
  8
0
 62
     0
 10
173.753
 20
93.1541
 30
0.0
 11
173.753
 21
96.2547
 31
0.0
  0
LINE
  8
0
 62
     0
 10
173.753
 20
96.2547
 30
0.0
 11
172.952
 21
96.2547
 31
0.0
  0
LINE
  8
0
 62
     0
 10
172.952
 20
96.2547
 30
0.0
 11
172.952
 21
97.2538
 31
0.0
  0
LINE
  8
0
 62
     0
 10
172.952
 20
97.2538
 30
0.0
 11
158.952
 21
97.2538
 31
0.0
  0
LINE
  8
0
 62
     0
 10
158.952
 20
97.2538
 30
0.0
 11
158.952
 21
96.2547
 31
0.0
  0
LINE
  8
0
 62
     0
 10
158.952
 20
96.2547
 30
0.0
 11
158.152
 21
96.2547
 31
0.0
  0
LINE
  8
0
 62
     0
 10
158.152
 20
96.2547
 30
0.0
 11
158.152
 21
93.1541
 31
0.0
  0
LINE
  8
0
 62
     0
 10
158.152
 20
93.1541
 30
0.0
 11
158.952
 21
93.1541
 31
0.0
  0
LINE
  8
0
 62
     0
 10
158.952
 20
93.1541
 30
0.0
 11
158.952
 21
87.3538
 31
0.0
  0
LINE
  8
0
 62
     0
 10
158.952
 20
87.3538
 30
0.0
 11
158.152
 21
87.3538
 31
0.0
  0
LINE
  8
0
 62
     0
 10
158.152
 20
87.3538
 30
0.0
 11
158.152
 21
84.2546
 31
0.0
  0
LINE
  8
0
 62
     0
 10
158.152
 20
84.2546
 30
0.0
 11
158.952
 21
84.2546
 31
0.0
  0
LINE
  8
0
 62
     0
 10
158.952
 20
84.2546
 30
0.0
 11
158.952
 21
83.2556
 31
0.0
  0
LINE
  8
0
 62
     0
 10
158.952
 20
83.2556
 30
0.0
 11
172.952
 21
83.2556
 31
0.0
  0
LINE
  8
0
 62
     0
 10
172.952
 20
83.2556
 30
0.0
 11
172.952
 21
84.2546
 31
0.0
  0
LINE
  8
0
 62
     0
 10
192.002
 20
84.2546
 30
0.0
 11
192.803
 21
84.2546
 31
0.0
  0
LINE
  8
0
 62
     0
 10
192.803
 20
84.2546
 30
0.0
 11
192.803
 21
87.3538
 31
0.0
  0
LINE
  8
0
 62
     0
 10
192.803
 20
87.3538
 30
0.0
 11
192.002
 21
87.3538
 31
0.0
  0
LINE
  8
0
 62
     0
 10
192.002
 20
87.3538
 30
0.0
 11
192.002
 21
93.1541
 31
0.0
  0
LINE
  8
0
 62
     0
 10
192.002
 20
93.1541
 30
0.0
 11
192.803
 21
93.1541
 31
0.0
  0
LINE
  8
0
 62
     0
 10
192.803
 20
93.1541
 30
0.0
 11
192.803
 21
96.2547
 31
0.0
  0
LINE
  8
0
 62
     0
 10
192.803
 20
96.2547
 30
0.0
 11
192.002
 21
96.2547
 31
0.0
  0
LINE
  8
0
 62
     0
 10
192.002
 20
96.2547
 30
0.0
 11
192.002
 21
97.2538
 31
0.0
  0
LINE
  8
0
 62
     0
 10
192.002
 20
97.2538
 30
0.0
 11
178.002
 21
97.2538
 31
0.0
  0
LINE
  8
0
 62
     0
 10
178.002
 20
97.2538
 30
0.0
 11
178.002
 21
96.2547
 31
0.0
  0
LINE
  8
0
 62
     0
 10
178.002
 20
96.2547
 30
0.0
 11
177.202
 21
96.2547
 31
0.0
  0
LINE
  8
0
 62
     0
 10
177.202
 20
96.2547
 30
0.0
 11
177.202
 21
93.1541
 31
0.0
  0
LINE
  8
0
 62
     0
 10
177.202
 20
93.1541
 30
0.0
 11
178.002
 21
93.1541
 31
0.0
  0
LINE
  8
0
 62
     0
 10
178.002
 20
93.1541
 30
0.0
 11
178.002
 21
87.3538
 31
0.0
  0
LINE
  8
0
 62
     0
 10
178.002
 20
87.3538
 30
0.0
 11
177.202
 21
87.3538
 31
0.0
  0
LINE
  8
0
 62
     0
 10
177.202
 20
87.3538
 30
0.0
 11
177.202
 21
84.2546
 31
0.0
  0
LINE
  8
0
 62
     0
 10
177.202
 20
84.2546
 30
0.0
 11
178.002
 21
84.2546
 31
0.0
  0
LINE
  8
0
 62
     0
 10
178.002
 20
84.2546
 30
0.0
 11
178.002
 21
83.2556
 31
0.0
  0
LINE
  8
0
 62
     0
 10
178.002
 20
83.2556
 30
0.0
 11
192.002
 21
83.2556
 31
0.0
  0
LINE
  8
0
 62
     0
 10
192.002
 20
83.2556
 30
0.0
 11
192.002
 21
84.2546
 31
0.0
  0
LINE
  8
0
 62
     0
 10
211.052
 20
84.2546
 30
0.0
 11
211.853
 21
84.2546
 31
0.0
  0
LINE
  8
0
 62
     0
 10
211.853
 20
84.2546
 30
0.0
 11
211.853
 21
87.3538
 31
0.0
  0
LINE
  8
0
 62
     0
 10
211.853
 20
87.3538
 30
0.0
 11
211.052
 21
87.3538
 31
0.0
  0
LINE
  8
0
 62
     0
 10
211.052
 20
87.3538
 30
0.0
 11
211.052
 21
93.1541
 31
0.0
  0
LINE
  8
0
 62
     0
 10
211.052
 20
93.1541
 30
0.0
 11
211.853
 21
93.1541
 31
0.0
  0
LINE
  8
0
 62
     0
 10
211.853
 20
93.1541
 30
0.0
 11
211.853
 21
96.2547
 31
0.0
  0
LINE
  8
0
 62
     0
 10
211.853
 20
96.2547
 30
0.0
 11
211.052
 21
96.2547
 31
0.0
  0
LINE
  8
0
 62
     0
 10
211.052
 20
96.2547
 30
0.0
 11
211.052
 21
97.2538
 31
0.0
  0
LINE
  8
0
 62
     0
 10
211.052
 20
97.2538
 30
0.0
 11
197.052
 21
97.2538
 31
0.0
  0
LINE
  8
0
 62
     0
 10
197.052
 20
97.2538
 30
0.0
 11
197.052
 21
96.2547
 31
0.0
  0
LINE
  8
0
 62
     0
 10
197.052
 20
96.2547
 30
0.0
 11
196.252
 21
96.2547
 31
0.0
  0
LINE
  8
0
 62
     0
 10
196.252
 20
96.2547
 30
0.0
 11
196.252
 21
93.1541
 31
0.0
  0
LINE
  8
0
 62
     0
 10
196.252
 20
93.1541
 30
0.0
 11
197.052
 21
93.1541
 31
0.0
  0
LINE
  8
0
 62
     0
 10
197.052
 20
93.1541
 30
0.0
 11
197.052
 21
87.3538
 31
0.0
  0
LINE
  8
0
 62
     0
 10
197.052
 20
87.3538
 30
0.0
 11
196.252
 21
87.3538
 31
0.0
  0
LINE
  8
0
 62
     0
 10
196.252
 20
87.3538
 30
0.0
 11
196.252
 21
84.2546
 31
0.0
  0
LINE
  8
0
 62
     0
 10
196.252
 20
84.2546
 30
0.0
 11
197.052
 21
84.2546
 31
0.0
  0
LINE
  8
0
 62
     0
 10
197.052
 20
84.2546
 30
0.0
 11
197.052
 21
83.2556
 31
0.0
  0
LINE
  8
0
 62
     0
 10
197.052
 20
83.2556
 30
0.0
 11
211.052
 21
83.2556
 31
0.0
  0
LINE
  8
0
 62
     0
 10
211.052
 20
83.2556
 30
0.0
 11
211.052
 21
84.2546
 31
0.0
  0
LINE
  8
0
 62
     0
 10
230.102
 20
84.2546
 30
0.0
 11
230.903
 21
84.2546
 31
0.0
  0
LINE
  8
0
 62
     0
 10
230.903
 20
84.2546
 30
0.0
 11
230.903
 21
87.3538
 31
0.0
  0
LINE
  8
0
 62
     0
 10
230.903
 20
87.3538
 30
0.0
 11
230.102
 21
87.3538
 31
0.0
  0
LINE
  8
0
 62
     0
 10
230.102
 20
87.3538
 30
0.0
 11
230.102
 21
93.1541
 31
0.0
  0
LINE
  8
0
 62
     0
 10
230.102
 20
93.1541
 30
0.0
 11
230.903
 21
93.1541
 31
0.0
  0
LINE
  8
0
 62
     0
 10
230.903
 20
93.1541
 30
0.0
 11
230.903
 21
96.2547
 31
0.0
  0
LINE
  8
0
 62
     0
 10
230.903
 20
96.2547
 30
0.0
 11
230.102
 21
96.2547
 31
0.0
  0
LINE
  8
0
 62
     0
 10
230.102
 20
96.2547
 30
0.0
 11
230.102
 21
97.2538
 31
0.0
  0
LINE
  8
0
 62
     0
 10
230.102
 20
97.2538
 30
0.0
 11
216.102
 21
97.2538
 31
0.0
  0
LINE
  8
0
 62
     0
 10
216.102
 20
97.2538
 30
0.0
 11
216.102
 21
96.2547
 31
0.0
  0
LINE
  8
0
 62
     0
 10
216.102
 20
96.2547
 30
0.0
 11
215.302
 21
96.2547
 31
0.0
  0
LINE
  8
0
 62
     0
 10
215.302
 20
96.2547
 30
0.0
 11
215.302
 21
93.1541
 31
0.0
  0
LINE
  8
0
 62
     0
 10
215.302
 20
93.1541
 30
0.0
 11
216.102
 21
93.1541
 31
0.0
  0
LINE
  8
0
 62
     0
 10
216.102
 20
93.1541
 30
0.0
 11
216.102
 21
87.3538
 31
0.0
  0
LINE
  8
0
 62
     0
 10
216.102
 20
87.3538
 30
0.0
 11
215.302
 21
87.3538
 31
0.0
  0
LINE
  8
0
 62
     0
 10
215.302
 20
87.3538
 30
0.0
 11
215.302
 21
84.2546
 31
0.0
  0
LINE
  8
0
 62
     0
 10
215.302
 20
84.2546
 30
0.0
 11
216.102
 21
84.2546
 31
0.0
  0
LINE
  8
0
 62
     0
 10
216.102
 20
84.2546
 30
0.0
 11
216.102
 21
83.2556
 31
0.0
  0
LINE
  8
0
 62
     0
 10
216.102
 20
83.2556
 30
0.0
 11
230.102
 21
83.2556
 31
0.0
  0
LINE
  8
0
 62
     0
 10
230.102
 20
83.2556
 30
0.0
 11
230.102
 21
84.2546
 31
0.0
  0
LINE
  8
0
 62
     0
 10
249.152
 20
84.2546
 30
0.0
 11
249.953
 21
84.2546
 31
0.0
  0
LINE
  8
0
 62
     0
 10
249.953
 20
84.2546
 30
0.0
 11
249.953
 21
87.3538
 31
0.0
  0
LINE
  8
0
 62
     0
 10
249.953
 20
87.3538
 30
0.0
 11
249.152
 21
87.3538
 31
0.0
  0
LINE
  8
0
 62
     0
 10
249.152
 20
87.3538
 30
0.0
 11
249.152
 21
93.1541
 31
0.0
  0
LINE
  8
0
 62
     0
 10
249.152
 20
93.1541
 30
0.0
 11
249.953
 21
93.1541
 31
0.0
  0
LINE
  8
0
 62
     0
 10
249.953
 20
93.1541
 30
0.0
 11
249.953
 21
96.2547
 31
0.0
  0
LINE
  8
0
 62
     0
 10
249.953
 20
96.2547
 30
0.0
 11
249.152
 21
96.2547
 31
0.0
  0
LINE
  8
0
 62
     0
 10
249.152
 20
96.2547
 30
0.0
 11
249.152
 21
97.2538
 31
0.0
  0
LINE
  8
0
 62
     0
 10
249.152
 20
97.2538
 30
0.0
 11
235.152
 21
97.2538
 31
0.0
  0
LINE
  8
0
 62
     0
 10
235.152
 20
97.2538
 30
0.0
 11
235.152
 21
96.2547
 31
0.0
  0
LINE
  8
0
 62
     0
 10
235.152
 20
96.2547
 30
0.0
 11
234.352
 21
96.2547
 31
0.0
  0
LINE
  8
0
 62
     0
 10
234.352
 20
96.2547
 30
0.0
 11
234.352
 21
93.1541
 31
0.0
  0
LINE
  8
0
 62
     0
 10
234.352
 20
93.1541
 30
0.0
 11
235.152
 21
93.1541
 31
0.0
  0
LINE
  8
0
 62
     0
 10
235.152
 20
93.1541
 30
0.0
 11
235.152
 21
87.3538
 31
0.0
  0
LINE
  8
0
 62
     0
 10
235.152
 20
87.3538
 30
0.0
 11
234.352
 21
87.3538
 31
0.0
  0
LINE
  8
0
 62
     0
 10
234.352
 20
87.3538
 30
0.0
 11
234.352
 21
84.2546
 31
0.0
  0
LINE
  8
0
 62
     0
 10
234.352
 20
84.2546
 30
0.0
 11
235.152
 21
84.2546
 31
0.0
  0
LINE
  8
0
 62
     0
 10
235.152
 20
84.2546
 30
0.0
 11
235.152
 21
83.2556
 31
0.0
  0
LINE
  8
0
 62
     0
 10
235.152
 20
83.2556
 30
0.0
 11
249.152
 21
83.2556
 31
0.0
  0
LINE
  8
0
 62
     0
 10
249.152
 20
83.2556
 30
0.0
 11
249.152
 21
84.2546
 31
0.0
  0
LINE
  8
0
 62
     0
 10
311.065
 20
84.2546
 30
0.0
 11
311.865
 21
84.2546
 31
0.0
  0
LINE
  8
0
 62
     0
 10
311.865
 20
84.2546
 30
0.0
 11
311.865
 21
87.3538
 31
0.0
  0
LINE
  8
0
 62
     0
 10
311.865
 20
87.3538
 30
0.0
 11
311.065
 21
87.3538
 31
0.0
  0
LINE
  8
0
 62
     0
 10
311.065
 20
87.3538
 30
0.0
 11
311.065
 21
93.1541
 31
0.0
  0
LINE
  8
0
 62
     0
 10
311.065
 20
93.1541
 30
0.0
 11
311.865
 21
93.1541
 31
0.0
  0
LINE
  8
0
 62
     0
 10
311.865
 20
93.1541
 30
0.0
 11
311.865
 21
96.2547
 31
0.0
  0
LINE
  8
0
 62
     0
 10
311.865
 20
96.2547
 30
0.0
 11
311.065
 21
96.2547
 31
0.0
  0
LINE
  8
0
 62
     0
 10
311.065
 20
96.2547
 30
0.0
 11
311.065
 21
97.2538
 31
0.0
  0
LINE
  8
0
 62
     0
 10
311.065
 20
97.2538
 30
0.0
 11
297.065
 21
97.2538
 31
0.0
  0
LINE
  8
0
 62
     0
 10
297.065
 20
97.2538
 30
0.0
 11
297.065
 21
96.2547
 31
0.0
  0
LINE
  8
0
 62
     0
 10
297.065
 20
96.2547
 30
0.0
 11
296.265
 21
96.2547
 31
0.0
  0
LINE
  8
0
 62
     0
 10
296.265
 20
96.2547
 30
0.0
 11
296.265
 21
93.1541
 31
0.0
  0
LINE
  8
0
 62
     0
 10
296.265
 20
93.1541
 30
0.0
 11
297.065
 21
93.1541
 31
0.0
  0
LINE
  8
0
 62
     0
 10
297.065
 20
93.1541
 30
0.0
 11
297.065
 21
87.3538
 31
0.0
  0
LINE
  8
0
 62
     0
 10
297.065
 20
87.3538
 30
0.0
 11
296.265
 21
87.3538
 31
0.0
  0
LINE
  8
0
 62
     0
 10
296.265
 20
87.3538
 30
0.0
 11
296.265
 21
84.2546
 31
0.0
  0
LINE
  8
0
 62
     0
 10
296.265
 20
84.2546
 30
0.0
 11
297.065
 21
84.2546
 31
0.0
  0
LINE
  8
0
 62
     0
 10
297.065
 20
84.2546
 30
0.0
 11
297.065
 21
83.2556
 31
0.0
  0
LINE
  8
0
 62
     0
 10
297.065
 20
83.2556
 30
0.0
 11
311.065
 21
83.2556
 31
0.0
  0
LINE
  8
0
 62
     0
 10
311.065
 20
83.2556
 30
0.0
 11
311.065
 21
84.2546
 31
0.0
  0
LINE
  8
0
 62
     0
 10
330.115
 20
84.2546
 30
0.0
 11
330.915
 21
84.2546
 31
0.0
  0
LINE
  8
0
 62
     0
 10
330.915
 20
84.2546
 30
0.0
 11
330.915
 21
87.3538
 31
0.0
  0
LINE
  8
0
 62
     0
 10
330.915
 20
87.3538
 30
0.0
 11
330.115
 21
87.3538
 31
0.0
  0
LINE
  8
0
 62
     0
 10
330.115
 20
87.3538
 30
0.0
 11
330.115
 21
93.1541
 31
0.0
  0
LINE
  8
0
 62
     0
 10
330.115
 20
93.1541
 30
0.0
 11
330.915
 21
93.1541
 31
0.0
  0
LINE
  8
0
 62
     0
 10
330.915
 20
93.1541
 30
0.0
 11
330.915
 21
96.2547
 31
0.0
  0
LINE
  8
0
 62
     0
 10
330.915
 20
96.2547
 30
0.0
 11
330.115
 21
96.2547
 31
0.0
  0
LINE
  8
0
 62
     0
 10
330.115
 20
96.2547
 30
0.0
 11
330.115
 21
97.2538
 31
0.0
  0
LINE
  8
0
 62
     0
 10
330.115
 20
97.2538
 30
0.0
 11
316.115
 21
97.2538
 31
0.0
  0
LINE
  8
0
 62
     0
 10
316.115
 20
97.2538
 30
0.0
 11
316.115
 21
96.2547
 31
0.0
  0
LINE
  8
0
 62
     0
 10
316.115
 20
96.2547
 30
0.0
 11
315.315
 21
96.2547
 31
0.0
  0
LINE
  8
0
 62
     0
 10
315.315
 20
96.2547
 30
0.0
 11
315.315
 21
93.1541
 31
0.0
  0
LINE
  8
0
 62
     0
 10
315.315
 20
93.1541
 30
0.0
 11
316.115
 21
93.1541
 31
0.0
  0
LINE
  8
0
 62
     0
 10
316.115
 20
93.1541
 30
0.0
 11
316.115
 21
87.3538
 31
0.0
  0
LINE
  8
0
 62
     0
 10
316.115
 20
87.3538
 30
0.0
 11
315.315
 21
87.3538
 31
0.0
  0
LINE
  8
0
 62
     0
 10
315.315
 20
87.3538
 30
0.0
 11
315.315
 21
84.2546
 31
0.0
  0
LINE
  8
0
 62
     0
 10
315.315
 20
84.2546
 30
0.0
 11
316.115
 21
84.2546
 31
0.0
  0
LINE
  8
0
 62
     0
 10
316.115
 20
84.2546
 30
0.0
 11
316.115
 21
83.2556
 31
0.0
  0
LINE
  8
0
 62
     0
 10
316.115
 20
83.2556
 30
0.0
 11
330.115
 21
83.2556
 31
0.0
  0
LINE
  8
0
 62
     0
 10
330.115
 20
83.2556
 30
0.0
 11
330.115
 21
84.2546
 31
0.0
  0
LINE
  8
0
 62
     0
 10
349.165
 20
84.2546
 30
0.0
 11
349.965
 21
84.2546
 31
0.0
  0
LINE
  8
0
 62
     0
 10
349.965
 20
84.2546
 30
0.0
 11
349.965
 21
87.3538
 31
0.0
  0
LINE
  8
0
 62
     0
 10
349.965
 20
87.3538
 30
0.0
 11
349.165
 21
87.3538
 31
0.0
  0
LINE
  8
0
 62
     0
 10
349.165
 20
87.3538
 30
0.0
 11
349.165
 21
93.1541
 31
0.0
  0
LINE
  8
0
 62
     0
 10
349.165
 20
93.1541
 30
0.0
 11
349.965
 21
93.1541
 31
0.0
  0
LINE
  8
0
 62
     0
 10
349.965
 20
93.1541
 30
0.0
 11
349.965
 21
96.2547
 31
0.0
  0
LINE
  8
0
 62
     0
 10
349.965
 20
96.2547
 30
0.0
 11
349.165
 21
96.2547
 31
0.0
  0
LINE
  8
0
 62
     0
 10
349.165
 20
96.2547
 30
0.0
 11
349.165
 21
97.2538
 31
0.0
  0
LINE
  8
0
 62
     0
 10
349.165
 20
97.2538
 30
0.0
 11
335.165
 21
97.2538
 31
0.0
  0
LINE
  8
0
 62
     0
 10
335.165
 20
97.2538
 30
0.0
 11
335.165
 21
96.2547
 31
0.0
  0
LINE
  8
0
 62
     0
 10
335.165
 20
96.2547
 30
0.0
 11
334.365
 21
96.2547
 31
0.0
  0
LINE
  8
0
 62
     0
 10
334.365
 20
96.2547
 30
0.0
 11
334.365
 21
93.1541
 31
0.0
  0
LINE
  8
0
 62
     0
 10
334.365
 20
93.1541
 30
0.0
 11
335.165
 21
93.1541
 31
0.0
  0
LINE
  8
0
 62
     0
 10
335.165
 20
93.1541
 30
0.0
 11
335.165
 21
87.3538
 31
0.0
  0
LINE
  8
0
 62
     0
 10
335.165
 20
87.3538
 30
0.0
 11
334.365
 21
87.3538
 31
0.0
  0
LINE
  8
0
 62
     0
 10
334.365
 20
87.3538
 30
0.0
 11
334.365
 21
84.2546
 31
0.0
  0
LINE
  8
0
 62
     0
 10
334.365
 20
84.2546
 30
0.0
 11
335.165
 21
84.2546
 31
0.0
  0
LINE
  8
0
 62
     0
 10
335.165
 20
84.2546
 30
0.0
 11
335.165
 21
83.2556
 31
0.0
  0
LINE
  8
0
 62
     0
 10
335.165
 20
83.2556
 30
0.0
 11
349.165
 21
83.2556
 31
0.0
  0
LINE
  8
0
 62
     0
 10
349.165
 20
83.2556
 30
0.0
 11
349.165
 21
84.2546
 31
0.0
  0
LINE
  8
0
 62
     0
 10
20.5521
 20
112.83
 30
0.0
 11
21.3527
 21
112.83
 31
0.0
  0
LINE
  8
0
 62
     0
 10
21.3527
 20
112.83
 30
0.0
 11
21.3527
 21
115.93
 31
0.0
  0
LINE
  8
0
 62
     0
 10
21.3527
 20
115.93
 30
0.0
 11
20.5521
 21
115.93
 31
0.0
  0
LINE
  8
0
 62
     0
 10
20.5521
 20
115.93
 30
0.0
 11
20.5521
 21
121.729
 31
0.0
  0
LINE
  8
0
 62
     0
 10
20.5521
 20
121.729
 30
0.0
 11
21.3527
 21
121.729
 31
0.0
  0
LINE
  8
0
 62
     0
 10
21.3527
 20
121.729
 30
0.0
 11
21.3527
 21
124.83
 31
0.0
  0
LINE
  8
0
 62
     0
 10
21.3527
 20
124.83
 30
0.0
 11
20.5521
 21
124.83
 31
0.0
  0
LINE
  8
0
 62
     0
 10
20.5521
 20
124.83
 30
0.0
 11
20.5521
 21
125.829
 31
0.0
  0
LINE
  8
0
 62
     0
 10
20.5521
 20
125.829
 30
0.0
 11
6.55256
 21
125.829
 31
0.0
  0
LINE
  8
0
 62
     0
 10
6.55256
 20
125.829
 30
0.0
 11
6.55256
 21
124.83
 31
0.0
  0
LINE
  8
0
 62
     0
 10
6.55256
 20
124.83
 30
0.0
 11
5.75194
 21
124.83
 31
0.0
  0
LINE
  8
0
 62
     0
 10
5.75194
 20
124.83
 30
0.0
 11
5.75194
 21
121.729
 31
0.0
  0
LINE
  8
0
 62
     0
 10
5.75194
 20
121.729
 30
0.0
 11
6.55256
 21
121.729
 31
0.0
  0
LINE
  8
0
 62
     0
 10
6.55256
 20
121.729
 30
0.0
 11
6.55256
 21
115.93
 31
0.0
  0
LINE
  8
0
 62
     0
 10
6.55256
 20
115.93
 30
0.0
 11
5.75194
 21
115.93
 31
0.0
  0
LINE
  8
0
 62
     0
 10
5.75194
 20
115.93
 30
0.0
 11
5.75194
 21
112.83
 31
0.0
  0
LINE
  8
0
 62
     0
 10
5.75194
 20
112.83
 30
0.0
 11
6.55256
 21
112.83
 31
0.0
  0
LINE
  8
0
 62
     0
 10
6.55256
 20
112.83
 30
0.0
 11
6.55256
 21
111.829
 31
0.0
  0
LINE
  8
0
 62
     0
 10
6.55256
 20
111.829
 30
0.0
 11
20.5521
 21
111.829
 31
0.0
  0
LINE
  8
0
 62
     0
 10
20.5521
 20
111.829
 30
0.0
 11
20.5521
 21
112.83
 31
0.0
  0
LINE
  8
0
 62
     0
 10
39.6021
 20
112.83
 30
0.0
 11
40.4026
 21
112.83
 31
0.0
  0
LINE
  8
0
 62
     0
 10
40.4026
 20
112.83
 30
0.0
 11
40.4026
 21
115.93
 31
0.0
  0
LINE
  8
0
 62
     0
 10
40.4026
 20
115.93
 30
0.0
 11
39.6021
 21
115.93
 31
0.0
  0
LINE
  8
0
 62
     0
 10
39.6021
 20
115.93
 30
0.0
 11
39.6021
 21
121.729
 31
0.0
  0
LINE
  8
0
 62
     0
 10
39.6021
 20
121.729
 30
0.0
 11
40.4026
 21
121.729
 31
0.0
  0
LINE
  8
0
 62
     0
 10
40.4026
 20
121.729
 30
0.0
 11
40.4026
 21
124.83
 31
0.0
  0
LINE
  8
0
 62
     0
 10
40.4026
 20
124.83
 30
0.0
 11
39.6021
 21
124.83
 31
0.0
  0
LINE
  8
0
 62
     0
 10
39.6021
 20
124.83
 30
0.0
 11
39.6021
 21
125.829
 31
0.0
  0
LINE
  8
0
 62
     0
 10
39.6021
 20
125.829
 30
0.0
 11
25.6026
 21
125.829
 31
0.0
  0
LINE
  8
0
 62
     0
 10
25.6026
 20
125.829
 30
0.0
 11
25.6026
 21
124.83
 31
0.0
  0
LINE
  8
0
 62
     0
 10
25.6026
 20
124.83
 30
0.0
 11
24.8033
 21
124.83
 31
0.0
  0
LINE
  8
0
 62
     0
 10
24.8033
 20
124.83
 30
0.0
 11
24.8033
 21
121.729
 31
0.0
  0
LINE
  8
0
 62
     0
 10
24.8033
 20
121.729
 30
0.0
 11
25.6026
 21
121.729
 31
0.0
  0
LINE
  8
0
 62
     0
 10
25.6026
 20
121.729
 30
0.0
 11
25.6026
 21
115.93
 31
0.0
  0
LINE
  8
0
 62
     0
 10
25.6026
 20
115.93
 30
0.0
 11
24.8033
 21
115.93
 31
0.0
  0
LINE
  8
0
 62
     0
 10
24.8033
 20
115.93
 30
0.0
 11
24.8033
 21
112.83
 31
0.0
  0
LINE
  8
0
 62
     0
 10
24.8033
 20
112.83
 30
0.0
 11
25.6026
 21
112.83
 31
0.0
  0
LINE
  8
0
 62
     0
 10
25.6026
 20
112.83
 30
0.0
 11
25.6026
 21
111.829
 31
0.0
  0
LINE
  8
0
 62
     0
 10
25.6026
 20
111.829
 30
0.0
 11
39.6021
 21
111.829
 31
0.0
  0
LINE
  8
0
 62
     0
 10
39.6021
 20
111.829
 30
0.0
 11
39.6021
 21
112.83
 31
0.0
  0
LINE
  8
0
 62
     0
 10
68.1771
 20
112.83
 30
0.0
 11
68.9776
 21
112.83
 31
0.0
  0
LINE
  8
0
 62
     0
 10
68.9776
 20
112.83
 30
0.0
 11
68.9776
 21
115.93
 31
0.0
  0
LINE
  8
0
 62
     0
 10
68.9776
 20
115.93
 30
0.0
 11
68.1771
 21
115.93
 31
0.0
  0
LINE
  8
0
 62
     0
 10
68.1771
 20
115.93
 30
0.0
 11
68.1771
 21
121.729
 31
0.0
  0
LINE
  8
0
 62
     0
 10
68.1771
 20
121.729
 30
0.0
 11
68.9776
 21
121.729
 31
0.0
  0
LINE
  8
0
 62
     0
 10
68.9776
 20
121.729
 30
0.0
 11
68.9776
 21
124.83
 31
0.0
  0
LINE
  8
0
 62
     0
 10
68.9776
 20
124.83
 30
0.0
 11
68.1771
 21
124.83
 31
0.0
  0
LINE
  8
0
 62
     0
 10
68.1771
 20
124.83
 30
0.0
 11
68.1771
 21
125.829
 31
0.0
  0
LINE
  8
0
 62
     0
 10
68.1771
 20
125.829
 30
0.0
 11
54.1775
 21
125.829
 31
0.0
  0
LINE
  8
0
 62
     0
 10
54.1775
 20
125.829
 30
0.0
 11
54.1775
 21
124.83
 31
0.0
  0
LINE
  8
0
 62
     0
 10
54.1775
 20
124.83
 30
0.0
 11
53.3785
 21
124.83
 31
0.0
  0
LINE
  8
0
 62
     0
 10
53.3785
 20
124.83
 30
0.0
 11
53.3785
 21
121.729
 31
0.0
  0
LINE
  8
0
 62
     0
 10
53.3785
 20
121.729
 30
0.0
 11
54.1775
 21
121.729
 31
0.0
  0
LINE
  8
0
 62
     0
 10
54.1775
 20
121.729
 30
0.0
 11
54.1775
 21
115.93
 31
0.0
  0
LINE
  8
0
 62
     0
 10
54.1775
 20
115.93
 30
0.0
 11
53.3785
 21
115.93
 31
0.0
  0
LINE
  8
0
 62
     0
 10
53.3785
 20
115.93
 30
0.0
 11
53.3785
 21
112.83
 31
0.0
  0
LINE
  8
0
 62
     0
 10
53.3785
 20
112.83
 30
0.0
 11
54.1775
 21
112.83
 31
0.0
  0
LINE
  8
0
 62
     0
 10
54.1775
 20
112.83
 30
0.0
 11
54.1775
 21
111.829
 31
0.0
  0
LINE
  8
0
 62
     0
 10
54.1775
 20
111.829
 30
0.0
 11
68.1771
 21
111.829
 31
0.0
  0
LINE
  8
0
 62
     0
 10
68.1771
 20
111.829
 30
0.0
 11
68.1771
 21
112.83
 31
0.0
  0
LINE
  8
0
 62
     0
 10
87.2271
 20
112.83
 30
0.0
 11
88.0276
 21
112.83
 31
0.0
  0
LINE
  8
0
 62
     0
 10
88.0276
 20
112.83
 30
0.0
 11
88.0276
 21
115.93
 31
0.0
  0
LINE
  8
0
 62
     0
 10
88.0276
 20
115.93
 30
0.0
 11
87.2271
 21
115.93
 31
0.0
  0
LINE
  8
0
 62
     0
 10
87.2271
 20
115.93
 30
0.0
 11
87.2271
 21
121.729
 31
0.0
  0
LINE
  8
0
 62
     0
 10
87.2271
 20
121.729
 30
0.0
 11
88.0276
 21
121.729
 31
0.0
  0
LINE
  8
0
 62
     0
 10
88.0276
 20
121.729
 30
0.0
 11
88.0276
 21
124.83
 31
0.0
  0
LINE
  8
0
 62
     0
 10
88.0276
 20
124.83
 30
0.0
 11
87.2271
 21
124.83
 31
0.0
  0
LINE
  8
0
 62
     0
 10
87.2271
 20
124.83
 30
0.0
 11
87.2271
 21
125.829
 31
0.0
  0
LINE
  8
0
 62
     0
 10
87.2271
 20
125.829
 30
0.0
 11
73.2275
 21
125.829
 31
0.0
  0
LINE
  8
0
 62
     0
 10
73.2275
 20
125.829
 30
0.0
 11
73.2275
 21
124.83
 31
0.0
  0
LINE
  8
0
 62
     0
 10
73.2275
 20
124.83
 30
0.0
 11
72.4285
 21
124.83
 31
0.0
  0
LINE
  8
0
 62
     0
 10
72.4285
 20
124.83
 30
0.0
 11
72.4285
 21
121.729
 31
0.0
  0
LINE
  8
0
 62
     0
 10
72.4285
 20
121.729
 30
0.0
 11
73.2275
 21
121.729
 31
0.0
  0
LINE
  8
0
 62
     0
 10
73.2275
 20
121.729
 30
0.0
 11
73.2275
 21
115.93
 31
0.0
  0
LINE
  8
0
 62
     0
 10
73.2275
 20
115.93
 30
0.0
 11
72.4285
 21
115.93
 31
0.0
  0
LINE
  8
0
 62
     0
 10
72.4285
 20
115.93
 30
0.0
 11
72.4285
 21
112.83
 31
0.0
  0
LINE
  8
0
 62
     0
 10
72.4285
 20
112.83
 30
0.0
 11
73.2275
 21
112.83
 31
0.0
  0
LINE
  8
0
 62
     0
 10
73.2275
 20
112.83
 30
0.0
 11
73.2275
 21
111.829
 31
0.0
  0
LINE
  8
0
 62
     0
 10
73.2275
 20
111.829
 30
0.0
 11
87.2271
 21
111.829
 31
0.0
  0
LINE
  8
0
 62
     0
 10
87.2271
 20
111.829
 30
0.0
 11
87.2271
 21
112.83
 31
0.0
  0
LINE
  8
0
 62
     0
 10
106.277
 20
112.83
 30
0.0
 11
107.078
 21
112.83
 31
0.0
  0
LINE
  8
0
 62
     0
 10
107.078
 20
112.83
 30
0.0
 11
107.078
 21
115.93
 31
0.0
  0
LINE
  8
0
 62
     0
 10
107.078
 20
115.93
 30
0.0
 11
106.277
 21
115.93
 31
0.0
  0
LINE
  8
0
 62
     0
 10
106.277
 20
115.93
 30
0.0
 11
106.277
 21
121.729
 31
0.0
  0
LINE
  8
0
 62
     0
 10
106.277
 20
121.729
 30
0.0
 11
107.078
 21
121.729
 31
0.0
  0
LINE
  8
0
 62
     0
 10
107.078
 20
121.729
 30
0.0
 11
107.078
 21
124.83
 31
0.0
  0
LINE
  8
0
 62
     0
 10
107.078
 20
124.83
 30
0.0
 11
106.277
 21
124.83
 31
0.0
  0
LINE
  8
0
 62
     0
 10
106.277
 20
124.83
 30
0.0
 11
106.277
 21
125.829
 31
0.0
  0
LINE
  8
0
 62
     0
 10
106.277
 20
125.829
 30
0.0
 11
92.2775
 21
125.829
 31
0.0
  0
LINE
  8
0
 62
     0
 10
92.2775
 20
125.829
 30
0.0
 11
92.2775
 21
124.83
 31
0.0
  0
LINE
  8
0
 62
     0
 10
92.2775
 20
124.83
 30
0.0
 11
91.4784
 21
124.83
 31
0.0
  0
LINE
  8
0
 62
     0
 10
91.4784
 20
124.83
 30
0.0
 11
91.4784
 21
121.729
 31
0.0
  0
LINE
  8
0
 62
     0
 10
91.4784
 20
121.729
 30
0.0
 11
92.2775
 21
121.729
 31
0.0
  0
LINE
  8
0
 62
     0
 10
92.2775
 20
121.729
 30
0.0
 11
92.2775
 21
115.93
 31
0.0
  0
LINE
  8
0
 62
     0
 10
92.2775
 20
115.93
 30
0.0
 11
91.4784
 21
115.93
 31
0.0
  0
LINE
  8
0
 62
     0
 10
91.4784
 20
115.93
 30
0.0
 11
91.4784
 21
112.83
 31
0.0
  0
LINE
  8
0
 62
     0
 10
91.4784
 20
112.83
 30
0.0
 11
92.2775
 21
112.83
 31
0.0
  0
LINE
  8
0
 62
     0
 10
92.2775
 20
112.83
 30
0.0
 11
92.2775
 21
111.829
 31
0.0
  0
LINE
  8
0
 62
     0
 10
92.2775
 20
111.829
 30
0.0
 11
106.277
 21
111.829
 31
0.0
  0
LINE
  8
0
 62
     0
 10
106.277
 20
111.829
 30
0.0
 11
106.277
 21
112.83
 31
0.0
  0
LINE
  8
0
 62
     0
 10
125.327
 20
112.83
 30
0.0
 11
126.128
 21
112.83
 31
0.0
  0
LINE
  8
0
 62
     0
 10
126.128
 20
112.83
 30
0.0
 11
126.128
 21
115.93
 31
0.0
  0
LINE
  8
0
 62
     0
 10
126.128
 20
115.93
 30
0.0
 11
125.327
 21
115.93
 31
0.0
  0
LINE
  8
0
 62
     0
 10
125.327
 20
115.93
 30
0.0
 11
125.327
 21
121.729
 31
0.0
  0
LINE
  8
0
 62
     0
 10
125.327
 20
121.729
 30
0.0
 11
126.128
 21
121.729
 31
0.0
  0
LINE
  8
0
 62
     0
 10
126.128
 20
121.729
 30
0.0
 11
126.128
 21
124.83
 31
0.0
  0
LINE
  8
0
 62
     0
 10
126.128
 20
124.83
 30
0.0
 11
125.327
 21
124.83
 31
0.0
  0
LINE
  8
0
 62
     0
 10
125.327
 20
124.83
 30
0.0
 11
125.327
 21
125.829
 31
0.0
  0
LINE
  8
0
 62
     0
 10
125.327
 20
125.829
 30
0.0
 11
111.327
 21
125.829
 31
0.0
  0
LINE
  8
0
 62
     0
 10
111.327
 20
125.829
 30
0.0
 11
111.327
 21
124.83
 31
0.0
  0
LINE
  8
0
 62
     0
 10
111.327
 20
124.83
 30
0.0
 11
110.527
 21
124.83
 31
0.0
  0
LINE
  8
0
 62
     0
 10
110.527
 20
124.83
 30
0.0
 11
110.527
 21
121.729
 31
0.0
  0
LINE
  8
0
 62
     0
 10
110.527
 20
121.729
 30
0.0
 11
111.327
 21
121.729
 31
0.0
  0
LINE
  8
0
 62
     0
 10
111.327
 20
121.729
 30
0.0
 11
111.327
 21
115.93
 31
0.0
  0
LINE
  8
0
 62
     0
 10
111.327
 20
115.93
 30
0.0
 11
110.527
 21
115.93
 31
0.0
  0
LINE
  8
0
 62
     0
 10
110.527
 20
115.93
 30
0.0
 11
110.527
 21
112.83
 31
0.0
  0
LINE
  8
0
 62
     0
 10
110.527
 20
112.83
 30
0.0
 11
111.327
 21
112.83
 31
0.0
  0
LINE
  8
0
 62
     0
 10
111.327
 20
112.83
 30
0.0
 11
111.327
 21
111.829
 31
0.0
  0
LINE
  8
0
 62
     0
 10
111.327
 20
111.829
 30
0.0
 11
125.327
 21
111.829
 31
0.0
  0
LINE
  8
0
 62
     0
 10
125.327
 20
111.829
 30
0.0
 11
125.327
 21
112.83
 31
0.0
  0
LINE
  8
0
 62
     0
 10
149.14
 20
112.83
 30
0.0
 11
149.94
 21
112.83
 31
0.0
  0
LINE
  8
0
 62
     0
 10
149.94
 20
112.83
 30
0.0
 11
149.94
 21
115.93
 31
0.0
  0
LINE
  8
0
 62
     0
 10
149.94
 20
115.93
 30
0.0
 11
149.14
 21
115.93
 31
0.0
  0
LINE
  8
0
 62
     0
 10
149.14
 20
115.93
 30
0.0
 11
149.14
 21
121.729
 31
0.0
  0
LINE
  8
0
 62
     0
 10
149.14
 20
121.729
 30
0.0
 11
149.94
 21
121.729
 31
0.0
  0
LINE
  8
0
 62
     0
 10
149.94
 20
121.729
 30
0.0
 11
149.94
 21
124.83
 31
0.0
  0
LINE
  8
0
 62
     0
 10
149.94
 20
124.83
 30
0.0
 11
149.14
 21
124.83
 31
0.0
  0
LINE
  8
0
 62
     0
 10
149.14
 20
124.83
 30
0.0
 11
149.14
 21
125.829
 31
0.0
  0
LINE
  8
0
 62
     0
 10
149.14
 20
125.829
 30
0.0
 11
135.14
 21
125.829
 31
0.0
  0
LINE
  8
0
 62
     0
 10
135.14
 20
125.829
 30
0.0
 11
135.14
 21
124.83
 31
0.0
  0
LINE
  8
0
 62
     0
 10
135.14
 20
124.83
 30
0.0
 11
134.34
 21
124.83
 31
0.0
  0
LINE
  8
0
 62
     0
 10
134.34
 20
124.83
 30
0.0
 11
134.34
 21
121.729
 31
0.0
  0
LINE
  8
0
 62
     0
 10
134.34
 20
121.729
 30
0.0
 11
135.14
 21
121.729
 31
0.0
  0
LINE
  8
0
 62
     0
 10
135.14
 20
121.729
 30
0.0
 11
135.14
 21
115.93
 31
0.0
  0
LINE
  8
0
 62
     0
 10
135.14
 20
115.93
 30
0.0
 11
134.34
 21
115.93
 31
0.0
  0
LINE
  8
0
 62
     0
 10
134.34
 20
115.93
 30
0.0
 11
134.34
 21
112.83
 31
0.0
  0
LINE
  8
0
 62
     0
 10
134.34
 20
112.83
 30
0.0
 11
135.14
 21
112.83
 31
0.0
  0
LINE
  8
0
 62
     0
 10
135.14
 20
112.83
 30
0.0
 11
135.14
 21
111.829
 31
0.0
  0
LINE
  8
0
 62
     0
 10
135.14
 20
111.829
 30
0.0
 11
149.14
 21
111.829
 31
0.0
  0
LINE
  8
0
 62
     0
 10
149.14
 20
111.829
 30
0.0
 11
149.14
 21
112.83
 31
0.0
  0
LINE
  8
0
 62
     0
 10
168.19
 20
112.83
 30
0.0
 11
168.99
 21
112.83
 31
0.0
  0
LINE
  8
0
 62
     0
 10
168.99
 20
112.83
 30
0.0
 11
168.99
 21
115.93
 31
0.0
  0
LINE
  8
0
 62
     0
 10
168.99
 20
115.93
 30
0.0
 11
168.19
 21
115.93
 31
0.0
  0
LINE
  8
0
 62
     0
 10
168.19
 20
115.93
 30
0.0
 11
168.19
 21
121.729
 31
0.0
  0
LINE
  8
0
 62
     0
 10
168.19
 20
121.729
 30
0.0
 11
168.99
 21
121.729
 31
0.0
  0
LINE
  8
0
 62
     0
 10
168.99
 20
121.729
 30
0.0
 11
168.99
 21
124.83
 31
0.0
  0
LINE
  8
0
 62
     0
 10
168.99
 20
124.83
 30
0.0
 11
168.19
 21
124.83
 31
0.0
  0
LINE
  8
0
 62
     0
 10
168.19
 20
124.83
 30
0.0
 11
168.19
 21
125.829
 31
0.0
  0
LINE
  8
0
 62
     0
 10
168.19
 20
125.829
 30
0.0
 11
154.19
 21
125.829
 31
0.0
  0
LINE
  8
0
 62
     0
 10
154.19
 20
125.829
 30
0.0
 11
154.19
 21
124.83
 31
0.0
  0
LINE
  8
0
 62
     0
 10
154.19
 20
124.83
 30
0.0
 11
153.39
 21
124.83
 31
0.0
  0
LINE
  8
0
 62
     0
 10
153.39
 20
124.83
 30
0.0
 11
153.39
 21
121.729
 31
0.0
  0
LINE
  8
0
 62
     0
 10
153.39
 20
121.729
 30
0.0
 11
154.19
 21
121.729
 31
0.0
  0
LINE
  8
0
 62
     0
 10
154.19
 20
121.729
 30
0.0
 11
154.19
 21
115.93
 31
0.0
  0
LINE
  8
0
 62
     0
 10
154.19
 20
115.93
 30
0.0
 11
153.39
 21
115.93
 31
0.0
  0
LINE
  8
0
 62
     0
 10
153.39
 20
115.93
 30
0.0
 11
153.39
 21
112.83
 31
0.0
  0
LINE
  8
0
 62
     0
 10
153.39
 20
112.83
 30
0.0
 11
154.19
 21
112.83
 31
0.0
  0
LINE
  8
0
 62
     0
 10
154.19
 20
112.83
 30
0.0
 11
154.19
 21
111.829
 31
0.0
  0
LINE
  8
0
 62
     0
 10
154.19
 20
111.829
 30
0.0
 11
168.19
 21
111.829
 31
0.0
  0
LINE
  8
0
 62
     0
 10
168.19
 20
111.829
 30
0.0
 11
168.19
 21
112.83
 31
0.0
  0
LINE
  8
0
 62
     0
 10
187.24
 20
112.83
 30
0.0
 11
188.04
 21
112.83
 31
0.0
  0
LINE
  8
0
 62
     0
 10
188.04
 20
112.83
 30
0.0
 11
188.04
 21
115.93
 31
0.0
  0
LINE
  8
0
 62
     0
 10
188.04
 20
115.93
 30
0.0
 11
187.24
 21
115.93
 31
0.0
  0
LINE
  8
0
 62
     0
 10
187.24
 20
115.93
 30
0.0
 11
187.24
 21
121.729
 31
0.0
  0
LINE
  8
0
 62
     0
 10
187.24
 20
121.729
 30
0.0
 11
188.04
 21
121.729
 31
0.0
  0
LINE
  8
0
 62
     0
 10
188.04
 20
121.729
 30
0.0
 11
188.04
 21
124.83
 31
0.0
  0
LINE
  8
0
 62
     0
 10
188.04
 20
124.83
 30
0.0
 11
187.24
 21
124.83
 31
0.0
  0
LINE
  8
0
 62
     0
 10
187.24
 20
124.83
 30
0.0
 11
187.24
 21
125.829
 31
0.0
  0
LINE
  8
0
 62
     0
 10
187.24
 20
125.829
 30
0.0
 11
173.24
 21
125.829
 31
0.0
  0
LINE
  8
0
 62
     0
 10
173.24
 20
125.829
 30
0.0
 11
173.24
 21
124.83
 31
0.0
  0
LINE
  8
0
 62
     0
 10
173.24
 20
124.83
 30
0.0
 11
172.44
 21
124.83
 31
0.0
  0
LINE
  8
0
 62
     0
 10
172.44
 20
124.83
 30
0.0
 11
172.44
 21
121.729
 31
0.0
  0
LINE
  8
0
 62
     0
 10
172.44
 20
121.729
 30
0.0
 11
173.24
 21
121.729
 31
0.0
  0
LINE
  8
0
 62
     0
 10
173.24
 20
121.729
 30
0.0
 11
173.24
 21
115.93
 31
0.0
  0
LINE
  8
0
 62
     0
 10
173.24
 20
115.93
 30
0.0
 11
172.44
 21
115.93
 31
0.0
  0
LINE
  8
0
 62
     0
 10
172.44
 20
115.93
 30
0.0
 11
172.44
 21
112.83
 31
0.0
  0
LINE
  8
0
 62
     0
 10
172.44
 20
112.83
 30
0.0
 11
173.24
 21
112.83
 31
0.0
  0
LINE
  8
0
 62
     0
 10
173.24
 20
112.83
 30
0.0
 11
173.24
 21
111.829
 31
0.0
  0
LINE
  8
0
 62
     0
 10
173.24
 20
111.829
 30
0.0
 11
187.24
 21
111.829
 31
0.0
  0
LINE
  8
0
 62
     0
 10
187.24
 20
111.829
 30
0.0
 11
187.24
 21
112.83
 31
0.0
  0
LINE
  8
0
 62
     0
 10
206.29
 20
112.83
 30
0.0
 11
207.09
 21
112.83
 31
0.0
  0
LINE
  8
0
 62
     0
 10
207.09
 20
112.83
 30
0.0
 11
207.09
 21
115.93
 31
0.0
  0
LINE
  8
0
 62
     0
 10
207.09
 20
115.93
 30
0.0
 11
206.29
 21
115.93
 31
0.0
  0
LINE
  8
0
 62
     0
 10
206.29
 20
115.93
 30
0.0
 11
206.29
 21
121.729
 31
0.0
  0
LINE
  8
0
 62
     0
 10
206.29
 20
121.729
 30
0.0
 11
207.09
 21
121.729
 31
0.0
  0
LINE
  8
0
 62
     0
 10
207.09
 20
121.729
 30
0.0
 11
207.09
 21
124.83
 31
0.0
  0
LINE
  8
0
 62
     0
 10
207.09
 20
124.83
 30
0.0
 11
206.29
 21
124.83
 31
0.0
  0
LINE
  8
0
 62
     0
 10
206.29
 20
124.83
 30
0.0
 11
206.29
 21
125.829
 31
0.0
  0
LINE
  8
0
 62
     0
 10
206.29
 20
125.829
 30
0.0
 11
192.29
 21
125.829
 31
0.0
  0
LINE
  8
0
 62
     0
 10
192.29
 20
125.829
 30
0.0
 11
192.29
 21
124.83
 31
0.0
  0
LINE
  8
0
 62
     0
 10
192.29
 20
124.83
 30
0.0
 11
191.49
 21
124.83
 31
0.0
  0
LINE
  8
0
 62
     0
 10
191.49
 20
124.83
 30
0.0
 11
191.49
 21
121.729
 31
0.0
  0
LINE
  8
0
 62
     0
 10
191.49
 20
121.729
 30
0.0
 11
192.29
 21
121.729
 31
0.0
  0
LINE
  8
0
 62
     0
 10
192.29
 20
121.729
 30
0.0
 11
192.29
 21
115.93
 31
0.0
  0
LINE
  8
0
 62
     0
 10
192.29
 20
115.93
 30
0.0
 11
191.49
 21
115.93
 31
0.0
  0
LINE
  8
0
 62
     0
 10
191.49
 20
115.93
 30
0.0
 11
191.49
 21
112.83
 31
0.0
  0
LINE
  8
0
 62
     0
 10
191.49
 20
112.83
 30
0.0
 11
192.29
 21
112.83
 31
0.0
  0
LINE
  8
0
 62
     0
 10
192.29
 20
112.83
 30
0.0
 11
192.29
 21
111.829
 31
0.0
  0
LINE
  8
0
 62
     0
 10
192.29
 20
111.829
 30
0.0
 11
206.29
 21
111.829
 31
0.0
  0
LINE
  8
0
 62
     0
 10
206.29
 20
111.829
 30
0.0
 11
206.29
 21
112.83
 31
0.0
  0
LINE
  8
0
 62
     0
 10
230.102
 20
112.83
 30
0.0
 11
230.903
 21
112.83
 31
0.0
  0
LINE
  8
0
 62
     0
 10
230.903
 20
112.83
 30
0.0
 11
230.903
 21
115.93
 31
0.0
  0
LINE
  8
0
 62
     0
 10
230.903
 20
115.93
 30
0.0
 11
230.102
 21
115.93
 31
0.0
  0
LINE
  8
0
 62
     0
 10
230.102
 20
115.93
 30
0.0
 11
230.102
 21
121.729
 31
0.0
  0
LINE
  8
0
 62
     0
 10
230.102
 20
121.729
 30
0.0
 11
230.903
 21
121.729
 31
0.0
  0
LINE
  8
0
 62
     0
 10
230.903
 20
121.729
 30
0.0
 11
230.903
 21
124.83
 31
0.0
  0
LINE
  8
0
 62
     0
 10
230.903
 20
124.83
 30
0.0
 11
230.102
 21
124.83
 31
0.0
  0
LINE
  8
0
 62
     0
 10
230.102
 20
124.83
 30
0.0
 11
230.102
 21
125.829
 31
0.0
  0
LINE
  8
0
 62
     0
 10
230.102
 20
125.829
 30
0.0
 11
216.102
 21
125.829
 31
0.0
  0
LINE
  8
0
 62
     0
 10
216.102
 20
125.829
 30
0.0
 11
216.102
 21
124.83
 31
0.0
  0
LINE
  8
0
 62
     0
 10
216.102
 20
124.83
 30
0.0
 11
215.302
 21
124.83
 31
0.0
  0
LINE
  8
0
 62
     0
 10
215.302
 20
124.83
 30
0.0
 11
215.302
 21
121.729
 31
0.0
  0
LINE
  8
0
 62
     0
 10
215.302
 20
121.729
 30
0.0
 11
216.102
 21
121.729
 31
0.0
  0
LINE
  8
0
 62
     0
 10
216.102
 20
121.729
 30
0.0
 11
216.102
 21
115.93
 31
0.0
  0
LINE
  8
0
 62
     0
 10
216.102
 20
115.93
 30
0.0
 11
215.302
 21
115.93
 31
0.0
  0
LINE
  8
0
 62
     0
 10
215.302
 20
115.93
 30
0.0
 11
215.302
 21
112.83
 31
0.0
  0
LINE
  8
0
 62
     0
 10
215.302
 20
112.83
 30
0.0
 11
216.102
 21
112.83
 31
0.0
  0
LINE
  8
0
 62
     0
 10
216.102
 20
112.83
 30
0.0
 11
216.102
 21
111.829
 31
0.0
  0
LINE
  8
0
 62
     0
 10
216.102
 20
111.829
 30
0.0
 11
230.102
 21
111.829
 31
0.0
  0
LINE
  8
0
 62
     0
 10
230.102
 20
111.829
 30
0.0
 11
230.102
 21
112.83
 31
0.0
  0
LINE
  8
0
 62
     0
 10
249.152
 20
112.83
 30
0.0
 11
249.953
 21
112.83
 31
0.0
  0
LINE
  8
0
 62
     0
 10
249.953
 20
112.83
 30
0.0
 11
249.953
 21
115.93
 31
0.0
  0
LINE
  8
0
 62
     0
 10
249.953
 20
115.93
 30
0.0
 11
249.152
 21
115.93
 31
0.0
  0
LINE
  8
0
 62
     0
 10
249.152
 20
115.93
 30
0.0
 11
249.152
 21
121.729
 31
0.0
  0
LINE
  8
0
 62
     0
 10
249.152
 20
121.729
 30
0.0
 11
249.953
 21
121.729
 31
0.0
  0
LINE
  8
0
 62
     0
 10
249.953
 20
121.729
 30
0.0
 11
249.953
 21
124.83
 31
0.0
  0
LINE
  8
0
 62
     0
 10
249.953
 20
124.83
 30
0.0
 11
249.152
 21
124.83
 31
0.0
  0
LINE
  8
0
 62
     0
 10
249.152
 20
124.83
 30
0.0
 11
249.152
 21
125.829
 31
0.0
  0
LINE
  8
0
 62
     0
 10
249.152
 20
125.829
 30
0.0
 11
235.152
 21
125.829
 31
0.0
  0
LINE
  8
0
 62
     0
 10
235.152
 20
125.829
 30
0.0
 11
235.152
 21
124.83
 31
0.0
  0
LINE
  8
0
 62
     0
 10
235.152
 20
124.83
 30
0.0
 11
234.352
 21
124.83
 31
0.0
  0
LINE
  8
0
 62
     0
 10
234.352
 20
124.83
 30
0.0
 11
234.352
 21
121.729
 31
0.0
  0
LINE
  8
0
 62
     0
 10
234.352
 20
121.729
 30
0.0
 11
235.152
 21
121.729
 31
0.0
  0
LINE
  8
0
 62
     0
 10
235.152
 20
121.729
 30
0.0
 11
235.152
 21
115.93
 31
0.0
  0
LINE
  8
0
 62
     0
 10
235.152
 20
115.93
 30
0.0
 11
234.352
 21
115.93
 31
0.0
  0
LINE
  8
0
 62
     0
 10
234.352
 20
115.93
 30
0.0
 11
234.352
 21
112.83
 31
0.0
  0
LINE
  8
0
 62
     0
 10
234.352
 20
112.83
 30
0.0
 11
235.152
 21
112.83
 31
0.0
  0
LINE
  8
0
 62
     0
 10
235.152
 20
112.83
 30
0.0
 11
235.152
 21
111.829
 31
0.0
  0
LINE
  8
0
 62
     0
 10
235.152
 20
111.829
 30
0.0
 11
249.152
 21
111.829
 31
0.0
  0
LINE
  8
0
 62
     0
 10
249.152
 20
111.829
 30
0.0
 11
249.152
 21
112.83
 31
0.0
  0
LINE
  8
0
 62
     0
 10
268.202
 20
112.83
 30
0.0
 11
269.003
 21
112.83
 31
0.0
  0
LINE
  8
0
 62
     0
 10
269.003
 20
112.83
 30
0.0
 11
269.003
 21
115.93
 31
0.0
  0
LINE
  8
0
 62
     0
 10
269.003
 20
115.93
 30
0.0
 11
268.202
 21
115.93
 31
0.0
  0
LINE
  8
0
 62
     0
 10
268.202
 20
115.93
 30
0.0
 11
268.202
 21
121.729
 31
0.0
  0
LINE
  8
0
 62
     0
 10
268.202
 20
121.729
 30
0.0
 11
269.003
 21
121.729
 31
0.0
  0
LINE
  8
0
 62
     0
 10
269.003
 20
121.729
 30
0.0
 11
269.003
 21
124.83
 31
0.0
  0
LINE
  8
0
 62
     0
 10
269.003
 20
124.83
 30
0.0
 11
268.202
 21
124.83
 31
0.0
  0
LINE
  8
0
 62
     0
 10
268.202
 20
124.83
 30
0.0
 11
268.202
 21
125.829
 31
0.0
  0
LINE
  8
0
 62
     0
 10
268.202
 20
125.829
 30
0.0
 11
254.202
 21
125.829
 31
0.0
  0
LINE
  8
0
 62
     0
 10
254.202
 20
125.829
 30
0.0
 11
254.202
 21
124.83
 31
0.0
  0
LINE
  8
0
 62
     0
 10
254.202
 20
124.83
 30
0.0
 11
253.402
 21
124.83
 31
0.0
  0
LINE
  8
0
 62
     0
 10
253.402
 20
124.83
 30
0.0
 11
253.402
 21
121.729
 31
0.0
  0
LINE
  8
0
 62
     0
 10
253.402
 20
121.729
 30
0.0
 11
254.202
 21
121.729
 31
0.0
  0
LINE
  8
0
 62
     0
 10
254.202
 20
121.729
 30
0.0
 11
254.202
 21
115.93
 31
0.0
  0
LINE
  8
0
 62
     0
 10
254.202
 20
115.93
 30
0.0
 11
253.402
 21
115.93
 31
0.0
  0
LINE
  8
0
 62
     0
 10
253.402
 20
115.93
 30
0.0
 11
253.402
 21
112.83
 31
0.0
  0
LINE
  8
0
 62
     0
 10
253.402
 20
112.83
 30
0.0
 11
254.202
 21
112.83
 31
0.0
  0
LINE
  8
0
 62
     0
 10
254.202
 20
112.83
 30
0.0
 11
254.202
 21
111.829
 31
0.0
  0
LINE
  8
0
 62
     0
 10
254.202
 20
111.829
 30
0.0
 11
268.202
 21
111.829
 31
0.0
  0
LINE
  8
0
 62
     0
 10
268.202
 20
111.829
 30
0.0
 11
268.202
 21
112.83
 31
0.0
  0
LINE
  8
0
 62
     0
 10
287.252
 20
112.83
 30
0.0
 11
288.053
 21
112.83
 31
0.0
  0
LINE
  8
0
 62
     0
 10
288.053
 20
112.83
 30
0.0
 11
288.053
 21
115.93
 31
0.0
  0
LINE
  8
0
 62
     0
 10
288.053
 20
115.93
 30
0.0
 11
287.252
 21
115.93
 31
0.0
  0
LINE
  8
0
 62
     0
 10
287.252
 20
115.93
 30
0.0
 11
287.252
 21
121.729
 31
0.0
  0
LINE
  8
0
 62
     0
 10
287.252
 20
121.729
 30
0.0
 11
288.053
 21
121.729
 31
0.0
  0
LINE
  8
0
 62
     0
 10
288.053
 20
121.729
 30
0.0
 11
288.053
 21
124.83
 31
0.0
  0
LINE
  8
0
 62
     0
 10
288.053
 20
124.83
 30
0.0
 11
287.252
 21
124.83
 31
0.0
  0
LINE
  8
0
 62
     0
 10
287.252
 20
124.83
 30
0.0
 11
287.252
 21
125.829
 31
0.0
  0
LINE
  8
0
 62
     0
 10
287.252
 20
125.829
 30
0.0
 11
273.252
 21
125.829
 31
0.0
  0
LINE
  8
0
 62
     0
 10
273.252
 20
125.829
 30
0.0
 11
273.252
 21
124.83
 31
0.0
  0
LINE
  8
0
 62
     0
 10
273.252
 20
124.83
 30
0.0
 11
272.452
 21
124.83
 31
0.0
  0
LINE
  8
0
 62
     0
 10
272.452
 20
124.83
 30
0.0
 11
272.452
 21
121.729
 31
0.0
  0
LINE
  8
0
 62
     0
 10
272.452
 20
121.729
 30
0.0
 11
273.252
 21
121.729
 31
0.0
  0
LINE
  8
0
 62
     0
 10
273.252
 20
121.729
 30
0.0
 11
273.252
 21
115.93
 31
0.0
  0
LINE
  8
0
 62
     0
 10
273.252
 20
115.93
 30
0.0
 11
272.452
 21
115.93
 31
0.0
  0
LINE
  8
0
 62
     0
 10
272.452
 20
115.93
 30
0.0
 11
272.452
 21
112.83
 31
0.0
  0
LINE
  8
0
 62
     0
 10
272.452
 20
112.83
 30
0.0
 11
273.252
 21
112.83
 31
0.0
  0
LINE
  8
0
 62
     0
 10
273.252
 20
112.83
 30
0.0
 11
273.252
 21
111.829
 31
0.0
  0
LINE
  8
0
 62
     0
 10
273.252
 20
111.829
 30
0.0
 11
287.252
 21
111.829
 31
0.0
  0
LINE
  8
0
 62
     0
 10
287.252
 20
111.829
 30
0.0
 11
287.252
 21
112.83
 31
0.0
  0
LINE
  8
0
 62
     0
 10
311.065
 20
112.83
 30
0.0
 11
311.865
 21
112.83
 31
0.0
  0
LINE
  8
0
 62
     0
 10
311.865
 20
112.83
 30
0.0
 11
311.865
 21
115.93
 31
0.0
  0
LINE
  8
0
 62
     0
 10
311.865
 20
115.93
 30
0.0
 11
311.065
 21
115.93
 31
0.0
  0
LINE
  8
0
 62
     0
 10
311.065
 20
115.93
 30
0.0
 11
311.065
 21
121.729
 31
0.0
  0
LINE
  8
0
 62
     0
 10
311.065
 20
121.729
 30
0.0
 11
311.865
 21
121.729
 31
0.0
  0
LINE
  8
0
 62
     0
 10
311.865
 20
121.729
 30
0.0
 11
311.865
 21
124.83
 31
0.0
  0
LINE
  8
0
 62
     0
 10
311.865
 20
124.83
 30
0.0
 11
311.065
 21
124.83
 31
0.0
  0
LINE
  8
0
 62
     0
 10
311.065
 20
124.83
 30
0.0
 11
311.065
 21
125.829
 31
0.0
  0
LINE
  8
0
 62
     0
 10
311.065
 20
125.829
 30
0.0
 11
297.065
 21
125.829
 31
0.0
  0
LINE
  8
0
 62
     0
 10
297.065
 20
125.829
 30
0.0
 11
297.065
 21
124.83
 31
0.0
  0
LINE
  8
0
 62
     0
 10
297.065
 20
124.83
 30
0.0
 11
296.265
 21
124.83
 31
0.0
  0
LINE
  8
0
 62
     0
 10
296.265
 20
124.83
 30
0.0
 11
296.265
 21
121.729
 31
0.0
  0
LINE
  8
0
 62
     0
 10
296.265
 20
121.729
 30
0.0
 11
297.065
 21
121.729
 31
0.0
  0
LINE
  8
0
 62
     0
 10
297.065
 20
121.729
 30
0.0
 11
297.065
 21
115.93
 31
0.0
  0
LINE
  8
0
 62
     0
 10
297.065
 20
115.93
 30
0.0
 11
296.265
 21
115.93
 31
0.0
  0
LINE
  8
0
 62
     0
 10
296.265
 20
115.93
 30
0.0
 11
296.265
 21
112.83
 31
0.0
  0
LINE
  8
0
 62
     0
 10
296.265
 20
112.83
 30
0.0
 11
297.065
 21
112.83
 31
0.0
  0
LINE
  8
0
 62
     0
 10
297.065
 20
112.83
 30
0.0
 11
297.065
 21
111.829
 31
0.0
  0
LINE
  8
0
 62
     0
 10
297.065
 20
111.829
 30
0.0
 11
311.065
 21
111.829
 31
0.0
  0
LINE
  8
0
 62
     0
 10
311.065
 20
111.829
 30
0.0
 11
311.065
 21
112.83
 31
0.0
  0
LINE
  8
0
 62
     0
 10
330.115
 20
112.83
 30
0.0
 11
330.915
 21
112.83
 31
0.0
  0
LINE
  8
0
 62
     0
 10
330.915
 20
112.83
 30
0.0
 11
330.915
 21
115.93
 31
0.0
  0
LINE
  8
0
 62
     0
 10
330.915
 20
115.93
 30
0.0
 11
330.115
 21
115.93
 31
0.0
  0
LINE
  8
0
 62
     0
 10
330.115
 20
115.93
 30
0.0
 11
330.115
 21
121.729
 31
0.0
  0
LINE
  8
0
 62
     0
 10
330.115
 20
121.729
 30
0.0
 11
330.915
 21
121.729
 31
0.0
  0
LINE
  8
0
 62
     0
 10
330.915
 20
121.729
 30
0.0
 11
330.915
 21
124.83
 31
0.0
  0
LINE
  8
0
 62
     0
 10
330.915
 20
124.83
 30
0.0
 11
330.115
 21
124.83
 31
0.0
  0
LINE
  8
0
 62
     0
 10
330.115
 20
124.83
 30
0.0
 11
330.115
 21
125.829
 31
0.0
  0
LINE
  8
0
 62
     0
 10
330.115
 20
125.829
 30
0.0
 11
316.115
 21
125.829
 31
0.0
  0
LINE
  8
0
 62
     0
 10
316.115
 20
125.829
 30
0.0
 11
316.115
 21
124.83
 31
0.0
  0
LINE
  8
0
 62
     0
 10
316.115
 20
124.83
 30
0.0
 11
315.315
 21
124.83
 31
0.0
  0
LINE
  8
0
 62
     0
 10
315.315
 20
124.83
 30
0.0
 11
315.315
 21
121.729
 31
0.0
  0
LINE
  8
0
 62
     0
 10
315.315
 20
121.729
 30
0.0
 11
316.115
 21
121.729
 31
0.0
  0
LINE
  8
0
 62
     0
 10
316.115
 20
121.729
 30
0.0
 11
316.115
 21
115.93
 31
0.0
  0
LINE
  8
0
 62
     0
 10
316.115
 20
115.93
 30
0.0
 11
315.315
 21
115.93
 31
0.0
  0
LINE
  8
0
 62
     0
 10
315.315
 20
115.93
 30
0.0
 11
315.315
 21
112.83
 31
0.0
  0
LINE
  8
0
 62
     0
 10
315.315
 20
112.83
 30
0.0
 11
316.115
 21
112.83
 31
0.0
  0
LINE
  8
0
 62
     0
 10
316.115
 20
112.83
 30
0.0
 11
316.115
 21
111.829
 31
0.0
  0
LINE
  8
0
 62
     0
 10
316.115
 20
111.829
 30
0.0
 11
330.115
 21
111.829
 31
0.0
  0
LINE
  8
0
 62
     0
 10
330.115
 20
111.829
 30
0.0
 11
330.115
 21
112.83
 31
0.0
  0
LINE
  8
0
 62
     0
 10
349.165
 20
112.83
 30
0.0
 11
349.965
 21
112.83
 31
0.0
  0
LINE
  8
0
 62
     0
 10
349.965
 20
112.83
 30
0.0
 11
349.965
 21
115.93
 31
0.0
  0
LINE
  8
0
 62
     0
 10
349.965
 20
115.93
 30
0.0
 11
349.165
 21
115.93
 31
0.0
  0
LINE
  8
0
 62
     0
 10
349.165
 20
115.93
 30
0.0
 11
349.165
 21
121.729
 31
0.0
  0
LINE
  8
0
 62
     0
 10
349.165
 20
121.729
 30
0.0
 11
349.965
 21
121.729
 31
0.0
  0
LINE
  8
0
 62
     0
 10
349.965
 20
121.729
 30
0.0
 11
349.965
 21
124.83
 31
0.0
  0
LINE
  8
0
 62
     0
 10
349.965
 20
124.83
 30
0.0
 11
349.165
 21
124.83
 31
0.0
  0
LINE
  8
0
 62
     0
 10
349.165
 20
124.83
 30
0.0
 11
349.165
 21
125.829
 31
0.0
  0
LINE
  8
0
 62
     0
 10
349.165
 20
125.829
 30
0.0
 11
335.165
 21
125.829
 31
0.0
  0
LINE
  8
0
 62
     0
 10
335.165
 20
125.829
 30
0.0
 11
335.165
 21
124.83
 31
0.0
  0
LINE
  8
0
 62
     0
 10
335.165
 20
124.83
 30
0.0
 11
334.365
 21
124.83
 31
0.0
  0
LINE
  8
0
 62
     0
 10
334.365
 20
124.83
 30
0.0
 11
334.365
 21
121.729
 31
0.0
  0
LINE
  8
0
 62
     0
 10
334.365
 20
121.729
 30
0.0
 11
335.165
 21
121.729
 31
0.0
  0
LINE
  8
0
 62
     0
 10
335.165
 20
121.729
 30
0.0
 11
335.165
 21
115.93
 31
0.0
  0
LINE
  8
0
 62
     0
 10
335.165
 20
115.93
 30
0.0
 11
334.365
 21
115.93
 31
0.0
  0
LINE
  8
0
 62
     0
 10
334.365
 20
115.93
 30
0.0
 11
334.365
 21
112.83
 31
0.0
  0
LINE
  8
0
 62
     0
 10
334.365
 20
112.83
 30
0.0
 11
335.165
 21
112.83
 31
0.0
  0
LINE
  8
0
 62
     0
 10
335.165
 20
112.83
 30
0.0
 11
335.165
 21
111.829
 31
0.0
  0
LINE
  8
0
 62
     0
 10
335.165
 20
111.829
 30
0.0
 11
349.165
 21
111.829
 31
0.0
  0
LINE
  8
0
 62
     0
 10
349.165
 20
111.829
 30
0.0
 11
349.165
 21
112.83
 31
0.0
  0
ENDSEC
  0
EOF
