  0
SECTION
  2
HEADER
  9
$ACADVER
  1
AC1009
  9
$EXTMIN
 10
0.0
 20
0.0
 30
0.0
  9
$EXTMAX
 10
1000.0
 20
1000.0
 30
0.0
  9
$FILLMODE
 70
 0
  9
$SPLFRAME
 70
 1
  0
ENDSEC
  0
SECTION
  2
TABLES
  0
TABLE
  2
LAYER
 70
1
  0
LAYER
  2
0
 70
     0
 62
     7
  6
CONTINUOUS
  0
ENDTAB
  0
ENDSEC
  0
SECTION
  2
ENTITIES
  0
LINE
  8
0
 62
     5
 10
2.01745
 20
163.095
 30
0.0
 11
2.209
 21
163.134
 31
0.0
  0
LINE
  8
0
 62
     5
 10
2.209
 20
163.134
 30
0.0
 11
2.40468
 21
163.157
 31
0.0
  0
LINE
  8
0
 62
     5
 10
2.40468
 20
163.157
 30
0.0
 11
2.60036
 21
163.164
 31
0.0
  0
LINE
  8
0
 62
     5
 10
2.60036
 20
163.164
 30
0.0
 11
154.477
 21
163.164
 31
0.0
  0
LINE
  8
0
 62
     5
 10
154.477
 20
163.164
 30
0.0
 11
154.672
 21
163.157
 31
0.0
  0
LINE
  8
0
 62
     5
 10
154.672
 20
163.157
 30
0.0
 11
154.868
 21
163.134
 31
0.0
  0
LINE
  8
0
 62
     5
 10
154.868
 20
163.134
 30
0.0
 11
155.06
 21
163.095
 31
0.0
  0
LINE
  8
0
 62
     5
 10
155.06
 20
163.095
 30
0.0
 11
155.248
 21
163.041
 31
0.0
  0
LINE
  8
0
 62
     5
 10
155.248
 20
163.041
 30
0.0
 11
155.433
 21
162.974
 31
0.0
  0
LINE
  8
0
 62
     5
 10
155.433
 20
162.974
 30
0.0
 11
155.611
 21
162.891
 31
0.0
  0
LINE
  8
0
 62
     5
 10
155.611
 20
162.891
 30
0.0
 11
155.783
 21
162.796
 31
0.0
  0
LINE
  8
0
 62
     5
 10
155.783
 20
162.796
 30
0.0
 11
155.946
 21
162.687
 31
0.0
  0
LINE
  8
0
 62
     5
 10
155.946
 20
162.687
 30
0.0
 11
156.1
 21
162.566
 31
0.0
  0
LINE
  8
0
 62
     5
 10
156.1
 20
162.566
 30
0.0
 11
156.244
 21
162.432
 31
0.0
  0
LINE
  8
0
 62
     5
 10
156.244
 20
162.432
 30
0.0
 11
156.378
 21
162.287
 31
0.0
  0
LINE
  8
0
 62
     5
 10
156.378
 20
162.287
 30
0.0
 11
156.5
 21
162.133
 31
0.0
  0
LINE
  8
0
 62
     5
 10
156.5
 20
162.133
 30
0.0
 11
156.609
 21
161.971
 31
0.0
  0
LINE
  8
0
 62
     5
 10
156.609
 20
161.971
 30
0.0
 11
156.704
 21
161.798
 31
0.0
  0
LINE
  8
0
 62
     5
 10
156.704
 20
161.798
 30
0.0
 11
156.786
 21
161.621
 31
0.0
  0
LINE
  8
0
 62
     5
 10
156.786
 20
161.621
 30
0.0
 11
156.854
 21
161.436
 31
0.0
  0
LINE
  8
0
 62
     5
 10
156.854
 20
161.436
 30
0.0
 11
156.907
 21
161.247
 31
0.0
  0
LINE
  8
0
 62
     5
 10
156.907
 20
161.247
 30
0.0
 11
156.946
 21
161.055
 31
0.0
  0
LINE
  8
0
 62
     5
 10
156.946
 20
161.055
 30
0.0
 11
156.97
 21
160.86
 31
0.0
  0
LINE
  8
0
 62
     5
 10
156.97
 20
160.86
 30
0.0
 11
156.977
 21
160.664
 31
0.0
  0
LINE
  8
0
 62
     5
 10
156.977
 20
160.664
 30
0.0
 11
156.977
 21
2.60036
 31
0.0
  0
LINE
  8
0
 62
     5
 10
156.977
 20
2.60036
 30
0.0
 11
156.97
 21
2.40468
 31
0.0
  0
LINE
  8
0
 62
     5
 10
156.97
 20
2.40468
 30
0.0
 11
156.946
 21
2.209
 31
0.0
  0
LINE
  8
0
 62
     5
 10
156.946
 20
2.209
 30
0.0
 11
156.907
 21
2.01607
 31
0.0
  0
LINE
  8
0
 62
     5
 10
156.907
 20
2.01607
 30
0.0
 11
156.854
 21
1.82728
 31
0.0
  0
LINE
  8
0
 62
     5
 10
156.854
 20
1.82728
 30
0.0
 11
156.786
 21
1.644
 31
0.0
  0
LINE
  8
0
 62
     5
 10
156.786
 20
1.644
 30
0.0
 11
156.704
 21
1.46485
 31
0.0
  0
LINE
  8
0
 62
     5
 10
156.704
 20
1.46485
 30
0.0
 11
156.609
 21
1.29398
 31
0.0
  0
LINE
  8
0
 62
     5
 10
156.609
 20
1.29398
 30
0.0
 11
156.5
 21
1.13137
 31
0.0
  0
LINE
  8
0
 62
     5
 10
156.5
 20
1.13137
 30
0.0
 11
156.378
 21
0.977029
 31
0.0
  0
LINE
  8
0
 62
     5
 10
156.378
 20
0.977029
 30
0.0
 11
156.244
 21
0.832337
 31
0.0
  0
LINE
  8
0
 62
     5
 10
156.244
 20
0.832337
 30
0.0
 11
156.1
 21
0.700045
 31
0.0
  0
LINE
  8
0
 62
     5
 10
156.1
 20
0.700045
 30
0.0
 11
155.946
 21
0.577398
 31
0.0
  0
LINE
  8
0
 62
     5
 10
155.946
 20
0.577398
 30
0.0
 11
155.783
 21
0.468535
 31
0.0
  0
LINE
  8
0
 62
     5
 10
155.783
 20
0.468535
 30
0.0
 11
155.611
 21
0.372071
 31
0.0
  0
LINE
  8
0
 62
     5
 10
155.611
 20
0.372071
 30
0.0
 11
155.433
 21
0.290766
 31
0.0
  0
LINE
  8
0
 62
     5
 10
155.433
 20
0.290766
 30
0.0
 11
155.248
 21
0.221864
 31
0.0
  0
LINE
  8
0
 62
     5
 10
155.248
 20
0.221864
 30
0.0
 11
155.06
 21
0.169499
 31
0.0
  0
LINE
  8
0
 62
     5
 10
155.06
 20
0.169499
 30
0.0
 11
154.868
 21
0.130914
 31
0.0
  0
LINE
  8
0
 62
     5
 10
154.868
 20
0.130914
 30
0.0
 11
154.672
 21
0.108865
 31
0.0
  0
LINE
  8
0
 62
     5
 10
154.672
 20
0.108865
 30
0.0
 11
154.477
 21
0.100597
 31
0.0
  0
LINE
  8
0
 62
     5
 10
154.477
 20
0.100597
 30
0.0
 11
2.60036
 21
0.100597
 31
0.0
  0
LINE
  8
0
 62
     5
 10
2.60036
 20
0.100597
 30
0.0
 11
2.40468
 21
0.108865
 31
0.0
  0
LINE
  8
0
 62
     5
 10
2.40468
 20
0.108865
 30
0.0
 11
2.209
 21
0.130914
 31
0.0
  0
LINE
  8
0
 62
     5
 10
2.209
 20
0.130914
 30
0.0
 11
2.01745
 21
0.169499
 31
0.0
  0
LINE
  8
0
 62
     5
 10
2.01745
 20
0.169499
 30
0.0
 11
1.82866
 21
0.221864
 31
0.0
  0
LINE
  8
0
 62
     5
 10
1.82866
 20
0.221864
 30
0.0
 11
1.644
 21
0.290766
 31
0.0
  0
LINE
  8
0
 62
     5
 10
1.644
 20
0.290766
 30
0.0
 11
1.46623
 21
0.372071
 31
0.0
  0
LINE
  8
0
 62
     5
 10
1.46623
 20
0.372071
 30
0.0
 11
1.29398
 21
0.468535
 31
0.0
  0
LINE
  8
0
 62
     5
 10
1.29398
 20
0.468535
 30
0.0
 11
1.13137
 21
0.577398
 31
0.0
  0
LINE
  8
0
 62
     5
 10
1.13137
 20
0.577398
 30
0.0
 11
0.977029
 21
0.700045
 31
0.0
  0
LINE
  8
0
 62
     5
 10
0.977029
 20
0.700045
 30
0.0
 11
0.832337
 21
0.832337
 31
0.0
  0
LINE
  8
0
 62
     5
 10
0.832337
 20
0.832337
 30
0.0
 11
0.698666
 21
0.977029
 31
0.0
  0
LINE
  8
0
 62
     5
 10
0.698666
 20
0.977029
 30
0.0
 11
0.577398
 21
1.13137
 31
0.0
  0
LINE
  8
0
 62
     5
 10
0.577398
 20
1.13137
 30
0.0
 11
0.468535
 21
1.29398
 31
0.0
  0
LINE
  8
0
 62
     5
 10
0.468535
 20
1.29398
 30
0.0
 11
0.373447
 21
1.46485
 31
0.0
  0
LINE
  8
0
 62
     5
 10
0.373447
 20
1.46485
 30
0.0
 11
0.290766
 21
1.644
 31
0.0
  0
LINE
  8
0
 62
     5
 10
0.290766
 20
1.644
 30
0.0
 11
0.223242
 21
1.82728
 31
0.0
  0
LINE
  8
0
 62
     5
 10
0.223242
 20
1.82728
 30
0.0
 11
0.169499
 21
2.01607
 31
0.0
  0
LINE
  8
0
 62
     5
 10
0.169499
 20
2.01607
 30
0.0
 11
0.130914
 21
2.209
 31
0.0
  0
LINE
  8
0
 62
     5
 10
0.130914
 20
2.209
 30
0.0
 11
0.107487
 21
2.40468
 31
0.0
  0
LINE
  8
0
 62
     5
 10
0.107487
 20
2.40468
 30
0.0
 11
0.100597
 21
2.60036
 31
0.0
  0
LINE
  8
0
 62
     5
 10
0.100597
 20
2.60036
 30
0.0
 11
0.100597
 21
160.664
 31
0.0
  0
LINE
  8
0
 62
     5
 10
0.100597
 20
160.664
 30
0.0
 11
0.107487
 21
160.86
 31
0.0
  0
LINE
  8
0
 62
     5
 10
0.107487
 20
160.86
 30
0.0
 11
0.130914
 21
161.055
 31
0.0
  0
LINE
  8
0
 62
     5
 10
0.130914
 20
161.055
 30
0.0
 11
0.169499
 21
161.247
 31
0.0
  0
LINE
  8
0
 62
     5
 10
0.169499
 20
161.247
 30
0.0
 11
0.223242
 21
161.436
 31
0.0
  0
LINE
  8
0
 62
     5
 10
0.223242
 20
161.436
 30
0.0
 11
0.290766
 21
161.621
 31
0.0
  0
LINE
  8
0
 62
     5
 10
0.290766
 20
161.621
 30
0.0
 11
0.373447
 21
161.798
 31
0.0
  0
LINE
  8
0
 62
     5
 10
0.373447
 20
161.798
 30
0.0
 11
0.468535
 21
161.971
 31
0.0
  0
LINE
  8
0
 62
     5
 10
0.468535
 20
161.971
 30
0.0
 11
0.577398
 21
162.133
 31
0.0
  0
LINE
  8
0
 62
     5
 10
0.577398
 20
162.133
 30
0.0
 11
0.698666
 21
162.287
 31
0.0
  0
LINE
  8
0
 62
     5
 10
0.698666
 20
162.287
 30
0.0
 11
0.832337
 21
162.432
 31
0.0
  0
LINE
  8
0
 62
     5
 10
0.832337
 20
162.432
 30
0.0
 11
0.977029
 21
162.566
 31
0.0
  0
LINE
  8
0
 62
     5
 10
0.977029
 20
162.566
 30
0.0
 11
1.13137
 21
162.687
 31
0.0
  0
LINE
  8
0
 62
     5
 10
1.13137
 20
162.687
 30
0.0
 11
1.29398
 21
162.796
 31
0.0
  0
LINE
  8
0
 62
     5
 10
1.29398
 20
162.796
 30
0.0
 11
1.46623
 21
162.891
 31
0.0
  0
LINE
  8
0
 62
     5
 10
1.46623
 20
162.891
 30
0.0
 11
1.644
 21
162.974
 31
0.0
  0
LINE
  8
0
 62
     5
 10
1.644
 20
162.974
 30
0.0
 11
1.82866
 21
163.041
 31
0.0
  0
LINE
  8
0
 62
     5
 10
1.82866
 20
163.041
 30
0.0
 11
2.01745
 21
163.095
 31
0.0
  0
LINE
  8
0
 62
     5
 10
130.927
 20
64.2525
 30
0.0
 11
130.927
 21
83.3011
 31
0.0
  0
LINE
  8
0
 62
     5
 10
130.927
 20
83.3011
 30
0.0
 11
140.452
 21
83.3011
 31
0.0
  0
LINE
  8
0
 62
     5
 10
140.452
 20
83.3011
 30
0.0
 11
140.452
 21
102.352
 31
0.0
  0
LINE
  8
0
 62
     5
 10
140.452
 20
102.352
 30
0.0
 11
7.09965
 21
102.352
 31
0.0
  0
LINE
  8
0
 62
     5
 10
7.09965
 20
102.352
 30
0.0
 11
7.09965
 21
7.10103
 31
0.0
  0
LINE
  8
0
 62
     5
 10
7.09965
 20
7.10103
 30
0.0
 11
145.214
 21
7.10103
 31
0.0
  0
LINE
  8
0
 62
     5
 10
145.214
 20
7.10103
 30
0.0
 11
145.214
 21
45.2025
 31
0.0
  0
LINE
  8
0
 62
     5
 10
145.214
 20
45.2025
 30
0.0
 11
135.689
 21
45.2025
 31
0.0
  0
LINE
  8
0
 62
     5
 10
135.689
 20
45.2025
 30
0.0
 11
135.689
 21
64.2525
 31
0.0
  0
LINE
  8
0
 62
     5
 10
135.689
 20
64.2525
 30
0.0
 11
130.927
 21
64.2525
 31
0.0
  0
LINE
  8
0
 62
     5
 10
7.09965
 20
126.165
 30
0.0
 11
26.1524
 21
126.165
 31
0.0
  0
LINE
  8
0
 62
     5
 10
26.1524
 20
126.165
 30
0.0
 11
26.1524
 21
107.112
 31
0.0
  0
LINE
  8
0
 62
     5
 10
26.1524
 20
107.112
 30
0.0
 11
7.09965
 21
107.112
 31
0.0
  0
LINE
  8
0
 62
     5
 10
7.09965
 20
107.112
 30
0.0
 11
7.09965
 21
126.165
 31
0.0
  0
LINE
  8
0
 62
     5
 10
30.9122
 20
126.165
 30
0.0
 11
107.114
 21
126.165
 31
0.0
  0
LINE
  8
0
 62
     5
 10
107.114
 20
126.165
 30
0.0
 11
107.114
 21
107.112
 31
0.0
  0
LINE
  8
0
 62
     5
 10
107.114
 20
107.112
 30
0.0
 11
30.9122
 21
107.112
 31
0.0
  0
LINE
  8
0
 62
     5
 10
30.9122
 20
107.112
 30
0.0
 11
30.9122
 21
126.165
 31
0.0
  0
LINE
  8
0
 62
     5
 10
111.875
 20
126.165
 30
0.0
 11
149.977
 21
126.165
 31
0.0
  0
LINE
  8
0
 62
     5
 10
149.977
 20
126.165
 30
0.0
 11
149.977
 21
107.112
 31
0.0
  0
LINE
  8
0
 62
     5
 10
149.977
 20
107.112
 30
0.0
 11
111.875
 21
107.112
 31
0.0
  0
LINE
  8
0
 62
     5
 10
111.875
 20
107.112
 30
0.0
 11
111.875
 21
126.165
 31
0.0
  0
LINE
  8
0
 62
     5
 10
79.1711
 20
159.542
 30
0.0
 11
79.0801
 21
159.096
 31
0.0
  0
LINE
  8
0
 62
     5
 10
79.0801
 20
159.096
 30
0.0
 11
78.8335
 21
158.729
 31
0.0
  0
LINE
  8
0
 62
     5
 10
78.8335
 20
158.729
 30
0.0
 11
78.4669
 21
158.483
 31
0.0
  0
LINE
  8
0
 62
     5
 10
78.4669
 20
158.483
 30
0.0
 11
78.0203
 21
158.392
 31
0.0
  0
LINE
  8
0
 62
     5
 10
78.0203
 20
158.392
 30
0.0
 11
77.5727
 21
158.483
 31
0.0
  0
LINE
  8
0
 62
     5
 10
77.5727
 20
158.483
 30
0.0
 11
77.2061
 21
158.729
 31
0.0
  0
LINE
  8
0
 62
     5
 10
77.2061
 20
158.729
 30
0.0
 11
76.9592
 21
159.096
 31
0.0
  0
LINE
  8
0
 62
     5
 10
76.9592
 20
159.096
 30
0.0
 11
76.8696
 21
159.542
 31
0.0
  0
LINE
  8
0
 62
     5
 10
76.8696
 20
159.542
 30
0.0
 11
76.9592
 21
159.99
 31
0.0
  0
LINE
  8
0
 62
     5
 10
76.9592
 20
159.99
 30
0.0
 11
77.2061
 21
160.355
 31
0.0
  0
LINE
  8
0
 62
     5
 10
77.2061
 20
160.355
 30
0.0
 11
77.5727
 21
160.602
 31
0.0
  0
LINE
  8
0
 62
     5
 10
77.5727
 20
160.602
 30
0.0
 11
78.0203
 21
160.692
 31
0.0
  0
LINE
  8
0
 62
     5
 10
78.0203
 20
160.692
 30
0.0
 11
78.4669
 21
160.602
 31
0.0
  0
LINE
  8
0
 62
     5
 10
78.4669
 20
160.602
 30
0.0
 11
78.8335
 21
160.355
 31
0.0
  0
LINE
  8
0
 62
     5
 10
78.8335
 20
160.355
 30
0.0
 11
79.0801
 21
159.99
 31
0.0
  0
LINE
  8
0
 62
     5
 10
79.0801
 20
159.99
 30
0.0
 11
79.1711
 21
159.542
 31
0.0
  0
LINE
  8
0
 62
     5
 10
154.59
 20
138.482
 30
0.0
 11
154.499
 21
138.035
 31
0.0
  0
LINE
  8
0
 62
     5
 10
154.499
 20
138.035
 30
0.0
 11
154.252
 21
137.669
 31
0.0
  0
LINE
  8
0
 62
     5
 10
154.252
 20
137.669
 30
0.0
 11
153.887
 21
137.422
 31
0.0
  0
LINE
  8
0
 62
     5
 10
153.887
 20
137.422
 30
0.0
 11
153.44
 21
137.331
 31
0.0
  0
LINE
  8
0
 62
     5
 10
153.44
 20
137.331
 30
0.0
 11
152.993
 21
137.422
 31
0.0
  0
LINE
  8
0
 62
     5
 10
152.993
 20
137.422
 30
0.0
 11
152.626
 21
137.669
 31
0.0
  0
LINE
  8
0
 62
     5
 10
152.626
 20
137.669
 30
0.0
 11
152.379
 21
138.035
 31
0.0
  0
LINE
  8
0
 62
     5
 10
152.379
 20
138.035
 30
0.0
 11
152.29
 21
138.482
 31
0.0
  0
LINE
  8
0
 62
     5
 10
152.29
 20
138.482
 30
0.0
 11
152.379
 21
138.93
 31
0.0
  0
LINE
  8
0
 62
     5
 10
152.379
 20
138.93
 30
0.0
 11
152.626
 21
139.295
 31
0.0
  0
LINE
  8
0
 62
     5
 10
152.626
 20
139.295
 30
0.0
 11
152.993
 21
139.542
 31
0.0
  0
LINE
  8
0
 62
     5
 10
152.993
 20
139.542
 30
0.0
 11
153.44
 21
139.631
 31
0.0
  0
LINE
  8
0
 62
     5
 10
153.44
 20
139.631
 30
0.0
 11
153.887
 21
139.542
 31
0.0
  0
LINE
  8
0
 62
     5
 10
153.887
 20
139.542
 30
0.0
 11
154.252
 21
139.295
 31
0.0
  0
LINE
  8
0
 62
     5
 10
154.252
 20
139.295
 30
0.0
 11
154.499
 21
138.93
 31
0.0
  0
LINE
  8
0
 62
     5
 10
154.499
 20
138.93
 30
0.0
 11
154.59
 21
138.482
 31
0.0
  0
LINE
  8
0
 62
     5
 10
154.59
 20
74.1345
 30
0.0
 11
154.499
 21
73.6879
 31
0.0
  0
LINE
  8
0
 62
     5
 10
154.499
 20
73.6879
 30
0.0
 11
154.252
 21
73.3227
 31
0.0
  0
LINE
  8
0
 62
     5
 10
154.252
 20
73.3227
 30
0.0
 11
153.887
 21
73.0762
 31
0.0
  0
LINE
  8
0
 62
     5
 10
153.887
 20
73.0762
 30
0.0
 11
153.44
 21
72.9851
 31
0.0
  0
LINE
  8
0
 62
     5
 10
153.44
 20
72.9851
 30
0.0
 11
152.993
 21
73.0762
 31
0.0
  0
LINE
  8
0
 62
     5
 10
152.993
 20
73.0762
 30
0.0
 11
152.626
 21
73.3227
 31
0.0
  0
LINE
  8
0
 62
     5
 10
152.626
 20
73.3227
 30
0.0
 11
152.379
 21
73.6879
 31
0.0
  0
LINE
  8
0
 62
     5
 10
152.379
 20
73.6879
 30
0.0
 11
152.29
 21
74.1345
 31
0.0
  0
LINE
  8
0
 62
     5
 10
152.29
 20
74.1345
 30
0.0
 11
152.379
 21
74.5822
 31
0.0
  0
LINE
  8
0
 62
     5
 10
152.379
 20
74.5822
 30
0.0
 11
152.626
 21
74.9487
 31
0.0
  0
LINE
  8
0
 62
     5
 10
152.626
 20
74.9487
 30
0.0
 11
152.993
 21
75.1953
 31
0.0
  0
LINE
  8
0
 62
     5
 10
152.993
 20
75.1953
 30
0.0
 11
153.44
 21
75.2849
 31
0.0
  0
LINE
  8
0
 62
     5
 10
153.44
 20
75.2849
 30
0.0
 11
153.887
 21
75.1953
 31
0.0
  0
LINE
  8
0
 62
     5
 10
153.887
 20
75.1953
 30
0.0
 11
154.252
 21
74.9487
 31
0.0
  0
LINE
  8
0
 62
     5
 10
154.252
 20
74.9487
 30
0.0
 11
154.499
 21
74.5822
 31
0.0
  0
LINE
  8
0
 62
     5
 10
154.499
 20
74.5822
 30
0.0
 11
154.59
 21
74.1345
 31
0.0
  0
LINE
  8
0
 62
     5
 10
154.59
 20
23.6775
 30
0.0
 11
154.499
 21
23.231
 31
0.0
  0
LINE
  8
0
 62
     5
 10
154.499
 20
23.231
 30
0.0
 11
154.252
 21
22.8644
 31
0.0
  0
LINE
  8
0
 62
     5
 10
154.252
 20
22.8644
 30
0.0
 11
153.887
 21
22.6177
 31
0.0
  0
LINE
  8
0
 62
     5
 10
153.887
 20
22.6177
 30
0.0
 11
153.44
 21
22.5268
 31
0.0
  0
LINE
  8
0
 62
     5
 10
153.44
 20
22.5268
 30
0.0
 11
152.993
 21
22.6177
 31
0.0
  0
LINE
  8
0
 62
     5
 10
152.993
 20
22.6177
 30
0.0
 11
152.626
 21
22.8644
 31
0.0
  0
LINE
  8
0
 62
     5
 10
152.626
 20
22.8644
 30
0.0
 11
152.379
 21
23.231
 31
0.0
  0
LINE
  8
0
 62
     5
 10
152.379
 20
23.231
 30
0.0
 11
152.29
 21
23.6775
 31
0.0
  0
LINE
  8
0
 62
     5
 10
152.29
 20
23.6775
 30
0.0
 11
152.379
 21
24.1253
 31
0.0
  0
LINE
  8
0
 62
     5
 10
152.379
 20
24.1253
 30
0.0
 11
152.626
 21
24.4905
 31
0.0
  0
LINE
  8
0
 62
     5
 10
152.626
 20
24.4905
 30
0.0
 11
152.993
 21
24.7372
 31
0.0
  0
LINE
  8
0
 62
     5
 10
152.993
 20
24.7372
 30
0.0
 11
153.44
 21
24.8267
 31
0.0
  0
LINE
  8
0
 62
     5
 10
153.44
 20
24.8267
 30
0.0
 11
153.887
 21
24.7372
 31
0.0
  0
LINE
  8
0
 62
     5
 10
153.887
 20
24.7372
 30
0.0
 11
154.252
 21
24.4905
 31
0.0
  0
LINE
  8
0
 62
     5
 10
154.252
 20
24.4905
 30
0.0
 11
154.499
 21
24.1253
 31
0.0
  0
LINE
  8
0
 62
     5
 10
154.499
 20
24.1253
 30
0.0
 11
154.59
 21
23.6775
 31
0.0
  0
LINE
  8
0
 62
     5
 10
4.768
 20
138.482
 30
0.0
 11
4.67706
 21
138.035
 31
0.0
  0
LINE
  8
0
 62
     5
 10
4.67706
 20
138.035
 30
0.0
 11
4.4304
 21
137.669
 31
0.0
  0
LINE
  8
0
 62
     5
 10
4.4304
 20
137.669
 30
0.0
 11
4.06382
 21
137.422
 31
0.0
  0
LINE
  8
0
 62
     5
 10
4.06382
 20
137.422
 30
0.0
 11
3.61735
 21
137.331
 31
0.0
  0
LINE
  8
0
 62
     5
 10
3.61735
 20
137.331
 30
0.0
 11
3.16949
 21
137.422
 31
0.0
  0
LINE
  8
0
 62
     5
 10
3.16949
 20
137.422
 30
0.0
 11
2.80431
 21
137.669
 31
0.0
  0
LINE
  8
0
 62
     5
 10
2.80431
 20
137.669
 30
0.0
 11
2.55764
 21
138.035
 31
0.0
  0
LINE
  8
0
 62
     5
 10
2.55764
 20
138.035
 30
0.0
 11
2.46807
 21
138.482
 31
0.0
  0
LINE
  8
0
 62
     5
 10
2.46807
 20
138.482
 30
0.0
 11
2.55764
 21
138.93
 31
0.0
  0
LINE
  8
0
 62
     5
 10
2.55764
 20
138.93
 30
0.0
 11
2.80431
 21
139.295
 31
0.0
  0
LINE
  8
0
 62
     5
 10
2.80431
 20
139.295
 30
0.0
 11
3.16949
 21
139.542
 31
0.0
  0
LINE
  8
0
 62
     5
 10
3.16949
 20
139.542
 30
0.0
 11
3.61735
 21
139.631
 31
0.0
  0
LINE
  8
0
 62
     5
 10
3.61735
 20
139.631
 30
0.0
 11
4.06382
 21
139.542
 31
0.0
  0
LINE
  8
0
 62
     5
 10
4.06382
 20
139.542
 30
0.0
 11
4.4304
 21
139.295
 31
0.0
  0
LINE
  8
0
 62
     5
 10
4.4304
 20
139.295
 30
0.0
 11
4.67706
 21
138.93
 31
0.0
  0
LINE
  8
0
 62
     5
 10
4.67706
 20
138.93
 30
0.0
 11
4.768
 21
138.482
 31
0.0
  0
LINE
  8
0
 62
     5
 10
4.768
 20
74.1345
 30
0.0
 11
4.67706
 21
73.6879
 31
0.0
  0
LINE
  8
0
 62
     5
 10
4.67706
 20
73.6879
 30
0.0
 11
4.4304
 21
73.3227
 31
0.0
  0
LINE
  8
0
 62
     5
 10
4.4304
 20
73.3227
 30
0.0
 11
4.06382
 21
73.0762
 31
0.0
  0
LINE
  8
0
 62
     5
 10
4.06382
 20
73.0762
 30
0.0
 11
3.61735
 21
72.9851
 31
0.0
  0
LINE
  8
0
 62
     5
 10
3.61735
 20
72.9851
 30
0.0
 11
3.16949
 21
73.0762
 31
0.0
  0
LINE
  8
0
 62
     5
 10
3.16949
 20
73.0762
 30
0.0
 11
2.80431
 21
73.3227
 31
0.0
  0
LINE
  8
0
 62
     5
 10
2.80431
 20
73.3227
 30
0.0
 11
2.55764
 21
73.6879
 31
0.0
  0
LINE
  8
0
 62
     5
 10
2.55764
 20
73.6879
 30
0.0
 11
2.46807
 21
74.1345
 31
0.0
  0
LINE
  8
0
 62
     5
 10
2.46807
 20
74.1345
 30
0.0
 11
2.55764
 21
74.5822
 31
0.0
  0
LINE
  8
0
 62
     5
 10
2.55764
 20
74.5822
 30
0.0
 11
2.80431
 21
74.9487
 31
0.0
  0
LINE
  8
0
 62
     5
 10
2.80431
 20
74.9487
 30
0.0
 11
3.16949
 21
75.1953
 31
0.0
  0
LINE
  8
0
 62
     5
 10
3.16949
 20
75.1953
 30
0.0
 11
3.61735
 21
75.2849
 31
0.0
  0
LINE
  8
0
 62
     5
 10
3.61735
 20
75.2849
 30
0.0
 11
4.06382
 21
75.1953
 31
0.0
  0
LINE
  8
0
 62
     5
 10
4.06382
 20
75.1953
 30
0.0
 11
4.4304
 21
74.9487
 31
0.0
  0
LINE
  8
0
 62
     5
 10
4.4304
 20
74.9487
 30
0.0
 11
4.67706
 21
74.5822
 31
0.0
  0
LINE
  8
0
 62
     5
 10
4.67706
 20
74.5822
 30
0.0
 11
4.768
 21
74.1345
 31
0.0
  0
LINE
  8
0
 62
     5
 10
4.768
 20
23.6775
 30
0.0
 11
4.67706
 21
23.231
 31
0.0
  0
LINE
  8
0
 62
     5
 10
4.67706
 20
23.231
 30
0.0
 11
4.4304
 21
22.8644
 31
0.0
  0
LINE
  8
0
 62
     5
 10
4.4304
 20
22.8644
 30
0.0
 11
4.06382
 21
22.6177
 31
0.0
  0
LINE
  8
0
 62
     5
 10
4.06382
 20
22.6177
 30
0.0
 11
3.61735
 21
22.5268
 31
0.0
  0
LINE
  8
0
 62
     5
 10
3.61735
 20
22.5268
 30
0.0
 11
3.16949
 21
22.6177
 31
0.0
  0
LINE
  8
0
 62
     5
 10
3.16949
 20
22.6177
 30
0.0
 11
2.80431
 21
22.8644
 31
0.0
  0
LINE
  8
0
 62
     5
 10
2.80431
 20
22.8644
 30
0.0
 11
2.55764
 21
23.231
 31
0.0
  0
LINE
  8
0
 62
     5
 10
2.55764
 20
23.231
 30
0.0
 11
2.46807
 21
23.6775
 31
0.0
  0
LINE
  8
0
 62
     5
 10
2.46807
 20
23.6775
 30
0.0
 11
2.55764
 21
24.1253
 31
0.0
  0
LINE
  8
0
 62
     5
 10
2.55764
 20
24.1253
 30
0.0
 11
2.80431
 21
24.4905
 31
0.0
  0
LINE
  8
0
 62
     5
 10
2.80431
 20
24.4905
 30
0.0
 11
3.16949
 21
24.7372
 31
0.0
  0
LINE
  8
0
 62
     5
 10
3.16949
 20
24.7372
 30
0.0
 11
3.61735
 21
24.8267
 31
0.0
  0
LINE
  8
0
 62
     5
 10
3.61735
 20
24.8267
 30
0.0
 11
4.06382
 21
24.7372
 31
0.0
  0
LINE
  8
0
 62
     5
 10
4.06382
 20
24.7372
 30
0.0
 11
4.4304
 21
24.4905
 31
0.0
  0
LINE
  8
0
 62
     5
 10
4.4304
 20
24.4905
 30
0.0
 11
4.67706
 21
24.1253
 31
0.0
  0
LINE
  8
0
 62
     5
 10
4.67706
 20
24.1253
 30
0.0
 11
4.768
 21
23.6775
 31
0.0
  0
LINE
  8
0
 62
     5
 10
27.3485
 20
159.542
 30
0.0
 11
27.2576
 21
159.096
 31
0.0
  0
LINE
  8
0
 62
     5
 10
27.2576
 20
159.096
 30
0.0
 11
27.0109
 21
158.729
 31
0.0
  0
LINE
  8
0
 62
     5
 10
27.0109
 20
158.729
 30
0.0
 11
26.6458
 21
158.483
 31
0.0
  0
LINE
  8
0
 62
     5
 10
26.6458
 20
158.483
 30
0.0
 11
26.1993
 21
158.392
 31
0.0
  0
LINE
  8
0
 62
     5
 10
26.1993
 20
158.392
 30
0.0
 11
25.7514
 21
158.483
 31
0.0
  0
LINE
  8
0
 62
     5
 10
25.7514
 20
158.483
 30
0.0
 11
25.3848
 21
158.729
 31
0.0
  0
LINE
  8
0
 62
     5
 10
25.3848
 20
158.729
 30
0.0
 11
25.1382
 21
159.096
 31
0.0
  0
LINE
  8
0
 62
     5
 10
25.1382
 20
159.096
 30
0.0
 11
25.0486
 21
159.542
 31
0.0
  0
LINE
  8
0
 62
     5
 10
25.0486
 20
159.542
 30
0.0
 11
25.1382
 21
159.99
 31
0.0
  0
LINE
  8
0
 62
     5
 10
25.1382
 20
159.99
 30
0.0
 11
25.3848
 21
160.355
 31
0.0
  0
LINE
  8
0
 62
     5
 10
25.3848
 20
160.355
 30
0.0
 11
25.7514
 21
160.602
 31
0.0
  0
LINE
  8
0
 62
     5
 10
25.7514
 20
160.602
 30
0.0
 11
26.1993
 21
160.692
 31
0.0
  0
LINE
  8
0
 62
     5
 10
26.1993
 20
160.692
 30
0.0
 11
26.6458
 21
160.602
 31
0.0
  0
LINE
  8
0
 62
     5
 10
26.6458
 20
160.602
 30
0.0
 11
27.0109
 21
160.355
 31
0.0
  0
LINE
  8
0
 62
     5
 10
27.0109
 20
160.355
 30
0.0
 11
27.2576
 21
159.99
 31
0.0
  0
LINE
  8
0
 62
     5
 10
27.2576
 20
159.99
 30
0.0
 11
27.3485
 21
159.542
 31
0.0
  0
LINE
  8
0
 62
     5
 10
132
 20
159.542
 30
0.0
 11
131.909
 21
159.096
 31
0.0
  0
LINE
  8
0
 62
     5
 10
131.909
 20
159.096
 30
0.0
 11
131.662
 21
158.729
 31
0.0
  0
LINE
  8
0
 62
     5
 10
131.662
 20
158.729
 30
0.0
 11
131.297
 21
158.483
 31
0.0
  0
LINE
  8
0
 62
     5
 10
131.297
 20
158.483
 30
0.0
 11
130.85
 21
158.392
 31
0.0
  0
LINE
  8
0
 62
     5
 10
130.85
 20
158.392
 30
0.0
 11
130.403
 21
158.483
 31
0.0
  0
LINE
  8
0
 62
     5
 10
130.403
 20
158.483
 30
0.0
 11
130.036
 21
158.729
 31
0.0
  0
LINE
  8
0
 62
     5
 10
130.036
 20
158.729
 30
0.0
 11
129.789
 21
159.096
 31
0.0
  0
LINE
  8
0
 62
     5
 10
129.789
 20
159.096
 30
0.0
 11
129.699
 21
159.542
 31
0.0
  0
LINE
  8
0
 62
     5
 10
129.699
 20
159.542
 30
0.0
 11
129.789
 21
159.99
 31
0.0
  0
LINE
  8
0
 62
     5
 10
129.789
 20
159.99
 30
0.0
 11
130.036
 21
160.355
 31
0.0
  0
LINE
  8
0
 62
     5
 10
130.036
 20
160.355
 30
0.0
 11
130.403
 21
160.602
 31
0.0
  0
LINE
  8
0
 62
     5
 10
130.403
 20
160.602
 30
0.0
 11
130.85
 21
160.692
 31
0.0
  0
LINE
  8
0
 62
     5
 10
130.85
 20
160.692
 30
0.0
 11
131.297
 21
160.602
 31
0.0
  0
LINE
  8
0
 62
     5
 10
131.297
 20
160.602
 30
0.0
 11
131.662
 21
160.355
 31
0.0
  0
LINE
  8
0
 62
     5
 10
131.662
 20
160.355
 30
0.0
 11
131.909
 21
159.99
 31
0.0
  0
LINE
  8
0
 62
     5
 10
131.909
 20
159.99
 30
0.0
 11
132
 21
159.542
 31
0.0
  0
LINE
  8
0
 62
     5
 10
79.7348
 20
3.56637
 30
0.0
 11
79.6438
 21
3.11988
 31
0.0
  0
LINE
  8
0
 62
     5
 10
79.6438
 20
3.11988
 30
0.0
 11
79.3972
 21
2.75332
 31
0.0
  0
LINE
  8
0
 62
     5
 10
79.3972
 20
2.75332
 30
0.0
 11
79.0317
 21
2.50665
 31
0.0
  0
LINE
  8
0
 62
     5
 10
79.0317
 20
2.50665
 30
0.0
 11
78.5855
 21
2.4157
 31
0.0
  0
LINE
  8
0
 62
     5
 10
78.5855
 20
2.4157
 30
0.0
 11
78.1375
 21
2.50665
 31
0.0
  0
LINE
  8
0
 62
     5
 10
78.1375
 20
2.50665
 30
0.0
 11
77.7709
 21
2.75332
 31
0.0
  0
LINE
  8
0
 62
     5
 10
77.7709
 20
2.75332
 30
0.0
 11
77.5243
 21
3.11988
 31
0.0
  0
LINE
  8
0
 62
     5
 10
77.5243
 20
3.11988
 30
0.0
 11
77.4347
 21
3.56637
 31
0.0
  0
LINE
  8
0
 62
     5
 10
77.4347
 20
3.56637
 30
0.0
 11
77.5243
 21
4.01422
 31
0.0
  0
LINE
  8
0
 62
     5
 10
77.5243
 20
4.01422
 30
0.0
 11
77.7709
 21
4.37942
 31
0.0
  0
LINE
  8
0
 62
     5
 10
77.7709
 20
4.37942
 30
0.0
 11
78.1375
 21
4.62608
 31
0.0
  0
LINE
  8
0
 62
     5
 10
78.1375
 20
4.62608
 30
0.0
 11
78.5855
 21
4.71565
 31
0.0
  0
LINE
  8
0
 62
     5
 10
78.5855
 20
4.71565
 30
0.0
 11
79.0317
 21
4.62608
 31
0.0
  0
LINE
  8
0
 62
     5
 10
79.0317
 20
4.62608
 30
0.0
 11
79.3972
 21
4.37942
 31
0.0
  0
LINE
  8
0
 62
     5
 10
79.3972
 20
4.37942
 30
0.0
 11
79.6438
 21
4.01422
 31
0.0
  0
LINE
  8
0
 62
     5
 10
79.6438
 20
4.01422
 30
0.0
 11
79.7348
 21
3.56637
 31
0.0
  0
LINE
  8
0
 62
     5
 10
27.3485
 20
3.56637
 30
0.0
 11
27.2576
 21
3.11988
 31
0.0
  0
LINE
  8
0
 62
     5
 10
27.2576
 20
3.11988
 30
0.0
 11
27.0109
 21
2.75332
 31
0.0
  0
LINE
  8
0
 62
     5
 10
27.0109
 20
2.75332
 30
0.0
 11
26.6458
 21
2.50665
 31
0.0
  0
LINE
  8
0
 62
     5
 10
26.6458
 20
2.50665
 30
0.0
 11
26.1993
 21
2.4157
 31
0.0
  0
LINE
  8
0
 62
     5
 10
26.1993
 20
2.4157
 30
0.0
 11
25.7514
 21
2.50665
 31
0.0
  0
LINE
  8
0
 62
     5
 10
25.7514
 20
2.50665
 30
0.0
 11
25.3848
 21
2.75332
 31
0.0
  0
LINE
  8
0
 62
     5
 10
25.3848
 20
2.75332
 30
0.0
 11
25.1382
 21
3.11988
 31
0.0
  0
LINE
  8
0
 62
     5
 10
25.1382
 20
3.11988
 30
0.0
 11
25.0486
 21
3.56637
 31
0.0
  0
LINE
  8
0
 62
     5
 10
25.0486
 20
3.56637
 30
0.0
 11
25.1382
 21
4.01422
 31
0.0
  0
LINE
  8
0
 62
     5
 10
25.1382
 20
4.01422
 30
0.0
 11
25.3848
 21
4.37942
 31
0.0
  0
LINE
  8
0
 62
     5
 10
25.3848
 20
4.37942
 30
0.0
 11
25.7514
 21
4.62608
 31
0.0
  0
LINE
  8
0
 62
     5
 10
25.7514
 20
4.62608
 30
0.0
 11
26.1993
 21
4.71565
 31
0.0
  0
LINE
  8
0
 62
     5
 10
26.1993
 20
4.71565
 30
0.0
 11
26.6458
 21
4.62608
 31
0.0
  0
LINE
  8
0
 62
     5
 10
26.6458
 20
4.62608
 30
0.0
 11
27.0109
 21
4.37942
 31
0.0
  0
LINE
  8
0
 62
     5
 10
27.0109
 20
4.37942
 30
0.0
 11
27.2576
 21
4.01422
 31
0.0
  0
LINE
  8
0
 62
     5
 10
27.2576
 20
4.01422
 30
0.0
 11
27.3485
 21
3.56637
 31
0.0
  0
LINE
  8
0
 62
     5
 10
132
 20
3.56637
 30
0.0
 11
131.909
 21
3.11988
 31
0.0
  0
LINE
  8
0
 62
     5
 10
131.909
 20
3.11988
 30
0.0
 11
131.662
 21
2.75332
 31
0.0
  0
LINE
  8
0
 62
     5
 10
131.662
 20
2.75332
 30
0.0
 11
131.297
 21
2.50665
 31
0.0
  0
LINE
  8
0
 62
     5
 10
131.297
 20
2.50665
 30
0.0
 11
130.85
 21
2.4157
 31
0.0
  0
LINE
  8
0
 62
     5
 10
130.85
 20
2.4157
 30
0.0
 11
130.403
 21
2.50665
 31
0.0
  0
LINE
  8
0
 62
     5
 10
130.403
 20
2.50665
 30
0.0
 11
130.036
 21
2.75332
 31
0.0
  0
LINE
  8
0
 62
     5
 10
130.036
 20
2.75332
 30
0.0
 11
129.789
 21
3.11988
 31
0.0
  0
LINE
  8
0
 62
     5
 10
129.789
 20
3.11988
 30
0.0
 11
129.699
 21
3.56637
 31
0.0
  0
LINE
  8
0
 62
     5
 10
129.699
 20
3.56637
 30
0.0
 11
129.789
 21
4.01422
 31
0.0
  0
LINE
  8
0
 62
     5
 10
129.789
 20
4.01422
 30
0.0
 11
130.036
 21
4.37942
 31
0.0
  0
LINE
  8
0
 62
     5
 10
130.036
 20
4.37942
 30
0.0
 11
130.403
 21
4.62608
 31
0.0
  0
LINE
  8
0
 62
     5
 10
130.403
 20
4.62608
 30
0.0
 11
130.85
 21
4.71565
 31
0.0
  0
LINE
  8
0
 62
     5
 10
130.85
 20
4.71565
 30
0.0
 11
131.297
 21
4.62608
 31
0.0
  0
LINE
  8
0
 62
     5
 10
131.297
 20
4.62608
 30
0.0
 11
131.662
 21
4.37942
 31
0.0
  0
LINE
  8
0
 62
     5
 10
131.662
 20
4.37942
 30
0.0
 11
131.909
 21
4.01422
 31
0.0
  0
LINE
  8
0
 62
     5
 10
131.909
 20
4.01422
 30
0.0
 11
132
 21
3.56637
 31
0.0
  0
LINE
  8
0
 62
     5
 10
18.197
 20
150.49
 30
0.0
 11
137.997
 21
150.49
 31
0.0
  0
LINE
  8
0
 62
     5
 10
137.997
 20
150.49
 30
0.0
 11
137.997
 21
130.69
 31
0.0
  0
LINE
  8
0
 62
     5
 10
137.997
 20
130.69
 30
0.0
 11
18.197
 21
130.69
 31
0.0
  0
LINE
  8
0
 62
     5
 10
18.197
 20
130.69
 30
0.0
 11
18.197
 21
150.49
 31
0.0
  0
ENDSEC
  0
EOF
