<?xml version="1.0" encoding="UTF-8" standalone="no"?>
<!-- Generated by SVGo -->

<svg
   xmlns:dc="http://purl.org/dc/elements/1.1/"
   xmlns:cc="http://creativecommons.org/ns#"
   xmlns:rdf="http://www.w3.org/1999/02/22-rdf-syntax-ns#"
   xmlns:svg="http://www.w3.org/2000/svg"
   xmlns="http://www.w3.org/2000/svg"
   xmlns:xlink="http://www.w3.org/1999/xlink"
   xmlns:sodipodi="http://sodipodi.sourceforge.net/DTD/sodipodi-0.dtd"
   xmlns:inkscape="http://www.inkscape.org/namespaces/inkscape"
   width="166.875mm"
   height="178.063mm"
   viewBox="0.000 0.000 166.875 178.063"
   id="svg2"
   version="1.1"
   inkscape:version="0.91 r13725"
   sodipodi:docname="left__gk_face.svg">
  <metadata
     id="metadata86">
    <rdf:RDF>
      <cc:Work
         rdf:about="">
        <dc:format>image/svg+xml</dc:format>
        <dc:type
           rdf:resource="http://purl.org/dc/dcmitype/StillImage" />
        <dc:title />
      </cc:Work>
    </rdf:RDF>
  </metadata>
  <defs
     id="defs84">
    <linearGradient
       id="DCS">
      <stop
         id="stop4904"
         stop-opacity="0"
         stop-color="black"
         offset="0%" />
      <stop
         id="stop4906"
         stop-opacity="0.1"
         stop-color="black"
         offset="40%" />
      <stop
         id="stop4908"
         stop-opacity="0.1"
         stop-color="black"
         offset="60%" />
      <stop
         id="stop4910"
         stop-opacity="0"
         stop-color="black"
         offset="100%" />
    </linearGradient>
    <linearGradient
       y2="100%"
       y1="0%"
       x2="0%"
       x1="0%"
       id="SPACE">
      <stop
         id="stop4913"
         stop-opacity="0.1"
         stop-color="black"
         offset="0%" />
      <stop
         id="stop4915"
         stop-opacity="0.0"
         stop-color="black"
         offset="20%" />
      <stop
         id="stop4917"
         stop-opacity="0.0"
         stop-color="black"
         offset="40%" />
      <stop
         id="stop4919"
         stop-opacity="0.1"
         stop-color="black"
         offset="100%" />
    </linearGradient>
    <radialGradient
       id="DSA">
      <stop
         id="stop4922"
         stop-opacity="0.1"
         stop-color="black"
         offset="0%" />
      <stop
         id="stop4924"
         stop-opacity="0.1"
         stop-color="black"
         offset="10%" />
      <stop
         id="stop4926"
         stop-opacity="0"
         stop-color="black"
         offset="100%" />
    </radialGradient>
    <radialGradient
       xlink:href="#DSA"
       id="SA" />
  </defs>
  <sodipodi:namedview
     pagecolor="#ffffff"
     bordercolor="#666666"
     borderopacity="1"
     objecttolerance="10"
     gridtolerance="10"
     guidetolerance="10"
     inkscape:pageopacity="0"
     inkscape:pageshadow="2"
     inkscape:window-width="1274"
     inkscape:window-height="1358"
     id="namedview82"
     showgrid="false"
     inkscape:zoom="1.1483379"
     inkscape:cx="295.64469"
     inkscape:cy="315.46595"
     inkscape:window-x="0"
     inkscape:window-y="0"
     inkscape:window-maximized="0"
     inkscape:current-layer="g4522"
     inkscape:document-units="mm"
     showguides="false"
     inkscape:guide-bbox="true"
     inkscape:snap-bbox="true"
     inkscape:snap-bbox-midpoints="true"
     inkscape:snap-global="true"
     inkscape:snap-nodes="false">
    <sodipodi:guide
       position="27.166023,156.60413"
       orientation="0,1"
       id="guide4527" />
    <sodipodi:guide
       position="45.124514,160.10451"
       orientation="1,0"
       id="guide4531" />
    <sodipodi:guide
       position="80.765063,152.65189"
       orientation="1,0"
       id="guide4533" />
    <sodipodi:guide
       position="85.204182,152.59808"
       orientation="1,0"
       id="guide4535" />
    <sodipodi:guide
       position="120.79785,154.37373"
       orientation="1,0"
       id="guide4537" />
    <sodipodi:guide
       position="125.15625,154.53515"
       orientation="1,0"
       id="guide4539" />
    <sodipodi:guide
       position="34.242886,134.68868"
       orientation="0,1"
       id="guide4541" />
    <sodipodi:guide
       position="14.134702,26.728475"
       orientation="1,0"
       id="guide4543" />
    <sodipodi:guide
       position="18.034586,56.84319"
       orientation="0,1"
       id="guide4545" />
    <sodipodi:guide
       position="18.54823,81.498068"
       orientation="0,1"
       id="guide4547" />
    <sodipodi:guide
       position="19.651612,21.544482"
       orientation="0,1"
       id="guide4549" />
    <sodipodi:guide
       position="152.64717,38.428127"
       orientation="1,0"
       id="guide4551" />
    <sodipodi:guide
       position="158.32579,153.03716"
       orientation="1,0"
       id="guide4589" />
    <sodipodi:guide
       position="14.886143,31.075419"
       orientation="0,1"
       id="guide4651" />
    <sodipodi:guide
       position="31.100737,86.845311"
       orientation="1,0"
       id="guide4653" />
    <sodipodi:guide
       position="135.75402,123.27439"
       orientation="1,0"
       id="guide4655" />
  </sodipodi:namedview>
  <g
     inkscape:groupmode="layer"
     id="layer2"
     inkscape:label="switches"
     style="display:inline">
    <g
       id="g6811"
       transform="translate(4.8627459e-7,2.5005023)"
       style="opacity:1;fill:none;stroke:#0000ff;stroke-opacity:1;stroke-width:0.2;stroke-miterlimit:4;stroke-dasharray:none">
      <path
         style="fill:none;stroke:#0000ff;stroke-width:0.2;stroke-opacity:1;stroke-miterlimit:4;stroke-dasharray:none"
         d="m 161.603,166.698 -0.096,0.171 -0.109,0.163 -0.121,0.155 -0.134,0.144 -0.144,0.133 -0.154,0.122 -0.163,0.109 -0.172,0.096 -0.178,0.082 -0.184,0.068 -0.189,0.053 -0.192,0.038 -0.195,0.023 -0.196,0.008 -151.876,0 L 7.303,168.055 7.108,168.032 6.916,167.994 6.727,167.941 6.543,167.873 6.365,167.791 6.193,167.695 6.03,167.586 5.876,167.464 5.732,167.331 5.598,167.187 5.477,167.032 5.368,166.869 5.272,166.698 5.19,166.52 5.122,166.336 5.069,166.147 5.03,165.954 5.007,165.759 4.999,165.563 5,7.5 5.007,7.303 5.03,7.108 5.069,6.916 5.122,6.727 5.19,6.543 5.272,6.365 5.368,6.193 5.477,6.03 5.598,5.876 5.732,5.732 5.876,5.598 6.03,5.477 6.193,5.368 6.365,5.272 6.543,5.19 6.727,5.122 6.916,5.069 7.108,5.03 7.303,5.007 7.5,4.999 159.376,5 l 0.196,0.007 0.195,0.023 0.192,0.039 0.189,0.053 0.184,0.068 0.178,0.082 0.172,0.096 0.163,0.109 0.154,0.121 0.144,0.134 0.134,0.144 0.121,0.154 0.109,0.163 0.096,0.172 0.082,0.178 0.068,0.184 0.053,0.189 0.039,0.192 0.023,0.195 0.007,0.197 0.001,158.063 -0.008,0.196 -0.023,0.195 -0.039,0.193 -0.053,0.189 -0.068,0.184 z"
         id="polygon6727"
         inkscape:connector-curvature="0" />
      <path
         style="fill:none;stroke:#0000ff;stroke-width:0.2;stroke-opacity:1;stroke-miterlimit:4;stroke-dasharray:none"
         d="m 135.681,157.537 0.8,0 0,-3.1 -0.8,0 0,-0.6 1.575,0 0,4.47 1.675,0 0,1.2 3.3,0 0,-1.2 1.675,0 0,-6.27 0.875,0 0,-2.8 -0.875,0 0,-3.23 -6.65,0 0,3.23 -1.575,0 0,-0.6 0.8,0 0,-3.1 -0.8,0 0,-1 -14,0 0,1 -0.8,0 0,3.1 0.8,0 0,0.6 -1.575,0 0,-3.23 -6.65,0 0,3.23 -0.875,0 0,2.8 0.875,0 0,6.27 1.675,0 0,1.2 3.3,0 0,-1.2 1.675,0 0,-4.47 1.575,0 0,0.6 -0.8,0 0,3.1 0.8,0 0,1 14,0 z"
         id="polygon6729"
         inkscape:connector-curvature="0" />
      <path
         style="fill:none;stroke:#0000ff;stroke-width:0.2;stroke-opacity:1;stroke-miterlimit:4;stroke-dasharray:none"
         d="m 87.543,157.537 0.8,0 0,1 14,0 0,-1 0.8,0 0,-3.1 -0.8,0 0,-5.8 0.8,0 0,-3.1 -0.8,0 0,-1 -14,0 0,1 -0.8,0 0,3.1 0.8,0 0,5.8 -0.8,0 z"
         id="polygon6731"
         inkscape:connector-curvature="0" />
      <path
         style="fill:none;stroke:#0000ff;stroke-width:0.2;stroke-opacity:1;stroke-miterlimit:4;stroke-dasharray:none"
         d="m 16.106,157.537 0.8,0 0,1 14,0 0,-1 0.8,0 0,-3.1 -0.8,0 0,-5.8 0.8,0 0,-3.1 -0.8,0 0,-1 -14,0 0,1 -0.8,0 0,3.1 0.8,0 0,5.8 -0.8,0 z"
         id="polygon6733"
         inkscape:connector-curvature="0" />
      <path
         style="fill:none;stroke:#0000ff;stroke-width:0.2;stroke-opacity:1;stroke-miterlimit:4;stroke-dasharray:none"
         d="m 39.918,157.537 0.8,0 0,1 14,0 0,-1 0.8,0 0,-3.1 -0.8,0 0,-5.8 0.8,0 0,-3.1 -0.8,0 0,-1 -14,0 0,1 -0.8,0 0,3.1 0.8,0 0,5.8 -0.8,0 z"
         id="polygon6735"
         inkscape:connector-curvature="0" />
      <path
         style="fill:none;stroke:#0000ff;stroke-width:0.2;stroke-opacity:1;stroke-miterlimit:4;stroke-dasharray:none"
         d="m 63.731,157.537 0.8,0 0,1 14,0 0,-1 0.8,0 0,-3.1 -0.8,0 0,-5.8 0.8,0 0,-3.1 -0.8,0 0,-1 -14,0 0,1 -0.8,0 0,3.1 0.8,0 0,5.8 -0.8,0 z"
         id="polygon6737"
         inkscape:connector-curvature="0" />
      <path
         style="fill:none;stroke:#0000ff;stroke-width:0.2;stroke-opacity:1;stroke-miterlimit:4;stroke-dasharray:none"
         d="m 16.106,138.487 0.8,0 0,1 14,0 0,-1 0.8,0 0,-3.1 -0.8,0 0,-5.801 0.8,0 0,-3.099 -0.8,0 0,-1 -14,0 0,1 -0.8,0 0,3.099 0.8,0 0,5.801 -0.8,0 z"
         id="polygon6739"
         inkscape:connector-curvature="0" />
      <path
         style="fill:none;stroke:#0000ff;stroke-width:0.2;stroke-opacity:1;stroke-miterlimit:4;stroke-dasharray:none"
         d="m 37.537,138.487 0.8,0 0,1 14,0 0,-1 0.8,0 0,-3.1 -0.8,0 0,-5.801 0.8,0 0,-3.099 -0.8,0 0,-1 -14,0 0,1 -0.8,0 0,3.099 0.8,0 0,5.801 -0.8,0 z"
         id="polygon6741"
         inkscape:connector-curvature="0" />
      <path
         style="fill:none;stroke:#0000ff;stroke-width:0.2;stroke-opacity:1;stroke-miterlimit:4;stroke-dasharray:none"
         d="m 56.587,138.487 0.8,0 0,1 14,0 0,-1 0.8,0 0,-3.1 -0.8,0 0,-5.801 0.8,0 0,-3.099 -0.8,0 0,-1 -14,0 0,1 -0.8,0 0,3.099 0.8,0 0,5.801 -0.8,0 z"
         id="polygon6743"
         inkscape:connector-curvature="0" />
      <path
         style="fill:none;stroke:#0000ff;stroke-width:0.2;stroke-opacity:1;stroke-miterlimit:4;stroke-dasharray:none"
         d="m 75.637,138.487 0.8,0 0,1 14,0 0,-1 0.8,0 0,-3.1 -0.8,0 0,-5.801 0.8,0 0,-3.099 -0.8,0 0,-1 -14,0 0,1 -0.8,0 0,3.099 0.8,0 0,5.801 -0.8,0 z"
         id="polygon6745"
         inkscape:connector-curvature="0" />
      <path
         style="fill:none;stroke:#0000ff;stroke-width:0.2;stroke-opacity:1;stroke-miterlimit:4;stroke-dasharray:none"
         d="m 94.687,138.487 0.8,0 0,1 14,0 0,-1 0.8,0 0,-3.1 -0.8,0 0,-5.801 0.8,0 0,-3.099 -0.8,0 0,-1 -14,0 0,1 -0.8,0 0,3.099 0.8,0 0,5.801 -0.8,0 z"
         id="polygon6747"
         inkscape:connector-curvature="0" />
      <path
         style="fill:none;stroke:#0000ff;stroke-width:0.2;stroke-opacity:1;stroke-miterlimit:4;stroke-dasharray:none"
         d="m 113.737,138.487 0.8,0 0,1 14,0 0,-1 0.799,0 0,-3.1 -0.799,0 0,-5.801 0.799,0 0,-3.099 -0.799,0 0,-1 -14,0 0,1 -0.8,0 0,3.099 0.8,0 0,5.801 -0.8,0 z"
         id="polygon6749"
         inkscape:connector-curvature="0" />
      <path
         style="fill:none;stroke:#0000ff;stroke-width:0.2;stroke-opacity:1;stroke-miterlimit:4;stroke-dasharray:none"
         d="m 132.787,138.487 0.8,0 0,1 14,0 0,-1 0.8,0 0,-3.1 -0.8,0 0,-5.801 0.8,0 0,-3.099 -0.8,0 0,-1 -14,0 0,1 -0.8,0 0,3.099 0.8,0 0,5.801 -0.8,0 z"
         id="polygon6751"
         inkscape:connector-curvature="0" />
      <path
         style="fill:none;stroke:#0000ff;stroke-width:0.2;stroke-opacity:1;stroke-miterlimit:4;stroke-dasharray:none"
         d="m 20.868,119.437 0.8,0 0,1 14,0 0,-1 0.8,0 0,-3.1 -0.8,0 0,-5.8 0.8,0 0,-3.1 -0.8,0 0,-1 -14,0 0,1 -0.8,0 0,3.1 0.8,0 0,5.8 -0.8,0 z"
         id="polygon6753"
         inkscape:connector-curvature="0" />
      <path
         style="fill:none;stroke:#0000ff;stroke-width:0.2;stroke-opacity:1;stroke-miterlimit:4;stroke-dasharray:none"
         d="m 47.062,119.437 0.8,0 0,1 14,0 0,-1 0.8,0 0,-3.1 -0.8,0 0,-5.8 0.8,0 0,-3.1 -0.8,0 0,-1 -14,0 0,1 -0.8,0 0,3.1 0.8,0 0,5.8 -0.8,0 z"
         id="polygon6755"
         inkscape:connector-curvature="0" />
      <path
         style="fill:none;stroke:#0000ff;stroke-width:0.2;stroke-opacity:1;stroke-miterlimit:4;stroke-dasharray:none"
         d="m 66.112,119.437 0.8,0 0,1 14,0 0,-1 0.8,0 0,-3.1 -0.8,0 0,-5.8 0.8,0 0,-3.1 -0.8,0 0,-1 -14,0 0,1 -0.8,0 0,3.1 0.8,0 0,5.8 -0.8,0 z"
         id="polygon6757"
         inkscape:connector-curvature="0" />
      <path
         style="fill:none;stroke:#0000ff;stroke-width:0.2;stroke-opacity:1;stroke-miterlimit:4;stroke-dasharray:none"
         d="m 85.162,119.437 0.8,0 0,1 14,0 0,-1 0.8,0 0,-3.1 -0.8,0 0,-5.8 0.8,0 0,-3.1 -0.8,0 0,-1 -14,0 0,1 -0.8,0 0,3.1 0.8,0 0,5.8 -0.8,0 z"
         id="polygon6759"
         inkscape:connector-curvature="0" />
      <path
         style="fill:none;stroke:#0000ff;stroke-width:0.2;stroke-opacity:1;stroke-miterlimit:4;stroke-dasharray:none"
         d="m 104.212,119.437 0.8,0 0,1 14,0 0,-1 0.8,0 0,-3.1 -0.8,0 0,-5.8 0.8,0 0,-3.1 -0.8,0 0,-1 -14,0 0,1 -0.8,0 0,3.1 0.8,0 0,5.8 -0.8,0 z"
         id="polygon6761"
         inkscape:connector-curvature="0" />
      <path
         style="fill:none;stroke:#0000ff;stroke-width:0.2;stroke-opacity:1;stroke-miterlimit:4;stroke-dasharray:none"
         d="m 123.262,119.437 0.8,0 0,1 14,0 0,-1 0.8,0 0,-3.1 -0.8,0 0,-5.8 0.8,0 0,-3.1 -0.8,0 0,-1 -14,0 0,1 -0.8,0 0,3.1 0.8,0 0,5.8 -0.8,0 z"
         id="polygon6763"
         inkscape:connector-curvature="0" />
      <path
         style="fill:none;stroke:#0000ff;stroke-width:0.2;stroke-opacity:1;stroke-miterlimit:4;stroke-dasharray:none"
         d="m 18.487,100.387 0.8,0 0,1 14,0 0,-1 0.8,0 0,-3.1 -0.8,0 0,-5.8 0.8,0 0,-3.1 -0.8,0 0,-1 -14,0 0,1 -0.8,0 0,3.1 0.8,0 0,5.8 -0.8,0 z"
         id="polygon6765"
         inkscape:connector-curvature="0" />
      <path
         style="fill:none;stroke:#0000ff;stroke-width:0.2;stroke-opacity:1;stroke-miterlimit:4;stroke-dasharray:none"
         d="m 42.3,100.387 0.8,0 0,1 14,0 0,-1 0.8,0 0,-3.1 -0.8,0 0,-5.8 0.8,0 0,-3.1 -0.8,0 0,-1 -14,0 0,1 -0.8,0 0,3.1 0.8,0 0,5.8 -0.8,0 z"
         id="polygon6767"
         inkscape:connector-curvature="0" />
      <path
         style="fill:none;stroke:#0000ff;stroke-width:0.2;stroke-opacity:1;stroke-miterlimit:4;stroke-dasharray:none"
         d="m 61.35,100.387 0.8,0 0,1 14,0 0,-1 0.8,0 0,-3.1 -0.8,0 0,-5.8 0.8,0 0,-3.1 -0.8,0 0,-1 -14,0 0,1 -0.8,0 0,3.1 0.8,0 0,5.8 -0.8,0 z"
         id="polygon6769"
         inkscape:connector-curvature="0" />
      <path
         style="fill:none;stroke:#0000ff;stroke-width:0.2;stroke-opacity:1;stroke-miterlimit:4;stroke-dasharray:none"
         d="m 80.4,100.387 0.8,0 0,1 14,0 0,-1 0.8,0 0,-3.1 -0.8,0 0,-5.8 0.8,0 0,-3.1 -0.8,0 0,-1 -14,0 0,1 -0.8,0 0,3.1 0.8,0 0,5.8 -0.8,0 z"
         id="polygon6771"
         inkscape:connector-curvature="0" />
      <path
         style="fill:none;stroke:#0000ff;stroke-width:0.2;stroke-opacity:1;stroke-miterlimit:4;stroke-dasharray:none"
         d="m 99.45,100.387 0.8,0 0,1 14,0 0,-1 0.8,0 0,-3.1 -0.8,0 0,-5.8 0.8,0 0,-3.1 -0.8,0 0,-1 -14,0 0,1 -0.8,0 0,3.1 0.8,0 0,5.8 -0.8,0 z"
         id="polygon6773"
         inkscape:connector-curvature="0" />
      <path
         style="fill:none;stroke:#0000ff;stroke-width:0.2;stroke-opacity:1;stroke-miterlimit:4;stroke-dasharray:none"
         d="m 118.5,100.387 0.8,0 0,1 14,0 0,-1 0.8,0 0,-3.1 -0.8,0 0,-5.8 0.8,0 0,-3.1 -0.8,0 0,-1 -14,0 0,1 -0.8,0 0,3.1 0.8,0 0,5.8 -0.8,0 z"
         id="polygon6775"
         inkscape:connector-curvature="0" />
      <path
         style="fill:none;stroke:#0000ff;stroke-width:0.2;stroke-opacity:1;stroke-miterlimit:4;stroke-dasharray:none"
         d="m 13.724,81.337 0.8,0 0,1 14.001,0 0,-1 0.8,0 0,-3.1 -0.8,0 0,-5.8 0.8,0 0,-3.1 -0.8,0 0,-1 -14.001,0 0,1 -0.8,0 0,3.1 0.8,0 0,5.8 -0.8,0 z"
         id="polygon6777"
         inkscape:connector-curvature="0" />
      <path
         style="fill:none;stroke:#0000ff;stroke-width:0.2;stroke-opacity:1;stroke-miterlimit:4;stroke-dasharray:none"
         d="m 32.775,81.337 0.8,0 0,1 14,0 0,-1 0.8,0 0,-3.1 -0.8,0 0,-5.8 0.8,0 0,-3.1 -0.8,0 0,-1 -14,0 0,1 -0.8,0 0,3.1 0.8,0 0,5.8 -0.8,0 z"
         id="polygon6779"
         inkscape:connector-curvature="0" />
      <path
         style="fill:none;stroke:#0000ff;stroke-width:0.2;stroke-opacity:1;stroke-miterlimit:4;stroke-dasharray:none"
         d="m 51.825,81.337 0.8,0 0,1 14,0 0,-1 0.8,0 0,-3.1 -0.8,0 0,-5.8 0.8,0 0,-3.1 -0.8,0 0,-1 -14,0 0,1 -0.8,0 0,3.1 0.8,0 0,5.8 -0.8,0 z"
         id="polygon6781"
         inkscape:connector-curvature="0" />
      <path
         style="fill:none;stroke:#0000ff;stroke-width:0.2;stroke-opacity:1;stroke-miterlimit:4;stroke-dasharray:none"
         d="m 70.875,81.337 0.8,0 0,1 14,0 0,-1 0.8,0 0,-3.1 -0.8,0 0,-5.8 0.8,0 0,-3.1 -0.8,0 0,-1 -14,0 0,1 -0.8,0 0,3.1 0.8,0 0,5.8 -0.8,0 z"
         id="polygon6783"
         inkscape:connector-curvature="0" />
      <path
         style="fill:none;stroke:#0000ff;stroke-width:0.2;stroke-opacity:1;stroke-miterlimit:4;stroke-dasharray:none"
         d="m 89.925,81.337 0.8,0 0,1 14,0 0,-1 0.799,0 0,-3.1 -0.799,0 0,-5.8 0.799,0 0,-3.1 -0.799,0 0,-1 -14,0 0,1 -0.8,0 0,3.1 0.8,0 0,5.8 -0.8,0 z"
         id="polygon6785"
         inkscape:connector-curvature="0" />
      <path
         style="fill:none;stroke:#0000ff;stroke-width:0.2;stroke-opacity:1;stroke-miterlimit:4;stroke-dasharray:none"
         d="m 108.975,81.337 0.799,0 0,1 14,0 0,-1 0.8,0 0,-3.1 -0.8,0 0,-5.8 0.8,0 0,-3.1 -0.8,0 0,-1 -14,0 0,1 -0.799,0 0,3.1 0.799,0 0,5.8 -0.799,0 z"
         id="polygon6787"
         inkscape:connector-curvature="0" />
      <path
         style="fill:none;stroke:#0000ff;stroke-width:0.2;stroke-opacity:1;stroke-miterlimit:4;stroke-dasharray:none"
         d="m 128.024,81.337 0.8,0 0,1 14.001,0 0,-1 0.8,0 0,-3.1 -0.8,0 0,-5.8 0.8,0 0,-3.1 -0.8,0 0,-1 -14.001,0 0,1 -0.8,0 0,3.1 0.8,0 0,5.8 -0.8,0 z"
         id="polygon6789"
         inkscape:connector-curvature="0" />
      <path
         style="fill:none;stroke:#0000ff;stroke-width:0.2;stroke-opacity:1;stroke-miterlimit:4;stroke-dasharray:none"
         d="m 13.724,57.525 0.8,0 0,1 14.001,0 0,-1 0.8,0 0,-3.1 -0.8,0 0,-5.8 0.8,0 0,-3.1 -0.8,0 0,-1 -14.001,0 0,1 -0.8,0 0,3.1 0.8,0 0,5.8 -0.8,0 z"
         id="polygon6791"
         inkscape:connector-curvature="0" />
      <path
         style="fill:none;stroke:#0000ff;stroke-width:0.2;stroke-opacity:1;stroke-miterlimit:4;stroke-dasharray:none"
         d="m 37.537,57.525 0.8,0 0,1 14,0 0,-1 0.8,0 0,-3.1 -0.8,0 0,-5.8 0.8,0 0,-3.1 -0.8,0 0,-1 -14,0 0,1 -0.8,0 0,3.1 0.8,0 0,5.8 -0.8,0 z"
         id="polygon6793"
         inkscape:connector-curvature="0" />
      <path
         style="fill:none;stroke:#0000ff;stroke-width:0.2;stroke-opacity:1;stroke-miterlimit:4;stroke-dasharray:none"
         d="m 56.587,57.525 0.8,0 0,1 14,0 0,-1 0.8,0 0,-3.1 -0.8,0 0,-5.8 0.8,0 0,-3.1 -0.8,0 0,-1 -14,0 0,1 -0.8,0 0,3.1 0.8,0 0,5.8 -0.8,0 z"
         id="polygon6795"
         inkscape:connector-curvature="0" />
      <path
         style="fill:none;stroke:#0000ff;stroke-width:0.2;stroke-opacity:1;stroke-miterlimit:4;stroke-dasharray:none"
         d="m 75.637,57.525 0.8,0 0,1 14,0 0,-1 0.8,0 0,-3.1 -0.8,0 0,-5.8 0.8,0 0,-3.1 -0.8,0 0,-1 -14,0 0,1 -0.8,0 0,3.1 0.8,0 0,5.8 -0.8,0 z"
         id="polygon6797"
         inkscape:connector-curvature="0" />
      <path
         style="fill:none;stroke:#0000ff;stroke-width:0.2;stroke-opacity:1;stroke-miterlimit:4;stroke-dasharray:none"
         d="m 94.687,57.525 0.8,0 0,1 14,0 0,-1 0.8,0 0,-3.1 -0.8,0 0,-5.8 0.8,0 0,-3.1 -0.8,0 0,-1 -14,0 0,1 -0.8,0 0,3.1 0.8,0 0,5.8 -0.8,0 z"
         id="polygon6799"
         inkscape:connector-curvature="0" />
      <path
         style="fill:none;stroke:#0000ff;stroke-width:0.2;stroke-opacity:1;stroke-miterlimit:4;stroke-dasharray:none"
         d="m 118.5,57.525 0.8,0 0,1 14,0 0,-1 0.8,0 0,-3.1 -0.8,0 0,-5.8 0.8,0 0,-3.1 -0.8,0 0,-1 -14,0 0,1 -0.8,0 0,3.1 0.8,0 0,5.8 -0.8,0 z"
         id="polygon6801"
         inkscape:connector-curvature="0" />
      <path
         style="fill:none;stroke:#0000ff;stroke-width:0.2;stroke-opacity:1;stroke-miterlimit:4;stroke-dasharray:none"
         d="m 137.549,57.525 0.801,0 0,1 14,0 0,-1 0.8,0 0,-3.1 -0.8,0 0,-5.8 0.8,0 0,-3.1 -0.8,0 0,-1 -14,0 0,1 -0.801,0 0,3.1 0.801,0 0,5.8 -0.801,0 z"
         id="polygon6803"
         inkscape:connector-curvature="0" />
    </g>
  </g>
  <g
     style="display:inline"
     inkscape:label="dills_25_switchplate"
     id="g4657"
     inkscape:groupmode="layer">
    <circle
       r="1.15"
       cy="18.869158"
       cx="15.261563"
       id="circle4659"
       style="opacity:1;fill:none;fill-opacity:1;stroke:#0000ff;stroke-width:0.2;stroke-linejoin:miter;stroke-miterlimit:4;stroke-dasharray:none;stroke-opacity:1" />
    <circle
       r="1.15"
       cy="18.896061"
       cx="151.5213"
       id="use4661"
       style="opacity:1;fill:none;fill-opacity:1;stroke:#0000ff;stroke-width:0.2;stroke-linejoin:miter;stroke-miterlimit:4;stroke-dasharray:none;stroke-opacity:1" />
    <circle
       r="1.15"
       cy="153.95085"
       cx="151.5213"
       id="use4663"
       style="opacity:1;fill:none;fill-opacity:1;stroke:#0000ff;stroke-width:0.2;stroke-linejoin:miter;stroke-miterlimit:4;stroke-dasharray:none;stroke-opacity:1" />
    <circle
       r="1.15"
       cy="115.81725"
       cx="151.5213"
       id="use4665"
       style="opacity:1;fill:none;fill-opacity:1;stroke:#0000ff;stroke-width:0.2;stroke-linejoin:miter;stroke-miterlimit:4;stroke-dasharray:none;stroke-opacity:1" />
    <circle
       style="opacity:1;fill:none;fill-opacity:1;stroke:#0000ff;stroke-width:0.2;stroke-linejoin:miter;stroke-miterlimit:4;stroke-dasharray:none;stroke-opacity:1"
       id="use4667"
       cx="15.255081"
       cy="115.80149"
       r="1.15" />
    <circle
       r="1.15"
       cy="153.95546"
       cx="35.801445"
       id="use4669"
       style="opacity:1;fill:none;fill-opacity:1;stroke:#0000ff;stroke-width:0.2;stroke-linejoin:miter;stroke-miterlimit:4;stroke-dasharray:none;stroke-opacity:1" />
    <circle
       style="opacity:1;fill:none;fill-opacity:1;stroke:#0000ff;stroke-width:0.2;stroke-linejoin:miter;stroke-miterlimit:4;stroke-dasharray:none;stroke-opacity:1"
       id="use4671"
       cx="151.5213"
       cy="65.917877"
       r="1.15" />
    <circle
       r="1.15"
       cy="65.902115"
       cx="15.255083"
       id="use4673"
       style="opacity:1;fill:none;fill-opacity:1;stroke:#0000ff;stroke-width:0.2;stroke-linejoin:miter;stroke-miterlimit:4;stroke-dasharray:none;stroke-opacity:1" />
    <circle
       r="1.15"
       cy="65.917877"
       cx="82.919411"
       id="use4675"
       style="opacity:1;fill:none;fill-opacity:1;stroke:#0000ff;stroke-width:0.2;stroke-linejoin:miter;stroke-miterlimit:4;stroke-dasharray:none;stroke-opacity:1" />
    <circle
       style="opacity:1;fill:none;fill-opacity:1;stroke:#0000ff;stroke-width:0.2;stroke-linejoin:miter;stroke-miterlimit:4;stroke-dasharray:none;stroke-opacity:1"
       id="use4677"
       cx="83.483856"
       cy="146.23158"
       r="1.15" />
  </g>
  <g
     inkscape:groupmode="layer"
     id="layer10"
     inkscape:label="dills_32_faceplate"
     style="display:inline">
    <circle
       style="opacity:1;fill:none;fill-opacity:1;stroke:#0000ff;stroke-width:0.2;stroke-linejoin:miter;stroke-miterlimit:4;stroke-dasharray:none;stroke-opacity:1"
       id="use4579"
       cx="82.919411"
       cy="11.121948"
       r="1.5" />
    <circle
       r="1.5"
       cy="32.182663"
       cx="158.33894"
       id="use4585"
       style="opacity:1;fill:none;fill-opacity:1;stroke:#0000ff;stroke-width:0.2;stroke-linejoin:miter;stroke-miterlimit:4;stroke-dasharray:none;stroke-opacity:1" />
    <use
       x="0"
       y="0"
       xlink:href="#use4585"
       id="use4593"
       transform="translate(0,64.346669)"
       width="100%"
       height="100%"
       style="opacity:1;fill:none;stroke:#0000ff;stroke-opacity:1;stroke-width:0.2;stroke-miterlimit:4;stroke-dasharray:none" />
    <use
       x="0"
       y="0"
       xlink:href="#use4593"
       id="use4599"
       transform="translate(0,50.457537)"
       width="100%"
       height="100%"
       style="opacity:1;fill:none;stroke:#0000ff;stroke-opacity:1;stroke-width:0.2;stroke-miterlimit:4;stroke-dasharray:none" />
    <use
       x="0"
       y="0"
       xlink:href="#use4585"
       id="use4609"
       transform="translate(-149.82253,0)"
       width="100%"
       height="100%"
       style="opacity:1;fill:none;stroke:#0000ff;stroke-opacity:1;stroke-width:0.2;stroke-miterlimit:4;stroke-dasharray:none" />
    <use
       x="0"
       y="0"
       xlink:href="#use4593"
       id="use4611"
       transform="translate(-149.82253,0)"
       width="100%"
       height="100%"
       style="opacity:1;fill:none;stroke:#0000ff;stroke-opacity:1;stroke-width:0.2;stroke-miterlimit:4;stroke-dasharray:none" />
    <use
       x="0"
       y="0"
       xlink:href="#use4599"
       id="use4613"
       transform="translate(-149.82253,0)"
       width="100%"
       height="100%"
       style="opacity:1;fill:none;stroke:#0000ff;stroke-opacity:1;stroke-width:0.2;stroke-miterlimit:4;stroke-dasharray:none" />
    <use
       x="0"
       y="0"
       xlink:href="#use4579"
       id="use4623"
       transform="translate(-51.821269,0)"
       width="100%"
       height="100%"
       style="opacity:1;fill:none;stroke:#0000ff;stroke-opacity:1;stroke-width:0.2;stroke-miterlimit:4;stroke-dasharray:none" />
    <use
       x="0"
       y="0"
       xlink:href="#use4623"
       id="use4629"
       transform="translate(104.65081,0)"
       width="100%"
       height="100%"
       style="opacity:1;fill:none;stroke:#0000ff;stroke-opacity:1;stroke-width:0.2;stroke-miterlimit:4;stroke-dasharray:none" />
    <use
       x="0"
       y="0"
       xlink:href="#use4579"
       id="use4639"
       transform="translate(0.56444445,155.97573)"
       width="100%"
       height="100%"
       style="opacity:1;fill:none;stroke:#0000ff;stroke-opacity:1;stroke-width:0.2;stroke-miterlimit:4;stroke-dasharray:none" />
    <use
       x="0"
       y="0"
       xlink:href="#use4623"
       id="use4641"
       transform="translate(1.2265968e-8,155.97573)"
       width="100%"
       height="100%"
       style="opacity:1;fill:none;stroke:#0000ff;stroke-opacity:1;stroke-width:0.2;stroke-miterlimit:4;stroke-dasharray:none" />
    <use
       x="0"
       y="0"
       xlink:href="#use4629"
       id="use4643"
       transform="translate(0,155.97573)"
       width="100%"
       height="100%"
       style="opacity:1;fill:none;stroke:#0000ff;stroke-opacity:1;stroke-width:0.2;stroke-miterlimit:4;stroke-dasharray:none" />
  </g>
  <g
     inkscape:groupmode="layer"
     id="g4522"
     inkscape:label="matrix_2_plate_cutout"
     style="display:inline">
    <path
       style="opacity:1;fill:none;fill-opacity:1;stroke:#0000ff;stroke-width:0.2;stroke-linejoin:miter;stroke-miterlimit:4;stroke-dasharray:none;stroke-opacity:1"
       d="m 21.966992,15.174027 18.926111,0 -0.03087,3.79892 4.222882,-0.01936 0.03514,-3.779556 35.644748,0 -0.0038,3.943108 4.422531,2e-6 -0.008,-3.943108 35.612636,0 -0.004,3.939284 4.44918,0.01115 -2.1e-4,-3.950428 18.79159,0 0,29.799999 -18.73172,0 -0.0195,-4.198297 -4.53213,0.0084 -0.0115,4.189857 -35.425619,0 -0.0086,-4.172746 -4.618726,-0.01062 -0.0053,4.183329 -35.440661,0 8.18e-4,-4.204265 -4.460801,0.0033 7.25e-4,4.201002 -18.804645,0 z"
       id="rect4524"
       inkscape:connector-curvature="0"
       sodipodi:nodetypes="ccccccccccccccccccccccccccccc" />
  </g>
  <style
     id="style4899"
     type="text/css">
    .keycap .border { stroke: black; stroke-width: 2; }
    .keycap .inner.border { stroke: rgba(0,0,0,.1); }
    </style>
</svg>
