  0
SECTION
  2
HEADER
  9
$ACADVER
  1
AC1009
  9
$EXTMIN
 10
0.0
 20
0.0
 30
0.0
  9
$EXTMAX
 10
1000.0
 20
1000.0
 30
0.0
  9
$FILLMODE
 70
 0
  9
$SPLFRAME
 70
 1
  0
ENDSEC
  0
SECTION
  2
TABLES
  0
TABLE
  2
LAYER
 70
1
  0
LAYER
  2
0
 70
     0
 62
     7
  6
CONTINUOUS
  0
ENDTAB
  0
ENDSEC
  0
SECTION
  2
ENTITIES
  0
LINE
  8
0
 62
     5
 10
154.672
 20
0.108865
 30
0.0
 11
154.475
 21
0.101975
 31
0.0
  0
LINE
  8
0
 62
     5
 10
154.475
 20
0.101975
 30
0.0
 11
2.60036
 21
0.100597
 31
0.0
  0
LINE
  8
0
 62
     5
 10
2.60036
 20
0.100597
 30
0.0
 11
2.40468
 21
0.108865
 31
0.0
  0
LINE
  8
0
 62
     5
 10
2.40468
 20
0.108865
 30
0.0
 11
2.209
 21
0.130914
 31
0.0
  0
LINE
  8
0
 62
     5
 10
2.209
 20
0.130914
 30
0.0
 11
2.01607
 21
0.170877
 31
0.0
  0
LINE
  8
0
 62
     5
 10
2.01607
 20
0.170877
 30
0.0
 11
1.82728
 21
0.223242
 31
0.0
  0
LINE
  8
0
 62
     5
 10
1.82728
 20
0.223242
 30
0.0
 11
1.64262
 21
0.290766
 31
0.0
  0
LINE
  8
0
 62
     5
 10
1.64262
 20
0.290766
 30
0.0
 11
1.46485
 21
0.373447
 31
0.0
  0
LINE
  8
0
 62
     5
 10
1.46485
 20
0.373447
 30
0.0
 11
1.29398
 21
0.469911
 31
0.0
  0
LINE
  8
0
 62
     5
 10
1.29398
 20
0.469911
 30
0.0
 11
1.13137
 21
0.578778
 31
0.0
  0
LINE
  8
0
 62
     5
 10
1.13137
 20
0.578778
 30
0.0
 11
0.975653
 21
0.700045
 31
0.0
  0
LINE
  8
0
 62
     5
 10
0.975653
 20
0.700045
 30
0.0
 11
0.832337
 21
0.833713
 31
0.0
  0
LINE
  8
0
 62
     5
 10
0.832337
 20
0.833713
 30
0.0
 11
0.698666
 21
0.977029
 31
0.0
  0
LINE
  8
0
 62
     5
 10
0.698666
 20
0.977029
 30
0.0
 11
0.577398
 21
1.13137
 31
0.0
  0
LINE
  8
0
 62
     5
 10
0.577398
 20
1.13137
 30
0.0
 11
0.468535
 21
1.29398
 31
0.0
  0
LINE
  8
0
 62
     5
 10
0.468535
 20
1.29398
 30
0.0
 11
0.372071
 21
1.46623
 31
0.0
  0
LINE
  8
0
 62
     5
 10
0.372071
 20
1.46623
 30
0.0
 11
0.289388
 21
1.644
 31
0.0
  0
LINE
  8
0
 62
     5
 10
0.289388
 20
1.644
 30
0.0
 11
0.221864
 21
1.82866
 31
0.0
  0
LINE
  8
0
 62
     5
 10
0.221864
 20
1.82866
 30
0.0
 11
0.169499
 21
2.01745
 31
0.0
  0
LINE
  8
0
 62
     5
 10
0.169499
 20
2.01745
 30
0.0
 11
0.130914
 21
2.209
 31
0.0
  0
LINE
  8
0
 62
     5
 10
0.130914
 20
2.209
 30
0.0
 11
0.107487
 21
2.40468
 31
0.0
  0
LINE
  8
0
 62
     5
 10
0.107487
 20
2.40468
 30
0.0
 11
0.100597
 21
2.60036
 31
0.0
  0
LINE
  8
0
 62
     5
 10
0.100597
 20
2.60036
 30
0.0
 11
0.100597
 21
160.664
 31
0.0
  0
LINE
  8
0
 62
     5
 10
0.100597
 20
160.664
 30
0.0
 11
0.107487
 21
160.86
 31
0.0
  0
LINE
  8
0
 62
     5
 10
0.107487
 20
160.86
 30
0.0
 11
0.130914
 21
161.055
 31
0.0
  0
LINE
  8
0
 62
     5
 10
0.130914
 20
161.055
 30
0.0
 11
0.169499
 21
161.248
 31
0.0
  0
LINE
  8
0
 62
     5
 10
0.169499
 20
161.248
 30
0.0
 11
0.221864
 21
161.437
 31
0.0
  0
LINE
  8
0
 62
     5
 10
0.221864
 20
161.437
 30
0.0
 11
0.289388
 21
161.622
 31
0.0
  0
LINE
  8
0
 62
     5
 10
0.289388
 20
161.622
 30
0.0
 11
0.372071
 21
161.8
 31
0.0
  0
LINE
  8
0
 62
     5
 10
0.372071
 20
161.8
 30
0.0
 11
0.468535
 21
161.971
 31
0.0
  0
LINE
  8
0
 62
     5
 10
0.468535
 20
161.971
 30
0.0
 11
0.577398
 21
162.133
 31
0.0
  0
LINE
  8
0
 62
     5
 10
0.577398
 20
162.133
 30
0.0
 11
0.698666
 21
162.289
 31
0.0
  0
LINE
  8
0
 62
     5
 10
0.698666
 20
162.289
 30
0.0
 11
0.832337
 21
162.432
 31
0.0
  0
LINE
  8
0
 62
     5
 10
0.832337
 20
162.432
 30
0.0
 11
0.975653
 21
162.566
 31
0.0
  0
LINE
  8
0
 62
     5
 10
0.975653
 20
162.566
 30
0.0
 11
1.13137
 21
162.687
 31
0.0
  0
LINE
  8
0
 62
     5
 10
1.13137
 20
162.687
 30
0.0
 11
1.29398
 21
162.796
 31
0.0
  0
LINE
  8
0
 62
     5
 10
1.29398
 20
162.796
 30
0.0
 11
1.46485
 21
162.892
 31
0.0
  0
LINE
  8
0
 62
     5
 10
1.46485
 20
162.892
 30
0.0
 11
1.64262
 21
162.975
 31
0.0
  0
LINE
  8
0
 62
     5
 10
1.64262
 20
162.975
 30
0.0
 11
1.82728
 21
163.043
 31
0.0
  0
LINE
  8
0
 62
     5
 10
1.82728
 20
163.043
 30
0.0
 11
2.01607
 21
163.095
 31
0.0
  0
LINE
  8
0
 62
     5
 10
2.01607
 20
163.095
 30
0.0
 11
2.209
 21
163.134
 31
0.0
  0
LINE
  8
0
 62
     5
 10
2.209
 20
163.134
 30
0.0
 11
2.40468
 21
163.157
 31
0.0
  0
LINE
  8
0
 62
     5
 10
2.40468
 20
163.157
 30
0.0
 11
2.60036
 21
163.164
 31
0.0
  0
LINE
  8
0
 62
     5
 10
2.60036
 20
163.164
 30
0.0
 11
154.475
 21
163.164
 31
0.0
  0
LINE
  8
0
 62
     5
 10
154.475
 20
163.164
 30
0.0
 11
154.672
 21
163.157
 31
0.0
  0
LINE
  8
0
 62
     5
 10
154.672
 20
163.157
 30
0.0
 11
154.867
 21
163.134
 31
0.0
  0
LINE
  8
0
 62
     5
 10
154.867
 20
163.134
 30
0.0
 11
155.06
 21
163.095
 31
0.0
  0
LINE
  8
0
 62
     5
 10
155.06
 20
163.095
 30
0.0
 11
155.248
 21
163.043
 31
0.0
  0
LINE
  8
0
 62
     5
 10
155.248
 20
163.043
 30
0.0
 11
155.433
 21
162.975
 31
0.0
  0
LINE
  8
0
 62
     5
 10
155.433
 20
162.975
 30
0.0
 11
155.611
 21
162.892
 31
0.0
  0
LINE
  8
0
 62
     5
 10
155.611
 20
162.892
 30
0.0
 11
155.782
 21
162.796
 31
0.0
  0
LINE
  8
0
 62
     5
 10
155.782
 20
162.796
 30
0.0
 11
155.944
 21
162.687
 31
0.0
  0
LINE
  8
0
 62
     5
 10
155.944
 20
162.687
 30
0.0
 11
156.1
 21
162.566
 31
0.0
  0
LINE
  8
0
 62
     5
 10
156.1
 20
162.566
 30
0.0
 11
156.244
 21
162.432
 31
0.0
  0
LINE
  8
0
 62
     5
 10
156.244
 20
162.432
 30
0.0
 11
156.377
 21
162.289
 31
0.0
  0
LINE
  8
0
 62
     5
 10
156.377
 20
162.289
 30
0.0
 11
156.5
 21
162.133
 31
0.0
  0
LINE
  8
0
 62
     5
 10
156.5
 20
162.133
 30
0.0
 11
156.609
 21
161.971
 31
0.0
  0
LINE
  8
0
 62
     5
 10
156.609
 20
161.971
 30
0.0
 11
156.704
 21
161.8
 31
0.0
  0
LINE
  8
0
 62
     5
 10
156.704
 20
161.8
 30
0.0
 11
156.786
 21
161.622
 31
0.0
  0
LINE
  8
0
 62
     5
 10
156.786
 20
161.622
 30
0.0
 11
156.854
 21
161.437
 31
0.0
  0
LINE
  8
0
 62
     5
 10
156.854
 20
161.437
 30
0.0
 11
156.907
 21
161.248
 31
0.0
  0
LINE
  8
0
 62
     5
 10
156.907
 20
161.248
 30
0.0
 11
156.945
 21
161.055
 31
0.0
  0
LINE
  8
0
 62
     5
 10
156.945
 20
161.055
 30
0.0
 11
156.968
 21
160.86
 31
0.0
  0
LINE
  8
0
 62
     5
 10
156.968
 20
160.86
 30
0.0
 11
156.977
 21
160.664
 31
0.0
  0
LINE
  8
0
 62
     5
 10
156.977
 20
160.664
 30
0.0
 11
156.977
 21
2.60036
 31
0.0
  0
LINE
  8
0
 62
     5
 10
156.977
 20
2.60036
 30
0.0
 11
156.968
 21
2.40468
 31
0.0
  0
LINE
  8
0
 62
     5
 10
156.968
 20
2.40468
 30
0.0
 11
156.945
 21
2.209
 31
0.0
  0
LINE
  8
0
 62
     5
 10
156.945
 20
2.209
 30
0.0
 11
156.907
 21
2.01745
 31
0.0
  0
LINE
  8
0
 62
     5
 10
156.907
 20
2.01745
 30
0.0
 11
156.854
 21
1.82866
 31
0.0
  0
LINE
  8
0
 62
     5
 10
156.854
 20
1.82866
 30
0.0
 11
156.786
 21
1.644
 31
0.0
  0
LINE
  8
0
 62
     5
 10
156.786
 20
1.644
 30
0.0
 11
156.704
 21
1.46623
 31
0.0
  0
LINE
  8
0
 62
     5
 10
156.704
 20
1.46623
 30
0.0
 11
156.609
 21
1.29398
 31
0.0
  0
LINE
  8
0
 62
     5
 10
156.609
 20
1.29398
 30
0.0
 11
156.5
 21
1.13137
 31
0.0
  0
LINE
  8
0
 62
     5
 10
156.5
 20
1.13137
 30
0.0
 11
156.377
 21
0.977029
 31
0.0
  0
LINE
  8
0
 62
     5
 10
156.377
 20
0.977029
 30
0.0
 11
156.244
 21
0.833713
 31
0.0
  0
LINE
  8
0
 62
     5
 10
156.244
 20
0.833713
 30
0.0
 11
156.1
 21
0.700045
 31
0.0
  0
LINE
  8
0
 62
     5
 10
156.1
 20
0.700045
 30
0.0
 11
155.944
 21
0.578778
 31
0.0
  0
LINE
  8
0
 62
     5
 10
155.944
 20
0.578778
 30
0.0
 11
155.782
 21
0.469911
 31
0.0
  0
LINE
  8
0
 62
     5
 10
155.782
 20
0.469911
 30
0.0
 11
155.611
 21
0.373447
 31
0.0
  0
LINE
  8
0
 62
     5
 10
155.611
 20
0.373447
 30
0.0
 11
155.433
 21
0.290766
 31
0.0
  0
LINE
  8
0
 62
     5
 10
155.433
 20
0.290766
 30
0.0
 11
155.248
 21
0.223242
 31
0.0
  0
LINE
  8
0
 62
     5
 10
155.248
 20
0.223242
 30
0.0
 11
155.06
 21
0.170877
 31
0.0
  0
LINE
  8
0
 62
     5
 10
155.06
 20
0.170877
 30
0.0
 11
154.867
 21
0.130914
 31
0.0
  0
LINE
  8
0
 62
     5
 10
154.867
 20
0.130914
 30
0.0
 11
154.672
 21
0.108865
 31
0.0
  0
LINE
  8
0
 62
     5
 10
79.5196
 20
159.542
 30
0.0
 11
79.4011
 21
158.96
 31
0.0
  0
LINE
  8
0
 62
     5
 10
79.4011
 20
158.96
 30
0.0
 11
79.0801
 21
158.483
 31
0.0
  0
LINE
  8
0
 62
     5
 10
79.0801
 20
158.483
 30
0.0
 11
78.6035
 21
158.16
 31
0.0
  0
LINE
  8
0
 62
     5
 10
78.6035
 20
158.16
 30
0.0
 11
78.0203
 21
158.042
 31
0.0
  0
LINE
  8
0
 62
     5
 10
78.0203
 20
158.042
 30
0.0
 11
77.4347
 21
158.16
 31
0.0
  0
LINE
  8
0
 62
     5
 10
77.4347
 20
158.16
 30
0.0
 11
76.9578
 21
158.483
 31
0.0
  0
LINE
  8
0
 62
     5
 10
76.9578
 20
158.483
 30
0.0
 11
76.6367
 21
158.96
 31
0.0
  0
LINE
  8
0
 62
     5
 10
76.6367
 20
158.96
 30
0.0
 11
76.5196
 21
159.542
 31
0.0
  0
LINE
  8
0
 62
     5
 10
76.5196
 20
159.542
 30
0.0
 11
76.6367
 21
160.127
 31
0.0
  0
LINE
  8
0
 62
     5
 10
76.6367
 20
160.127
 30
0.0
 11
76.9578
 21
160.603
 31
0.0
  0
LINE
  8
0
 62
     5
 10
76.9578
 20
160.603
 30
0.0
 11
77.4347
 21
160.925
 31
0.0
  0
LINE
  8
0
 62
     5
 10
77.4347
 20
160.925
 30
0.0
 11
78.0203
 21
161.042
 31
0.0
  0
LINE
  8
0
 62
     5
 10
78.0203
 20
161.042
 30
0.0
 11
78.6035
 21
160.925
 31
0.0
  0
LINE
  8
0
 62
     5
 10
78.6035
 20
160.925
 30
0.0
 11
79.0801
 21
160.603
 31
0.0
  0
LINE
  8
0
 62
     5
 10
79.0801
 20
160.603
 30
0.0
 11
79.4011
 21
160.127
 31
0.0
  0
LINE
  8
0
 62
     5
 10
79.4011
 20
160.127
 30
0.0
 11
79.5196
 21
159.542
 31
0.0
  0
LINE
  8
0
 62
     5
 10
154.94
 20
138.482
 30
0.0
 11
154.821
 21
137.898
 31
0.0
  0
LINE
  8
0
 62
     5
 10
154.821
 20
137.898
 30
0.0
 11
154.499
 21
137.421
 31
0.0
  0
LINE
  8
0
 62
     5
 10
154.499
 20
137.421
 30
0.0
 11
154.022
 21
137.1
 31
0.0
  0
LINE
  8
0
 62
     5
 10
154.022
 20
137.1
 30
0.0
 11
153.439
 21
136.981
 31
0.0
  0
LINE
  8
0
 62
     5
 10
153.439
 20
136.981
 30
0.0
 11
152.855
 21
137.1
 31
0.0
  0
LINE
  8
0
 62
     5
 10
152.855
 20
137.1
 30
0.0
 11
152.378
 21
137.421
 31
0.0
  0
LINE
  8
0
 62
     5
 10
152.378
 20
137.421
 30
0.0
 11
152.057
 21
137.898
 31
0.0
  0
LINE
  8
0
 62
     5
 10
152.057
 20
137.898
 30
0.0
 11
151.94
 21
138.482
 31
0.0
  0
LINE
  8
0
 62
     5
 10
151.94
 20
138.482
 30
0.0
 11
152.057
 21
139.066
 31
0.0
  0
LINE
  8
0
 62
     5
 10
152.057
 20
139.066
 30
0.0
 11
152.378
 21
139.543
 31
0.0
  0
LINE
  8
0
 62
     5
 10
152.378
 20
139.543
 30
0.0
 11
152.855
 21
139.864
 31
0.0
  0
LINE
  8
0
 62
     5
 10
152.855
 20
139.864
 30
0.0
 11
153.439
 21
139.981
 31
0.0
  0
LINE
  8
0
 62
     5
 10
153.439
 20
139.981
 30
0.0
 11
154.022
 21
139.864
 31
0.0
  0
LINE
  8
0
 62
     5
 10
154.022
 20
139.864
 30
0.0
 11
154.499
 21
139.543
 31
0.0
  0
LINE
  8
0
 62
     5
 10
154.499
 20
139.543
 30
0.0
 11
154.821
 21
139.066
 31
0.0
  0
LINE
  8
0
 62
     5
 10
154.821
 20
139.066
 30
0.0
 11
154.94
 21
138.482
 31
0.0
  0
LINE
  8
0
 62
     5
 10
154.94
 20
74.1345
 30
0.0
 11
154.821
 21
73.5513
 31
0.0
  0
LINE
  8
0
 62
     5
 10
154.821
 20
73.5513
 30
0.0
 11
154.499
 21
73.0747
 31
0.0
  0
LINE
  8
0
 62
     5
 10
154.499
 20
73.0747
 30
0.0
 11
154.022
 21
72.7534
 31
0.0
  0
LINE
  8
0
 62
     5
 10
154.022
 20
72.7534
 30
0.0
 11
153.439
 21
72.6352
 31
0.0
  0
LINE
  8
0
 62
     5
 10
153.439
 20
72.6352
 30
0.0
 11
152.855
 21
72.7534
 31
0.0
  0
LINE
  8
0
 62
     5
 10
152.855
 20
72.7534
 30
0.0
 11
152.378
 21
73.0747
 31
0.0
  0
LINE
  8
0
 62
     5
 10
152.378
 20
73.0747
 30
0.0
 11
152.057
 21
73.5513
 31
0.0
  0
LINE
  8
0
 62
     5
 10
152.057
 20
73.5513
 30
0.0
 11
151.94
 21
74.1345
 31
0.0
  0
LINE
  8
0
 62
     5
 10
151.94
 20
74.1345
 30
0.0
 11
152.057
 21
74.7187
 31
0.0
  0
LINE
  8
0
 62
     5
 10
152.057
 20
74.7187
 30
0.0
 11
152.378
 21
75.1953
 31
0.0
  0
LINE
  8
0
 62
     5
 10
152.378
 20
75.1953
 30
0.0
 11
152.855
 21
75.5177
 31
0.0
  0
LINE
  8
0
 62
     5
 10
152.855
 20
75.5177
 30
0.0
 11
153.439
 21
75.6348
 31
0.0
  0
LINE
  8
0
 62
     5
 10
153.439
 20
75.6348
 30
0.0
 11
154.022
 21
75.5177
 31
0.0
  0
LINE
  8
0
 62
     5
 10
154.022
 20
75.5177
 30
0.0
 11
154.499
 21
75.1953
 31
0.0
  0
LINE
  8
0
 62
     5
 10
154.499
 20
75.1953
 30
0.0
 11
154.821
 21
74.7187
 31
0.0
  0
LINE
  8
0
 62
     5
 10
154.821
 20
74.7187
 30
0.0
 11
154.94
 21
74.1345
 31
0.0
  0
LINE
  8
0
 62
     5
 10
154.94
 20
23.6775
 30
0.0
 11
154.821
 21
23.0945
 31
0.0
  0
LINE
  8
0
 62
     5
 10
154.821
 20
23.0945
 30
0.0
 11
154.499
 21
22.6177
 31
0.0
  0
LINE
  8
0
 62
     5
 10
154.499
 20
22.6177
 30
0.0
 11
154.022
 21
22.2953
 31
0.0
  0
LINE
  8
0
 62
     5
 10
154.022
 20
22.2953
 30
0.0
 11
153.439
 21
22.1768
 31
0.0
  0
LINE
  8
0
 62
     5
 10
153.439
 20
22.1768
 30
0.0
 11
152.855
 21
22.2953
 31
0.0
  0
LINE
  8
0
 62
     5
 10
152.855
 20
22.2953
 30
0.0
 11
152.378
 21
22.6177
 31
0.0
  0
LINE
  8
0
 62
     5
 10
152.378
 20
22.6177
 30
0.0
 11
152.057
 21
23.0945
 31
0.0
  0
LINE
  8
0
 62
     5
 10
152.057
 20
23.0945
 30
0.0
 11
151.94
 21
23.6775
 31
0.0
  0
LINE
  8
0
 62
     5
 10
151.94
 20
23.6775
 30
0.0
 11
152.057
 21
24.2617
 31
0.0
  0
LINE
  8
0
 62
     5
 10
152.057
 20
24.2617
 30
0.0
 11
152.378
 21
24.7385
 31
0.0
  0
LINE
  8
0
 62
     5
 10
152.378
 20
24.7385
 30
0.0
 11
152.855
 21
25.0596
 31
0.0
  0
LINE
  8
0
 62
     5
 10
152.855
 20
25.0596
 30
0.0
 11
153.439
 21
25.1768
 31
0.0
  0
LINE
  8
0
 62
     5
 10
153.439
 20
25.1768
 30
0.0
 11
154.022
 21
25.0596
 31
0.0
  0
LINE
  8
0
 62
     5
 10
154.022
 20
25.0596
 30
0.0
 11
154.499
 21
24.7385
 31
0.0
  0
LINE
  8
0
 62
     5
 10
154.499
 20
24.7385
 30
0.0
 11
154.821
 21
24.2617
 31
0.0
  0
LINE
  8
0
 62
     5
 10
154.821
 20
24.2617
 30
0.0
 11
154.94
 21
23.6775
 31
0.0
  0
LINE
  8
0
 62
     5
 10
5.11665
 20
138.482
 30
0.0
 11
4.99816
 21
137.898
 31
0.0
  0
LINE
  8
0
 62
     5
 10
4.99816
 20
137.898
 30
0.0
 11
4.67706
 21
137.421
 31
0.0
  0
LINE
  8
0
 62
     5
 10
4.67706
 20
137.421
 30
0.0
 11
4.20028
 21
137.1
 31
0.0
  0
LINE
  8
0
 62
     5
 10
4.20028
 20
137.1
 30
0.0
 11
3.61735
 21
136.981
 31
0.0
  0
LINE
  8
0
 62
     5
 10
3.61735
 20
136.981
 30
0.0
 11
3.03306
 21
137.1
 31
0.0
  0
LINE
  8
0
 62
     5
 10
3.03306
 20
137.1
 30
0.0
 11
2.55626
 21
137.421
 31
0.0
  0
LINE
  8
0
 62
     5
 10
2.55626
 20
137.421
 30
0.0
 11
2.2338
 21
137.898
 31
0.0
  0
LINE
  8
0
 62
     5
 10
2.2338
 20
137.898
 30
0.0
 11
2.11667
 21
138.482
 31
0.0
  0
LINE
  8
0
 62
     5
 10
2.11667
 20
138.482
 30
0.0
 11
2.2338
 21
139.066
 31
0.0
  0
LINE
  8
0
 62
     5
 10
2.2338
 20
139.066
 30
0.0
 11
2.55626
 21
139.543
 31
0.0
  0
LINE
  8
0
 62
     5
 10
2.55626
 20
139.543
 30
0.0
 11
3.03306
 21
139.864
 31
0.0
  0
LINE
  8
0
 62
     5
 10
3.03306
 20
139.864
 30
0.0
 11
3.61735
 21
139.981
 31
0.0
  0
LINE
  8
0
 62
     5
 10
3.61735
 20
139.981
 30
0.0
 11
4.20028
 21
139.864
 31
0.0
  0
LINE
  8
0
 62
     5
 10
4.20028
 20
139.864
 30
0.0
 11
4.67706
 21
139.543
 31
0.0
  0
LINE
  8
0
 62
     5
 10
4.67706
 20
139.543
 30
0.0
 11
4.99816
 21
139.066
 31
0.0
  0
LINE
  8
0
 62
     5
 10
4.99816
 20
139.066
 30
0.0
 11
5.11665
 21
138.482
 31
0.0
  0
LINE
  8
0
 62
     5
 10
5.11665
 20
74.1345
 30
0.0
 11
4.99816
 21
73.5513
 31
0.0
  0
LINE
  8
0
 62
     5
 10
4.99816
 20
73.5513
 30
0.0
 11
4.67706
 21
73.0747
 31
0.0
  0
LINE
  8
0
 62
     5
 10
4.67706
 20
73.0747
 30
0.0
 11
4.20028
 21
72.7534
 31
0.0
  0
LINE
  8
0
 62
     5
 10
4.20028
 20
72.7534
 30
0.0
 11
3.61735
 21
72.6352
 31
0.0
  0
LINE
  8
0
 62
     5
 10
3.61735
 20
72.6352
 30
0.0
 11
3.03306
 21
72.7534
 31
0.0
  0
LINE
  8
0
 62
     5
 10
3.03306
 20
72.7534
 30
0.0
 11
2.55626
 21
73.0747
 31
0.0
  0
LINE
  8
0
 62
     5
 10
2.55626
 20
73.0747
 30
0.0
 11
2.2338
 21
73.5513
 31
0.0
  0
LINE
  8
0
 62
     5
 10
2.2338
 20
73.5513
 30
0.0
 11
2.11667
 21
74.1345
 31
0.0
  0
LINE
  8
0
 62
     5
 10
2.11667
 20
74.1345
 30
0.0
 11
2.2338
 21
74.7187
 31
0.0
  0
LINE
  8
0
 62
     5
 10
2.2338
 20
74.7187
 30
0.0
 11
2.55626
 21
75.1953
 31
0.0
  0
LINE
  8
0
 62
     5
 10
2.55626
 20
75.1953
 30
0.0
 11
3.03306
 21
75.5177
 31
0.0
  0
LINE
  8
0
 62
     5
 10
3.03306
 20
75.5177
 30
0.0
 11
3.61735
 21
75.6348
 31
0.0
  0
LINE
  8
0
 62
     5
 10
3.61735
 20
75.6348
 30
0.0
 11
4.20028
 21
75.5177
 31
0.0
  0
LINE
  8
0
 62
     5
 10
4.20028
 20
75.5177
 30
0.0
 11
4.67706
 21
75.1953
 31
0.0
  0
LINE
  8
0
 62
     5
 10
4.67706
 20
75.1953
 30
0.0
 11
4.99816
 21
74.7187
 31
0.0
  0
LINE
  8
0
 62
     5
 10
4.99816
 20
74.7187
 30
0.0
 11
5.11665
 21
74.1345
 31
0.0
  0
LINE
  8
0
 62
     5
 10
5.11665
 20
23.6775
 30
0.0
 11
4.99816
 21
23.0945
 31
0.0
  0
LINE
  8
0
 62
     5
 10
4.99816
 20
23.0945
 30
0.0
 11
4.67706
 21
22.6177
 31
0.0
  0
LINE
  8
0
 62
     5
 10
4.67706
 20
22.6177
 30
0.0
 11
4.20028
 21
22.2953
 31
0.0
  0
LINE
  8
0
 62
     5
 10
4.20028
 20
22.2953
 30
0.0
 11
3.61735
 21
22.1768
 31
0.0
  0
LINE
  8
0
 62
     5
 10
3.61735
 20
22.1768
 30
0.0
 11
3.03306
 21
22.2953
 31
0.0
  0
LINE
  8
0
 62
     5
 10
3.03306
 20
22.2953
 30
0.0
 11
2.55626
 21
22.6177
 31
0.0
  0
LINE
  8
0
 62
     5
 10
2.55626
 20
22.6177
 30
0.0
 11
2.2338
 21
23.0945
 31
0.0
  0
LINE
  8
0
 62
     5
 10
2.2338
 20
23.0945
 30
0.0
 11
2.11667
 21
23.6775
 31
0.0
  0
LINE
  8
0
 62
     5
 10
2.11667
 20
23.6775
 30
0.0
 11
2.2338
 21
24.2617
 31
0.0
  0
LINE
  8
0
 62
     5
 10
2.2338
 20
24.2617
 30
0.0
 11
2.55626
 21
24.7385
 31
0.0
  0
LINE
  8
0
 62
     5
 10
2.55626
 20
24.7385
 30
0.0
 11
3.03306
 21
25.0596
 31
0.0
  0
LINE
  8
0
 62
     5
 10
3.03306
 20
25.0596
 30
0.0
 11
3.61735
 21
25.1768
 31
0.0
  0
LINE
  8
0
 62
     5
 10
3.61735
 20
25.1768
 30
0.0
 11
4.20028
 21
25.0596
 31
0.0
  0
LINE
  8
0
 62
     5
 10
4.20028
 20
25.0596
 30
0.0
 11
4.67706
 21
24.7385
 31
0.0
  0
LINE
  8
0
 62
     5
 10
4.67706
 20
24.7385
 30
0.0
 11
4.99816
 21
24.2617
 31
0.0
  0
LINE
  8
0
 62
     5
 10
4.99816
 20
24.2617
 30
0.0
 11
5.11665
 21
23.6775
 31
0.0
  0
LINE
  8
0
 62
     5
 10
27.6986
 20
159.542
 30
0.0
 11
27.5801
 21
158.96
 31
0.0
  0
LINE
  8
0
 62
     5
 10
27.5801
 20
158.96
 30
0.0
 11
27.259
 21
158.483
 31
0.0
  0
LINE
  8
0
 62
     5
 10
27.259
 20
158.483
 30
0.0
 11
26.7822
 21
158.16
 31
0.0
  0
LINE
  8
0
 62
     5
 10
26.7822
 20
158.16
 30
0.0
 11
26.1993
 21
158.042
 31
0.0
  0
LINE
  8
0
 62
     5
 10
26.1993
 20
158.042
 30
0.0
 11
25.6136
 21
158.16
 31
0.0
  0
LINE
  8
0
 62
     5
 10
25.6136
 20
158.16
 30
0.0
 11
25.1368
 21
158.483
 31
0.0
  0
LINE
  8
0
 62
     5
 10
25.1368
 20
158.483
 30
0.0
 11
24.8157
 21
158.96
 31
0.0
  0
LINE
  8
0
 62
     5
 10
24.8157
 20
158.96
 30
0.0
 11
24.6986
 21
159.542
 31
0.0
  0
LINE
  8
0
 62
     5
 10
24.6986
 20
159.542
 30
0.0
 11
24.8157
 21
160.127
 31
0.0
  0
LINE
  8
0
 62
     5
 10
24.8157
 20
160.127
 30
0.0
 11
25.1368
 21
160.603
 31
0.0
  0
LINE
  8
0
 62
     5
 10
25.1368
 20
160.603
 30
0.0
 11
25.6136
 21
160.925
 31
0.0
  0
LINE
  8
0
 62
     5
 10
25.6136
 20
160.925
 30
0.0
 11
26.1993
 21
161.042
 31
0.0
  0
LINE
  8
0
 62
     5
 10
26.1993
 20
161.042
 30
0.0
 11
26.7822
 21
160.925
 31
0.0
  0
LINE
  8
0
 62
     5
 10
26.7822
 20
160.925
 30
0.0
 11
27.259
 21
160.603
 31
0.0
  0
LINE
  8
0
 62
     5
 10
27.259
 20
160.603
 30
0.0
 11
27.5801
 21
160.127
 31
0.0
  0
LINE
  8
0
 62
     5
 10
27.5801
 20
160.127
 30
0.0
 11
27.6986
 21
159.542
 31
0.0
  0
LINE
  8
0
 62
     5
 10
132.35
 20
159.542
 30
0.0
 11
132.231
 21
158.96
 31
0.0
  0
LINE
  8
0
 62
     5
 10
132.231
 20
158.96
 30
0.0
 11
131.91
 21
158.483
 31
0.0
  0
LINE
  8
0
 62
     5
 10
131.91
 20
158.483
 30
0.0
 11
131.433
 21
158.16
 31
0.0
  0
LINE
  8
0
 62
     5
 10
131.433
 20
158.16
 30
0.0
 11
130.849
 21
158.042
 31
0.0
  0
LINE
  8
0
 62
     5
 10
130.849
 20
158.042
 30
0.0
 11
130.265
 21
158.16
 31
0.0
  0
LINE
  8
0
 62
     5
 10
130.265
 20
158.16
 30
0.0
 11
129.788
 21
158.483
 31
0.0
  0
LINE
  8
0
 62
     5
 10
129.788
 20
158.483
 30
0.0
 11
129.467
 21
158.96
 31
0.0
  0
LINE
  8
0
 62
     5
 10
129.467
 20
158.96
 30
0.0
 11
129.35
 21
159.542
 31
0.0
  0
LINE
  8
0
 62
     5
 10
129.35
 20
159.542
 30
0.0
 11
129.467
 21
160.127
 31
0.0
  0
LINE
  8
0
 62
     5
 10
129.467
 20
160.127
 30
0.0
 11
129.788
 21
160.603
 31
0.0
  0
LINE
  8
0
 62
     5
 10
129.788
 20
160.603
 30
0.0
 11
130.265
 21
160.925
 31
0.0
  0
LINE
  8
0
 62
     5
 10
130.265
 20
160.925
 30
0.0
 11
130.849
 21
161.042
 31
0.0
  0
LINE
  8
0
 62
     5
 10
130.849
 20
161.042
 30
0.0
 11
131.433
 21
160.925
 31
0.0
  0
LINE
  8
0
 62
     5
 10
131.433
 20
160.925
 30
0.0
 11
131.91
 21
160.603
 31
0.0
  0
LINE
  8
0
 62
     5
 10
131.91
 20
160.603
 30
0.0
 11
132.231
 21
160.127
 31
0.0
  0
LINE
  8
0
 62
     5
 10
132.231
 20
160.127
 30
0.0
 11
132.35
 21
159.542
 31
0.0
  0
LINE
  8
0
 62
     5
 10
80.0848
 20
3.56637
 30
0.0
 11
79.9663
 21
2.98345
 31
0.0
  0
LINE
  8
0
 62
     5
 10
79.9663
 20
2.98345
 30
0.0
 11
79.6438
 21
2.50665
 31
0.0
  0
LINE
  8
0
 62
     5
 10
79.6438
 20
2.50665
 30
0.0
 11
79.1669
 21
2.18419
 31
0.0
  0
LINE
  8
0
 62
     5
 10
79.1669
 20
2.18419
 30
0.0
 11
78.5841
 21
2.06568
 31
0.0
  0
LINE
  8
0
 62
     5
 10
78.5841
 20
2.06568
 30
0.0
 11
77.9999
 21
2.18419
 31
0.0
  0
LINE
  8
0
 62
     5
 10
77.9999
 20
2.18419
 30
0.0
 11
77.5229
 21
2.50665
 31
0.0
  0
LINE
  8
0
 62
     5
 10
77.5229
 20
2.50665
 30
0.0
 11
77.2019
 21
2.98345
 31
0.0
  0
LINE
  8
0
 62
     5
 10
77.2019
 20
2.98345
 30
0.0
 11
77.0848
 21
3.56637
 31
0.0
  0
LINE
  8
0
 62
     5
 10
77.0848
 20
3.56637
 30
0.0
 11
77.2019
 21
4.15064
 31
0.0
  0
LINE
  8
0
 62
     5
 10
77.2019
 20
4.15064
 30
0.0
 11
77.5229
 21
4.62746
 31
0.0
  0
LINE
  8
0
 62
     5
 10
77.5229
 20
4.62746
 30
0.0
 11
77.9999
 21
4.94852
 31
0.0
  0
LINE
  8
0
 62
     5
 10
77.9999
 20
4.94852
 30
0.0
 11
78.5841
 21
5.06568
 31
0.0
  0
LINE
  8
0
 62
     5
 10
78.5841
 20
5.06568
 30
0.0
 11
79.1669
 21
4.94852
 31
0.0
  0
LINE
  8
0
 62
     5
 10
79.1669
 20
4.94852
 30
0.0
 11
79.6438
 21
4.62746
 31
0.0
  0
LINE
  8
0
 62
     5
 10
79.6438
 20
4.62746
 30
0.0
 11
79.9663
 21
4.15064
 31
0.0
  0
LINE
  8
0
 62
     5
 10
79.9663
 20
4.15064
 30
0.0
 11
80.0848
 21
3.56637
 31
0.0
  0
LINE
  8
0
 62
     5
 10
27.6986
 20
3.56637
 30
0.0
 11
27.5801
 21
2.98345
 31
0.0
  0
LINE
  8
0
 62
     5
 10
27.5801
 20
2.98345
 30
0.0
 11
27.259
 21
2.50665
 31
0.0
  0
LINE
  8
0
 62
     5
 10
27.259
 20
2.50665
 30
0.0
 11
26.7822
 21
2.18419
 31
0.0
  0
LINE
  8
0
 62
     5
 10
26.7822
 20
2.18419
 30
0.0
 11
26.1993
 21
2.06568
 31
0.0
  0
LINE
  8
0
 62
     5
 10
26.1993
 20
2.06568
 30
0.0
 11
25.6136
 21
2.18419
 31
0.0
  0
LINE
  8
0
 62
     5
 10
25.6136
 20
2.18419
 30
0.0
 11
25.1368
 21
2.50665
 31
0.0
  0
LINE
  8
0
 62
     5
 10
25.1368
 20
2.50665
 30
0.0
 11
24.8157
 21
2.98345
 31
0.0
  0
LINE
  8
0
 62
     5
 10
24.8157
 20
2.98345
 30
0.0
 11
24.6986
 21
3.56637
 31
0.0
  0
LINE
  8
0
 62
     5
 10
24.6986
 20
3.56637
 30
0.0
 11
24.8157
 21
4.15064
 31
0.0
  0
LINE
  8
0
 62
     5
 10
24.8157
 20
4.15064
 30
0.0
 11
25.1368
 21
4.62746
 31
0.0
  0
LINE
  8
0
 62
     5
 10
25.1368
 20
4.62746
 30
0.0
 11
25.6136
 21
4.94852
 31
0.0
  0
LINE
  8
0
 62
     5
 10
25.6136
 20
4.94852
 30
0.0
 11
26.1993
 21
5.06568
 31
0.0
  0
LINE
  8
0
 62
     5
 10
26.1993
 20
5.06568
 30
0.0
 11
26.7822
 21
4.94852
 31
0.0
  0
LINE
  8
0
 62
     5
 10
26.7822
 20
4.94852
 30
0.0
 11
27.259
 21
4.62746
 31
0.0
  0
LINE
  8
0
 62
     5
 10
27.259
 20
4.62746
 30
0.0
 11
27.5801
 21
4.15064
 31
0.0
  0
LINE
  8
0
 62
     5
 10
27.5801
 20
4.15064
 30
0.0
 11
27.6986
 21
3.56637
 31
0.0
  0
LINE
  8
0
 62
     5
 10
132.35
 20
3.56637
 30
0.0
 11
132.231
 21
2.98345
 31
0.0
  0
LINE
  8
0
 62
     5
 10
132.231
 20
2.98345
 30
0.0
 11
131.91
 21
2.50665
 31
0.0
  0
LINE
  8
0
 62
     5
 10
131.91
 20
2.50665
 30
0.0
 11
131.433
 21
2.18419
 31
0.0
  0
LINE
  8
0
 62
     5
 10
131.433
 20
2.18419
 30
0.0
 11
130.849
 21
2.06568
 31
0.0
  0
LINE
  8
0
 62
     5
 10
130.849
 20
2.06568
 30
0.0
 11
130.265
 21
2.18419
 31
0.0
  0
LINE
  8
0
 62
     5
 10
130.265
 20
2.18419
 30
0.0
 11
129.788
 21
2.50665
 31
0.0
  0
LINE
  8
0
 62
     5
 10
129.788
 20
2.50665
 30
0.0
 11
129.467
 21
2.98345
 31
0.0
  0
LINE
  8
0
 62
     5
 10
129.467
 20
2.98345
 30
0.0
 11
129.35
 21
3.56637
 31
0.0
  0
LINE
  8
0
 62
     5
 10
129.35
 20
3.56637
 30
0.0
 11
129.467
 21
4.15064
 31
0.0
  0
LINE
  8
0
 62
     5
 10
129.467
 20
4.15064
 30
0.0
 11
129.788
 21
4.62746
 31
0.0
  0
LINE
  8
0
 62
     5
 10
129.788
 20
4.62746
 30
0.0
 11
130.265
 21
4.94852
 31
0.0
  0
LINE
  8
0
 62
     5
 10
130.265
 20
4.94852
 30
0.0
 11
130.849
 21
5.06568
 31
0.0
  0
LINE
  8
0
 62
     5
 10
130.849
 20
5.06568
 30
0.0
 11
131.433
 21
4.94852
 31
0.0
  0
LINE
  8
0
 62
     5
 10
131.433
 20
4.94852
 30
0.0
 11
131.91
 21
4.62746
 31
0.0
  0
LINE
  8
0
 62
     5
 10
131.91
 20
4.62746
 30
0.0
 11
132.231
 21
4.15064
 31
0.0
  0
LINE
  8
0
 62
     5
 10
132.231
 20
4.15064
 30
0.0
 11
132.35
 21
3.56637
 31
0.0
  0
LINE
  8
0
 62
     5
 10
11.8622
 20
151.795
 30
0.0
 11
11.7437
 21
151.212
 31
0.0
  0
LINE
  8
0
 62
     5
 10
11.7437
 20
151.212
 30
0.0
 11
11.4226
 21
150.735
 31
0.0
  0
LINE
  8
0
 62
     5
 10
11.4226
 20
150.735
 30
0.0
 11
10.9457
 21
150.413
 31
0.0
  0
LINE
  8
0
 62
     5
 10
10.9457
 20
150.413
 30
0.0
 11
10.3615
 21
150.294
 31
0.0
  0
LINE
  8
0
 62
     5
 10
10.3615
 20
150.294
 30
0.0
 11
9.77717
 21
150.413
 31
0.0
  0
LINE
  8
0
 62
     5
 10
9.77717
 20
150.413
 30
0.0
 11
9.30039
 21
150.735
 31
0.0
  0
LINE
  8
0
 62
     5
 10
9.30039
 20
150.735
 30
0.0
 11
8.97929
 21
151.212
 31
0.0
  0
LINE
  8
0
 62
     5
 10
8.97929
 20
151.212
 30
0.0
 11
8.86217
 21
151.795
 31
0.0
  0
LINE
  8
0
 62
     5
 10
8.86217
 20
151.795
 30
0.0
 11
8.97929
 21
152.379
 31
0.0
  0
LINE
  8
0
 62
     5
 10
8.97929
 20
152.379
 30
0.0
 11
9.30039
 21
152.856
 31
0.0
  0
LINE
  8
0
 62
     5
 10
9.30039
 20
152.856
 30
0.0
 11
9.77717
 21
153.177
 31
0.0
  0
LINE
  8
0
 62
     5
 10
9.77717
 20
153.177
 30
0.0
 11
10.3615
 21
153.294
 31
0.0
  0
LINE
  8
0
 62
     5
 10
10.3615
 20
153.294
 30
0.0
 11
10.9457
 21
153.177
 31
0.0
  0
LINE
  8
0
 62
     5
 10
10.9457
 20
153.177
 30
0.0
 11
11.4226
 21
152.856
 31
0.0
  0
LINE
  8
0
 62
     5
 10
11.4226
 20
152.856
 30
0.0
 11
11.7437
 21
152.379
 31
0.0
  0
LINE
  8
0
 62
     5
 10
11.7437
 20
152.379
 30
0.0
 11
11.8622
 21
151.795
 31
0.0
  0
LINE
  8
0
 62
     5
 10
148.121
 20
151.767
 30
0.0
 11
148.003
 21
151.185
 31
0.0
  0
LINE
  8
0
 62
     5
 10
148.003
 20
151.185
 30
0.0
 11
147.682
 21
150.708
 31
0.0
  0
LINE
  8
0
 62
     5
 10
147.682
 20
150.708
 30
0.0
 11
147.205
 21
150.387
 31
0.0
  0
LINE
  8
0
 62
     5
 10
147.205
 20
150.387
 30
0.0
 11
146.622
 21
150.268
 31
0.0
  0
LINE
  8
0
 62
     5
 10
146.622
 20
150.268
 30
0.0
 11
146.038
 21
150.387
 31
0.0
  0
LINE
  8
0
 62
     5
 10
146.038
 20
150.387
 30
0.0
 11
145.561
 21
150.708
 31
0.0
  0
LINE
  8
0
 62
     5
 10
145.561
 20
150.708
 30
0.0
 11
145.238
 21
151.185
 31
0.0
  0
LINE
  8
0
 62
     5
 10
145.238
 20
151.185
 30
0.0
 11
145.121
 21
151.767
 31
0.0
  0
LINE
  8
0
 62
     5
 10
145.121
 20
151.767
 30
0.0
 11
145.238
 21
152.352
 31
0.0
  0
LINE
  8
0
 62
     5
 10
145.238
 20
152.352
 30
0.0
 11
145.561
 21
152.829
 31
0.0
  0
LINE
  8
0
 62
     5
 10
145.561
 20
152.829
 30
0.0
 11
146.038
 21
153.151
 31
0.0
  0
LINE
  8
0
 62
     5
 10
146.038
 20
153.151
 30
0.0
 11
146.622
 21
153.268
 31
0.0
  0
LINE
  8
0
 62
     5
 10
146.622
 20
153.268
 30
0.0
 11
147.205
 21
153.151
 31
0.0
  0
LINE
  8
0
 62
     5
 10
147.205
 20
153.151
 30
0.0
 11
147.682
 21
152.829
 31
0.0
  0
LINE
  8
0
 62
     5
 10
147.682
 20
152.829
 30
0.0
 11
148.003
 21
152.352
 31
0.0
  0
LINE
  8
0
 62
     5
 10
148.003
 20
152.352
 30
0.0
 11
148.121
 21
151.767
 31
0.0
  0
LINE
  8
0
 62
     5
 10
148.121
 20
16.7128
 30
0.0
 11
148.003
 21
16.13
 31
0.0
  0
LINE
  8
0
 62
     5
 10
148.003
 20
16.13
 30
0.0
 11
147.682
 21
15.6531
 31
0.0
  0
LINE
  8
0
 62
     5
 10
147.682
 20
15.6531
 30
0.0
 11
147.205
 21
15.332
 31
0.0
  0
LINE
  8
0
 62
     5
 10
147.205
 20
15.332
 30
0.0
 11
146.622
 21
15.2135
 31
0.0
  0
LINE
  8
0
 62
     5
 10
146.622
 20
15.2135
 30
0.0
 11
146.038
 21
15.332
 31
0.0
  0
LINE
  8
0
 62
     5
 10
146.038
 20
15.332
 30
0.0
 11
145.561
 21
15.6531
 31
0.0
  0
LINE
  8
0
 62
     5
 10
145.561
 20
15.6531
 30
0.0
 11
145.238
 21
16.13
 31
0.0
  0
LINE
  8
0
 62
     5
 10
145.238
 20
16.13
 30
0.0
 11
145.121
 21
16.7128
 31
0.0
  0
LINE
  8
0
 62
     5
 10
145.121
 20
16.7128
 30
0.0
 11
145.238
 21
17.2972
 31
0.0
  0
LINE
  8
0
 62
     5
 10
145.238
 20
17.2972
 30
0.0
 11
145.561
 21
17.7739
 31
0.0
  0
LINE
  8
0
 62
     5
 10
145.561
 20
17.7739
 30
0.0
 11
146.038
 21
18.0964
 31
0.0
  0
LINE
  8
0
 62
     5
 10
146.038
 20
18.0964
 30
0.0
 11
146.622
 21
18.2135
 31
0.0
  0
LINE
  8
0
 62
     5
 10
146.622
 20
18.2135
 30
0.0
 11
147.205
 21
18.0964
 31
0.0
  0
LINE
  8
0
 62
     5
 10
147.205
 20
18.0964
 30
0.0
 11
147.682
 21
17.7739
 31
0.0
  0
LINE
  8
0
 62
     5
 10
147.682
 20
17.7739
 30
0.0
 11
148.003
 21
17.2972
 31
0.0
  0
LINE
  8
0
 62
     5
 10
148.003
 20
17.2972
 30
0.0
 11
148.121
 21
16.7128
 31
0.0
  0
LINE
  8
0
 62
     5
 10
148.121
 20
54.8474
 30
0.0
 11
148.003
 21
54.2629
 31
0.0
  0
LINE
  8
0
 62
     5
 10
148.003
 20
54.2629
 30
0.0
 11
147.682
 21
53.7863
 31
0.0
  0
LINE
  8
0
 62
     5
 10
147.682
 20
53.7863
 30
0.0
 11
147.205
 21
53.4652
 31
0.0
  0
LINE
  8
0
 62
     5
 10
147.205
 20
53.4652
 30
0.0
 11
146.622
 21
53.3467
 31
0.0
  0
LINE
  8
0
 62
     5
 10
146.622
 20
53.3467
 30
0.0
 11
146.038
 21
53.4652
 31
0.0
  0
LINE
  8
0
 62
     5
 10
146.038
 20
53.4652
 30
0.0
 11
145.561
 21
53.7863
 31
0.0
  0
LINE
  8
0
 62
     5
 10
145.561
 20
53.7863
 30
0.0
 11
145.238
 21
54.2629
 31
0.0
  0
LINE
  8
0
 62
     5
 10
145.238
 20
54.2629
 30
0.0
 11
145.121
 21
54.8474
 31
0.0
  0
LINE
  8
0
 62
     5
 10
145.121
 20
54.8474
 30
0.0
 11
145.238
 21
55.4316
 31
0.0
  0
LINE
  8
0
 62
     5
 10
145.238
 20
55.4316
 30
0.0
 11
145.561
 21
55.9082
 31
0.0
  0
LINE
  8
0
 62
     5
 10
145.561
 20
55.9082
 30
0.0
 11
146.038
 21
56.2296
 31
0.0
  0
LINE
  8
0
 62
     5
 10
146.038
 20
56.2296
 30
0.0
 11
146.622
 21
56.3467
 31
0.0
  0
LINE
  8
0
 62
     5
 10
146.622
 20
56.3467
 30
0.0
 11
147.205
 21
56.2296
 31
0.0
  0
LINE
  8
0
 62
     5
 10
147.205
 20
56.2296
 30
0.0
 11
147.682
 21
55.9082
 31
0.0
  0
LINE
  8
0
 62
     5
 10
147.682
 20
55.9082
 30
0.0
 11
148.003
 21
55.4316
 31
0.0
  0
LINE
  8
0
 62
     5
 10
148.003
 20
55.4316
 30
0.0
 11
148.121
 21
54.8474
 31
0.0
  0
LINE
  8
0
 62
     5
 10
11.8553
 20
54.8626
 30
0.0
 11
11.7367
 21
54.2794
 31
0.0
  0
LINE
  8
0
 62
     5
 10
11.7367
 20
54.2794
 30
0.0
 11
11.4157
 21
53.8028
 31
0.0
  0
LINE
  8
0
 62
     5
 10
11.4157
 20
53.8028
 30
0.0
 11
10.9389
 21
53.4818
 31
0.0
  0
LINE
  8
0
 62
     5
 10
10.9389
 20
53.4818
 30
0.0
 11
10.356
 21
53.3633
 31
0.0
  0
LINE
  8
0
 62
     5
 10
10.356
 20
53.3633
 30
0.0
 11
9.77166
 21
53.4818
 31
0.0
  0
LINE
  8
0
 62
     5
 10
9.77166
 20
53.4818
 30
0.0
 11
9.29488
 21
53.8028
 31
0.0
  0
LINE
  8
0
 62
     5
 10
9.29488
 20
53.8028
 30
0.0
 11
8.97241
 21
54.2794
 31
0.0
  0
LINE
  8
0
 62
     5
 10
8.97241
 20
54.2794
 30
0.0
 11
8.85529
 21
54.8626
 31
0.0
  0
LINE
  8
0
 62
     5
 10
8.85529
 20
54.8626
 30
0.0
 11
8.97241
 21
55.4468
 31
0.0
  0
LINE
  8
0
 62
     5
 10
8.97241
 20
55.4468
 30
0.0
 11
9.29488
 21
55.9234
 31
0.0
  0
LINE
  8
0
 62
     5
 10
9.29488
 20
55.9234
 30
0.0
 11
9.77166
 21
56.2462
 31
0.0
  0
LINE
  8
0
 62
     5
 10
9.77166
 20
56.2462
 30
0.0
 11
10.356
 21
56.3633
 31
0.0
  0
LINE
  8
0
 62
     5
 10
10.356
 20
56.3633
 30
0.0
 11
10.9389
 21
56.2462
 31
0.0
  0
LINE
  8
0
 62
     5
 10
10.9389
 20
56.2462
 30
0.0
 11
11.4157
 21
55.9234
 31
0.0
  0
LINE
  8
0
 62
     5
 10
11.4157
 20
55.9234
 30
0.0
 11
11.7367
 21
55.4468
 31
0.0
  0
LINE
  8
0
 62
     5
 10
11.7367
 20
55.4468
 30
0.0
 11
11.8553
 21
54.8626
 31
0.0
  0
LINE
  8
0
 62
     5
 10
32.4018
 20
16.7087
 30
0.0
 11
32.2833
 21
16.1258
 31
0.0
  0
LINE
  8
0
 62
     5
 10
32.2833
 20
16.1258
 30
0.0
 11
31.9622
 21
15.649
 31
0.0
  0
LINE
  8
0
 62
     5
 10
31.9622
 20
15.649
 30
0.0
 11
31.4854
 21
15.3265
 31
0.0
  0
LINE
  8
0
 62
     5
 10
31.4854
 20
15.3265
 30
0.0
 11
30.9025
 21
15.208
 31
0.0
  0
LINE
  8
0
 62
     5
 10
30.9025
 20
15.208
 30
0.0
 11
30.3168
 21
15.3265
 31
0.0
  0
LINE
  8
0
 62
     5
 10
30.3168
 20
15.3265
 30
0.0
 11
29.84
 21
15.649
 31
0.0
  0
LINE
  8
0
 62
     5
 10
29.84
 20
15.649
 30
0.0
 11
29.519
 21
16.1258
 31
0.0
  0
LINE
  8
0
 62
     5
 10
29.519
 20
16.1258
 30
0.0
 11
29.4018
 21
16.7087
 31
0.0
  0
LINE
  8
0
 62
     5
 10
29.4018
 20
16.7087
 30
0.0
 11
29.519
 21
17.293
 31
0.0
  0
LINE
  8
0
 62
     5
 10
29.519
 20
17.293
 30
0.0
 11
29.84
 21
17.7698
 31
0.0
  0
LINE
  8
0
 62
     5
 10
29.84
 20
17.7698
 30
0.0
 11
30.3168
 21
18.0909
 31
0.0
  0
LINE
  8
0
 62
     5
 10
30.3168
 20
18.0909
 30
0.0
 11
30.9025
 21
18.208
 31
0.0
  0
LINE
  8
0
 62
     5
 10
30.9025
 20
18.208
 30
0.0
 11
31.4854
 21
18.0909
 31
0.0
  0
LINE
  8
0
 62
     5
 10
31.4854
 20
18.0909
 30
0.0
 11
31.9622
 21
17.7698
 31
0.0
  0
LINE
  8
0
 62
     5
 10
31.9622
 20
17.7698
 30
0.0
 11
32.2833
 21
17.293
 31
0.0
  0
LINE
  8
0
 62
     5
 10
32.2833
 20
17.293
 30
0.0
 11
32.4018
 21
16.7087
 31
0.0
  0
LINE
  8
0
 62
     5
 10
148.121
 20
104.746
 30
0.0
 11
148.003
 21
104.163
 31
0.0
  0
LINE
  8
0
 62
     5
 10
148.003
 20
104.163
 30
0.0
 11
147.682
 21
103.686
 31
0.0
  0
LINE
  8
0
 62
     5
 10
147.682
 20
103.686
 30
0.0
 11
147.205
 21
103.365
 31
0.0
  0
LINE
  8
0
 62
     5
 10
147.205
 20
103.365
 30
0.0
 11
146.622
 21
103.247
 31
0.0
  0
LINE
  8
0
 62
     5
 10
146.622
 20
103.247
 30
0.0
 11
146.038
 21
103.365
 31
0.0
  0
LINE
  8
0
 62
     5
 10
146.038
 20
103.365
 30
0.0
 11
145.561
 21
103.686
 31
0.0
  0
LINE
  8
0
 62
     5
 10
145.561
 20
103.686
 30
0.0
 11
145.238
 21
104.163
 31
0.0
  0
LINE
  8
0
 62
     5
 10
145.238
 20
104.163
 30
0.0
 11
145.121
 21
104.746
 31
0.0
  0
LINE
  8
0
 62
     5
 10
145.121
 20
104.746
 30
0.0
 11
145.238
 21
105.33
 31
0.0
  0
LINE
  8
0
 62
     5
 10
145.238
 20
105.33
 30
0.0
 11
145.561
 21
105.807
 31
0.0
  0
LINE
  8
0
 62
     5
 10
145.561
 20
105.807
 30
0.0
 11
146.038
 21
106.13
 31
0.0
  0
LINE
  8
0
 62
     5
 10
146.038
 20
106.13
 30
0.0
 11
146.622
 21
106.247
 31
0.0
  0
LINE
  8
0
 62
     5
 10
146.622
 20
106.247
 30
0.0
 11
147.205
 21
106.13
 31
0.0
  0
LINE
  8
0
 62
     5
 10
147.205
 20
106.13
 30
0.0
 11
147.682
 21
105.807
 31
0.0
  0
LINE
  8
0
 62
     5
 10
147.682
 20
105.807
 30
0.0
 11
148.003
 21
105.33
 31
0.0
  0
LINE
  8
0
 62
     5
 10
148.003
 20
105.33
 30
0.0
 11
148.121
 21
104.746
 31
0.0
  0
LINE
  8
0
 62
     5
 10
11.8553
 20
104.761
 30
0.0
 11
11.7367
 21
104.178
 31
0.0
  0
LINE
  8
0
 62
     5
 10
11.7367
 20
104.178
 30
0.0
 11
11.4157
 21
103.701
 31
0.0
  0
LINE
  8
0
 62
     5
 10
11.4157
 20
103.701
 30
0.0
 11
10.9389
 21
103.38
 31
0.0
  0
LINE
  8
0
 62
     5
 10
10.9389
 20
103.38
 30
0.0
 11
10.356
 21
103.262
 31
0.0
  0
LINE
  8
0
 62
     5
 10
10.356
 20
103.262
 30
0.0
 11
9.77166
 21
103.38
 31
0.0
  0
LINE
  8
0
 62
     5
 10
9.77166
 20
103.38
 30
0.0
 11
9.29488
 21
103.701
 31
0.0
  0
LINE
  8
0
 62
     5
 10
9.29488
 20
103.701
 30
0.0
 11
8.97241
 21
104.178
 31
0.0
  0
LINE
  8
0
 62
     5
 10
8.97241
 20
104.178
 30
0.0
 11
8.85529
 21
104.761
 31
0.0
  0
LINE
  8
0
 62
     5
 10
8.85529
 20
104.761
 30
0.0
 11
8.97241
 21
105.347
 31
0.0
  0
LINE
  8
0
 62
     5
 10
8.97241
 20
105.347
 30
0.0
 11
9.29488
 21
105.824
 31
0.0
  0
LINE
  8
0
 62
     5
 10
9.29488
 20
105.824
 30
0.0
 11
9.77166
 21
106.145
 31
0.0
  0
LINE
  8
0
 62
     5
 10
9.77166
 20
106.145
 30
0.0
 11
10.356
 21
106.262
 31
0.0
  0
LINE
  8
0
 62
     5
 10
10.356
 20
106.262
 30
0.0
 11
10.9389
 21
106.145
 31
0.0
  0
LINE
  8
0
 62
     5
 10
10.9389
 20
106.145
 30
0.0
 11
11.4157
 21
105.824
 31
0.0
  0
LINE
  8
0
 62
     5
 10
11.4157
 20
105.824
 30
0.0
 11
11.7367
 21
105.347
 31
0.0
  0
LINE
  8
0
 62
     5
 10
11.7367
 20
105.347
 30
0.0
 11
11.8553
 21
104.761
 31
0.0
  0
LINE
  8
0
 62
     5
 10
79.5196
 20
104.746
 30
0.0
 11
79.4011
 21
104.163
 31
0.0
  0
LINE
  8
0
 62
     5
 10
79.4011
 20
104.163
 30
0.0
 11
79.0801
 21
103.686
 31
0.0
  0
LINE
  8
0
 62
     5
 10
79.0801
 20
103.686
 30
0.0
 11
78.6035
 21
103.365
 31
0.0
  0
LINE
  8
0
 62
     5
 10
78.6035
 20
103.365
 30
0.0
 11
78.0203
 21
103.247
 31
0.0
  0
LINE
  8
0
 62
     5
 10
78.0203
 20
103.247
 30
0.0
 11
77.4347
 21
103.365
 31
0.0
  0
LINE
  8
0
 62
     5
 10
77.4347
 20
103.365
 30
0.0
 11
76.9578
 21
103.686
 31
0.0
  0
LINE
  8
0
 62
     5
 10
76.9578
 20
103.686
 30
0.0
 11
76.6367
 21
104.163
 31
0.0
  0
LINE
  8
0
 62
     5
 10
76.6367
 20
104.163
 30
0.0
 11
76.5196
 21
104.746
 31
0.0
  0
LINE
  8
0
 62
     5
 10
76.5196
 20
104.746
 30
0.0
 11
76.6367
 21
105.33
 31
0.0
  0
LINE
  8
0
 62
     5
 10
76.6367
 20
105.33
 30
0.0
 11
76.9578
 21
105.807
 31
0.0
  0
LINE
  8
0
 62
     5
 10
76.9578
 20
105.807
 30
0.0
 11
77.4347
 21
106.13
 31
0.0
  0
LINE
  8
0
 62
     5
 10
77.4347
 20
106.13
 30
0.0
 11
78.0203
 21
106.247
 31
0.0
  0
LINE
  8
0
 62
     5
 10
78.0203
 20
106.247
 30
0.0
 11
78.6035
 21
106.13
 31
0.0
  0
LINE
  8
0
 62
     5
 10
78.6035
 20
106.13
 30
0.0
 11
79.0801
 21
105.807
 31
0.0
  0
LINE
  8
0
 62
     5
 10
79.0801
 20
105.807
 30
0.0
 11
79.4011
 21
105.33
 31
0.0
  0
LINE
  8
0
 62
     5
 10
79.4011
 20
105.33
 30
0.0
 11
79.5196
 21
104.746
 31
0.0
  0
LINE
  8
0
 62
     5
 10
80.0848
 20
24.4326
 30
0.0
 11
79.9663
 21
23.8497
 31
0.0
  0
LINE
  8
0
 62
     5
 10
79.9663
 20
23.8497
 30
0.0
 11
79.6438
 21
23.3729
 31
0.0
  0
LINE
  8
0
 62
     5
 10
79.6438
 20
23.3729
 30
0.0
 11
79.1669
 21
23.0504
 31
0.0
  0
LINE
  8
0
 62
     5
 10
79.1669
 20
23.0504
 30
0.0
 11
78.5841
 21
22.9319
 31
0.0
  0
LINE
  8
0
 62
     5
 10
78.5841
 20
22.9319
 30
0.0
 11
77.9999
 21
23.0504
 31
0.0
  0
LINE
  8
0
 62
     5
 10
77.9999
 20
23.0504
 30
0.0
 11
77.5229
 21
23.3729
 31
0.0
  0
LINE
  8
0
 62
     5
 10
77.5229
 20
23.3729
 30
0.0
 11
77.2019
 21
23.8497
 31
0.0
  0
LINE
  8
0
 62
     5
 10
77.2019
 20
23.8497
 30
0.0
 11
77.0848
 21
24.4326
 31
0.0
  0
LINE
  8
0
 62
     5
 10
77.0848
 20
24.4326
 30
0.0
 11
77.2019
 21
25.0169
 31
0.0
  0
LINE
  8
0
 62
     5
 10
77.2019
 20
25.0169
 30
0.0
 11
77.5229
 21
25.4937
 31
0.0
  0
LINE
  8
0
 62
     5
 10
77.5229
 20
25.4937
 30
0.0
 11
77.9999
 21
25.8148
 31
0.0
  0
LINE
  8
0
 62
     5
 10
77.9999
 20
25.8148
 30
0.0
 11
78.5841
 21
25.9319
 31
0.0
  0
LINE
  8
0
 62
     5
 10
78.5841
 20
25.9319
 30
0.0
 11
79.1669
 21
25.8148
 31
0.0
  0
LINE
  8
0
 62
     5
 10
79.1669
 20
25.8148
 30
0.0
 11
79.6438
 21
25.4937
 31
0.0
  0
LINE
  8
0
 62
     5
 10
79.6438
 20
25.4937
 30
0.0
 11
79.9663
 21
25.0169
 31
0.0
  0
LINE
  8
0
 62
     5
 10
79.9663
 20
25.0169
 30
0.0
 11
80.0848
 21
24.4326
 31
0.0
  0
ENDSEC
  0
EOF
