  0
SECTION
  2
HEADER
  9
$ACADVER
  1
AC1009
  9
$EXTMIN
 10
0.0
 20
0.0
 30
0.0
  9
$EXTMAX
 10
1000.0
 20
1000.0
 30
0.0
  9
$FILLMODE
 70
 0
  9
$SPLFRAME
 70
 1
  0
ENDSEC
  0
SECTION
  2
TABLES
  0
TABLE
  2
LAYER
 70
1
  0
LAYER
  2
0
 70
     0
 62
     7
  6
CONTINUOUS
  0
ENDTAB
  0
ENDSEC
  0
SECTION
  2
ENTITIES
  0
LINE
  8
0
 62
     5
 10
154.477
 20
163.164
 30
0.0
 11
154.672
 21
163.157
 31
0.0
  0
LINE
  8
0
 62
     5
 10
154.672
 20
163.157
 30
0.0
 11
154.868
 21
163.134
 31
0.0
  0
LINE
  8
0
 62
     5
 10
154.868
 20
163.134
 30
0.0
 11
155.06
 21
163.095
 31
0.0
  0
LINE
  8
0
 62
     5
 10
155.06
 20
163.095
 30
0.0
 11
155.248
 21
163.041
 31
0.0
  0
LINE
  8
0
 62
     5
 10
155.248
 20
163.041
 30
0.0
 11
155.433
 21
162.974
 31
0.0
  0
LINE
  8
0
 62
     5
 10
155.433
 20
162.974
 30
0.0
 11
155.611
 21
162.891
 31
0.0
  0
LINE
  8
0
 62
     5
 10
155.611
 20
162.891
 30
0.0
 11
155.783
 21
162.796
 31
0.0
  0
LINE
  8
0
 62
     5
 10
155.783
 20
162.796
 30
0.0
 11
155.946
 21
162.687
 31
0.0
  0
LINE
  8
0
 62
     5
 10
155.946
 20
162.687
 30
0.0
 11
156.1
 21
162.566
 31
0.0
  0
LINE
  8
0
 62
     5
 10
156.1
 20
162.566
 30
0.0
 11
156.244
 21
162.432
 31
0.0
  0
LINE
  8
0
 62
     5
 10
156.244
 20
162.432
 30
0.0
 11
156.378
 21
162.287
 31
0.0
  0
LINE
  8
0
 62
     5
 10
156.378
 20
162.287
 30
0.0
 11
156.5
 21
162.133
 31
0.0
  0
LINE
  8
0
 62
     5
 10
156.5
 20
162.133
 30
0.0
 11
156.609
 21
161.971
 31
0.0
  0
LINE
  8
0
 62
     5
 10
156.609
 20
161.971
 30
0.0
 11
156.704
 21
161.798
 31
0.0
  0
LINE
  8
0
 62
     5
 10
156.704
 20
161.798
 30
0.0
 11
156.786
 21
161.621
 31
0.0
  0
LINE
  8
0
 62
     5
 10
156.786
 20
161.621
 30
0.0
 11
156.854
 21
161.436
 31
0.0
  0
LINE
  8
0
 62
     5
 10
156.854
 20
161.436
 30
0.0
 11
156.907
 21
161.247
 31
0.0
  0
LINE
  8
0
 62
     5
 10
156.907
 20
161.247
 30
0.0
 11
156.946
 21
161.055
 31
0.0
  0
LINE
  8
0
 62
     5
 10
156.946
 20
161.055
 30
0.0
 11
156.97
 21
160.86
 31
0.0
  0
LINE
  8
0
 62
     5
 10
156.97
 20
160.86
 30
0.0
 11
156.977
 21
160.664
 31
0.0
  0
LINE
  8
0
 62
     5
 10
156.977
 20
160.664
 30
0.0
 11
156.977
 21
2.60036
 31
0.0
  0
LINE
  8
0
 62
     5
 10
156.977
 20
2.60036
 30
0.0
 11
156.97
 21
2.40468
 31
0.0
  0
LINE
  8
0
 62
     5
 10
156.97
 20
2.40468
 30
0.0
 11
156.946
 21
2.209
 31
0.0
  0
LINE
  8
0
 62
     5
 10
156.946
 20
2.209
 30
0.0
 11
156.907
 21
2.01607
 31
0.0
  0
LINE
  8
0
 62
     5
 10
156.907
 20
2.01607
 30
0.0
 11
156.854
 21
1.82728
 31
0.0
  0
LINE
  8
0
 62
     5
 10
156.854
 20
1.82728
 30
0.0
 11
156.786
 21
1.644
 31
0.0
  0
LINE
  8
0
 62
     5
 10
156.786
 20
1.644
 30
0.0
 11
156.704
 21
1.46485
 31
0.0
  0
LINE
  8
0
 62
     5
 10
156.704
 20
1.46485
 30
0.0
 11
156.609
 21
1.29398
 31
0.0
  0
LINE
  8
0
 62
     5
 10
156.609
 20
1.29398
 30
0.0
 11
156.5
 21
1.13137
 31
0.0
  0
LINE
  8
0
 62
     5
 10
156.5
 20
1.13137
 30
0.0
 11
156.378
 21
0.977029
 31
0.0
  0
LINE
  8
0
 62
     5
 10
156.378
 20
0.977029
 30
0.0
 11
156.244
 21
0.832337
 31
0.0
  0
LINE
  8
0
 62
     5
 10
156.244
 20
0.832337
 30
0.0
 11
156.1
 21
0.700045
 31
0.0
  0
LINE
  8
0
 62
     5
 10
156.1
 20
0.700045
 30
0.0
 11
155.946
 21
0.577398
 31
0.0
  0
LINE
  8
0
 62
     5
 10
155.946
 20
0.577398
 30
0.0
 11
155.783
 21
0.468535
 31
0.0
  0
LINE
  8
0
 62
     5
 10
155.783
 20
0.468535
 30
0.0
 11
155.611
 21
0.372071
 31
0.0
  0
LINE
  8
0
 62
     5
 10
155.611
 20
0.372071
 30
0.0
 11
155.433
 21
0.290766
 31
0.0
  0
LINE
  8
0
 62
     5
 10
155.433
 20
0.290766
 30
0.0
 11
155.248
 21
0.221864
 31
0.0
  0
LINE
  8
0
 62
     5
 10
155.248
 20
0.221864
 30
0.0
 11
155.06
 21
0.169499
 31
0.0
  0
LINE
  8
0
 62
     5
 10
155.06
 20
0.169499
 30
0.0
 11
154.868
 21
0.130914
 31
0.0
  0
LINE
  8
0
 62
     5
 10
154.868
 20
0.130914
 30
0.0
 11
154.672
 21
0.108865
 31
0.0
  0
LINE
  8
0
 62
     5
 10
154.672
 20
0.108865
 30
0.0
 11
154.477
 21
0.100597
 31
0.0
  0
LINE
  8
0
 62
     5
 10
154.477
 20
0.100597
 30
0.0
 11
2.60036
 21
0.100597
 31
0.0
  0
LINE
  8
0
 62
     5
 10
2.60036
 20
0.100597
 30
0.0
 11
2.40468
 21
0.108865
 31
0.0
  0
LINE
  8
0
 62
     5
 10
2.40468
 20
0.108865
 30
0.0
 11
2.209
 21
0.130914
 31
0.0
  0
LINE
  8
0
 62
     5
 10
2.209
 20
0.130914
 30
0.0
 11
2.01745
 21
0.169499
 31
0.0
  0
LINE
  8
0
 62
     5
 10
2.01745
 20
0.169499
 30
0.0
 11
1.82866
 21
0.221864
 31
0.0
  0
LINE
  8
0
 62
     5
 10
1.82866
 20
0.221864
 30
0.0
 11
1.644
 21
0.290766
 31
0.0
  0
LINE
  8
0
 62
     5
 10
1.644
 20
0.290766
 30
0.0
 11
1.46623
 21
0.372071
 31
0.0
  0
LINE
  8
0
 62
     5
 10
1.46623
 20
0.372071
 30
0.0
 11
1.29398
 21
0.468535
 31
0.0
  0
LINE
  8
0
 62
     5
 10
1.29398
 20
0.468535
 30
0.0
 11
1.13137
 21
0.577398
 31
0.0
  0
LINE
  8
0
 62
     5
 10
1.13137
 20
0.577398
 30
0.0
 11
0.977029
 21
0.700045
 31
0.0
  0
LINE
  8
0
 62
     5
 10
0.977029
 20
0.700045
 30
0.0
 11
0.832337
 21
0.832337
 31
0.0
  0
LINE
  8
0
 62
     5
 10
0.832337
 20
0.832337
 30
0.0
 11
0.698666
 21
0.977029
 31
0.0
  0
LINE
  8
0
 62
     5
 10
0.698666
 20
0.977029
 30
0.0
 11
0.577398
 21
1.13137
 31
0.0
  0
LINE
  8
0
 62
     5
 10
0.577398
 20
1.13137
 30
0.0
 11
0.468535
 21
1.29398
 31
0.0
  0
LINE
  8
0
 62
     5
 10
0.468535
 20
1.29398
 30
0.0
 11
0.373447
 21
1.46485
 31
0.0
  0
LINE
  8
0
 62
     5
 10
0.373447
 20
1.46485
 30
0.0
 11
0.290766
 21
1.644
 31
0.0
  0
LINE
  8
0
 62
     5
 10
0.290766
 20
1.644
 30
0.0
 11
0.223242
 21
1.82728
 31
0.0
  0
LINE
  8
0
 62
     5
 10
0.223242
 20
1.82728
 30
0.0
 11
0.169499
 21
2.01607
 31
0.0
  0
LINE
  8
0
 62
     5
 10
0.169499
 20
2.01607
 30
0.0
 11
0.130914
 21
2.209
 31
0.0
  0
LINE
  8
0
 62
     5
 10
0.130914
 20
2.209
 30
0.0
 11
0.107487
 21
2.40468
 31
0.0
  0
LINE
  8
0
 62
     5
 10
0.107487
 20
2.40468
 30
0.0
 11
0.100597
 21
2.60036
 31
0.0
  0
LINE
  8
0
 62
     5
 10
0.100597
 20
2.60036
 30
0.0
 11
0.100597
 21
160.664
 31
0.0
  0
LINE
  8
0
 62
     5
 10
0.100597
 20
160.664
 30
0.0
 11
0.107487
 21
160.86
 31
0.0
  0
LINE
  8
0
 62
     5
 10
0.107487
 20
160.86
 30
0.0
 11
0.130914
 21
161.055
 31
0.0
  0
LINE
  8
0
 62
     5
 10
0.130914
 20
161.055
 30
0.0
 11
0.169499
 21
161.247
 31
0.0
  0
LINE
  8
0
 62
     5
 10
0.169499
 20
161.247
 30
0.0
 11
0.223242
 21
161.436
 31
0.0
  0
LINE
  8
0
 62
     5
 10
0.223242
 20
161.436
 30
0.0
 11
0.290766
 21
161.621
 31
0.0
  0
LINE
  8
0
 62
     5
 10
0.290766
 20
161.621
 30
0.0
 11
0.373447
 21
161.798
 31
0.0
  0
LINE
  8
0
 62
     5
 10
0.373447
 20
161.798
 30
0.0
 11
0.468535
 21
161.971
 31
0.0
  0
LINE
  8
0
 62
     5
 10
0.468535
 20
161.971
 30
0.0
 11
0.577398
 21
162.133
 31
0.0
  0
LINE
  8
0
 62
     5
 10
0.577398
 20
162.133
 30
0.0
 11
0.698666
 21
162.287
 31
0.0
  0
LINE
  8
0
 62
     5
 10
0.698666
 20
162.287
 30
0.0
 11
0.832337
 21
162.432
 31
0.0
  0
LINE
  8
0
 62
     5
 10
0.832337
 20
162.432
 30
0.0
 11
0.977029
 21
162.566
 31
0.0
  0
LINE
  8
0
 62
     5
 10
0.977029
 20
162.566
 30
0.0
 11
1.13137
 21
162.687
 31
0.0
  0
LINE
  8
0
 62
     5
 10
1.13137
 20
162.687
 30
0.0
 11
1.29398
 21
162.796
 31
0.0
  0
LINE
  8
0
 62
     5
 10
1.29398
 20
162.796
 30
0.0
 11
1.46623
 21
162.891
 31
0.0
  0
LINE
  8
0
 62
     5
 10
1.46623
 20
162.891
 30
0.0
 11
1.644
 21
162.974
 31
0.0
  0
LINE
  8
0
 62
     5
 10
1.644
 20
162.974
 30
0.0
 11
1.82866
 21
163.041
 31
0.0
  0
LINE
  8
0
 62
     5
 10
1.82866
 20
163.041
 30
0.0
 11
2.01745
 21
163.095
 31
0.0
  0
LINE
  8
0
 62
     5
 10
2.01745
 20
163.095
 30
0.0
 11
2.209
 21
163.134
 31
0.0
  0
LINE
  8
0
 62
     5
 10
2.209
 20
163.134
 30
0.0
 11
2.40468
 21
163.157
 31
0.0
  0
LINE
  8
0
 62
     5
 10
2.40468
 20
163.157
 30
0.0
 11
2.60036
 21
163.164
 31
0.0
  0
LINE
  8
0
 62
     5
 10
2.60036
 20
163.164
 30
0.0
 11
154.477
 21
163.164
 31
0.0
  0
LINE
  8
0
 62
     5
 10
7.09965
 20
102.352
 30
0.0
 11
7.09965
 21
7.10103
 31
0.0
  0
LINE
  8
0
 62
     5
 10
7.09965
 20
7.10103
 30
0.0
 11
145.214
 21
7.10103
 31
0.0
  0
LINE
  8
0
 62
     5
 10
145.214
 20
7.10103
 30
0.0
 11
145.214
 21
45.2025
 31
0.0
  0
LINE
  8
0
 62
     5
 10
145.214
 20
45.2025
 30
0.0
 11
135.689
 21
45.2025
 31
0.0
  0
LINE
  8
0
 62
     5
 10
135.689
 20
45.2025
 30
0.0
 11
135.689
 21
64.2525
 31
0.0
  0
LINE
  8
0
 62
     5
 10
135.689
 20
64.2525
 30
0.0
 11
130.927
 21
64.2525
 31
0.0
  0
LINE
  8
0
 62
     5
 10
130.927
 20
64.2525
 30
0.0
 11
130.927
 21
83.3011
 31
0.0
  0
LINE
  8
0
 62
     5
 10
130.927
 20
83.3011
 30
0.0
 11
140.452
 21
83.3011
 31
0.0
  0
LINE
  8
0
 62
     5
 10
140.452
 20
83.3011
 30
0.0
 11
140.452
 21
102.352
 31
0.0
  0
LINE
  8
0
 62
     5
 10
140.452
 20
102.352
 30
0.0
 11
7.09965
 21
102.352
 31
0.0
  0
LINE
  8
0
 62
     5
 10
7.09965
 20
126.165
 30
0.0
 11
26.1524
 21
126.165
 31
0.0
  0
LINE
  8
0
 62
     5
 10
26.1524
 20
126.165
 30
0.0
 11
26.1524
 21
107.112
 31
0.0
  0
LINE
  8
0
 62
     5
 10
26.1524
 20
107.112
 30
0.0
 11
7.09965
 21
107.112
 31
0.0
  0
LINE
  8
0
 62
     5
 10
7.09965
 20
107.112
 30
0.0
 11
7.09965
 21
126.165
 31
0.0
  0
LINE
  8
0
 62
     5
 10
30.9122
 20
126.165
 30
0.0
 11
107.114
 21
126.165
 31
0.0
  0
LINE
  8
0
 62
     5
 10
107.114
 20
126.165
 30
0.0
 11
107.114
 21
107.112
 31
0.0
  0
LINE
  8
0
 62
     5
 10
107.114
 20
107.112
 30
0.0
 11
30.9122
 21
107.112
 31
0.0
  0
LINE
  8
0
 62
     5
 10
30.9122
 20
107.112
 30
0.0
 11
30.9122
 21
126.165
 31
0.0
  0
LINE
  8
0
 62
     5
 10
111.875
 20
126.165
 30
0.0
 11
149.977
 21
126.165
 31
0.0
  0
LINE
  8
0
 62
     5
 10
149.977
 20
126.165
 30
0.0
 11
149.977
 21
107.112
 31
0.0
  0
LINE
  8
0
 62
     5
 10
149.977
 20
107.112
 30
0.0
 11
111.875
 21
107.112
 31
0.0
  0
LINE
  8
0
 62
     5
 10
111.875
 20
107.112
 30
0.0
 11
111.875
 21
126.165
 31
0.0
  0
LINE
  8
0
 62
     5
 10
18.197
 20
150.49
 30
0.0
 11
137.997
 21
150.49
 31
0.0
  0
LINE
  8
0
 62
     5
 10
137.997
 20
150.49
 30
0.0
 11
137.997
 21
130.69
 31
0.0
  0
LINE
  8
0
 62
     5
 10
137.997
 20
130.69
 30
0.0
 11
18.197
 21
130.69
 31
0.0
  0
LINE
  8
0
 62
     5
 10
18.197
 20
130.69
 30
0.0
 11
18.197
 21
150.49
 31
0.0
  0
ENDSEC
  0
EOF
