  0
SECTION
  2
HEADER
  9
$ACADVER
  1
AC1009
  9
$EXTMIN
 10
0.0
 20
0.0
 30
0.0
  9
$EXTMAX
 10
1000.0
 20
1000.0
 30
0.0
  9
$FILLMODE
 70
 0
  9
$SPLFRAME
 70
 1
  0
ENDSEC
  0
SECTION
  2
TABLES
  0
TABLE
  2
LAYER
 70
1
  0
LAYER
  2
0
 70
     0
 62
     7
  6
CONTINUOUS
  0
ENDTAB
  0
ENDSEC
  0
SECTION
  2
ENTITIES
  0
LINE
  8
0
 62
     5
 10
156.704
 20
1.46485
 30
0.0
 11
156.609
 21
1.29398
 31
0.0
  0
LINE
  8
0
 62
     5
 10
156.609
 20
1.29398
 30
0.0
 11
156.5
 21
1.13137
 31
0.0
  0
LINE
  8
0
 62
     5
 10
156.5
 20
1.13137
 30
0.0
 11
156.378
 21
0.977029
 31
0.0
  0
LINE
  8
0
 62
     5
 10
156.378
 20
0.977029
 30
0.0
 11
156.244
 21
0.832337
 31
0.0
  0
LINE
  8
0
 62
     5
 10
156.244
 20
0.832337
 30
0.0
 11
156.1
 21
0.700045
 31
0.0
  0
LINE
  8
0
 62
     5
 10
156.1
 20
0.700045
 30
0.0
 11
155.946
 21
0.577398
 31
0.0
  0
LINE
  8
0
 62
     5
 10
155.946
 20
0.577398
 30
0.0
 11
155.783
 21
0.468535
 31
0.0
  0
LINE
  8
0
 62
     5
 10
155.783
 20
0.468535
 30
0.0
 11
155.611
 21
0.372071
 31
0.0
  0
LINE
  8
0
 62
     5
 10
155.611
 20
0.372071
 30
0.0
 11
155.433
 21
0.290766
 31
0.0
  0
LINE
  8
0
 62
     5
 10
155.433
 20
0.290766
 30
0.0
 11
155.248
 21
0.221864
 31
0.0
  0
LINE
  8
0
 62
     5
 10
155.248
 20
0.221864
 30
0.0
 11
155.06
 21
0.169499
 31
0.0
  0
LINE
  8
0
 62
     5
 10
155.06
 20
0.169499
 30
0.0
 11
154.868
 21
0.130914
 31
0.0
  0
LINE
  8
0
 62
     5
 10
154.868
 20
0.130914
 30
0.0
 11
154.672
 21
0.108865
 31
0.0
  0
LINE
  8
0
 62
     5
 10
154.672
 20
0.108865
 30
0.0
 11
154.477
 21
0.100597
 31
0.0
  0
LINE
  8
0
 62
     5
 10
154.477
 20
0.100597
 30
0.0
 11
2.60036
 21
0.100597
 31
0.0
  0
LINE
  8
0
 62
     5
 10
2.60036
 20
0.100597
 30
0.0
 11
2.40468
 21
0.108865
 31
0.0
  0
LINE
  8
0
 62
     5
 10
2.40468
 20
0.108865
 30
0.0
 11
2.209
 21
0.130914
 31
0.0
  0
LINE
  8
0
 62
     5
 10
2.209
 20
0.130914
 30
0.0
 11
2.01745
 21
0.169499
 31
0.0
  0
LINE
  8
0
 62
     5
 10
2.01745
 20
0.169499
 30
0.0
 11
1.82866
 21
0.221864
 31
0.0
  0
LINE
  8
0
 62
     5
 10
1.82866
 20
0.221864
 30
0.0
 11
1.644
 21
0.290766
 31
0.0
  0
LINE
  8
0
 62
     5
 10
1.644
 20
0.290766
 30
0.0
 11
1.46623
 21
0.372071
 31
0.0
  0
LINE
  8
0
 62
     5
 10
1.46623
 20
0.372071
 30
0.0
 11
1.29398
 21
0.468535
 31
0.0
  0
LINE
  8
0
 62
     5
 10
1.29398
 20
0.468535
 30
0.0
 11
1.13137
 21
0.577398
 31
0.0
  0
LINE
  8
0
 62
     5
 10
1.13137
 20
0.577398
 30
0.0
 11
0.977029
 21
0.700045
 31
0.0
  0
LINE
  8
0
 62
     5
 10
0.977029
 20
0.700045
 30
0.0
 11
0.832337
 21
0.832337
 31
0.0
  0
LINE
  8
0
 62
     5
 10
0.832337
 20
0.832337
 30
0.0
 11
0.698666
 21
0.977029
 31
0.0
  0
LINE
  8
0
 62
     5
 10
0.698666
 20
0.977029
 30
0.0
 11
0.577398
 21
1.13137
 31
0.0
  0
LINE
  8
0
 62
     5
 10
0.577398
 20
1.13137
 30
0.0
 11
0.468535
 21
1.29398
 31
0.0
  0
LINE
  8
0
 62
     5
 10
0.468535
 20
1.29398
 30
0.0
 11
0.373447
 21
1.46485
 31
0.0
  0
LINE
  8
0
 62
     5
 10
0.373447
 20
1.46485
 30
0.0
 11
0.290766
 21
1.644
 31
0.0
  0
LINE
  8
0
 62
     5
 10
0.290766
 20
1.644
 30
0.0
 11
0.223242
 21
1.82728
 31
0.0
  0
LINE
  8
0
 62
     5
 10
0.223242
 20
1.82728
 30
0.0
 11
0.169499
 21
2.01607
 31
0.0
  0
LINE
  8
0
 62
     5
 10
0.169499
 20
2.01607
 30
0.0
 11
0.130914
 21
2.209
 31
0.0
  0
LINE
  8
0
 62
     5
 10
0.130914
 20
2.209
 30
0.0
 11
0.107487
 21
2.40468
 31
0.0
  0
LINE
  8
0
 62
     5
 10
0.107487
 20
2.40468
 30
0.0
 11
0.100597
 21
2.60036
 31
0.0
  0
LINE
  8
0
 62
     5
 10
0.100597
 20
2.60036
 30
0.0
 11
0.100597
 21
160.664
 31
0.0
  0
LINE
  8
0
 62
     5
 10
0.100597
 20
160.664
 30
0.0
 11
0.107487
 21
160.86
 31
0.0
  0
LINE
  8
0
 62
     5
 10
0.107487
 20
160.86
 30
0.0
 11
0.130914
 21
161.055
 31
0.0
  0
LINE
  8
0
 62
     5
 10
0.130914
 20
161.055
 30
0.0
 11
0.169499
 21
161.247
 31
0.0
  0
LINE
  8
0
 62
     5
 10
0.169499
 20
161.247
 30
0.0
 11
0.223242
 21
161.436
 31
0.0
  0
LINE
  8
0
 62
     5
 10
0.223242
 20
161.436
 30
0.0
 11
0.290766
 21
161.621
 31
0.0
  0
LINE
  8
0
 62
     5
 10
0.290766
 20
161.621
 30
0.0
 11
0.373447
 21
161.798
 31
0.0
  0
LINE
  8
0
 62
     5
 10
0.373447
 20
161.798
 30
0.0
 11
0.468535
 21
161.971
 31
0.0
  0
LINE
  8
0
 62
     5
 10
0.468535
 20
161.971
 30
0.0
 11
0.577398
 21
162.133
 31
0.0
  0
LINE
  8
0
 62
     5
 10
0.577398
 20
162.133
 30
0.0
 11
0.698666
 21
162.287
 31
0.0
  0
LINE
  8
0
 62
     5
 10
0.698666
 20
162.287
 30
0.0
 11
0.832337
 21
162.432
 31
0.0
  0
LINE
  8
0
 62
     5
 10
0.832337
 20
162.432
 30
0.0
 11
0.977029
 21
162.566
 31
0.0
  0
LINE
  8
0
 62
     5
 10
0.977029
 20
162.566
 30
0.0
 11
1.13137
 21
162.687
 31
0.0
  0
LINE
  8
0
 62
     5
 10
1.13137
 20
162.687
 30
0.0
 11
1.29398
 21
162.796
 31
0.0
  0
LINE
  8
0
 62
     5
 10
1.29398
 20
162.796
 30
0.0
 11
1.46623
 21
162.891
 31
0.0
  0
LINE
  8
0
 62
     5
 10
1.46623
 20
162.891
 30
0.0
 11
1.644
 21
162.974
 31
0.0
  0
LINE
  8
0
 62
     5
 10
1.644
 20
162.974
 30
0.0
 11
1.82866
 21
163.041
 31
0.0
  0
LINE
  8
0
 62
     5
 10
1.82866
 20
163.041
 30
0.0
 11
2.01745
 21
163.095
 31
0.0
  0
LINE
  8
0
 62
     5
 10
2.01745
 20
163.095
 30
0.0
 11
2.209
 21
163.134
 31
0.0
  0
LINE
  8
0
 62
     5
 10
2.209
 20
163.134
 30
0.0
 11
2.40468
 21
163.157
 31
0.0
  0
LINE
  8
0
 62
     5
 10
2.40468
 20
163.157
 30
0.0
 11
2.60036
 21
163.164
 31
0.0
  0
LINE
  8
0
 62
     5
 10
2.60036
 20
163.164
 30
0.0
 11
154.477
 21
163.164
 31
0.0
  0
LINE
  8
0
 62
     5
 10
154.477
 20
163.164
 30
0.0
 11
154.672
 21
163.157
 31
0.0
  0
LINE
  8
0
 62
     5
 10
154.672
 20
163.157
 30
0.0
 11
154.868
 21
163.134
 31
0.0
  0
LINE
  8
0
 62
     5
 10
154.868
 20
163.134
 30
0.0
 11
155.06
 21
163.095
 31
0.0
  0
LINE
  8
0
 62
     5
 10
155.06
 20
163.095
 30
0.0
 11
155.248
 21
163.041
 31
0.0
  0
LINE
  8
0
 62
     5
 10
155.248
 20
163.041
 30
0.0
 11
155.433
 21
162.974
 31
0.0
  0
LINE
  8
0
 62
     5
 10
155.433
 20
162.974
 30
0.0
 11
155.611
 21
162.891
 31
0.0
  0
LINE
  8
0
 62
     5
 10
155.611
 20
162.891
 30
0.0
 11
155.783
 21
162.796
 31
0.0
  0
LINE
  8
0
 62
     5
 10
155.783
 20
162.796
 30
0.0
 11
155.946
 21
162.687
 31
0.0
  0
LINE
  8
0
 62
     5
 10
155.946
 20
162.687
 30
0.0
 11
156.1
 21
162.566
 31
0.0
  0
LINE
  8
0
 62
     5
 10
156.1
 20
162.566
 30
0.0
 11
156.244
 21
162.432
 31
0.0
  0
LINE
  8
0
 62
     5
 10
156.244
 20
162.432
 30
0.0
 11
156.378
 21
162.287
 31
0.0
  0
LINE
  8
0
 62
     5
 10
156.378
 20
162.287
 30
0.0
 11
156.5
 21
162.133
 31
0.0
  0
LINE
  8
0
 62
     5
 10
156.5
 20
162.133
 30
0.0
 11
156.609
 21
161.971
 31
0.0
  0
LINE
  8
0
 62
     5
 10
156.609
 20
161.971
 30
0.0
 11
156.704
 21
161.798
 31
0.0
  0
LINE
  8
0
 62
     5
 10
156.704
 20
161.798
 30
0.0
 11
156.786
 21
161.621
 31
0.0
  0
LINE
  8
0
 62
     5
 10
156.786
 20
161.621
 30
0.0
 11
156.854
 21
161.436
 31
0.0
  0
LINE
  8
0
 62
     5
 10
156.854
 20
161.436
 30
0.0
 11
156.907
 21
161.247
 31
0.0
  0
LINE
  8
0
 62
     5
 10
156.907
 20
161.247
 30
0.0
 11
156.946
 21
161.055
 31
0.0
  0
LINE
  8
0
 62
     5
 10
156.946
 20
161.055
 30
0.0
 11
156.97
 21
160.86
 31
0.0
  0
LINE
  8
0
 62
     5
 10
156.97
 20
160.86
 30
0.0
 11
156.977
 21
160.664
 31
0.0
  0
LINE
  8
0
 62
     5
 10
156.977
 20
160.664
 30
0.0
 11
156.977
 21
2.60036
 31
0.0
  0
LINE
  8
0
 62
     5
 10
156.977
 20
2.60036
 30
0.0
 11
156.97
 21
2.40468
 31
0.0
  0
LINE
  8
0
 62
     5
 10
156.97
 20
2.40468
 30
0.0
 11
156.946
 21
2.209
 31
0.0
  0
LINE
  8
0
 62
     5
 10
156.946
 20
2.209
 30
0.0
 11
156.907
 21
2.01607
 31
0.0
  0
LINE
  8
0
 62
     5
 10
156.907
 20
2.01607
 30
0.0
 11
156.854
 21
1.82728
 31
0.0
  0
LINE
  8
0
 62
     5
 10
156.854
 20
1.82728
 30
0.0
 11
156.786
 21
1.644
 31
0.0
  0
LINE
  8
0
 62
     5
 10
156.786
 20
1.644
 30
0.0
 11
156.704
 21
1.46485
 31
0.0
  0
LINE
  8
0
 62
     5
 10
130.781
 20
10.6261
 30
0.0
 11
131.582
 21
10.6261
 31
0.0
  0
LINE
  8
0
 62
     5
 10
131.582
 20
10.6261
 30
0.0
 11
131.582
 21
13.7267
 31
0.0
  0
LINE
  8
0
 62
     5
 10
131.582
 20
13.7267
 30
0.0
 11
130.781
 21
13.7267
 31
0.0
  0
LINE
  8
0
 62
     5
 10
130.781
 20
13.7267
 30
0.0
 11
130.781
 21
14.3261
 31
0.0
  0
LINE
  8
0
 62
     5
 10
130.781
 20
14.3261
 30
0.0
 11
132.357
 21
14.3261
 31
0.0
  0
LINE
  8
0
 62
     5
 10
132.357
 20
14.3261
 30
0.0
 11
132.357
 21
9.85711
 31
0.0
  0
LINE
  8
0
 62
     5
 10
132.357
 20
9.85711
 30
0.0
 11
134.032
 21
9.85711
 31
0.0
  0
LINE
  8
0
 62
     5
 10
134.032
 20
9.85711
 30
0.0
 11
134.032
 21
8.65685
 31
0.0
  0
LINE
  8
0
 62
     5
 10
134.032
 20
8.65685
 30
0.0
 11
137.333
 21
8.65685
 31
0.0
  0
LINE
  8
0
 62
     5
 10
137.333
 20
8.65685
 30
0.0
 11
137.333
 21
9.85711
 31
0.0
  0
LINE
  8
0
 62
     5
 10
137.333
 20
9.85711
 30
0.0
 11
139.007
 21
9.85711
 31
0.0
  0
LINE
  8
0
 62
     5
 10
139.007
 20
9.85711
 30
0.0
 11
139.007
 21
16.1258
 31
0.0
  0
LINE
  8
0
 62
     5
 10
139.007
 20
16.1258
 30
0.0
 11
139.882
 21
16.1258
 31
0.0
  0
LINE
  8
0
 62
     5
 10
139.882
 20
16.1258
 30
0.0
 11
139.882
 21
18.926
 31
0.0
  0
LINE
  8
0
 62
     5
 10
139.882
 20
18.926
 30
0.0
 11
139.007
 21
18.926
 31
0.0
  0
LINE
  8
0
 62
     5
 10
139.007
 20
18.926
 30
0.0
 11
139.007
 21
22.1561
 31
0.0
  0
LINE
  8
0
 62
     5
 10
139.007
 20
22.1561
 30
0.0
 11
132.357
 21
22.1561
 31
0.0
  0
LINE
  8
0
 62
     5
 10
132.357
 20
22.1561
 30
0.0
 11
132.357
 21
18.926
 31
0.0
  0
LINE
  8
0
 62
     5
 10
132.357
 20
18.926
 30
0.0
 11
130.781
 21
18.926
 31
0.0
  0
LINE
  8
0
 62
     5
 10
130.781
 20
18.926
 30
0.0
 11
130.781
 21
19.5268
 31
0.0
  0
LINE
  8
0
 62
     5
 10
130.781
 20
19.5268
 30
0.0
 11
131.582
 21
19.5268
 31
0.0
  0
LINE
  8
0
 62
     5
 10
131.582
 20
19.5268
 30
0.0
 11
131.582
 21
22.626
 31
0.0
  0
LINE
  8
0
 62
     5
 10
131.582
 20
22.626
 30
0.0
 11
130.781
 21
22.626
 31
0.0
  0
LINE
  8
0
 62
     5
 10
130.781
 20
22.626
 30
0.0
 11
130.781
 21
23.6265
 31
0.0
  0
LINE
  8
0
 62
     5
 10
130.781
 20
23.6265
 30
0.0
 11
116.782
 21
23.6265
 31
0.0
  0
LINE
  8
0
 62
     5
 10
116.782
 20
23.6265
 30
0.0
 11
116.782
 21
22.626
 31
0.0
  0
LINE
  8
0
 62
     5
 10
116.782
 20
22.626
 30
0.0
 11
115.983
 21
22.626
 31
0.0
  0
LINE
  8
0
 62
     5
 10
115.983
 20
22.626
 30
0.0
 11
115.983
 21
19.5268
 31
0.0
  0
LINE
  8
0
 62
     5
 10
115.983
 20
19.5268
 30
0.0
 11
116.782
 21
19.5268
 31
0.0
  0
LINE
  8
0
 62
     5
 10
116.782
 20
19.5268
 30
0.0
 11
116.782
 21
18.926
 31
0.0
  0
LINE
  8
0
 62
     5
 10
116.782
 20
18.926
 30
0.0
 11
115.207
 21
18.926
 31
0.0
  0
LINE
  8
0
 62
     5
 10
115.207
 20
18.926
 30
0.0
 11
115.207
 21
22.1561
 31
0.0
  0
LINE
  8
0
 62
     5
 10
115.207
 20
22.1561
 30
0.0
 11
108.556
 21
22.1561
 31
0.0
  0
LINE
  8
0
 62
     5
 10
108.556
 20
22.1561
 30
0.0
 11
108.556
 21
18.926
 31
0.0
  0
LINE
  8
0
 62
     5
 10
108.556
 20
18.926
 30
0.0
 11
107.683
 21
18.926
 31
0.0
  0
LINE
  8
0
 62
     5
 10
107.683
 20
18.926
 30
0.0
 11
107.683
 21
16.1258
 31
0.0
  0
LINE
  8
0
 62
     5
 10
107.683
 20
16.1258
 30
0.0
 11
108.556
 21
16.1258
 31
0.0
  0
LINE
  8
0
 62
     5
 10
108.556
 20
16.1258
 30
0.0
 11
108.556
 21
9.85711
 31
0.0
  0
LINE
  8
0
 62
     5
 10
108.556
 20
9.85711
 30
0.0
 11
110.232
 21
9.85711
 31
0.0
  0
LINE
  8
0
 62
     5
 10
110.232
 20
9.85711
 30
0.0
 11
110.232
 21
8.65685
 31
0.0
  0
LINE
  8
0
 62
     5
 10
110.232
 20
8.65685
 30
0.0
 11
113.532
 21
8.65685
 31
0.0
  0
LINE
  8
0
 62
     5
 10
113.532
 20
8.65685
 30
0.0
 11
113.532
 21
9.85711
 31
0.0
  0
LINE
  8
0
 62
     5
 10
113.532
 20
9.85711
 30
0.0
 11
115.207
 21
9.85711
 31
0.0
  0
LINE
  8
0
 62
     5
 10
115.207
 20
9.85711
 30
0.0
 11
115.207
 21
14.3261
 31
0.0
  0
LINE
  8
0
 62
     5
 10
115.207
 20
14.3261
 30
0.0
 11
116.782
 21
14.3261
 31
0.0
  0
LINE
  8
0
 62
     5
 10
116.782
 20
14.3261
 30
0.0
 11
116.782
 21
13.7267
 31
0.0
  0
LINE
  8
0
 62
     5
 10
116.782
 20
13.7267
 30
0.0
 11
115.983
 21
13.7267
 31
0.0
  0
LINE
  8
0
 62
     5
 10
115.983
 20
13.7267
 30
0.0
 11
115.983
 21
10.6261
 31
0.0
  0
LINE
  8
0
 62
     5
 10
115.983
 20
10.6261
 30
0.0
 11
116.782
 21
10.6261
 31
0.0
  0
LINE
  8
0
 62
     5
 10
116.782
 20
10.6261
 30
0.0
 11
116.782
 21
9.62699
 31
0.0
  0
LINE
  8
0
 62
     5
 10
116.782
 20
9.62699
 30
0.0
 11
130.781
 21
9.62699
 31
0.0
  0
LINE
  8
0
 62
     5
 10
130.781
 20
9.62699
 30
0.0
 11
130.781
 21
10.6261
 31
0.0
  0
LINE
  8
0
 62
     5
 10
82.6438
 20
10.6261
 30
0.0
 11
83.4443
 21
10.6261
 31
0.0
  0
LINE
  8
0
 62
     5
 10
83.4443
 20
10.6261
 30
0.0
 11
83.4443
 21
9.62699
 31
0.0
  0
LINE
  8
0
 62
     5
 10
83.4443
 20
9.62699
 30
0.0
 11
97.4439
 21
9.62699
 31
0.0
  0
LINE
  8
0
 62
     5
 10
97.4439
 20
9.62699
 30
0.0
 11
97.4439
 21
10.6261
 31
0.0
  0
LINE
  8
0
 62
     5
 10
97.4439
 20
10.6261
 30
0.0
 11
98.2444
 21
10.6261
 31
0.0
  0
LINE
  8
0
 62
     5
 10
98.2444
 20
10.6261
 30
0.0
 11
98.2444
 21
13.7267
 31
0.0
  0
LINE
  8
0
 62
     5
 10
98.2444
 20
13.7267
 30
0.0
 11
97.4439
 21
13.7267
 31
0.0
  0
LINE
  8
0
 62
     5
 10
97.4439
 20
13.7267
 30
0.0
 11
97.4439
 21
19.5268
 31
0.0
  0
LINE
  8
0
 62
     5
 10
97.4439
 20
19.5268
 30
0.0
 11
98.2444
 21
19.5268
 31
0.0
  0
LINE
  8
0
 62
     5
 10
98.2444
 20
19.5268
 30
0.0
 11
98.2444
 21
22.626
 31
0.0
  0
LINE
  8
0
 62
     5
 10
98.2444
 20
22.626
 30
0.0
 11
97.4439
 21
22.626
 31
0.0
  0
LINE
  8
0
 62
     5
 10
97.4439
 20
22.626
 30
0.0
 11
97.4439
 21
23.6265
 31
0.0
  0
LINE
  8
0
 62
     5
 10
97.4439
 20
23.6265
 30
0.0
 11
83.4443
 21
23.6265
 31
0.0
  0
LINE
  8
0
 62
     5
 10
83.4443
 20
23.6265
 30
0.0
 11
83.4443
 21
22.626
 31
0.0
  0
LINE
  8
0
 62
     5
 10
83.4443
 20
22.626
 30
0.0
 11
82.6438
 21
22.626
 31
0.0
  0
LINE
  8
0
 62
     5
 10
82.6438
 20
22.626
 30
0.0
 11
82.6438
 21
19.5268
 31
0.0
  0
LINE
  8
0
 62
     5
 10
82.6438
 20
19.5268
 30
0.0
 11
83.4443
 21
19.5268
 31
0.0
  0
LINE
  8
0
 62
     5
 10
83.4443
 20
19.5268
 30
0.0
 11
83.4443
 21
13.7267
 31
0.0
  0
LINE
  8
0
 62
     5
 10
83.4443
 20
13.7267
 30
0.0
 11
82.6438
 21
13.7267
 31
0.0
  0
LINE
  8
0
 62
     5
 10
82.6438
 20
13.7267
 30
0.0
 11
82.6438
 21
10.6261
 31
0.0
  0
LINE
  8
0
 62
     5
 10
11.2076
 20
10.6261
 30
0.0
 11
12.0069
 21
10.6261
 31
0.0
  0
LINE
  8
0
 62
     5
 10
12.0069
 20
10.6261
 30
0.0
 11
12.0069
 21
9.62699
 31
0.0
  0
LINE
  8
0
 62
     5
 10
12.0069
 20
9.62699
 30
0.0
 11
26.0064
 21
9.62699
 31
0.0
  0
LINE
  8
0
 62
     5
 10
26.0064
 20
9.62699
 30
0.0
 11
26.0064
 21
10.6261
 31
0.0
  0
LINE
  8
0
 62
     5
 10
26.0064
 20
10.6261
 30
0.0
 11
26.807
 21
10.6261
 31
0.0
  0
LINE
  8
0
 62
     5
 10
26.807
 20
10.6261
 30
0.0
 11
26.807
 21
13.7267
 31
0.0
  0
LINE
  8
0
 62
     5
 10
26.807
 20
13.7267
 30
0.0
 11
26.0064
 21
13.7267
 31
0.0
  0
LINE
  8
0
 62
     5
 10
26.0064
 20
13.7267
 30
0.0
 11
26.0064
 21
19.5268
 31
0.0
  0
LINE
  8
0
 62
     5
 10
26.0064
 20
19.5268
 30
0.0
 11
26.807
 21
19.5268
 31
0.0
  0
LINE
  8
0
 62
     5
 10
26.807
 20
19.5268
 30
0.0
 11
26.807
 21
22.626
 31
0.0
  0
LINE
  8
0
 62
     5
 10
26.807
 20
22.626
 30
0.0
 11
26.0064
 21
22.626
 31
0.0
  0
LINE
  8
0
 62
     5
 10
26.0064
 20
22.626
 30
0.0
 11
26.0064
 21
23.6265
 31
0.0
  0
LINE
  8
0
 62
     5
 10
26.0064
 20
23.6265
 30
0.0
 11
12.0069
 21
23.6265
 31
0.0
  0
LINE
  8
0
 62
     5
 10
12.0069
 20
23.6265
 30
0.0
 11
12.0069
 21
22.626
 31
0.0
  0
LINE
  8
0
 62
     5
 10
12.0069
 20
22.626
 30
0.0
 11
11.2076
 21
22.626
 31
0.0
  0
LINE
  8
0
 62
     5
 10
11.2076
 20
22.626
 30
0.0
 11
11.2076
 21
19.5268
 31
0.0
  0
LINE
  8
0
 62
     5
 10
11.2076
 20
19.5268
 30
0.0
 11
12.0069
 21
19.5268
 31
0.0
  0
LINE
  8
0
 62
     5
 10
12.0069
 20
19.5268
 30
0.0
 11
12.0069
 21
13.7267
 31
0.0
  0
LINE
  8
0
 62
     5
 10
12.0069
 20
13.7267
 30
0.0
 11
11.2076
 21
13.7267
 31
0.0
  0
LINE
  8
0
 62
     5
 10
11.2076
 20
13.7267
 30
0.0
 11
11.2076
 21
10.6261
 31
0.0
  0
LINE
  8
0
 62
     5
 10
35.0187
 20
10.6261
 30
0.0
 11
35.8193
 21
10.6261
 31
0.0
  0
LINE
  8
0
 62
     5
 10
35.8193
 20
10.6261
 30
0.0
 11
35.8193
 21
9.62699
 31
0.0
  0
LINE
  8
0
 62
     5
 10
35.8193
 20
9.62699
 30
0.0
 11
49.8189
 21
9.62699
 31
0.0
  0
LINE
  8
0
 62
     5
 10
49.8189
 20
9.62699
 30
0.0
 11
49.8189
 21
10.6261
 31
0.0
  0
LINE
  8
0
 62
     5
 10
49.8189
 20
10.6261
 30
0.0
 11
50.6194
 21
10.6261
 31
0.0
  0
LINE
  8
0
 62
     5
 10
50.6194
 20
10.6261
 30
0.0
 11
50.6194
 21
13.7267
 31
0.0
  0
LINE
  8
0
 62
     5
 10
50.6194
 20
13.7267
 30
0.0
 11
49.8189
 21
13.7267
 31
0.0
  0
LINE
  8
0
 62
     5
 10
49.8189
 20
13.7267
 30
0.0
 11
49.8189
 21
19.5268
 31
0.0
  0
LINE
  8
0
 62
     5
 10
49.8189
 20
19.5268
 30
0.0
 11
50.6194
 21
19.5268
 31
0.0
  0
LINE
  8
0
 62
     5
 10
50.6194
 20
19.5268
 30
0.0
 11
50.6194
 21
22.626
 31
0.0
  0
LINE
  8
0
 62
     5
 10
50.6194
 20
22.626
 30
0.0
 11
49.8189
 21
22.626
 31
0.0
  0
LINE
  8
0
 62
     5
 10
49.8189
 20
22.626
 30
0.0
 11
49.8189
 21
23.6265
 31
0.0
  0
LINE
  8
0
 62
     5
 10
49.8189
 20
23.6265
 30
0.0
 11
35.8193
 21
23.6265
 31
0.0
  0
LINE
  8
0
 62
     5
 10
35.8193
 20
23.6265
 30
0.0
 11
35.8193
 21
22.626
 31
0.0
  0
LINE
  8
0
 62
     5
 10
35.8193
 20
22.626
 30
0.0
 11
35.0187
 21
22.626
 31
0.0
  0
LINE
  8
0
 62
     5
 10
35.0187
 20
22.626
 30
0.0
 11
35.0187
 21
19.5268
 31
0.0
  0
LINE
  8
0
 62
     5
 10
35.0187
 20
19.5268
 30
0.0
 11
35.8193
 21
19.5268
 31
0.0
  0
LINE
  8
0
 62
     5
 10
35.8193
 20
19.5268
 30
0.0
 11
35.8193
 21
13.7267
 31
0.0
  0
LINE
  8
0
 62
     5
 10
35.8193
 20
13.7267
 30
0.0
 11
35.0187
 21
13.7267
 31
0.0
  0
LINE
  8
0
 62
     5
 10
35.0187
 20
13.7267
 30
0.0
 11
35.0187
 21
10.6261
 31
0.0
  0
LINE
  8
0
 62
     5
 10
58.8328
 20
10.6261
 30
0.0
 11
59.6318
 21
10.6261
 31
0.0
  0
LINE
  8
0
 62
     5
 10
59.6318
 20
10.6261
 30
0.0
 11
59.6318
 21
9.62699
 31
0.0
  0
LINE
  8
0
 62
     5
 10
59.6318
 20
9.62699
 30
0.0
 11
73.6314
 21
9.62699
 31
0.0
  0
LINE
  8
0
 62
     5
 10
73.6314
 20
9.62699
 30
0.0
 11
73.6314
 21
10.6261
 31
0.0
  0
LINE
  8
0
 62
     5
 10
73.6314
 20
10.6261
 30
0.0
 11
74.4319
 21
10.6261
 31
0.0
  0
LINE
  8
0
 62
     5
 10
74.4319
 20
10.6261
 30
0.0
 11
74.4319
 21
13.7267
 31
0.0
  0
LINE
  8
0
 62
     5
 10
74.4319
 20
13.7267
 30
0.0
 11
73.6314
 21
13.7267
 31
0.0
  0
LINE
  8
0
 62
     5
 10
73.6314
 20
13.7267
 30
0.0
 11
73.6314
 21
19.5268
 31
0.0
  0
LINE
  8
0
 62
     5
 10
73.6314
 20
19.5268
 30
0.0
 11
74.4319
 21
19.5268
 31
0.0
  0
LINE
  8
0
 62
     5
 10
74.4319
 20
19.5268
 30
0.0
 11
74.4319
 21
22.626
 31
0.0
  0
LINE
  8
0
 62
     5
 10
74.4319
 20
22.626
 30
0.0
 11
73.6314
 21
22.626
 31
0.0
  0
LINE
  8
0
 62
     5
 10
73.6314
 20
22.626
 30
0.0
 11
73.6314
 21
23.6265
 31
0.0
  0
LINE
  8
0
 62
     5
 10
73.6314
 20
23.6265
 30
0.0
 11
59.6318
 21
23.6265
 31
0.0
  0
LINE
  8
0
 62
     5
 10
59.6318
 20
23.6265
 30
0.0
 11
59.6318
 21
22.626
 31
0.0
  0
LINE
  8
0
 62
     5
 10
59.6318
 20
22.626
 30
0.0
 11
58.8328
 21
22.626
 31
0.0
  0
LINE
  8
0
 62
     5
 10
58.8328
 20
22.626
 30
0.0
 11
58.8328
 21
19.5268
 31
0.0
  0
LINE
  8
0
 62
     5
 10
58.8328
 20
19.5268
 30
0.0
 11
59.6318
 21
19.5268
 31
0.0
  0
LINE
  8
0
 62
     5
 10
59.6318
 20
19.5268
 30
0.0
 11
59.6318
 21
13.7267
 31
0.0
  0
LINE
  8
0
 62
     5
 10
59.6318
 20
13.7267
 30
0.0
 11
58.8328
 21
13.7267
 31
0.0
  0
LINE
  8
0
 62
     5
 10
58.8328
 20
13.7267
 30
0.0
 11
58.8328
 21
10.6261
 31
0.0
  0
LINE
  8
0
 62
     5
 10
11.2076
 20
29.6761
 30
0.0
 11
12.0069
 21
29.6761
 31
0.0
  0
LINE
  8
0
 62
     5
 10
12.0069
 20
29.6761
 30
0.0
 11
12.0069
 21
28.677
 31
0.0
  0
LINE
  8
0
 62
     5
 10
12.0069
 20
28.677
 30
0.0
 11
26.0064
 21
28.677
 31
0.0
  0
LINE
  8
0
 62
     5
 10
26.0064
 20
28.677
 30
0.0
 11
26.0064
 21
29.6761
 31
0.0
  0
LINE
  8
0
 62
     5
 10
26.0064
 20
29.6761
 30
0.0
 11
26.807
 21
29.6761
 31
0.0
  0
LINE
  8
0
 62
     5
 10
26.807
 20
29.6761
 30
0.0
 11
26.807
 21
32.7767
 31
0.0
  0
LINE
  8
0
 62
     5
 10
26.807
 20
32.7767
 30
0.0
 11
26.0064
 21
32.7767
 31
0.0
  0
LINE
  8
0
 62
     5
 10
26.0064
 20
32.7767
 30
0.0
 11
26.0064
 21
38.577
 31
0.0
  0
LINE
  8
0
 62
     5
 10
26.0064
 20
38.577
 30
0.0
 11
26.807
 21
38.577
 31
0.0
  0
LINE
  8
0
 62
     5
 10
26.807
 20
38.577
 30
0.0
 11
26.807
 21
41.6761
 31
0.0
  0
LINE
  8
0
 62
     5
 10
26.807
 20
41.6761
 30
0.0
 11
26.0064
 21
41.6761
 31
0.0
  0
LINE
  8
0
 62
     5
 10
26.0064
 20
41.6761
 30
0.0
 11
26.0064
 21
42.6766
 31
0.0
  0
LINE
  8
0
 62
     5
 10
26.0064
 20
42.6766
 30
0.0
 11
12.0069
 21
42.6766
 31
0.0
  0
LINE
  8
0
 62
     5
 10
12.0069
 20
42.6766
 30
0.0
 11
12.0069
 21
41.6761
 31
0.0
  0
LINE
  8
0
 62
     5
 10
12.0069
 20
41.6761
 30
0.0
 11
11.2076
 21
41.6761
 31
0.0
  0
LINE
  8
0
 62
     5
 10
11.2076
 20
41.6761
 30
0.0
 11
11.2076
 21
38.577
 31
0.0
  0
LINE
  8
0
 62
     5
 10
11.2076
 20
38.577
 30
0.0
 11
12.0069
 21
38.577
 31
0.0
  0
LINE
  8
0
 62
     5
 10
12.0069
 20
38.577
 30
0.0
 11
12.0069
 21
32.7767
 31
0.0
  0
LINE
  8
0
 62
     5
 10
12.0069
 20
32.7767
 30
0.0
 11
11.2076
 21
32.7767
 31
0.0
  0
LINE
  8
0
 62
     5
 10
11.2076
 20
32.7767
 30
0.0
 11
11.2076
 21
29.6761
 31
0.0
  0
LINE
  8
0
 62
     5
 10
32.6374
 20
29.6761
 30
0.0
 11
33.4381
 21
29.6761
 31
0.0
  0
LINE
  8
0
 62
     5
 10
33.4381
 20
29.6761
 30
0.0
 11
33.4381
 21
28.677
 31
0.0
  0
LINE
  8
0
 62
     5
 10
33.4381
 20
28.677
 30
0.0
 11
47.4377
 21
28.677
 31
0.0
  0
LINE
  8
0
 62
     5
 10
47.4377
 20
28.677
 30
0.0
 11
47.4377
 21
29.6761
 31
0.0
  0
LINE
  8
0
 62
     5
 10
47.4377
 20
29.6761
 30
0.0
 11
48.2381
 21
29.6761
 31
0.0
  0
LINE
  8
0
 62
     5
 10
48.2381
 20
29.6761
 30
0.0
 11
48.2381
 21
32.7767
 31
0.0
  0
LINE
  8
0
 62
     5
 10
48.2381
 20
32.7767
 30
0.0
 11
47.4377
 21
32.7767
 31
0.0
  0
LINE
  8
0
 62
     5
 10
47.4377
 20
32.7767
 30
0.0
 11
47.4377
 21
38.577
 31
0.0
  0
LINE
  8
0
 62
     5
 10
47.4377
 20
38.577
 30
0.0
 11
48.2381
 21
38.577
 31
0.0
  0
LINE
  8
0
 62
     5
 10
48.2381
 20
38.577
 30
0.0
 11
48.2381
 21
41.6761
 31
0.0
  0
LINE
  8
0
 62
     5
 10
48.2381
 20
41.6761
 30
0.0
 11
47.4377
 21
41.6761
 31
0.0
  0
LINE
  8
0
 62
     5
 10
47.4377
 20
41.6761
 30
0.0
 11
47.4377
 21
42.6766
 31
0.0
  0
LINE
  8
0
 62
     5
 10
47.4377
 20
42.6766
 30
0.0
 11
33.4381
 21
42.6766
 31
0.0
  0
LINE
  8
0
 62
     5
 10
33.4381
 20
42.6766
 30
0.0
 11
33.4381
 21
41.6761
 31
0.0
  0
LINE
  8
0
 62
     5
 10
33.4381
 20
41.6761
 30
0.0
 11
32.6374
 21
41.6761
 31
0.0
  0
LINE
  8
0
 62
     5
 10
32.6374
 20
41.6761
 30
0.0
 11
32.6374
 21
38.577
 31
0.0
  0
LINE
  8
0
 62
     5
 10
32.6374
 20
38.577
 30
0.0
 11
33.4381
 21
38.577
 31
0.0
  0
LINE
  8
0
 62
     5
 10
33.4381
 20
38.577
 30
0.0
 11
33.4381
 21
32.7767
 31
0.0
  0
LINE
  8
0
 62
     5
 10
33.4381
 20
32.7767
 30
0.0
 11
32.6374
 21
32.7767
 31
0.0
  0
LINE
  8
0
 62
     5
 10
32.6374
 20
32.7767
 30
0.0
 11
32.6374
 21
29.6761
 31
0.0
  0
LINE
  8
0
 62
     5
 10
51.6876
 20
29.6761
 30
0.0
 11
52.488
 21
29.6761
 31
0.0
  0
LINE
  8
0
 62
     5
 10
52.488
 20
29.6761
 30
0.0
 11
52.488
 21
28.677
 31
0.0
  0
LINE
  8
0
 62
     5
 10
52.488
 20
28.677
 30
0.0
 11
66.4877
 21
28.677
 31
0.0
  0
LINE
  8
0
 62
     5
 10
66.4877
 20
28.677
 30
0.0
 11
66.4877
 21
29.6761
 31
0.0
  0
LINE
  8
0
 62
     5
 10
66.4877
 20
29.6761
 30
0.0
 11
67.2881
 21
29.6761
 31
0.0
  0
LINE
  8
0
 62
     5
 10
67.2881
 20
29.6761
 30
0.0
 11
67.2881
 21
32.7767
 31
0.0
  0
LINE
  8
0
 62
     5
 10
67.2881
 20
32.7767
 30
0.0
 11
66.4877
 21
32.7767
 31
0.0
  0
LINE
  8
0
 62
     5
 10
66.4877
 20
32.7767
 30
0.0
 11
66.4877
 21
38.577
 31
0.0
  0
LINE
  8
0
 62
     5
 10
66.4877
 20
38.577
 30
0.0
 11
67.2881
 21
38.577
 31
0.0
  0
LINE
  8
0
 62
     5
 10
67.2881
 20
38.577
 30
0.0
 11
67.2881
 21
41.6761
 31
0.0
  0
LINE
  8
0
 62
     5
 10
67.2881
 20
41.6761
 30
0.0
 11
66.4877
 21
41.6761
 31
0.0
  0
LINE
  8
0
 62
     5
 10
66.4877
 20
41.6761
 30
0.0
 11
66.4877
 21
42.6766
 31
0.0
  0
LINE
  8
0
 62
     5
 10
66.4877
 20
42.6766
 30
0.0
 11
52.488
 21
42.6766
 31
0.0
  0
LINE
  8
0
 62
     5
 10
52.488
 20
42.6766
 30
0.0
 11
52.488
 21
41.6761
 31
0.0
  0
LINE
  8
0
 62
     5
 10
52.488
 20
41.6761
 30
0.0
 11
51.6876
 21
41.6761
 31
0.0
  0
LINE
  8
0
 62
     5
 10
51.6876
 20
41.6761
 30
0.0
 11
51.6876
 21
38.577
 31
0.0
  0
LINE
  8
0
 62
     5
 10
51.6876
 20
38.577
 30
0.0
 11
52.488
 21
38.577
 31
0.0
  0
LINE
  8
0
 62
     5
 10
52.488
 20
38.577
 30
0.0
 11
52.488
 21
32.7767
 31
0.0
  0
LINE
  8
0
 62
     5
 10
52.488
 20
32.7767
 30
0.0
 11
51.6876
 21
32.7767
 31
0.0
  0
LINE
  8
0
 62
     5
 10
51.6876
 20
32.7767
 30
0.0
 11
51.6876
 21
29.6761
 31
0.0
  0
LINE
  8
0
 62
     5
 10
70.7376
 20
29.6761
 30
0.0
 11
71.538
 21
29.6761
 31
0.0
  0
LINE
  8
0
 62
     5
 10
71.538
 20
29.6761
 30
0.0
 11
71.538
 21
28.677
 31
0.0
  0
LINE
  8
0
 62
     5
 10
71.538
 20
28.677
 30
0.0
 11
85.5377
 21
28.677
 31
0.0
  0
LINE
  8
0
 62
     5
 10
85.5377
 20
28.677
 30
0.0
 11
85.5377
 21
29.6761
 31
0.0
  0
LINE
  8
0
 62
     5
 10
85.5377
 20
29.6761
 30
0.0
 11
86.3381
 21
29.6761
 31
0.0
  0
LINE
  8
0
 62
     5
 10
86.3381
 20
29.6761
 30
0.0
 11
86.3381
 21
32.7767
 31
0.0
  0
LINE
  8
0
 62
     5
 10
86.3381
 20
32.7767
 30
0.0
 11
85.5377
 21
32.7767
 31
0.0
  0
LINE
  8
0
 62
     5
 10
85.5377
 20
32.7767
 30
0.0
 11
85.5377
 21
38.577
 31
0.0
  0
LINE
  8
0
 62
     5
 10
85.5377
 20
38.577
 30
0.0
 11
86.3381
 21
38.577
 31
0.0
  0
LINE
  8
0
 62
     5
 10
86.3381
 20
38.577
 30
0.0
 11
86.3381
 21
41.6761
 31
0.0
  0
LINE
  8
0
 62
     5
 10
86.3381
 20
41.6761
 30
0.0
 11
85.5377
 21
41.6761
 31
0.0
  0
LINE
  8
0
 62
     5
 10
85.5377
 20
41.6761
 30
0.0
 11
85.5377
 21
42.6766
 31
0.0
  0
LINE
  8
0
 62
     5
 10
85.5377
 20
42.6766
 30
0.0
 11
71.538
 21
42.6766
 31
0.0
  0
LINE
  8
0
 62
     5
 10
71.538
 20
42.6766
 30
0.0
 11
71.538
 21
41.6761
 31
0.0
  0
LINE
  8
0
 62
     5
 10
71.538
 20
41.6761
 30
0.0
 11
70.7376
 21
41.6761
 31
0.0
  0
LINE
  8
0
 62
     5
 10
70.7376
 20
41.6761
 30
0.0
 11
70.7376
 21
38.577
 31
0.0
  0
LINE
  8
0
 62
     5
 10
70.7376
 20
38.577
 30
0.0
 11
71.538
 21
38.577
 31
0.0
  0
LINE
  8
0
 62
     5
 10
71.538
 20
38.577
 30
0.0
 11
71.538
 21
32.7767
 31
0.0
  0
LINE
  8
0
 62
     5
 10
71.538
 20
32.7767
 30
0.0
 11
70.7376
 21
32.7767
 31
0.0
  0
LINE
  8
0
 62
     5
 10
70.7376
 20
32.7767
 30
0.0
 11
70.7376
 21
29.6761
 31
0.0
  0
LINE
  8
0
 62
     5
 10
89.7876
 20
29.6761
 30
0.0
 11
90.588
 21
29.6761
 31
0.0
  0
LINE
  8
0
 62
     5
 10
90.588
 20
29.6761
 30
0.0
 11
90.588
 21
28.677
 31
0.0
  0
LINE
  8
0
 62
     5
 10
90.588
 20
28.677
 30
0.0
 11
104.588
 21
28.677
 31
0.0
  0
LINE
  8
0
 62
     5
 10
104.588
 20
28.677
 30
0.0
 11
104.588
 21
29.6761
 31
0.0
  0
LINE
  8
0
 62
     5
 10
104.588
 20
29.6761
 30
0.0
 11
105.388
 21
29.6761
 31
0.0
  0
LINE
  8
0
 62
     5
 10
105.388
 20
29.6761
 30
0.0
 11
105.388
 21
32.7767
 31
0.0
  0
LINE
  8
0
 62
     5
 10
105.388
 20
32.7767
 30
0.0
 11
104.588
 21
32.7767
 31
0.0
  0
LINE
  8
0
 62
     5
 10
104.588
 20
32.7767
 30
0.0
 11
104.588
 21
38.577
 31
0.0
  0
LINE
  8
0
 62
     5
 10
104.588
 20
38.577
 30
0.0
 11
105.388
 21
38.577
 31
0.0
  0
LINE
  8
0
 62
     5
 10
105.388
 20
38.577
 30
0.0
 11
105.388
 21
41.6761
 31
0.0
  0
LINE
  8
0
 62
     5
 10
105.388
 20
41.6761
 30
0.0
 11
104.588
 21
41.6761
 31
0.0
  0
LINE
  8
0
 62
     5
 10
104.588
 20
41.6761
 30
0.0
 11
104.588
 21
42.6766
 31
0.0
  0
LINE
  8
0
 62
     5
 10
104.588
 20
42.6766
 30
0.0
 11
90.588
 21
42.6766
 31
0.0
  0
LINE
  8
0
 62
     5
 10
90.588
 20
42.6766
 30
0.0
 11
90.588
 21
41.6761
 31
0.0
  0
LINE
  8
0
 62
     5
 10
90.588
 20
41.6761
 30
0.0
 11
89.7876
 21
41.6761
 31
0.0
  0
LINE
  8
0
 62
     5
 10
89.7876
 20
41.6761
 30
0.0
 11
89.7876
 21
38.577
 31
0.0
  0
LINE
  8
0
 62
     5
 10
89.7876
 20
38.577
 30
0.0
 11
90.588
 21
38.577
 31
0.0
  0
LINE
  8
0
 62
     5
 10
90.588
 20
38.577
 30
0.0
 11
90.588
 21
32.7767
 31
0.0
  0
LINE
  8
0
 62
     5
 10
90.588
 20
32.7767
 30
0.0
 11
89.7876
 21
32.7767
 31
0.0
  0
LINE
  8
0
 62
     5
 10
89.7876
 20
32.7767
 30
0.0
 11
89.7876
 21
29.6761
 31
0.0
  0
LINE
  8
0
 62
     5
 10
108.838
 20
29.6761
 30
0.0
 11
109.638
 21
29.6761
 31
0.0
  0
LINE
  8
0
 62
     5
 10
109.638
 20
29.6761
 30
0.0
 11
109.638
 21
28.677
 31
0.0
  0
LINE
  8
0
 62
     5
 10
109.638
 20
28.677
 30
0.0
 11
123.638
 21
28.677
 31
0.0
  0
LINE
  8
0
 62
     5
 10
123.638
 20
28.677
 30
0.0
 11
123.638
 21
29.6761
 31
0.0
  0
LINE
  8
0
 62
     5
 10
123.638
 20
29.6761
 30
0.0
 11
124.437
 21
29.6761
 31
0.0
  0
LINE
  8
0
 62
     5
 10
124.437
 20
29.6761
 30
0.0
 11
124.437
 21
32.7767
 31
0.0
  0
LINE
  8
0
 62
     5
 10
124.437
 20
32.7767
 30
0.0
 11
123.638
 21
32.7767
 31
0.0
  0
LINE
  8
0
 62
     5
 10
123.638
 20
32.7767
 30
0.0
 11
123.638
 21
38.577
 31
0.0
  0
LINE
  8
0
 62
     5
 10
123.638
 20
38.577
 30
0.0
 11
124.437
 21
38.577
 31
0.0
  0
LINE
  8
0
 62
     5
 10
124.437
 20
38.577
 30
0.0
 11
124.437
 21
41.6761
 31
0.0
  0
LINE
  8
0
 62
     5
 10
124.437
 20
41.6761
 30
0.0
 11
123.638
 21
41.6761
 31
0.0
  0
LINE
  8
0
 62
     5
 10
123.638
 20
41.6761
 30
0.0
 11
123.638
 21
42.6766
 31
0.0
  0
LINE
  8
0
 62
     5
 10
123.638
 20
42.6766
 30
0.0
 11
109.638
 21
42.6766
 31
0.0
  0
LINE
  8
0
 62
     5
 10
109.638
 20
42.6766
 30
0.0
 11
109.638
 21
41.6761
 31
0.0
  0
LINE
  8
0
 62
     5
 10
109.638
 20
41.6761
 30
0.0
 11
108.838
 21
41.6761
 31
0.0
  0
LINE
  8
0
 62
     5
 10
108.838
 20
41.6761
 30
0.0
 11
108.838
 21
38.577
 31
0.0
  0
LINE
  8
0
 62
     5
 10
108.838
 20
38.577
 30
0.0
 11
109.638
 21
38.577
 31
0.0
  0
LINE
  8
0
 62
     5
 10
109.638
 20
38.577
 30
0.0
 11
109.638
 21
32.7767
 31
0.0
  0
LINE
  8
0
 62
     5
 10
109.638
 20
32.7767
 30
0.0
 11
108.838
 21
32.7767
 31
0.0
  0
LINE
  8
0
 62
     5
 10
108.838
 20
32.7767
 30
0.0
 11
108.838
 21
29.6761
 31
0.0
  0
LINE
  8
0
 62
     5
 10
127.888
 20
29.6761
 30
0.0
 11
128.688
 21
29.6761
 31
0.0
  0
LINE
  8
0
 62
     5
 10
128.688
 20
29.6761
 30
0.0
 11
128.688
 21
28.677
 31
0.0
  0
LINE
  8
0
 62
     5
 10
128.688
 20
28.677
 30
0.0
 11
142.688
 21
28.677
 31
0.0
  0
LINE
  8
0
 62
     5
 10
142.688
 20
28.677
 30
0.0
 11
142.688
 21
29.6761
 31
0.0
  0
LINE
  8
0
 62
     5
 10
142.688
 20
29.6761
 30
0.0
 11
143.488
 21
29.6761
 31
0.0
  0
LINE
  8
0
 62
     5
 10
143.488
 20
29.6761
 30
0.0
 11
143.488
 21
32.7767
 31
0.0
  0
LINE
  8
0
 62
     5
 10
143.488
 20
32.7767
 30
0.0
 11
142.688
 21
32.7767
 31
0.0
  0
LINE
  8
0
 62
     5
 10
142.688
 20
32.7767
 30
0.0
 11
142.688
 21
38.577
 31
0.0
  0
LINE
  8
0
 62
     5
 10
142.688
 20
38.577
 30
0.0
 11
143.488
 21
38.577
 31
0.0
  0
LINE
  8
0
 62
     5
 10
143.488
 20
38.577
 30
0.0
 11
143.488
 21
41.6761
 31
0.0
  0
LINE
  8
0
 62
     5
 10
143.488
 20
41.6761
 30
0.0
 11
142.688
 21
41.6761
 31
0.0
  0
LINE
  8
0
 62
     5
 10
142.688
 20
41.6761
 30
0.0
 11
142.688
 21
42.6766
 31
0.0
  0
LINE
  8
0
 62
     5
 10
142.688
 20
42.6766
 30
0.0
 11
128.688
 21
42.6766
 31
0.0
  0
LINE
  8
0
 62
     5
 10
128.688
 20
42.6766
 30
0.0
 11
128.688
 21
41.6761
 31
0.0
  0
LINE
  8
0
 62
     5
 10
128.688
 20
41.6761
 30
0.0
 11
127.888
 21
41.6761
 31
0.0
  0
LINE
  8
0
 62
     5
 10
127.888
 20
41.6761
 30
0.0
 11
127.888
 21
38.577
 31
0.0
  0
LINE
  8
0
 62
     5
 10
127.888
 20
38.577
 30
0.0
 11
128.688
 21
38.577
 31
0.0
  0
LINE
  8
0
 62
     5
 10
128.688
 20
38.577
 30
0.0
 11
128.688
 21
32.7767
 31
0.0
  0
LINE
  8
0
 62
     5
 10
128.688
 20
32.7767
 30
0.0
 11
127.888
 21
32.7767
 31
0.0
  0
LINE
  8
0
 62
     5
 10
127.888
 20
32.7767
 30
0.0
 11
127.888
 21
29.6761
 31
0.0
  0
LINE
  8
0
 62
     5
 10
15.9687
 20
48.726
 30
0.0
 11
16.7694
 21
48.726
 31
0.0
  0
LINE
  8
0
 62
     5
 10
16.7694
 20
48.726
 30
0.0
 11
16.7694
 21
47.727
 31
0.0
  0
LINE
  8
0
 62
     5
 10
16.7694
 20
47.727
 30
0.0
 11
30.7689
 21
47.727
 31
0.0
  0
LINE
  8
0
 62
     5
 10
30.7689
 20
47.727
 30
0.0
 11
30.7689
 21
48.726
 31
0.0
  0
LINE
  8
0
 62
     5
 10
30.7689
 20
48.726
 30
0.0
 11
31.5695
 21
48.726
 31
0.0
  0
LINE
  8
0
 62
     5
 10
31.5695
 20
48.726
 30
0.0
 11
31.5695
 21
51.8266
 31
0.0
  0
LINE
  8
0
 62
     5
 10
31.5695
 20
51.8266
 30
0.0
 11
30.7689
 21
51.8266
 31
0.0
  0
LINE
  8
0
 62
     5
 10
30.7689
 20
51.8266
 30
0.0
 11
30.7689
 21
57.627
 31
0.0
  0
LINE
  8
0
 62
     5
 10
30.7689
 20
57.627
 30
0.0
 11
31.5695
 21
57.627
 31
0.0
  0
LINE
  8
0
 62
     5
 10
31.5695
 20
57.627
 30
0.0
 11
31.5695
 21
60.7261
 31
0.0
  0
LINE
  8
0
 62
     5
 10
31.5695
 20
60.7261
 30
0.0
 11
30.7689
 21
60.7261
 31
0.0
  0
LINE
  8
0
 62
     5
 10
30.7689
 20
60.7261
 30
0.0
 11
30.7689
 21
61.7266
 31
0.0
  0
LINE
  8
0
 62
     5
 10
30.7689
 20
61.7266
 30
0.0
 11
16.7694
 21
61.7266
 31
0.0
  0
LINE
  8
0
 62
     5
 10
16.7694
 20
61.7266
 30
0.0
 11
16.7694
 21
60.7261
 31
0.0
  0
LINE
  8
0
 62
     5
 10
16.7694
 20
60.7261
 30
0.0
 11
15.9687
 21
60.7261
 31
0.0
  0
LINE
  8
0
 62
     5
 10
15.9687
 20
60.7261
 30
0.0
 11
15.9687
 21
57.627
 31
0.0
  0
LINE
  8
0
 62
     5
 10
15.9687
 20
57.627
 30
0.0
 11
16.7694
 21
57.627
 31
0.0
  0
LINE
  8
0
 62
     5
 10
16.7694
 20
57.627
 30
0.0
 11
16.7694
 21
51.8266
 31
0.0
  0
LINE
  8
0
 62
     5
 10
16.7694
 20
51.8266
 30
0.0
 11
15.9687
 21
51.8266
 31
0.0
  0
LINE
  8
0
 62
     5
 10
15.9687
 20
51.8266
 30
0.0
 11
15.9687
 21
48.726
 31
0.0
  0
LINE
  8
0
 62
     5
 10
42.1626
 20
48.726
 30
0.0
 11
42.963
 21
48.726
 31
0.0
  0
LINE
  8
0
 62
     5
 10
42.963
 20
48.726
 30
0.0
 11
42.963
 21
47.727
 31
0.0
  0
LINE
  8
0
 62
     5
 10
42.963
 20
47.727
 30
0.0
 11
56.9627
 21
47.727
 31
0.0
  0
LINE
  8
0
 62
     5
 10
56.9627
 20
47.727
 30
0.0
 11
56.9627
 21
48.726
 31
0.0
  0
LINE
  8
0
 62
     5
 10
56.9627
 20
48.726
 30
0.0
 11
57.7631
 21
48.726
 31
0.0
  0
LINE
  8
0
 62
     5
 10
57.7631
 20
48.726
 30
0.0
 11
57.7631
 21
51.8266
 31
0.0
  0
LINE
  8
0
 62
     5
 10
57.7631
 20
51.8266
 30
0.0
 11
56.9627
 21
51.8266
 31
0.0
  0
LINE
  8
0
 62
     5
 10
56.9627
 20
51.8266
 30
0.0
 11
56.9627
 21
57.627
 31
0.0
  0
LINE
  8
0
 62
     5
 10
56.9627
 20
57.627
 30
0.0
 11
57.7631
 21
57.627
 31
0.0
  0
LINE
  8
0
 62
     5
 10
57.7631
 20
57.627
 30
0.0
 11
57.7631
 21
60.7261
 31
0.0
  0
LINE
  8
0
 62
     5
 10
57.7631
 20
60.7261
 30
0.0
 11
56.9627
 21
60.7261
 31
0.0
  0
LINE
  8
0
 62
     5
 10
56.9627
 20
60.7261
 30
0.0
 11
56.9627
 21
61.7266
 31
0.0
  0
LINE
  8
0
 62
     5
 10
56.9627
 20
61.7266
 30
0.0
 11
42.963
 21
61.7266
 31
0.0
  0
LINE
  8
0
 62
     5
 10
42.963
 20
61.7266
 30
0.0
 11
42.963
 21
60.7261
 31
0.0
  0
LINE
  8
0
 62
     5
 10
42.963
 20
60.7261
 30
0.0
 11
42.1626
 21
60.7261
 31
0.0
  0
LINE
  8
0
 62
     5
 10
42.1626
 20
60.7261
 30
0.0
 11
42.1626
 21
57.627
 31
0.0
  0
LINE
  8
0
 62
     5
 10
42.1626
 20
57.627
 30
0.0
 11
42.963
 21
57.627
 31
0.0
  0
LINE
  8
0
 62
     5
 10
42.963
 20
57.627
 30
0.0
 11
42.963
 21
51.8266
 31
0.0
  0
LINE
  8
0
 62
     5
 10
42.963
 20
51.8266
 30
0.0
 11
42.1626
 21
51.8266
 31
0.0
  0
LINE
  8
0
 62
     5
 10
42.1626
 20
51.8266
 30
0.0
 11
42.1626
 21
48.726
 31
0.0
  0
LINE
  8
0
 62
     5
 10
61.2126
 20
48.726
 30
0.0
 11
62.013
 21
48.726
 31
0.0
  0
LINE
  8
0
 62
     5
 10
62.013
 20
48.726
 30
0.0
 11
62.013
 21
47.727
 31
0.0
  0
LINE
  8
0
 62
     5
 10
62.013
 20
47.727
 30
0.0
 11
76.0127
 21
47.727
 31
0.0
  0
LINE
  8
0
 62
     5
 10
76.0127
 20
47.727
 30
0.0
 11
76.0127
 21
48.726
 31
0.0
  0
LINE
  8
0
 62
     5
 10
76.0127
 20
48.726
 30
0.0
 11
76.8131
 21
48.726
 31
0.0
  0
LINE
  8
0
 62
     5
 10
76.8131
 20
48.726
 30
0.0
 11
76.8131
 21
51.8266
 31
0.0
  0
LINE
  8
0
 62
     5
 10
76.8131
 20
51.8266
 30
0.0
 11
76.0127
 21
51.8266
 31
0.0
  0
LINE
  8
0
 62
     5
 10
76.0127
 20
51.8266
 30
0.0
 11
76.0127
 21
57.627
 31
0.0
  0
LINE
  8
0
 62
     5
 10
76.0127
 20
57.627
 30
0.0
 11
76.8131
 21
57.627
 31
0.0
  0
LINE
  8
0
 62
     5
 10
76.8131
 20
57.627
 30
0.0
 11
76.8131
 21
60.7261
 31
0.0
  0
LINE
  8
0
 62
     5
 10
76.8131
 20
60.7261
 30
0.0
 11
76.0127
 21
60.7261
 31
0.0
  0
LINE
  8
0
 62
     5
 10
76.0127
 20
60.7261
 30
0.0
 11
76.0127
 21
61.7266
 31
0.0
  0
LINE
  8
0
 62
     5
 10
76.0127
 20
61.7266
 30
0.0
 11
62.013
 21
61.7266
 31
0.0
  0
LINE
  8
0
 62
     5
 10
62.013
 20
61.7266
 30
0.0
 11
62.013
 21
60.7261
 31
0.0
  0
LINE
  8
0
 62
     5
 10
62.013
 20
60.7261
 30
0.0
 11
61.2126
 21
60.7261
 31
0.0
  0
LINE
  8
0
 62
     5
 10
61.2126
 20
60.7261
 30
0.0
 11
61.2126
 21
57.627
 31
0.0
  0
LINE
  8
0
 62
     5
 10
61.2126
 20
57.627
 30
0.0
 11
62.013
 21
57.627
 31
0.0
  0
LINE
  8
0
 62
     5
 10
62.013
 20
57.627
 30
0.0
 11
62.013
 21
51.8266
 31
0.0
  0
LINE
  8
0
 62
     5
 10
62.013
 20
51.8266
 30
0.0
 11
61.2126
 21
51.8266
 31
0.0
  0
LINE
  8
0
 62
     5
 10
61.2126
 20
51.8266
 30
0.0
 11
61.2126
 21
48.726
 31
0.0
  0
LINE
  8
0
 62
     5
 10
80.2626
 20
48.726
 30
0.0
 11
81.063
 21
48.726
 31
0.0
  0
LINE
  8
0
 62
     5
 10
81.063
 20
48.726
 30
0.0
 11
81.063
 21
47.727
 31
0.0
  0
LINE
  8
0
 62
     5
 10
81.063
 20
47.727
 30
0.0
 11
95.0627
 21
47.727
 31
0.0
  0
LINE
  8
0
 62
     5
 10
95.0627
 20
47.727
 30
0.0
 11
95.0627
 21
48.726
 31
0.0
  0
LINE
  8
0
 62
     5
 10
95.0627
 20
48.726
 30
0.0
 11
95.8631
 21
48.726
 31
0.0
  0
LINE
  8
0
 62
     5
 10
95.8631
 20
48.726
 30
0.0
 11
95.8631
 21
51.8266
 31
0.0
  0
LINE
  8
0
 62
     5
 10
95.8631
 20
51.8266
 30
0.0
 11
95.0627
 21
51.8266
 31
0.0
  0
LINE
  8
0
 62
     5
 10
95.0627
 20
51.8266
 30
0.0
 11
95.0627
 21
57.627
 31
0.0
  0
LINE
  8
0
 62
     5
 10
95.0627
 20
57.627
 30
0.0
 11
95.8631
 21
57.627
 31
0.0
  0
LINE
  8
0
 62
     5
 10
95.8631
 20
57.627
 30
0.0
 11
95.8631
 21
60.7261
 31
0.0
  0
LINE
  8
0
 62
     5
 10
95.8631
 20
60.7261
 30
0.0
 11
95.0627
 21
60.7261
 31
0.0
  0
LINE
  8
0
 62
     5
 10
95.0627
 20
60.7261
 30
0.0
 11
95.0627
 21
61.7266
 31
0.0
  0
LINE
  8
0
 62
     5
 10
95.0627
 20
61.7266
 30
0.0
 11
81.063
 21
61.7266
 31
0.0
  0
LINE
  8
0
 62
     5
 10
81.063
 20
61.7266
 30
0.0
 11
81.063
 21
60.7261
 31
0.0
  0
LINE
  8
0
 62
     5
 10
81.063
 20
60.7261
 30
0.0
 11
80.2626
 21
60.7261
 31
0.0
  0
LINE
  8
0
 62
     5
 10
80.2626
 20
60.7261
 30
0.0
 11
80.2626
 21
57.627
 31
0.0
  0
LINE
  8
0
 62
     5
 10
80.2626
 20
57.627
 30
0.0
 11
81.063
 21
57.627
 31
0.0
  0
LINE
  8
0
 62
     5
 10
81.063
 20
57.627
 30
0.0
 11
81.063
 21
51.8266
 31
0.0
  0
LINE
  8
0
 62
     5
 10
81.063
 20
51.8266
 30
0.0
 11
80.2626
 21
51.8266
 31
0.0
  0
LINE
  8
0
 62
     5
 10
80.2626
 20
51.8266
 30
0.0
 11
80.2626
 21
48.726
 31
0.0
  0
LINE
  8
0
 62
     5
 10
99.3126
 20
48.726
 30
0.0
 11
100.113
 21
48.726
 31
0.0
  0
LINE
  8
0
 62
     5
 10
100.113
 20
48.726
 30
0.0
 11
100.113
 21
47.727
 31
0.0
  0
LINE
  8
0
 62
     5
 10
100.113
 20
47.727
 30
0.0
 11
114.113
 21
47.727
 31
0.0
  0
LINE
  8
0
 62
     5
 10
114.113
 20
47.727
 30
0.0
 11
114.113
 21
48.726
 31
0.0
  0
LINE
  8
0
 62
     5
 10
114.113
 20
48.726
 30
0.0
 11
114.913
 21
48.726
 31
0.0
  0
LINE
  8
0
 62
     5
 10
114.913
 20
48.726
 30
0.0
 11
114.913
 21
51.8266
 31
0.0
  0
LINE
  8
0
 62
     5
 10
114.913
 20
51.8266
 30
0.0
 11
114.113
 21
51.8266
 31
0.0
  0
LINE
  8
0
 62
     5
 10
114.113
 20
51.8266
 30
0.0
 11
114.113
 21
57.627
 31
0.0
  0
LINE
  8
0
 62
     5
 10
114.113
 20
57.627
 30
0.0
 11
114.913
 21
57.627
 31
0.0
  0
LINE
  8
0
 62
     5
 10
114.913
 20
57.627
 30
0.0
 11
114.913
 21
60.7261
 31
0.0
  0
LINE
  8
0
 62
     5
 10
114.913
 20
60.7261
 30
0.0
 11
114.113
 21
60.7261
 31
0.0
  0
LINE
  8
0
 62
     5
 10
114.113
 20
60.7261
 30
0.0
 11
114.113
 21
61.7266
 31
0.0
  0
LINE
  8
0
 62
     5
 10
114.113
 20
61.7266
 30
0.0
 11
100.113
 21
61.7266
 31
0.0
  0
LINE
  8
0
 62
     5
 10
100.113
 20
61.7266
 30
0.0
 11
100.113
 21
60.7261
 31
0.0
  0
LINE
  8
0
 62
     5
 10
100.113
 20
60.7261
 30
0.0
 11
99.3126
 21
60.7261
 31
0.0
  0
LINE
  8
0
 62
     5
 10
99.3126
 20
60.7261
 30
0.0
 11
99.3126
 21
57.627
 31
0.0
  0
LINE
  8
0
 62
     5
 10
99.3126
 20
57.627
 30
0.0
 11
100.113
 21
57.627
 31
0.0
  0
LINE
  8
0
 62
     5
 10
100.113
 20
57.627
 30
0.0
 11
100.113
 21
51.8266
 31
0.0
  0
LINE
  8
0
 62
     5
 10
100.113
 20
51.8266
 30
0.0
 11
99.3126
 21
51.8266
 31
0.0
  0
LINE
  8
0
 62
     5
 10
99.3126
 20
51.8266
 30
0.0
 11
99.3126
 21
48.726
 31
0.0
  0
LINE
  8
0
 62
     5
 10
118.363
 20
48.726
 30
0.0
 11
119.163
 21
48.726
 31
0.0
  0
LINE
  8
0
 62
     5
 10
119.163
 20
48.726
 30
0.0
 11
119.163
 21
47.727
 31
0.0
  0
LINE
  8
0
 62
     5
 10
119.163
 20
47.727
 30
0.0
 11
133.163
 21
47.727
 31
0.0
  0
LINE
  8
0
 62
     5
 10
133.163
 20
47.727
 30
0.0
 11
133.163
 21
48.726
 31
0.0
  0
LINE
  8
0
 62
     5
 10
133.163
 20
48.726
 30
0.0
 11
133.963
 21
48.726
 31
0.0
  0
LINE
  8
0
 62
     5
 10
133.963
 20
48.726
 30
0.0
 11
133.963
 21
51.8266
 31
0.0
  0
LINE
  8
0
 62
     5
 10
133.963
 20
51.8266
 30
0.0
 11
133.163
 21
51.8266
 31
0.0
  0
LINE
  8
0
 62
     5
 10
133.163
 20
51.8266
 30
0.0
 11
133.163
 21
57.627
 31
0.0
  0
LINE
  8
0
 62
     5
 10
133.163
 20
57.627
 30
0.0
 11
133.963
 21
57.627
 31
0.0
  0
LINE
  8
0
 62
     5
 10
133.963
 20
57.627
 30
0.0
 11
133.963
 21
60.7261
 31
0.0
  0
LINE
  8
0
 62
     5
 10
133.963
 20
60.7261
 30
0.0
 11
133.163
 21
60.7261
 31
0.0
  0
LINE
  8
0
 62
     5
 10
133.163
 20
60.7261
 30
0.0
 11
133.163
 21
61.7266
 31
0.0
  0
LINE
  8
0
 62
     5
 10
133.163
 20
61.7266
 30
0.0
 11
119.163
 21
61.7266
 31
0.0
  0
LINE
  8
0
 62
     5
 10
119.163
 20
61.7266
 30
0.0
 11
119.163
 21
60.7261
 31
0.0
  0
LINE
  8
0
 62
     5
 10
119.163
 20
60.7261
 30
0.0
 11
118.363
 21
60.7261
 31
0.0
  0
LINE
  8
0
 62
     5
 10
118.363
 20
60.7261
 30
0.0
 11
118.363
 21
57.627
 31
0.0
  0
LINE
  8
0
 62
     5
 10
118.363
 20
57.627
 30
0.0
 11
119.163
 21
57.627
 31
0.0
  0
LINE
  8
0
 62
     5
 10
119.163
 20
57.627
 30
0.0
 11
119.163
 21
51.8266
 31
0.0
  0
LINE
  8
0
 62
     5
 10
119.163
 20
51.8266
 30
0.0
 11
118.363
 21
51.8266
 31
0.0
  0
LINE
  8
0
 62
     5
 10
118.363
 20
51.8266
 30
0.0
 11
118.363
 21
48.726
 31
0.0
  0
LINE
  8
0
 62
     5
 10
13.5874
 20
67.776
 30
0.0
 11
14.3881
 21
67.776
 31
0.0
  0
LINE
  8
0
 62
     5
 10
14.3881
 20
67.776
 30
0.0
 11
14.3881
 21
66.777
 31
0.0
  0
LINE
  8
0
 62
     5
 10
14.3881
 20
66.777
 30
0.0
 11
28.3876
 21
66.777
 31
0.0
  0
LINE
  8
0
 62
     5
 10
28.3876
 20
66.777
 30
0.0
 11
28.3876
 21
67.776
 31
0.0
  0
LINE
  8
0
 62
     5
 10
28.3876
 20
67.776
 30
0.0
 11
29.1882
 21
67.776
 31
0.0
  0
LINE
  8
0
 62
     5
 10
29.1882
 20
67.776
 30
0.0
 11
29.1882
 21
70.8766
 31
0.0
  0
LINE
  8
0
 62
     5
 10
29.1882
 20
70.8766
 30
0.0
 11
28.3876
 21
70.8766
 31
0.0
  0
LINE
  8
0
 62
     5
 10
28.3876
 20
70.8766
 30
0.0
 11
28.3876
 21
76.677
 31
0.0
  0
LINE
  8
0
 62
     5
 10
28.3876
 20
76.677
 30
0.0
 11
29.1882
 21
76.677
 31
0.0
  0
LINE
  8
0
 62
     5
 10
29.1882
 20
76.677
 30
0.0
 11
29.1882
 21
79.7761
 31
0.0
  0
LINE
  8
0
 62
     5
 10
29.1882
 20
79.7761
 30
0.0
 11
28.3876
 21
79.7761
 31
0.0
  0
LINE
  8
0
 62
     5
 10
28.3876
 20
79.7761
 30
0.0
 11
28.3876
 21
80.7766
 31
0.0
  0
LINE
  8
0
 62
     5
 10
28.3876
 20
80.7766
 30
0.0
 11
14.3881
 21
80.7766
 31
0.0
  0
LINE
  8
0
 62
     5
 10
14.3881
 20
80.7766
 30
0.0
 11
14.3881
 21
79.7761
 31
0.0
  0
LINE
  8
0
 62
     5
 10
14.3881
 20
79.7761
 30
0.0
 11
13.5874
 21
79.7761
 31
0.0
  0
LINE
  8
0
 62
     5
 10
13.5874
 20
79.7761
 30
0.0
 11
13.5874
 21
76.677
 31
0.0
  0
LINE
  8
0
 62
     5
 10
13.5874
 20
76.677
 30
0.0
 11
14.3881
 21
76.677
 31
0.0
  0
LINE
  8
0
 62
     5
 10
14.3881
 20
76.677
 30
0.0
 11
14.3881
 21
70.8766
 31
0.0
  0
LINE
  8
0
 62
     5
 10
14.3881
 20
70.8766
 30
0.0
 11
13.5874
 21
70.8766
 31
0.0
  0
LINE
  8
0
 62
     5
 10
13.5874
 20
70.8766
 30
0.0
 11
13.5874
 21
67.776
 31
0.0
  0
LINE
  8
0
 62
     5
 10
37.4015
 20
67.776
 30
0.0
 11
38.2005
 21
67.776
 31
0.0
  0
LINE
  8
0
 62
     5
 10
38.2005
 20
67.776
 30
0.0
 11
38.2005
 21
66.777
 31
0.0
  0
LINE
  8
0
 62
     5
 10
38.2005
 20
66.777
 30
0.0
 11
52.2016
 21
66.777
 31
0.0
  0
LINE
  8
0
 62
     5
 10
52.2016
 20
66.777
 30
0.0
 11
52.2016
 21
67.776
 31
0.0
  0
LINE
  8
0
 62
     5
 10
52.2016
 20
67.776
 30
0.0
 11
53.0006
 21
67.776
 31
0.0
  0
LINE
  8
0
 62
     5
 10
53.0006
 20
67.776
 30
0.0
 11
53.0006
 21
70.8766
 31
0.0
  0
LINE
  8
0
 62
     5
 10
53.0006
 20
70.8766
 30
0.0
 11
52.2016
 21
70.8766
 31
0.0
  0
LINE
  8
0
 62
     5
 10
52.2016
 20
70.8766
 30
0.0
 11
52.2016
 21
76.677
 31
0.0
  0
LINE
  8
0
 62
     5
 10
52.2016
 20
76.677
 30
0.0
 11
53.0006
 21
76.677
 31
0.0
  0
LINE
  8
0
 62
     5
 10
53.0006
 20
76.677
 30
0.0
 11
53.0006
 21
79.7761
 31
0.0
  0
LINE
  8
0
 62
     5
 10
53.0006
 20
79.7761
 30
0.0
 11
52.2016
 21
79.7761
 31
0.0
  0
LINE
  8
0
 62
     5
 10
52.2016
 20
79.7761
 30
0.0
 11
52.2016
 21
80.7766
 31
0.0
  0
LINE
  8
0
 62
     5
 10
52.2016
 20
80.7766
 30
0.0
 11
38.2005
 21
80.7766
 31
0.0
  0
LINE
  8
0
 62
     5
 10
38.2005
 20
80.7766
 30
0.0
 11
38.2005
 21
79.7761
 31
0.0
  0
LINE
  8
0
 62
     5
 10
38.2005
 20
79.7761
 30
0.0
 11
37.4015
 21
79.7761
 31
0.0
  0
LINE
  8
0
 62
     5
 10
37.4015
 20
79.7761
 30
0.0
 11
37.4015
 21
76.677
 31
0.0
  0
LINE
  8
0
 62
     5
 10
37.4015
 20
76.677
 30
0.0
 11
38.2005
 21
76.677
 31
0.0
  0
LINE
  8
0
 62
     5
 10
38.2005
 20
76.677
 30
0.0
 11
38.2005
 21
70.8766
 31
0.0
  0
LINE
  8
0
 62
     5
 10
38.2005
 20
70.8766
 30
0.0
 11
37.4015
 21
70.8766
 31
0.0
  0
LINE
  8
0
 62
     5
 10
37.4015
 20
70.8766
 30
0.0
 11
37.4015
 21
67.776
 31
0.0
  0
LINE
  8
0
 62
     5
 10
56.4515
 20
67.776
 30
0.0
 11
57.2505
 21
67.776
 31
0.0
  0
LINE
  8
0
 62
     5
 10
57.2505
 20
67.776
 30
0.0
 11
57.2505
 21
66.777
 31
0.0
  0
LINE
  8
0
 62
     5
 10
57.2505
 20
66.777
 30
0.0
 11
71.2516
 21
66.777
 31
0.0
  0
LINE
  8
0
 62
     5
 10
71.2516
 20
66.777
 30
0.0
 11
71.2516
 21
67.776
 31
0.0
  0
LINE
  8
0
 62
     5
 10
71.2516
 20
67.776
 30
0.0
 11
72.0506
 21
67.776
 31
0.0
  0
LINE
  8
0
 62
     5
 10
72.0506
 20
67.776
 30
0.0
 11
72.0506
 21
70.8766
 31
0.0
  0
LINE
  8
0
 62
     5
 10
72.0506
 20
70.8766
 30
0.0
 11
71.2516
 21
70.8766
 31
0.0
  0
LINE
  8
0
 62
     5
 10
71.2516
 20
70.8766
 30
0.0
 11
71.2516
 21
76.677
 31
0.0
  0
LINE
  8
0
 62
     5
 10
71.2516
 20
76.677
 30
0.0
 11
72.0506
 21
76.677
 31
0.0
  0
LINE
  8
0
 62
     5
 10
72.0506
 20
76.677
 30
0.0
 11
72.0506
 21
79.7761
 31
0.0
  0
LINE
  8
0
 62
     5
 10
72.0506
 20
79.7761
 30
0.0
 11
71.2516
 21
79.7761
 31
0.0
  0
LINE
  8
0
 62
     5
 10
71.2516
 20
79.7761
 30
0.0
 11
71.2516
 21
80.7766
 31
0.0
  0
LINE
  8
0
 62
     5
 10
71.2516
 20
80.7766
 30
0.0
 11
57.2505
 21
80.7766
 31
0.0
  0
LINE
  8
0
 62
     5
 10
57.2505
 20
80.7766
 30
0.0
 11
57.2505
 21
79.7761
 31
0.0
  0
LINE
  8
0
 62
     5
 10
57.2505
 20
79.7761
 30
0.0
 11
56.4515
 21
79.7761
 31
0.0
  0
LINE
  8
0
 62
     5
 10
56.4515
 20
79.7761
 30
0.0
 11
56.4515
 21
76.677
 31
0.0
  0
LINE
  8
0
 62
     5
 10
56.4515
 20
76.677
 30
0.0
 11
57.2505
 21
76.677
 31
0.0
  0
LINE
  8
0
 62
     5
 10
57.2505
 20
76.677
 30
0.0
 11
57.2505
 21
70.8766
 31
0.0
  0
LINE
  8
0
 62
     5
 10
57.2505
 20
70.8766
 30
0.0
 11
56.4515
 21
70.8766
 31
0.0
  0
LINE
  8
0
 62
     5
 10
56.4515
 20
70.8766
 30
0.0
 11
56.4515
 21
67.776
 31
0.0
  0
LINE
  8
0
 62
     5
 10
75.5015
 20
67.776
 30
0.0
 11
76.3005
 21
67.776
 31
0.0
  0
LINE
  8
0
 62
     5
 10
76.3005
 20
67.776
 30
0.0
 11
76.3005
 21
66.777
 31
0.0
  0
LINE
  8
0
 62
     5
 10
76.3005
 20
66.777
 30
0.0
 11
90.3016
 21
66.777
 31
0.0
  0
LINE
  8
0
 62
     5
 10
90.3016
 20
66.777
 30
0.0
 11
90.3016
 21
67.776
 31
0.0
  0
LINE
  8
0
 62
     5
 10
90.3016
 20
67.776
 30
0.0
 11
91.1006
 21
67.776
 31
0.0
  0
LINE
  8
0
 62
     5
 10
91.1006
 20
67.776
 30
0.0
 11
91.1006
 21
70.8766
 31
0.0
  0
LINE
  8
0
 62
     5
 10
91.1006
 20
70.8766
 30
0.0
 11
90.3016
 21
70.8766
 31
0.0
  0
LINE
  8
0
 62
     5
 10
90.3016
 20
70.8766
 30
0.0
 11
90.3016
 21
76.677
 31
0.0
  0
LINE
  8
0
 62
     5
 10
90.3016
 20
76.677
 30
0.0
 11
91.1006
 21
76.677
 31
0.0
  0
LINE
  8
0
 62
     5
 10
91.1006
 20
76.677
 30
0.0
 11
91.1006
 21
79.7761
 31
0.0
  0
LINE
  8
0
 62
     5
 10
91.1006
 20
79.7761
 30
0.0
 11
90.3016
 21
79.7761
 31
0.0
  0
LINE
  8
0
 62
     5
 10
90.3016
 20
79.7761
 30
0.0
 11
90.3016
 21
80.7766
 31
0.0
  0
LINE
  8
0
 62
     5
 10
90.3016
 20
80.7766
 30
0.0
 11
76.3005
 21
80.7766
 31
0.0
  0
LINE
  8
0
 62
     5
 10
76.3005
 20
80.7766
 30
0.0
 11
76.3005
 21
79.7761
 31
0.0
  0
LINE
  8
0
 62
     5
 10
76.3005
 20
79.7761
 30
0.0
 11
75.5015
 21
79.7761
 31
0.0
  0
LINE
  8
0
 62
     5
 10
75.5015
 20
79.7761
 30
0.0
 11
75.5015
 21
76.677
 31
0.0
  0
LINE
  8
0
 62
     5
 10
75.5015
 20
76.677
 30
0.0
 11
76.3005
 21
76.677
 31
0.0
  0
LINE
  8
0
 62
     5
 10
76.3005
 20
76.677
 30
0.0
 11
76.3005
 21
70.8766
 31
0.0
  0
LINE
  8
0
 62
     5
 10
76.3005
 20
70.8766
 30
0.0
 11
75.5015
 21
70.8766
 31
0.0
  0
LINE
  8
0
 62
     5
 10
75.5015
 20
70.8766
 30
0.0
 11
75.5015
 21
67.776
 31
0.0
  0
LINE
  8
0
 62
     5
 10
94.5515
 20
67.776
 30
0.0
 11
95.3505
 21
67.776
 31
0.0
  0
LINE
  8
0
 62
     5
 10
95.3505
 20
67.776
 30
0.0
 11
95.3505
 21
66.777
 31
0.0
  0
LINE
  8
0
 62
     5
 10
95.3505
 20
66.777
 30
0.0
 11
109.352
 21
66.777
 31
0.0
  0
LINE
  8
0
 62
     5
 10
109.352
 20
66.777
 30
0.0
 11
109.352
 21
67.776
 31
0.0
  0
LINE
  8
0
 62
     5
 10
109.352
 20
67.776
 30
0.0
 11
110.151
 21
67.776
 31
0.0
  0
LINE
  8
0
 62
     5
 10
110.151
 20
67.776
 30
0.0
 11
110.151
 21
70.8766
 31
0.0
  0
LINE
  8
0
 62
     5
 10
110.151
 20
70.8766
 30
0.0
 11
109.352
 21
70.8766
 31
0.0
  0
LINE
  8
0
 62
     5
 10
109.352
 20
70.8766
 30
0.0
 11
109.352
 21
76.677
 31
0.0
  0
LINE
  8
0
 62
     5
 10
109.352
 20
76.677
 30
0.0
 11
110.151
 21
76.677
 31
0.0
  0
LINE
  8
0
 62
     5
 10
110.151
 20
76.677
 30
0.0
 11
110.151
 21
79.7761
 31
0.0
  0
LINE
  8
0
 62
     5
 10
110.151
 20
79.7761
 30
0.0
 11
109.352
 21
79.7761
 31
0.0
  0
LINE
  8
0
 62
     5
 10
109.352
 20
79.7761
 30
0.0
 11
109.352
 21
80.7766
 31
0.0
  0
LINE
  8
0
 62
     5
 10
109.352
 20
80.7766
 30
0.0
 11
95.3505
 21
80.7766
 31
0.0
  0
LINE
  8
0
 62
     5
 10
95.3505
 20
80.7766
 30
0.0
 11
95.3505
 21
79.7761
 31
0.0
  0
LINE
  8
0
 62
     5
 10
95.3505
 20
79.7761
 30
0.0
 11
94.5515
 21
79.7761
 31
0.0
  0
LINE
  8
0
 62
     5
 10
94.5515
 20
79.7761
 30
0.0
 11
94.5515
 21
76.677
 31
0.0
  0
LINE
  8
0
 62
     5
 10
94.5515
 20
76.677
 30
0.0
 11
95.3505
 21
76.677
 31
0.0
  0
LINE
  8
0
 62
     5
 10
95.3505
 20
76.677
 30
0.0
 11
95.3505
 21
70.8766
 31
0.0
  0
LINE
  8
0
 62
     5
 10
95.3505
 20
70.8766
 30
0.0
 11
94.5515
 21
70.8766
 31
0.0
  0
LINE
  8
0
 62
     5
 10
94.5515
 20
70.8766
 30
0.0
 11
94.5515
 21
67.776
 31
0.0
  0
LINE
  8
0
 62
     5
 10
113.601
 20
67.776
 30
0.0
 11
114.401
 21
67.776
 31
0.0
  0
LINE
  8
0
 62
     5
 10
114.401
 20
67.776
 30
0.0
 11
114.401
 21
66.777
 31
0.0
  0
LINE
  8
0
 62
     5
 10
114.401
 20
66.777
 30
0.0
 11
128.402
 21
66.777
 31
0.0
  0
LINE
  8
0
 62
     5
 10
128.402
 20
66.777
 30
0.0
 11
128.402
 21
67.776
 31
0.0
  0
LINE
  8
0
 62
     5
 10
128.402
 20
67.776
 30
0.0
 11
129.201
 21
67.776
 31
0.0
  0
LINE
  8
0
 62
     5
 10
129.201
 20
67.776
 30
0.0
 11
129.201
 21
70.8766
 31
0.0
  0
LINE
  8
0
 62
     5
 10
129.201
 20
70.8766
 30
0.0
 11
128.402
 21
70.8766
 31
0.0
  0
LINE
  8
0
 62
     5
 10
128.402
 20
70.8766
 30
0.0
 11
128.402
 21
76.677
 31
0.0
  0
LINE
  8
0
 62
     5
 10
128.402
 20
76.677
 30
0.0
 11
129.201
 21
76.677
 31
0.0
  0
LINE
  8
0
 62
     5
 10
129.201
 20
76.677
 30
0.0
 11
129.201
 21
79.7761
 31
0.0
  0
LINE
  8
0
 62
     5
 10
129.201
 20
79.7761
 30
0.0
 11
128.402
 21
79.7761
 31
0.0
  0
LINE
  8
0
 62
     5
 10
128.402
 20
79.7761
 30
0.0
 11
128.402
 21
80.7766
 31
0.0
  0
LINE
  8
0
 62
     5
 10
128.402
 20
80.7766
 30
0.0
 11
114.401
 21
80.7766
 31
0.0
  0
LINE
  8
0
 62
     5
 10
114.401
 20
80.7766
 30
0.0
 11
114.401
 21
79.7761
 31
0.0
  0
LINE
  8
0
 62
     5
 10
114.401
 20
79.7761
 30
0.0
 11
113.601
 21
79.7761
 31
0.0
  0
LINE
  8
0
 62
     5
 10
113.601
 20
79.7761
 30
0.0
 11
113.601
 21
76.677
 31
0.0
  0
LINE
  8
0
 62
     5
 10
113.601
 20
76.677
 30
0.0
 11
114.401
 21
76.677
 31
0.0
  0
LINE
  8
0
 62
     5
 10
114.401
 20
76.677
 30
0.0
 11
114.401
 21
70.8766
 31
0.0
  0
LINE
  8
0
 62
     5
 10
114.401
 20
70.8766
 30
0.0
 11
113.601
 21
70.8766
 31
0.0
  0
LINE
  8
0
 62
     5
 10
113.601
 20
70.8766
 30
0.0
 11
113.601
 21
67.776
 31
0.0
  0
LINE
  8
0
 62
     5
 10
8.82495
 20
86.826
 30
0.0
 11
9.62561
 21
86.826
 31
0.0
  0
LINE
  8
0
 62
     5
 10
9.62561
 20
86.826
 30
0.0
 11
9.62561
 21
85.827
 31
0.0
  0
LINE
  8
0
 62
     5
 10
9.62561
 20
85.827
 30
0.0
 11
23.6265
 21
85.827
 31
0.0
  0
LINE
  8
0
 62
     5
 10
23.6265
 20
85.827
 30
0.0
 11
23.6265
 21
86.826
 31
0.0
  0
LINE
  8
0
 62
     5
 10
23.6265
 20
86.826
 30
0.0
 11
24.4257
 21
86.826
 31
0.0
  0
LINE
  8
0
 62
     5
 10
24.4257
 20
86.826
 30
0.0
 11
24.4257
 21
89.9266
 31
0.0
  0
LINE
  8
0
 62
     5
 10
24.4257
 20
89.9266
 30
0.0
 11
23.6265
 21
89.9266
 31
0.0
  0
LINE
  8
0
 62
     5
 10
23.6265
 20
89.9266
 30
0.0
 11
23.6265
 21
95.727
 31
0.0
  0
LINE
  8
0
 62
     5
 10
23.6265
 20
95.727
 30
0.0
 11
24.4257
 21
95.727
 31
0.0
  0
LINE
  8
0
 62
     5
 10
24.4257
 20
95.727
 30
0.0
 11
24.4257
 21
98.8261
 31
0.0
  0
LINE
  8
0
 62
     5
 10
24.4257
 20
98.8261
 30
0.0
 11
23.6265
 21
98.8261
 31
0.0
  0
LINE
  8
0
 62
     5
 10
23.6265
 20
98.8261
 30
0.0
 11
23.6265
 21
99.8266
 31
0.0
  0
LINE
  8
0
 62
     5
 10
23.6265
 20
99.8266
 30
0.0
 11
9.62561
 21
99.8266
 31
0.0
  0
LINE
  8
0
 62
     5
 10
9.62561
 20
99.8266
 30
0.0
 11
9.62561
 21
98.8261
 31
0.0
  0
LINE
  8
0
 62
     5
 10
9.62561
 20
98.8261
 30
0.0
 11
8.82495
 21
98.8261
 31
0.0
  0
LINE
  8
0
 62
     5
 10
8.82495
 20
98.8261
 30
0.0
 11
8.82495
 21
95.727
 31
0.0
  0
LINE
  8
0
 62
     5
 10
8.82495
 20
95.727
 30
0.0
 11
9.62561
 21
95.727
 31
0.0
  0
LINE
  8
0
 62
     5
 10
9.62561
 20
95.727
 30
0.0
 11
9.62561
 21
89.9266
 31
0.0
  0
LINE
  8
0
 62
     5
 10
9.62561
 20
89.9266
 30
0.0
 11
8.82495
 21
89.9266
 31
0.0
  0
LINE
  8
0
 62
     5
 10
8.82495
 20
89.9266
 30
0.0
 11
8.82495
 21
86.826
 31
0.0
  0
LINE
  8
0
 62
     5
 10
27.8763
 20
86.826
 30
0.0
 11
28.6756
 21
86.826
 31
0.0
  0
LINE
  8
0
 62
     5
 10
28.6756
 20
86.826
 30
0.0
 11
28.6756
 21
85.827
 31
0.0
  0
LINE
  8
0
 62
     5
 10
28.6756
 20
85.827
 30
0.0
 11
42.6766
 21
85.827
 31
0.0
  0
LINE
  8
0
 62
     5
 10
42.6766
 20
85.827
 30
0.0
 11
42.6766
 21
86.826
 31
0.0
  0
LINE
  8
0
 62
     5
 10
42.6766
 20
86.826
 30
0.0
 11
43.4756
 21
86.826
 31
0.0
  0
LINE
  8
0
 62
     5
 10
43.4756
 20
86.826
 30
0.0
 11
43.4756
 21
89.9266
 31
0.0
  0
LINE
  8
0
 62
     5
 10
43.4756
 20
89.9266
 30
0.0
 11
42.6766
 21
89.9266
 31
0.0
  0
LINE
  8
0
 62
     5
 10
42.6766
 20
89.9266
 30
0.0
 11
42.6766
 21
95.727
 31
0.0
  0
LINE
  8
0
 62
     5
 10
42.6766
 20
95.727
 30
0.0
 11
43.4756
 21
95.727
 31
0.0
  0
LINE
  8
0
 62
     5
 10
43.4756
 20
95.727
 30
0.0
 11
43.4756
 21
98.8261
 31
0.0
  0
LINE
  8
0
 62
     5
 10
43.4756
 20
98.8261
 30
0.0
 11
42.6766
 21
98.8261
 31
0.0
  0
LINE
  8
0
 62
     5
 10
42.6766
 20
98.8261
 30
0.0
 11
42.6766
 21
99.8266
 31
0.0
  0
LINE
  8
0
 62
     5
 10
42.6766
 20
99.8266
 30
0.0
 11
28.6756
 21
99.8266
 31
0.0
  0
LINE
  8
0
 62
     5
 10
28.6756
 20
99.8266
 30
0.0
 11
28.6756
 21
98.8261
 31
0.0
  0
LINE
  8
0
 62
     5
 10
28.6756
 20
98.8261
 30
0.0
 11
27.8763
 21
98.8261
 31
0.0
  0
LINE
  8
0
 62
     5
 10
27.8763
 20
98.8261
 30
0.0
 11
27.8763
 21
95.727
 31
0.0
  0
LINE
  8
0
 62
     5
 10
27.8763
 20
95.727
 30
0.0
 11
28.6756
 21
95.727
 31
0.0
  0
LINE
  8
0
 62
     5
 10
28.6756
 20
95.727
 30
0.0
 11
28.6756
 21
89.9266
 31
0.0
  0
LINE
  8
0
 62
     5
 10
28.6756
 20
89.9266
 30
0.0
 11
27.8763
 21
89.9266
 31
0.0
  0
LINE
  8
0
 62
     5
 10
27.8763
 20
89.9266
 30
0.0
 11
27.8763
 21
86.826
 31
0.0
  0
LINE
  8
0
 62
     5
 10
46.9265
 20
86.826
 30
0.0
 11
47.7255
 21
86.826
 31
0.0
  0
LINE
  8
0
 62
     5
 10
47.7255
 20
86.826
 30
0.0
 11
47.7255
 21
85.827
 31
0.0
  0
LINE
  8
0
 62
     5
 10
47.7255
 20
85.827
 30
0.0
 11
61.7266
 21
85.827
 31
0.0
  0
LINE
  8
0
 62
     5
 10
61.7266
 20
85.827
 30
0.0
 11
61.7266
 21
86.826
 31
0.0
  0
LINE
  8
0
 62
     5
 10
61.7266
 20
86.826
 30
0.0
 11
62.5256
 21
86.826
 31
0.0
  0
LINE
  8
0
 62
     5
 10
62.5256
 20
86.826
 30
0.0
 11
62.5256
 21
89.9266
 31
0.0
  0
LINE
  8
0
 62
     5
 10
62.5256
 20
89.9266
 30
0.0
 11
61.7266
 21
89.9266
 31
0.0
  0
LINE
  8
0
 62
     5
 10
61.7266
 20
89.9266
 30
0.0
 11
61.7266
 21
95.727
 31
0.0
  0
LINE
  8
0
 62
     5
 10
61.7266
 20
95.727
 30
0.0
 11
62.5256
 21
95.727
 31
0.0
  0
LINE
  8
0
 62
     5
 10
62.5256
 20
95.727
 30
0.0
 11
62.5256
 21
98.8261
 31
0.0
  0
LINE
  8
0
 62
     5
 10
62.5256
 20
98.8261
 30
0.0
 11
61.7266
 21
98.8261
 31
0.0
  0
LINE
  8
0
 62
     5
 10
61.7266
 20
98.8261
 30
0.0
 11
61.7266
 21
99.8266
 31
0.0
  0
LINE
  8
0
 62
     5
 10
61.7266
 20
99.8266
 30
0.0
 11
47.7255
 21
99.8266
 31
0.0
  0
LINE
  8
0
 62
     5
 10
47.7255
 20
99.8266
 30
0.0
 11
47.7255
 21
98.8261
 31
0.0
  0
LINE
  8
0
 62
     5
 10
47.7255
 20
98.8261
 30
0.0
 11
46.9265
 21
98.8261
 31
0.0
  0
LINE
  8
0
 62
     5
 10
46.9265
 20
98.8261
 30
0.0
 11
46.9265
 21
95.727
 31
0.0
  0
LINE
  8
0
 62
     5
 10
46.9265
 20
95.727
 30
0.0
 11
47.7255
 21
95.727
 31
0.0
  0
LINE
  8
0
 62
     5
 10
47.7255
 20
95.727
 30
0.0
 11
47.7255
 21
89.9266
 31
0.0
  0
LINE
  8
0
 62
     5
 10
47.7255
 20
89.9266
 30
0.0
 11
46.9265
 21
89.9266
 31
0.0
  0
LINE
  8
0
 62
     5
 10
46.9265
 20
89.9266
 30
0.0
 11
46.9265
 21
86.826
 31
0.0
  0
LINE
  8
0
 62
     5
 10
65.9765
 20
86.826
 30
0.0
 11
66.7755
 21
86.826
 31
0.0
  0
LINE
  8
0
 62
     5
 10
66.7755
 20
86.826
 30
0.0
 11
66.7755
 21
85.827
 31
0.0
  0
LINE
  8
0
 62
     5
 10
66.7755
 20
85.827
 30
0.0
 11
80.7766
 21
85.827
 31
0.0
  0
LINE
  8
0
 62
     5
 10
80.7766
 20
85.827
 30
0.0
 11
80.7766
 21
86.826
 31
0.0
  0
LINE
  8
0
 62
     5
 10
80.7766
 20
86.826
 30
0.0
 11
81.5756
 21
86.826
 31
0.0
  0
LINE
  8
0
 62
     5
 10
81.5756
 20
86.826
 30
0.0
 11
81.5756
 21
89.9266
 31
0.0
  0
LINE
  8
0
 62
     5
 10
81.5756
 20
89.9266
 30
0.0
 11
80.7766
 21
89.9266
 31
0.0
  0
LINE
  8
0
 62
     5
 10
80.7766
 20
89.9266
 30
0.0
 11
80.7766
 21
95.727
 31
0.0
  0
LINE
  8
0
 62
     5
 10
80.7766
 20
95.727
 30
0.0
 11
81.5756
 21
95.727
 31
0.0
  0
LINE
  8
0
 62
     5
 10
81.5756
 20
95.727
 30
0.0
 11
81.5756
 21
98.8261
 31
0.0
  0
LINE
  8
0
 62
     5
 10
81.5756
 20
98.8261
 30
0.0
 11
80.7766
 21
98.8261
 31
0.0
  0
LINE
  8
0
 62
     5
 10
80.7766
 20
98.8261
 30
0.0
 11
80.7766
 21
99.8266
 31
0.0
  0
LINE
  8
0
 62
     5
 10
80.7766
 20
99.8266
 30
0.0
 11
66.7755
 21
99.8266
 31
0.0
  0
LINE
  8
0
 62
     5
 10
66.7755
 20
99.8266
 30
0.0
 11
66.7755
 21
98.8261
 31
0.0
  0
LINE
  8
0
 62
     5
 10
66.7755
 20
98.8261
 30
0.0
 11
65.9765
 21
98.8261
 31
0.0
  0
LINE
  8
0
 62
     5
 10
65.9765
 20
98.8261
 30
0.0
 11
65.9765
 21
95.727
 31
0.0
  0
LINE
  8
0
 62
     5
 10
65.9765
 20
95.727
 30
0.0
 11
66.7755
 21
95.727
 31
0.0
  0
LINE
  8
0
 62
     5
 10
66.7755
 20
95.727
 30
0.0
 11
66.7755
 21
89.9266
 31
0.0
  0
LINE
  8
0
 62
     5
 10
66.7755
 20
89.9266
 30
0.0
 11
65.9765
 21
89.9266
 31
0.0
  0
LINE
  8
0
 62
     5
 10
65.9765
 20
89.9266
 30
0.0
 11
65.9765
 21
86.826
 31
0.0
  0
LINE
  8
0
 62
     5
 10
85.0265
 20
86.826
 30
0.0
 11
85.8255
 21
86.826
 31
0.0
  0
LINE
  8
0
 62
     5
 10
85.8255
 20
86.826
 30
0.0
 11
85.8255
 21
85.827
 31
0.0
  0
LINE
  8
0
 62
     5
 10
85.8255
 20
85.827
 30
0.0
 11
99.8266
 21
85.827
 31
0.0
  0
LINE
  8
0
 62
     5
 10
99.8266
 20
85.827
 30
0.0
 11
99.8266
 21
86.826
 31
0.0
  0
LINE
  8
0
 62
     5
 10
99.8266
 20
86.826
 30
0.0
 11
100.624
 21
86.826
 31
0.0
  0
LINE
  8
0
 62
     5
 10
100.624
 20
86.826
 30
0.0
 11
100.624
 21
89.9266
 31
0.0
  0
LINE
  8
0
 62
     5
 10
100.624
 20
89.9266
 30
0.0
 11
99.8266
 21
89.9266
 31
0.0
  0
LINE
  8
0
 62
     5
 10
99.8266
 20
89.9266
 30
0.0
 11
99.8266
 21
95.727
 31
0.0
  0
LINE
  8
0
 62
     5
 10
99.8266
 20
95.727
 30
0.0
 11
100.624
 21
95.727
 31
0.0
  0
LINE
  8
0
 62
     5
 10
100.624
 20
95.727
 30
0.0
 11
100.624
 21
98.8261
 31
0.0
  0
LINE
  8
0
 62
     5
 10
100.624
 20
98.8261
 30
0.0
 11
99.8266
 21
98.8261
 31
0.0
  0
LINE
  8
0
 62
     5
 10
99.8266
 20
98.8261
 30
0.0
 11
99.8266
 21
99.8266
 31
0.0
  0
LINE
  8
0
 62
     5
 10
99.8266
 20
99.8266
 30
0.0
 11
85.8255
 21
99.8266
 31
0.0
  0
LINE
  8
0
 62
     5
 10
85.8255
 20
99.8266
 30
0.0
 11
85.8255
 21
98.8261
 31
0.0
  0
LINE
  8
0
 62
     5
 10
85.8255
 20
98.8261
 30
0.0
 11
85.0265
 21
98.8261
 31
0.0
  0
LINE
  8
0
 62
     5
 10
85.0265
 20
98.8261
 30
0.0
 11
85.0265
 21
95.727
 31
0.0
  0
LINE
  8
0
 62
     5
 10
85.0265
 20
95.727
 30
0.0
 11
85.8255
 21
95.727
 31
0.0
  0
LINE
  8
0
 62
     5
 10
85.8255
 20
95.727
 30
0.0
 11
85.8255
 21
89.9266
 31
0.0
  0
LINE
  8
0
 62
     5
 10
85.8255
 20
89.9266
 30
0.0
 11
85.0265
 21
89.9266
 31
0.0
  0
LINE
  8
0
 62
     5
 10
85.0265
 20
89.9266
 30
0.0
 11
85.0265
 21
86.826
 31
0.0
  0
LINE
  8
0
 62
     5
 10
104.076
 20
86.826
 30
0.0
 11
104.876
 21
86.826
 31
0.0
  0
LINE
  8
0
 62
     5
 10
104.876
 20
86.826
 30
0.0
 11
104.876
 21
85.827
 31
0.0
  0
LINE
  8
0
 62
     5
 10
104.876
 20
85.827
 30
0.0
 11
118.875
 21
85.827
 31
0.0
  0
LINE
  8
0
 62
     5
 10
118.875
 20
85.827
 30
0.0
 11
118.875
 21
86.826
 31
0.0
  0
LINE
  8
0
 62
     5
 10
118.875
 20
86.826
 30
0.0
 11
119.674
 21
86.826
 31
0.0
  0
LINE
  8
0
 62
     5
 10
119.674
 20
86.826
 30
0.0
 11
119.674
 21
89.9266
 31
0.0
  0
LINE
  8
0
 62
     5
 10
119.674
 20
89.9266
 30
0.0
 11
118.875
 21
89.9266
 31
0.0
  0
LINE
  8
0
 62
     5
 10
118.875
 20
89.9266
 30
0.0
 11
118.875
 21
95.727
 31
0.0
  0
LINE
  8
0
 62
     5
 10
118.875
 20
95.727
 30
0.0
 11
119.674
 21
95.727
 31
0.0
  0
LINE
  8
0
 62
     5
 10
119.674
 20
95.727
 30
0.0
 11
119.674
 21
98.8261
 31
0.0
  0
LINE
  8
0
 62
     5
 10
119.674
 20
98.8261
 30
0.0
 11
118.875
 21
98.8261
 31
0.0
  0
LINE
  8
0
 62
     5
 10
118.875
 20
98.8261
 30
0.0
 11
118.875
 21
99.8266
 31
0.0
  0
LINE
  8
0
 62
     5
 10
118.875
 20
99.8266
 30
0.0
 11
104.876
 21
99.8266
 31
0.0
  0
LINE
  8
0
 62
     5
 10
104.876
 20
99.8266
 30
0.0
 11
104.876
 21
98.8261
 31
0.0
  0
LINE
  8
0
 62
     5
 10
104.876
 20
98.8261
 30
0.0
 11
104.076
 21
98.8261
 31
0.0
  0
LINE
  8
0
 62
     5
 10
104.076
 20
98.8261
 30
0.0
 11
104.076
 21
95.727
 31
0.0
  0
LINE
  8
0
 62
     5
 10
104.076
 20
95.727
 30
0.0
 11
104.876
 21
95.727
 31
0.0
  0
LINE
  8
0
 62
     5
 10
104.876
 20
95.727
 30
0.0
 11
104.876
 21
89.9266
 31
0.0
  0
LINE
  8
0
 62
     5
 10
104.876
 20
89.9266
 30
0.0
 11
104.076
 21
89.9266
 31
0.0
  0
LINE
  8
0
 62
     5
 10
104.076
 20
89.9266
 30
0.0
 11
104.076
 21
86.826
 31
0.0
  0
LINE
  8
0
 62
     5
 10
123.125
 20
86.826
 30
0.0
 11
123.926
 21
86.826
 31
0.0
  0
LINE
  8
0
 62
     5
 10
123.926
 20
86.826
 30
0.0
 11
123.926
 21
85.827
 31
0.0
  0
LINE
  8
0
 62
     5
 10
123.926
 20
85.827
 30
0.0
 11
137.927
 21
85.827
 31
0.0
  0
LINE
  8
0
 62
     5
 10
137.927
 20
85.827
 30
0.0
 11
137.927
 21
86.826
 31
0.0
  0
LINE
  8
0
 62
     5
 10
137.927
 20
86.826
 30
0.0
 11
138.726
 21
86.826
 31
0.0
  0
LINE
  8
0
 62
     5
 10
138.726
 20
86.826
 30
0.0
 11
138.726
 21
89.9266
 31
0.0
  0
LINE
  8
0
 62
     5
 10
138.726
 20
89.9266
 30
0.0
 11
137.927
 21
89.9266
 31
0.0
  0
LINE
  8
0
 62
     5
 10
137.927
 20
89.9266
 30
0.0
 11
137.927
 21
95.727
 31
0.0
  0
LINE
  8
0
 62
     5
 10
137.927
 20
95.727
 30
0.0
 11
138.726
 21
95.727
 31
0.0
  0
LINE
  8
0
 62
     5
 10
138.726
 20
95.727
 30
0.0
 11
138.726
 21
98.8261
 31
0.0
  0
LINE
  8
0
 62
     5
 10
138.726
 20
98.8261
 30
0.0
 11
137.927
 21
98.8261
 31
0.0
  0
LINE
  8
0
 62
     5
 10
137.927
 20
98.8261
 30
0.0
 11
137.927
 21
99.8266
 31
0.0
  0
LINE
  8
0
 62
     5
 10
137.927
 20
99.8266
 30
0.0
 11
123.926
 21
99.8266
 31
0.0
  0
LINE
  8
0
 62
     5
 10
123.926
 20
99.8266
 30
0.0
 11
123.926
 21
98.8261
 31
0.0
  0
LINE
  8
0
 62
     5
 10
123.926
 20
98.8261
 30
0.0
 11
123.125
 21
98.8261
 31
0.0
  0
LINE
  8
0
 62
     5
 10
123.125
 20
98.8261
 30
0.0
 11
123.125
 21
95.727
 31
0.0
  0
LINE
  8
0
 62
     5
 10
123.125
 20
95.727
 30
0.0
 11
123.926
 21
95.727
 31
0.0
  0
LINE
  8
0
 62
     5
 10
123.926
 20
95.727
 30
0.0
 11
123.926
 21
89.9266
 31
0.0
  0
LINE
  8
0
 62
     5
 10
123.926
 20
89.9266
 30
0.0
 11
123.125
 21
89.9266
 31
0.0
  0
LINE
  8
0
 62
     5
 10
123.125
 20
89.9266
 30
0.0
 11
123.125
 21
86.826
 31
0.0
  0
LINE
  8
0
 62
     5
 10
8.82495
 20
110.639
 30
0.0
 11
9.62561
 21
110.639
 31
0.0
  0
LINE
  8
0
 62
     5
 10
9.62561
 20
110.639
 30
0.0
 11
9.62561
 21
109.638
 31
0.0
  0
LINE
  8
0
 62
     5
 10
9.62561
 20
109.638
 30
0.0
 11
23.6265
 21
109.638
 31
0.0
  0
LINE
  8
0
 62
     5
 10
23.6265
 20
109.638
 30
0.0
 11
23.6265
 21
110.639
 31
0.0
  0
LINE
  8
0
 62
     5
 10
23.6265
 20
110.639
 30
0.0
 11
24.4257
 21
110.639
 31
0.0
  0
LINE
  8
0
 62
     5
 10
24.4257
 20
110.639
 30
0.0
 11
24.4257
 21
113.739
 31
0.0
  0
LINE
  8
0
 62
     5
 10
24.4257
 20
113.739
 30
0.0
 11
23.6265
 21
113.739
 31
0.0
  0
LINE
  8
0
 62
     5
 10
23.6265
 20
113.739
 30
0.0
 11
23.6265
 21
119.538
 31
0.0
  0
LINE
  8
0
 62
     5
 10
23.6265
 20
119.538
 30
0.0
 11
24.4257
 21
119.538
 31
0.0
  0
LINE
  8
0
 62
     5
 10
24.4257
 20
119.538
 30
0.0
 11
24.4257
 21
122.639
 31
0.0
  0
LINE
  8
0
 62
     5
 10
24.4257
 20
122.639
 30
0.0
 11
23.6265
 21
122.639
 31
0.0
  0
LINE
  8
0
 62
     5
 10
23.6265
 20
122.639
 30
0.0
 11
23.6265
 21
123.639
 31
0.0
  0
LINE
  8
0
 62
     5
 10
23.6265
 20
123.639
 30
0.0
 11
9.62561
 21
123.639
 31
0.0
  0
LINE
  8
0
 62
     5
 10
9.62561
 20
123.639
 30
0.0
 11
9.62561
 21
122.639
 31
0.0
  0
LINE
  8
0
 62
     5
 10
9.62561
 20
122.639
 30
0.0
 11
8.82495
 21
122.639
 31
0.0
  0
LINE
  8
0
 62
     5
 10
8.82495
 20
122.639
 30
0.0
 11
8.82495
 21
119.538
 31
0.0
  0
LINE
  8
0
 62
     5
 10
8.82495
 20
119.538
 30
0.0
 11
9.62561
 21
119.538
 31
0.0
  0
LINE
  8
0
 62
     5
 10
9.62561
 20
119.538
 30
0.0
 11
9.62561
 21
113.739
 31
0.0
  0
LINE
  8
0
 62
     5
 10
9.62561
 20
113.739
 30
0.0
 11
8.82495
 21
113.739
 31
0.0
  0
LINE
  8
0
 62
     5
 10
8.82495
 20
113.739
 30
0.0
 11
8.82495
 21
110.639
 31
0.0
  0
LINE
  8
0
 62
     5
 10
32.6374
 20
110.639
 30
0.0
 11
33.4381
 21
110.639
 31
0.0
  0
LINE
  8
0
 62
     5
 10
33.4381
 20
110.639
 30
0.0
 11
33.4381
 21
109.638
 31
0.0
  0
LINE
  8
0
 62
     5
 10
33.4381
 20
109.638
 30
0.0
 11
47.4377
 21
109.638
 31
0.0
  0
LINE
  8
0
 62
     5
 10
47.4377
 20
109.638
 30
0.0
 11
47.4377
 21
110.639
 31
0.0
  0
LINE
  8
0
 62
     5
 10
47.4377
 20
110.639
 30
0.0
 11
48.2381
 21
110.639
 31
0.0
  0
LINE
  8
0
 62
     5
 10
48.2381
 20
110.639
 30
0.0
 11
48.2381
 21
113.739
 31
0.0
  0
LINE
  8
0
 62
     5
 10
48.2381
 20
113.739
 30
0.0
 11
47.4377
 21
113.739
 31
0.0
  0
LINE
  8
0
 62
     5
 10
47.4377
 20
113.739
 30
0.0
 11
47.4377
 21
119.538
 31
0.0
  0
LINE
  8
0
 62
     5
 10
47.4377
 20
119.538
 30
0.0
 11
48.2381
 21
119.538
 31
0.0
  0
LINE
  8
0
 62
     5
 10
48.2381
 20
119.538
 30
0.0
 11
48.2381
 21
122.639
 31
0.0
  0
LINE
  8
0
 62
     5
 10
48.2381
 20
122.639
 30
0.0
 11
47.4377
 21
122.639
 31
0.0
  0
LINE
  8
0
 62
     5
 10
47.4377
 20
122.639
 30
0.0
 11
47.4377
 21
123.639
 31
0.0
  0
LINE
  8
0
 62
     5
 10
47.4377
 20
123.639
 30
0.0
 11
33.4381
 21
123.639
 31
0.0
  0
LINE
  8
0
 62
     5
 10
33.4381
 20
123.639
 30
0.0
 11
33.4381
 21
122.639
 31
0.0
  0
LINE
  8
0
 62
     5
 10
33.4381
 20
122.639
 30
0.0
 11
32.6374
 21
122.639
 31
0.0
  0
LINE
  8
0
 62
     5
 10
32.6374
 20
122.639
 30
0.0
 11
32.6374
 21
119.538
 31
0.0
  0
LINE
  8
0
 62
     5
 10
32.6374
 20
119.538
 30
0.0
 11
33.4381
 21
119.538
 31
0.0
  0
LINE
  8
0
 62
     5
 10
33.4381
 20
119.538
 30
0.0
 11
33.4381
 21
113.739
 31
0.0
  0
LINE
  8
0
 62
     5
 10
33.4381
 20
113.739
 30
0.0
 11
32.6374
 21
113.739
 31
0.0
  0
LINE
  8
0
 62
     5
 10
32.6374
 20
113.739
 30
0.0
 11
32.6374
 21
110.639
 31
0.0
  0
LINE
  8
0
 62
     5
 10
51.6876
 20
110.639
 30
0.0
 11
52.488
 21
110.639
 31
0.0
  0
LINE
  8
0
 62
     5
 10
52.488
 20
110.639
 30
0.0
 11
52.488
 21
109.638
 31
0.0
  0
LINE
  8
0
 62
     5
 10
52.488
 20
109.638
 30
0.0
 11
66.4877
 21
109.638
 31
0.0
  0
LINE
  8
0
 62
     5
 10
66.4877
 20
109.638
 30
0.0
 11
66.4877
 21
110.639
 31
0.0
  0
LINE
  8
0
 62
     5
 10
66.4877
 20
110.639
 30
0.0
 11
67.2881
 21
110.639
 31
0.0
  0
LINE
  8
0
 62
     5
 10
67.2881
 20
110.639
 30
0.0
 11
67.2881
 21
113.739
 31
0.0
  0
LINE
  8
0
 62
     5
 10
67.2881
 20
113.739
 30
0.0
 11
66.4877
 21
113.739
 31
0.0
  0
LINE
  8
0
 62
     5
 10
66.4877
 20
113.739
 30
0.0
 11
66.4877
 21
119.538
 31
0.0
  0
LINE
  8
0
 62
     5
 10
66.4877
 20
119.538
 30
0.0
 11
67.2881
 21
119.538
 31
0.0
  0
LINE
  8
0
 62
     5
 10
67.2881
 20
119.538
 30
0.0
 11
67.2881
 21
122.639
 31
0.0
  0
LINE
  8
0
 62
     5
 10
67.2881
 20
122.639
 30
0.0
 11
66.4877
 21
122.639
 31
0.0
  0
LINE
  8
0
 62
     5
 10
66.4877
 20
122.639
 30
0.0
 11
66.4877
 21
123.639
 31
0.0
  0
LINE
  8
0
 62
     5
 10
66.4877
 20
123.639
 30
0.0
 11
52.488
 21
123.639
 31
0.0
  0
LINE
  8
0
 62
     5
 10
52.488
 20
123.639
 30
0.0
 11
52.488
 21
122.639
 31
0.0
  0
LINE
  8
0
 62
     5
 10
52.488
 20
122.639
 30
0.0
 11
51.6876
 21
122.639
 31
0.0
  0
LINE
  8
0
 62
     5
 10
51.6876
 20
122.639
 30
0.0
 11
51.6876
 21
119.538
 31
0.0
  0
LINE
  8
0
 62
     5
 10
51.6876
 20
119.538
 30
0.0
 11
52.488
 21
119.538
 31
0.0
  0
LINE
  8
0
 62
     5
 10
52.488
 20
119.538
 30
0.0
 11
52.488
 21
113.739
 31
0.0
  0
LINE
  8
0
 62
     5
 10
52.488
 20
113.739
 30
0.0
 11
51.6876
 21
113.739
 31
0.0
  0
LINE
  8
0
 62
     5
 10
51.6876
 20
113.739
 30
0.0
 11
51.6876
 21
110.639
 31
0.0
  0
LINE
  8
0
 62
     5
 10
70.7376
 20
110.639
 30
0.0
 11
71.538
 21
110.639
 31
0.0
  0
LINE
  8
0
 62
     5
 10
71.538
 20
110.639
 30
0.0
 11
71.538
 21
109.638
 31
0.0
  0
LINE
  8
0
 62
     5
 10
71.538
 20
109.638
 30
0.0
 11
85.5377
 21
109.638
 31
0.0
  0
LINE
  8
0
 62
     5
 10
85.5377
 20
109.638
 30
0.0
 11
85.5377
 21
110.639
 31
0.0
  0
LINE
  8
0
 62
     5
 10
85.5377
 20
110.639
 30
0.0
 11
86.3381
 21
110.639
 31
0.0
  0
LINE
  8
0
 62
     5
 10
86.3381
 20
110.639
 30
0.0
 11
86.3381
 21
113.739
 31
0.0
  0
LINE
  8
0
 62
     5
 10
86.3381
 20
113.739
 30
0.0
 11
85.5377
 21
113.739
 31
0.0
  0
LINE
  8
0
 62
     5
 10
85.5377
 20
113.739
 30
0.0
 11
85.5377
 21
119.538
 31
0.0
  0
LINE
  8
0
 62
     5
 10
85.5377
 20
119.538
 30
0.0
 11
86.3381
 21
119.538
 31
0.0
  0
LINE
  8
0
 62
     5
 10
86.3381
 20
119.538
 30
0.0
 11
86.3381
 21
122.639
 31
0.0
  0
LINE
  8
0
 62
     5
 10
86.3381
 20
122.639
 30
0.0
 11
85.5377
 21
122.639
 31
0.0
  0
LINE
  8
0
 62
     5
 10
85.5377
 20
122.639
 30
0.0
 11
85.5377
 21
123.639
 31
0.0
  0
LINE
  8
0
 62
     5
 10
85.5377
 20
123.639
 30
0.0
 11
71.538
 21
123.639
 31
0.0
  0
LINE
  8
0
 62
     5
 10
71.538
 20
123.639
 30
0.0
 11
71.538
 21
122.639
 31
0.0
  0
LINE
  8
0
 62
     5
 10
71.538
 20
122.639
 30
0.0
 11
70.7376
 21
122.639
 31
0.0
  0
LINE
  8
0
 62
     5
 10
70.7376
 20
122.639
 30
0.0
 11
70.7376
 21
119.538
 31
0.0
  0
LINE
  8
0
 62
     5
 10
70.7376
 20
119.538
 30
0.0
 11
71.538
 21
119.538
 31
0.0
  0
LINE
  8
0
 62
     5
 10
71.538
 20
119.538
 30
0.0
 11
71.538
 21
113.739
 31
0.0
  0
LINE
  8
0
 62
     5
 10
71.538
 20
113.739
 30
0.0
 11
70.7376
 21
113.739
 31
0.0
  0
LINE
  8
0
 62
     5
 10
70.7376
 20
113.739
 30
0.0
 11
70.7376
 21
110.639
 31
0.0
  0
LINE
  8
0
 62
     5
 10
89.7876
 20
110.639
 30
0.0
 11
90.588
 21
110.639
 31
0.0
  0
LINE
  8
0
 62
     5
 10
90.588
 20
110.639
 30
0.0
 11
90.588
 21
109.638
 31
0.0
  0
LINE
  8
0
 62
     5
 10
90.588
 20
109.638
 30
0.0
 11
104.588
 21
109.638
 31
0.0
  0
LINE
  8
0
 62
     5
 10
104.588
 20
109.638
 30
0.0
 11
104.588
 21
110.639
 31
0.0
  0
LINE
  8
0
 62
     5
 10
104.588
 20
110.639
 30
0.0
 11
105.388
 21
110.639
 31
0.0
  0
LINE
  8
0
 62
     5
 10
105.388
 20
110.639
 30
0.0
 11
105.388
 21
113.739
 31
0.0
  0
LINE
  8
0
 62
     5
 10
105.388
 20
113.739
 30
0.0
 11
104.588
 21
113.739
 31
0.0
  0
LINE
  8
0
 62
     5
 10
104.588
 20
113.739
 30
0.0
 11
104.588
 21
119.538
 31
0.0
  0
LINE
  8
0
 62
     5
 10
104.588
 20
119.538
 30
0.0
 11
105.388
 21
119.538
 31
0.0
  0
LINE
  8
0
 62
     5
 10
105.388
 20
119.538
 30
0.0
 11
105.388
 21
122.639
 31
0.0
  0
LINE
  8
0
 62
     5
 10
105.388
 20
122.639
 30
0.0
 11
104.588
 21
122.639
 31
0.0
  0
LINE
  8
0
 62
     5
 10
104.588
 20
122.639
 30
0.0
 11
104.588
 21
123.639
 31
0.0
  0
LINE
  8
0
 62
     5
 10
104.588
 20
123.639
 30
0.0
 11
90.588
 21
123.639
 31
0.0
  0
LINE
  8
0
 62
     5
 10
90.588
 20
123.639
 30
0.0
 11
90.588
 21
122.639
 31
0.0
  0
LINE
  8
0
 62
     5
 10
90.588
 20
122.639
 30
0.0
 11
89.7876
 21
122.639
 31
0.0
  0
LINE
  8
0
 62
     5
 10
89.7876
 20
122.639
 30
0.0
 11
89.7876
 21
119.538
 31
0.0
  0
LINE
  8
0
 62
     5
 10
89.7876
 20
119.538
 30
0.0
 11
90.588
 21
119.538
 31
0.0
  0
LINE
  8
0
 62
     5
 10
90.588
 20
119.538
 30
0.0
 11
90.588
 21
113.739
 31
0.0
  0
LINE
  8
0
 62
     5
 10
90.588
 20
113.739
 30
0.0
 11
89.7876
 21
113.739
 31
0.0
  0
LINE
  8
0
 62
     5
 10
89.7876
 20
113.739
 30
0.0
 11
89.7876
 21
110.639
 31
0.0
  0
LINE
  8
0
 62
     5
 10
113.601
 20
110.639
 30
0.0
 11
114.401
 21
110.639
 31
0.0
  0
LINE
  8
0
 62
     5
 10
114.401
 20
110.639
 30
0.0
 11
114.401
 21
109.638
 31
0.0
  0
LINE
  8
0
 62
     5
 10
114.401
 20
109.638
 30
0.0
 11
128.402
 21
109.638
 31
0.0
  0
LINE
  8
0
 62
     5
 10
128.402
 20
109.638
 30
0.0
 11
128.402
 21
110.639
 31
0.0
  0
LINE
  8
0
 62
     5
 10
128.402
 20
110.639
 30
0.0
 11
129.201
 21
110.639
 31
0.0
  0
LINE
  8
0
 62
     5
 10
129.201
 20
110.639
 30
0.0
 11
129.201
 21
113.739
 31
0.0
  0
LINE
  8
0
 62
     5
 10
129.201
 20
113.739
 30
0.0
 11
128.402
 21
113.739
 31
0.0
  0
LINE
  8
0
 62
     5
 10
128.402
 20
113.739
 30
0.0
 11
128.402
 21
119.538
 31
0.0
  0
LINE
  8
0
 62
     5
 10
128.402
 20
119.538
 30
0.0
 11
129.201
 21
119.538
 31
0.0
  0
LINE
  8
0
 62
     5
 10
129.201
 20
119.538
 30
0.0
 11
129.201
 21
122.639
 31
0.0
  0
LINE
  8
0
 62
     5
 10
129.201
 20
122.639
 30
0.0
 11
128.402
 21
122.639
 31
0.0
  0
LINE
  8
0
 62
     5
 10
128.402
 20
122.639
 30
0.0
 11
128.402
 21
123.639
 31
0.0
  0
LINE
  8
0
 62
     5
 10
128.402
 20
123.639
 30
0.0
 11
114.401
 21
123.639
 31
0.0
  0
LINE
  8
0
 62
     5
 10
114.401
 20
123.639
 30
0.0
 11
114.401
 21
122.639
 31
0.0
  0
LINE
  8
0
 62
     5
 10
114.401
 20
122.639
 30
0.0
 11
113.601
 21
122.639
 31
0.0
  0
LINE
  8
0
 62
     5
 10
113.601
 20
122.639
 30
0.0
 11
113.601
 21
119.538
 31
0.0
  0
LINE
  8
0
 62
     5
 10
113.601
 20
119.538
 30
0.0
 11
114.401
 21
119.538
 31
0.0
  0
LINE
  8
0
 62
     5
 10
114.401
 20
119.538
 30
0.0
 11
114.401
 21
113.739
 31
0.0
  0
LINE
  8
0
 62
     5
 10
114.401
 20
113.739
 30
0.0
 11
113.601
 21
113.739
 31
0.0
  0
LINE
  8
0
 62
     5
 10
113.601
 20
113.739
 30
0.0
 11
113.601
 21
110.639
 31
0.0
  0
LINE
  8
0
 62
     5
 10
132.65
 20
110.639
 30
0.0
 11
133.451
 21
110.639
 31
0.0
  0
LINE
  8
0
 62
     5
 10
133.451
 20
110.639
 30
0.0
 11
133.451
 21
109.638
 31
0.0
  0
LINE
  8
0
 62
     5
 10
133.451
 20
109.638
 30
0.0
 11
147.452
 21
109.638
 31
0.0
  0
LINE
  8
0
 62
     5
 10
147.452
 20
109.638
 30
0.0
 11
147.452
 21
110.639
 31
0.0
  0
LINE
  8
0
 62
     5
 10
147.452
 20
110.639
 30
0.0
 11
148.251
 21
110.639
 31
0.0
  0
LINE
  8
0
 62
     5
 10
148.251
 20
110.639
 30
0.0
 11
148.251
 21
113.739
 31
0.0
  0
LINE
  8
0
 62
     5
 10
148.251
 20
113.739
 30
0.0
 11
147.452
 21
113.739
 31
0.0
  0
LINE
  8
0
 62
     5
 10
147.452
 20
113.739
 30
0.0
 11
147.452
 21
119.538
 31
0.0
  0
LINE
  8
0
 62
     5
 10
147.452
 20
119.538
 30
0.0
 11
148.251
 21
119.538
 31
0.0
  0
LINE
  8
0
 62
     5
 10
148.251
 20
119.538
 30
0.0
 11
148.251
 21
122.639
 31
0.0
  0
LINE
  8
0
 62
     5
 10
148.251
 20
122.639
 30
0.0
 11
147.452
 21
122.639
 31
0.0
  0
LINE
  8
0
 62
     5
 10
147.452
 20
122.639
 30
0.0
 11
147.452
 21
123.639
 31
0.0
  0
LINE
  8
0
 62
     5
 10
147.452
 20
123.639
 30
0.0
 11
133.451
 21
123.639
 31
0.0
  0
LINE
  8
0
 62
     5
 10
133.451
 20
123.639
 30
0.0
 11
133.451
 21
122.639
 31
0.0
  0
LINE
  8
0
 62
     5
 10
133.451
 20
122.639
 30
0.0
 11
132.65
 21
122.639
 31
0.0
  0
LINE
  8
0
 62
     5
 10
132.65
 20
122.639
 30
0.0
 11
132.65
 21
119.538
 31
0.0
  0
LINE
  8
0
 62
     5
 10
132.65
 20
119.538
 30
0.0
 11
133.451
 21
119.538
 31
0.0
  0
LINE
  8
0
 62
     5
 10
133.451
 20
119.538
 30
0.0
 11
133.451
 21
113.739
 31
0.0
  0
LINE
  8
0
 62
     5
 10
133.451
 20
113.739
 30
0.0
 11
132.65
 21
113.739
 31
0.0
  0
LINE
  8
0
 62
     5
 10
132.65
 20
113.739
 30
0.0
 11
132.65
 21
110.639
 31
0.0
  0
LINE
  8
0
 62
     5
 10
11.5121
 20
151.795
 30
0.0
 11
11.4212
 21
151.349
 31
0.0
  0
LINE
  8
0
 62
     5
 10
11.4212
 20
151.349
 30
0.0
 11
11.1745
 21
150.982
 31
0.0
  0
LINE
  8
0
 62
     5
 10
11.1745
 20
150.982
 30
0.0
 11
10.8093
 21
150.735
 31
0.0
  0
LINE
  8
0
 62
     5
 10
10.8093
 20
150.735
 30
0.0
 11
10.3628
 21
150.644
 31
0.0
  0
LINE
  8
0
 62
     5
 10
10.3628
 20
150.644
 30
0.0
 11
9.915
 21
150.735
 31
0.0
  0
LINE
  8
0
 62
     5
 10
9.915
 20
150.735
 30
0.0
 11
9.54842
 21
150.982
 31
0.0
  0
LINE
  8
0
 62
     5
 10
9.54842
 20
150.982
 30
0.0
 11
9.30176
 21
151.349
 31
0.0
  0
LINE
  8
0
 62
     5
 10
9.30176
 20
151.349
 30
0.0
 11
9.21219
 21
151.795
 31
0.0
  0
LINE
  8
0
 62
     5
 10
9.21219
 20
151.795
 30
0.0
 11
9.30176
 21
152.243
 31
0.0
  0
LINE
  8
0
 62
     5
 10
9.30176
 20
152.243
 30
0.0
 11
9.54842
 21
152.608
 31
0.0
  0
LINE
  8
0
 62
     5
 10
9.54842
 20
152.608
 30
0.0
 11
9.915
 21
152.855
 31
0.0
  0
LINE
  8
0
 62
     5
 10
9.915
 20
152.855
 30
0.0
 11
10.3628
 21
152.944
 31
0.0
  0
LINE
  8
0
 62
     5
 10
10.3628
 20
152.944
 30
0.0
 11
10.8093
 21
152.855
 31
0.0
  0
LINE
  8
0
 62
     5
 10
10.8093
 20
152.855
 30
0.0
 11
11.1745
 21
152.608
 31
0.0
  0
LINE
  8
0
 62
     5
 10
11.1745
 20
152.608
 30
0.0
 11
11.4212
 21
152.243
 31
0.0
  0
LINE
  8
0
 62
     5
 10
11.4212
 20
152.243
 30
0.0
 11
11.5121
 21
151.795
 31
0.0
  0
LINE
  8
0
 62
     5
 10
147.773
 20
151.767
 30
0.0
 11
147.682
 21
151.321
 31
0.0
  0
LINE
  8
0
 62
     5
 10
147.682
 20
151.321
 30
0.0
 11
147.435
 21
150.956
 31
0.0
  0
LINE
  8
0
 62
     5
 10
147.435
 20
150.956
 30
0.0
 11
147.068
 21
150.709
 31
0.0
  0
LINE
  8
0
 62
     5
 10
147.068
 20
150.709
 30
0.0
 11
146.622
 21
150.618
 31
0.0
  0
LINE
  8
0
 62
     5
 10
146.622
 20
150.618
 30
0.0
 11
146.174
 21
150.709
 31
0.0
  0
LINE
  8
0
 62
     5
 10
146.174
 20
150.709
 30
0.0
 11
145.809
 21
150.956
 31
0.0
  0
LINE
  8
0
 62
     5
 10
145.809
 20
150.956
 30
0.0
 11
145.562
 21
151.321
 31
0.0
  0
LINE
  8
0
 62
     5
 10
145.562
 20
151.321
 30
0.0
 11
145.473
 21
151.767
 31
0.0
  0
LINE
  8
0
 62
     5
 10
145.473
 20
151.767
 30
0.0
 11
145.562
 21
152.215
 31
0.0
  0
LINE
  8
0
 62
     5
 10
145.562
 20
152.215
 30
0.0
 11
145.809
 21
152.582
 31
0.0
  0
LINE
  8
0
 62
     5
 10
145.809
 20
152.582
 30
0.0
 11
146.174
 21
152.829
 31
0.0
  0
LINE
  8
0
 62
     5
 10
146.174
 20
152.829
 30
0.0
 11
146.622
 21
152.918
 31
0.0
  0
LINE
  8
0
 62
     5
 10
146.622
 20
152.918
 30
0.0
 11
147.068
 21
152.829
 31
0.0
  0
LINE
  8
0
 62
     5
 10
147.068
 20
152.829
 30
0.0
 11
147.435
 21
152.582
 31
0.0
  0
LINE
  8
0
 62
     5
 10
147.435
 20
152.582
 30
0.0
 11
147.682
 21
152.215
 31
0.0
  0
LINE
  8
0
 62
     5
 10
147.682
 20
152.215
 30
0.0
 11
147.773
 21
151.767
 31
0.0
  0
LINE
  8
0
 62
     5
 10
147.773
 20
16.7128
 30
0.0
 11
147.682
 21
16.2664
 31
0.0
  0
LINE
  8
0
 62
     5
 10
147.682
 20
16.2664
 30
0.0
 11
147.435
 21
15.9012
 31
0.0
  0
LINE
  8
0
 62
     5
 10
147.435
 20
15.9012
 30
0.0
 11
147.068
 21
15.6545
 31
0.0
  0
LINE
  8
0
 62
     5
 10
147.068
 20
15.6545
 30
0.0
 11
146.622
 21
15.5636
 31
0.0
  0
LINE
  8
0
 62
     5
 10
146.622
 20
15.5636
 30
0.0
 11
146.174
 21
15.6545
 31
0.0
  0
LINE
  8
0
 62
     5
 10
146.174
 20
15.6545
 30
0.0
 11
145.809
 21
15.9012
 31
0.0
  0
LINE
  8
0
 62
     5
 10
145.809
 20
15.9012
 30
0.0
 11
145.562
 21
16.2664
 31
0.0
  0
LINE
  8
0
 62
     5
 10
145.562
 20
16.2664
 30
0.0
 11
145.473
 21
16.7128
 31
0.0
  0
LINE
  8
0
 62
     5
 10
145.473
 20
16.7128
 30
0.0
 11
145.562
 21
17.1607
 31
0.0
  0
LINE
  8
0
 62
     5
 10
145.562
 20
17.1607
 30
0.0
 11
145.809
 21
17.5273
 31
0.0
  0
LINE
  8
0
 62
     5
 10
145.809
 20
17.5273
 30
0.0
 11
146.174
 21
17.7739
 31
0.0
  0
LINE
  8
0
 62
     5
 10
146.174
 20
17.7739
 30
0.0
 11
146.622
 21
17.8635
 31
0.0
  0
LINE
  8
0
 62
     5
 10
146.622
 20
17.8635
 30
0.0
 11
147.068
 21
17.7739
 31
0.0
  0
LINE
  8
0
 62
     5
 10
147.068
 20
17.7739
 30
0.0
 11
147.435
 21
17.5273
 31
0.0
  0
LINE
  8
0
 62
     5
 10
147.435
 20
17.5273
 30
0.0
 11
147.682
 21
17.1607
 31
0.0
  0
LINE
  8
0
 62
     5
 10
147.682
 20
17.1607
 30
0.0
 11
147.773
 21
16.7128
 31
0.0
  0
LINE
  8
0
 62
     5
 10
147.773
 20
54.8474
 30
0.0
 11
147.682
 21
54.4008
 31
0.0
  0
LINE
  8
0
 62
     5
 10
147.682
 20
54.4008
 30
0.0
 11
147.435
 21
54.0343
 31
0.0
  0
LINE
  8
0
 62
     5
 10
147.435
 20
54.0343
 30
0.0
 11
147.068
 21
53.7877
 31
0.0
  0
LINE
  8
0
 62
     5
 10
147.068
 20
53.7877
 30
0.0
 11
146.622
 21
53.6967
 31
0.0
  0
LINE
  8
0
 62
     5
 10
146.622
 20
53.6967
 30
0.0
 11
146.174
 21
53.7877
 31
0.0
  0
LINE
  8
0
 62
     5
 10
146.174
 20
53.7877
 30
0.0
 11
145.809
 21
54.0343
 31
0.0
  0
LINE
  8
0
 62
     5
 10
145.809
 20
54.0343
 30
0.0
 11
145.562
 21
54.4008
 31
0.0
  0
LINE
  8
0
 62
     5
 10
145.562
 20
54.4008
 30
0.0
 11
145.473
 21
54.8474
 31
0.0
  0
LINE
  8
0
 62
     5
 10
145.473
 20
54.8474
 30
0.0
 11
145.562
 21
55.2951
 31
0.0
  0
LINE
  8
0
 62
     5
 10
145.562
 20
55.2951
 30
0.0
 11
145.809
 21
55.6602
 31
0.0
  0
LINE
  8
0
 62
     5
 10
145.809
 20
55.6602
 30
0.0
 11
146.174
 21
55.9072
 31
0.0
  0
LINE
  8
0
 62
     5
 10
146.174
 20
55.9072
 30
0.0
 11
146.622
 21
55.9964
 31
0.0
  0
LINE
  8
0
 62
     5
 10
146.622
 20
55.9964
 30
0.0
 11
147.068
 21
55.9072
 31
0.0
  0
LINE
  8
0
 62
     5
 10
147.068
 20
55.9072
 30
0.0
 11
147.435
 21
55.6602
 31
0.0
  0
LINE
  8
0
 62
     5
 10
147.435
 20
55.6602
 30
0.0
 11
147.682
 21
55.2951
 31
0.0
  0
LINE
  8
0
 62
     5
 10
147.682
 20
55.2951
 30
0.0
 11
147.773
 21
54.8474
 31
0.0
  0
LINE
  8
0
 62
     5
 10
11.5066
 20
54.8626
 30
0.0
 11
11.4157
 21
54.416
 31
0.0
  0
LINE
  8
0
 62
     5
 10
11.4157
 20
54.416
 30
0.0
 11
11.169
 21
54.0494
 31
0.0
  0
LINE
  8
0
 62
     5
 10
11.169
 20
54.0494
 30
0.0
 11
10.8024
 21
53.8028
 31
0.0
  0
LINE
  8
0
 62
     5
 10
10.8024
 20
53.8028
 30
0.0
 11
10.356
 21
53.7118
 31
0.0
  0
LINE
  8
0
 62
     5
 10
10.356
 20
53.7118
 30
0.0
 11
9.90808
 21
53.8028
 31
0.0
  0
LINE
  8
0
 62
     5
 10
9.90808
 20
53.8028
 30
0.0
 11
9.54292
 21
54.0494
 31
0.0
  0
LINE
  8
0
 62
     5
 10
9.54292
 20
54.0494
 30
0.0
 11
9.29626
 21
54.416
 31
0.0
  0
LINE
  8
0
 62
     5
 10
9.29626
 20
54.416
 30
0.0
 11
9.20669
 21
54.8626
 31
0.0
  0
LINE
  8
0
 62
     5
 10
9.20669
 20
54.8626
 30
0.0
 11
9.29626
 21
55.3103
 31
0.0
  0
LINE
  8
0
 62
     5
 10
9.29626
 20
55.3103
 30
0.0
 11
9.54292
 21
55.6768
 31
0.0
  0
LINE
  8
0
 62
     5
 10
9.54292
 20
55.6768
 30
0.0
 11
9.90808
 21
55.9234
 31
0.0
  0
LINE
  8
0
 62
     5
 10
9.90808
 20
55.9234
 30
0.0
 11
10.356
 21
56.013
 31
0.0
  0
LINE
  8
0
 62
     5
 10
10.356
 20
56.013
 30
0.0
 11
10.8024
 21
55.9234
 31
0.0
  0
LINE
  8
0
 62
     5
 10
10.8024
 20
55.9234
 30
0.0
 11
11.169
 21
55.6768
 31
0.0
  0
LINE
  8
0
 62
     5
 10
11.169
 20
55.6768
 30
0.0
 11
11.4157
 21
55.3103
 31
0.0
  0
LINE
  8
0
 62
     5
 10
11.4157
 20
55.3103
 30
0.0
 11
11.5066
 21
54.8626
 31
0.0
  0
LINE
  8
0
 62
     5
 10
32.0518
 20
16.7087
 30
0.0
 11
31.9609
 21
16.2622
 31
0.0
  0
LINE
  8
0
 62
     5
 10
31.9609
 20
16.2622
 30
0.0
 11
31.7142
 21
15.8957
 31
0.0
  0
LINE
  8
0
 62
     5
 10
31.7142
 20
15.8957
 30
0.0
 11
31.349
 21
15.649
 31
0.0
  0
LINE
  8
0
 62
     5
 10
31.349
 20
15.649
 30
0.0
 11
30.9025
 21
15.5581
 31
0.0
  0
LINE
  8
0
 62
     5
 10
30.9025
 20
15.5581
 30
0.0
 11
30.4546
 21
15.649
 31
0.0
  0
LINE
  8
0
 62
     5
 10
30.4546
 20
15.649
 30
0.0
 11
30.0881
 21
15.8957
 31
0.0
  0
LINE
  8
0
 62
     5
 10
30.0881
 20
15.8957
 30
0.0
 11
29.8414
 21
16.2622
 31
0.0
  0
LINE
  8
0
 62
     5
 10
29.8414
 20
16.2622
 30
0.0
 11
29.7518
 21
16.7087
 31
0.0
  0
LINE
  8
0
 62
     5
 10
29.7518
 20
16.7087
 30
0.0
 11
29.8414
 21
17.1566
 31
0.0
  0
LINE
  8
0
 62
     5
 10
29.8414
 20
17.1566
 30
0.0
 11
30.0881
 21
17.5218
 31
0.0
  0
LINE
  8
0
 62
     5
 10
30.0881
 20
17.5218
 30
0.0
 11
30.4546
 21
17.7684
 31
0.0
  0
LINE
  8
0
 62
     5
 10
30.4546
 20
17.7684
 30
0.0
 11
30.9025
 21
17.858
 31
0.0
  0
LINE
  8
0
 62
     5
 10
30.9025
 20
17.858
 30
0.0
 11
31.349
 21
17.7684
 31
0.0
  0
LINE
  8
0
 62
     5
 10
31.349
 20
17.7684
 30
0.0
 11
31.7142
 21
17.5218
 31
0.0
  0
LINE
  8
0
 62
     5
 10
31.7142
 20
17.5218
 30
0.0
 11
31.9609
 21
17.1566
 31
0.0
  0
LINE
  8
0
 62
     5
 10
31.9609
 20
17.1566
 30
0.0
 11
32.0518
 21
16.7087
 31
0.0
  0
LINE
  8
0
 62
     5
 10
147.773
 20
104.746
 30
0.0
 11
147.682
 21
104.299
 31
0.0
  0
LINE
  8
0
 62
     5
 10
147.682
 20
104.299
 30
0.0
 11
147.435
 21
103.933
 31
0.0
  0
LINE
  8
0
 62
     5
 10
147.435
 20
103.933
 30
0.0
 11
147.068
 21
103.686
 31
0.0
  0
LINE
  8
0
 62
     5
 10
147.068
 20
103.686
 30
0.0
 11
146.622
 21
103.595
 31
0.0
  0
LINE
  8
0
 62
     5
 10
146.622
 20
103.595
 30
0.0
 11
146.174
 21
103.686
 31
0.0
  0
LINE
  8
0
 62
     5
 10
146.174
 20
103.686
 30
0.0
 11
145.809
 21
103.933
 31
0.0
  0
LINE
  8
0
 62
     5
 10
145.809
 20
103.933
 30
0.0
 11
145.562
 21
104.299
 31
0.0
  0
LINE
  8
0
 62
     5
 10
145.562
 20
104.299
 30
0.0
 11
145.473
 21
104.746
 31
0.0
  0
LINE
  8
0
 62
     5
 10
145.473
 20
104.746
 30
0.0
 11
145.562
 21
105.194
 31
0.0
  0
LINE
  8
0
 62
     5
 10
145.562
 20
105.194
 30
0.0
 11
145.809
 21
105.561
 31
0.0
  0
LINE
  8
0
 62
     5
 10
145.809
 20
105.561
 30
0.0
 11
146.174
 21
105.807
 31
0.0
  0
LINE
  8
0
 62
     5
 10
146.174
 20
105.807
 30
0.0
 11
146.622
 21
105.897
 31
0.0
  0
LINE
  8
0
 62
     5
 10
146.622
 20
105.897
 30
0.0
 11
147.068
 21
105.807
 31
0.0
  0
LINE
  8
0
 62
     5
 10
147.068
 20
105.807
 30
0.0
 11
147.435
 21
105.561
 31
0.0
  0
LINE
  8
0
 62
     5
 10
147.435
 20
105.561
 30
0.0
 11
147.682
 21
105.194
 31
0.0
  0
LINE
  8
0
 62
     5
 10
147.682
 20
105.194
 30
0.0
 11
147.773
 21
104.746
 31
0.0
  0
LINE
  8
0
 62
     5
 10
11.5066
 20
104.761
 30
0.0
 11
11.4157
 21
104.315
 31
0.0
  0
LINE
  8
0
 62
     5
 10
11.4157
 20
104.315
 30
0.0
 11
11.169
 21
103.95
 31
0.0
  0
LINE
  8
0
 62
     5
 10
11.169
 20
103.95
 30
0.0
 11
10.8024
 21
103.703
 31
0.0
  0
LINE
  8
0
 62
     5
 10
10.8024
 20
103.703
 30
0.0
 11
10.356
 21
103.612
 31
0.0
  0
LINE
  8
0
 62
     5
 10
10.356
 20
103.612
 30
0.0
 11
9.90808
 21
103.703
 31
0.0
  0
LINE
  8
0
 62
     5
 10
9.90808
 20
103.703
 30
0.0
 11
9.54292
 21
103.95
 31
0.0
  0
LINE
  8
0
 62
     5
 10
9.54292
 20
103.95
 30
0.0
 11
9.29626
 21
104.315
 31
0.0
  0
LINE
  8
0
 62
     5
 10
9.29626
 20
104.315
 30
0.0
 11
9.20669
 21
104.761
 31
0.0
  0
LINE
  8
0
 62
     5
 10
9.20669
 20
104.761
 30
0.0
 11
9.29626
 21
105.209
 31
0.0
  0
LINE
  8
0
 62
     5
 10
9.29626
 20
105.209
 30
0.0
 11
9.54292
 21
105.576
 31
0.0
  0
LINE
  8
0
 62
     5
 10
9.54292
 20
105.576
 30
0.0
 11
9.90808
 21
105.822
 31
0.0
  0
LINE
  8
0
 62
     5
 10
9.90808
 20
105.822
 30
0.0
 11
10.356
 21
105.912
 31
0.0
  0
LINE
  8
0
 62
     5
 10
10.356
 20
105.912
 30
0.0
 11
10.8024
 21
105.822
 31
0.0
  0
LINE
  8
0
 62
     5
 10
10.8024
 20
105.822
 30
0.0
 11
11.169
 21
105.576
 31
0.0
  0
LINE
  8
0
 62
     5
 10
11.169
 20
105.576
 30
0.0
 11
11.4157
 21
105.209
 31
0.0
  0
LINE
  8
0
 62
     5
 10
11.4157
 20
105.209
 30
0.0
 11
11.5066
 21
104.761
 31
0.0
  0
LINE
  8
0
 62
     5
 10
79.1711
 20
104.746
 30
0.0
 11
79.0801
 21
104.299
 31
0.0
  0
LINE
  8
0
 62
     5
 10
79.0801
 20
104.299
 30
0.0
 11
78.8335
 21
103.933
 31
0.0
  0
LINE
  8
0
 62
     5
 10
78.8335
 20
103.933
 30
0.0
 11
78.4669
 21
103.686
 31
0.0
  0
LINE
  8
0
 62
     5
 10
78.4669
 20
103.686
 30
0.0
 11
78.0203
 21
103.595
 31
0.0
  0
LINE
  8
0
 62
     5
 10
78.0203
 20
103.595
 30
0.0
 11
77.5727
 21
103.686
 31
0.0
  0
LINE
  8
0
 62
     5
 10
77.5727
 20
103.686
 30
0.0
 11
77.2061
 21
103.933
 31
0.0
  0
LINE
  8
0
 62
     5
 10
77.2061
 20
103.933
 30
0.0
 11
76.9592
 21
104.299
 31
0.0
  0
LINE
  8
0
 62
     5
 10
76.9592
 20
104.299
 30
0.0
 11
76.8696
 21
104.746
 31
0.0
  0
LINE
  8
0
 62
     5
 10
76.8696
 20
104.746
 30
0.0
 11
76.9592
 21
105.194
 31
0.0
  0
LINE
  8
0
 62
     5
 10
76.9592
 20
105.194
 30
0.0
 11
77.2061
 21
105.561
 31
0.0
  0
LINE
  8
0
 62
     5
 10
77.2061
 20
105.561
 30
0.0
 11
77.5727
 21
105.807
 31
0.0
  0
LINE
  8
0
 62
     5
 10
77.5727
 20
105.807
 30
0.0
 11
78.0203
 21
105.897
 31
0.0
  0
LINE
  8
0
 62
     5
 10
78.0203
 20
105.897
 30
0.0
 11
78.4669
 21
105.807
 31
0.0
  0
LINE
  8
0
 62
     5
 10
78.4669
 20
105.807
 30
0.0
 11
78.8335
 21
105.561
 31
0.0
  0
LINE
  8
0
 62
     5
 10
78.8335
 20
105.561
 30
0.0
 11
79.0801
 21
105.194
 31
0.0
  0
LINE
  8
0
 62
     5
 10
79.0801
 20
105.194
 30
0.0
 11
79.1711
 21
104.746
 31
0.0
  0
LINE
  8
0
 62
     5
 10
79.7348
 20
24.4326
 30
0.0
 11
79.6438
 21
23.9861
 31
0.0
  0
LINE
  8
0
 62
     5
 10
79.6438
 20
23.9861
 30
0.0
 11
79.3972
 21
23.6196
 31
0.0
  0
LINE
  8
0
 62
     5
 10
79.3972
 20
23.6196
 30
0.0
 11
79.0317
 21
23.3729
 31
0.0
  0
LINE
  8
0
 62
     5
 10
79.0317
 20
23.3729
 30
0.0
 11
78.5855
 21
23.282
 31
0.0
  0
LINE
  8
0
 62
     5
 10
78.5855
 20
23.282
 30
0.0
 11
78.1375
 21
23.3729
 31
0.0
  0
LINE
  8
0
 62
     5
 10
78.1375
 20
23.3729
 30
0.0
 11
77.7709
 21
23.6196
 31
0.0
  0
LINE
  8
0
 62
     5
 10
77.7709
 20
23.6196
 30
0.0
 11
77.5243
 21
23.9861
 31
0.0
  0
LINE
  8
0
 62
     5
 10
77.5243
 20
23.9861
 30
0.0
 11
77.4347
 21
24.4326
 31
0.0
  0
LINE
  8
0
 62
     5
 10
77.4347
 20
24.4326
 30
0.0
 11
77.5243
 21
24.8805
 31
0.0
  0
LINE
  8
0
 62
     5
 10
77.5243
 20
24.8805
 30
0.0
 11
77.7709
 21
25.2457
 31
0.0
  0
LINE
  8
0
 62
     5
 10
77.7709
 20
25.2457
 30
0.0
 11
78.1375
 21
25.4923
 31
0.0
  0
LINE
  8
0
 62
     5
 10
78.1375
 20
25.4923
 30
0.0
 11
78.5855
 21
25.5819
 31
0.0
  0
LINE
  8
0
 62
     5
 10
78.5855
 20
25.5819
 30
0.0
 11
79.0317
 21
25.4923
 31
0.0
  0
LINE
  8
0
 62
     5
 10
79.0317
 20
25.4923
 30
0.0
 11
79.3972
 21
25.2457
 31
0.0
  0
LINE
  8
0
 62
     5
 10
79.3972
 20
25.2457
 30
0.0
 11
79.6438
 21
24.8805
 31
0.0
  0
LINE
  8
0
 62
     5
 10
79.6438
 20
24.8805
 30
0.0
 11
79.7348
 21
24.4326
 31
0.0
  0
LINE
  8
0
 62
     5
 10
79.5211
 20
159.542
 30
0.0
 11
79.4025
 21
158.96
 31
0.0
  0
LINE
  8
0
 62
     5
 10
79.4025
 20
158.96
 30
0.0
 11
79.0801
 21
158.483
 31
0.0
  0
LINE
  8
0
 62
     5
 10
79.0801
 20
158.483
 30
0.0
 11
78.6035
 21
158.16
 31
0.0
  0
LINE
  8
0
 62
     5
 10
78.6035
 20
158.16
 30
0.0
 11
78.0203
 21
158.042
 31
0.0
  0
LINE
  8
0
 62
     5
 10
78.0203
 20
158.042
 30
0.0
 11
77.4361
 21
158.16
 31
0.0
  0
LINE
  8
0
 62
     5
 10
77.4361
 20
158.16
 30
0.0
 11
76.9592
 21
158.483
 31
0.0
  0
LINE
  8
0
 62
     5
 10
76.9592
 20
158.483
 30
0.0
 11
76.6382
 21
158.96
 31
0.0
  0
LINE
  8
0
 62
     5
 10
76.6382
 20
158.96
 30
0.0
 11
76.521
 21
159.542
 31
0.0
  0
LINE
  8
0
 62
     5
 10
76.521
 20
159.542
 30
0.0
 11
76.6382
 21
160.127
 31
0.0
  0
LINE
  8
0
 62
     5
 10
76.6382
 20
160.127
 30
0.0
 11
76.9592
 21
160.603
 31
0.0
  0
LINE
  8
0
 62
     5
 10
76.9592
 20
160.603
 30
0.0
 11
77.4361
 21
160.925
 31
0.0
  0
LINE
  8
0
 62
     5
 10
77.4361
 20
160.925
 30
0.0
 11
78.0203
 21
161.042
 31
0.0
  0
LINE
  8
0
 62
     5
 10
78.0203
 20
161.042
 30
0.0
 11
78.6035
 21
160.925
 31
0.0
  0
LINE
  8
0
 62
     5
 10
78.6035
 20
160.925
 30
0.0
 11
79.0801
 21
160.603
 31
0.0
  0
LINE
  8
0
 62
     5
 10
79.0801
 20
160.603
 30
0.0
 11
79.4025
 21
160.127
 31
0.0
  0
LINE
  8
0
 62
     5
 10
79.4025
 20
160.127
 30
0.0
 11
79.5211
 21
159.542
 31
0.0
  0
LINE
  8
0
 62
     5
 10
154.94
 20
138.482
 30
0.0
 11
154.821
 21
137.898
 31
0.0
  0
LINE
  8
0
 62
     5
 10
154.821
 20
137.898
 30
0.0
 11
154.5
 21
137.421
 31
0.0
  0
LINE
  8
0
 62
     5
 10
154.5
 20
137.421
 30
0.0
 11
154.023
 21
137.1
 31
0.0
  0
LINE
  8
0
 62
     5
 10
154.023
 20
137.1
 30
0.0
 11
153.44
 21
136.981
 31
0.0
  0
LINE
  8
0
 62
     5
 10
153.44
 20
136.981
 30
0.0
 11
152.855
 21
137.1
 31
0.0
  0
LINE
  8
0
 62
     5
 10
152.855
 20
137.1
 30
0.0
 11
152.378
 21
137.421
 31
0.0
  0
LINE
  8
0
 62
     5
 10
152.378
 20
137.421
 30
0.0
 11
152.057
 21
137.898
 31
0.0
  0
LINE
  8
0
 62
     5
 10
152.057
 20
137.898
 30
0.0
 11
151.94
 21
138.482
 31
0.0
  0
LINE
  8
0
 62
     5
 10
151.94
 20
138.482
 30
0.0
 11
152.057
 21
139.066
 31
0.0
  0
LINE
  8
0
 62
     5
 10
152.057
 20
139.066
 30
0.0
 11
152.378
 21
139.543
 31
0.0
  0
LINE
  8
0
 62
     5
 10
152.378
 20
139.543
 30
0.0
 11
152.855
 21
139.864
 31
0.0
  0
LINE
  8
0
 62
     5
 10
152.855
 20
139.864
 30
0.0
 11
153.44
 21
139.981
 31
0.0
  0
LINE
  8
0
 62
     5
 10
153.44
 20
139.981
 30
0.0
 11
154.023
 21
139.864
 31
0.0
  0
LINE
  8
0
 62
     5
 10
154.023
 20
139.864
 30
0.0
 11
154.5
 21
139.543
 31
0.0
  0
LINE
  8
0
 62
     5
 10
154.5
 20
139.543
 30
0.0
 11
154.821
 21
139.066
 31
0.0
  0
LINE
  8
0
 62
     5
 10
154.821
 20
139.066
 30
0.0
 11
154.94
 21
138.482
 31
0.0
  0
LINE
  8
0
 62
     5
 10
154.94
 20
74.1345
 30
0.0
 11
154.821
 21
73.5513
 31
0.0
  0
LINE
  8
0
 62
     5
 10
154.821
 20
73.5513
 30
0.0
 11
154.5
 21
73.0747
 31
0.0
  0
LINE
  8
0
 62
     5
 10
154.5
 20
73.0747
 30
0.0
 11
154.023
 21
72.7534
 31
0.0
  0
LINE
  8
0
 62
     5
 10
154.023
 20
72.7534
 30
0.0
 11
153.44
 21
72.6352
 31
0.0
  0
LINE
  8
0
 62
     5
 10
153.44
 20
72.6352
 30
0.0
 11
152.855
 21
72.7534
 31
0.0
  0
LINE
  8
0
 62
     5
 10
152.855
 20
72.7534
 30
0.0
 11
152.378
 21
73.0747
 31
0.0
  0
LINE
  8
0
 62
     5
 10
152.378
 20
73.0747
 30
0.0
 11
152.057
 21
73.5513
 31
0.0
  0
LINE
  8
0
 62
     5
 10
152.057
 20
73.5513
 30
0.0
 11
151.94
 21
74.1345
 31
0.0
  0
LINE
  8
0
 62
     5
 10
151.94
 20
74.1345
 30
0.0
 11
152.057
 21
74.7187
 31
0.0
  0
LINE
  8
0
 62
     5
 10
152.057
 20
74.7187
 30
0.0
 11
152.378
 21
75.1953
 31
0.0
  0
LINE
  8
0
 62
     5
 10
152.378
 20
75.1953
 30
0.0
 11
152.855
 21
75.5177
 31
0.0
  0
LINE
  8
0
 62
     5
 10
152.855
 20
75.5177
 30
0.0
 11
153.44
 21
75.6348
 31
0.0
  0
LINE
  8
0
 62
     5
 10
153.44
 20
75.6348
 30
0.0
 11
154.023
 21
75.5177
 31
0.0
  0
LINE
  8
0
 62
     5
 10
154.023
 20
75.5177
 30
0.0
 11
154.5
 21
75.1953
 31
0.0
  0
LINE
  8
0
 62
     5
 10
154.5
 20
75.1953
 30
0.0
 11
154.821
 21
74.7187
 31
0.0
  0
LINE
  8
0
 62
     5
 10
154.821
 20
74.7187
 30
0.0
 11
154.94
 21
74.1345
 31
0.0
  0
LINE
  8
0
 62
     5
 10
154.94
 20
23.6775
 30
0.0
 11
154.821
 21
23.0945
 31
0.0
  0
LINE
  8
0
 62
     5
 10
154.821
 20
23.0945
 30
0.0
 11
154.5
 21
22.6177
 31
0.0
  0
LINE
  8
0
 62
     5
 10
154.5
 20
22.6177
 30
0.0
 11
154.023
 21
22.2953
 31
0.0
  0
LINE
  8
0
 62
     5
 10
154.023
 20
22.2953
 30
0.0
 11
153.44
 21
22.1768
 31
0.0
  0
LINE
  8
0
 62
     5
 10
153.44
 20
22.1768
 30
0.0
 11
152.855
 21
22.2953
 31
0.0
  0
LINE
  8
0
 62
     5
 10
152.855
 20
22.2953
 30
0.0
 11
152.378
 21
22.6177
 31
0.0
  0
LINE
  8
0
 62
     5
 10
152.378
 20
22.6177
 30
0.0
 11
152.057
 21
23.0945
 31
0.0
  0
LINE
  8
0
 62
     5
 10
152.057
 20
23.0945
 30
0.0
 11
151.94
 21
23.6775
 31
0.0
  0
LINE
  8
0
 62
     5
 10
151.94
 20
23.6775
 30
0.0
 11
152.057
 21
24.2617
 31
0.0
  0
LINE
  8
0
 62
     5
 10
152.057
 20
24.2617
 30
0.0
 11
152.378
 21
24.7385
 31
0.0
  0
LINE
  8
0
 62
     5
 10
152.378
 20
24.7385
 30
0.0
 11
152.855
 21
25.0596
 31
0.0
  0
LINE
  8
0
 62
     5
 10
152.855
 20
25.0596
 30
0.0
 11
153.44
 21
25.1768
 31
0.0
  0
LINE
  8
0
 62
     5
 10
153.44
 20
25.1768
 30
0.0
 11
154.023
 21
25.0596
 31
0.0
  0
LINE
  8
0
 62
     5
 10
154.023
 20
25.0596
 30
0.0
 11
154.5
 21
24.7385
 31
0.0
  0
LINE
  8
0
 62
     5
 10
154.5
 20
24.7385
 30
0.0
 11
154.821
 21
24.2617
 31
0.0
  0
LINE
  8
0
 62
     5
 10
154.821
 20
24.2617
 30
0.0
 11
154.94
 21
23.6775
 31
0.0
  0
LINE
  8
0
 62
     5
 10
5.11803
 20
138.482
 30
0.0
 11
4.99953
 21
137.898
 31
0.0
  0
LINE
  8
0
 62
     5
 10
4.99953
 20
137.898
 30
0.0
 11
4.67706
 21
137.421
 31
0.0
  0
LINE
  8
0
 62
     5
 10
4.67706
 20
137.421
 30
0.0
 11
4.20028
 21
137.1
 31
0.0
  0
LINE
  8
0
 62
     5
 10
4.20028
 20
137.1
 30
0.0
 11
3.61735
 21
136.981
 31
0.0
  0
LINE
  8
0
 62
     5
 10
3.61735
 20
136.981
 30
0.0
 11
3.03306
 21
137.1
 31
0.0
  0
LINE
  8
0
 62
     5
 10
3.03306
 20
137.1
 30
0.0
 11
2.55626
 21
137.421
 31
0.0
  0
LINE
  8
0
 62
     5
 10
2.55626
 20
137.421
 30
0.0
 11
2.23518
 21
137.898
 31
0.0
  0
LINE
  8
0
 62
     5
 10
2.23518
 20
137.898
 30
0.0
 11
2.11805
 21
138.482
 31
0.0
  0
LINE
  8
0
 62
     5
 10
2.11805
 20
138.482
 30
0.0
 11
2.23518
 21
139.066
 31
0.0
  0
LINE
  8
0
 62
     5
 10
2.23518
 20
139.066
 30
0.0
 11
2.55626
 21
139.543
 31
0.0
  0
LINE
  8
0
 62
     5
 10
2.55626
 20
139.543
 30
0.0
 11
3.03306
 21
139.864
 31
0.0
  0
LINE
  8
0
 62
     5
 10
3.03306
 20
139.864
 30
0.0
 11
3.61735
 21
139.981
 31
0.0
  0
LINE
  8
0
 62
     5
 10
3.61735
 20
139.981
 30
0.0
 11
4.20028
 21
139.864
 31
0.0
  0
LINE
  8
0
 62
     5
 10
4.20028
 20
139.864
 30
0.0
 11
4.67706
 21
139.543
 31
0.0
  0
LINE
  8
0
 62
     5
 10
4.67706
 20
139.543
 30
0.0
 11
4.99953
 21
139.066
 31
0.0
  0
LINE
  8
0
 62
     5
 10
4.99953
 20
139.066
 30
0.0
 11
5.11803
 21
138.482
 31
0.0
  0
LINE
  8
0
 62
     5
 10
5.11803
 20
74.1345
 30
0.0
 11
4.99953
 21
73.5513
 31
0.0
  0
LINE
  8
0
 62
     5
 10
4.99953
 20
73.5513
 30
0.0
 11
4.67706
 21
73.0747
 31
0.0
  0
LINE
  8
0
 62
     5
 10
4.67706
 20
73.0747
 30
0.0
 11
4.20028
 21
72.7534
 31
0.0
  0
LINE
  8
0
 62
     5
 10
4.20028
 20
72.7534
 30
0.0
 11
3.61735
 21
72.6352
 31
0.0
  0
LINE
  8
0
 62
     5
 10
3.61735
 20
72.6352
 30
0.0
 11
3.03306
 21
72.7534
 31
0.0
  0
LINE
  8
0
 62
     5
 10
3.03306
 20
72.7534
 30
0.0
 11
2.55626
 21
73.0747
 31
0.0
  0
LINE
  8
0
 62
     5
 10
2.55626
 20
73.0747
 30
0.0
 11
2.23518
 21
73.5513
 31
0.0
  0
LINE
  8
0
 62
     5
 10
2.23518
 20
73.5513
 30
0.0
 11
2.11805
 21
74.1345
 31
0.0
  0
LINE
  8
0
 62
     5
 10
2.11805
 20
74.1345
 30
0.0
 11
2.23518
 21
74.7187
 31
0.0
  0
LINE
  8
0
 62
     5
 10
2.23518
 20
74.7187
 30
0.0
 11
2.55626
 21
75.1953
 31
0.0
  0
LINE
  8
0
 62
     5
 10
2.55626
 20
75.1953
 30
0.0
 11
3.03306
 21
75.5177
 31
0.0
  0
LINE
  8
0
 62
     5
 10
3.03306
 20
75.5177
 30
0.0
 11
3.61735
 21
75.6348
 31
0.0
  0
LINE
  8
0
 62
     5
 10
3.61735
 20
75.6348
 30
0.0
 11
4.20028
 21
75.5177
 31
0.0
  0
LINE
  8
0
 62
     5
 10
4.20028
 20
75.5177
 30
0.0
 11
4.67706
 21
75.1953
 31
0.0
  0
LINE
  8
0
 62
     5
 10
4.67706
 20
75.1953
 30
0.0
 11
4.99953
 21
74.7187
 31
0.0
  0
LINE
  8
0
 62
     5
 10
4.99953
 20
74.7187
 30
0.0
 11
5.11803
 21
74.1345
 31
0.0
  0
LINE
  8
0
 62
     5
 10
5.11803
 20
23.6775
 30
0.0
 11
4.99953
 21
23.0945
 31
0.0
  0
LINE
  8
0
 62
     5
 10
4.99953
 20
23.0945
 30
0.0
 11
4.67706
 21
22.6177
 31
0.0
  0
LINE
  8
0
 62
     5
 10
4.67706
 20
22.6177
 30
0.0
 11
4.20028
 21
22.2953
 31
0.0
  0
LINE
  8
0
 62
     5
 10
4.20028
 20
22.2953
 30
0.0
 11
3.61735
 21
22.1768
 31
0.0
  0
LINE
  8
0
 62
     5
 10
3.61735
 20
22.1768
 30
0.0
 11
3.03306
 21
22.2953
 31
0.0
  0
LINE
  8
0
 62
     5
 10
3.03306
 20
22.2953
 30
0.0
 11
2.55626
 21
22.6177
 31
0.0
  0
LINE
  8
0
 62
     5
 10
2.55626
 20
22.6177
 30
0.0
 11
2.23518
 21
23.0945
 31
0.0
  0
LINE
  8
0
 62
     5
 10
2.23518
 20
23.0945
 30
0.0
 11
2.11805
 21
23.6775
 31
0.0
  0
LINE
  8
0
 62
     5
 10
2.11805
 20
23.6775
 30
0.0
 11
2.23518
 21
24.2617
 31
0.0
  0
LINE
  8
0
 62
     5
 10
2.23518
 20
24.2617
 30
0.0
 11
2.55626
 21
24.7385
 31
0.0
  0
LINE
  8
0
 62
     5
 10
2.55626
 20
24.7385
 30
0.0
 11
3.03306
 21
25.0596
 31
0.0
  0
LINE
  8
0
 62
     5
 10
3.03306
 20
25.0596
 30
0.0
 11
3.61735
 21
25.1768
 31
0.0
  0
LINE
  8
0
 62
     5
 10
3.61735
 20
25.1768
 30
0.0
 11
4.20028
 21
25.0596
 31
0.0
  0
LINE
  8
0
 62
     5
 10
4.20028
 20
25.0596
 30
0.0
 11
4.67706
 21
24.7385
 31
0.0
  0
LINE
  8
0
 62
     5
 10
4.67706
 20
24.7385
 30
0.0
 11
4.99953
 21
24.2617
 31
0.0
  0
LINE
  8
0
 62
     5
 10
4.99953
 20
24.2617
 30
0.0
 11
5.11803
 21
23.6775
 31
0.0
  0
LINE
  8
0
 62
     5
 10
27.6986
 20
159.542
 30
0.0
 11
27.5801
 21
158.96
 31
0.0
  0
LINE
  8
0
 62
     5
 10
27.5801
 20
158.96
 30
0.0
 11
27.259
 21
158.483
 31
0.0
  0
LINE
  8
0
 62
     5
 10
27.259
 20
158.483
 30
0.0
 11
26.7822
 21
158.16
 31
0.0
  0
LINE
  8
0
 62
     5
 10
26.7822
 20
158.16
 30
0.0
 11
26.1993
 21
158.042
 31
0.0
  0
LINE
  8
0
 62
     5
 10
26.1993
 20
158.042
 30
0.0
 11
25.615
 21
158.16
 31
0.0
  0
LINE
  8
0
 62
     5
 10
25.615
 20
158.16
 30
0.0
 11
25.1382
 21
158.483
 31
0.0
  0
LINE
  8
0
 62
     5
 10
25.1382
 20
158.483
 30
0.0
 11
24.8157
 21
158.96
 31
0.0
  0
LINE
  8
0
 62
     5
 10
24.8157
 20
158.96
 30
0.0
 11
24.6986
 21
159.542
 31
0.0
  0
LINE
  8
0
 62
     5
 10
24.6986
 20
159.542
 30
0.0
 11
24.8157
 21
160.127
 31
0.0
  0
LINE
  8
0
 62
     5
 10
24.8157
 20
160.127
 30
0.0
 11
25.1382
 21
160.603
 31
0.0
  0
LINE
  8
0
 62
     5
 10
25.1382
 20
160.603
 30
0.0
 11
25.615
 21
160.925
 31
0.0
  0
LINE
  8
0
 62
     5
 10
25.615
 20
160.925
 30
0.0
 11
26.1993
 21
161.042
 31
0.0
  0
LINE
  8
0
 62
     5
 10
26.1993
 20
161.042
 30
0.0
 11
26.7822
 21
160.925
 31
0.0
  0
LINE
  8
0
 62
     5
 10
26.7822
 20
160.925
 30
0.0
 11
27.259
 21
160.603
 31
0.0
  0
LINE
  8
0
 62
     5
 10
27.259
 20
160.603
 30
0.0
 11
27.5801
 21
160.127
 31
0.0
  0
LINE
  8
0
 62
     5
 10
27.5801
 20
160.127
 30
0.0
 11
27.6986
 21
159.542
 31
0.0
  0
LINE
  8
0
 62
     5
 10
132.35
 20
159.542
 30
0.0
 11
132.231
 21
158.96
 31
0.0
  0
LINE
  8
0
 62
     5
 10
132.231
 20
158.96
 30
0.0
 11
131.91
 21
158.483
 31
0.0
  0
LINE
  8
0
 62
     5
 10
131.91
 20
158.483
 30
0.0
 11
131.433
 21
158.16
 31
0.0
  0
LINE
  8
0
 62
     5
 10
131.433
 20
158.16
 30
0.0
 11
130.85
 21
158.042
 31
0.0
  0
LINE
  8
0
 62
     5
 10
130.85
 20
158.042
 30
0.0
 11
130.266
 21
158.16
 31
0.0
  0
LINE
  8
0
 62
     5
 10
130.266
 20
158.16
 30
0.0
 11
129.789
 21
158.483
 31
0.0
  0
LINE
  8
0
 62
     5
 10
129.789
 20
158.483
 30
0.0
 11
129.467
 21
158.96
 31
0.0
  0
LINE
  8
0
 62
     5
 10
129.467
 20
158.96
 30
0.0
 11
129.35
 21
159.542
 31
0.0
  0
LINE
  8
0
 62
     5
 10
129.35
 20
159.542
 30
0.0
 11
129.467
 21
160.127
 31
0.0
  0
LINE
  8
0
 62
     5
 10
129.467
 20
160.127
 30
0.0
 11
129.789
 21
160.603
 31
0.0
  0
LINE
  8
0
 62
     5
 10
129.789
 20
160.603
 30
0.0
 11
130.266
 21
160.925
 31
0.0
  0
LINE
  8
0
 62
     5
 10
130.266
 20
160.925
 30
0.0
 11
130.85
 21
161.042
 31
0.0
  0
LINE
  8
0
 62
     5
 10
130.85
 20
161.042
 30
0.0
 11
131.433
 21
160.925
 31
0.0
  0
LINE
  8
0
 62
     5
 10
131.433
 20
160.925
 30
0.0
 11
131.91
 21
160.603
 31
0.0
  0
LINE
  8
0
 62
     5
 10
131.91
 20
160.603
 30
0.0
 11
132.231
 21
160.127
 31
0.0
  0
LINE
  8
0
 62
     5
 10
132.231
 20
160.127
 30
0.0
 11
132.35
 21
159.542
 31
0.0
  0
LINE
  8
0
 62
     5
 10
80.0848
 20
3.56637
 30
0.0
 11
79.9663
 21
2.98345
 31
0.0
  0
LINE
  8
0
 62
     5
 10
79.9663
 20
2.98345
 30
0.0
 11
79.6452
 21
2.50665
 31
0.0
  0
LINE
  8
0
 62
     5
 10
79.6452
 20
2.50665
 30
0.0
 11
79.1683
 21
2.18419
 31
0.0
  0
LINE
  8
0
 62
     5
 10
79.1683
 20
2.18419
 30
0.0
 11
78.5855
 21
2.06568
 31
0.0
  0
LINE
  8
0
 62
     5
 10
78.5855
 20
2.06568
 30
0.0
 11
77.9999
 21
2.18419
 31
0.0
  0
LINE
  8
0
 62
     5
 10
77.9999
 20
2.18419
 30
0.0
 11
77.5229
 21
2.50665
 31
0.0
  0
LINE
  8
0
 62
     5
 10
77.5229
 20
2.50665
 30
0.0
 11
77.2019
 21
2.98345
 31
0.0
  0
LINE
  8
0
 62
     5
 10
77.2019
 20
2.98345
 30
0.0
 11
77.0848
 21
3.56637
 31
0.0
  0
LINE
  8
0
 62
     5
 10
77.0848
 20
3.56637
 30
0.0
 11
77.2019
 21
4.15064
 31
0.0
  0
LINE
  8
0
 62
     5
 10
77.2019
 20
4.15064
 30
0.0
 11
77.5229
 21
4.62746
 31
0.0
  0
LINE
  8
0
 62
     5
 10
77.5229
 20
4.62746
 30
0.0
 11
77.9999
 21
4.94852
 31
0.0
  0
LINE
  8
0
 62
     5
 10
77.9999
 20
4.94852
 30
0.0
 11
78.5855
 21
5.06568
 31
0.0
  0
LINE
  8
0
 62
     5
 10
78.5855
 20
5.06568
 30
0.0
 11
79.1683
 21
4.94852
 31
0.0
  0
LINE
  8
0
 62
     5
 10
79.1683
 20
4.94852
 30
0.0
 11
79.6452
 21
4.62746
 31
0.0
  0
LINE
  8
0
 62
     5
 10
79.6452
 20
4.62746
 30
0.0
 11
79.9663
 21
4.15064
 31
0.0
  0
LINE
  8
0
 62
     5
 10
79.9663
 20
4.15064
 30
0.0
 11
80.0848
 21
3.56637
 31
0.0
  0
LINE
  8
0
 62
     5
 10
27.6986
 20
3.56637
 30
0.0
 11
27.5801
 21
2.98345
 31
0.0
  0
LINE
  8
0
 62
     5
 10
27.5801
 20
2.98345
 30
0.0
 11
27.259
 21
2.50665
 31
0.0
  0
LINE
  8
0
 62
     5
 10
27.259
 20
2.50665
 30
0.0
 11
26.7822
 21
2.18419
 31
0.0
  0
LINE
  8
0
 62
     5
 10
26.7822
 20
2.18419
 30
0.0
 11
26.1993
 21
2.06568
 31
0.0
  0
LINE
  8
0
 62
     5
 10
26.1993
 20
2.06568
 30
0.0
 11
25.615
 21
2.18419
 31
0.0
  0
LINE
  8
0
 62
     5
 10
25.615
 20
2.18419
 30
0.0
 11
25.1382
 21
2.50665
 31
0.0
  0
LINE
  8
0
 62
     5
 10
25.1382
 20
2.50665
 30
0.0
 11
24.8157
 21
2.98345
 31
0.0
  0
LINE
  8
0
 62
     5
 10
24.8157
 20
2.98345
 30
0.0
 11
24.6986
 21
3.56637
 31
0.0
  0
LINE
  8
0
 62
     5
 10
24.6986
 20
3.56637
 30
0.0
 11
24.8157
 21
4.15064
 31
0.0
  0
LINE
  8
0
 62
     5
 10
24.8157
 20
4.15064
 30
0.0
 11
25.1382
 21
4.62746
 31
0.0
  0
LINE
  8
0
 62
     5
 10
25.1382
 20
4.62746
 30
0.0
 11
25.615
 21
4.94852
 31
0.0
  0
LINE
  8
0
 62
     5
 10
25.615
 20
4.94852
 30
0.0
 11
26.1993
 21
5.06568
 31
0.0
  0
LINE
  8
0
 62
     5
 10
26.1993
 20
5.06568
 30
0.0
 11
26.7822
 21
4.94852
 31
0.0
  0
LINE
  8
0
 62
     5
 10
26.7822
 20
4.94852
 30
0.0
 11
27.259
 21
4.62746
 31
0.0
  0
LINE
  8
0
 62
     5
 10
27.259
 20
4.62746
 30
0.0
 11
27.5801
 21
4.15064
 31
0.0
  0
LINE
  8
0
 62
     5
 10
27.5801
 20
4.15064
 30
0.0
 11
27.6986
 21
3.56637
 31
0.0
  0
LINE
  8
0
 62
     5
 10
132.35
 20
3.56637
 30
0.0
 11
132.231
 21
2.98345
 31
0.0
  0
LINE
  8
0
 62
     5
 10
132.231
 20
2.98345
 30
0.0
 11
131.91
 21
2.50665
 31
0.0
  0
LINE
  8
0
 62
     5
 10
131.91
 20
2.50665
 30
0.0
 11
131.433
 21
2.18419
 31
0.0
  0
LINE
  8
0
 62
     5
 10
131.433
 20
2.18419
 30
0.0
 11
130.85
 21
2.06568
 31
0.0
  0
LINE
  8
0
 62
     5
 10
130.85
 20
2.06568
 30
0.0
 11
130.266
 21
2.18419
 31
0.0
  0
LINE
  8
0
 62
     5
 10
130.266
 20
2.18419
 30
0.0
 11
129.789
 21
2.50665
 31
0.0
  0
LINE
  8
0
 62
     5
 10
129.789
 20
2.50665
 30
0.0
 11
129.467
 21
2.98345
 31
0.0
  0
LINE
  8
0
 62
     5
 10
129.467
 20
2.98345
 30
0.0
 11
129.35
 21
3.56637
 31
0.0
  0
LINE
  8
0
 62
     5
 10
129.35
 20
3.56637
 30
0.0
 11
129.467
 21
4.15064
 31
0.0
  0
LINE
  8
0
 62
     5
 10
129.467
 20
4.15064
 30
0.0
 11
129.789
 21
4.62746
 31
0.0
  0
LINE
  8
0
 62
     5
 10
129.789
 20
4.62746
 30
0.0
 11
130.266
 21
4.94852
 31
0.0
  0
LINE
  8
0
 62
     5
 10
130.266
 20
4.94852
 30
0.0
 11
130.85
 21
5.06568
 31
0.0
  0
LINE
  8
0
 62
     5
 10
130.85
 20
5.06568
 30
0.0
 11
131.433
 21
4.94852
 31
0.0
  0
LINE
  8
0
 62
     5
 10
131.433
 20
4.94852
 30
0.0
 11
131.91
 21
4.62746
 31
0.0
  0
LINE
  8
0
 62
     5
 10
131.91
 20
4.62746
 30
0.0
 11
132.231
 21
4.15064
 31
0.0
  0
LINE
  8
0
 62
     5
 10
132.231
 20
4.15064
 30
0.0
 11
132.35
 21
3.56637
 31
0.0
  0
LINE
  8
0
 62
     5
 10
17.0684
 20
155.49
 30
0.0
 11
35.9943
 21
155.49
 31
0.0
  0
LINE
  8
0
 62
     5
 10
35.9943
 20
155.49
 30
0.0
 11
35.9625
 21
151.692
 31
0.0
  0
LINE
  8
0
 62
     5
 10
35.9625
 20
151.692
 30
0.0
 11
40.1863
 21
151.711
 31
0.0
  0
LINE
  8
0
 62
     5
 10
40.1863
 20
151.711
 30
0.0
 11
40.2209
 21
155.49
 31
0.0
  0
LINE
  8
0
 62
     5
 10
40.2209
 20
155.49
 30
0.0
 11
75.8666
 21
155.49
 31
0.0
  0
LINE
  8
0
 62
     5
 10
75.8666
 20
155.49
 30
0.0
 11
75.8624
 21
151.547
 31
0.0
  0
LINE
  8
0
 62
     5
 10
75.8624
 20
151.547
 30
0.0
 11
80.2845
 21
151.547
 31
0.0
  0
LINE
  8
0
 62
     5
 10
80.2845
 20
151.547
 30
0.0
 11
80.2763
 21
155.49
 31
0.0
  0
LINE
  8
0
 62
     5
 10
80.2763
 20
155.49
 30
0.0
 11
115.889
 21
155.49
 31
0.0
  0
LINE
  8
0
 62
     5
 10
115.889
 20
155.49
 30
0.0
 11
115.885
 21
151.551
 31
0.0
  0
LINE
  8
0
 62
     5
 10
115.885
 20
151.551
 30
0.0
 11
120.334
 21
151.54
 31
0.0
  0
LINE
  8
0
 62
     5
 10
120.334
 20
151.54
 30
0.0
 11
120.334
 21
155.49
 31
0.0
  0
LINE
  8
0
 62
     5
 10
120.334
 20
155.49
 30
0.0
 11
139.125
 21
155.49
 31
0.0
  0
LINE
  8
0
 62
     5
 10
139.125
 20
155.49
 30
0.0
 11
139.125
 21
125.689
 31
0.0
  0
LINE
  8
0
 62
     5
 10
139.125
 20
125.689
 30
0.0
 11
120.394
 21
125.689
 31
0.0
  0
LINE
  8
0
 62
     5
 10
120.394
 20
125.689
 30
0.0
 11
120.374
 21
129.889
 31
0.0
  0
LINE
  8
0
 62
     5
 10
120.374
 20
129.889
 30
0.0
 11
115.842
 21
129.88
 31
0.0
  0
LINE
  8
0
 62
     5
 10
115.842
 20
129.88
 30
0.0
 11
115.831
 21
125.689
 31
0.0
  0
LINE
  8
0
 62
     5
 10
115.831
 20
125.689
 30
0.0
 11
80.4058
 21
125.689
 31
0.0
  0
LINE
  8
0
 62
     5
 10
80.4058
 20
125.689
 30
0.0
 11
80.3973
 21
129.862
 31
0.0
  0
LINE
  8
0
 62
     5
 10
80.3973
 20
129.862
 30
0.0
 11
75.7784
 21
129.873
 31
0.0
  0
LINE
  8
0
 62
     5
 10
75.7784
 20
129.873
 30
0.0
 11
75.7728
 21
125.689
 31
0.0
  0
LINE
  8
0
 62
     5
 10
75.7728
 20
125.689
 30
0.0
 11
40.3324
 21
125.689
 31
0.0
  0
LINE
  8
0
 62
     5
 10
40.3324
 20
125.689
 30
0.0
 11
40.3324
 21
129.894
 31
0.0
  0
LINE
  8
0
 62
     5
 10
40.3324
 20
129.894
 30
0.0
 11
35.8719
 21
129.891
 31
0.0
  0
LINE
  8
0
 62
     5
 10
35.8719
 20
129.891
 30
0.0
 11
35.8733
 21
125.689
 31
0.0
  0
LINE
  8
0
 62
     5
 10
35.8733
 20
125.689
 30
0.0
 11
17.0684
 21
125.689
 31
0.0
  0
LINE
  8
0
 62
     5
 10
17.0684
 20
125.689
 30
0.0
 11
17.0684
 21
155.49
 31
0.0
  0
ENDSEC
  0
EOF
