  0
SECTION
  2
HEADER
  9
$ACADVER
  1
AC1009
  9
$EXTMIN
 10
0.0
 20
0.0
 30
0.0
  9
$EXTMAX
 10
1000.0
 20
1000.0
 30
0.0
  9
$FILLMODE
 70
 0
  9
$SPLFRAME
 70
 1
  0
ENDSEC
  0
SECTION
  2
TABLES
  0
TABLE
  2
LAYER
 70
1
  0
LAYER
  2
0
 70
     0
 62
     7
  6
CONTINUOUS
  0
ENDTAB
  0
ENDSEC
  0
SECTION
  2
ENTITIES
  0
LINE
  8
0
 62
     5
 10
237.339
 20
0.977029
 30
0.0
 11
237.207
 21
0.832337
 31
0.0
  0
LINE
  8
0
 62
     5
 10
237.207
 20
0.832337
 30
0.0
 11
237.062
 21
0.700045
 31
0.0
  0
LINE
  8
0
 62
     5
 10
237.062
 20
0.700045
 30
0.0
 11
236.908
 21
0.577398
 31
0.0
  0
LINE
  8
0
 62
     5
 10
236.908
 20
0.577398
 30
0.0
 11
236.746
 21
0.468535
 31
0.0
  0
LINE
  8
0
 62
     5
 10
236.746
 20
0.468535
 30
0.0
 11
236.573
 21
0.372071
 31
0.0
  0
LINE
  8
0
 62
     5
 10
236.573
 20
0.372071
 30
0.0
 11
236.396
 21
0.290766
 31
0.0
  0
LINE
  8
0
 62
     5
 10
236.396
 20
0.290766
 30
0.0
 11
236.212
 21
0.221864
 31
0.0
  0
LINE
  8
0
 62
     5
 10
236.212
 20
0.221864
 30
0.0
 11
236.024
 21
0.169499
 31
0.0
  0
LINE
  8
0
 62
     5
 10
236.024
 20
0.169499
 30
0.0
 11
235.831
 21
0.130914
 31
0.0
  0
LINE
  8
0
 62
     5
 10
235.831
 20
0.130914
 30
0.0
 11
235.635
 21
0.108865
 31
0.0
  0
LINE
  8
0
 62
     5
 10
235.635
 20
0.108865
 30
0.0
 11
235.439
 21
0.100597
 31
0.0
  0
LINE
  8
0
 62
     5
 10
235.439
 20
0.100597
 30
0.0
 11
2.60036
 21
0.100597
 31
0.0
  0
LINE
  8
0
 62
     5
 10
2.60036
 20
0.100597
 30
0.0
 11
2.40468
 21
0.108865
 31
0.0
  0
LINE
  8
0
 62
     5
 10
2.40468
 20
0.108865
 30
0.0
 11
2.209
 21
0.130914
 31
0.0
  0
LINE
  8
0
 62
     5
 10
2.209
 20
0.130914
 30
0.0
 11
2.01745
 21
0.169499
 31
0.0
  0
LINE
  8
0
 62
     5
 10
2.01745
 20
0.169499
 30
0.0
 11
1.82866
 21
0.221864
 31
0.0
  0
LINE
  8
0
 62
     5
 10
1.82866
 20
0.221864
 30
0.0
 11
1.644
 21
0.290766
 31
0.0
  0
LINE
  8
0
 62
     5
 10
1.644
 20
0.290766
 30
0.0
 11
1.46623
 21
0.372071
 31
0.0
  0
LINE
  8
0
 62
     5
 10
1.46623
 20
0.372071
 30
0.0
 11
1.29398
 21
0.468535
 31
0.0
  0
LINE
  8
0
 62
     5
 10
1.29398
 20
0.468535
 30
0.0
 11
1.13137
 21
0.577398
 31
0.0
  0
LINE
  8
0
 62
     5
 10
1.13137
 20
0.577398
 30
0.0
 11
0.977029
 21
0.700045
 31
0.0
  0
LINE
  8
0
 62
     5
 10
0.977029
 20
0.700045
 30
0.0
 11
0.832337
 21
0.832337
 31
0.0
  0
LINE
  8
0
 62
     5
 10
0.832337
 20
0.832337
 30
0.0
 11
0.698666
 21
0.977029
 31
0.0
  0
LINE
  8
0
 62
     5
 10
0.698666
 20
0.977029
 30
0.0
 11
0.577398
 21
1.13137
 31
0.0
  0
LINE
  8
0
 62
     5
 10
0.577398
 20
1.13137
 30
0.0
 11
0.468535
 21
1.29398
 31
0.0
  0
LINE
  8
0
 62
     5
 10
0.468535
 20
1.29398
 30
0.0
 11
0.373447
 21
1.46485
 31
0.0
  0
LINE
  8
0
 62
     5
 10
0.373447
 20
1.46485
 30
0.0
 11
0.290766
 21
1.644
 31
0.0
  0
LINE
  8
0
 62
     5
 10
0.290766
 20
1.644
 30
0.0
 11
0.223242
 21
1.82728
 31
0.0
  0
LINE
  8
0
 62
     5
 10
0.223242
 20
1.82728
 30
0.0
 11
0.169499
 21
2.01607
 31
0.0
  0
LINE
  8
0
 62
     5
 10
0.169499
 20
2.01607
 30
0.0
 11
0.130914
 21
2.209
 31
0.0
  0
LINE
  8
0
 62
     5
 10
0.130914
 20
2.209
 30
0.0
 11
0.107487
 21
2.40468
 31
0.0
  0
LINE
  8
0
 62
     5
 10
0.107487
 20
2.40468
 30
0.0
 11
0.100597
 21
2.60036
 31
0.0
  0
LINE
  8
0
 62
     5
 10
0.100597
 20
2.60036
 30
0.0
 11
0.100597
 21
160.664
 31
0.0
  0
LINE
  8
0
 62
     5
 10
0.100597
 20
160.664
 30
0.0
 11
0.107487
 21
160.86
 31
0.0
  0
LINE
  8
0
 62
     5
 10
0.107487
 20
160.86
 30
0.0
 11
0.130914
 21
161.055
 31
0.0
  0
LINE
  8
0
 62
     5
 10
0.130914
 20
161.055
 30
0.0
 11
0.169499
 21
161.247
 31
0.0
  0
LINE
  8
0
 62
     5
 10
0.169499
 20
161.247
 30
0.0
 11
0.223242
 21
161.436
 31
0.0
  0
LINE
  8
0
 62
     5
 10
0.223242
 20
161.436
 30
0.0
 11
0.290766
 21
161.621
 31
0.0
  0
LINE
  8
0
 62
     5
 10
0.290766
 20
161.621
 30
0.0
 11
0.373447
 21
161.798
 31
0.0
  0
LINE
  8
0
 62
     5
 10
0.373447
 20
161.798
 30
0.0
 11
0.468535
 21
161.971
 31
0.0
  0
LINE
  8
0
 62
     5
 10
0.468535
 20
161.971
 30
0.0
 11
0.577398
 21
162.133
 31
0.0
  0
LINE
  8
0
 62
     5
 10
0.577398
 20
162.133
 30
0.0
 11
0.698666
 21
162.287
 31
0.0
  0
LINE
  8
0
 62
     5
 10
0.698666
 20
162.287
 30
0.0
 11
0.832337
 21
162.432
 31
0.0
  0
LINE
  8
0
 62
     5
 10
0.832337
 20
162.432
 30
0.0
 11
0.977029
 21
162.566
 31
0.0
  0
LINE
  8
0
 62
     5
 10
0.977029
 20
162.566
 30
0.0
 11
1.13137
 21
162.687
 31
0.0
  0
LINE
  8
0
 62
     5
 10
1.13137
 20
162.687
 30
0.0
 11
1.29398
 21
162.796
 31
0.0
  0
LINE
  8
0
 62
     5
 10
1.29398
 20
162.796
 30
0.0
 11
1.46623
 21
162.891
 31
0.0
  0
LINE
  8
0
 62
     5
 10
1.46623
 20
162.891
 30
0.0
 11
1.644
 21
162.974
 31
0.0
  0
LINE
  8
0
 62
     5
 10
1.644
 20
162.974
 30
0.0
 11
1.82866
 21
163.041
 31
0.0
  0
LINE
  8
0
 62
     5
 10
1.82866
 20
163.041
 30
0.0
 11
2.01745
 21
163.095
 31
0.0
  0
LINE
  8
0
 62
     5
 10
2.01745
 20
163.095
 30
0.0
 11
2.209
 21
163.134
 31
0.0
  0
LINE
  8
0
 62
     5
 10
2.209
 20
163.134
 30
0.0
 11
2.40468
 21
163.157
 31
0.0
  0
LINE
  8
0
 62
     5
 10
2.40468
 20
163.157
 30
0.0
 11
2.60036
 21
163.164
 31
0.0
  0
LINE
  8
0
 62
     5
 10
2.60036
 20
163.164
 30
0.0
 11
235.439
 21
163.164
 31
0.0
  0
LINE
  8
0
 62
     5
 10
235.439
 20
163.164
 30
0.0
 11
235.635
 21
163.157
 31
0.0
  0
LINE
  8
0
 62
     5
 10
235.635
 20
163.157
 30
0.0
 11
235.831
 21
163.134
 31
0.0
  0
LINE
  8
0
 62
     5
 10
235.831
 20
163.134
 30
0.0
 11
236.024
 21
163.095
 31
0.0
  0
LINE
  8
0
 62
     5
 10
236.024
 20
163.095
 30
0.0
 11
236.212
 21
163.041
 31
0.0
  0
LINE
  8
0
 62
     5
 10
236.212
 20
163.041
 30
0.0
 11
236.396
 21
162.974
 31
0.0
  0
LINE
  8
0
 62
     5
 10
236.396
 20
162.974
 30
0.0
 11
236.573
 21
162.891
 31
0.0
  0
LINE
  8
0
 62
     5
 10
236.573
 20
162.891
 30
0.0
 11
236.746
 21
162.796
 31
0.0
  0
LINE
  8
0
 62
     5
 10
236.746
 20
162.796
 30
0.0
 11
236.908
 21
162.687
 31
0.0
  0
LINE
  8
0
 62
     5
 10
236.908
 20
162.687
 30
0.0
 11
237.062
 21
162.566
 31
0.0
  0
LINE
  8
0
 62
     5
 10
237.062
 20
162.566
 30
0.0
 11
237.207
 21
162.432
 31
0.0
  0
LINE
  8
0
 62
     5
 10
237.207
 20
162.432
 30
0.0
 11
237.339
 21
162.287
 31
0.0
  0
LINE
  8
0
 62
     5
 10
237.339
 20
162.287
 30
0.0
 11
237.462
 21
162.133
 31
0.0
  0
LINE
  8
0
 62
     5
 10
237.462
 20
162.133
 30
0.0
 11
237.571
 21
161.971
 31
0.0
  0
LINE
  8
0
 62
     5
 10
237.571
 20
161.971
 30
0.0
 11
237.667
 21
161.798
 31
0.0
  0
LINE
  8
0
 62
     5
 10
237.667
 20
161.798
 30
0.0
 11
237.749
 21
161.621
 31
0.0
  0
LINE
  8
0
 62
     5
 10
237.749
 20
161.621
 30
0.0
 11
237.816
 21
161.436
 31
0.0
  0
LINE
  8
0
 62
     5
 10
237.816
 20
161.436
 30
0.0
 11
237.87
 21
161.247
 31
0.0
  0
LINE
  8
0
 62
     5
 10
237.87
 20
161.247
 30
0.0
 11
237.909
 21
161.055
 31
0.0
  0
LINE
  8
0
 62
     5
 10
237.909
 20
161.055
 30
0.0
 11
237.931
 21
160.86
 31
0.0
  0
LINE
  8
0
 62
     5
 10
237.931
 20
160.86
 30
0.0
 11
237.939
 21
160.664
 31
0.0
  0
LINE
  8
0
 62
     5
 10
237.939
 20
160.664
 30
0.0
 11
237.939
 21
2.60036
 31
0.0
  0
LINE
  8
0
 62
     5
 10
237.939
 20
2.60036
 30
0.0
 11
237.931
 21
2.40468
 31
0.0
  0
LINE
  8
0
 62
     5
 10
237.931
 20
2.40468
 30
0.0
 11
237.909
 21
2.209
 31
0.0
  0
LINE
  8
0
 62
     5
 10
237.909
 20
2.209
 30
0.0
 11
237.87
 21
2.01607
 31
0.0
  0
LINE
  8
0
 62
     5
 10
237.87
 20
2.01607
 30
0.0
 11
237.816
 21
1.82728
 31
0.0
  0
LINE
  8
0
 62
     5
 10
237.816
 20
1.82728
 30
0.0
 11
237.749
 21
1.644
 31
0.0
  0
LINE
  8
0
 62
     5
 10
237.749
 20
1.644
 30
0.0
 11
237.667
 21
1.46485
 31
0.0
  0
LINE
  8
0
 62
     5
 10
237.667
 20
1.46485
 30
0.0
 11
237.571
 21
1.29398
 31
0.0
  0
LINE
  8
0
 62
     5
 10
237.571
 20
1.29398
 30
0.0
 11
237.462
 21
1.13137
 31
0.0
  0
LINE
  8
0
 62
     5
 10
237.462
 20
1.13137
 30
0.0
 11
237.339
 21
0.977029
 31
0.0
  0
LINE
  8
0
 62
     5
 10
35.5314
 20
13.7267
 30
0.0
 11
35.5314
 21
14.3261
 31
0.0
  0
LINE
  8
0
 62
     5
 10
35.5314
 20
14.3261
 30
0.0
 11
37.1066
 21
14.3261
 31
0.0
  0
LINE
  8
0
 62
     5
 10
37.1066
 20
14.3261
 30
0.0
 11
37.1066
 21
9.85711
 31
0.0
  0
LINE
  8
0
 62
     5
 10
37.1066
 20
9.85711
 30
0.0
 11
38.7823
 21
9.85711
 31
0.0
  0
LINE
  8
0
 62
     5
 10
38.7823
 20
9.85711
 30
0.0
 11
38.7823
 21
8.65685
 31
0.0
  0
LINE
  8
0
 62
     5
 10
38.7823
 20
8.65685
 30
0.0
 11
42.0825
 21
8.65685
 31
0.0
  0
LINE
  8
0
 62
     5
 10
42.0825
 20
8.65685
 30
0.0
 11
42.0825
 21
9.85711
 31
0.0
  0
LINE
  8
0
 62
     5
 10
42.0825
 20
9.85711
 30
0.0
 11
43.7568
 21
9.85711
 31
0.0
  0
LINE
  8
0
 62
     5
 10
43.7568
 20
9.85711
 30
0.0
 11
43.7568
 21
16.1258
 31
0.0
  0
LINE
  8
0
 62
     5
 10
43.7568
 20
16.1258
 30
0.0
 11
44.632
 21
16.1258
 31
0.0
  0
LINE
  8
0
 62
     5
 10
44.632
 20
16.1258
 30
0.0
 11
44.632
 21
18.926
 31
0.0
  0
LINE
  8
0
 62
     5
 10
44.632
 20
18.926
 30
0.0
 11
43.7568
 21
18.926
 31
0.0
  0
LINE
  8
0
 62
     5
 10
43.7568
 20
18.926
 30
0.0
 11
43.7568
 21
22.1561
 31
0.0
  0
LINE
  8
0
 62
     5
 10
43.7568
 20
22.1561
 30
0.0
 11
37.1066
 21
22.1561
 31
0.0
  0
LINE
  8
0
 62
     5
 10
37.1066
 20
22.1561
 30
0.0
 11
37.1066
 21
18.926
 31
0.0
  0
LINE
  8
0
 62
     5
 10
37.1066
 20
18.926
 30
0.0
 11
35.5314
 21
18.926
 31
0.0
  0
LINE
  8
0
 62
     5
 10
35.5314
 20
18.926
 30
0.0
 11
35.5314
 21
19.5268
 31
0.0
  0
LINE
  8
0
 62
     5
 10
35.5314
 20
19.5268
 30
0.0
 11
36.3319
 21
19.5268
 31
0.0
  0
LINE
  8
0
 62
     5
 10
36.3319
 20
19.5268
 30
0.0
 11
36.3319
 21
22.626
 31
0.0
  0
LINE
  8
0
 62
     5
 10
36.3319
 20
22.626
 30
0.0
 11
35.5314
 21
22.626
 31
0.0
  0
LINE
  8
0
 62
     5
 10
35.5314
 20
22.626
 30
0.0
 11
35.5314
 21
23.6265
 31
0.0
  0
LINE
  8
0
 62
     5
 10
35.5314
 20
23.6265
 30
0.0
 11
21.5319
 21
23.6265
 31
0.0
  0
LINE
  8
0
 62
     5
 10
21.5319
 20
23.6265
 30
0.0
 11
21.5319
 21
22.626
 31
0.0
  0
LINE
  8
0
 62
     5
 10
21.5319
 20
22.626
 30
0.0
 11
20.7326
 21
22.626
 31
0.0
  0
LINE
  8
0
 62
     5
 10
20.7326
 20
22.626
 30
0.0
 11
20.7326
 21
19.5268
 31
0.0
  0
LINE
  8
0
 62
     5
 10
20.7326
 20
19.5268
 30
0.0
 11
21.5319
 21
19.5268
 31
0.0
  0
LINE
  8
0
 62
     5
 10
21.5319
 20
19.5268
 30
0.0
 11
21.5319
 21
18.926
 31
0.0
  0
LINE
  8
0
 62
     5
 10
21.5319
 20
18.926
 30
0.0
 11
19.9567
 21
18.926
 31
0.0
  0
LINE
  8
0
 62
     5
 10
19.9567
 20
18.926
 30
0.0
 11
19.9567
 21
22.1561
 31
0.0
  0
LINE
  8
0
 62
     5
 10
19.9567
 20
22.1561
 30
0.0
 11
13.3064
 21
22.1561
 31
0.0
  0
LINE
  8
0
 62
     5
 10
13.3064
 20
22.1561
 30
0.0
 11
13.3064
 21
18.926
 31
0.0
  0
LINE
  8
0
 62
     5
 10
13.3064
 20
18.926
 30
0.0
 11
12.4327
 21
18.926
 31
0.0
  0
LINE
  8
0
 62
     5
 10
12.4327
 20
18.926
 30
0.0
 11
12.4327
 21
16.1258
 31
0.0
  0
LINE
  8
0
 62
     5
 10
12.4327
 20
16.1258
 30
0.0
 11
13.3064
 21
16.1258
 31
0.0
  0
LINE
  8
0
 62
     5
 10
13.3064
 20
16.1258
 30
0.0
 11
13.3064
 21
9.85711
 31
0.0
  0
LINE
  8
0
 62
     5
 10
13.3064
 20
9.85711
 30
0.0
 11
14.982
 21
9.85711
 31
0.0
  0
LINE
  8
0
 62
     5
 10
14.982
 20
9.85711
 30
0.0
 11
14.982
 21
8.65685
 31
0.0
  0
LINE
  8
0
 62
     5
 10
14.982
 20
8.65685
 30
0.0
 11
18.2824
 21
8.65685
 31
0.0
  0
LINE
  8
0
 62
     5
 10
18.2824
 20
8.65685
 30
0.0
 11
18.2824
 21
9.85711
 31
0.0
  0
LINE
  8
0
 62
     5
 10
18.2824
 20
9.85711
 30
0.0
 11
19.9567
 21
9.85711
 31
0.0
  0
LINE
  8
0
 62
     5
 10
19.9567
 20
9.85711
 30
0.0
 11
19.9567
 21
14.3261
 31
0.0
  0
LINE
  8
0
 62
     5
 10
19.9567
 20
14.3261
 30
0.0
 11
21.5319
 21
14.3261
 31
0.0
  0
LINE
  8
0
 62
     5
 10
21.5319
 20
14.3261
 30
0.0
 11
21.5319
 21
13.7267
 31
0.0
  0
LINE
  8
0
 62
     5
 10
21.5319
 20
13.7267
 30
0.0
 11
20.7326
 21
13.7267
 31
0.0
  0
LINE
  8
0
 62
     5
 10
20.7326
 20
13.7267
 30
0.0
 11
20.7326
 21
10.6261
 31
0.0
  0
LINE
  8
0
 62
     5
 10
20.7326
 20
10.6261
 30
0.0
 11
21.5319
 21
10.6261
 31
0.0
  0
LINE
  8
0
 62
     5
 10
21.5319
 20
10.6261
 30
0.0
 11
21.5319
 21
9.62699
 31
0.0
  0
LINE
  8
0
 62
     5
 10
21.5319
 20
9.62699
 30
0.0
 11
35.5314
 21
9.62699
 31
0.0
  0
LINE
  8
0
 62
     5
 10
35.5314
 20
9.62699
 30
0.0
 11
35.5314
 21
10.6261
 31
0.0
  0
LINE
  8
0
 62
     5
 10
35.5314
 20
10.6261
 30
0.0
 11
36.3319
 21
10.6261
 31
0.0
  0
LINE
  8
0
 62
     5
 10
36.3319
 20
10.6261
 30
0.0
 11
36.3319
 21
13.7267
 31
0.0
  0
LINE
  8
0
 62
     5
 10
36.3319
 20
13.7267
 30
0.0
 11
35.5314
 21
13.7267
 31
0.0
  0
LINE
  8
0
 62
     5
 10
68.8689
 20
9.62699
 30
0.0
 11
68.8689
 21
10.6261
 31
0.0
  0
LINE
  8
0
 62
     5
 10
68.8689
 20
10.6261
 30
0.0
 11
69.6694
 21
10.6261
 31
0.0
  0
LINE
  8
0
 62
     5
 10
69.6694
 20
10.6261
 30
0.0
 11
69.6694
 21
13.7267
 31
0.0
  0
LINE
  8
0
 62
     5
 10
69.6694
 20
13.7267
 30
0.0
 11
68.8689
 21
13.7267
 31
0.0
  0
LINE
  8
0
 62
     5
 10
68.8689
 20
13.7267
 30
0.0
 11
68.8689
 21
19.5268
 31
0.0
  0
LINE
  8
0
 62
     5
 10
68.8689
 20
19.5268
 30
0.0
 11
69.6694
 21
19.5268
 31
0.0
  0
LINE
  8
0
 62
     5
 10
69.6694
 20
19.5268
 30
0.0
 11
69.6694
 21
22.626
 31
0.0
  0
LINE
  8
0
 62
     5
 10
69.6694
 20
22.626
 30
0.0
 11
68.8689
 21
22.626
 31
0.0
  0
LINE
  8
0
 62
     5
 10
68.8689
 20
22.626
 30
0.0
 11
68.8689
 21
23.6265
 31
0.0
  0
LINE
  8
0
 62
     5
 10
68.8689
 20
23.6265
 30
0.0
 11
54.8693
 21
23.6265
 31
0.0
  0
LINE
  8
0
 62
     5
 10
54.8693
 20
23.6265
 30
0.0
 11
54.8693
 21
22.626
 31
0.0
  0
LINE
  8
0
 62
     5
 10
54.8693
 20
22.626
 30
0.0
 11
54.0688
 21
22.626
 31
0.0
  0
LINE
  8
0
 62
     5
 10
54.0688
 20
22.626
 30
0.0
 11
54.0688
 21
19.5268
 31
0.0
  0
LINE
  8
0
 62
     5
 10
54.0688
 20
19.5268
 30
0.0
 11
54.8693
 21
19.5268
 31
0.0
  0
LINE
  8
0
 62
     5
 10
54.8693
 20
19.5268
 30
0.0
 11
54.8693
 21
13.7267
 31
0.0
  0
LINE
  8
0
 62
     5
 10
54.8693
 20
13.7267
 30
0.0
 11
54.0688
 21
13.7267
 31
0.0
  0
LINE
  8
0
 62
     5
 10
54.0688
 20
13.7267
 30
0.0
 11
54.0688
 21
10.6261
 31
0.0
  0
LINE
  8
0
 62
     5
 10
54.0688
 20
10.6261
 30
0.0
 11
54.8693
 21
10.6261
 31
0.0
  0
LINE
  8
0
 62
     5
 10
54.8693
 20
10.6261
 30
0.0
 11
54.8693
 21
9.62699
 31
0.0
  0
LINE
  8
0
 62
     5
 10
54.8693
 20
9.62699
 30
0.0
 11
68.8689
 21
9.62699
 31
0.0
  0
LINE
  8
0
 62
     5
 10
92.6814
 20
9.62699
 30
0.0
 11
92.6814
 21
10.6261
 31
0.0
  0
LINE
  8
0
 62
     5
 10
92.6814
 20
10.6261
 30
0.0
 11
93.4819
 21
10.6261
 31
0.0
  0
LINE
  8
0
 62
     5
 10
93.4819
 20
10.6261
 30
0.0
 11
93.4819
 21
13.7267
 31
0.0
  0
LINE
  8
0
 62
     5
 10
93.4819
 20
13.7267
 30
0.0
 11
92.6814
 21
13.7267
 31
0.0
  0
LINE
  8
0
 62
     5
 10
92.6814
 20
13.7267
 30
0.0
 11
92.6814
 21
19.5268
 31
0.0
  0
LINE
  8
0
 62
     5
 10
92.6814
 20
19.5268
 30
0.0
 11
93.4819
 21
19.5268
 31
0.0
  0
LINE
  8
0
 62
     5
 10
93.4819
 20
19.5268
 30
0.0
 11
93.4819
 21
22.626
 31
0.0
  0
LINE
  8
0
 62
     5
 10
93.4819
 20
22.626
 30
0.0
 11
92.6814
 21
22.626
 31
0.0
  0
LINE
  8
0
 62
     5
 10
92.6814
 20
22.626
 30
0.0
 11
92.6814
 21
23.6265
 31
0.0
  0
LINE
  8
0
 62
     5
 10
92.6814
 20
23.6265
 30
0.0
 11
78.6818
 21
23.6265
 31
0.0
  0
LINE
  8
0
 62
     5
 10
78.6818
 20
23.6265
 30
0.0
 11
78.6818
 21
22.626
 31
0.0
  0
LINE
  8
0
 62
     5
 10
78.6818
 20
22.626
 30
0.0
 11
77.8828
 21
22.626
 31
0.0
  0
LINE
  8
0
 62
     5
 10
77.8828
 20
22.626
 30
0.0
 11
77.8828
 21
19.5268
 31
0.0
  0
LINE
  8
0
 62
     5
 10
77.8828
 20
19.5268
 30
0.0
 11
78.6818
 21
19.5268
 31
0.0
  0
LINE
  8
0
 62
     5
 10
78.6818
 20
19.5268
 30
0.0
 11
78.6818
 21
13.7267
 31
0.0
  0
LINE
  8
0
 62
     5
 10
78.6818
 20
13.7267
 30
0.0
 11
77.8828
 21
13.7267
 31
0.0
  0
LINE
  8
0
 62
     5
 10
77.8828
 20
13.7267
 30
0.0
 11
77.8828
 21
10.6261
 31
0.0
  0
LINE
  8
0
 62
     5
 10
77.8828
 20
10.6261
 30
0.0
 11
78.6818
 21
10.6261
 31
0.0
  0
LINE
  8
0
 62
     5
 10
78.6818
 20
10.6261
 30
0.0
 11
78.6818
 21
9.62699
 31
0.0
  0
LINE
  8
0
 62
     5
 10
78.6818
 20
9.62699
 30
0.0
 11
92.6814
 21
9.62699
 31
0.0
  0
LINE
  8
0
 62
     5
 10
116.494
 20
9.62699
 30
0.0
 11
116.494
 21
10.6261
 31
0.0
  0
LINE
  8
0
 62
     5
 10
116.494
 20
10.6261
 30
0.0
 11
117.294
 21
10.6261
 31
0.0
  0
LINE
  8
0
 62
     5
 10
117.294
 20
10.6261
 30
0.0
 11
117.294
 21
13.7267
 31
0.0
  0
LINE
  8
0
 62
     5
 10
117.294
 20
13.7267
 30
0.0
 11
116.494
 21
13.7267
 31
0.0
  0
LINE
  8
0
 62
     5
 10
116.494
 20
13.7267
 30
0.0
 11
116.494
 21
19.5268
 31
0.0
  0
LINE
  8
0
 62
     5
 10
116.494
 20
19.5268
 30
0.0
 11
117.294
 21
19.5268
 31
0.0
  0
LINE
  8
0
 62
     5
 10
117.294
 20
19.5268
 30
0.0
 11
117.294
 21
22.626
 31
0.0
  0
LINE
  8
0
 62
     5
 10
117.294
 20
22.626
 30
0.0
 11
116.494
 21
22.626
 31
0.0
  0
LINE
  8
0
 62
     5
 10
116.494
 20
22.626
 30
0.0
 11
116.494
 21
23.6265
 31
0.0
  0
LINE
  8
0
 62
     5
 10
116.494
 20
23.6265
 30
0.0
 11
102.494
 21
23.6265
 31
0.0
  0
LINE
  8
0
 62
     5
 10
102.494
 20
23.6265
 30
0.0
 11
102.494
 21
22.626
 31
0.0
  0
LINE
  8
0
 62
     5
 10
102.494
 20
22.626
 30
0.0
 11
101.694
 21
22.626
 31
0.0
  0
LINE
  8
0
 62
     5
 10
101.694
 20
22.626
 30
0.0
 11
101.694
 21
19.5268
 31
0.0
  0
LINE
  8
0
 62
     5
 10
101.694
 20
19.5268
 30
0.0
 11
102.494
 21
19.5268
 31
0.0
  0
LINE
  8
0
 62
     5
 10
102.494
 20
19.5268
 30
0.0
 11
102.494
 21
13.7267
 31
0.0
  0
LINE
  8
0
 62
     5
 10
102.494
 20
13.7267
 30
0.0
 11
101.694
 21
13.7267
 31
0.0
  0
LINE
  8
0
 62
     5
 10
101.694
 20
13.7267
 30
0.0
 11
101.694
 21
10.6261
 31
0.0
  0
LINE
  8
0
 62
     5
 10
101.694
 20
10.6261
 30
0.0
 11
102.494
 21
10.6261
 31
0.0
  0
LINE
  8
0
 62
     5
 10
102.494
 20
10.6261
 30
0.0
 11
102.494
 21
9.62699
 31
0.0
  0
LINE
  8
0
 62
     5
 10
102.494
 20
9.62699
 30
0.0
 11
116.494
 21
9.62699
 31
0.0
  0
LINE
  8
0
 62
     5
 10
140.306
 20
9.62699
 30
0.0
 11
140.306
 21
10.6261
 31
0.0
  0
LINE
  8
0
 62
     5
 10
140.306
 20
10.6261
 30
0.0
 11
141.107
 21
10.6261
 31
0.0
  0
LINE
  8
0
 62
     5
 10
141.107
 20
10.6261
 30
0.0
 11
141.107
 21
13.7267
 31
0.0
  0
LINE
  8
0
 62
     5
 10
141.107
 20
13.7267
 30
0.0
 11
140.306
 21
13.7267
 31
0.0
  0
LINE
  8
0
 62
     5
 10
140.306
 20
13.7267
 30
0.0
 11
140.306
 21
19.5268
 31
0.0
  0
LINE
  8
0
 62
     5
 10
140.306
 20
19.5268
 30
0.0
 11
141.107
 21
19.5268
 31
0.0
  0
LINE
  8
0
 62
     5
 10
141.107
 20
19.5268
 30
0.0
 11
141.107
 21
22.626
 31
0.0
  0
LINE
  8
0
 62
     5
 10
141.107
 20
22.626
 30
0.0
 11
140.306
 21
22.626
 31
0.0
  0
LINE
  8
0
 62
     5
 10
140.306
 20
22.626
 30
0.0
 11
140.306
 21
23.6265
 31
0.0
  0
LINE
  8
0
 62
     5
 10
140.306
 20
23.6265
 30
0.0
 11
126.307
 21
23.6265
 31
0.0
  0
LINE
  8
0
 62
     5
 10
126.307
 20
23.6265
 30
0.0
 11
126.307
 21
22.626
 31
0.0
  0
LINE
  8
0
 62
     5
 10
126.307
 20
22.626
 30
0.0
 11
125.508
 21
22.626
 31
0.0
  0
LINE
  8
0
 62
     5
 10
125.508
 20
22.626
 30
0.0
 11
125.508
 21
19.5268
 31
0.0
  0
LINE
  8
0
 62
     5
 10
125.508
 20
19.5268
 30
0.0
 11
126.307
 21
19.5268
 31
0.0
  0
LINE
  8
0
 62
     5
 10
126.307
 20
19.5268
 30
0.0
 11
126.307
 21
13.7267
 31
0.0
  0
LINE
  8
0
 62
     5
 10
126.307
 20
13.7267
 30
0.0
 11
125.508
 21
13.7267
 31
0.0
  0
LINE
  8
0
 62
     5
 10
125.508
 20
13.7267
 30
0.0
 11
125.508
 21
10.6261
 31
0.0
  0
LINE
  8
0
 62
     5
 10
125.508
 20
10.6261
 30
0.0
 11
126.307
 21
10.6261
 31
0.0
  0
LINE
  8
0
 62
     5
 10
126.307
 20
10.6261
 30
0.0
 11
126.307
 21
9.62699
 31
0.0
  0
LINE
  8
0
 62
     5
 10
126.307
 20
9.62699
 30
0.0
 11
140.306
 21
9.62699
 31
0.0
  0
LINE
  8
0
 62
     5
 10
164.119
 20
9.62699
 30
0.0
 11
164.119
 21
10.6261
 31
0.0
  0
LINE
  8
0
 62
     5
 10
164.119
 20
10.6261
 30
0.0
 11
164.919
 21
10.6261
 31
0.0
  0
LINE
  8
0
 62
     5
 10
164.919
 20
10.6261
 30
0.0
 11
164.919
 21
13.7267
 31
0.0
  0
LINE
  8
0
 62
     5
 10
164.919
 20
13.7267
 30
0.0
 11
164.119
 21
13.7267
 31
0.0
  0
LINE
  8
0
 62
     5
 10
164.119
 20
13.7267
 30
0.0
 11
164.119
 21
19.5268
 31
0.0
  0
LINE
  8
0
 62
     5
 10
164.119
 20
19.5268
 30
0.0
 11
164.919
 21
19.5268
 31
0.0
  0
LINE
  8
0
 62
     5
 10
164.919
 20
19.5268
 30
0.0
 11
164.919
 21
22.626
 31
0.0
  0
LINE
  8
0
 62
     5
 10
164.919
 20
22.626
 30
0.0
 11
164.119
 21
22.626
 31
0.0
  0
LINE
  8
0
 62
     5
 10
164.119
 20
22.626
 30
0.0
 11
164.119
 21
23.6265
 31
0.0
  0
LINE
  8
0
 62
     5
 10
164.119
 20
23.6265
 30
0.0
 11
150.119
 21
23.6265
 31
0.0
  0
LINE
  8
0
 62
     5
 10
150.119
 20
23.6265
 30
0.0
 11
150.119
 21
22.626
 31
0.0
  0
LINE
  8
0
 62
     5
 10
150.119
 20
22.626
 30
0.0
 11
149.319
 21
22.626
 31
0.0
  0
LINE
  8
0
 62
     5
 10
149.319
 20
22.626
 30
0.0
 11
149.319
 21
19.5268
 31
0.0
  0
LINE
  8
0
 62
     5
 10
149.319
 20
19.5268
 30
0.0
 11
150.119
 21
19.5268
 31
0.0
  0
LINE
  8
0
 62
     5
 10
150.119
 20
19.5268
 30
0.0
 11
150.119
 21
13.7267
 31
0.0
  0
LINE
  8
0
 62
     5
 10
150.119
 20
13.7267
 30
0.0
 11
149.319
 21
13.7267
 31
0.0
  0
LINE
  8
0
 62
     5
 10
149.319
 20
13.7267
 30
0.0
 11
149.319
 21
10.6261
 31
0.0
  0
LINE
  8
0
 62
     5
 10
149.319
 20
10.6261
 30
0.0
 11
150.119
 21
10.6261
 31
0.0
  0
LINE
  8
0
 62
     5
 10
150.119
 20
10.6261
 30
0.0
 11
150.119
 21
9.62699
 31
0.0
  0
LINE
  8
0
 62
     5
 10
150.119
 20
9.62699
 30
0.0
 11
164.119
 21
9.62699
 31
0.0
  0
LINE
  8
0
 62
     5
 10
190.313
 20
9.62699
 30
0.0
 11
190.313
 21
10.6261
 31
0.0
  0
LINE
  8
0
 62
     5
 10
190.313
 20
10.6261
 30
0.0
 11
191.113
 21
10.6261
 31
0.0
  0
LINE
  8
0
 62
     5
 10
191.113
 20
10.6261
 30
0.0
 11
191.113
 21
13.7267
 31
0.0
  0
LINE
  8
0
 62
     5
 10
191.113
 20
13.7267
 30
0.0
 11
190.313
 21
13.7267
 31
0.0
  0
LINE
  8
0
 62
     5
 10
190.313
 20
13.7267
 30
0.0
 11
190.313
 21
19.5268
 31
0.0
  0
LINE
  8
0
 62
     5
 10
190.313
 20
19.5268
 30
0.0
 11
191.113
 21
19.5268
 31
0.0
  0
LINE
  8
0
 62
     5
 10
191.113
 20
19.5268
 30
0.0
 11
191.113
 21
22.626
 31
0.0
  0
LINE
  8
0
 62
     5
 10
191.113
 20
22.626
 30
0.0
 11
190.313
 21
22.626
 31
0.0
  0
LINE
  8
0
 62
     5
 10
190.313
 20
22.626
 30
0.0
 11
190.313
 21
23.6265
 31
0.0
  0
LINE
  8
0
 62
     5
 10
190.313
 20
23.6265
 30
0.0
 11
176.313
 21
23.6265
 31
0.0
  0
LINE
  8
0
 62
     5
 10
176.313
 20
23.6265
 30
0.0
 11
176.313
 21
22.626
 31
0.0
  0
LINE
  8
0
 62
     5
 10
176.313
 20
22.626
 30
0.0
 11
175.513
 21
22.626
 31
0.0
  0
LINE
  8
0
 62
     5
 10
175.513
 20
22.626
 30
0.0
 11
175.513
 21
19.5268
 31
0.0
  0
LINE
  8
0
 62
     5
 10
175.513
 20
19.5268
 30
0.0
 11
176.313
 21
19.5268
 31
0.0
  0
LINE
  8
0
 62
     5
 10
176.313
 20
19.5268
 30
0.0
 11
176.313
 21
13.7267
 31
0.0
  0
LINE
  8
0
 62
     5
 10
176.313
 20
13.7267
 30
0.0
 11
175.513
 21
13.7267
 31
0.0
  0
LINE
  8
0
 62
     5
 10
175.513
 20
13.7267
 30
0.0
 11
175.513
 21
10.6261
 31
0.0
  0
LINE
  8
0
 62
     5
 10
175.513
 20
10.6261
 30
0.0
 11
176.313
 21
10.6261
 31
0.0
  0
LINE
  8
0
 62
     5
 10
176.313
 20
10.6261
 30
0.0
 11
176.313
 21
9.62699
 31
0.0
  0
LINE
  8
0
 62
     5
 10
176.313
 20
9.62699
 30
0.0
 11
190.313
 21
9.62699
 31
0.0
  0
LINE
  8
0
 62
     5
 10
209.363
 20
9.62699
 30
0.0
 11
209.363
 21
10.6261
 31
0.0
  0
LINE
  8
0
 62
     5
 10
209.363
 20
10.6261
 30
0.0
 11
210.163
 21
10.6261
 31
0.0
  0
LINE
  8
0
 62
     5
 10
210.163
 20
10.6261
 30
0.0
 11
210.163
 21
13.7267
 31
0.0
  0
LINE
  8
0
 62
     5
 10
210.163
 20
13.7267
 30
0.0
 11
209.363
 21
13.7267
 31
0.0
  0
LINE
  8
0
 62
     5
 10
209.363
 20
13.7267
 30
0.0
 11
209.363
 21
19.5268
 31
0.0
  0
LINE
  8
0
 62
     5
 10
209.363
 20
19.5268
 30
0.0
 11
210.163
 21
19.5268
 31
0.0
  0
LINE
  8
0
 62
     5
 10
210.163
 20
19.5268
 30
0.0
 11
210.163
 21
22.626
 31
0.0
  0
LINE
  8
0
 62
     5
 10
210.163
 20
22.626
 30
0.0
 11
209.363
 21
22.626
 31
0.0
  0
LINE
  8
0
 62
     5
 10
209.363
 20
22.626
 30
0.0
 11
209.363
 21
23.6265
 31
0.0
  0
LINE
  8
0
 62
     5
 10
209.363
 20
23.6265
 30
0.0
 11
195.363
 21
23.6265
 31
0.0
  0
LINE
  8
0
 62
     5
 10
195.363
 20
23.6265
 30
0.0
 11
195.363
 21
22.626
 31
0.0
  0
LINE
  8
0
 62
     5
 10
195.363
 20
22.626
 30
0.0
 11
194.563
 21
22.626
 31
0.0
  0
LINE
  8
0
 62
     5
 10
194.563
 20
22.626
 30
0.0
 11
194.563
 21
19.5268
 31
0.0
  0
LINE
  8
0
 62
     5
 10
194.563
 20
19.5268
 30
0.0
 11
195.363
 21
19.5268
 31
0.0
  0
LINE
  8
0
 62
     5
 10
195.363
 20
19.5268
 30
0.0
 11
195.363
 21
13.7267
 31
0.0
  0
LINE
  8
0
 62
     5
 10
195.363
 20
13.7267
 30
0.0
 11
194.563
 21
13.7267
 31
0.0
  0
LINE
  8
0
 62
     5
 10
194.563
 20
13.7267
 30
0.0
 11
194.563
 21
10.6261
 31
0.0
  0
LINE
  8
0
 62
     5
 10
194.563
 20
10.6261
 30
0.0
 11
195.363
 21
10.6261
 31
0.0
  0
LINE
  8
0
 62
     5
 10
195.363
 20
10.6261
 30
0.0
 11
195.363
 21
9.62699
 31
0.0
  0
LINE
  8
0
 62
     5
 10
195.363
 20
9.62699
 30
0.0
 11
209.363
 21
9.62699
 31
0.0
  0
LINE
  8
0
 62
     5
 10
228.413
 20
9.62699
 30
0.0
 11
228.413
 21
10.6261
 31
0.0
  0
LINE
  8
0
 62
     5
 10
228.413
 20
10.6261
 30
0.0
 11
229.213
 21
10.6261
 31
0.0
  0
LINE
  8
0
 62
     5
 10
229.213
 20
10.6261
 30
0.0
 11
229.213
 21
13.7267
 31
0.0
  0
LINE
  8
0
 62
     5
 10
229.213
 20
13.7267
 30
0.0
 11
228.413
 21
13.7267
 31
0.0
  0
LINE
  8
0
 62
     5
 10
228.413
 20
13.7267
 30
0.0
 11
228.413
 21
19.5268
 31
0.0
  0
LINE
  8
0
 62
     5
 10
228.413
 20
19.5268
 30
0.0
 11
229.213
 21
19.5268
 31
0.0
  0
LINE
  8
0
 62
     5
 10
229.213
 20
19.5268
 30
0.0
 11
229.213
 21
22.626
 31
0.0
  0
LINE
  8
0
 62
     5
 10
229.213
 20
22.626
 30
0.0
 11
228.413
 21
22.626
 31
0.0
  0
LINE
  8
0
 62
     5
 10
228.413
 20
22.626
 30
0.0
 11
228.413
 21
23.6265
 31
0.0
  0
LINE
  8
0
 62
     5
 10
228.413
 20
23.6265
 30
0.0
 11
214.413
 21
23.6265
 31
0.0
  0
LINE
  8
0
 62
     5
 10
214.413
 20
23.6265
 30
0.0
 11
214.413
 21
22.626
 31
0.0
  0
LINE
  8
0
 62
     5
 10
214.413
 20
22.626
 30
0.0
 11
213.613
 21
22.626
 31
0.0
  0
LINE
  8
0
 62
     5
 10
213.613
 20
22.626
 30
0.0
 11
213.613
 21
19.5268
 31
0.0
  0
LINE
  8
0
 62
     5
 10
213.613
 20
19.5268
 30
0.0
 11
214.413
 21
19.5268
 31
0.0
  0
LINE
  8
0
 62
     5
 10
214.413
 20
19.5268
 30
0.0
 11
214.413
 21
13.7267
 31
0.0
  0
LINE
  8
0
 62
     5
 10
214.413
 20
13.7267
 30
0.0
 11
213.613
 21
13.7267
 31
0.0
  0
LINE
  8
0
 62
     5
 10
213.613
 20
13.7267
 30
0.0
 11
213.613
 21
10.6261
 31
0.0
  0
LINE
  8
0
 62
     5
 10
213.613
 20
10.6261
 30
0.0
 11
214.413
 21
10.6261
 31
0.0
  0
LINE
  8
0
 62
     5
 10
214.413
 20
10.6261
 30
0.0
 11
214.413
 21
9.62699
 31
0.0
  0
LINE
  8
0
 62
     5
 10
214.413
 20
9.62699
 30
0.0
 11
228.413
 21
9.62699
 31
0.0
  0
LINE
  8
0
 62
     5
 10
149.831
 20
32.7767
 30
0.0
 11
149.831
 21
33.3761
 31
0.0
  0
LINE
  8
0
 62
     5
 10
149.831
 20
33.3761
 30
0.0
 11
151.407
 21
33.3761
 31
0.0
  0
LINE
  8
0
 62
     5
 10
151.407
 20
33.3761
 30
0.0
 11
151.407
 21
28.9071
 31
0.0
  0
LINE
  8
0
 62
     5
 10
151.407
 20
28.9071
 30
0.0
 11
153.082
 21
28.9071
 31
0.0
  0
LINE
  8
0
 62
     5
 10
153.082
 20
28.9071
 30
0.0
 11
153.082
 21
27.7068
 31
0.0
  0
LINE
  8
0
 62
     5
 10
153.082
 20
27.7068
 30
0.0
 11
156.383
 21
27.7068
 31
0.0
  0
LINE
  8
0
 62
     5
 10
156.383
 20
27.7068
 30
0.0
 11
156.383
 21
28.9071
 31
0.0
  0
LINE
  8
0
 62
     5
 10
156.383
 20
28.9071
 30
0.0
 11
158.057
 21
28.9071
 31
0.0
  0
LINE
  8
0
 62
     5
 10
158.057
 20
28.9071
 30
0.0
 11
158.057
 21
35.1758
 31
0.0
  0
LINE
  8
0
 62
     5
 10
158.057
 20
35.1758
 30
0.0
 11
158.932
 21
35.1758
 31
0.0
  0
LINE
  8
0
 62
     5
 10
158.932
 20
35.1758
 30
0.0
 11
158.932
 21
37.9758
 31
0.0
  0
LINE
  8
0
 62
     5
 10
158.932
 20
37.9758
 30
0.0
 11
158.057
 21
37.9758
 31
0.0
  0
LINE
  8
0
 62
     5
 10
158.057
 20
37.9758
 30
0.0
 11
158.057
 21
41.2062
 31
0.0
  0
LINE
  8
0
 62
     5
 10
158.057
 20
41.2062
 30
0.0
 11
151.407
 21
41.2062
 31
0.0
  0
LINE
  8
0
 62
     5
 10
151.407
 20
41.2062
 30
0.0
 11
151.407
 21
37.9758
 31
0.0
  0
LINE
  8
0
 62
     5
 10
151.407
 20
37.9758
 30
0.0
 11
149.831
 21
37.9758
 31
0.0
  0
LINE
  8
0
 62
     5
 10
149.831
 20
37.9758
 30
0.0
 11
149.831
 21
38.577
 31
0.0
  0
LINE
  8
0
 62
     5
 10
149.831
 20
38.577
 30
0.0
 11
150.632
 21
38.577
 31
0.0
  0
LINE
  8
0
 62
     5
 10
150.632
 20
38.577
 30
0.0
 11
150.632
 21
41.6761
 31
0.0
  0
LINE
  8
0
 62
     5
 10
150.632
 20
41.6761
 30
0.0
 11
149.831
 21
41.6761
 31
0.0
  0
LINE
  8
0
 62
     5
 10
149.831
 20
41.6761
 30
0.0
 11
149.831
 21
42.6766
 31
0.0
  0
LINE
  8
0
 62
     5
 10
149.831
 20
42.6766
 30
0.0
 11
135.832
 21
42.6766
 31
0.0
  0
LINE
  8
0
 62
     5
 10
135.832
 20
42.6766
 30
0.0
 11
135.832
 21
41.6761
 31
0.0
  0
LINE
  8
0
 62
     5
 10
135.832
 20
41.6761
 30
0.0
 11
135.033
 21
41.6761
 31
0.0
  0
LINE
  8
0
 62
     5
 10
135.033
 20
41.6761
 30
0.0
 11
135.033
 21
38.577
 31
0.0
  0
LINE
  8
0
 62
     5
 10
135.033
 20
38.577
 30
0.0
 11
135.832
 21
38.577
 31
0.0
  0
LINE
  8
0
 62
     5
 10
135.832
 20
38.577
 30
0.0
 11
135.832
 21
37.9758
 31
0.0
  0
LINE
  8
0
 62
     5
 10
135.832
 20
37.9758
 30
0.0
 11
134.257
 21
37.9758
 31
0.0
  0
LINE
  8
0
 62
     5
 10
134.257
 20
37.9758
 30
0.0
 11
134.257
 21
41.2062
 31
0.0
  0
LINE
  8
0
 62
     5
 10
134.257
 20
41.2062
 30
0.0
 11
127.606
 21
41.2062
 31
0.0
  0
LINE
  8
0
 62
     5
 10
127.606
 20
41.2062
 30
0.0
 11
127.606
 21
37.9758
 31
0.0
  0
LINE
  8
0
 62
     5
 10
127.606
 20
37.9758
 30
0.0
 11
126.733
 21
37.9758
 31
0.0
  0
LINE
  8
0
 62
     5
 10
126.733
 20
37.9758
 30
0.0
 11
126.733
 21
35.1758
 31
0.0
  0
LINE
  8
0
 62
     5
 10
126.733
 20
35.1758
 30
0.0
 11
127.606
 21
35.1758
 31
0.0
  0
LINE
  8
0
 62
     5
 10
127.606
 20
35.1758
 30
0.0
 11
127.606
 21
28.9071
 31
0.0
  0
LINE
  8
0
 62
     5
 10
127.606
 20
28.9071
 30
0.0
 11
129.282
 21
28.9071
 31
0.0
  0
LINE
  8
0
 62
     5
 10
129.282
 20
28.9071
 30
0.0
 11
129.282
 21
27.7068
 31
0.0
  0
LINE
  8
0
 62
     5
 10
129.282
 20
27.7068
 30
0.0
 11
132.582
 21
27.7068
 31
0.0
  0
LINE
  8
0
 62
     5
 10
132.582
 20
27.7068
 30
0.0
 11
132.582
 21
28.9071
 31
0.0
  0
LINE
  8
0
 62
     5
 10
132.582
 20
28.9071
 30
0.0
 11
134.257
 21
28.9071
 31
0.0
  0
LINE
  8
0
 62
     5
 10
134.257
 20
28.9071
 30
0.0
 11
134.257
 21
33.3761
 31
0.0
  0
LINE
  8
0
 62
     5
 10
134.257
 20
33.3761
 30
0.0
 11
135.832
 21
33.3761
 31
0.0
  0
LINE
  8
0
 62
     5
 10
135.832
 20
33.3761
 30
0.0
 11
135.832
 21
32.7767
 31
0.0
  0
LINE
  8
0
 62
     5
 10
135.832
 20
32.7767
 30
0.0
 11
135.033
 21
32.7767
 31
0.0
  0
LINE
  8
0
 62
     5
 10
135.033
 20
32.7767
 30
0.0
 11
135.033
 21
29.6761
 31
0.0
  0
LINE
  8
0
 62
     5
 10
135.033
 20
29.6761
 30
0.0
 11
135.832
 21
29.6761
 31
0.0
  0
LINE
  8
0
 62
     5
 10
135.832
 20
29.6761
 30
0.0
 11
135.832
 21
28.677
 31
0.0
  0
LINE
  8
0
 62
     5
 10
135.832
 20
28.677
 30
0.0
 11
149.831
 21
28.677
 31
0.0
  0
LINE
  8
0
 62
     5
 10
149.831
 20
28.677
 30
0.0
 11
149.831
 21
29.6761
 31
0.0
  0
LINE
  8
0
 62
     5
 10
149.831
 20
29.6761
 30
0.0
 11
150.632
 21
29.6761
 31
0.0
  0
LINE
  8
0
 62
     5
 10
150.632
 20
29.6761
 30
0.0
 11
150.632
 21
32.7767
 31
0.0
  0
LINE
  8
0
 62
     5
 10
150.632
 20
32.7767
 30
0.0
 11
149.831
 21
32.7767
 31
0.0
  0
LINE
  8
0
 62
     5
 10
37.9127
 20
28.677
 30
0.0
 11
37.9127
 21
29.6761
 31
0.0
  0
LINE
  8
0
 62
     5
 10
37.9127
 20
29.6761
 30
0.0
 11
38.7131
 21
29.6761
 31
0.0
  0
LINE
  8
0
 62
     5
 10
38.7131
 20
29.6761
 30
0.0
 11
38.7131
 21
32.7767
 31
0.0
  0
LINE
  8
0
 62
     5
 10
38.7131
 20
32.7767
 30
0.0
 11
37.9127
 21
32.7767
 31
0.0
  0
LINE
  8
0
 62
     5
 10
37.9127
 20
32.7767
 30
0.0
 11
37.9127
 21
38.577
 31
0.0
  0
LINE
  8
0
 62
     5
 10
37.9127
 20
38.577
 30
0.0
 11
38.7131
 21
38.577
 31
0.0
  0
LINE
  8
0
 62
     5
 10
38.7131
 20
38.577
 30
0.0
 11
38.7131
 21
41.6761
 31
0.0
  0
LINE
  8
0
 62
     5
 10
38.7131
 20
41.6761
 30
0.0
 11
37.9127
 21
41.6761
 31
0.0
  0
LINE
  8
0
 62
     5
 10
37.9127
 20
41.6761
 30
0.0
 11
37.9127
 21
42.6766
 31
0.0
  0
LINE
  8
0
 62
     5
 10
37.9127
 20
42.6766
 30
0.0
 11
23.9131
 21
42.6766
 31
0.0
  0
LINE
  8
0
 62
     5
 10
23.9131
 20
42.6766
 30
0.0
 11
23.9131
 21
41.6761
 31
0.0
  0
LINE
  8
0
 62
     5
 10
23.9131
 20
41.6761
 30
0.0
 11
23.1124
 21
41.6761
 31
0.0
  0
LINE
  8
0
 62
     5
 10
23.1124
 20
41.6761
 30
0.0
 11
23.1124
 21
38.577
 31
0.0
  0
LINE
  8
0
 62
     5
 10
23.1124
 20
38.577
 30
0.0
 11
23.9131
 21
38.577
 31
0.0
  0
LINE
  8
0
 62
     5
 10
23.9131
 20
38.577
 30
0.0
 11
23.9131
 21
32.7767
 31
0.0
  0
LINE
  8
0
 62
     5
 10
23.9131
 20
32.7767
 30
0.0
 11
23.1124
 21
32.7767
 31
0.0
  0
LINE
  8
0
 62
     5
 10
23.1124
 20
32.7767
 30
0.0
 11
23.1124
 21
29.6761
 31
0.0
  0
LINE
  8
0
 62
     5
 10
23.1124
 20
29.6761
 30
0.0
 11
23.9131
 21
29.6761
 31
0.0
  0
LINE
  8
0
 62
     5
 10
23.9131
 20
29.6761
 30
0.0
 11
23.9131
 21
28.677
 31
0.0
  0
LINE
  8
0
 62
     5
 10
23.9131
 20
28.677
 30
0.0
 11
37.9127
 21
28.677
 31
0.0
  0
LINE
  8
0
 62
     5
 10
56.9627
 20
28.677
 30
0.0
 11
56.9627
 21
29.6761
 31
0.0
  0
LINE
  8
0
 62
     5
 10
56.9627
 20
29.6761
 30
0.0
 11
57.7631
 21
29.6761
 31
0.0
  0
LINE
  8
0
 62
     5
 10
57.7631
 20
29.6761
 30
0.0
 11
57.7631
 21
32.7767
 31
0.0
  0
LINE
  8
0
 62
     5
 10
57.7631
 20
32.7767
 30
0.0
 11
56.9627
 21
32.7767
 31
0.0
  0
LINE
  8
0
 62
     5
 10
56.9627
 20
32.7767
 30
0.0
 11
56.9627
 21
38.577
 31
0.0
  0
LINE
  8
0
 62
     5
 10
56.9627
 20
38.577
 30
0.0
 11
57.7631
 21
38.577
 31
0.0
  0
LINE
  8
0
 62
     5
 10
57.7631
 20
38.577
 30
0.0
 11
57.7631
 21
41.6761
 31
0.0
  0
LINE
  8
0
 62
     5
 10
57.7631
 20
41.6761
 30
0.0
 11
56.9627
 21
41.6761
 31
0.0
  0
LINE
  8
0
 62
     5
 10
56.9627
 20
41.6761
 30
0.0
 11
56.9627
 21
42.6766
 31
0.0
  0
LINE
  8
0
 62
     5
 10
56.9627
 20
42.6766
 30
0.0
 11
42.963
 21
42.6766
 31
0.0
  0
LINE
  8
0
 62
     5
 10
42.963
 20
42.6766
 30
0.0
 11
42.963
 21
41.6761
 31
0.0
  0
LINE
  8
0
 62
     5
 10
42.963
 20
41.6761
 30
0.0
 11
42.1626
 21
41.6761
 31
0.0
  0
LINE
  8
0
 62
     5
 10
42.1626
 20
41.6761
 30
0.0
 11
42.1626
 21
38.577
 31
0.0
  0
LINE
  8
0
 62
     5
 10
42.1626
 20
38.577
 30
0.0
 11
42.963
 21
38.577
 31
0.0
  0
LINE
  8
0
 62
     5
 10
42.963
 20
38.577
 30
0.0
 11
42.963
 21
32.7767
 31
0.0
  0
LINE
  8
0
 62
     5
 10
42.963
 20
32.7767
 30
0.0
 11
42.1626
 21
32.7767
 31
0.0
  0
LINE
  8
0
 62
     5
 10
42.1626
 20
32.7767
 30
0.0
 11
42.1626
 21
29.6761
 31
0.0
  0
LINE
  8
0
 62
     5
 10
42.1626
 20
29.6761
 30
0.0
 11
42.963
 21
29.6761
 31
0.0
  0
LINE
  8
0
 62
     5
 10
42.963
 20
29.6761
 30
0.0
 11
42.963
 21
28.677
 31
0.0
  0
LINE
  8
0
 62
     5
 10
42.963
 20
28.677
 30
0.0
 11
56.9627
 21
28.677
 31
0.0
  0
LINE
  8
0
 62
     5
 10
76.0127
 20
28.677
 30
0.0
 11
76.0127
 21
29.6761
 31
0.0
  0
LINE
  8
0
 62
     5
 10
76.0127
 20
29.6761
 30
0.0
 11
76.8131
 21
29.6761
 31
0.0
  0
LINE
  8
0
 62
     5
 10
76.8131
 20
29.6761
 30
0.0
 11
76.8131
 21
32.7767
 31
0.0
  0
LINE
  8
0
 62
     5
 10
76.8131
 20
32.7767
 30
0.0
 11
76.0127
 21
32.7767
 31
0.0
  0
LINE
  8
0
 62
     5
 10
76.0127
 20
32.7767
 30
0.0
 11
76.0127
 21
38.577
 31
0.0
  0
LINE
  8
0
 62
     5
 10
76.0127
 20
38.577
 30
0.0
 11
76.8131
 21
38.577
 31
0.0
  0
LINE
  8
0
 62
     5
 10
76.8131
 20
38.577
 30
0.0
 11
76.8131
 21
41.6761
 31
0.0
  0
LINE
  8
0
 62
     5
 10
76.8131
 20
41.6761
 30
0.0
 11
76.0127
 21
41.6761
 31
0.0
  0
LINE
  8
0
 62
     5
 10
76.0127
 20
41.6761
 30
0.0
 11
76.0127
 21
42.6766
 31
0.0
  0
LINE
  8
0
 62
     5
 10
76.0127
 20
42.6766
 30
0.0
 11
62.013
 21
42.6766
 31
0.0
  0
LINE
  8
0
 62
     5
 10
62.013
 20
42.6766
 30
0.0
 11
62.013
 21
41.6761
 31
0.0
  0
LINE
  8
0
 62
     5
 10
62.013
 20
41.6761
 30
0.0
 11
61.2126
 21
41.6761
 31
0.0
  0
LINE
  8
0
 62
     5
 10
61.2126
 20
41.6761
 30
0.0
 11
61.2126
 21
38.577
 31
0.0
  0
LINE
  8
0
 62
     5
 10
61.2126
 20
38.577
 30
0.0
 11
62.013
 21
38.577
 31
0.0
  0
LINE
  8
0
 62
     5
 10
62.013
 20
38.577
 30
0.0
 11
62.013
 21
32.7767
 31
0.0
  0
LINE
  8
0
 62
     5
 10
62.013
 20
32.7767
 30
0.0
 11
61.2126
 21
32.7767
 31
0.0
  0
LINE
  8
0
 62
     5
 10
61.2126
 20
32.7767
 30
0.0
 11
61.2126
 21
29.6761
 31
0.0
  0
LINE
  8
0
 62
     5
 10
61.2126
 20
29.6761
 30
0.0
 11
62.013
 21
29.6761
 31
0.0
  0
LINE
  8
0
 62
     5
 10
62.013
 20
29.6761
 30
0.0
 11
62.013
 21
28.677
 31
0.0
  0
LINE
  8
0
 62
     5
 10
62.013
 20
28.677
 30
0.0
 11
76.0127
 21
28.677
 31
0.0
  0
LINE
  8
0
 62
     5
 10
95.0627
 20
28.677
 30
0.0
 11
95.0627
 21
29.6761
 31
0.0
  0
LINE
  8
0
 62
     5
 10
95.0627
 20
29.6761
 30
0.0
 11
95.8631
 21
29.6761
 31
0.0
  0
LINE
  8
0
 62
     5
 10
95.8631
 20
29.6761
 30
0.0
 11
95.8631
 21
32.7767
 31
0.0
  0
LINE
  8
0
 62
     5
 10
95.8631
 20
32.7767
 30
0.0
 11
95.0627
 21
32.7767
 31
0.0
  0
LINE
  8
0
 62
     5
 10
95.0627
 20
32.7767
 30
0.0
 11
95.0627
 21
38.577
 31
0.0
  0
LINE
  8
0
 62
     5
 10
95.0627
 20
38.577
 30
0.0
 11
95.8631
 21
38.577
 31
0.0
  0
LINE
  8
0
 62
     5
 10
95.8631
 20
38.577
 30
0.0
 11
95.8631
 21
41.6761
 31
0.0
  0
LINE
  8
0
 62
     5
 10
95.8631
 20
41.6761
 30
0.0
 11
95.0627
 21
41.6761
 31
0.0
  0
LINE
  8
0
 62
     5
 10
95.0627
 20
41.6761
 30
0.0
 11
95.0627
 21
42.6766
 31
0.0
  0
LINE
  8
0
 62
     5
 10
95.0627
 20
42.6766
 30
0.0
 11
81.063
 21
42.6766
 31
0.0
  0
LINE
  8
0
 62
     5
 10
81.063
 20
42.6766
 30
0.0
 11
81.063
 21
41.6761
 31
0.0
  0
LINE
  8
0
 62
     5
 10
81.063
 20
41.6761
 30
0.0
 11
80.2626
 21
41.6761
 31
0.0
  0
LINE
  8
0
 62
     5
 10
80.2626
 20
41.6761
 30
0.0
 11
80.2626
 21
38.577
 31
0.0
  0
LINE
  8
0
 62
     5
 10
80.2626
 20
38.577
 30
0.0
 11
81.063
 21
38.577
 31
0.0
  0
LINE
  8
0
 62
     5
 10
81.063
 20
38.577
 30
0.0
 11
81.063
 21
32.7767
 31
0.0
  0
LINE
  8
0
 62
     5
 10
81.063
 20
32.7767
 30
0.0
 11
80.2626
 21
32.7767
 31
0.0
  0
LINE
  8
0
 62
     5
 10
80.2626
 20
32.7767
 30
0.0
 11
80.2626
 21
29.6761
 31
0.0
  0
LINE
  8
0
 62
     5
 10
80.2626
 20
29.6761
 30
0.0
 11
81.063
 21
29.6761
 31
0.0
  0
LINE
  8
0
 62
     5
 10
81.063
 20
29.6761
 30
0.0
 11
81.063
 21
28.677
 31
0.0
  0
LINE
  8
0
 62
     5
 10
81.063
 20
28.677
 30
0.0
 11
95.0627
 21
28.677
 31
0.0
  0
LINE
  8
0
 62
     5
 10
114.113
 20
28.677
 30
0.0
 11
114.113
 21
29.6761
 31
0.0
  0
LINE
  8
0
 62
     5
 10
114.113
 20
29.6761
 30
0.0
 11
114.913
 21
29.6761
 31
0.0
  0
LINE
  8
0
 62
     5
 10
114.913
 20
29.6761
 30
0.0
 11
114.913
 21
32.7767
 31
0.0
  0
LINE
  8
0
 62
     5
 10
114.913
 20
32.7767
 30
0.0
 11
114.113
 21
32.7767
 31
0.0
  0
LINE
  8
0
 62
     5
 10
114.113
 20
32.7767
 30
0.0
 11
114.113
 21
38.577
 31
0.0
  0
LINE
  8
0
 62
     5
 10
114.113
 20
38.577
 30
0.0
 11
114.913
 21
38.577
 31
0.0
  0
LINE
  8
0
 62
     5
 10
114.913
 20
38.577
 30
0.0
 11
114.913
 21
41.6761
 31
0.0
  0
LINE
  8
0
 62
     5
 10
114.913
 20
41.6761
 30
0.0
 11
114.113
 21
41.6761
 31
0.0
  0
LINE
  8
0
 62
     5
 10
114.113
 20
41.6761
 30
0.0
 11
114.113
 21
42.6766
 31
0.0
  0
LINE
  8
0
 62
     5
 10
114.113
 20
42.6766
 30
0.0
 11
100.113
 21
42.6766
 31
0.0
  0
LINE
  8
0
 62
     5
 10
100.113
 20
42.6766
 30
0.0
 11
100.113
 21
41.6761
 31
0.0
  0
LINE
  8
0
 62
     5
 10
100.113
 20
41.6761
 30
0.0
 11
99.3126
 21
41.6761
 31
0.0
  0
LINE
  8
0
 62
     5
 10
99.3126
 20
41.6761
 30
0.0
 11
99.3126
 21
38.577
 31
0.0
  0
LINE
  8
0
 62
     5
 10
99.3126
 20
38.577
 30
0.0
 11
100.113
 21
38.577
 31
0.0
  0
LINE
  8
0
 62
     5
 10
100.113
 20
38.577
 30
0.0
 11
100.113
 21
32.7767
 31
0.0
  0
LINE
  8
0
 62
     5
 10
100.113
 20
32.7767
 30
0.0
 11
99.3126
 21
32.7767
 31
0.0
  0
LINE
  8
0
 62
     5
 10
99.3126
 20
32.7767
 30
0.0
 11
99.3126
 21
29.6761
 31
0.0
  0
LINE
  8
0
 62
     5
 10
99.3126
 20
29.6761
 30
0.0
 11
100.113
 21
29.6761
 31
0.0
  0
LINE
  8
0
 62
     5
 10
100.113
 20
29.6761
 30
0.0
 11
100.113
 21
28.677
 31
0.0
  0
LINE
  8
0
 62
     5
 10
100.113
 20
28.677
 30
0.0
 11
114.113
 21
28.677
 31
0.0
  0
LINE
  8
0
 62
     5
 10
190.313
 20
28.677
 30
0.0
 11
190.313
 21
29.6761
 31
0.0
  0
LINE
  8
0
 62
     5
 10
190.313
 20
29.6761
 30
0.0
 11
191.113
 21
29.6761
 31
0.0
  0
LINE
  8
0
 62
     5
 10
191.113
 20
29.6761
 30
0.0
 11
191.113
 21
32.7767
 31
0.0
  0
LINE
  8
0
 62
     5
 10
191.113
 20
32.7767
 30
0.0
 11
190.313
 21
32.7767
 31
0.0
  0
LINE
  8
0
 62
     5
 10
190.313
 20
32.7767
 30
0.0
 11
190.313
 21
38.577
 31
0.0
  0
LINE
  8
0
 62
     5
 10
190.313
 20
38.577
 30
0.0
 11
191.113
 21
38.577
 31
0.0
  0
LINE
  8
0
 62
     5
 10
191.113
 20
38.577
 30
0.0
 11
191.113
 21
41.6761
 31
0.0
  0
LINE
  8
0
 62
     5
 10
191.113
 20
41.6761
 30
0.0
 11
190.313
 21
41.6761
 31
0.0
  0
LINE
  8
0
 62
     5
 10
190.313
 20
41.6761
 30
0.0
 11
190.313
 21
42.6766
 31
0.0
  0
LINE
  8
0
 62
     5
 10
190.313
 20
42.6766
 30
0.0
 11
176.313
 21
42.6766
 31
0.0
  0
LINE
  8
0
 62
     5
 10
176.313
 20
42.6766
 30
0.0
 11
176.313
 21
41.6761
 31
0.0
  0
LINE
  8
0
 62
     5
 10
176.313
 20
41.6761
 30
0.0
 11
175.513
 21
41.6761
 31
0.0
  0
LINE
  8
0
 62
     5
 10
175.513
 20
41.6761
 30
0.0
 11
175.513
 21
38.577
 31
0.0
  0
LINE
  8
0
 62
     5
 10
175.513
 20
38.577
 30
0.0
 11
176.313
 21
38.577
 31
0.0
  0
LINE
  8
0
 62
     5
 10
176.313
 20
38.577
 30
0.0
 11
176.313
 21
32.7767
 31
0.0
  0
LINE
  8
0
 62
     5
 10
176.313
 20
32.7767
 30
0.0
 11
175.513
 21
32.7767
 31
0.0
  0
LINE
  8
0
 62
     5
 10
175.513
 20
32.7767
 30
0.0
 11
175.513
 21
29.6761
 31
0.0
  0
LINE
  8
0
 62
     5
 10
175.513
 20
29.6761
 30
0.0
 11
176.313
 21
29.6761
 31
0.0
  0
LINE
  8
0
 62
     5
 10
176.313
 20
29.6761
 30
0.0
 11
176.313
 21
28.677
 31
0.0
  0
LINE
  8
0
 62
     5
 10
176.313
 20
28.677
 30
0.0
 11
190.313
 21
28.677
 31
0.0
  0
LINE
  8
0
 62
     5
 10
228.413
 20
28.677
 30
0.0
 11
228.413
 21
29.6761
 31
0.0
  0
LINE
  8
0
 62
     5
 10
228.413
 20
29.6761
 30
0.0
 11
229.213
 21
29.6761
 31
0.0
  0
LINE
  8
0
 62
     5
 10
229.213
 20
29.6761
 30
0.0
 11
229.213
 21
32.7767
 31
0.0
  0
LINE
  8
0
 62
     5
 10
229.213
 20
32.7767
 30
0.0
 11
228.413
 21
32.7767
 31
0.0
  0
LINE
  8
0
 62
     5
 10
228.413
 20
32.7767
 30
0.0
 11
228.413
 21
38.577
 31
0.0
  0
LINE
  8
0
 62
     5
 10
228.413
 20
38.577
 30
0.0
 11
229.213
 21
38.577
 31
0.0
  0
LINE
  8
0
 62
     5
 10
229.213
 20
38.577
 30
0.0
 11
229.213
 21
41.6761
 31
0.0
  0
LINE
  8
0
 62
     5
 10
229.213
 20
41.6761
 30
0.0
 11
228.413
 21
41.6761
 31
0.0
  0
LINE
  8
0
 62
     5
 10
228.413
 20
41.6761
 30
0.0
 11
228.413
 21
42.6766
 31
0.0
  0
LINE
  8
0
 62
     5
 10
228.413
 20
42.6766
 30
0.0
 11
214.413
 21
42.6766
 31
0.0
  0
LINE
  8
0
 62
     5
 10
214.413
 20
42.6766
 30
0.0
 11
214.413
 21
41.6761
 31
0.0
  0
LINE
  8
0
 62
     5
 10
214.413
 20
41.6761
 30
0.0
 11
213.613
 21
41.6761
 31
0.0
  0
LINE
  8
0
 62
     5
 10
213.613
 20
41.6761
 30
0.0
 11
213.613
 21
38.577
 31
0.0
  0
LINE
  8
0
 62
     5
 10
213.613
 20
38.577
 30
0.0
 11
214.413
 21
38.577
 31
0.0
  0
LINE
  8
0
 62
     5
 10
214.413
 20
38.577
 30
0.0
 11
214.413
 21
32.7767
 31
0.0
  0
LINE
  8
0
 62
     5
 10
214.413
 20
32.7767
 30
0.0
 11
213.613
 21
32.7767
 31
0.0
  0
LINE
  8
0
 62
     5
 10
213.613
 20
32.7767
 30
0.0
 11
213.613
 21
29.6761
 31
0.0
  0
LINE
  8
0
 62
     5
 10
213.613
 20
29.6761
 30
0.0
 11
214.413
 21
29.6761
 31
0.0
  0
LINE
  8
0
 62
     5
 10
214.413
 20
29.6761
 30
0.0
 11
214.413
 21
28.677
 31
0.0
  0
LINE
  8
0
 62
     5
 10
214.413
 20
28.677
 30
0.0
 11
228.413
 21
28.677
 31
0.0
  0
LINE
  8
0
 62
     5
 10
209.363
 20
28.677
 30
0.0
 11
209.363
 21
29.6761
 31
0.0
  0
LINE
  8
0
 62
     5
 10
209.363
 20
29.6761
 30
0.0
 11
210.163
 21
29.6761
 31
0.0
  0
LINE
  8
0
 62
     5
 10
210.163
 20
29.6761
 30
0.0
 11
210.163
 21
32.7767
 31
0.0
  0
LINE
  8
0
 62
     5
 10
210.163
 20
32.7767
 30
0.0
 11
209.363
 21
32.7767
 31
0.0
  0
LINE
  8
0
 62
     5
 10
209.363
 20
32.7767
 30
0.0
 11
209.363
 21
38.577
 31
0.0
  0
LINE
  8
0
 62
     5
 10
209.363
 20
38.577
 30
0.0
 11
210.163
 21
38.577
 31
0.0
  0
LINE
  8
0
 62
     5
 10
210.163
 20
38.577
 30
0.0
 11
210.163
 21
41.6761
 31
0.0
  0
LINE
  8
0
 62
     5
 10
210.163
 20
41.6761
 30
0.0
 11
209.363
 21
41.6761
 31
0.0
  0
LINE
  8
0
 62
     5
 10
209.363
 20
41.6761
 30
0.0
 11
209.363
 21
42.6766
 31
0.0
  0
LINE
  8
0
 62
     5
 10
209.363
 20
42.6766
 30
0.0
 11
195.363
 21
42.6766
 31
0.0
  0
LINE
  8
0
 62
     5
 10
195.363
 20
42.6766
 30
0.0
 11
195.363
 21
41.6761
 31
0.0
  0
LINE
  8
0
 62
     5
 10
195.363
 20
41.6761
 30
0.0
 11
194.563
 21
41.6761
 31
0.0
  0
LINE
  8
0
 62
     5
 10
194.563
 20
41.6761
 30
0.0
 11
194.563
 21
38.577
 31
0.0
  0
LINE
  8
0
 62
     5
 10
194.563
 20
38.577
 30
0.0
 11
195.363
 21
38.577
 31
0.0
  0
LINE
  8
0
 62
     5
 10
195.363
 20
38.577
 30
0.0
 11
195.363
 21
32.7767
 31
0.0
  0
LINE
  8
0
 62
     5
 10
195.363
 20
32.7767
 30
0.0
 11
194.563
 21
32.7767
 31
0.0
  0
LINE
  8
0
 62
     5
 10
194.563
 20
32.7767
 30
0.0
 11
194.563
 21
29.6761
 31
0.0
  0
LINE
  8
0
 62
     5
 10
194.563
 20
29.6761
 30
0.0
 11
195.363
 21
29.6761
 31
0.0
  0
LINE
  8
0
 62
     5
 10
195.363
 20
29.6761
 30
0.0
 11
195.363
 21
28.677
 31
0.0
  0
LINE
  8
0
 62
     5
 10
195.363
 20
28.677
 30
0.0
 11
209.363
 21
28.677
 31
0.0
  0
LINE
  8
0
 62
     5
 10
28.3876
 20
47.727
 30
0.0
 11
28.3876
 21
48.726
 31
0.0
  0
LINE
  8
0
 62
     5
 10
28.3876
 20
48.726
 30
0.0
 11
29.1882
 21
48.726
 31
0.0
  0
LINE
  8
0
 62
     5
 10
29.1882
 20
48.726
 30
0.0
 11
29.1882
 21
51.8266
 31
0.0
  0
LINE
  8
0
 62
     5
 10
29.1882
 20
51.8266
 30
0.0
 11
28.3876
 21
51.8266
 31
0.0
  0
LINE
  8
0
 62
     5
 10
28.3876
 20
51.8266
 30
0.0
 11
28.3876
 21
57.627
 31
0.0
  0
LINE
  8
0
 62
     5
 10
28.3876
 20
57.627
 30
0.0
 11
29.1882
 21
57.627
 31
0.0
  0
LINE
  8
0
 62
     5
 10
29.1882
 20
57.627
 30
0.0
 11
29.1882
 21
60.7261
 31
0.0
  0
LINE
  8
0
 62
     5
 10
29.1882
 20
60.7261
 30
0.0
 11
28.3876
 21
60.7261
 31
0.0
  0
LINE
  8
0
 62
     5
 10
28.3876
 20
60.7261
 30
0.0
 11
28.3876
 21
61.7266
 31
0.0
  0
LINE
  8
0
 62
     5
 10
28.3876
 20
61.7266
 30
0.0
 11
14.3881
 21
61.7266
 31
0.0
  0
LINE
  8
0
 62
     5
 10
14.3881
 20
61.7266
 30
0.0
 11
14.3881
 21
60.7261
 31
0.0
  0
LINE
  8
0
 62
     5
 10
14.3881
 20
60.7261
 30
0.0
 11
13.5874
 21
60.7261
 31
0.0
  0
LINE
  8
0
 62
     5
 10
13.5874
 20
60.7261
 30
0.0
 11
13.5874
 21
57.627
 31
0.0
  0
LINE
  8
0
 62
     5
 10
13.5874
 20
57.627
 30
0.0
 11
14.3881
 21
57.627
 31
0.0
  0
LINE
  8
0
 62
     5
 10
14.3881
 20
57.627
 30
0.0
 11
14.3881
 21
51.8266
 31
0.0
  0
LINE
  8
0
 62
     5
 10
14.3881
 20
51.8266
 30
0.0
 11
13.5874
 21
51.8266
 31
0.0
  0
LINE
  8
0
 62
     5
 10
13.5874
 20
51.8266
 30
0.0
 11
13.5874
 21
48.726
 31
0.0
  0
LINE
  8
0
 62
     5
 10
13.5874
 20
48.726
 30
0.0
 11
14.3881
 21
48.726
 31
0.0
  0
LINE
  8
0
 62
     5
 10
14.3881
 20
48.726
 30
0.0
 11
14.3881
 21
47.727
 31
0.0
  0
LINE
  8
0
 62
     5
 10
14.3881
 20
47.727
 30
0.0
 11
28.3876
 21
47.727
 31
0.0
  0
LINE
  8
0
 62
     5
 10
47.4377
 20
47.727
 30
0.0
 11
47.4377
 21
48.726
 31
0.0
  0
LINE
  8
0
 62
     5
 10
47.4377
 20
48.726
 30
0.0
 11
48.2381
 21
48.726
 31
0.0
  0
LINE
  8
0
 62
     5
 10
48.2381
 20
48.726
 30
0.0
 11
48.2381
 21
51.8266
 31
0.0
  0
LINE
  8
0
 62
     5
 10
48.2381
 20
51.8266
 30
0.0
 11
47.4377
 21
51.8266
 31
0.0
  0
LINE
  8
0
 62
     5
 10
47.4377
 20
51.8266
 30
0.0
 11
47.4377
 21
57.627
 31
0.0
  0
LINE
  8
0
 62
     5
 10
47.4377
 20
57.627
 30
0.0
 11
48.2381
 21
57.627
 31
0.0
  0
LINE
  8
0
 62
     5
 10
48.2381
 20
57.627
 30
0.0
 11
48.2381
 21
60.7261
 31
0.0
  0
LINE
  8
0
 62
     5
 10
48.2381
 20
60.7261
 30
0.0
 11
47.4377
 21
60.7261
 31
0.0
  0
LINE
  8
0
 62
     5
 10
47.4377
 20
60.7261
 30
0.0
 11
47.4377
 21
61.7266
 31
0.0
  0
LINE
  8
0
 62
     5
 10
47.4377
 20
61.7266
 30
0.0
 11
33.4381
 21
61.7266
 31
0.0
  0
LINE
  8
0
 62
     5
 10
33.4381
 20
61.7266
 30
0.0
 11
33.4381
 21
60.7261
 31
0.0
  0
LINE
  8
0
 62
     5
 10
33.4381
 20
60.7261
 30
0.0
 11
32.6374
 21
60.7261
 31
0.0
  0
LINE
  8
0
 62
     5
 10
32.6374
 20
60.7261
 30
0.0
 11
32.6374
 21
57.627
 31
0.0
  0
LINE
  8
0
 62
     5
 10
32.6374
 20
57.627
 30
0.0
 11
33.4381
 21
57.627
 31
0.0
  0
LINE
  8
0
 62
     5
 10
33.4381
 20
57.627
 30
0.0
 11
33.4381
 21
51.8266
 31
0.0
  0
LINE
  8
0
 62
     5
 10
33.4381
 20
51.8266
 30
0.0
 11
32.6374
 21
51.8266
 31
0.0
  0
LINE
  8
0
 62
     5
 10
32.6374
 20
51.8266
 30
0.0
 11
32.6374
 21
48.726
 31
0.0
  0
LINE
  8
0
 62
     5
 10
32.6374
 20
48.726
 30
0.0
 11
33.4381
 21
48.726
 31
0.0
  0
LINE
  8
0
 62
     5
 10
33.4381
 20
48.726
 30
0.0
 11
33.4381
 21
47.727
 31
0.0
  0
LINE
  8
0
 62
     5
 10
33.4381
 20
47.727
 30
0.0
 11
47.4377
 21
47.727
 31
0.0
  0
LINE
  8
0
 62
     5
 10
66.4877
 20
47.727
 30
0.0
 11
66.4877
 21
48.726
 31
0.0
  0
LINE
  8
0
 62
     5
 10
66.4877
 20
48.726
 30
0.0
 11
67.2881
 21
48.726
 31
0.0
  0
LINE
  8
0
 62
     5
 10
67.2881
 20
48.726
 30
0.0
 11
67.2881
 21
51.8266
 31
0.0
  0
LINE
  8
0
 62
     5
 10
67.2881
 20
51.8266
 30
0.0
 11
66.4877
 21
51.8266
 31
0.0
  0
LINE
  8
0
 62
     5
 10
66.4877
 20
51.8266
 30
0.0
 11
66.4877
 21
57.627
 31
0.0
  0
LINE
  8
0
 62
     5
 10
66.4877
 20
57.627
 30
0.0
 11
67.2881
 21
57.627
 31
0.0
  0
LINE
  8
0
 62
     5
 10
67.2881
 20
57.627
 30
0.0
 11
67.2881
 21
60.7261
 31
0.0
  0
LINE
  8
0
 62
     5
 10
67.2881
 20
60.7261
 30
0.0
 11
66.4877
 21
60.7261
 31
0.0
  0
LINE
  8
0
 62
     5
 10
66.4877
 20
60.7261
 30
0.0
 11
66.4877
 21
61.7266
 31
0.0
  0
LINE
  8
0
 62
     5
 10
66.4877
 20
61.7266
 30
0.0
 11
52.488
 21
61.7266
 31
0.0
  0
LINE
  8
0
 62
     5
 10
52.488
 20
61.7266
 30
0.0
 11
52.488
 21
60.7261
 31
0.0
  0
LINE
  8
0
 62
     5
 10
52.488
 20
60.7261
 30
0.0
 11
51.6876
 21
60.7261
 31
0.0
  0
LINE
  8
0
 62
     5
 10
51.6876
 20
60.7261
 30
0.0
 11
51.6876
 21
57.627
 31
0.0
  0
LINE
  8
0
 62
     5
 10
51.6876
 20
57.627
 30
0.0
 11
52.488
 21
57.627
 31
0.0
  0
LINE
  8
0
 62
     5
 10
52.488
 20
57.627
 30
0.0
 11
52.488
 21
51.8266
 31
0.0
  0
LINE
  8
0
 62
     5
 10
52.488
 20
51.8266
 30
0.0
 11
51.6876
 21
51.8266
 31
0.0
  0
LINE
  8
0
 62
     5
 10
51.6876
 20
51.8266
 30
0.0
 11
51.6876
 21
48.726
 31
0.0
  0
LINE
  8
0
 62
     5
 10
51.6876
 20
48.726
 30
0.0
 11
52.488
 21
48.726
 31
0.0
  0
LINE
  8
0
 62
     5
 10
52.488
 20
48.726
 30
0.0
 11
52.488
 21
47.727
 31
0.0
  0
LINE
  8
0
 62
     5
 10
52.488
 20
47.727
 30
0.0
 11
66.4877
 21
47.727
 31
0.0
  0
LINE
  8
0
 62
     5
 10
85.5377
 20
47.727
 30
0.0
 11
85.5377
 21
48.726
 31
0.0
  0
LINE
  8
0
 62
     5
 10
85.5377
 20
48.726
 30
0.0
 11
86.3381
 21
48.726
 31
0.0
  0
LINE
  8
0
 62
     5
 10
86.3381
 20
48.726
 30
0.0
 11
86.3381
 21
51.8266
 31
0.0
  0
LINE
  8
0
 62
     5
 10
86.3381
 20
51.8266
 30
0.0
 11
85.5377
 21
51.8266
 31
0.0
  0
LINE
  8
0
 62
     5
 10
85.5377
 20
51.8266
 30
0.0
 11
85.5377
 21
57.627
 31
0.0
  0
LINE
  8
0
 62
     5
 10
85.5377
 20
57.627
 30
0.0
 11
86.3381
 21
57.627
 31
0.0
  0
LINE
  8
0
 62
     5
 10
86.3381
 20
57.627
 30
0.0
 11
86.3381
 21
60.7261
 31
0.0
  0
LINE
  8
0
 62
     5
 10
86.3381
 20
60.7261
 30
0.0
 11
85.5377
 21
60.7261
 31
0.0
  0
LINE
  8
0
 62
     5
 10
85.5377
 20
60.7261
 30
0.0
 11
85.5377
 21
61.7266
 31
0.0
  0
LINE
  8
0
 62
     5
 10
85.5377
 20
61.7266
 30
0.0
 11
71.538
 21
61.7266
 31
0.0
  0
LINE
  8
0
 62
     5
 10
71.538
 20
61.7266
 30
0.0
 11
71.538
 21
60.7261
 31
0.0
  0
LINE
  8
0
 62
     5
 10
71.538
 20
60.7261
 30
0.0
 11
70.7376
 21
60.7261
 31
0.0
  0
LINE
  8
0
 62
     5
 10
70.7376
 20
60.7261
 30
0.0
 11
70.7376
 21
57.627
 31
0.0
  0
LINE
  8
0
 62
     5
 10
70.7376
 20
57.627
 30
0.0
 11
71.538
 21
57.627
 31
0.0
  0
LINE
  8
0
 62
     5
 10
71.538
 20
57.627
 30
0.0
 11
71.538
 21
51.8266
 31
0.0
  0
LINE
  8
0
 62
     5
 10
71.538
 20
51.8266
 30
0.0
 11
70.7376
 21
51.8266
 31
0.0
  0
LINE
  8
0
 62
     5
 10
70.7376
 20
51.8266
 30
0.0
 11
70.7376
 21
48.726
 31
0.0
  0
LINE
  8
0
 62
     5
 10
70.7376
 20
48.726
 30
0.0
 11
71.538
 21
48.726
 31
0.0
  0
LINE
  8
0
 62
     5
 10
71.538
 20
48.726
 30
0.0
 11
71.538
 21
47.727
 31
0.0
  0
LINE
  8
0
 62
     5
 10
71.538
 20
47.727
 30
0.0
 11
85.5377
 21
47.727
 31
0.0
  0
LINE
  8
0
 62
     5
 10
104.588
 20
47.727
 30
0.0
 11
104.588
 21
48.726
 31
0.0
  0
LINE
  8
0
 62
     5
 10
104.588
 20
48.726
 30
0.0
 11
105.388
 21
48.726
 31
0.0
  0
LINE
  8
0
 62
     5
 10
105.388
 20
48.726
 30
0.0
 11
105.388
 21
51.8266
 31
0.0
  0
LINE
  8
0
 62
     5
 10
105.388
 20
51.8266
 30
0.0
 11
104.588
 21
51.8266
 31
0.0
  0
LINE
  8
0
 62
     5
 10
104.588
 20
51.8266
 30
0.0
 11
104.588
 21
57.627
 31
0.0
  0
LINE
  8
0
 62
     5
 10
104.588
 20
57.627
 30
0.0
 11
105.388
 21
57.627
 31
0.0
  0
LINE
  8
0
 62
     5
 10
105.388
 20
57.627
 30
0.0
 11
105.388
 21
60.7261
 31
0.0
  0
LINE
  8
0
 62
     5
 10
105.388
 20
60.7261
 30
0.0
 11
104.588
 21
60.7261
 31
0.0
  0
LINE
  8
0
 62
     5
 10
104.588
 20
60.7261
 30
0.0
 11
104.588
 21
61.7266
 31
0.0
  0
LINE
  8
0
 62
     5
 10
104.588
 20
61.7266
 30
0.0
 11
90.588
 21
61.7266
 31
0.0
  0
LINE
  8
0
 62
     5
 10
90.588
 20
61.7266
 30
0.0
 11
90.588
 21
60.7261
 31
0.0
  0
LINE
  8
0
 62
     5
 10
90.588
 20
60.7261
 30
0.0
 11
89.7876
 21
60.7261
 31
0.0
  0
LINE
  8
0
 62
     5
 10
89.7876
 20
60.7261
 30
0.0
 11
89.7876
 21
57.627
 31
0.0
  0
LINE
  8
0
 62
     5
 10
89.7876
 20
57.627
 30
0.0
 11
90.588
 21
57.627
 31
0.0
  0
LINE
  8
0
 62
     5
 10
90.588
 20
57.627
 30
0.0
 11
90.588
 21
51.8266
 31
0.0
  0
LINE
  8
0
 62
     5
 10
90.588
 20
51.8266
 30
0.0
 11
89.7876
 21
51.8266
 31
0.0
  0
LINE
  8
0
 62
     5
 10
89.7876
 20
51.8266
 30
0.0
 11
89.7876
 21
48.726
 31
0.0
  0
LINE
  8
0
 62
     5
 10
89.7876
 20
48.726
 30
0.0
 11
90.588
 21
48.726
 31
0.0
  0
LINE
  8
0
 62
     5
 10
90.588
 20
48.726
 30
0.0
 11
90.588
 21
47.727
 31
0.0
  0
LINE
  8
0
 62
     5
 10
90.588
 20
47.727
 30
0.0
 11
104.588
 21
47.727
 31
0.0
  0
LINE
  8
0
 62
     5
 10
123.638
 20
47.727
 30
0.0
 11
123.638
 21
48.726
 31
0.0
  0
LINE
  8
0
 62
     5
 10
123.638
 20
48.726
 30
0.0
 11
124.437
 21
48.726
 31
0.0
  0
LINE
  8
0
 62
     5
 10
124.437
 20
48.726
 30
0.0
 11
124.437
 21
51.8266
 31
0.0
  0
LINE
  8
0
 62
     5
 10
124.437
 20
51.8266
 30
0.0
 11
123.638
 21
51.8266
 31
0.0
  0
LINE
  8
0
 62
     5
 10
123.638
 20
51.8266
 30
0.0
 11
123.638
 21
57.627
 31
0.0
  0
LINE
  8
0
 62
     5
 10
123.638
 20
57.627
 30
0.0
 11
124.437
 21
57.627
 31
0.0
  0
LINE
  8
0
 62
     5
 10
124.437
 20
57.627
 30
0.0
 11
124.437
 21
60.7261
 31
0.0
  0
LINE
  8
0
 62
     5
 10
124.437
 20
60.7261
 30
0.0
 11
123.638
 21
60.7261
 31
0.0
  0
LINE
  8
0
 62
     5
 10
123.638
 20
60.7261
 30
0.0
 11
123.638
 21
61.7266
 31
0.0
  0
LINE
  8
0
 62
     5
 10
123.638
 20
61.7266
 30
0.0
 11
109.638
 21
61.7266
 31
0.0
  0
LINE
  8
0
 62
     5
 10
109.638
 20
61.7266
 30
0.0
 11
109.638
 21
60.7261
 31
0.0
  0
LINE
  8
0
 62
     5
 10
109.638
 20
60.7261
 30
0.0
 11
108.838
 21
60.7261
 31
0.0
  0
LINE
  8
0
 62
     5
 10
108.838
 20
60.7261
 30
0.0
 11
108.838
 21
57.627
 31
0.0
  0
LINE
  8
0
 62
     5
 10
108.838
 20
57.627
 30
0.0
 11
109.638
 21
57.627
 31
0.0
  0
LINE
  8
0
 62
     5
 10
109.638
 20
57.627
 30
0.0
 11
109.638
 21
51.8266
 31
0.0
  0
LINE
  8
0
 62
     5
 10
109.638
 20
51.8266
 30
0.0
 11
108.838
 21
51.8266
 31
0.0
  0
LINE
  8
0
 62
     5
 10
108.838
 20
51.8266
 30
0.0
 11
108.838
 21
48.726
 31
0.0
  0
LINE
  8
0
 62
     5
 10
108.838
 20
48.726
 30
0.0
 11
109.638
 21
48.726
 31
0.0
  0
LINE
  8
0
 62
     5
 10
109.638
 20
48.726
 30
0.0
 11
109.638
 21
47.727
 31
0.0
  0
LINE
  8
0
 62
     5
 10
109.638
 20
47.727
 30
0.0
 11
123.638
 21
47.727
 31
0.0
  0
LINE
  8
0
 62
     5
 10
142.688
 20
47.727
 30
0.0
 11
142.688
 21
48.726
 31
0.0
  0
LINE
  8
0
 62
     5
 10
142.688
 20
48.726
 30
0.0
 11
143.488
 21
48.726
 31
0.0
  0
LINE
  8
0
 62
     5
 10
143.488
 20
48.726
 30
0.0
 11
143.488
 21
51.8266
 31
0.0
  0
LINE
  8
0
 62
     5
 10
143.488
 20
51.8266
 30
0.0
 11
142.688
 21
51.8266
 31
0.0
  0
LINE
  8
0
 62
     5
 10
142.688
 20
51.8266
 30
0.0
 11
142.688
 21
57.627
 31
0.0
  0
LINE
  8
0
 62
     5
 10
142.688
 20
57.627
 30
0.0
 11
143.488
 21
57.627
 31
0.0
  0
LINE
  8
0
 62
     5
 10
143.488
 20
57.627
 30
0.0
 11
143.488
 21
60.7261
 31
0.0
  0
LINE
  8
0
 62
     5
 10
143.488
 20
60.7261
 30
0.0
 11
142.688
 21
60.7261
 31
0.0
  0
LINE
  8
0
 62
     5
 10
142.688
 20
60.7261
 30
0.0
 11
142.688
 21
61.7266
 31
0.0
  0
LINE
  8
0
 62
     5
 10
142.688
 20
61.7266
 30
0.0
 11
128.688
 21
61.7266
 31
0.0
  0
LINE
  8
0
 62
     5
 10
128.688
 20
61.7266
 30
0.0
 11
128.688
 21
60.7261
 31
0.0
  0
LINE
  8
0
 62
     5
 10
128.688
 20
60.7261
 30
0.0
 11
127.888
 21
60.7261
 31
0.0
  0
LINE
  8
0
 62
     5
 10
127.888
 20
60.7261
 30
0.0
 11
127.888
 21
57.627
 31
0.0
  0
LINE
  8
0
 62
     5
 10
127.888
 20
57.627
 30
0.0
 11
128.688
 21
57.627
 31
0.0
  0
LINE
  8
0
 62
     5
 10
128.688
 20
57.627
 30
0.0
 11
128.688
 21
51.8266
 31
0.0
  0
LINE
  8
0
 62
     5
 10
128.688
 20
51.8266
 30
0.0
 11
127.888
 21
51.8266
 31
0.0
  0
LINE
  8
0
 62
     5
 10
127.888
 20
51.8266
 30
0.0
 11
127.888
 21
48.726
 31
0.0
  0
LINE
  8
0
 62
     5
 10
127.888
 20
48.726
 30
0.0
 11
128.688
 21
48.726
 31
0.0
  0
LINE
  8
0
 62
     5
 10
128.688
 20
48.726
 30
0.0
 11
128.688
 21
47.727
 31
0.0
  0
LINE
  8
0
 62
     5
 10
128.688
 20
47.727
 30
0.0
 11
142.688
 21
47.727
 31
0.0
  0
LINE
  8
0
 62
     5
 10
159.419
 20
48.1513
 30
0.0
 11
159.419
 21
49.0266
 31
0.0
  0
LINE
  8
0
 62
     5
 10
159.419
 20
49.0266
 30
0.0
 11
162.649
 21
49.0266
 31
0.0
  0
LINE
  8
0
 62
     5
 10
162.649
 20
49.0266
 30
0.0
 11
162.649
 21
55.6768
 31
0.0
  0
LINE
  8
0
 62
     5
 10
162.649
 20
55.6768
 30
0.0
 11
159.419
 21
55.6768
 31
0.0
  0
LINE
  8
0
 62
     5
 10
159.419
 20
55.6768
 30
0.0
 11
159.419
 21
57.252
 31
0.0
  0
LINE
  8
0
 62
     5
 10
159.419
 20
57.252
 30
0.0
 11
160.019
 21
57.252
 31
0.0
  0
LINE
  8
0
 62
     5
 10
160.019
 20
57.252
 30
0.0
 11
160.019
 21
56.4515
 31
0.0
  0
LINE
  8
0
 62
     5
 10
160.019
 20
56.4515
 30
0.0
 11
163.118
 21
56.4515
 31
0.0
  0
LINE
  8
0
 62
     5
 10
163.118
 20
56.4515
 30
0.0
 11
163.118
 21
57.252
 31
0.0
  0
LINE
  8
0
 62
     5
 10
163.118
 20
57.252
 30
0.0
 11
164.119
 21
57.252
 31
0.0
  0
LINE
  8
0
 62
     5
 10
164.119
 20
57.252
 30
0.0
 11
164.119
 21
71.2516
 31
0.0
  0
LINE
  8
0
 62
     5
 10
164.119
 20
71.2516
 30
0.0
 11
163.118
 21
71.2516
 31
0.0
  0
LINE
  8
0
 62
     5
 10
163.118
 20
71.2516
 30
0.0
 11
163.118
 21
72.052
 31
0.0
  0
LINE
  8
0
 62
     5
 10
163.118
 20
72.052
 30
0.0
 11
160.019
 21
72.052
 31
0.0
  0
LINE
  8
0
 62
     5
 10
160.019
 20
72.052
 30
0.0
 11
160.019
 21
71.2516
 31
0.0
  0
LINE
  8
0
 62
     5
 10
160.019
 20
71.2516
 30
0.0
 11
159.419
 21
71.2516
 31
0.0
  0
LINE
  8
0
 62
     5
 10
159.419
 20
71.2516
 30
0.0
 11
159.419
 21
72.8267
 31
0.0
  0
LINE
  8
0
 62
     5
 10
159.419
 20
72.8267
 30
0.0
 11
162.649
 21
72.8267
 31
0.0
  0
LINE
  8
0
 62
     5
 10
162.649
 20
72.8267
 30
0.0
 11
162.649
 21
79.477
 31
0.0
  0
LINE
  8
0
 62
     5
 10
162.649
 20
79.477
 30
0.0
 11
159.419
 21
79.477
 31
0.0
  0
LINE
  8
0
 62
     5
 10
159.419
 20
79.477
 30
0.0
 11
159.419
 21
80.3522
 31
0.0
  0
LINE
  8
0
 62
     5
 10
159.419
 20
80.3522
 30
0.0
 11
156.62
 21
80.3522
 31
0.0
  0
LINE
  8
0
 62
     5
 10
156.62
 20
80.3522
 30
0.0
 11
156.62
 21
79.477
 31
0.0
  0
LINE
  8
0
 62
     5
 10
156.62
 20
79.477
 30
0.0
 11
150.35
 21
79.477
 31
0.0
  0
LINE
  8
0
 62
     5
 10
150.35
 20
79.477
 30
0.0
 11
150.35
 21
77.8013
 31
0.0
  0
LINE
  8
0
 62
     5
 10
150.35
 20
77.8013
 30
0.0
 11
149.149
 21
77.8013
 31
0.0
  0
LINE
  8
0
 62
     5
 10
149.149
 20
77.8013
 30
0.0
 11
149.149
 21
74.501
 31
0.0
  0
LINE
  8
0
 62
     5
 10
149.149
 20
74.501
 30
0.0
 11
150.35
 21
74.501
 31
0.0
  0
LINE
  8
0
 62
     5
 10
150.35
 20
74.501
 30
0.0
 11
150.35
 21
72.8267
 31
0.0
  0
LINE
  8
0
 62
     5
 10
150.35
 20
72.8267
 30
0.0
 11
154.818
 21
72.8267
 31
0.0
  0
LINE
  8
0
 62
     5
 10
154.818
 20
72.8267
 30
0.0
 11
154.818
 21
71.2516
 31
0.0
  0
LINE
  8
0
 62
     5
 10
154.818
 20
71.2516
 30
0.0
 11
154.219
 21
71.2516
 31
0.0
  0
LINE
  8
0
 62
     5
 10
154.219
 20
71.2516
 30
0.0
 11
154.219
 21
72.052
 31
0.0
  0
LINE
  8
0
 62
     5
 10
154.219
 20
72.052
 30
0.0
 11
151.118
 21
72.052
 31
0.0
  0
LINE
  8
0
 62
     5
 10
151.118
 20
72.052
 30
0.0
 11
151.118
 21
71.2516
 31
0.0
  0
LINE
  8
0
 62
     5
 10
151.118
 20
71.2516
 30
0.0
 11
150.119
 21
71.2516
 31
0.0
  0
LINE
  8
0
 62
     5
 10
150.119
 20
71.2516
 30
0.0
 11
150.119
 21
57.252
 31
0.0
  0
LINE
  8
0
 62
     5
 10
150.119
 20
57.252
 30
0.0
 11
151.118
 21
57.252
 31
0.0
  0
LINE
  8
0
 62
     5
 10
151.118
 20
57.252
 30
0.0
 11
151.118
 21
56.4515
 31
0.0
  0
LINE
  8
0
 62
     5
 10
151.118
 20
56.4515
 30
0.0
 11
154.219
 21
56.4515
 31
0.0
  0
LINE
  8
0
 62
     5
 10
154.219
 20
56.4515
 30
0.0
 11
154.219
 21
57.252
 31
0.0
  0
LINE
  8
0
 62
     5
 10
154.219
 20
57.252
 30
0.0
 11
154.818
 21
57.252
 31
0.0
  0
LINE
  8
0
 62
     5
 10
154.818
 20
57.252
 30
0.0
 11
154.818
 21
55.6768
 31
0.0
  0
LINE
  8
0
 62
     5
 10
154.818
 20
55.6768
 30
0.0
 11
150.35
 21
55.6768
 31
0.0
  0
LINE
  8
0
 62
     5
 10
150.35
 20
55.6768
 30
0.0
 11
150.35
 21
54.0011
 31
0.0
  0
LINE
  8
0
 62
     5
 10
150.35
 20
54.0011
 30
0.0
 11
149.149
 21
54.0011
 31
0.0
  0
LINE
  8
0
 62
     5
 10
149.149
 20
54.0011
 30
0.0
 11
149.149
 21
50.7009
 31
0.0
  0
LINE
  8
0
 62
     5
 10
149.149
 20
50.7009
 30
0.0
 11
150.35
 21
50.7009
 31
0.0
  0
LINE
  8
0
 62
     5
 10
150.35
 20
50.7009
 30
0.0
 11
150.35
 21
49.0266
 31
0.0
  0
LINE
  8
0
 62
     5
 10
150.35
 20
49.0266
 30
0.0
 11
156.62
 21
49.0266
 31
0.0
  0
LINE
  8
0
 62
     5
 10
156.62
 20
49.0266
 30
0.0
 11
156.62
 21
48.1513
 31
0.0
  0
LINE
  8
0
 62
     5
 10
156.62
 20
48.1513
 30
0.0
 11
159.419
 21
48.1513
 31
0.0
  0
LINE
  8
0
 62
     5
 10
23.6265
 20
66.777
 30
0.0
 11
23.6265
 21
67.776
 31
0.0
  0
LINE
  8
0
 62
     5
 10
23.6265
 20
67.776
 30
0.0
 11
24.4257
 21
67.776
 31
0.0
  0
LINE
  8
0
 62
     5
 10
24.4257
 20
67.776
 30
0.0
 11
24.4257
 21
70.8766
 31
0.0
  0
LINE
  8
0
 62
     5
 10
24.4257
 20
70.8766
 30
0.0
 11
23.6265
 21
70.8766
 31
0.0
  0
LINE
  8
0
 62
     5
 10
23.6265
 20
70.8766
 30
0.0
 11
23.6265
 21
76.677
 31
0.0
  0
LINE
  8
0
 62
     5
 10
23.6265
 20
76.677
 30
0.0
 11
24.4257
 21
76.677
 31
0.0
  0
LINE
  8
0
 62
     5
 10
24.4257
 20
76.677
 30
0.0
 11
24.4257
 21
79.7761
 31
0.0
  0
LINE
  8
0
 62
     5
 10
24.4257
 20
79.7761
 30
0.0
 11
23.6265
 21
79.7761
 31
0.0
  0
LINE
  8
0
 62
     5
 10
23.6265
 20
79.7761
 30
0.0
 11
23.6265
 21
80.7766
 31
0.0
  0
LINE
  8
0
 62
     5
 10
23.6265
 20
80.7766
 30
0.0
 11
9.62561
 21
80.7766
 31
0.0
  0
LINE
  8
0
 62
     5
 10
9.62561
 20
80.7766
 30
0.0
 11
9.62561
 21
79.7761
 31
0.0
  0
LINE
  8
0
 62
     5
 10
9.62561
 20
79.7761
 30
0.0
 11
8.82495
 21
79.7761
 31
0.0
  0
LINE
  8
0
 62
     5
 10
8.82495
 20
79.7761
 30
0.0
 11
8.82495
 21
76.677
 31
0.0
  0
LINE
  8
0
 62
     5
 10
8.82495
 20
76.677
 30
0.0
 11
9.62561
 21
76.677
 31
0.0
  0
LINE
  8
0
 62
     5
 10
9.62561
 20
76.677
 30
0.0
 11
9.62561
 21
70.8766
 31
0.0
  0
LINE
  8
0
 62
     5
 10
9.62561
 20
70.8766
 30
0.0
 11
8.82495
 21
70.8766
 31
0.0
  0
LINE
  8
0
 62
     5
 10
8.82495
 20
70.8766
 30
0.0
 11
8.82495
 21
67.776
 31
0.0
  0
LINE
  8
0
 62
     5
 10
8.82495
 20
67.776
 30
0.0
 11
9.62561
 21
67.776
 31
0.0
  0
LINE
  8
0
 62
     5
 10
9.62561
 20
67.776
 30
0.0
 11
9.62561
 21
66.777
 31
0.0
  0
LINE
  8
0
 62
     5
 10
9.62561
 20
66.777
 30
0.0
 11
23.6265
 21
66.777
 31
0.0
  0
LINE
  8
0
 62
     5
 10
42.6766
 20
66.777
 30
0.0
 11
42.6766
 21
67.776
 31
0.0
  0
LINE
  8
0
 62
     5
 10
42.6766
 20
67.776
 30
0.0
 11
43.4756
 21
67.776
 31
0.0
  0
LINE
  8
0
 62
     5
 10
43.4756
 20
67.776
 30
0.0
 11
43.4756
 21
70.8766
 31
0.0
  0
LINE
  8
0
 62
     5
 10
43.4756
 20
70.8766
 30
0.0
 11
42.6766
 21
70.8766
 31
0.0
  0
LINE
  8
0
 62
     5
 10
42.6766
 20
70.8766
 30
0.0
 11
42.6766
 21
76.677
 31
0.0
  0
LINE
  8
0
 62
     5
 10
42.6766
 20
76.677
 30
0.0
 11
43.4756
 21
76.677
 31
0.0
  0
LINE
  8
0
 62
     5
 10
43.4756
 20
76.677
 30
0.0
 11
43.4756
 21
79.7761
 31
0.0
  0
LINE
  8
0
 62
     5
 10
43.4756
 20
79.7761
 30
0.0
 11
42.6766
 21
79.7761
 31
0.0
  0
LINE
  8
0
 62
     5
 10
42.6766
 20
79.7761
 30
0.0
 11
42.6766
 21
80.7766
 31
0.0
  0
LINE
  8
0
 62
     5
 10
42.6766
 20
80.7766
 30
0.0
 11
28.6756
 21
80.7766
 31
0.0
  0
LINE
  8
0
 62
     5
 10
28.6756
 20
80.7766
 30
0.0
 11
28.6756
 21
79.7761
 31
0.0
  0
LINE
  8
0
 62
     5
 10
28.6756
 20
79.7761
 30
0.0
 11
27.8763
 21
79.7761
 31
0.0
  0
LINE
  8
0
 62
     5
 10
27.8763
 20
79.7761
 30
0.0
 11
27.8763
 21
76.677
 31
0.0
  0
LINE
  8
0
 62
     5
 10
27.8763
 20
76.677
 30
0.0
 11
28.6756
 21
76.677
 31
0.0
  0
LINE
  8
0
 62
     5
 10
28.6756
 20
76.677
 30
0.0
 11
28.6756
 21
70.8766
 31
0.0
  0
LINE
  8
0
 62
     5
 10
28.6756
 20
70.8766
 30
0.0
 11
27.8763
 21
70.8766
 31
0.0
  0
LINE
  8
0
 62
     5
 10
27.8763
 20
70.8766
 30
0.0
 11
27.8763
 21
67.776
 31
0.0
  0
LINE
  8
0
 62
     5
 10
27.8763
 20
67.776
 30
0.0
 11
28.6756
 21
67.776
 31
0.0
  0
LINE
  8
0
 62
     5
 10
28.6756
 20
67.776
 30
0.0
 11
28.6756
 21
66.777
 31
0.0
  0
LINE
  8
0
 62
     5
 10
28.6756
 20
66.777
 30
0.0
 11
42.6766
 21
66.777
 31
0.0
  0
LINE
  8
0
 62
     5
 10
61.7266
 20
66.777
 30
0.0
 11
61.7266
 21
67.776
 31
0.0
  0
LINE
  8
0
 62
     5
 10
61.7266
 20
67.776
 30
0.0
 11
62.5256
 21
67.776
 31
0.0
  0
LINE
  8
0
 62
     5
 10
62.5256
 20
67.776
 30
0.0
 11
62.5256
 21
70.8766
 31
0.0
  0
LINE
  8
0
 62
     5
 10
62.5256
 20
70.8766
 30
0.0
 11
61.7266
 21
70.8766
 31
0.0
  0
LINE
  8
0
 62
     5
 10
61.7266
 20
70.8766
 30
0.0
 11
61.7266
 21
76.677
 31
0.0
  0
LINE
  8
0
 62
     5
 10
61.7266
 20
76.677
 30
0.0
 11
62.5256
 21
76.677
 31
0.0
  0
LINE
  8
0
 62
     5
 10
62.5256
 20
76.677
 30
0.0
 11
62.5256
 21
79.7761
 31
0.0
  0
LINE
  8
0
 62
     5
 10
62.5256
 20
79.7761
 30
0.0
 11
61.7266
 21
79.7761
 31
0.0
  0
LINE
  8
0
 62
     5
 10
61.7266
 20
79.7761
 30
0.0
 11
61.7266
 21
80.7766
 31
0.0
  0
LINE
  8
0
 62
     5
 10
61.7266
 20
80.7766
 30
0.0
 11
47.7255
 21
80.7766
 31
0.0
  0
LINE
  8
0
 62
     5
 10
47.7255
 20
80.7766
 30
0.0
 11
47.7255
 21
79.7761
 31
0.0
  0
LINE
  8
0
 62
     5
 10
47.7255
 20
79.7761
 30
0.0
 11
46.9265
 21
79.7761
 31
0.0
  0
LINE
  8
0
 62
     5
 10
46.9265
 20
79.7761
 30
0.0
 11
46.9265
 21
76.677
 31
0.0
  0
LINE
  8
0
 62
     5
 10
46.9265
 20
76.677
 30
0.0
 11
47.7255
 21
76.677
 31
0.0
  0
LINE
  8
0
 62
     5
 10
47.7255
 20
76.677
 30
0.0
 11
47.7255
 21
70.8766
 31
0.0
  0
LINE
  8
0
 62
     5
 10
47.7255
 20
70.8766
 30
0.0
 11
46.9265
 21
70.8766
 31
0.0
  0
LINE
  8
0
 62
     5
 10
46.9265
 20
70.8766
 30
0.0
 11
46.9265
 21
67.776
 31
0.0
  0
LINE
  8
0
 62
     5
 10
46.9265
 20
67.776
 30
0.0
 11
47.7255
 21
67.776
 31
0.0
  0
LINE
  8
0
 62
     5
 10
47.7255
 20
67.776
 30
0.0
 11
47.7255
 21
66.777
 31
0.0
  0
LINE
  8
0
 62
     5
 10
47.7255
 20
66.777
 30
0.0
 11
61.7266
 21
66.777
 31
0.0
  0
LINE
  8
0
 62
     5
 10
80.7766
 20
66.777
 30
0.0
 11
80.7766
 21
67.776
 31
0.0
  0
LINE
  8
0
 62
     5
 10
80.7766
 20
67.776
 30
0.0
 11
81.5756
 21
67.776
 31
0.0
  0
LINE
  8
0
 62
     5
 10
81.5756
 20
67.776
 30
0.0
 11
81.5756
 21
70.8766
 31
0.0
  0
LINE
  8
0
 62
     5
 10
81.5756
 20
70.8766
 30
0.0
 11
80.7766
 21
70.8766
 31
0.0
  0
LINE
  8
0
 62
     5
 10
80.7766
 20
70.8766
 30
0.0
 11
80.7766
 21
76.677
 31
0.0
  0
LINE
  8
0
 62
     5
 10
80.7766
 20
76.677
 30
0.0
 11
81.5756
 21
76.677
 31
0.0
  0
LINE
  8
0
 62
     5
 10
81.5756
 20
76.677
 30
0.0
 11
81.5756
 21
79.7761
 31
0.0
  0
LINE
  8
0
 62
     5
 10
81.5756
 20
79.7761
 30
0.0
 11
80.7766
 21
79.7761
 31
0.0
  0
LINE
  8
0
 62
     5
 10
80.7766
 20
79.7761
 30
0.0
 11
80.7766
 21
80.7766
 31
0.0
  0
LINE
  8
0
 62
     5
 10
80.7766
 20
80.7766
 30
0.0
 11
66.7755
 21
80.7766
 31
0.0
  0
LINE
  8
0
 62
     5
 10
66.7755
 20
80.7766
 30
0.0
 11
66.7755
 21
79.7761
 31
0.0
  0
LINE
  8
0
 62
     5
 10
66.7755
 20
79.7761
 30
0.0
 11
65.9765
 21
79.7761
 31
0.0
  0
LINE
  8
0
 62
     5
 10
65.9765
 20
79.7761
 30
0.0
 11
65.9765
 21
76.677
 31
0.0
  0
LINE
  8
0
 62
     5
 10
65.9765
 20
76.677
 30
0.0
 11
66.7755
 21
76.677
 31
0.0
  0
LINE
  8
0
 62
     5
 10
66.7755
 20
76.677
 30
0.0
 11
66.7755
 21
70.8766
 31
0.0
  0
LINE
  8
0
 62
     5
 10
66.7755
 20
70.8766
 30
0.0
 11
65.9765
 21
70.8766
 31
0.0
  0
LINE
  8
0
 62
     5
 10
65.9765
 20
70.8766
 30
0.0
 11
65.9765
 21
67.776
 31
0.0
  0
LINE
  8
0
 62
     5
 10
65.9765
 20
67.776
 30
0.0
 11
66.7755
 21
67.776
 31
0.0
  0
LINE
  8
0
 62
     5
 10
66.7755
 20
67.776
 30
0.0
 11
66.7755
 21
66.777
 31
0.0
  0
LINE
  8
0
 62
     5
 10
66.7755
 20
66.777
 30
0.0
 11
80.7766
 21
66.777
 31
0.0
  0
LINE
  8
0
 62
     5
 10
99.8266
 20
66.777
 30
0.0
 11
99.8266
 21
67.776
 31
0.0
  0
LINE
  8
0
 62
     5
 10
99.8266
 20
67.776
 30
0.0
 11
100.624
 21
67.776
 31
0.0
  0
LINE
  8
0
 62
     5
 10
100.624
 20
67.776
 30
0.0
 11
100.624
 21
70.8766
 31
0.0
  0
LINE
  8
0
 62
     5
 10
100.624
 20
70.8766
 30
0.0
 11
99.8266
 21
70.8766
 31
0.0
  0
LINE
  8
0
 62
     5
 10
99.8266
 20
70.8766
 30
0.0
 11
99.8266
 21
76.677
 31
0.0
  0
LINE
  8
0
 62
     5
 10
99.8266
 20
76.677
 30
0.0
 11
100.624
 21
76.677
 31
0.0
  0
LINE
  8
0
 62
     5
 10
100.624
 20
76.677
 30
0.0
 11
100.624
 21
79.7761
 31
0.0
  0
LINE
  8
0
 62
     5
 10
100.624
 20
79.7761
 30
0.0
 11
99.8266
 21
79.7761
 31
0.0
  0
LINE
  8
0
 62
     5
 10
99.8266
 20
79.7761
 30
0.0
 11
99.8266
 21
80.7766
 31
0.0
  0
LINE
  8
0
 62
     5
 10
99.8266
 20
80.7766
 30
0.0
 11
85.8255
 21
80.7766
 31
0.0
  0
LINE
  8
0
 62
     5
 10
85.8255
 20
80.7766
 30
0.0
 11
85.8255
 21
79.7761
 31
0.0
  0
LINE
  8
0
 62
     5
 10
85.8255
 20
79.7761
 30
0.0
 11
85.0265
 21
79.7761
 31
0.0
  0
LINE
  8
0
 62
     5
 10
85.0265
 20
79.7761
 30
0.0
 11
85.0265
 21
76.677
 31
0.0
  0
LINE
  8
0
 62
     5
 10
85.0265
 20
76.677
 30
0.0
 11
85.8255
 21
76.677
 31
0.0
  0
LINE
  8
0
 62
     5
 10
85.8255
 20
76.677
 30
0.0
 11
85.8255
 21
70.8766
 31
0.0
  0
LINE
  8
0
 62
     5
 10
85.8255
 20
70.8766
 30
0.0
 11
85.0265
 21
70.8766
 31
0.0
  0
LINE
  8
0
 62
     5
 10
85.0265
 20
70.8766
 30
0.0
 11
85.0265
 21
67.776
 31
0.0
  0
LINE
  8
0
 62
     5
 10
85.0265
 20
67.776
 30
0.0
 11
85.8255
 21
67.776
 31
0.0
  0
LINE
  8
0
 62
     5
 10
85.8255
 20
67.776
 30
0.0
 11
85.8255
 21
66.777
 31
0.0
  0
LINE
  8
0
 62
     5
 10
85.8255
 20
66.777
 30
0.0
 11
99.8266
 21
66.777
 31
0.0
  0
LINE
  8
0
 62
     5
 10
118.875
 20
66.777
 30
0.0
 11
118.875
 21
67.776
 31
0.0
  0
LINE
  8
0
 62
     5
 10
118.875
 20
67.776
 30
0.0
 11
119.674
 21
67.776
 31
0.0
  0
LINE
  8
0
 62
     5
 10
119.674
 20
67.776
 30
0.0
 11
119.674
 21
70.8766
 31
0.0
  0
LINE
  8
0
 62
     5
 10
119.674
 20
70.8766
 30
0.0
 11
118.875
 21
70.8766
 31
0.0
  0
LINE
  8
0
 62
     5
 10
118.875
 20
70.8766
 30
0.0
 11
118.875
 21
76.677
 31
0.0
  0
LINE
  8
0
 62
     5
 10
118.875
 20
76.677
 30
0.0
 11
119.674
 21
76.677
 31
0.0
  0
LINE
  8
0
 62
     5
 10
119.674
 20
76.677
 30
0.0
 11
119.674
 21
79.7761
 31
0.0
  0
LINE
  8
0
 62
     5
 10
119.674
 20
79.7761
 30
0.0
 11
118.875
 21
79.7761
 31
0.0
  0
LINE
  8
0
 62
     5
 10
118.875
 20
79.7761
 30
0.0
 11
118.875
 21
80.7766
 31
0.0
  0
LINE
  8
0
 62
     5
 10
118.875
 20
80.7766
 30
0.0
 11
104.876
 21
80.7766
 31
0.0
  0
LINE
  8
0
 62
     5
 10
104.876
 20
80.7766
 30
0.0
 11
104.876
 21
79.7761
 31
0.0
  0
LINE
  8
0
 62
     5
 10
104.876
 20
79.7761
 30
0.0
 11
104.076
 21
79.7761
 31
0.0
  0
LINE
  8
0
 62
     5
 10
104.076
 20
79.7761
 30
0.0
 11
104.076
 21
76.677
 31
0.0
  0
LINE
  8
0
 62
     5
 10
104.076
 20
76.677
 30
0.0
 11
104.876
 21
76.677
 31
0.0
  0
LINE
  8
0
 62
     5
 10
104.876
 20
76.677
 30
0.0
 11
104.876
 21
70.8766
 31
0.0
  0
LINE
  8
0
 62
     5
 10
104.876
 20
70.8766
 30
0.0
 11
104.076
 21
70.8766
 31
0.0
  0
LINE
  8
0
 62
     5
 10
104.076
 20
70.8766
 30
0.0
 11
104.076
 21
67.776
 31
0.0
  0
LINE
  8
0
 62
     5
 10
104.076
 20
67.776
 30
0.0
 11
104.876
 21
67.776
 31
0.0
  0
LINE
  8
0
 62
     5
 10
104.876
 20
67.776
 30
0.0
 11
104.876
 21
66.777
 31
0.0
  0
LINE
  8
0
 62
     5
 10
104.876
 20
66.777
 30
0.0
 11
118.875
 21
66.777
 31
0.0
  0
LINE
  8
0
 62
     5
 10
137.927
 20
66.777
 30
0.0
 11
137.927
 21
67.776
 31
0.0
  0
LINE
  8
0
 62
     5
 10
137.927
 20
67.776
 30
0.0
 11
138.726
 21
67.776
 31
0.0
  0
LINE
  8
0
 62
     5
 10
138.726
 20
67.776
 30
0.0
 11
138.726
 21
70.8766
 31
0.0
  0
LINE
  8
0
 62
     5
 10
138.726
 20
70.8766
 30
0.0
 11
137.927
 21
70.8766
 31
0.0
  0
LINE
  8
0
 62
     5
 10
137.927
 20
70.8766
 30
0.0
 11
137.927
 21
76.677
 31
0.0
  0
LINE
  8
0
 62
     5
 10
137.927
 20
76.677
 30
0.0
 11
138.726
 21
76.677
 31
0.0
  0
LINE
  8
0
 62
     5
 10
138.726
 20
76.677
 30
0.0
 11
138.726
 21
79.7761
 31
0.0
  0
LINE
  8
0
 62
     5
 10
138.726
 20
79.7761
 30
0.0
 11
137.927
 21
79.7761
 31
0.0
  0
LINE
  8
0
 62
     5
 10
137.927
 20
79.7761
 30
0.0
 11
137.927
 21
80.7766
 31
0.0
  0
LINE
  8
0
 62
     5
 10
137.927
 20
80.7766
 30
0.0
 11
123.926
 21
80.7766
 31
0.0
  0
LINE
  8
0
 62
     5
 10
123.926
 20
80.7766
 30
0.0
 11
123.926
 21
79.7761
 31
0.0
  0
LINE
  8
0
 62
     5
 10
123.926
 20
79.7761
 30
0.0
 11
123.125
 21
79.7761
 31
0.0
  0
LINE
  8
0
 62
     5
 10
123.125
 20
79.7761
 30
0.0
 11
123.125
 21
76.677
 31
0.0
  0
LINE
  8
0
 62
     5
 10
123.125
 20
76.677
 30
0.0
 11
123.926
 21
76.677
 31
0.0
  0
LINE
  8
0
 62
     5
 10
123.926
 20
76.677
 30
0.0
 11
123.926
 21
70.8766
 31
0.0
  0
LINE
  8
0
 62
     5
 10
123.926
 20
70.8766
 30
0.0
 11
123.125
 21
70.8766
 31
0.0
  0
LINE
  8
0
 62
     5
 10
123.125
 20
70.8766
 30
0.0
 11
123.125
 21
67.776
 31
0.0
  0
LINE
  8
0
 62
     5
 10
123.125
 20
67.776
 30
0.0
 11
123.926
 21
67.776
 31
0.0
  0
LINE
  8
0
 62
     5
 10
123.926
 20
67.776
 30
0.0
 11
123.926
 21
66.777
 31
0.0
  0
LINE
  8
0
 62
     5
 10
123.926
 20
66.777
 30
0.0
 11
137.927
 21
66.777
 31
0.0
  0
LINE
  8
0
 62
     5
 10
190.313
 20
66.777
 30
0.0
 11
190.313
 21
67.776
 31
0.0
  0
LINE
  8
0
 62
     5
 10
190.313
 20
67.776
 30
0.0
 11
191.113
 21
67.776
 31
0.0
  0
LINE
  8
0
 62
     5
 10
191.113
 20
67.776
 30
0.0
 11
191.113
 21
70.8766
 31
0.0
  0
LINE
  8
0
 62
     5
 10
191.113
 20
70.8766
 30
0.0
 11
190.313
 21
70.8766
 31
0.0
  0
LINE
  8
0
 62
     5
 10
190.313
 20
70.8766
 30
0.0
 11
190.313
 21
76.677
 31
0.0
  0
LINE
  8
0
 62
     5
 10
190.313
 20
76.677
 30
0.0
 11
191.113
 21
76.677
 31
0.0
  0
LINE
  8
0
 62
     5
 10
191.113
 20
76.677
 30
0.0
 11
191.113
 21
79.7761
 31
0.0
  0
LINE
  8
0
 62
     5
 10
191.113
 20
79.7761
 30
0.0
 11
190.313
 21
79.7761
 31
0.0
  0
LINE
  8
0
 62
     5
 10
190.313
 20
79.7761
 30
0.0
 11
190.313
 21
80.7766
 31
0.0
  0
LINE
  8
0
 62
     5
 10
190.313
 20
80.7766
 30
0.0
 11
176.313
 21
80.7766
 31
0.0
  0
LINE
  8
0
 62
     5
 10
176.313
 20
80.7766
 30
0.0
 11
176.313
 21
79.7761
 31
0.0
  0
LINE
  8
0
 62
     5
 10
176.313
 20
79.7761
 30
0.0
 11
175.513
 21
79.7761
 31
0.0
  0
LINE
  8
0
 62
     5
 10
175.513
 20
79.7761
 30
0.0
 11
175.513
 21
76.677
 31
0.0
  0
LINE
  8
0
 62
     5
 10
175.513
 20
76.677
 30
0.0
 11
176.313
 21
76.677
 31
0.0
  0
LINE
  8
0
 62
     5
 10
176.313
 20
76.677
 30
0.0
 11
176.313
 21
70.8766
 31
0.0
  0
LINE
  8
0
 62
     5
 10
176.313
 20
70.8766
 30
0.0
 11
175.513
 21
70.8766
 31
0.0
  0
LINE
  8
0
 62
     5
 10
175.513
 20
70.8766
 30
0.0
 11
175.513
 21
67.776
 31
0.0
  0
LINE
  8
0
 62
     5
 10
175.513
 20
67.776
 30
0.0
 11
176.313
 21
67.776
 31
0.0
  0
LINE
  8
0
 62
     5
 10
176.313
 20
67.776
 30
0.0
 11
176.313
 21
66.777
 31
0.0
  0
LINE
  8
0
 62
     5
 10
176.313
 20
66.777
 30
0.0
 11
190.313
 21
66.777
 31
0.0
  0
LINE
  8
0
 62
     5
 10
209.363
 20
66.777
 30
0.0
 11
209.363
 21
67.776
 31
0.0
  0
LINE
  8
0
 62
     5
 10
209.363
 20
67.776
 30
0.0
 11
210.163
 21
67.776
 31
0.0
  0
LINE
  8
0
 62
     5
 10
210.163
 20
67.776
 30
0.0
 11
210.163
 21
70.8766
 31
0.0
  0
LINE
  8
0
 62
     5
 10
210.163
 20
70.8766
 30
0.0
 11
209.363
 21
70.8766
 31
0.0
  0
LINE
  8
0
 62
     5
 10
209.363
 20
70.8766
 30
0.0
 11
209.363
 21
76.677
 31
0.0
  0
LINE
  8
0
 62
     5
 10
209.363
 20
76.677
 30
0.0
 11
210.163
 21
76.677
 31
0.0
  0
LINE
  8
0
 62
     5
 10
210.163
 20
76.677
 30
0.0
 11
210.163
 21
79.7761
 31
0.0
  0
LINE
  8
0
 62
     5
 10
210.163
 20
79.7761
 30
0.0
 11
209.363
 21
79.7761
 31
0.0
  0
LINE
  8
0
 62
     5
 10
209.363
 20
79.7761
 30
0.0
 11
209.363
 21
80.7766
 31
0.0
  0
LINE
  8
0
 62
     5
 10
209.363
 20
80.7766
 30
0.0
 11
195.363
 21
80.7766
 31
0.0
  0
LINE
  8
0
 62
     5
 10
195.363
 20
80.7766
 30
0.0
 11
195.363
 21
79.7761
 31
0.0
  0
LINE
  8
0
 62
     5
 10
195.363
 20
79.7761
 30
0.0
 11
194.563
 21
79.7761
 31
0.0
  0
LINE
  8
0
 62
     5
 10
194.563
 20
79.7761
 30
0.0
 11
194.563
 21
76.677
 31
0.0
  0
LINE
  8
0
 62
     5
 10
194.563
 20
76.677
 30
0.0
 11
195.363
 21
76.677
 31
0.0
  0
LINE
  8
0
 62
     5
 10
195.363
 20
76.677
 30
0.0
 11
195.363
 21
70.8766
 31
0.0
  0
LINE
  8
0
 62
     5
 10
195.363
 20
70.8766
 30
0.0
 11
194.563
 21
70.8766
 31
0.0
  0
LINE
  8
0
 62
     5
 10
194.563
 20
70.8766
 30
0.0
 11
194.563
 21
67.776
 31
0.0
  0
LINE
  8
0
 62
     5
 10
194.563
 20
67.776
 30
0.0
 11
195.363
 21
67.776
 31
0.0
  0
LINE
  8
0
 62
     5
 10
195.363
 20
67.776
 30
0.0
 11
195.363
 21
66.777
 31
0.0
  0
LINE
  8
0
 62
     5
 10
195.363
 20
66.777
 30
0.0
 11
209.363
 21
66.777
 31
0.0
  0
LINE
  8
0
 62
     5
 10
228.413
 20
66.777
 30
0.0
 11
228.413
 21
67.776
 31
0.0
  0
LINE
  8
0
 62
     5
 10
228.413
 20
67.776
 30
0.0
 11
229.213
 21
67.776
 31
0.0
  0
LINE
  8
0
 62
     5
 10
229.213
 20
67.776
 30
0.0
 11
229.213
 21
70.8766
 31
0.0
  0
LINE
  8
0
 62
     5
 10
229.213
 20
70.8766
 30
0.0
 11
228.413
 21
70.8766
 31
0.0
  0
LINE
  8
0
 62
     5
 10
228.413
 20
70.8766
 30
0.0
 11
228.413
 21
76.677
 31
0.0
  0
LINE
  8
0
 62
     5
 10
228.413
 20
76.677
 30
0.0
 11
229.213
 21
76.677
 31
0.0
  0
LINE
  8
0
 62
     5
 10
229.213
 20
76.677
 30
0.0
 11
229.213
 21
79.7761
 31
0.0
  0
LINE
  8
0
 62
     5
 10
229.213
 20
79.7761
 30
0.0
 11
228.413
 21
79.7761
 31
0.0
  0
LINE
  8
0
 62
     5
 10
228.413
 20
79.7761
 30
0.0
 11
228.413
 21
80.7766
 31
0.0
  0
LINE
  8
0
 62
     5
 10
228.413
 20
80.7766
 30
0.0
 11
214.413
 21
80.7766
 31
0.0
  0
LINE
  8
0
 62
     5
 10
214.413
 20
80.7766
 30
0.0
 11
214.413
 21
79.7761
 31
0.0
  0
LINE
  8
0
 62
     5
 10
214.413
 20
79.7761
 30
0.0
 11
213.613
 21
79.7761
 31
0.0
  0
LINE
  8
0
 62
     5
 10
213.613
 20
79.7761
 30
0.0
 11
213.613
 21
76.677
 31
0.0
  0
LINE
  8
0
 62
     5
 10
213.613
 20
76.677
 30
0.0
 11
214.413
 21
76.677
 31
0.0
  0
LINE
  8
0
 62
     5
 10
214.413
 20
76.677
 30
0.0
 11
214.413
 21
70.8766
 31
0.0
  0
LINE
  8
0
 62
     5
 10
214.413
 20
70.8766
 30
0.0
 11
213.613
 21
70.8766
 31
0.0
  0
LINE
  8
0
 62
     5
 10
213.613
 20
70.8766
 30
0.0
 11
213.613
 21
67.776
 31
0.0
  0
LINE
  8
0
 62
     5
 10
213.613
 20
67.776
 30
0.0
 11
214.413
 21
67.776
 31
0.0
  0
LINE
  8
0
 62
     5
 10
214.413
 20
67.776
 30
0.0
 11
214.413
 21
66.777
 31
0.0
  0
LINE
  8
0
 62
     5
 10
214.413
 20
66.777
 30
0.0
 11
228.413
 21
66.777
 31
0.0
  0
LINE
  8
0
 62
     5
 10
156.977
 20
89.9266
 30
0.0
 11
156.977
 21
90.526
 31
0.0
  0
LINE
  8
0
 62
     5
 10
156.977
 20
90.526
 30
0.0
 11
158.552
 21
90.526
 31
0.0
  0
LINE
  8
0
 62
     5
 10
158.552
 20
90.526
 30
0.0
 11
158.552
 21
86.057
 31
0.0
  0
LINE
  8
0
 62
     5
 10
158.552
 20
86.057
 30
0.0
 11
160.226
 21
86.057
 31
0.0
  0
LINE
  8
0
 62
     5
 10
160.226
 20
86.057
 30
0.0
 11
160.226
 21
84.8568
 31
0.0
  0
LINE
  8
0
 62
     5
 10
160.226
 20
84.8568
 30
0.0
 11
163.526
 21
84.8568
 31
0.0
  0
LINE
  8
0
 62
     5
 10
163.526
 20
84.8568
 30
0.0
 11
163.526
 21
86.057
 31
0.0
  0
LINE
  8
0
 62
     5
 10
163.526
 20
86.057
 30
0.0
 11
165.201
 21
86.057
 31
0.0
  0
LINE
  8
0
 62
     5
 10
165.201
 20
86.057
 30
0.0
 11
165.201
 21
92.3258
 31
0.0
  0
LINE
  8
0
 62
     5
 10
165.201
 20
92.3258
 30
0.0
 11
166.076
 21
92.3258
 31
0.0
  0
LINE
  8
0
 62
     5
 10
166.076
 20
92.3258
 30
0.0
 11
166.076
 21
95.1258
 31
0.0
  0
LINE
  8
0
 62
     5
 10
166.076
 20
95.1258
 30
0.0
 11
165.201
 21
95.1258
 31
0.0
  0
LINE
  8
0
 62
     5
 10
165.201
 20
95.1258
 30
0.0
 11
165.201
 21
98.3562
 31
0.0
  0
LINE
  8
0
 62
     5
 10
165.201
 20
98.3562
 30
0.0
 11
158.552
 21
98.3562
 31
0.0
  0
LINE
  8
0
 62
     5
 10
158.552
 20
98.3562
 30
0.0
 11
158.552
 21
95.1258
 31
0.0
  0
LINE
  8
0
 62
     5
 10
158.552
 20
95.1258
 30
0.0
 11
156.977
 21
95.1258
 31
0.0
  0
LINE
  8
0
 62
     5
 10
156.977
 20
95.1258
 30
0.0
 11
156.977
 21
95.727
 31
0.0
  0
LINE
  8
0
 62
     5
 10
156.977
 20
95.727
 30
0.0
 11
157.776
 21
95.727
 31
0.0
  0
LINE
  8
0
 62
     5
 10
157.776
 20
95.727
 30
0.0
 11
157.776
 21
98.8261
 31
0.0
  0
LINE
  8
0
 62
     5
 10
157.776
 20
98.8261
 30
0.0
 11
156.977
 21
98.8261
 31
0.0
  0
LINE
  8
0
 62
     5
 10
156.977
 20
98.8261
 30
0.0
 11
156.977
 21
99.8266
 31
0.0
  0
LINE
  8
0
 62
     5
 10
156.977
 20
99.8266
 30
0.0
 11
142.976
 21
99.8266
 31
0.0
  0
LINE
  8
0
 62
     5
 10
142.976
 20
99.8266
 30
0.0
 11
142.976
 21
98.8261
 31
0.0
  0
LINE
  8
0
 62
     5
 10
142.976
 20
98.8261
 30
0.0
 11
142.176
 21
98.8261
 31
0.0
  0
LINE
  8
0
 62
     5
 10
142.176
 20
98.8261
 30
0.0
 11
142.176
 21
95.727
 31
0.0
  0
LINE
  8
0
 62
     5
 10
142.176
 20
95.727
 30
0.0
 11
142.976
 21
95.727
 31
0.0
  0
LINE
  8
0
 62
     5
 10
142.976
 20
95.727
 30
0.0
 11
142.976
 21
95.1258
 31
0.0
  0
LINE
  8
0
 62
     5
 10
142.976
 20
95.1258
 30
0.0
 11
141.4
 21
95.1258
 31
0.0
  0
LINE
  8
0
 62
     5
 10
141.4
 20
95.1258
 30
0.0
 11
141.4
 21
98.3562
 31
0.0
  0
LINE
  8
0
 62
     5
 10
141.4
 20
98.3562
 30
0.0
 11
134.752
 21
98.3562
 31
0.0
  0
LINE
  8
0
 62
     5
 10
134.752
 20
98.3562
 30
0.0
 11
134.752
 21
95.1258
 31
0.0
  0
LINE
  8
0
 62
     5
 10
134.752
 20
95.1258
 30
0.0
 11
133.876
 21
95.1258
 31
0.0
  0
LINE
  8
0
 62
     5
 10
133.876
 20
95.1258
 30
0.0
 11
133.876
 21
92.3258
 31
0.0
  0
LINE
  8
0
 62
     5
 10
133.876
 20
92.3258
 30
0.0
 11
134.752
 21
92.3258
 31
0.0
  0
LINE
  8
0
 62
     5
 10
134.752
 20
92.3258
 30
0.0
 11
134.752
 21
86.057
 31
0.0
  0
LINE
  8
0
 62
     5
 10
134.752
 20
86.057
 30
0.0
 11
136.426
 21
86.057
 31
0.0
  0
LINE
  8
0
 62
     5
 10
136.426
 20
86.057
 30
0.0
 11
136.426
 21
84.8568
 31
0.0
  0
LINE
  8
0
 62
     5
 10
136.426
 20
84.8568
 30
0.0
 11
139.726
 21
84.8568
 31
0.0
  0
LINE
  8
0
 62
     5
 10
139.726
 20
84.8568
 30
0.0
 11
139.726
 21
86.057
 31
0.0
  0
LINE
  8
0
 62
     5
 10
139.726
 20
86.057
 30
0.0
 11
141.4
 21
86.057
 31
0.0
  0
LINE
  8
0
 62
     5
 10
141.4
 20
86.057
 30
0.0
 11
141.4
 21
90.526
 31
0.0
  0
LINE
  8
0
 62
     5
 10
141.4
 20
90.526
 30
0.0
 11
142.976
 21
90.526
 31
0.0
  0
LINE
  8
0
 62
     5
 10
142.976
 20
90.526
 30
0.0
 11
142.976
 21
89.9266
 31
0.0
  0
LINE
  8
0
 62
     5
 10
142.976
 20
89.9266
 30
0.0
 11
142.176
 21
89.9266
 31
0.0
  0
LINE
  8
0
 62
     5
 10
142.176
 20
89.9266
 30
0.0
 11
142.176
 21
86.826
 31
0.0
  0
LINE
  8
0
 62
     5
 10
142.176
 20
86.826
 30
0.0
 11
142.976
 21
86.826
 31
0.0
  0
LINE
  8
0
 62
     5
 10
142.976
 20
86.826
 30
0.0
 11
142.976
 21
85.827
 31
0.0
  0
LINE
  8
0
 62
     5
 10
142.976
 20
85.827
 30
0.0
 11
156.977
 21
85.827
 31
0.0
  0
LINE
  8
0
 62
     5
 10
156.977
 20
85.827
 30
0.0
 11
156.977
 21
86.826
 31
0.0
  0
LINE
  8
0
 62
     5
 10
156.977
 20
86.826
 30
0.0
 11
157.776
 21
86.826
 31
0.0
  0
LINE
  8
0
 62
     5
 10
157.776
 20
86.826
 30
0.0
 11
157.776
 21
89.9266
 31
0.0
  0
LINE
  8
0
 62
     5
 10
157.776
 20
89.9266
 30
0.0
 11
156.977
 21
89.9266
 31
0.0
  0
LINE
  8
0
 62
     5
 10
33.1501
 20
85.827
 30
0.0
 11
33.1501
 21
86.826
 31
0.0
  0
LINE
  8
0
 62
     5
 10
33.1501
 20
86.826
 30
0.0
 11
33.9494
 21
86.826
 31
0.0
  0
LINE
  8
0
 62
     5
 10
33.9494
 20
86.826
 30
0.0
 11
33.9494
 21
89.9266
 31
0.0
  0
LINE
  8
0
 62
     5
 10
33.9494
 20
89.9266
 30
0.0
 11
33.1501
 21
89.9266
 31
0.0
  0
LINE
  8
0
 62
     5
 10
33.1501
 20
89.9266
 30
0.0
 11
33.1501
 21
95.727
 31
0.0
  0
LINE
  8
0
 62
     5
 10
33.1501
 20
95.727
 30
0.0
 11
33.9494
 21
95.727
 31
0.0
  0
LINE
  8
0
 62
     5
 10
33.9494
 20
95.727
 30
0.0
 11
33.9494
 21
98.8261
 31
0.0
  0
LINE
  8
0
 62
     5
 10
33.9494
 20
98.8261
 30
0.0
 11
33.1501
 21
98.8261
 31
0.0
  0
LINE
  8
0
 62
     5
 10
33.1501
 20
98.8261
 30
0.0
 11
33.1501
 21
99.8266
 31
0.0
  0
LINE
  8
0
 62
     5
 10
33.1501
 20
99.8266
 30
0.0
 11
19.1506
 21
99.8266
 31
0.0
  0
LINE
  8
0
 62
     5
 10
19.1506
 20
99.8266
 30
0.0
 11
19.1506
 21
98.8261
 31
0.0
  0
LINE
  8
0
 62
     5
 10
19.1506
 20
98.8261
 30
0.0
 11
18.3499
 21
98.8261
 31
0.0
  0
LINE
  8
0
 62
     5
 10
18.3499
 20
98.8261
 30
0.0
 11
18.3499
 21
95.727
 31
0.0
  0
LINE
  8
0
 62
     5
 10
18.3499
 20
95.727
 30
0.0
 11
19.1506
 21
95.727
 31
0.0
  0
LINE
  8
0
 62
     5
 10
19.1506
 20
95.727
 30
0.0
 11
19.1506
 21
89.9266
 31
0.0
  0
LINE
  8
0
 62
     5
 10
19.1506
 20
89.9266
 30
0.0
 11
18.3499
 21
89.9266
 31
0.0
  0
LINE
  8
0
 62
     5
 10
18.3499
 20
89.9266
 30
0.0
 11
18.3499
 21
86.826
 31
0.0
  0
LINE
  8
0
 62
     5
 10
18.3499
 20
86.826
 30
0.0
 11
19.1506
 21
86.826
 31
0.0
  0
LINE
  8
0
 62
     5
 10
19.1506
 20
86.826
 30
0.0
 11
19.1506
 21
85.827
 31
0.0
  0
LINE
  8
0
 62
     5
 10
19.1506
 20
85.827
 30
0.0
 11
33.1501
 21
85.827
 31
0.0
  0
LINE
  8
0
 62
     5
 10
52.2002
 20
85.827
 30
0.0
 11
52.2002
 21
86.826
 31
0.0
  0
LINE
  8
0
 62
     5
 10
52.2002
 20
86.826
 30
0.0
 11
52.9992
 21
86.826
 31
0.0
  0
LINE
  8
0
 62
     5
 10
52.9992
 20
86.826
 30
0.0
 11
52.9992
 21
89.9266
 31
0.0
  0
LINE
  8
0
 62
     5
 10
52.9992
 20
89.9266
 30
0.0
 11
52.2002
 21
89.9266
 31
0.0
  0
LINE
  8
0
 62
     5
 10
52.2002
 20
89.9266
 30
0.0
 11
52.2002
 21
95.727
 31
0.0
  0
LINE
  8
0
 62
     5
 10
52.2002
 20
95.727
 30
0.0
 11
52.9992
 21
95.727
 31
0.0
  0
LINE
  8
0
 62
     5
 10
52.9992
 20
95.727
 30
0.0
 11
52.9992
 21
98.8261
 31
0.0
  0
LINE
  8
0
 62
     5
 10
52.9992
 20
98.8261
 30
0.0
 11
52.2002
 21
98.8261
 31
0.0
  0
LINE
  8
0
 62
     5
 10
52.2002
 20
98.8261
 30
0.0
 11
52.2002
 21
99.8266
 31
0.0
  0
LINE
  8
0
 62
     5
 10
52.2002
 20
99.8266
 30
0.0
 11
38.2005
 21
99.8266
 31
0.0
  0
LINE
  8
0
 62
     5
 10
38.2005
 20
99.8266
 30
0.0
 11
38.2005
 21
98.8261
 31
0.0
  0
LINE
  8
0
 62
     5
 10
38.2005
 20
98.8261
 30
0.0
 11
37.4015
 21
98.8261
 31
0.0
  0
LINE
  8
0
 62
     5
 10
37.4015
 20
98.8261
 30
0.0
 11
37.4015
 21
95.727
 31
0.0
  0
LINE
  8
0
 62
     5
 10
37.4015
 20
95.727
 30
0.0
 11
38.2005
 21
95.727
 31
0.0
  0
LINE
  8
0
 62
     5
 10
38.2005
 20
95.727
 30
0.0
 11
38.2005
 21
89.9266
 31
0.0
  0
LINE
  8
0
 62
     5
 10
38.2005
 20
89.9266
 30
0.0
 11
37.4015
 21
89.9266
 31
0.0
  0
LINE
  8
0
 62
     5
 10
37.4015
 20
89.9266
 30
0.0
 11
37.4015
 21
86.826
 31
0.0
  0
LINE
  8
0
 62
     5
 10
37.4015
 20
86.826
 30
0.0
 11
38.2005
 21
86.826
 31
0.0
  0
LINE
  8
0
 62
     5
 10
38.2005
 20
86.826
 30
0.0
 11
38.2005
 21
85.827
 31
0.0
  0
LINE
  8
0
 62
     5
 10
38.2005
 20
85.827
 30
0.0
 11
52.2002
 21
85.827
 31
0.0
  0
LINE
  8
0
 62
     5
 10
71.2502
 20
85.827
 30
0.0
 11
71.2502
 21
86.826
 31
0.0
  0
LINE
  8
0
 62
     5
 10
71.2502
 20
86.826
 30
0.0
 11
72.0492
 21
86.826
 31
0.0
  0
LINE
  8
0
 62
     5
 10
72.0492
 20
86.826
 30
0.0
 11
72.0492
 21
89.9266
 31
0.0
  0
LINE
  8
0
 62
     5
 10
72.0492
 20
89.9266
 30
0.0
 11
71.2502
 21
89.9266
 31
0.0
  0
LINE
  8
0
 62
     5
 10
71.2502
 20
89.9266
 30
0.0
 11
71.2502
 21
95.727
 31
0.0
  0
LINE
  8
0
 62
     5
 10
71.2502
 20
95.727
 30
0.0
 11
72.0492
 21
95.727
 31
0.0
  0
LINE
  8
0
 62
     5
 10
72.0492
 20
95.727
 30
0.0
 11
72.0492
 21
98.8261
 31
0.0
  0
LINE
  8
0
 62
     5
 10
72.0492
 20
98.8261
 30
0.0
 11
71.2502
 21
98.8261
 31
0.0
  0
LINE
  8
0
 62
     5
 10
71.2502
 20
98.8261
 30
0.0
 11
71.2502
 21
99.8266
 31
0.0
  0
LINE
  8
0
 62
     5
 10
71.2502
 20
99.8266
 30
0.0
 11
57.2505
 21
99.8266
 31
0.0
  0
LINE
  8
0
 62
     5
 10
57.2505
 20
99.8266
 30
0.0
 11
57.2505
 21
98.8261
 31
0.0
  0
LINE
  8
0
 62
     5
 10
57.2505
 20
98.8261
 30
0.0
 11
56.4501
 21
98.8261
 31
0.0
  0
LINE
  8
0
 62
     5
 10
56.4501
 20
98.8261
 30
0.0
 11
56.4501
 21
95.727
 31
0.0
  0
LINE
  8
0
 62
     5
 10
56.4501
 20
95.727
 30
0.0
 11
57.2505
 21
95.727
 31
0.0
  0
LINE
  8
0
 62
     5
 10
57.2505
 20
95.727
 30
0.0
 11
57.2505
 21
89.9266
 31
0.0
  0
LINE
  8
0
 62
     5
 10
57.2505
 20
89.9266
 30
0.0
 11
56.4501
 21
89.9266
 31
0.0
  0
LINE
  8
0
 62
     5
 10
56.4501
 20
89.9266
 30
0.0
 11
56.4501
 21
86.826
 31
0.0
  0
LINE
  8
0
 62
     5
 10
56.4501
 20
86.826
 30
0.0
 11
57.2505
 21
86.826
 31
0.0
  0
LINE
  8
0
 62
     5
 10
57.2505
 20
86.826
 30
0.0
 11
57.2505
 21
85.827
 31
0.0
  0
LINE
  8
0
 62
     5
 10
57.2505
 20
85.827
 30
0.0
 11
71.2502
 21
85.827
 31
0.0
  0
LINE
  8
0
 62
     5
 10
90.3002
 20
85.827
 30
0.0
 11
90.3002
 21
86.826
 31
0.0
  0
LINE
  8
0
 62
     5
 10
90.3002
 20
86.826
 30
0.0
 11
91.0992
 21
86.826
 31
0.0
  0
LINE
  8
0
 62
     5
 10
91.0992
 20
86.826
 30
0.0
 11
91.0992
 21
89.9266
 31
0.0
  0
LINE
  8
0
 62
     5
 10
91.0992
 20
89.9266
 30
0.0
 11
90.3002
 21
89.9266
 31
0.0
  0
LINE
  8
0
 62
     5
 10
90.3002
 20
89.9266
 30
0.0
 11
90.3002
 21
95.727
 31
0.0
  0
LINE
  8
0
 62
     5
 10
90.3002
 20
95.727
 30
0.0
 11
91.0992
 21
95.727
 31
0.0
  0
LINE
  8
0
 62
     5
 10
91.0992
 20
95.727
 30
0.0
 11
91.0992
 21
98.8261
 31
0.0
  0
LINE
  8
0
 62
     5
 10
91.0992
 20
98.8261
 30
0.0
 11
90.3002
 21
98.8261
 31
0.0
  0
LINE
  8
0
 62
     5
 10
90.3002
 20
98.8261
 30
0.0
 11
90.3002
 21
99.8266
 31
0.0
  0
LINE
  8
0
 62
     5
 10
90.3002
 20
99.8266
 30
0.0
 11
76.3005
 21
99.8266
 31
0.0
  0
LINE
  8
0
 62
     5
 10
76.3005
 20
99.8266
 30
0.0
 11
76.3005
 21
98.8261
 31
0.0
  0
LINE
  8
0
 62
     5
 10
76.3005
 20
98.8261
 30
0.0
 11
75.5001
 21
98.8261
 31
0.0
  0
LINE
  8
0
 62
     5
 10
75.5001
 20
98.8261
 30
0.0
 11
75.5001
 21
95.727
 31
0.0
  0
LINE
  8
0
 62
     5
 10
75.5001
 20
95.727
 30
0.0
 11
76.3005
 21
95.727
 31
0.0
  0
LINE
  8
0
 62
     5
 10
76.3005
 20
95.727
 30
0.0
 11
76.3005
 21
89.9266
 31
0.0
  0
LINE
  8
0
 62
     5
 10
76.3005
 20
89.9266
 30
0.0
 11
75.5001
 21
89.9266
 31
0.0
  0
LINE
  8
0
 62
     5
 10
75.5001
 20
89.9266
 30
0.0
 11
75.5001
 21
86.826
 31
0.0
  0
LINE
  8
0
 62
     5
 10
75.5001
 20
86.826
 30
0.0
 11
76.3005
 21
86.826
 31
0.0
  0
LINE
  8
0
 62
     5
 10
76.3005
 20
86.826
 30
0.0
 11
76.3005
 21
85.827
 31
0.0
  0
LINE
  8
0
 62
     5
 10
76.3005
 20
85.827
 30
0.0
 11
90.3002
 21
85.827
 31
0.0
  0
LINE
  8
0
 62
     5
 10
109.35
 20
85.827
 30
0.0
 11
109.35
 21
86.826
 31
0.0
  0
LINE
  8
0
 62
     5
 10
109.35
 20
86.826
 30
0.0
 11
110.149
 21
86.826
 31
0.0
  0
LINE
  8
0
 62
     5
 10
110.149
 20
86.826
 30
0.0
 11
110.149
 21
89.9266
 31
0.0
  0
LINE
  8
0
 62
     5
 10
110.149
 20
89.9266
 30
0.0
 11
109.35
 21
89.9266
 31
0.0
  0
LINE
  8
0
 62
     5
 10
109.35
 20
89.9266
 30
0.0
 11
109.35
 21
95.727
 31
0.0
  0
LINE
  8
0
 62
     5
 10
109.35
 20
95.727
 30
0.0
 11
110.149
 21
95.727
 31
0.0
  0
LINE
  8
0
 62
     5
 10
110.149
 20
95.727
 30
0.0
 11
110.149
 21
98.8261
 31
0.0
  0
LINE
  8
0
 62
     5
 10
110.149
 20
98.8261
 30
0.0
 11
109.35
 21
98.8261
 31
0.0
  0
LINE
  8
0
 62
     5
 10
109.35
 20
98.8261
 30
0.0
 11
109.35
 21
99.8266
 31
0.0
  0
LINE
  8
0
 62
     5
 10
109.35
 20
99.8266
 30
0.0
 11
95.3505
 21
99.8266
 31
0.0
  0
LINE
  8
0
 62
     5
 10
95.3505
 20
99.8266
 30
0.0
 11
95.3505
 21
98.8261
 31
0.0
  0
LINE
  8
0
 62
     5
 10
95.3505
 20
98.8261
 30
0.0
 11
94.5501
 21
98.8261
 31
0.0
  0
LINE
  8
0
 62
     5
 10
94.5501
 20
98.8261
 30
0.0
 11
94.5501
 21
95.727
 31
0.0
  0
LINE
  8
0
 62
     5
 10
94.5501
 20
95.727
 30
0.0
 11
95.3505
 21
95.727
 31
0.0
  0
LINE
  8
0
 62
     5
 10
95.3505
 20
95.727
 30
0.0
 11
95.3505
 21
89.9266
 31
0.0
  0
LINE
  8
0
 62
     5
 10
95.3505
 20
89.9266
 30
0.0
 11
94.5501
 21
89.9266
 31
0.0
  0
LINE
  8
0
 62
     5
 10
94.5501
 20
89.9266
 30
0.0
 11
94.5501
 21
86.826
 31
0.0
  0
LINE
  8
0
 62
     5
 10
94.5501
 20
86.826
 30
0.0
 11
95.3505
 21
86.826
 31
0.0
  0
LINE
  8
0
 62
     5
 10
95.3505
 20
86.826
 30
0.0
 11
95.3505
 21
85.827
 31
0.0
  0
LINE
  8
0
 62
     5
 10
95.3505
 20
85.827
 30
0.0
 11
109.35
 21
85.827
 31
0.0
  0
LINE
  8
0
 62
     5
 10
128.4
 20
85.827
 30
0.0
 11
128.4
 21
86.826
 31
0.0
  0
LINE
  8
0
 62
     5
 10
128.4
 20
86.826
 30
0.0
 11
129.201
 21
86.826
 31
0.0
  0
LINE
  8
0
 62
     5
 10
129.201
 20
86.826
 30
0.0
 11
129.201
 21
89.9266
 31
0.0
  0
LINE
  8
0
 62
     5
 10
129.201
 20
89.9266
 30
0.0
 11
128.4
 21
89.9266
 31
0.0
  0
LINE
  8
0
 62
     5
 10
128.4
 20
89.9266
 30
0.0
 11
128.4
 21
95.727
 31
0.0
  0
LINE
  8
0
 62
     5
 10
128.4
 20
95.727
 30
0.0
 11
129.201
 21
95.727
 31
0.0
  0
LINE
  8
0
 62
     5
 10
129.201
 20
95.727
 30
0.0
 11
129.201
 21
98.8261
 31
0.0
  0
LINE
  8
0
 62
     5
 10
129.201
 20
98.8261
 30
0.0
 11
128.4
 21
98.8261
 31
0.0
  0
LINE
  8
0
 62
     5
 10
128.4
 20
98.8261
 30
0.0
 11
128.4
 21
99.8266
 31
0.0
  0
LINE
  8
0
 62
     5
 10
128.4
 20
99.8266
 30
0.0
 11
114.401
 21
99.8266
 31
0.0
  0
LINE
  8
0
 62
     5
 10
114.401
 20
99.8266
 30
0.0
 11
114.401
 21
98.8261
 31
0.0
  0
LINE
  8
0
 62
     5
 10
114.401
 20
98.8261
 30
0.0
 11
113.6
 21
98.8261
 31
0.0
  0
LINE
  8
0
 62
     5
 10
113.6
 20
98.8261
 30
0.0
 11
113.6
 21
95.727
 31
0.0
  0
LINE
  8
0
 62
     5
 10
113.6
 20
95.727
 30
0.0
 11
114.401
 21
95.727
 31
0.0
  0
LINE
  8
0
 62
     5
 10
114.401
 20
95.727
 30
0.0
 11
114.401
 21
89.9266
 31
0.0
  0
LINE
  8
0
 62
     5
 10
114.401
 20
89.9266
 30
0.0
 11
113.6
 21
89.9266
 31
0.0
  0
LINE
  8
0
 62
     5
 10
113.6
 20
89.9266
 30
0.0
 11
113.6
 21
86.826
 31
0.0
  0
LINE
  8
0
 62
     5
 10
113.6
 20
86.826
 30
0.0
 11
114.401
 21
86.826
 31
0.0
  0
LINE
  8
0
 62
     5
 10
114.401
 20
86.826
 30
0.0
 11
114.401
 21
85.827
 31
0.0
  0
LINE
  8
0
 62
     5
 10
114.401
 20
85.827
 30
0.0
 11
128.4
 21
85.827
 31
0.0
  0
LINE
  8
0
 62
     5
 10
190.313
 20
85.827
 30
0.0
 11
190.313
 21
86.826
 31
0.0
  0
LINE
  8
0
 62
     5
 10
190.313
 20
86.826
 30
0.0
 11
191.113
 21
86.826
 31
0.0
  0
LINE
  8
0
 62
     5
 10
191.113
 20
86.826
 30
0.0
 11
191.113
 21
89.9266
 31
0.0
  0
LINE
  8
0
 62
     5
 10
191.113
 20
89.9266
 30
0.0
 11
190.313
 21
89.9266
 31
0.0
  0
LINE
  8
0
 62
     5
 10
190.313
 20
89.9266
 30
0.0
 11
190.313
 21
95.727
 31
0.0
  0
LINE
  8
0
 62
     5
 10
190.313
 20
95.727
 30
0.0
 11
191.113
 21
95.727
 31
0.0
  0
LINE
  8
0
 62
     5
 10
191.113
 20
95.727
 30
0.0
 11
191.113
 21
98.8261
 31
0.0
  0
LINE
  8
0
 62
     5
 10
191.113
 20
98.8261
 30
0.0
 11
190.313
 21
98.8261
 31
0.0
  0
LINE
  8
0
 62
     5
 10
190.313
 20
98.8261
 30
0.0
 11
190.313
 21
99.8266
 31
0.0
  0
LINE
  8
0
 62
     5
 10
190.313
 20
99.8266
 30
0.0
 11
176.313
 21
99.8266
 31
0.0
  0
LINE
  8
0
 62
     5
 10
176.313
 20
99.8266
 30
0.0
 11
176.313
 21
98.8261
 31
0.0
  0
LINE
  8
0
 62
     5
 10
176.313
 20
98.8261
 30
0.0
 11
175.513
 21
98.8261
 31
0.0
  0
LINE
  8
0
 62
     5
 10
175.513
 20
98.8261
 30
0.0
 11
175.513
 21
95.727
 31
0.0
  0
LINE
  8
0
 62
     5
 10
175.513
 20
95.727
 30
0.0
 11
176.313
 21
95.727
 31
0.0
  0
LINE
  8
0
 62
     5
 10
176.313
 20
95.727
 30
0.0
 11
176.313
 21
89.9266
 31
0.0
  0
LINE
  8
0
 62
     5
 10
176.313
 20
89.9266
 30
0.0
 11
175.513
 21
89.9266
 31
0.0
  0
LINE
  8
0
 62
     5
 10
175.513
 20
89.9266
 30
0.0
 11
175.513
 21
86.826
 31
0.0
  0
LINE
  8
0
 62
     5
 10
175.513
 20
86.826
 30
0.0
 11
176.313
 21
86.826
 31
0.0
  0
LINE
  8
0
 62
     5
 10
176.313
 20
86.826
 30
0.0
 11
176.313
 21
85.827
 31
0.0
  0
LINE
  8
0
 62
     5
 10
176.313
 20
85.827
 30
0.0
 11
190.313
 21
85.827
 31
0.0
  0
LINE
  8
0
 62
     5
 10
209.363
 20
85.827
 30
0.0
 11
209.363
 21
86.826
 31
0.0
  0
LINE
  8
0
 62
     5
 10
209.363
 20
86.826
 30
0.0
 11
210.163
 21
86.826
 31
0.0
  0
LINE
  8
0
 62
     5
 10
210.163
 20
86.826
 30
0.0
 11
210.163
 21
89.9266
 31
0.0
  0
LINE
  8
0
 62
     5
 10
210.163
 20
89.9266
 30
0.0
 11
209.363
 21
89.9266
 31
0.0
  0
LINE
  8
0
 62
     5
 10
209.363
 20
89.9266
 30
0.0
 11
209.363
 21
95.727
 31
0.0
  0
LINE
  8
0
 62
     5
 10
209.363
 20
95.727
 30
0.0
 11
210.163
 21
95.727
 31
0.0
  0
LINE
  8
0
 62
     5
 10
210.163
 20
95.727
 30
0.0
 11
210.163
 21
98.8261
 31
0.0
  0
LINE
  8
0
 62
     5
 10
210.163
 20
98.8261
 30
0.0
 11
209.363
 21
98.8261
 31
0.0
  0
LINE
  8
0
 62
     5
 10
209.363
 20
98.8261
 30
0.0
 11
209.363
 21
99.8266
 31
0.0
  0
LINE
  8
0
 62
     5
 10
209.363
 20
99.8266
 30
0.0
 11
195.363
 21
99.8266
 31
0.0
  0
LINE
  8
0
 62
     5
 10
195.363
 20
99.8266
 30
0.0
 11
195.363
 21
98.8261
 31
0.0
  0
LINE
  8
0
 62
     5
 10
195.363
 20
98.8261
 30
0.0
 11
194.563
 21
98.8261
 31
0.0
  0
LINE
  8
0
 62
     5
 10
194.563
 20
98.8261
 30
0.0
 11
194.563
 21
95.727
 31
0.0
  0
LINE
  8
0
 62
     5
 10
194.563
 20
95.727
 30
0.0
 11
195.363
 21
95.727
 31
0.0
  0
LINE
  8
0
 62
     5
 10
195.363
 20
95.727
 30
0.0
 11
195.363
 21
89.9266
 31
0.0
  0
LINE
  8
0
 62
     5
 10
195.363
 20
89.9266
 30
0.0
 11
194.563
 21
89.9266
 31
0.0
  0
LINE
  8
0
 62
     5
 10
194.563
 20
89.9266
 30
0.0
 11
194.563
 21
86.826
 31
0.0
  0
LINE
  8
0
 62
     5
 10
194.563
 20
86.826
 30
0.0
 11
195.363
 21
86.826
 31
0.0
  0
LINE
  8
0
 62
     5
 10
195.363
 20
86.826
 30
0.0
 11
195.363
 21
85.827
 31
0.0
  0
LINE
  8
0
 62
     5
 10
195.363
 20
85.827
 30
0.0
 11
209.363
 21
85.827
 31
0.0
  0
LINE
  8
0
 62
     5
 10
228.413
 20
85.827
 30
0.0
 11
228.413
 21
86.826
 31
0.0
  0
LINE
  8
0
 62
     5
 10
228.413
 20
86.826
 30
0.0
 11
229.213
 21
86.826
 31
0.0
  0
LINE
  8
0
 62
     5
 10
229.213
 20
86.826
 30
0.0
 11
229.213
 21
89.9266
 31
0.0
  0
LINE
  8
0
 62
     5
 10
229.213
 20
89.9266
 30
0.0
 11
228.413
 21
89.9266
 31
0.0
  0
LINE
  8
0
 62
     5
 10
228.413
 20
89.9266
 30
0.0
 11
228.413
 21
95.727
 31
0.0
  0
LINE
  8
0
 62
     5
 10
228.413
 20
95.727
 30
0.0
 11
229.213
 21
95.727
 31
0.0
  0
LINE
  8
0
 62
     5
 10
229.213
 20
95.727
 30
0.0
 11
229.213
 21
98.8261
 31
0.0
  0
LINE
  8
0
 62
     5
 10
229.213
 20
98.8261
 30
0.0
 11
228.413
 21
98.8261
 31
0.0
  0
LINE
  8
0
 62
     5
 10
228.413
 20
98.8261
 30
0.0
 11
228.413
 21
99.8266
 31
0.0
  0
LINE
  8
0
 62
     5
 10
228.413
 20
99.8266
 30
0.0
 11
214.413
 21
99.8266
 31
0.0
  0
LINE
  8
0
 62
     5
 10
214.413
 20
99.8266
 30
0.0
 11
214.413
 21
98.8261
 31
0.0
  0
LINE
  8
0
 62
     5
 10
214.413
 20
98.8261
 30
0.0
 11
213.613
 21
98.8261
 31
0.0
  0
LINE
  8
0
 62
     5
 10
213.613
 20
98.8261
 30
0.0
 11
213.613
 21
95.727
 31
0.0
  0
LINE
  8
0
 62
     5
 10
213.613
 20
95.727
 30
0.0
 11
214.413
 21
95.727
 31
0.0
  0
LINE
  8
0
 62
     5
 10
214.413
 20
95.727
 30
0.0
 11
214.413
 21
89.9266
 31
0.0
  0
LINE
  8
0
 62
     5
 10
214.413
 20
89.9266
 30
0.0
 11
213.613
 21
89.9266
 31
0.0
  0
LINE
  8
0
 62
     5
 10
213.613
 20
89.9266
 30
0.0
 11
213.613
 21
86.826
 31
0.0
  0
LINE
  8
0
 62
     5
 10
213.613
 20
86.826
 30
0.0
 11
214.413
 21
86.826
 31
0.0
  0
LINE
  8
0
 62
     5
 10
214.413
 20
86.826
 30
0.0
 11
214.413
 21
85.827
 31
0.0
  0
LINE
  8
0
 62
     5
 10
214.413
 20
85.827
 30
0.0
 11
228.413
 21
85.827
 31
0.0
  0
LINE
  8
0
 62
     5
 10
190.313
 20
109.638
 30
0.0
 11
190.313
 21
110.639
 31
0.0
  0
LINE
  8
0
 62
     5
 10
190.313
 20
110.639
 30
0.0
 11
191.113
 21
110.639
 31
0.0
  0
LINE
  8
0
 62
     5
 10
191.113
 20
110.639
 30
0.0
 11
191.113
 21
113.739
 31
0.0
  0
LINE
  8
0
 62
     5
 10
191.113
 20
113.739
 30
0.0
 11
190.313
 21
113.739
 31
0.0
  0
LINE
  8
0
 62
     5
 10
190.313
 20
113.739
 30
0.0
 11
190.313
 21
119.538
 31
0.0
  0
LINE
  8
0
 62
     5
 10
190.313
 20
119.538
 30
0.0
 11
191.113
 21
119.538
 31
0.0
  0
LINE
  8
0
 62
     5
 10
191.113
 20
119.538
 30
0.0
 11
191.113
 21
122.639
 31
0.0
  0
LINE
  8
0
 62
     5
 10
191.113
 20
122.639
 30
0.0
 11
190.313
 21
122.639
 31
0.0
  0
LINE
  8
0
 62
     5
 10
190.313
 20
122.639
 30
0.0
 11
190.313
 21
123.639
 31
0.0
  0
LINE
  8
0
 62
     5
 10
190.313
 20
123.639
 30
0.0
 11
176.313
 21
123.639
 31
0.0
  0
LINE
  8
0
 62
     5
 10
176.313
 20
123.639
 30
0.0
 11
176.313
 21
122.639
 31
0.0
  0
LINE
  8
0
 62
     5
 10
176.313
 20
122.639
 30
0.0
 11
175.513
 21
122.639
 31
0.0
  0
LINE
  8
0
 62
     5
 10
175.513
 20
122.639
 30
0.0
 11
175.513
 21
119.538
 31
0.0
  0
LINE
  8
0
 62
     5
 10
175.513
 20
119.538
 30
0.0
 11
176.313
 21
119.538
 31
0.0
  0
LINE
  8
0
 62
     5
 10
176.313
 20
119.538
 30
0.0
 11
176.313
 21
113.739
 31
0.0
  0
LINE
  8
0
 62
     5
 10
176.313
 20
113.739
 30
0.0
 11
175.513
 21
113.739
 31
0.0
  0
LINE
  8
0
 62
     5
 10
175.513
 20
113.739
 30
0.0
 11
175.513
 21
110.639
 31
0.0
  0
LINE
  8
0
 62
     5
 10
175.513
 20
110.639
 30
0.0
 11
176.313
 21
110.639
 31
0.0
  0
LINE
  8
0
 62
     5
 10
176.313
 20
110.639
 30
0.0
 11
176.313
 21
109.638
 31
0.0
  0
LINE
  8
0
 62
     5
 10
176.313
 20
109.638
 30
0.0
 11
190.313
 21
109.638
 31
0.0
  0
LINE
  8
0
 62
     5
 10
209.363
 20
109.638
 30
0.0
 11
209.363
 21
110.639
 31
0.0
  0
LINE
  8
0
 62
     5
 10
209.363
 20
110.639
 30
0.0
 11
210.163
 21
110.639
 31
0.0
  0
LINE
  8
0
 62
     5
 10
210.163
 20
110.639
 30
0.0
 11
210.163
 21
113.739
 31
0.0
  0
LINE
  8
0
 62
     5
 10
210.163
 20
113.739
 30
0.0
 11
209.363
 21
113.739
 31
0.0
  0
LINE
  8
0
 62
     5
 10
209.363
 20
113.739
 30
0.0
 11
209.363
 21
119.538
 31
0.0
  0
LINE
  8
0
 62
     5
 10
209.363
 20
119.538
 30
0.0
 11
210.163
 21
119.538
 31
0.0
  0
LINE
  8
0
 62
     5
 10
210.163
 20
119.538
 30
0.0
 11
210.163
 21
122.639
 31
0.0
  0
LINE
  8
0
 62
     5
 10
210.163
 20
122.639
 30
0.0
 11
209.363
 21
122.639
 31
0.0
  0
LINE
  8
0
 62
     5
 10
209.363
 20
122.639
 30
0.0
 11
209.363
 21
123.639
 31
0.0
  0
LINE
  8
0
 62
     5
 10
209.363
 20
123.639
 30
0.0
 11
195.363
 21
123.639
 31
0.0
  0
LINE
  8
0
 62
     5
 10
195.363
 20
123.639
 30
0.0
 11
195.363
 21
122.639
 31
0.0
  0
LINE
  8
0
 62
     5
 10
195.363
 20
122.639
 30
0.0
 11
194.563
 21
122.639
 31
0.0
  0
LINE
  8
0
 62
     5
 10
194.563
 20
122.639
 30
0.0
 11
194.563
 21
119.538
 31
0.0
  0
LINE
  8
0
 62
     5
 10
194.563
 20
119.538
 30
0.0
 11
195.363
 21
119.538
 31
0.0
  0
LINE
  8
0
 62
     5
 10
195.363
 20
119.538
 30
0.0
 11
195.363
 21
113.739
 31
0.0
  0
LINE
  8
0
 62
     5
 10
195.363
 20
113.739
 30
0.0
 11
194.563
 21
113.739
 31
0.0
  0
LINE
  8
0
 62
     5
 10
194.563
 20
113.739
 30
0.0
 11
194.563
 21
110.639
 31
0.0
  0
LINE
  8
0
 62
     5
 10
194.563
 20
110.639
 30
0.0
 11
195.363
 21
110.639
 31
0.0
  0
LINE
  8
0
 62
     5
 10
195.363
 20
110.639
 30
0.0
 11
195.363
 21
109.638
 31
0.0
  0
LINE
  8
0
 62
     5
 10
195.363
 20
109.638
 30
0.0
 11
209.363
 21
109.638
 31
0.0
  0
LINE
  8
0
 62
     5
 10
228.413
 20
109.638
 30
0.0
 11
228.413
 21
110.639
 31
0.0
  0
LINE
  8
0
 62
     5
 10
228.413
 20
110.639
 30
0.0
 11
229.213
 21
110.639
 31
0.0
  0
LINE
  8
0
 62
     5
 10
229.213
 20
110.639
 30
0.0
 11
229.213
 21
113.739
 31
0.0
  0
LINE
  8
0
 62
     5
 10
229.213
 20
113.739
 30
0.0
 11
228.413
 21
113.739
 31
0.0
  0
LINE
  8
0
 62
     5
 10
228.413
 20
113.739
 30
0.0
 11
228.413
 21
119.538
 31
0.0
  0
LINE
  8
0
 62
     5
 10
228.413
 20
119.538
 30
0.0
 11
229.213
 21
119.538
 31
0.0
  0
LINE
  8
0
 62
     5
 10
229.213
 20
119.538
 30
0.0
 11
229.213
 21
122.639
 31
0.0
  0
LINE
  8
0
 62
     5
 10
229.213
 20
122.639
 30
0.0
 11
228.413
 21
122.639
 31
0.0
  0
LINE
  8
0
 62
     5
 10
228.413
 20
122.639
 30
0.0
 11
228.413
 21
123.639
 31
0.0
  0
LINE
  8
0
 62
     5
 10
228.413
 20
123.639
 30
0.0
 11
214.413
 21
123.639
 31
0.0
  0
LINE
  8
0
 62
     5
 10
214.413
 20
123.639
 30
0.0
 11
214.413
 21
122.639
 31
0.0
  0
LINE
  8
0
 62
     5
 10
214.413
 20
122.639
 30
0.0
 11
213.613
 21
122.639
 31
0.0
  0
LINE
  8
0
 62
     5
 10
213.613
 20
122.639
 30
0.0
 11
213.613
 21
119.538
 31
0.0
  0
LINE
  8
0
 62
     5
 10
213.613
 20
119.538
 30
0.0
 11
214.413
 21
119.538
 31
0.0
  0
LINE
  8
0
 62
     5
 10
214.413
 20
119.538
 30
0.0
 11
214.413
 21
113.739
 31
0.0
  0
LINE
  8
0
 62
     5
 10
214.413
 20
113.739
 30
0.0
 11
213.613
 21
113.739
 31
0.0
  0
LINE
  8
0
 62
     5
 10
213.613
 20
113.739
 30
0.0
 11
213.613
 21
110.639
 31
0.0
  0
LINE
  8
0
 62
     5
 10
213.613
 20
110.639
 30
0.0
 11
214.413
 21
110.639
 31
0.0
  0
LINE
  8
0
 62
     5
 10
214.413
 20
110.639
 30
0.0
 11
214.413
 21
109.638
 31
0.0
  0
LINE
  8
0
 62
     5
 10
214.413
 20
109.638
 30
0.0
 11
228.413
 21
109.638
 31
0.0
  0
LINE
  8
0
 62
     5
 10
23.6265
 20
109.639
 30
0.0
 11
23.6265
 21
110.64
 31
0.0
  0
LINE
  8
0
 62
     5
 10
23.6265
 20
110.64
 30
0.0
 11
24.4257
 21
110.64
 31
0.0
  0
LINE
  8
0
 62
     5
 10
24.4257
 20
110.64
 30
0.0
 11
24.4257
 21
113.739
 31
0.0
  0
LINE
  8
0
 62
     5
 10
24.4257
 20
113.739
 30
0.0
 11
23.6265
 21
113.739
 31
0.0
  0
LINE
  8
0
 62
     5
 10
23.6265
 20
113.739
 30
0.0
 11
23.6265
 21
119.539
 31
0.0
  0
LINE
  8
0
 62
     5
 10
23.6265
 20
119.539
 30
0.0
 11
24.4257
 21
119.539
 31
0.0
  0
LINE
  8
0
 62
     5
 10
24.4257
 20
119.539
 30
0.0
 11
24.4257
 21
122.64
 31
0.0
  0
LINE
  8
0
 62
     5
 10
24.4257
 20
122.64
 30
0.0
 11
23.6265
 21
122.64
 31
0.0
  0
LINE
  8
0
 62
     5
 10
23.6265
 20
122.64
 30
0.0
 11
23.6265
 21
123.639
 31
0.0
  0
LINE
  8
0
 62
     5
 10
23.6265
 20
123.639
 30
0.0
 11
9.62561
 21
123.639
 31
0.0
  0
LINE
  8
0
 62
     5
 10
9.62561
 20
123.639
 30
0.0
 11
9.62561
 21
122.64
 31
0.0
  0
LINE
  8
0
 62
     5
 10
9.62561
 20
122.64
 30
0.0
 11
8.82495
 21
122.64
 31
0.0
  0
LINE
  8
0
 62
     5
 10
8.82495
 20
122.64
 30
0.0
 11
8.82495
 21
119.539
 31
0.0
  0
LINE
  8
0
 62
     5
 10
8.82495
 20
119.539
 30
0.0
 11
9.62561
 21
119.539
 31
0.0
  0
LINE
  8
0
 62
     5
 10
9.62561
 20
119.539
 30
0.0
 11
9.62561
 21
113.739
 31
0.0
  0
LINE
  8
0
 62
     5
 10
9.62561
 20
113.739
 30
0.0
 11
8.82495
 21
113.739
 31
0.0
  0
LINE
  8
0
 62
     5
 10
8.82495
 20
113.739
 30
0.0
 11
8.82495
 21
110.64
 31
0.0
  0
LINE
  8
0
 62
     5
 10
8.82495
 20
110.64
 30
0.0
 11
9.62561
 21
110.64
 31
0.0
  0
LINE
  8
0
 62
     5
 10
9.62561
 20
110.64
 30
0.0
 11
9.62561
 21
109.639
 31
0.0
  0
LINE
  8
0
 62
     5
 10
9.62561
 20
109.639
 30
0.0
 11
23.6265
 21
109.639
 31
0.0
  0
LINE
  8
0
 62
     5
 10
42.6766
 20
109.639
 30
0.0
 11
42.6766
 21
110.64
 31
0.0
  0
LINE
  8
0
 62
     5
 10
42.6766
 20
110.64
 30
0.0
 11
43.4756
 21
110.64
 31
0.0
  0
LINE
  8
0
 62
     5
 10
43.4756
 20
110.64
 30
0.0
 11
43.4756
 21
113.739
 31
0.0
  0
LINE
  8
0
 62
     5
 10
43.4756
 20
113.739
 30
0.0
 11
42.6766
 21
113.739
 31
0.0
  0
LINE
  8
0
 62
     5
 10
42.6766
 20
113.739
 30
0.0
 11
42.6766
 21
119.539
 31
0.0
  0
LINE
  8
0
 62
     5
 10
42.6766
 20
119.539
 30
0.0
 11
43.4756
 21
119.539
 31
0.0
  0
LINE
  8
0
 62
     5
 10
43.4756
 20
119.539
 30
0.0
 11
43.4756
 21
122.64
 31
0.0
  0
LINE
  8
0
 62
     5
 10
43.4756
 20
122.64
 30
0.0
 11
42.6766
 21
122.64
 31
0.0
  0
LINE
  8
0
 62
     5
 10
42.6766
 20
122.64
 30
0.0
 11
42.6766
 21
123.639
 31
0.0
  0
LINE
  8
0
 62
     5
 10
42.6766
 20
123.639
 30
0.0
 11
28.6756
 21
123.639
 31
0.0
  0
LINE
  8
0
 62
     5
 10
28.6756
 20
123.639
 30
0.0
 11
28.6756
 21
122.64
 31
0.0
  0
LINE
  8
0
 62
     5
 10
28.6756
 20
122.64
 30
0.0
 11
27.8763
 21
122.64
 31
0.0
  0
LINE
  8
0
 62
     5
 10
27.8763
 20
122.64
 30
0.0
 11
27.8763
 21
119.539
 31
0.0
  0
LINE
  8
0
 62
     5
 10
27.8763
 20
119.539
 30
0.0
 11
28.6756
 21
119.539
 31
0.0
  0
LINE
  8
0
 62
     5
 10
28.6756
 20
119.539
 30
0.0
 11
28.6756
 21
113.739
 31
0.0
  0
LINE
  8
0
 62
     5
 10
28.6756
 20
113.739
 30
0.0
 11
27.8763
 21
113.739
 31
0.0
  0
LINE
  8
0
 62
     5
 10
27.8763
 20
113.739
 30
0.0
 11
27.8763
 21
110.64
 31
0.0
  0
LINE
  8
0
 62
     5
 10
27.8763
 20
110.64
 30
0.0
 11
28.6756
 21
110.64
 31
0.0
  0
LINE
  8
0
 62
     5
 10
28.6756
 20
110.64
 30
0.0
 11
28.6756
 21
109.639
 31
0.0
  0
LINE
  8
0
 62
     5
 10
28.6756
 20
109.639
 30
0.0
 11
42.6766
 21
109.639
 31
0.0
  0
LINE
  8
0
 62
     5
 10
66.4877
 20
109.639
 30
0.0
 11
66.4877
 21
110.64
 31
0.0
  0
LINE
  8
0
 62
     5
 10
66.4877
 20
110.64
 30
0.0
 11
67.2881
 21
110.64
 31
0.0
  0
LINE
  8
0
 62
     5
 10
67.2881
 20
110.64
 30
0.0
 11
67.2881
 21
113.739
 31
0.0
  0
LINE
  8
0
 62
     5
 10
67.2881
 20
113.739
 30
0.0
 11
66.4877
 21
113.739
 31
0.0
  0
LINE
  8
0
 62
     5
 10
66.4877
 20
113.739
 30
0.0
 11
66.4877
 21
119.539
 31
0.0
  0
LINE
  8
0
 62
     5
 10
66.4877
 20
119.539
 30
0.0
 11
67.2881
 21
119.539
 31
0.0
  0
LINE
  8
0
 62
     5
 10
67.2881
 20
119.539
 30
0.0
 11
67.2881
 21
122.64
 31
0.0
  0
LINE
  8
0
 62
     5
 10
67.2881
 20
122.64
 30
0.0
 11
66.4877
 21
122.64
 31
0.0
  0
LINE
  8
0
 62
     5
 10
66.4877
 20
122.64
 30
0.0
 11
66.4877
 21
123.639
 31
0.0
  0
LINE
  8
0
 62
     5
 10
66.4877
 20
123.639
 30
0.0
 11
52.488
 21
123.639
 31
0.0
  0
LINE
  8
0
 62
     5
 10
52.488
 20
123.639
 30
0.0
 11
52.488
 21
122.64
 31
0.0
  0
LINE
  8
0
 62
     5
 10
52.488
 20
122.64
 30
0.0
 11
51.6876
 21
122.64
 31
0.0
  0
LINE
  8
0
 62
     5
 10
51.6876
 20
122.64
 30
0.0
 11
51.6876
 21
119.539
 31
0.0
  0
LINE
  8
0
 62
     5
 10
51.6876
 20
119.539
 30
0.0
 11
52.488
 21
119.539
 31
0.0
  0
LINE
  8
0
 62
     5
 10
52.488
 20
119.539
 30
0.0
 11
52.488
 21
113.739
 31
0.0
  0
LINE
  8
0
 62
     5
 10
52.488
 20
113.739
 30
0.0
 11
51.6876
 21
113.739
 31
0.0
  0
LINE
  8
0
 62
     5
 10
51.6876
 20
113.739
 30
0.0
 11
51.6876
 21
110.64
 31
0.0
  0
LINE
  8
0
 62
     5
 10
51.6876
 20
110.64
 30
0.0
 11
52.488
 21
110.64
 31
0.0
  0
LINE
  8
0
 62
     5
 10
52.488
 20
110.64
 30
0.0
 11
52.488
 21
109.639
 31
0.0
  0
LINE
  8
0
 62
     5
 10
52.488
 20
109.639
 30
0.0
 11
66.4877
 21
109.639
 31
0.0
  0
LINE
  8
0
 62
     5
 10
85.5377
 20
109.639
 30
0.0
 11
85.5377
 21
110.64
 31
0.0
  0
LINE
  8
0
 62
     5
 10
85.5377
 20
110.64
 30
0.0
 11
86.3381
 21
110.64
 31
0.0
  0
LINE
  8
0
 62
     5
 10
86.3381
 20
110.64
 30
0.0
 11
86.3381
 21
113.739
 31
0.0
  0
LINE
  8
0
 62
     5
 10
86.3381
 20
113.739
 30
0.0
 11
85.5377
 21
113.739
 31
0.0
  0
LINE
  8
0
 62
     5
 10
85.5377
 20
113.739
 30
0.0
 11
85.5377
 21
119.539
 31
0.0
  0
LINE
  8
0
 62
     5
 10
85.5377
 20
119.539
 30
0.0
 11
86.3381
 21
119.539
 31
0.0
  0
LINE
  8
0
 62
     5
 10
86.3381
 20
119.539
 30
0.0
 11
86.3381
 21
122.64
 31
0.0
  0
LINE
  8
0
 62
     5
 10
86.3381
 20
122.64
 30
0.0
 11
85.5377
 21
122.64
 31
0.0
  0
LINE
  8
0
 62
     5
 10
85.5377
 20
122.64
 30
0.0
 11
85.5377
 21
123.639
 31
0.0
  0
LINE
  8
0
 62
     5
 10
85.5377
 20
123.639
 30
0.0
 11
71.538
 21
123.639
 31
0.0
  0
LINE
  8
0
 62
     5
 10
71.538
 20
123.639
 30
0.0
 11
71.538
 21
122.64
 31
0.0
  0
LINE
  8
0
 62
     5
 10
71.538
 20
122.64
 30
0.0
 11
70.7376
 21
122.64
 31
0.0
  0
LINE
  8
0
 62
     5
 10
70.7376
 20
122.64
 30
0.0
 11
70.7376
 21
119.539
 31
0.0
  0
LINE
  8
0
 62
     5
 10
70.7376
 20
119.539
 30
0.0
 11
71.538
 21
119.539
 31
0.0
  0
LINE
  8
0
 62
     5
 10
71.538
 20
119.539
 30
0.0
 11
71.538
 21
113.739
 31
0.0
  0
LINE
  8
0
 62
     5
 10
71.538
 20
113.739
 30
0.0
 11
70.7376
 21
113.739
 31
0.0
  0
LINE
  8
0
 62
     5
 10
70.7376
 20
113.739
 30
0.0
 11
70.7376
 21
110.64
 31
0.0
  0
LINE
  8
0
 62
     5
 10
70.7376
 20
110.64
 30
0.0
 11
71.538
 21
110.64
 31
0.0
  0
LINE
  8
0
 62
     5
 10
71.538
 20
110.64
 30
0.0
 11
71.538
 21
109.639
 31
0.0
  0
LINE
  8
0
 62
     5
 10
71.538
 20
109.639
 30
0.0
 11
85.5377
 21
109.639
 31
0.0
  0
LINE
  8
0
 62
     5
 10
104.588
 20
109.639
 30
0.0
 11
104.588
 21
110.64
 31
0.0
  0
LINE
  8
0
 62
     5
 10
104.588
 20
110.64
 30
0.0
 11
105.388
 21
110.64
 31
0.0
  0
LINE
  8
0
 62
     5
 10
105.388
 20
110.64
 30
0.0
 11
105.388
 21
113.739
 31
0.0
  0
LINE
  8
0
 62
     5
 10
105.388
 20
113.739
 30
0.0
 11
104.588
 21
113.739
 31
0.0
  0
LINE
  8
0
 62
     5
 10
104.588
 20
113.739
 30
0.0
 11
104.588
 21
119.539
 31
0.0
  0
LINE
  8
0
 62
     5
 10
104.588
 20
119.539
 30
0.0
 11
105.388
 21
119.539
 31
0.0
  0
LINE
  8
0
 62
     5
 10
105.388
 20
119.539
 30
0.0
 11
105.388
 21
122.64
 31
0.0
  0
LINE
  8
0
 62
     5
 10
105.388
 20
122.64
 30
0.0
 11
104.588
 21
122.64
 31
0.0
  0
LINE
  8
0
 62
     5
 10
104.588
 20
122.64
 30
0.0
 11
104.588
 21
123.639
 31
0.0
  0
LINE
  8
0
 62
     5
 10
104.588
 20
123.639
 30
0.0
 11
90.588
 21
123.639
 31
0.0
  0
LINE
  8
0
 62
     5
 10
90.588
 20
123.639
 30
0.0
 11
90.588
 21
122.64
 31
0.0
  0
LINE
  8
0
 62
     5
 10
90.588
 20
122.64
 30
0.0
 11
89.7876
 21
122.64
 31
0.0
  0
LINE
  8
0
 62
     5
 10
89.7876
 20
122.64
 30
0.0
 11
89.7876
 21
119.539
 31
0.0
  0
LINE
  8
0
 62
     5
 10
89.7876
 20
119.539
 30
0.0
 11
90.588
 21
119.539
 31
0.0
  0
LINE
  8
0
 62
     5
 10
90.588
 20
119.539
 30
0.0
 11
90.588
 21
113.739
 31
0.0
  0
LINE
  8
0
 62
     5
 10
90.588
 20
113.739
 30
0.0
 11
89.7876
 21
113.739
 31
0.0
  0
LINE
  8
0
 62
     5
 10
89.7876
 20
113.739
 30
0.0
 11
89.7876
 21
110.64
 31
0.0
  0
LINE
  8
0
 62
     5
 10
89.7876
 20
110.64
 30
0.0
 11
90.588
 21
110.64
 31
0.0
  0
LINE
  8
0
 62
     5
 10
90.588
 20
110.64
 30
0.0
 11
90.588
 21
109.639
 31
0.0
  0
LINE
  8
0
 62
     5
 10
90.588
 20
109.639
 30
0.0
 11
104.588
 21
109.639
 31
0.0
  0
LINE
  8
0
 62
     5
 10
123.638
 20
109.639
 30
0.0
 11
123.638
 21
110.64
 31
0.0
  0
LINE
  8
0
 62
     5
 10
123.638
 20
110.64
 30
0.0
 11
124.437
 21
110.64
 31
0.0
  0
LINE
  8
0
 62
     5
 10
124.437
 20
110.64
 30
0.0
 11
124.437
 21
113.739
 31
0.0
  0
LINE
  8
0
 62
     5
 10
124.437
 20
113.739
 30
0.0
 11
123.638
 21
113.739
 31
0.0
  0
LINE
  8
0
 62
     5
 10
123.638
 20
113.739
 30
0.0
 11
123.638
 21
119.539
 31
0.0
  0
LINE
  8
0
 62
     5
 10
123.638
 20
119.539
 30
0.0
 11
124.437
 21
119.539
 31
0.0
  0
LINE
  8
0
 62
     5
 10
124.437
 20
119.539
 30
0.0
 11
124.437
 21
122.64
 31
0.0
  0
LINE
  8
0
 62
     5
 10
124.437
 20
122.64
 30
0.0
 11
123.638
 21
122.64
 31
0.0
  0
LINE
  8
0
 62
     5
 10
123.638
 20
122.64
 30
0.0
 11
123.638
 21
123.639
 31
0.0
  0
LINE
  8
0
 62
     5
 10
123.638
 20
123.639
 30
0.0
 11
109.638
 21
123.639
 31
0.0
  0
LINE
  8
0
 62
     5
 10
109.638
 20
123.639
 30
0.0
 11
109.638
 21
122.64
 31
0.0
  0
LINE
  8
0
 62
     5
 10
109.638
 20
122.64
 30
0.0
 11
108.838
 21
122.64
 31
0.0
  0
LINE
  8
0
 62
     5
 10
108.838
 20
122.64
 30
0.0
 11
108.838
 21
119.539
 31
0.0
  0
LINE
  8
0
 62
     5
 10
108.838
 20
119.539
 30
0.0
 11
109.638
 21
119.539
 31
0.0
  0
LINE
  8
0
 62
     5
 10
109.638
 20
119.539
 30
0.0
 11
109.638
 21
113.739
 31
0.0
  0
LINE
  8
0
 62
     5
 10
109.638
 20
113.739
 30
0.0
 11
108.838
 21
113.739
 31
0.0
  0
LINE
  8
0
 62
     5
 10
108.838
 20
113.739
 30
0.0
 11
108.838
 21
110.64
 31
0.0
  0
LINE
  8
0
 62
     5
 10
108.838
 20
110.64
 30
0.0
 11
109.638
 21
110.64
 31
0.0
  0
LINE
  8
0
 62
     5
 10
109.638
 20
110.64
 30
0.0
 11
109.638
 21
109.639
 31
0.0
  0
LINE
  8
0
 62
     5
 10
109.638
 20
109.639
 30
0.0
 11
123.638
 21
109.639
 31
0.0
  0
LINE
  8
0
 62
     5
 10
147.452
 20
109.639
 30
0.0
 11
147.452
 21
110.64
 31
0.0
  0
LINE
  8
0
 62
     5
 10
147.452
 20
110.64
 30
0.0
 11
148.251
 21
110.64
 31
0.0
  0
LINE
  8
0
 62
     5
 10
148.251
 20
110.64
 30
0.0
 11
148.251
 21
113.739
 31
0.0
  0
LINE
  8
0
 62
     5
 10
148.251
 20
113.739
 30
0.0
 11
147.452
 21
113.739
 31
0.0
  0
LINE
  8
0
 62
     5
 10
147.452
 20
113.739
 30
0.0
 11
147.452
 21
119.539
 31
0.0
  0
LINE
  8
0
 62
     5
 10
147.452
 20
119.539
 30
0.0
 11
148.251
 21
119.539
 31
0.0
  0
LINE
  8
0
 62
     5
 10
148.251
 20
119.539
 30
0.0
 11
148.251
 21
122.64
 31
0.0
  0
LINE
  8
0
 62
     5
 10
148.251
 20
122.64
 30
0.0
 11
147.452
 21
122.64
 31
0.0
  0
LINE
  8
0
 62
     5
 10
147.452
 20
122.64
 30
0.0
 11
147.452
 21
123.639
 31
0.0
  0
LINE
  8
0
 62
     5
 10
147.452
 20
123.639
 30
0.0
 11
133.451
 21
123.639
 31
0.0
  0
LINE
  8
0
 62
     5
 10
133.451
 20
123.639
 30
0.0
 11
133.451
 21
122.64
 31
0.0
  0
LINE
  8
0
 62
     5
 10
133.451
 20
122.64
 30
0.0
 11
132.65
 21
122.64
 31
0.0
  0
LINE
  8
0
 62
     5
 10
132.65
 20
122.64
 30
0.0
 11
132.65
 21
119.539
 31
0.0
  0
LINE
  8
0
 62
     5
 10
132.65
 20
119.539
 30
0.0
 11
133.451
 21
119.539
 31
0.0
  0
LINE
  8
0
 62
     5
 10
133.451
 20
119.539
 30
0.0
 11
133.451
 21
113.739
 31
0.0
  0
LINE
  8
0
 62
     5
 10
133.451
 20
113.739
 30
0.0
 11
132.65
 21
113.739
 31
0.0
  0
LINE
  8
0
 62
     5
 10
132.65
 20
113.739
 30
0.0
 11
132.65
 21
110.64
 31
0.0
  0
LINE
  8
0
 62
     5
 10
132.65
 20
110.64
 30
0.0
 11
133.451
 21
110.64
 31
0.0
  0
LINE
  8
0
 62
     5
 10
133.451
 20
110.64
 30
0.0
 11
133.451
 21
109.639
 31
0.0
  0
LINE
  8
0
 62
     5
 10
133.451
 20
109.639
 30
0.0
 11
147.452
 21
109.639
 31
0.0
  0
LINE
  8
0
 62
     5
 10
166.502
 20
109.639
 30
0.0
 11
166.502
 21
110.64
 31
0.0
  0
LINE
  8
0
 62
     5
 10
166.502
 20
110.64
 30
0.0
 11
167.301
 21
110.64
 31
0.0
  0
LINE
  8
0
 62
     5
 10
167.301
 20
110.64
 30
0.0
 11
167.301
 21
113.739
 31
0.0
  0
LINE
  8
0
 62
     5
 10
167.301
 20
113.739
 30
0.0
 11
166.502
 21
113.739
 31
0.0
  0
LINE
  8
0
 62
     5
 10
166.502
 20
113.739
 30
0.0
 11
166.502
 21
119.539
 31
0.0
  0
LINE
  8
0
 62
     5
 10
166.502
 20
119.539
 30
0.0
 11
167.301
 21
119.539
 31
0.0
  0
LINE
  8
0
 62
     5
 10
167.301
 20
119.539
 30
0.0
 11
167.301
 21
122.64
 31
0.0
  0
LINE
  8
0
 62
     5
 10
167.301
 20
122.64
 30
0.0
 11
166.502
 21
122.64
 31
0.0
  0
LINE
  8
0
 62
     5
 10
166.502
 20
122.64
 30
0.0
 11
166.502
 21
123.639
 31
0.0
  0
LINE
  8
0
 62
     5
 10
166.502
 20
123.639
 30
0.0
 11
152.501
 21
123.639
 31
0.0
  0
LINE
  8
0
 62
     5
 10
152.501
 20
123.639
 30
0.0
 11
152.501
 21
122.64
 31
0.0
  0
LINE
  8
0
 62
     5
 10
152.501
 20
122.64
 30
0.0
 11
151.701
 21
122.64
 31
0.0
  0
LINE
  8
0
 62
     5
 10
151.701
 20
122.64
 30
0.0
 11
151.701
 21
119.539
 31
0.0
  0
LINE
  8
0
 62
     5
 10
151.701
 20
119.539
 30
0.0
 11
152.501
 21
119.539
 31
0.0
  0
LINE
  8
0
 62
     5
 10
152.501
 20
119.539
 30
0.0
 11
152.501
 21
113.739
 31
0.0
  0
LINE
  8
0
 62
     5
 10
152.501
 20
113.739
 30
0.0
 11
151.701
 21
113.739
 31
0.0
  0
LINE
  8
0
 62
     5
 10
151.701
 20
113.739
 30
0.0
 11
151.701
 21
110.64
 31
0.0
  0
LINE
  8
0
 62
     5
 10
151.701
 20
110.64
 30
0.0
 11
152.501
 21
110.64
 31
0.0
  0
LINE
  8
0
 62
     5
 10
152.501
 20
110.64
 30
0.0
 11
152.501
 21
109.639
 31
0.0
  0
LINE
  8
0
 62
     5
 10
152.501
 20
109.639
 30
0.0
 11
166.502
 21
109.639
 31
0.0
  0
LINE
  8
0
 62
     5
 10
16.9981
 20
149.233
 30
0.0
 11
16.9072
 21
148.787
 31
0.0
  0
LINE
  8
0
 62
     5
 10
16.9072
 20
148.787
 30
0.0
 11
16.6605
 21
148.42
 31
0.0
  0
LINE
  8
0
 62
     5
 10
16.6605
 20
148.42
 30
0.0
 11
16.2939
 21
148.174
 31
0.0
  0
LINE
  8
0
 62
     5
 10
16.2939
 20
148.174
 30
0.0
 11
15.8474
 21
148.083
 31
0.0
  0
LINE
  8
0
 62
     5
 10
15.8474
 20
148.083
 30
0.0
 11
15.3996
 21
148.174
 31
0.0
  0
LINE
  8
0
 62
     5
 10
15.3996
 20
148.174
 30
0.0
 11
15.0344
 21
148.42
 31
0.0
  0
LINE
  8
0
 62
     5
 10
15.0344
 20
148.42
 30
0.0
 11
14.7877
 21
148.787
 31
0.0
  0
LINE
  8
0
 62
     5
 10
14.7877
 20
148.787
 30
0.0
 11
14.6982
 21
149.233
 31
0.0
  0
LINE
  8
0
 62
     5
 10
14.6982
 20
149.233
 30
0.0
 11
14.7877
 21
149.681
 31
0.0
  0
LINE
  8
0
 62
     5
 10
14.7877
 20
149.681
 30
0.0
 11
15.0344
 21
150.046
 31
0.0
  0
LINE
  8
0
 62
     5
 10
15.0344
 20
150.046
 30
0.0
 11
15.3996
 21
150.293
 31
0.0
  0
LINE
  8
0
 62
     5
 10
15.3996
 20
150.293
 30
0.0
 11
15.8474
 21
150.382
 31
0.0
  0
LINE
  8
0
 62
     5
 10
15.8474
 20
150.382
 30
0.0
 11
16.2939
 21
150.293
 31
0.0
  0
LINE
  8
0
 62
     5
 10
16.2939
 20
150.293
 30
0.0
 11
16.6605
 21
150.046
 31
0.0
  0
LINE
  8
0
 62
     5
 10
16.6605
 20
150.046
 30
0.0
 11
16.9072
 21
149.681
 31
0.0
  0
LINE
  8
0
 62
     5
 10
16.9072
 20
149.681
 30
0.0
 11
16.9981
 21
149.233
 31
0.0
  0
LINE
  8
0
 62
     5
 10
225.506
 20
149.206
 30
0.0
 11
225.415
 21
148.759
 31
0.0
  0
LINE
  8
0
 62
     5
 10
225.415
 20
148.759
 30
0.0
 11
225.169
 21
148.394
 31
0.0
  0
LINE
  8
0
 62
     5
 10
225.169
 20
148.394
 30
0.0
 11
224.802
 21
148.147
 31
0.0
  0
LINE
  8
0
 62
     5
 10
224.802
 20
148.147
 30
0.0
 11
224.356
 21
148.057
 31
0.0
  0
LINE
  8
0
 62
     5
 10
224.356
 20
148.057
 30
0.0
 11
223.908
 21
148.147
 31
0.0
  0
LINE
  8
0
 62
     5
 10
223.908
 20
148.147
 30
0.0
 11
223.543
 21
148.394
 31
0.0
  0
LINE
  8
0
 62
     5
 10
223.543
 20
148.394
 30
0.0
 11
223.296
 21
148.759
 31
0.0
  0
LINE
  8
0
 62
     5
 10
223.296
 20
148.759
 30
0.0
 11
223.206
 21
149.206
 31
0.0
  0
LINE
  8
0
 62
     5
 10
223.206
 20
149.206
 30
0.0
 11
223.296
 21
149.654
 31
0.0
  0
LINE
  8
0
 62
     5
 10
223.296
 20
149.654
 30
0.0
 11
223.543
 21
150.02
 31
0.0
  0
LINE
  8
0
 62
     5
 10
223.543
 20
150.02
 30
0.0
 11
223.908
 21
150.267
 31
0.0
  0
LINE
  8
0
 62
     5
 10
223.908
 20
150.267
 30
0.0
 11
224.356
 21
150.356
 31
0.0
  0
LINE
  8
0
 62
     5
 10
224.356
 20
150.356
 30
0.0
 11
224.802
 21
150.267
 31
0.0
  0
LINE
  8
0
 62
     5
 10
224.802
 20
150.267
 30
0.0
 11
225.169
 21
150.02
 31
0.0
  0
LINE
  8
0
 62
     5
 10
225.169
 20
150.02
 30
0.0
 11
225.415
 21
149.654
 31
0.0
  0
LINE
  8
0
 62
     5
 10
225.415
 20
149.654
 30
0.0
 11
225.506
 21
149.206
 31
0.0
  0
LINE
  8
0
 62
     5
 10
227.2
 20
54.2258
 30
0.0
 11
227.109
 21
53.7792
 31
0.0
  0
LINE
  8
0
 62
     5
 10
227.109
 20
53.7792
 30
0.0
 11
226.862
 21
53.4141
 31
0.0
  0
LINE
  8
0
 62
     5
 10
226.862
 20
53.4141
 30
0.0
 11
226.496
 21
53.1675
 31
0.0
  0
LINE
  8
0
 62
     5
 10
226.496
 20
53.1675
 30
0.0
 11
226.049
 21
53.0765
 31
0.0
  0
LINE
  8
0
 62
     5
 10
226.049
 20
53.0765
 30
0.0
 11
225.601
 21
53.1675
 31
0.0
  0
LINE
  8
0
 62
     5
 10
225.601
 20
53.1675
 30
0.0
 11
225.236
 21
53.4141
 31
0.0
  0
LINE
  8
0
 62
     5
 10
225.236
 20
53.4141
 30
0.0
 11
224.99
 21
53.7792
 31
0.0
  0
LINE
  8
0
 62
     5
 10
224.99
 20
53.7792
 30
0.0
 11
224.9
 21
54.2258
 31
0.0
  0
LINE
  8
0
 62
     5
 10
224.9
 20
54.2258
 30
0.0
 11
224.99
 21
54.6735
 31
0.0
  0
LINE
  8
0
 62
     5
 10
224.99
 20
54.6735
 30
0.0
 11
225.236
 21
55.0404
 31
0.0
  0
LINE
  8
0
 62
     5
 10
225.236
 20
55.0404
 30
0.0
 11
225.601
 21
55.287
 31
0.0
  0
LINE
  8
0
 62
     5
 10
225.601
 20
55.287
 30
0.0
 11
226.049
 21
55.3766
 31
0.0
  0
LINE
  8
0
 62
     5
 10
226.049
 20
55.3766
 30
0.0
 11
226.496
 21
55.287
 31
0.0
  0
LINE
  8
0
 62
     5
 10
226.496
 20
55.287
 30
0.0
 11
226.862
 21
55.0404
 31
0.0
  0
LINE
  8
0
 62
     5
 10
226.862
 20
55.0404
 30
0.0
 11
227.109
 21
54.6735
 31
0.0
  0
LINE
  8
0
 62
     5
 10
227.109
 20
54.6735
 30
0.0
 11
227.2
 21
54.2258
 31
0.0
  0
LINE
  8
0
 62
     5
 10
179.222
 20
53.9778
 30
0.0
 11
179.131
 21
53.5312
 31
0.0
  0
LINE
  8
0
 62
     5
 10
179.131
 20
53.5312
 30
0.0
 11
178.884
 21
53.1661
 31
0.0
  0
LINE
  8
0
 62
     5
 10
178.884
 20
53.1661
 30
0.0
 11
178.519
 21
52.9195
 31
0.0
  0
LINE
  8
0
 62
     5
 10
178.519
 20
52.9195
 30
0.0
 11
178.073
 21
52.8285
 31
0.0
  0
LINE
  8
0
 62
     5
 10
178.073
 20
52.8285
 30
0.0
 11
177.625
 21
52.9195
 31
0.0
  0
LINE
  8
0
 62
     5
 10
177.625
 20
52.9195
 30
0.0
 11
177.258
 21
53.1661
 31
0.0
  0
LINE
  8
0
 62
     5
 10
177.258
 20
53.1661
 30
0.0
 11
177.012
 21
53.5312
 31
0.0
  0
LINE
  8
0
 62
     5
 10
177.012
 20
53.5312
 30
0.0
 11
176.922
 21
53.9778
 31
0.0
  0
LINE
  8
0
 62
     5
 10
176.922
 20
53.9778
 30
0.0
 11
177.012
 21
54.4255
 31
0.0
  0
LINE
  8
0
 62
     5
 10
177.012
 20
54.4255
 30
0.0
 11
177.258
 21
54.792
 31
0.0
  0
LINE
  8
0
 62
     5
 10
177.258
 20
54.792
 30
0.0
 11
177.625
 21
55.039
 31
0.0
  0
LINE
  8
0
 62
     5
 10
177.625
 20
55.039
 30
0.0
 11
178.073
 21
55.1286
 31
0.0
  0
LINE
  8
0
 62
     5
 10
178.073
 20
55.1286
 30
0.0
 11
178.519
 21
55.039
 31
0.0
  0
LINE
  8
0
 62
     5
 10
178.519
 20
55.039
 30
0.0
 11
178.884
 21
54.792
 31
0.0
  0
LINE
  8
0
 62
     5
 10
178.884
 20
54.792
 30
0.0
 11
179.131
 21
54.4255
 31
0.0
  0
LINE
  8
0
 62
     5
 10
179.131
 20
54.4255
 30
0.0
 11
179.222
 21
53.9778
 31
0.0
  0
LINE
  8
0
 62
     5
 10
16.4276
 20
35.9311
 30
0.0
 11
16.3366
 21
35.4845
 31
0.0
  0
LINE
  8
0
 62
     5
 10
16.3366
 20
35.4845
 30
0.0
 11
16.09
 21
35.1193
 31
0.0
  0
LINE
  8
0
 62
     5
 10
16.09
 20
35.1193
 30
0.0
 11
15.7234
 21
34.8726
 31
0.0
  0
LINE
  8
0
 62
     5
 10
15.7234
 20
34.8726
 30
0.0
 11
15.2769
 21
34.7817
 31
0.0
  0
LINE
  8
0
 62
     5
 10
15.2769
 20
34.7817
 30
0.0
 11
14.8291
 21
34.8726
 31
0.0
  0
LINE
  8
0
 62
     5
 10
14.8291
 20
34.8726
 30
0.0
 11
14.4639
 21
35.1193
 31
0.0
  0
LINE
  8
0
 62
     5
 10
14.4639
 20
35.1193
 30
0.0
 11
14.2172
 21
35.4845
 31
0.0
  0
LINE
  8
0
 62
     5
 10
14.2172
 20
35.4845
 30
0.0
 11
14.1277
 21
35.9311
 31
0.0
  0
LINE
  8
0
 62
     5
 10
14.1277
 20
35.9311
 30
0.0
 11
14.2172
 21
36.3788
 31
0.0
  0
LINE
  8
0
 62
     5
 10
14.2172
 20
36.3788
 30
0.0
 11
14.4639
 21
36.7453
 31
0.0
  0
LINE
  8
0
 62
     5
 10
14.4639
 20
36.7453
 30
0.0
 11
14.8291
 21
36.9919
 31
0.0
  0
LINE
  8
0
 62
     5
 10
14.8291
 20
36.9919
 30
0.0
 11
15.2769
 21
37.0815
 31
0.0
  0
LINE
  8
0
 62
     5
 10
15.2769
 20
37.0815
 30
0.0
 11
15.7234
 21
36.9919
 31
0.0
  0
LINE
  8
0
 62
     5
 10
15.7234
 20
36.9919
 30
0.0
 11
16.09
 21
36.7453
 31
0.0
  0
LINE
  8
0
 62
     5
 10
16.09
 20
36.7453
 30
0.0
 11
16.3366
 21
36.3788
 31
0.0
  0
LINE
  8
0
 62
     5
 10
16.3366
 20
36.3788
 30
0.0
 11
16.4276
 21
35.9311
 31
0.0
  0
LINE
  8
0
 62
     5
 10
51.4339
 20
16.666
 30
0.0
 11
51.3429
 21
16.2195
 31
0.0
  0
LINE
  8
0
 62
     5
 10
51.3429
 20
16.2195
 30
0.0
 11
51.0963
 21
15.853
 31
0.0
  0
LINE
  8
0
 62
     5
 10
51.0963
 20
15.853
 30
0.0
 11
50.7298
 21
15.6063
 31
0.0
  0
LINE
  8
0
 62
     5
 10
50.7298
 20
15.6063
 30
0.0
 11
50.2832
 21
15.5153
 31
0.0
  0
LINE
  8
0
 62
     5
 10
50.2832
 20
15.5153
 30
0.0
 11
49.8355
 21
15.6063
 31
0.0
  0
LINE
  8
0
 62
     5
 10
49.8355
 20
15.6063
 30
0.0
 11
49.47
 21
15.853
 31
0.0
  0
LINE
  8
0
 62
     5
 10
49.47
 20
15.853
 30
0.0
 11
49.2234
 21
16.2195
 31
0.0
  0
LINE
  8
0
 62
     5
 10
49.2234
 20
16.2195
 30
0.0
 11
49.1338
 21
16.666
 31
0.0
  0
LINE
  8
0
 62
     5
 10
49.1338
 20
16.666
 30
0.0
 11
49.2234
 21
17.1138
 31
0.0
  0
LINE
  8
0
 62
     5
 10
49.2234
 20
17.1138
 30
0.0
 11
49.47
 21
17.479
 31
0.0
  0
LINE
  8
0
 62
     5
 10
49.47
 20
17.479
 30
0.0
 11
49.8355
 21
17.7257
 31
0.0
  0
LINE
  8
0
 62
     5
 10
49.8355
 20
17.7257
 30
0.0
 11
50.2832
 21
17.8153
 31
0.0
  0
LINE
  8
0
 62
     5
 10
50.2832
 20
17.8153
 30
0.0
 11
50.7298
 21
17.7257
 31
0.0
  0
LINE
  8
0
 62
     5
 10
50.7298
 20
17.7257
 30
0.0
 11
51.0963
 21
17.479
 31
0.0
  0
LINE
  8
0
 62
     5
 10
51.0963
 20
17.479
 30
0.0
 11
51.3429
 21
17.1138
 31
0.0
  0
LINE
  8
0
 62
     5
 10
51.3429
 20
17.1138
 30
0.0
 11
51.4339
 21
16.666
 31
0.0
  0
LINE
  8
0
 62
     5
 10
228.328
 20
104.708
 30
0.0
 11
228.238
 21
104.261
 31
0.0
  0
LINE
  8
0
 62
     5
 10
228.238
 20
104.261
 30
0.0
 11
227.991
 21
103.894
 31
0.0
  0
LINE
  8
0
 62
     5
 10
227.991
 20
103.894
 30
0.0
 11
227.624
 21
103.648
 31
0.0
  0
LINE
  8
0
 62
     5
 10
227.624
 20
103.648
 30
0.0
 11
227.178
 21
103.557
 31
0.0
  0
LINE
  8
0
 62
     5
 10
227.178
 20
103.557
 30
0.0
 11
226.73
 21
103.648
 31
0.0
  0
LINE
  8
0
 62
     5
 10
226.73
 20
103.648
 30
0.0
 11
226.365
 21
103.894
 31
0.0
  0
LINE
  8
0
 62
     5
 10
226.365
 20
103.894
 30
0.0
 11
226.118
 21
104.261
 31
0.0
  0
LINE
  8
0
 62
     5
 10
226.118
 20
104.261
 30
0.0
 11
226.029
 21
104.708
 31
0.0
  0
LINE
  8
0
 62
     5
 10
226.029
 20
104.708
 30
0.0
 11
226.118
 21
105.155
 31
0.0
  0
LINE
  8
0
 62
     5
 10
226.118
 20
105.155
 30
0.0
 11
226.365
 21
105.52
 31
0.0
  0
LINE
  8
0
 62
     5
 10
226.365
 20
105.52
 30
0.0
 11
226.73
 21
105.767
 31
0.0
  0
LINE
  8
0
 62
     5
 10
226.73
 20
105.767
 30
0.0
 11
227.178
 21
105.857
 31
0.0
  0
LINE
  8
0
 62
     5
 10
227.178
 20
105.857
 30
0.0
 11
227.624
 21
105.767
 31
0.0
  0
LINE
  8
0
 62
     5
 10
227.624
 20
105.767
 30
0.0
 11
227.991
 21
105.52
 31
0.0
  0
LINE
  8
0
 62
     5
 10
227.991
 20
105.52
 30
0.0
 11
228.238
 21
105.155
 31
0.0
  0
LINE
  8
0
 62
     5
 10
228.238
 20
105.155
 30
0.0
 11
228.328
 21
104.708
 31
0.0
  0
LINE
  8
0
 62
     5
 10
11.3468
 20
104.723
 30
0.0
 11
11.2558
 21
104.276
 31
0.0
  0
LINE
  8
0
 62
     5
 10
11.2558
 20
104.276
 30
0.0
 11
11.0091
 21
103.911
 31
0.0
  0
LINE
  8
0
 62
     5
 10
11.0091
 20
103.911
 30
0.0
 11
10.644
 21
103.664
 31
0.0
  0
LINE
  8
0
 62
     5
 10
10.644
 20
103.664
 30
0.0
 11
10.1975
 21
103.573
 31
0.0
  0
LINE
  8
0
 62
     5
 10
10.1975
 20
103.573
 30
0.0
 11
9.74961
 21
103.664
 31
0.0
  0
LINE
  8
0
 62
     5
 10
9.74961
 20
103.664
 30
0.0
 11
9.38308
 21
103.911
 31
0.0
  0
LINE
  8
0
 62
     5
 10
9.38308
 20
103.911
 30
0.0
 11
9.13638
 21
104.276
 31
0.0
  0
LINE
  8
0
 62
     5
 10
9.13638
 20
104.276
 30
0.0
 11
9.04681
 21
104.723
 31
0.0
  0
LINE
  8
0
 62
     5
 10
9.04681
 20
104.723
 30
0.0
 11
9.13638
 21
105.17
 31
0.0
  0
LINE
  8
0
 62
     5
 10
9.13638
 20
105.17
 30
0.0
 11
9.38308
 21
105.537
 31
0.0
  0
LINE
  8
0
 62
     5
 10
9.38308
 20
105.537
 30
0.0
 11
9.74961
 21
105.784
 31
0.0
  0
LINE
  8
0
 62
     5
 10
9.74961
 20
105.784
 30
0.0
 11
10.1975
 21
105.873
 31
0.0
  0
LINE
  8
0
 62
     5
 10
10.1975
 20
105.873
 30
0.0
 11
10.644
 21
105.784
 31
0.0
  0
LINE
  8
0
 62
     5
 10
10.644
 20
105.784
 30
0.0
 11
11.0091
 21
105.537
 31
0.0
  0
LINE
  8
0
 62
     5
 10
11.0091
 20
105.537
 30
0.0
 11
11.2558
 21
105.17
 31
0.0
  0
LINE
  8
0
 62
     5
 10
11.2558
 20
105.17
 30
0.0
 11
11.3468
 21
104.723
 31
0.0
  0
LINE
  8
0
 62
     5
 10
119.651
 20
104.708
 30
0.0
 11
119.56
 21
104.261
 31
0.0
  0
LINE
  8
0
 62
     5
 10
119.56
 20
104.261
 30
0.0
 11
119.313
 21
103.894
 31
0.0
  0
LINE
  8
0
 62
     5
 10
119.313
 20
103.894
 30
0.0
 11
118.948
 21
103.648
 31
0.0
  0
LINE
  8
0
 62
     5
 10
118.948
 20
103.648
 30
0.0
 11
118.502
 21
103.557
 31
0.0
  0
LINE
  8
0
 62
     5
 10
118.502
 20
103.557
 30
0.0
 11
118.054
 21
103.648
 31
0.0
  0
LINE
  8
0
 62
     5
 10
118.054
 20
103.648
 30
0.0
 11
117.687
 21
103.894
 31
0.0
  0
LINE
  8
0
 62
     5
 10
117.687
 20
103.894
 30
0.0
 11
117.44
 21
104.261
 31
0.0
  0
LINE
  8
0
 62
     5
 10
117.44
 20
104.261
 30
0.0
 11
117.351
 21
104.708
 31
0.0
  0
LINE
  8
0
 62
     5
 10
117.351
 20
104.708
 30
0.0
 11
117.44
 21
105.155
 31
0.0
  0
LINE
  8
0
 62
     5
 10
117.44
 20
105.155
 30
0.0
 11
117.687
 21
105.52
 31
0.0
  0
LINE
  8
0
 62
     5
 10
117.687
 20
105.52
 30
0.0
 11
118.054
 21
105.767
 31
0.0
  0
LINE
  8
0
 62
     5
 10
118.054
 20
105.767
 30
0.0
 11
118.502
 21
105.857
 31
0.0
  0
LINE
  8
0
 62
     5
 10
118.502
 20
105.857
 30
0.0
 11
118.948
 21
105.767
 31
0.0
  0
LINE
  8
0
 62
     5
 10
118.948
 20
105.767
 30
0.0
 11
119.313
 21
105.52
 31
0.0
  0
LINE
  8
0
 62
     5
 10
119.313
 20
105.52
 30
0.0
 11
119.56
 21
105.155
 31
0.0
  0
LINE
  8
0
 62
     5
 10
119.56
 20
105.155
 30
0.0
 11
119.651
 21
104.708
 31
0.0
  0
LINE
  8
0
 62
     5
 10
122.473
 20
29.3701
 30
0.0
 11
122.382
 21
28.9236
 31
0.0
  0
LINE
  8
0
 62
     5
 10
122.382
 20
28.9236
 30
0.0
 11
122.136
 21
28.5585
 31
0.0
  0
LINE
  8
0
 62
     5
 10
122.136
 20
28.5585
 30
0.0
 11
121.77
 21
28.3118
 31
0.0
  0
LINE
  8
0
 62
     5
 10
121.77
 20
28.3118
 30
0.0
 11
121.324
 21
28.2208
 31
0.0
  0
LINE
  8
0
 62
     5
 10
121.324
 20
28.2208
 30
0.0
 11
120.876
 21
28.3118
 31
0.0
  0
LINE
  8
0
 62
     5
 10
120.876
 20
28.3118
 30
0.0
 11
120.51
 21
28.5585
 31
0.0
  0
LINE
  8
0
 62
     5
 10
120.51
 20
28.5585
 30
0.0
 11
120.263
 21
28.9236
 31
0.0
  0
LINE
  8
0
 62
     5
 10
120.263
 20
28.9236
 30
0.0
 11
120.173
 21
29.3701
 31
0.0
  0
LINE
  8
0
 62
     5
 10
120.173
 20
29.3701
 30
0.0
 11
120.263
 21
29.818
 31
0.0
  0
LINE
  8
0
 62
     5
 10
120.263
 20
29.818
 30
0.0
 11
120.51
 21
30.1845
 31
0.0
  0
LINE
  8
0
 62
     5
 10
120.51
 20
30.1845
 30
0.0
 11
120.876
 21
30.4312
 31
0.0
  0
LINE
  8
0
 62
     5
 10
120.876
 20
30.4312
 30
0.0
 11
121.324
 21
30.5208
 31
0.0
  0
LINE
  8
0
 62
     5
 10
121.324
 20
30.5208
 30
0.0
 11
121.77
 21
30.4312
 31
0.0
  0
LINE
  8
0
 62
     5
 10
121.77
 20
30.4312
 30
0.0
 11
122.136
 21
30.1845
 31
0.0
  0
LINE
  8
0
 62
     5
 10
122.136
 20
30.1845
 30
0.0
 11
122.382
 21
29.818
 31
0.0
  0
LINE
  8
0
 62
     5
 10
122.382
 20
29.818
 30
0.0
 11
122.473
 21
29.3701
 31
0.0
  0
LINE
  8
0
 62
     5
 10
120.001
 20
159.841
 30
0.0
 11
119.882
 21
159.258
 31
0.0
  0
LINE
  8
0
 62
     5
 10
119.882
 20
159.258
 30
0.0
 11
119.561
 21
158.782
 31
0.0
  0
LINE
  8
0
 62
     5
 10
119.561
 20
158.782
 30
0.0
 11
119.085
 21
158.459
 31
0.0
  0
LINE
  8
0
 62
     5
 10
119.085
 20
158.459
 30
0.0
 11
118.502
 21
158.341
 31
0.0
  0
LINE
  8
0
 62
     5
 10
118.502
 20
158.341
 30
0.0
 11
117.917
 21
158.459
 31
0.0
  0
LINE
  8
0
 62
     5
 10
117.917
 20
158.459
 30
0.0
 11
117.44
 21
158.782
 31
0.0
  0
LINE
  8
0
 62
     5
 10
117.44
 20
158.782
 30
0.0
 11
117.118
 21
159.258
 31
0.0
  0
LINE
  8
0
 62
     5
 10
117.118
 20
159.258
 30
0.0
 11
117.001
 21
159.841
 31
0.0
  0
LINE
  8
0
 62
     5
 10
117.001
 20
159.841
 30
0.0
 11
117.118
 21
160.426
 31
0.0
  0
LINE
  8
0
 62
     5
 10
117.118
 20
160.426
 30
0.0
 11
117.44
 21
160.903
 31
0.0
  0
LINE
  8
0
 62
     5
 10
117.44
 20
160.903
 30
0.0
 11
117.917
 21
161.224
 31
0.0
  0
LINE
  8
0
 62
     5
 10
117.917
 20
161.224
 30
0.0
 11
118.502
 21
161.341
 31
0.0
  0
LINE
  8
0
 62
     5
 10
118.502
 20
161.341
 30
0.0
 11
119.085
 21
161.224
 31
0.0
  0
LINE
  8
0
 62
     5
 10
119.085
 20
161.224
 30
0.0
 11
119.561
 21
160.903
 31
0.0
  0
LINE
  8
0
 62
     5
 10
119.561
 20
160.903
 30
0.0
 11
119.882
 21
160.426
 31
0.0
  0
LINE
  8
0
 62
     5
 10
119.882
 20
160.426
 30
0.0
 11
120.001
 21
159.841
 31
0.0
  0
LINE
  8
0
 62
     5
 10
235.762
 20
138.482
 30
0.0
 11
235.643
 21
137.898
 31
0.0
  0
LINE
  8
0
 62
     5
 10
235.643
 20
137.898
 30
0.0
 11
235.321
 21
137.421
 31
0.0
  0
LINE
  8
0
 62
     5
 10
235.321
 20
137.421
 30
0.0
 11
234.844
 21
137.1
 31
0.0
  0
LINE
  8
0
 62
     5
 10
234.844
 20
137.1
 30
0.0
 11
234.261
 21
136.981
 31
0.0
  0
LINE
  8
0
 62
     5
 10
234.261
 20
136.981
 30
0.0
 11
233.677
 21
137.1
 31
0.0
  0
LINE
  8
0
 62
     5
 10
233.677
 20
137.1
 30
0.0
 11
233.2
 21
137.421
 31
0.0
  0
LINE
  8
0
 62
     5
 10
233.2
 20
137.421
 30
0.0
 11
232.879
 21
137.898
 31
0.0
  0
LINE
  8
0
 62
     5
 10
232.879
 20
137.898
 30
0.0
 11
232.762
 21
138.482
 31
0.0
  0
LINE
  8
0
 62
     5
 10
232.762
 20
138.482
 30
0.0
 11
232.879
 21
139.066
 31
0.0
  0
LINE
  8
0
 62
     5
 10
232.879
 20
139.066
 30
0.0
 11
233.2
 21
139.543
 31
0.0
  0
LINE
  8
0
 62
     5
 10
233.2
 20
139.543
 30
0.0
 11
233.677
 21
139.864
 31
0.0
  0
LINE
  8
0
 62
     5
 10
233.677
 20
139.864
 30
0.0
 11
234.261
 21
139.981
 31
0.0
  0
LINE
  8
0
 62
     5
 10
234.261
 20
139.981
 30
0.0
 11
234.844
 21
139.864
 31
0.0
  0
LINE
  8
0
 62
     5
 10
234.844
 20
139.864
 30
0.0
 11
235.321
 21
139.543
 31
0.0
  0
LINE
  8
0
 62
     5
 10
235.321
 20
139.543
 30
0.0
 11
235.643
 21
139.066
 31
0.0
  0
LINE
  8
0
 62
     5
 10
235.643
 20
139.066
 30
0.0
 11
235.762
 21
138.482
 31
0.0
  0
LINE
  8
0
 62
     5
 10
235.762
 20
74.1345
 30
0.0
 11
235.643
 21
73.5513
 31
0.0
  0
LINE
  8
0
 62
     5
 10
235.643
 20
73.5513
 30
0.0
 11
235.321
 21
73.0747
 31
0.0
  0
LINE
  8
0
 62
     5
 10
235.321
 20
73.0747
 30
0.0
 11
234.844
 21
72.7534
 31
0.0
  0
LINE
  8
0
 62
     5
 10
234.844
 20
72.7534
 30
0.0
 11
234.261
 21
72.6352
 31
0.0
  0
LINE
  8
0
 62
     5
 10
234.261
 20
72.6352
 30
0.0
 11
233.677
 21
72.7534
 31
0.0
  0
LINE
  8
0
 62
     5
 10
233.677
 20
72.7534
 30
0.0
 11
233.2
 21
73.0747
 31
0.0
  0
LINE
  8
0
 62
     5
 10
233.2
 20
73.0747
 30
0.0
 11
232.879
 21
73.5513
 31
0.0
  0
LINE
  8
0
 62
     5
 10
232.879
 20
73.5513
 30
0.0
 11
232.762
 21
74.1345
 31
0.0
  0
LINE
  8
0
 62
     5
 10
232.762
 20
74.1345
 30
0.0
 11
232.879
 21
74.7187
 31
0.0
  0
LINE
  8
0
 62
     5
 10
232.879
 20
74.7187
 30
0.0
 11
233.2
 21
75.1953
 31
0.0
  0
LINE
  8
0
 62
     5
 10
233.2
 20
75.1953
 30
0.0
 11
233.677
 21
75.5177
 31
0.0
  0
LINE
  8
0
 62
     5
 10
233.677
 20
75.5177
 30
0.0
 11
234.261
 21
75.6348
 31
0.0
  0
LINE
  8
0
 62
     5
 10
234.261
 20
75.6348
 30
0.0
 11
234.844
 21
75.5177
 31
0.0
  0
LINE
  8
0
 62
     5
 10
234.844
 20
75.5177
 30
0.0
 11
235.321
 21
75.1953
 31
0.0
  0
LINE
  8
0
 62
     5
 10
235.321
 20
75.1953
 30
0.0
 11
235.643
 21
74.7187
 31
0.0
  0
LINE
  8
0
 62
     5
 10
235.643
 20
74.7187
 30
0.0
 11
235.762
 21
74.1345
 31
0.0
  0
LINE
  8
0
 62
     5
 10
235.762
 20
23.6775
 30
0.0
 11
235.643
 21
23.0945
 31
0.0
  0
LINE
  8
0
 62
     5
 10
235.643
 20
23.0945
 30
0.0
 11
235.321
 21
22.6177
 31
0.0
  0
LINE
  8
0
 62
     5
 10
235.321
 20
22.6177
 30
0.0
 11
234.844
 21
22.2953
 31
0.0
  0
LINE
  8
0
 62
     5
 10
234.844
 20
22.2953
 30
0.0
 11
234.261
 21
22.1768
 31
0.0
  0
LINE
  8
0
 62
     5
 10
234.261
 20
22.1768
 30
0.0
 11
233.677
 21
22.2953
 31
0.0
  0
LINE
  8
0
 62
     5
 10
233.677
 20
22.2953
 30
0.0
 11
233.2
 21
22.6177
 31
0.0
  0
LINE
  8
0
 62
     5
 10
233.2
 20
22.6177
 30
0.0
 11
232.879
 21
23.0945
 31
0.0
  0
LINE
  8
0
 62
     5
 10
232.879
 20
23.0945
 30
0.0
 11
232.762
 21
23.6775
 31
0.0
  0
LINE
  8
0
 62
     5
 10
232.762
 20
23.6775
 30
0.0
 11
232.879
 21
24.2617
 31
0.0
  0
LINE
  8
0
 62
     5
 10
232.879
 20
24.2617
 30
0.0
 11
233.2
 21
24.7385
 31
0.0
  0
LINE
  8
0
 62
     5
 10
233.2
 20
24.7385
 30
0.0
 11
233.677
 21
25.0596
 31
0.0
  0
LINE
  8
0
 62
     5
 10
233.677
 20
25.0596
 30
0.0
 11
234.261
 21
25.1768
 31
0.0
  0
LINE
  8
0
 62
     5
 10
234.261
 20
25.1768
 30
0.0
 11
234.844
 21
25.0596
 31
0.0
  0
LINE
  8
0
 62
     5
 10
234.844
 20
25.0596
 30
0.0
 11
235.321
 21
24.7385
 31
0.0
  0
LINE
  8
0
 62
     5
 10
235.321
 20
24.7385
 30
0.0
 11
235.643
 21
24.2617
 31
0.0
  0
LINE
  8
0
 62
     5
 10
235.643
 20
24.2617
 30
0.0
 11
235.762
 21
23.6775
 31
0.0
  0
LINE
  8
0
 62
     5
 10
4.95819
 20
138.482
 30
0.0
 11
4.83969
 21
137.898
 31
0.0
  0
LINE
  8
0
 62
     5
 10
4.83969
 20
137.898
 30
0.0
 11
4.51859
 21
137.421
 31
0.0
  0
LINE
  8
0
 62
     5
 10
4.51859
 20
137.421
 30
0.0
 11
4.04177
 21
137.1
 31
0.0
  0
LINE
  8
0
 62
     5
 10
4.04177
 20
137.1
 30
0.0
 11
3.45888
 21
136.981
 31
0.0
  0
LINE
  8
0
 62
     5
 10
3.45888
 20
136.981
 30
0.0
 11
2.87459
 21
137.1
 31
0.0
  0
LINE
  8
0
 62
     5
 10
2.87459
 20
137.1
 30
0.0
 11
2.39779
 21
137.421
 31
0.0
  0
LINE
  8
0
 62
     5
 10
2.39779
 20
137.421
 30
0.0
 11
2.07532
 21
137.898
 31
0.0
  0
LINE
  8
0
 62
     5
 10
2.07532
 20
137.898
 30
0.0
 11
1.95819
 21
138.482
 31
0.0
  0
LINE
  8
0
 62
     5
 10
1.95819
 20
138.482
 30
0.0
 11
2.07532
 21
139.066
 31
0.0
  0
LINE
  8
0
 62
     5
 10
2.07532
 20
139.066
 30
0.0
 11
2.39779
 21
139.543
 31
0.0
  0
LINE
  8
0
 62
     5
 10
2.39779
 20
139.543
 30
0.0
 11
2.87459
 21
139.864
 31
0.0
  0
LINE
  8
0
 62
     5
 10
2.87459
 20
139.864
 30
0.0
 11
3.45888
 21
139.981
 31
0.0
  0
LINE
  8
0
 62
     5
 10
3.45888
 20
139.981
 30
0.0
 11
4.04177
 21
139.864
 31
0.0
  0
LINE
  8
0
 62
     5
 10
4.04177
 20
139.864
 30
0.0
 11
4.51859
 21
139.543
 31
0.0
  0
LINE
  8
0
 62
     5
 10
4.51859
 20
139.543
 30
0.0
 11
4.83969
 21
139.066
 31
0.0
  0
LINE
  8
0
 62
     5
 10
4.83969
 20
139.066
 30
0.0
 11
4.95819
 21
138.482
 31
0.0
  0
LINE
  8
0
 62
     5
 10
4.95819
 20
74.1345
 30
0.0
 11
4.83969
 21
73.5513
 31
0.0
  0
LINE
  8
0
 62
     5
 10
4.83969
 20
73.5513
 30
0.0
 11
4.51859
 21
73.0747
 31
0.0
  0
LINE
  8
0
 62
     5
 10
4.51859
 20
73.0747
 30
0.0
 11
4.04177
 21
72.7534
 31
0.0
  0
LINE
  8
0
 62
     5
 10
4.04177
 20
72.7534
 30
0.0
 11
3.45888
 21
72.6352
 31
0.0
  0
LINE
  8
0
 62
     5
 10
3.45888
 20
72.6352
 30
0.0
 11
2.87459
 21
72.7534
 31
0.0
  0
LINE
  8
0
 62
     5
 10
2.87459
 20
72.7534
 30
0.0
 11
2.39779
 21
73.0747
 31
0.0
  0
LINE
  8
0
 62
     5
 10
2.39779
 20
73.0747
 30
0.0
 11
2.07532
 21
73.5513
 31
0.0
  0
LINE
  8
0
 62
     5
 10
2.07532
 20
73.5513
 30
0.0
 11
1.95819
 21
74.1345
 31
0.0
  0
LINE
  8
0
 62
     5
 10
1.95819
 20
74.1345
 30
0.0
 11
2.07532
 21
74.7187
 31
0.0
  0
LINE
  8
0
 62
     5
 10
2.07532
 20
74.7187
 30
0.0
 11
2.39779
 21
75.1953
 31
0.0
  0
LINE
  8
0
 62
     5
 10
2.39779
 20
75.1953
 30
0.0
 11
2.87459
 21
75.5177
 31
0.0
  0
LINE
  8
0
 62
     5
 10
2.87459
 20
75.5177
 30
0.0
 11
3.45888
 21
75.6348
 31
0.0
  0
LINE
  8
0
 62
     5
 10
3.45888
 20
75.6348
 30
0.0
 11
4.04177
 21
75.5177
 31
0.0
  0
LINE
  8
0
 62
     5
 10
4.04177
 20
75.5177
 30
0.0
 11
4.51859
 21
75.1953
 31
0.0
  0
LINE
  8
0
 62
     5
 10
4.51859
 20
75.1953
 30
0.0
 11
4.83969
 21
74.7187
 31
0.0
  0
LINE
  8
0
 62
     5
 10
4.83969
 20
74.7187
 30
0.0
 11
4.95819
 21
74.1345
 31
0.0
  0
LINE
  8
0
 62
     5
 10
4.95819
 20
23.6775
 30
0.0
 11
4.83969
 21
23.0945
 31
0.0
  0
LINE
  8
0
 62
     5
 10
4.83969
 20
23.0945
 30
0.0
 11
4.51859
 21
22.6177
 31
0.0
  0
LINE
  8
0
 62
     5
 10
4.51859
 20
22.6177
 30
0.0
 11
4.04177
 21
22.2953
 31
0.0
  0
LINE
  8
0
 62
     5
 10
4.04177
 20
22.2953
 30
0.0
 11
3.45888
 21
22.1768
 31
0.0
  0
LINE
  8
0
 62
     5
 10
3.45888
 20
22.1768
 30
0.0
 11
2.87459
 21
22.2953
 31
0.0
  0
LINE
  8
0
 62
     5
 10
2.87459
 20
22.2953
 30
0.0
 11
2.39779
 21
22.6177
 31
0.0
  0
LINE
  8
0
 62
     5
 10
2.39779
 20
22.6177
 30
0.0
 11
2.07532
 21
23.0945
 31
0.0
  0
LINE
  8
0
 62
     5
 10
2.07532
 20
23.0945
 30
0.0
 11
1.95819
 21
23.6775
 31
0.0
  0
LINE
  8
0
 62
     5
 10
1.95819
 20
23.6775
 30
0.0
 11
2.07532
 21
24.2617
 31
0.0
  0
LINE
  8
0
 62
     5
 10
2.07532
 20
24.2617
 30
0.0
 11
2.39779
 21
24.7385
 31
0.0
  0
LINE
  8
0
 62
     5
 10
2.39779
 20
24.7385
 30
0.0
 11
2.87459
 21
25.0596
 31
0.0
  0
LINE
  8
0
 62
     5
 10
2.87459
 20
25.0596
 30
0.0
 11
3.45888
 21
25.1768
 31
0.0
  0
LINE
  8
0
 62
     5
 10
3.45888
 20
25.1768
 30
0.0
 11
4.04177
 21
25.0596
 31
0.0
  0
LINE
  8
0
 62
     5
 10
4.04177
 20
25.0596
 30
0.0
 11
4.51859
 21
24.7385
 31
0.0
  0
LINE
  8
0
 62
     5
 10
4.51859
 20
24.7385
 30
0.0
 11
4.83969
 21
24.2617
 31
0.0
  0
LINE
  8
0
 62
     5
 10
4.83969
 20
24.2617
 30
0.0
 11
4.95819
 21
23.6775
 31
0.0
  0
LINE
  8
0
 62
     5
 10
27.5401
 20
159.841
 30
0.0
 11
27.4216
 21
159.258
 31
0.0
  0
LINE
  8
0
 62
     5
 10
27.4216
 20
159.258
 30
0.0
 11
27.1005
 21
158.782
 31
0.0
  0
LINE
  8
0
 62
     5
 10
27.1005
 20
158.782
 30
0.0
 11
26.6237
 21
158.459
 31
0.0
  0
LINE
  8
0
 62
     5
 10
26.6237
 20
158.459
 30
0.0
 11
26.0408
 21
158.341
 31
0.0
  0
LINE
  8
0
 62
     5
 10
26.0408
 20
158.341
 30
0.0
 11
25.4551
 21
158.459
 31
0.0
  0
LINE
  8
0
 62
     5
 10
25.4551
 20
158.459
 30
0.0
 11
24.9783
 21
158.782
 31
0.0
  0
LINE
  8
0
 62
     5
 10
24.9783
 20
158.782
 30
0.0
 11
24.6572
 21
159.258
 31
0.0
  0
LINE
  8
0
 62
     5
 10
24.6572
 20
159.258
 30
0.0
 11
24.5401
 21
159.841
 31
0.0
  0
LINE
  8
0
 62
     5
 10
24.5401
 20
159.841
 30
0.0
 11
24.6572
 21
160.426
 31
0.0
  0
LINE
  8
0
 62
     5
 10
24.6572
 20
160.426
 30
0.0
 11
24.9783
 21
160.903
 31
0.0
  0
LINE
  8
0
 62
     5
 10
24.9783
 20
160.903
 30
0.0
 11
25.4551
 21
161.224
 31
0.0
  0
LINE
  8
0
 62
     5
 10
25.4551
 20
161.224
 30
0.0
 11
26.0408
 21
161.341
 31
0.0
  0
LINE
  8
0
 62
     5
 10
26.0408
 20
161.341
 30
0.0
 11
26.6237
 21
161.224
 31
0.0
  0
LINE
  8
0
 62
     5
 10
26.6237
 20
161.224
 30
0.0
 11
27.1005
 21
160.903
 31
0.0
  0
LINE
  8
0
 62
     5
 10
27.1005
 20
160.903
 30
0.0
 11
27.4216
 21
160.426
 31
0.0
  0
LINE
  8
0
 62
     5
 10
27.4216
 20
160.426
 30
0.0
 11
27.5401
 21
159.841
 31
0.0
  0
LINE
  8
0
 62
     5
 10
213.47
 20
159.841
 30
0.0
 11
213.352
 21
159.258
 31
0.0
  0
LINE
  8
0
 62
     5
 10
213.352
 20
159.258
 30
0.0
 11
213.031
 21
158.782
 31
0.0
  0
LINE
  8
0
 62
     5
 10
213.031
 20
158.782
 30
0.0
 11
212.554
 21
158.459
 31
0.0
  0
LINE
  8
0
 62
     5
 10
212.554
 20
158.459
 30
0.0
 11
211.97
 21
158.341
 31
0.0
  0
LINE
  8
0
 62
     5
 10
211.97
 20
158.341
 30
0.0
 11
211.386
 21
158.459
 31
0.0
  0
LINE
  8
0
 62
     5
 10
211.386
 20
158.459
 30
0.0
 11
210.909
 21
158.782
 31
0.0
  0
LINE
  8
0
 62
     5
 10
210.909
 20
158.782
 30
0.0
 11
210.588
 21
159.258
 31
0.0
  0
LINE
  8
0
 62
     5
 10
210.588
 20
159.258
 30
0.0
 11
210.47
 21
159.841
 31
0.0
  0
LINE
  8
0
 62
     5
 10
210.47
 20
159.841
 30
0.0
 11
210.588
 21
160.426
 31
0.0
  0
LINE
  8
0
 62
     5
 10
210.588
 20
160.426
 30
0.0
 11
210.909
 21
160.903
 31
0.0
  0
LINE
  8
0
 62
     5
 10
210.909
 20
160.903
 30
0.0
 11
211.386
 21
161.224
 31
0.0
  0
LINE
  8
0
 62
     5
 10
211.386
 20
161.224
 30
0.0
 11
211.97
 21
161.341
 31
0.0
  0
LINE
  8
0
 62
     5
 10
211.97
 20
161.341
 30
0.0
 11
212.554
 21
161.224
 31
0.0
  0
LINE
  8
0
 62
     5
 10
212.554
 20
161.224
 30
0.0
 11
213.031
 21
160.903
 31
0.0
  0
LINE
  8
0
 62
     5
 10
213.031
 20
160.903
 30
0.0
 11
213.352
 21
160.426
 31
0.0
  0
LINE
  8
0
 62
     5
 10
213.352
 20
160.426
 30
0.0
 11
213.47
 21
159.841
 31
0.0
  0
LINE
  8
0
 62
     5
 10
120.566
 20
3.60497
 30
0.0
 11
120.448
 21
3.02204
 31
0.0
  0
LINE
  8
0
 62
     5
 10
120.448
 20
3.02204
 30
0.0
 11
120.126
 21
2.54524
 31
0.0
  0
LINE
  8
0
 62
     5
 10
120.126
 20
2.54524
 30
0.0
 11
119.65
 21
2.22415
 31
0.0
  0
LINE
  8
0
 62
     5
 10
119.65
 20
2.22415
 30
0.0
 11
119.065
 21
2.10564
 31
0.0
  0
LINE
  8
0
 62
     5
 10
119.065
 20
2.10564
 30
0.0
 11
118.481
 21
2.22415
 31
0.0
  0
LINE
  8
0
 62
     5
 10
118.481
 20
2.22415
 30
0.0
 11
118.004
 21
2.54524
 31
0.0
  0
LINE
  8
0
 62
     5
 10
118.004
 20
2.54524
 30
0.0
 11
117.683
 21
3.02204
 31
0.0
  0
LINE
  8
0
 62
     5
 10
117.683
 20
3.02204
 30
0.0
 11
117.566
 21
3.60497
 31
0.0
  0
LINE
  8
0
 62
     5
 10
117.566
 20
3.60497
 30
0.0
 11
117.683
 21
4.18924
 31
0.0
  0
LINE
  8
0
 62
     5
 10
117.683
 20
4.18924
 30
0.0
 11
118.004
 21
4.66605
 31
0.0
  0
LINE
  8
0
 62
     5
 10
118.004
 20
4.66605
 30
0.0
 11
118.481
 21
4.98849
 31
0.0
  0
LINE
  8
0
 62
     5
 10
118.481
 20
4.98849
 30
0.0
 11
119.065
 21
5.10565
 31
0.0
  0
LINE
  8
0
 62
     5
 10
119.065
 20
5.10565
 30
0.0
 11
119.65
 21
4.98849
 31
0.0
  0
LINE
  8
0
 62
     5
 10
119.65
 20
4.98849
 30
0.0
 11
120.126
 21
4.66605
 31
0.0
  0
LINE
  8
0
 62
     5
 10
120.126
 20
4.66605
 30
0.0
 11
120.448
 21
4.18924
 31
0.0
  0
LINE
  8
0
 62
     5
 10
120.448
 20
4.18924
 30
0.0
 11
120.566
 21
3.60497
 31
0.0
  0
LINE
  8
0
 62
     5
 10
27.5401
 20
3.60497
 30
0.0
 11
27.4216
 21
3.02204
 31
0.0
  0
LINE
  8
0
 62
     5
 10
27.4216
 20
3.02204
 30
0.0
 11
27.1005
 21
2.54524
 31
0.0
  0
LINE
  8
0
 62
     5
 10
27.1005
 20
2.54524
 30
0.0
 11
26.6237
 21
2.22415
 31
0.0
  0
LINE
  8
0
 62
     5
 10
26.6237
 20
2.22415
 30
0.0
 11
26.0408
 21
2.10564
 31
0.0
  0
LINE
  8
0
 62
     5
 10
26.0408
 20
2.10564
 30
0.0
 11
25.4551
 21
2.22415
 31
0.0
  0
LINE
  8
0
 62
     5
 10
25.4551
 20
2.22415
 30
0.0
 11
24.9783
 21
2.54524
 31
0.0
  0
LINE
  8
0
 62
     5
 10
24.9783
 20
2.54524
 30
0.0
 11
24.6572
 21
3.02204
 31
0.0
  0
LINE
  8
0
 62
     5
 10
24.6572
 20
3.02204
 30
0.0
 11
24.5401
 21
3.60497
 31
0.0
  0
LINE
  8
0
 62
     5
 10
24.5401
 20
3.60497
 30
0.0
 11
24.6572
 21
4.18924
 31
0.0
  0
LINE
  8
0
 62
     5
 10
24.6572
 20
4.18924
 30
0.0
 11
24.9783
 21
4.66605
 31
0.0
  0
LINE
  8
0
 62
     5
 10
24.9783
 20
4.66605
 30
0.0
 11
25.4551
 21
4.98849
 31
0.0
  0
LINE
  8
0
 62
     5
 10
25.4551
 20
4.98849
 30
0.0
 11
26.0408
 21
5.10565
 31
0.0
  0
LINE
  8
0
 62
     5
 10
26.0408
 20
5.10565
 30
0.0
 11
26.6237
 21
4.98849
 31
0.0
  0
LINE
  8
0
 62
     5
 10
26.6237
 20
4.98849
 30
0.0
 11
27.1005
 21
4.66605
 31
0.0
  0
LINE
  8
0
 62
     5
 10
27.1005
 20
4.66605
 30
0.0
 11
27.4216
 21
4.18924
 31
0.0
  0
LINE
  8
0
 62
     5
 10
27.4216
 20
4.18924
 30
0.0
 11
27.5401
 21
3.60497
 31
0.0
  0
LINE
  8
0
 62
     5
 10
213.47
 20
3.60497
 30
0.0
 11
213.352
 21
3.02204
 31
0.0
  0
LINE
  8
0
 62
     5
 10
213.352
 20
3.02204
 30
0.0
 11
213.031
 21
2.54524
 31
0.0
  0
LINE
  8
0
 62
     5
 10
213.031
 20
2.54524
 30
0.0
 11
212.554
 21
2.22415
 31
0.0
  0
LINE
  8
0
 62
     5
 10
212.554
 20
2.22415
 30
0.0
 11
211.97
 21
2.10564
 31
0.0
  0
LINE
  8
0
 62
     5
 10
211.97
 20
2.10564
 30
0.0
 11
211.386
 21
2.22415
 31
0.0
  0
LINE
  8
0
 62
     5
 10
211.386
 20
2.22415
 30
0.0
 11
210.909
 21
2.54524
 31
0.0
  0
LINE
  8
0
 62
     5
 10
210.909
 20
2.54524
 30
0.0
 11
210.588
 21
3.02204
 31
0.0
  0
LINE
  8
0
 62
     5
 10
210.588
 20
3.02204
 30
0.0
 11
210.47
 21
3.60497
 31
0.0
  0
LINE
  8
0
 62
     5
 10
210.47
 20
3.60497
 30
0.0
 11
210.588
 21
4.18924
 31
0.0
  0
LINE
  8
0
 62
     5
 10
210.588
 20
4.18924
 30
0.0
 11
210.909
 21
4.66605
 31
0.0
  0
LINE
  8
0
 62
     5
 10
210.909
 20
4.66605
 30
0.0
 11
211.386
 21
4.98849
 31
0.0
  0
LINE
  8
0
 62
     5
 10
211.386
 20
4.98849
 30
0.0
 11
211.97
 21
5.10565
 31
0.0
  0
LINE
  8
0
 62
     5
 10
211.97
 20
5.10565
 30
0.0
 11
212.554
 21
4.98849
 31
0.0
  0
LINE
  8
0
 62
     5
 10
212.554
 20
4.98849
 30
0.0
 11
213.031
 21
4.66605
 31
0.0
  0
LINE
  8
0
 62
     5
 10
213.031
 20
4.66605
 30
0.0
 11
213.352
 21
4.18924
 31
0.0
  0
LINE
  8
0
 62
     5
 10
213.352
 20
4.18924
 30
0.0
 11
213.47
 21
3.60497
 31
0.0
  0
LINE
  8
0
 62
     5
 10
57.5497
 20
155.6
 30
0.0
 11
76.4755
 21
155.6
 31
0.0
  0
LINE
  8
0
 62
     5
 10
76.4755
 20
155.6
 30
0.0
 11
76.4438
 21
151.801
 31
0.0
  0
LINE
  8
0
 62
     5
 10
76.4438
 20
151.801
 30
0.0
 11
80.6676
 21
151.82
 31
0.0
  0
LINE
  8
0
 62
     5
 10
80.6676
 20
151.82
 30
0.0
 11
80.7021
 21
155.6
 31
0.0
  0
LINE
  8
0
 62
     5
 10
80.7021
 20
155.6
 30
0.0
 11
116.346
 21
155.6
 31
0.0
  0
LINE
  8
0
 62
     5
 10
116.346
 20
155.6
 30
0.0
 11
116.344
 21
151.656
 31
0.0
  0
LINE
  8
0
 62
     5
 10
116.344
 20
151.656
 30
0.0
 11
120.766
 21
151.656
 31
0.0
  0
LINE
  8
0
 62
     5
 10
120.766
 20
151.656
 30
0.0
 11
120.758
 21
155.6
 31
0.0
  0
LINE
  8
0
 62
     5
 10
120.758
 20
155.6
 30
0.0
 11
156.37
 21
155.6
 31
0.0
  0
LINE
  8
0
 62
     5
 10
156.37
 20
155.6
 30
0.0
 11
156.366
 21
151.66
 31
0.0
  0
LINE
  8
0
 62
     5
 10
156.366
 20
151.66
 30
0.0
 11
160.816
 21
151.649
 31
0.0
  0
LINE
  8
0
 62
     5
 10
160.816
 20
151.649
 30
0.0
 11
160.816
 21
155.6
 31
0.0
  0
LINE
  8
0
 62
     5
 10
160.816
 20
155.6
 30
0.0
 11
179.607
 21
155.6
 31
0.0
  0
LINE
  8
0
 62
     5
 10
179.607
 20
155.6
 30
0.0
 11
179.607
 21
125.8
 31
0.0
  0
LINE
  8
0
 62
     5
 10
179.607
 20
125.8
 30
0.0
 11
160.875
 21
125.8
 31
0.0
  0
LINE
  8
0
 62
     5
 10
160.875
 20
125.8
 30
0.0
 11
160.856
 21
129.997
 31
0.0
  0
LINE
  8
0
 62
     5
 10
160.856
 20
129.997
 30
0.0
 11
156.323
 21
129.989
 31
0.0
  0
LINE
  8
0
 62
     5
 10
156.323
 20
129.989
 30
0.0
 11
156.312
 21
125.8
 31
0.0
  0
LINE
  8
0
 62
     5
 10
156.312
 20
125.8
 30
0.0
 11
120.887
 21
125.8
 31
0.0
  0
LINE
  8
0
 62
     5
 10
120.887
 20
125.8
 30
0.0
 11
120.878
 21
129.973
 31
0.0
  0
LINE
  8
0
 62
     5
 10
120.878
 20
129.973
 30
0.0
 11
116.26
 21
129.982
 31
0.0
  0
LINE
  8
0
 62
     5
 10
116.26
 20
129.982
 30
0.0
 11
116.254
 21
125.8
 31
0.0
  0
LINE
  8
0
 62
     5
 10
116.254
 20
125.8
 30
0.0
 11
80.8136
 21
125.8
 31
0.0
  0
LINE
  8
0
 62
     5
 10
80.8136
 20
125.8
 30
0.0
 11
80.8136
 21
130.004
 31
0.0
  0
LINE
  8
0
 62
     5
 10
80.8136
 20
130.004
 30
0.0
 11
76.3531
 21
130
 31
0.0
  0
LINE
  8
0
 62
     5
 10
76.3531
 20
130
 30
0.0
 11
76.3545
 21
125.8
 31
0.0
  0
LINE
  8
0
 62
     5
 10
76.3545
 20
125.8
 30
0.0
 11
57.5497
 21
125.8
 31
0.0
  0
LINE
  8
0
 62
     5
 10
57.5497
 20
125.8
 30
0.0
 11
57.5497
 21
155.6
 31
0.0
  0
ENDSEC
  0
EOF
