  0
SECTION
  2
HEADER
  9
$ACADVER
  1
AC1009
  9
$EXTMIN
 10
0.0
 20
0.0
 30
0.0
  9
$EXTMAX
 10
1000.0
 20
1000.0
 30
0.0
  9
$FILLMODE
 70
 0
  9
$SPLFRAME
 70
 1
  0
ENDSEC
  0
SECTION
  2
TABLES
  0
TABLE
  2
LAYER
 70
1
  0
LAYER
  2
0
 70
     0
 62
     7
  6
CONTINUOUS
  0
ENDTAB
  0
ENDSEC
  0
SECTION
  2
ENTITIES
  0
LINE
  8
0
 62
     5
 10
0.977029
 20
162.566
 30
0.0
 11
1.13137
 21
162.687
 31
0.0
  0
LINE
  8
0
 62
     5
 10
1.13137
 20
162.687
 30
0.0
 11
1.29398
 21
162.796
 31
0.0
  0
LINE
  8
0
 62
     5
 10
1.29398
 20
162.796
 30
0.0
 11
1.46623
 21
162.891
 31
0.0
  0
LINE
  8
0
 62
     5
 10
1.46623
 20
162.891
 30
0.0
 11
1.644
 21
162.974
 31
0.0
  0
LINE
  8
0
 62
     5
 10
1.644
 20
162.974
 30
0.0
 11
1.82866
 21
163.041
 31
0.0
  0
LINE
  8
0
 62
     5
 10
1.82866
 20
163.041
 30
0.0
 11
2.01745
 21
163.095
 31
0.0
  0
LINE
  8
0
 62
     5
 10
2.01745
 20
163.095
 30
0.0
 11
2.209
 21
163.134
 31
0.0
  0
LINE
  8
0
 62
     5
 10
2.209
 20
163.134
 30
0.0
 11
2.40468
 21
163.157
 31
0.0
  0
LINE
  8
0
 62
     5
 10
2.40468
 20
163.157
 30
0.0
 11
2.60036
 21
163.164
 31
0.0
  0
LINE
  8
0
 62
     5
 10
2.60036
 20
163.164
 30
0.0
 11
235.439
 21
163.164
 31
0.0
  0
LINE
  8
0
 62
     5
 10
235.439
 20
163.164
 30
0.0
 11
235.635
 21
163.157
 31
0.0
  0
LINE
  8
0
 62
     5
 10
235.635
 20
163.157
 30
0.0
 11
235.831
 21
163.134
 31
0.0
  0
LINE
  8
0
 62
     5
 10
235.831
 20
163.134
 30
0.0
 11
236.024
 21
163.095
 31
0.0
  0
LINE
  8
0
 62
     5
 10
236.024
 20
163.095
 30
0.0
 11
236.212
 21
163.041
 31
0.0
  0
LINE
  8
0
 62
     5
 10
236.212
 20
163.041
 30
0.0
 11
236.396
 21
162.974
 31
0.0
  0
LINE
  8
0
 62
     5
 10
236.396
 20
162.974
 30
0.0
 11
236.573
 21
162.891
 31
0.0
  0
LINE
  8
0
 62
     5
 10
236.573
 20
162.891
 30
0.0
 11
236.746
 21
162.796
 31
0.0
  0
LINE
  8
0
 62
     5
 10
236.746
 20
162.796
 30
0.0
 11
236.908
 21
162.687
 31
0.0
  0
LINE
  8
0
 62
     5
 10
236.908
 20
162.687
 30
0.0
 11
237.062
 21
162.566
 31
0.0
  0
LINE
  8
0
 62
     5
 10
237.062
 20
162.566
 30
0.0
 11
237.207
 21
162.432
 31
0.0
  0
LINE
  8
0
 62
     5
 10
237.207
 20
162.432
 30
0.0
 11
237.339
 21
162.287
 31
0.0
  0
LINE
  8
0
 62
     5
 10
237.339
 20
162.287
 30
0.0
 11
237.462
 21
162.133
 31
0.0
  0
LINE
  8
0
 62
     5
 10
237.462
 20
162.133
 30
0.0
 11
237.571
 21
161.971
 31
0.0
  0
LINE
  8
0
 62
     5
 10
237.571
 20
161.971
 30
0.0
 11
237.667
 21
161.798
 31
0.0
  0
LINE
  8
0
 62
     5
 10
237.667
 20
161.798
 30
0.0
 11
237.749
 21
161.621
 31
0.0
  0
LINE
  8
0
 62
     5
 10
237.749
 20
161.621
 30
0.0
 11
237.816
 21
161.436
 31
0.0
  0
LINE
  8
0
 62
     5
 10
237.816
 20
161.436
 30
0.0
 11
237.87
 21
161.247
 31
0.0
  0
LINE
  8
0
 62
     5
 10
237.87
 20
161.247
 30
0.0
 11
237.909
 21
161.055
 31
0.0
  0
LINE
  8
0
 62
     5
 10
237.909
 20
161.055
 30
0.0
 11
237.931
 21
160.86
 31
0.0
  0
LINE
  8
0
 62
     5
 10
237.931
 20
160.86
 30
0.0
 11
237.939
 21
160.664
 31
0.0
  0
LINE
  8
0
 62
     5
 10
237.939
 20
160.664
 30
0.0
 11
237.939
 21
2.60036
 31
0.0
  0
LINE
  8
0
 62
     5
 10
237.939
 20
2.60036
 30
0.0
 11
237.931
 21
2.40468
 31
0.0
  0
LINE
  8
0
 62
     5
 10
237.931
 20
2.40468
 30
0.0
 11
237.909
 21
2.209
 31
0.0
  0
LINE
  8
0
 62
     5
 10
237.909
 20
2.209
 30
0.0
 11
237.87
 21
2.01607
 31
0.0
  0
LINE
  8
0
 62
     5
 10
237.87
 20
2.01607
 30
0.0
 11
237.816
 21
1.82728
 31
0.0
  0
LINE
  8
0
 62
     5
 10
237.816
 20
1.82728
 30
0.0
 11
237.749
 21
1.644
 31
0.0
  0
LINE
  8
0
 62
     5
 10
237.749
 20
1.644
 30
0.0
 11
237.667
 21
1.46485
 31
0.0
  0
LINE
  8
0
 62
     5
 10
237.667
 20
1.46485
 30
0.0
 11
237.571
 21
1.29398
 31
0.0
  0
LINE
  8
0
 62
     5
 10
237.571
 20
1.29398
 30
0.0
 11
237.462
 21
1.13137
 31
0.0
  0
LINE
  8
0
 62
     5
 10
237.462
 20
1.13137
 30
0.0
 11
237.339
 21
0.977029
 31
0.0
  0
LINE
  8
0
 62
     5
 10
237.339
 20
0.977029
 30
0.0
 11
237.207
 21
0.832337
 31
0.0
  0
LINE
  8
0
 62
     5
 10
237.207
 20
0.832337
 30
0.0
 11
237.062
 21
0.700045
 31
0.0
  0
LINE
  8
0
 62
     5
 10
237.062
 20
0.700045
 30
0.0
 11
236.908
 21
0.577398
 31
0.0
  0
LINE
  8
0
 62
     5
 10
236.908
 20
0.577398
 30
0.0
 11
236.746
 21
0.468535
 31
0.0
  0
LINE
  8
0
 62
     5
 10
236.746
 20
0.468535
 30
0.0
 11
236.573
 21
0.372071
 31
0.0
  0
LINE
  8
0
 62
     5
 10
236.573
 20
0.372071
 30
0.0
 11
236.396
 21
0.290766
 31
0.0
  0
LINE
  8
0
 62
     5
 10
236.396
 20
0.290766
 30
0.0
 11
236.212
 21
0.221864
 31
0.0
  0
LINE
  8
0
 62
     5
 10
236.212
 20
0.221864
 30
0.0
 11
236.024
 21
0.169499
 31
0.0
  0
LINE
  8
0
 62
     5
 10
236.024
 20
0.169499
 30
0.0
 11
235.831
 21
0.130914
 31
0.0
  0
LINE
  8
0
 62
     5
 10
235.831
 20
0.130914
 30
0.0
 11
235.635
 21
0.108865
 31
0.0
  0
LINE
  8
0
 62
     5
 10
235.635
 20
0.108865
 30
0.0
 11
235.439
 21
0.100597
 31
0.0
  0
LINE
  8
0
 62
     5
 10
235.439
 20
0.100597
 30
0.0
 11
2.60036
 21
0.100597
 31
0.0
  0
LINE
  8
0
 62
     5
 10
2.60036
 20
0.100597
 30
0.0
 11
2.40468
 21
0.108865
 31
0.0
  0
LINE
  8
0
 62
     5
 10
2.40468
 20
0.108865
 30
0.0
 11
2.209
 21
0.130914
 31
0.0
  0
LINE
  8
0
 62
     5
 10
2.209
 20
0.130914
 30
0.0
 11
2.01745
 21
0.169499
 31
0.0
  0
LINE
  8
0
 62
     5
 10
2.01745
 20
0.169499
 30
0.0
 11
1.82866
 21
0.221864
 31
0.0
  0
LINE
  8
0
 62
     5
 10
1.82866
 20
0.221864
 30
0.0
 11
1.644
 21
0.290766
 31
0.0
  0
LINE
  8
0
 62
     5
 10
1.644
 20
0.290766
 30
0.0
 11
1.46623
 21
0.372071
 31
0.0
  0
LINE
  8
0
 62
     5
 10
1.46623
 20
0.372071
 30
0.0
 11
1.29398
 21
0.468535
 31
0.0
  0
LINE
  8
0
 62
     5
 10
1.29398
 20
0.468535
 30
0.0
 11
1.13137
 21
0.577398
 31
0.0
  0
LINE
  8
0
 62
     5
 10
1.13137
 20
0.577398
 30
0.0
 11
0.977029
 21
0.700045
 31
0.0
  0
LINE
  8
0
 62
     5
 10
0.977029
 20
0.700045
 30
0.0
 11
0.832337
 21
0.832337
 31
0.0
  0
LINE
  8
0
 62
     5
 10
0.832337
 20
0.832337
 30
0.0
 11
0.698666
 21
0.977029
 31
0.0
  0
LINE
  8
0
 62
     5
 10
0.698666
 20
0.977029
 30
0.0
 11
0.577398
 21
1.13137
 31
0.0
  0
LINE
  8
0
 62
     5
 10
0.577398
 20
1.13137
 30
0.0
 11
0.468535
 21
1.29398
 31
0.0
  0
LINE
  8
0
 62
     5
 10
0.468535
 20
1.29398
 30
0.0
 11
0.373447
 21
1.46485
 31
0.0
  0
LINE
  8
0
 62
     5
 10
0.373447
 20
1.46485
 30
0.0
 11
0.290766
 21
1.644
 31
0.0
  0
LINE
  8
0
 62
     5
 10
0.290766
 20
1.644
 30
0.0
 11
0.223242
 21
1.82728
 31
0.0
  0
LINE
  8
0
 62
     5
 10
0.223242
 20
1.82728
 30
0.0
 11
0.169499
 21
2.01607
 31
0.0
  0
LINE
  8
0
 62
     5
 10
0.169499
 20
2.01607
 30
0.0
 11
0.130914
 21
2.209
 31
0.0
  0
LINE
  8
0
 62
     5
 10
0.130914
 20
2.209
 30
0.0
 11
0.107487
 21
2.40468
 31
0.0
  0
LINE
  8
0
 62
     5
 10
0.107487
 20
2.40468
 30
0.0
 11
0.100597
 21
2.60036
 31
0.0
  0
LINE
  8
0
 62
     5
 10
0.100597
 20
2.60036
 30
0.0
 11
0.100597
 21
160.664
 31
0.0
  0
LINE
  8
0
 62
     5
 10
0.100597
 20
160.664
 30
0.0
 11
0.107487
 21
160.86
 31
0.0
  0
LINE
  8
0
 62
     5
 10
0.107487
 20
160.86
 30
0.0
 11
0.130914
 21
161.055
 31
0.0
  0
LINE
  8
0
 62
     5
 10
0.130914
 20
161.055
 30
0.0
 11
0.169499
 21
161.247
 31
0.0
  0
LINE
  8
0
 62
     5
 10
0.169499
 20
161.247
 30
0.0
 11
0.223242
 21
161.436
 31
0.0
  0
LINE
  8
0
 62
     5
 10
0.223242
 20
161.436
 30
0.0
 11
0.290766
 21
161.621
 31
0.0
  0
LINE
  8
0
 62
     5
 10
0.290766
 20
161.621
 30
0.0
 11
0.373447
 21
161.798
 31
0.0
  0
LINE
  8
0
 62
     5
 10
0.373447
 20
161.798
 30
0.0
 11
0.468535
 21
161.971
 31
0.0
  0
LINE
  8
0
 62
     5
 10
0.468535
 20
161.971
 30
0.0
 11
0.577398
 21
162.133
 31
0.0
  0
LINE
  8
0
 62
     5
 10
0.577398
 20
162.133
 30
0.0
 11
0.698666
 21
162.287
 31
0.0
  0
LINE
  8
0
 62
     5
 10
0.698666
 20
162.287
 30
0.0
 11
0.832337
 21
162.432
 31
0.0
  0
LINE
  8
0
 62
     5
 10
0.832337
 20
162.432
 30
0.0
 11
0.977029
 21
162.566
 31
0.0
  0
LINE
  8
0
 62
     5
 10
7.09965
 20
83.3025
 30
0.0
 11
7.09965
 21
64.2511
 31
0.0
  0
LINE
  8
0
 62
     5
 10
7.09965
 20
64.2511
 30
0.0
 11
11.8622
 21
64.2511
 31
0.0
  0
LINE
  8
0
 62
     5
 10
11.8622
 20
64.2511
 30
0.0
 11
11.8622
 21
45.2011
 31
0.0
  0
LINE
  8
0
 62
     5
 10
11.8622
 20
45.2011
 30
0.0
 11
21.3872
 21
45.2011
 31
0.0
  0
LINE
  8
0
 62
     5
 10
21.3872
 20
45.2011
 30
0.0
 11
21.3872
 21
26.1524
 31
0.0
  0
LINE
  8
0
 62
     5
 10
21.3872
 20
26.1524
 30
0.0
 11
7.09965
 21
26.1524
 31
0.0
  0
LINE
  8
0
 62
     5
 10
7.09965
 20
26.1524
 30
0.0
 11
7.09965
 21
7.10103
 31
0.0
  0
LINE
  8
0
 62
     5
 10
7.09965
 20
7.10103
 30
0.0
 11
169.027
 21
7.10103
 31
0.0
  0
LINE
  8
0
 62
     5
 10
169.027
 20
7.10103
 30
0.0
 11
169.027
 21
102.352
 31
0.0
  0
LINE
  8
0
 62
     5
 10
169.027
 20
102.352
 30
0.0
 11
16.6247
 21
102.352
 31
0.0
  0
LINE
  8
0
 62
     5
 10
16.6247
 20
102.352
 30
0.0
 11
16.6247
 21
83.3025
 31
0.0
  0
LINE
  8
0
 62
     5
 10
16.6247
 20
83.3025
 30
0.0
 11
7.09965
 21
83.3025
 31
0.0
  0
LINE
  8
0
 62
     5
 10
173.787
 20
45.2025
 30
0.0
 11
230.939
 21
45.2025
 31
0.0
  0
LINE
  8
0
 62
     5
 10
230.939
 20
45.2025
 30
0.0
 11
230.939
 21
7.10103
 31
0.0
  0
LINE
  8
0
 62
     5
 10
230.939
 20
7.10103
 30
0.0
 11
173.787
 21
7.10103
 31
0.0
  0
LINE
  8
0
 62
     5
 10
173.787
 20
7.10103
 30
0.0
 11
173.787
 21
45.2025
 31
0.0
  0
LINE
  8
0
 62
     5
 10
173.787
 20
102.352
 30
0.0
 11
230.939
 21
102.352
 31
0.0
  0
LINE
  8
0
 62
     5
 10
230.939
 20
102.352
 30
0.0
 11
230.939
 21
64.2511
 31
0.0
  0
LINE
  8
0
 62
     5
 10
230.939
 20
64.2511
 30
0.0
 11
173.787
 21
64.2511
 31
0.0
  0
LINE
  8
0
 62
     5
 10
173.787
 20
64.2511
 30
0.0
 11
173.787
 21
102.352
 31
0.0
  0
LINE
  8
0
 62
     5
 10
173.787
 20
126.165
 30
0.0
 11
230.939
 21
126.165
 31
0.0
  0
LINE
  8
0
 62
     5
 10
230.939
 20
126.165
 30
0.0
 11
230.939
 21
107.112
 31
0.0
  0
LINE
  8
0
 62
     5
 10
230.939
 20
107.112
 30
0.0
 11
173.787
 21
107.112
 31
0.0
  0
LINE
  8
0
 62
     5
 10
173.787
 20
107.112
 30
0.0
 11
173.787
 21
126.165
 31
0.0
  0
LINE
  8
0
 62
     5
 10
7.09965
 20
126.165
 30
0.0
 11
45.2025
 21
126.165
 31
0.0
  0
LINE
  8
0
 62
     5
 10
45.2025
 20
126.165
 30
0.0
 11
45.2025
 21
107.114
 31
0.0
  0
LINE
  8
0
 62
     5
 10
45.2025
 20
107.114
 30
0.0
 11
7.09965
 21
107.114
 31
0.0
  0
LINE
  8
0
 62
     5
 10
7.09965
 20
107.114
 30
0.0
 11
7.09965
 21
126.165
 31
0.0
  0
LINE
  8
0
 62
     5
 10
49.9622
 20
126.165
 30
0.0
 11
126.164
 21
126.165
 31
0.0
  0
LINE
  8
0
 62
     5
 10
126.164
 20
126.165
 30
0.0
 11
126.164
 21
107.114
 31
0.0
  0
LINE
  8
0
 62
     5
 10
126.164
 20
107.114
 30
0.0
 11
49.9622
 21
107.114
 31
0.0
  0
LINE
  8
0
 62
     5
 10
49.9622
 20
107.114
 30
0.0
 11
49.9622
 21
126.165
 31
0.0
  0
LINE
  8
0
 62
     5
 10
130.925
 20
126.165
 30
0.0
 11
169.027
 21
126.165
 31
0.0
  0
LINE
  8
0
 62
     5
 10
169.027
 20
126.165
 30
0.0
 11
169.027
 21
107.114
 31
0.0
  0
LINE
  8
0
 62
     5
 10
169.027
 20
107.114
 30
0.0
 11
130.925
 21
107.114
 31
0.0
  0
LINE
  8
0
 62
     5
 10
130.925
 20
107.114
 30
0.0
 11
130.925
 21
126.165
 31
0.0
  0
LINE
  8
0
 62
     5
 10
58.6768
 20
150.599
 30
0.0
 11
178.478
 21
150.599
 31
0.0
  0
LINE
  8
0
 62
     5
 10
178.478
 20
150.599
 30
0.0
 11
178.478
 21
130.799
 31
0.0
  0
LINE
  8
0
 62
     5
 10
178.478
 20
130.799
 30
0.0
 11
58.6768
 21
130.799
 31
0.0
  0
LINE
  8
0
 62
     5
 10
58.6768
 20
130.799
 30
0.0
 11
58.6768
 21
150.599
 31
0.0
  0
ENDSEC
  0
EOF
