  0
SECTION
  2
HEADER
  9
$ACADVER
  1
AC1009
  9
$EXTMIN
 10
0.0
 20
0.0
 30
0.0
  9
$EXTMAX
 10
1000.0
 20
1000.0
 30
0.0
  9
$FILLMODE
 70
 0
  9
$SPLFRAME
 70
 1
  0
ENDSEC
  0
SECTION
  2
TABLES
  0
TABLE
  2
LAYER
 70
1
  0
LAYER
  2
0
 70
     0
 62
     7
  6
CONTINUOUS
  0
ENDTAB
  0
ENDSEC
  0
SECTION
  2
ENTITIES
  0
LINE
  8
0
 62
     5
 10
237.339
 20
0.977029
 30
0.0
 11
237.206
 21
0.833713
 31
0.0
  0
LINE
  8
0
 62
     5
 10
237.206
 20
0.833713
 30
0.0
 11
237.062
 21
0.700045
 31
0.0
  0
LINE
  8
0
 62
     5
 10
237.062
 20
0.700045
 30
0.0
 11
236.908
 21
0.578778
 31
0.0
  0
LINE
  8
0
 62
     5
 10
236.908
 20
0.578778
 30
0.0
 11
236.746
 21
0.469911
 31
0.0
  0
LINE
  8
0
 62
     5
 10
236.746
 20
0.469911
 30
0.0
 11
236.573
 21
0.373447
 31
0.0
  0
LINE
  8
0
 62
     5
 10
236.573
 20
0.373447
 30
0.0
 11
236.396
 21
0.290766
 31
0.0
  0
LINE
  8
0
 62
     5
 10
236.396
 20
0.290766
 30
0.0
 11
236.211
 21
0.223242
 31
0.0
  0
LINE
  8
0
 62
     5
 10
236.211
 20
0.223242
 30
0.0
 11
236.022
 21
0.170877
 31
0.0
  0
LINE
  8
0
 62
     5
 10
236.022
 20
0.170877
 30
0.0
 11
235.831
 21
0.130914
 31
0.0
  0
LINE
  8
0
 62
     5
 10
235.831
 20
0.130914
 30
0.0
 11
235.635
 21
0.108865
 31
0.0
  0
LINE
  8
0
 62
     5
 10
235.635
 20
0.108865
 30
0.0
 11
235.439
 21
0.101975
 31
0.0
  0
LINE
  8
0
 62
     5
 10
235.439
 20
0.101975
 30
0.0
 11
2.60036
 21
0.100597
 31
0.0
  0
LINE
  8
0
 62
     5
 10
2.60036
 20
0.100597
 30
0.0
 11
2.40468
 21
0.108865
 31
0.0
  0
LINE
  8
0
 62
     5
 10
2.40468
 20
0.108865
 30
0.0
 11
2.209
 21
0.130914
 31
0.0
  0
LINE
  8
0
 62
     5
 10
2.209
 20
0.130914
 30
0.0
 11
2.01607
 21
0.170877
 31
0.0
  0
LINE
  8
0
 62
     5
 10
2.01607
 20
0.170877
 30
0.0
 11
1.82728
 21
0.223242
 31
0.0
  0
LINE
  8
0
 62
     5
 10
1.82728
 20
0.223242
 30
0.0
 11
1.64262
 21
0.290766
 31
0.0
  0
LINE
  8
0
 62
     5
 10
1.64262
 20
0.290766
 30
0.0
 11
1.46485
 21
0.373447
 31
0.0
  0
LINE
  8
0
 62
     5
 10
1.46485
 20
0.373447
 30
0.0
 11
1.29398
 21
0.469911
 31
0.0
  0
LINE
  8
0
 62
     5
 10
1.29398
 20
0.469911
 30
0.0
 11
1.13137
 21
0.578778
 31
0.0
  0
LINE
  8
0
 62
     5
 10
1.13137
 20
0.578778
 30
0.0
 11
0.975653
 21
0.700045
 31
0.0
  0
LINE
  8
0
 62
     5
 10
0.975653
 20
0.700045
 30
0.0
 11
0.832337
 21
0.833713
 31
0.0
  0
LINE
  8
0
 62
     5
 10
0.832337
 20
0.833713
 30
0.0
 11
0.698666
 21
0.977029
 31
0.0
  0
LINE
  8
0
 62
     5
 10
0.698666
 20
0.977029
 30
0.0
 11
0.577398
 21
1.13137
 31
0.0
  0
LINE
  8
0
 62
     5
 10
0.577398
 20
1.13137
 30
0.0
 11
0.468535
 21
1.29398
 31
0.0
  0
LINE
  8
0
 62
     5
 10
0.468535
 20
1.29398
 30
0.0
 11
0.372071
 21
1.46623
 31
0.0
  0
LINE
  8
0
 62
     5
 10
0.372071
 20
1.46623
 30
0.0
 11
0.289388
 21
1.644
 31
0.0
  0
LINE
  8
0
 62
     5
 10
0.289388
 20
1.644
 30
0.0
 11
0.221864
 21
1.82866
 31
0.0
  0
LINE
  8
0
 62
     5
 10
0.221864
 20
1.82866
 30
0.0
 11
0.169499
 21
2.01745
 31
0.0
  0
LINE
  8
0
 62
     5
 10
0.169499
 20
2.01745
 30
0.0
 11
0.130914
 21
2.209
 31
0.0
  0
LINE
  8
0
 62
     5
 10
0.130914
 20
2.209
 30
0.0
 11
0.107487
 21
2.40468
 31
0.0
  0
LINE
  8
0
 62
     5
 10
0.107487
 20
2.40468
 30
0.0
 11
0.100597
 21
2.60036
 31
0.0
  0
LINE
  8
0
 62
     5
 10
0.100597
 20
2.60036
 30
0.0
 11
0.100597
 21
160.664
 31
0.0
  0
LINE
  8
0
 62
     5
 10
0.100597
 20
160.664
 30
0.0
 11
0.107487
 21
160.86
 31
0.0
  0
LINE
  8
0
 62
     5
 10
0.107487
 20
160.86
 30
0.0
 11
0.130914
 21
161.055
 31
0.0
  0
LINE
  8
0
 62
     5
 10
0.130914
 20
161.055
 30
0.0
 11
0.169499
 21
161.248
 31
0.0
  0
LINE
  8
0
 62
     5
 10
0.169499
 20
161.248
 30
0.0
 11
0.221864
 21
161.437
 31
0.0
  0
LINE
  8
0
 62
     5
 10
0.221864
 20
161.437
 30
0.0
 11
0.289388
 21
161.622
 31
0.0
  0
LINE
  8
0
 62
     5
 10
0.289388
 20
161.622
 30
0.0
 11
0.372071
 21
161.8
 31
0.0
  0
LINE
  8
0
 62
     5
 10
0.372071
 20
161.8
 30
0.0
 11
0.468535
 21
161.971
 31
0.0
  0
LINE
  8
0
 62
     5
 10
0.468535
 20
161.971
 30
0.0
 11
0.577398
 21
162.133
 31
0.0
  0
LINE
  8
0
 62
     5
 10
0.577398
 20
162.133
 30
0.0
 11
0.698666
 21
162.289
 31
0.0
  0
LINE
  8
0
 62
     5
 10
0.698666
 20
162.289
 30
0.0
 11
0.832337
 21
162.432
 31
0.0
  0
LINE
  8
0
 62
     5
 10
0.832337
 20
162.432
 30
0.0
 11
0.975653
 21
162.566
 31
0.0
  0
LINE
  8
0
 62
     5
 10
0.975653
 20
162.566
 30
0.0
 11
1.13137
 21
162.687
 31
0.0
  0
LINE
  8
0
 62
     5
 10
1.13137
 20
162.687
 30
0.0
 11
1.29398
 21
162.796
 31
0.0
  0
LINE
  8
0
 62
     5
 10
1.29398
 20
162.796
 30
0.0
 11
1.46485
 21
162.892
 31
0.0
  0
LINE
  8
0
 62
     5
 10
1.46485
 20
162.892
 30
0.0
 11
1.64262
 21
162.975
 31
0.0
  0
LINE
  8
0
 62
     5
 10
1.64262
 20
162.975
 30
0.0
 11
1.82728
 21
163.043
 31
0.0
  0
LINE
  8
0
 62
     5
 10
1.82728
 20
163.043
 30
0.0
 11
2.01607
 21
163.095
 31
0.0
  0
LINE
  8
0
 62
     5
 10
2.01607
 20
163.095
 30
0.0
 11
2.209
 21
163.134
 31
0.0
  0
LINE
  8
0
 62
     5
 10
2.209
 20
163.134
 30
0.0
 11
2.40468
 21
163.157
 31
0.0
  0
LINE
  8
0
 62
     5
 10
2.40468
 20
163.157
 30
0.0
 11
2.60036
 21
163.164
 31
0.0
  0
LINE
  8
0
 62
     5
 10
2.60036
 20
163.164
 30
0.0
 11
235.439
 21
163.164
 31
0.0
  0
LINE
  8
0
 62
     5
 10
235.439
 20
163.164
 30
0.0
 11
235.635
 21
163.157
 31
0.0
  0
LINE
  8
0
 62
     5
 10
235.635
 20
163.157
 30
0.0
 11
235.831
 21
163.134
 31
0.0
  0
LINE
  8
0
 62
     5
 10
235.831
 20
163.134
 30
0.0
 11
236.022
 21
163.095
 31
0.0
  0
LINE
  8
0
 62
     5
 10
236.022
 20
163.095
 30
0.0
 11
236.211
 21
163.043
 31
0.0
  0
LINE
  8
0
 62
     5
 10
236.211
 20
163.043
 30
0.0
 11
236.396
 21
162.975
 31
0.0
  0
LINE
  8
0
 62
     5
 10
236.396
 20
162.975
 30
0.0
 11
236.573
 21
162.892
 31
0.0
  0
LINE
  8
0
 62
     5
 10
236.573
 20
162.892
 30
0.0
 11
236.746
 21
162.796
 31
0.0
  0
LINE
  8
0
 62
     5
 10
236.746
 20
162.796
 30
0.0
 11
236.908
 21
162.687
 31
0.0
  0
LINE
  8
0
 62
     5
 10
236.908
 20
162.687
 30
0.0
 11
237.062
 21
162.566
 31
0.0
  0
LINE
  8
0
 62
     5
 10
237.062
 20
162.566
 30
0.0
 11
237.206
 21
162.432
 31
0.0
  0
LINE
  8
0
 62
     5
 10
237.206
 20
162.432
 30
0.0
 11
237.339
 21
162.289
 31
0.0
  0
LINE
  8
0
 62
     5
 10
237.339
 20
162.289
 30
0.0
 11
237.461
 21
162.133
 31
0.0
  0
LINE
  8
0
 62
     5
 10
237.461
 20
162.133
 30
0.0
 11
237.57
 21
161.971
 31
0.0
  0
LINE
  8
0
 62
     5
 10
237.57
 20
161.971
 30
0.0
 11
237.666
 21
161.8
 31
0.0
  0
LINE
  8
0
 62
     5
 10
237.666
 20
161.8
 30
0.0
 11
237.748
 21
161.622
 31
0.0
  0
LINE
  8
0
 62
     5
 10
237.748
 20
161.622
 30
0.0
 11
237.816
 21
161.437
 31
0.0
  0
LINE
  8
0
 62
     5
 10
237.816
 20
161.437
 30
0.0
 11
237.869
 21
161.248
 31
0.0
  0
LINE
  8
0
 62
     5
 10
237.869
 20
161.248
 30
0.0
 11
237.909
 21
161.055
 31
0.0
  0
LINE
  8
0
 62
     5
 10
237.909
 20
161.055
 30
0.0
 11
237.931
 21
160.86
 31
0.0
  0
LINE
  8
0
 62
     5
 10
237.931
 20
160.86
 30
0.0
 11
237.938
 21
160.664
 31
0.0
  0
LINE
  8
0
 62
     5
 10
237.938
 20
160.664
 30
0.0
 11
237.939
 21
2.60036
 31
0.0
  0
LINE
  8
0
 62
     5
 10
237.939
 20
2.60036
 30
0.0
 11
237.931
 21
2.40468
 31
0.0
  0
LINE
  8
0
 62
     5
 10
237.931
 20
2.40468
 30
0.0
 11
237.909
 21
2.209
 31
0.0
  0
LINE
  8
0
 62
     5
 10
237.909
 20
2.209
 30
0.0
 11
237.869
 21
2.01745
 31
0.0
  0
LINE
  8
0
 62
     5
 10
237.869
 20
2.01745
 30
0.0
 11
237.816
 21
1.82866
 31
0.0
  0
LINE
  8
0
 62
     5
 10
237.816
 20
1.82866
 30
0.0
 11
237.748
 21
1.644
 31
0.0
  0
LINE
  8
0
 62
     5
 10
237.748
 20
1.644
 30
0.0
 11
237.666
 21
1.46623
 31
0.0
  0
LINE
  8
0
 62
     5
 10
237.666
 20
1.46623
 30
0.0
 11
237.57
 21
1.29398
 31
0.0
  0
LINE
  8
0
 62
     5
 10
237.57
 20
1.29398
 30
0.0
 11
237.461
 21
1.13137
 31
0.0
  0
LINE
  8
0
 62
     5
 10
237.461
 20
1.13137
 30
0.0
 11
237.339
 21
0.977029
 31
0.0
  0
LINE
  8
0
 62
     5
 10
120.001
 20
159.841
 30
0.0
 11
119.882
 21
159.258
 31
0.0
  0
LINE
  8
0
 62
     5
 10
119.882
 20
159.258
 30
0.0
 11
119.561
 21
158.782
 31
0.0
  0
LINE
  8
0
 62
     5
 10
119.561
 20
158.782
 30
0.0
 11
119.085
 21
158.459
 31
0.0
  0
LINE
  8
0
 62
     5
 10
119.085
 20
158.459
 30
0.0
 11
118.502
 21
158.341
 31
0.0
  0
LINE
  8
0
 62
     5
 10
118.502
 20
158.341
 30
0.0
 11
117.917
 21
158.459
 31
0.0
  0
LINE
  8
0
 62
     5
 10
117.917
 20
158.459
 30
0.0
 11
117.44
 21
158.782
 31
0.0
  0
LINE
  8
0
 62
     5
 10
117.44
 20
158.782
 30
0.0
 11
117.118
 21
159.258
 31
0.0
  0
LINE
  8
0
 62
     5
 10
117.118
 20
159.258
 30
0.0
 11
117.001
 21
159.841
 31
0.0
  0
LINE
  8
0
 62
     5
 10
117.001
 20
159.841
 30
0.0
 11
117.118
 21
160.426
 31
0.0
  0
LINE
  8
0
 62
     5
 10
117.118
 20
160.426
 30
0.0
 11
117.44
 21
160.903
 31
0.0
  0
LINE
  8
0
 62
     5
 10
117.44
 20
160.903
 30
0.0
 11
117.917
 21
161.224
 31
0.0
  0
LINE
  8
0
 62
     5
 10
117.917
 20
161.224
 30
0.0
 11
118.502
 21
161.341
 31
0.0
  0
LINE
  8
0
 62
     5
 10
118.502
 20
161.341
 30
0.0
 11
119.085
 21
161.224
 31
0.0
  0
LINE
  8
0
 62
     5
 10
119.085
 20
161.224
 30
0.0
 11
119.561
 21
160.903
 31
0.0
  0
LINE
  8
0
 62
     5
 10
119.561
 20
160.903
 30
0.0
 11
119.882
 21
160.426
 31
0.0
  0
LINE
  8
0
 62
     5
 10
119.882
 20
160.426
 30
0.0
 11
120.001
 21
159.841
 31
0.0
  0
LINE
  8
0
 62
     5
 10
235.762
 20
138.482
 30
0.0
 11
235.643
 21
137.898
 31
0.0
  0
LINE
  8
0
 62
     5
 10
235.643
 20
137.898
 30
0.0
 11
235.321
 21
137.421
 31
0.0
  0
LINE
  8
0
 62
     5
 10
235.321
 20
137.421
 30
0.0
 11
234.844
 21
137.1
 31
0.0
  0
LINE
  8
0
 62
     5
 10
234.844
 20
137.1
 30
0.0
 11
234.261
 21
136.981
 31
0.0
  0
LINE
  8
0
 62
     5
 10
234.261
 20
136.981
 30
0.0
 11
233.677
 21
137.1
 31
0.0
  0
LINE
  8
0
 62
     5
 10
233.677
 20
137.1
 30
0.0
 11
233.2
 21
137.421
 31
0.0
  0
LINE
  8
0
 62
     5
 10
233.2
 20
137.421
 30
0.0
 11
232.879
 21
137.898
 31
0.0
  0
LINE
  8
0
 62
     5
 10
232.879
 20
137.898
 30
0.0
 11
232.762
 21
138.482
 31
0.0
  0
LINE
  8
0
 62
     5
 10
232.762
 20
138.482
 30
0.0
 11
232.879
 21
139.066
 31
0.0
  0
LINE
  8
0
 62
     5
 10
232.879
 20
139.066
 30
0.0
 11
233.2
 21
139.543
 31
0.0
  0
LINE
  8
0
 62
     5
 10
233.2
 20
139.543
 30
0.0
 11
233.677
 21
139.864
 31
0.0
  0
LINE
  8
0
 62
     5
 10
233.677
 20
139.864
 30
0.0
 11
234.261
 21
139.981
 31
0.0
  0
LINE
  8
0
 62
     5
 10
234.261
 20
139.981
 30
0.0
 11
234.844
 21
139.864
 31
0.0
  0
LINE
  8
0
 62
     5
 10
234.844
 20
139.864
 30
0.0
 11
235.321
 21
139.543
 31
0.0
  0
LINE
  8
0
 62
     5
 10
235.321
 20
139.543
 30
0.0
 11
235.643
 21
139.066
 31
0.0
  0
LINE
  8
0
 62
     5
 10
235.643
 20
139.066
 30
0.0
 11
235.762
 21
138.482
 31
0.0
  0
LINE
  8
0
 62
     5
 10
235.762
 20
74.1345
 30
0.0
 11
235.643
 21
73.5513
 31
0.0
  0
LINE
  8
0
 62
     5
 10
235.643
 20
73.5513
 30
0.0
 11
235.321
 21
73.0747
 31
0.0
  0
LINE
  8
0
 62
     5
 10
235.321
 20
73.0747
 30
0.0
 11
234.844
 21
72.7534
 31
0.0
  0
LINE
  8
0
 62
     5
 10
234.844
 20
72.7534
 30
0.0
 11
234.261
 21
72.6352
 31
0.0
  0
LINE
  8
0
 62
     5
 10
234.261
 20
72.6352
 30
0.0
 11
233.677
 21
72.7534
 31
0.0
  0
LINE
  8
0
 62
     5
 10
233.677
 20
72.7534
 30
0.0
 11
233.2
 21
73.0747
 31
0.0
  0
LINE
  8
0
 62
     5
 10
233.2
 20
73.0747
 30
0.0
 11
232.879
 21
73.5513
 31
0.0
  0
LINE
  8
0
 62
     5
 10
232.879
 20
73.5513
 30
0.0
 11
232.762
 21
74.1345
 31
0.0
  0
LINE
  8
0
 62
     5
 10
232.762
 20
74.1345
 30
0.0
 11
232.879
 21
74.7187
 31
0.0
  0
LINE
  8
0
 62
     5
 10
232.879
 20
74.7187
 30
0.0
 11
233.2
 21
75.1953
 31
0.0
  0
LINE
  8
0
 62
     5
 10
233.2
 20
75.1953
 30
0.0
 11
233.677
 21
75.5177
 31
0.0
  0
LINE
  8
0
 62
     5
 10
233.677
 20
75.5177
 30
0.0
 11
234.261
 21
75.6348
 31
0.0
  0
LINE
  8
0
 62
     5
 10
234.261
 20
75.6348
 30
0.0
 11
234.844
 21
75.5177
 31
0.0
  0
LINE
  8
0
 62
     5
 10
234.844
 20
75.5177
 30
0.0
 11
235.321
 21
75.1953
 31
0.0
  0
LINE
  8
0
 62
     5
 10
235.321
 20
75.1953
 30
0.0
 11
235.643
 21
74.7187
 31
0.0
  0
LINE
  8
0
 62
     5
 10
235.643
 20
74.7187
 30
0.0
 11
235.762
 21
74.1345
 31
0.0
  0
LINE
  8
0
 62
     5
 10
235.762
 20
23.6775
 30
0.0
 11
235.643
 21
23.0945
 31
0.0
  0
LINE
  8
0
 62
     5
 10
235.643
 20
23.0945
 30
0.0
 11
235.321
 21
22.6177
 31
0.0
  0
LINE
  8
0
 62
     5
 10
235.321
 20
22.6177
 30
0.0
 11
234.844
 21
22.2953
 31
0.0
  0
LINE
  8
0
 62
     5
 10
234.844
 20
22.2953
 30
0.0
 11
234.261
 21
22.1768
 31
0.0
  0
LINE
  8
0
 62
     5
 10
234.261
 20
22.1768
 30
0.0
 11
233.677
 21
22.2953
 31
0.0
  0
LINE
  8
0
 62
     5
 10
233.677
 20
22.2953
 30
0.0
 11
233.2
 21
22.6177
 31
0.0
  0
LINE
  8
0
 62
     5
 10
233.2
 20
22.6177
 30
0.0
 11
232.879
 21
23.0945
 31
0.0
  0
LINE
  8
0
 62
     5
 10
232.879
 20
23.0945
 30
0.0
 11
232.762
 21
23.6775
 31
0.0
  0
LINE
  8
0
 62
     5
 10
232.762
 20
23.6775
 30
0.0
 11
232.879
 21
24.2617
 31
0.0
  0
LINE
  8
0
 62
     5
 10
232.879
 20
24.2617
 30
0.0
 11
233.2
 21
24.7385
 31
0.0
  0
LINE
  8
0
 62
     5
 10
233.2
 20
24.7385
 30
0.0
 11
233.677
 21
25.0596
 31
0.0
  0
LINE
  8
0
 62
     5
 10
233.677
 20
25.0596
 30
0.0
 11
234.261
 21
25.1768
 31
0.0
  0
LINE
  8
0
 62
     5
 10
234.261
 20
25.1768
 30
0.0
 11
234.844
 21
25.0596
 31
0.0
  0
LINE
  8
0
 62
     5
 10
234.844
 20
25.0596
 30
0.0
 11
235.321
 21
24.7385
 31
0.0
  0
LINE
  8
0
 62
     5
 10
235.321
 20
24.7385
 30
0.0
 11
235.643
 21
24.2617
 31
0.0
  0
LINE
  8
0
 62
     5
 10
235.643
 20
24.2617
 30
0.0
 11
235.762
 21
23.6775
 31
0.0
  0
LINE
  8
0
 62
     5
 10
4.95819
 20
138.482
 30
0.0
 11
4.83969
 21
137.898
 31
0.0
  0
LINE
  8
0
 62
     5
 10
4.83969
 20
137.898
 30
0.0
 11
4.51859
 21
137.421
 31
0.0
  0
LINE
  8
0
 62
     5
 10
4.51859
 20
137.421
 30
0.0
 11
4.04177
 21
137.1
 31
0.0
  0
LINE
  8
0
 62
     5
 10
4.04177
 20
137.1
 30
0.0
 11
3.45888
 21
136.981
 31
0.0
  0
LINE
  8
0
 62
     5
 10
3.45888
 20
136.981
 30
0.0
 11
2.87459
 21
137.1
 31
0.0
  0
LINE
  8
0
 62
     5
 10
2.87459
 20
137.1
 30
0.0
 11
2.39779
 21
137.421
 31
0.0
  0
LINE
  8
0
 62
     5
 10
2.39779
 20
137.421
 30
0.0
 11
2.07532
 21
137.898
 31
0.0
  0
LINE
  8
0
 62
     5
 10
2.07532
 20
137.898
 30
0.0
 11
1.95819
 21
138.482
 31
0.0
  0
LINE
  8
0
 62
     5
 10
1.95819
 20
138.482
 30
0.0
 11
2.07532
 21
139.066
 31
0.0
  0
LINE
  8
0
 62
     5
 10
2.07532
 20
139.066
 30
0.0
 11
2.39779
 21
139.543
 31
0.0
  0
LINE
  8
0
 62
     5
 10
2.39779
 20
139.543
 30
0.0
 11
2.87459
 21
139.864
 31
0.0
  0
LINE
  8
0
 62
     5
 10
2.87459
 20
139.864
 30
0.0
 11
3.45888
 21
139.981
 31
0.0
  0
LINE
  8
0
 62
     5
 10
3.45888
 20
139.981
 30
0.0
 11
4.04177
 21
139.864
 31
0.0
  0
LINE
  8
0
 62
     5
 10
4.04177
 20
139.864
 30
0.0
 11
4.51859
 21
139.543
 31
0.0
  0
LINE
  8
0
 62
     5
 10
4.51859
 20
139.543
 30
0.0
 11
4.83969
 21
139.066
 31
0.0
  0
LINE
  8
0
 62
     5
 10
4.83969
 20
139.066
 30
0.0
 11
4.95819
 21
138.482
 31
0.0
  0
LINE
  8
0
 62
     5
 10
4.95819
 20
74.1345
 30
0.0
 11
4.83969
 21
73.5513
 31
0.0
  0
LINE
  8
0
 62
     5
 10
4.83969
 20
73.5513
 30
0.0
 11
4.51859
 21
73.0747
 31
0.0
  0
LINE
  8
0
 62
     5
 10
4.51859
 20
73.0747
 30
0.0
 11
4.04177
 21
72.7534
 31
0.0
  0
LINE
  8
0
 62
     5
 10
4.04177
 20
72.7534
 30
0.0
 11
3.45888
 21
72.6352
 31
0.0
  0
LINE
  8
0
 62
     5
 10
3.45888
 20
72.6352
 30
0.0
 11
2.87459
 21
72.7534
 31
0.0
  0
LINE
  8
0
 62
     5
 10
2.87459
 20
72.7534
 30
0.0
 11
2.39779
 21
73.0747
 31
0.0
  0
LINE
  8
0
 62
     5
 10
2.39779
 20
73.0747
 30
0.0
 11
2.07532
 21
73.5513
 31
0.0
  0
LINE
  8
0
 62
     5
 10
2.07532
 20
73.5513
 30
0.0
 11
1.95819
 21
74.1345
 31
0.0
  0
LINE
  8
0
 62
     5
 10
1.95819
 20
74.1345
 30
0.0
 11
2.07532
 21
74.7187
 31
0.0
  0
LINE
  8
0
 62
     5
 10
2.07532
 20
74.7187
 30
0.0
 11
2.39779
 21
75.1953
 31
0.0
  0
LINE
  8
0
 62
     5
 10
2.39779
 20
75.1953
 30
0.0
 11
2.87459
 21
75.5177
 31
0.0
  0
LINE
  8
0
 62
     5
 10
2.87459
 20
75.5177
 30
0.0
 11
3.45888
 21
75.6348
 31
0.0
  0
LINE
  8
0
 62
     5
 10
3.45888
 20
75.6348
 30
0.0
 11
4.04177
 21
75.5177
 31
0.0
  0
LINE
  8
0
 62
     5
 10
4.04177
 20
75.5177
 30
0.0
 11
4.51859
 21
75.1953
 31
0.0
  0
LINE
  8
0
 62
     5
 10
4.51859
 20
75.1953
 30
0.0
 11
4.83969
 21
74.7187
 31
0.0
  0
LINE
  8
0
 62
     5
 10
4.83969
 20
74.7187
 30
0.0
 11
4.95819
 21
74.1345
 31
0.0
  0
LINE
  8
0
 62
     5
 10
4.95819
 20
23.6775
 30
0.0
 11
4.83969
 21
23.0945
 31
0.0
  0
LINE
  8
0
 62
     5
 10
4.83969
 20
23.0945
 30
0.0
 11
4.51859
 21
22.6177
 31
0.0
  0
LINE
  8
0
 62
     5
 10
4.51859
 20
22.6177
 30
0.0
 11
4.04177
 21
22.2953
 31
0.0
  0
LINE
  8
0
 62
     5
 10
4.04177
 20
22.2953
 30
0.0
 11
3.45888
 21
22.1768
 31
0.0
  0
LINE
  8
0
 62
     5
 10
3.45888
 20
22.1768
 30
0.0
 11
2.87459
 21
22.2953
 31
0.0
  0
LINE
  8
0
 62
     5
 10
2.87459
 20
22.2953
 30
0.0
 11
2.39779
 21
22.6177
 31
0.0
  0
LINE
  8
0
 62
     5
 10
2.39779
 20
22.6177
 30
0.0
 11
2.07532
 21
23.0945
 31
0.0
  0
LINE
  8
0
 62
     5
 10
2.07532
 20
23.0945
 30
0.0
 11
1.95819
 21
23.6775
 31
0.0
  0
LINE
  8
0
 62
     5
 10
1.95819
 20
23.6775
 30
0.0
 11
2.07532
 21
24.2617
 31
0.0
  0
LINE
  8
0
 62
     5
 10
2.07532
 20
24.2617
 30
0.0
 11
2.39779
 21
24.7385
 31
0.0
  0
LINE
  8
0
 62
     5
 10
2.39779
 20
24.7385
 30
0.0
 11
2.87459
 21
25.0596
 31
0.0
  0
LINE
  8
0
 62
     5
 10
2.87459
 20
25.0596
 30
0.0
 11
3.45888
 21
25.1768
 31
0.0
  0
LINE
  8
0
 62
     5
 10
3.45888
 20
25.1768
 30
0.0
 11
4.04177
 21
25.0596
 31
0.0
  0
LINE
  8
0
 62
     5
 10
4.04177
 20
25.0596
 30
0.0
 11
4.51859
 21
24.7385
 31
0.0
  0
LINE
  8
0
 62
     5
 10
4.51859
 20
24.7385
 30
0.0
 11
4.83969
 21
24.2617
 31
0.0
  0
LINE
  8
0
 62
     5
 10
4.83969
 20
24.2617
 30
0.0
 11
4.95819
 21
23.6775
 31
0.0
  0
LINE
  8
0
 62
     5
 10
27.5401
 20
159.841
 30
0.0
 11
27.4216
 21
159.258
 31
0.0
  0
LINE
  8
0
 62
     5
 10
27.4216
 20
159.258
 30
0.0
 11
27.1005
 21
158.782
 31
0.0
  0
LINE
  8
0
 62
     5
 10
27.1005
 20
158.782
 30
0.0
 11
26.6237
 21
158.459
 31
0.0
  0
LINE
  8
0
 62
     5
 10
26.6237
 20
158.459
 30
0.0
 11
26.0408
 21
158.341
 31
0.0
  0
LINE
  8
0
 62
     5
 10
26.0408
 20
158.341
 30
0.0
 11
25.4551
 21
158.459
 31
0.0
  0
LINE
  8
0
 62
     5
 10
25.4551
 20
158.459
 30
0.0
 11
24.9783
 21
158.782
 31
0.0
  0
LINE
  8
0
 62
     5
 10
24.9783
 20
158.782
 30
0.0
 11
24.6572
 21
159.258
 31
0.0
  0
LINE
  8
0
 62
     5
 10
24.6572
 20
159.258
 30
0.0
 11
24.5401
 21
159.841
 31
0.0
  0
LINE
  8
0
 62
     5
 10
24.5401
 20
159.841
 30
0.0
 11
24.6572
 21
160.426
 31
0.0
  0
LINE
  8
0
 62
     5
 10
24.6572
 20
160.426
 30
0.0
 11
24.9783
 21
160.903
 31
0.0
  0
LINE
  8
0
 62
     5
 10
24.9783
 20
160.903
 30
0.0
 11
25.4551
 21
161.224
 31
0.0
  0
LINE
  8
0
 62
     5
 10
25.4551
 20
161.224
 30
0.0
 11
26.0408
 21
161.341
 31
0.0
  0
LINE
  8
0
 62
     5
 10
26.0408
 20
161.341
 30
0.0
 11
26.6237
 21
161.224
 31
0.0
  0
LINE
  8
0
 62
     5
 10
26.6237
 20
161.224
 30
0.0
 11
27.1005
 21
160.903
 31
0.0
  0
LINE
  8
0
 62
     5
 10
27.1005
 20
160.903
 30
0.0
 11
27.4216
 21
160.426
 31
0.0
  0
LINE
  8
0
 62
     5
 10
27.4216
 20
160.426
 30
0.0
 11
27.5401
 21
159.841
 31
0.0
  0
LINE
  8
0
 62
     5
 10
213.47
 20
159.841
 30
0.0
 11
213.352
 21
159.258
 31
0.0
  0
LINE
  8
0
 62
     5
 10
213.352
 20
159.258
 30
0.0
 11
213.031
 21
158.782
 31
0.0
  0
LINE
  8
0
 62
     5
 10
213.031
 20
158.782
 30
0.0
 11
212.554
 21
158.459
 31
0.0
  0
LINE
  8
0
 62
     5
 10
212.554
 20
158.459
 30
0.0
 11
211.97
 21
158.341
 31
0.0
  0
LINE
  8
0
 62
     5
 10
211.97
 20
158.341
 30
0.0
 11
211.386
 21
158.459
 31
0.0
  0
LINE
  8
0
 62
     5
 10
211.386
 20
158.459
 30
0.0
 11
210.909
 21
158.782
 31
0.0
  0
LINE
  8
0
 62
     5
 10
210.909
 20
158.782
 30
0.0
 11
210.588
 21
159.258
 31
0.0
  0
LINE
  8
0
 62
     5
 10
210.588
 20
159.258
 30
0.0
 11
210.47
 21
159.841
 31
0.0
  0
LINE
  8
0
 62
     5
 10
210.47
 20
159.841
 30
0.0
 11
210.588
 21
160.426
 31
0.0
  0
LINE
  8
0
 62
     5
 10
210.588
 20
160.426
 30
0.0
 11
210.909
 21
160.903
 31
0.0
  0
LINE
  8
0
 62
     5
 10
210.909
 20
160.903
 30
0.0
 11
211.386
 21
161.224
 31
0.0
  0
LINE
  8
0
 62
     5
 10
211.386
 20
161.224
 30
0.0
 11
211.97
 21
161.341
 31
0.0
  0
LINE
  8
0
 62
     5
 10
211.97
 20
161.341
 30
0.0
 11
212.554
 21
161.224
 31
0.0
  0
LINE
  8
0
 62
     5
 10
212.554
 20
161.224
 30
0.0
 11
213.031
 21
160.903
 31
0.0
  0
LINE
  8
0
 62
     5
 10
213.031
 20
160.903
 30
0.0
 11
213.352
 21
160.426
 31
0.0
  0
LINE
  8
0
 62
     5
 10
213.352
 20
160.426
 30
0.0
 11
213.47
 21
159.841
 31
0.0
  0
LINE
  8
0
 62
     5
 10
120.566
 20
3.60497
 30
0.0
 11
120.448
 21
3.02204
 31
0.0
  0
LINE
  8
0
 62
     5
 10
120.448
 20
3.02204
 30
0.0
 11
120.126
 21
2.54524
 31
0.0
  0
LINE
  8
0
 62
     5
 10
120.126
 20
2.54524
 30
0.0
 11
119.65
 21
2.22415
 31
0.0
  0
LINE
  8
0
 62
     5
 10
119.65
 20
2.22415
 30
0.0
 11
119.065
 21
2.10564
 31
0.0
  0
LINE
  8
0
 62
     5
 10
119.065
 20
2.10564
 30
0.0
 11
118.481
 21
2.22415
 31
0.0
  0
LINE
  8
0
 62
     5
 10
118.481
 20
2.22415
 30
0.0
 11
118.004
 21
2.54524
 31
0.0
  0
LINE
  8
0
 62
     5
 10
118.004
 20
2.54524
 30
0.0
 11
117.683
 21
3.02204
 31
0.0
  0
LINE
  8
0
 62
     5
 10
117.683
 20
3.02204
 30
0.0
 11
117.566
 21
3.60497
 31
0.0
  0
LINE
  8
0
 62
     5
 10
117.566
 20
3.60497
 30
0.0
 11
117.683
 21
4.18924
 31
0.0
  0
LINE
  8
0
 62
     5
 10
117.683
 20
4.18924
 30
0.0
 11
118.004
 21
4.66605
 31
0.0
  0
LINE
  8
0
 62
     5
 10
118.004
 20
4.66605
 30
0.0
 11
118.481
 21
4.98849
 31
0.0
  0
LINE
  8
0
 62
     5
 10
118.481
 20
4.98849
 30
0.0
 11
119.065
 21
5.10565
 31
0.0
  0
LINE
  8
0
 62
     5
 10
119.065
 20
5.10565
 30
0.0
 11
119.65
 21
4.98849
 31
0.0
  0
LINE
  8
0
 62
     5
 10
119.65
 20
4.98849
 30
0.0
 11
120.126
 21
4.66605
 31
0.0
  0
LINE
  8
0
 62
     5
 10
120.126
 20
4.66605
 30
0.0
 11
120.448
 21
4.18924
 31
0.0
  0
LINE
  8
0
 62
     5
 10
120.448
 20
4.18924
 30
0.0
 11
120.566
 21
3.60497
 31
0.0
  0
LINE
  8
0
 62
     5
 10
27.5401
 20
3.60497
 30
0.0
 11
27.4216
 21
3.02204
 31
0.0
  0
LINE
  8
0
 62
     5
 10
27.4216
 20
3.02204
 30
0.0
 11
27.1005
 21
2.54524
 31
0.0
  0
LINE
  8
0
 62
     5
 10
27.1005
 20
2.54524
 30
0.0
 11
26.6237
 21
2.22415
 31
0.0
  0
LINE
  8
0
 62
     5
 10
26.6237
 20
2.22415
 30
0.0
 11
26.0408
 21
2.10564
 31
0.0
  0
LINE
  8
0
 62
     5
 10
26.0408
 20
2.10564
 30
0.0
 11
25.4551
 21
2.22415
 31
0.0
  0
LINE
  8
0
 62
     5
 10
25.4551
 20
2.22415
 30
0.0
 11
24.9783
 21
2.54524
 31
0.0
  0
LINE
  8
0
 62
     5
 10
24.9783
 20
2.54524
 30
0.0
 11
24.6572
 21
3.02204
 31
0.0
  0
LINE
  8
0
 62
     5
 10
24.6572
 20
3.02204
 30
0.0
 11
24.5401
 21
3.60497
 31
0.0
  0
LINE
  8
0
 62
     5
 10
24.5401
 20
3.60497
 30
0.0
 11
24.6572
 21
4.18924
 31
0.0
  0
LINE
  8
0
 62
     5
 10
24.6572
 20
4.18924
 30
0.0
 11
24.9783
 21
4.66605
 31
0.0
  0
LINE
  8
0
 62
     5
 10
24.9783
 20
4.66605
 30
0.0
 11
25.4551
 21
4.98849
 31
0.0
  0
LINE
  8
0
 62
     5
 10
25.4551
 20
4.98849
 30
0.0
 11
26.0408
 21
5.10565
 31
0.0
  0
LINE
  8
0
 62
     5
 10
26.0408
 20
5.10565
 30
0.0
 11
26.6237
 21
4.98849
 31
0.0
  0
LINE
  8
0
 62
     5
 10
26.6237
 20
4.98849
 30
0.0
 11
27.1005
 21
4.66605
 31
0.0
  0
LINE
  8
0
 62
     5
 10
27.1005
 20
4.66605
 30
0.0
 11
27.4216
 21
4.18924
 31
0.0
  0
LINE
  8
0
 62
     5
 10
27.4216
 20
4.18924
 30
0.0
 11
27.5401
 21
3.60497
 31
0.0
  0
LINE
  8
0
 62
     5
 10
213.47
 20
3.60497
 30
0.0
 11
213.352
 21
3.02204
 31
0.0
  0
LINE
  8
0
 62
     5
 10
213.352
 20
3.02204
 30
0.0
 11
213.031
 21
2.54524
 31
0.0
  0
LINE
  8
0
 62
     5
 10
213.031
 20
2.54524
 30
0.0
 11
212.554
 21
2.22415
 31
0.0
  0
LINE
  8
0
 62
     5
 10
212.554
 20
2.22415
 30
0.0
 11
211.97
 21
2.10564
 31
0.0
  0
LINE
  8
0
 62
     5
 10
211.97
 20
2.10564
 30
0.0
 11
211.386
 21
2.22415
 31
0.0
  0
LINE
  8
0
 62
     5
 10
211.386
 20
2.22415
 30
0.0
 11
210.909
 21
2.54524
 31
0.0
  0
LINE
  8
0
 62
     5
 10
210.909
 20
2.54524
 30
0.0
 11
210.588
 21
3.02204
 31
0.0
  0
LINE
  8
0
 62
     5
 10
210.588
 20
3.02204
 30
0.0
 11
210.47
 21
3.60497
 31
0.0
  0
LINE
  8
0
 62
     5
 10
210.47
 20
3.60497
 30
0.0
 11
210.588
 21
4.18924
 31
0.0
  0
LINE
  8
0
 62
     5
 10
210.588
 20
4.18924
 30
0.0
 11
210.909
 21
4.66605
 31
0.0
  0
LINE
  8
0
 62
     5
 10
210.909
 20
4.66605
 30
0.0
 11
211.386
 21
4.98849
 31
0.0
  0
LINE
  8
0
 62
     5
 10
211.386
 20
4.98849
 30
0.0
 11
211.97
 21
5.10565
 31
0.0
  0
LINE
  8
0
 62
     5
 10
211.97
 20
5.10565
 30
0.0
 11
212.554
 21
4.98849
 31
0.0
  0
LINE
  8
0
 62
     5
 10
212.554
 20
4.98849
 30
0.0
 11
213.031
 21
4.66605
 31
0.0
  0
LINE
  8
0
 62
     5
 10
213.031
 20
4.66605
 30
0.0
 11
213.352
 21
4.18924
 31
0.0
  0
LINE
  8
0
 62
     5
 10
213.352
 20
4.18924
 30
0.0
 11
213.47
 21
3.60497
 31
0.0
  0
LINE
  8
0
 62
     5
 10
17.3481
 20
149.233
 30
0.0
 11
17.2296
 21
148.649
 31
0.0
  0
LINE
  8
0
 62
     5
 10
17.2296
 20
148.649
 30
0.0
 11
16.9085
 21
148.172
 31
0.0
  0
LINE
  8
0
 62
     5
 10
16.9085
 20
148.172
 30
0.0
 11
16.4317
 21
147.851
 31
0.0
  0
LINE
  8
0
 62
     5
 10
16.4317
 20
147.851
 30
0.0
 11
15.8474
 21
147.733
 31
0.0
  0
LINE
  8
0
 62
     5
 10
15.8474
 20
147.733
 30
0.0
 11
15.2631
 21
147.851
 31
0.0
  0
LINE
  8
0
 62
     5
 10
15.2631
 20
147.851
 30
0.0
 11
14.7864
 21
148.172
 31
0.0
  0
LINE
  8
0
 62
     5
 10
14.7864
 20
148.172
 30
0.0
 11
14.4653
 21
148.649
 31
0.0
  0
LINE
  8
0
 62
     5
 10
14.4653
 20
148.649
 30
0.0
 11
14.3481
 21
149.233
 31
0.0
  0
LINE
  8
0
 62
     5
 10
14.3481
 20
149.233
 30
0.0
 11
14.4653
 21
149.818
 31
0.0
  0
LINE
  8
0
 62
     5
 10
14.4653
 20
149.818
 30
0.0
 11
14.7864
 21
150.294
 31
0.0
  0
LINE
  8
0
 62
     5
 10
14.7864
 20
150.294
 30
0.0
 11
15.2631
 21
150.615
 31
0.0
  0
LINE
  8
0
 62
     5
 10
15.2631
 20
150.615
 30
0.0
 11
15.8474
 21
150.732
 31
0.0
  0
LINE
  8
0
 62
     5
 10
15.8474
 20
150.732
 30
0.0
 11
16.4317
 21
150.615
 31
0.0
  0
LINE
  8
0
 62
     5
 10
16.4317
 20
150.615
 30
0.0
 11
16.9085
 21
150.294
 31
0.0
  0
LINE
  8
0
 62
     5
 10
16.9085
 20
150.294
 30
0.0
 11
17.2296
 21
149.818
 31
0.0
  0
LINE
  8
0
 62
     5
 10
17.2296
 20
149.818
 30
0.0
 11
17.3481
 21
149.233
 31
0.0
  0
LINE
  8
0
 62
     5
 10
225.856
 20
149.206
 30
0.0
 11
225.738
 21
148.623
 31
0.0
  0
LINE
  8
0
 62
     5
 10
225.738
 20
148.623
 30
0.0
 11
225.417
 21
148.146
 31
0.0
  0
LINE
  8
0
 62
     5
 10
225.417
 20
148.146
 30
0.0
 11
224.94
 21
147.825
 31
0.0
  0
LINE
  8
0
 62
     5
 10
224.94
 20
147.825
 30
0.0
 11
224.356
 21
147.706
 31
0.0
  0
LINE
  8
0
 62
     5
 10
224.356
 20
147.706
 30
0.0
 11
223.772
 21
147.825
 31
0.0
  0
LINE
  8
0
 62
     5
 10
223.772
 20
147.825
 30
0.0
 11
223.295
 21
148.146
 31
0.0
  0
LINE
  8
0
 62
     5
 10
223.295
 20
148.146
 30
0.0
 11
222.974
 21
148.623
 31
0.0
  0
LINE
  8
0
 62
     5
 10
222.974
 20
148.623
 30
0.0
 11
222.856
 21
149.206
 31
0.0
  0
LINE
  8
0
 62
     5
 10
222.856
 20
149.206
 30
0.0
 11
222.974
 21
149.79
 31
0.0
  0
LINE
  8
0
 62
     5
 10
222.974
 20
149.79
 30
0.0
 11
223.295
 21
150.267
 31
0.0
  0
LINE
  8
0
 62
     5
 10
223.295
 20
150.267
 30
0.0
 11
223.772
 21
150.589
 31
0.0
  0
LINE
  8
0
 62
     5
 10
223.772
 20
150.589
 30
0.0
 11
224.356
 21
150.706
 31
0.0
  0
LINE
  8
0
 62
     5
 10
224.356
 20
150.706
 30
0.0
 11
224.94
 21
150.589
 31
0.0
  0
LINE
  8
0
 62
     5
 10
224.94
 20
150.589
 30
0.0
 11
225.417
 21
150.267
 31
0.0
  0
LINE
  8
0
 62
     5
 10
225.417
 20
150.267
 30
0.0
 11
225.738
 21
149.79
 31
0.0
  0
LINE
  8
0
 62
     5
 10
225.738
 20
149.79
 30
0.0
 11
225.856
 21
149.206
 31
0.0
  0
LINE
  8
0
 62
     5
 10
227.55
 20
54.2258
 30
0.0
 11
227.432
 21
53.643
 31
0.0
  0
LINE
  8
0
 62
     5
 10
227.432
 20
53.643
 30
0.0
 11
227.11
 21
53.1661
 31
0.0
  0
LINE
  8
0
 62
     5
 10
227.11
 20
53.1661
 30
0.0
 11
226.634
 21
52.8451
 31
0.0
  0
LINE
  8
0
 62
     5
 10
226.634
 20
52.8451
 30
0.0
 11
226.049
 21
52.7265
 31
0.0
  0
LINE
  8
0
 62
     5
 10
226.049
 20
52.7265
 30
0.0
 11
225.465
 21
52.8451
 31
0.0
  0
LINE
  8
0
 62
     5
 10
225.465
 20
52.8451
 30
0.0
 11
224.988
 21
53.1661
 31
0.0
  0
LINE
  8
0
 62
     5
 10
224.988
 20
53.1661
 30
0.0
 11
224.667
 21
53.643
 31
0.0
  0
LINE
  8
0
 62
     5
 10
224.667
 20
53.643
 30
0.0
 11
224.55
 21
54.2258
 31
0.0
  0
LINE
  8
0
 62
     5
 10
224.55
 20
54.2258
 30
0.0
 11
224.667
 21
54.81
 31
0.0
  0
LINE
  8
0
 62
     5
 10
224.667
 20
54.81
 30
0.0
 11
224.988
 21
55.287
 31
0.0
  0
LINE
  8
0
 62
     5
 10
224.988
 20
55.287
 30
0.0
 11
225.465
 21
55.6094
 31
0.0
  0
LINE
  8
0
 62
     5
 10
225.465
 20
55.6094
 30
0.0
 11
226.049
 21
55.7265
 31
0.0
  0
LINE
  8
0
 62
     5
 10
226.049
 20
55.7265
 30
0.0
 11
226.634
 21
55.6094
 31
0.0
  0
LINE
  8
0
 62
     5
 10
226.634
 20
55.6094
 30
0.0
 11
227.11
 21
55.287
 31
0.0
  0
LINE
  8
0
 62
     5
 10
227.11
 20
55.287
 30
0.0
 11
227.432
 21
54.81
 31
0.0
  0
LINE
  8
0
 62
     5
 10
227.432
 20
54.81
 30
0.0
 11
227.55
 21
54.2258
 31
0.0
  0
LINE
  8
0
 62
     5
 10
179.572
 20
53.9778
 30
0.0
 11
179.454
 21
53.3947
 31
0.0
  0
LINE
  8
0
 62
     5
 10
179.454
 20
53.3947
 30
0.0
 11
179.132
 21
52.9181
 31
0.0
  0
LINE
  8
0
 62
     5
 10
179.132
 20
52.9181
 30
0.0
 11
178.656
 21
52.597
 31
0.0
  0
LINE
  8
0
 62
     5
 10
178.656
 20
52.597
 30
0.0
 11
178.073
 21
52.4785
 31
0.0
  0
LINE
  8
0
 62
     5
 10
178.073
 20
52.4785
 30
0.0
 11
177.487
 21
52.597
 31
0.0
  0
LINE
  8
0
 62
     5
 10
177.487
 20
52.597
 30
0.0
 11
177.01
 21
52.9181
 31
0.0
  0
LINE
  8
0
 62
     5
 10
177.01
 20
52.9181
 30
0.0
 11
176.689
 21
53.3947
 31
0.0
  0
LINE
  8
0
 62
     5
 10
176.689
 20
53.3947
 30
0.0
 11
176.572
 21
53.9778
 31
0.0
  0
LINE
  8
0
 62
     5
 10
176.572
 20
53.9778
 30
0.0
 11
176.689
 21
54.562
 31
0.0
  0
LINE
  8
0
 62
     5
 10
176.689
 20
54.562
 30
0.0
 11
177.01
 21
55.039
 31
0.0
  0
LINE
  8
0
 62
     5
 10
177.01
 20
55.039
 30
0.0
 11
177.487
 21
55.3614
 31
0.0
  0
LINE
  8
0
 62
     5
 10
177.487
 20
55.3614
 30
0.0
 11
178.073
 21
55.4785
 31
0.0
  0
LINE
  8
0
 62
     5
 10
178.073
 20
55.4785
 30
0.0
 11
178.656
 21
55.3614
 31
0.0
  0
LINE
  8
0
 62
     5
 10
178.656
 20
55.3614
 30
0.0
 11
179.132
 21
55.039
 31
0.0
  0
LINE
  8
0
 62
     5
 10
179.132
 20
55.039
 30
0.0
 11
179.454
 21
54.562
 31
0.0
  0
LINE
  8
0
 62
     5
 10
179.454
 20
54.562
 30
0.0
 11
179.572
 21
53.9778
 31
0.0
  0
LINE
  8
0
 62
     5
 10
16.7776
 20
35.9311
 30
0.0
 11
16.6591
 21
35.348
 31
0.0
  0
LINE
  8
0
 62
     5
 10
16.6591
 20
35.348
 30
0.0
 11
16.3366
 21
34.8713
 31
0.0
  0
LINE
  8
0
 62
     5
 10
16.3366
 20
34.8713
 30
0.0
 11
15.8598
 21
34.5502
 31
0.0
  0
LINE
  8
0
 62
     5
 10
15.8598
 20
34.5502
 30
0.0
 11
15.2769
 21
34.4317
 31
0.0
  0
LINE
  8
0
 62
     5
 10
15.2769
 20
34.4317
 30
0.0
 11
14.6926
 21
34.5502
 31
0.0
  0
LINE
  8
0
 62
     5
 10
14.6926
 20
34.5502
 30
0.0
 11
14.2159
 21
34.8713
 31
0.0
  0
LINE
  8
0
 62
     5
 10
14.2159
 20
34.8713
 30
0.0
 11
13.8948
 21
35.348
 31
0.0
  0
LINE
  8
0
 62
     5
 10
13.8948
 20
35.348
 30
0.0
 11
13.7776
 21
35.9311
 31
0.0
  0
LINE
  8
0
 62
     5
 10
13.7776
 20
35.9311
 30
0.0
 11
13.8948
 21
36.5167
 31
0.0
  0
LINE
  8
0
 62
     5
 10
13.8948
 20
36.5167
 30
0.0
 11
14.2159
 21
36.9933
 31
0.0
  0
LINE
  8
0
 62
     5
 10
14.2159
 20
36.9933
 30
0.0
 11
14.6926
 21
37.3144
 31
0.0
  0
LINE
  8
0
 62
     5
 10
14.6926
 20
37.3144
 30
0.0
 11
15.2769
 21
37.4315
 31
0.0
  0
LINE
  8
0
 62
     5
 10
15.2769
 20
37.4315
 30
0.0
 11
15.8598
 21
37.3144
 31
0.0
  0
LINE
  8
0
 62
     5
 10
15.8598
 20
37.3144
 30
0.0
 11
16.3366
 21
36.9933
 31
0.0
  0
LINE
  8
0
 62
     5
 10
16.3366
 20
36.9933
 30
0.0
 11
16.6591
 21
36.5167
 31
0.0
  0
LINE
  8
0
 62
     5
 10
16.6591
 20
36.5167
 30
0.0
 11
16.7776
 21
35.9311
 31
0.0
  0
LINE
  8
0
 62
     5
 10
51.7839
 20
16.666
 30
0.0
 11
51.6654
 21
16.0831
 31
0.0
  0
LINE
  8
0
 62
     5
 10
51.6654
 20
16.0831
 30
0.0
 11
51.3443
 21
15.6063
 31
0.0
  0
LINE
  8
0
 62
     5
 10
51.3443
 20
15.6063
 30
0.0
 11
50.8674
 21
15.2838
 31
0.0
  0
LINE
  8
0
 62
     5
 10
50.8674
 20
15.2838
 30
0.0
 11
50.2832
 21
15.1653
 31
0.0
  0
LINE
  8
0
 62
     5
 10
50.2832
 20
15.1653
 30
0.0
 11
49.699
 21
15.2838
 31
0.0
  0
LINE
  8
0
 62
     5
 10
49.699
 20
15.2838
 30
0.0
 11
49.222
 21
15.6063
 31
0.0
  0
LINE
  8
0
 62
     5
 10
49.222
 20
15.6063
 30
0.0
 11
48.901
 21
16.0831
 31
0.0
  0
LINE
  8
0
 62
     5
 10
48.901
 20
16.0831
 30
0.0
 11
48.7839
 21
16.666
 31
0.0
  0
LINE
  8
0
 62
     5
 10
48.7839
 20
16.666
 30
0.0
 11
48.901
 21
17.2503
 31
0.0
  0
LINE
  8
0
 62
     5
 10
48.901
 20
17.2503
 30
0.0
 11
49.222
 21
17.7271
 31
0.0
  0
LINE
  8
0
 62
     5
 10
49.222
 20
17.7271
 30
0.0
 11
49.699
 21
18.0482
 31
0.0
  0
LINE
  8
0
 62
     5
 10
49.699
 20
18.0482
 30
0.0
 11
50.2832
 21
18.1653
 31
0.0
  0
LINE
  8
0
 62
     5
 10
50.2832
 20
18.1653
 30
0.0
 11
50.8674
 21
18.0482
 31
0.0
  0
LINE
  8
0
 62
     5
 10
50.8674
 20
18.0482
 30
0.0
 11
51.3443
 21
17.7271
 31
0.0
  0
LINE
  8
0
 62
     5
 10
51.3443
 20
17.7271
 30
0.0
 11
51.6654
 21
17.2503
 31
0.0
  0
LINE
  8
0
 62
     5
 10
51.6654
 20
17.2503
 30
0.0
 11
51.7839
 21
16.666
 31
0.0
  0
LINE
  8
0
 62
     5
 10
228.679
 20
104.708
 30
0.0
 11
228.56
 21
104.124
 31
0.0
  0
LINE
  8
0
 62
     5
 10
228.56
 20
104.124
 30
0.0
 11
228.239
 21
103.648
 31
0.0
  0
LINE
  8
0
 62
     5
 10
228.239
 20
103.648
 30
0.0
 11
227.762
 21
103.325
 31
0.0
  0
LINE
  8
0
 62
     5
 10
227.762
 20
103.325
 30
0.0
 11
227.178
 21
103.207
 31
0.0
  0
LINE
  8
0
 62
     5
 10
227.178
 20
103.207
 30
0.0
 11
226.594
 21
103.325
 31
0.0
  0
LINE
  8
0
 62
     5
 10
226.594
 20
103.325
 30
0.0
 11
226.117
 21
103.648
 31
0.0
  0
LINE
  8
0
 62
     5
 10
226.117
 20
103.648
 30
0.0
 11
225.796
 21
104.124
 31
0.0
  0
LINE
  8
0
 62
     5
 10
225.796
 20
104.124
 30
0.0
 11
225.679
 21
104.708
 31
0.0
  0
LINE
  8
0
 62
     5
 10
225.679
 20
104.708
 30
0.0
 11
225.796
 21
105.292
 31
0.0
  0
LINE
  8
0
 62
     5
 10
225.796
 20
105.292
 30
0.0
 11
226.117
 21
105.768
 31
0.0
  0
LINE
  8
0
 62
     5
 10
226.117
 20
105.768
 30
0.0
 11
226.594
 21
106.09
 31
0.0
  0
LINE
  8
0
 62
     5
 10
226.594
 20
106.09
 30
0.0
 11
227.178
 21
106.207
 31
0.0
  0
LINE
  8
0
 62
     5
 10
227.178
 20
106.207
 30
0.0
 11
227.762
 21
106.09
 31
0.0
  0
LINE
  8
0
 62
     5
 10
227.762
 20
106.09
 30
0.0
 11
228.239
 21
105.768
 31
0.0
  0
LINE
  8
0
 62
     5
 10
228.239
 20
105.768
 30
0.0
 11
228.56
 21
105.292
 31
0.0
  0
LINE
  8
0
 62
     5
 10
228.56
 20
105.292
 30
0.0
 11
228.679
 21
104.708
 31
0.0
  0
LINE
  8
0
 62
     5
 10
11.6968
 20
104.723
 30
0.0
 11
11.5783
 21
104.14
 31
0.0
  0
LINE
  8
0
 62
     5
 10
11.5783
 20
104.14
 30
0.0
 11
11.2572
 21
103.663
 31
0.0
  0
LINE
  8
0
 62
     5
 10
11.2572
 20
103.663
 30
0.0
 11
10.7804
 21
103.342
 31
0.0
  0
LINE
  8
0
 62
     5
 10
10.7804
 20
103.342
 30
0.0
 11
10.1975
 21
103.223
 31
0.0
  0
LINE
  8
0
 62
     5
 10
10.1975
 20
103.223
 30
0.0
 11
9.61319
 21
103.342
 31
0.0
  0
LINE
  8
0
 62
     5
 10
9.61319
 20
103.342
 30
0.0
 11
9.13638
 21
103.663
 31
0.0
  0
LINE
  8
0
 62
     5
 10
9.13638
 20
103.663
 30
0.0
 11
8.81394
 21
104.14
 31
0.0
  0
LINE
  8
0
 62
     5
 10
8.81394
 20
104.14
 30
0.0
 11
8.69678
 21
104.723
 31
0.0
  0
LINE
  8
0
 62
     5
 10
8.69678
 20
104.723
 30
0.0
 11
8.81394
 21
105.307
 31
0.0
  0
LINE
  8
0
 62
     5
 10
8.81394
 20
105.307
 30
0.0
 11
9.13638
 21
105.784
 31
0.0
  0
LINE
  8
0
 62
     5
 10
9.13638
 20
105.784
 30
0.0
 11
9.61319
 21
106.106
 31
0.0
  0
LINE
  8
0
 62
     5
 10
9.61319
 20
106.106
 30
0.0
 11
10.1975
 21
106.223
 31
0.0
  0
LINE
  8
0
 62
     5
 10
10.1975
 20
106.223
 30
0.0
 11
10.7804
 21
106.106
 31
0.0
  0
LINE
  8
0
 62
     5
 10
10.7804
 20
106.106
 30
0.0
 11
11.2572
 21
105.784
 31
0.0
  0
LINE
  8
0
 62
     5
 10
11.2572
 20
105.784
 30
0.0
 11
11.5783
 21
105.307
 31
0.0
  0
LINE
  8
0
 62
     5
 10
11.5783
 20
105.307
 30
0.0
 11
11.6968
 21
104.723
 31
0.0
  0
LINE
  8
0
 62
     5
 10
120.001
 20
104.708
 30
0.0
 11
119.882
 21
104.124
 31
0.0
  0
LINE
  8
0
 62
     5
 10
119.882
 20
104.124
 30
0.0
 11
119.561
 21
103.648
 31
0.0
  0
LINE
  8
0
 62
     5
 10
119.561
 20
103.648
 30
0.0
 11
119.085
 21
103.325
 31
0.0
  0
LINE
  8
0
 62
     5
 10
119.085
 20
103.325
 30
0.0
 11
118.502
 21
103.207
 31
0.0
  0
LINE
  8
0
 62
     5
 10
118.502
 20
103.207
 30
0.0
 11
117.917
 21
103.325
 31
0.0
  0
LINE
  8
0
 62
     5
 10
117.917
 20
103.325
 30
0.0
 11
117.44
 21
103.648
 31
0.0
  0
LINE
  8
0
 62
     5
 10
117.44
 20
103.648
 30
0.0
 11
117.118
 21
104.124
 31
0.0
  0
LINE
  8
0
 62
     5
 10
117.118
 20
104.124
 30
0.0
 11
117.001
 21
104.708
 31
0.0
  0
LINE
  8
0
 62
     5
 10
117.001
 20
104.708
 30
0.0
 11
117.118
 21
105.292
 31
0.0
  0
LINE
  8
0
 62
     5
 10
117.118
 20
105.292
 30
0.0
 11
117.44
 21
105.768
 31
0.0
  0
LINE
  8
0
 62
     5
 10
117.44
 20
105.768
 30
0.0
 11
117.917
 21
106.09
 31
0.0
  0
LINE
  8
0
 62
     5
 10
117.917
 20
106.09
 30
0.0
 11
118.502
 21
106.207
 31
0.0
  0
LINE
  8
0
 62
     5
 10
118.502
 20
106.207
 30
0.0
 11
119.085
 21
106.09
 31
0.0
  0
LINE
  8
0
 62
     5
 10
119.085
 20
106.09
 30
0.0
 11
119.561
 21
105.768
 31
0.0
  0
LINE
  8
0
 62
     5
 10
119.561
 20
105.768
 30
0.0
 11
119.882
 21
105.292
 31
0.0
  0
LINE
  8
0
 62
     5
 10
119.882
 20
105.292
 30
0.0
 11
120.001
 21
104.708
 31
0.0
  0
LINE
  8
0
 62
     5
 10
122.823
 20
29.3701
 30
0.0
 11
122.705
 21
28.7872
 31
0.0
  0
LINE
  8
0
 62
     5
 10
122.705
 20
28.7872
 30
0.0
 11
122.384
 21
28.3104
 31
0.0
  0
LINE
  8
0
 62
     5
 10
122.384
 20
28.3104
 30
0.0
 11
121.907
 21
27.9893
 31
0.0
  0
LINE
  8
0
 62
     5
 10
121.907
 20
27.9893
 30
0.0
 11
121.324
 21
27.8708
 31
0.0
  0
LINE
  8
0
 62
     5
 10
121.324
 20
27.8708
 30
0.0
 11
120.74
 21
27.9893
 31
0.0
  0
LINE
  8
0
 62
     5
 10
120.74
 20
27.9893
 30
0.0
 11
120.263
 21
28.3104
 31
0.0
  0
LINE
  8
0
 62
     5
 10
120.263
 20
28.3104
 30
0.0
 11
119.94
 21
28.7872
 31
0.0
  0
LINE
  8
0
 62
     5
 10
119.94
 20
28.7872
 30
0.0
 11
119.823
 21
29.3701
 31
0.0
  0
LINE
  8
0
 62
     5
 10
119.823
 20
29.3701
 30
0.0
 11
119.94
 21
29.9544
 31
0.0
  0
LINE
  8
0
 62
     5
 10
119.94
 20
29.9544
 30
0.0
 11
120.263
 21
30.4312
 31
0.0
  0
LINE
  8
0
 62
     5
 10
120.263
 20
30.4312
 30
0.0
 11
120.74
 21
30.7537
 31
0.0
  0
LINE
  8
0
 62
     5
 10
120.74
 20
30.7537
 30
0.0
 11
121.324
 21
30.8708
 31
0.0
  0
LINE
  8
0
 62
     5
 10
121.324
 20
30.8708
 30
0.0
 11
121.907
 21
30.7537
 31
0.0
  0
LINE
  8
0
 62
     5
 10
121.907
 20
30.7537
 30
0.0
 11
122.384
 21
30.4312
 31
0.0
  0
LINE
  8
0
 62
     5
 10
122.384
 20
30.4312
 30
0.0
 11
122.705
 21
29.9544
 31
0.0
  0
LINE
  8
0
 62
     5
 10
122.705
 20
29.9544
 30
0.0
 11
122.823
 21
29.3701
 31
0.0
  0
ENDSEC
  0
EOF
