<?xml version="1.0" encoding="UTF-8" standalone="no"?>
<!-- Generated by SVGo -->

<svg
   xmlns:dc="http://purl.org/dc/elements/1.1/"
   xmlns:cc="http://creativecommons.org/ns#"
   xmlns:rdf="http://www.w3.org/1999/02/22-rdf-syntax-ns#"
   xmlns:svg="http://www.w3.org/2000/svg"
   xmlns="http://www.w3.org/2000/svg"
   xmlns:xlink="http://www.w3.org/1999/xlink"
   xmlns:sodipodi="http://sodipodi.sourceforge.net/DTD/sodipodi-0.dtd"
   xmlns:inkscape="http://www.inkscape.org/namespaces/inkscape"
   width="248.039mm"
   height="174.96585mm"
   viewBox="0 0 248.039 174.96585"
   id="svg2"
   version="1.1"
   inkscape:version="0.91 r13725"
   sodipodi:docname="right__gk_face.svg">
  <metadata
     id="metadata86">
    <rdf:RDF>
      <cc:Work
         rdf:about="">
        <dc:format>image/svg+xml</dc:format>
        <dc:type
           rdf:resource="http://purl.org/dc/dcmitype/StillImage" />
        <dc:title />
      </cc:Work>
    </rdf:RDF>
  </metadata>
  <defs
     id="defs84">
    <linearGradient
       id="DCS">
      <stop
         id="stop4904"
         stop-opacity="0"
         stop-color="black"
         offset="0%" />
      <stop
         id="stop4906"
         stop-opacity="0.1"
         stop-color="black"
         offset="40%" />
      <stop
         id="stop4908"
         stop-opacity="0.1"
         stop-color="black"
         offset="60%" />
      <stop
         id="stop4910"
         stop-opacity="0"
         stop-color="black"
         offset="100%" />
    </linearGradient>
    <linearGradient
       y2="1"
       y1="0"
       x2="0"
       x1="0"
       id="SPACE">
      <stop
         id="stop4913"
         stop-opacity="0.1"
         stop-color="black"
         offset="0%" />
      <stop
         id="stop4915"
         stop-opacity="0.0"
         stop-color="black"
         offset="20%" />
      <stop
         id="stop4917"
         stop-opacity="0.0"
         stop-color="black"
         offset="40%" />
      <stop
         id="stop4919"
         stop-opacity="0.1"
         stop-color="black"
         offset="100%" />
    </linearGradient>
    <radialGradient
       id="DSA">
      <stop
         id="stop4922"
         stop-opacity="0.1"
         stop-color="black"
         offset="0%" />
      <stop
         id="stop4924"
         stop-opacity="0.1"
         stop-color="black"
         offset="10%" />
      <stop
         id="stop4926"
         stop-opacity="0"
         stop-color="black"
         offset="100%" />
    </radialGradient>
    <radialGradient
       xlink:href="#DSA"
       id="SA" />
    <radialGradient
       id="DSA-3">
      <stop
         id="stop7203"
         stop-opacity="0.1"
         stop-color="black"
         offset="0%" />
      <stop
         id="stop7205"
         stop-opacity="0.1"
         stop-color="black"
         offset="10%" />
      <stop
         id="stop7207"
         stop-opacity="0"
         stop-color="black"
         offset="100%" />
    </radialGradient>
    <radialGradient
       xlink:href="#DSA-3"
       id="SA-6" />
  </defs>
  <sodipodi:namedview
     pagecolor="#ffffff"
     bordercolor="#666666"
     borderopacity="1"
     objecttolerance="10"
     gridtolerance="10"
     guidetolerance="10"
     inkscape:pageopacity="0"
     inkscape:pageshadow="2"
     inkscape:window-width="1274"
     inkscape:window-height="1358"
     id="namedview82"
     showgrid="false"
     inkscape:zoom="0.77257563"
     inkscape:cx="439.43918"
     inkscape:cy="309.97887"
     inkscape:window-x="1274"
     inkscape:window-y="0"
     inkscape:window-maximized="0"
     inkscape:current-layer="layer2"
     inkscape:document-units="mm"
     showguides="false"
     inkscape:guide-bbox="true"
     inkscape:snap-bbox="true"
     inkscape:snap-bbox-midpoints="true"
     inkscape:snap-global="true"
     inkscape:snap-nodes="false"
     fit-margin-top="5"
     fit-margin-left="5"
     fit-margin-right="5"
     fit-margin-bottom="5">
    <sodipodi:guide
       position="67.748021,155.90647"
       orientation="0,1"
       id="guide4527" />
    <sodipodi:guide
       position="85.706513,159.40685"
       orientation="1,0"
       id="guide4531" />
    <sodipodi:guide
       position="121.34707,151.95423"
       orientation="1,0"
       id="guide4533" />
    <sodipodi:guide
       position="125.78618,151.90042"
       orientation="1,0"
       id="guide4535" />
    <sodipodi:guide
       position="161.37984,153.67607"
       orientation="1,0"
       id="guide4537" />
    <sodipodi:guide
       position="165.73824,153.83749"
       orientation="1,0"
       id="guide4539" />
    <sodipodi:guide
       position="74.824885,133.99102"
       orientation="0,1"
       id="guide4541" />
    <sodipodi:guide
       position="54.716701,26.030828"
       orientation="1,0"
       id="guide4543" />
    <sodipodi:guide
       position="58.616585,56.145541"
       orientation="0,1"
       id="guide4545" />
    <sodipodi:guide
       position="59.130229,80.800418"
       orientation="0,1"
       id="guide4547" />
    <sodipodi:guide
       position="60.233611,20.846835"
       orientation="0,1"
       id="guide4549" />
    <sodipodi:guide
       position="193.22916,37.730479"
       orientation="1,0"
       id="guide4551" />
    <sodipodi:guide
       position="198.90778,152.3395"
       orientation="1,0"
       id="guide4589" />
    <sodipodi:guide
       position="55.468142,30.377772"
       orientation="0,1"
       id="guide4651" />
    <sodipodi:guide
       position="71.682736,86.14766"
       orientation="1,0"
       id="guide4653" />
    <sodipodi:guide
       position="176.33601,122.57674"
       orientation="1,0"
       id="guide4655" />
    <sodipodi:guide
       position="123.5229,137.87907"
       orientation="1,0"
       id="guide10034" />
  </sodipodi:namedview>
  <g
     inkscape:groupmode="layer"
     id="layer2"
     inkscape:label="switches"
     style="display:inline"
     transform="translate(40.582,-2.3995023)">
    <g
       id="g5897"
       transform="translate(-40.481,2.5005023)"
       style="opacity:1;fill:none;stroke:#0000ff;stroke-opacity:1;stroke-width:0.2;stroke-miterlimit:4;stroke-dasharray:none">
      <polygon
         id="polygon5775"
         style="fill:none;stroke:#0000ff;stroke-width:0.2;stroke-opacity:1;stroke-miterlimit:4;stroke-dasharray:none"
         points="242.239,167.187 242.106,167.331 241.962,167.464 241.807,167.586 241.644,167.695 241.473,167.791 241.295,167.873 241.111,167.941 240.922,167.994 240.729,168.032 240.534,168.055 240.338,168.063 7.5,168.063 7.303,168.055 7.108,168.032 6.916,167.994 6.727,167.941 6.543,167.873 6.365,167.791 6.193,167.695 6.03,167.586 5.876,167.464 5.732,167.331 5.598,167.187 5.477,167.032 5.368,166.869 5.272,166.698 5.19,166.52 5.122,166.336 5.069,166.147 5.03,165.954 5.007,165.759 4.999,165.563 5,7.5 5.007,7.303 5.03,7.108 5.069,6.916 5.122,6.727 5.19,6.543 5.272,6.365 5.368,6.193 5.477,6.03 5.598,5.876 5.732,5.732 5.876,5.598 6.03,5.477 6.193,5.368 6.365,5.272 6.543,5.19 6.727,5.122 6.916,5.069 7.108,5.03 7.303,5.007 7.5,4.999 240.338,5 240.534,5.007 240.729,5.03 240.922,5.069 241.111,5.122 241.295,5.19 241.473,5.272 241.644,5.368 241.807,5.477 241.962,5.598 242.106,5.732 242.239,5.876 242.361,6.03 242.47,6.193 242.566,6.365 242.648,6.543 242.716,6.727 242.769,6.916 242.807,7.108 242.83,7.303 242.838,7.5 242.838,165.563 242.83,165.759 242.807,165.954 242.769,166.147 242.716,166.336 242.648,166.52 242.566,166.698 242.47,166.869 242.361,167.032 " />
      <polygon
         id="polygon5777"
         style="fill:none;stroke:#0000ff;stroke-width:0.2;stroke-opacity:1;stroke-miterlimit:4;stroke-dasharray:none"
         points="40.431,154.437 40.431,153.837 42.006,153.837 42.006,158.307 43.681,158.307 43.681,159.507 46.981,159.507 46.981,158.307 48.656,158.307 48.656,152.037 49.531,152.037 49.531,149.237 48.656,149.237 48.656,146.007 42.006,146.007 42.006,149.237 40.431,149.237 40.431,148.637 41.231,148.637 41.231,145.537 40.431,145.537 40.431,144.537 26.431,144.537 26.431,145.537 25.631,145.537 25.631,148.637 26.431,148.637 26.431,149.237 24.856,149.237 24.856,146.007 18.206,146.007 18.206,149.237 17.331,149.237 17.331,152.037 18.206,152.037 18.206,158.307 19.881,158.307 19.881,159.507 23.181,159.507 23.181,158.307 24.856,158.307 24.856,153.837 26.431,153.837 26.431,154.437 25.631,154.437 25.631,157.537 26.431,157.537 26.431,158.537 40.431,158.537 40.431,157.537 41.231,157.537 41.231,154.437 " />
      <polygon
         id="polygon5779"
         style="fill:none;stroke:#0000ff;stroke-width:0.2;stroke-opacity:1;stroke-miterlimit:4;stroke-dasharray:none"
         points="73.768,158.537 73.768,157.537 74.568,157.537 74.568,154.437 73.768,154.437 73.768,148.637 74.568,148.637 74.568,145.537 73.768,145.537 73.768,144.537 59.768,144.537 59.768,145.537 58.968,145.537 58.968,148.637 59.768,148.637 59.768,154.437 58.968,154.437 58.968,157.537 59.768,157.537 59.768,158.537 " />
      <polygon
         id="polygon5781"
         style="fill:none;stroke:#0000ff;stroke-width:0.2;stroke-opacity:1;stroke-miterlimit:4;stroke-dasharray:none"
         points="97.581,158.537 97.581,157.537 98.381,157.537 98.381,154.437 97.581,154.437 97.581,148.637 98.381,148.637 98.381,145.537 97.581,145.537 97.581,144.537 83.581,144.537 83.581,145.537 82.781,145.537 82.781,148.637 83.581,148.637 83.581,154.437 82.781,154.437 82.781,157.537 83.581,157.537 83.581,158.537 " />
      <polygon
         id="polygon5783"
         style="fill:none;stroke:#0000ff;stroke-width:0.2;stroke-opacity:1;stroke-miterlimit:4;stroke-dasharray:none"
         points="121.393,158.537 121.393,157.537 122.193,157.537 122.193,154.437 121.393,154.437 121.393,148.637 122.193,148.637 122.193,145.537 121.393,145.537 121.393,144.537 107.393,144.537 107.393,145.537 106.593,145.537 106.593,148.637 107.393,148.637 107.393,154.437 106.593,154.437 106.593,157.537 107.393,157.537 107.393,158.537 " />
      <polygon
         id="polygon5785"
         style="fill:none;stroke:#0000ff;stroke-width:0.2;stroke-opacity:1;stroke-miterlimit:4;stroke-dasharray:none"
         points="145.206,158.537 145.206,157.537 146.006,157.537 146.006,154.437 145.206,154.437 145.206,148.637 146.006,148.637 146.006,145.537 145.206,145.537 145.206,144.537 131.206,144.537 131.206,145.537 130.406,145.537 130.406,148.637 131.206,148.637 131.206,154.437 130.406,154.437 130.406,157.537 131.206,157.537 131.206,158.537 " />
      <polygon
         id="polygon5787"
         style="fill:none;stroke:#0000ff;stroke-width:0.2;stroke-opacity:1;stroke-miterlimit:4;stroke-dasharray:none"
         points="169.018,158.537 169.018,157.537 169.818,157.537 169.818,154.437 169.018,154.437 169.018,148.637 169.818,148.637 169.818,145.537 169.018,145.537 169.018,144.537 155.018,144.537 155.018,145.537 154.218,145.537 154.218,148.637 155.018,148.637 155.018,154.437 154.218,154.437 154.218,157.537 155.018,157.537 155.018,158.537 " />
      <polygon
         id="polygon5789"
         style="fill:none;stroke:#0000ff;stroke-width:0.2;stroke-opacity:1;stroke-miterlimit:4;stroke-dasharray:none"
         points="195.212,158.537 195.212,157.537 196.012,157.537 196.012,154.437 195.212,154.437 195.212,148.637 196.012,148.637 196.012,145.537 195.212,145.537 195.212,144.537 181.212,144.537 181.212,145.537 180.412,145.537 180.412,148.637 181.212,148.637 181.212,154.437 180.412,154.437 180.412,157.537 181.212,157.537 181.212,158.537 " />
      <polygon
         id="polygon5791"
         style="fill:none;stroke:#0000ff;stroke-width:0.2;stroke-opacity:1;stroke-miterlimit:4;stroke-dasharray:none"
         points="214.262,158.537 214.262,157.537 215.062,157.537 215.062,154.437 214.262,154.437 214.262,148.637 215.062,148.637 215.062,145.537 214.262,145.537 214.262,144.537 200.262,144.537 200.262,145.537 199.462,145.537 199.462,148.637 200.262,148.637 200.262,154.437 199.462,154.437 199.462,157.537 200.262,157.537 200.262,158.537 " />
      <polygon
         id="polygon5793"
         style="fill:none;stroke:#0000ff;stroke-width:0.2;stroke-opacity:1;stroke-miterlimit:4;stroke-dasharray:none"
         points="233.312,158.537 233.312,157.537 234.112,157.537 234.112,154.437 233.312,154.437 233.312,148.637 234.112,148.637 234.112,145.537 233.312,145.537 233.312,144.537 219.312,144.537 219.312,145.537 218.512,145.537 218.512,148.637 219.312,148.637 219.312,154.437 218.512,154.437 218.512,157.537 219.312,157.537 219.312,158.537 " />
      <polygon
         id="polygon5795"
         style="fill:none;stroke:#0000ff;stroke-width:0.2;stroke-opacity:1;stroke-miterlimit:4;stroke-dasharray:none"
         points="154.731,135.387 154.731,134.787 156.306,134.787 156.306,139.257 157.981,139.257 157.981,140.457 161.281,140.457 161.281,139.257 162.956,139.257 162.956,132.987 163.831,132.987 163.831,130.187 162.956,130.187 162.956,126.957 156.306,126.957 156.306,130.187 154.731,130.187 154.731,129.586 155.531,129.586 155.531,126.487 154.731,126.487 154.731,125.487 140.731,125.487 140.731,126.487 139.931,126.487 139.931,129.586 140.731,129.586 140.731,130.187 139.156,130.187 139.156,126.957 132.506,126.957 132.506,130.187 131.631,130.187 131.631,132.987 132.506,132.987 132.506,139.257 134.181,139.257 134.181,140.457 137.481,140.457 137.481,139.257 139.156,139.257 139.156,134.787 140.731,134.787 140.731,135.387 139.931,135.387 139.931,138.487 140.731,138.487 140.731,139.487 154.731,139.487 154.731,138.487 155.531,138.487 155.531,135.387 " />
      <polygon
         id="polygon5797"
         style="fill:none;stroke:#0000ff;stroke-width:0.2;stroke-opacity:1;stroke-miterlimit:4;stroke-dasharray:none"
         points="42.812,139.487 42.812,138.487 43.612,138.487 43.612,135.387 42.812,135.387 42.812,129.586 43.612,129.586 43.612,126.487 42.812,126.487 42.812,125.487 28.812,125.487 28.812,126.487 28.012,126.487 28.012,129.586 28.812,129.586 28.812,135.387 28.012,135.387 28.012,138.487 28.812,138.487 28.812,139.487 " />
      <polygon
         id="polygon5799"
         style="fill:none;stroke:#0000ff;stroke-width:0.2;stroke-opacity:1;stroke-miterlimit:4;stroke-dasharray:none"
         points="61.862,139.487 61.862,138.487 62.662,138.487 62.662,135.387 61.862,135.387 61.862,129.586 62.662,129.586 62.662,126.487 61.862,126.487 61.862,125.487 47.862,125.487 47.862,126.487 47.062,126.487 47.062,129.586 47.862,129.586 47.862,135.387 47.062,135.387 47.062,138.487 47.862,138.487 47.862,139.487 " />
      <polygon
         id="polygon5801"
         style="fill:none;stroke:#0000ff;stroke-width:0.2;stroke-opacity:1;stroke-miterlimit:4;stroke-dasharray:none"
         points="80.912,139.487 80.912,138.487 81.712,138.487 81.712,135.387 80.912,135.387 80.912,129.586 81.712,129.586 81.712,126.487 80.912,126.487 80.912,125.487 66.912,125.487 66.912,126.487 66.112,126.487 66.112,129.586 66.912,129.586 66.912,135.387 66.112,135.387 66.112,138.487 66.912,138.487 66.912,139.487 " />
      <polygon
         id="polygon5803"
         style="fill:none;stroke:#0000ff;stroke-width:0.2;stroke-opacity:1;stroke-miterlimit:4;stroke-dasharray:none"
         points="99.962,139.487 99.962,138.487 100.762,138.487 100.762,135.387 99.962,135.387 99.962,129.586 100.762,129.586 100.762,126.487 99.962,126.487 99.962,125.487 85.962,125.487 85.962,126.487 85.162,126.487 85.162,129.586 85.962,129.586 85.962,135.387 85.162,135.387 85.162,138.487 85.962,138.487 85.962,139.487 " />
      <polygon
         id="polygon5805"
         style="fill:none;stroke:#0000ff;stroke-width:0.2;stroke-opacity:1;stroke-miterlimit:4;stroke-dasharray:none"
         points="119.012,139.487 119.012,138.487 119.812,138.487 119.812,135.387 119.012,135.387 119.012,129.586 119.812,129.586 119.812,126.487 119.012,126.487 119.012,125.487 105.012,125.487 105.012,126.487 104.212,126.487 104.212,129.586 105.012,129.586 105.012,135.387 104.212,135.387 104.212,138.487 105.012,138.487 105.012,139.487 " />
      <polygon
         id="polygon5807"
         style="fill:none;stroke:#0000ff;stroke-width:0.2;stroke-opacity:1;stroke-miterlimit:4;stroke-dasharray:none"
         points="195.212,139.487 195.212,138.487 196.012,138.487 196.012,135.387 195.212,135.387 195.212,129.586 196.012,129.586 196.012,126.487 195.212,126.487 195.212,125.487 181.212,125.487 181.212,126.487 180.412,126.487 180.412,129.586 181.212,129.586 181.212,135.387 180.412,135.387 180.412,138.487 181.212,138.487 181.212,139.487 " />
      <polygon
         id="polygon5809"
         style="fill:none;stroke:#0000ff;stroke-width:0.2;stroke-opacity:1;stroke-miterlimit:4;stroke-dasharray:none"
         points="233.312,139.487 233.312,138.487 234.112,138.487 234.112,135.387 233.312,135.387 233.312,129.586 234.112,129.586 234.112,126.487 233.312,126.487 233.312,125.487 219.312,125.487 219.312,126.487 218.512,126.487 218.512,129.586 219.312,129.586 219.312,135.387 218.512,135.387 218.512,138.487 219.312,138.487 219.312,139.487 " />
      <polygon
         id="polygon5811"
         style="fill:none;stroke:#0000ff;stroke-width:0.2;stroke-opacity:1;stroke-miterlimit:4;stroke-dasharray:none"
         points="214.262,139.487 214.262,138.487 215.062,138.487 215.062,135.387 214.262,135.387 214.262,129.586 215.062,129.586 215.062,126.487 214.262,126.487 214.262,125.487 200.262,125.487 200.262,126.487 199.462,126.487 199.462,129.586 200.262,129.586 200.262,135.387 199.462,135.387 199.462,138.487 200.262,138.487 200.262,139.487 " />
      <polygon
         id="polygon5813"
         style="fill:none;stroke:#0000ff;stroke-width:0.2;stroke-opacity:1;stroke-miterlimit:4;stroke-dasharray:none"
         points="33.287,120.437 33.287,119.437 34.087,119.437 34.087,116.337 33.287,116.337 33.287,110.537 34.087,110.537 34.087,107.437 33.287,107.437 33.287,106.437 19.287,106.437 19.287,107.437 18.487,107.437 18.487,110.537 19.287,110.537 19.287,116.337 18.487,116.337 18.487,119.437 19.287,119.437 19.287,120.437 " />
      <polygon
         id="polygon5815"
         style="fill:none;stroke:#0000ff;stroke-width:0.2;stroke-opacity:1;stroke-miterlimit:4;stroke-dasharray:none"
         points="52.337,120.437 52.337,119.437 53.137,119.437 53.137,116.337 52.337,116.337 52.337,110.537 53.137,110.537 53.137,107.437 52.337,107.437 52.337,106.437 38.337,106.437 38.337,107.437 37.537,107.437 37.537,110.537 38.337,110.537 38.337,116.337 37.537,116.337 37.537,119.437 38.337,119.437 38.337,120.437 " />
      <polygon
         id="polygon5817"
         style="fill:none;stroke:#0000ff;stroke-width:0.2;stroke-opacity:1;stroke-miterlimit:4;stroke-dasharray:none"
         points="71.387,120.437 71.387,119.437 72.187,119.437 72.187,116.337 71.387,116.337 71.387,110.537 72.187,110.537 72.187,107.437 71.387,107.437 71.387,106.437 57.387,106.437 57.387,107.437 56.587,107.437 56.587,110.537 57.387,110.537 57.387,116.337 56.587,116.337 56.587,119.437 57.387,119.437 57.387,120.437 " />
      <polygon
         id="polygon5819"
         style="fill:none;stroke:#0000ff;stroke-width:0.2;stroke-opacity:1;stroke-miterlimit:4;stroke-dasharray:none"
         points="90.437,120.437 90.437,119.437 91.237,119.437 91.237,116.337 90.437,116.337 90.437,110.537 91.237,110.537 91.237,107.437 90.437,107.437 90.437,106.437 76.437,106.437 76.437,107.437 75.637,107.437 75.637,110.537 76.437,110.537 76.437,116.337 75.637,116.337 75.637,119.437 76.437,119.437 76.437,120.437 " />
      <polygon
         id="polygon5821"
         style="fill:none;stroke:#0000ff;stroke-width:0.2;stroke-opacity:1;stroke-miterlimit:4;stroke-dasharray:none"
         points="109.487,120.437 109.487,119.437 110.287,119.437 110.287,116.337 109.487,116.337 109.487,110.537 110.287,110.537 110.287,107.437 109.487,107.437 109.487,106.437 95.487,106.437 95.487,107.437 94.687,107.437 94.687,110.537 95.487,110.537 95.487,116.337 94.687,116.337 94.687,119.437 95.487,119.437 95.487,120.437 " />
      <polygon
         id="polygon5823"
         style="fill:none;stroke:#0000ff;stroke-width:0.2;stroke-opacity:1;stroke-miterlimit:4;stroke-dasharray:none"
         points="128.537,120.437 128.537,119.437 129.336,119.437 129.336,116.337 128.537,116.337 128.537,110.537 129.336,110.537 129.336,107.437 128.537,107.437 128.537,106.437 114.537,106.437 114.537,107.437 113.737,107.437 113.737,110.537 114.537,110.537 114.537,116.337 113.737,116.337 113.737,119.437 114.537,119.437 114.537,120.437 " />
      <polygon
         id="polygon5825"
         style="fill:none;stroke:#0000ff;stroke-width:0.2;stroke-opacity:1;stroke-miterlimit:4;stroke-dasharray:none"
         points="147.587,120.437 147.587,119.437 148.387,119.437 148.387,116.337 147.587,116.337 147.587,110.537 148.387,110.537 148.387,107.437 147.587,107.437 147.587,106.437 133.587,106.437 133.587,107.437 132.787,107.437 132.787,110.537 133.587,110.537 133.587,116.337 132.787,116.337 132.787,119.437 133.587,119.437 133.587,120.437 " />
      <polygon
         id="polygon5827"
         style="fill:none;stroke:#0000ff;stroke-width:0.2;stroke-opacity:1;stroke-miterlimit:4;stroke-dasharray:none"
         points="164.318,120.012 164.318,119.137 167.548,119.137 167.548,112.487 164.318,112.487 164.318,110.912 164.918,110.912 164.918,111.712 168.018,111.712 168.018,110.912 169.018,110.912 169.018,96.912 168.018,96.912 168.018,96.112 164.918,96.112 164.918,96.912 164.318,96.912 164.318,95.337 167.548,95.337 167.548,88.687 164.318,88.687 164.318,87.812 161.518,87.812 161.518,88.687 155.248,88.687 155.248,90.362 154.048,90.362 154.048,93.662 155.248,93.662 155.248,95.337 159.718,95.337 159.718,96.912 159.118,96.912 159.118,96.112 156.018,96.112 156.018,96.912 155.018,96.912 155.018,110.912 156.018,110.912 156.018,111.712 159.118,111.712 159.118,110.912 159.718,110.912 159.718,112.487 155.248,112.487 155.248,114.162 154.048,114.162 154.048,117.462 155.248,117.462 155.248,119.137 161.518,119.137 161.518,120.012 " />
      <polygon
         id="polygon5829"
         style="fill:none;stroke:#0000ff;stroke-width:0.2;stroke-opacity:1;stroke-miterlimit:4;stroke-dasharray:none"
         points="28.525,101.387 28.525,100.387 29.325,100.387 29.325,97.287 28.525,97.287 28.525,91.487 29.325,91.487 29.325,88.387 28.525,88.387 28.525,87.387 14.524,87.387 14.524,88.387 13.724,88.387 13.724,91.487 14.524,91.487 14.524,97.287 13.724,97.287 13.724,100.387 14.524,100.387 14.524,101.387 " />
      <polygon
         id="polygon5831"
         style="fill:none;stroke:#0000ff;stroke-width:0.2;stroke-opacity:1;stroke-miterlimit:4;stroke-dasharray:none"
         points="47.575,101.387 47.575,100.387 48.375,100.387 48.375,97.287 47.575,97.287 47.575,91.487 48.375,91.487 48.375,88.387 47.575,88.387 47.575,87.387 33.575,87.387 33.575,88.387 32.775,88.387 32.775,91.487 33.575,91.487 33.575,97.287 32.775,97.287 32.775,100.387 33.575,100.387 33.575,101.387 " />
      <polygon
         id="polygon5833"
         style="fill:none;stroke:#0000ff;stroke-width:0.2;stroke-opacity:1;stroke-miterlimit:4;stroke-dasharray:none"
         points="66.625,101.387 66.625,100.387 67.425,100.387 67.425,97.287 66.625,97.287 66.625,91.487 67.425,91.487 67.425,88.387 66.625,88.387 66.625,87.387 52.625,87.387 52.625,88.387 51.825,88.387 51.825,91.487 52.625,91.487 52.625,97.287 51.825,97.287 51.825,100.387 52.625,100.387 52.625,101.387 " />
      <polygon
         id="polygon5835"
         style="fill:none;stroke:#0000ff;stroke-width:0.2;stroke-opacity:1;stroke-miterlimit:4;stroke-dasharray:none"
         points="85.675,101.387 85.675,100.387 86.475,100.387 86.475,97.287 85.675,97.287 85.675,91.487 86.475,91.487 86.475,88.387 85.675,88.387 85.675,87.387 71.675,87.387 71.675,88.387 70.875,88.387 70.875,91.487 71.675,91.487 71.675,97.287 70.875,97.287 70.875,100.387 71.675,100.387 71.675,101.387 " />
      <polygon
         id="polygon5837"
         style="fill:none;stroke:#0000ff;stroke-width:0.2;stroke-opacity:1;stroke-miterlimit:4;stroke-dasharray:none"
         points="104.725,101.387 104.725,100.387 105.524,100.387 105.524,97.287 104.725,97.287 104.725,91.487 105.524,91.487 105.524,88.387 104.725,88.387 104.725,87.387 90.725,87.387 90.725,88.387 89.925,88.387 89.925,91.487 90.725,91.487 90.725,97.287 89.925,97.287 89.925,100.387 90.725,100.387 90.725,101.387 " />
      <polygon
         id="polygon5839"
         style="fill:none;stroke:#0000ff;stroke-width:0.2;stroke-opacity:1;stroke-miterlimit:4;stroke-dasharray:none"
         points="123.774,101.387 123.774,100.387 124.574,100.387 124.574,97.287 123.774,97.287 123.774,91.487 124.574,91.487 124.574,88.387 123.774,88.387 123.774,87.387 109.774,87.387 109.774,88.387 108.975,88.387 108.975,91.487 109.774,91.487 109.774,97.287 108.975,97.287 108.975,100.387 109.774,100.387 109.774,101.387 " />
      <polygon
         id="polygon5841"
         style="fill:none;stroke:#0000ff;stroke-width:0.2;stroke-opacity:1;stroke-miterlimit:4;stroke-dasharray:none"
         points="142.825,101.387 142.825,100.387 143.625,100.387 143.625,97.287 142.825,97.287 142.825,91.487 143.625,91.487 143.625,88.387 142.825,88.387 142.825,87.387 128.824,87.387 128.824,88.387 128.024,88.387 128.024,91.487 128.824,91.487 128.824,97.287 128.024,97.287 128.024,100.387 128.824,100.387 128.824,101.387 " />
      <polygon
         id="polygon5843"
         style="fill:none;stroke:#0000ff;stroke-width:0.2;stroke-opacity:1;stroke-miterlimit:4;stroke-dasharray:none"
         points="195.212,101.387 195.212,100.387 196.012,100.387 196.012,97.287 195.212,97.287 195.212,91.487 196.012,91.487 196.012,88.387 195.212,88.387 195.212,87.387 181.212,87.387 181.212,88.387 180.412,88.387 180.412,91.487 181.212,91.487 181.212,97.287 180.412,97.287 180.412,100.387 181.212,100.387 181.212,101.387 " />
      <polygon
         id="polygon5845"
         style="fill:none;stroke:#0000ff;stroke-width:0.2;stroke-opacity:1;stroke-miterlimit:4;stroke-dasharray:none"
         points="214.262,101.387 214.262,100.387 215.062,100.387 215.062,97.287 214.262,97.287 214.262,91.487 215.062,91.487 215.062,88.387 214.262,88.387 214.262,87.387 200.262,87.387 200.262,88.387 199.462,88.387 199.462,91.487 200.262,91.487 200.262,97.287 199.462,97.287 199.462,100.387 200.262,100.387 200.262,101.387 " />
      <polygon
         id="polygon5847"
         style="fill:none;stroke:#0000ff;stroke-width:0.2;stroke-opacity:1;stroke-miterlimit:4;stroke-dasharray:none"
         points="233.312,101.387 233.312,100.387 234.112,100.387 234.112,97.287 233.312,97.287 233.312,91.487 234.112,91.487 234.112,88.387 233.312,88.387 233.312,87.387 219.312,87.387 219.312,88.387 218.512,88.387 218.512,91.487 219.312,91.487 219.312,97.287 218.512,97.287 218.512,100.387 219.312,100.387 219.312,101.387 " />
      <polygon
         id="polygon5849"
         style="fill:none;stroke:#0000ff;stroke-width:0.2;stroke-opacity:1;stroke-miterlimit:4;stroke-dasharray:none"
         points="161.875,78.237 161.875,77.637 163.45,77.637 163.45,82.107 165.125,82.107 165.125,83.307 168.425,83.307 168.425,82.107 170.1,82.107 170.1,75.837 170.975,75.837 170.975,73.037 170.1,73.037 170.1,69.807 163.45,69.807 163.45,73.037 161.875,73.037 161.875,72.437 162.675,72.437 162.675,69.337 161.875,69.337 161.875,68.337 147.875,68.337 147.875,69.337 147.075,69.337 147.075,72.437 147.875,72.437 147.875,73.037 146.3,73.037 146.3,69.807 139.65,69.807 139.65,73.037 138.775,73.037 138.775,75.837 139.65,75.837 139.65,82.107 141.325,82.107 141.325,83.307 144.625,83.307 144.625,82.107 146.3,82.107 146.3,77.637 147.875,77.637 147.875,78.237 147.075,78.237 147.075,81.337 147.875,81.337 147.875,82.337 161.875,82.337 161.875,81.337 162.675,81.337 162.675,78.237 " />
      <polygon
         id="polygon5851"
         style="fill:none;stroke:#0000ff;stroke-width:0.2;stroke-opacity:1;stroke-miterlimit:4;stroke-dasharray:none"
         points="38.049,82.337 38.049,81.337 38.849,81.337 38.849,78.237 38.049,78.237 38.049,72.437 38.849,72.437 38.849,69.337 38.049,69.337 38.049,68.337 24.049,68.337 24.049,69.337 23.249,69.337 23.249,72.437 24.049,72.437 24.049,78.237 23.249,78.237 23.249,81.337 24.049,81.337 24.049,82.337 " />
      <polygon
         id="polygon5853"
         style="fill:none;stroke:#0000ff;stroke-width:0.2;stroke-opacity:1;stroke-miterlimit:4;stroke-dasharray:none"
         points="57.099,82.337 57.099,81.337 57.899,81.337 57.899,78.237 57.099,78.237 57.099,72.437 57.899,72.437 57.899,69.337 57.099,69.337 57.099,68.337 43.099,68.337 43.099,69.337 42.3,69.337 42.3,72.437 43.099,72.437 43.099,78.237 42.3,78.237 42.3,81.337 43.099,81.337 43.099,82.337 " />
      <polygon
         id="polygon5855"
         style="fill:none;stroke:#0000ff;stroke-width:0.2;stroke-opacity:1;stroke-miterlimit:4;stroke-dasharray:none"
         points="76.149,82.337 76.149,81.337 76.949,81.337 76.949,78.237 76.149,78.237 76.149,72.437 76.949,72.437 76.949,69.337 76.149,69.337 76.149,68.337 62.149,68.337 62.149,69.337 61.349,69.337 61.349,72.437 62.149,72.437 62.149,78.237 61.349,78.237 61.349,81.337 62.149,81.337 62.149,82.337 " />
      <polygon
         id="polygon5857"
         style="fill:none;stroke:#0000ff;stroke-width:0.2;stroke-opacity:1;stroke-miterlimit:4;stroke-dasharray:none"
         points="95.199,82.337 95.199,81.337 95.999,81.337 95.999,78.237 95.199,78.237 95.199,72.437 95.999,72.437 95.999,69.337 95.199,69.337 95.199,68.337 81.199,68.337 81.199,69.337 80.399,69.337 80.399,72.437 81.199,72.437 81.199,78.237 80.399,78.237 80.399,81.337 81.199,81.337 81.199,82.337 " />
      <polygon
         id="polygon5859"
         style="fill:none;stroke:#0000ff;stroke-width:0.2;stroke-opacity:1;stroke-miterlimit:4;stroke-dasharray:none"
         points="114.249,82.337 114.249,81.337 115.049,81.337 115.049,78.237 114.249,78.237 114.249,72.437 115.049,72.437 115.049,69.337 114.249,69.337 114.249,68.337 100.249,68.337 100.249,69.337 99.449,69.337 99.449,72.437 100.249,72.437 100.249,78.237 99.449,78.237 99.449,81.337 100.249,81.337 100.249,82.337 " />
      <polygon
         id="polygon5861"
         style="fill:none;stroke:#0000ff;stroke-width:0.2;stroke-opacity:1;stroke-miterlimit:4;stroke-dasharray:none"
         points="133.299,82.337 133.299,81.337 134.1,81.337 134.1,78.237 133.299,78.237 133.299,72.437 134.1,72.437 134.1,69.337 133.299,69.337 133.299,68.337 119.299,68.337 119.299,69.337 118.499,69.337 118.499,72.437 119.299,72.437 119.299,78.237 118.499,78.237 118.499,81.337 119.299,81.337 119.299,82.337 " />
      <polygon
         id="polygon5863"
         style="fill:none;stroke:#0000ff;stroke-width:0.2;stroke-opacity:1;stroke-miterlimit:4;stroke-dasharray:none"
         points="195.212,82.337 195.212,81.337 196.012,81.337 196.012,78.237 195.212,78.237 195.212,72.437 196.012,72.437 196.012,69.337 195.212,69.337 195.212,68.337 181.212,68.337 181.212,69.337 180.412,69.337 180.412,72.437 181.212,72.437 181.212,78.237 180.412,78.237 180.412,81.337 181.212,81.337 181.212,82.337 " />
      <polygon
         id="polygon5865"
         style="fill:none;stroke:#0000ff;stroke-width:0.2;stroke-opacity:1;stroke-miterlimit:4;stroke-dasharray:none"
         points="214.262,82.337 214.262,81.337 215.062,81.337 215.062,78.237 214.262,78.237 214.262,72.437 215.062,72.437 215.062,69.337 214.262,69.337 214.262,68.337 200.262,68.337 200.262,69.337 199.462,69.337 199.462,72.437 200.262,72.437 200.262,78.237 199.462,78.237 199.462,81.337 200.262,81.337 200.262,82.337 " />
      <polygon
         id="polygon5867"
         style="fill:none;stroke:#0000ff;stroke-width:0.2;stroke-opacity:1;stroke-miterlimit:4;stroke-dasharray:none"
         points="233.312,82.337 233.312,81.337 234.112,81.337 234.112,78.237 233.312,78.237 233.312,72.437 234.112,72.437 234.112,69.337 233.312,69.337 233.312,68.337 219.312,68.337 219.312,69.337 218.512,69.337 218.512,72.437 219.312,72.437 219.312,78.237 218.512,78.237 218.512,81.337 219.312,81.337 219.312,82.337 " />
      <polygon
         id="polygon5869"
         style="fill:none;stroke:#0000ff;stroke-width:0.2;stroke-opacity:1;stroke-miterlimit:4;stroke-dasharray:none"
         points="195.212,58.525 195.212,57.525 196.012,57.525 196.012,54.425 195.212,54.425 195.212,48.625 196.012,48.625 196.012,45.525 195.212,45.525 195.212,44.525 181.212,44.525 181.212,45.525 180.412,45.525 180.412,48.625 181.212,48.625 181.212,54.425 180.412,54.425 180.412,57.525 181.212,57.525 181.212,58.525 " />
      <polygon
         id="polygon5871"
         style="fill:none;stroke:#0000ff;stroke-width:0.2;stroke-opacity:1;stroke-miterlimit:4;stroke-dasharray:none"
         points="214.262,58.525 214.262,57.525 215.062,57.525 215.062,54.425 214.262,54.425 214.262,48.625 215.062,48.625 215.062,45.525 214.262,45.525 214.262,44.525 200.262,44.525 200.262,45.525 199.462,45.525 199.462,48.625 200.262,48.625 200.262,54.425 199.462,54.425 199.462,57.525 200.262,57.525 200.262,58.525 " />
      <polygon
         id="polygon5873"
         style="fill:none;stroke:#0000ff;stroke-width:0.2;stroke-opacity:1;stroke-miterlimit:4;stroke-dasharray:none"
         points="233.312,58.525 233.312,57.525 234.112,57.525 234.112,54.425 233.312,54.425 233.312,48.625 234.112,48.625 234.112,45.525 233.312,45.525 233.312,44.525 219.312,44.525 219.312,45.525 218.512,45.525 218.512,48.625 219.312,48.625 219.312,54.425 218.512,54.425 218.512,57.525 219.312,57.525 219.312,58.525 " />
      <polygon
         id="polygon5875"
         style="fill:none;stroke:#0000ff;stroke-width:0.2;stroke-opacity:1;stroke-miterlimit:4;stroke-dasharray:none"
         points="28.525,58.524 28.525,57.524 29.325,57.524 29.325,54.424 28.525,54.424 28.525,48.624 29.325,48.624 29.325,45.524 28.525,45.524 28.525,44.524 14.524,44.524 14.524,45.524 13.724,45.524 13.724,48.624 14.524,48.624 14.524,54.424 13.724,54.424 13.724,57.524 14.524,57.524 14.524,58.524 " />
      <polygon
         id="polygon5877"
         style="fill:none;stroke:#0000ff;stroke-width:0.2;stroke-opacity:1;stroke-miterlimit:4;stroke-dasharray:none"
         points="47.575,58.524 47.575,57.524 48.375,57.524 48.375,54.424 47.575,54.424 47.575,48.624 48.375,48.624 48.375,45.524 47.575,45.524 47.575,44.524 33.575,44.524 33.575,45.524 32.775,45.524 32.775,48.624 33.575,48.624 33.575,54.424 32.775,54.424 32.775,57.524 33.575,57.524 33.575,58.524 " />
      <polygon
         id="polygon5879"
         style="fill:none;stroke:#0000ff;stroke-width:0.2;stroke-opacity:1;stroke-miterlimit:4;stroke-dasharray:none"
         points="71.387,58.524 71.387,57.524 72.187,57.524 72.187,54.424 71.387,54.424 71.387,48.624 72.187,48.624 72.187,45.524 71.387,45.524 71.387,44.524 57.387,44.524 57.387,45.524 56.587,45.524 56.587,48.624 57.387,48.624 57.387,54.424 56.587,54.424 56.587,57.524 57.387,57.524 57.387,58.524 " />
      <polygon
         id="polygon5881"
         style="fill:none;stroke:#0000ff;stroke-width:0.2;stroke-opacity:1;stroke-miterlimit:4;stroke-dasharray:none"
         points="90.437,58.524 90.437,57.524 91.237,57.524 91.237,54.424 90.437,54.424 90.437,48.624 91.237,48.624 91.237,45.524 90.437,45.524 90.437,44.524 76.437,44.524 76.437,45.524 75.637,45.524 75.637,48.624 76.437,48.624 76.437,54.424 75.637,54.424 75.637,57.524 76.437,57.524 76.437,58.524 " />
      <polygon
         id="polygon5883"
         style="fill:none;stroke:#0000ff;stroke-width:0.2;stroke-opacity:1;stroke-miterlimit:4;stroke-dasharray:none"
         points="109.487,58.524 109.487,57.524 110.287,57.524 110.287,54.424 109.487,54.424 109.487,48.624 110.287,48.624 110.287,45.524 109.487,45.524 109.487,44.524 95.487,44.524 95.487,45.524 94.687,45.524 94.687,48.624 95.487,48.624 95.487,54.424 94.687,54.424 94.687,57.524 95.487,57.524 95.487,58.524 " />
      <polygon
         id="polygon5885"
         style="fill:none;stroke:#0000ff;stroke-width:0.2;stroke-opacity:1;stroke-miterlimit:4;stroke-dasharray:none"
         points="128.537,58.524 128.537,57.524 129.336,57.524 129.336,54.424 128.537,54.424 128.537,48.624 129.336,48.624 129.336,45.524 128.537,45.524 128.537,44.524 114.537,44.524 114.537,45.524 113.737,45.524 113.737,48.624 114.537,48.624 114.537,54.424 113.737,54.424 113.737,57.524 114.537,57.524 114.537,58.524 " />
      <polygon
         id="polygon5887"
         style="fill:none;stroke:#0000ff;stroke-width:0.2;stroke-opacity:1;stroke-miterlimit:4;stroke-dasharray:none"
         points="152.35,58.524 152.35,57.524 153.15,57.524 153.15,54.424 152.35,54.424 152.35,48.624 153.15,48.624 153.15,45.524 152.35,45.524 152.35,44.524 138.35,44.524 138.35,45.524 137.549,45.524 137.549,48.624 138.35,48.624 138.35,54.424 137.549,54.424 137.549,57.524 138.35,57.524 138.35,58.524 " />
      <polygon
         id="polygon5889"
         style="fill:none;stroke:#0000ff;stroke-width:0.2;stroke-opacity:1;stroke-miterlimit:4;stroke-dasharray:none"
         points="171.4,58.524 171.4,57.524 172.2,57.524 172.2,54.424 171.4,54.424 171.4,48.624 172.2,48.624 172.2,45.524 171.4,45.524 171.4,44.524 157.4,44.524 157.4,45.524 156.6,45.524 156.6,48.624 157.4,48.624 157.4,54.424 156.6,54.424 156.6,57.524 157.4,57.524 157.4,58.524 " />
    </g>
  </g>
  <g
     style="display:inline"
     inkscape:label="dills_25_switchplate"
     id="g4657"
     inkscape:groupmode="layer"
     transform="translate(40.582,-2.3995023)">
    <circle
       r="1.15"
       cy="21.431314"
       cx="-19.733992"
       id="circle4659"
       style="opacity:1;fill:none;fill-opacity:1;stroke:#0000ff;stroke-width:0.2;stroke-linejoin:miter;stroke-miterlimit:4;stroke-dasharray:none;stroke-opacity:1" />
    <circle
       r="1.15"
       cy="21.458218"
       cx="188.7742"
       id="use4661"
       style="opacity:1;fill:none;fill-opacity:1;stroke:#0000ff;stroke-width:0.2;stroke-linejoin:miter;stroke-miterlimit:4;stroke-dasharray:none;stroke-opacity:1" />
    <circle
       r="1.15"
       cy="116.43775"
       cx="190.46788"
       id="use4663"
       style="opacity:1;fill:none;fill-opacity:1;stroke:#0000ff;stroke-width:0.2;stroke-linejoin:miter;stroke-miterlimit:4;stroke-dasharray:none;stroke-opacity:1" />
    <circle
       r="1.15"
       cy="116.68607"
       cx="142.4903"
       id="use4665"
       style="opacity:1;fill:none;fill-opacity:1;stroke:#0000ff;stroke-width:0.2;stroke-linejoin:miter;stroke-miterlimit:4;stroke-dasharray:none;stroke-opacity:1" />
    <circle
       style="opacity:1;fill:none;fill-opacity:1;stroke:#0000ff;stroke-width:0.2;stroke-linejoin:miter;stroke-miterlimit:4;stroke-dasharray:none;stroke-opacity:1"
       id="use4667"
       cx="-20.304918"
       cy="134.73245"
       r="1.15" />
    <circle
       r="1.15"
       cy="153.99815"
       cx="14.701783"
       id="use4669"
       style="opacity:1;fill:none;fill-opacity:1;stroke:#0000ff;stroke-width:0.2;stroke-linejoin:miter;stroke-miterlimit:4;stroke-dasharray:none;stroke-opacity:1" />
    <circle
       style="opacity:1;fill:none;fill-opacity:1;stroke:#0000ff;stroke-width:0.2;stroke-linejoin:miter;stroke-miterlimit:4;stroke-dasharray:none;stroke-opacity:1"
       id="use4671"
       cx="191.59639"
       cy="65.956902"
       r="1.15" />
    <circle
       r="1.15"
       cy="65.941139"
       cx="-25.384909"
       id="use4673"
       style="opacity:1;fill:none;fill-opacity:1;stroke:#0000ff;stroke-width:0.2;stroke-linejoin:miter;stroke-miterlimit:4;stroke-dasharray:none;stroke-opacity:1" />
    <circle
       r="1.15"
       cy="65.956902"
       cx="82.919411"
       id="use4675"
       style="opacity:1;fill:none;fill-opacity:1;stroke:#0000ff;stroke-width:0.2;stroke-linejoin:miter;stroke-miterlimit:4;stroke-dasharray:none;stroke-opacity:1" />
    <circle
       style="opacity:1;fill:none;fill-opacity:1;stroke:#0000ff;stroke-width:0.2;stroke-linejoin:miter;stroke-miterlimit:4;stroke-dasharray:none;stroke-opacity:1"
       id="use4677"
       cx="85.741638"
       cy="141.29346"
       r="1.15" />
  </g>
  <g
     inkscape:groupmode="layer"
     id="layer10"
     inkscape:label="dills_32_faceplate"
     style="display:inline"
     transform="translate(40.582,-2.3995023)">
    <circle
       style="opacity:1;fill:none;fill-opacity:1;stroke:#0000ff;stroke-width:0.2;stroke-linejoin:miter;stroke-miterlimit:4;stroke-dasharray:none;stroke-opacity:1"
       id="use4579"
       cx="82.919411"
       cy="10.82286"
       r="1.5" />
    <circle
       r="1.5"
       cy="32.182663"
       cx="198.6794"
       id="use4585"
       style="opacity:1;fill:none;fill-opacity:1;stroke:#0000ff;stroke-width:0.2;stroke-linejoin:miter;stroke-miterlimit:4;stroke-dasharray:none;stroke-opacity:1" />
    <use
       x="0"
       y="0"
       xlink:href="#use4585"
       id="use4593"
       transform="translate(0,64.346669)"
       width="100%"
       height="100%"
       style="opacity:1;fill:none;stroke:#0000ff;stroke-opacity:1;stroke-width:0.2;stroke-miterlimit:4;stroke-dasharray:none" />
    <use
       x="0"
       y="0"
       xlink:href="#use4593"
       id="use4599"
       transform="translate(0,50.457537)"
       width="100%"
       height="100%"
       style="opacity:1;fill:none;stroke:#0000ff;stroke-opacity:1;stroke-width:0.2;stroke-miterlimit:4;stroke-dasharray:none" />
    <use
       x="0"
       y="0"
       xlink:href="#use4585"
       id="use4609"
       transform="translate(-230.80281,0)"
       width="100%"
       height="100%"
       style="opacity:1;fill:none;stroke:#0000ff;stroke-opacity:1;stroke-width:0.2;stroke-miterlimit:4;stroke-dasharray:none" />
    <use
       x="0"
       y="0"
       xlink:href="#use4593"
       id="use4611"
       transform="translate(-230.80281,0)"
       width="100%"
       height="100%"
       style="opacity:1;fill:none;stroke:#0000ff;stroke-opacity:1;stroke-width:0.2;stroke-miterlimit:4;stroke-dasharray:none" />
    <use
       x="0"
       y="0"
       xlink:href="#use4599"
       id="use4613"
       transform="translate(-230.80281,0)"
       width="100%"
       height="100%"
       style="opacity:1;fill:none;stroke:#0000ff;stroke-opacity:1;stroke-width:0.2;stroke-miterlimit:4;stroke-dasharray:none" />
    <use
       x="0"
       y="0"
       xlink:href="#use4579"
       id="use4623"
       transform="translate(-92.461237,0)"
       width="100%"
       height="100%"
       style="opacity:1;fill:none;stroke:#0000ff;stroke-opacity:1;stroke-width:0.2;stroke-miterlimit:4;stroke-dasharray:none" />
    <use
       x="0"
       y="0"
       xlink:href="#use4623"
       id="use4629"
       transform="translate(185.93017,0)"
       width="100%"
       height="100%"
       style="opacity:1;fill:none;stroke:#0000ff;stroke-opacity:1;stroke-width:0.2;stroke-miterlimit:4;stroke-dasharray:none" />
    <use
       x="0"
       y="0"
       xlink:href="#use4579"
       id="use4639"
       transform="translate(0.56444445,156.23579)"
       width="100%"
       height="100%"
       style="opacity:1;fill:none;stroke:#0000ff;stroke-opacity:1;stroke-width:0.2;stroke-miterlimit:4;stroke-dasharray:none" />
    <use
       x="0"
       y="0"
       xlink:href="#use4623"
       id="use4641"
       transform="translate(0,156.23579)"
       width="100%"
       height="100%"
       style="opacity:1;fill:none;stroke:#0000ff;stroke-opacity:1;stroke-width:0.2;stroke-miterlimit:4;stroke-dasharray:none" />
    <use
       x="0"
       y="0"
       xlink:href="#use4629"
       id="use4643"
       transform="translate(0,156.23579)"
       width="100%"
       height="100%"
       style="opacity:1;fill:none;stroke:#0000ff;stroke-opacity:1;stroke-width:0.2;stroke-miterlimit:4;stroke-dasharray:none" />
  </g>
  <g
     inkscape:groupmode="layer"
     id="g4522"
     inkscape:label="matrix_2_plate_cutout"
     style="display:inline"
     transform="translate(40.582,-2.3995023)">
    <path
       style="opacity:1;fill:none;fill-opacity:1;stroke:#0000ff;stroke-width:0.2;stroke-linejoin:miter;stroke-miterlimit:4;stroke-dasharray:none;stroke-opacity:1"
       d="m 21.966992,15.064809 18.926111,0 -0.03087,3.79892 4.222882,-0.01936 0.03514,-3.779556 35.644748,0 -0.0038,3.943108 4.422531,2e-6 -0.008,-3.943108 35.612636,0 -0.004,3.939284 4.44918,0.01115 -2.1e-4,-3.950428 18.79159,0 0,29.799999 -18.73172,0 -0.0195,-4.198297 -4.53213,0.0084 -0.0115,4.189857 -35.425619,0 -0.0086,-4.172746 -4.618726,-0.01062 -0.0053,4.183329 -35.440661,0 8.18e-4,-4.204265 -4.460801,0.0033 7.25e-4,4.201002 -18.804645,0 z"
       id="rect4524"
       inkscape:connector-curvature="0"
       sodipodi:nodetypes="ccccccccccccccccccccccccccccc" />
  </g>
  <style
     id="style4899"
     type="text/css">
    .keycap .border { stroke: black; stroke-width: 2; }
    .keycap .inner.border { stroke: rgba(0,0,0,.1); }
    </style>
  <style
     id="style7180"
     type="text/css">
    .keycap .border { stroke: black; stroke-width: 2; }
    .keycap .inner.border { stroke: rgba(0,0,0,.1); }
    </style>
</svg>
