  0
SECTION
  2
HEADER
  9
$ACADVER
  1
AC1009
  9
$EXTMIN
 10
0.0
 20
0.0
 30
0.0
  9
$EXTMAX
 10
1000.0
 20
1000.0
 30
0.0
  9
$FILLMODE
 70
 0
  9
$SPLFRAME
 70
 1
  0
ENDSEC
  0
SECTION
  2
TABLES
  0
TABLE
  2
LAYER
 70
1
  0
LAYER
  2
0
 70
     0
 62
     7
  6
CONTINUOUS
  0
ENDTAB
  0
ENDSEC
  0
SECTION
  2
ENTITIES
  0
LINE
  8
0
 62
     5
 10
0.977029
 20
162.566
 30
0.0
 11
1.13137
 21
162.687
 31
0.0
  0
LINE
  8
0
 62
     5
 10
1.13137
 20
162.687
 30
0.0
 11
1.29398
 21
162.796
 31
0.0
  0
LINE
  8
0
 62
     5
 10
1.29398
 20
162.796
 30
0.0
 11
1.46623
 21
162.891
 31
0.0
  0
LINE
  8
0
 62
     5
 10
1.46623
 20
162.891
 30
0.0
 11
1.644
 21
162.974
 31
0.0
  0
LINE
  8
0
 62
     5
 10
1.644
 20
162.974
 30
0.0
 11
1.82866
 21
163.041
 31
0.0
  0
LINE
  8
0
 62
     5
 10
1.82866
 20
163.041
 30
0.0
 11
2.01745
 21
163.095
 31
0.0
  0
LINE
  8
0
 62
     5
 10
2.01745
 20
163.095
 30
0.0
 11
2.209
 21
163.134
 31
0.0
  0
LINE
  8
0
 62
     5
 10
2.209
 20
163.134
 30
0.0
 11
2.40468
 21
163.157
 31
0.0
  0
LINE
  8
0
 62
     5
 10
2.40468
 20
163.157
 30
0.0
 11
2.60036
 21
163.164
 31
0.0
  0
LINE
  8
0
 62
     5
 10
2.60036
 20
163.164
 30
0.0
 11
235.439
 21
163.164
 31
0.0
  0
LINE
  8
0
 62
     5
 10
235.439
 20
163.164
 30
0.0
 11
235.635
 21
163.157
 31
0.0
  0
LINE
  8
0
 62
     5
 10
235.635
 20
163.157
 30
0.0
 11
235.831
 21
163.134
 31
0.0
  0
LINE
  8
0
 62
     5
 10
235.831
 20
163.134
 30
0.0
 11
236.024
 21
163.095
 31
0.0
  0
LINE
  8
0
 62
     5
 10
236.024
 20
163.095
 30
0.0
 11
236.212
 21
163.041
 31
0.0
  0
LINE
  8
0
 62
     5
 10
236.212
 20
163.041
 30
0.0
 11
236.396
 21
162.974
 31
0.0
  0
LINE
  8
0
 62
     5
 10
236.396
 20
162.974
 30
0.0
 11
236.573
 21
162.891
 31
0.0
  0
LINE
  8
0
 62
     5
 10
236.573
 20
162.891
 30
0.0
 11
236.746
 21
162.796
 31
0.0
  0
LINE
  8
0
 62
     5
 10
236.746
 20
162.796
 30
0.0
 11
236.908
 21
162.687
 31
0.0
  0
LINE
  8
0
 62
     5
 10
236.908
 20
162.687
 30
0.0
 11
237.062
 21
162.566
 31
0.0
  0
LINE
  8
0
 62
     5
 10
237.062
 20
162.566
 30
0.0
 11
237.207
 21
162.432
 31
0.0
  0
LINE
  8
0
 62
     5
 10
237.207
 20
162.432
 30
0.0
 11
237.339
 21
162.287
 31
0.0
  0
LINE
  8
0
 62
     5
 10
237.339
 20
162.287
 30
0.0
 11
237.462
 21
162.133
 31
0.0
  0
LINE
  8
0
 62
     5
 10
237.462
 20
162.133
 30
0.0
 11
237.571
 21
161.971
 31
0.0
  0
LINE
  8
0
 62
     5
 10
237.571
 20
161.971
 30
0.0
 11
237.667
 21
161.798
 31
0.0
  0
LINE
  8
0
 62
     5
 10
237.667
 20
161.798
 30
0.0
 11
237.749
 21
161.621
 31
0.0
  0
LINE
  8
0
 62
     5
 10
237.749
 20
161.621
 30
0.0
 11
237.816
 21
161.436
 31
0.0
  0
LINE
  8
0
 62
     5
 10
237.816
 20
161.436
 30
0.0
 11
237.87
 21
161.247
 31
0.0
  0
LINE
  8
0
 62
     5
 10
237.87
 20
161.247
 30
0.0
 11
237.909
 21
161.055
 31
0.0
  0
LINE
  8
0
 62
     5
 10
237.909
 20
161.055
 30
0.0
 11
237.931
 21
160.86
 31
0.0
  0
LINE
  8
0
 62
     5
 10
237.931
 20
160.86
 30
0.0
 11
237.939
 21
160.664
 31
0.0
  0
LINE
  8
0
 62
     5
 10
237.939
 20
160.664
 30
0.0
 11
237.939
 21
2.60036
 31
0.0
  0
LINE
  8
0
 62
     5
 10
237.939
 20
2.60036
 30
0.0
 11
237.931
 21
2.40468
 31
0.0
  0
LINE
  8
0
 62
     5
 10
237.931
 20
2.40468
 30
0.0
 11
237.909
 21
2.209
 31
0.0
  0
LINE
  8
0
 62
     5
 10
237.909
 20
2.209
 30
0.0
 11
237.87
 21
2.01607
 31
0.0
  0
LINE
  8
0
 62
     5
 10
237.87
 20
2.01607
 30
0.0
 11
237.816
 21
1.82728
 31
0.0
  0
LINE
  8
0
 62
     5
 10
237.816
 20
1.82728
 30
0.0
 11
237.749
 21
1.644
 31
0.0
  0
LINE
  8
0
 62
     5
 10
237.749
 20
1.644
 30
0.0
 11
237.667
 21
1.46485
 31
0.0
  0
LINE
  8
0
 62
     5
 10
237.667
 20
1.46485
 30
0.0
 11
237.571
 21
1.29398
 31
0.0
  0
LINE
  8
0
 62
     5
 10
237.571
 20
1.29398
 30
0.0
 11
237.462
 21
1.13137
 31
0.0
  0
LINE
  8
0
 62
     5
 10
237.462
 20
1.13137
 30
0.0
 11
237.339
 21
0.977029
 31
0.0
  0
LINE
  8
0
 62
     5
 10
237.339
 20
0.977029
 30
0.0
 11
237.207
 21
0.832337
 31
0.0
  0
LINE
  8
0
 62
     5
 10
237.207
 20
0.832337
 30
0.0
 11
237.062
 21
0.700045
 31
0.0
  0
LINE
  8
0
 62
     5
 10
237.062
 20
0.700045
 30
0.0
 11
236.908
 21
0.577398
 31
0.0
  0
LINE
  8
0
 62
     5
 10
236.908
 20
0.577398
 30
0.0
 11
236.746
 21
0.468535
 31
0.0
  0
LINE
  8
0
 62
     5
 10
236.746
 20
0.468535
 30
0.0
 11
236.573
 21
0.372071
 31
0.0
  0
LINE
  8
0
 62
     5
 10
236.573
 20
0.372071
 30
0.0
 11
236.396
 21
0.290766
 31
0.0
  0
LINE
  8
0
 62
     5
 10
236.396
 20
0.290766
 30
0.0
 11
236.212
 21
0.221864
 31
0.0
  0
LINE
  8
0
 62
     5
 10
236.212
 20
0.221864
 30
0.0
 11
236.024
 21
0.169499
 31
0.0
  0
LINE
  8
0
 62
     5
 10
236.024
 20
0.169499
 30
0.0
 11
235.831
 21
0.130914
 31
0.0
  0
LINE
  8
0
 62
     5
 10
235.831
 20
0.130914
 30
0.0
 11
235.635
 21
0.108865
 31
0.0
  0
LINE
  8
0
 62
     5
 10
235.635
 20
0.108865
 30
0.0
 11
235.439
 21
0.100597
 31
0.0
  0
LINE
  8
0
 62
     5
 10
235.439
 20
0.100597
 30
0.0
 11
2.60036
 21
0.100597
 31
0.0
  0
LINE
  8
0
 62
     5
 10
2.60036
 20
0.100597
 30
0.0
 11
2.40468
 21
0.108865
 31
0.0
  0
LINE
  8
0
 62
     5
 10
2.40468
 20
0.108865
 30
0.0
 11
2.209
 21
0.130914
 31
0.0
  0
LINE
  8
0
 62
     5
 10
2.209
 20
0.130914
 30
0.0
 11
2.01745
 21
0.169499
 31
0.0
  0
LINE
  8
0
 62
     5
 10
2.01745
 20
0.169499
 30
0.0
 11
1.82866
 21
0.221864
 31
0.0
  0
LINE
  8
0
 62
     5
 10
1.82866
 20
0.221864
 30
0.0
 11
1.644
 21
0.290766
 31
0.0
  0
LINE
  8
0
 62
     5
 10
1.644
 20
0.290766
 30
0.0
 11
1.46623
 21
0.372071
 31
0.0
  0
LINE
  8
0
 62
     5
 10
1.46623
 20
0.372071
 30
0.0
 11
1.29398
 21
0.468535
 31
0.0
  0
LINE
  8
0
 62
     5
 10
1.29398
 20
0.468535
 30
0.0
 11
1.13137
 21
0.577398
 31
0.0
  0
LINE
  8
0
 62
     5
 10
1.13137
 20
0.577398
 30
0.0
 11
0.977029
 21
0.700045
 31
0.0
  0
LINE
  8
0
 62
     5
 10
0.977029
 20
0.700045
 30
0.0
 11
0.832337
 21
0.832337
 31
0.0
  0
LINE
  8
0
 62
     5
 10
0.832337
 20
0.832337
 30
0.0
 11
0.698666
 21
0.977029
 31
0.0
  0
LINE
  8
0
 62
     5
 10
0.698666
 20
0.977029
 30
0.0
 11
0.577398
 21
1.13137
 31
0.0
  0
LINE
  8
0
 62
     5
 10
0.577398
 20
1.13137
 30
0.0
 11
0.468535
 21
1.29398
 31
0.0
  0
LINE
  8
0
 62
     5
 10
0.468535
 20
1.29398
 30
0.0
 11
0.373447
 21
1.46485
 31
0.0
  0
LINE
  8
0
 62
     5
 10
0.373447
 20
1.46485
 30
0.0
 11
0.290766
 21
1.644
 31
0.0
  0
LINE
  8
0
 62
     5
 10
0.290766
 20
1.644
 30
0.0
 11
0.223242
 21
1.82728
 31
0.0
  0
LINE
  8
0
 62
     5
 10
0.223242
 20
1.82728
 30
0.0
 11
0.169499
 21
2.01607
 31
0.0
  0
LINE
  8
0
 62
     5
 10
0.169499
 20
2.01607
 30
0.0
 11
0.130914
 21
2.209
 31
0.0
  0
LINE
  8
0
 62
     5
 10
0.130914
 20
2.209
 30
0.0
 11
0.107487
 21
2.40468
 31
0.0
  0
LINE
  8
0
 62
     5
 10
0.107487
 20
2.40468
 30
0.0
 11
0.100597
 21
2.60036
 31
0.0
  0
LINE
  8
0
 62
     5
 10
0.100597
 20
2.60036
 30
0.0
 11
0.100597
 21
160.664
 31
0.0
  0
LINE
  8
0
 62
     5
 10
0.100597
 20
160.664
 30
0.0
 11
0.107487
 21
160.86
 31
0.0
  0
LINE
  8
0
 62
     5
 10
0.107487
 20
160.86
 30
0.0
 11
0.130914
 21
161.055
 31
0.0
  0
LINE
  8
0
 62
     5
 10
0.130914
 20
161.055
 30
0.0
 11
0.169499
 21
161.247
 31
0.0
  0
LINE
  8
0
 62
     5
 10
0.169499
 20
161.247
 30
0.0
 11
0.223242
 21
161.436
 31
0.0
  0
LINE
  8
0
 62
     5
 10
0.223242
 20
161.436
 30
0.0
 11
0.290766
 21
161.621
 31
0.0
  0
LINE
  8
0
 62
     5
 10
0.290766
 20
161.621
 30
0.0
 11
0.373447
 21
161.798
 31
0.0
  0
LINE
  8
0
 62
     5
 10
0.373447
 20
161.798
 30
0.0
 11
0.468535
 21
161.971
 31
0.0
  0
LINE
  8
0
 62
     5
 10
0.468535
 20
161.971
 30
0.0
 11
0.577398
 21
162.133
 31
0.0
  0
LINE
  8
0
 62
     5
 10
0.577398
 20
162.133
 30
0.0
 11
0.698666
 21
162.287
 31
0.0
  0
LINE
  8
0
 62
     5
 10
0.698666
 20
162.287
 30
0.0
 11
0.832337
 21
162.432
 31
0.0
  0
LINE
  8
0
 62
     5
 10
0.832337
 20
162.432
 30
0.0
 11
0.977029
 21
162.566
 31
0.0
  0
LINE
  8
0
 62
     5
 10
7.09965
 20
83.3025
 30
0.0
 11
7.09965
 21
64.2511
 31
0.0
  0
LINE
  8
0
 62
     5
 10
7.09965
 20
64.2511
 30
0.0
 11
11.8622
 21
64.2511
 31
0.0
  0
LINE
  8
0
 62
     5
 10
11.8622
 20
64.2511
 30
0.0
 11
11.8622
 21
45.2011
 31
0.0
  0
LINE
  8
0
 62
     5
 10
11.8622
 20
45.2011
 30
0.0
 11
21.3872
 21
45.2011
 31
0.0
  0
LINE
  8
0
 62
     5
 10
21.3872
 20
45.2011
 30
0.0
 11
21.3872
 21
26.1524
 31
0.0
  0
LINE
  8
0
 62
     5
 10
21.3872
 20
26.1524
 30
0.0
 11
7.09965
 21
26.1524
 31
0.0
  0
LINE
  8
0
 62
     5
 10
7.09965
 20
26.1524
 30
0.0
 11
7.09965
 21
7.10103
 31
0.0
  0
LINE
  8
0
 62
     5
 10
7.09965
 20
7.10103
 30
0.0
 11
169.027
 21
7.10103
 31
0.0
  0
LINE
  8
0
 62
     5
 10
169.027
 20
7.10103
 30
0.0
 11
169.027
 21
102.352
 31
0.0
  0
LINE
  8
0
 62
     5
 10
169.027
 20
102.352
 30
0.0
 11
16.6247
 21
102.352
 31
0.0
  0
LINE
  8
0
 62
     5
 10
16.6247
 20
102.352
 30
0.0
 11
16.6247
 21
83.3025
 31
0.0
  0
LINE
  8
0
 62
     5
 10
16.6247
 20
83.3025
 30
0.0
 11
7.09965
 21
83.3025
 31
0.0
  0
LINE
  8
0
 62
     5
 10
173.787
 20
45.2025
 30
0.0
 11
230.939
 21
45.2025
 31
0.0
  0
LINE
  8
0
 62
     5
 10
230.939
 20
45.2025
 30
0.0
 11
230.939
 21
7.10103
 31
0.0
  0
LINE
  8
0
 62
     5
 10
230.939
 20
7.10103
 30
0.0
 11
173.787
 21
7.10103
 31
0.0
  0
LINE
  8
0
 62
     5
 10
173.787
 20
7.10103
 30
0.0
 11
173.787
 21
45.2025
 31
0.0
  0
LINE
  8
0
 62
     5
 10
173.787
 20
102.352
 30
0.0
 11
230.939
 21
102.352
 31
0.0
  0
LINE
  8
0
 62
     5
 10
230.939
 20
102.352
 30
0.0
 11
230.939
 21
64.2511
 31
0.0
  0
LINE
  8
0
 62
     5
 10
230.939
 20
64.2511
 30
0.0
 11
173.787
 21
64.2511
 31
0.0
  0
LINE
  8
0
 62
     5
 10
173.787
 20
64.2511
 30
0.0
 11
173.787
 21
102.352
 31
0.0
  0
LINE
  8
0
 62
     5
 10
173.787
 20
126.165
 30
0.0
 11
230.939
 21
126.165
 31
0.0
  0
LINE
  8
0
 62
     5
 10
230.939
 20
126.165
 30
0.0
 11
230.939
 21
107.112
 31
0.0
  0
LINE
  8
0
 62
     5
 10
230.939
 20
107.112
 30
0.0
 11
173.787
 21
107.112
 31
0.0
  0
LINE
  8
0
 62
     5
 10
173.787
 20
107.112
 30
0.0
 11
173.787
 21
126.165
 31
0.0
  0
LINE
  8
0
 62
     5
 10
7.09965
 20
126.165
 30
0.0
 11
45.2025
 21
126.165
 31
0.0
  0
LINE
  8
0
 62
     5
 10
45.2025
 20
126.165
 30
0.0
 11
45.2025
 21
107.114
 31
0.0
  0
LINE
  8
0
 62
     5
 10
45.2025
 20
107.114
 30
0.0
 11
7.09965
 21
107.114
 31
0.0
  0
LINE
  8
0
 62
     5
 10
7.09965
 20
107.114
 30
0.0
 11
7.09965
 21
126.165
 31
0.0
  0
LINE
  8
0
 62
     5
 10
49.9622
 20
126.165
 30
0.0
 11
126.164
 21
126.165
 31
0.0
  0
LINE
  8
0
 62
     5
 10
126.164
 20
126.165
 30
0.0
 11
126.164
 21
107.114
 31
0.0
  0
LINE
  8
0
 62
     5
 10
126.164
 20
107.114
 30
0.0
 11
49.9622
 21
107.114
 31
0.0
  0
LINE
  8
0
 62
     5
 10
49.9622
 20
107.114
 30
0.0
 11
49.9622
 21
126.165
 31
0.0
  0
LINE
  8
0
 62
     5
 10
130.925
 20
126.165
 30
0.0
 11
169.027
 21
126.165
 31
0.0
  0
LINE
  8
0
 62
     5
 10
169.027
 20
126.165
 30
0.0
 11
169.027
 21
107.114
 31
0.0
  0
LINE
  8
0
 62
     5
 10
169.027
 20
107.114
 30
0.0
 11
130.925
 21
107.114
 31
0.0
  0
LINE
  8
0
 62
     5
 10
130.925
 20
107.114
 30
0.0
 11
130.925
 21
126.165
 31
0.0
  0
LINE
  8
0
 62
     5
 10
119.651
 20
159.841
 30
0.0
 11
119.56
 21
159.395
 31
0.0
  0
LINE
  8
0
 62
     5
 10
119.56
 20
159.395
 30
0.0
 11
119.313
 21
159.028
 31
0.0
  0
LINE
  8
0
 62
     5
 10
119.313
 20
159.028
 30
0.0
 11
118.948
 21
158.782
 31
0.0
  0
LINE
  8
0
 62
     5
 10
118.948
 20
158.782
 30
0.0
 11
118.502
 21
158.691
 31
0.0
  0
LINE
  8
0
 62
     5
 10
118.502
 20
158.691
 30
0.0
 11
118.054
 21
158.782
 31
0.0
  0
LINE
  8
0
 62
     5
 10
118.054
 20
158.782
 30
0.0
 11
117.687
 21
159.028
 31
0.0
  0
LINE
  8
0
 62
     5
 10
117.687
 20
159.028
 30
0.0
 11
117.44
 21
159.395
 31
0.0
  0
LINE
  8
0
 62
     5
 10
117.44
 20
159.395
 30
0.0
 11
117.351
 21
159.841
 31
0.0
  0
LINE
  8
0
 62
     5
 10
117.351
 20
159.841
 30
0.0
 11
117.44
 21
160.289
 31
0.0
  0
LINE
  8
0
 62
     5
 10
117.44
 20
160.289
 30
0.0
 11
117.687
 21
160.654
 31
0.0
  0
LINE
  8
0
 62
     5
 10
117.687
 20
160.654
 30
0.0
 11
118.054
 21
160.901
 31
0.0
  0
LINE
  8
0
 62
     5
 10
118.054
 20
160.901
 30
0.0
 11
118.502
 21
160.991
 31
0.0
  0
LINE
  8
0
 62
     5
 10
118.502
 20
160.991
 30
0.0
 11
118.948
 21
160.901
 31
0.0
  0
LINE
  8
0
 62
     5
 10
118.948
 20
160.901
 30
0.0
 11
119.313
 21
160.654
 31
0.0
  0
LINE
  8
0
 62
     5
 10
119.313
 20
160.654
 30
0.0
 11
119.56
 21
160.289
 31
0.0
  0
LINE
  8
0
 62
     5
 10
119.56
 20
160.289
 30
0.0
 11
119.651
 21
159.841
 31
0.0
  0
LINE
  8
0
 62
     5
 10
235.412
 20
138.482
 30
0.0
 11
235.321
 21
138.035
 31
0.0
  0
LINE
  8
0
 62
     5
 10
235.321
 20
138.035
 30
0.0
 11
235.074
 21
137.669
 31
0.0
  0
LINE
  8
0
 62
     5
 10
235.074
 20
137.669
 30
0.0
 11
234.708
 21
137.422
 31
0.0
  0
LINE
  8
0
 62
     5
 10
234.708
 20
137.422
 30
0.0
 11
234.261
 21
137.331
 31
0.0
  0
LINE
  8
0
 62
     5
 10
234.261
 20
137.331
 30
0.0
 11
233.813
 21
137.422
 31
0.0
  0
LINE
  8
0
 62
     5
 10
233.813
 20
137.422
 30
0.0
 11
233.448
 21
137.669
 31
0.0
  0
LINE
  8
0
 62
     5
 10
233.448
 20
137.669
 30
0.0
 11
233.201
 21
138.035
 31
0.0
  0
LINE
  8
0
 62
     5
 10
233.201
 20
138.035
 30
0.0
 11
233.112
 21
138.482
 31
0.0
  0
LINE
  8
0
 62
     5
 10
233.112
 20
138.482
 30
0.0
 11
233.201
 21
138.93
 31
0.0
  0
LINE
  8
0
 62
     5
 10
233.201
 20
138.93
 30
0.0
 11
233.448
 21
139.295
 31
0.0
  0
LINE
  8
0
 62
     5
 10
233.448
 20
139.295
 30
0.0
 11
233.813
 21
139.542
 31
0.0
  0
LINE
  8
0
 62
     5
 10
233.813
 20
139.542
 30
0.0
 11
234.261
 21
139.631
 31
0.0
  0
LINE
  8
0
 62
     5
 10
234.261
 20
139.631
 30
0.0
 11
234.708
 21
139.542
 31
0.0
  0
LINE
  8
0
 62
     5
 10
234.708
 20
139.542
 30
0.0
 11
235.074
 21
139.295
 31
0.0
  0
LINE
  8
0
 62
     5
 10
235.074
 20
139.295
 30
0.0
 11
235.321
 21
138.93
 31
0.0
  0
LINE
  8
0
 62
     5
 10
235.321
 20
138.93
 30
0.0
 11
235.412
 21
138.482
 31
0.0
  0
LINE
  8
0
 62
     5
 10
235.412
 20
74.1345
 30
0.0
 11
235.321
 21
73.6879
 31
0.0
  0
LINE
  8
0
 62
     5
 10
235.321
 20
73.6879
 30
0.0
 11
235.074
 21
73.3227
 31
0.0
  0
LINE
  8
0
 62
     5
 10
235.074
 20
73.3227
 30
0.0
 11
234.708
 21
73.0762
 31
0.0
  0
LINE
  8
0
 62
     5
 10
234.708
 20
73.0762
 30
0.0
 11
234.261
 21
72.9851
 31
0.0
  0
LINE
  8
0
 62
     5
 10
234.261
 20
72.9851
 30
0.0
 11
233.813
 21
73.0762
 31
0.0
  0
LINE
  8
0
 62
     5
 10
233.813
 20
73.0762
 30
0.0
 11
233.448
 21
73.3227
 31
0.0
  0
LINE
  8
0
 62
     5
 10
233.448
 20
73.3227
 30
0.0
 11
233.201
 21
73.6879
 31
0.0
  0
LINE
  8
0
 62
     5
 10
233.201
 20
73.6879
 30
0.0
 11
233.112
 21
74.1345
 31
0.0
  0
LINE
  8
0
 62
     5
 10
233.112
 20
74.1345
 30
0.0
 11
233.201
 21
74.5822
 31
0.0
  0
LINE
  8
0
 62
     5
 10
233.201
 20
74.5822
 30
0.0
 11
233.448
 21
74.9487
 31
0.0
  0
LINE
  8
0
 62
     5
 10
233.448
 20
74.9487
 30
0.0
 11
233.813
 21
75.1953
 31
0.0
  0
LINE
  8
0
 62
     5
 10
233.813
 20
75.1953
 30
0.0
 11
234.261
 21
75.2849
 31
0.0
  0
LINE
  8
0
 62
     5
 10
234.261
 20
75.2849
 30
0.0
 11
234.708
 21
75.1953
 31
0.0
  0
LINE
  8
0
 62
     5
 10
234.708
 20
75.1953
 30
0.0
 11
235.074
 21
74.9487
 31
0.0
  0
LINE
  8
0
 62
     5
 10
235.074
 20
74.9487
 30
0.0
 11
235.321
 21
74.5822
 31
0.0
  0
LINE
  8
0
 62
     5
 10
235.321
 20
74.5822
 30
0.0
 11
235.412
 21
74.1345
 31
0.0
  0
LINE
  8
0
 62
     5
 10
235.412
 20
23.6775
 30
0.0
 11
235.321
 21
23.231
 31
0.0
  0
LINE
  8
0
 62
     5
 10
235.321
 20
23.231
 30
0.0
 11
235.074
 21
22.8644
 31
0.0
  0
LINE
  8
0
 62
     5
 10
235.074
 20
22.8644
 30
0.0
 11
234.708
 21
22.6177
 31
0.0
  0
LINE
  8
0
 62
     5
 10
234.708
 20
22.6177
 30
0.0
 11
234.261
 21
22.5268
 31
0.0
  0
LINE
  8
0
 62
     5
 10
234.261
 20
22.5268
 30
0.0
 11
233.813
 21
22.6177
 31
0.0
  0
LINE
  8
0
 62
     5
 10
233.813
 20
22.6177
 30
0.0
 11
233.448
 21
22.8644
 31
0.0
  0
LINE
  8
0
 62
     5
 10
233.448
 20
22.8644
 30
0.0
 11
233.201
 21
23.231
 31
0.0
  0
LINE
  8
0
 62
     5
 10
233.201
 20
23.231
 30
0.0
 11
233.112
 21
23.6775
 31
0.0
  0
LINE
  8
0
 62
     5
 10
233.112
 20
23.6775
 30
0.0
 11
233.201
 21
24.1253
 31
0.0
  0
LINE
  8
0
 62
     5
 10
233.201
 20
24.1253
 30
0.0
 11
233.448
 21
24.4905
 31
0.0
  0
LINE
  8
0
 62
     5
 10
233.448
 20
24.4905
 30
0.0
 11
233.813
 21
24.7372
 31
0.0
  0
LINE
  8
0
 62
     5
 10
233.813
 20
24.7372
 30
0.0
 11
234.261
 21
24.8267
 31
0.0
  0
LINE
  8
0
 62
     5
 10
234.261
 20
24.8267
 30
0.0
 11
234.708
 21
24.7372
 31
0.0
  0
LINE
  8
0
 62
     5
 10
234.708
 20
24.7372
 30
0.0
 11
235.074
 21
24.4905
 31
0.0
  0
LINE
  8
0
 62
     5
 10
235.074
 20
24.4905
 30
0.0
 11
235.321
 21
24.1253
 31
0.0
  0
LINE
  8
0
 62
     5
 10
235.321
 20
24.1253
 30
0.0
 11
235.412
 21
23.6775
 31
0.0
  0
LINE
  8
0
 62
     5
 10
4.60816
 20
138.482
 30
0.0
 11
4.51721
 21
138.035
 31
0.0
  0
LINE
  8
0
 62
     5
 10
4.51721
 20
138.035
 30
0.0
 11
4.27055
 21
137.669
 31
0.0
  0
LINE
  8
0
 62
     5
 10
4.27055
 20
137.669
 30
0.0
 11
3.90536
 21
137.422
 31
0.0
  0
LINE
  8
0
 62
     5
 10
3.90536
 20
137.422
 30
0.0
 11
3.45888
 21
137.331
 31
0.0
  0
LINE
  8
0
 62
     5
 10
3.45888
 20
137.331
 30
0.0
 11
3.01101
 21
137.422
 31
0.0
  0
LINE
  8
0
 62
     5
 10
3.01101
 20
137.422
 30
0.0
 11
2.64445
 21
137.669
 31
0.0
  0
LINE
  8
0
 62
     5
 10
2.64445
 20
137.669
 30
0.0
 11
2.39779
 21
138.035
 31
0.0
  0
LINE
  8
0
 62
     5
 10
2.39779
 20
138.035
 30
0.0
 11
2.30821
 21
138.482
 31
0.0
  0
LINE
  8
0
 62
     5
 10
2.30821
 20
138.482
 30
0.0
 11
2.39779
 21
138.93
 31
0.0
  0
LINE
  8
0
 62
     5
 10
2.39779
 20
138.93
 30
0.0
 11
2.64445
 21
139.295
 31
0.0
  0
LINE
  8
0
 62
     5
 10
2.64445
 20
139.295
 30
0.0
 11
3.01101
 21
139.542
 31
0.0
  0
LINE
  8
0
 62
     5
 10
3.01101
 20
139.542
 30
0.0
 11
3.45888
 21
139.631
 31
0.0
  0
LINE
  8
0
 62
     5
 10
3.45888
 20
139.631
 30
0.0
 11
3.90536
 21
139.542
 31
0.0
  0
LINE
  8
0
 62
     5
 10
3.90536
 20
139.542
 30
0.0
 11
4.27055
 21
139.295
 31
0.0
  0
LINE
  8
0
 62
     5
 10
4.27055
 20
139.295
 30
0.0
 11
4.51721
 21
138.93
 31
0.0
  0
LINE
  8
0
 62
     5
 10
4.51721
 20
138.93
 30
0.0
 11
4.60816
 21
138.482
 31
0.0
  0
LINE
  8
0
 62
     5
 10
4.60816
 20
74.1345
 30
0.0
 11
4.51721
 21
73.6879
 31
0.0
  0
LINE
  8
0
 62
     5
 10
4.51721
 20
73.6879
 30
0.0
 11
4.27055
 21
73.3227
 31
0.0
  0
LINE
  8
0
 62
     5
 10
4.27055
 20
73.3227
 30
0.0
 11
3.90536
 21
73.0762
 31
0.0
  0
LINE
  8
0
 62
     5
 10
3.90536
 20
73.0762
 30
0.0
 11
3.45888
 21
72.9851
 31
0.0
  0
LINE
  8
0
 62
     5
 10
3.45888
 20
72.9851
 30
0.0
 11
3.01101
 21
73.0762
 31
0.0
  0
LINE
  8
0
 62
     5
 10
3.01101
 20
73.0762
 30
0.0
 11
2.64445
 21
73.3227
 31
0.0
  0
LINE
  8
0
 62
     5
 10
2.64445
 20
73.3227
 30
0.0
 11
2.39779
 21
73.6879
 31
0.0
  0
LINE
  8
0
 62
     5
 10
2.39779
 20
73.6879
 30
0.0
 11
2.30821
 21
74.1345
 31
0.0
  0
LINE
  8
0
 62
     5
 10
2.30821
 20
74.1345
 30
0.0
 11
2.39779
 21
74.5822
 31
0.0
  0
LINE
  8
0
 62
     5
 10
2.39779
 20
74.5822
 30
0.0
 11
2.64445
 21
74.9487
 31
0.0
  0
LINE
  8
0
 62
     5
 10
2.64445
 20
74.9487
 30
0.0
 11
3.01101
 21
75.1953
 31
0.0
  0
LINE
  8
0
 62
     5
 10
3.01101
 20
75.1953
 30
0.0
 11
3.45888
 21
75.2849
 31
0.0
  0
LINE
  8
0
 62
     5
 10
3.45888
 20
75.2849
 30
0.0
 11
3.90536
 21
75.1953
 31
0.0
  0
LINE
  8
0
 62
     5
 10
3.90536
 20
75.1953
 30
0.0
 11
4.27055
 21
74.9487
 31
0.0
  0
LINE
  8
0
 62
     5
 10
4.27055
 20
74.9487
 30
0.0
 11
4.51721
 21
74.5822
 31
0.0
  0
LINE
  8
0
 62
     5
 10
4.51721
 20
74.5822
 30
0.0
 11
4.60816
 21
74.1345
 31
0.0
  0
LINE
  8
0
 62
     5
 10
4.60816
 20
23.6775
 30
0.0
 11
4.51721
 21
23.231
 31
0.0
  0
LINE
  8
0
 62
     5
 10
4.51721
 20
23.231
 30
0.0
 11
4.27055
 21
22.8644
 31
0.0
  0
LINE
  8
0
 62
     5
 10
4.27055
 20
22.8644
 30
0.0
 11
3.90536
 21
22.6177
 31
0.0
  0
LINE
  8
0
 62
     5
 10
3.90536
 20
22.6177
 30
0.0
 11
3.45888
 21
22.5268
 31
0.0
  0
LINE
  8
0
 62
     5
 10
3.45888
 20
22.5268
 30
0.0
 11
3.01101
 21
22.6177
 31
0.0
  0
LINE
  8
0
 62
     5
 10
3.01101
 20
22.6177
 30
0.0
 11
2.64445
 21
22.8644
 31
0.0
  0
LINE
  8
0
 62
     5
 10
2.64445
 20
22.8644
 30
0.0
 11
2.39779
 21
23.231
 31
0.0
  0
LINE
  8
0
 62
     5
 10
2.39779
 20
23.231
 30
0.0
 11
2.30821
 21
23.6775
 31
0.0
  0
LINE
  8
0
 62
     5
 10
2.30821
 20
23.6775
 30
0.0
 11
2.39779
 21
24.1253
 31
0.0
  0
LINE
  8
0
 62
     5
 10
2.39779
 20
24.1253
 30
0.0
 11
2.64445
 21
24.4905
 31
0.0
  0
LINE
  8
0
 62
     5
 10
2.64445
 20
24.4905
 30
0.0
 11
3.01101
 21
24.7372
 31
0.0
  0
LINE
  8
0
 62
     5
 10
3.01101
 20
24.7372
 30
0.0
 11
3.45888
 21
24.8267
 31
0.0
  0
LINE
  8
0
 62
     5
 10
3.45888
 20
24.8267
 30
0.0
 11
3.90536
 21
24.7372
 31
0.0
  0
LINE
  8
0
 62
     5
 10
3.90536
 20
24.7372
 30
0.0
 11
4.27055
 21
24.4905
 31
0.0
  0
LINE
  8
0
 62
     5
 10
4.27055
 20
24.4905
 30
0.0
 11
4.51721
 21
24.1253
 31
0.0
  0
LINE
  8
0
 62
     5
 10
4.51721
 20
24.1253
 30
0.0
 11
4.60816
 21
23.6775
 31
0.0
  0
LINE
  8
0
 62
     5
 10
27.1901
 20
159.841
 30
0.0
 11
27.0991
 21
159.395
 31
0.0
  0
LINE
  8
0
 62
     5
 10
27.0991
 20
159.395
 30
0.0
 11
26.8525
 21
159.028
 31
0.0
  0
LINE
  8
0
 62
     5
 10
26.8525
 20
159.028
 30
0.0
 11
26.4873
 21
158.782
 31
0.0
  0
LINE
  8
0
 62
     5
 10
26.4873
 20
158.782
 30
0.0
 11
26.0408
 21
158.691
 31
0.0
  0
LINE
  8
0
 62
     5
 10
26.0408
 20
158.691
 30
0.0
 11
25.5929
 21
158.782
 31
0.0
  0
LINE
  8
0
 62
     5
 10
25.5929
 20
158.782
 30
0.0
 11
25.2264
 21
159.028
 31
0.0
  0
LINE
  8
0
 62
     5
 10
25.2264
 20
159.028
 30
0.0
 11
24.9797
 21
159.395
 31
0.0
  0
LINE
  8
0
 62
     5
 10
24.9797
 20
159.395
 30
0.0
 11
24.8901
 21
159.841
 31
0.0
  0
LINE
  8
0
 62
     5
 10
24.8901
 20
159.841
 30
0.0
 11
24.9797
 21
160.289
 31
0.0
  0
LINE
  8
0
 62
     5
 10
24.9797
 20
160.289
 30
0.0
 11
25.2264
 21
160.654
 31
0.0
  0
LINE
  8
0
 62
     5
 10
25.2264
 20
160.654
 30
0.0
 11
25.5929
 21
160.901
 31
0.0
  0
LINE
  8
0
 62
     5
 10
25.5929
 20
160.901
 30
0.0
 11
26.0408
 21
160.991
 31
0.0
  0
LINE
  8
0
 62
     5
 10
26.0408
 20
160.991
 30
0.0
 11
26.4873
 21
160.901
 31
0.0
  0
LINE
  8
0
 62
     5
 10
26.4873
 20
160.901
 30
0.0
 11
26.8525
 21
160.654
 31
0.0
  0
LINE
  8
0
 62
     5
 10
26.8525
 20
160.654
 30
0.0
 11
27.0991
 21
160.289
 31
0.0
  0
LINE
  8
0
 62
     5
 10
27.0991
 20
160.289
 30
0.0
 11
27.1901
 21
159.841
 31
0.0
  0
LINE
  8
0
 62
     5
 10
213.12
 20
159.841
 30
0.0
 11
213.029
 21
159.395
 31
0.0
  0
LINE
  8
0
 62
     5
 10
213.029
 20
159.395
 30
0.0
 11
212.783
 21
159.028
 31
0.0
  0
LINE
  8
0
 62
     5
 10
212.783
 20
159.028
 30
0.0
 11
212.416
 21
158.782
 31
0.0
  0
LINE
  8
0
 62
     5
 10
212.416
 20
158.782
 30
0.0
 11
211.97
 21
158.691
 31
0.0
  0
LINE
  8
0
 62
     5
 10
211.97
 20
158.691
 30
0.0
 11
211.522
 21
158.782
 31
0.0
  0
LINE
  8
0
 62
     5
 10
211.522
 20
158.782
 30
0.0
 11
211.157
 21
159.028
 31
0.0
  0
LINE
  8
0
 62
     5
 10
211.157
 20
159.028
 30
0.0
 11
210.91
 21
159.395
 31
0.0
  0
LINE
  8
0
 62
     5
 10
210.91
 20
159.395
 30
0.0
 11
210.821
 21
159.841
 31
0.0
  0
LINE
  8
0
 62
     5
 10
210.821
 20
159.841
 30
0.0
 11
210.91
 21
160.289
 31
0.0
  0
LINE
  8
0
 62
     5
 10
210.91
 20
160.289
 30
0.0
 11
211.157
 21
160.654
 31
0.0
  0
LINE
  8
0
 62
     5
 10
211.157
 20
160.654
 30
0.0
 11
211.522
 21
160.901
 31
0.0
  0
LINE
  8
0
 62
     5
 10
211.522
 20
160.901
 30
0.0
 11
211.97
 21
160.991
 31
0.0
  0
LINE
  8
0
 62
     5
 10
211.97
 20
160.991
 30
0.0
 11
212.416
 21
160.901
 31
0.0
  0
LINE
  8
0
 62
     5
 10
212.416
 20
160.901
 30
0.0
 11
212.783
 21
160.654
 31
0.0
  0
LINE
  8
0
 62
     5
 10
212.783
 20
160.654
 30
0.0
 11
213.029
 21
160.289
 31
0.0
  0
LINE
  8
0
 62
     5
 10
213.029
 20
160.289
 30
0.0
 11
213.12
 21
159.841
 31
0.0
  0
LINE
  8
0
 62
     5
 10
120.216
 20
3.60497
 30
0.0
 11
120.125
 21
3.15847
 31
0.0
  0
LINE
  8
0
 62
     5
 10
120.125
 20
3.15847
 30
0.0
 11
119.878
 21
2.79328
 31
0.0
  0
LINE
  8
0
 62
     5
 10
119.878
 20
2.79328
 30
0.0
 11
119.512
 21
2.54661
 31
0.0
  0
LINE
  8
0
 62
     5
 10
119.512
 20
2.54661
 30
0.0
 11
119.065
 21
2.45566
 31
0.0
  0
LINE
  8
0
 62
     5
 10
119.065
 20
2.45566
 30
0.0
 11
118.617
 21
2.54661
 31
0.0
  0
LINE
  8
0
 62
     5
 10
118.617
 20
2.54661
 30
0.0
 11
118.252
 21
2.79328
 31
0.0
  0
LINE
  8
0
 62
     5
 10
118.252
 20
2.79328
 30
0.0
 11
118.006
 21
3.15847
 31
0.0
  0
LINE
  8
0
 62
     5
 10
118.006
 20
3.15847
 30
0.0
 11
117.916
 21
3.60497
 31
0.0
  0
LINE
  8
0
 62
     5
 10
117.916
 20
3.60497
 30
0.0
 11
118.006
 21
4.05282
 31
0.0
  0
LINE
  8
0
 62
     5
 10
118.006
 20
4.05282
 30
0.0
 11
118.252
 21
4.41935
 31
0.0
  0
LINE
  8
0
 62
     5
 10
118.252
 20
4.41935
 30
0.0
 11
118.617
 21
4.66605
 31
0.0
  0
LINE
  8
0
 62
     5
 10
118.617
 20
4.66605
 30
0.0
 11
119.065
 21
4.75562
 31
0.0
  0
LINE
  8
0
 62
     5
 10
119.065
 20
4.75562
 30
0.0
 11
119.512
 21
4.66605
 31
0.0
  0
LINE
  8
0
 62
     5
 10
119.512
 20
4.66605
 30
0.0
 11
119.878
 21
4.41935
 31
0.0
  0
LINE
  8
0
 62
     5
 10
119.878
 20
4.41935
 30
0.0
 11
120.125
 21
4.05282
 31
0.0
  0
LINE
  8
0
 62
     5
 10
120.125
 20
4.05282
 30
0.0
 11
120.216
 21
3.60497
 31
0.0
  0
LINE
  8
0
 62
     5
 10
27.1901
 20
3.60497
 30
0.0
 11
27.0991
 21
3.15847
 31
0.0
  0
LINE
  8
0
 62
     5
 10
27.0991
 20
3.15847
 30
0.0
 11
26.8525
 21
2.79328
 31
0.0
  0
LINE
  8
0
 62
     5
 10
26.8525
 20
2.79328
 30
0.0
 11
26.4873
 21
2.54661
 31
0.0
  0
LINE
  8
0
 62
     5
 10
26.4873
 20
2.54661
 30
0.0
 11
26.0408
 21
2.45566
 31
0.0
  0
LINE
  8
0
 62
     5
 10
26.0408
 20
2.45566
 30
0.0
 11
25.5929
 21
2.54661
 31
0.0
  0
LINE
  8
0
 62
     5
 10
25.5929
 20
2.54661
 30
0.0
 11
25.2264
 21
2.79328
 31
0.0
  0
LINE
  8
0
 62
     5
 10
25.2264
 20
2.79328
 30
0.0
 11
24.9797
 21
3.15847
 31
0.0
  0
LINE
  8
0
 62
     5
 10
24.9797
 20
3.15847
 30
0.0
 11
24.8901
 21
3.60497
 31
0.0
  0
LINE
  8
0
 62
     5
 10
24.8901
 20
3.60497
 30
0.0
 11
24.9797
 21
4.05282
 31
0.0
  0
LINE
  8
0
 62
     5
 10
24.9797
 20
4.05282
 30
0.0
 11
25.2264
 21
4.41935
 31
0.0
  0
LINE
  8
0
 62
     5
 10
25.2264
 20
4.41935
 30
0.0
 11
25.5929
 21
4.66605
 31
0.0
  0
LINE
  8
0
 62
     5
 10
25.5929
 20
4.66605
 30
0.0
 11
26.0408
 21
4.75562
 31
0.0
  0
LINE
  8
0
 62
     5
 10
26.0408
 20
4.75562
 30
0.0
 11
26.4873
 21
4.66605
 31
0.0
  0
LINE
  8
0
 62
     5
 10
26.4873
 20
4.66605
 30
0.0
 11
26.8525
 21
4.41935
 31
0.0
  0
LINE
  8
0
 62
     5
 10
26.8525
 20
4.41935
 30
0.0
 11
27.0991
 21
4.05282
 31
0.0
  0
LINE
  8
0
 62
     5
 10
27.0991
 20
4.05282
 30
0.0
 11
27.1901
 21
3.60497
 31
0.0
  0
LINE
  8
0
 62
     5
 10
213.12
 20
3.60497
 30
0.0
 11
213.029
 21
3.15847
 31
0.0
  0
LINE
  8
0
 62
     5
 10
213.029
 20
3.15847
 30
0.0
 11
212.783
 21
2.79328
 31
0.0
  0
LINE
  8
0
 62
     5
 10
212.783
 20
2.79328
 30
0.0
 11
212.416
 21
2.54661
 31
0.0
  0
LINE
  8
0
 62
     5
 10
212.416
 20
2.54661
 30
0.0
 11
211.97
 21
2.45566
 31
0.0
  0
LINE
  8
0
 62
     5
 10
211.97
 20
2.45566
 30
0.0
 11
211.522
 21
2.54661
 31
0.0
  0
LINE
  8
0
 62
     5
 10
211.522
 20
2.54661
 30
0.0
 11
211.157
 21
2.79328
 31
0.0
  0
LINE
  8
0
 62
     5
 10
211.157
 20
2.79328
 30
0.0
 11
210.91
 21
3.15847
 31
0.0
  0
LINE
  8
0
 62
     5
 10
210.91
 20
3.15847
 30
0.0
 11
210.821
 21
3.60497
 31
0.0
  0
LINE
  8
0
 62
     5
 10
210.821
 20
3.60497
 30
0.0
 11
210.91
 21
4.05282
 31
0.0
  0
LINE
  8
0
 62
     5
 10
210.91
 20
4.05282
 30
0.0
 11
211.157
 21
4.41935
 31
0.0
  0
LINE
  8
0
 62
     5
 10
211.157
 20
4.41935
 30
0.0
 11
211.522
 21
4.66605
 31
0.0
  0
LINE
  8
0
 62
     5
 10
211.522
 20
4.66605
 30
0.0
 11
211.97
 21
4.75562
 31
0.0
  0
LINE
  8
0
 62
     5
 10
211.97
 20
4.75562
 30
0.0
 11
212.416
 21
4.66605
 31
0.0
  0
LINE
  8
0
 62
     5
 10
212.416
 20
4.66605
 30
0.0
 11
212.783
 21
4.41935
 31
0.0
  0
LINE
  8
0
 62
     5
 10
212.783
 20
4.41935
 30
0.0
 11
213.029
 21
4.05282
 31
0.0
  0
LINE
  8
0
 62
     5
 10
213.029
 20
4.05282
 30
0.0
 11
213.12
 21
3.60497
 31
0.0
  0
LINE
  8
0
 62
     5
 10
58.6768
 20
150.599
 30
0.0
 11
178.478
 21
150.599
 31
0.0
  0
LINE
  8
0
 62
     5
 10
178.478
 20
150.599
 30
0.0
 11
178.478
 21
130.799
 31
0.0
  0
LINE
  8
0
 62
     5
 10
178.478
 20
130.799
 30
0.0
 11
58.6768
 21
130.799
 31
0.0
  0
LINE
  8
0
 62
     5
 10
58.6768
 20
130.799
 30
0.0
 11
58.6768
 21
150.599
 31
0.0
  0
ENDSEC
  0
EOF
