G75*
%MOIN*%
%OFA0B0*%
%FSLAX25Y25*%
%IPPOS*%
%LPD*%
%AMOC8*
5,1,8,0,0,1.08239X$1,22.5*
%
%ADD10C,0.00000*%
%ADD11C,0.12998*%
%ADD12OC8,0.05600*%
%ADD13C,0.06400*%
%ADD14OC8,0.06400*%
D10*
X0001800Y0001800D02*
X0001800Y0139595D01*
X0316761Y0139595D01*
X0316761Y0001800D01*
X0001800Y0001800D01*
X0007312Y0013611D02*
X0007314Y0013769D01*
X0007320Y0013927D01*
X0007330Y0014085D01*
X0007344Y0014243D01*
X0007362Y0014400D01*
X0007383Y0014557D01*
X0007409Y0014713D01*
X0007439Y0014869D01*
X0007472Y0015024D01*
X0007510Y0015177D01*
X0007551Y0015330D01*
X0007596Y0015482D01*
X0007645Y0015633D01*
X0007698Y0015782D01*
X0007754Y0015930D01*
X0007814Y0016076D01*
X0007878Y0016221D01*
X0007946Y0016364D01*
X0008017Y0016506D01*
X0008091Y0016646D01*
X0008169Y0016783D01*
X0008251Y0016919D01*
X0008335Y0017053D01*
X0008424Y0017184D01*
X0008515Y0017313D01*
X0008610Y0017440D01*
X0008707Y0017565D01*
X0008808Y0017687D01*
X0008912Y0017806D01*
X0009019Y0017923D01*
X0009129Y0018037D01*
X0009242Y0018148D01*
X0009357Y0018257D01*
X0009475Y0018362D01*
X0009596Y0018464D01*
X0009719Y0018564D01*
X0009845Y0018660D01*
X0009973Y0018753D01*
X0010103Y0018843D01*
X0010236Y0018929D01*
X0010371Y0019013D01*
X0010507Y0019092D01*
X0010646Y0019169D01*
X0010787Y0019241D01*
X0010929Y0019311D01*
X0011073Y0019376D01*
X0011219Y0019438D01*
X0011366Y0019496D01*
X0011515Y0019551D01*
X0011665Y0019602D01*
X0011816Y0019649D01*
X0011968Y0019692D01*
X0012121Y0019731D01*
X0012276Y0019767D01*
X0012431Y0019798D01*
X0012587Y0019826D01*
X0012743Y0019850D01*
X0012900Y0019870D01*
X0013058Y0019886D01*
X0013215Y0019898D01*
X0013374Y0019906D01*
X0013532Y0019910D01*
X0013690Y0019910D01*
X0013848Y0019906D01*
X0014007Y0019898D01*
X0014164Y0019886D01*
X0014322Y0019870D01*
X0014479Y0019850D01*
X0014635Y0019826D01*
X0014791Y0019798D01*
X0014946Y0019767D01*
X0015101Y0019731D01*
X0015254Y0019692D01*
X0015406Y0019649D01*
X0015557Y0019602D01*
X0015707Y0019551D01*
X0015856Y0019496D01*
X0016003Y0019438D01*
X0016149Y0019376D01*
X0016293Y0019311D01*
X0016435Y0019241D01*
X0016576Y0019169D01*
X0016715Y0019092D01*
X0016851Y0019013D01*
X0016986Y0018929D01*
X0017119Y0018843D01*
X0017249Y0018753D01*
X0017377Y0018660D01*
X0017503Y0018564D01*
X0017626Y0018464D01*
X0017747Y0018362D01*
X0017865Y0018257D01*
X0017980Y0018148D01*
X0018093Y0018037D01*
X0018203Y0017923D01*
X0018310Y0017806D01*
X0018414Y0017687D01*
X0018515Y0017565D01*
X0018612Y0017440D01*
X0018707Y0017313D01*
X0018798Y0017184D01*
X0018887Y0017053D01*
X0018971Y0016919D01*
X0019053Y0016783D01*
X0019131Y0016646D01*
X0019205Y0016506D01*
X0019276Y0016364D01*
X0019344Y0016221D01*
X0019408Y0016076D01*
X0019468Y0015930D01*
X0019524Y0015782D01*
X0019577Y0015633D01*
X0019626Y0015482D01*
X0019671Y0015330D01*
X0019712Y0015177D01*
X0019750Y0015024D01*
X0019783Y0014869D01*
X0019813Y0014713D01*
X0019839Y0014557D01*
X0019860Y0014400D01*
X0019878Y0014243D01*
X0019892Y0014085D01*
X0019902Y0013927D01*
X0019908Y0013769D01*
X0019910Y0013611D01*
X0019908Y0013453D01*
X0019902Y0013295D01*
X0019892Y0013137D01*
X0019878Y0012979D01*
X0019860Y0012822D01*
X0019839Y0012665D01*
X0019813Y0012509D01*
X0019783Y0012353D01*
X0019750Y0012198D01*
X0019712Y0012045D01*
X0019671Y0011892D01*
X0019626Y0011740D01*
X0019577Y0011589D01*
X0019524Y0011440D01*
X0019468Y0011292D01*
X0019408Y0011146D01*
X0019344Y0011001D01*
X0019276Y0010858D01*
X0019205Y0010716D01*
X0019131Y0010576D01*
X0019053Y0010439D01*
X0018971Y0010303D01*
X0018887Y0010169D01*
X0018798Y0010038D01*
X0018707Y0009909D01*
X0018612Y0009782D01*
X0018515Y0009657D01*
X0018414Y0009535D01*
X0018310Y0009416D01*
X0018203Y0009299D01*
X0018093Y0009185D01*
X0017980Y0009074D01*
X0017865Y0008965D01*
X0017747Y0008860D01*
X0017626Y0008758D01*
X0017503Y0008658D01*
X0017377Y0008562D01*
X0017249Y0008469D01*
X0017119Y0008379D01*
X0016986Y0008293D01*
X0016851Y0008209D01*
X0016715Y0008130D01*
X0016576Y0008053D01*
X0016435Y0007981D01*
X0016293Y0007911D01*
X0016149Y0007846D01*
X0016003Y0007784D01*
X0015856Y0007726D01*
X0015707Y0007671D01*
X0015557Y0007620D01*
X0015406Y0007573D01*
X0015254Y0007530D01*
X0015101Y0007491D01*
X0014946Y0007455D01*
X0014791Y0007424D01*
X0014635Y0007396D01*
X0014479Y0007372D01*
X0014322Y0007352D01*
X0014164Y0007336D01*
X0014007Y0007324D01*
X0013848Y0007316D01*
X0013690Y0007312D01*
X0013532Y0007312D01*
X0013374Y0007316D01*
X0013215Y0007324D01*
X0013058Y0007336D01*
X0012900Y0007352D01*
X0012743Y0007372D01*
X0012587Y0007396D01*
X0012431Y0007424D01*
X0012276Y0007455D01*
X0012121Y0007491D01*
X0011968Y0007530D01*
X0011816Y0007573D01*
X0011665Y0007620D01*
X0011515Y0007671D01*
X0011366Y0007726D01*
X0011219Y0007784D01*
X0011073Y0007846D01*
X0010929Y0007911D01*
X0010787Y0007981D01*
X0010646Y0008053D01*
X0010507Y0008130D01*
X0010371Y0008209D01*
X0010236Y0008293D01*
X0010103Y0008379D01*
X0009973Y0008469D01*
X0009845Y0008562D01*
X0009719Y0008658D01*
X0009596Y0008758D01*
X0009475Y0008860D01*
X0009357Y0008965D01*
X0009242Y0009074D01*
X0009129Y0009185D01*
X0009019Y0009299D01*
X0008912Y0009416D01*
X0008808Y0009535D01*
X0008707Y0009657D01*
X0008610Y0009782D01*
X0008515Y0009909D01*
X0008424Y0010038D01*
X0008335Y0010169D01*
X0008251Y0010303D01*
X0008169Y0010439D01*
X0008091Y0010576D01*
X0008017Y0010716D01*
X0007946Y0010858D01*
X0007878Y0011001D01*
X0007814Y0011146D01*
X0007754Y0011292D01*
X0007698Y0011440D01*
X0007645Y0011589D01*
X0007596Y0011740D01*
X0007551Y0011892D01*
X0007510Y0012045D01*
X0007472Y0012198D01*
X0007439Y0012353D01*
X0007409Y0012509D01*
X0007383Y0012665D01*
X0007362Y0012822D01*
X0007344Y0012979D01*
X0007330Y0013137D01*
X0007320Y0013295D01*
X0007314Y0013453D01*
X0007312Y0013611D01*
X0007312Y0127784D02*
X0007314Y0127942D01*
X0007320Y0128100D01*
X0007330Y0128258D01*
X0007344Y0128416D01*
X0007362Y0128573D01*
X0007383Y0128730D01*
X0007409Y0128886D01*
X0007439Y0129042D01*
X0007472Y0129197D01*
X0007510Y0129350D01*
X0007551Y0129503D01*
X0007596Y0129655D01*
X0007645Y0129806D01*
X0007698Y0129955D01*
X0007754Y0130103D01*
X0007814Y0130249D01*
X0007878Y0130394D01*
X0007946Y0130537D01*
X0008017Y0130679D01*
X0008091Y0130819D01*
X0008169Y0130956D01*
X0008251Y0131092D01*
X0008335Y0131226D01*
X0008424Y0131357D01*
X0008515Y0131486D01*
X0008610Y0131613D01*
X0008707Y0131738D01*
X0008808Y0131860D01*
X0008912Y0131979D01*
X0009019Y0132096D01*
X0009129Y0132210D01*
X0009242Y0132321D01*
X0009357Y0132430D01*
X0009475Y0132535D01*
X0009596Y0132637D01*
X0009719Y0132737D01*
X0009845Y0132833D01*
X0009973Y0132926D01*
X0010103Y0133016D01*
X0010236Y0133102D01*
X0010371Y0133186D01*
X0010507Y0133265D01*
X0010646Y0133342D01*
X0010787Y0133414D01*
X0010929Y0133484D01*
X0011073Y0133549D01*
X0011219Y0133611D01*
X0011366Y0133669D01*
X0011515Y0133724D01*
X0011665Y0133775D01*
X0011816Y0133822D01*
X0011968Y0133865D01*
X0012121Y0133904D01*
X0012276Y0133940D01*
X0012431Y0133971D01*
X0012587Y0133999D01*
X0012743Y0134023D01*
X0012900Y0134043D01*
X0013058Y0134059D01*
X0013215Y0134071D01*
X0013374Y0134079D01*
X0013532Y0134083D01*
X0013690Y0134083D01*
X0013848Y0134079D01*
X0014007Y0134071D01*
X0014164Y0134059D01*
X0014322Y0134043D01*
X0014479Y0134023D01*
X0014635Y0133999D01*
X0014791Y0133971D01*
X0014946Y0133940D01*
X0015101Y0133904D01*
X0015254Y0133865D01*
X0015406Y0133822D01*
X0015557Y0133775D01*
X0015707Y0133724D01*
X0015856Y0133669D01*
X0016003Y0133611D01*
X0016149Y0133549D01*
X0016293Y0133484D01*
X0016435Y0133414D01*
X0016576Y0133342D01*
X0016715Y0133265D01*
X0016851Y0133186D01*
X0016986Y0133102D01*
X0017119Y0133016D01*
X0017249Y0132926D01*
X0017377Y0132833D01*
X0017503Y0132737D01*
X0017626Y0132637D01*
X0017747Y0132535D01*
X0017865Y0132430D01*
X0017980Y0132321D01*
X0018093Y0132210D01*
X0018203Y0132096D01*
X0018310Y0131979D01*
X0018414Y0131860D01*
X0018515Y0131738D01*
X0018612Y0131613D01*
X0018707Y0131486D01*
X0018798Y0131357D01*
X0018887Y0131226D01*
X0018971Y0131092D01*
X0019053Y0130956D01*
X0019131Y0130819D01*
X0019205Y0130679D01*
X0019276Y0130537D01*
X0019344Y0130394D01*
X0019408Y0130249D01*
X0019468Y0130103D01*
X0019524Y0129955D01*
X0019577Y0129806D01*
X0019626Y0129655D01*
X0019671Y0129503D01*
X0019712Y0129350D01*
X0019750Y0129197D01*
X0019783Y0129042D01*
X0019813Y0128886D01*
X0019839Y0128730D01*
X0019860Y0128573D01*
X0019878Y0128416D01*
X0019892Y0128258D01*
X0019902Y0128100D01*
X0019908Y0127942D01*
X0019910Y0127784D01*
X0019908Y0127626D01*
X0019902Y0127468D01*
X0019892Y0127310D01*
X0019878Y0127152D01*
X0019860Y0126995D01*
X0019839Y0126838D01*
X0019813Y0126682D01*
X0019783Y0126526D01*
X0019750Y0126371D01*
X0019712Y0126218D01*
X0019671Y0126065D01*
X0019626Y0125913D01*
X0019577Y0125762D01*
X0019524Y0125613D01*
X0019468Y0125465D01*
X0019408Y0125319D01*
X0019344Y0125174D01*
X0019276Y0125031D01*
X0019205Y0124889D01*
X0019131Y0124749D01*
X0019053Y0124612D01*
X0018971Y0124476D01*
X0018887Y0124342D01*
X0018798Y0124211D01*
X0018707Y0124082D01*
X0018612Y0123955D01*
X0018515Y0123830D01*
X0018414Y0123708D01*
X0018310Y0123589D01*
X0018203Y0123472D01*
X0018093Y0123358D01*
X0017980Y0123247D01*
X0017865Y0123138D01*
X0017747Y0123033D01*
X0017626Y0122931D01*
X0017503Y0122831D01*
X0017377Y0122735D01*
X0017249Y0122642D01*
X0017119Y0122552D01*
X0016986Y0122466D01*
X0016851Y0122382D01*
X0016715Y0122303D01*
X0016576Y0122226D01*
X0016435Y0122154D01*
X0016293Y0122084D01*
X0016149Y0122019D01*
X0016003Y0121957D01*
X0015856Y0121899D01*
X0015707Y0121844D01*
X0015557Y0121793D01*
X0015406Y0121746D01*
X0015254Y0121703D01*
X0015101Y0121664D01*
X0014946Y0121628D01*
X0014791Y0121597D01*
X0014635Y0121569D01*
X0014479Y0121545D01*
X0014322Y0121525D01*
X0014164Y0121509D01*
X0014007Y0121497D01*
X0013848Y0121489D01*
X0013690Y0121485D01*
X0013532Y0121485D01*
X0013374Y0121489D01*
X0013215Y0121497D01*
X0013058Y0121509D01*
X0012900Y0121525D01*
X0012743Y0121545D01*
X0012587Y0121569D01*
X0012431Y0121597D01*
X0012276Y0121628D01*
X0012121Y0121664D01*
X0011968Y0121703D01*
X0011816Y0121746D01*
X0011665Y0121793D01*
X0011515Y0121844D01*
X0011366Y0121899D01*
X0011219Y0121957D01*
X0011073Y0122019D01*
X0010929Y0122084D01*
X0010787Y0122154D01*
X0010646Y0122226D01*
X0010507Y0122303D01*
X0010371Y0122382D01*
X0010236Y0122466D01*
X0010103Y0122552D01*
X0009973Y0122642D01*
X0009845Y0122735D01*
X0009719Y0122831D01*
X0009596Y0122931D01*
X0009475Y0123033D01*
X0009357Y0123138D01*
X0009242Y0123247D01*
X0009129Y0123358D01*
X0009019Y0123472D01*
X0008912Y0123589D01*
X0008808Y0123708D01*
X0008707Y0123830D01*
X0008610Y0123955D01*
X0008515Y0124082D01*
X0008424Y0124211D01*
X0008335Y0124342D01*
X0008251Y0124476D01*
X0008169Y0124612D01*
X0008091Y0124749D01*
X0008017Y0124889D01*
X0007946Y0125031D01*
X0007878Y0125174D01*
X0007814Y0125319D01*
X0007754Y0125465D01*
X0007698Y0125613D01*
X0007645Y0125762D01*
X0007596Y0125913D01*
X0007551Y0126065D01*
X0007510Y0126218D01*
X0007472Y0126371D01*
X0007439Y0126526D01*
X0007409Y0126682D01*
X0007383Y0126838D01*
X0007362Y0126995D01*
X0007344Y0127152D01*
X0007330Y0127310D01*
X0007320Y0127468D01*
X0007314Y0127626D01*
X0007312Y0127784D01*
X0285501Y0081800D02*
X0285503Y0081958D01*
X0285509Y0082116D01*
X0285519Y0082274D01*
X0285533Y0082432D01*
X0285551Y0082589D01*
X0285572Y0082746D01*
X0285598Y0082902D01*
X0285628Y0083058D01*
X0285661Y0083213D01*
X0285699Y0083366D01*
X0285740Y0083519D01*
X0285785Y0083671D01*
X0285834Y0083822D01*
X0285887Y0083971D01*
X0285943Y0084119D01*
X0286003Y0084265D01*
X0286067Y0084410D01*
X0286135Y0084553D01*
X0286206Y0084695D01*
X0286280Y0084835D01*
X0286358Y0084972D01*
X0286440Y0085108D01*
X0286524Y0085242D01*
X0286613Y0085373D01*
X0286704Y0085502D01*
X0286799Y0085629D01*
X0286896Y0085754D01*
X0286997Y0085876D01*
X0287101Y0085995D01*
X0287208Y0086112D01*
X0287318Y0086226D01*
X0287431Y0086337D01*
X0287546Y0086446D01*
X0287664Y0086551D01*
X0287785Y0086653D01*
X0287908Y0086753D01*
X0288034Y0086849D01*
X0288162Y0086942D01*
X0288292Y0087032D01*
X0288425Y0087118D01*
X0288560Y0087202D01*
X0288696Y0087281D01*
X0288835Y0087358D01*
X0288976Y0087430D01*
X0289118Y0087500D01*
X0289262Y0087565D01*
X0289408Y0087627D01*
X0289555Y0087685D01*
X0289704Y0087740D01*
X0289854Y0087791D01*
X0290005Y0087838D01*
X0290157Y0087881D01*
X0290310Y0087920D01*
X0290465Y0087956D01*
X0290620Y0087987D01*
X0290776Y0088015D01*
X0290932Y0088039D01*
X0291089Y0088059D01*
X0291247Y0088075D01*
X0291404Y0088087D01*
X0291563Y0088095D01*
X0291721Y0088099D01*
X0291879Y0088099D01*
X0292037Y0088095D01*
X0292196Y0088087D01*
X0292353Y0088075D01*
X0292511Y0088059D01*
X0292668Y0088039D01*
X0292824Y0088015D01*
X0292980Y0087987D01*
X0293135Y0087956D01*
X0293290Y0087920D01*
X0293443Y0087881D01*
X0293595Y0087838D01*
X0293746Y0087791D01*
X0293896Y0087740D01*
X0294045Y0087685D01*
X0294192Y0087627D01*
X0294338Y0087565D01*
X0294482Y0087500D01*
X0294624Y0087430D01*
X0294765Y0087358D01*
X0294904Y0087281D01*
X0295040Y0087202D01*
X0295175Y0087118D01*
X0295308Y0087032D01*
X0295438Y0086942D01*
X0295566Y0086849D01*
X0295692Y0086753D01*
X0295815Y0086653D01*
X0295936Y0086551D01*
X0296054Y0086446D01*
X0296169Y0086337D01*
X0296282Y0086226D01*
X0296392Y0086112D01*
X0296499Y0085995D01*
X0296603Y0085876D01*
X0296704Y0085754D01*
X0296801Y0085629D01*
X0296896Y0085502D01*
X0296987Y0085373D01*
X0297076Y0085242D01*
X0297160Y0085108D01*
X0297242Y0084972D01*
X0297320Y0084835D01*
X0297394Y0084695D01*
X0297465Y0084553D01*
X0297533Y0084410D01*
X0297597Y0084265D01*
X0297657Y0084119D01*
X0297713Y0083971D01*
X0297766Y0083822D01*
X0297815Y0083671D01*
X0297860Y0083519D01*
X0297901Y0083366D01*
X0297939Y0083213D01*
X0297972Y0083058D01*
X0298002Y0082902D01*
X0298028Y0082746D01*
X0298049Y0082589D01*
X0298067Y0082432D01*
X0298081Y0082274D01*
X0298091Y0082116D01*
X0298097Y0081958D01*
X0298099Y0081800D01*
X0298097Y0081642D01*
X0298091Y0081484D01*
X0298081Y0081326D01*
X0298067Y0081168D01*
X0298049Y0081011D01*
X0298028Y0080854D01*
X0298002Y0080698D01*
X0297972Y0080542D01*
X0297939Y0080387D01*
X0297901Y0080234D01*
X0297860Y0080081D01*
X0297815Y0079929D01*
X0297766Y0079778D01*
X0297713Y0079629D01*
X0297657Y0079481D01*
X0297597Y0079335D01*
X0297533Y0079190D01*
X0297465Y0079047D01*
X0297394Y0078905D01*
X0297320Y0078765D01*
X0297242Y0078628D01*
X0297160Y0078492D01*
X0297076Y0078358D01*
X0296987Y0078227D01*
X0296896Y0078098D01*
X0296801Y0077971D01*
X0296704Y0077846D01*
X0296603Y0077724D01*
X0296499Y0077605D01*
X0296392Y0077488D01*
X0296282Y0077374D01*
X0296169Y0077263D01*
X0296054Y0077154D01*
X0295936Y0077049D01*
X0295815Y0076947D01*
X0295692Y0076847D01*
X0295566Y0076751D01*
X0295438Y0076658D01*
X0295308Y0076568D01*
X0295175Y0076482D01*
X0295040Y0076398D01*
X0294904Y0076319D01*
X0294765Y0076242D01*
X0294624Y0076170D01*
X0294482Y0076100D01*
X0294338Y0076035D01*
X0294192Y0075973D01*
X0294045Y0075915D01*
X0293896Y0075860D01*
X0293746Y0075809D01*
X0293595Y0075762D01*
X0293443Y0075719D01*
X0293290Y0075680D01*
X0293135Y0075644D01*
X0292980Y0075613D01*
X0292824Y0075585D01*
X0292668Y0075561D01*
X0292511Y0075541D01*
X0292353Y0075525D01*
X0292196Y0075513D01*
X0292037Y0075505D01*
X0291879Y0075501D01*
X0291721Y0075501D01*
X0291563Y0075505D01*
X0291404Y0075513D01*
X0291247Y0075525D01*
X0291089Y0075541D01*
X0290932Y0075561D01*
X0290776Y0075585D01*
X0290620Y0075613D01*
X0290465Y0075644D01*
X0290310Y0075680D01*
X0290157Y0075719D01*
X0290005Y0075762D01*
X0289854Y0075809D01*
X0289704Y0075860D01*
X0289555Y0075915D01*
X0289408Y0075973D01*
X0289262Y0076035D01*
X0289118Y0076100D01*
X0288976Y0076170D01*
X0288835Y0076242D01*
X0288696Y0076319D01*
X0288560Y0076398D01*
X0288425Y0076482D01*
X0288292Y0076568D01*
X0288162Y0076658D01*
X0288034Y0076751D01*
X0287908Y0076847D01*
X0287785Y0076947D01*
X0287664Y0077049D01*
X0287546Y0077154D01*
X0287431Y0077263D01*
X0287318Y0077374D01*
X0287208Y0077488D01*
X0287101Y0077605D01*
X0286997Y0077724D01*
X0286896Y0077846D01*
X0286799Y0077971D01*
X0286704Y0078098D01*
X0286613Y0078227D01*
X0286524Y0078358D01*
X0286440Y0078492D01*
X0286358Y0078628D01*
X0286280Y0078765D01*
X0286206Y0078905D01*
X0286135Y0079047D01*
X0286067Y0079190D01*
X0286003Y0079335D01*
X0285943Y0079481D01*
X0285887Y0079629D01*
X0285834Y0079778D01*
X0285785Y0079929D01*
X0285740Y0080081D01*
X0285699Y0080234D01*
X0285661Y0080387D01*
X0285628Y0080542D01*
X0285598Y0080698D01*
X0285572Y0080854D01*
X0285551Y0081011D01*
X0285533Y0081168D01*
X0285519Y0081326D01*
X0285509Y0081484D01*
X0285503Y0081642D01*
X0285501Y0081800D01*
X0285501Y0061800D02*
X0285503Y0061958D01*
X0285509Y0062116D01*
X0285519Y0062274D01*
X0285533Y0062432D01*
X0285551Y0062589D01*
X0285572Y0062746D01*
X0285598Y0062902D01*
X0285628Y0063058D01*
X0285661Y0063213D01*
X0285699Y0063366D01*
X0285740Y0063519D01*
X0285785Y0063671D01*
X0285834Y0063822D01*
X0285887Y0063971D01*
X0285943Y0064119D01*
X0286003Y0064265D01*
X0286067Y0064410D01*
X0286135Y0064553D01*
X0286206Y0064695D01*
X0286280Y0064835D01*
X0286358Y0064972D01*
X0286440Y0065108D01*
X0286524Y0065242D01*
X0286613Y0065373D01*
X0286704Y0065502D01*
X0286799Y0065629D01*
X0286896Y0065754D01*
X0286997Y0065876D01*
X0287101Y0065995D01*
X0287208Y0066112D01*
X0287318Y0066226D01*
X0287431Y0066337D01*
X0287546Y0066446D01*
X0287664Y0066551D01*
X0287785Y0066653D01*
X0287908Y0066753D01*
X0288034Y0066849D01*
X0288162Y0066942D01*
X0288292Y0067032D01*
X0288425Y0067118D01*
X0288560Y0067202D01*
X0288696Y0067281D01*
X0288835Y0067358D01*
X0288976Y0067430D01*
X0289118Y0067500D01*
X0289262Y0067565D01*
X0289408Y0067627D01*
X0289555Y0067685D01*
X0289704Y0067740D01*
X0289854Y0067791D01*
X0290005Y0067838D01*
X0290157Y0067881D01*
X0290310Y0067920D01*
X0290465Y0067956D01*
X0290620Y0067987D01*
X0290776Y0068015D01*
X0290932Y0068039D01*
X0291089Y0068059D01*
X0291247Y0068075D01*
X0291404Y0068087D01*
X0291563Y0068095D01*
X0291721Y0068099D01*
X0291879Y0068099D01*
X0292037Y0068095D01*
X0292196Y0068087D01*
X0292353Y0068075D01*
X0292511Y0068059D01*
X0292668Y0068039D01*
X0292824Y0068015D01*
X0292980Y0067987D01*
X0293135Y0067956D01*
X0293290Y0067920D01*
X0293443Y0067881D01*
X0293595Y0067838D01*
X0293746Y0067791D01*
X0293896Y0067740D01*
X0294045Y0067685D01*
X0294192Y0067627D01*
X0294338Y0067565D01*
X0294482Y0067500D01*
X0294624Y0067430D01*
X0294765Y0067358D01*
X0294904Y0067281D01*
X0295040Y0067202D01*
X0295175Y0067118D01*
X0295308Y0067032D01*
X0295438Y0066942D01*
X0295566Y0066849D01*
X0295692Y0066753D01*
X0295815Y0066653D01*
X0295936Y0066551D01*
X0296054Y0066446D01*
X0296169Y0066337D01*
X0296282Y0066226D01*
X0296392Y0066112D01*
X0296499Y0065995D01*
X0296603Y0065876D01*
X0296704Y0065754D01*
X0296801Y0065629D01*
X0296896Y0065502D01*
X0296987Y0065373D01*
X0297076Y0065242D01*
X0297160Y0065108D01*
X0297242Y0064972D01*
X0297320Y0064835D01*
X0297394Y0064695D01*
X0297465Y0064553D01*
X0297533Y0064410D01*
X0297597Y0064265D01*
X0297657Y0064119D01*
X0297713Y0063971D01*
X0297766Y0063822D01*
X0297815Y0063671D01*
X0297860Y0063519D01*
X0297901Y0063366D01*
X0297939Y0063213D01*
X0297972Y0063058D01*
X0298002Y0062902D01*
X0298028Y0062746D01*
X0298049Y0062589D01*
X0298067Y0062432D01*
X0298081Y0062274D01*
X0298091Y0062116D01*
X0298097Y0061958D01*
X0298099Y0061800D01*
X0298097Y0061642D01*
X0298091Y0061484D01*
X0298081Y0061326D01*
X0298067Y0061168D01*
X0298049Y0061011D01*
X0298028Y0060854D01*
X0298002Y0060698D01*
X0297972Y0060542D01*
X0297939Y0060387D01*
X0297901Y0060234D01*
X0297860Y0060081D01*
X0297815Y0059929D01*
X0297766Y0059778D01*
X0297713Y0059629D01*
X0297657Y0059481D01*
X0297597Y0059335D01*
X0297533Y0059190D01*
X0297465Y0059047D01*
X0297394Y0058905D01*
X0297320Y0058765D01*
X0297242Y0058628D01*
X0297160Y0058492D01*
X0297076Y0058358D01*
X0296987Y0058227D01*
X0296896Y0058098D01*
X0296801Y0057971D01*
X0296704Y0057846D01*
X0296603Y0057724D01*
X0296499Y0057605D01*
X0296392Y0057488D01*
X0296282Y0057374D01*
X0296169Y0057263D01*
X0296054Y0057154D01*
X0295936Y0057049D01*
X0295815Y0056947D01*
X0295692Y0056847D01*
X0295566Y0056751D01*
X0295438Y0056658D01*
X0295308Y0056568D01*
X0295175Y0056482D01*
X0295040Y0056398D01*
X0294904Y0056319D01*
X0294765Y0056242D01*
X0294624Y0056170D01*
X0294482Y0056100D01*
X0294338Y0056035D01*
X0294192Y0055973D01*
X0294045Y0055915D01*
X0293896Y0055860D01*
X0293746Y0055809D01*
X0293595Y0055762D01*
X0293443Y0055719D01*
X0293290Y0055680D01*
X0293135Y0055644D01*
X0292980Y0055613D01*
X0292824Y0055585D01*
X0292668Y0055561D01*
X0292511Y0055541D01*
X0292353Y0055525D01*
X0292196Y0055513D01*
X0292037Y0055505D01*
X0291879Y0055501D01*
X0291721Y0055501D01*
X0291563Y0055505D01*
X0291404Y0055513D01*
X0291247Y0055525D01*
X0291089Y0055541D01*
X0290932Y0055561D01*
X0290776Y0055585D01*
X0290620Y0055613D01*
X0290465Y0055644D01*
X0290310Y0055680D01*
X0290157Y0055719D01*
X0290005Y0055762D01*
X0289854Y0055809D01*
X0289704Y0055860D01*
X0289555Y0055915D01*
X0289408Y0055973D01*
X0289262Y0056035D01*
X0289118Y0056100D01*
X0288976Y0056170D01*
X0288835Y0056242D01*
X0288696Y0056319D01*
X0288560Y0056398D01*
X0288425Y0056482D01*
X0288292Y0056568D01*
X0288162Y0056658D01*
X0288034Y0056751D01*
X0287908Y0056847D01*
X0287785Y0056947D01*
X0287664Y0057049D01*
X0287546Y0057154D01*
X0287431Y0057263D01*
X0287318Y0057374D01*
X0287208Y0057488D01*
X0287101Y0057605D01*
X0286997Y0057724D01*
X0286896Y0057846D01*
X0286799Y0057971D01*
X0286704Y0058098D01*
X0286613Y0058227D01*
X0286524Y0058358D01*
X0286440Y0058492D01*
X0286358Y0058628D01*
X0286280Y0058765D01*
X0286206Y0058905D01*
X0286135Y0059047D01*
X0286067Y0059190D01*
X0286003Y0059335D01*
X0285943Y0059481D01*
X0285887Y0059629D01*
X0285834Y0059778D01*
X0285785Y0059929D01*
X0285740Y0060081D01*
X0285699Y0060234D01*
X0285661Y0060387D01*
X0285628Y0060542D01*
X0285598Y0060698D01*
X0285572Y0060854D01*
X0285551Y0061011D01*
X0285533Y0061168D01*
X0285519Y0061326D01*
X0285509Y0061484D01*
X0285503Y0061642D01*
X0285501Y0061800D01*
X0298651Y0013611D02*
X0298653Y0013769D01*
X0298659Y0013927D01*
X0298669Y0014085D01*
X0298683Y0014243D01*
X0298701Y0014400D01*
X0298722Y0014557D01*
X0298748Y0014713D01*
X0298778Y0014869D01*
X0298811Y0015024D01*
X0298849Y0015177D01*
X0298890Y0015330D01*
X0298935Y0015482D01*
X0298984Y0015633D01*
X0299037Y0015782D01*
X0299093Y0015930D01*
X0299153Y0016076D01*
X0299217Y0016221D01*
X0299285Y0016364D01*
X0299356Y0016506D01*
X0299430Y0016646D01*
X0299508Y0016783D01*
X0299590Y0016919D01*
X0299674Y0017053D01*
X0299763Y0017184D01*
X0299854Y0017313D01*
X0299949Y0017440D01*
X0300046Y0017565D01*
X0300147Y0017687D01*
X0300251Y0017806D01*
X0300358Y0017923D01*
X0300468Y0018037D01*
X0300581Y0018148D01*
X0300696Y0018257D01*
X0300814Y0018362D01*
X0300935Y0018464D01*
X0301058Y0018564D01*
X0301184Y0018660D01*
X0301312Y0018753D01*
X0301442Y0018843D01*
X0301575Y0018929D01*
X0301710Y0019013D01*
X0301846Y0019092D01*
X0301985Y0019169D01*
X0302126Y0019241D01*
X0302268Y0019311D01*
X0302412Y0019376D01*
X0302558Y0019438D01*
X0302705Y0019496D01*
X0302854Y0019551D01*
X0303004Y0019602D01*
X0303155Y0019649D01*
X0303307Y0019692D01*
X0303460Y0019731D01*
X0303615Y0019767D01*
X0303770Y0019798D01*
X0303926Y0019826D01*
X0304082Y0019850D01*
X0304239Y0019870D01*
X0304397Y0019886D01*
X0304554Y0019898D01*
X0304713Y0019906D01*
X0304871Y0019910D01*
X0305029Y0019910D01*
X0305187Y0019906D01*
X0305346Y0019898D01*
X0305503Y0019886D01*
X0305661Y0019870D01*
X0305818Y0019850D01*
X0305974Y0019826D01*
X0306130Y0019798D01*
X0306285Y0019767D01*
X0306440Y0019731D01*
X0306593Y0019692D01*
X0306745Y0019649D01*
X0306896Y0019602D01*
X0307046Y0019551D01*
X0307195Y0019496D01*
X0307342Y0019438D01*
X0307488Y0019376D01*
X0307632Y0019311D01*
X0307774Y0019241D01*
X0307915Y0019169D01*
X0308054Y0019092D01*
X0308190Y0019013D01*
X0308325Y0018929D01*
X0308458Y0018843D01*
X0308588Y0018753D01*
X0308716Y0018660D01*
X0308842Y0018564D01*
X0308965Y0018464D01*
X0309086Y0018362D01*
X0309204Y0018257D01*
X0309319Y0018148D01*
X0309432Y0018037D01*
X0309542Y0017923D01*
X0309649Y0017806D01*
X0309753Y0017687D01*
X0309854Y0017565D01*
X0309951Y0017440D01*
X0310046Y0017313D01*
X0310137Y0017184D01*
X0310226Y0017053D01*
X0310310Y0016919D01*
X0310392Y0016783D01*
X0310470Y0016646D01*
X0310544Y0016506D01*
X0310615Y0016364D01*
X0310683Y0016221D01*
X0310747Y0016076D01*
X0310807Y0015930D01*
X0310863Y0015782D01*
X0310916Y0015633D01*
X0310965Y0015482D01*
X0311010Y0015330D01*
X0311051Y0015177D01*
X0311089Y0015024D01*
X0311122Y0014869D01*
X0311152Y0014713D01*
X0311178Y0014557D01*
X0311199Y0014400D01*
X0311217Y0014243D01*
X0311231Y0014085D01*
X0311241Y0013927D01*
X0311247Y0013769D01*
X0311249Y0013611D01*
X0311247Y0013453D01*
X0311241Y0013295D01*
X0311231Y0013137D01*
X0311217Y0012979D01*
X0311199Y0012822D01*
X0311178Y0012665D01*
X0311152Y0012509D01*
X0311122Y0012353D01*
X0311089Y0012198D01*
X0311051Y0012045D01*
X0311010Y0011892D01*
X0310965Y0011740D01*
X0310916Y0011589D01*
X0310863Y0011440D01*
X0310807Y0011292D01*
X0310747Y0011146D01*
X0310683Y0011001D01*
X0310615Y0010858D01*
X0310544Y0010716D01*
X0310470Y0010576D01*
X0310392Y0010439D01*
X0310310Y0010303D01*
X0310226Y0010169D01*
X0310137Y0010038D01*
X0310046Y0009909D01*
X0309951Y0009782D01*
X0309854Y0009657D01*
X0309753Y0009535D01*
X0309649Y0009416D01*
X0309542Y0009299D01*
X0309432Y0009185D01*
X0309319Y0009074D01*
X0309204Y0008965D01*
X0309086Y0008860D01*
X0308965Y0008758D01*
X0308842Y0008658D01*
X0308716Y0008562D01*
X0308588Y0008469D01*
X0308458Y0008379D01*
X0308325Y0008293D01*
X0308190Y0008209D01*
X0308054Y0008130D01*
X0307915Y0008053D01*
X0307774Y0007981D01*
X0307632Y0007911D01*
X0307488Y0007846D01*
X0307342Y0007784D01*
X0307195Y0007726D01*
X0307046Y0007671D01*
X0306896Y0007620D01*
X0306745Y0007573D01*
X0306593Y0007530D01*
X0306440Y0007491D01*
X0306285Y0007455D01*
X0306130Y0007424D01*
X0305974Y0007396D01*
X0305818Y0007372D01*
X0305661Y0007352D01*
X0305503Y0007336D01*
X0305346Y0007324D01*
X0305187Y0007316D01*
X0305029Y0007312D01*
X0304871Y0007312D01*
X0304713Y0007316D01*
X0304554Y0007324D01*
X0304397Y0007336D01*
X0304239Y0007352D01*
X0304082Y0007372D01*
X0303926Y0007396D01*
X0303770Y0007424D01*
X0303615Y0007455D01*
X0303460Y0007491D01*
X0303307Y0007530D01*
X0303155Y0007573D01*
X0303004Y0007620D01*
X0302854Y0007671D01*
X0302705Y0007726D01*
X0302558Y0007784D01*
X0302412Y0007846D01*
X0302268Y0007911D01*
X0302126Y0007981D01*
X0301985Y0008053D01*
X0301846Y0008130D01*
X0301710Y0008209D01*
X0301575Y0008293D01*
X0301442Y0008379D01*
X0301312Y0008469D01*
X0301184Y0008562D01*
X0301058Y0008658D01*
X0300935Y0008758D01*
X0300814Y0008860D01*
X0300696Y0008965D01*
X0300581Y0009074D01*
X0300468Y0009185D01*
X0300358Y0009299D01*
X0300251Y0009416D01*
X0300147Y0009535D01*
X0300046Y0009657D01*
X0299949Y0009782D01*
X0299854Y0009909D01*
X0299763Y0010038D01*
X0299674Y0010169D01*
X0299590Y0010303D01*
X0299508Y0010439D01*
X0299430Y0010576D01*
X0299356Y0010716D01*
X0299285Y0010858D01*
X0299217Y0011001D01*
X0299153Y0011146D01*
X0299093Y0011292D01*
X0299037Y0011440D01*
X0298984Y0011589D01*
X0298935Y0011740D01*
X0298890Y0011892D01*
X0298849Y0012045D01*
X0298811Y0012198D01*
X0298778Y0012353D01*
X0298748Y0012509D01*
X0298722Y0012665D01*
X0298701Y0012822D01*
X0298683Y0012979D01*
X0298669Y0013137D01*
X0298659Y0013295D01*
X0298653Y0013453D01*
X0298651Y0013611D01*
X0298651Y0127784D02*
X0298653Y0127942D01*
X0298659Y0128100D01*
X0298669Y0128258D01*
X0298683Y0128416D01*
X0298701Y0128573D01*
X0298722Y0128730D01*
X0298748Y0128886D01*
X0298778Y0129042D01*
X0298811Y0129197D01*
X0298849Y0129350D01*
X0298890Y0129503D01*
X0298935Y0129655D01*
X0298984Y0129806D01*
X0299037Y0129955D01*
X0299093Y0130103D01*
X0299153Y0130249D01*
X0299217Y0130394D01*
X0299285Y0130537D01*
X0299356Y0130679D01*
X0299430Y0130819D01*
X0299508Y0130956D01*
X0299590Y0131092D01*
X0299674Y0131226D01*
X0299763Y0131357D01*
X0299854Y0131486D01*
X0299949Y0131613D01*
X0300046Y0131738D01*
X0300147Y0131860D01*
X0300251Y0131979D01*
X0300358Y0132096D01*
X0300468Y0132210D01*
X0300581Y0132321D01*
X0300696Y0132430D01*
X0300814Y0132535D01*
X0300935Y0132637D01*
X0301058Y0132737D01*
X0301184Y0132833D01*
X0301312Y0132926D01*
X0301442Y0133016D01*
X0301575Y0133102D01*
X0301710Y0133186D01*
X0301846Y0133265D01*
X0301985Y0133342D01*
X0302126Y0133414D01*
X0302268Y0133484D01*
X0302412Y0133549D01*
X0302558Y0133611D01*
X0302705Y0133669D01*
X0302854Y0133724D01*
X0303004Y0133775D01*
X0303155Y0133822D01*
X0303307Y0133865D01*
X0303460Y0133904D01*
X0303615Y0133940D01*
X0303770Y0133971D01*
X0303926Y0133999D01*
X0304082Y0134023D01*
X0304239Y0134043D01*
X0304397Y0134059D01*
X0304554Y0134071D01*
X0304713Y0134079D01*
X0304871Y0134083D01*
X0305029Y0134083D01*
X0305187Y0134079D01*
X0305346Y0134071D01*
X0305503Y0134059D01*
X0305661Y0134043D01*
X0305818Y0134023D01*
X0305974Y0133999D01*
X0306130Y0133971D01*
X0306285Y0133940D01*
X0306440Y0133904D01*
X0306593Y0133865D01*
X0306745Y0133822D01*
X0306896Y0133775D01*
X0307046Y0133724D01*
X0307195Y0133669D01*
X0307342Y0133611D01*
X0307488Y0133549D01*
X0307632Y0133484D01*
X0307774Y0133414D01*
X0307915Y0133342D01*
X0308054Y0133265D01*
X0308190Y0133186D01*
X0308325Y0133102D01*
X0308458Y0133016D01*
X0308588Y0132926D01*
X0308716Y0132833D01*
X0308842Y0132737D01*
X0308965Y0132637D01*
X0309086Y0132535D01*
X0309204Y0132430D01*
X0309319Y0132321D01*
X0309432Y0132210D01*
X0309542Y0132096D01*
X0309649Y0131979D01*
X0309753Y0131860D01*
X0309854Y0131738D01*
X0309951Y0131613D01*
X0310046Y0131486D01*
X0310137Y0131357D01*
X0310226Y0131226D01*
X0310310Y0131092D01*
X0310392Y0130956D01*
X0310470Y0130819D01*
X0310544Y0130679D01*
X0310615Y0130537D01*
X0310683Y0130394D01*
X0310747Y0130249D01*
X0310807Y0130103D01*
X0310863Y0129955D01*
X0310916Y0129806D01*
X0310965Y0129655D01*
X0311010Y0129503D01*
X0311051Y0129350D01*
X0311089Y0129197D01*
X0311122Y0129042D01*
X0311152Y0128886D01*
X0311178Y0128730D01*
X0311199Y0128573D01*
X0311217Y0128416D01*
X0311231Y0128258D01*
X0311241Y0128100D01*
X0311247Y0127942D01*
X0311249Y0127784D01*
X0311247Y0127626D01*
X0311241Y0127468D01*
X0311231Y0127310D01*
X0311217Y0127152D01*
X0311199Y0126995D01*
X0311178Y0126838D01*
X0311152Y0126682D01*
X0311122Y0126526D01*
X0311089Y0126371D01*
X0311051Y0126218D01*
X0311010Y0126065D01*
X0310965Y0125913D01*
X0310916Y0125762D01*
X0310863Y0125613D01*
X0310807Y0125465D01*
X0310747Y0125319D01*
X0310683Y0125174D01*
X0310615Y0125031D01*
X0310544Y0124889D01*
X0310470Y0124749D01*
X0310392Y0124612D01*
X0310310Y0124476D01*
X0310226Y0124342D01*
X0310137Y0124211D01*
X0310046Y0124082D01*
X0309951Y0123955D01*
X0309854Y0123830D01*
X0309753Y0123708D01*
X0309649Y0123589D01*
X0309542Y0123472D01*
X0309432Y0123358D01*
X0309319Y0123247D01*
X0309204Y0123138D01*
X0309086Y0123033D01*
X0308965Y0122931D01*
X0308842Y0122831D01*
X0308716Y0122735D01*
X0308588Y0122642D01*
X0308458Y0122552D01*
X0308325Y0122466D01*
X0308190Y0122382D01*
X0308054Y0122303D01*
X0307915Y0122226D01*
X0307774Y0122154D01*
X0307632Y0122084D01*
X0307488Y0122019D01*
X0307342Y0121957D01*
X0307195Y0121899D01*
X0307046Y0121844D01*
X0306896Y0121793D01*
X0306745Y0121746D01*
X0306593Y0121703D01*
X0306440Y0121664D01*
X0306285Y0121628D01*
X0306130Y0121597D01*
X0305974Y0121569D01*
X0305818Y0121545D01*
X0305661Y0121525D01*
X0305503Y0121509D01*
X0305346Y0121497D01*
X0305187Y0121489D01*
X0305029Y0121485D01*
X0304871Y0121485D01*
X0304713Y0121489D01*
X0304554Y0121497D01*
X0304397Y0121509D01*
X0304239Y0121525D01*
X0304082Y0121545D01*
X0303926Y0121569D01*
X0303770Y0121597D01*
X0303615Y0121628D01*
X0303460Y0121664D01*
X0303307Y0121703D01*
X0303155Y0121746D01*
X0303004Y0121793D01*
X0302854Y0121844D01*
X0302705Y0121899D01*
X0302558Y0121957D01*
X0302412Y0122019D01*
X0302268Y0122084D01*
X0302126Y0122154D01*
X0301985Y0122226D01*
X0301846Y0122303D01*
X0301710Y0122382D01*
X0301575Y0122466D01*
X0301442Y0122552D01*
X0301312Y0122642D01*
X0301184Y0122735D01*
X0301058Y0122831D01*
X0300935Y0122931D01*
X0300814Y0123033D01*
X0300696Y0123138D01*
X0300581Y0123247D01*
X0300468Y0123358D01*
X0300358Y0123472D01*
X0300251Y0123589D01*
X0300147Y0123708D01*
X0300046Y0123830D01*
X0299949Y0123955D01*
X0299854Y0124082D01*
X0299763Y0124211D01*
X0299674Y0124342D01*
X0299590Y0124476D01*
X0299508Y0124612D01*
X0299430Y0124749D01*
X0299356Y0124889D01*
X0299285Y0125031D01*
X0299217Y0125174D01*
X0299153Y0125319D01*
X0299093Y0125465D01*
X0299037Y0125613D01*
X0298984Y0125762D01*
X0298935Y0125913D01*
X0298890Y0126065D01*
X0298849Y0126218D01*
X0298811Y0126371D01*
X0298778Y0126526D01*
X0298748Y0126682D01*
X0298722Y0126838D01*
X0298701Y0126995D01*
X0298683Y0127152D01*
X0298669Y0127310D01*
X0298659Y0127468D01*
X0298653Y0127626D01*
X0298651Y0127784D01*
D11*
X0304950Y0127784D03*
X0291800Y0081800D03*
X0291800Y0061800D03*
X0304950Y0013611D03*
X0013611Y0013611D03*
X0013611Y0127784D03*
D12*
X0031800Y0126800D03*
X0031800Y0116800D03*
X0106800Y0111800D03*
X0111800Y0101800D03*
X0126800Y0086800D03*
X0141800Y0086800D03*
X0141800Y0076800D03*
X0126800Y0076800D03*
X0151800Y0101800D03*
X0146800Y0111800D03*
X0041800Y0076800D03*
X0026800Y0051800D03*
X0016800Y0051800D03*
X0041800Y0036800D03*
X0061800Y0031800D03*
X0081800Y0031800D03*
X0086800Y0041800D03*
X0061800Y0041800D03*
X0036800Y0021800D03*
X0026800Y0021800D03*
X0121800Y0031800D03*
X0126800Y0041800D03*
X0281800Y0021800D03*
X0291800Y0021800D03*
X0291800Y0121800D03*
X0281800Y0121800D03*
D13*
X0256800Y0099800D02*
X0256800Y0093800D01*
X0246800Y0093800D02*
X0246800Y0099800D01*
X0236800Y0099800D02*
X0236800Y0093800D01*
X0226800Y0093800D02*
X0226800Y0099800D01*
X0216800Y0099800D02*
X0216800Y0093800D01*
X0206800Y0093800D02*
X0206800Y0099800D01*
X0196800Y0099800D02*
X0196800Y0093800D01*
X0186800Y0093800D02*
X0186800Y0099800D01*
X0176800Y0099800D02*
X0176800Y0093800D01*
X0166800Y0093800D02*
X0166800Y0099800D01*
X0131800Y0123800D02*
X0131800Y0129800D01*
X0121800Y0129800D02*
X0121800Y0123800D01*
X0111800Y0123800D02*
X0111800Y0129800D01*
X0101800Y0129800D02*
X0101800Y0123800D01*
X0091800Y0123800D02*
X0091800Y0129800D01*
X0081800Y0129800D02*
X0081800Y0123800D01*
X0071800Y0123800D02*
X0071800Y0129800D01*
X0061800Y0129800D02*
X0061800Y0123800D01*
X0051800Y0123800D02*
X0051800Y0129800D01*
X0166800Y0049800D02*
X0166800Y0043800D01*
X0176800Y0043800D02*
X0176800Y0049800D01*
X0186800Y0049800D02*
X0186800Y0043800D01*
X0196800Y0043800D02*
X0196800Y0049800D01*
X0206800Y0049800D02*
X0206800Y0043800D01*
X0216800Y0043800D02*
X0216800Y0049800D01*
X0226800Y0049800D02*
X0226800Y0043800D01*
X0236800Y0043800D02*
X0236800Y0049800D01*
X0246800Y0049800D02*
X0246800Y0043800D01*
X0256800Y0043800D02*
X0256800Y0049800D01*
X0242600Y0025700D02*
X0236600Y0025700D01*
X0217000Y0025700D02*
X0211000Y0025700D01*
X0211000Y0007900D02*
X0217000Y0007900D01*
X0236600Y0007900D02*
X0242600Y0007900D01*
X0131800Y0013800D02*
X0131800Y0019800D01*
X0121800Y0019800D02*
X0121800Y0013800D01*
X0111800Y0013800D02*
X0111800Y0019800D01*
X0101800Y0019800D02*
X0101800Y0013800D01*
X0091800Y0013800D02*
X0091800Y0019800D01*
X0081800Y0019800D02*
X0081800Y0013800D01*
X0071800Y0013800D02*
X0071800Y0019800D01*
X0061800Y0019800D02*
X0061800Y0013800D01*
X0051800Y0013800D02*
X0051800Y0019800D01*
D14*
X0016800Y0076800D03*
X0196800Y0116800D03*
X0206800Y0116800D03*
X0216800Y0116800D03*
X0226800Y0116800D03*
X0236800Y0116800D03*
X0246800Y0116800D03*
X0256800Y0116800D03*
X0256800Y0126800D03*
X0246800Y0126800D03*
X0236800Y0126800D03*
X0226800Y0126800D03*
X0216800Y0126800D03*
X0206800Y0126800D03*
X0196800Y0126800D03*
M02*
