%
M48
M72
T01C0.01200
T02C0.03200
T03C0.04000
T04C0.12598
%
T01
X77850Y40950
X88650Y57600
X93150Y89100
T02
X111800Y101800
X106800Y111800
X146800Y111800
X151800Y101800
X141800Y86800
X126800Y86800
X126800Y76800
X141800Y76800
X126800Y41800
X121800Y31800
X86800Y41800
X81800Y31800
X61800Y31800
X41800Y36800
X61800Y41800
X26800Y51800
X16800Y51800
X41800Y76800
X31800Y116800
X31800Y126800
X26800Y21800
X36800Y21800
X281800Y21800
X291800Y21800
X291800Y121800
X281800Y121800
T03
X256800Y116800
X246800Y116800
X236800Y116800
X226800Y116800
X216800Y116800
X206800Y116800
X196800Y116800
X196800Y126800
X206800Y126800
X216800Y126800
X226800Y126800
X236800Y126800
X246800Y126800
X256800Y126800
X256800Y96800
X246800Y96800
X236800Y96800
X226800Y96800
X216800Y96800
X206800Y96800
X196800Y96800
X186800Y96800
X176800Y96800
X166800Y96800
X131800Y126800
X121800Y126800
X111800Y126800
X101800Y126800
X91800Y126800
X81800Y126800
X71800Y126800
X61800Y126800
X51800Y126800
X16800Y76800
X51800Y16800
X61800Y16800
X71800Y16800
X81800Y16800
X91800Y16800
X101800Y16800
X111800Y16800
X121800Y16800
X131800Y16800
X166800Y46800
X176800Y46800
X186800Y46800
X196800Y46800
X206800Y46800
X216800Y46800
X226800Y46800
X236800Y46800
X246800Y46800
X256800Y46800
X239600Y25700
X214000Y25700
X214000Y7900
X239600Y7900
T04
X13611Y13611
X13611Y127784
X291800Y81800
X291800Y61800
X304950Y13611
X304950Y127784
M30
