G75*
%MOIN*%
%OFA0B0*%
%FSLAX25Y25*%
%IPPOS*%
%LPD*%
%AMOC8*
5,1,8,0,0,1.08239X$1,22.5*
%
%ADD10C,0.00000*%
%ADD11OC8,0.05200*%
%ADD12C,0.06000*%
%ADD13OC8,0.06000*%
%ADD14C,0.01200*%
%ADD15C,0.02400*%
%ADD16C,0.01600*%
D10*
X0001800Y0001800D02*
X0001800Y0139595D01*
X0316761Y0139595D01*
X0316761Y0001800D01*
X0001800Y0001800D01*
X0007312Y0013611D02*
X0007314Y0013769D01*
X0007320Y0013927D01*
X0007330Y0014085D01*
X0007344Y0014243D01*
X0007362Y0014400D01*
X0007383Y0014557D01*
X0007409Y0014713D01*
X0007439Y0014869D01*
X0007472Y0015024D01*
X0007510Y0015177D01*
X0007551Y0015330D01*
X0007596Y0015482D01*
X0007645Y0015633D01*
X0007698Y0015782D01*
X0007754Y0015930D01*
X0007814Y0016076D01*
X0007878Y0016221D01*
X0007946Y0016364D01*
X0008017Y0016506D01*
X0008091Y0016646D01*
X0008169Y0016783D01*
X0008251Y0016919D01*
X0008335Y0017053D01*
X0008424Y0017184D01*
X0008515Y0017313D01*
X0008610Y0017440D01*
X0008707Y0017565D01*
X0008808Y0017687D01*
X0008912Y0017806D01*
X0009019Y0017923D01*
X0009129Y0018037D01*
X0009242Y0018148D01*
X0009357Y0018257D01*
X0009475Y0018362D01*
X0009596Y0018464D01*
X0009719Y0018564D01*
X0009845Y0018660D01*
X0009973Y0018753D01*
X0010103Y0018843D01*
X0010236Y0018929D01*
X0010371Y0019013D01*
X0010507Y0019092D01*
X0010646Y0019169D01*
X0010787Y0019241D01*
X0010929Y0019311D01*
X0011073Y0019376D01*
X0011219Y0019438D01*
X0011366Y0019496D01*
X0011515Y0019551D01*
X0011665Y0019602D01*
X0011816Y0019649D01*
X0011968Y0019692D01*
X0012121Y0019731D01*
X0012276Y0019767D01*
X0012431Y0019798D01*
X0012587Y0019826D01*
X0012743Y0019850D01*
X0012900Y0019870D01*
X0013058Y0019886D01*
X0013215Y0019898D01*
X0013374Y0019906D01*
X0013532Y0019910D01*
X0013690Y0019910D01*
X0013848Y0019906D01*
X0014007Y0019898D01*
X0014164Y0019886D01*
X0014322Y0019870D01*
X0014479Y0019850D01*
X0014635Y0019826D01*
X0014791Y0019798D01*
X0014946Y0019767D01*
X0015101Y0019731D01*
X0015254Y0019692D01*
X0015406Y0019649D01*
X0015557Y0019602D01*
X0015707Y0019551D01*
X0015856Y0019496D01*
X0016003Y0019438D01*
X0016149Y0019376D01*
X0016293Y0019311D01*
X0016435Y0019241D01*
X0016576Y0019169D01*
X0016715Y0019092D01*
X0016851Y0019013D01*
X0016986Y0018929D01*
X0017119Y0018843D01*
X0017249Y0018753D01*
X0017377Y0018660D01*
X0017503Y0018564D01*
X0017626Y0018464D01*
X0017747Y0018362D01*
X0017865Y0018257D01*
X0017980Y0018148D01*
X0018093Y0018037D01*
X0018203Y0017923D01*
X0018310Y0017806D01*
X0018414Y0017687D01*
X0018515Y0017565D01*
X0018612Y0017440D01*
X0018707Y0017313D01*
X0018798Y0017184D01*
X0018887Y0017053D01*
X0018971Y0016919D01*
X0019053Y0016783D01*
X0019131Y0016646D01*
X0019205Y0016506D01*
X0019276Y0016364D01*
X0019344Y0016221D01*
X0019408Y0016076D01*
X0019468Y0015930D01*
X0019524Y0015782D01*
X0019577Y0015633D01*
X0019626Y0015482D01*
X0019671Y0015330D01*
X0019712Y0015177D01*
X0019750Y0015024D01*
X0019783Y0014869D01*
X0019813Y0014713D01*
X0019839Y0014557D01*
X0019860Y0014400D01*
X0019878Y0014243D01*
X0019892Y0014085D01*
X0019902Y0013927D01*
X0019908Y0013769D01*
X0019910Y0013611D01*
X0019908Y0013453D01*
X0019902Y0013295D01*
X0019892Y0013137D01*
X0019878Y0012979D01*
X0019860Y0012822D01*
X0019839Y0012665D01*
X0019813Y0012509D01*
X0019783Y0012353D01*
X0019750Y0012198D01*
X0019712Y0012045D01*
X0019671Y0011892D01*
X0019626Y0011740D01*
X0019577Y0011589D01*
X0019524Y0011440D01*
X0019468Y0011292D01*
X0019408Y0011146D01*
X0019344Y0011001D01*
X0019276Y0010858D01*
X0019205Y0010716D01*
X0019131Y0010576D01*
X0019053Y0010439D01*
X0018971Y0010303D01*
X0018887Y0010169D01*
X0018798Y0010038D01*
X0018707Y0009909D01*
X0018612Y0009782D01*
X0018515Y0009657D01*
X0018414Y0009535D01*
X0018310Y0009416D01*
X0018203Y0009299D01*
X0018093Y0009185D01*
X0017980Y0009074D01*
X0017865Y0008965D01*
X0017747Y0008860D01*
X0017626Y0008758D01*
X0017503Y0008658D01*
X0017377Y0008562D01*
X0017249Y0008469D01*
X0017119Y0008379D01*
X0016986Y0008293D01*
X0016851Y0008209D01*
X0016715Y0008130D01*
X0016576Y0008053D01*
X0016435Y0007981D01*
X0016293Y0007911D01*
X0016149Y0007846D01*
X0016003Y0007784D01*
X0015856Y0007726D01*
X0015707Y0007671D01*
X0015557Y0007620D01*
X0015406Y0007573D01*
X0015254Y0007530D01*
X0015101Y0007491D01*
X0014946Y0007455D01*
X0014791Y0007424D01*
X0014635Y0007396D01*
X0014479Y0007372D01*
X0014322Y0007352D01*
X0014164Y0007336D01*
X0014007Y0007324D01*
X0013848Y0007316D01*
X0013690Y0007312D01*
X0013532Y0007312D01*
X0013374Y0007316D01*
X0013215Y0007324D01*
X0013058Y0007336D01*
X0012900Y0007352D01*
X0012743Y0007372D01*
X0012587Y0007396D01*
X0012431Y0007424D01*
X0012276Y0007455D01*
X0012121Y0007491D01*
X0011968Y0007530D01*
X0011816Y0007573D01*
X0011665Y0007620D01*
X0011515Y0007671D01*
X0011366Y0007726D01*
X0011219Y0007784D01*
X0011073Y0007846D01*
X0010929Y0007911D01*
X0010787Y0007981D01*
X0010646Y0008053D01*
X0010507Y0008130D01*
X0010371Y0008209D01*
X0010236Y0008293D01*
X0010103Y0008379D01*
X0009973Y0008469D01*
X0009845Y0008562D01*
X0009719Y0008658D01*
X0009596Y0008758D01*
X0009475Y0008860D01*
X0009357Y0008965D01*
X0009242Y0009074D01*
X0009129Y0009185D01*
X0009019Y0009299D01*
X0008912Y0009416D01*
X0008808Y0009535D01*
X0008707Y0009657D01*
X0008610Y0009782D01*
X0008515Y0009909D01*
X0008424Y0010038D01*
X0008335Y0010169D01*
X0008251Y0010303D01*
X0008169Y0010439D01*
X0008091Y0010576D01*
X0008017Y0010716D01*
X0007946Y0010858D01*
X0007878Y0011001D01*
X0007814Y0011146D01*
X0007754Y0011292D01*
X0007698Y0011440D01*
X0007645Y0011589D01*
X0007596Y0011740D01*
X0007551Y0011892D01*
X0007510Y0012045D01*
X0007472Y0012198D01*
X0007439Y0012353D01*
X0007409Y0012509D01*
X0007383Y0012665D01*
X0007362Y0012822D01*
X0007344Y0012979D01*
X0007330Y0013137D01*
X0007320Y0013295D01*
X0007314Y0013453D01*
X0007312Y0013611D01*
X0007312Y0127784D02*
X0007314Y0127942D01*
X0007320Y0128100D01*
X0007330Y0128258D01*
X0007344Y0128416D01*
X0007362Y0128573D01*
X0007383Y0128730D01*
X0007409Y0128886D01*
X0007439Y0129042D01*
X0007472Y0129197D01*
X0007510Y0129350D01*
X0007551Y0129503D01*
X0007596Y0129655D01*
X0007645Y0129806D01*
X0007698Y0129955D01*
X0007754Y0130103D01*
X0007814Y0130249D01*
X0007878Y0130394D01*
X0007946Y0130537D01*
X0008017Y0130679D01*
X0008091Y0130819D01*
X0008169Y0130956D01*
X0008251Y0131092D01*
X0008335Y0131226D01*
X0008424Y0131357D01*
X0008515Y0131486D01*
X0008610Y0131613D01*
X0008707Y0131738D01*
X0008808Y0131860D01*
X0008912Y0131979D01*
X0009019Y0132096D01*
X0009129Y0132210D01*
X0009242Y0132321D01*
X0009357Y0132430D01*
X0009475Y0132535D01*
X0009596Y0132637D01*
X0009719Y0132737D01*
X0009845Y0132833D01*
X0009973Y0132926D01*
X0010103Y0133016D01*
X0010236Y0133102D01*
X0010371Y0133186D01*
X0010507Y0133265D01*
X0010646Y0133342D01*
X0010787Y0133414D01*
X0010929Y0133484D01*
X0011073Y0133549D01*
X0011219Y0133611D01*
X0011366Y0133669D01*
X0011515Y0133724D01*
X0011665Y0133775D01*
X0011816Y0133822D01*
X0011968Y0133865D01*
X0012121Y0133904D01*
X0012276Y0133940D01*
X0012431Y0133971D01*
X0012587Y0133999D01*
X0012743Y0134023D01*
X0012900Y0134043D01*
X0013058Y0134059D01*
X0013215Y0134071D01*
X0013374Y0134079D01*
X0013532Y0134083D01*
X0013690Y0134083D01*
X0013848Y0134079D01*
X0014007Y0134071D01*
X0014164Y0134059D01*
X0014322Y0134043D01*
X0014479Y0134023D01*
X0014635Y0133999D01*
X0014791Y0133971D01*
X0014946Y0133940D01*
X0015101Y0133904D01*
X0015254Y0133865D01*
X0015406Y0133822D01*
X0015557Y0133775D01*
X0015707Y0133724D01*
X0015856Y0133669D01*
X0016003Y0133611D01*
X0016149Y0133549D01*
X0016293Y0133484D01*
X0016435Y0133414D01*
X0016576Y0133342D01*
X0016715Y0133265D01*
X0016851Y0133186D01*
X0016986Y0133102D01*
X0017119Y0133016D01*
X0017249Y0132926D01*
X0017377Y0132833D01*
X0017503Y0132737D01*
X0017626Y0132637D01*
X0017747Y0132535D01*
X0017865Y0132430D01*
X0017980Y0132321D01*
X0018093Y0132210D01*
X0018203Y0132096D01*
X0018310Y0131979D01*
X0018414Y0131860D01*
X0018515Y0131738D01*
X0018612Y0131613D01*
X0018707Y0131486D01*
X0018798Y0131357D01*
X0018887Y0131226D01*
X0018971Y0131092D01*
X0019053Y0130956D01*
X0019131Y0130819D01*
X0019205Y0130679D01*
X0019276Y0130537D01*
X0019344Y0130394D01*
X0019408Y0130249D01*
X0019468Y0130103D01*
X0019524Y0129955D01*
X0019577Y0129806D01*
X0019626Y0129655D01*
X0019671Y0129503D01*
X0019712Y0129350D01*
X0019750Y0129197D01*
X0019783Y0129042D01*
X0019813Y0128886D01*
X0019839Y0128730D01*
X0019860Y0128573D01*
X0019878Y0128416D01*
X0019892Y0128258D01*
X0019902Y0128100D01*
X0019908Y0127942D01*
X0019910Y0127784D01*
X0019908Y0127626D01*
X0019902Y0127468D01*
X0019892Y0127310D01*
X0019878Y0127152D01*
X0019860Y0126995D01*
X0019839Y0126838D01*
X0019813Y0126682D01*
X0019783Y0126526D01*
X0019750Y0126371D01*
X0019712Y0126218D01*
X0019671Y0126065D01*
X0019626Y0125913D01*
X0019577Y0125762D01*
X0019524Y0125613D01*
X0019468Y0125465D01*
X0019408Y0125319D01*
X0019344Y0125174D01*
X0019276Y0125031D01*
X0019205Y0124889D01*
X0019131Y0124749D01*
X0019053Y0124612D01*
X0018971Y0124476D01*
X0018887Y0124342D01*
X0018798Y0124211D01*
X0018707Y0124082D01*
X0018612Y0123955D01*
X0018515Y0123830D01*
X0018414Y0123708D01*
X0018310Y0123589D01*
X0018203Y0123472D01*
X0018093Y0123358D01*
X0017980Y0123247D01*
X0017865Y0123138D01*
X0017747Y0123033D01*
X0017626Y0122931D01*
X0017503Y0122831D01*
X0017377Y0122735D01*
X0017249Y0122642D01*
X0017119Y0122552D01*
X0016986Y0122466D01*
X0016851Y0122382D01*
X0016715Y0122303D01*
X0016576Y0122226D01*
X0016435Y0122154D01*
X0016293Y0122084D01*
X0016149Y0122019D01*
X0016003Y0121957D01*
X0015856Y0121899D01*
X0015707Y0121844D01*
X0015557Y0121793D01*
X0015406Y0121746D01*
X0015254Y0121703D01*
X0015101Y0121664D01*
X0014946Y0121628D01*
X0014791Y0121597D01*
X0014635Y0121569D01*
X0014479Y0121545D01*
X0014322Y0121525D01*
X0014164Y0121509D01*
X0014007Y0121497D01*
X0013848Y0121489D01*
X0013690Y0121485D01*
X0013532Y0121485D01*
X0013374Y0121489D01*
X0013215Y0121497D01*
X0013058Y0121509D01*
X0012900Y0121525D01*
X0012743Y0121545D01*
X0012587Y0121569D01*
X0012431Y0121597D01*
X0012276Y0121628D01*
X0012121Y0121664D01*
X0011968Y0121703D01*
X0011816Y0121746D01*
X0011665Y0121793D01*
X0011515Y0121844D01*
X0011366Y0121899D01*
X0011219Y0121957D01*
X0011073Y0122019D01*
X0010929Y0122084D01*
X0010787Y0122154D01*
X0010646Y0122226D01*
X0010507Y0122303D01*
X0010371Y0122382D01*
X0010236Y0122466D01*
X0010103Y0122552D01*
X0009973Y0122642D01*
X0009845Y0122735D01*
X0009719Y0122831D01*
X0009596Y0122931D01*
X0009475Y0123033D01*
X0009357Y0123138D01*
X0009242Y0123247D01*
X0009129Y0123358D01*
X0009019Y0123472D01*
X0008912Y0123589D01*
X0008808Y0123708D01*
X0008707Y0123830D01*
X0008610Y0123955D01*
X0008515Y0124082D01*
X0008424Y0124211D01*
X0008335Y0124342D01*
X0008251Y0124476D01*
X0008169Y0124612D01*
X0008091Y0124749D01*
X0008017Y0124889D01*
X0007946Y0125031D01*
X0007878Y0125174D01*
X0007814Y0125319D01*
X0007754Y0125465D01*
X0007698Y0125613D01*
X0007645Y0125762D01*
X0007596Y0125913D01*
X0007551Y0126065D01*
X0007510Y0126218D01*
X0007472Y0126371D01*
X0007439Y0126526D01*
X0007409Y0126682D01*
X0007383Y0126838D01*
X0007362Y0126995D01*
X0007344Y0127152D01*
X0007330Y0127310D01*
X0007320Y0127468D01*
X0007314Y0127626D01*
X0007312Y0127784D01*
X0285501Y0081800D02*
X0285503Y0081958D01*
X0285509Y0082116D01*
X0285519Y0082274D01*
X0285533Y0082432D01*
X0285551Y0082589D01*
X0285572Y0082746D01*
X0285598Y0082902D01*
X0285628Y0083058D01*
X0285661Y0083213D01*
X0285699Y0083366D01*
X0285740Y0083519D01*
X0285785Y0083671D01*
X0285834Y0083822D01*
X0285887Y0083971D01*
X0285943Y0084119D01*
X0286003Y0084265D01*
X0286067Y0084410D01*
X0286135Y0084553D01*
X0286206Y0084695D01*
X0286280Y0084835D01*
X0286358Y0084972D01*
X0286440Y0085108D01*
X0286524Y0085242D01*
X0286613Y0085373D01*
X0286704Y0085502D01*
X0286799Y0085629D01*
X0286896Y0085754D01*
X0286997Y0085876D01*
X0287101Y0085995D01*
X0287208Y0086112D01*
X0287318Y0086226D01*
X0287431Y0086337D01*
X0287546Y0086446D01*
X0287664Y0086551D01*
X0287785Y0086653D01*
X0287908Y0086753D01*
X0288034Y0086849D01*
X0288162Y0086942D01*
X0288292Y0087032D01*
X0288425Y0087118D01*
X0288560Y0087202D01*
X0288696Y0087281D01*
X0288835Y0087358D01*
X0288976Y0087430D01*
X0289118Y0087500D01*
X0289262Y0087565D01*
X0289408Y0087627D01*
X0289555Y0087685D01*
X0289704Y0087740D01*
X0289854Y0087791D01*
X0290005Y0087838D01*
X0290157Y0087881D01*
X0290310Y0087920D01*
X0290465Y0087956D01*
X0290620Y0087987D01*
X0290776Y0088015D01*
X0290932Y0088039D01*
X0291089Y0088059D01*
X0291247Y0088075D01*
X0291404Y0088087D01*
X0291563Y0088095D01*
X0291721Y0088099D01*
X0291879Y0088099D01*
X0292037Y0088095D01*
X0292196Y0088087D01*
X0292353Y0088075D01*
X0292511Y0088059D01*
X0292668Y0088039D01*
X0292824Y0088015D01*
X0292980Y0087987D01*
X0293135Y0087956D01*
X0293290Y0087920D01*
X0293443Y0087881D01*
X0293595Y0087838D01*
X0293746Y0087791D01*
X0293896Y0087740D01*
X0294045Y0087685D01*
X0294192Y0087627D01*
X0294338Y0087565D01*
X0294482Y0087500D01*
X0294624Y0087430D01*
X0294765Y0087358D01*
X0294904Y0087281D01*
X0295040Y0087202D01*
X0295175Y0087118D01*
X0295308Y0087032D01*
X0295438Y0086942D01*
X0295566Y0086849D01*
X0295692Y0086753D01*
X0295815Y0086653D01*
X0295936Y0086551D01*
X0296054Y0086446D01*
X0296169Y0086337D01*
X0296282Y0086226D01*
X0296392Y0086112D01*
X0296499Y0085995D01*
X0296603Y0085876D01*
X0296704Y0085754D01*
X0296801Y0085629D01*
X0296896Y0085502D01*
X0296987Y0085373D01*
X0297076Y0085242D01*
X0297160Y0085108D01*
X0297242Y0084972D01*
X0297320Y0084835D01*
X0297394Y0084695D01*
X0297465Y0084553D01*
X0297533Y0084410D01*
X0297597Y0084265D01*
X0297657Y0084119D01*
X0297713Y0083971D01*
X0297766Y0083822D01*
X0297815Y0083671D01*
X0297860Y0083519D01*
X0297901Y0083366D01*
X0297939Y0083213D01*
X0297972Y0083058D01*
X0298002Y0082902D01*
X0298028Y0082746D01*
X0298049Y0082589D01*
X0298067Y0082432D01*
X0298081Y0082274D01*
X0298091Y0082116D01*
X0298097Y0081958D01*
X0298099Y0081800D01*
X0298097Y0081642D01*
X0298091Y0081484D01*
X0298081Y0081326D01*
X0298067Y0081168D01*
X0298049Y0081011D01*
X0298028Y0080854D01*
X0298002Y0080698D01*
X0297972Y0080542D01*
X0297939Y0080387D01*
X0297901Y0080234D01*
X0297860Y0080081D01*
X0297815Y0079929D01*
X0297766Y0079778D01*
X0297713Y0079629D01*
X0297657Y0079481D01*
X0297597Y0079335D01*
X0297533Y0079190D01*
X0297465Y0079047D01*
X0297394Y0078905D01*
X0297320Y0078765D01*
X0297242Y0078628D01*
X0297160Y0078492D01*
X0297076Y0078358D01*
X0296987Y0078227D01*
X0296896Y0078098D01*
X0296801Y0077971D01*
X0296704Y0077846D01*
X0296603Y0077724D01*
X0296499Y0077605D01*
X0296392Y0077488D01*
X0296282Y0077374D01*
X0296169Y0077263D01*
X0296054Y0077154D01*
X0295936Y0077049D01*
X0295815Y0076947D01*
X0295692Y0076847D01*
X0295566Y0076751D01*
X0295438Y0076658D01*
X0295308Y0076568D01*
X0295175Y0076482D01*
X0295040Y0076398D01*
X0294904Y0076319D01*
X0294765Y0076242D01*
X0294624Y0076170D01*
X0294482Y0076100D01*
X0294338Y0076035D01*
X0294192Y0075973D01*
X0294045Y0075915D01*
X0293896Y0075860D01*
X0293746Y0075809D01*
X0293595Y0075762D01*
X0293443Y0075719D01*
X0293290Y0075680D01*
X0293135Y0075644D01*
X0292980Y0075613D01*
X0292824Y0075585D01*
X0292668Y0075561D01*
X0292511Y0075541D01*
X0292353Y0075525D01*
X0292196Y0075513D01*
X0292037Y0075505D01*
X0291879Y0075501D01*
X0291721Y0075501D01*
X0291563Y0075505D01*
X0291404Y0075513D01*
X0291247Y0075525D01*
X0291089Y0075541D01*
X0290932Y0075561D01*
X0290776Y0075585D01*
X0290620Y0075613D01*
X0290465Y0075644D01*
X0290310Y0075680D01*
X0290157Y0075719D01*
X0290005Y0075762D01*
X0289854Y0075809D01*
X0289704Y0075860D01*
X0289555Y0075915D01*
X0289408Y0075973D01*
X0289262Y0076035D01*
X0289118Y0076100D01*
X0288976Y0076170D01*
X0288835Y0076242D01*
X0288696Y0076319D01*
X0288560Y0076398D01*
X0288425Y0076482D01*
X0288292Y0076568D01*
X0288162Y0076658D01*
X0288034Y0076751D01*
X0287908Y0076847D01*
X0287785Y0076947D01*
X0287664Y0077049D01*
X0287546Y0077154D01*
X0287431Y0077263D01*
X0287318Y0077374D01*
X0287208Y0077488D01*
X0287101Y0077605D01*
X0286997Y0077724D01*
X0286896Y0077846D01*
X0286799Y0077971D01*
X0286704Y0078098D01*
X0286613Y0078227D01*
X0286524Y0078358D01*
X0286440Y0078492D01*
X0286358Y0078628D01*
X0286280Y0078765D01*
X0286206Y0078905D01*
X0286135Y0079047D01*
X0286067Y0079190D01*
X0286003Y0079335D01*
X0285943Y0079481D01*
X0285887Y0079629D01*
X0285834Y0079778D01*
X0285785Y0079929D01*
X0285740Y0080081D01*
X0285699Y0080234D01*
X0285661Y0080387D01*
X0285628Y0080542D01*
X0285598Y0080698D01*
X0285572Y0080854D01*
X0285551Y0081011D01*
X0285533Y0081168D01*
X0285519Y0081326D01*
X0285509Y0081484D01*
X0285503Y0081642D01*
X0285501Y0081800D01*
X0285501Y0061800D02*
X0285503Y0061958D01*
X0285509Y0062116D01*
X0285519Y0062274D01*
X0285533Y0062432D01*
X0285551Y0062589D01*
X0285572Y0062746D01*
X0285598Y0062902D01*
X0285628Y0063058D01*
X0285661Y0063213D01*
X0285699Y0063366D01*
X0285740Y0063519D01*
X0285785Y0063671D01*
X0285834Y0063822D01*
X0285887Y0063971D01*
X0285943Y0064119D01*
X0286003Y0064265D01*
X0286067Y0064410D01*
X0286135Y0064553D01*
X0286206Y0064695D01*
X0286280Y0064835D01*
X0286358Y0064972D01*
X0286440Y0065108D01*
X0286524Y0065242D01*
X0286613Y0065373D01*
X0286704Y0065502D01*
X0286799Y0065629D01*
X0286896Y0065754D01*
X0286997Y0065876D01*
X0287101Y0065995D01*
X0287208Y0066112D01*
X0287318Y0066226D01*
X0287431Y0066337D01*
X0287546Y0066446D01*
X0287664Y0066551D01*
X0287785Y0066653D01*
X0287908Y0066753D01*
X0288034Y0066849D01*
X0288162Y0066942D01*
X0288292Y0067032D01*
X0288425Y0067118D01*
X0288560Y0067202D01*
X0288696Y0067281D01*
X0288835Y0067358D01*
X0288976Y0067430D01*
X0289118Y0067500D01*
X0289262Y0067565D01*
X0289408Y0067627D01*
X0289555Y0067685D01*
X0289704Y0067740D01*
X0289854Y0067791D01*
X0290005Y0067838D01*
X0290157Y0067881D01*
X0290310Y0067920D01*
X0290465Y0067956D01*
X0290620Y0067987D01*
X0290776Y0068015D01*
X0290932Y0068039D01*
X0291089Y0068059D01*
X0291247Y0068075D01*
X0291404Y0068087D01*
X0291563Y0068095D01*
X0291721Y0068099D01*
X0291879Y0068099D01*
X0292037Y0068095D01*
X0292196Y0068087D01*
X0292353Y0068075D01*
X0292511Y0068059D01*
X0292668Y0068039D01*
X0292824Y0068015D01*
X0292980Y0067987D01*
X0293135Y0067956D01*
X0293290Y0067920D01*
X0293443Y0067881D01*
X0293595Y0067838D01*
X0293746Y0067791D01*
X0293896Y0067740D01*
X0294045Y0067685D01*
X0294192Y0067627D01*
X0294338Y0067565D01*
X0294482Y0067500D01*
X0294624Y0067430D01*
X0294765Y0067358D01*
X0294904Y0067281D01*
X0295040Y0067202D01*
X0295175Y0067118D01*
X0295308Y0067032D01*
X0295438Y0066942D01*
X0295566Y0066849D01*
X0295692Y0066753D01*
X0295815Y0066653D01*
X0295936Y0066551D01*
X0296054Y0066446D01*
X0296169Y0066337D01*
X0296282Y0066226D01*
X0296392Y0066112D01*
X0296499Y0065995D01*
X0296603Y0065876D01*
X0296704Y0065754D01*
X0296801Y0065629D01*
X0296896Y0065502D01*
X0296987Y0065373D01*
X0297076Y0065242D01*
X0297160Y0065108D01*
X0297242Y0064972D01*
X0297320Y0064835D01*
X0297394Y0064695D01*
X0297465Y0064553D01*
X0297533Y0064410D01*
X0297597Y0064265D01*
X0297657Y0064119D01*
X0297713Y0063971D01*
X0297766Y0063822D01*
X0297815Y0063671D01*
X0297860Y0063519D01*
X0297901Y0063366D01*
X0297939Y0063213D01*
X0297972Y0063058D01*
X0298002Y0062902D01*
X0298028Y0062746D01*
X0298049Y0062589D01*
X0298067Y0062432D01*
X0298081Y0062274D01*
X0298091Y0062116D01*
X0298097Y0061958D01*
X0298099Y0061800D01*
X0298097Y0061642D01*
X0298091Y0061484D01*
X0298081Y0061326D01*
X0298067Y0061168D01*
X0298049Y0061011D01*
X0298028Y0060854D01*
X0298002Y0060698D01*
X0297972Y0060542D01*
X0297939Y0060387D01*
X0297901Y0060234D01*
X0297860Y0060081D01*
X0297815Y0059929D01*
X0297766Y0059778D01*
X0297713Y0059629D01*
X0297657Y0059481D01*
X0297597Y0059335D01*
X0297533Y0059190D01*
X0297465Y0059047D01*
X0297394Y0058905D01*
X0297320Y0058765D01*
X0297242Y0058628D01*
X0297160Y0058492D01*
X0297076Y0058358D01*
X0296987Y0058227D01*
X0296896Y0058098D01*
X0296801Y0057971D01*
X0296704Y0057846D01*
X0296603Y0057724D01*
X0296499Y0057605D01*
X0296392Y0057488D01*
X0296282Y0057374D01*
X0296169Y0057263D01*
X0296054Y0057154D01*
X0295936Y0057049D01*
X0295815Y0056947D01*
X0295692Y0056847D01*
X0295566Y0056751D01*
X0295438Y0056658D01*
X0295308Y0056568D01*
X0295175Y0056482D01*
X0295040Y0056398D01*
X0294904Y0056319D01*
X0294765Y0056242D01*
X0294624Y0056170D01*
X0294482Y0056100D01*
X0294338Y0056035D01*
X0294192Y0055973D01*
X0294045Y0055915D01*
X0293896Y0055860D01*
X0293746Y0055809D01*
X0293595Y0055762D01*
X0293443Y0055719D01*
X0293290Y0055680D01*
X0293135Y0055644D01*
X0292980Y0055613D01*
X0292824Y0055585D01*
X0292668Y0055561D01*
X0292511Y0055541D01*
X0292353Y0055525D01*
X0292196Y0055513D01*
X0292037Y0055505D01*
X0291879Y0055501D01*
X0291721Y0055501D01*
X0291563Y0055505D01*
X0291404Y0055513D01*
X0291247Y0055525D01*
X0291089Y0055541D01*
X0290932Y0055561D01*
X0290776Y0055585D01*
X0290620Y0055613D01*
X0290465Y0055644D01*
X0290310Y0055680D01*
X0290157Y0055719D01*
X0290005Y0055762D01*
X0289854Y0055809D01*
X0289704Y0055860D01*
X0289555Y0055915D01*
X0289408Y0055973D01*
X0289262Y0056035D01*
X0289118Y0056100D01*
X0288976Y0056170D01*
X0288835Y0056242D01*
X0288696Y0056319D01*
X0288560Y0056398D01*
X0288425Y0056482D01*
X0288292Y0056568D01*
X0288162Y0056658D01*
X0288034Y0056751D01*
X0287908Y0056847D01*
X0287785Y0056947D01*
X0287664Y0057049D01*
X0287546Y0057154D01*
X0287431Y0057263D01*
X0287318Y0057374D01*
X0287208Y0057488D01*
X0287101Y0057605D01*
X0286997Y0057724D01*
X0286896Y0057846D01*
X0286799Y0057971D01*
X0286704Y0058098D01*
X0286613Y0058227D01*
X0286524Y0058358D01*
X0286440Y0058492D01*
X0286358Y0058628D01*
X0286280Y0058765D01*
X0286206Y0058905D01*
X0286135Y0059047D01*
X0286067Y0059190D01*
X0286003Y0059335D01*
X0285943Y0059481D01*
X0285887Y0059629D01*
X0285834Y0059778D01*
X0285785Y0059929D01*
X0285740Y0060081D01*
X0285699Y0060234D01*
X0285661Y0060387D01*
X0285628Y0060542D01*
X0285598Y0060698D01*
X0285572Y0060854D01*
X0285551Y0061011D01*
X0285533Y0061168D01*
X0285519Y0061326D01*
X0285509Y0061484D01*
X0285503Y0061642D01*
X0285501Y0061800D01*
X0298651Y0013611D02*
X0298653Y0013769D01*
X0298659Y0013927D01*
X0298669Y0014085D01*
X0298683Y0014243D01*
X0298701Y0014400D01*
X0298722Y0014557D01*
X0298748Y0014713D01*
X0298778Y0014869D01*
X0298811Y0015024D01*
X0298849Y0015177D01*
X0298890Y0015330D01*
X0298935Y0015482D01*
X0298984Y0015633D01*
X0299037Y0015782D01*
X0299093Y0015930D01*
X0299153Y0016076D01*
X0299217Y0016221D01*
X0299285Y0016364D01*
X0299356Y0016506D01*
X0299430Y0016646D01*
X0299508Y0016783D01*
X0299590Y0016919D01*
X0299674Y0017053D01*
X0299763Y0017184D01*
X0299854Y0017313D01*
X0299949Y0017440D01*
X0300046Y0017565D01*
X0300147Y0017687D01*
X0300251Y0017806D01*
X0300358Y0017923D01*
X0300468Y0018037D01*
X0300581Y0018148D01*
X0300696Y0018257D01*
X0300814Y0018362D01*
X0300935Y0018464D01*
X0301058Y0018564D01*
X0301184Y0018660D01*
X0301312Y0018753D01*
X0301442Y0018843D01*
X0301575Y0018929D01*
X0301710Y0019013D01*
X0301846Y0019092D01*
X0301985Y0019169D01*
X0302126Y0019241D01*
X0302268Y0019311D01*
X0302412Y0019376D01*
X0302558Y0019438D01*
X0302705Y0019496D01*
X0302854Y0019551D01*
X0303004Y0019602D01*
X0303155Y0019649D01*
X0303307Y0019692D01*
X0303460Y0019731D01*
X0303615Y0019767D01*
X0303770Y0019798D01*
X0303926Y0019826D01*
X0304082Y0019850D01*
X0304239Y0019870D01*
X0304397Y0019886D01*
X0304554Y0019898D01*
X0304713Y0019906D01*
X0304871Y0019910D01*
X0305029Y0019910D01*
X0305187Y0019906D01*
X0305346Y0019898D01*
X0305503Y0019886D01*
X0305661Y0019870D01*
X0305818Y0019850D01*
X0305974Y0019826D01*
X0306130Y0019798D01*
X0306285Y0019767D01*
X0306440Y0019731D01*
X0306593Y0019692D01*
X0306745Y0019649D01*
X0306896Y0019602D01*
X0307046Y0019551D01*
X0307195Y0019496D01*
X0307342Y0019438D01*
X0307488Y0019376D01*
X0307632Y0019311D01*
X0307774Y0019241D01*
X0307915Y0019169D01*
X0308054Y0019092D01*
X0308190Y0019013D01*
X0308325Y0018929D01*
X0308458Y0018843D01*
X0308588Y0018753D01*
X0308716Y0018660D01*
X0308842Y0018564D01*
X0308965Y0018464D01*
X0309086Y0018362D01*
X0309204Y0018257D01*
X0309319Y0018148D01*
X0309432Y0018037D01*
X0309542Y0017923D01*
X0309649Y0017806D01*
X0309753Y0017687D01*
X0309854Y0017565D01*
X0309951Y0017440D01*
X0310046Y0017313D01*
X0310137Y0017184D01*
X0310226Y0017053D01*
X0310310Y0016919D01*
X0310392Y0016783D01*
X0310470Y0016646D01*
X0310544Y0016506D01*
X0310615Y0016364D01*
X0310683Y0016221D01*
X0310747Y0016076D01*
X0310807Y0015930D01*
X0310863Y0015782D01*
X0310916Y0015633D01*
X0310965Y0015482D01*
X0311010Y0015330D01*
X0311051Y0015177D01*
X0311089Y0015024D01*
X0311122Y0014869D01*
X0311152Y0014713D01*
X0311178Y0014557D01*
X0311199Y0014400D01*
X0311217Y0014243D01*
X0311231Y0014085D01*
X0311241Y0013927D01*
X0311247Y0013769D01*
X0311249Y0013611D01*
X0311247Y0013453D01*
X0311241Y0013295D01*
X0311231Y0013137D01*
X0311217Y0012979D01*
X0311199Y0012822D01*
X0311178Y0012665D01*
X0311152Y0012509D01*
X0311122Y0012353D01*
X0311089Y0012198D01*
X0311051Y0012045D01*
X0311010Y0011892D01*
X0310965Y0011740D01*
X0310916Y0011589D01*
X0310863Y0011440D01*
X0310807Y0011292D01*
X0310747Y0011146D01*
X0310683Y0011001D01*
X0310615Y0010858D01*
X0310544Y0010716D01*
X0310470Y0010576D01*
X0310392Y0010439D01*
X0310310Y0010303D01*
X0310226Y0010169D01*
X0310137Y0010038D01*
X0310046Y0009909D01*
X0309951Y0009782D01*
X0309854Y0009657D01*
X0309753Y0009535D01*
X0309649Y0009416D01*
X0309542Y0009299D01*
X0309432Y0009185D01*
X0309319Y0009074D01*
X0309204Y0008965D01*
X0309086Y0008860D01*
X0308965Y0008758D01*
X0308842Y0008658D01*
X0308716Y0008562D01*
X0308588Y0008469D01*
X0308458Y0008379D01*
X0308325Y0008293D01*
X0308190Y0008209D01*
X0308054Y0008130D01*
X0307915Y0008053D01*
X0307774Y0007981D01*
X0307632Y0007911D01*
X0307488Y0007846D01*
X0307342Y0007784D01*
X0307195Y0007726D01*
X0307046Y0007671D01*
X0306896Y0007620D01*
X0306745Y0007573D01*
X0306593Y0007530D01*
X0306440Y0007491D01*
X0306285Y0007455D01*
X0306130Y0007424D01*
X0305974Y0007396D01*
X0305818Y0007372D01*
X0305661Y0007352D01*
X0305503Y0007336D01*
X0305346Y0007324D01*
X0305187Y0007316D01*
X0305029Y0007312D01*
X0304871Y0007312D01*
X0304713Y0007316D01*
X0304554Y0007324D01*
X0304397Y0007336D01*
X0304239Y0007352D01*
X0304082Y0007372D01*
X0303926Y0007396D01*
X0303770Y0007424D01*
X0303615Y0007455D01*
X0303460Y0007491D01*
X0303307Y0007530D01*
X0303155Y0007573D01*
X0303004Y0007620D01*
X0302854Y0007671D01*
X0302705Y0007726D01*
X0302558Y0007784D01*
X0302412Y0007846D01*
X0302268Y0007911D01*
X0302126Y0007981D01*
X0301985Y0008053D01*
X0301846Y0008130D01*
X0301710Y0008209D01*
X0301575Y0008293D01*
X0301442Y0008379D01*
X0301312Y0008469D01*
X0301184Y0008562D01*
X0301058Y0008658D01*
X0300935Y0008758D01*
X0300814Y0008860D01*
X0300696Y0008965D01*
X0300581Y0009074D01*
X0300468Y0009185D01*
X0300358Y0009299D01*
X0300251Y0009416D01*
X0300147Y0009535D01*
X0300046Y0009657D01*
X0299949Y0009782D01*
X0299854Y0009909D01*
X0299763Y0010038D01*
X0299674Y0010169D01*
X0299590Y0010303D01*
X0299508Y0010439D01*
X0299430Y0010576D01*
X0299356Y0010716D01*
X0299285Y0010858D01*
X0299217Y0011001D01*
X0299153Y0011146D01*
X0299093Y0011292D01*
X0299037Y0011440D01*
X0298984Y0011589D01*
X0298935Y0011740D01*
X0298890Y0011892D01*
X0298849Y0012045D01*
X0298811Y0012198D01*
X0298778Y0012353D01*
X0298748Y0012509D01*
X0298722Y0012665D01*
X0298701Y0012822D01*
X0298683Y0012979D01*
X0298669Y0013137D01*
X0298659Y0013295D01*
X0298653Y0013453D01*
X0298651Y0013611D01*
X0298651Y0127784D02*
X0298653Y0127942D01*
X0298659Y0128100D01*
X0298669Y0128258D01*
X0298683Y0128416D01*
X0298701Y0128573D01*
X0298722Y0128730D01*
X0298748Y0128886D01*
X0298778Y0129042D01*
X0298811Y0129197D01*
X0298849Y0129350D01*
X0298890Y0129503D01*
X0298935Y0129655D01*
X0298984Y0129806D01*
X0299037Y0129955D01*
X0299093Y0130103D01*
X0299153Y0130249D01*
X0299217Y0130394D01*
X0299285Y0130537D01*
X0299356Y0130679D01*
X0299430Y0130819D01*
X0299508Y0130956D01*
X0299590Y0131092D01*
X0299674Y0131226D01*
X0299763Y0131357D01*
X0299854Y0131486D01*
X0299949Y0131613D01*
X0300046Y0131738D01*
X0300147Y0131860D01*
X0300251Y0131979D01*
X0300358Y0132096D01*
X0300468Y0132210D01*
X0300581Y0132321D01*
X0300696Y0132430D01*
X0300814Y0132535D01*
X0300935Y0132637D01*
X0301058Y0132737D01*
X0301184Y0132833D01*
X0301312Y0132926D01*
X0301442Y0133016D01*
X0301575Y0133102D01*
X0301710Y0133186D01*
X0301846Y0133265D01*
X0301985Y0133342D01*
X0302126Y0133414D01*
X0302268Y0133484D01*
X0302412Y0133549D01*
X0302558Y0133611D01*
X0302705Y0133669D01*
X0302854Y0133724D01*
X0303004Y0133775D01*
X0303155Y0133822D01*
X0303307Y0133865D01*
X0303460Y0133904D01*
X0303615Y0133940D01*
X0303770Y0133971D01*
X0303926Y0133999D01*
X0304082Y0134023D01*
X0304239Y0134043D01*
X0304397Y0134059D01*
X0304554Y0134071D01*
X0304713Y0134079D01*
X0304871Y0134083D01*
X0305029Y0134083D01*
X0305187Y0134079D01*
X0305346Y0134071D01*
X0305503Y0134059D01*
X0305661Y0134043D01*
X0305818Y0134023D01*
X0305974Y0133999D01*
X0306130Y0133971D01*
X0306285Y0133940D01*
X0306440Y0133904D01*
X0306593Y0133865D01*
X0306745Y0133822D01*
X0306896Y0133775D01*
X0307046Y0133724D01*
X0307195Y0133669D01*
X0307342Y0133611D01*
X0307488Y0133549D01*
X0307632Y0133484D01*
X0307774Y0133414D01*
X0307915Y0133342D01*
X0308054Y0133265D01*
X0308190Y0133186D01*
X0308325Y0133102D01*
X0308458Y0133016D01*
X0308588Y0132926D01*
X0308716Y0132833D01*
X0308842Y0132737D01*
X0308965Y0132637D01*
X0309086Y0132535D01*
X0309204Y0132430D01*
X0309319Y0132321D01*
X0309432Y0132210D01*
X0309542Y0132096D01*
X0309649Y0131979D01*
X0309753Y0131860D01*
X0309854Y0131738D01*
X0309951Y0131613D01*
X0310046Y0131486D01*
X0310137Y0131357D01*
X0310226Y0131226D01*
X0310310Y0131092D01*
X0310392Y0130956D01*
X0310470Y0130819D01*
X0310544Y0130679D01*
X0310615Y0130537D01*
X0310683Y0130394D01*
X0310747Y0130249D01*
X0310807Y0130103D01*
X0310863Y0129955D01*
X0310916Y0129806D01*
X0310965Y0129655D01*
X0311010Y0129503D01*
X0311051Y0129350D01*
X0311089Y0129197D01*
X0311122Y0129042D01*
X0311152Y0128886D01*
X0311178Y0128730D01*
X0311199Y0128573D01*
X0311217Y0128416D01*
X0311231Y0128258D01*
X0311241Y0128100D01*
X0311247Y0127942D01*
X0311249Y0127784D01*
X0311247Y0127626D01*
X0311241Y0127468D01*
X0311231Y0127310D01*
X0311217Y0127152D01*
X0311199Y0126995D01*
X0311178Y0126838D01*
X0311152Y0126682D01*
X0311122Y0126526D01*
X0311089Y0126371D01*
X0311051Y0126218D01*
X0311010Y0126065D01*
X0310965Y0125913D01*
X0310916Y0125762D01*
X0310863Y0125613D01*
X0310807Y0125465D01*
X0310747Y0125319D01*
X0310683Y0125174D01*
X0310615Y0125031D01*
X0310544Y0124889D01*
X0310470Y0124749D01*
X0310392Y0124612D01*
X0310310Y0124476D01*
X0310226Y0124342D01*
X0310137Y0124211D01*
X0310046Y0124082D01*
X0309951Y0123955D01*
X0309854Y0123830D01*
X0309753Y0123708D01*
X0309649Y0123589D01*
X0309542Y0123472D01*
X0309432Y0123358D01*
X0309319Y0123247D01*
X0309204Y0123138D01*
X0309086Y0123033D01*
X0308965Y0122931D01*
X0308842Y0122831D01*
X0308716Y0122735D01*
X0308588Y0122642D01*
X0308458Y0122552D01*
X0308325Y0122466D01*
X0308190Y0122382D01*
X0308054Y0122303D01*
X0307915Y0122226D01*
X0307774Y0122154D01*
X0307632Y0122084D01*
X0307488Y0122019D01*
X0307342Y0121957D01*
X0307195Y0121899D01*
X0307046Y0121844D01*
X0306896Y0121793D01*
X0306745Y0121746D01*
X0306593Y0121703D01*
X0306440Y0121664D01*
X0306285Y0121628D01*
X0306130Y0121597D01*
X0305974Y0121569D01*
X0305818Y0121545D01*
X0305661Y0121525D01*
X0305503Y0121509D01*
X0305346Y0121497D01*
X0305187Y0121489D01*
X0305029Y0121485D01*
X0304871Y0121485D01*
X0304713Y0121489D01*
X0304554Y0121497D01*
X0304397Y0121509D01*
X0304239Y0121525D01*
X0304082Y0121545D01*
X0303926Y0121569D01*
X0303770Y0121597D01*
X0303615Y0121628D01*
X0303460Y0121664D01*
X0303307Y0121703D01*
X0303155Y0121746D01*
X0303004Y0121793D01*
X0302854Y0121844D01*
X0302705Y0121899D01*
X0302558Y0121957D01*
X0302412Y0122019D01*
X0302268Y0122084D01*
X0302126Y0122154D01*
X0301985Y0122226D01*
X0301846Y0122303D01*
X0301710Y0122382D01*
X0301575Y0122466D01*
X0301442Y0122552D01*
X0301312Y0122642D01*
X0301184Y0122735D01*
X0301058Y0122831D01*
X0300935Y0122931D01*
X0300814Y0123033D01*
X0300696Y0123138D01*
X0300581Y0123247D01*
X0300468Y0123358D01*
X0300358Y0123472D01*
X0300251Y0123589D01*
X0300147Y0123708D01*
X0300046Y0123830D01*
X0299949Y0123955D01*
X0299854Y0124082D01*
X0299763Y0124211D01*
X0299674Y0124342D01*
X0299590Y0124476D01*
X0299508Y0124612D01*
X0299430Y0124749D01*
X0299356Y0124889D01*
X0299285Y0125031D01*
X0299217Y0125174D01*
X0299153Y0125319D01*
X0299093Y0125465D01*
X0299037Y0125613D01*
X0298984Y0125762D01*
X0298935Y0125913D01*
X0298890Y0126065D01*
X0298849Y0126218D01*
X0298811Y0126371D01*
X0298778Y0126526D01*
X0298748Y0126682D01*
X0298722Y0126838D01*
X0298701Y0126995D01*
X0298683Y0127152D01*
X0298669Y0127310D01*
X0298659Y0127468D01*
X0298653Y0127626D01*
X0298651Y0127784D01*
D11*
X0291800Y0121800D03*
X0281800Y0121800D03*
X0151800Y0101800D03*
X0146800Y0111800D03*
X0111800Y0101800D03*
X0106800Y0111800D03*
X0126800Y0086800D03*
X0141800Y0086800D03*
X0141800Y0076800D03*
X0126800Y0076800D03*
X0126800Y0041800D03*
X0121800Y0031800D03*
X0086800Y0041800D03*
X0081800Y0031800D03*
X0061800Y0031800D03*
X0041800Y0036800D03*
X0061800Y0041800D03*
X0026800Y0051800D03*
X0016800Y0051800D03*
X0041800Y0076800D03*
X0031800Y0116800D03*
X0031800Y0126800D03*
X0026800Y0021800D03*
X0036800Y0021800D03*
X0281800Y0021800D03*
X0291800Y0021800D03*
D12*
X0256800Y0043800D02*
X0256800Y0049800D01*
X0246800Y0049800D02*
X0246800Y0043800D01*
X0236800Y0043800D02*
X0236800Y0049800D01*
X0226800Y0049800D02*
X0226800Y0043800D01*
X0216800Y0043800D02*
X0216800Y0049800D01*
X0206800Y0049800D02*
X0206800Y0043800D01*
X0196800Y0043800D02*
X0196800Y0049800D01*
X0186800Y0049800D02*
X0186800Y0043800D01*
X0176800Y0043800D02*
X0176800Y0049800D01*
X0166800Y0049800D02*
X0166800Y0043800D01*
X0211000Y0025700D02*
X0217000Y0025700D01*
X0236600Y0025700D02*
X0242600Y0025700D01*
X0242600Y0007900D02*
X0236600Y0007900D01*
X0217000Y0007900D02*
X0211000Y0007900D01*
X0131800Y0013800D02*
X0131800Y0019800D01*
X0121800Y0019800D02*
X0121800Y0013800D01*
X0111800Y0013800D02*
X0111800Y0019800D01*
X0101800Y0019800D02*
X0101800Y0013800D01*
X0091800Y0013800D02*
X0091800Y0019800D01*
X0081800Y0019800D02*
X0081800Y0013800D01*
X0071800Y0013800D02*
X0071800Y0019800D01*
X0061800Y0019800D02*
X0061800Y0013800D01*
X0051800Y0013800D02*
X0051800Y0019800D01*
X0166800Y0093800D02*
X0166800Y0099800D01*
X0176800Y0099800D02*
X0176800Y0093800D01*
X0186800Y0093800D02*
X0186800Y0099800D01*
X0196800Y0099800D02*
X0196800Y0093800D01*
X0206800Y0093800D02*
X0206800Y0099800D01*
X0216800Y0099800D02*
X0216800Y0093800D01*
X0226800Y0093800D02*
X0226800Y0099800D01*
X0236800Y0099800D02*
X0236800Y0093800D01*
X0246800Y0093800D02*
X0246800Y0099800D01*
X0256800Y0099800D02*
X0256800Y0093800D01*
X0131800Y0123800D02*
X0131800Y0129800D01*
X0121800Y0129800D02*
X0121800Y0123800D01*
X0111800Y0123800D02*
X0111800Y0129800D01*
X0101800Y0129800D02*
X0101800Y0123800D01*
X0091800Y0123800D02*
X0091800Y0129800D01*
X0081800Y0129800D02*
X0081800Y0123800D01*
X0071800Y0123800D02*
X0071800Y0129800D01*
X0061800Y0129800D02*
X0061800Y0123800D01*
X0051800Y0123800D02*
X0051800Y0129800D01*
D13*
X0016800Y0076800D03*
X0196800Y0116800D03*
X0206800Y0116800D03*
X0216800Y0116800D03*
X0226800Y0116800D03*
X0236800Y0116800D03*
X0246800Y0116800D03*
X0256800Y0116800D03*
X0256800Y0126800D03*
X0246800Y0126800D03*
X0236800Y0126800D03*
X0226800Y0126800D03*
X0216800Y0126800D03*
X0206800Y0126800D03*
X0196800Y0126800D03*
D14*
X0212400Y0122400D02*
X0216450Y0126450D01*
X0216800Y0126800D01*
X0212400Y0122400D02*
X0212400Y0115200D01*
X0216450Y0111150D01*
X0216450Y0097200D01*
X0216800Y0096800D01*
X0237150Y0088200D02*
X0241200Y0092250D01*
X0241200Y0112500D01*
X0237150Y0116550D01*
X0236800Y0116800D01*
X0246800Y0116800D02*
X0247050Y0116550D01*
X0251100Y0112500D01*
X0251100Y0091800D01*
X0247050Y0087750D01*
X0247050Y0046800D01*
X0246800Y0046800D01*
X0237150Y0046800D02*
X0236800Y0046800D01*
X0237150Y0046800D02*
X0237150Y0088200D01*
X0256500Y0097200D02*
X0256800Y0096800D01*
X0256500Y0097200D02*
X0256500Y0111150D01*
X0252450Y0115200D01*
X0252450Y0122400D01*
X0256500Y0126450D01*
X0256800Y0126800D01*
X0196800Y0096800D02*
X0196650Y0096750D01*
X0196650Y0055800D01*
X0191250Y0050400D01*
X0191250Y0042300D01*
X0188550Y0039600D01*
X0134550Y0039600D01*
X0128250Y0045900D01*
X0089100Y0045900D01*
X0088650Y0045900D01*
X0088650Y0057600D01*
X0084150Y0056700D02*
X0084150Y0047700D01*
X0077850Y0041400D01*
X0077850Y0040950D01*
X0077850Y0035550D01*
X0081450Y0031950D01*
X0081800Y0031800D01*
X0062100Y0031950D02*
X0061800Y0031800D01*
X0062100Y0031950D02*
X0062100Y0032850D01*
X0082350Y0053100D01*
X0082350Y0057600D01*
X0111150Y0086400D01*
X0126450Y0086400D01*
X0126800Y0086800D01*
X0130950Y0085500D02*
X0126450Y0081000D01*
X0108450Y0081000D01*
X0084150Y0056700D01*
X0088650Y0045900D02*
X0088650Y0043650D01*
X0086850Y0041850D01*
X0086800Y0041800D01*
X0130950Y0085500D02*
X0130950Y0101700D01*
X0144900Y0115650D01*
X0166950Y0115650D01*
X0185400Y0097200D01*
X0186750Y0097200D01*
X0186800Y0096800D01*
X0146700Y0091350D02*
X0142200Y0086850D01*
X0141800Y0086800D01*
X0146700Y0091350D02*
X0146700Y0111600D01*
X0146800Y0111800D01*
D15*
X0093150Y0089100D03*
X0088650Y0057600D03*
X0077850Y0040950D03*
D16*
X0081450Y0040757D02*
X0081800Y0041107D01*
X0081800Y0039729D01*
X0081800Y0036800D01*
X0080850Y0036800D02*
X0084729Y0036800D01*
X0088871Y0036800D01*
X0124729Y0036800D01*
X0128871Y0036800D01*
X0133470Y0036800D01*
X0133953Y0036600D02*
X0132851Y0037057D01*
X0130989Y0038918D01*
X0128871Y0036800D01*
X0126800Y0036800D02*
X0126800Y0021840D01*
X0126378Y0022859D01*
X0124859Y0024378D01*
X0122874Y0025200D01*
X0120726Y0025200D01*
X0118741Y0024378D01*
X0117222Y0022859D01*
X0116800Y0021840D01*
X0116800Y0029729D01*
X0119729Y0026800D01*
X0083871Y0026800D01*
X0086800Y0029729D01*
X0086800Y0033871D01*
X0083871Y0036800D01*
X0080850Y0036800D01*
X0080850Y0038859D01*
X0080902Y0038911D01*
X0081450Y0040234D01*
X0081450Y0040757D01*
X0081800Y0039729D02*
X0084729Y0036800D01*
X0086800Y0036800D02*
X0086800Y0021840D01*
X0086378Y0022859D01*
X0084859Y0024378D01*
X0082874Y0025200D01*
X0080726Y0025200D01*
X0078741Y0024378D01*
X0077222Y0022859D01*
X0076800Y0021840D01*
X0076800Y0029729D01*
X0079729Y0026800D01*
X0040100Y0026800D01*
X0040100Y0025571D02*
X0040100Y0032400D01*
X0041800Y0032400D01*
X0043623Y0032400D01*
X0046200Y0034977D01*
X0046200Y0036800D01*
X0046200Y0038623D01*
X0043623Y0041200D01*
X0041800Y0041200D01*
X0041800Y0036800D01*
X0041800Y0062025D01*
X0041575Y0061800D02*
X0085007Y0061800D01*
X0086800Y0063593D02*
X0086800Y0107025D01*
X0086575Y0106800D02*
X0104729Y0106800D01*
X0106325Y0106800D01*
X0092076Y0092552D01*
X0091111Y0092152D01*
X0090098Y0091139D01*
X0089550Y0089816D01*
X0089550Y0088384D01*
X0090098Y0087061D01*
X0091111Y0086048D01*
X0092434Y0085500D01*
X0093866Y0085500D01*
X0095189Y0086048D01*
X0096202Y0087061D01*
X0096602Y0088026D01*
X0107552Y0098977D01*
X0109729Y0096800D01*
X0105375Y0096800D01*
X0106800Y0098225D02*
X0106800Y0083564D01*
X0106751Y0083543D02*
X0082451Y0059243D01*
X0081607Y0058399D01*
X0081150Y0057297D01*
X0081150Y0048943D01*
X0076491Y0044284D01*
X0075811Y0044002D01*
X0074798Y0042989D01*
X0074250Y0041666D01*
X0074250Y0040234D01*
X0074798Y0038911D01*
X0074850Y0038859D01*
X0074850Y0034953D01*
X0075307Y0033851D01*
X0076800Y0032357D01*
X0076800Y0029729D01*
X0076800Y0031800D02*
X0061800Y0031800D01*
X0061800Y0036800D01*
X0061800Y0036200D02*
X0059977Y0036200D01*
X0057400Y0033623D01*
X0057400Y0031800D01*
X0061800Y0031800D01*
X0061800Y0031800D01*
X0061800Y0036200D01*
X0063623Y0036200D01*
X0066200Y0033623D01*
X0066200Y0031800D01*
X0061800Y0031800D01*
X0061800Y0031800D01*
X0061800Y0025200D01*
X0062874Y0025200D02*
X0060726Y0025200D01*
X0058741Y0024378D01*
X0057222Y0022859D01*
X0056800Y0021840D01*
X0056800Y0039729D01*
X0059729Y0036800D01*
X0041800Y0036800D01*
X0041800Y0036800D01*
X0046200Y0036800D01*
X0041800Y0036800D01*
X0041800Y0036800D01*
X0041800Y0004200D01*
X0046800Y0004200D02*
X0046800Y0011760D01*
X0046784Y0011800D02*
X0022277Y0011800D01*
X0022310Y0011881D02*
X0020986Y0008683D01*
X0018539Y0006236D01*
X0015341Y0004912D01*
X0011881Y0004912D01*
X0008683Y0006236D01*
X0006236Y0008683D01*
X0004912Y0011881D01*
X0004912Y0015341D01*
X0006236Y0018539D01*
X0008683Y0020986D01*
X0011881Y0022310D01*
X0015341Y0022310D01*
X0018539Y0020986D01*
X0020986Y0018539D01*
X0022310Y0015341D01*
X0022310Y0011881D01*
X0021800Y0010649D02*
X0021800Y0004200D01*
X0016800Y0004200D02*
X0016800Y0005516D01*
X0019103Y0006800D02*
X0206314Y0006800D01*
X0206318Y0006776D02*
X0206552Y0006057D01*
X0206895Y0005384D01*
X0207339Y0004773D01*
X0207873Y0004239D01*
X0207926Y0004200D01*
X0004200Y0004200D01*
X0004200Y0137195D01*
X0097570Y0137195D01*
X0094784Y0134409D01*
X0092874Y0135200D01*
X0090726Y0135200D01*
X0088741Y0134378D01*
X0087222Y0132859D01*
X0086800Y0131840D01*
X0086800Y0137195D01*
X0084859Y0134378D02*
X0082874Y0135200D01*
X0080726Y0135200D01*
X0078741Y0134378D01*
X0077222Y0132859D01*
X0076800Y0131840D01*
X0076800Y0137195D01*
X0081800Y0137195D02*
X0081800Y0135200D01*
X0084859Y0134378D02*
X0086378Y0132859D01*
X0086800Y0131840D01*
X0091800Y0135200D02*
X0091800Y0137195D01*
X0096800Y0137195D02*
X0096800Y0136425D01*
X0097175Y0136800D02*
X0004200Y0136800D01*
X0006800Y0137195D02*
X0006800Y0133276D01*
X0006236Y0132712D02*
X0004912Y0129515D01*
X0004912Y0126054D01*
X0006236Y0122857D01*
X0008683Y0120409D01*
X0011881Y0119085D01*
X0015341Y0119085D01*
X0018539Y0120409D01*
X0020986Y0122857D01*
X0022310Y0126054D01*
X0022310Y0129515D01*
X0020986Y0132712D01*
X0018539Y0135159D01*
X0015341Y0136483D01*
X0011881Y0136483D01*
X0008683Y0135159D01*
X0006236Y0132712D01*
X0005858Y0131800D02*
X0004200Y0131800D01*
X0004200Y0126800D02*
X0004912Y0126800D01*
X0006800Y0122293D02*
X0006800Y0019103D01*
X0005516Y0016800D02*
X0004200Y0016800D01*
X0004200Y0011800D02*
X0004945Y0011800D01*
X0006800Y0008119D02*
X0006800Y0004200D01*
X0011800Y0004200D02*
X0011800Y0004945D01*
X0008119Y0006800D02*
X0004200Y0006800D01*
X0021800Y0016573D02*
X0021800Y0019729D01*
X0024729Y0016800D01*
X0021706Y0016800D01*
X0024729Y0016800D02*
X0028871Y0016800D01*
X0034729Y0016800D01*
X0038871Y0016800D01*
X0046400Y0016800D01*
X0041800Y0019729D02*
X0041800Y0023871D01*
X0040100Y0025571D01*
X0041800Y0021800D02*
X0046784Y0021800D01*
X0046800Y0021840D02*
X0046800Y0067025D01*
X0046575Y0066800D02*
X0090007Y0066800D01*
X0091800Y0068593D02*
X0091800Y0085763D01*
X0090359Y0086800D02*
X0066575Y0086800D01*
X0066800Y0087025D02*
X0066800Y0021840D01*
X0066378Y0022859D01*
X0064859Y0024378D01*
X0062874Y0025200D01*
X0063623Y0027400D02*
X0066200Y0029977D01*
X0066200Y0031800D01*
X0061800Y0031800D01*
X0040100Y0031800D01*
X0041800Y0032400D02*
X0041800Y0036800D01*
X0041800Y0041200D01*
X0040100Y0041200D01*
X0040100Y0060325D01*
X0098922Y0119147D01*
X0100726Y0118400D01*
X0102874Y0118400D01*
X0104859Y0119222D01*
X0106378Y0120741D01*
X0106800Y0121760D01*
X0106800Y0116800D01*
X0108871Y0116800D02*
X0104729Y0116800D01*
X0101800Y0113871D01*
X0101800Y0118400D01*
X0096800Y0117025D02*
X0096800Y0097275D01*
X0096325Y0096800D02*
X0076575Y0096800D01*
X0076800Y0097025D02*
X0076800Y0044593D01*
X0079007Y0046800D02*
X0040100Y0046800D01*
X0033700Y0046800D02*
X0032425Y0046800D01*
X0031800Y0046175D02*
X0031800Y0023871D01*
X0031800Y0019729D01*
X0031800Y0004200D01*
X0026800Y0004200D02*
X0026800Y0016800D01*
X0028871Y0016800D02*
X0031800Y0019729D01*
X0034729Y0016800D01*
X0036800Y0016800D02*
X0036800Y0004200D01*
X0047222Y0010741D02*
X0048741Y0009222D01*
X0050726Y0008400D01*
X0052874Y0008400D01*
X0054859Y0009222D01*
X0056378Y0010741D01*
X0056800Y0011760D01*
X0056800Y0004200D01*
X0051800Y0004200D02*
X0051800Y0008400D01*
X0047222Y0010741D02*
X0046400Y0012726D01*
X0046400Y0020874D01*
X0047222Y0022859D01*
X0048741Y0024378D01*
X0050726Y0025200D01*
X0052874Y0025200D01*
X0054859Y0024378D01*
X0056378Y0022859D01*
X0056800Y0021840D01*
X0051800Y0025200D02*
X0051800Y0072025D01*
X0051575Y0071800D02*
X0095007Y0071800D01*
X0096800Y0073593D02*
X0096800Y0088225D01*
X0095941Y0086800D02*
X0126800Y0086800D01*
X0126800Y0117325D01*
X0126275Y0116800D02*
X0141807Y0116800D01*
X0141800Y0116793D02*
X0141800Y0131350D01*
X0137200Y0130874D02*
X0137003Y0131350D01*
X0193713Y0131350D01*
X0191400Y0129037D01*
X0191400Y0124563D01*
X0194163Y0121800D01*
X0136816Y0121800D01*
X0136800Y0121760D02*
X0136800Y0111793D01*
X0136807Y0111800D02*
X0121275Y0111800D01*
X0121800Y0112325D02*
X0121800Y0084000D01*
X0122400Y0084977D02*
X0123377Y0084000D01*
X0107853Y0084000D01*
X0106751Y0083543D01*
X0105007Y0081800D02*
X0061575Y0081800D01*
X0061800Y0082025D02*
X0061800Y0046800D01*
X0063871Y0046800D02*
X0059729Y0046800D01*
X0056800Y0043871D01*
X0056800Y0077025D01*
X0056575Y0076800D02*
X0100007Y0076800D01*
X0101800Y0078593D02*
X0101800Y0093225D01*
X0100375Y0091800D02*
X0127950Y0091800D01*
X0127950Y0091200D02*
X0126800Y0091200D01*
X0126800Y0086800D01*
X0126800Y0086800D01*
X0126800Y0086800D01*
X0122400Y0086800D01*
X0122400Y0088623D01*
X0124977Y0091200D01*
X0126800Y0091200D01*
X0126800Y0086800D01*
X0122400Y0086800D01*
X0122400Y0084977D01*
X0116800Y0084000D02*
X0116800Y0107325D01*
X0116275Y0106800D02*
X0131807Y0106800D01*
X0131800Y0106793D02*
X0131800Y0118400D01*
X0132874Y0118400D02*
X0134859Y0119222D01*
X0136378Y0120741D01*
X0137200Y0122726D01*
X0137200Y0130874D01*
X0137200Y0126800D02*
X0191400Y0126800D01*
X0191800Y0124163D02*
X0191800Y0119437D01*
X0191400Y0119037D02*
X0191400Y0114563D01*
X0194563Y0111400D01*
X0199037Y0111400D01*
X0201800Y0114163D01*
X0201800Y0101840D01*
X0201378Y0102859D01*
X0199859Y0104378D01*
X0197874Y0105200D01*
X0195726Y0105200D01*
X0193741Y0104378D01*
X0192222Y0102859D01*
X0191800Y0101840D01*
X0191800Y0114163D01*
X0191400Y0116800D02*
X0170043Y0116800D01*
X0169493Y0117349D02*
X0168649Y0118193D01*
X0167547Y0118650D01*
X0144303Y0118650D01*
X0143201Y0118193D01*
X0129251Y0104243D01*
X0128407Y0103399D01*
X0127950Y0102297D01*
X0127950Y0091200D01*
X0133950Y0091800D02*
X0148450Y0091800D01*
X0146200Y0088623D02*
X0143623Y0091200D01*
X0141800Y0091200D01*
X0141800Y0086800D01*
X0141800Y0108307D01*
X0142935Y0109442D02*
X0144977Y0107400D01*
X0146800Y0107400D01*
X0148623Y0107400D01*
X0151200Y0109977D01*
X0151200Y0111800D01*
X0151200Y0112650D01*
X0165707Y0112650D01*
X0173910Y0104448D01*
X0173741Y0104378D01*
X0172222Y0102859D01*
X0171800Y0101840D01*
X0171800Y0106557D01*
X0171557Y0106800D02*
X0140293Y0106800D01*
X0142935Y0109442D02*
X0133950Y0100457D01*
X0133950Y0084903D01*
X0133493Y0083801D01*
X0130182Y0080489D01*
X0131800Y0078871D01*
X0131800Y0074729D01*
X0128871Y0071800D01*
X0139729Y0071800D01*
X0143871Y0071800D01*
X0157225Y0071800D01*
X0156800Y0072225D02*
X0156800Y0042600D01*
X0161400Y0042726D02*
X0161452Y0042600D01*
X0135793Y0042600D01*
X0130793Y0047599D01*
X0129949Y0048443D01*
X0128847Y0048900D01*
X0091650Y0048900D01*
X0091650Y0055509D01*
X0091702Y0055561D01*
X0092250Y0056884D01*
X0092250Y0058316D01*
X0091702Y0059639D01*
X0091517Y0059824D01*
X0109693Y0078000D01*
X0121800Y0078000D01*
X0121800Y0074729D01*
X0121800Y0048900D01*
X0126800Y0048900D02*
X0126800Y0071800D01*
X0124729Y0071800D02*
X0128871Y0071800D01*
X0124729Y0071800D02*
X0103493Y0071800D01*
X0101800Y0070107D02*
X0101800Y0048900D01*
X0096800Y0048900D02*
X0096800Y0065107D01*
X0098493Y0066800D02*
X0162225Y0066800D01*
X0161800Y0067225D02*
X0161800Y0051840D01*
X0161784Y0051800D02*
X0091650Y0051800D01*
X0091800Y0048900D02*
X0091800Y0055798D01*
X0092215Y0056800D02*
X0172225Y0056800D01*
X0171800Y0057225D02*
X0171800Y0051840D01*
X0171816Y0051800D02*
X0172432Y0051800D01*
X0172352Y0051643D02*
X0172695Y0052316D01*
X0173139Y0052927D01*
X0173673Y0053461D01*
X0174284Y0053905D01*
X0174837Y0054187D01*
X0149400Y0079625D01*
X0146800Y0077025D01*
X0146800Y0042600D01*
X0151800Y0042600D02*
X0151800Y0077225D01*
X0152225Y0076800D02*
X0146800Y0076800D01*
X0146800Y0077025D02*
X0146800Y0074729D01*
X0143871Y0071800D01*
X0141800Y0071800D02*
X0141800Y0042600D01*
X0136800Y0042600D02*
X0136800Y0074729D01*
X0139729Y0071800D01*
X0136800Y0074729D02*
X0136800Y0078871D01*
X0136800Y0103307D01*
X0135293Y0101800D02*
X0146800Y0101800D01*
X0146800Y0103871D02*
X0146800Y0099729D01*
X0146800Y0086075D01*
X0146687Y0085963D02*
X0146200Y0085475D01*
X0146200Y0086800D01*
X0146200Y0088623D01*
X0146200Y0086800D02*
X0141800Y0086800D01*
X0147525Y0086800D01*
X0147587Y0086863D02*
X0146687Y0085963D01*
X0146687Y0085963D01*
X0146200Y0086800D02*
X0141800Y0086800D01*
X0141800Y0086800D01*
X0141800Y0086800D01*
X0141800Y0081800D01*
X0141800Y0082400D02*
X0139977Y0082400D01*
X0137400Y0084977D01*
X0137400Y0086800D01*
X0141800Y0086800D01*
X0133950Y0086800D01*
X0137400Y0086800D02*
X0137400Y0088623D01*
X0139977Y0091200D01*
X0141800Y0091200D01*
X0141800Y0086800D01*
X0141800Y0082400D01*
X0143125Y0082400D01*
X0142525Y0081800D01*
X0131493Y0081800D01*
X0131800Y0082107D02*
X0131800Y0046593D01*
X0131593Y0046800D02*
X0161400Y0046800D01*
X0161400Y0050874D02*
X0161400Y0042726D01*
X0161800Y0036600D02*
X0161800Y0004200D01*
X0156800Y0004200D02*
X0156800Y0036600D01*
X0151800Y0036600D02*
X0151800Y0004200D01*
X0146800Y0004200D02*
X0146800Y0036600D01*
X0141800Y0036600D02*
X0141800Y0004200D01*
X0136800Y0004200D02*
X0136800Y0011760D01*
X0136816Y0011800D02*
X0208202Y0011800D01*
X0208484Y0012005D02*
X0207873Y0011561D01*
X0207339Y0011027D01*
X0206895Y0010416D01*
X0206552Y0009743D01*
X0206318Y0009024D01*
X0206200Y0008278D01*
X0206200Y0008100D01*
X0213800Y0008100D01*
X0213800Y0012700D01*
X0210622Y0012700D01*
X0209876Y0012582D01*
X0209157Y0012348D01*
X0208484Y0012005D01*
X0206800Y0010230D02*
X0206800Y0022263D01*
X0206422Y0022641D02*
X0207941Y0021122D01*
X0209926Y0020300D01*
X0218074Y0020300D01*
X0220059Y0021122D01*
X0221578Y0022641D01*
X0222400Y0024626D01*
X0222400Y0026774D01*
X0221578Y0028759D01*
X0220059Y0030278D01*
X0218074Y0031100D01*
X0209926Y0031100D01*
X0207941Y0030278D01*
X0206422Y0028759D01*
X0205600Y0026774D01*
X0205600Y0024626D01*
X0206422Y0022641D01*
X0207263Y0021800D02*
X0136816Y0021800D01*
X0136800Y0021840D02*
X0136800Y0036600D01*
X0133953Y0036600D02*
X0189147Y0036600D01*
X0190249Y0037057D01*
X0191093Y0037901D01*
X0193078Y0039885D01*
X0193741Y0039222D01*
X0195726Y0038400D01*
X0197874Y0038400D01*
X0199859Y0039222D01*
X0201378Y0040741D01*
X0201800Y0041760D01*
X0201800Y0004200D01*
X0206800Y0004200D02*
X0206800Y0005570D01*
X0206318Y0006776D02*
X0206200Y0007522D01*
X0206200Y0007700D01*
X0213800Y0007700D01*
X0213800Y0008100D01*
X0214200Y0008100D01*
X0214200Y0012700D01*
X0217378Y0012700D01*
X0218124Y0012582D01*
X0218843Y0012348D01*
X0219516Y0012005D01*
X0220127Y0011561D01*
X0220661Y0011027D01*
X0221105Y0010416D01*
X0221448Y0009743D01*
X0221682Y0009024D01*
X0221800Y0008278D01*
X0221800Y0008100D01*
X0214200Y0008100D01*
X0214200Y0007700D01*
X0221800Y0007700D01*
X0221800Y0007522D01*
X0221682Y0006776D01*
X0221448Y0006057D01*
X0221105Y0005384D01*
X0220661Y0004773D01*
X0220127Y0004239D01*
X0220074Y0004200D01*
X0233526Y0004200D01*
X0233473Y0004239D01*
X0232939Y0004773D01*
X0232495Y0005384D01*
X0232152Y0006057D01*
X0231918Y0006776D01*
X0231800Y0007522D01*
X0231800Y0004200D01*
X0226800Y0004200D02*
X0226800Y0038400D01*
X0227874Y0038400D02*
X0229859Y0039222D01*
X0231378Y0040741D01*
X0231800Y0041760D01*
X0231800Y0028223D01*
X0232022Y0028759D02*
X0231200Y0026774D01*
X0231200Y0024626D01*
X0232022Y0022641D01*
X0233541Y0021122D01*
X0235526Y0020300D01*
X0243674Y0020300D01*
X0245659Y0021122D01*
X0247178Y0022641D01*
X0248000Y0024626D01*
X0248000Y0026774D01*
X0247178Y0028759D01*
X0245659Y0030278D01*
X0243674Y0031100D01*
X0235526Y0031100D01*
X0233541Y0030278D01*
X0232022Y0028759D01*
X0231211Y0026800D02*
X0222389Y0026800D01*
X0221800Y0028223D02*
X0221800Y0041760D01*
X0222222Y0040741D01*
X0223741Y0039222D01*
X0225726Y0038400D01*
X0227874Y0038400D01*
X0232222Y0040741D02*
X0233741Y0039222D01*
X0235726Y0038400D01*
X0237874Y0038400D01*
X0239859Y0039222D01*
X0241378Y0040741D01*
X0241800Y0041760D01*
X0241800Y0031100D01*
X0236800Y0031100D02*
X0236800Y0038400D01*
X0232222Y0040741D02*
X0231800Y0041760D01*
X0221800Y0041760D02*
X0221378Y0040741D01*
X0219859Y0039222D01*
X0217874Y0038400D01*
X0215726Y0038400D01*
X0213741Y0039222D01*
X0212222Y0040741D01*
X0211800Y0041760D01*
X0211800Y0031100D01*
X0216800Y0031100D02*
X0216800Y0038400D01*
X0211378Y0040741D02*
X0211800Y0041760D01*
X0211378Y0040741D02*
X0209859Y0039222D01*
X0207874Y0038400D01*
X0205726Y0038400D01*
X0203741Y0039222D01*
X0202222Y0040741D01*
X0201800Y0041760D01*
X0196800Y0038400D02*
X0196800Y0004200D01*
X0191800Y0004200D02*
X0191800Y0038607D01*
X0189630Y0036800D02*
X0278950Y0036800D01*
X0285350Y0036800D02*
X0314361Y0036800D01*
X0314361Y0031800D02*
X0285350Y0031800D01*
X0278950Y0031800D02*
X0126800Y0031800D01*
X0126800Y0033871D02*
X0123871Y0036800D01*
X0119729Y0036800D01*
X0116800Y0033871D01*
X0116800Y0042900D01*
X0111800Y0042900D02*
X0111800Y0025200D01*
X0112874Y0025200D02*
X0110726Y0025200D01*
X0108741Y0024378D01*
X0107222Y0022859D01*
X0106800Y0021840D01*
X0106800Y0042900D01*
X0101800Y0042900D02*
X0101800Y0025200D01*
X0102874Y0025200D02*
X0100726Y0025200D01*
X0098741Y0024378D01*
X0097222Y0022859D01*
X0096800Y0021840D01*
X0096800Y0042900D01*
X0091800Y0042900D02*
X0091800Y0025200D01*
X0092874Y0025200D02*
X0090726Y0025200D01*
X0088741Y0024378D01*
X0087222Y0022859D01*
X0086800Y0021840D01*
X0081800Y0025200D02*
X0081800Y0026800D01*
X0079729Y0026800D02*
X0083871Y0026800D01*
X0076378Y0022859D02*
X0074859Y0024378D01*
X0072874Y0025200D01*
X0070726Y0025200D01*
X0068741Y0024378D01*
X0067222Y0022859D01*
X0066800Y0021840D01*
X0071800Y0025200D02*
X0071800Y0092025D01*
X0071575Y0091800D02*
X0090759Y0091800D01*
X0091800Y0092437D02*
X0091800Y0112025D01*
X0091575Y0111800D02*
X0101800Y0111800D01*
X0101800Y0113871D02*
X0101800Y0109729D01*
X0101800Y0102275D01*
X0101325Y0101800D02*
X0081575Y0101800D01*
X0081800Y0102025D02*
X0081800Y0058593D01*
X0081150Y0056800D02*
X0040100Y0056800D01*
X0040100Y0051800D02*
X0081150Y0051800D01*
X0091800Y0059402D02*
X0091800Y0060107D01*
X0093493Y0061800D02*
X0167225Y0061800D01*
X0166800Y0062225D02*
X0166800Y0055200D01*
X0167874Y0055200D02*
X0165726Y0055200D01*
X0163741Y0054378D01*
X0162222Y0052859D01*
X0161400Y0050874D01*
X0167874Y0055200D02*
X0169859Y0054378D01*
X0171378Y0052859D01*
X0172145Y0051007D01*
X0172352Y0051643D01*
X0183719Y0054356D02*
X0153925Y0084150D01*
X0154363Y0084587D01*
X0154850Y0085763D01*
X0154850Y0097779D01*
X0156800Y0099729D01*
X0156800Y0103871D01*
X0153871Y0106800D01*
X0149729Y0106800D01*
X0146800Y0103871D01*
X0146800Y0111800D01*
X0166557Y0111800D01*
X0166800Y0111557D02*
X0166800Y0105200D01*
X0167874Y0105200D02*
X0165726Y0105200D01*
X0163741Y0104378D01*
X0162222Y0102859D01*
X0161400Y0100874D01*
X0161400Y0092726D01*
X0162222Y0090741D01*
X0163741Y0089222D01*
X0165726Y0088400D01*
X0167874Y0088400D01*
X0169859Y0089222D01*
X0171378Y0090741D01*
X0171800Y0091760D01*
X0171800Y0066275D01*
X0171275Y0066800D02*
X0193650Y0066800D01*
X0193650Y0061800D02*
X0176275Y0061800D01*
X0176800Y0061275D02*
X0176800Y0088400D01*
X0177874Y0088400D02*
X0179859Y0089222D01*
X0181378Y0090741D01*
X0181800Y0091760D01*
X0181800Y0056275D01*
X0181275Y0056800D02*
X0193407Y0056800D01*
X0193650Y0057043D02*
X0190422Y0053815D01*
X0189859Y0054378D01*
X0187874Y0055200D01*
X0185726Y0055200D01*
X0183741Y0054378D01*
X0183719Y0054356D01*
X0186800Y0055200D02*
X0186800Y0088400D01*
X0187874Y0088400D02*
X0189859Y0089222D01*
X0191378Y0090741D01*
X0191800Y0091760D01*
X0191800Y0055193D01*
X0193650Y0057043D02*
X0193650Y0089313D01*
X0192222Y0090741D01*
X0191800Y0091760D01*
X0187874Y0088400D02*
X0185726Y0088400D01*
X0183741Y0089222D01*
X0182222Y0090741D01*
X0181800Y0091760D01*
X0177874Y0088400D02*
X0175726Y0088400D01*
X0173741Y0089222D01*
X0172222Y0090741D01*
X0171800Y0091760D01*
X0166800Y0088400D02*
X0166800Y0071275D01*
X0166275Y0071800D02*
X0193650Y0071800D01*
X0193650Y0076800D02*
X0161275Y0076800D01*
X0161800Y0076275D02*
X0161800Y0091760D01*
X0161784Y0091800D02*
X0154850Y0091800D01*
X0148450Y0087725D02*
X0147587Y0086863D01*
X0147587Y0086863D01*
X0148450Y0087725D02*
X0148450Y0098079D01*
X0146800Y0099729D01*
X0151650Y0101700D02*
X0151800Y0101800D01*
X0151650Y0101700D02*
X0151650Y0086400D01*
X0149400Y0084150D01*
X0149850Y0083700D01*
X0186750Y0046800D01*
X0186800Y0046800D01*
X0206800Y0038400D02*
X0206800Y0029137D01*
X0205611Y0026800D02*
X0123871Y0026800D01*
X0126800Y0029729D01*
X0126800Y0033871D01*
X0124729Y0036800D02*
X0121800Y0039729D01*
X0121800Y0036800D01*
X0121800Y0039729D02*
X0121800Y0042900D01*
X0091800Y0042900D01*
X0091800Y0039729D01*
X0088871Y0036800D01*
X0086800Y0031800D02*
X0116800Y0031800D01*
X0116800Y0033871D02*
X0116800Y0029729D01*
X0119729Y0026800D02*
X0123871Y0026800D01*
X0121800Y0026800D02*
X0121800Y0025200D01*
X0127222Y0022859D02*
X0126800Y0021840D01*
X0127222Y0022859D02*
X0128741Y0024378D01*
X0130726Y0025200D01*
X0132874Y0025200D01*
X0134859Y0024378D01*
X0136378Y0022859D01*
X0137200Y0020874D01*
X0137200Y0012726D01*
X0136378Y0010741D01*
X0134859Y0009222D01*
X0132874Y0008400D01*
X0130726Y0008400D01*
X0128741Y0009222D01*
X0127222Y0010741D01*
X0126800Y0011760D01*
X0126800Y0004200D01*
X0121800Y0004200D02*
X0121800Y0008400D01*
X0122874Y0008400D02*
X0124859Y0009222D01*
X0126378Y0010741D01*
X0126800Y0011760D01*
X0120726Y0008400D02*
X0118741Y0009222D01*
X0117222Y0010741D01*
X0116800Y0011760D01*
X0116800Y0004200D01*
X0111800Y0004200D02*
X0111800Y0008400D01*
X0112874Y0008400D02*
X0114859Y0009222D01*
X0116378Y0010741D01*
X0116800Y0011760D01*
X0110726Y0008400D02*
X0108741Y0009222D01*
X0107222Y0010741D01*
X0106800Y0011760D01*
X0106800Y0004200D01*
X0101800Y0004200D02*
X0101800Y0008400D01*
X0100726Y0008400D02*
X0102874Y0008400D01*
X0104859Y0009222D01*
X0106378Y0010741D01*
X0106800Y0011760D01*
X0110726Y0008400D02*
X0112874Y0008400D01*
X0120726Y0008400D02*
X0122874Y0008400D01*
X0131800Y0008400D02*
X0131800Y0004200D01*
X0137200Y0016800D02*
X0279729Y0016800D01*
X0283871Y0016800D01*
X0289729Y0016800D01*
X0293871Y0016800D01*
X0296855Y0016800D01*
X0296800Y0016668D02*
X0296800Y0054497D01*
X0296728Y0054425D02*
X0299175Y0056872D01*
X0300499Y0060070D01*
X0300499Y0063530D01*
X0299175Y0066728D01*
X0296728Y0069175D01*
X0293530Y0070499D01*
X0290070Y0070499D01*
X0286872Y0069175D01*
X0285350Y0067653D01*
X0285350Y0075947D01*
X0286872Y0074425D01*
X0290070Y0073101D01*
X0293530Y0073101D01*
X0296728Y0074425D01*
X0299175Y0076872D01*
X0300499Y0080070D01*
X0300499Y0083530D01*
X0299175Y0086728D01*
X0296728Y0089175D01*
X0293530Y0090499D01*
X0290070Y0090499D01*
X0286872Y0089175D01*
X0285350Y0087653D01*
X0285350Y0114775D01*
X0288013Y0117437D01*
X0288552Y0117977D01*
X0289729Y0116800D01*
X0287375Y0116800D01*
X0286800Y0116225D02*
X0286800Y0089103D01*
X0285350Y0091800D02*
X0314361Y0091800D01*
X0314361Y0086800D02*
X0299103Y0086800D01*
X0296800Y0089103D02*
X0296800Y0124727D01*
X0296800Y0123871D02*
X0293871Y0126800D01*
X0289729Y0126800D01*
X0288477Y0125548D01*
X0276830Y0137195D01*
X0314361Y0137195D01*
X0314361Y0004200D01*
X0245674Y0004200D01*
X0245727Y0004239D01*
X0246261Y0004773D01*
X0246705Y0005384D01*
X0247048Y0006057D01*
X0247282Y0006776D01*
X0247400Y0007522D01*
X0247400Y0007700D01*
X0239800Y0007700D01*
X0239800Y0008100D01*
X0239400Y0008100D01*
X0239400Y0012700D01*
X0236222Y0012700D01*
X0235476Y0012582D01*
X0234757Y0012348D01*
X0234084Y0012005D01*
X0233473Y0011561D01*
X0232939Y0011027D01*
X0232495Y0010416D01*
X0232152Y0009743D01*
X0231918Y0009024D01*
X0231800Y0008278D01*
X0231800Y0023177D01*
X0232863Y0021800D02*
X0220737Y0021800D01*
X0221800Y0023177D02*
X0221800Y0004200D01*
X0221686Y0006800D02*
X0231914Y0006800D01*
X0231800Y0007522D02*
X0231800Y0007700D01*
X0231800Y0008100D01*
X0239400Y0008100D01*
X0239400Y0007700D01*
X0231800Y0007700D01*
X0231800Y0008100D02*
X0231800Y0008278D01*
X0236800Y0008100D02*
X0236800Y0007700D01*
X0239800Y0008100D02*
X0239800Y0012700D01*
X0242978Y0012700D01*
X0243724Y0012582D01*
X0244443Y0012348D01*
X0245116Y0012005D01*
X0245727Y0011561D01*
X0246261Y0011027D01*
X0246705Y0010416D01*
X0247048Y0009743D01*
X0247282Y0009024D01*
X0247400Y0008278D01*
X0247400Y0008100D01*
X0239800Y0008100D01*
X0241800Y0008100D02*
X0241800Y0007700D01*
X0246800Y0007700D02*
X0246800Y0008100D01*
X0247286Y0006800D02*
X0299458Y0006800D01*
X0300022Y0006236D02*
X0303219Y0004912D01*
X0306680Y0004912D01*
X0309877Y0006236D01*
X0312324Y0008683D01*
X0313649Y0011881D01*
X0313649Y0015341D01*
X0312324Y0018539D01*
X0309877Y0020986D01*
X0306680Y0022310D01*
X0303219Y0022310D01*
X0300022Y0020986D01*
X0297575Y0018539D01*
X0296250Y0015341D01*
X0296250Y0011881D01*
X0297575Y0008683D01*
X0300022Y0006236D01*
X0301800Y0005500D02*
X0301800Y0004200D01*
X0296800Y0004200D02*
X0296800Y0010554D01*
X0296284Y0011800D02*
X0245398Y0011800D01*
X0246800Y0010230D02*
X0246800Y0022263D01*
X0246337Y0021800D02*
X0276800Y0021800D01*
X0276800Y0023871D02*
X0276800Y0118750D01*
X0277779Y0118750D02*
X0279197Y0117332D01*
X0278950Y0116737D01*
X0278950Y0026021D01*
X0276800Y0023871D01*
X0276800Y0019729D01*
X0276800Y0004200D01*
X0271800Y0004200D02*
X0271800Y0118750D01*
X0267563Y0118750D02*
X0277779Y0118750D01*
X0278976Y0116800D02*
X0262200Y0116800D01*
X0262200Y0119037D02*
X0259437Y0121800D01*
X0263825Y0121800D01*
X0261800Y0123825D02*
X0261800Y0119437D01*
X0262200Y0119037D02*
X0262200Y0114563D01*
X0259466Y0111829D01*
X0259500Y0111747D01*
X0259500Y0104527D01*
X0259859Y0104378D01*
X0261378Y0102859D01*
X0262200Y0100874D01*
X0262200Y0092726D01*
X0261378Y0090741D01*
X0259859Y0089222D01*
X0257874Y0088400D01*
X0255726Y0088400D01*
X0253741Y0089222D01*
X0253253Y0089710D01*
X0252799Y0089257D01*
X0250050Y0086507D01*
X0250050Y0054187D01*
X0251378Y0052859D01*
X0251800Y0051840D01*
X0251800Y0088257D01*
X0250343Y0086800D02*
X0278950Y0086800D01*
X0278950Y0091800D02*
X0261816Y0091800D01*
X0261800Y0091760D02*
X0261800Y0051840D01*
X0261816Y0051800D02*
X0278950Y0051800D01*
X0285350Y0051800D02*
X0314361Y0051800D01*
X0314361Y0056800D02*
X0299103Y0056800D01*
X0296728Y0054425D02*
X0293530Y0053101D01*
X0290070Y0053101D01*
X0286872Y0054425D01*
X0285350Y0055947D01*
X0285350Y0025321D01*
X0286800Y0023871D01*
X0286800Y0054497D01*
X0291800Y0053101D02*
X0291800Y0026800D01*
X0293871Y0026800D02*
X0289729Y0026800D01*
X0286800Y0023871D01*
X0286800Y0019729D01*
X0286800Y0004200D01*
X0291800Y0004200D02*
X0291800Y0016800D01*
X0293871Y0016800D02*
X0296800Y0019729D01*
X0296800Y0023871D01*
X0293871Y0026800D01*
X0286800Y0023871D02*
X0286800Y0019729D01*
X0289729Y0016800D01*
X0286800Y0019729D02*
X0283871Y0016800D01*
X0281800Y0016800D02*
X0281800Y0004200D01*
X0266800Y0004200D02*
X0266800Y0119066D01*
X0266387Y0119237D02*
X0267563Y0118750D01*
X0266387Y0119237D02*
X0261631Y0123994D01*
X0259437Y0121800D01*
X0268200Y0121950D02*
X0255600Y0134550D01*
X0119700Y0134550D01*
X0112050Y0126900D01*
X0111800Y0126800D01*
X0106800Y0121760D02*
X0107222Y0120741D01*
X0108741Y0119222D01*
X0110726Y0118400D01*
X0112874Y0118400D01*
X0114859Y0119222D01*
X0116378Y0120741D01*
X0116800Y0121760D01*
X0116800Y0116375D01*
X0117225Y0116800D02*
X0096575Y0116800D01*
X0089594Y0118869D02*
X0046800Y0076075D01*
X0046800Y0078871D01*
X0043871Y0081800D01*
X0039729Y0081800D01*
X0036800Y0078871D01*
X0036800Y0137195D01*
X0031800Y0137195D02*
X0031800Y0131800D01*
X0033871Y0131800D02*
X0029729Y0131800D01*
X0026800Y0128871D01*
X0026800Y0137195D01*
X0021800Y0137195D02*
X0021800Y0130746D01*
X0021364Y0131800D02*
X0046784Y0131800D01*
X0046800Y0131840D02*
X0046800Y0137195D01*
X0048741Y0134378D02*
X0050726Y0135200D01*
X0052874Y0135200D01*
X0054859Y0134378D01*
X0056378Y0132859D01*
X0056800Y0131840D01*
X0056800Y0137195D01*
X0051800Y0137195D02*
X0051800Y0135200D01*
X0048741Y0134378D02*
X0047222Y0132859D01*
X0046400Y0130874D01*
X0046400Y0122726D01*
X0047222Y0120741D01*
X0048741Y0119222D01*
X0050726Y0118400D01*
X0052874Y0118400D01*
X0054859Y0119222D01*
X0056378Y0120741D01*
X0056800Y0121760D01*
X0056800Y0086075D01*
X0057525Y0086800D02*
X0034700Y0086800D01*
X0028300Y0086800D02*
X0004200Y0086800D01*
X0004200Y0091800D02*
X0028300Y0091800D01*
X0034700Y0091800D02*
X0062525Y0091800D01*
X0061800Y0091075D02*
X0061800Y0118400D01*
X0062874Y0118400D02*
X0064859Y0119222D01*
X0066378Y0120741D01*
X0066800Y0121760D01*
X0066800Y0096075D01*
X0067525Y0096800D02*
X0034700Y0096800D01*
X0028300Y0096800D02*
X0004200Y0096800D01*
X0004200Y0101800D02*
X0028300Y0101800D01*
X0034700Y0101800D02*
X0072525Y0101800D01*
X0071800Y0101075D02*
X0071800Y0118400D01*
X0072874Y0118400D02*
X0074859Y0119222D01*
X0076378Y0120741D01*
X0076800Y0121760D01*
X0076800Y0106075D01*
X0077525Y0106800D02*
X0034700Y0106800D01*
X0028300Y0106800D02*
X0004200Y0106800D01*
X0004200Y0111800D02*
X0028300Y0111800D01*
X0028300Y0113229D02*
X0028300Y0056800D01*
X0004200Y0056800D01*
X0011800Y0053871D02*
X0011800Y0074163D01*
X0011400Y0074563D02*
X0014563Y0071400D01*
X0019037Y0071400D01*
X0022200Y0074563D01*
X0022200Y0079037D01*
X0019037Y0082200D01*
X0014563Y0082200D01*
X0011400Y0079037D01*
X0011400Y0074563D01*
X0014163Y0071800D02*
X0004200Y0071800D01*
X0004200Y0076800D02*
X0011400Y0076800D01*
X0011800Y0079437D02*
X0011800Y0119118D01*
X0016800Y0119689D02*
X0016800Y0082200D01*
X0019437Y0081800D02*
X0028300Y0081800D01*
X0034700Y0081800D02*
X0052525Y0081800D01*
X0051800Y0081075D02*
X0051800Y0118400D01*
X0057222Y0120741D02*
X0058741Y0119222D01*
X0060726Y0118400D01*
X0062874Y0118400D01*
X0067222Y0120741D02*
X0066800Y0121760D01*
X0067222Y0120741D02*
X0068741Y0119222D01*
X0070726Y0118400D01*
X0072874Y0118400D01*
X0077222Y0120741D02*
X0078741Y0119222D01*
X0080726Y0118400D01*
X0082874Y0118400D01*
X0084859Y0119222D01*
X0086378Y0120741D01*
X0086800Y0121760D01*
X0086800Y0116075D01*
X0087525Y0116800D02*
X0036800Y0116800D01*
X0036800Y0118871D02*
X0033871Y0121800D01*
X0046784Y0121800D01*
X0046800Y0121760D02*
X0046800Y0076075D01*
X0046800Y0076800D02*
X0047525Y0076800D01*
X0042525Y0071800D02*
X0039729Y0071800D01*
X0034700Y0071800D01*
X0036800Y0074729D02*
X0036800Y0066075D01*
X0037525Y0066800D02*
X0034700Y0066800D01*
X0034700Y0063975D02*
X0034700Y0112629D01*
X0036800Y0114729D01*
X0036800Y0118871D01*
X0033871Y0121800D02*
X0029729Y0121800D01*
X0019929Y0121800D01*
X0021800Y0124822D02*
X0021800Y0079437D01*
X0022200Y0076800D02*
X0028300Y0076800D01*
X0034700Y0076800D02*
X0036800Y0076800D01*
X0036800Y0078871D02*
X0036800Y0074729D01*
X0039729Y0071800D01*
X0041800Y0071800D02*
X0041800Y0071075D01*
X0042525Y0071800D02*
X0034700Y0063975D01*
X0036900Y0061650D02*
X0101700Y0126450D01*
X0101800Y0126800D01*
X0091800Y0126900D02*
X0091800Y0126800D01*
X0091800Y0126900D02*
X0101700Y0136800D01*
X0272700Y0136800D01*
X0286200Y0123300D01*
X0286200Y0120150D01*
X0282150Y0116100D01*
X0282150Y0022050D01*
X0281800Y0021800D01*
X0286800Y0021800D02*
X0286800Y0021800D01*
X0285350Y0026800D02*
X0314361Y0026800D01*
X0314361Y0021800D02*
X0307912Y0021800D01*
X0306800Y0022261D02*
X0306800Y0119135D01*
X0306680Y0119085D02*
X0309877Y0120409D01*
X0312324Y0122857D01*
X0313649Y0126054D01*
X0313649Y0129515D01*
X0312324Y0132712D01*
X0309877Y0135159D01*
X0306680Y0136483D01*
X0303219Y0136483D01*
X0300022Y0135159D01*
X0297575Y0132712D01*
X0296250Y0129515D01*
X0296250Y0126054D01*
X0297575Y0122857D01*
X0300022Y0120409D01*
X0303219Y0119085D01*
X0306680Y0119085D01*
X0301800Y0119673D02*
X0301800Y0021722D01*
X0301987Y0021800D02*
X0296800Y0021800D01*
X0311800Y0019063D02*
X0311800Y0122332D01*
X0311268Y0121800D02*
X0314361Y0121800D01*
X0314361Y0116800D02*
X0293871Y0116800D01*
X0296800Y0119729D01*
X0296800Y0123871D01*
X0296800Y0121800D02*
X0298631Y0121800D01*
X0293871Y0116800D02*
X0289729Y0116800D01*
X0291800Y0116800D02*
X0291800Y0090499D01*
X0285350Y0096800D02*
X0314361Y0096800D01*
X0314361Y0101800D02*
X0285350Y0101800D01*
X0278950Y0101800D02*
X0261816Y0101800D01*
X0261800Y0101840D02*
X0261800Y0114163D01*
X0259478Y0111800D02*
X0278950Y0111800D01*
X0285350Y0111800D02*
X0314361Y0111800D01*
X0314361Y0106800D02*
X0285350Y0106800D01*
X0278950Y0106800D02*
X0259500Y0106800D01*
X0262200Y0096800D02*
X0278950Y0096800D01*
X0256800Y0088400D02*
X0256800Y0055200D01*
X0257874Y0055200D02*
X0255726Y0055200D01*
X0253741Y0054378D01*
X0252222Y0052859D01*
X0251800Y0051840D01*
X0257874Y0055200D02*
X0259859Y0054378D01*
X0261378Y0052859D01*
X0262200Y0050874D01*
X0262200Y0042726D01*
X0261378Y0040741D01*
X0259859Y0039222D01*
X0257874Y0038400D01*
X0255726Y0038400D01*
X0253741Y0039222D01*
X0252222Y0040741D01*
X0251800Y0041760D01*
X0251800Y0004200D01*
X0256800Y0004200D02*
X0256800Y0038400D01*
X0251378Y0040741D02*
X0251800Y0041760D01*
X0251378Y0040741D02*
X0249859Y0039222D01*
X0247874Y0038400D01*
X0245726Y0038400D01*
X0243741Y0039222D01*
X0242222Y0040741D01*
X0241800Y0041760D01*
X0246800Y0038400D02*
X0246800Y0029137D01*
X0247989Y0026800D02*
X0278950Y0026800D01*
X0276800Y0019729D02*
X0279729Y0016800D01*
X0261800Y0004200D02*
X0261800Y0041760D01*
X0261816Y0041800D02*
X0278950Y0041800D01*
X0285350Y0041800D02*
X0314361Y0041800D01*
X0314361Y0046800D02*
X0285350Y0046800D01*
X0278950Y0046800D02*
X0262200Y0046800D01*
X0250050Y0056800D02*
X0278950Y0056800D01*
X0278950Y0061800D02*
X0250050Y0061800D01*
X0250050Y0066800D02*
X0278950Y0066800D01*
X0286800Y0069103D02*
X0286800Y0074497D01*
X0285350Y0071800D02*
X0314361Y0071800D01*
X0314361Y0076800D02*
X0299103Y0076800D01*
X0296800Y0074497D02*
X0296800Y0069103D01*
X0299103Y0066800D02*
X0314361Y0066800D01*
X0314361Y0061800D02*
X0300499Y0061800D01*
X0291800Y0070499D02*
X0291800Y0073101D01*
X0278950Y0071800D02*
X0250050Y0071800D01*
X0250050Y0076800D02*
X0278950Y0076800D01*
X0278950Y0081800D02*
X0250050Y0081800D01*
X0211800Y0101840D02*
X0211800Y0111557D01*
X0211557Y0111800D02*
X0209437Y0111800D01*
X0209037Y0111400D02*
X0210497Y0112860D01*
X0210701Y0112657D01*
X0213450Y0109907D01*
X0213450Y0104087D01*
X0212222Y0102859D01*
X0211800Y0101840D01*
X0211378Y0102859D01*
X0209859Y0104378D01*
X0207874Y0105200D01*
X0205726Y0105200D01*
X0203741Y0104378D01*
X0202222Y0102859D01*
X0201800Y0101840D01*
X0196800Y0105200D02*
X0196800Y0111400D01*
X0199437Y0111800D02*
X0204163Y0111800D01*
X0204563Y0111400D02*
X0209037Y0111400D01*
X0210701Y0112657D02*
X0210701Y0112657D01*
X0206800Y0111400D02*
X0206800Y0105200D01*
X0213450Y0106800D02*
X0180043Y0106800D01*
X0181800Y0105043D02*
X0181800Y0131350D01*
X0186800Y0131350D02*
X0186800Y0105200D01*
X0187874Y0105200D02*
X0185726Y0105200D01*
X0183741Y0104378D01*
X0183103Y0103740D01*
X0169493Y0117349D01*
X0166800Y0118650D02*
X0166800Y0131350D01*
X0171800Y0131350D02*
X0171800Y0115043D01*
X0175043Y0111800D02*
X0194163Y0111800D01*
X0201800Y0114163D02*
X0204563Y0111400D01*
X0194163Y0121800D02*
X0191400Y0119037D01*
X0176800Y0110043D02*
X0176800Y0131350D01*
X0191800Y0131350D02*
X0191800Y0129437D01*
X0161800Y0131350D02*
X0161800Y0118650D01*
X0156800Y0118650D02*
X0156800Y0131350D01*
X0151800Y0131350D02*
X0151800Y0118650D01*
X0146800Y0118650D02*
X0146800Y0131350D01*
X0131800Y0126800D02*
X0131400Y0126450D01*
X0111150Y0106200D01*
X0110250Y0106200D01*
X0093150Y0089100D01*
X0109729Y0096800D02*
X0113871Y0096800D01*
X0127950Y0096800D01*
X0133950Y0096800D02*
X0148450Y0096800D01*
X0154850Y0096800D02*
X0161400Y0096800D01*
X0161784Y0101800D02*
X0156800Y0101800D01*
X0161800Y0101840D02*
X0161800Y0112650D01*
X0156800Y0112650D02*
X0156800Y0081275D01*
X0156275Y0081800D02*
X0193650Y0081800D01*
X0193650Y0086800D02*
X0154850Y0086800D01*
X0149400Y0084150D02*
X0142200Y0076950D01*
X0141800Y0076800D01*
X0136800Y0076800D02*
X0131800Y0076800D01*
X0136800Y0078871D02*
X0139729Y0081800D01*
X0142525Y0081800D01*
X0141800Y0082400D02*
X0141800Y0086800D01*
X0141800Y0086800D01*
X0141800Y0086800D01*
X0137400Y0086800D01*
X0121800Y0076800D02*
X0108493Y0076800D01*
X0106800Y0075107D02*
X0106800Y0048900D01*
X0111800Y0048900D02*
X0111800Y0078000D01*
X0116800Y0078000D02*
X0116800Y0048900D01*
X0121800Y0041800D02*
X0091800Y0041800D01*
X0074305Y0041800D02*
X0066800Y0041800D01*
X0066800Y0043871D02*
X0063871Y0046800D01*
X0066800Y0043871D02*
X0066800Y0039729D01*
X0063871Y0036800D01*
X0074850Y0036800D01*
X0063871Y0036800D02*
X0059729Y0036800D01*
X0061800Y0036200D02*
X0061800Y0031800D01*
X0061800Y0031800D01*
X0061800Y0027400D01*
X0063623Y0027400D01*
X0061800Y0027400D02*
X0061800Y0031800D01*
X0061800Y0031800D01*
X0057400Y0031800D01*
X0057400Y0029977D01*
X0059977Y0027400D01*
X0061800Y0027400D01*
X0076378Y0022859D02*
X0076800Y0021840D01*
X0092874Y0025200D02*
X0094859Y0024378D01*
X0096378Y0022859D01*
X0096800Y0021840D01*
X0102874Y0025200D02*
X0104859Y0024378D01*
X0106378Y0022859D01*
X0106800Y0021840D01*
X0112874Y0025200D02*
X0114859Y0024378D01*
X0116378Y0022859D01*
X0116800Y0021840D01*
X0131800Y0025200D02*
X0131800Y0038107D01*
X0166800Y0036600D02*
X0166800Y0004200D01*
X0171800Y0004200D02*
X0171800Y0036600D01*
X0176800Y0036600D02*
X0176800Y0004200D01*
X0181800Y0004200D02*
X0181800Y0036600D01*
X0186800Y0036600D02*
X0186800Y0004200D01*
X0206800Y0007700D02*
X0206800Y0008100D01*
X0211800Y0008100D02*
X0211800Y0007700D01*
X0216800Y0007700D02*
X0216800Y0008100D01*
X0214200Y0011800D02*
X0213800Y0011800D01*
X0211800Y0012700D02*
X0211800Y0020300D01*
X0216800Y0020300D02*
X0216800Y0012700D01*
X0219798Y0011800D02*
X0233802Y0011800D01*
X0236800Y0012700D02*
X0236800Y0020300D01*
X0241800Y0020300D02*
X0241800Y0012700D01*
X0239800Y0011800D02*
X0239400Y0011800D01*
X0246800Y0005570D02*
X0246800Y0004200D01*
X0306800Y0004200D02*
X0306800Y0004962D01*
X0310441Y0006800D02*
X0314361Y0006800D01*
X0311800Y0008159D02*
X0311800Y0004200D01*
X0313615Y0011800D02*
X0314361Y0011800D01*
X0314361Y0016800D02*
X0313045Y0016800D01*
X0314361Y0081800D02*
X0300499Y0081800D01*
X0281800Y0121800D02*
X0281700Y0121950D01*
X0268200Y0121950D01*
X0286800Y0127225D02*
X0286800Y0137195D01*
X0291800Y0137195D02*
X0291800Y0126800D01*
X0296250Y0126800D02*
X0287225Y0126800D01*
X0282225Y0131800D02*
X0297197Y0131800D01*
X0296800Y0130842D02*
X0296800Y0137195D01*
X0301800Y0137195D02*
X0301800Y0135896D01*
X0306800Y0136434D02*
X0306800Y0137195D01*
X0311800Y0137195D02*
X0311800Y0133236D01*
X0312702Y0131800D02*
X0314361Y0131800D01*
X0314361Y0126800D02*
X0313649Y0126800D01*
X0314361Y0136800D02*
X0277225Y0136800D01*
X0281800Y0137195D02*
X0281800Y0132225D01*
X0191800Y0101840D02*
X0191378Y0102859D01*
X0189859Y0104378D01*
X0187874Y0105200D01*
X0171800Y0101840D02*
X0171378Y0102859D01*
X0169859Y0104378D01*
X0167874Y0105200D01*
X0151800Y0106800D02*
X0151800Y0112650D01*
X0151200Y0111800D02*
X0146800Y0111800D01*
X0146800Y0111800D01*
X0151200Y0111800D01*
X0146800Y0111800D02*
X0146800Y0107400D01*
X0146800Y0111800D01*
X0146800Y0111800D01*
X0132874Y0118400D02*
X0130726Y0118400D01*
X0128741Y0119222D01*
X0128719Y0119244D01*
X0115073Y0105598D01*
X0116800Y0103871D01*
X0116800Y0099729D01*
X0113871Y0096800D01*
X0111800Y0096800D02*
X0111800Y0084000D01*
X0121800Y0074729D02*
X0124729Y0071800D01*
X0127950Y0101800D02*
X0116800Y0101800D01*
X0104729Y0106800D02*
X0101800Y0109729D01*
X0108871Y0116800D02*
X0111800Y0113871D01*
X0111800Y0111375D01*
X0119381Y0118957D01*
X0118741Y0119222D01*
X0117222Y0120741D01*
X0116800Y0121760D01*
X0111800Y0118400D02*
X0111800Y0111375D01*
X0111800Y0111800D02*
X0112225Y0111800D01*
X0089594Y0118869D02*
X0088741Y0119222D01*
X0087222Y0120741D01*
X0086800Y0121760D01*
X0081800Y0118400D02*
X0081800Y0111075D01*
X0082525Y0111800D02*
X0034700Y0111800D01*
X0028300Y0113229D02*
X0026800Y0114729D01*
X0026800Y0056800D01*
X0028300Y0056800D02*
X0024729Y0056800D01*
X0021800Y0053871D01*
X0021800Y0074163D01*
X0019437Y0071800D02*
X0028300Y0071800D01*
X0016800Y0071400D02*
X0016800Y0056800D01*
X0018871Y0056800D02*
X0014729Y0056800D01*
X0011800Y0053871D01*
X0011800Y0049729D01*
X0011800Y0022277D01*
X0010649Y0021800D02*
X0004200Y0021800D01*
X0004200Y0026800D02*
X0023800Y0026800D01*
X0023800Y0025871D02*
X0021800Y0023871D01*
X0021800Y0049729D01*
X0018871Y0046800D01*
X0023909Y0046800D01*
X0023800Y0046537D02*
X0023800Y0025871D01*
X0021800Y0023871D02*
X0021800Y0019729D01*
X0021800Y0021800D02*
X0016573Y0021800D01*
X0016800Y0021706D02*
X0016800Y0046800D01*
X0014729Y0046800D02*
X0018871Y0046800D01*
X0014729Y0046800D02*
X0004200Y0046800D01*
X0011800Y0049729D02*
X0014729Y0046800D01*
X0021800Y0049729D02*
X0021800Y0053871D01*
X0018871Y0056800D01*
X0021800Y0053871D02*
X0021800Y0049729D01*
X0024149Y0047380D01*
X0023800Y0046537D01*
X0027000Y0045900D02*
X0031500Y0050400D01*
X0031500Y0116550D01*
X0031800Y0116800D01*
X0026800Y0116800D02*
X0004200Y0116800D01*
X0004200Y0121800D02*
X0007293Y0121800D01*
X0022310Y0126800D02*
X0026800Y0126800D01*
X0026800Y0128871D02*
X0026800Y0124729D01*
X0026800Y0118871D01*
X0026800Y0114729D01*
X0026800Y0118871D02*
X0029729Y0121800D01*
X0033871Y0121800D01*
X0036800Y0124729D01*
X0036800Y0128871D01*
X0033871Y0131800D01*
X0036800Y0126800D02*
X0046400Y0126800D01*
X0056800Y0131840D02*
X0057222Y0132859D01*
X0058741Y0134378D01*
X0060726Y0135200D01*
X0062874Y0135200D01*
X0064859Y0134378D01*
X0066378Y0132859D01*
X0066800Y0131840D01*
X0066800Y0137195D01*
X0061800Y0137195D02*
X0061800Y0135200D01*
X0067222Y0132859D02*
X0066800Y0131840D01*
X0067222Y0132859D02*
X0068741Y0134378D01*
X0070726Y0135200D01*
X0072874Y0135200D01*
X0074859Y0134378D01*
X0076378Y0132859D01*
X0076800Y0131840D01*
X0071800Y0135200D02*
X0071800Y0137195D01*
X0041800Y0137195D02*
X0041800Y0081800D01*
X0014163Y0081800D02*
X0004200Y0081800D01*
X0004200Y0066800D02*
X0028300Y0066800D01*
X0028300Y0061800D02*
X0004200Y0061800D01*
X0004200Y0051800D02*
X0011800Y0051800D01*
X0021800Y0051800D02*
X0021800Y0051800D01*
X0030200Y0044575D02*
X0033313Y0047687D01*
X0033700Y0048075D01*
X0033700Y0025771D01*
X0031800Y0023871D01*
X0030200Y0025471D01*
X0030200Y0044575D01*
X0027000Y0045900D02*
X0027000Y0022050D01*
X0026800Y0021800D01*
X0031800Y0021800D02*
X0031800Y0021800D01*
X0031800Y0019729D02*
X0031800Y0023871D01*
X0030200Y0026800D02*
X0033700Y0026800D01*
X0036900Y0022050D02*
X0036800Y0021800D01*
X0036900Y0022050D02*
X0036900Y0061650D01*
X0056800Y0043871D02*
X0056800Y0039729D01*
X0056800Y0041800D02*
X0040100Y0041800D01*
X0033700Y0041800D02*
X0030200Y0041800D01*
X0023800Y0041800D02*
X0004200Y0041800D01*
X0004200Y0036800D02*
X0023800Y0036800D01*
X0030200Y0036800D02*
X0033700Y0036800D01*
X0033700Y0031800D02*
X0030200Y0031800D01*
X0023800Y0031800D02*
X0004200Y0031800D01*
X0038871Y0016800D02*
X0041800Y0019729D01*
X0056800Y0011760D02*
X0057222Y0010741D01*
X0058741Y0009222D01*
X0060726Y0008400D01*
X0062874Y0008400D01*
X0064859Y0009222D01*
X0066378Y0010741D01*
X0066800Y0011760D01*
X0066800Y0004200D01*
X0061800Y0004200D02*
X0061800Y0008400D01*
X0067222Y0010741D02*
X0068741Y0009222D01*
X0070726Y0008400D01*
X0072874Y0008400D01*
X0074859Y0009222D01*
X0076378Y0010741D01*
X0076800Y0011760D01*
X0076800Y0004200D01*
X0081800Y0004200D02*
X0081800Y0008400D01*
X0080726Y0008400D02*
X0082874Y0008400D01*
X0084859Y0009222D01*
X0086378Y0010741D01*
X0086800Y0011760D01*
X0086800Y0004200D01*
X0091800Y0004200D02*
X0091800Y0008400D01*
X0090726Y0008400D02*
X0092874Y0008400D01*
X0094859Y0009222D01*
X0096378Y0010741D01*
X0096800Y0011760D01*
X0096800Y0004200D01*
X0098741Y0009222D02*
X0100726Y0008400D01*
X0098741Y0009222D02*
X0097222Y0010741D01*
X0096800Y0011760D01*
X0090726Y0008400D02*
X0088741Y0009222D01*
X0087222Y0010741D01*
X0086800Y0011760D01*
X0080726Y0008400D02*
X0078741Y0009222D01*
X0077222Y0010741D01*
X0076800Y0011760D01*
X0071800Y0008400D02*
X0071800Y0004200D01*
X0067222Y0010741D02*
X0066800Y0011760D01*
X0041800Y0032400D02*
X0041800Y0036800D01*
X0041800Y0036800D01*
X0057222Y0120741D02*
X0056800Y0121760D01*
X0076800Y0121760D02*
X0077222Y0120741D01*
X0031800Y0121800D02*
X0031800Y0121800D01*
X0029729Y0121800D02*
X0026800Y0124729D01*
X0016800Y0135879D02*
X0016800Y0137195D01*
X0011800Y0137195D02*
X0011800Y0136450D01*
M02*
