G75*
%MOIN*%
%OFA0B0*%
%FSLAX25Y25*%
%IPPOS*%
%LPD*%
%AMOC8*
5,1,8,0,0,1.08239X$1,22.5*
%
%ADD10C,0.00000*%
%ADD11C,0.12998*%
%ADD12R,0.05400X0.02600*%
%ADD13R,0.02600X0.05400*%
%ADD14C,0.06000*%
%ADD15C,0.02169*%
%ADD16R,0.05518X0.04337*%
%ADD17R,0.06699X0.07487*%
%ADD18R,0.07487X0.06699*%
%ADD19OC8,0.05600*%
%ADD20C,0.05600*%
%ADD21OC8,0.06400*%
%ADD22R,0.09199X0.05199*%
%ADD23R,0.09061X0.14573*%
%ADD24C,0.06400*%
%ADD25R,0.03000X0.08400*%
%ADD26R,0.06699X0.07498*%
%ADD27R,0.07498X0.06699*%
D10*
X0012716Y0017082D02*
X0012716Y0135193D01*
X0208513Y0135193D01*
X0208513Y0017082D01*
X0139537Y0017082D01*
X0085157Y0024956D02*
X0085159Y0025114D01*
X0085165Y0025272D01*
X0085175Y0025430D01*
X0085189Y0025588D01*
X0085207Y0025745D01*
X0085228Y0025902D01*
X0085254Y0026058D01*
X0085284Y0026214D01*
X0085317Y0026369D01*
X0085355Y0026522D01*
X0085396Y0026675D01*
X0085441Y0026827D01*
X0085490Y0026978D01*
X0085543Y0027127D01*
X0085599Y0027275D01*
X0085659Y0027421D01*
X0085723Y0027566D01*
X0085791Y0027709D01*
X0085862Y0027851D01*
X0085936Y0027991D01*
X0086014Y0028128D01*
X0086096Y0028264D01*
X0086180Y0028398D01*
X0086269Y0028529D01*
X0086360Y0028658D01*
X0086455Y0028785D01*
X0086552Y0028910D01*
X0086653Y0029032D01*
X0086757Y0029151D01*
X0086864Y0029268D01*
X0086974Y0029382D01*
X0087087Y0029493D01*
X0087202Y0029602D01*
X0087320Y0029707D01*
X0087441Y0029809D01*
X0087564Y0029909D01*
X0087690Y0030005D01*
X0087818Y0030098D01*
X0087948Y0030188D01*
X0088081Y0030274D01*
X0088216Y0030358D01*
X0088352Y0030437D01*
X0088491Y0030514D01*
X0088632Y0030586D01*
X0088774Y0030656D01*
X0088918Y0030721D01*
X0089064Y0030783D01*
X0089211Y0030841D01*
X0089360Y0030896D01*
X0089510Y0030947D01*
X0089661Y0030994D01*
X0089813Y0031037D01*
X0089966Y0031076D01*
X0090121Y0031112D01*
X0090276Y0031143D01*
X0090432Y0031171D01*
X0090588Y0031195D01*
X0090745Y0031215D01*
X0090903Y0031231D01*
X0091060Y0031243D01*
X0091219Y0031251D01*
X0091377Y0031255D01*
X0091535Y0031255D01*
X0091693Y0031251D01*
X0091852Y0031243D01*
X0092009Y0031231D01*
X0092167Y0031215D01*
X0092324Y0031195D01*
X0092480Y0031171D01*
X0092636Y0031143D01*
X0092791Y0031112D01*
X0092946Y0031076D01*
X0093099Y0031037D01*
X0093251Y0030994D01*
X0093402Y0030947D01*
X0093552Y0030896D01*
X0093701Y0030841D01*
X0093848Y0030783D01*
X0093994Y0030721D01*
X0094138Y0030656D01*
X0094280Y0030586D01*
X0094421Y0030514D01*
X0094560Y0030437D01*
X0094696Y0030358D01*
X0094831Y0030274D01*
X0094964Y0030188D01*
X0095094Y0030098D01*
X0095222Y0030005D01*
X0095348Y0029909D01*
X0095471Y0029809D01*
X0095592Y0029707D01*
X0095710Y0029602D01*
X0095825Y0029493D01*
X0095938Y0029382D01*
X0096048Y0029268D01*
X0096155Y0029151D01*
X0096259Y0029032D01*
X0096360Y0028910D01*
X0096457Y0028785D01*
X0096552Y0028658D01*
X0096643Y0028529D01*
X0096732Y0028398D01*
X0096816Y0028264D01*
X0096898Y0028128D01*
X0096976Y0027991D01*
X0097050Y0027851D01*
X0097121Y0027709D01*
X0097189Y0027566D01*
X0097253Y0027421D01*
X0097313Y0027275D01*
X0097369Y0027127D01*
X0097422Y0026978D01*
X0097471Y0026827D01*
X0097516Y0026675D01*
X0097557Y0026522D01*
X0097595Y0026369D01*
X0097628Y0026214D01*
X0097658Y0026058D01*
X0097684Y0025902D01*
X0097705Y0025745D01*
X0097723Y0025588D01*
X0097737Y0025430D01*
X0097747Y0025272D01*
X0097753Y0025114D01*
X0097755Y0024956D01*
X0097753Y0024798D01*
X0097747Y0024640D01*
X0097737Y0024482D01*
X0097723Y0024324D01*
X0097705Y0024167D01*
X0097684Y0024010D01*
X0097658Y0023854D01*
X0097628Y0023698D01*
X0097595Y0023543D01*
X0097557Y0023390D01*
X0097516Y0023237D01*
X0097471Y0023085D01*
X0097422Y0022934D01*
X0097369Y0022785D01*
X0097313Y0022637D01*
X0097253Y0022491D01*
X0097189Y0022346D01*
X0097121Y0022203D01*
X0097050Y0022061D01*
X0096976Y0021921D01*
X0096898Y0021784D01*
X0096816Y0021648D01*
X0096732Y0021514D01*
X0096643Y0021383D01*
X0096552Y0021254D01*
X0096457Y0021127D01*
X0096360Y0021002D01*
X0096259Y0020880D01*
X0096155Y0020761D01*
X0096048Y0020644D01*
X0095938Y0020530D01*
X0095825Y0020419D01*
X0095710Y0020310D01*
X0095592Y0020205D01*
X0095471Y0020103D01*
X0095348Y0020003D01*
X0095222Y0019907D01*
X0095094Y0019814D01*
X0094964Y0019724D01*
X0094831Y0019638D01*
X0094696Y0019554D01*
X0094560Y0019475D01*
X0094421Y0019398D01*
X0094280Y0019326D01*
X0094138Y0019256D01*
X0093994Y0019191D01*
X0093848Y0019129D01*
X0093701Y0019071D01*
X0093552Y0019016D01*
X0093402Y0018965D01*
X0093251Y0018918D01*
X0093099Y0018875D01*
X0092946Y0018836D01*
X0092791Y0018800D01*
X0092636Y0018769D01*
X0092480Y0018741D01*
X0092324Y0018717D01*
X0092167Y0018697D01*
X0092009Y0018681D01*
X0091852Y0018669D01*
X0091693Y0018661D01*
X0091535Y0018657D01*
X0091377Y0018657D01*
X0091219Y0018661D01*
X0091060Y0018669D01*
X0090903Y0018681D01*
X0090745Y0018697D01*
X0090588Y0018717D01*
X0090432Y0018741D01*
X0090276Y0018769D01*
X0090121Y0018800D01*
X0089966Y0018836D01*
X0089813Y0018875D01*
X0089661Y0018918D01*
X0089510Y0018965D01*
X0089360Y0019016D01*
X0089211Y0019071D01*
X0089064Y0019129D01*
X0088918Y0019191D01*
X0088774Y0019256D01*
X0088632Y0019326D01*
X0088491Y0019398D01*
X0088352Y0019475D01*
X0088216Y0019554D01*
X0088081Y0019638D01*
X0087948Y0019724D01*
X0087818Y0019814D01*
X0087690Y0019907D01*
X0087564Y0020003D01*
X0087441Y0020103D01*
X0087320Y0020205D01*
X0087202Y0020310D01*
X0087087Y0020419D01*
X0086974Y0020530D01*
X0086864Y0020644D01*
X0086757Y0020761D01*
X0086653Y0020880D01*
X0086552Y0021002D01*
X0086455Y0021127D01*
X0086360Y0021254D01*
X0086269Y0021383D01*
X0086180Y0021514D01*
X0086096Y0021648D01*
X0086014Y0021784D01*
X0085936Y0021921D01*
X0085862Y0022061D01*
X0085791Y0022203D01*
X0085723Y0022346D01*
X0085659Y0022491D01*
X0085599Y0022637D01*
X0085543Y0022785D01*
X0085490Y0022934D01*
X0085441Y0023085D01*
X0085396Y0023237D01*
X0085355Y0023390D01*
X0085317Y0023543D01*
X0085284Y0023698D01*
X0085254Y0023854D01*
X0085228Y0024010D01*
X0085207Y0024167D01*
X0085189Y0024324D01*
X0085175Y0024482D01*
X0085165Y0024640D01*
X0085159Y0024798D01*
X0085157Y0024956D01*
X0012716Y0017082D02*
X0208513Y0017082D01*
X0085157Y0127319D02*
X0085159Y0127477D01*
X0085165Y0127635D01*
X0085175Y0127793D01*
X0085189Y0127951D01*
X0085207Y0128108D01*
X0085228Y0128265D01*
X0085254Y0128421D01*
X0085284Y0128577D01*
X0085317Y0128732D01*
X0085355Y0128885D01*
X0085396Y0129038D01*
X0085441Y0129190D01*
X0085490Y0129341D01*
X0085543Y0129490D01*
X0085599Y0129638D01*
X0085659Y0129784D01*
X0085723Y0129929D01*
X0085791Y0130072D01*
X0085862Y0130214D01*
X0085936Y0130354D01*
X0086014Y0130491D01*
X0086096Y0130627D01*
X0086180Y0130761D01*
X0086269Y0130892D01*
X0086360Y0131021D01*
X0086455Y0131148D01*
X0086552Y0131273D01*
X0086653Y0131395D01*
X0086757Y0131514D01*
X0086864Y0131631D01*
X0086974Y0131745D01*
X0087087Y0131856D01*
X0087202Y0131965D01*
X0087320Y0132070D01*
X0087441Y0132172D01*
X0087564Y0132272D01*
X0087690Y0132368D01*
X0087818Y0132461D01*
X0087948Y0132551D01*
X0088081Y0132637D01*
X0088216Y0132721D01*
X0088352Y0132800D01*
X0088491Y0132877D01*
X0088632Y0132949D01*
X0088774Y0133019D01*
X0088918Y0133084D01*
X0089064Y0133146D01*
X0089211Y0133204D01*
X0089360Y0133259D01*
X0089510Y0133310D01*
X0089661Y0133357D01*
X0089813Y0133400D01*
X0089966Y0133439D01*
X0090121Y0133475D01*
X0090276Y0133506D01*
X0090432Y0133534D01*
X0090588Y0133558D01*
X0090745Y0133578D01*
X0090903Y0133594D01*
X0091060Y0133606D01*
X0091219Y0133614D01*
X0091377Y0133618D01*
X0091535Y0133618D01*
X0091693Y0133614D01*
X0091852Y0133606D01*
X0092009Y0133594D01*
X0092167Y0133578D01*
X0092324Y0133558D01*
X0092480Y0133534D01*
X0092636Y0133506D01*
X0092791Y0133475D01*
X0092946Y0133439D01*
X0093099Y0133400D01*
X0093251Y0133357D01*
X0093402Y0133310D01*
X0093552Y0133259D01*
X0093701Y0133204D01*
X0093848Y0133146D01*
X0093994Y0133084D01*
X0094138Y0133019D01*
X0094280Y0132949D01*
X0094421Y0132877D01*
X0094560Y0132800D01*
X0094696Y0132721D01*
X0094831Y0132637D01*
X0094964Y0132551D01*
X0095094Y0132461D01*
X0095222Y0132368D01*
X0095348Y0132272D01*
X0095471Y0132172D01*
X0095592Y0132070D01*
X0095710Y0131965D01*
X0095825Y0131856D01*
X0095938Y0131745D01*
X0096048Y0131631D01*
X0096155Y0131514D01*
X0096259Y0131395D01*
X0096360Y0131273D01*
X0096457Y0131148D01*
X0096552Y0131021D01*
X0096643Y0130892D01*
X0096732Y0130761D01*
X0096816Y0130627D01*
X0096898Y0130491D01*
X0096976Y0130354D01*
X0097050Y0130214D01*
X0097121Y0130072D01*
X0097189Y0129929D01*
X0097253Y0129784D01*
X0097313Y0129638D01*
X0097369Y0129490D01*
X0097422Y0129341D01*
X0097471Y0129190D01*
X0097516Y0129038D01*
X0097557Y0128885D01*
X0097595Y0128732D01*
X0097628Y0128577D01*
X0097658Y0128421D01*
X0097684Y0128265D01*
X0097705Y0128108D01*
X0097723Y0127951D01*
X0097737Y0127793D01*
X0097747Y0127635D01*
X0097753Y0127477D01*
X0097755Y0127319D01*
X0097753Y0127161D01*
X0097747Y0127003D01*
X0097737Y0126845D01*
X0097723Y0126687D01*
X0097705Y0126530D01*
X0097684Y0126373D01*
X0097658Y0126217D01*
X0097628Y0126061D01*
X0097595Y0125906D01*
X0097557Y0125753D01*
X0097516Y0125600D01*
X0097471Y0125448D01*
X0097422Y0125297D01*
X0097369Y0125148D01*
X0097313Y0125000D01*
X0097253Y0124854D01*
X0097189Y0124709D01*
X0097121Y0124566D01*
X0097050Y0124424D01*
X0096976Y0124284D01*
X0096898Y0124147D01*
X0096816Y0124011D01*
X0096732Y0123877D01*
X0096643Y0123746D01*
X0096552Y0123617D01*
X0096457Y0123490D01*
X0096360Y0123365D01*
X0096259Y0123243D01*
X0096155Y0123124D01*
X0096048Y0123007D01*
X0095938Y0122893D01*
X0095825Y0122782D01*
X0095710Y0122673D01*
X0095592Y0122568D01*
X0095471Y0122466D01*
X0095348Y0122366D01*
X0095222Y0122270D01*
X0095094Y0122177D01*
X0094964Y0122087D01*
X0094831Y0122001D01*
X0094696Y0121917D01*
X0094560Y0121838D01*
X0094421Y0121761D01*
X0094280Y0121689D01*
X0094138Y0121619D01*
X0093994Y0121554D01*
X0093848Y0121492D01*
X0093701Y0121434D01*
X0093552Y0121379D01*
X0093402Y0121328D01*
X0093251Y0121281D01*
X0093099Y0121238D01*
X0092946Y0121199D01*
X0092791Y0121163D01*
X0092636Y0121132D01*
X0092480Y0121104D01*
X0092324Y0121080D01*
X0092167Y0121060D01*
X0092009Y0121044D01*
X0091852Y0121032D01*
X0091693Y0121024D01*
X0091535Y0121020D01*
X0091377Y0121020D01*
X0091219Y0121024D01*
X0091060Y0121032D01*
X0090903Y0121044D01*
X0090745Y0121060D01*
X0090588Y0121080D01*
X0090432Y0121104D01*
X0090276Y0121132D01*
X0090121Y0121163D01*
X0089966Y0121199D01*
X0089813Y0121238D01*
X0089661Y0121281D01*
X0089510Y0121328D01*
X0089360Y0121379D01*
X0089211Y0121434D01*
X0089064Y0121492D01*
X0088918Y0121554D01*
X0088774Y0121619D01*
X0088632Y0121689D01*
X0088491Y0121761D01*
X0088352Y0121838D01*
X0088216Y0121917D01*
X0088081Y0122001D01*
X0087948Y0122087D01*
X0087818Y0122177D01*
X0087690Y0122270D01*
X0087564Y0122366D01*
X0087441Y0122466D01*
X0087320Y0122568D01*
X0087202Y0122673D01*
X0087087Y0122782D01*
X0086974Y0122893D01*
X0086864Y0123007D01*
X0086757Y0123124D01*
X0086653Y0123243D01*
X0086552Y0123365D01*
X0086455Y0123490D01*
X0086360Y0123617D01*
X0086269Y0123746D01*
X0086180Y0123877D01*
X0086096Y0124011D01*
X0086014Y0124147D01*
X0085936Y0124284D01*
X0085862Y0124424D01*
X0085791Y0124566D01*
X0085723Y0124709D01*
X0085659Y0124854D01*
X0085599Y0125000D01*
X0085543Y0125148D01*
X0085490Y0125297D01*
X0085441Y0125448D01*
X0085396Y0125600D01*
X0085355Y0125753D01*
X0085317Y0125906D01*
X0085284Y0126061D01*
X0085254Y0126217D01*
X0085228Y0126373D01*
X0085207Y0126530D01*
X0085189Y0126687D01*
X0085175Y0126845D01*
X0085165Y0127003D01*
X0085159Y0127161D01*
X0085157Y0127319D01*
D11*
X0091456Y0127319D03*
X0091456Y0024956D03*
D12*
G36*
X0087860Y0052009D02*
X0084043Y0055826D01*
X0085882Y0057665D01*
X0089699Y0053848D01*
X0087860Y0052009D01*
G37*
G36*
X0090087Y0054237D02*
X0086270Y0058054D01*
X0088109Y0059893D01*
X0091926Y0056076D01*
X0090087Y0054237D01*
G37*
G36*
X0092314Y0056464D02*
X0088497Y0060281D01*
X0090336Y0062120D01*
X0094153Y0058303D01*
X0092314Y0056464D01*
G37*
G36*
X0094541Y0058691D02*
X0090724Y0062508D01*
X0092563Y0064347D01*
X0096380Y0060530D01*
X0094541Y0058691D01*
G37*
G36*
X0096768Y0060918D02*
X0092951Y0064735D01*
X0094790Y0066574D01*
X0098607Y0062757D01*
X0096768Y0060918D01*
G37*
G36*
X0098996Y0063145D02*
X0095179Y0066962D01*
X0097018Y0068801D01*
X0100835Y0064984D01*
X0098996Y0063145D01*
G37*
G36*
X0101223Y0065372D02*
X0097406Y0069189D01*
X0099245Y0071028D01*
X0103062Y0067211D01*
X0101223Y0065372D01*
G37*
G36*
X0103450Y0067599D02*
X0099633Y0071416D01*
X0101472Y0073255D01*
X0105289Y0069438D01*
X0103450Y0067599D01*
G37*
G36*
X0072868Y0084818D02*
X0069051Y0088635D01*
X0070890Y0090474D01*
X0074707Y0086657D01*
X0072868Y0084818D01*
G37*
G36*
X0070641Y0082591D02*
X0066824Y0086408D01*
X0068663Y0088247D01*
X0072480Y0084430D01*
X0070641Y0082591D01*
G37*
G36*
X0068414Y0080364D02*
X0064597Y0084181D01*
X0066436Y0086020D01*
X0070253Y0082203D01*
X0068414Y0080364D01*
G37*
G36*
X0066187Y0078137D02*
X0062370Y0081954D01*
X0064209Y0083793D01*
X0068026Y0079976D01*
X0066187Y0078137D01*
G37*
G36*
X0063960Y0075910D02*
X0060143Y0079727D01*
X0061982Y0081566D01*
X0065799Y0077749D01*
X0063960Y0075910D01*
G37*
G36*
X0075095Y0087045D02*
X0071278Y0090862D01*
X0073117Y0092701D01*
X0076934Y0088884D01*
X0075095Y0087045D01*
G37*
G36*
X0077322Y0089272D02*
X0073505Y0093089D01*
X0075344Y0094928D01*
X0079161Y0091111D01*
X0077322Y0089272D01*
G37*
G36*
X0079550Y0091499D02*
X0075733Y0095316D01*
X0077572Y0097155D01*
X0081389Y0093338D01*
X0079550Y0091499D01*
G37*
D13*
G36*
X0085882Y0091499D02*
X0084043Y0093338D01*
X0087860Y0097155D01*
X0089699Y0095316D01*
X0085882Y0091499D01*
G37*
G36*
X0088109Y0089272D02*
X0086270Y0091111D01*
X0090087Y0094928D01*
X0091926Y0093089D01*
X0088109Y0089272D01*
G37*
G36*
X0090336Y0087045D02*
X0088497Y0088884D01*
X0092314Y0092701D01*
X0094153Y0090862D01*
X0090336Y0087045D01*
G37*
G36*
X0092563Y0084818D02*
X0090724Y0086657D01*
X0094541Y0090474D01*
X0096380Y0088635D01*
X0092563Y0084818D01*
G37*
G36*
X0094790Y0082591D02*
X0092951Y0084430D01*
X0096768Y0088247D01*
X0098607Y0086408D01*
X0094790Y0082591D01*
G37*
G36*
X0097018Y0080364D02*
X0095179Y0082203D01*
X0098996Y0086020D01*
X0100835Y0084181D01*
X0097018Y0080364D01*
G37*
G36*
X0099245Y0078137D02*
X0097406Y0079976D01*
X0101223Y0083793D01*
X0103062Y0081954D01*
X0099245Y0078137D01*
G37*
G36*
X0101472Y0075910D02*
X0099633Y0077749D01*
X0103450Y0081566D01*
X0105289Y0079727D01*
X0101472Y0075910D01*
G37*
G36*
X0073117Y0056464D02*
X0071278Y0058303D01*
X0075095Y0062120D01*
X0076934Y0060281D01*
X0073117Y0056464D01*
G37*
G36*
X0075344Y0054237D02*
X0073505Y0056076D01*
X0077322Y0059893D01*
X0079161Y0058054D01*
X0075344Y0054237D01*
G37*
G36*
X0077572Y0052009D02*
X0075733Y0053848D01*
X0079550Y0057665D01*
X0081389Y0055826D01*
X0077572Y0052009D01*
G37*
G36*
X0070890Y0058691D02*
X0069051Y0060530D01*
X0072868Y0064347D01*
X0074707Y0062508D01*
X0070890Y0058691D01*
G37*
G36*
X0068663Y0060918D02*
X0066824Y0062757D01*
X0070641Y0066574D01*
X0072480Y0064735D01*
X0068663Y0060918D01*
G37*
G36*
X0066436Y0063145D02*
X0064597Y0064984D01*
X0068414Y0068801D01*
X0070253Y0066962D01*
X0066436Y0063145D01*
G37*
G36*
X0064209Y0065372D02*
X0062370Y0067211D01*
X0066187Y0071028D01*
X0068026Y0069189D01*
X0064209Y0065372D01*
G37*
G36*
X0061982Y0067599D02*
X0060143Y0069438D01*
X0063960Y0073255D01*
X0065799Y0071416D01*
X0061982Y0067599D01*
G37*
D14*
X0037716Y0064208D03*
X0037716Y0056334D03*
X0037716Y0072082D03*
X0037716Y0079956D03*
X0037716Y0087830D03*
X0044842Y0129582D03*
X0052716Y0129582D03*
X0060590Y0129582D03*
X0112342Y0129582D03*
X0120216Y0129582D03*
X0128090Y0129582D03*
X0130216Y0088519D03*
X0130216Y0080645D03*
X0130216Y0072082D03*
D15*
X0051340Y0085191D02*
X0047990Y0085191D01*
X0047990Y0087359D01*
X0051340Y0087359D01*
X0051340Y0085191D01*
X0051340Y0087359D02*
X0047990Y0087359D01*
D16*
X0049665Y0093362D03*
X0058326Y0093362D03*
X0058326Y0086275D03*
D17*
X0054113Y0108165D03*
X0065137Y0108165D03*
G36*
X0109099Y0058758D02*
X0113835Y0063494D01*
X0119127Y0058202D01*
X0114391Y0053466D01*
X0109099Y0058758D01*
G37*
G36*
X0101304Y0050963D02*
X0106040Y0055699D01*
X0111332Y0050407D01*
X0106596Y0045671D01*
X0101304Y0050963D01*
G37*
D18*
X0150216Y0050321D03*
X0150216Y0061344D03*
X0040629Y0100980D03*
X0040629Y0112004D03*
D19*
X0024674Y0105681D03*
X0025216Y0040582D03*
X0107716Y0025582D03*
D20*
X0107716Y0033582D03*
X0025216Y0048582D03*
X0024674Y0113681D03*
D21*
X0020216Y0124582D03*
X0165216Y0094582D03*
X0185216Y0094582D03*
X0175216Y0025832D03*
X0155216Y0025832D03*
X0196466Y0025832D03*
X0020216Y0027082D03*
D22*
X0067417Y0027984D03*
X0067417Y0037082D03*
X0067417Y0046181D03*
D23*
X0043015Y0037082D03*
D24*
X0028216Y0062082D02*
X0022216Y0062082D01*
X0022216Y0072082D02*
X0028216Y0072082D01*
X0028216Y0082082D02*
X0022216Y0082082D01*
X0022216Y0092082D02*
X0028216Y0092082D01*
X0124716Y0034582D02*
X0130716Y0034582D01*
X0130716Y0024582D02*
X0124716Y0024582D01*
D25*
X0160216Y0043732D03*
X0165216Y0043732D03*
X0170216Y0043732D03*
X0175216Y0043732D03*
X0180216Y0043732D03*
X0185216Y0043732D03*
X0190216Y0043732D03*
X0190216Y0067932D03*
X0185216Y0067932D03*
X0180216Y0067932D03*
X0175216Y0067932D03*
X0170216Y0067932D03*
X0165216Y0067932D03*
X0160216Y0067932D03*
D26*
X0164617Y0080832D03*
X0175814Y0080832D03*
D27*
X0200216Y0056431D03*
X0200216Y0045234D03*
M02*
