G75*
%MOIN*%
%OFA0B0*%
%FSLAX25Y25*%
%IPPOS*%
%LPD*%
%AMOC8*
5,1,8,0,0,1.08239X$1,22.5*
%
%ADD10C,0.00000*%
%ADD11C,0.05600*%
%ADD12R,0.05906X0.05118*%
%ADD13R,0.05118X0.05906*%
%ADD14R,0.05906X0.05906*%
%ADD15R,0.06299X0.07087*%
%ADD16OC8,0.05200*%
%ADD17C,0.05200*%
%ADD18OC8,0.06000*%
%ADD19R,0.07087X0.06299*%
%ADD20C,0.01772*%
%ADD21R,0.03543X0.03937*%
%ADD22C,0.06000*%
%ADD23R,0.03937X0.03937*%
%ADD24R,0.02165X0.06693*%
%ADD25R,0.06693X0.02165*%
%ADD26C,0.03200*%
%ADD27C,0.01600*%
%ADD28C,0.02400*%
%ADD29C,0.02400*%
%ADD30C,0.00800*%
D10*
X0012716Y0017082D02*
X0012716Y0135193D01*
X0208513Y0135193D01*
X0208513Y0017082D01*
X0139537Y0017082D01*
X0085157Y0024956D02*
X0085159Y0025114D01*
X0085165Y0025272D01*
X0085175Y0025430D01*
X0085189Y0025588D01*
X0085207Y0025745D01*
X0085228Y0025902D01*
X0085254Y0026058D01*
X0085284Y0026214D01*
X0085317Y0026369D01*
X0085355Y0026522D01*
X0085396Y0026675D01*
X0085441Y0026827D01*
X0085490Y0026978D01*
X0085543Y0027127D01*
X0085599Y0027275D01*
X0085659Y0027421D01*
X0085723Y0027566D01*
X0085791Y0027709D01*
X0085862Y0027851D01*
X0085936Y0027991D01*
X0086014Y0028128D01*
X0086096Y0028264D01*
X0086180Y0028398D01*
X0086269Y0028529D01*
X0086360Y0028658D01*
X0086455Y0028785D01*
X0086552Y0028910D01*
X0086653Y0029032D01*
X0086757Y0029151D01*
X0086864Y0029268D01*
X0086974Y0029382D01*
X0087087Y0029493D01*
X0087202Y0029602D01*
X0087320Y0029707D01*
X0087441Y0029809D01*
X0087564Y0029909D01*
X0087690Y0030005D01*
X0087818Y0030098D01*
X0087948Y0030188D01*
X0088081Y0030274D01*
X0088216Y0030358D01*
X0088352Y0030437D01*
X0088491Y0030514D01*
X0088632Y0030586D01*
X0088774Y0030656D01*
X0088918Y0030721D01*
X0089064Y0030783D01*
X0089211Y0030841D01*
X0089360Y0030896D01*
X0089510Y0030947D01*
X0089661Y0030994D01*
X0089813Y0031037D01*
X0089966Y0031076D01*
X0090121Y0031112D01*
X0090276Y0031143D01*
X0090432Y0031171D01*
X0090588Y0031195D01*
X0090745Y0031215D01*
X0090903Y0031231D01*
X0091060Y0031243D01*
X0091219Y0031251D01*
X0091377Y0031255D01*
X0091535Y0031255D01*
X0091693Y0031251D01*
X0091852Y0031243D01*
X0092009Y0031231D01*
X0092167Y0031215D01*
X0092324Y0031195D01*
X0092480Y0031171D01*
X0092636Y0031143D01*
X0092791Y0031112D01*
X0092946Y0031076D01*
X0093099Y0031037D01*
X0093251Y0030994D01*
X0093402Y0030947D01*
X0093552Y0030896D01*
X0093701Y0030841D01*
X0093848Y0030783D01*
X0093994Y0030721D01*
X0094138Y0030656D01*
X0094280Y0030586D01*
X0094421Y0030514D01*
X0094560Y0030437D01*
X0094696Y0030358D01*
X0094831Y0030274D01*
X0094964Y0030188D01*
X0095094Y0030098D01*
X0095222Y0030005D01*
X0095348Y0029909D01*
X0095471Y0029809D01*
X0095592Y0029707D01*
X0095710Y0029602D01*
X0095825Y0029493D01*
X0095938Y0029382D01*
X0096048Y0029268D01*
X0096155Y0029151D01*
X0096259Y0029032D01*
X0096360Y0028910D01*
X0096457Y0028785D01*
X0096552Y0028658D01*
X0096643Y0028529D01*
X0096732Y0028398D01*
X0096816Y0028264D01*
X0096898Y0028128D01*
X0096976Y0027991D01*
X0097050Y0027851D01*
X0097121Y0027709D01*
X0097189Y0027566D01*
X0097253Y0027421D01*
X0097313Y0027275D01*
X0097369Y0027127D01*
X0097422Y0026978D01*
X0097471Y0026827D01*
X0097516Y0026675D01*
X0097557Y0026522D01*
X0097595Y0026369D01*
X0097628Y0026214D01*
X0097658Y0026058D01*
X0097684Y0025902D01*
X0097705Y0025745D01*
X0097723Y0025588D01*
X0097737Y0025430D01*
X0097747Y0025272D01*
X0097753Y0025114D01*
X0097755Y0024956D01*
X0097753Y0024798D01*
X0097747Y0024640D01*
X0097737Y0024482D01*
X0097723Y0024324D01*
X0097705Y0024167D01*
X0097684Y0024010D01*
X0097658Y0023854D01*
X0097628Y0023698D01*
X0097595Y0023543D01*
X0097557Y0023390D01*
X0097516Y0023237D01*
X0097471Y0023085D01*
X0097422Y0022934D01*
X0097369Y0022785D01*
X0097313Y0022637D01*
X0097253Y0022491D01*
X0097189Y0022346D01*
X0097121Y0022203D01*
X0097050Y0022061D01*
X0096976Y0021921D01*
X0096898Y0021784D01*
X0096816Y0021648D01*
X0096732Y0021514D01*
X0096643Y0021383D01*
X0096552Y0021254D01*
X0096457Y0021127D01*
X0096360Y0021002D01*
X0096259Y0020880D01*
X0096155Y0020761D01*
X0096048Y0020644D01*
X0095938Y0020530D01*
X0095825Y0020419D01*
X0095710Y0020310D01*
X0095592Y0020205D01*
X0095471Y0020103D01*
X0095348Y0020003D01*
X0095222Y0019907D01*
X0095094Y0019814D01*
X0094964Y0019724D01*
X0094831Y0019638D01*
X0094696Y0019554D01*
X0094560Y0019475D01*
X0094421Y0019398D01*
X0094280Y0019326D01*
X0094138Y0019256D01*
X0093994Y0019191D01*
X0093848Y0019129D01*
X0093701Y0019071D01*
X0093552Y0019016D01*
X0093402Y0018965D01*
X0093251Y0018918D01*
X0093099Y0018875D01*
X0092946Y0018836D01*
X0092791Y0018800D01*
X0092636Y0018769D01*
X0092480Y0018741D01*
X0092324Y0018717D01*
X0092167Y0018697D01*
X0092009Y0018681D01*
X0091852Y0018669D01*
X0091693Y0018661D01*
X0091535Y0018657D01*
X0091377Y0018657D01*
X0091219Y0018661D01*
X0091060Y0018669D01*
X0090903Y0018681D01*
X0090745Y0018697D01*
X0090588Y0018717D01*
X0090432Y0018741D01*
X0090276Y0018769D01*
X0090121Y0018800D01*
X0089966Y0018836D01*
X0089813Y0018875D01*
X0089661Y0018918D01*
X0089510Y0018965D01*
X0089360Y0019016D01*
X0089211Y0019071D01*
X0089064Y0019129D01*
X0088918Y0019191D01*
X0088774Y0019256D01*
X0088632Y0019326D01*
X0088491Y0019398D01*
X0088352Y0019475D01*
X0088216Y0019554D01*
X0088081Y0019638D01*
X0087948Y0019724D01*
X0087818Y0019814D01*
X0087690Y0019907D01*
X0087564Y0020003D01*
X0087441Y0020103D01*
X0087320Y0020205D01*
X0087202Y0020310D01*
X0087087Y0020419D01*
X0086974Y0020530D01*
X0086864Y0020644D01*
X0086757Y0020761D01*
X0086653Y0020880D01*
X0086552Y0021002D01*
X0086455Y0021127D01*
X0086360Y0021254D01*
X0086269Y0021383D01*
X0086180Y0021514D01*
X0086096Y0021648D01*
X0086014Y0021784D01*
X0085936Y0021921D01*
X0085862Y0022061D01*
X0085791Y0022203D01*
X0085723Y0022346D01*
X0085659Y0022491D01*
X0085599Y0022637D01*
X0085543Y0022785D01*
X0085490Y0022934D01*
X0085441Y0023085D01*
X0085396Y0023237D01*
X0085355Y0023390D01*
X0085317Y0023543D01*
X0085284Y0023698D01*
X0085254Y0023854D01*
X0085228Y0024010D01*
X0085207Y0024167D01*
X0085189Y0024324D01*
X0085175Y0024482D01*
X0085165Y0024640D01*
X0085159Y0024798D01*
X0085157Y0024956D01*
X0012716Y0017082D02*
X0208513Y0017082D01*
X0085157Y0127319D02*
X0085159Y0127477D01*
X0085165Y0127635D01*
X0085175Y0127793D01*
X0085189Y0127951D01*
X0085207Y0128108D01*
X0085228Y0128265D01*
X0085254Y0128421D01*
X0085284Y0128577D01*
X0085317Y0128732D01*
X0085355Y0128885D01*
X0085396Y0129038D01*
X0085441Y0129190D01*
X0085490Y0129341D01*
X0085543Y0129490D01*
X0085599Y0129638D01*
X0085659Y0129784D01*
X0085723Y0129929D01*
X0085791Y0130072D01*
X0085862Y0130214D01*
X0085936Y0130354D01*
X0086014Y0130491D01*
X0086096Y0130627D01*
X0086180Y0130761D01*
X0086269Y0130892D01*
X0086360Y0131021D01*
X0086455Y0131148D01*
X0086552Y0131273D01*
X0086653Y0131395D01*
X0086757Y0131514D01*
X0086864Y0131631D01*
X0086974Y0131745D01*
X0087087Y0131856D01*
X0087202Y0131965D01*
X0087320Y0132070D01*
X0087441Y0132172D01*
X0087564Y0132272D01*
X0087690Y0132368D01*
X0087818Y0132461D01*
X0087948Y0132551D01*
X0088081Y0132637D01*
X0088216Y0132721D01*
X0088352Y0132800D01*
X0088491Y0132877D01*
X0088632Y0132949D01*
X0088774Y0133019D01*
X0088918Y0133084D01*
X0089064Y0133146D01*
X0089211Y0133204D01*
X0089360Y0133259D01*
X0089510Y0133310D01*
X0089661Y0133357D01*
X0089813Y0133400D01*
X0089966Y0133439D01*
X0090121Y0133475D01*
X0090276Y0133506D01*
X0090432Y0133534D01*
X0090588Y0133558D01*
X0090745Y0133578D01*
X0090903Y0133594D01*
X0091060Y0133606D01*
X0091219Y0133614D01*
X0091377Y0133618D01*
X0091535Y0133618D01*
X0091693Y0133614D01*
X0091852Y0133606D01*
X0092009Y0133594D01*
X0092167Y0133578D01*
X0092324Y0133558D01*
X0092480Y0133534D01*
X0092636Y0133506D01*
X0092791Y0133475D01*
X0092946Y0133439D01*
X0093099Y0133400D01*
X0093251Y0133357D01*
X0093402Y0133310D01*
X0093552Y0133259D01*
X0093701Y0133204D01*
X0093848Y0133146D01*
X0093994Y0133084D01*
X0094138Y0133019D01*
X0094280Y0132949D01*
X0094421Y0132877D01*
X0094560Y0132800D01*
X0094696Y0132721D01*
X0094831Y0132637D01*
X0094964Y0132551D01*
X0095094Y0132461D01*
X0095222Y0132368D01*
X0095348Y0132272D01*
X0095471Y0132172D01*
X0095592Y0132070D01*
X0095710Y0131965D01*
X0095825Y0131856D01*
X0095938Y0131745D01*
X0096048Y0131631D01*
X0096155Y0131514D01*
X0096259Y0131395D01*
X0096360Y0131273D01*
X0096457Y0131148D01*
X0096552Y0131021D01*
X0096643Y0130892D01*
X0096732Y0130761D01*
X0096816Y0130627D01*
X0096898Y0130491D01*
X0096976Y0130354D01*
X0097050Y0130214D01*
X0097121Y0130072D01*
X0097189Y0129929D01*
X0097253Y0129784D01*
X0097313Y0129638D01*
X0097369Y0129490D01*
X0097422Y0129341D01*
X0097471Y0129190D01*
X0097516Y0129038D01*
X0097557Y0128885D01*
X0097595Y0128732D01*
X0097628Y0128577D01*
X0097658Y0128421D01*
X0097684Y0128265D01*
X0097705Y0128108D01*
X0097723Y0127951D01*
X0097737Y0127793D01*
X0097747Y0127635D01*
X0097753Y0127477D01*
X0097755Y0127319D01*
X0097753Y0127161D01*
X0097747Y0127003D01*
X0097737Y0126845D01*
X0097723Y0126687D01*
X0097705Y0126530D01*
X0097684Y0126373D01*
X0097658Y0126217D01*
X0097628Y0126061D01*
X0097595Y0125906D01*
X0097557Y0125753D01*
X0097516Y0125600D01*
X0097471Y0125448D01*
X0097422Y0125297D01*
X0097369Y0125148D01*
X0097313Y0125000D01*
X0097253Y0124854D01*
X0097189Y0124709D01*
X0097121Y0124566D01*
X0097050Y0124424D01*
X0096976Y0124284D01*
X0096898Y0124147D01*
X0096816Y0124011D01*
X0096732Y0123877D01*
X0096643Y0123746D01*
X0096552Y0123617D01*
X0096457Y0123490D01*
X0096360Y0123365D01*
X0096259Y0123243D01*
X0096155Y0123124D01*
X0096048Y0123007D01*
X0095938Y0122893D01*
X0095825Y0122782D01*
X0095710Y0122673D01*
X0095592Y0122568D01*
X0095471Y0122466D01*
X0095348Y0122366D01*
X0095222Y0122270D01*
X0095094Y0122177D01*
X0094964Y0122087D01*
X0094831Y0122001D01*
X0094696Y0121917D01*
X0094560Y0121838D01*
X0094421Y0121761D01*
X0094280Y0121689D01*
X0094138Y0121619D01*
X0093994Y0121554D01*
X0093848Y0121492D01*
X0093701Y0121434D01*
X0093552Y0121379D01*
X0093402Y0121328D01*
X0093251Y0121281D01*
X0093099Y0121238D01*
X0092946Y0121199D01*
X0092791Y0121163D01*
X0092636Y0121132D01*
X0092480Y0121104D01*
X0092324Y0121080D01*
X0092167Y0121060D01*
X0092009Y0121044D01*
X0091852Y0121032D01*
X0091693Y0121024D01*
X0091535Y0121020D01*
X0091377Y0121020D01*
X0091219Y0121024D01*
X0091060Y0121032D01*
X0090903Y0121044D01*
X0090745Y0121060D01*
X0090588Y0121080D01*
X0090432Y0121104D01*
X0090276Y0121132D01*
X0090121Y0121163D01*
X0089966Y0121199D01*
X0089813Y0121238D01*
X0089661Y0121281D01*
X0089510Y0121328D01*
X0089360Y0121379D01*
X0089211Y0121434D01*
X0089064Y0121492D01*
X0088918Y0121554D01*
X0088774Y0121619D01*
X0088632Y0121689D01*
X0088491Y0121761D01*
X0088352Y0121838D01*
X0088216Y0121917D01*
X0088081Y0122001D01*
X0087948Y0122087D01*
X0087818Y0122177D01*
X0087690Y0122270D01*
X0087564Y0122366D01*
X0087441Y0122466D01*
X0087320Y0122568D01*
X0087202Y0122673D01*
X0087087Y0122782D01*
X0086974Y0122893D01*
X0086864Y0123007D01*
X0086757Y0123124D01*
X0086653Y0123243D01*
X0086552Y0123365D01*
X0086455Y0123490D01*
X0086360Y0123617D01*
X0086269Y0123746D01*
X0086180Y0123877D01*
X0086096Y0124011D01*
X0086014Y0124147D01*
X0085936Y0124284D01*
X0085862Y0124424D01*
X0085791Y0124566D01*
X0085723Y0124709D01*
X0085659Y0124854D01*
X0085599Y0125000D01*
X0085543Y0125148D01*
X0085490Y0125297D01*
X0085441Y0125448D01*
X0085396Y0125600D01*
X0085355Y0125753D01*
X0085317Y0125906D01*
X0085284Y0126061D01*
X0085254Y0126217D01*
X0085228Y0126373D01*
X0085207Y0126530D01*
X0085189Y0126687D01*
X0085175Y0126845D01*
X0085165Y0127003D01*
X0085159Y0127161D01*
X0085157Y0127319D01*
D11*
X0060590Y0129582D03*
X0052716Y0129582D03*
X0044842Y0129582D03*
X0037716Y0087830D03*
X0037716Y0079956D03*
X0037716Y0072082D03*
X0037716Y0064208D03*
X0037716Y0056334D03*
X0130216Y0072082D03*
X0130216Y0080645D03*
X0130216Y0088519D03*
X0128090Y0129582D03*
X0120216Y0129582D03*
X0112342Y0129582D03*
D12*
X0113287Y0100724D03*
X0113287Y0093244D03*
X0045216Y0105842D03*
X0045216Y0113323D03*
D13*
X0121476Y0059582D03*
X0128956Y0059582D03*
D14*
X0129507Y0049386D03*
X0115728Y0049386D03*
D15*
G36*
X0074087Y0070963D02*
X0078540Y0075416D01*
X0083549Y0070407D01*
X0079096Y0065954D01*
X0074087Y0070963D01*
G37*
G36*
X0081882Y0078758D02*
X0086335Y0083211D01*
X0091344Y0078202D01*
X0086891Y0073749D01*
X0081882Y0078758D01*
G37*
X0056978Y0044582D03*
X0045954Y0044582D03*
D16*
X0025216Y0040582D03*
X0107716Y0025582D03*
X0024674Y0105681D03*
D17*
X0024674Y0113681D03*
X0025216Y0048582D03*
X0107716Y0033582D03*
D18*
X0155216Y0025832D03*
X0175216Y0025832D03*
X0196466Y0025832D03*
X0185216Y0094582D03*
X0165216Y0094582D03*
X0020216Y0124582D03*
X0020216Y0027082D03*
D19*
X0075216Y0106571D03*
X0075216Y0117594D03*
D20*
X0065374Y0114995D02*
X0065374Y0112831D01*
X0065374Y0114995D02*
X0067144Y0114995D01*
X0067144Y0112831D01*
X0065374Y0112831D01*
X0065374Y0114602D02*
X0067144Y0114602D01*
D21*
X0059173Y0113913D03*
X0059173Y0105252D03*
X0066259Y0105252D03*
D22*
X0028216Y0092082D02*
X0022216Y0092082D01*
X0022216Y0082082D02*
X0028216Y0082082D01*
X0028216Y0072082D02*
X0022216Y0072082D01*
X0022216Y0062082D02*
X0028216Y0062082D01*
X0124716Y0034582D02*
X0130716Y0034582D01*
X0130716Y0024582D02*
X0124716Y0024582D01*
D23*
X0078090Y0023933D03*
X0078090Y0030232D03*
X0062342Y0030232D03*
X0062342Y0023933D03*
X0053090Y0023933D03*
X0053090Y0030232D03*
X0037342Y0030232D03*
X0037342Y0023933D03*
X0124566Y0099208D03*
X0130865Y0099208D03*
X0130865Y0114956D03*
X0124566Y0114956D03*
D24*
X0122106Y0107082D03*
D25*
X0070216Y0032693D03*
X0045216Y0032693D03*
D26*
X0025216Y0048582D02*
X0025216Y0049582D01*
X0015216Y0049582D01*
X0015216Y0113681D01*
X0024674Y0113681D01*
X0024674Y0124582D01*
X0020216Y0124582D01*
X0126716Y0033582D02*
X0127716Y0034582D01*
X0126716Y0033582D02*
X0107716Y0033582D01*
X0107716Y0025832D02*
X0126466Y0025832D01*
X0127716Y0024582D01*
X0107716Y0025582D02*
X0107716Y0025832D01*
D27*
X0107716Y0025582D02*
X0106316Y0026532D01*
X0099566Y0033282D01*
X0088316Y0033282D01*
X0078866Y0023832D01*
X0078090Y0023933D01*
X0077966Y0023832D01*
X0063116Y0023832D01*
X0062342Y0023933D01*
X0062216Y0023832D01*
X0057266Y0023832D01*
X0057266Y0024282D01*
X0057266Y0044532D01*
X0056978Y0044582D01*
X0046016Y0045432D02*
X0045954Y0044582D01*
X0045566Y0044982D01*
X0029816Y0044982D01*
X0026666Y0048132D01*
X0025216Y0048582D01*
X0046016Y0045432D02*
X0046016Y0053532D01*
X0067166Y0074682D01*
X0069866Y0074682D01*
X0073466Y0071082D01*
X0078416Y0071082D01*
X0078818Y0070685D01*
X0078866Y0070632D01*
X0082916Y0066582D01*
X0083366Y0067032D01*
X0093266Y0076932D01*
X0093266Y0081432D01*
X0112166Y0100332D01*
X0113066Y0100332D01*
X0113287Y0100724D01*
X0130865Y0099208D02*
X0131066Y0099432D01*
X0131066Y0114732D01*
X0130865Y0114956D01*
X0130616Y0115632D01*
X0121616Y0124632D01*
X0117566Y0124632D01*
X0117116Y0124182D01*
X0086516Y0093582D01*
X0086066Y0093132D01*
X0086516Y0092682D01*
X0086516Y0078732D01*
X0086613Y0078480D01*
X0082916Y0066582D02*
X0087416Y0062082D01*
X0086966Y0061632D01*
X0087416Y0062082D02*
X0100016Y0049482D01*
X0115316Y0049482D01*
X0115728Y0049386D01*
X0140216Y0047082D02*
X0206113Y0047082D01*
X0206113Y0042082D02*
X0140216Y0042082D01*
X0140216Y0037082D02*
X0206113Y0037082D01*
X0206113Y0032082D02*
X0140216Y0032082D01*
X0140216Y0027082D02*
X0149816Y0027082D01*
X0149816Y0028069D02*
X0149816Y0023596D01*
X0152979Y0020432D01*
X0157453Y0020432D01*
X0160616Y0023596D01*
X0160616Y0028069D01*
X0157453Y0031232D01*
X0152979Y0031232D01*
X0149816Y0028069D01*
X0152716Y0030969D02*
X0152716Y0103332D01*
X0157716Y0103332D02*
X0157716Y0030969D01*
X0160616Y0027082D02*
X0170416Y0027082D01*
X0170416Y0027821D02*
X0170416Y0026032D01*
X0175016Y0026032D01*
X0175016Y0025632D01*
X0175416Y0025632D01*
X0175416Y0021032D01*
X0177204Y0021032D01*
X0180016Y0023844D01*
X0180016Y0025632D01*
X0175416Y0025632D01*
X0175416Y0026032D01*
X0180016Y0026032D01*
X0180016Y0027821D01*
X0177204Y0030632D01*
X0175416Y0030632D01*
X0175416Y0026032D01*
X0175016Y0026032D01*
X0175016Y0030632D01*
X0173228Y0030632D01*
X0170416Y0027821D01*
X0170416Y0025632D02*
X0170416Y0023844D01*
X0173228Y0021032D01*
X0175016Y0021032D01*
X0175016Y0025632D01*
X0170416Y0025632D01*
X0172716Y0025632D02*
X0172716Y0026032D01*
X0175016Y0027082D02*
X0175416Y0027082D01*
X0177716Y0026032D02*
X0177716Y0025632D01*
X0180016Y0027082D02*
X0191066Y0027082D01*
X0191066Y0028069D02*
X0191066Y0023596D01*
X0194229Y0020432D01*
X0198703Y0020432D01*
X0201866Y0023596D01*
X0201866Y0028069D01*
X0198703Y0031232D01*
X0194229Y0031232D01*
X0191066Y0028069D01*
X0192716Y0029719D02*
X0192716Y0103332D01*
X0197716Y0103332D02*
X0197716Y0031232D01*
X0201866Y0027082D02*
X0206113Y0027082D01*
X0206113Y0022082D02*
X0200353Y0022082D01*
X0197716Y0020432D02*
X0197716Y0019482D01*
X0192716Y0019482D02*
X0192716Y0021946D01*
X0192579Y0022082D02*
X0178254Y0022082D01*
X0177716Y0021544D02*
X0177716Y0019482D01*
X0175416Y0022082D02*
X0175016Y0022082D01*
X0172716Y0021544D02*
X0172716Y0019482D01*
X0172178Y0022082D02*
X0159103Y0022082D01*
X0157716Y0020696D02*
X0157716Y0019482D01*
X0152716Y0019482D02*
X0152716Y0020696D01*
X0151329Y0022082D02*
X0140216Y0022082D01*
X0140216Y0019482D02*
X0140216Y0103332D01*
X0206113Y0103332D01*
X0206113Y0019482D01*
X0140216Y0019482D01*
X0142716Y0019482D02*
X0142716Y0103332D01*
X0140216Y0102082D02*
X0206113Y0102082D01*
X0202716Y0103332D02*
X0202716Y0019482D01*
X0187716Y0019482D02*
X0187716Y0089446D01*
X0187453Y0089182D02*
X0190616Y0092346D01*
X0190616Y0096819D01*
X0187453Y0099982D01*
X0182979Y0099982D01*
X0179816Y0096819D01*
X0179816Y0092346D01*
X0182979Y0089182D01*
X0187453Y0089182D01*
X0190353Y0092082D02*
X0206113Y0092082D01*
X0206113Y0097082D02*
X0190353Y0097082D01*
X0187716Y0099719D02*
X0187716Y0103332D01*
X0182716Y0103332D02*
X0182716Y0099719D01*
X0180079Y0097082D02*
X0170353Y0097082D01*
X0170616Y0096819D02*
X0167453Y0099982D01*
X0162979Y0099982D01*
X0159816Y0096819D01*
X0159816Y0092346D01*
X0162979Y0089182D01*
X0167453Y0089182D01*
X0170616Y0092346D01*
X0170616Y0096819D01*
X0167716Y0099719D02*
X0167716Y0103332D01*
X0162716Y0103332D02*
X0162716Y0099719D01*
X0160079Y0097082D02*
X0140216Y0097082D01*
X0140216Y0092082D02*
X0160079Y0092082D01*
X0162716Y0089446D02*
X0162716Y0019482D01*
X0167716Y0019482D02*
X0167716Y0089446D01*
X0170353Y0092082D02*
X0180079Y0092082D01*
X0182716Y0089446D02*
X0182716Y0019482D01*
X0177716Y0030121D02*
X0177716Y0103332D01*
X0172716Y0103332D02*
X0172716Y0030121D01*
X0147716Y0019482D02*
X0147716Y0103332D01*
X0140216Y0087082D02*
X0206113Y0087082D01*
X0206113Y0082082D02*
X0140216Y0082082D01*
X0140216Y0077082D02*
X0206113Y0077082D01*
X0206113Y0072082D02*
X0140216Y0072082D01*
X0140216Y0067082D02*
X0206113Y0067082D01*
X0206113Y0062082D02*
X0140216Y0062082D01*
X0140216Y0057082D02*
X0206113Y0057082D01*
X0206113Y0052082D02*
X0140216Y0052082D01*
X0086066Y0093132D02*
X0074366Y0104832D01*
X0075216Y0106571D01*
X0074816Y0106182D01*
X0073916Y0105282D01*
X0066266Y0105282D01*
X0066259Y0105252D01*
X0065816Y0104832D01*
X0062216Y0101232D01*
X0028916Y0101232D01*
X0024866Y0105282D01*
X0024674Y0105681D01*
X0059173Y0113913D02*
X0059516Y0114282D01*
X0059516Y0117882D01*
X0059966Y0117882D01*
X0074816Y0117882D01*
X0075216Y0117594D01*
X0059516Y0117882D02*
X0059516Y0128682D01*
X0060416Y0129582D01*
X0060590Y0129582D01*
X0112342Y0129582D02*
X0112616Y0129582D01*
X0117566Y0124632D01*
X0033416Y0026982D02*
X0020366Y0026982D01*
X0020216Y0027082D01*
X0033416Y0026982D02*
X0036566Y0023832D01*
X0037342Y0023933D01*
X0037466Y0023832D01*
X0052766Y0023832D01*
X0053090Y0023933D01*
X0053666Y0023832D01*
X0057266Y0023832D01*
D28*
X0057258Y0023933D02*
X0053090Y0023933D01*
X0057258Y0023933D01*
X0057258Y0026191D01*
X0057192Y0026438D01*
X0057432Y0026677D01*
X0057716Y0027362D01*
X0057716Y0019882D01*
X0058613Y0020613D02*
X0059022Y0020204D01*
X0059524Y0019914D01*
X0059643Y0019882D01*
X0055789Y0019882D01*
X0055908Y0019914D01*
X0056409Y0020204D01*
X0056819Y0020613D01*
X0057108Y0021115D01*
X0057258Y0021675D01*
X0057258Y0023933D01*
X0058173Y0023933D02*
X0058173Y0021675D01*
X0058323Y0021115D01*
X0058613Y0020613D01*
X0058173Y0022082D02*
X0057258Y0022082D01*
X0058173Y0023933D02*
X0062342Y0023933D01*
X0066510Y0023933D01*
X0066510Y0026191D01*
X0066444Y0026438D01*
X0066684Y0026677D01*
X0066790Y0026932D01*
X0073642Y0026932D01*
X0073748Y0026677D01*
X0073987Y0026438D01*
X0073921Y0026191D01*
X0073921Y0023933D01*
X0078090Y0023933D01*
X0082258Y0023933D01*
X0082258Y0026191D01*
X0082192Y0026438D01*
X0082357Y0026602D01*
X0082357Y0023146D01*
X0083709Y0019882D01*
X0080789Y0019882D01*
X0080908Y0019914D01*
X0081409Y0020204D01*
X0081819Y0020613D01*
X0082108Y0021115D01*
X0082258Y0021675D01*
X0082258Y0023933D01*
X0078090Y0023933D01*
X0078090Y0023933D01*
X0078090Y0023933D01*
X0073921Y0023933D01*
X0073921Y0021675D01*
X0074071Y0021115D01*
X0074361Y0020613D01*
X0074771Y0020204D01*
X0075272Y0019914D01*
X0075391Y0019882D01*
X0065041Y0019882D01*
X0065159Y0019914D01*
X0065661Y0020204D01*
X0066071Y0020613D01*
X0066360Y0021115D01*
X0066510Y0021675D01*
X0066510Y0023933D01*
X0062342Y0023933D01*
X0062342Y0023933D01*
X0062342Y0023933D01*
X0058173Y0023933D01*
X0058173Y0026191D01*
X0058239Y0026438D01*
X0058000Y0026677D01*
X0057716Y0027362D01*
X0057600Y0027082D02*
X0057832Y0027082D01*
X0062716Y0023933D02*
X0062716Y0023933D01*
X0066510Y0022082D02*
X0073921Y0022082D01*
X0072716Y0019882D02*
X0072716Y0026932D01*
X0077716Y0023933D02*
X0077716Y0023933D01*
X0082258Y0022082D02*
X0082798Y0022082D01*
X0082716Y0022280D02*
X0082716Y0019882D01*
X0082858Y0027977D02*
X0082858Y0032757D01*
X0082432Y0033787D01*
X0081644Y0034574D01*
X0080615Y0035000D01*
X0078391Y0035000D01*
X0077979Y0035995D01*
X0077078Y0036895D01*
X0075316Y0038658D01*
X0075316Y0065476D01*
X0075465Y0065625D01*
X0077511Y0063579D01*
X0078540Y0063152D01*
X0079654Y0063152D01*
X0080683Y0063579D01*
X0080756Y0063651D01*
X0080877Y0063530D01*
X0082966Y0061441D01*
X0082966Y0060837D01*
X0083575Y0059367D01*
X0084700Y0058241D01*
X0086170Y0057632D01*
X0086775Y0057632D01*
X0096964Y0047443D01*
X0097977Y0046430D01*
X0099300Y0045882D01*
X0109975Y0045882D01*
X0109975Y0045876D01*
X0110401Y0044847D01*
X0111189Y0044059D01*
X0112218Y0043633D01*
X0119237Y0043633D01*
X0120266Y0044059D01*
X0121054Y0044847D01*
X0121480Y0045876D01*
X0121480Y0052895D01*
X0121093Y0053830D01*
X0124141Y0053830D01*
X0123754Y0052895D01*
X0123754Y0045876D01*
X0124181Y0044847D01*
X0124968Y0044059D01*
X0125997Y0043633D01*
X0133017Y0043633D01*
X0134046Y0044059D01*
X0134834Y0044847D01*
X0135216Y0045769D01*
X0135216Y0038285D01*
X0134001Y0039499D01*
X0131870Y0040382D01*
X0123562Y0040382D01*
X0121430Y0039499D01*
X0119913Y0037982D01*
X0110953Y0037982D01*
X0110775Y0038160D01*
X0108790Y0038982D01*
X0106642Y0038982D01*
X0104657Y0038160D01*
X0103138Y0036641D01*
X0102316Y0034657D01*
X0102316Y0032508D01*
X0103138Y0030524D01*
X0104503Y0029158D01*
X0102916Y0027571D01*
X0102916Y0025582D01*
X0102916Y0023594D01*
X0105728Y0020782D01*
X0107716Y0020782D01*
X0109704Y0020782D01*
X0112516Y0023594D01*
X0112516Y0025582D01*
X0107716Y0025582D01*
X0107716Y0020782D01*
X0107716Y0025582D01*
X0107716Y0025582D01*
X0107716Y0019882D01*
X0107716Y0022082D02*
X0107716Y0022082D01*
X0111004Y0022082D02*
X0120154Y0022082D01*
X0120268Y0021857D02*
X0119897Y0022586D01*
X0119644Y0023365D01*
X0119516Y0024173D01*
X0119516Y0024582D01*
X0127716Y0024582D01*
X0127716Y0024582D01*
X0119516Y0024582D01*
X0119516Y0024992D01*
X0119644Y0025800D01*
X0119897Y0026578D01*
X0120268Y0027308D01*
X0120749Y0027970D01*
X0121328Y0028549D01*
X0121990Y0029030D01*
X0122290Y0029182D01*
X0110953Y0029182D01*
X0110928Y0029158D01*
X0112516Y0027571D01*
X0112516Y0025582D01*
X0107716Y0025582D01*
X0107716Y0025582D01*
X0102916Y0025582D01*
X0107716Y0025582D01*
X0107716Y0025582D01*
X0107716Y0025583D02*
X0107716Y0028182D01*
X0107716Y0028182D01*
X0107716Y0025583D01*
X0107716Y0025583D01*
X0107716Y0028182D01*
X0107716Y0027082D02*
X0107716Y0027082D01*
X0112516Y0027082D02*
X0120154Y0027082D01*
X0117716Y0029182D02*
X0117716Y0019882D01*
X0120268Y0021857D02*
X0120749Y0021195D01*
X0121328Y0020616D01*
X0121990Y0020135D01*
X0122486Y0019882D01*
X0099203Y0019882D01*
X0100555Y0023146D01*
X0100555Y0026766D01*
X0099170Y0030111D01*
X0096610Y0032670D01*
X0093266Y0034056D01*
X0089646Y0034056D01*
X0086302Y0032670D01*
X0083742Y0030111D01*
X0082858Y0027977D01*
X0082858Y0032082D02*
X0085714Y0032082D01*
X0087716Y0033256D02*
X0087716Y0056691D01*
X0087325Y0057082D02*
X0075316Y0057082D01*
X0075316Y0052082D02*
X0092325Y0052082D01*
X0092716Y0051691D02*
X0092716Y0034056D01*
X0097198Y0032082D02*
X0102492Y0032082D01*
X0102716Y0031543D02*
X0102716Y0019882D01*
X0104428Y0022082D02*
X0100114Y0022082D01*
X0100424Y0027082D02*
X0102916Y0027082D01*
X0097716Y0031565D02*
X0097716Y0046691D01*
X0097325Y0047082D02*
X0075316Y0047082D01*
X0068916Y0047082D02*
X0062327Y0047082D01*
X0062327Y0048415D02*
X0062177Y0048975D01*
X0061888Y0049477D01*
X0061478Y0049886D01*
X0060976Y0050176D01*
X0060417Y0050326D01*
X0057352Y0050326D01*
X0057352Y0044957D01*
X0056603Y0044957D01*
X0056603Y0050326D01*
X0055516Y0050326D01*
X0055516Y0050407D01*
X0060525Y0055416D01*
X0060850Y0055091D01*
X0062320Y0054482D01*
X0062590Y0054482D01*
X0064453Y0052620D01*
X0065629Y0052132D01*
X0066509Y0052132D01*
X0066700Y0051941D01*
X0068170Y0051332D01*
X0068916Y0051332D01*
X0068916Y0036696D01*
X0068966Y0036575D01*
X0066312Y0036575D01*
X0065283Y0036149D01*
X0064496Y0035361D01*
X0064346Y0035000D01*
X0059816Y0035000D01*
X0058787Y0034574D01*
X0058000Y0033787D01*
X0057716Y0033102D01*
X0057716Y0038839D01*
X0057352Y0038839D02*
X0060417Y0038839D01*
X0060976Y0038989D01*
X0061478Y0039279D01*
X0061888Y0039688D01*
X0062177Y0040190D01*
X0062327Y0040749D01*
X0062327Y0044208D01*
X0057353Y0044208D01*
X0057353Y0044957D01*
X0062327Y0044957D01*
X0062327Y0048415D01*
X0057716Y0050326D02*
X0057716Y0052607D01*
X0057191Y0052082D02*
X0066559Y0052082D01*
X0067716Y0051521D02*
X0067716Y0036575D01*
X0068916Y0037082D02*
X0055516Y0037082D01*
X0055516Y0038839D02*
X0056603Y0038839D01*
X0056603Y0044208D01*
X0057352Y0044208D01*
X0057352Y0038839D01*
X0055516Y0038839D02*
X0055516Y0035000D01*
X0055615Y0035000D01*
X0056644Y0034574D01*
X0057432Y0033787D01*
X0057716Y0033102D01*
X0062716Y0035000D02*
X0062716Y0054357D01*
X0057352Y0047082D02*
X0056603Y0047082D01*
X0057716Y0044957D02*
X0057716Y0044208D01*
X0057352Y0042082D02*
X0056603Y0042082D01*
X0062327Y0042082D02*
X0068916Y0042082D01*
X0075316Y0042082D02*
X0135216Y0042082D01*
X0132716Y0043633D02*
X0132716Y0040032D01*
X0127716Y0040382D02*
X0127716Y0043633D01*
X0122716Y0040032D02*
X0122716Y0053830D01*
X0123754Y0052082D02*
X0121480Y0052082D01*
X0116504Y0055138D02*
X0112218Y0055138D01*
X0111189Y0054712D01*
X0110401Y0053924D01*
X0110052Y0053082D01*
X0101507Y0053082D01*
X0090468Y0064122D01*
X0089455Y0065134D01*
X0088007Y0066582D01*
X0096318Y0074893D01*
X0096866Y0076216D01*
X0096866Y0079941D01*
X0105133Y0088208D01*
X0105850Y0087491D01*
X0107320Y0086882D01*
X0108911Y0086882D01*
X0110382Y0087491D01*
X0110573Y0087682D01*
X0111452Y0087682D01*
X0111941Y0087885D01*
X0116796Y0087885D01*
X0117826Y0088311D01*
X0118613Y0089099D01*
X0119039Y0090128D01*
X0119039Y0094131D01*
X0120393Y0095484D01*
X0121012Y0094866D01*
X0122041Y0094440D01*
X0127092Y0094440D01*
X0128121Y0094866D01*
X0128361Y0095106D01*
X0128607Y0095040D01*
X0130865Y0095040D01*
X0130865Y0099208D01*
X0130865Y0099208D01*
X0130865Y0095040D01*
X0133124Y0095040D01*
X0133683Y0095190D01*
X0134185Y0095479D01*
X0134594Y0095889D01*
X0134884Y0096391D01*
X0135034Y0096950D01*
X0135034Y0099208D01*
X0130866Y0099208D01*
X0130866Y0099208D01*
X0135034Y0099208D01*
X0135034Y0101467D01*
X0134884Y0102026D01*
X0134594Y0102528D01*
X0134185Y0102937D01*
X0133683Y0103227D01*
X0133124Y0103377D01*
X0130865Y0103377D01*
X0128607Y0103377D01*
X0128361Y0103311D01*
X0128121Y0103551D01*
X0127966Y0103615D01*
X0127966Y0110550D01*
X0128121Y0110614D01*
X0128361Y0110854D01*
X0128607Y0110788D01*
X0130865Y0110788D01*
X0130865Y0114956D01*
X0130865Y0114956D01*
X0130865Y0110788D01*
X0133124Y0110788D01*
X0133683Y0110938D01*
X0134185Y0111227D01*
X0134594Y0111637D01*
X0134884Y0112139D01*
X0135034Y0112698D01*
X0135034Y0114956D01*
X0130866Y0114956D01*
X0130866Y0114956D01*
X0135034Y0114956D01*
X0135034Y0117215D01*
X0134884Y0117774D01*
X0134594Y0118276D01*
X0134185Y0118685D01*
X0133683Y0118975D01*
X0133124Y0119125D01*
X0130865Y0119125D01*
X0128607Y0119125D01*
X0128361Y0119059D01*
X0128121Y0119299D01*
X0127092Y0119725D01*
X0124299Y0119725D01*
X0122078Y0121945D01*
X0120902Y0122432D01*
X0120023Y0122432D01*
X0119832Y0122623D01*
X0118361Y0123232D01*
X0116770Y0123232D01*
X0115300Y0122623D01*
X0114175Y0121498D01*
X0113566Y0120028D01*
X0113566Y0118437D01*
X0114175Y0116967D01*
X0115300Y0115841D01*
X0116770Y0115232D01*
X0118361Y0115232D01*
X0119336Y0115636D01*
X0119798Y0115175D01*
X0119798Y0112952D01*
X0119437Y0112803D01*
X0118649Y0112015D01*
X0118223Y0110986D01*
X0118223Y0105259D01*
X0117826Y0105657D01*
X0116796Y0106083D01*
X0109777Y0106083D01*
X0108748Y0105657D01*
X0107960Y0104869D01*
X0107534Y0103840D01*
X0107534Y0100792D01*
X0091227Y0084484D01*
X0090214Y0083472D01*
X0089913Y0082745D01*
X0087686Y0084973D01*
X0087184Y0085262D01*
X0086625Y0085412D01*
X0086045Y0085412D01*
X0085486Y0085262D01*
X0084984Y0084973D01*
X0082817Y0082806D01*
X0086613Y0079010D01*
X0086083Y0078480D01*
X0082287Y0082276D01*
X0080120Y0080109D01*
X0079831Y0079607D01*
X0079681Y0079048D01*
X0079681Y0078469D01*
X0079829Y0077914D01*
X0079097Y0078218D01*
X0077983Y0078218D01*
X0076954Y0077791D01*
X0074401Y0075238D01*
X0072918Y0076722D01*
X0071905Y0077734D01*
X0070582Y0078282D01*
X0066450Y0078282D01*
X0065127Y0077734D01*
X0043977Y0056584D01*
X0043316Y0055924D01*
X0043316Y0057448D01*
X0042463Y0059506D01*
X0041698Y0060271D01*
X0042463Y0061036D01*
X0043316Y0063094D01*
X0043316Y0065322D01*
X0042463Y0067381D01*
X0041698Y0068145D01*
X0042463Y0068910D01*
X0043316Y0070968D01*
X0043316Y0073196D01*
X0042463Y0075255D01*
X0041698Y0076019D01*
X0042463Y0076784D01*
X0043013Y0078110D01*
X0049666Y0071457D01*
X0049666Y0071187D01*
X0050275Y0069717D01*
X0051400Y0068591D01*
X0052870Y0067982D01*
X0054461Y0067982D01*
X0055932Y0068591D01*
X0057057Y0069717D01*
X0057666Y0071187D01*
X0057666Y0072778D01*
X0057057Y0074248D01*
X0055932Y0075373D01*
X0054461Y0075982D01*
X0054191Y0075982D01*
X0043316Y0086858D01*
X0043316Y0088944D01*
X0042463Y0091003D01*
X0040888Y0092578D01*
X0038830Y0093430D01*
X0036602Y0093430D01*
X0034544Y0092578D01*
X0034016Y0092050D01*
X0034016Y0093236D01*
X0033133Y0095368D01*
X0031501Y0096999D01*
X0029370Y0097882D01*
X0021062Y0097882D01*
X0019616Y0097283D01*
X0019616Y0109281D01*
X0021438Y0109281D01*
X0021462Y0109257D01*
X0019874Y0107669D01*
X0019874Y0105681D01*
X0024674Y0105681D01*
X0024674Y0105681D01*
X0019874Y0105681D01*
X0019874Y0103693D01*
X0022686Y0100881D01*
X0024674Y0100881D01*
X0024674Y0105681D01*
X0024675Y0105681D01*
X0029474Y0105681D01*
X0029474Y0107669D01*
X0027887Y0109257D01*
X0029252Y0110622D01*
X0030074Y0112607D01*
X0030074Y0114755D01*
X0029252Y0116740D01*
X0029074Y0116918D01*
X0029074Y0125458D01*
X0028405Y0127075D01*
X0027167Y0128313D01*
X0025550Y0128982D01*
X0024018Y0128982D01*
X0022618Y0130382D01*
X0017813Y0130382D01*
X0015516Y0128085D01*
X0015516Y0132393D01*
X0039944Y0132393D01*
X0039242Y0130696D01*
X0039242Y0128468D01*
X0040094Y0126410D01*
X0041670Y0124835D01*
X0041916Y0124733D01*
X0041916Y0118682D01*
X0041706Y0118682D01*
X0040677Y0118255D01*
X0039889Y0117468D01*
X0039463Y0116439D01*
X0039463Y0110207D01*
X0039722Y0109582D01*
X0039463Y0108958D01*
X0039463Y0102726D01*
X0039889Y0101697D01*
X0040677Y0100909D01*
X0041706Y0100483D01*
X0048726Y0100483D01*
X0049755Y0100909D01*
X0050542Y0101697D01*
X0050702Y0102082D01*
X0054868Y0102082D01*
X0055027Y0101697D01*
X0055815Y0100909D01*
X0056844Y0100483D01*
X0061501Y0100483D01*
X0062530Y0100909D01*
X0063141Y0101520D01*
X0063638Y0101233D01*
X0064198Y0101083D01*
X0066259Y0101083D01*
X0066259Y0105252D01*
X0066259Y0105252D01*
X0066259Y0101083D01*
X0068320Y0101083D01*
X0068880Y0101233D01*
X0069382Y0101523D01*
X0069791Y0101932D01*
X0069891Y0102106D01*
X0069912Y0102070D01*
X0070322Y0101661D01*
X0070823Y0101371D01*
X0071383Y0101221D01*
X0074841Y0101221D01*
X0074841Y0106196D01*
X0075591Y0106196D01*
X0075591Y0106945D01*
X0080959Y0106945D01*
X0080959Y0110010D01*
X0080809Y0110569D01*
X0080520Y0111071D01*
X0080110Y0111481D01*
X0079613Y0111768D01*
X0080345Y0112071D01*
X0081133Y0112859D01*
X0081559Y0113888D01*
X0081559Y0121301D01*
X0081133Y0122330D01*
X0080345Y0123118D01*
X0079316Y0123544D01*
X0071116Y0123544D01*
X0070086Y0123118D01*
X0069299Y0122330D01*
X0068948Y0121482D01*
X0063116Y0121482D01*
X0063116Y0124567D01*
X0063762Y0124835D01*
X0065337Y0126410D01*
X0066190Y0128468D01*
X0066190Y0130696D01*
X0065487Y0132393D01*
X0083709Y0132393D01*
X0082357Y0129129D01*
X0082357Y0125509D01*
X0083742Y0122164D01*
X0086302Y0119605D01*
X0089646Y0118219D01*
X0093266Y0118219D01*
X0096610Y0119605D01*
X0099170Y0122164D01*
X0100555Y0125509D01*
X0100555Y0129129D01*
X0099203Y0132393D01*
X0108203Y0132393D01*
X0108065Y0132203D01*
X0107708Y0131502D01*
X0107465Y0130753D01*
X0107342Y0129976D01*
X0107342Y0129582D01*
X0107342Y0129189D01*
X0107465Y0128412D01*
X0107708Y0127663D01*
X0108065Y0126962D01*
X0108528Y0126325D01*
X0109085Y0125769D01*
X0109721Y0125306D01*
X0110422Y0124949D01*
X0111171Y0124706D01*
X0111948Y0124582D01*
X0112342Y0124582D01*
X0112735Y0124582D01*
X0113513Y0124706D01*
X0114261Y0124949D01*
X0114962Y0125306D01*
X0115599Y0125769D01*
X0115855Y0126024D01*
X0117044Y0124835D01*
X0119102Y0123982D01*
X0121330Y0123982D01*
X0123388Y0124835D01*
X0124153Y0125600D01*
X0124918Y0124835D01*
X0126976Y0123982D01*
X0129204Y0123982D01*
X0131262Y0124835D01*
X0132837Y0126410D01*
X0133690Y0128468D01*
X0133690Y0130696D01*
X0132987Y0132393D01*
X0135216Y0132393D01*
X0135216Y0091082D01*
X0134963Y0091692D01*
X0133388Y0093267D01*
X0131330Y0094119D01*
X0129102Y0094119D01*
X0127044Y0093267D01*
X0125468Y0091692D01*
X0124616Y0089633D01*
X0124616Y0087405D01*
X0125468Y0085347D01*
X0126233Y0084582D01*
X0125468Y0083818D01*
X0124616Y0081759D01*
X0124616Y0079531D01*
X0125468Y0077473D01*
X0126578Y0076364D01*
X0125468Y0075255D01*
X0124616Y0073196D01*
X0124616Y0070968D01*
X0125468Y0068910D01*
X0127044Y0067335D01*
X0129102Y0066482D01*
X0131330Y0066482D01*
X0133388Y0067335D01*
X0134963Y0068910D01*
X0135216Y0069520D01*
X0135216Y0053002D01*
X0134834Y0053924D01*
X0134046Y0054712D01*
X0133700Y0054855D01*
X0133889Y0055044D01*
X0134315Y0056073D01*
X0134315Y0063092D01*
X0133889Y0064121D01*
X0133101Y0064909D01*
X0132072Y0065335D01*
X0125840Y0065335D01*
X0125216Y0065077D01*
X0124592Y0065335D01*
X0118360Y0065335D01*
X0117331Y0064909D01*
X0117254Y0064832D01*
X0109223Y0064832D01*
X0109032Y0065023D01*
X0107561Y0065632D01*
X0105970Y0065632D01*
X0104500Y0065023D01*
X0103375Y0063898D01*
X0102766Y0062428D01*
X0102766Y0060837D01*
X0103375Y0059367D01*
X0104500Y0058241D01*
X0105970Y0057632D01*
X0107561Y0057632D01*
X0109032Y0058241D01*
X0109223Y0058432D01*
X0116117Y0058432D01*
X0116117Y0056073D01*
X0116504Y0055138D01*
X0116117Y0057082D02*
X0097507Y0057082D01*
X0097716Y0056874D02*
X0097716Y0080791D01*
X0099007Y0082082D02*
X0124750Y0082082D01*
X0124750Y0087082D02*
X0109394Y0087082D01*
X0107716Y0086882D02*
X0107716Y0065568D01*
X0112716Y0064832D02*
X0112716Y0087885D01*
X0106837Y0087082D02*
X0104007Y0087082D01*
X0102716Y0085791D02*
X0102716Y0053082D01*
X0107716Y0053082D02*
X0107716Y0057696D01*
X0112716Y0058432D02*
X0112716Y0055138D01*
X0102766Y0062082D02*
X0092507Y0062082D01*
X0092716Y0061874D02*
X0092716Y0071291D01*
X0093507Y0072082D02*
X0124616Y0072082D01*
X0127653Y0067082D02*
X0088507Y0067082D01*
X0089455Y0065134D02*
X0089455Y0065134D01*
X0090468Y0064122D02*
X0090468Y0064122D01*
X0082716Y0061691D02*
X0082716Y0033102D01*
X0077716Y0036258D02*
X0077716Y0063494D01*
X0075316Y0062082D02*
X0082325Y0062082D01*
X0080877Y0063530D02*
X0080877Y0063530D01*
X0062716Y0075324D02*
X0062716Y0101095D01*
X0066259Y0102082D02*
X0066259Y0102082D01*
X0067716Y0101083D02*
X0067716Y0078282D01*
X0064475Y0077082D02*
X0053091Y0077082D01*
X0052716Y0077458D02*
X0052716Y0102082D01*
X0047716Y0100483D02*
X0047716Y0082458D01*
X0048091Y0082082D02*
X0082094Y0082082D01*
X0082481Y0082082D02*
X0083541Y0082082D01*
X0082716Y0081847D02*
X0082716Y0124642D01*
X0082357Y0127082D02*
X0065616Y0127082D01*
X0063116Y0122082D02*
X0069196Y0122082D01*
X0067716Y0121482D02*
X0067716Y0132393D01*
X0065616Y0132082D02*
X0083580Y0132082D01*
X0082716Y0132393D02*
X0082716Y0129995D01*
X0077716Y0132393D02*
X0077716Y0123544D01*
X0081235Y0122082D02*
X0083824Y0122082D01*
X0087716Y0119019D02*
X0087716Y0084943D01*
X0092716Y0085974D02*
X0092716Y0118219D01*
X0097716Y0120710D02*
X0097716Y0090974D01*
X0098825Y0092082D02*
X0041383Y0092082D01*
X0042716Y0090393D02*
X0042716Y0100483D01*
X0039730Y0102082D02*
X0027864Y0102082D01*
X0027716Y0101934D02*
X0027716Y0097882D01*
X0026663Y0100881D02*
X0024675Y0100881D01*
X0024675Y0105681D01*
X0024675Y0105681D01*
X0029474Y0105681D01*
X0029474Y0103693D01*
X0026663Y0100881D01*
X0024675Y0102082D02*
X0024674Y0102082D01*
X0022716Y0100881D02*
X0022716Y0097882D01*
X0021485Y0102082D02*
X0019616Y0102082D01*
X0022716Y0105681D02*
X0022716Y0105681D01*
X0019874Y0107082D02*
X0019616Y0107082D01*
X0027716Y0105681D02*
X0027716Y0105681D01*
X0029474Y0107082D02*
X0039463Y0107082D01*
X0039463Y0112082D02*
X0029857Y0112082D01*
X0029074Y0117082D02*
X0039730Y0117082D01*
X0041916Y0122082D02*
X0029074Y0122082D01*
X0028397Y0127082D02*
X0039816Y0127082D01*
X0039816Y0132082D02*
X0015516Y0132082D01*
X0017716Y0132393D02*
X0017716Y0130285D01*
X0022716Y0130285D02*
X0022716Y0132393D01*
X0027716Y0132393D02*
X0027716Y0127764D01*
X0032716Y0132393D02*
X0032716Y0095785D01*
X0031301Y0097082D02*
X0103825Y0097082D01*
X0102716Y0095974D02*
X0102716Y0132393D01*
X0099332Y0132082D02*
X0108004Y0132082D01*
X0107716Y0132393D02*
X0107716Y0131517D01*
X0107716Y0129582D02*
X0107716Y0129582D01*
X0107342Y0129582D02*
X0112342Y0129582D01*
X0112342Y0124582D01*
X0112342Y0129582D01*
X0112342Y0129582D01*
X0114616Y0129582D01*
X0114616Y0129582D01*
X0112342Y0129582D01*
X0112342Y0129582D01*
X0112342Y0129582D01*
X0107342Y0129582D01*
X0107716Y0127648D02*
X0107716Y0104279D01*
X0107534Y0102082D02*
X0080527Y0102082D01*
X0080520Y0102070D02*
X0080809Y0102572D01*
X0080959Y0103131D01*
X0080959Y0106196D01*
X0075591Y0106196D01*
X0075591Y0101221D01*
X0079049Y0101221D01*
X0079608Y0101371D01*
X0080110Y0101661D01*
X0080520Y0102070D01*
X0077716Y0101221D02*
X0077716Y0078107D01*
X0076245Y0077082D02*
X0072557Y0077082D01*
X0072716Y0076924D02*
X0072716Y0101221D01*
X0074841Y0102082D02*
X0075591Y0102082D01*
X0077716Y0106196D02*
X0077716Y0106945D01*
X0080959Y0107082D02*
X0118223Y0107082D01*
X0117716Y0105702D02*
X0117716Y0115232D01*
X0114127Y0117082D02*
X0081559Y0117082D01*
X0080357Y0112082D02*
X0118717Y0112082D01*
X0112716Y0106083D02*
X0112716Y0124582D01*
X0112342Y0127082D02*
X0112342Y0127082D01*
X0112716Y0129582D02*
X0112716Y0129582D01*
X0108004Y0127082D02*
X0100555Y0127082D01*
X0099088Y0122082D02*
X0114759Y0122082D01*
X0117716Y0123232D02*
X0117716Y0124557D01*
X0121747Y0122082D02*
X0135216Y0122082D01*
X0132716Y0119125D02*
X0132716Y0126289D01*
X0133116Y0127082D02*
X0135216Y0127082D01*
X0135216Y0132082D02*
X0133116Y0132082D01*
X0122716Y0124557D02*
X0122716Y0121308D01*
X0127716Y0119466D02*
X0127716Y0123982D01*
X0130865Y0119125D02*
X0130865Y0114957D01*
X0130865Y0114957D01*
X0130865Y0119125D01*
X0130865Y0117082D02*
X0130865Y0117082D01*
X0132716Y0114956D02*
X0132716Y0114956D01*
X0135034Y0117082D02*
X0135216Y0117082D01*
X0135216Y0112082D02*
X0134851Y0112082D01*
X0132716Y0110788D02*
X0132716Y0103377D01*
X0130865Y0103377D02*
X0130865Y0099209D01*
X0130865Y0103377D01*
X0130865Y0102082D02*
X0130865Y0102082D01*
X0130865Y0099209D02*
X0130865Y0099209D01*
X0132716Y0099208D02*
X0132716Y0099208D01*
X0130865Y0097082D02*
X0130865Y0097082D01*
X0132716Y0095040D02*
X0132716Y0093545D01*
X0134572Y0092082D02*
X0135216Y0092082D01*
X0135216Y0097082D02*
X0135034Y0097082D01*
X0134851Y0102082D02*
X0135216Y0102082D01*
X0135216Y0107082D02*
X0127966Y0107082D01*
X0130865Y0112082D02*
X0130865Y0112082D01*
X0127716Y0094698D02*
X0127716Y0093545D01*
X0125859Y0092082D02*
X0119039Y0092082D01*
X0122716Y0094440D02*
X0122716Y0065335D01*
X0127716Y0065335D02*
X0127716Y0067057D01*
X0132716Y0067057D02*
X0132716Y0065068D01*
X0132778Y0067082D02*
X0135216Y0067082D01*
X0135216Y0062082D02*
X0134315Y0062082D01*
X0134315Y0057082D02*
X0135216Y0057082D01*
X0123754Y0047082D02*
X0121480Y0047082D01*
X0117716Y0043633D02*
X0117716Y0037982D01*
X0112716Y0037982D02*
X0112716Y0043633D01*
X0107716Y0045882D02*
X0107716Y0038982D01*
X0103579Y0037082D02*
X0076891Y0037082D01*
X0077078Y0036895D02*
X0077078Y0036895D01*
X0067716Y0026932D02*
X0067716Y0019882D01*
X0053090Y0023933D02*
X0053090Y0023933D01*
X0053090Y0023933D01*
X0048921Y0023933D01*
X0048921Y0026191D01*
X0048987Y0026438D01*
X0048748Y0026677D01*
X0048642Y0026932D01*
X0041790Y0026932D01*
X0041684Y0026677D01*
X0041444Y0026438D01*
X0041510Y0026191D01*
X0041510Y0023933D01*
X0037342Y0023933D01*
X0037342Y0023933D01*
X0041510Y0023933D01*
X0041510Y0021675D01*
X0041360Y0021115D01*
X0041071Y0020613D01*
X0040661Y0020204D01*
X0040159Y0019914D01*
X0040041Y0019882D01*
X0050391Y0019882D01*
X0050272Y0019914D01*
X0049771Y0020204D01*
X0049361Y0020613D01*
X0049071Y0021115D01*
X0048921Y0021675D01*
X0048921Y0023933D01*
X0053090Y0023933D01*
X0052716Y0023933D02*
X0052716Y0023933D01*
X0048921Y0022082D02*
X0041510Y0022082D01*
X0042716Y0019882D02*
X0042716Y0026932D01*
X0047716Y0026932D02*
X0047716Y0019882D01*
X0037716Y0023933D02*
X0037716Y0023933D01*
X0037342Y0023933D02*
X0033173Y0023933D01*
X0037342Y0023933D01*
X0037342Y0023933D01*
X0033173Y0023933D02*
X0033173Y0021675D01*
X0033323Y0021115D01*
X0033613Y0020613D01*
X0034022Y0020204D01*
X0034524Y0019914D01*
X0034643Y0019882D01*
X0015516Y0019882D01*
X0015516Y0024429D01*
X0018062Y0021882D01*
X0020216Y0021882D01*
X0022370Y0021882D01*
X0025416Y0024928D01*
X0025416Y0027082D01*
X0020216Y0027082D01*
X0020216Y0021882D01*
X0020216Y0027082D01*
X0020216Y0027082D01*
X0020216Y0027082D01*
X0032832Y0027082D01*
X0032716Y0027362D02*
X0032716Y0019882D01*
X0033173Y0022082D02*
X0022570Y0022082D01*
X0022716Y0022228D02*
X0022716Y0019882D01*
X0020216Y0022082D02*
X0020216Y0022082D01*
X0017862Y0022082D02*
X0015516Y0022082D01*
X0017716Y0022228D02*
X0017716Y0019882D01*
X0027716Y0019882D02*
X0027716Y0036294D01*
X0027204Y0035782D02*
X0030016Y0038594D01*
X0030016Y0040582D01*
X0025216Y0040582D01*
X0025216Y0035782D01*
X0027204Y0035782D01*
X0028504Y0037082D02*
X0049116Y0037082D01*
X0049116Y0036575D02*
X0049116Y0038239D01*
X0042247Y0038239D01*
X0041218Y0038665D01*
X0040431Y0039453D01*
X0040004Y0040482D01*
X0040004Y0041382D01*
X0030016Y0041382D01*
X0030016Y0040582D01*
X0025216Y0040582D01*
X0025216Y0040582D01*
X0025216Y0040582D01*
X0025216Y0035782D01*
X0023228Y0035782D01*
X0020416Y0038594D01*
X0020416Y0040582D01*
X0025216Y0040582D01*
X0025216Y0040582D01*
X0020416Y0040582D01*
X0020416Y0042571D01*
X0022003Y0044158D01*
X0020979Y0045182D01*
X0015516Y0045182D01*
X0015516Y0029736D01*
X0018062Y0032282D01*
X0020216Y0032282D01*
X0020216Y0027083D01*
X0020216Y0027083D01*
X0020216Y0032282D01*
X0022370Y0032282D01*
X0025416Y0029236D01*
X0025416Y0027082D01*
X0020216Y0027082D01*
X0022716Y0027082D02*
X0022716Y0027082D01*
X0022716Y0031936D02*
X0022716Y0036294D01*
X0021928Y0037082D02*
X0015516Y0037082D01*
X0015516Y0042082D02*
X0020416Y0042082D01*
X0022716Y0040582D02*
X0022716Y0040582D01*
X0025216Y0037082D02*
X0025216Y0037082D01*
X0027716Y0040582D02*
X0027716Y0040582D01*
X0032716Y0041382D02*
X0032716Y0033102D01*
X0032573Y0032757D02*
X0033000Y0033787D01*
X0033787Y0034574D01*
X0034816Y0035000D01*
X0039346Y0035000D01*
X0039496Y0035361D01*
X0040283Y0036149D01*
X0041312Y0036575D01*
X0049116Y0036575D01*
X0047716Y0036575D02*
X0047716Y0038239D01*
X0042716Y0038239D02*
X0042716Y0036575D01*
X0037716Y0035000D02*
X0037716Y0041382D01*
X0032573Y0032757D02*
X0032573Y0027707D01*
X0033000Y0026677D01*
X0033239Y0026438D01*
X0033173Y0026191D01*
X0033173Y0023933D01*
X0032573Y0032082D02*
X0022570Y0032082D01*
X0020216Y0032082D02*
X0020216Y0032082D01*
X0017862Y0032082D02*
X0015516Y0032082D01*
X0017716Y0031936D02*
X0017716Y0045182D01*
X0043316Y0057082D02*
X0044475Y0057082D01*
X0042716Y0058897D02*
X0042716Y0061646D01*
X0042897Y0062082D02*
X0049475Y0062082D01*
X0047716Y0060324D02*
X0047716Y0073407D01*
X0049040Y0072082D02*
X0043316Y0072082D01*
X0042716Y0069520D02*
X0042716Y0066771D01*
X0042587Y0067082D02*
X0054475Y0067082D01*
X0052716Y0068046D02*
X0052716Y0065324D01*
X0057716Y0070324D02*
X0057716Y0100483D01*
X0069878Y0102082D02*
X0069905Y0102082D01*
X0093825Y0087082D02*
X0043316Y0087082D01*
X0037716Y0093430D02*
X0037716Y0132393D01*
X0072716Y0132393D02*
X0072716Y0123544D01*
X0034048Y0092082D02*
X0034016Y0092082D01*
X0042716Y0077394D02*
X0042716Y0074645D01*
X0042587Y0077082D02*
X0044040Y0077082D01*
X0057666Y0072082D02*
X0059475Y0072082D01*
X0096866Y0077082D02*
X0125859Y0077082D01*
X0117716Y0088266D02*
X0117716Y0065068D01*
X0096964Y0047443D02*
X0096964Y0047443D01*
X0102716Y0045882D02*
X0102716Y0035622D01*
X0112716Y0029182D02*
X0112716Y0019882D01*
X0122716Y0024582D02*
X0122716Y0024582D01*
D29*
X0068966Y0055332D03*
X0063116Y0058482D03*
X0072116Y0067932D03*
X0068516Y0071532D03*
X0053666Y0071982D03*
X0086966Y0061632D03*
X0106766Y0061632D03*
X0108116Y0090882D03*
X0117566Y0119232D03*
D30*
X0120266Y0119232D01*
X0124316Y0115182D01*
X0124566Y0114956D01*
X0124766Y0114732D01*
X0124766Y0099432D01*
X0124566Y0099208D01*
X0124316Y0098982D01*
X0119366Y0098982D01*
X0113516Y0093132D01*
X0113287Y0093244D01*
X0113066Y0093132D01*
X0110816Y0090882D01*
X0108116Y0090882D01*
X0072116Y0067932D02*
X0072116Y0037332D01*
X0075266Y0034182D01*
X0075266Y0030132D01*
X0062666Y0030132D01*
X0062342Y0030232D01*
X0053090Y0030232D02*
X0052316Y0030132D01*
X0052316Y0051732D01*
X0068516Y0067932D01*
X0068516Y0071532D01*
X0053666Y0071982D02*
X0037916Y0087732D01*
X0037716Y0087830D01*
X0046016Y0105282D02*
X0045566Y0105732D01*
X0045216Y0105842D01*
X0046016Y0105282D02*
X0059066Y0105282D01*
X0059173Y0105252D01*
X0045216Y0113323D02*
X0045116Y0113382D01*
X0045116Y0129582D01*
X0044842Y0129582D01*
X0106766Y0061632D02*
X0119366Y0061632D01*
X0121166Y0059832D01*
X0121476Y0059582D01*
X0128956Y0059582D02*
X0129266Y0059382D01*
X0129266Y0049482D01*
X0129507Y0049386D01*
X0078090Y0030232D02*
X0077966Y0030132D01*
X0075266Y0030132D01*
X0053090Y0030232D02*
X0052766Y0030132D01*
X0052316Y0030132D01*
X0037466Y0030132D01*
X0037342Y0030232D01*
X0063116Y0058482D02*
X0066266Y0055332D01*
X0068966Y0055332D01*
M02*
