G75*
%MOIN*%
%OFA0B0*%
%FSLAX25Y25*%
%IPPOS*%
%LPD*%
%AMOC8*
5,1,8,0,0,1.08239X$1,22.5*
%
%ADD10C,0.00000*%
%ADD11C,0.00300*%
%ADD12C,0.00400*%
%ADD13C,0.00984*%
%ADD14R,0.00787X0.00787*%
%ADD15C,0.00500*%
%ADD16C,0.00200*%
D10*
X0012716Y0017082D02*
X0012716Y0135193D01*
X0208513Y0135193D01*
X0208513Y0017082D01*
X0139537Y0017082D01*
X0085157Y0024956D02*
X0085159Y0025114D01*
X0085165Y0025272D01*
X0085175Y0025430D01*
X0085189Y0025588D01*
X0085207Y0025745D01*
X0085228Y0025902D01*
X0085254Y0026058D01*
X0085284Y0026214D01*
X0085317Y0026369D01*
X0085355Y0026522D01*
X0085396Y0026675D01*
X0085441Y0026827D01*
X0085490Y0026978D01*
X0085543Y0027127D01*
X0085599Y0027275D01*
X0085659Y0027421D01*
X0085723Y0027566D01*
X0085791Y0027709D01*
X0085862Y0027851D01*
X0085936Y0027991D01*
X0086014Y0028128D01*
X0086096Y0028264D01*
X0086180Y0028398D01*
X0086269Y0028529D01*
X0086360Y0028658D01*
X0086455Y0028785D01*
X0086552Y0028910D01*
X0086653Y0029032D01*
X0086757Y0029151D01*
X0086864Y0029268D01*
X0086974Y0029382D01*
X0087087Y0029493D01*
X0087202Y0029602D01*
X0087320Y0029707D01*
X0087441Y0029809D01*
X0087564Y0029909D01*
X0087690Y0030005D01*
X0087818Y0030098D01*
X0087948Y0030188D01*
X0088081Y0030274D01*
X0088216Y0030358D01*
X0088352Y0030437D01*
X0088491Y0030514D01*
X0088632Y0030586D01*
X0088774Y0030656D01*
X0088918Y0030721D01*
X0089064Y0030783D01*
X0089211Y0030841D01*
X0089360Y0030896D01*
X0089510Y0030947D01*
X0089661Y0030994D01*
X0089813Y0031037D01*
X0089966Y0031076D01*
X0090121Y0031112D01*
X0090276Y0031143D01*
X0090432Y0031171D01*
X0090588Y0031195D01*
X0090745Y0031215D01*
X0090903Y0031231D01*
X0091060Y0031243D01*
X0091219Y0031251D01*
X0091377Y0031255D01*
X0091535Y0031255D01*
X0091693Y0031251D01*
X0091852Y0031243D01*
X0092009Y0031231D01*
X0092167Y0031215D01*
X0092324Y0031195D01*
X0092480Y0031171D01*
X0092636Y0031143D01*
X0092791Y0031112D01*
X0092946Y0031076D01*
X0093099Y0031037D01*
X0093251Y0030994D01*
X0093402Y0030947D01*
X0093552Y0030896D01*
X0093701Y0030841D01*
X0093848Y0030783D01*
X0093994Y0030721D01*
X0094138Y0030656D01*
X0094280Y0030586D01*
X0094421Y0030514D01*
X0094560Y0030437D01*
X0094696Y0030358D01*
X0094831Y0030274D01*
X0094964Y0030188D01*
X0095094Y0030098D01*
X0095222Y0030005D01*
X0095348Y0029909D01*
X0095471Y0029809D01*
X0095592Y0029707D01*
X0095710Y0029602D01*
X0095825Y0029493D01*
X0095938Y0029382D01*
X0096048Y0029268D01*
X0096155Y0029151D01*
X0096259Y0029032D01*
X0096360Y0028910D01*
X0096457Y0028785D01*
X0096552Y0028658D01*
X0096643Y0028529D01*
X0096732Y0028398D01*
X0096816Y0028264D01*
X0096898Y0028128D01*
X0096976Y0027991D01*
X0097050Y0027851D01*
X0097121Y0027709D01*
X0097189Y0027566D01*
X0097253Y0027421D01*
X0097313Y0027275D01*
X0097369Y0027127D01*
X0097422Y0026978D01*
X0097471Y0026827D01*
X0097516Y0026675D01*
X0097557Y0026522D01*
X0097595Y0026369D01*
X0097628Y0026214D01*
X0097658Y0026058D01*
X0097684Y0025902D01*
X0097705Y0025745D01*
X0097723Y0025588D01*
X0097737Y0025430D01*
X0097747Y0025272D01*
X0097753Y0025114D01*
X0097755Y0024956D01*
X0097753Y0024798D01*
X0097747Y0024640D01*
X0097737Y0024482D01*
X0097723Y0024324D01*
X0097705Y0024167D01*
X0097684Y0024010D01*
X0097658Y0023854D01*
X0097628Y0023698D01*
X0097595Y0023543D01*
X0097557Y0023390D01*
X0097516Y0023237D01*
X0097471Y0023085D01*
X0097422Y0022934D01*
X0097369Y0022785D01*
X0097313Y0022637D01*
X0097253Y0022491D01*
X0097189Y0022346D01*
X0097121Y0022203D01*
X0097050Y0022061D01*
X0096976Y0021921D01*
X0096898Y0021784D01*
X0096816Y0021648D01*
X0096732Y0021514D01*
X0096643Y0021383D01*
X0096552Y0021254D01*
X0096457Y0021127D01*
X0096360Y0021002D01*
X0096259Y0020880D01*
X0096155Y0020761D01*
X0096048Y0020644D01*
X0095938Y0020530D01*
X0095825Y0020419D01*
X0095710Y0020310D01*
X0095592Y0020205D01*
X0095471Y0020103D01*
X0095348Y0020003D01*
X0095222Y0019907D01*
X0095094Y0019814D01*
X0094964Y0019724D01*
X0094831Y0019638D01*
X0094696Y0019554D01*
X0094560Y0019475D01*
X0094421Y0019398D01*
X0094280Y0019326D01*
X0094138Y0019256D01*
X0093994Y0019191D01*
X0093848Y0019129D01*
X0093701Y0019071D01*
X0093552Y0019016D01*
X0093402Y0018965D01*
X0093251Y0018918D01*
X0093099Y0018875D01*
X0092946Y0018836D01*
X0092791Y0018800D01*
X0092636Y0018769D01*
X0092480Y0018741D01*
X0092324Y0018717D01*
X0092167Y0018697D01*
X0092009Y0018681D01*
X0091852Y0018669D01*
X0091693Y0018661D01*
X0091535Y0018657D01*
X0091377Y0018657D01*
X0091219Y0018661D01*
X0091060Y0018669D01*
X0090903Y0018681D01*
X0090745Y0018697D01*
X0090588Y0018717D01*
X0090432Y0018741D01*
X0090276Y0018769D01*
X0090121Y0018800D01*
X0089966Y0018836D01*
X0089813Y0018875D01*
X0089661Y0018918D01*
X0089510Y0018965D01*
X0089360Y0019016D01*
X0089211Y0019071D01*
X0089064Y0019129D01*
X0088918Y0019191D01*
X0088774Y0019256D01*
X0088632Y0019326D01*
X0088491Y0019398D01*
X0088352Y0019475D01*
X0088216Y0019554D01*
X0088081Y0019638D01*
X0087948Y0019724D01*
X0087818Y0019814D01*
X0087690Y0019907D01*
X0087564Y0020003D01*
X0087441Y0020103D01*
X0087320Y0020205D01*
X0087202Y0020310D01*
X0087087Y0020419D01*
X0086974Y0020530D01*
X0086864Y0020644D01*
X0086757Y0020761D01*
X0086653Y0020880D01*
X0086552Y0021002D01*
X0086455Y0021127D01*
X0086360Y0021254D01*
X0086269Y0021383D01*
X0086180Y0021514D01*
X0086096Y0021648D01*
X0086014Y0021784D01*
X0085936Y0021921D01*
X0085862Y0022061D01*
X0085791Y0022203D01*
X0085723Y0022346D01*
X0085659Y0022491D01*
X0085599Y0022637D01*
X0085543Y0022785D01*
X0085490Y0022934D01*
X0085441Y0023085D01*
X0085396Y0023237D01*
X0085355Y0023390D01*
X0085317Y0023543D01*
X0085284Y0023698D01*
X0085254Y0023854D01*
X0085228Y0024010D01*
X0085207Y0024167D01*
X0085189Y0024324D01*
X0085175Y0024482D01*
X0085165Y0024640D01*
X0085159Y0024798D01*
X0085157Y0024956D01*
X0012716Y0017082D02*
X0208513Y0017082D01*
X0085157Y0127319D02*
X0085159Y0127477D01*
X0085165Y0127635D01*
X0085175Y0127793D01*
X0085189Y0127951D01*
X0085207Y0128108D01*
X0085228Y0128265D01*
X0085254Y0128421D01*
X0085284Y0128577D01*
X0085317Y0128732D01*
X0085355Y0128885D01*
X0085396Y0129038D01*
X0085441Y0129190D01*
X0085490Y0129341D01*
X0085543Y0129490D01*
X0085599Y0129638D01*
X0085659Y0129784D01*
X0085723Y0129929D01*
X0085791Y0130072D01*
X0085862Y0130214D01*
X0085936Y0130354D01*
X0086014Y0130491D01*
X0086096Y0130627D01*
X0086180Y0130761D01*
X0086269Y0130892D01*
X0086360Y0131021D01*
X0086455Y0131148D01*
X0086552Y0131273D01*
X0086653Y0131395D01*
X0086757Y0131514D01*
X0086864Y0131631D01*
X0086974Y0131745D01*
X0087087Y0131856D01*
X0087202Y0131965D01*
X0087320Y0132070D01*
X0087441Y0132172D01*
X0087564Y0132272D01*
X0087690Y0132368D01*
X0087818Y0132461D01*
X0087948Y0132551D01*
X0088081Y0132637D01*
X0088216Y0132721D01*
X0088352Y0132800D01*
X0088491Y0132877D01*
X0088632Y0132949D01*
X0088774Y0133019D01*
X0088918Y0133084D01*
X0089064Y0133146D01*
X0089211Y0133204D01*
X0089360Y0133259D01*
X0089510Y0133310D01*
X0089661Y0133357D01*
X0089813Y0133400D01*
X0089966Y0133439D01*
X0090121Y0133475D01*
X0090276Y0133506D01*
X0090432Y0133534D01*
X0090588Y0133558D01*
X0090745Y0133578D01*
X0090903Y0133594D01*
X0091060Y0133606D01*
X0091219Y0133614D01*
X0091377Y0133618D01*
X0091535Y0133618D01*
X0091693Y0133614D01*
X0091852Y0133606D01*
X0092009Y0133594D01*
X0092167Y0133578D01*
X0092324Y0133558D01*
X0092480Y0133534D01*
X0092636Y0133506D01*
X0092791Y0133475D01*
X0092946Y0133439D01*
X0093099Y0133400D01*
X0093251Y0133357D01*
X0093402Y0133310D01*
X0093552Y0133259D01*
X0093701Y0133204D01*
X0093848Y0133146D01*
X0093994Y0133084D01*
X0094138Y0133019D01*
X0094280Y0132949D01*
X0094421Y0132877D01*
X0094560Y0132800D01*
X0094696Y0132721D01*
X0094831Y0132637D01*
X0094964Y0132551D01*
X0095094Y0132461D01*
X0095222Y0132368D01*
X0095348Y0132272D01*
X0095471Y0132172D01*
X0095592Y0132070D01*
X0095710Y0131965D01*
X0095825Y0131856D01*
X0095938Y0131745D01*
X0096048Y0131631D01*
X0096155Y0131514D01*
X0096259Y0131395D01*
X0096360Y0131273D01*
X0096457Y0131148D01*
X0096552Y0131021D01*
X0096643Y0130892D01*
X0096732Y0130761D01*
X0096816Y0130627D01*
X0096898Y0130491D01*
X0096976Y0130354D01*
X0097050Y0130214D01*
X0097121Y0130072D01*
X0097189Y0129929D01*
X0097253Y0129784D01*
X0097313Y0129638D01*
X0097369Y0129490D01*
X0097422Y0129341D01*
X0097471Y0129190D01*
X0097516Y0129038D01*
X0097557Y0128885D01*
X0097595Y0128732D01*
X0097628Y0128577D01*
X0097658Y0128421D01*
X0097684Y0128265D01*
X0097705Y0128108D01*
X0097723Y0127951D01*
X0097737Y0127793D01*
X0097747Y0127635D01*
X0097753Y0127477D01*
X0097755Y0127319D01*
X0097753Y0127161D01*
X0097747Y0127003D01*
X0097737Y0126845D01*
X0097723Y0126687D01*
X0097705Y0126530D01*
X0097684Y0126373D01*
X0097658Y0126217D01*
X0097628Y0126061D01*
X0097595Y0125906D01*
X0097557Y0125753D01*
X0097516Y0125600D01*
X0097471Y0125448D01*
X0097422Y0125297D01*
X0097369Y0125148D01*
X0097313Y0125000D01*
X0097253Y0124854D01*
X0097189Y0124709D01*
X0097121Y0124566D01*
X0097050Y0124424D01*
X0096976Y0124284D01*
X0096898Y0124147D01*
X0096816Y0124011D01*
X0096732Y0123877D01*
X0096643Y0123746D01*
X0096552Y0123617D01*
X0096457Y0123490D01*
X0096360Y0123365D01*
X0096259Y0123243D01*
X0096155Y0123124D01*
X0096048Y0123007D01*
X0095938Y0122893D01*
X0095825Y0122782D01*
X0095710Y0122673D01*
X0095592Y0122568D01*
X0095471Y0122466D01*
X0095348Y0122366D01*
X0095222Y0122270D01*
X0095094Y0122177D01*
X0094964Y0122087D01*
X0094831Y0122001D01*
X0094696Y0121917D01*
X0094560Y0121838D01*
X0094421Y0121761D01*
X0094280Y0121689D01*
X0094138Y0121619D01*
X0093994Y0121554D01*
X0093848Y0121492D01*
X0093701Y0121434D01*
X0093552Y0121379D01*
X0093402Y0121328D01*
X0093251Y0121281D01*
X0093099Y0121238D01*
X0092946Y0121199D01*
X0092791Y0121163D01*
X0092636Y0121132D01*
X0092480Y0121104D01*
X0092324Y0121080D01*
X0092167Y0121060D01*
X0092009Y0121044D01*
X0091852Y0121032D01*
X0091693Y0121024D01*
X0091535Y0121020D01*
X0091377Y0121020D01*
X0091219Y0121024D01*
X0091060Y0121032D01*
X0090903Y0121044D01*
X0090745Y0121060D01*
X0090588Y0121080D01*
X0090432Y0121104D01*
X0090276Y0121132D01*
X0090121Y0121163D01*
X0089966Y0121199D01*
X0089813Y0121238D01*
X0089661Y0121281D01*
X0089510Y0121328D01*
X0089360Y0121379D01*
X0089211Y0121434D01*
X0089064Y0121492D01*
X0088918Y0121554D01*
X0088774Y0121619D01*
X0088632Y0121689D01*
X0088491Y0121761D01*
X0088352Y0121838D01*
X0088216Y0121917D01*
X0088081Y0122001D01*
X0087948Y0122087D01*
X0087818Y0122177D01*
X0087690Y0122270D01*
X0087564Y0122366D01*
X0087441Y0122466D01*
X0087320Y0122568D01*
X0087202Y0122673D01*
X0087087Y0122782D01*
X0086974Y0122893D01*
X0086864Y0123007D01*
X0086757Y0123124D01*
X0086653Y0123243D01*
X0086552Y0123365D01*
X0086455Y0123490D01*
X0086360Y0123617D01*
X0086269Y0123746D01*
X0086180Y0123877D01*
X0086096Y0124011D01*
X0086014Y0124147D01*
X0085936Y0124284D01*
X0085862Y0124424D01*
X0085791Y0124566D01*
X0085723Y0124709D01*
X0085659Y0124854D01*
X0085599Y0125000D01*
X0085543Y0125148D01*
X0085490Y0125297D01*
X0085441Y0125448D01*
X0085396Y0125600D01*
X0085355Y0125753D01*
X0085317Y0125906D01*
X0085284Y0126061D01*
X0085254Y0126217D01*
X0085228Y0126373D01*
X0085207Y0126530D01*
X0085189Y0126687D01*
X0085175Y0126845D01*
X0085165Y0127003D01*
X0085159Y0127161D01*
X0085157Y0127319D01*
D11*
X0055066Y0124651D02*
X0055066Y0122716D01*
X0054582Y0122232D01*
X0053615Y0122232D01*
X0053131Y0122716D01*
X0053131Y0124651D01*
X0053615Y0125135D01*
X0054582Y0125135D01*
X0055066Y0124651D01*
X0052119Y0125135D02*
X0052119Y0122716D01*
X0051636Y0122232D01*
X0050668Y0122232D01*
X0050184Y0122716D01*
X0050184Y0125135D01*
X0049173Y0125135D02*
X0047238Y0125135D01*
X0048205Y0125135D02*
X0048205Y0122232D01*
X0040066Y0130216D02*
X0039582Y0129732D01*
X0038615Y0129732D01*
X0038131Y0130216D01*
X0038131Y0132151D01*
X0038615Y0132635D01*
X0039582Y0132635D01*
X0040066Y0132151D01*
X0040066Y0130216D01*
X0037119Y0130216D02*
X0036636Y0129732D01*
X0035668Y0129732D01*
X0035184Y0130216D01*
X0035184Y0130700D01*
X0035668Y0131184D01*
X0036636Y0131184D01*
X0037119Y0131667D01*
X0037119Y0132151D01*
X0036636Y0132635D01*
X0035668Y0132635D01*
X0035184Y0132151D01*
X0034173Y0132151D02*
X0034173Y0130216D01*
X0033689Y0129732D01*
X0032722Y0129732D01*
X0032238Y0130216D01*
X0032238Y0132151D02*
X0032722Y0132635D01*
X0033689Y0132635D01*
X0034173Y0132151D01*
X0117238Y0087232D02*
X0119173Y0087232D01*
X0119173Y0090135D01*
X0120184Y0089651D02*
X0120668Y0090135D01*
X0121636Y0090135D01*
X0122119Y0089651D01*
X0122119Y0087716D01*
X0121636Y0087232D01*
X0120668Y0087232D01*
X0120184Y0087716D01*
X0123131Y0087716D02*
X0123615Y0087232D01*
X0124582Y0087232D01*
X0125066Y0087716D01*
X0124582Y0088684D02*
X0123615Y0088684D01*
X0123131Y0088200D01*
X0123131Y0087716D01*
X0124582Y0088684D02*
X0125066Y0089167D01*
X0125066Y0089651D01*
X0124582Y0090135D01*
X0123615Y0090135D01*
X0123131Y0089651D01*
X0123615Y0082635D02*
X0124582Y0082635D01*
X0125066Y0082151D01*
X0125066Y0081667D01*
X0124582Y0081184D01*
X0123615Y0081184D01*
X0123131Y0080700D01*
X0123131Y0080216D01*
X0123615Y0079732D01*
X0124582Y0079732D01*
X0125066Y0080216D01*
X0122119Y0079732D02*
X0120668Y0079732D01*
X0120184Y0080216D01*
X0120184Y0082151D01*
X0120668Y0082635D01*
X0122119Y0082635D01*
X0122119Y0079732D01*
X0123131Y0082151D02*
X0123615Y0082635D01*
X0119173Y0081667D02*
X0119173Y0079732D01*
X0119173Y0081184D02*
X0117238Y0081184D01*
X0117238Y0081667D02*
X0117238Y0079732D01*
X0117238Y0081667D02*
X0118205Y0082635D01*
X0119173Y0081667D01*
X0119187Y0072635D02*
X0119187Y0069732D01*
X0121167Y0069732D02*
X0121167Y0072635D01*
X0120155Y0072635D02*
X0118220Y0072635D01*
X0121167Y0069732D02*
X0123101Y0072635D01*
X0123101Y0069732D01*
X0124098Y0069732D02*
X0125066Y0069732D01*
X0124582Y0069732D02*
X0124582Y0072635D01*
X0125066Y0072635D02*
X0124098Y0072635D01*
X0164866Y0065166D02*
X0164866Y0063931D01*
X0165483Y0063314D01*
X0166717Y0063314D01*
X0166717Y0065166D01*
X0166100Y0065783D01*
X0165483Y0065783D01*
X0164866Y0065166D01*
X0166717Y0063314D02*
X0167952Y0064549D01*
X0168569Y0065783D01*
X0164866Y0062100D02*
X0164866Y0059631D01*
X0164866Y0060865D02*
X0168569Y0060865D01*
X0167335Y0059631D01*
X0167952Y0058417D02*
X0165483Y0058417D01*
X0164866Y0057799D01*
X0164866Y0056565D01*
X0165483Y0055948D01*
X0167952Y0058417D01*
X0168569Y0057799D01*
X0168569Y0056565D01*
X0167952Y0055948D01*
X0165483Y0055948D01*
X0164866Y0054734D02*
X0164866Y0052265D01*
X0167335Y0054734D01*
X0167952Y0054734D01*
X0168569Y0054116D01*
X0168569Y0052882D01*
X0167952Y0052265D01*
X0165483Y0051040D02*
X0164866Y0051040D01*
X0164866Y0050423D01*
X0165483Y0050423D01*
X0165483Y0051040D01*
X0165483Y0049209D02*
X0164866Y0048592D01*
X0164866Y0047357D01*
X0165483Y0046740D01*
X0167952Y0049209D01*
X0165483Y0049209D01*
X0167952Y0049209D02*
X0168569Y0048592D01*
X0168569Y0047357D01*
X0167952Y0046740D01*
X0165483Y0046740D01*
X0164866Y0045526D02*
X0164866Y0043057D01*
X0164866Y0044291D02*
X0168569Y0044291D01*
X0167335Y0043057D01*
X0167335Y0038156D02*
X0166100Y0036304D01*
X0164866Y0038156D01*
X0164866Y0036304D02*
X0168569Y0036304D01*
X0167335Y0034473D02*
X0166717Y0035090D01*
X0164866Y0035090D01*
X0164866Y0033238D01*
X0165483Y0032621D01*
X0166100Y0033238D01*
X0166100Y0035090D01*
X0167335Y0034473D02*
X0167335Y0033238D01*
X0167335Y0031404D02*
X0167335Y0030786D01*
X0166100Y0029552D01*
X0164866Y0029552D02*
X0167335Y0029552D01*
X0166717Y0028338D02*
X0165483Y0028338D01*
X0164866Y0027720D01*
X0164866Y0026486D01*
X0165483Y0025869D01*
X0166717Y0025869D01*
X0167335Y0026486D01*
X0167335Y0027720D01*
X0166717Y0028338D01*
X0166717Y0024655D02*
X0164866Y0024655D01*
X0166717Y0024655D02*
X0167335Y0024037D01*
X0167335Y0022186D01*
X0164866Y0022186D01*
X0164866Y0020971D02*
X0167335Y0020971D01*
X0168569Y0019737D01*
X0167335Y0018503D01*
X0164866Y0018503D01*
X0166717Y0018503D02*
X0166717Y0020971D01*
X0175631Y0024641D02*
X0179335Y0024641D01*
X0179335Y0026493D01*
X0178717Y0027110D01*
X0177483Y0027110D01*
X0176866Y0026493D01*
X0176866Y0024641D01*
X0176866Y0023420D02*
X0176866Y0022186D01*
X0176866Y0022803D02*
X0179335Y0022803D01*
X0179335Y0022186D01*
X0179952Y0020971D02*
X0177483Y0020971D01*
X0176866Y0020354D01*
X0176866Y0018503D01*
X0180569Y0018503D01*
X0180569Y0020354D01*
X0179952Y0020971D01*
X0180569Y0022803D02*
X0181186Y0022803D01*
X0182866Y0023427D02*
X0182866Y0021575D01*
X0183483Y0020958D01*
X0185335Y0020958D01*
X0184717Y0019737D02*
X0184717Y0018503D01*
X0185952Y0019120D02*
X0186569Y0019737D01*
X0185952Y0019120D02*
X0182866Y0019120D01*
X0186569Y0021575D02*
X0187186Y0021575D01*
X0187186Y0022810D02*
X0186569Y0022810D01*
X0185335Y0023427D02*
X0182866Y0023427D01*
X0182866Y0024641D02*
X0185335Y0024641D01*
X0185335Y0025876D02*
X0185335Y0026493D01*
X0185335Y0025876D02*
X0184100Y0024641D01*
X0188866Y0024655D02*
X0188866Y0022803D01*
X0189483Y0022186D01*
X0190717Y0022186D01*
X0191335Y0022803D01*
X0191335Y0024655D01*
X0190717Y0025869D02*
X0191335Y0026486D01*
X0191335Y0027720D01*
X0190717Y0028338D01*
X0188866Y0028338D01*
X0189483Y0029552D02*
X0188866Y0030169D01*
X0189483Y0030786D01*
X0188866Y0031404D01*
X0189483Y0032021D01*
X0191335Y0032021D01*
X0191335Y0033235D02*
X0191335Y0033852D01*
X0188866Y0033852D01*
X0188866Y0033235D02*
X0188866Y0034470D01*
X0188866Y0035691D02*
X0191335Y0035691D01*
X0191335Y0037542D01*
X0190717Y0038159D01*
X0188866Y0038159D01*
X0189483Y0039374D02*
X0188866Y0039991D01*
X0188866Y0041843D01*
X0188249Y0041843D02*
X0191335Y0041843D01*
X0191335Y0039991D01*
X0190717Y0039374D01*
X0189483Y0039374D01*
X0187631Y0040608D02*
X0187631Y0041225D01*
X0188249Y0041843D01*
X0189483Y0043057D02*
X0188866Y0043674D01*
X0188866Y0045526D01*
X0191335Y0045526D01*
X0191335Y0046740D02*
X0188866Y0046740D01*
X0191335Y0046740D02*
X0191335Y0048592D01*
X0190717Y0049209D01*
X0188866Y0049209D01*
X0189483Y0050423D02*
X0188866Y0051040D01*
X0188866Y0052892D01*
X0188249Y0052892D02*
X0191335Y0052892D01*
X0191335Y0051040D01*
X0190717Y0050423D01*
X0189483Y0050423D01*
X0187631Y0051658D02*
X0187631Y0052275D01*
X0188249Y0052892D01*
X0188866Y0054106D02*
X0188866Y0055958D01*
X0189483Y0056575D01*
X0190100Y0055958D01*
X0190100Y0054723D01*
X0190717Y0054106D01*
X0191335Y0054723D01*
X0191335Y0056575D01*
X0190717Y0057789D02*
X0189483Y0057789D01*
X0188866Y0058407D01*
X0188866Y0060258D01*
X0188249Y0060258D02*
X0191335Y0060258D01*
X0191335Y0058407D01*
X0190717Y0057789D01*
X0187631Y0059024D02*
X0187631Y0059641D01*
X0188249Y0060258D01*
X0189483Y0061473D02*
X0190717Y0061473D01*
X0191335Y0062090D01*
X0191335Y0063324D01*
X0190717Y0063941D01*
X0190100Y0063941D01*
X0190100Y0061473D01*
X0189483Y0061473D02*
X0188866Y0062090D01*
X0188866Y0063324D01*
X0188866Y0065156D02*
X0191335Y0065156D01*
X0191335Y0067007D01*
X0190717Y0067625D01*
X0188866Y0067625D01*
X0189483Y0068839D02*
X0190717Y0068839D01*
X0191335Y0069456D01*
X0191335Y0070690D01*
X0190717Y0071308D01*
X0190100Y0071308D01*
X0190100Y0068839D01*
X0189483Y0068839D02*
X0188866Y0069456D01*
X0188866Y0070690D01*
X0188866Y0072522D02*
X0191335Y0072522D01*
X0191335Y0073756D02*
X0191335Y0074374D01*
X0191335Y0073756D02*
X0190100Y0072522D01*
X0189483Y0075591D02*
X0190100Y0076209D01*
X0190100Y0078060D01*
X0190717Y0078060D02*
X0188866Y0078060D01*
X0188866Y0076209D01*
X0189483Y0075591D01*
X0191335Y0076209D02*
X0191335Y0077443D01*
X0190717Y0078060D01*
X0191335Y0079274D02*
X0191335Y0080509D01*
X0191952Y0079892D02*
X0189483Y0079892D01*
X0188866Y0080509D01*
X0189483Y0081730D02*
X0188866Y0082347D01*
X0188866Y0083581D01*
X0189483Y0084199D01*
X0190717Y0084199D01*
X0191335Y0083581D01*
X0191335Y0082347D01*
X0190717Y0081730D01*
X0189483Y0081730D01*
X0188866Y0085413D02*
X0191335Y0085413D01*
X0191335Y0086647D02*
X0190100Y0085413D01*
X0191335Y0086647D02*
X0191335Y0087265D01*
X0184717Y0066397D02*
X0182866Y0066397D01*
X0184717Y0066397D02*
X0185335Y0065780D01*
X0185335Y0063928D01*
X0182866Y0063928D01*
X0184100Y0062714D02*
X0184100Y0060245D01*
X0183483Y0060245D02*
X0184717Y0060245D01*
X0185335Y0060862D01*
X0185335Y0062096D01*
X0184717Y0062714D01*
X0184100Y0062714D01*
X0182866Y0062096D02*
X0182866Y0060862D01*
X0183483Y0060245D01*
X0185335Y0059030D02*
X0182866Y0057796D01*
X0185335Y0056562D01*
X0185335Y0054723D02*
X0182866Y0054723D01*
X0182866Y0054106D02*
X0182866Y0055341D01*
X0185335Y0054723D02*
X0185335Y0054106D01*
X0185335Y0052885D02*
X0185335Y0051651D01*
X0185952Y0052268D02*
X0183483Y0052268D01*
X0182866Y0052885D01*
X0179335Y0053496D02*
X0178717Y0052879D01*
X0177483Y0052879D01*
X0176866Y0053496D01*
X0176866Y0054730D01*
X0177483Y0055347D01*
X0178717Y0055347D01*
X0179335Y0054730D01*
X0179335Y0053496D01*
X0179335Y0051664D02*
X0179335Y0049813D01*
X0178717Y0049195D01*
X0178100Y0049813D01*
X0178100Y0051047D01*
X0177483Y0051664D01*
X0176866Y0051047D01*
X0176866Y0049195D01*
X0176866Y0047981D02*
X0178717Y0047981D01*
X0179335Y0047364D01*
X0179335Y0045512D01*
X0176866Y0045512D01*
X0178100Y0044298D02*
X0178100Y0041829D01*
X0177483Y0041829D02*
X0178717Y0041829D01*
X0179335Y0042446D01*
X0179335Y0043681D01*
X0178717Y0044298D01*
X0178100Y0044298D01*
X0176866Y0043681D02*
X0176866Y0042446D01*
X0177483Y0041829D01*
X0177483Y0040615D02*
X0176866Y0039998D01*
X0176866Y0038763D01*
X0177483Y0038146D01*
X0178717Y0038763D02*
X0178717Y0039998D01*
X0178100Y0040615D01*
X0177483Y0040615D01*
X0178717Y0038763D02*
X0179335Y0038146D01*
X0179952Y0038146D01*
X0180569Y0038763D01*
X0180569Y0039998D01*
X0179952Y0040615D01*
X0182866Y0039998D02*
X0182866Y0038146D01*
X0182866Y0036932D02*
X0182866Y0035080D01*
X0183483Y0034463D01*
X0184100Y0035080D01*
X0184100Y0036932D01*
X0184717Y0036932D02*
X0182866Y0036932D01*
X0181631Y0038146D02*
X0185335Y0038146D01*
X0185335Y0039998D01*
X0184717Y0040615D01*
X0183483Y0040615D01*
X0182866Y0039998D01*
X0183483Y0041829D02*
X0184100Y0042446D01*
X0184100Y0044298D01*
X0184717Y0044298D02*
X0182866Y0044298D01*
X0182866Y0042446D01*
X0183483Y0041829D01*
X0185335Y0042446D02*
X0185335Y0043681D01*
X0184717Y0044298D01*
X0185335Y0045512D02*
X0185335Y0047981D01*
X0182866Y0045512D01*
X0182866Y0047981D01*
X0182866Y0049195D02*
X0182866Y0050430D01*
X0182866Y0049813D02*
X0185335Y0049813D01*
X0185335Y0049195D01*
X0186569Y0049813D02*
X0187186Y0049813D01*
X0187186Y0054723D02*
X0186569Y0054723D01*
X0179335Y0056562D02*
X0176866Y0056562D01*
X0178100Y0056562D02*
X0179335Y0057796D01*
X0179335Y0058413D01*
X0189483Y0043057D02*
X0191335Y0043057D01*
X0184717Y0036932D02*
X0185335Y0036314D01*
X0185335Y0035080D01*
X0185335Y0033245D02*
X0184100Y0031394D01*
X0182866Y0033245D01*
X0180569Y0032625D02*
X0176866Y0032625D01*
X0176866Y0033242D02*
X0176866Y0032007D01*
X0177483Y0030793D02*
X0176866Y0030176D01*
X0176866Y0028941D01*
X0177483Y0028324D01*
X0178717Y0028324D01*
X0179335Y0028941D01*
X0179335Y0030176D01*
X0178717Y0030793D01*
X0177483Y0030793D01*
X0180569Y0032007D02*
X0180569Y0032625D01*
X0182866Y0031394D02*
X0186569Y0031394D01*
X0189483Y0029552D02*
X0191335Y0029552D01*
X0192569Y0025869D02*
X0188866Y0025869D01*
X0189483Y0020971D02*
X0188866Y0020354D01*
X0188866Y0019120D01*
X0189483Y0018503D01*
X0190717Y0019120D02*
X0190717Y0020354D01*
X0190100Y0020971D01*
X0189483Y0020971D01*
X0190717Y0019120D02*
X0191335Y0018503D01*
X0191952Y0018503D01*
X0192569Y0019120D01*
X0192569Y0020354D01*
X0191952Y0020971D01*
X0192569Y0033852D02*
X0193186Y0033852D01*
X0178717Y0034463D02*
X0178717Y0036932D01*
X0129582Y0122232D02*
X0130066Y0122716D01*
X0129582Y0122232D02*
X0128615Y0122232D01*
X0128131Y0122716D01*
X0128131Y0123200D01*
X0128615Y0123684D01*
X0129582Y0123684D01*
X0130066Y0124167D01*
X0130066Y0124651D01*
X0129582Y0125135D01*
X0128615Y0125135D01*
X0128131Y0124651D01*
X0127119Y0125135D02*
X0127119Y0122232D01*
X0125184Y0122232D01*
X0124173Y0122232D02*
X0124173Y0125135D01*
X0122722Y0125135D01*
X0122238Y0124651D01*
X0122238Y0123684D01*
X0122722Y0123200D01*
X0124173Y0123200D01*
X0123205Y0123200D02*
X0122238Y0122232D01*
X0125184Y0125135D02*
X0127119Y0125135D01*
X0127119Y0123684D02*
X0126152Y0123684D01*
X0033816Y0057151D02*
X0033332Y0057635D01*
X0032365Y0057635D01*
X0031881Y0057151D01*
X0030869Y0057151D02*
X0030869Y0056667D01*
X0030386Y0056184D01*
X0029418Y0056184D01*
X0028934Y0055700D01*
X0028934Y0055216D01*
X0029418Y0054732D01*
X0030386Y0054732D01*
X0030869Y0055216D01*
X0031881Y0055216D02*
X0032365Y0054732D01*
X0033332Y0054732D01*
X0033816Y0055216D01*
X0033816Y0057151D01*
X0030869Y0057151D02*
X0030386Y0057635D01*
X0029418Y0057635D01*
X0028934Y0057151D01*
D12*
X0048593Y0053619D02*
X0048593Y0052852D01*
X0049360Y0052084D01*
X0048593Y0051317D01*
X0048593Y0050550D01*
X0049360Y0049782D01*
X0050895Y0049782D01*
X0051662Y0050550D01*
X0053197Y0050550D02*
X0053964Y0049782D01*
X0055499Y0049782D01*
X0056266Y0050550D01*
X0056266Y0053619D01*
X0055499Y0054386D01*
X0053964Y0054386D01*
X0053197Y0053619D01*
X0051662Y0053619D02*
X0050895Y0054386D01*
X0049360Y0054386D01*
X0048593Y0053619D01*
X0049360Y0052084D02*
X0050127Y0052084D01*
X0048852Y0039386D02*
X0049620Y0038619D01*
X0049620Y0037852D01*
X0048852Y0037084D01*
X0047318Y0037084D01*
X0046550Y0036317D01*
X0046550Y0035550D01*
X0047318Y0034782D01*
X0048852Y0034782D01*
X0049620Y0035550D01*
X0045016Y0034782D02*
X0041947Y0034782D01*
X0043481Y0034782D02*
X0043481Y0039386D01*
X0045016Y0037852D01*
X0046550Y0038619D02*
X0047318Y0039386D01*
X0048852Y0039386D01*
X0066947Y0038619D02*
X0066947Y0037852D01*
X0070016Y0034782D01*
X0066947Y0034782D01*
X0071550Y0035550D02*
X0072318Y0034782D01*
X0073852Y0034782D01*
X0074620Y0035550D01*
X0072318Y0037084D02*
X0071550Y0036317D01*
X0071550Y0035550D01*
X0072318Y0037084D02*
X0073852Y0037084D01*
X0074620Y0037852D01*
X0074620Y0038619D01*
X0073852Y0039386D01*
X0072318Y0039386D01*
X0071550Y0038619D01*
X0070016Y0038619D02*
X0069249Y0039386D01*
X0067714Y0039386D01*
X0066947Y0038619D01*
X0116046Y0054290D02*
X0116046Y0057359D01*
X0116813Y0058126D01*
X0118348Y0058126D01*
X0119115Y0057359D01*
X0119115Y0054290D01*
X0118348Y0053523D01*
X0116813Y0053523D01*
X0116046Y0054290D01*
X0120650Y0058126D02*
X0123719Y0058126D01*
X0123719Y0053523D01*
X0124050Y0053619D02*
X0124818Y0054386D01*
X0126352Y0054386D01*
X0127120Y0053619D01*
X0128323Y0053523D02*
X0128323Y0058126D01*
X0125254Y0053523D01*
X0125254Y0058126D01*
X0123719Y0055825D02*
X0122184Y0055825D01*
X0124050Y0053619D02*
X0124050Y0052852D01*
X0127120Y0049782D01*
X0124050Y0049782D01*
X0128654Y0049782D02*
X0130189Y0051317D01*
X0129422Y0051317D02*
X0131724Y0051317D01*
X0131724Y0049782D02*
X0131724Y0054386D01*
X0129422Y0054386D01*
X0128654Y0053619D01*
X0128654Y0052084D01*
X0129422Y0051317D01*
X0081890Y0081111D02*
X0080805Y0080026D01*
X0079720Y0080026D01*
X0077550Y0080026D02*
X0075380Y0077855D01*
X0077550Y0076770D02*
X0074294Y0080026D01*
X0077550Y0080026D01*
X0077550Y0082196D02*
X0077550Y0083281D01*
X0078635Y0084366D01*
X0079720Y0084366D01*
X0081890Y0082196D01*
X0081890Y0081111D01*
X0103487Y0090476D02*
X0108091Y0090476D01*
X0108091Y0092778D01*
X0107323Y0093545D01*
X0105789Y0093545D01*
X0105021Y0092778D01*
X0105021Y0090476D01*
X0105021Y0092011D02*
X0103487Y0093545D01*
X0103487Y0095080D02*
X0103487Y0098149D01*
X0103487Y0096615D02*
X0108091Y0096615D01*
X0106556Y0095080D01*
X0115416Y0107877D02*
X0120020Y0107877D01*
X0120020Y0110178D01*
X0119252Y0110946D01*
X0117718Y0110946D01*
X0116950Y0110178D01*
X0116950Y0107877D01*
X0116950Y0109411D02*
X0115416Y0110946D01*
X0116183Y0112480D02*
X0115416Y0113248D01*
X0115416Y0114782D01*
X0116183Y0115550D01*
X0116950Y0115550D01*
X0117718Y0114782D01*
X0117718Y0113248D01*
X0118485Y0112480D01*
X0119252Y0112480D01*
X0120020Y0113248D01*
X0120020Y0114782D01*
X0119252Y0115550D01*
X0120020Y0117084D02*
X0120020Y0120154D01*
X0120020Y0118619D02*
X0115416Y0118619D01*
X0085020Y0118025D02*
X0083485Y0116490D01*
X0085020Y0118025D02*
X0080416Y0118025D01*
X0080416Y0116490D02*
X0080416Y0119560D01*
X0080416Y0114956D02*
X0080416Y0111886D01*
X0080416Y0113421D02*
X0085020Y0113421D01*
X0083485Y0111886D01*
X0084252Y0110352D02*
X0085020Y0109584D01*
X0085020Y0108050D01*
X0084252Y0107282D01*
X0081183Y0107282D01*
X0080416Y0108050D01*
X0080416Y0109584D01*
X0081183Y0110352D01*
X0055020Y0109584D02*
X0055020Y0107282D01*
X0050416Y0107282D01*
X0051950Y0107282D02*
X0051950Y0109584D01*
X0052718Y0110352D01*
X0054252Y0110352D01*
X0055020Y0109584D01*
X0055020Y0111886D02*
X0052718Y0111886D01*
X0053485Y0113421D01*
X0053485Y0114188D01*
X0052718Y0114956D01*
X0051183Y0114956D01*
X0050416Y0114188D01*
X0050416Y0112654D01*
X0051183Y0111886D01*
X0050416Y0110352D02*
X0051950Y0108817D01*
X0055020Y0111886D02*
X0055020Y0114956D01*
D13*
X0125472Y0051452D03*
D14*
X0122617Y0049386D03*
D15*
X0066653Y0103283D02*
X0058779Y0103283D01*
X0058713Y0103285D01*
X0058647Y0103290D01*
X0058581Y0103300D01*
X0058516Y0103313D01*
X0058452Y0103329D01*
X0058389Y0103349D01*
X0058327Y0103373D01*
X0058267Y0103400D01*
X0058208Y0103430D01*
X0058151Y0103464D01*
X0058096Y0103501D01*
X0058043Y0103541D01*
X0057992Y0103583D01*
X0057944Y0103629D01*
X0057898Y0103677D01*
X0057856Y0103728D01*
X0057816Y0103781D01*
X0057779Y0103836D01*
X0057745Y0103893D01*
X0057715Y0103952D01*
X0057688Y0104012D01*
X0057664Y0104074D01*
X0057644Y0104137D01*
X0057628Y0104201D01*
X0057615Y0104266D01*
X0057605Y0104332D01*
X0057600Y0104398D01*
X0057598Y0104464D01*
X0057598Y0114701D01*
X0057600Y0114767D01*
X0057605Y0114833D01*
X0057615Y0114899D01*
X0057628Y0114964D01*
X0057644Y0115028D01*
X0057664Y0115091D01*
X0057688Y0115153D01*
X0057715Y0115213D01*
X0057745Y0115272D01*
X0057779Y0115329D01*
X0057816Y0115384D01*
X0057856Y0115437D01*
X0057898Y0115488D01*
X0057944Y0115536D01*
X0057992Y0115582D01*
X0058043Y0115624D01*
X0058096Y0115664D01*
X0058151Y0115701D01*
X0058208Y0115735D01*
X0058267Y0115765D01*
X0058327Y0115792D01*
X0058389Y0115816D01*
X0058452Y0115836D01*
X0058516Y0115852D01*
X0058581Y0115865D01*
X0058647Y0115875D01*
X0058713Y0115880D01*
X0058779Y0115882D01*
X0066653Y0115882D01*
X0066719Y0115880D01*
X0066785Y0115875D01*
X0066851Y0115865D01*
X0066916Y0115852D01*
X0066980Y0115836D01*
X0067043Y0115816D01*
X0067105Y0115792D01*
X0067165Y0115765D01*
X0067224Y0115735D01*
X0067281Y0115701D01*
X0067336Y0115664D01*
X0067389Y0115624D01*
X0067440Y0115582D01*
X0067488Y0115536D01*
X0067534Y0115488D01*
X0067576Y0115437D01*
X0067616Y0115384D01*
X0067653Y0115329D01*
X0067687Y0115272D01*
X0067717Y0115213D01*
X0067744Y0115153D01*
X0067768Y0115091D01*
X0067788Y0115028D01*
X0067804Y0114964D01*
X0067817Y0114899D01*
X0067827Y0114833D01*
X0067832Y0114767D01*
X0067834Y0114701D01*
X0067834Y0104464D01*
X0067832Y0104398D01*
X0067827Y0104332D01*
X0067817Y0104266D01*
X0067804Y0104201D01*
X0067788Y0104137D01*
X0067768Y0104074D01*
X0067744Y0104012D01*
X0067717Y0103952D01*
X0067687Y0103893D01*
X0067653Y0103836D01*
X0067616Y0103781D01*
X0067576Y0103728D01*
X0067534Y0103677D01*
X0067488Y0103629D01*
X0067440Y0103583D01*
X0067389Y0103541D01*
X0067336Y0103501D01*
X0067281Y0103464D01*
X0067224Y0103430D01*
X0067165Y0103400D01*
X0067105Y0103373D01*
X0067043Y0103349D01*
X0066980Y0103329D01*
X0066916Y0103313D01*
X0066851Y0103300D01*
X0066785Y0103290D01*
X0066719Y0103285D01*
X0066653Y0103283D01*
X0065865Y0113126D02*
X0065920Y0113128D01*
X0065975Y0113134D01*
X0066029Y0113143D01*
X0066082Y0113156D01*
X0066134Y0113173D01*
X0066185Y0113194D01*
X0066234Y0113218D01*
X0066282Y0113246D01*
X0066328Y0113276D01*
X0066371Y0113310D01*
X0066412Y0113347D01*
X0066450Y0113386D01*
X0066485Y0113428D01*
X0066517Y0113473D01*
X0066547Y0113520D01*
X0066572Y0113568D01*
X0066595Y0113618D01*
X0066613Y0113670D01*
X0066629Y0113723D01*
X0066640Y0113776D01*
X0066648Y0113831D01*
X0066652Y0113886D01*
X0066652Y0113940D01*
X0066648Y0113995D01*
X0066640Y0114050D01*
X0066629Y0114103D01*
X0066613Y0114156D01*
X0066595Y0114208D01*
X0066572Y0114258D01*
X0066547Y0114307D01*
X0066517Y0114353D01*
X0066485Y0114398D01*
X0066450Y0114440D01*
X0066412Y0114479D01*
X0066371Y0114516D01*
X0066328Y0114550D01*
X0066282Y0114580D01*
X0066234Y0114608D01*
X0066185Y0114632D01*
X0066134Y0114653D01*
X0066082Y0114670D01*
X0066029Y0114683D01*
X0065975Y0114692D01*
X0065920Y0114698D01*
X0065865Y0114700D01*
X0065810Y0114698D01*
X0065755Y0114692D01*
X0065701Y0114683D01*
X0065648Y0114670D01*
X0065596Y0114653D01*
X0065545Y0114632D01*
X0065496Y0114608D01*
X0065448Y0114580D01*
X0065402Y0114550D01*
X0065359Y0114516D01*
X0065318Y0114479D01*
X0065280Y0114440D01*
X0065245Y0114398D01*
X0065213Y0114353D01*
X0065183Y0114307D01*
X0065158Y0114258D01*
X0065135Y0114208D01*
X0065117Y0114156D01*
X0065101Y0114103D01*
X0065090Y0114050D01*
X0065082Y0113995D01*
X0065078Y0113940D01*
X0065078Y0113886D01*
X0065082Y0113831D01*
X0065090Y0113776D01*
X0065101Y0113723D01*
X0065117Y0113670D01*
X0065135Y0113618D01*
X0065158Y0113568D01*
X0065183Y0113520D01*
X0065213Y0113473D01*
X0065245Y0113428D01*
X0065280Y0113386D01*
X0065318Y0113347D01*
X0065359Y0113310D01*
X0065402Y0113276D01*
X0065448Y0113246D01*
X0065496Y0113218D01*
X0065545Y0113194D01*
X0065596Y0113173D01*
X0065648Y0113156D01*
X0065701Y0113143D01*
X0065755Y0113134D01*
X0065810Y0113128D01*
X0065865Y0113126D01*
D16*
X0056712Y0113056D02*
X0056712Y0112323D01*
X0056345Y0111956D01*
X0054877Y0111956D01*
X0054510Y0112323D01*
X0054510Y0113056D01*
X0054877Y0113423D01*
X0055611Y0113423D01*
X0055611Y0112689D01*
X0056345Y0113423D02*
X0056712Y0113056D01*
X0055978Y0114165D02*
X0056712Y0114899D01*
X0054510Y0114899D01*
X0054510Y0114165D02*
X0054510Y0115633D01*
X0054510Y0111214D02*
X0055244Y0110480D01*
X0054877Y0111214D02*
X0054510Y0110847D01*
X0054510Y0110113D01*
X0054877Y0109746D01*
X0056345Y0109746D01*
X0056712Y0110113D01*
X0056712Y0110847D01*
X0056345Y0111214D01*
X0054877Y0111214D01*
M02*
