G75*
%MOIN*%
%OFA0B0*%
%FSLAX25Y25*%
%IPPOS*%
%LPD*%
%AMOC8*
5,1,8,0,0,1.08239X$1,22.5*
%
%ADD10C,0.00000*%
%ADD11C,0.02400*%
%ADD12C,0.00600*%
%ADD13C,0.00300*%
%ADD14R,0.02000X0.02000*%
%ADD15C,0.00236*%
%ADD16C,0.00400*%
%ADD17C,0.00500*%
%ADD18C,0.00800*%
%ADD19C,0.00060*%
%ADD20C,0.00200*%
D10*
X0012716Y0017082D02*
X0012716Y0135193D01*
X0208513Y0135193D01*
X0208513Y0017082D01*
X0139537Y0017082D01*
X0085157Y0024956D02*
X0085159Y0025114D01*
X0085165Y0025272D01*
X0085175Y0025430D01*
X0085189Y0025588D01*
X0085207Y0025745D01*
X0085228Y0025902D01*
X0085254Y0026058D01*
X0085284Y0026214D01*
X0085317Y0026369D01*
X0085355Y0026522D01*
X0085396Y0026675D01*
X0085441Y0026827D01*
X0085490Y0026978D01*
X0085543Y0027127D01*
X0085599Y0027275D01*
X0085659Y0027421D01*
X0085723Y0027566D01*
X0085791Y0027709D01*
X0085862Y0027851D01*
X0085936Y0027991D01*
X0086014Y0028128D01*
X0086096Y0028264D01*
X0086180Y0028398D01*
X0086269Y0028529D01*
X0086360Y0028658D01*
X0086455Y0028785D01*
X0086552Y0028910D01*
X0086653Y0029032D01*
X0086757Y0029151D01*
X0086864Y0029268D01*
X0086974Y0029382D01*
X0087087Y0029493D01*
X0087202Y0029602D01*
X0087320Y0029707D01*
X0087441Y0029809D01*
X0087564Y0029909D01*
X0087690Y0030005D01*
X0087818Y0030098D01*
X0087948Y0030188D01*
X0088081Y0030274D01*
X0088216Y0030358D01*
X0088352Y0030437D01*
X0088491Y0030514D01*
X0088632Y0030586D01*
X0088774Y0030656D01*
X0088918Y0030721D01*
X0089064Y0030783D01*
X0089211Y0030841D01*
X0089360Y0030896D01*
X0089510Y0030947D01*
X0089661Y0030994D01*
X0089813Y0031037D01*
X0089966Y0031076D01*
X0090121Y0031112D01*
X0090276Y0031143D01*
X0090432Y0031171D01*
X0090588Y0031195D01*
X0090745Y0031215D01*
X0090903Y0031231D01*
X0091060Y0031243D01*
X0091219Y0031251D01*
X0091377Y0031255D01*
X0091535Y0031255D01*
X0091693Y0031251D01*
X0091852Y0031243D01*
X0092009Y0031231D01*
X0092167Y0031215D01*
X0092324Y0031195D01*
X0092480Y0031171D01*
X0092636Y0031143D01*
X0092791Y0031112D01*
X0092946Y0031076D01*
X0093099Y0031037D01*
X0093251Y0030994D01*
X0093402Y0030947D01*
X0093552Y0030896D01*
X0093701Y0030841D01*
X0093848Y0030783D01*
X0093994Y0030721D01*
X0094138Y0030656D01*
X0094280Y0030586D01*
X0094421Y0030514D01*
X0094560Y0030437D01*
X0094696Y0030358D01*
X0094831Y0030274D01*
X0094964Y0030188D01*
X0095094Y0030098D01*
X0095222Y0030005D01*
X0095348Y0029909D01*
X0095471Y0029809D01*
X0095592Y0029707D01*
X0095710Y0029602D01*
X0095825Y0029493D01*
X0095938Y0029382D01*
X0096048Y0029268D01*
X0096155Y0029151D01*
X0096259Y0029032D01*
X0096360Y0028910D01*
X0096457Y0028785D01*
X0096552Y0028658D01*
X0096643Y0028529D01*
X0096732Y0028398D01*
X0096816Y0028264D01*
X0096898Y0028128D01*
X0096976Y0027991D01*
X0097050Y0027851D01*
X0097121Y0027709D01*
X0097189Y0027566D01*
X0097253Y0027421D01*
X0097313Y0027275D01*
X0097369Y0027127D01*
X0097422Y0026978D01*
X0097471Y0026827D01*
X0097516Y0026675D01*
X0097557Y0026522D01*
X0097595Y0026369D01*
X0097628Y0026214D01*
X0097658Y0026058D01*
X0097684Y0025902D01*
X0097705Y0025745D01*
X0097723Y0025588D01*
X0097737Y0025430D01*
X0097747Y0025272D01*
X0097753Y0025114D01*
X0097755Y0024956D01*
X0097753Y0024798D01*
X0097747Y0024640D01*
X0097737Y0024482D01*
X0097723Y0024324D01*
X0097705Y0024167D01*
X0097684Y0024010D01*
X0097658Y0023854D01*
X0097628Y0023698D01*
X0097595Y0023543D01*
X0097557Y0023390D01*
X0097516Y0023237D01*
X0097471Y0023085D01*
X0097422Y0022934D01*
X0097369Y0022785D01*
X0097313Y0022637D01*
X0097253Y0022491D01*
X0097189Y0022346D01*
X0097121Y0022203D01*
X0097050Y0022061D01*
X0096976Y0021921D01*
X0096898Y0021784D01*
X0096816Y0021648D01*
X0096732Y0021514D01*
X0096643Y0021383D01*
X0096552Y0021254D01*
X0096457Y0021127D01*
X0096360Y0021002D01*
X0096259Y0020880D01*
X0096155Y0020761D01*
X0096048Y0020644D01*
X0095938Y0020530D01*
X0095825Y0020419D01*
X0095710Y0020310D01*
X0095592Y0020205D01*
X0095471Y0020103D01*
X0095348Y0020003D01*
X0095222Y0019907D01*
X0095094Y0019814D01*
X0094964Y0019724D01*
X0094831Y0019638D01*
X0094696Y0019554D01*
X0094560Y0019475D01*
X0094421Y0019398D01*
X0094280Y0019326D01*
X0094138Y0019256D01*
X0093994Y0019191D01*
X0093848Y0019129D01*
X0093701Y0019071D01*
X0093552Y0019016D01*
X0093402Y0018965D01*
X0093251Y0018918D01*
X0093099Y0018875D01*
X0092946Y0018836D01*
X0092791Y0018800D01*
X0092636Y0018769D01*
X0092480Y0018741D01*
X0092324Y0018717D01*
X0092167Y0018697D01*
X0092009Y0018681D01*
X0091852Y0018669D01*
X0091693Y0018661D01*
X0091535Y0018657D01*
X0091377Y0018657D01*
X0091219Y0018661D01*
X0091060Y0018669D01*
X0090903Y0018681D01*
X0090745Y0018697D01*
X0090588Y0018717D01*
X0090432Y0018741D01*
X0090276Y0018769D01*
X0090121Y0018800D01*
X0089966Y0018836D01*
X0089813Y0018875D01*
X0089661Y0018918D01*
X0089510Y0018965D01*
X0089360Y0019016D01*
X0089211Y0019071D01*
X0089064Y0019129D01*
X0088918Y0019191D01*
X0088774Y0019256D01*
X0088632Y0019326D01*
X0088491Y0019398D01*
X0088352Y0019475D01*
X0088216Y0019554D01*
X0088081Y0019638D01*
X0087948Y0019724D01*
X0087818Y0019814D01*
X0087690Y0019907D01*
X0087564Y0020003D01*
X0087441Y0020103D01*
X0087320Y0020205D01*
X0087202Y0020310D01*
X0087087Y0020419D01*
X0086974Y0020530D01*
X0086864Y0020644D01*
X0086757Y0020761D01*
X0086653Y0020880D01*
X0086552Y0021002D01*
X0086455Y0021127D01*
X0086360Y0021254D01*
X0086269Y0021383D01*
X0086180Y0021514D01*
X0086096Y0021648D01*
X0086014Y0021784D01*
X0085936Y0021921D01*
X0085862Y0022061D01*
X0085791Y0022203D01*
X0085723Y0022346D01*
X0085659Y0022491D01*
X0085599Y0022637D01*
X0085543Y0022785D01*
X0085490Y0022934D01*
X0085441Y0023085D01*
X0085396Y0023237D01*
X0085355Y0023390D01*
X0085317Y0023543D01*
X0085284Y0023698D01*
X0085254Y0023854D01*
X0085228Y0024010D01*
X0085207Y0024167D01*
X0085189Y0024324D01*
X0085175Y0024482D01*
X0085165Y0024640D01*
X0085159Y0024798D01*
X0085157Y0024956D01*
X0012716Y0017082D02*
X0208513Y0017082D01*
X0085157Y0127319D02*
X0085159Y0127477D01*
X0085165Y0127635D01*
X0085175Y0127793D01*
X0085189Y0127951D01*
X0085207Y0128108D01*
X0085228Y0128265D01*
X0085254Y0128421D01*
X0085284Y0128577D01*
X0085317Y0128732D01*
X0085355Y0128885D01*
X0085396Y0129038D01*
X0085441Y0129190D01*
X0085490Y0129341D01*
X0085543Y0129490D01*
X0085599Y0129638D01*
X0085659Y0129784D01*
X0085723Y0129929D01*
X0085791Y0130072D01*
X0085862Y0130214D01*
X0085936Y0130354D01*
X0086014Y0130491D01*
X0086096Y0130627D01*
X0086180Y0130761D01*
X0086269Y0130892D01*
X0086360Y0131021D01*
X0086455Y0131148D01*
X0086552Y0131273D01*
X0086653Y0131395D01*
X0086757Y0131514D01*
X0086864Y0131631D01*
X0086974Y0131745D01*
X0087087Y0131856D01*
X0087202Y0131965D01*
X0087320Y0132070D01*
X0087441Y0132172D01*
X0087564Y0132272D01*
X0087690Y0132368D01*
X0087818Y0132461D01*
X0087948Y0132551D01*
X0088081Y0132637D01*
X0088216Y0132721D01*
X0088352Y0132800D01*
X0088491Y0132877D01*
X0088632Y0132949D01*
X0088774Y0133019D01*
X0088918Y0133084D01*
X0089064Y0133146D01*
X0089211Y0133204D01*
X0089360Y0133259D01*
X0089510Y0133310D01*
X0089661Y0133357D01*
X0089813Y0133400D01*
X0089966Y0133439D01*
X0090121Y0133475D01*
X0090276Y0133506D01*
X0090432Y0133534D01*
X0090588Y0133558D01*
X0090745Y0133578D01*
X0090903Y0133594D01*
X0091060Y0133606D01*
X0091219Y0133614D01*
X0091377Y0133618D01*
X0091535Y0133618D01*
X0091693Y0133614D01*
X0091852Y0133606D01*
X0092009Y0133594D01*
X0092167Y0133578D01*
X0092324Y0133558D01*
X0092480Y0133534D01*
X0092636Y0133506D01*
X0092791Y0133475D01*
X0092946Y0133439D01*
X0093099Y0133400D01*
X0093251Y0133357D01*
X0093402Y0133310D01*
X0093552Y0133259D01*
X0093701Y0133204D01*
X0093848Y0133146D01*
X0093994Y0133084D01*
X0094138Y0133019D01*
X0094280Y0132949D01*
X0094421Y0132877D01*
X0094560Y0132800D01*
X0094696Y0132721D01*
X0094831Y0132637D01*
X0094964Y0132551D01*
X0095094Y0132461D01*
X0095222Y0132368D01*
X0095348Y0132272D01*
X0095471Y0132172D01*
X0095592Y0132070D01*
X0095710Y0131965D01*
X0095825Y0131856D01*
X0095938Y0131745D01*
X0096048Y0131631D01*
X0096155Y0131514D01*
X0096259Y0131395D01*
X0096360Y0131273D01*
X0096457Y0131148D01*
X0096552Y0131021D01*
X0096643Y0130892D01*
X0096732Y0130761D01*
X0096816Y0130627D01*
X0096898Y0130491D01*
X0096976Y0130354D01*
X0097050Y0130214D01*
X0097121Y0130072D01*
X0097189Y0129929D01*
X0097253Y0129784D01*
X0097313Y0129638D01*
X0097369Y0129490D01*
X0097422Y0129341D01*
X0097471Y0129190D01*
X0097516Y0129038D01*
X0097557Y0128885D01*
X0097595Y0128732D01*
X0097628Y0128577D01*
X0097658Y0128421D01*
X0097684Y0128265D01*
X0097705Y0128108D01*
X0097723Y0127951D01*
X0097737Y0127793D01*
X0097747Y0127635D01*
X0097753Y0127477D01*
X0097755Y0127319D01*
X0097753Y0127161D01*
X0097747Y0127003D01*
X0097737Y0126845D01*
X0097723Y0126687D01*
X0097705Y0126530D01*
X0097684Y0126373D01*
X0097658Y0126217D01*
X0097628Y0126061D01*
X0097595Y0125906D01*
X0097557Y0125753D01*
X0097516Y0125600D01*
X0097471Y0125448D01*
X0097422Y0125297D01*
X0097369Y0125148D01*
X0097313Y0125000D01*
X0097253Y0124854D01*
X0097189Y0124709D01*
X0097121Y0124566D01*
X0097050Y0124424D01*
X0096976Y0124284D01*
X0096898Y0124147D01*
X0096816Y0124011D01*
X0096732Y0123877D01*
X0096643Y0123746D01*
X0096552Y0123617D01*
X0096457Y0123490D01*
X0096360Y0123365D01*
X0096259Y0123243D01*
X0096155Y0123124D01*
X0096048Y0123007D01*
X0095938Y0122893D01*
X0095825Y0122782D01*
X0095710Y0122673D01*
X0095592Y0122568D01*
X0095471Y0122466D01*
X0095348Y0122366D01*
X0095222Y0122270D01*
X0095094Y0122177D01*
X0094964Y0122087D01*
X0094831Y0122001D01*
X0094696Y0121917D01*
X0094560Y0121838D01*
X0094421Y0121761D01*
X0094280Y0121689D01*
X0094138Y0121619D01*
X0093994Y0121554D01*
X0093848Y0121492D01*
X0093701Y0121434D01*
X0093552Y0121379D01*
X0093402Y0121328D01*
X0093251Y0121281D01*
X0093099Y0121238D01*
X0092946Y0121199D01*
X0092791Y0121163D01*
X0092636Y0121132D01*
X0092480Y0121104D01*
X0092324Y0121080D01*
X0092167Y0121060D01*
X0092009Y0121044D01*
X0091852Y0121032D01*
X0091693Y0121024D01*
X0091535Y0121020D01*
X0091377Y0121020D01*
X0091219Y0121024D01*
X0091060Y0121032D01*
X0090903Y0121044D01*
X0090745Y0121060D01*
X0090588Y0121080D01*
X0090432Y0121104D01*
X0090276Y0121132D01*
X0090121Y0121163D01*
X0089966Y0121199D01*
X0089813Y0121238D01*
X0089661Y0121281D01*
X0089510Y0121328D01*
X0089360Y0121379D01*
X0089211Y0121434D01*
X0089064Y0121492D01*
X0088918Y0121554D01*
X0088774Y0121619D01*
X0088632Y0121689D01*
X0088491Y0121761D01*
X0088352Y0121838D01*
X0088216Y0121917D01*
X0088081Y0122001D01*
X0087948Y0122087D01*
X0087818Y0122177D01*
X0087690Y0122270D01*
X0087564Y0122366D01*
X0087441Y0122466D01*
X0087320Y0122568D01*
X0087202Y0122673D01*
X0087087Y0122782D01*
X0086974Y0122893D01*
X0086864Y0123007D01*
X0086757Y0123124D01*
X0086653Y0123243D01*
X0086552Y0123365D01*
X0086455Y0123490D01*
X0086360Y0123617D01*
X0086269Y0123746D01*
X0086180Y0123877D01*
X0086096Y0124011D01*
X0086014Y0124147D01*
X0085936Y0124284D01*
X0085862Y0124424D01*
X0085791Y0124566D01*
X0085723Y0124709D01*
X0085659Y0124854D01*
X0085599Y0125000D01*
X0085543Y0125148D01*
X0085490Y0125297D01*
X0085441Y0125448D01*
X0085396Y0125600D01*
X0085355Y0125753D01*
X0085317Y0125906D01*
X0085284Y0126061D01*
X0085254Y0126217D01*
X0085228Y0126373D01*
X0085207Y0126530D01*
X0085189Y0126687D01*
X0085175Y0126845D01*
X0085165Y0127003D01*
X0085159Y0127161D01*
X0085157Y0127319D01*
D11*
X0104016Y0129582D02*
X0104018Y0129651D01*
X0104024Y0129720D01*
X0104034Y0129788D01*
X0104048Y0129856D01*
X0104065Y0129923D01*
X0104087Y0129989D01*
X0104112Y0130053D01*
X0104141Y0130116D01*
X0104174Y0130177D01*
X0104210Y0130236D01*
X0104249Y0130293D01*
X0104292Y0130347D01*
X0104337Y0130399D01*
X0104386Y0130449D01*
X0104437Y0130495D01*
X0104491Y0130538D01*
X0104548Y0130579D01*
X0104606Y0130615D01*
X0104667Y0130649D01*
X0104729Y0130679D01*
X0104793Y0130705D01*
X0104858Y0130727D01*
X0104925Y0130746D01*
X0104993Y0130761D01*
X0105061Y0130772D01*
X0105130Y0130779D01*
X0105199Y0130782D01*
X0105268Y0130781D01*
X0105337Y0130776D01*
X0105405Y0130767D01*
X0105473Y0130754D01*
X0105540Y0130737D01*
X0105607Y0130717D01*
X0105671Y0130692D01*
X0105734Y0130664D01*
X0105796Y0130633D01*
X0105855Y0130597D01*
X0105913Y0130559D01*
X0105968Y0130517D01*
X0106021Y0130472D01*
X0106071Y0130424D01*
X0106118Y0130374D01*
X0106162Y0130320D01*
X0106203Y0130265D01*
X0106241Y0130207D01*
X0106275Y0130147D01*
X0106306Y0130085D01*
X0106333Y0130021D01*
X0106356Y0129956D01*
X0106376Y0129890D01*
X0106392Y0129822D01*
X0106404Y0129754D01*
X0106412Y0129686D01*
X0106416Y0129617D01*
X0106416Y0129547D01*
X0106412Y0129478D01*
X0106404Y0129410D01*
X0106392Y0129342D01*
X0106376Y0129274D01*
X0106356Y0129208D01*
X0106333Y0129143D01*
X0106306Y0129079D01*
X0106275Y0129017D01*
X0106241Y0128957D01*
X0106203Y0128899D01*
X0106162Y0128844D01*
X0106118Y0128790D01*
X0106071Y0128740D01*
X0106021Y0128692D01*
X0105968Y0128647D01*
X0105913Y0128605D01*
X0105855Y0128567D01*
X0105796Y0128531D01*
X0105734Y0128500D01*
X0105671Y0128472D01*
X0105607Y0128447D01*
X0105540Y0128427D01*
X0105473Y0128410D01*
X0105405Y0128397D01*
X0105337Y0128388D01*
X0105268Y0128383D01*
X0105199Y0128382D01*
X0105130Y0128385D01*
X0105061Y0128392D01*
X0104993Y0128403D01*
X0104925Y0128418D01*
X0104858Y0128437D01*
X0104793Y0128459D01*
X0104729Y0128485D01*
X0104667Y0128515D01*
X0104606Y0128549D01*
X0104548Y0128585D01*
X0104491Y0128626D01*
X0104437Y0128669D01*
X0104386Y0128715D01*
X0104337Y0128765D01*
X0104292Y0128817D01*
X0104249Y0128871D01*
X0104210Y0128928D01*
X0104174Y0128987D01*
X0104141Y0129048D01*
X0104112Y0129111D01*
X0104087Y0129175D01*
X0104065Y0129241D01*
X0104048Y0129308D01*
X0104034Y0129376D01*
X0104024Y0129444D01*
X0104018Y0129513D01*
X0104016Y0129582D01*
X0119016Y0019582D02*
X0119018Y0019651D01*
X0119024Y0019720D01*
X0119034Y0019788D01*
X0119048Y0019856D01*
X0119065Y0019923D01*
X0119087Y0019989D01*
X0119112Y0020053D01*
X0119141Y0020116D01*
X0119174Y0020177D01*
X0119210Y0020236D01*
X0119249Y0020293D01*
X0119292Y0020347D01*
X0119337Y0020399D01*
X0119386Y0020449D01*
X0119437Y0020495D01*
X0119491Y0020538D01*
X0119548Y0020579D01*
X0119606Y0020615D01*
X0119667Y0020649D01*
X0119729Y0020679D01*
X0119793Y0020705D01*
X0119858Y0020727D01*
X0119925Y0020746D01*
X0119993Y0020761D01*
X0120061Y0020772D01*
X0120130Y0020779D01*
X0120199Y0020782D01*
X0120268Y0020781D01*
X0120337Y0020776D01*
X0120405Y0020767D01*
X0120473Y0020754D01*
X0120540Y0020737D01*
X0120607Y0020717D01*
X0120671Y0020692D01*
X0120734Y0020664D01*
X0120796Y0020633D01*
X0120855Y0020597D01*
X0120913Y0020559D01*
X0120968Y0020517D01*
X0121021Y0020472D01*
X0121071Y0020424D01*
X0121118Y0020374D01*
X0121162Y0020320D01*
X0121203Y0020265D01*
X0121241Y0020207D01*
X0121275Y0020147D01*
X0121306Y0020085D01*
X0121333Y0020021D01*
X0121356Y0019956D01*
X0121376Y0019890D01*
X0121392Y0019822D01*
X0121404Y0019754D01*
X0121412Y0019686D01*
X0121416Y0019617D01*
X0121416Y0019547D01*
X0121412Y0019478D01*
X0121404Y0019410D01*
X0121392Y0019342D01*
X0121376Y0019274D01*
X0121356Y0019208D01*
X0121333Y0019143D01*
X0121306Y0019079D01*
X0121275Y0019017D01*
X0121241Y0018957D01*
X0121203Y0018899D01*
X0121162Y0018844D01*
X0121118Y0018790D01*
X0121071Y0018740D01*
X0121021Y0018692D01*
X0120968Y0018647D01*
X0120913Y0018605D01*
X0120855Y0018567D01*
X0120796Y0018531D01*
X0120734Y0018500D01*
X0120671Y0018472D01*
X0120607Y0018447D01*
X0120540Y0018427D01*
X0120473Y0018410D01*
X0120405Y0018397D01*
X0120337Y0018388D01*
X0120268Y0018383D01*
X0120199Y0018382D01*
X0120130Y0018385D01*
X0120061Y0018392D01*
X0119993Y0018403D01*
X0119925Y0018418D01*
X0119858Y0018437D01*
X0119793Y0018459D01*
X0119729Y0018485D01*
X0119667Y0018515D01*
X0119606Y0018549D01*
X0119548Y0018585D01*
X0119491Y0018626D01*
X0119437Y0018669D01*
X0119386Y0018715D01*
X0119337Y0018765D01*
X0119292Y0018817D01*
X0119249Y0018871D01*
X0119210Y0018928D01*
X0119174Y0018987D01*
X0119141Y0019048D01*
X0119112Y0019111D01*
X0119087Y0019175D01*
X0119065Y0019241D01*
X0119048Y0019308D01*
X0119034Y0019376D01*
X0119024Y0019444D01*
X0119018Y0019513D01*
X0119016Y0019582D01*
D12*
X0122716Y0022082D02*
X0122716Y0027082D01*
X0125216Y0029582D01*
X0122716Y0032082D01*
X0122716Y0037082D01*
X0125216Y0039582D01*
X0130216Y0039582D01*
X0132716Y0037082D01*
X0132716Y0032082D01*
X0130216Y0029582D01*
X0132716Y0027082D01*
X0132716Y0022082D01*
X0130216Y0019582D01*
X0125216Y0019582D01*
X0122716Y0022082D01*
X0113716Y0026082D02*
X0113716Y0028082D01*
X0113716Y0030582D02*
X0113716Y0032582D01*
X0112716Y0031582D02*
X0114716Y0031582D01*
X0099216Y0029582D02*
X0099219Y0029791D01*
X0099226Y0029999D01*
X0099239Y0030207D01*
X0099257Y0030415D01*
X0099280Y0030622D01*
X0099308Y0030829D01*
X0099341Y0031035D01*
X0099379Y0031240D01*
X0099423Y0031444D01*
X0099471Y0031647D01*
X0099524Y0031849D01*
X0099582Y0032049D01*
X0099645Y0032248D01*
X0099713Y0032446D01*
X0099786Y0032641D01*
X0099863Y0032835D01*
X0099945Y0033027D01*
X0100032Y0033216D01*
X0100124Y0033404D01*
X0100220Y0033589D01*
X0100320Y0033772D01*
X0100425Y0033952D01*
X0100535Y0034129D01*
X0100649Y0034304D01*
X0100767Y0034476D01*
X0100889Y0034645D01*
X0101015Y0034811D01*
X0101145Y0034974D01*
X0101280Y0035134D01*
X0101418Y0035290D01*
X0101560Y0035443D01*
X0101706Y0035592D01*
X0101855Y0035738D01*
X0102008Y0035880D01*
X0102164Y0036018D01*
X0102324Y0036153D01*
X0102487Y0036283D01*
X0102653Y0036409D01*
X0102822Y0036531D01*
X0102994Y0036649D01*
X0103169Y0036763D01*
X0103346Y0036873D01*
X0103526Y0036978D01*
X0103709Y0037078D01*
X0103894Y0037174D01*
X0104082Y0037266D01*
X0104271Y0037353D01*
X0104463Y0037435D01*
X0104657Y0037512D01*
X0104852Y0037585D01*
X0105050Y0037653D01*
X0105249Y0037716D01*
X0105449Y0037774D01*
X0105651Y0037827D01*
X0105854Y0037875D01*
X0106058Y0037919D01*
X0106263Y0037957D01*
X0106469Y0037990D01*
X0106676Y0038018D01*
X0106883Y0038041D01*
X0107091Y0038059D01*
X0107299Y0038072D01*
X0107507Y0038079D01*
X0107716Y0038082D01*
X0107925Y0038079D01*
X0108133Y0038072D01*
X0108341Y0038059D01*
X0108549Y0038041D01*
X0108756Y0038018D01*
X0108963Y0037990D01*
X0109169Y0037957D01*
X0109374Y0037919D01*
X0109578Y0037875D01*
X0109781Y0037827D01*
X0109983Y0037774D01*
X0110183Y0037716D01*
X0110382Y0037653D01*
X0110580Y0037585D01*
X0110775Y0037512D01*
X0110969Y0037435D01*
X0111161Y0037353D01*
X0111350Y0037266D01*
X0111538Y0037174D01*
X0111723Y0037078D01*
X0111906Y0036978D01*
X0112086Y0036873D01*
X0112263Y0036763D01*
X0112438Y0036649D01*
X0112610Y0036531D01*
X0112779Y0036409D01*
X0112945Y0036283D01*
X0113108Y0036153D01*
X0113268Y0036018D01*
X0113424Y0035880D01*
X0113577Y0035738D01*
X0113726Y0035592D01*
X0113872Y0035443D01*
X0114014Y0035290D01*
X0114152Y0035134D01*
X0114287Y0034974D01*
X0114417Y0034811D01*
X0114543Y0034645D01*
X0114665Y0034476D01*
X0114783Y0034304D01*
X0114897Y0034129D01*
X0115007Y0033952D01*
X0115112Y0033772D01*
X0115212Y0033589D01*
X0115308Y0033404D01*
X0115400Y0033216D01*
X0115487Y0033027D01*
X0115569Y0032835D01*
X0115646Y0032641D01*
X0115719Y0032446D01*
X0115787Y0032248D01*
X0115850Y0032049D01*
X0115908Y0031849D01*
X0115961Y0031647D01*
X0116009Y0031444D01*
X0116053Y0031240D01*
X0116091Y0031035D01*
X0116124Y0030829D01*
X0116152Y0030622D01*
X0116175Y0030415D01*
X0116193Y0030207D01*
X0116206Y0029999D01*
X0116213Y0029791D01*
X0116216Y0029582D01*
X0116213Y0029373D01*
X0116206Y0029165D01*
X0116193Y0028957D01*
X0116175Y0028749D01*
X0116152Y0028542D01*
X0116124Y0028335D01*
X0116091Y0028129D01*
X0116053Y0027924D01*
X0116009Y0027720D01*
X0115961Y0027517D01*
X0115908Y0027315D01*
X0115850Y0027115D01*
X0115787Y0026916D01*
X0115719Y0026718D01*
X0115646Y0026523D01*
X0115569Y0026329D01*
X0115487Y0026137D01*
X0115400Y0025948D01*
X0115308Y0025760D01*
X0115212Y0025575D01*
X0115112Y0025392D01*
X0115007Y0025212D01*
X0114897Y0025035D01*
X0114783Y0024860D01*
X0114665Y0024688D01*
X0114543Y0024519D01*
X0114417Y0024353D01*
X0114287Y0024190D01*
X0114152Y0024030D01*
X0114014Y0023874D01*
X0113872Y0023721D01*
X0113726Y0023572D01*
X0113577Y0023426D01*
X0113424Y0023284D01*
X0113268Y0023146D01*
X0113108Y0023011D01*
X0112945Y0022881D01*
X0112779Y0022755D01*
X0112610Y0022633D01*
X0112438Y0022515D01*
X0112263Y0022401D01*
X0112086Y0022291D01*
X0111906Y0022186D01*
X0111723Y0022086D01*
X0111538Y0021990D01*
X0111350Y0021898D01*
X0111161Y0021811D01*
X0110969Y0021729D01*
X0110775Y0021652D01*
X0110580Y0021579D01*
X0110382Y0021511D01*
X0110183Y0021448D01*
X0109983Y0021390D01*
X0109781Y0021337D01*
X0109578Y0021289D01*
X0109374Y0021245D01*
X0109169Y0021207D01*
X0108963Y0021174D01*
X0108756Y0021146D01*
X0108549Y0021123D01*
X0108341Y0021105D01*
X0108133Y0021092D01*
X0107925Y0021085D01*
X0107716Y0021082D01*
X0107507Y0021085D01*
X0107299Y0021092D01*
X0107091Y0021105D01*
X0106883Y0021123D01*
X0106676Y0021146D01*
X0106469Y0021174D01*
X0106263Y0021207D01*
X0106058Y0021245D01*
X0105854Y0021289D01*
X0105651Y0021337D01*
X0105449Y0021390D01*
X0105249Y0021448D01*
X0105050Y0021511D01*
X0104852Y0021579D01*
X0104657Y0021652D01*
X0104463Y0021729D01*
X0104271Y0021811D01*
X0104082Y0021898D01*
X0103894Y0021990D01*
X0103709Y0022086D01*
X0103526Y0022186D01*
X0103346Y0022291D01*
X0103169Y0022401D01*
X0102994Y0022515D01*
X0102822Y0022633D01*
X0102653Y0022755D01*
X0102487Y0022881D01*
X0102324Y0023011D01*
X0102164Y0023146D01*
X0102008Y0023284D01*
X0101855Y0023426D01*
X0101706Y0023572D01*
X0101560Y0023721D01*
X0101418Y0023874D01*
X0101280Y0024030D01*
X0101145Y0024190D01*
X0101015Y0024353D01*
X0100889Y0024519D01*
X0100767Y0024688D01*
X0100649Y0024860D01*
X0100535Y0025035D01*
X0100425Y0025212D01*
X0100320Y0025392D01*
X0100220Y0025575D01*
X0100124Y0025760D01*
X0100032Y0025948D01*
X0099945Y0026137D01*
X0099863Y0026329D01*
X0099786Y0026523D01*
X0099713Y0026718D01*
X0099645Y0026916D01*
X0099582Y0027115D01*
X0099524Y0027315D01*
X0099471Y0027517D01*
X0099423Y0027720D01*
X0099379Y0027924D01*
X0099341Y0028129D01*
X0099308Y0028335D01*
X0099280Y0028542D01*
X0099257Y0028749D01*
X0099239Y0028957D01*
X0099226Y0029165D01*
X0099219Y0029373D01*
X0099216Y0029582D01*
X0125216Y0029582D02*
X0130216Y0029582D01*
X0150216Y0028332D02*
X0150216Y0023332D01*
X0152716Y0020832D01*
X0157716Y0020832D01*
X0160216Y0023332D01*
X0160216Y0028332D01*
X0157716Y0030832D01*
X0152716Y0030832D01*
X0150216Y0028332D01*
X0170216Y0028332D02*
X0170216Y0023332D01*
X0172716Y0020832D01*
X0177716Y0020832D01*
X0180216Y0023332D01*
X0180216Y0028332D01*
X0177716Y0030832D01*
X0172716Y0030832D01*
X0170216Y0028332D01*
X0191466Y0028332D02*
X0191466Y0023332D01*
X0193966Y0020832D01*
X0198966Y0020832D01*
X0201466Y0023332D01*
X0201466Y0028332D01*
X0198966Y0030832D01*
X0193966Y0030832D01*
X0191466Y0028332D01*
X0192716Y0049632D02*
X0192716Y0062032D01*
X0157716Y0062032D02*
X0157716Y0049632D01*
X0157716Y0053832D02*
X0157804Y0053834D01*
X0157893Y0053840D01*
X0157981Y0053850D01*
X0158068Y0053863D01*
X0158155Y0053881D01*
X0158241Y0053902D01*
X0158326Y0053927D01*
X0158409Y0053956D01*
X0158492Y0053989D01*
X0158572Y0054025D01*
X0158651Y0054064D01*
X0158729Y0054107D01*
X0158804Y0054154D01*
X0158877Y0054204D01*
X0158948Y0054257D01*
X0159017Y0054313D01*
X0159083Y0054372D01*
X0159146Y0054434D01*
X0159206Y0054498D01*
X0159264Y0054565D01*
X0159318Y0054635D01*
X0159370Y0054707D01*
X0159418Y0054781D01*
X0159463Y0054858D01*
X0159504Y0054936D01*
X0159542Y0055016D01*
X0159576Y0055097D01*
X0159607Y0055180D01*
X0159634Y0055265D01*
X0159657Y0055350D01*
X0159676Y0055436D01*
X0159692Y0055524D01*
X0159704Y0055611D01*
X0159712Y0055699D01*
X0159716Y0055788D01*
X0159716Y0055876D01*
X0159712Y0055965D01*
X0159704Y0056053D01*
X0159692Y0056140D01*
X0159676Y0056228D01*
X0159657Y0056314D01*
X0159634Y0056399D01*
X0159607Y0056484D01*
X0159576Y0056567D01*
X0159542Y0056648D01*
X0159504Y0056728D01*
X0159463Y0056806D01*
X0159418Y0056883D01*
X0159370Y0056957D01*
X0159318Y0057029D01*
X0159264Y0057099D01*
X0159206Y0057166D01*
X0159146Y0057230D01*
X0159083Y0057292D01*
X0159017Y0057351D01*
X0158948Y0057407D01*
X0158877Y0057460D01*
X0158804Y0057510D01*
X0158729Y0057557D01*
X0158651Y0057600D01*
X0158572Y0057639D01*
X0158492Y0057675D01*
X0158409Y0057708D01*
X0158326Y0057737D01*
X0158241Y0057762D01*
X0158155Y0057783D01*
X0158068Y0057801D01*
X0157981Y0057814D01*
X0157893Y0057824D01*
X0157804Y0057830D01*
X0157716Y0057832D01*
X0162716Y0089582D02*
X0160216Y0092082D01*
X0160216Y0097082D01*
X0162716Y0099582D01*
X0167716Y0099582D01*
X0170216Y0097082D01*
X0170216Y0092082D01*
X0167716Y0089582D01*
X0162716Y0089582D01*
X0180216Y0092082D02*
X0182716Y0089582D01*
X0187716Y0089582D01*
X0190216Y0092082D01*
X0190216Y0097082D01*
X0187716Y0099582D01*
X0182716Y0099582D01*
X0180216Y0097082D01*
X0180216Y0092082D01*
X0102231Y0074582D02*
X0083704Y0093109D01*
X0081728Y0093109D01*
X0063201Y0074582D01*
X0082716Y0055067D01*
X0102231Y0074582D01*
X0081302Y0089856D02*
X0081304Y0089931D01*
X0081310Y0090005D01*
X0081320Y0090079D01*
X0081333Y0090152D01*
X0081351Y0090225D01*
X0081372Y0090296D01*
X0081397Y0090367D01*
X0081426Y0090436D01*
X0081459Y0090503D01*
X0081495Y0090568D01*
X0081534Y0090632D01*
X0081576Y0090693D01*
X0081622Y0090752D01*
X0081671Y0090809D01*
X0081723Y0090862D01*
X0081777Y0090913D01*
X0081834Y0090962D01*
X0081894Y0091006D01*
X0081956Y0091048D01*
X0082020Y0091087D01*
X0082086Y0091122D01*
X0082153Y0091153D01*
X0082223Y0091181D01*
X0082293Y0091205D01*
X0082365Y0091226D01*
X0082438Y0091242D01*
X0082511Y0091255D01*
X0082586Y0091264D01*
X0082660Y0091269D01*
X0082735Y0091270D01*
X0082809Y0091267D01*
X0082884Y0091260D01*
X0082957Y0091249D01*
X0083031Y0091235D01*
X0083103Y0091216D01*
X0083174Y0091194D01*
X0083244Y0091168D01*
X0083313Y0091138D01*
X0083379Y0091105D01*
X0083444Y0091068D01*
X0083507Y0091028D01*
X0083568Y0090984D01*
X0083626Y0090938D01*
X0083682Y0090888D01*
X0083735Y0090836D01*
X0083786Y0090781D01*
X0083833Y0090723D01*
X0083877Y0090663D01*
X0083918Y0090600D01*
X0083956Y0090536D01*
X0083990Y0090470D01*
X0084021Y0090401D01*
X0084048Y0090332D01*
X0084071Y0090261D01*
X0084090Y0090189D01*
X0084106Y0090116D01*
X0084118Y0090042D01*
X0084126Y0089968D01*
X0084130Y0089893D01*
X0084130Y0089819D01*
X0084126Y0089744D01*
X0084118Y0089670D01*
X0084106Y0089596D01*
X0084090Y0089523D01*
X0084071Y0089451D01*
X0084048Y0089380D01*
X0084021Y0089311D01*
X0083990Y0089242D01*
X0083956Y0089176D01*
X0083918Y0089112D01*
X0083877Y0089049D01*
X0083833Y0088989D01*
X0083786Y0088931D01*
X0083735Y0088876D01*
X0083682Y0088824D01*
X0083626Y0088774D01*
X0083568Y0088728D01*
X0083507Y0088684D01*
X0083444Y0088644D01*
X0083379Y0088607D01*
X0083313Y0088574D01*
X0083244Y0088544D01*
X0083174Y0088518D01*
X0083103Y0088496D01*
X0083031Y0088477D01*
X0082957Y0088463D01*
X0082884Y0088452D01*
X0082809Y0088445D01*
X0082735Y0088442D01*
X0082660Y0088443D01*
X0082586Y0088448D01*
X0082511Y0088457D01*
X0082438Y0088470D01*
X0082365Y0088486D01*
X0082293Y0088507D01*
X0082223Y0088531D01*
X0082153Y0088559D01*
X0082086Y0088590D01*
X0082020Y0088625D01*
X0081956Y0088664D01*
X0081894Y0088706D01*
X0081834Y0088750D01*
X0081777Y0088799D01*
X0081723Y0088850D01*
X0081671Y0088903D01*
X0081622Y0088960D01*
X0081576Y0089019D01*
X0081534Y0089080D01*
X0081495Y0089144D01*
X0081459Y0089209D01*
X0081426Y0089276D01*
X0081397Y0089345D01*
X0081372Y0089416D01*
X0081351Y0089487D01*
X0081333Y0089560D01*
X0081320Y0089633D01*
X0081310Y0089707D01*
X0081304Y0089781D01*
X0081302Y0089856D01*
X0030216Y0089582D02*
X0030216Y0094582D01*
X0027716Y0097082D01*
X0022716Y0097082D01*
X0020216Y0094582D01*
X0020216Y0089582D01*
X0022716Y0087082D01*
X0027716Y0087082D01*
X0030216Y0089582D01*
X0027716Y0087082D02*
X0030216Y0084582D01*
X0030216Y0079582D01*
X0027716Y0077082D01*
X0030216Y0074582D01*
X0030216Y0069582D01*
X0027716Y0067082D01*
X0030216Y0064582D01*
X0030216Y0059582D01*
X0027716Y0057082D01*
X0022716Y0057082D01*
X0020216Y0059582D01*
X0020216Y0064582D01*
X0022716Y0067082D01*
X0020216Y0069582D01*
X0020216Y0074582D01*
X0022716Y0077082D01*
X0027716Y0077082D01*
X0022716Y0077082D02*
X0020216Y0079582D01*
X0020216Y0084582D01*
X0022716Y0087082D01*
X0022716Y0067082D02*
X0027716Y0067082D01*
X0031216Y0047582D02*
X0031216Y0045582D01*
X0030216Y0046582D02*
X0032216Y0046582D01*
X0031216Y0043082D02*
X0031216Y0041082D01*
X0016716Y0044582D02*
X0016719Y0044791D01*
X0016726Y0044999D01*
X0016739Y0045207D01*
X0016757Y0045415D01*
X0016780Y0045622D01*
X0016808Y0045829D01*
X0016841Y0046035D01*
X0016879Y0046240D01*
X0016923Y0046444D01*
X0016971Y0046647D01*
X0017024Y0046849D01*
X0017082Y0047049D01*
X0017145Y0047248D01*
X0017213Y0047446D01*
X0017286Y0047641D01*
X0017363Y0047835D01*
X0017445Y0048027D01*
X0017532Y0048216D01*
X0017624Y0048404D01*
X0017720Y0048589D01*
X0017820Y0048772D01*
X0017925Y0048952D01*
X0018035Y0049129D01*
X0018149Y0049304D01*
X0018267Y0049476D01*
X0018389Y0049645D01*
X0018515Y0049811D01*
X0018645Y0049974D01*
X0018780Y0050134D01*
X0018918Y0050290D01*
X0019060Y0050443D01*
X0019206Y0050592D01*
X0019355Y0050738D01*
X0019508Y0050880D01*
X0019664Y0051018D01*
X0019824Y0051153D01*
X0019987Y0051283D01*
X0020153Y0051409D01*
X0020322Y0051531D01*
X0020494Y0051649D01*
X0020669Y0051763D01*
X0020846Y0051873D01*
X0021026Y0051978D01*
X0021209Y0052078D01*
X0021394Y0052174D01*
X0021582Y0052266D01*
X0021771Y0052353D01*
X0021963Y0052435D01*
X0022157Y0052512D01*
X0022352Y0052585D01*
X0022550Y0052653D01*
X0022749Y0052716D01*
X0022949Y0052774D01*
X0023151Y0052827D01*
X0023354Y0052875D01*
X0023558Y0052919D01*
X0023763Y0052957D01*
X0023969Y0052990D01*
X0024176Y0053018D01*
X0024383Y0053041D01*
X0024591Y0053059D01*
X0024799Y0053072D01*
X0025007Y0053079D01*
X0025216Y0053082D01*
X0025425Y0053079D01*
X0025633Y0053072D01*
X0025841Y0053059D01*
X0026049Y0053041D01*
X0026256Y0053018D01*
X0026463Y0052990D01*
X0026669Y0052957D01*
X0026874Y0052919D01*
X0027078Y0052875D01*
X0027281Y0052827D01*
X0027483Y0052774D01*
X0027683Y0052716D01*
X0027882Y0052653D01*
X0028080Y0052585D01*
X0028275Y0052512D01*
X0028469Y0052435D01*
X0028661Y0052353D01*
X0028850Y0052266D01*
X0029038Y0052174D01*
X0029223Y0052078D01*
X0029406Y0051978D01*
X0029586Y0051873D01*
X0029763Y0051763D01*
X0029938Y0051649D01*
X0030110Y0051531D01*
X0030279Y0051409D01*
X0030445Y0051283D01*
X0030608Y0051153D01*
X0030768Y0051018D01*
X0030924Y0050880D01*
X0031077Y0050738D01*
X0031226Y0050592D01*
X0031372Y0050443D01*
X0031514Y0050290D01*
X0031652Y0050134D01*
X0031787Y0049974D01*
X0031917Y0049811D01*
X0032043Y0049645D01*
X0032165Y0049476D01*
X0032283Y0049304D01*
X0032397Y0049129D01*
X0032507Y0048952D01*
X0032612Y0048772D01*
X0032712Y0048589D01*
X0032808Y0048404D01*
X0032900Y0048216D01*
X0032987Y0048027D01*
X0033069Y0047835D01*
X0033146Y0047641D01*
X0033219Y0047446D01*
X0033287Y0047248D01*
X0033350Y0047049D01*
X0033408Y0046849D01*
X0033461Y0046647D01*
X0033509Y0046444D01*
X0033553Y0046240D01*
X0033591Y0046035D01*
X0033624Y0045829D01*
X0033652Y0045622D01*
X0033675Y0045415D01*
X0033693Y0045207D01*
X0033706Y0044999D01*
X0033713Y0044791D01*
X0033716Y0044582D01*
X0033713Y0044373D01*
X0033706Y0044165D01*
X0033693Y0043957D01*
X0033675Y0043749D01*
X0033652Y0043542D01*
X0033624Y0043335D01*
X0033591Y0043129D01*
X0033553Y0042924D01*
X0033509Y0042720D01*
X0033461Y0042517D01*
X0033408Y0042315D01*
X0033350Y0042115D01*
X0033287Y0041916D01*
X0033219Y0041718D01*
X0033146Y0041523D01*
X0033069Y0041329D01*
X0032987Y0041137D01*
X0032900Y0040948D01*
X0032808Y0040760D01*
X0032712Y0040575D01*
X0032612Y0040392D01*
X0032507Y0040212D01*
X0032397Y0040035D01*
X0032283Y0039860D01*
X0032165Y0039688D01*
X0032043Y0039519D01*
X0031917Y0039353D01*
X0031787Y0039190D01*
X0031652Y0039030D01*
X0031514Y0038874D01*
X0031372Y0038721D01*
X0031226Y0038572D01*
X0031077Y0038426D01*
X0030924Y0038284D01*
X0030768Y0038146D01*
X0030608Y0038011D01*
X0030445Y0037881D01*
X0030279Y0037755D01*
X0030110Y0037633D01*
X0029938Y0037515D01*
X0029763Y0037401D01*
X0029586Y0037291D01*
X0029406Y0037186D01*
X0029223Y0037086D01*
X0029038Y0036990D01*
X0028850Y0036898D01*
X0028661Y0036811D01*
X0028469Y0036729D01*
X0028275Y0036652D01*
X0028080Y0036579D01*
X0027882Y0036511D01*
X0027683Y0036448D01*
X0027483Y0036390D01*
X0027281Y0036337D01*
X0027078Y0036289D01*
X0026874Y0036245D01*
X0026669Y0036207D01*
X0026463Y0036174D01*
X0026256Y0036146D01*
X0026049Y0036123D01*
X0025841Y0036105D01*
X0025633Y0036092D01*
X0025425Y0036085D01*
X0025216Y0036082D01*
X0025007Y0036085D01*
X0024799Y0036092D01*
X0024591Y0036105D01*
X0024383Y0036123D01*
X0024176Y0036146D01*
X0023969Y0036174D01*
X0023763Y0036207D01*
X0023558Y0036245D01*
X0023354Y0036289D01*
X0023151Y0036337D01*
X0022949Y0036390D01*
X0022749Y0036448D01*
X0022550Y0036511D01*
X0022352Y0036579D01*
X0022157Y0036652D01*
X0021963Y0036729D01*
X0021771Y0036811D01*
X0021582Y0036898D01*
X0021394Y0036990D01*
X0021209Y0037086D01*
X0021026Y0037186D01*
X0020846Y0037291D01*
X0020669Y0037401D01*
X0020494Y0037515D01*
X0020322Y0037633D01*
X0020153Y0037755D01*
X0019987Y0037881D01*
X0019824Y0038011D01*
X0019664Y0038146D01*
X0019508Y0038284D01*
X0019355Y0038426D01*
X0019206Y0038572D01*
X0019060Y0038721D01*
X0018918Y0038874D01*
X0018780Y0039030D01*
X0018645Y0039190D01*
X0018515Y0039353D01*
X0018389Y0039519D01*
X0018267Y0039688D01*
X0018149Y0039860D01*
X0018035Y0040035D01*
X0017925Y0040212D01*
X0017820Y0040392D01*
X0017720Y0040575D01*
X0017624Y0040760D01*
X0017532Y0040948D01*
X0017445Y0041137D01*
X0017363Y0041329D01*
X0017286Y0041523D01*
X0017213Y0041718D01*
X0017145Y0041916D01*
X0017082Y0042115D01*
X0017024Y0042315D01*
X0016971Y0042517D01*
X0016923Y0042720D01*
X0016879Y0042924D01*
X0016841Y0043129D01*
X0016808Y0043335D01*
X0016780Y0043542D01*
X0016757Y0043749D01*
X0016739Y0043957D01*
X0016726Y0044165D01*
X0016719Y0044373D01*
X0016716Y0044582D01*
X0017716Y0032082D02*
X0015216Y0029582D01*
X0015216Y0024582D01*
X0017716Y0022082D01*
X0022716Y0022082D01*
X0025216Y0024582D01*
X0025216Y0029582D01*
X0022716Y0032082D01*
X0017716Y0032082D01*
X0030674Y0106181D02*
X0030674Y0108181D01*
X0030674Y0110681D02*
X0030674Y0112681D01*
X0029674Y0111681D02*
X0031674Y0111681D01*
X0016174Y0109681D02*
X0016177Y0109890D01*
X0016184Y0110098D01*
X0016197Y0110306D01*
X0016215Y0110514D01*
X0016238Y0110721D01*
X0016266Y0110928D01*
X0016299Y0111134D01*
X0016337Y0111339D01*
X0016381Y0111543D01*
X0016429Y0111746D01*
X0016482Y0111948D01*
X0016540Y0112148D01*
X0016603Y0112347D01*
X0016671Y0112545D01*
X0016744Y0112740D01*
X0016821Y0112934D01*
X0016903Y0113126D01*
X0016990Y0113315D01*
X0017082Y0113503D01*
X0017178Y0113688D01*
X0017278Y0113871D01*
X0017383Y0114051D01*
X0017493Y0114228D01*
X0017607Y0114403D01*
X0017725Y0114575D01*
X0017847Y0114744D01*
X0017973Y0114910D01*
X0018103Y0115073D01*
X0018238Y0115233D01*
X0018376Y0115389D01*
X0018518Y0115542D01*
X0018664Y0115691D01*
X0018813Y0115837D01*
X0018966Y0115979D01*
X0019122Y0116117D01*
X0019282Y0116252D01*
X0019445Y0116382D01*
X0019611Y0116508D01*
X0019780Y0116630D01*
X0019952Y0116748D01*
X0020127Y0116862D01*
X0020304Y0116972D01*
X0020484Y0117077D01*
X0020667Y0117177D01*
X0020852Y0117273D01*
X0021040Y0117365D01*
X0021229Y0117452D01*
X0021421Y0117534D01*
X0021615Y0117611D01*
X0021810Y0117684D01*
X0022008Y0117752D01*
X0022207Y0117815D01*
X0022407Y0117873D01*
X0022609Y0117926D01*
X0022812Y0117974D01*
X0023016Y0118018D01*
X0023221Y0118056D01*
X0023427Y0118089D01*
X0023634Y0118117D01*
X0023841Y0118140D01*
X0024049Y0118158D01*
X0024257Y0118171D01*
X0024465Y0118178D01*
X0024674Y0118181D01*
X0024883Y0118178D01*
X0025091Y0118171D01*
X0025299Y0118158D01*
X0025507Y0118140D01*
X0025714Y0118117D01*
X0025921Y0118089D01*
X0026127Y0118056D01*
X0026332Y0118018D01*
X0026536Y0117974D01*
X0026739Y0117926D01*
X0026941Y0117873D01*
X0027141Y0117815D01*
X0027340Y0117752D01*
X0027538Y0117684D01*
X0027733Y0117611D01*
X0027927Y0117534D01*
X0028119Y0117452D01*
X0028308Y0117365D01*
X0028496Y0117273D01*
X0028681Y0117177D01*
X0028864Y0117077D01*
X0029044Y0116972D01*
X0029221Y0116862D01*
X0029396Y0116748D01*
X0029568Y0116630D01*
X0029737Y0116508D01*
X0029903Y0116382D01*
X0030066Y0116252D01*
X0030226Y0116117D01*
X0030382Y0115979D01*
X0030535Y0115837D01*
X0030684Y0115691D01*
X0030830Y0115542D01*
X0030972Y0115389D01*
X0031110Y0115233D01*
X0031245Y0115073D01*
X0031375Y0114910D01*
X0031501Y0114744D01*
X0031623Y0114575D01*
X0031741Y0114403D01*
X0031855Y0114228D01*
X0031965Y0114051D01*
X0032070Y0113871D01*
X0032170Y0113688D01*
X0032266Y0113503D01*
X0032358Y0113315D01*
X0032445Y0113126D01*
X0032527Y0112934D01*
X0032604Y0112740D01*
X0032677Y0112545D01*
X0032745Y0112347D01*
X0032808Y0112148D01*
X0032866Y0111948D01*
X0032919Y0111746D01*
X0032967Y0111543D01*
X0033011Y0111339D01*
X0033049Y0111134D01*
X0033082Y0110928D01*
X0033110Y0110721D01*
X0033133Y0110514D01*
X0033151Y0110306D01*
X0033164Y0110098D01*
X0033171Y0109890D01*
X0033174Y0109681D01*
X0033171Y0109472D01*
X0033164Y0109264D01*
X0033151Y0109056D01*
X0033133Y0108848D01*
X0033110Y0108641D01*
X0033082Y0108434D01*
X0033049Y0108228D01*
X0033011Y0108023D01*
X0032967Y0107819D01*
X0032919Y0107616D01*
X0032866Y0107414D01*
X0032808Y0107214D01*
X0032745Y0107015D01*
X0032677Y0106817D01*
X0032604Y0106622D01*
X0032527Y0106428D01*
X0032445Y0106236D01*
X0032358Y0106047D01*
X0032266Y0105859D01*
X0032170Y0105674D01*
X0032070Y0105491D01*
X0031965Y0105311D01*
X0031855Y0105134D01*
X0031741Y0104959D01*
X0031623Y0104787D01*
X0031501Y0104618D01*
X0031375Y0104452D01*
X0031245Y0104289D01*
X0031110Y0104129D01*
X0030972Y0103973D01*
X0030830Y0103820D01*
X0030684Y0103671D01*
X0030535Y0103525D01*
X0030382Y0103383D01*
X0030226Y0103245D01*
X0030066Y0103110D01*
X0029903Y0102980D01*
X0029737Y0102854D01*
X0029568Y0102732D01*
X0029396Y0102614D01*
X0029221Y0102500D01*
X0029044Y0102390D01*
X0028864Y0102285D01*
X0028681Y0102185D01*
X0028496Y0102089D01*
X0028308Y0101997D01*
X0028119Y0101910D01*
X0027927Y0101828D01*
X0027733Y0101751D01*
X0027538Y0101678D01*
X0027340Y0101610D01*
X0027141Y0101547D01*
X0026941Y0101489D01*
X0026739Y0101436D01*
X0026536Y0101388D01*
X0026332Y0101344D01*
X0026127Y0101306D01*
X0025921Y0101273D01*
X0025714Y0101245D01*
X0025507Y0101222D01*
X0025299Y0101204D01*
X0025091Y0101191D01*
X0024883Y0101184D01*
X0024674Y0101181D01*
X0024465Y0101184D01*
X0024257Y0101191D01*
X0024049Y0101204D01*
X0023841Y0101222D01*
X0023634Y0101245D01*
X0023427Y0101273D01*
X0023221Y0101306D01*
X0023016Y0101344D01*
X0022812Y0101388D01*
X0022609Y0101436D01*
X0022407Y0101489D01*
X0022207Y0101547D01*
X0022008Y0101610D01*
X0021810Y0101678D01*
X0021615Y0101751D01*
X0021421Y0101828D01*
X0021229Y0101910D01*
X0021040Y0101997D01*
X0020852Y0102089D01*
X0020667Y0102185D01*
X0020484Y0102285D01*
X0020304Y0102390D01*
X0020127Y0102500D01*
X0019952Y0102614D01*
X0019780Y0102732D01*
X0019611Y0102854D01*
X0019445Y0102980D01*
X0019282Y0103110D01*
X0019122Y0103245D01*
X0018966Y0103383D01*
X0018813Y0103525D01*
X0018664Y0103671D01*
X0018518Y0103820D01*
X0018376Y0103973D01*
X0018238Y0104129D01*
X0018103Y0104289D01*
X0017973Y0104452D01*
X0017847Y0104618D01*
X0017725Y0104787D01*
X0017607Y0104959D01*
X0017493Y0105134D01*
X0017383Y0105311D01*
X0017278Y0105491D01*
X0017178Y0105674D01*
X0017082Y0105859D01*
X0016990Y0106047D01*
X0016903Y0106236D01*
X0016821Y0106428D01*
X0016744Y0106622D01*
X0016671Y0106817D01*
X0016603Y0107015D01*
X0016540Y0107214D01*
X0016482Y0107414D01*
X0016429Y0107616D01*
X0016381Y0107819D01*
X0016337Y0108023D01*
X0016299Y0108228D01*
X0016266Y0108434D01*
X0016238Y0108641D01*
X0016215Y0108848D01*
X0016197Y0109056D01*
X0016184Y0109264D01*
X0016177Y0109472D01*
X0016174Y0109681D01*
X0017716Y0119582D02*
X0015216Y0122082D01*
X0015216Y0127082D01*
X0017716Y0129582D01*
X0022716Y0129582D01*
X0025216Y0127082D01*
X0025216Y0122082D01*
X0022716Y0119582D01*
X0017716Y0119582D01*
D13*
X0089363Y0096432D02*
X0091415Y0098484D01*
X0091415Y0097116D01*
X0092783Y0097116D01*
X0090731Y0095064D01*
X0091446Y0094348D02*
X0092814Y0092980D01*
X0093872Y0092607D02*
X0095240Y0093975D01*
X0095924Y0093975D01*
X0096608Y0093291D01*
X0096608Y0092607D01*
X0095924Y0091923D02*
X0095240Y0091239D01*
X0094556Y0091239D01*
X0093872Y0091923D01*
X0093872Y0092607D01*
X0095240Y0092607D02*
X0095924Y0091923D01*
X0096639Y0091208D02*
X0098008Y0089839D01*
X0098350Y0090181D02*
X0096981Y0088813D01*
X0098039Y0088440D02*
X0098039Y0087756D01*
X0098723Y0087072D01*
X0099407Y0087072D01*
X0099749Y0087414D01*
X0099749Y0088098D01*
X0099407Y0088440D01*
X0099749Y0088098D02*
X0100433Y0088098D01*
X0100775Y0088440D01*
X0100775Y0089124D01*
X0100091Y0089808D01*
X0099407Y0089808D01*
X0098350Y0090181D02*
X0098350Y0091550D01*
X0096981Y0091550D01*
X0095613Y0090181D01*
X0099780Y0086014D02*
X0102517Y0086014D01*
X0102859Y0086356D01*
X0102859Y0087041D01*
X0102175Y0087725D01*
X0101490Y0087725D01*
X0099780Y0086014D02*
X0101148Y0084646D01*
X0102206Y0084273D02*
X0102548Y0084615D01*
X0103232Y0084615D01*
X0103916Y0083931D01*
X0103916Y0083247D01*
X0103574Y0082905D01*
X0102890Y0082905D01*
X0102206Y0083589D01*
X0102206Y0084273D01*
X0103232Y0084615D02*
X0103232Y0085299D01*
X0103574Y0085641D01*
X0104258Y0085641D01*
X0104942Y0084957D01*
X0104942Y0084273D01*
X0104600Y0083931D01*
X0103916Y0083931D01*
X0091446Y0094348D02*
X0093498Y0096401D01*
X0094867Y0095033D01*
X0093156Y0094691D02*
X0092472Y0095375D01*
X0146213Y0031739D02*
X0149116Y0031739D01*
X0149116Y0030772D02*
X0149116Y0032707D01*
X0147181Y0030772D02*
X0146213Y0031739D01*
X0146697Y0029760D02*
X0146213Y0029277D01*
X0146213Y0028309D01*
X0146697Y0027825D01*
X0148632Y0027825D01*
X0149116Y0028309D01*
X0149116Y0029277D01*
X0148632Y0029760D01*
X0148632Y0026814D02*
X0149116Y0026330D01*
X0149116Y0025363D01*
X0148632Y0024879D01*
X0146697Y0024879D01*
X0146213Y0025363D01*
X0146213Y0026330D01*
X0146697Y0026814D01*
X0146213Y0023867D02*
X0148148Y0023867D01*
X0149116Y0022900D01*
X0148148Y0021932D01*
X0146213Y0021932D01*
X0166213Y0022416D02*
X0166697Y0021932D01*
X0168632Y0021932D01*
X0169116Y0022416D01*
X0169116Y0023384D01*
X0168632Y0023867D01*
X0167665Y0023867D01*
X0167665Y0022900D01*
X0166697Y0023867D02*
X0166213Y0023384D01*
X0166213Y0022416D01*
X0166213Y0024879D02*
X0169116Y0026814D01*
X0166213Y0026814D01*
X0166213Y0027825D02*
X0166213Y0029277D01*
X0166697Y0029760D01*
X0168632Y0029760D01*
X0169116Y0029277D01*
X0169116Y0027825D01*
X0166213Y0027825D01*
X0166213Y0024879D02*
X0169116Y0024879D01*
X0169116Y0030772D02*
X0169116Y0032707D01*
X0169116Y0031739D02*
X0166213Y0031739D01*
X0167181Y0030772D01*
X0187463Y0029277D02*
X0187463Y0028309D01*
X0187947Y0027825D01*
X0189882Y0027825D01*
X0190366Y0028309D01*
X0190366Y0029277D01*
X0189882Y0029760D01*
X0187947Y0029760D01*
X0187463Y0029277D01*
X0189398Y0028793D02*
X0190366Y0029760D01*
X0190366Y0026814D02*
X0189398Y0025846D01*
X0189398Y0026330D02*
X0189398Y0024879D01*
X0190366Y0024879D02*
X0187463Y0024879D01*
X0187463Y0026330D01*
X0187947Y0026814D01*
X0188915Y0026814D01*
X0189398Y0026330D01*
X0187463Y0023867D02*
X0187463Y0021932D01*
X0190366Y0021932D01*
X0188915Y0021932D02*
X0188915Y0022900D01*
D14*
X0130216Y0072082D03*
X0130216Y0080645D03*
X0130216Y0088519D03*
X0128090Y0129582D03*
X0120216Y0129582D03*
X0112342Y0129582D03*
X0060590Y0129582D03*
X0052716Y0129582D03*
X0044842Y0129582D03*
X0037716Y0087830D03*
X0037716Y0079956D03*
X0037716Y0072082D03*
X0037716Y0064208D03*
X0037716Y0056334D03*
D15*
X0047696Y0085094D02*
X0047696Y0094543D01*
X0060295Y0094543D01*
X0060295Y0085094D01*
X0047696Y0085094D01*
X0048759Y0086669D02*
X0048761Y0086722D01*
X0048767Y0086775D01*
X0048777Y0086827D01*
X0048790Y0086878D01*
X0048808Y0086928D01*
X0048829Y0086977D01*
X0048854Y0087024D01*
X0048882Y0087068D01*
X0048914Y0087111D01*
X0048948Y0087151D01*
X0048986Y0087189D01*
X0049026Y0087223D01*
X0049069Y0087255D01*
X0049114Y0087283D01*
X0049160Y0087308D01*
X0049209Y0087329D01*
X0049259Y0087347D01*
X0049310Y0087360D01*
X0049362Y0087370D01*
X0049415Y0087376D01*
X0049468Y0087378D01*
X0049521Y0087376D01*
X0049574Y0087370D01*
X0049626Y0087360D01*
X0049677Y0087347D01*
X0049727Y0087329D01*
X0049776Y0087308D01*
X0049823Y0087283D01*
X0049867Y0087255D01*
X0049910Y0087223D01*
X0049950Y0087189D01*
X0049988Y0087151D01*
X0050022Y0087111D01*
X0050054Y0087068D01*
X0050082Y0087023D01*
X0050107Y0086977D01*
X0050128Y0086928D01*
X0050146Y0086878D01*
X0050159Y0086827D01*
X0050169Y0086775D01*
X0050175Y0086722D01*
X0050177Y0086669D01*
X0050175Y0086616D01*
X0050169Y0086563D01*
X0050159Y0086511D01*
X0050146Y0086460D01*
X0050128Y0086410D01*
X0050107Y0086361D01*
X0050082Y0086314D01*
X0050054Y0086270D01*
X0050022Y0086227D01*
X0049988Y0086187D01*
X0049950Y0086149D01*
X0049910Y0086115D01*
X0049867Y0086083D01*
X0049822Y0086055D01*
X0049776Y0086030D01*
X0049727Y0086009D01*
X0049677Y0085991D01*
X0049626Y0085978D01*
X0049574Y0085968D01*
X0049521Y0085962D01*
X0049468Y0085960D01*
X0049415Y0085962D01*
X0049362Y0085968D01*
X0049310Y0085978D01*
X0049259Y0085991D01*
X0049209Y0086009D01*
X0049160Y0086030D01*
X0049113Y0086055D01*
X0049069Y0086083D01*
X0049026Y0086115D01*
X0048986Y0086149D01*
X0048948Y0086187D01*
X0048914Y0086227D01*
X0048882Y0086270D01*
X0048854Y0086315D01*
X0048829Y0086361D01*
X0048808Y0086410D01*
X0048790Y0086460D01*
X0048777Y0086511D01*
X0048767Y0086563D01*
X0048761Y0086616D01*
X0048759Y0086669D01*
D16*
X0056385Y0098365D02*
X0057919Y0098365D01*
X0058687Y0099132D01*
X0060221Y0098365D02*
X0063291Y0098365D01*
X0061756Y0098365D02*
X0061756Y0102969D01*
X0060221Y0101434D01*
X0058687Y0102202D02*
X0057919Y0102969D01*
X0056385Y0102969D01*
X0055617Y0102202D01*
X0055617Y0099132D01*
X0056385Y0098365D01*
X0050429Y0103251D02*
X0049662Y0102484D01*
X0046593Y0102484D01*
X0045825Y0103251D01*
X0045825Y0104786D01*
X0046593Y0105553D01*
X0046593Y0107088D02*
X0045825Y0107855D01*
X0045825Y0109390D01*
X0046593Y0110157D01*
X0047360Y0110157D01*
X0050429Y0107088D01*
X0050429Y0110157D01*
X0049662Y0105553D02*
X0050429Y0104786D01*
X0050429Y0103251D01*
X0114854Y0051872D02*
X0115939Y0052957D01*
X0117024Y0052957D01*
X0117567Y0052415D01*
X0117567Y0051330D01*
X0118652Y0051330D01*
X0119195Y0050787D01*
X0119195Y0049702D01*
X0118109Y0048617D01*
X0117024Y0048617D01*
X0116482Y0046989D02*
X0114311Y0044819D01*
X0115397Y0045904D02*
X0112141Y0049159D01*
X0112141Y0046989D01*
X0110513Y0046446D02*
X0109428Y0046446D01*
X0108343Y0045361D01*
X0108343Y0044276D01*
X0110513Y0042106D01*
X0111599Y0042106D01*
X0112684Y0043191D01*
X0112684Y0044276D01*
X0114854Y0050787D02*
X0114854Y0051872D01*
X0117024Y0050787D02*
X0117567Y0051330D01*
X0147912Y0067592D02*
X0148679Y0066825D01*
X0151749Y0066825D01*
X0152516Y0067592D01*
X0152516Y0069126D01*
X0151749Y0069894D01*
X0151749Y0071428D02*
X0150981Y0071428D01*
X0150214Y0072196D01*
X0150214Y0073730D01*
X0150981Y0074498D01*
X0151749Y0074498D01*
X0152516Y0073730D01*
X0152516Y0072196D01*
X0151749Y0071428D01*
X0150214Y0072196D02*
X0149447Y0071428D01*
X0148679Y0071428D01*
X0147912Y0072196D01*
X0147912Y0073730D01*
X0148679Y0074498D01*
X0149447Y0074498D01*
X0150214Y0073730D01*
X0148679Y0069894D02*
X0147912Y0069126D01*
X0147912Y0067592D01*
X0181662Y0074325D02*
X0181662Y0076626D01*
X0182429Y0077394D01*
X0183964Y0077394D01*
X0184731Y0076626D01*
X0184731Y0074325D01*
X0184731Y0075859D02*
X0186266Y0077394D01*
X0185499Y0078928D02*
X0186266Y0079696D01*
X0186266Y0081230D01*
X0185499Y0081998D01*
X0184731Y0081998D01*
X0183964Y0081230D01*
X0183964Y0080463D01*
X0183964Y0081230D02*
X0183197Y0081998D01*
X0182429Y0081998D01*
X0181662Y0081230D01*
X0181662Y0079696D01*
X0182429Y0078928D01*
X0181662Y0074325D02*
X0186266Y0074325D01*
X0192714Y0053706D02*
X0192714Y0050636D01*
X0190412Y0052938D01*
X0195016Y0052938D01*
X0195016Y0049102D02*
X0193481Y0047567D01*
X0193481Y0048334D02*
X0193481Y0046032D01*
X0195016Y0046032D02*
X0190412Y0046032D01*
X0190412Y0048334D01*
X0191179Y0049102D01*
X0192714Y0049102D01*
X0193481Y0048334D01*
X0058881Y0017082D02*
X0055812Y0017082D01*
X0057347Y0017082D02*
X0057347Y0021686D01*
X0055812Y0020152D01*
X0054277Y0020919D02*
X0053510Y0021686D01*
X0051975Y0021686D01*
X0051208Y0020919D01*
X0051208Y0017850D01*
X0051975Y0017082D01*
X0053510Y0017082D01*
X0054277Y0017850D01*
X0049673Y0017082D02*
X0048139Y0017082D01*
X0048906Y0017082D02*
X0048906Y0021686D01*
X0048139Y0021686D02*
X0049673Y0021686D01*
D17*
X0032166Y0021073D02*
X0032166Y0019571D01*
X0031415Y0018821D01*
X0028413Y0018821D01*
X0027662Y0019571D01*
X0027662Y0021073D01*
X0028413Y0021823D01*
X0029914Y0021823D02*
X0029914Y0020322D01*
X0029914Y0021823D02*
X0031415Y0021823D01*
X0032166Y0021073D01*
X0032166Y0023425D02*
X0027662Y0023425D01*
X0032166Y0026427D01*
X0027662Y0026427D01*
X0027662Y0028028D02*
X0027662Y0030280D01*
X0028413Y0031031D01*
X0031415Y0031031D01*
X0032166Y0030280D01*
X0032166Y0028028D01*
X0027662Y0028028D01*
X0017715Y0037521D02*
X0014713Y0037521D01*
X0013962Y0038271D01*
X0013962Y0039773D01*
X0014713Y0040523D01*
X0015463Y0042125D02*
X0013962Y0043626D01*
X0018466Y0043626D01*
X0018466Y0042125D02*
X0018466Y0045127D01*
X0018466Y0046728D02*
X0015463Y0049731D01*
X0014713Y0049731D01*
X0013962Y0048980D01*
X0013962Y0047479D01*
X0014713Y0046728D01*
X0018466Y0046728D02*
X0018466Y0049731D01*
X0017766Y0057032D02*
X0017766Y0058534D01*
X0017766Y0057783D02*
X0013262Y0057783D01*
X0013262Y0057032D02*
X0013262Y0058534D01*
X0014013Y0060102D02*
X0014763Y0060102D01*
X0015514Y0060852D01*
X0015514Y0062354D01*
X0016265Y0063104D01*
X0017015Y0063104D01*
X0017766Y0062354D01*
X0017766Y0060852D01*
X0017015Y0060102D01*
X0014013Y0060102D02*
X0013262Y0060852D01*
X0013262Y0062354D01*
X0014013Y0063104D01*
X0013262Y0064706D02*
X0013262Y0066958D01*
X0014013Y0067708D01*
X0015514Y0067708D01*
X0016265Y0066958D01*
X0016265Y0064706D01*
X0017766Y0064706D02*
X0013262Y0064706D01*
X0017715Y0040523D02*
X0018466Y0039773D01*
X0018466Y0038271D01*
X0017715Y0037521D01*
X0093962Y0036126D02*
X0095463Y0034625D01*
X0094713Y0033023D02*
X0093962Y0032273D01*
X0093962Y0030771D01*
X0094713Y0030021D01*
X0097715Y0030021D01*
X0098466Y0030771D01*
X0098466Y0032273D01*
X0097715Y0033023D01*
X0098466Y0034625D02*
X0098466Y0037627D01*
X0098466Y0036126D02*
X0093962Y0036126D01*
X0094713Y0039228D02*
X0093962Y0039979D01*
X0093962Y0041480D01*
X0094713Y0042231D01*
X0097715Y0039228D01*
X0098466Y0039979D01*
X0098466Y0041480D01*
X0097715Y0042231D01*
X0094713Y0042231D01*
X0094713Y0039228D02*
X0097715Y0039228D01*
X0115762Y0039639D02*
X0115762Y0036636D01*
X0118014Y0036636D01*
X0117263Y0038138D01*
X0117263Y0038888D01*
X0118014Y0039639D01*
X0119515Y0039639D01*
X0120266Y0038888D01*
X0120266Y0037387D01*
X0119515Y0036636D01*
X0118014Y0035035D02*
X0118014Y0032032D01*
X0116513Y0033534D02*
X0119515Y0033534D01*
X0118765Y0041240D02*
X0115762Y0041240D01*
X0118765Y0041240D02*
X0120266Y0042742D01*
X0118765Y0044243D01*
X0115762Y0044243D01*
X0168962Y0051082D02*
X0168962Y0052584D01*
X0168962Y0051833D02*
X0173466Y0051833D01*
X0173466Y0051082D02*
X0173466Y0052584D01*
X0172715Y0054152D02*
X0173466Y0054902D01*
X0173466Y0056404D01*
X0172715Y0057154D01*
X0173466Y0058756D02*
X0170463Y0061758D01*
X0169713Y0061758D01*
X0168962Y0061008D01*
X0168962Y0059506D01*
X0169713Y0058756D01*
X0169713Y0057154D02*
X0168962Y0056404D01*
X0168962Y0054902D01*
X0169713Y0054152D01*
X0172715Y0054152D01*
X0173466Y0058756D02*
X0173466Y0061758D01*
X0174013Y0089532D02*
X0177015Y0089532D01*
X0177766Y0090283D01*
X0177766Y0091784D01*
X0177015Y0092535D01*
X0177015Y0094136D02*
X0175514Y0094136D01*
X0175514Y0096388D01*
X0176265Y0097139D01*
X0177015Y0097139D01*
X0177766Y0096388D01*
X0177766Y0094887D01*
X0177015Y0094136D01*
X0175514Y0094136D02*
X0174013Y0095638D01*
X0173262Y0097139D01*
X0174013Y0092535D02*
X0173262Y0091784D01*
X0173262Y0090283D01*
X0174013Y0089532D01*
X0157766Y0090283D02*
X0157015Y0089532D01*
X0154013Y0089532D01*
X0153262Y0090283D01*
X0153262Y0091784D01*
X0154013Y0092535D01*
X0153262Y0094136D02*
X0153262Y0097139D01*
X0154013Y0097139D01*
X0157015Y0094136D01*
X0157766Y0094136D01*
X0157015Y0092535D02*
X0157766Y0091784D01*
X0157766Y0090283D01*
X0032166Y0117822D02*
X0030665Y0119323D01*
X0027662Y0119323D01*
X0028413Y0120925D02*
X0027662Y0121675D01*
X0027662Y0123176D01*
X0028413Y0123927D01*
X0028413Y0125528D02*
X0031415Y0125528D01*
X0032166Y0126279D01*
X0032166Y0127780D01*
X0031415Y0128531D01*
X0028413Y0128531D02*
X0027662Y0127780D01*
X0027662Y0126279D01*
X0028413Y0125528D01*
X0031415Y0123927D02*
X0032166Y0123176D01*
X0032166Y0121675D01*
X0031415Y0120925D01*
X0028413Y0120925D01*
X0032166Y0117822D02*
X0030665Y0116321D01*
X0027662Y0116321D01*
X0017174Y0102329D02*
X0015673Y0102329D01*
X0014922Y0101579D01*
X0014922Y0100828D01*
X0015673Y0099327D01*
X0013421Y0099327D01*
X0013421Y0102329D01*
X0017174Y0102329D02*
X0017924Y0101579D01*
X0017924Y0100078D01*
X0017174Y0099327D01*
X0017174Y0097726D02*
X0017924Y0096975D01*
X0017924Y0095474D01*
X0017174Y0094723D01*
X0014171Y0094723D01*
X0013421Y0095474D01*
X0013421Y0096975D01*
X0014171Y0097726D01*
D18*
X0048216Y0049984D02*
X0048216Y0024181D01*
X0062216Y0024181D01*
X0062216Y0049984D01*
X0048216Y0049984D01*
D19*
X0157447Y0049603D02*
X0157987Y0049603D01*
X0157986Y0049602D02*
X0157990Y0049533D01*
X0157998Y0049464D01*
X0158009Y0049395D01*
X0158024Y0049328D01*
X0158043Y0049261D01*
X0158066Y0049196D01*
X0158092Y0049132D01*
X0158122Y0049069D01*
X0158156Y0049008D01*
X0158193Y0048950D01*
X0158233Y0048893D01*
X0158276Y0048839D01*
X0158322Y0048787D01*
X0158371Y0048738D01*
X0158423Y0048692D01*
X0158477Y0048649D01*
X0158534Y0048609D01*
X0158592Y0048572D01*
X0158653Y0048538D01*
X0158716Y0048508D01*
X0158780Y0048482D01*
X0158845Y0048459D01*
X0158912Y0048440D01*
X0158979Y0048425D01*
X0159048Y0048414D01*
X0159117Y0048406D01*
X0159186Y0048402D01*
X0159187Y0047863D01*
X0159186Y0047862D01*
X0159104Y0047866D01*
X0159022Y0047873D01*
X0158940Y0047884D01*
X0158859Y0047898D01*
X0158778Y0047917D01*
X0158699Y0047939D01*
X0158621Y0047965D01*
X0158544Y0047995D01*
X0158468Y0048028D01*
X0158394Y0048064D01*
X0158322Y0048104D01*
X0158252Y0048147D01*
X0158184Y0048194D01*
X0158118Y0048244D01*
X0158055Y0048296D01*
X0157994Y0048352D01*
X0157936Y0048410D01*
X0157880Y0048471D01*
X0157828Y0048534D01*
X0157778Y0048600D01*
X0157731Y0048668D01*
X0157688Y0048738D01*
X0157648Y0048810D01*
X0157612Y0048884D01*
X0157579Y0048960D01*
X0157549Y0049037D01*
X0157523Y0049115D01*
X0157501Y0049194D01*
X0157482Y0049275D01*
X0157468Y0049356D01*
X0157457Y0049438D01*
X0157450Y0049520D01*
X0157446Y0049602D01*
X0157502Y0049602D01*
X0157506Y0049522D01*
X0157512Y0049443D01*
X0157523Y0049364D01*
X0157537Y0049285D01*
X0157555Y0049208D01*
X0157577Y0049131D01*
X0157602Y0049055D01*
X0157631Y0048981D01*
X0157663Y0048908D01*
X0157698Y0048836D01*
X0157737Y0048766D01*
X0157779Y0048698D01*
X0157824Y0048633D01*
X0157872Y0048569D01*
X0157922Y0048508D01*
X0157976Y0048449D01*
X0158033Y0048392D01*
X0158092Y0048338D01*
X0158153Y0048288D01*
X0158217Y0048240D01*
X0158282Y0048195D01*
X0158350Y0048153D01*
X0158420Y0048114D01*
X0158492Y0048079D01*
X0158565Y0048047D01*
X0158639Y0048018D01*
X0158715Y0047993D01*
X0158792Y0047971D01*
X0158869Y0047953D01*
X0158948Y0047939D01*
X0159027Y0047928D01*
X0159106Y0047922D01*
X0159186Y0047918D01*
X0159186Y0047974D01*
X0159107Y0047978D01*
X0159027Y0047985D01*
X0158949Y0047996D01*
X0158871Y0048010D01*
X0158793Y0048029D01*
X0158717Y0048051D01*
X0158642Y0048077D01*
X0158568Y0048106D01*
X0158495Y0048139D01*
X0158425Y0048175D01*
X0158356Y0048215D01*
X0158289Y0048258D01*
X0158224Y0048304D01*
X0158161Y0048353D01*
X0158101Y0048405D01*
X0158044Y0048460D01*
X0157989Y0048517D01*
X0157937Y0048577D01*
X0157888Y0048640D01*
X0157842Y0048705D01*
X0157799Y0048772D01*
X0157759Y0048841D01*
X0157723Y0048911D01*
X0157690Y0048984D01*
X0157661Y0049058D01*
X0157635Y0049133D01*
X0157613Y0049209D01*
X0157594Y0049287D01*
X0157580Y0049365D01*
X0157569Y0049443D01*
X0157562Y0049523D01*
X0157558Y0049602D01*
X0157614Y0049602D01*
X0157618Y0049523D01*
X0157625Y0049444D01*
X0157636Y0049366D01*
X0157651Y0049288D01*
X0157670Y0049211D01*
X0157693Y0049135D01*
X0157720Y0049060D01*
X0157750Y0048987D01*
X0157783Y0048915D01*
X0157820Y0048845D01*
X0157861Y0048777D01*
X0157905Y0048711D01*
X0157952Y0048648D01*
X0158002Y0048586D01*
X0158056Y0048528D01*
X0158112Y0048472D01*
X0158170Y0048418D01*
X0158232Y0048368D01*
X0158295Y0048321D01*
X0158361Y0048277D01*
X0158429Y0048236D01*
X0158499Y0048199D01*
X0158571Y0048166D01*
X0158644Y0048136D01*
X0158719Y0048109D01*
X0158795Y0048086D01*
X0158872Y0048067D01*
X0158950Y0048052D01*
X0159028Y0048041D01*
X0159107Y0048034D01*
X0159186Y0048030D01*
X0159186Y0048086D01*
X0159110Y0048090D01*
X0159034Y0048097D01*
X0158958Y0048108D01*
X0158883Y0048122D01*
X0158809Y0048141D01*
X0158736Y0048163D01*
X0158664Y0048188D01*
X0158593Y0048217D01*
X0158524Y0048250D01*
X0158456Y0048285D01*
X0158391Y0048325D01*
X0158327Y0048367D01*
X0158266Y0048412D01*
X0158207Y0048461D01*
X0158150Y0048512D01*
X0158096Y0048566D01*
X0158045Y0048623D01*
X0157996Y0048682D01*
X0157951Y0048743D01*
X0157909Y0048807D01*
X0157869Y0048872D01*
X0157834Y0048940D01*
X0157801Y0049009D01*
X0157772Y0049080D01*
X0157747Y0049152D01*
X0157725Y0049225D01*
X0157706Y0049299D01*
X0157692Y0049374D01*
X0157681Y0049450D01*
X0157674Y0049526D01*
X0157670Y0049602D01*
X0157726Y0049602D01*
X0157730Y0049526D01*
X0157737Y0049450D01*
X0157748Y0049375D01*
X0157763Y0049301D01*
X0157782Y0049227D01*
X0157805Y0049154D01*
X0157831Y0049083D01*
X0157861Y0049013D01*
X0157894Y0048945D01*
X0157931Y0048878D01*
X0157971Y0048814D01*
X0158014Y0048751D01*
X0158061Y0048691D01*
X0158110Y0048634D01*
X0158162Y0048578D01*
X0158218Y0048526D01*
X0158275Y0048477D01*
X0158335Y0048430D01*
X0158398Y0048387D01*
X0158462Y0048347D01*
X0158529Y0048310D01*
X0158597Y0048277D01*
X0158667Y0048247D01*
X0158738Y0048221D01*
X0158811Y0048198D01*
X0158885Y0048179D01*
X0158959Y0048164D01*
X0159034Y0048153D01*
X0159110Y0048146D01*
X0159186Y0048142D01*
X0159186Y0048198D01*
X0159110Y0048202D01*
X0159035Y0048209D01*
X0158961Y0048221D01*
X0158887Y0048236D01*
X0158813Y0048256D01*
X0158741Y0048279D01*
X0158671Y0048306D01*
X0158602Y0048336D01*
X0158534Y0048370D01*
X0158469Y0048408D01*
X0158405Y0048449D01*
X0158344Y0048494D01*
X0158285Y0048541D01*
X0158229Y0048592D01*
X0158176Y0048645D01*
X0158125Y0048701D01*
X0158078Y0048760D01*
X0158033Y0048821D01*
X0157992Y0048885D01*
X0157954Y0048950D01*
X0157920Y0049018D01*
X0157890Y0049087D01*
X0157863Y0049157D01*
X0157840Y0049229D01*
X0157820Y0049303D01*
X0157805Y0049377D01*
X0157793Y0049451D01*
X0157786Y0049526D01*
X0157782Y0049602D01*
X0157838Y0049602D01*
X0157842Y0049530D01*
X0157849Y0049457D01*
X0157860Y0049386D01*
X0157875Y0049315D01*
X0157894Y0049244D01*
X0157916Y0049175D01*
X0157942Y0049108D01*
X0157971Y0049041D01*
X0158004Y0048977D01*
X0158040Y0048914D01*
X0158080Y0048853D01*
X0158122Y0048794D01*
X0158168Y0048738D01*
X0158216Y0048684D01*
X0158268Y0048632D01*
X0158322Y0048584D01*
X0158378Y0048538D01*
X0158437Y0048496D01*
X0158498Y0048456D01*
X0158561Y0048420D01*
X0158625Y0048387D01*
X0158692Y0048358D01*
X0158759Y0048332D01*
X0158828Y0048310D01*
X0158899Y0048291D01*
X0158970Y0048276D01*
X0159041Y0048265D01*
X0159114Y0048258D01*
X0159186Y0048254D01*
X0159186Y0048310D01*
X0159114Y0048314D01*
X0159042Y0048321D01*
X0158971Y0048333D01*
X0158901Y0048348D01*
X0158832Y0048367D01*
X0158763Y0048390D01*
X0158696Y0048416D01*
X0158631Y0048447D01*
X0158567Y0048480D01*
X0158505Y0048517D01*
X0158446Y0048558D01*
X0158388Y0048601D01*
X0158333Y0048648D01*
X0158281Y0048697D01*
X0158232Y0048749D01*
X0158185Y0048804D01*
X0158142Y0048862D01*
X0158101Y0048921D01*
X0158064Y0048983D01*
X0158031Y0049047D01*
X0158000Y0049112D01*
X0157974Y0049179D01*
X0157951Y0049248D01*
X0157932Y0049317D01*
X0157917Y0049387D01*
X0157905Y0049458D01*
X0157898Y0049530D01*
X0157894Y0049602D01*
X0157950Y0049602D01*
X0157954Y0049533D01*
X0157961Y0049465D01*
X0157972Y0049397D01*
X0157987Y0049329D01*
X0158005Y0049263D01*
X0158027Y0049198D01*
X0158052Y0049134D01*
X0158081Y0049071D01*
X0158113Y0049010D01*
X0158149Y0048951D01*
X0158187Y0048894D01*
X0158229Y0048839D01*
X0158273Y0048787D01*
X0158321Y0048737D01*
X0158371Y0048689D01*
X0158423Y0048645D01*
X0158478Y0048603D01*
X0158535Y0048565D01*
X0158594Y0048529D01*
X0158655Y0048497D01*
X0158718Y0048468D01*
X0158782Y0048443D01*
X0158847Y0048421D01*
X0158913Y0048403D01*
X0158981Y0048388D01*
X0159049Y0048377D01*
X0159117Y0048370D01*
X0159186Y0048366D01*
X0159187Y0063801D02*
X0159187Y0063261D01*
X0159186Y0063262D02*
X0159117Y0063258D01*
X0159048Y0063250D01*
X0158979Y0063239D01*
X0158912Y0063224D01*
X0158845Y0063205D01*
X0158780Y0063182D01*
X0158716Y0063156D01*
X0158653Y0063126D01*
X0158592Y0063092D01*
X0158534Y0063055D01*
X0158477Y0063015D01*
X0158423Y0062972D01*
X0158371Y0062926D01*
X0158322Y0062877D01*
X0158276Y0062825D01*
X0158233Y0062771D01*
X0158193Y0062714D01*
X0158156Y0062656D01*
X0158122Y0062595D01*
X0158092Y0062532D01*
X0158066Y0062468D01*
X0158043Y0062403D01*
X0158024Y0062336D01*
X0158009Y0062269D01*
X0157998Y0062200D01*
X0157990Y0062131D01*
X0157986Y0062062D01*
X0157447Y0062061D01*
X0157446Y0062062D01*
X0157450Y0062144D01*
X0157457Y0062226D01*
X0157468Y0062308D01*
X0157482Y0062389D01*
X0157501Y0062470D01*
X0157523Y0062549D01*
X0157549Y0062627D01*
X0157579Y0062704D01*
X0157612Y0062780D01*
X0157648Y0062854D01*
X0157688Y0062926D01*
X0157731Y0062996D01*
X0157778Y0063064D01*
X0157828Y0063130D01*
X0157880Y0063193D01*
X0157936Y0063254D01*
X0157994Y0063312D01*
X0158055Y0063368D01*
X0158118Y0063420D01*
X0158184Y0063470D01*
X0158252Y0063517D01*
X0158322Y0063560D01*
X0158394Y0063600D01*
X0158468Y0063636D01*
X0158544Y0063669D01*
X0158621Y0063699D01*
X0158699Y0063725D01*
X0158778Y0063747D01*
X0158859Y0063766D01*
X0158940Y0063780D01*
X0159022Y0063791D01*
X0159104Y0063798D01*
X0159186Y0063802D01*
X0159186Y0063746D01*
X0159106Y0063742D01*
X0159027Y0063736D01*
X0158948Y0063725D01*
X0158869Y0063711D01*
X0158792Y0063693D01*
X0158715Y0063671D01*
X0158639Y0063646D01*
X0158565Y0063617D01*
X0158492Y0063585D01*
X0158420Y0063550D01*
X0158350Y0063511D01*
X0158282Y0063469D01*
X0158217Y0063424D01*
X0158153Y0063376D01*
X0158092Y0063326D01*
X0158033Y0063272D01*
X0157976Y0063215D01*
X0157922Y0063156D01*
X0157872Y0063095D01*
X0157824Y0063031D01*
X0157779Y0062966D01*
X0157737Y0062898D01*
X0157698Y0062828D01*
X0157663Y0062756D01*
X0157631Y0062683D01*
X0157602Y0062609D01*
X0157577Y0062533D01*
X0157555Y0062456D01*
X0157537Y0062379D01*
X0157523Y0062300D01*
X0157512Y0062221D01*
X0157506Y0062142D01*
X0157502Y0062062D01*
X0157558Y0062062D01*
X0157562Y0062141D01*
X0157569Y0062221D01*
X0157580Y0062299D01*
X0157594Y0062377D01*
X0157613Y0062455D01*
X0157635Y0062531D01*
X0157661Y0062606D01*
X0157690Y0062680D01*
X0157723Y0062753D01*
X0157759Y0062823D01*
X0157799Y0062892D01*
X0157842Y0062959D01*
X0157888Y0063024D01*
X0157937Y0063087D01*
X0157989Y0063147D01*
X0158044Y0063204D01*
X0158101Y0063259D01*
X0158161Y0063311D01*
X0158224Y0063360D01*
X0158289Y0063406D01*
X0158356Y0063449D01*
X0158425Y0063489D01*
X0158495Y0063525D01*
X0158568Y0063558D01*
X0158642Y0063587D01*
X0158717Y0063613D01*
X0158793Y0063635D01*
X0158871Y0063654D01*
X0158949Y0063668D01*
X0159027Y0063679D01*
X0159107Y0063686D01*
X0159186Y0063690D01*
X0159186Y0063634D01*
X0159107Y0063630D01*
X0159028Y0063623D01*
X0158950Y0063612D01*
X0158872Y0063597D01*
X0158795Y0063578D01*
X0158719Y0063555D01*
X0158644Y0063528D01*
X0158571Y0063498D01*
X0158499Y0063465D01*
X0158429Y0063428D01*
X0158361Y0063387D01*
X0158295Y0063343D01*
X0158232Y0063296D01*
X0158170Y0063246D01*
X0158112Y0063192D01*
X0158056Y0063136D01*
X0158002Y0063078D01*
X0157952Y0063016D01*
X0157905Y0062953D01*
X0157861Y0062887D01*
X0157820Y0062819D01*
X0157783Y0062749D01*
X0157750Y0062677D01*
X0157720Y0062604D01*
X0157693Y0062529D01*
X0157670Y0062453D01*
X0157651Y0062376D01*
X0157636Y0062298D01*
X0157625Y0062220D01*
X0157618Y0062141D01*
X0157614Y0062062D01*
X0157670Y0062062D01*
X0157674Y0062138D01*
X0157681Y0062214D01*
X0157692Y0062290D01*
X0157706Y0062365D01*
X0157725Y0062439D01*
X0157747Y0062512D01*
X0157772Y0062584D01*
X0157801Y0062655D01*
X0157834Y0062724D01*
X0157869Y0062792D01*
X0157909Y0062857D01*
X0157951Y0062921D01*
X0157996Y0062982D01*
X0158045Y0063041D01*
X0158096Y0063098D01*
X0158150Y0063152D01*
X0158207Y0063203D01*
X0158266Y0063252D01*
X0158327Y0063297D01*
X0158391Y0063339D01*
X0158456Y0063379D01*
X0158524Y0063414D01*
X0158593Y0063447D01*
X0158664Y0063476D01*
X0158736Y0063501D01*
X0158809Y0063523D01*
X0158883Y0063542D01*
X0158958Y0063556D01*
X0159034Y0063567D01*
X0159110Y0063574D01*
X0159186Y0063578D01*
X0159186Y0063522D01*
X0159110Y0063518D01*
X0159034Y0063511D01*
X0158959Y0063500D01*
X0158885Y0063485D01*
X0158811Y0063466D01*
X0158738Y0063443D01*
X0158667Y0063417D01*
X0158597Y0063387D01*
X0158529Y0063354D01*
X0158462Y0063317D01*
X0158398Y0063277D01*
X0158335Y0063234D01*
X0158275Y0063187D01*
X0158218Y0063138D01*
X0158162Y0063086D01*
X0158110Y0063030D01*
X0158061Y0062973D01*
X0158014Y0062913D01*
X0157971Y0062850D01*
X0157931Y0062786D01*
X0157894Y0062719D01*
X0157861Y0062651D01*
X0157831Y0062581D01*
X0157805Y0062510D01*
X0157782Y0062437D01*
X0157763Y0062363D01*
X0157748Y0062289D01*
X0157737Y0062214D01*
X0157730Y0062138D01*
X0157726Y0062062D01*
X0157782Y0062062D01*
X0157786Y0062138D01*
X0157793Y0062213D01*
X0157805Y0062287D01*
X0157820Y0062361D01*
X0157840Y0062435D01*
X0157863Y0062507D01*
X0157890Y0062577D01*
X0157920Y0062646D01*
X0157954Y0062714D01*
X0157992Y0062779D01*
X0158033Y0062843D01*
X0158078Y0062904D01*
X0158125Y0062963D01*
X0158176Y0063019D01*
X0158229Y0063072D01*
X0158285Y0063123D01*
X0158344Y0063170D01*
X0158405Y0063215D01*
X0158469Y0063256D01*
X0158534Y0063294D01*
X0158602Y0063328D01*
X0158671Y0063358D01*
X0158741Y0063385D01*
X0158813Y0063408D01*
X0158887Y0063428D01*
X0158961Y0063443D01*
X0159035Y0063455D01*
X0159110Y0063462D01*
X0159186Y0063466D01*
X0159186Y0063410D01*
X0159114Y0063406D01*
X0159041Y0063399D01*
X0158970Y0063388D01*
X0158899Y0063373D01*
X0158828Y0063354D01*
X0158759Y0063332D01*
X0158692Y0063306D01*
X0158625Y0063277D01*
X0158561Y0063244D01*
X0158498Y0063208D01*
X0158437Y0063168D01*
X0158378Y0063126D01*
X0158322Y0063080D01*
X0158268Y0063032D01*
X0158216Y0062980D01*
X0158168Y0062926D01*
X0158122Y0062870D01*
X0158080Y0062811D01*
X0158040Y0062750D01*
X0158004Y0062687D01*
X0157971Y0062623D01*
X0157942Y0062556D01*
X0157916Y0062489D01*
X0157894Y0062420D01*
X0157875Y0062349D01*
X0157860Y0062278D01*
X0157849Y0062207D01*
X0157842Y0062134D01*
X0157838Y0062062D01*
X0157894Y0062062D01*
X0157898Y0062134D01*
X0157905Y0062206D01*
X0157917Y0062277D01*
X0157932Y0062347D01*
X0157951Y0062416D01*
X0157974Y0062485D01*
X0158000Y0062552D01*
X0158031Y0062617D01*
X0158064Y0062681D01*
X0158101Y0062743D01*
X0158142Y0062802D01*
X0158185Y0062860D01*
X0158232Y0062915D01*
X0158281Y0062967D01*
X0158333Y0063016D01*
X0158388Y0063063D01*
X0158446Y0063106D01*
X0158505Y0063147D01*
X0158567Y0063184D01*
X0158631Y0063217D01*
X0158696Y0063248D01*
X0158763Y0063274D01*
X0158832Y0063297D01*
X0158901Y0063316D01*
X0158971Y0063331D01*
X0159042Y0063343D01*
X0159114Y0063350D01*
X0159186Y0063354D01*
X0159186Y0063298D01*
X0159117Y0063294D01*
X0159049Y0063287D01*
X0158981Y0063276D01*
X0158913Y0063261D01*
X0158847Y0063243D01*
X0158782Y0063221D01*
X0158718Y0063196D01*
X0158655Y0063167D01*
X0158594Y0063135D01*
X0158535Y0063099D01*
X0158478Y0063061D01*
X0158423Y0063019D01*
X0158371Y0062975D01*
X0158321Y0062927D01*
X0158273Y0062877D01*
X0158229Y0062825D01*
X0158187Y0062770D01*
X0158149Y0062713D01*
X0158113Y0062654D01*
X0158081Y0062593D01*
X0158052Y0062530D01*
X0158027Y0062466D01*
X0158005Y0062401D01*
X0157987Y0062335D01*
X0157972Y0062267D01*
X0157961Y0062199D01*
X0157954Y0062131D01*
X0157950Y0062062D01*
X0192985Y0062061D02*
X0192445Y0062061D01*
X0192446Y0062062D02*
X0192442Y0062131D01*
X0192434Y0062200D01*
X0192423Y0062269D01*
X0192408Y0062336D01*
X0192389Y0062403D01*
X0192366Y0062468D01*
X0192340Y0062532D01*
X0192310Y0062595D01*
X0192276Y0062656D01*
X0192239Y0062714D01*
X0192199Y0062771D01*
X0192156Y0062825D01*
X0192110Y0062877D01*
X0192061Y0062926D01*
X0192009Y0062972D01*
X0191955Y0063015D01*
X0191898Y0063055D01*
X0191840Y0063092D01*
X0191779Y0063126D01*
X0191716Y0063156D01*
X0191652Y0063182D01*
X0191587Y0063205D01*
X0191520Y0063224D01*
X0191453Y0063239D01*
X0191384Y0063250D01*
X0191315Y0063258D01*
X0191246Y0063262D01*
X0191245Y0063801D01*
X0191246Y0063802D01*
X0191328Y0063798D01*
X0191410Y0063791D01*
X0191492Y0063780D01*
X0191573Y0063766D01*
X0191654Y0063747D01*
X0191733Y0063725D01*
X0191811Y0063699D01*
X0191888Y0063669D01*
X0191964Y0063636D01*
X0192038Y0063600D01*
X0192110Y0063560D01*
X0192180Y0063517D01*
X0192248Y0063470D01*
X0192314Y0063420D01*
X0192377Y0063368D01*
X0192438Y0063312D01*
X0192496Y0063254D01*
X0192552Y0063193D01*
X0192604Y0063130D01*
X0192654Y0063064D01*
X0192701Y0062996D01*
X0192744Y0062926D01*
X0192784Y0062854D01*
X0192820Y0062780D01*
X0192853Y0062704D01*
X0192883Y0062627D01*
X0192909Y0062549D01*
X0192931Y0062470D01*
X0192950Y0062389D01*
X0192964Y0062308D01*
X0192975Y0062226D01*
X0192982Y0062144D01*
X0192986Y0062062D01*
X0192930Y0062062D01*
X0192926Y0062142D01*
X0192920Y0062221D01*
X0192909Y0062300D01*
X0192895Y0062379D01*
X0192877Y0062456D01*
X0192855Y0062533D01*
X0192830Y0062609D01*
X0192801Y0062683D01*
X0192769Y0062756D01*
X0192734Y0062828D01*
X0192695Y0062898D01*
X0192653Y0062966D01*
X0192608Y0063031D01*
X0192560Y0063095D01*
X0192510Y0063156D01*
X0192456Y0063215D01*
X0192399Y0063272D01*
X0192340Y0063326D01*
X0192279Y0063376D01*
X0192215Y0063424D01*
X0192150Y0063469D01*
X0192082Y0063511D01*
X0192012Y0063550D01*
X0191940Y0063585D01*
X0191867Y0063617D01*
X0191793Y0063646D01*
X0191717Y0063671D01*
X0191640Y0063693D01*
X0191563Y0063711D01*
X0191484Y0063725D01*
X0191405Y0063736D01*
X0191326Y0063742D01*
X0191246Y0063746D01*
X0191246Y0063690D01*
X0191325Y0063686D01*
X0191405Y0063679D01*
X0191483Y0063668D01*
X0191561Y0063654D01*
X0191639Y0063635D01*
X0191715Y0063613D01*
X0191790Y0063587D01*
X0191864Y0063558D01*
X0191937Y0063525D01*
X0192007Y0063489D01*
X0192076Y0063449D01*
X0192143Y0063406D01*
X0192208Y0063360D01*
X0192271Y0063311D01*
X0192331Y0063259D01*
X0192388Y0063204D01*
X0192443Y0063147D01*
X0192495Y0063087D01*
X0192544Y0063024D01*
X0192590Y0062959D01*
X0192633Y0062892D01*
X0192673Y0062823D01*
X0192709Y0062753D01*
X0192742Y0062680D01*
X0192771Y0062606D01*
X0192797Y0062531D01*
X0192819Y0062455D01*
X0192838Y0062377D01*
X0192852Y0062299D01*
X0192863Y0062221D01*
X0192870Y0062141D01*
X0192874Y0062062D01*
X0192818Y0062062D01*
X0192814Y0062141D01*
X0192807Y0062220D01*
X0192796Y0062298D01*
X0192781Y0062376D01*
X0192762Y0062453D01*
X0192739Y0062529D01*
X0192712Y0062604D01*
X0192682Y0062677D01*
X0192649Y0062749D01*
X0192612Y0062819D01*
X0192571Y0062887D01*
X0192527Y0062953D01*
X0192480Y0063016D01*
X0192430Y0063078D01*
X0192376Y0063136D01*
X0192320Y0063192D01*
X0192262Y0063246D01*
X0192200Y0063296D01*
X0192137Y0063343D01*
X0192071Y0063387D01*
X0192003Y0063428D01*
X0191933Y0063465D01*
X0191861Y0063498D01*
X0191788Y0063528D01*
X0191713Y0063555D01*
X0191637Y0063578D01*
X0191560Y0063597D01*
X0191482Y0063612D01*
X0191404Y0063623D01*
X0191325Y0063630D01*
X0191246Y0063634D01*
X0191246Y0063578D01*
X0191322Y0063574D01*
X0191398Y0063567D01*
X0191474Y0063556D01*
X0191549Y0063542D01*
X0191623Y0063523D01*
X0191696Y0063501D01*
X0191768Y0063476D01*
X0191839Y0063447D01*
X0191908Y0063414D01*
X0191976Y0063379D01*
X0192041Y0063339D01*
X0192105Y0063297D01*
X0192166Y0063252D01*
X0192225Y0063203D01*
X0192282Y0063152D01*
X0192336Y0063098D01*
X0192387Y0063041D01*
X0192436Y0062982D01*
X0192481Y0062921D01*
X0192523Y0062857D01*
X0192563Y0062792D01*
X0192598Y0062724D01*
X0192631Y0062655D01*
X0192660Y0062584D01*
X0192685Y0062512D01*
X0192707Y0062439D01*
X0192726Y0062365D01*
X0192740Y0062290D01*
X0192751Y0062214D01*
X0192758Y0062138D01*
X0192762Y0062062D01*
X0192706Y0062062D01*
X0192702Y0062138D01*
X0192695Y0062214D01*
X0192684Y0062289D01*
X0192669Y0062363D01*
X0192650Y0062437D01*
X0192627Y0062510D01*
X0192601Y0062581D01*
X0192571Y0062651D01*
X0192538Y0062719D01*
X0192501Y0062786D01*
X0192461Y0062850D01*
X0192418Y0062913D01*
X0192371Y0062973D01*
X0192322Y0063030D01*
X0192270Y0063086D01*
X0192214Y0063138D01*
X0192157Y0063187D01*
X0192097Y0063234D01*
X0192034Y0063277D01*
X0191970Y0063317D01*
X0191903Y0063354D01*
X0191835Y0063387D01*
X0191765Y0063417D01*
X0191694Y0063443D01*
X0191621Y0063466D01*
X0191547Y0063485D01*
X0191473Y0063500D01*
X0191398Y0063511D01*
X0191322Y0063518D01*
X0191246Y0063522D01*
X0191246Y0063466D01*
X0191322Y0063462D01*
X0191397Y0063455D01*
X0191471Y0063443D01*
X0191545Y0063428D01*
X0191619Y0063408D01*
X0191691Y0063385D01*
X0191761Y0063358D01*
X0191830Y0063328D01*
X0191898Y0063294D01*
X0191963Y0063256D01*
X0192027Y0063215D01*
X0192088Y0063170D01*
X0192147Y0063123D01*
X0192203Y0063072D01*
X0192256Y0063019D01*
X0192307Y0062963D01*
X0192354Y0062904D01*
X0192399Y0062843D01*
X0192440Y0062779D01*
X0192478Y0062714D01*
X0192512Y0062646D01*
X0192542Y0062577D01*
X0192569Y0062507D01*
X0192592Y0062435D01*
X0192612Y0062361D01*
X0192627Y0062287D01*
X0192639Y0062213D01*
X0192646Y0062138D01*
X0192650Y0062062D01*
X0192594Y0062062D01*
X0192590Y0062134D01*
X0192583Y0062207D01*
X0192572Y0062278D01*
X0192557Y0062349D01*
X0192538Y0062420D01*
X0192516Y0062489D01*
X0192490Y0062556D01*
X0192461Y0062623D01*
X0192428Y0062687D01*
X0192392Y0062750D01*
X0192352Y0062811D01*
X0192310Y0062870D01*
X0192264Y0062926D01*
X0192216Y0062980D01*
X0192164Y0063032D01*
X0192110Y0063080D01*
X0192054Y0063126D01*
X0191995Y0063168D01*
X0191934Y0063208D01*
X0191871Y0063244D01*
X0191807Y0063277D01*
X0191740Y0063306D01*
X0191673Y0063332D01*
X0191604Y0063354D01*
X0191533Y0063373D01*
X0191462Y0063388D01*
X0191391Y0063399D01*
X0191318Y0063406D01*
X0191246Y0063410D01*
X0191246Y0063354D01*
X0191318Y0063350D01*
X0191390Y0063343D01*
X0191461Y0063331D01*
X0191531Y0063316D01*
X0191600Y0063297D01*
X0191669Y0063274D01*
X0191736Y0063248D01*
X0191801Y0063217D01*
X0191865Y0063184D01*
X0191927Y0063147D01*
X0191986Y0063106D01*
X0192044Y0063063D01*
X0192099Y0063016D01*
X0192151Y0062967D01*
X0192200Y0062915D01*
X0192247Y0062860D01*
X0192290Y0062802D01*
X0192331Y0062743D01*
X0192368Y0062681D01*
X0192401Y0062617D01*
X0192432Y0062552D01*
X0192458Y0062485D01*
X0192481Y0062416D01*
X0192500Y0062347D01*
X0192515Y0062277D01*
X0192527Y0062206D01*
X0192534Y0062134D01*
X0192538Y0062062D01*
X0192482Y0062062D01*
X0192478Y0062131D01*
X0192471Y0062199D01*
X0192460Y0062267D01*
X0192445Y0062335D01*
X0192427Y0062401D01*
X0192405Y0062466D01*
X0192380Y0062530D01*
X0192351Y0062593D01*
X0192319Y0062654D01*
X0192283Y0062713D01*
X0192245Y0062770D01*
X0192203Y0062825D01*
X0192159Y0062877D01*
X0192111Y0062927D01*
X0192061Y0062975D01*
X0192009Y0063019D01*
X0191954Y0063061D01*
X0191897Y0063099D01*
X0191838Y0063135D01*
X0191777Y0063167D01*
X0191714Y0063196D01*
X0191650Y0063221D01*
X0191585Y0063243D01*
X0191519Y0063261D01*
X0191451Y0063276D01*
X0191383Y0063287D01*
X0191315Y0063294D01*
X0191246Y0063298D01*
X0191245Y0047863D02*
X0191245Y0048403D01*
X0191246Y0048402D02*
X0191315Y0048406D01*
X0191384Y0048414D01*
X0191453Y0048425D01*
X0191520Y0048440D01*
X0191587Y0048459D01*
X0191652Y0048482D01*
X0191716Y0048508D01*
X0191779Y0048538D01*
X0191840Y0048572D01*
X0191898Y0048609D01*
X0191955Y0048649D01*
X0192009Y0048692D01*
X0192061Y0048738D01*
X0192110Y0048787D01*
X0192156Y0048839D01*
X0192199Y0048893D01*
X0192239Y0048950D01*
X0192276Y0049008D01*
X0192310Y0049069D01*
X0192340Y0049132D01*
X0192366Y0049196D01*
X0192389Y0049261D01*
X0192408Y0049328D01*
X0192423Y0049395D01*
X0192434Y0049464D01*
X0192442Y0049533D01*
X0192446Y0049602D01*
X0192985Y0049603D01*
X0192986Y0049602D01*
X0192982Y0049520D01*
X0192975Y0049438D01*
X0192964Y0049356D01*
X0192950Y0049275D01*
X0192931Y0049194D01*
X0192909Y0049115D01*
X0192883Y0049037D01*
X0192853Y0048960D01*
X0192820Y0048884D01*
X0192784Y0048810D01*
X0192744Y0048738D01*
X0192701Y0048668D01*
X0192654Y0048600D01*
X0192604Y0048534D01*
X0192552Y0048471D01*
X0192496Y0048410D01*
X0192438Y0048352D01*
X0192377Y0048296D01*
X0192314Y0048244D01*
X0192248Y0048194D01*
X0192180Y0048147D01*
X0192110Y0048104D01*
X0192038Y0048064D01*
X0191964Y0048028D01*
X0191888Y0047995D01*
X0191811Y0047965D01*
X0191733Y0047939D01*
X0191654Y0047917D01*
X0191573Y0047898D01*
X0191492Y0047884D01*
X0191410Y0047873D01*
X0191328Y0047866D01*
X0191246Y0047862D01*
X0191246Y0047918D01*
X0191326Y0047922D01*
X0191405Y0047928D01*
X0191484Y0047939D01*
X0191563Y0047953D01*
X0191640Y0047971D01*
X0191717Y0047993D01*
X0191793Y0048018D01*
X0191867Y0048047D01*
X0191940Y0048079D01*
X0192012Y0048114D01*
X0192082Y0048153D01*
X0192150Y0048195D01*
X0192215Y0048240D01*
X0192279Y0048288D01*
X0192340Y0048338D01*
X0192399Y0048392D01*
X0192456Y0048449D01*
X0192510Y0048508D01*
X0192560Y0048569D01*
X0192608Y0048633D01*
X0192653Y0048698D01*
X0192695Y0048766D01*
X0192734Y0048836D01*
X0192769Y0048908D01*
X0192801Y0048981D01*
X0192830Y0049055D01*
X0192855Y0049131D01*
X0192877Y0049208D01*
X0192895Y0049285D01*
X0192909Y0049364D01*
X0192920Y0049443D01*
X0192926Y0049522D01*
X0192930Y0049602D01*
X0192874Y0049602D01*
X0192870Y0049523D01*
X0192863Y0049443D01*
X0192852Y0049365D01*
X0192838Y0049287D01*
X0192819Y0049209D01*
X0192797Y0049133D01*
X0192771Y0049058D01*
X0192742Y0048984D01*
X0192709Y0048911D01*
X0192673Y0048841D01*
X0192633Y0048772D01*
X0192590Y0048705D01*
X0192544Y0048640D01*
X0192495Y0048577D01*
X0192443Y0048517D01*
X0192388Y0048460D01*
X0192331Y0048405D01*
X0192271Y0048353D01*
X0192208Y0048304D01*
X0192143Y0048258D01*
X0192076Y0048215D01*
X0192007Y0048175D01*
X0191937Y0048139D01*
X0191864Y0048106D01*
X0191790Y0048077D01*
X0191715Y0048051D01*
X0191639Y0048029D01*
X0191561Y0048010D01*
X0191483Y0047996D01*
X0191405Y0047985D01*
X0191325Y0047978D01*
X0191246Y0047974D01*
X0191246Y0048030D01*
X0191325Y0048034D01*
X0191404Y0048041D01*
X0191482Y0048052D01*
X0191560Y0048067D01*
X0191637Y0048086D01*
X0191713Y0048109D01*
X0191788Y0048136D01*
X0191861Y0048166D01*
X0191933Y0048199D01*
X0192003Y0048236D01*
X0192071Y0048277D01*
X0192137Y0048321D01*
X0192200Y0048368D01*
X0192262Y0048418D01*
X0192320Y0048472D01*
X0192376Y0048528D01*
X0192430Y0048586D01*
X0192480Y0048648D01*
X0192527Y0048711D01*
X0192571Y0048777D01*
X0192612Y0048845D01*
X0192649Y0048915D01*
X0192682Y0048987D01*
X0192712Y0049060D01*
X0192739Y0049135D01*
X0192762Y0049211D01*
X0192781Y0049288D01*
X0192796Y0049366D01*
X0192807Y0049444D01*
X0192814Y0049523D01*
X0192818Y0049602D01*
X0192762Y0049602D01*
X0192758Y0049526D01*
X0192751Y0049450D01*
X0192740Y0049374D01*
X0192726Y0049299D01*
X0192707Y0049225D01*
X0192685Y0049152D01*
X0192660Y0049080D01*
X0192631Y0049009D01*
X0192598Y0048940D01*
X0192563Y0048872D01*
X0192523Y0048807D01*
X0192481Y0048743D01*
X0192436Y0048682D01*
X0192387Y0048623D01*
X0192336Y0048566D01*
X0192282Y0048512D01*
X0192225Y0048461D01*
X0192166Y0048412D01*
X0192105Y0048367D01*
X0192041Y0048325D01*
X0191976Y0048285D01*
X0191908Y0048250D01*
X0191839Y0048217D01*
X0191768Y0048188D01*
X0191696Y0048163D01*
X0191623Y0048141D01*
X0191549Y0048122D01*
X0191474Y0048108D01*
X0191398Y0048097D01*
X0191322Y0048090D01*
X0191246Y0048086D01*
X0191246Y0048142D01*
X0191322Y0048146D01*
X0191398Y0048153D01*
X0191473Y0048164D01*
X0191547Y0048179D01*
X0191621Y0048198D01*
X0191694Y0048221D01*
X0191765Y0048247D01*
X0191835Y0048277D01*
X0191903Y0048310D01*
X0191970Y0048347D01*
X0192034Y0048387D01*
X0192097Y0048430D01*
X0192157Y0048477D01*
X0192214Y0048526D01*
X0192270Y0048578D01*
X0192322Y0048634D01*
X0192371Y0048691D01*
X0192418Y0048751D01*
X0192461Y0048814D01*
X0192501Y0048878D01*
X0192538Y0048945D01*
X0192571Y0049013D01*
X0192601Y0049083D01*
X0192627Y0049154D01*
X0192650Y0049227D01*
X0192669Y0049301D01*
X0192684Y0049375D01*
X0192695Y0049450D01*
X0192702Y0049526D01*
X0192706Y0049602D01*
X0192650Y0049602D01*
X0192646Y0049526D01*
X0192639Y0049451D01*
X0192627Y0049377D01*
X0192612Y0049303D01*
X0192592Y0049229D01*
X0192569Y0049157D01*
X0192542Y0049087D01*
X0192512Y0049018D01*
X0192478Y0048950D01*
X0192440Y0048885D01*
X0192399Y0048821D01*
X0192354Y0048760D01*
X0192307Y0048701D01*
X0192256Y0048645D01*
X0192203Y0048592D01*
X0192147Y0048541D01*
X0192088Y0048494D01*
X0192027Y0048449D01*
X0191963Y0048408D01*
X0191898Y0048370D01*
X0191830Y0048336D01*
X0191761Y0048306D01*
X0191691Y0048279D01*
X0191619Y0048256D01*
X0191545Y0048236D01*
X0191471Y0048221D01*
X0191397Y0048209D01*
X0191322Y0048202D01*
X0191246Y0048198D01*
X0191246Y0048254D01*
X0191318Y0048258D01*
X0191391Y0048265D01*
X0191462Y0048276D01*
X0191533Y0048291D01*
X0191604Y0048310D01*
X0191673Y0048332D01*
X0191740Y0048358D01*
X0191807Y0048387D01*
X0191871Y0048420D01*
X0191934Y0048456D01*
X0191995Y0048496D01*
X0192054Y0048538D01*
X0192110Y0048584D01*
X0192164Y0048632D01*
X0192216Y0048684D01*
X0192264Y0048738D01*
X0192310Y0048794D01*
X0192352Y0048853D01*
X0192392Y0048914D01*
X0192428Y0048977D01*
X0192461Y0049041D01*
X0192490Y0049108D01*
X0192516Y0049175D01*
X0192538Y0049244D01*
X0192557Y0049315D01*
X0192572Y0049386D01*
X0192583Y0049457D01*
X0192590Y0049530D01*
X0192594Y0049602D01*
X0192538Y0049602D01*
X0192534Y0049530D01*
X0192527Y0049458D01*
X0192515Y0049387D01*
X0192500Y0049317D01*
X0192481Y0049248D01*
X0192458Y0049179D01*
X0192432Y0049112D01*
X0192401Y0049047D01*
X0192368Y0048983D01*
X0192331Y0048921D01*
X0192290Y0048862D01*
X0192247Y0048804D01*
X0192200Y0048749D01*
X0192151Y0048697D01*
X0192099Y0048648D01*
X0192044Y0048601D01*
X0191986Y0048558D01*
X0191927Y0048517D01*
X0191865Y0048480D01*
X0191801Y0048447D01*
X0191736Y0048416D01*
X0191669Y0048390D01*
X0191600Y0048367D01*
X0191531Y0048348D01*
X0191461Y0048333D01*
X0191390Y0048321D01*
X0191318Y0048314D01*
X0191246Y0048310D01*
X0191246Y0048366D01*
X0191315Y0048370D01*
X0191383Y0048377D01*
X0191451Y0048388D01*
X0191519Y0048403D01*
X0191585Y0048421D01*
X0191650Y0048443D01*
X0191714Y0048468D01*
X0191777Y0048497D01*
X0191838Y0048529D01*
X0191897Y0048565D01*
X0191954Y0048603D01*
X0192009Y0048645D01*
X0192061Y0048689D01*
X0192111Y0048737D01*
X0192159Y0048787D01*
X0192203Y0048839D01*
X0192245Y0048894D01*
X0192283Y0048951D01*
X0192319Y0049010D01*
X0192351Y0049071D01*
X0192380Y0049134D01*
X0192405Y0049198D01*
X0192427Y0049263D01*
X0192445Y0049329D01*
X0192460Y0049397D01*
X0192471Y0049465D01*
X0192478Y0049533D01*
X0192482Y0049602D01*
D20*
X0192716Y0049532D02*
X0157716Y0049532D01*
M02*
