%
M48
M72
T01C0.01200
T02C0.03150
T03C0.03200
T04C0.04000
T05C0.12598
%
T01
X68966Y55332
X63116Y58482
X72116Y67932
X68516Y71532
X53666Y71982
X86966Y61632
X106766Y61632
X108116Y90882
X117566Y119232
T02
X120216Y129582
X128090Y129582
X112342Y129582
X60590Y129582
X52716Y129582
X44842Y129582
X37716Y87830
X37716Y79956
X37716Y72082
X37716Y64208
X37716Y56334
X130216Y72082
X130216Y80645
X130216Y88519
T03
X107716Y33582
X107716Y25582
X25216Y40582
X25216Y48582
X24674Y105681
X24674Y113681
T04
X20216Y27082
X25216Y62082
X25216Y72082
X25216Y82082
X25216Y92082
X20216Y124582
X127716Y34582
X127716Y24582
X155216Y25832
X175216Y25832
X196466Y25832
X185216Y94582
X165216Y94582
T05
X91456Y127319
X91456Y24956
M30
