G75*
%MOIN*%
%OFA0B0*%
%FSLAX25Y25*%
%IPPOS*%
%LPD*%
%AMOC8*
5,1,8,0,0,1.08239X$1,22.5*
%
%ADD10C,0.06165*%
%ADD11C,0.16339*%
%ADD12C,0.06890*%
%ADD13C,0.10591*%
%ADD14C,0.08465*%
%ADD15R,0.08465X0.08465*%
%ADD16C,0.12598*%
%ADD17R,0.07677X0.06890*%
%ADD18R,0.06890X0.07677*%
%ADD19OC8,0.05591*%
%ADD20C,0.05591*%
%ADD21C,0.05315*%
%ADD22R,0.02791X0.05291*%
%ADD23R,0.05291X0.02791*%
%ADD24OC8,0.05365*%
%ADD25R,0.06891X0.05191*%
%ADD26R,0.07200X0.00600*%
%ADD27R,0.07677X0.05315*%
%ADD28R,0.07689X0.06890*%
%ADD29R,0.06890X0.07689*%
%ADD30R,0.01575X0.03937*%
%ADD31R,0.03937X0.01575*%
%ADD32R,0.14370X0.14370*%
%ADD33R,0.05315X0.05315*%
%ADD34C,0.03471*%
%ADD35OC8,0.03471*%
%ADD36C,0.02953*%
%ADD37C,0.02972*%
%ADD38C,0.03172*%
D10*
X1110089Y0289465D02*
X1110089Y0295039D01*
X1120089Y0295039D02*
X1120089Y0289465D01*
X1314438Y0226275D02*
X1320012Y0226275D01*
X1340038Y0226275D02*
X1345612Y0226275D01*
X1345612Y0208475D02*
X1340038Y0208475D01*
X1340025Y0200162D02*
X1340025Y0194588D01*
X1330025Y0194588D02*
X1330025Y0200162D01*
X1320025Y0200162D02*
X1320025Y0194588D01*
X1320012Y0208475D02*
X1314438Y0208475D01*
X1315313Y0177380D02*
X1320888Y0177380D01*
X1334802Y0173310D02*
X1340376Y0173310D01*
X1340376Y0163310D02*
X1334802Y0163310D01*
X1320888Y0167380D02*
X1315313Y0167380D01*
X1315313Y0157380D02*
X1320888Y0157380D01*
X1334802Y0153310D02*
X1340376Y0153310D01*
X1320888Y0147380D02*
X1315313Y0147380D01*
X1325650Y0297088D02*
X1325650Y0302662D01*
X1335650Y0302662D02*
X1335650Y0297088D01*
X1345650Y0297088D02*
X1345650Y0302662D01*
X1180901Y0395213D02*
X1180901Y0400787D01*
X1170901Y0400787D02*
X1170901Y0395213D01*
X1145089Y0395213D02*
X1145089Y0400787D01*
X1135089Y0400787D02*
X1135089Y0395213D01*
X1125089Y0395213D02*
X1125089Y0400787D01*
X1115089Y0400787D02*
X1115089Y0395213D01*
X1074550Y0397213D02*
X1068975Y0397213D01*
X1068975Y0407213D02*
X1074550Y0407213D01*
D11*
X1093298Y0369693D03*
X1046447Y0337252D03*
X0999597Y0369693D03*
X0933967Y0337252D03*
X0858967Y0337252D03*
X0783967Y0337252D03*
X0708967Y0337252D03*
X0633967Y0337252D03*
X0558967Y0337252D03*
X0483967Y0337252D03*
X0408967Y0337252D03*
X0333967Y0337252D03*
X0258967Y0337252D03*
X0183967Y0337252D03*
X0108967Y0337252D03*
X0033967Y0337252D03*
X0052707Y0262252D03*
X0146447Y0262252D03*
X0221447Y0262252D03*
X0296447Y0262252D03*
X0371447Y0262252D03*
X0446447Y0262252D03*
X0521447Y0262252D03*
X0596447Y0262252D03*
X0671447Y0262252D03*
X0746447Y0262252D03*
X0821447Y0262252D03*
X0896447Y0262252D03*
X0971447Y0262252D03*
X1042117Y0271602D03*
X1074557Y0224752D03*
X0990187Y0187252D03*
X1042117Y0177902D03*
X1065187Y0144693D03*
X1018337Y0112252D03*
X0971487Y0144693D03*
X0877707Y0112252D03*
X0802707Y0112252D03*
X0727707Y0112252D03*
X0652707Y0112252D03*
X0577707Y0112252D03*
X0502707Y0112252D03*
X0427707Y0112252D03*
X0352707Y0112252D03*
X0277707Y0112252D03*
X0202707Y0112252D03*
X0127707Y0112252D03*
X0043337Y0112252D03*
X0062077Y0187252D03*
X0165187Y0187252D03*
X0240187Y0187252D03*
X0315187Y0187252D03*
X0390187Y0187252D03*
X0465187Y0187252D03*
X0540187Y0187252D03*
X0615187Y0187252D03*
X0690187Y0187252D03*
X0765187Y0187252D03*
X0840187Y0187252D03*
X0915187Y0187252D03*
X1177707Y0262252D03*
X1252707Y0262252D03*
X1327707Y0262252D03*
X1327707Y0337252D03*
X1252707Y0337252D03*
X1177707Y0337252D03*
X1177707Y0449752D03*
X1252707Y0449752D03*
X1327707Y0449752D03*
X1083967Y0449752D03*
X1008967Y0449752D03*
X0933967Y0449752D03*
X0858967Y0449752D03*
X0765187Y0449752D03*
X0690187Y0449752D03*
X0615187Y0449752D03*
X0540187Y0449752D03*
X0446447Y0449752D03*
X0371447Y0449752D03*
X0296447Y0449752D03*
X0221447Y0449752D03*
X0108967Y0449752D03*
X0033967Y0449752D03*
X0315227Y0069693D03*
X0230817Y0037252D03*
X0137077Y0037252D03*
X0043337Y0037252D03*
X0512077Y0037252D03*
X0708928Y0069693D03*
X0793337Y0037252D03*
X0887077Y0037252D03*
X0980817Y0037252D03*
X1074557Y0037252D03*
X1177707Y0037252D03*
X1252707Y0037252D03*
X1327707Y0037252D03*
X1327707Y0112252D03*
X1252707Y0112252D03*
X1177707Y0112252D03*
D12*
X1197707Y0112252D03*
X1232707Y0112252D03*
X1272707Y0112252D03*
X1307707Y0112252D03*
X1347707Y0112252D03*
X1157707Y0112252D03*
X1038337Y0112252D03*
X0998337Y0112252D03*
X0897707Y0112252D03*
X0857707Y0112252D03*
X0822707Y0112252D03*
X0782707Y0112252D03*
X0747707Y0112252D03*
X0707707Y0112252D03*
X0672707Y0112252D03*
X0632707Y0112252D03*
X0597707Y0112252D03*
X0557707Y0112252D03*
X0522707Y0112252D03*
X0482707Y0112252D03*
X0447707Y0112252D03*
X0407707Y0112252D03*
X0372707Y0112252D03*
X0332707Y0112252D03*
X0297707Y0112252D03*
X0257707Y0112252D03*
X0222707Y0112252D03*
X0182707Y0112252D03*
X0147707Y0112252D03*
X0107707Y0112252D03*
X0063337Y0112252D03*
X0023337Y0112252D03*
X0042077Y0187252D03*
X0082077Y0187252D03*
X0145187Y0187252D03*
X0185187Y0187252D03*
X0220187Y0187252D03*
X0260187Y0187252D03*
X0295187Y0187252D03*
X0335187Y0187252D03*
X0370187Y0187252D03*
X0410187Y0187252D03*
X0445187Y0187252D03*
X0485187Y0187252D03*
X0520187Y0187252D03*
X0560187Y0187252D03*
X0595187Y0187252D03*
X0635187Y0187252D03*
X0670187Y0187252D03*
X0710187Y0187252D03*
X0745187Y0187252D03*
X0785187Y0187252D03*
X0820187Y0187252D03*
X0860187Y0187252D03*
X0895187Y0187252D03*
X0935187Y0187252D03*
X0970187Y0187252D03*
X1010187Y0187252D03*
X1074557Y0204752D03*
X1074557Y0244752D03*
X0991447Y0262252D03*
X0951447Y0262252D03*
X0916447Y0262252D03*
X0876447Y0262252D03*
X0841447Y0262252D03*
X0801447Y0262252D03*
X0766447Y0262252D03*
X0726447Y0262252D03*
X0691447Y0262252D03*
X0651447Y0262252D03*
X0616447Y0262252D03*
X0576447Y0262252D03*
X0541447Y0262252D03*
X0501447Y0262252D03*
X0466447Y0262252D03*
X0426447Y0262252D03*
X0391447Y0262252D03*
X0351447Y0262252D03*
X0316447Y0262252D03*
X0276447Y0262252D03*
X0241447Y0262252D03*
X0201447Y0262252D03*
X0166447Y0262252D03*
X0126447Y0262252D03*
X0072707Y0262252D03*
X0032707Y0262252D03*
X0013967Y0337252D03*
X0053967Y0337252D03*
X0088967Y0337252D03*
X0128967Y0337252D03*
X0163967Y0337252D03*
X0203967Y0337252D03*
X0238967Y0337252D03*
X0278967Y0337252D03*
X0313967Y0337252D03*
X0353967Y0337252D03*
X0388967Y0337252D03*
X0428967Y0337252D03*
X0463967Y0337252D03*
X0503967Y0337252D03*
X0538967Y0337252D03*
X0578967Y0337252D03*
X0613967Y0337252D03*
X0653967Y0337252D03*
X0688967Y0337252D03*
X0728967Y0337252D03*
X0763967Y0337252D03*
X0803967Y0337252D03*
X0838967Y0337252D03*
X0878967Y0337252D03*
X0913967Y0337252D03*
X0953967Y0337252D03*
X1026447Y0337252D03*
X1066447Y0337252D03*
X1157707Y0337252D03*
X1197707Y0337252D03*
X1232707Y0337252D03*
X1272707Y0337252D03*
X1307707Y0337252D03*
X1347707Y0337252D03*
X1347707Y0262252D03*
X1307707Y0262252D03*
X1272707Y0262252D03*
X1232707Y0262252D03*
X1197707Y0262252D03*
X1157707Y0262252D03*
X1157707Y0449752D03*
X1197707Y0449752D03*
X1232707Y0449752D03*
X1272707Y0449752D03*
X1307707Y0449752D03*
X1347707Y0449752D03*
X1103967Y0449752D03*
X1063967Y0449752D03*
X1028967Y0449752D03*
X0988967Y0449752D03*
X0953967Y0449752D03*
X0913967Y0449752D03*
X0878967Y0449752D03*
X0838967Y0449752D03*
X0785187Y0449752D03*
X0745187Y0449752D03*
X0710187Y0449752D03*
X0670187Y0449752D03*
X0635187Y0449752D03*
X0595187Y0449752D03*
X0560187Y0449752D03*
X0520187Y0449752D03*
X0466447Y0449752D03*
X0426447Y0449752D03*
X0391447Y0449752D03*
X0351447Y0449752D03*
X0316447Y0449752D03*
X0276447Y0449752D03*
X0241447Y0449752D03*
X0201447Y0449752D03*
X0128967Y0449752D03*
X0088967Y0449752D03*
X0053967Y0449752D03*
X0013967Y0449752D03*
X0023337Y0037252D03*
X0063337Y0037252D03*
X0117077Y0037252D03*
X0157077Y0037252D03*
X0210817Y0037252D03*
X0250817Y0037252D03*
X0492077Y0037252D03*
X0532077Y0037252D03*
X0773337Y0037252D03*
X0813337Y0037252D03*
X0867077Y0037252D03*
X0907077Y0037252D03*
X0960817Y0037252D03*
X1000817Y0037252D03*
X1054557Y0037252D03*
X1094557Y0037252D03*
X1157707Y0037252D03*
X1197707Y0037252D03*
X1232707Y0037252D03*
X1272707Y0037252D03*
X1307707Y0037252D03*
X1347707Y0037252D03*
D13*
X0033337Y0017252D03*
X0033494Y0019535D03*
X0053180Y0021504D03*
X0058337Y0027252D03*
X0127235Y0019535D03*
X0127077Y0017252D03*
X0146920Y0021504D03*
X0152077Y0027252D03*
X0220975Y0019535D03*
X0220817Y0017252D03*
X0240660Y0021504D03*
X0245817Y0027252D03*
X0267707Y0092252D03*
X0267865Y0094535D03*
X0287550Y0096504D03*
X0292707Y0102252D03*
X0342865Y0094535D03*
X0342707Y0092252D03*
X0362550Y0096504D03*
X0367707Y0102252D03*
X0417865Y0094535D03*
X0417707Y0092252D03*
X0437550Y0096504D03*
X0442707Y0102252D03*
X0492865Y0094535D03*
X0492707Y0092252D03*
X0512550Y0096504D03*
X0517707Y0102252D03*
X0567865Y0094535D03*
X0567707Y0092252D03*
X0587550Y0096504D03*
X0592707Y0102252D03*
X0642865Y0094535D03*
X0642707Y0092252D03*
X0662550Y0096504D03*
X0667707Y0102252D03*
X0717865Y0094535D03*
X0717707Y0092252D03*
X0737550Y0096504D03*
X0742707Y0102252D03*
X0792865Y0094535D03*
X0792707Y0092252D03*
X0812550Y0096504D03*
X0817707Y0102252D03*
X0867865Y0094535D03*
X0867707Y0092252D03*
X0887550Y0096504D03*
X0892707Y0102252D03*
X1008494Y0094535D03*
X1008337Y0092252D03*
X1028180Y0096504D03*
X1033337Y0102252D03*
X1167707Y0092252D03*
X1167865Y0094535D03*
X1187550Y0096504D03*
X1192707Y0102252D03*
X1242865Y0094535D03*
X1242707Y0092252D03*
X1262550Y0096504D03*
X1267707Y0102252D03*
X1317865Y0094535D03*
X1317707Y0092252D03*
X1337550Y0096504D03*
X1342707Y0102252D03*
X1342707Y0027252D03*
X1337550Y0021504D03*
X1317865Y0019535D03*
X1317707Y0017252D03*
X1267707Y0027252D03*
X1262550Y0021504D03*
X1242865Y0019535D03*
X1242707Y0017252D03*
X1192707Y0027252D03*
X1187550Y0021504D03*
X1167865Y0019535D03*
X1167707Y0017252D03*
X1089557Y0027252D03*
X1084400Y0021504D03*
X1064715Y0019535D03*
X1064557Y0017252D03*
X0995817Y0027252D03*
X0990660Y0021504D03*
X0970975Y0019535D03*
X0970817Y0017252D03*
X0902077Y0027252D03*
X0896920Y0021504D03*
X0877235Y0019535D03*
X0877077Y0017252D03*
X0808337Y0027252D03*
X0803180Y0021504D03*
X0783494Y0019535D03*
X0783337Y0017252D03*
X0527077Y0027252D03*
X0521920Y0021504D03*
X0502235Y0019535D03*
X0502077Y0017252D03*
X0217707Y0102252D03*
X0212550Y0096504D03*
X0192865Y0094535D03*
X0192707Y0092252D03*
X0142707Y0102252D03*
X0137550Y0096504D03*
X0117865Y0094535D03*
X0117707Y0092252D03*
X0058337Y0102252D03*
X0053180Y0096504D03*
X0033494Y0094535D03*
X0033337Y0092252D03*
X0052077Y0167252D03*
X0052235Y0169535D03*
X0071920Y0171504D03*
X0077077Y0177252D03*
X0155345Y0169535D03*
X0155187Y0167252D03*
X0175030Y0171504D03*
X0180187Y0177252D03*
X0230345Y0169535D03*
X0230187Y0167252D03*
X0250030Y0171504D03*
X0255187Y0177252D03*
X0305345Y0169535D03*
X0305187Y0167252D03*
X0325030Y0171504D03*
X0330187Y0177252D03*
X0380345Y0169535D03*
X0380187Y0167252D03*
X0400030Y0171504D03*
X0405187Y0177252D03*
X0455345Y0169535D03*
X0455187Y0167252D03*
X0475030Y0171504D03*
X0480187Y0177252D03*
X0530345Y0169535D03*
X0530187Y0167252D03*
X0550030Y0171504D03*
X0555187Y0177252D03*
X0605345Y0169535D03*
X0605187Y0167252D03*
X0625030Y0171504D03*
X0630187Y0177252D03*
X0680345Y0169535D03*
X0680187Y0167252D03*
X0700030Y0171504D03*
X0705187Y0177252D03*
X0755345Y0169535D03*
X0755187Y0167252D03*
X0775030Y0171504D03*
X0780187Y0177252D03*
X0830345Y0169535D03*
X0830187Y0167252D03*
X0850030Y0171504D03*
X0855187Y0177252D03*
X0905345Y0169535D03*
X0905187Y0167252D03*
X0925030Y0171504D03*
X0930187Y0177252D03*
X0980345Y0169535D03*
X0980187Y0167252D03*
X1000030Y0171504D03*
X1005187Y0177252D03*
X1092274Y0214909D03*
X1094557Y0214752D03*
X1090306Y0234594D03*
X1084557Y0239752D03*
X1167707Y0242252D03*
X1167865Y0244535D03*
X1187550Y0246504D03*
X1192707Y0252252D03*
X1242865Y0244535D03*
X1242707Y0242252D03*
X1262550Y0246504D03*
X1267707Y0252252D03*
X1317865Y0244535D03*
X1317707Y0242252D03*
X1337550Y0246504D03*
X1342707Y0252252D03*
X1317707Y0317252D03*
X1317865Y0319535D03*
X1337550Y0321504D03*
X1342707Y0327252D03*
X1267707Y0327252D03*
X1262550Y0321504D03*
X1242865Y0319535D03*
X1242707Y0317252D03*
X1192707Y0327252D03*
X1187550Y0321504D03*
X1167865Y0319535D03*
X1167707Y0317252D03*
X1061447Y0327252D03*
X1056290Y0321504D03*
X1036605Y0319535D03*
X1036447Y0317252D03*
X0948967Y0327252D03*
X0943809Y0321504D03*
X0924124Y0319535D03*
X0923967Y0317252D03*
X0873967Y0327252D03*
X0868809Y0321504D03*
X0849124Y0319535D03*
X0848967Y0317252D03*
X0798967Y0327252D03*
X0793809Y0321504D03*
X0774124Y0319535D03*
X0773967Y0317252D03*
X0723967Y0327252D03*
X0718809Y0321504D03*
X0699124Y0319535D03*
X0698967Y0317252D03*
X0648967Y0327252D03*
X0643809Y0321504D03*
X0624124Y0319535D03*
X0623967Y0317252D03*
X0573967Y0327252D03*
X0568809Y0321504D03*
X0549124Y0319535D03*
X0548967Y0317252D03*
X0498967Y0327252D03*
X0493809Y0321504D03*
X0474124Y0319535D03*
X0473967Y0317252D03*
X0423967Y0327252D03*
X0418809Y0321504D03*
X0399124Y0319535D03*
X0398967Y0317252D03*
X0348967Y0327252D03*
X0343809Y0321504D03*
X0324124Y0319535D03*
X0323967Y0317252D03*
X0273967Y0327252D03*
X0268809Y0321504D03*
X0249124Y0319535D03*
X0248967Y0317252D03*
X0198967Y0327252D03*
X0193809Y0321504D03*
X0174124Y0319535D03*
X0173967Y0317252D03*
X0123967Y0327252D03*
X0118809Y0321504D03*
X0099124Y0319535D03*
X0098967Y0317252D03*
X0048967Y0327252D03*
X0043809Y0321504D03*
X0024124Y0319535D03*
X0023967Y0317252D03*
X0067707Y0252252D03*
X0062550Y0246504D03*
X0042865Y0244535D03*
X0042707Y0242252D03*
X0136447Y0242252D03*
X0136605Y0244535D03*
X0156290Y0246504D03*
X0161447Y0252252D03*
X0211605Y0244535D03*
X0211447Y0242252D03*
X0231290Y0246504D03*
X0236447Y0252252D03*
X0286605Y0244535D03*
X0286447Y0242252D03*
X0306290Y0246504D03*
X0311447Y0252252D03*
X0361605Y0244535D03*
X0361447Y0242252D03*
X0381290Y0246504D03*
X0386447Y0252252D03*
X0436605Y0244535D03*
X0436447Y0242252D03*
X0456290Y0246504D03*
X0461447Y0252252D03*
X0511605Y0244535D03*
X0511447Y0242252D03*
X0531290Y0246504D03*
X0536447Y0252252D03*
X0586447Y0242252D03*
X0586605Y0244535D03*
X0606290Y0246504D03*
X0611447Y0252252D03*
X0661605Y0244535D03*
X0661447Y0242252D03*
X0681290Y0246504D03*
X0686447Y0252252D03*
X0736447Y0242252D03*
X0736605Y0244535D03*
X0756290Y0246504D03*
X0761447Y0252252D03*
X0811605Y0244535D03*
X0811447Y0242252D03*
X0831290Y0246504D03*
X0836447Y0252252D03*
X0886447Y0242252D03*
X0886605Y0244535D03*
X0906290Y0246504D03*
X0911447Y0252252D03*
X0961605Y0244535D03*
X0961447Y0242252D03*
X0981290Y0246504D03*
X0986447Y0252252D03*
X0998967Y0429752D03*
X0999124Y0432035D03*
X1018809Y0434004D03*
X1023967Y0439752D03*
X1074124Y0432035D03*
X1073967Y0429752D03*
X1093809Y0434004D03*
X1098967Y0439752D03*
X1167865Y0432035D03*
X1167707Y0429752D03*
X1187550Y0434004D03*
X1192707Y0439752D03*
X1242865Y0432035D03*
X1242707Y0429752D03*
X1262550Y0434004D03*
X1267707Y0439752D03*
X1317865Y0432035D03*
X1317707Y0429752D03*
X1337550Y0434004D03*
X1342707Y0439752D03*
X0948967Y0439752D03*
X0943809Y0434004D03*
X0924124Y0432035D03*
X0923967Y0429752D03*
X0873967Y0439752D03*
X0868809Y0434004D03*
X0849124Y0432035D03*
X0848967Y0429752D03*
X0780187Y0439752D03*
X0775030Y0434004D03*
X0755345Y0432035D03*
X0755187Y0429752D03*
X0705187Y0439752D03*
X0700030Y0434004D03*
X0680345Y0432035D03*
X0680187Y0429752D03*
X0630187Y0439752D03*
X0625030Y0434004D03*
X0605345Y0432035D03*
X0605187Y0429752D03*
X0555187Y0439752D03*
X0550030Y0434004D03*
X0530345Y0432035D03*
X0530187Y0429752D03*
X0461447Y0439752D03*
X0456290Y0434004D03*
X0436605Y0432035D03*
X0436447Y0429752D03*
X0386447Y0439752D03*
X0381290Y0434004D03*
X0361605Y0432035D03*
X0361447Y0429752D03*
X0311447Y0439752D03*
X0306290Y0434004D03*
X0286605Y0432035D03*
X0286447Y0429752D03*
X0236447Y0439752D03*
X0231290Y0434004D03*
X0211605Y0432035D03*
X0211447Y0429752D03*
X0123967Y0439752D03*
X0118809Y0434004D03*
X0099124Y0432035D03*
X0098967Y0429752D03*
X0048967Y0439752D03*
X0043809Y0434004D03*
X0024124Y0432035D03*
X0023967Y0429752D03*
D14*
X0028967Y0469752D03*
X0018967Y0469752D03*
X0048967Y0469752D03*
X0093967Y0469752D03*
X0103967Y0469752D03*
X0123967Y0469752D03*
X0206447Y0469752D03*
X0216447Y0469752D03*
X0236447Y0469752D03*
X0281447Y0469752D03*
X0291447Y0469752D03*
X0311447Y0469752D03*
X0356447Y0469752D03*
X0366447Y0469752D03*
X0386447Y0469752D03*
X0431447Y0469752D03*
X0441447Y0469752D03*
X0461447Y0469752D03*
X0525187Y0469752D03*
X0535187Y0469752D03*
X0555187Y0469752D03*
X0600187Y0469752D03*
X0610187Y0469752D03*
X0630187Y0469752D03*
X0675187Y0469752D03*
X0685187Y0469752D03*
X0705187Y0469752D03*
X0750187Y0469752D03*
X0760187Y0469752D03*
X0780187Y0469752D03*
X0843967Y0469752D03*
X0853967Y0469752D03*
X0873967Y0469752D03*
X0918967Y0469752D03*
X0928967Y0469752D03*
X0948967Y0469752D03*
X0993967Y0469752D03*
X1003967Y0469752D03*
X1023967Y0469752D03*
X1068967Y0469752D03*
X1078967Y0469752D03*
X1098967Y0469752D03*
X1162707Y0469752D03*
X1172707Y0469752D03*
X1192707Y0469752D03*
X1237707Y0469752D03*
X1247707Y0469752D03*
X1267707Y0469752D03*
X1312707Y0469752D03*
X1322707Y0469752D03*
X1342707Y0469752D03*
X1342707Y0357252D03*
X1322707Y0357252D03*
X1312707Y0357252D03*
X1267707Y0357252D03*
X1247707Y0357252D03*
X1237707Y0357252D03*
X1192707Y0357252D03*
X1172707Y0357252D03*
X1162707Y0357252D03*
X1061447Y0357252D03*
X1041447Y0357252D03*
X1031447Y0357252D03*
X0948967Y0357252D03*
X0928967Y0357252D03*
X0918967Y0357252D03*
X0873967Y0357252D03*
X0853967Y0357252D03*
X0843967Y0357252D03*
X0798967Y0357252D03*
X0778967Y0357252D03*
X0768967Y0357252D03*
X0723967Y0357252D03*
X0703967Y0357252D03*
X0693967Y0357252D03*
X0648967Y0357252D03*
X0628967Y0357252D03*
X0618967Y0357252D03*
X0573967Y0357252D03*
X0553967Y0357252D03*
X0543967Y0357252D03*
X0498967Y0357252D03*
X0478967Y0357252D03*
X0468967Y0357252D03*
X0423967Y0357252D03*
X0403967Y0357252D03*
X0393967Y0357252D03*
X0348967Y0357252D03*
X0328967Y0357252D03*
X0318967Y0357252D03*
X0273967Y0357252D03*
X0253967Y0357252D03*
X0243967Y0357252D03*
X0198967Y0357252D03*
X0178967Y0357252D03*
X0168967Y0357252D03*
X0123967Y0357252D03*
X0103967Y0357252D03*
X0093967Y0357252D03*
X0048967Y0357252D03*
X0028967Y0357252D03*
X0018967Y0357252D03*
X0037707Y0282252D03*
X0047707Y0282252D03*
X0067707Y0282252D03*
X0131447Y0282252D03*
X0141447Y0282252D03*
X0161447Y0282252D03*
X0206447Y0282252D03*
X0216447Y0282252D03*
X0236447Y0282252D03*
X0281447Y0282252D03*
X0291447Y0282252D03*
X0311447Y0282252D03*
X0356447Y0282252D03*
X0366447Y0282252D03*
X0386447Y0282252D03*
X0431447Y0282252D03*
X0441447Y0282252D03*
X0461447Y0282252D03*
X0506447Y0282252D03*
X0516447Y0282252D03*
X0536447Y0282252D03*
X0581447Y0282252D03*
X0591447Y0282252D03*
X0611447Y0282252D03*
X0656447Y0282252D03*
X0666447Y0282252D03*
X0686447Y0282252D03*
X0731447Y0282252D03*
X0741447Y0282252D03*
X0761447Y0282252D03*
X0806447Y0282252D03*
X0816447Y0282252D03*
X0836447Y0282252D03*
X0881447Y0282252D03*
X0891447Y0282252D03*
X0911447Y0282252D03*
X0956447Y0282252D03*
X0966447Y0282252D03*
X0986447Y0282252D03*
X1054557Y0239752D03*
X1054557Y0219752D03*
X1054557Y0209752D03*
X1005187Y0207252D03*
X0985187Y0207252D03*
X0975187Y0207252D03*
X0930187Y0207252D03*
X0910187Y0207252D03*
X0900187Y0207252D03*
X0855187Y0207252D03*
X0835187Y0207252D03*
X0825187Y0207252D03*
X0780187Y0207252D03*
X0760187Y0207252D03*
X0750187Y0207252D03*
X0705187Y0207252D03*
X0685187Y0207252D03*
X0675187Y0207252D03*
X0630187Y0207252D03*
X0610187Y0207252D03*
X0600187Y0207252D03*
X0555187Y0207252D03*
X0535187Y0207252D03*
X0525187Y0207252D03*
X0480187Y0207252D03*
X0460187Y0207252D03*
X0450187Y0207252D03*
X0405187Y0207252D03*
X0385187Y0207252D03*
X0375187Y0207252D03*
X0330187Y0207252D03*
X0310187Y0207252D03*
X0300187Y0207252D03*
X0255187Y0207252D03*
X0235187Y0207252D03*
X0225187Y0207252D03*
X0180187Y0207252D03*
X0160187Y0207252D03*
X0150187Y0207252D03*
X0077077Y0207252D03*
X0057077Y0207252D03*
X0047077Y0207252D03*
X0038337Y0132252D03*
X0028337Y0132252D03*
X0058337Y0132252D03*
X0112707Y0132252D03*
X0122707Y0132252D03*
X0142707Y0132252D03*
X0187707Y0132252D03*
X0197707Y0132252D03*
X0217707Y0132252D03*
X0262707Y0132252D03*
X0272707Y0132252D03*
X0292707Y0132252D03*
X0337707Y0132252D03*
X0347707Y0132252D03*
X0367707Y0132252D03*
X0412707Y0132252D03*
X0422707Y0132252D03*
X0442707Y0132252D03*
X0487707Y0132252D03*
X0497707Y0132252D03*
X0517707Y0132252D03*
X0562707Y0132252D03*
X0572707Y0132252D03*
X0592707Y0132252D03*
X0637707Y0132252D03*
X0647707Y0132252D03*
X0667707Y0132252D03*
X0712707Y0132252D03*
X0722707Y0132252D03*
X0742707Y0132252D03*
X0787707Y0132252D03*
X0797707Y0132252D03*
X0817707Y0132252D03*
X0862707Y0132252D03*
X0872707Y0132252D03*
X0892707Y0132252D03*
X1003337Y0132252D03*
X1013337Y0132252D03*
X1033337Y0132252D03*
X1162707Y0132252D03*
X1172707Y0132252D03*
X1192707Y0132252D03*
X1237707Y0132252D03*
X1247707Y0132252D03*
X1267707Y0132252D03*
X1312707Y0132252D03*
X1322707Y0132252D03*
X1342707Y0132252D03*
X1342707Y0057252D03*
X1322707Y0057252D03*
X1312707Y0057252D03*
X1267707Y0057252D03*
X1247707Y0057252D03*
X1237707Y0057252D03*
X1192707Y0057252D03*
X1172707Y0057252D03*
X1162707Y0057252D03*
X1089557Y0057252D03*
X1069557Y0057252D03*
X1059557Y0057252D03*
X0995817Y0057252D03*
X0975817Y0057252D03*
X0965817Y0057252D03*
X0902077Y0057252D03*
X0882077Y0057252D03*
X0872077Y0057252D03*
X0808337Y0057252D03*
X0788337Y0057252D03*
X0778337Y0057252D03*
X0527077Y0057252D03*
X0507077Y0057252D03*
X0497077Y0057252D03*
X0245817Y0057252D03*
X0225817Y0057252D03*
X0215817Y0057252D03*
X0152077Y0057252D03*
X0132077Y0057252D03*
X0122077Y0057252D03*
X0058337Y0057252D03*
X0038337Y0057252D03*
X0028337Y0057252D03*
X1162707Y0282252D03*
X1172707Y0282252D03*
X1192707Y0282252D03*
X1237707Y0282252D03*
X1247707Y0282252D03*
X1267707Y0282252D03*
X1312707Y0282252D03*
X1322707Y0282252D03*
X1342707Y0282252D03*
D15*
X1332707Y0282252D03*
X1257707Y0282252D03*
X1182707Y0282252D03*
X1054557Y0229752D03*
X0995187Y0207252D03*
X0920187Y0207252D03*
X0845187Y0207252D03*
X0770187Y0207252D03*
X0695187Y0207252D03*
X0620187Y0207252D03*
X0545187Y0207252D03*
X0470187Y0207252D03*
X0395187Y0207252D03*
X0320187Y0207252D03*
X0245187Y0207252D03*
X0170187Y0207252D03*
X0067077Y0207252D03*
X0048337Y0132252D03*
X0132707Y0132252D03*
X0207707Y0132252D03*
X0282707Y0132252D03*
X0357707Y0132252D03*
X0432707Y0132252D03*
X0507707Y0132252D03*
X0582707Y0132252D03*
X0657707Y0132252D03*
X0732707Y0132252D03*
X0807707Y0132252D03*
X0882707Y0132252D03*
X1023337Y0132252D03*
X1182707Y0132252D03*
X1257707Y0132252D03*
X1332707Y0132252D03*
X1332707Y0057252D03*
X1257707Y0057252D03*
X1182707Y0057252D03*
X1079557Y0057252D03*
X0985817Y0057252D03*
X0892077Y0057252D03*
X0798337Y0057252D03*
X0517077Y0057252D03*
X0235817Y0057252D03*
X0142077Y0057252D03*
X0048337Y0057252D03*
X0057707Y0282252D03*
X0151447Y0282252D03*
X0226447Y0282252D03*
X0301447Y0282252D03*
X0376447Y0282252D03*
X0451447Y0282252D03*
X0526447Y0282252D03*
X0601447Y0282252D03*
X0676447Y0282252D03*
X0751447Y0282252D03*
X0826447Y0282252D03*
X0901447Y0282252D03*
X0976447Y0282252D03*
X0938967Y0357252D03*
X0863967Y0357252D03*
X0788967Y0357252D03*
X0713967Y0357252D03*
X0638967Y0357252D03*
X0563967Y0357252D03*
X0488967Y0357252D03*
X0413967Y0357252D03*
X0338967Y0357252D03*
X0263967Y0357252D03*
X0188967Y0357252D03*
X0113967Y0357252D03*
X0038967Y0357252D03*
X0038967Y0469752D03*
X0113967Y0469752D03*
X0226447Y0469752D03*
X0301447Y0469752D03*
X0376447Y0469752D03*
X0451447Y0469752D03*
X0545187Y0469752D03*
X0620187Y0469752D03*
X0695187Y0469752D03*
X0770187Y0469752D03*
X0863967Y0469752D03*
X0938967Y0469752D03*
X1013967Y0469752D03*
X1088967Y0469752D03*
X1182707Y0469752D03*
X1257707Y0469752D03*
X1332707Y0469752D03*
X1332707Y0357252D03*
X1257707Y0357252D03*
X1182707Y0357252D03*
X1051447Y0357252D03*
D16*
X1093298Y0309693D03*
X0999597Y0309693D03*
X1102117Y0271602D03*
X1102117Y0177902D03*
X1065187Y0084693D03*
X0971487Y0084693D03*
X0708928Y0009693D03*
X0315227Y0009693D03*
D17*
X0531900Y0077488D03*
X0546900Y0077488D03*
X0546900Y0088512D03*
X0531900Y0088512D03*
X0544400Y0046012D03*
X0544400Y0034988D03*
X0559400Y0034988D03*
X0559400Y0046012D03*
X0716900Y0033512D03*
X0731900Y0028512D03*
X0716900Y0022488D03*
X0731900Y0017488D03*
X1296900Y0147488D03*
X1296900Y0158512D03*
X1296900Y0169988D03*
X1296900Y0181012D03*
X0749400Y0374988D03*
X0734400Y0374988D03*
X0719400Y0374988D03*
X0719400Y0386012D03*
X0734400Y0386012D03*
X0749400Y0386012D03*
X0934400Y0402488D03*
X0949400Y0402488D03*
X0949400Y0413512D03*
X0934400Y0413512D03*
D18*
X0807412Y0450500D03*
X0796388Y0450500D03*
X0796388Y0463000D03*
X0807412Y0463000D03*
X1131388Y0230500D03*
X1142412Y0230500D03*
X1171388Y0230500D03*
X1182412Y0230500D03*
X1259764Y0230313D03*
X1270788Y0230313D03*
X1291388Y0223000D03*
X1302412Y0223000D03*
X1287412Y0140500D03*
X1276388Y0140500D03*
X1219912Y0075500D03*
X1208888Y0075500D03*
X0557412Y0015500D03*
X0546388Y0015500D03*
D19*
X0466900Y0077000D03*
X1119089Y0318689D03*
X0691900Y0376500D03*
D20*
X0691900Y0384500D03*
X1111089Y0318689D03*
X0466900Y0069000D03*
D21*
X0476841Y0049063D03*
X0476841Y0025441D03*
X0467471Y0100441D03*
X0467471Y0124063D03*
X0542471Y0124063D03*
X0542471Y0100441D03*
X0617471Y0100441D03*
X0617471Y0124063D03*
X0692471Y0124063D03*
X0692471Y0100441D03*
X0767471Y0100441D03*
X0767471Y0124063D03*
X0842471Y0124063D03*
X0842471Y0100441D03*
X0950601Y0100441D03*
X0950601Y0124063D03*
X0954951Y0175441D03*
X0954951Y0199063D03*
X0879951Y0199063D03*
X0879951Y0175441D03*
X0804951Y0175441D03*
X0804951Y0199063D03*
X0729951Y0199063D03*
X0729951Y0175441D03*
X0654951Y0175441D03*
X0654951Y0199063D03*
X0579951Y0199063D03*
X0579951Y0175441D03*
X0504951Y0175441D03*
X0504951Y0199063D03*
X0429951Y0199063D03*
X0429951Y0175441D03*
X0354951Y0175441D03*
X0354951Y0199063D03*
X0279951Y0199063D03*
X0279951Y0175441D03*
X0204951Y0175441D03*
X0204951Y0199063D03*
X0129951Y0199063D03*
X0129951Y0175441D03*
X0026841Y0175441D03*
X0026841Y0199063D03*
X0017471Y0250441D03*
X0017471Y0274063D03*
X0022156Y0300175D03*
X0045778Y0300175D03*
X0111211Y0274063D03*
X0111211Y0250441D03*
X0186211Y0250441D03*
X0186211Y0274063D03*
X0261211Y0274063D03*
X0261211Y0250441D03*
X0336211Y0250441D03*
X0336211Y0274063D03*
X0411211Y0274063D03*
X0411211Y0250441D03*
X0486211Y0250441D03*
X0486211Y0274063D03*
X0561211Y0274063D03*
X0561211Y0250441D03*
X0636211Y0250441D03*
X0636211Y0274063D03*
X0711211Y0274063D03*
X0711211Y0250441D03*
X0786211Y0250441D03*
X0786211Y0274063D03*
X0861211Y0274063D03*
X0861211Y0250441D03*
X0936211Y0250441D03*
X0936211Y0274063D03*
X0898731Y0325441D03*
X0898731Y0349063D03*
X0823731Y0349063D03*
X0823731Y0325441D03*
X0748731Y0325441D03*
X0748731Y0349063D03*
X0673731Y0349063D03*
X0673731Y0325441D03*
X0598731Y0325441D03*
X0598731Y0349063D03*
X0523731Y0349063D03*
X0523731Y0325441D03*
X0448731Y0325441D03*
X0448731Y0349063D03*
X0373731Y0349063D03*
X0373731Y0325441D03*
X0298731Y0325441D03*
X0298731Y0349063D03*
X0223731Y0349063D03*
X0223731Y0325441D03*
X0148731Y0325441D03*
X0148731Y0349063D03*
X0073731Y0349063D03*
X0073731Y0325441D03*
X0045778Y0412675D03*
X0022156Y0412675D03*
X0073731Y0437941D03*
X0073731Y0461563D03*
X0186211Y0461563D03*
X0186211Y0437941D03*
X0261211Y0437941D03*
X0261211Y0461563D03*
X0336211Y0461563D03*
X0336211Y0437941D03*
X0411211Y0437941D03*
X0411211Y0461563D03*
X0504951Y0461563D03*
X0504951Y0437941D03*
X0579951Y0437941D03*
X0579951Y0461563D03*
X0654951Y0461563D03*
X0654951Y0437941D03*
X0729951Y0437941D03*
X0729951Y0461563D03*
X0823731Y0461563D03*
X0823731Y0437941D03*
X0898731Y0437941D03*
X0898731Y0461563D03*
X0973731Y0461563D03*
X0973731Y0437941D03*
X1048731Y0437941D03*
X1048731Y0461563D03*
X1152471Y0436563D03*
X1152471Y0412941D03*
X1217471Y0437941D03*
X1217471Y0461563D03*
X1292471Y0461563D03*
X1292471Y0437941D03*
X1292471Y0349063D03*
X1292471Y0325441D03*
X1217471Y0325441D03*
X1217471Y0349063D03*
X1142471Y0349063D03*
X1142471Y0325441D03*
X1011211Y0325441D03*
X1011211Y0349063D03*
X1142471Y0274063D03*
X1142471Y0250441D03*
X1114321Y0249063D03*
X1114321Y0225441D03*
X1217471Y0250441D03*
X1217471Y0274063D03*
X1292471Y0274063D03*
X1292471Y0250441D03*
X1292471Y0124063D03*
X1292471Y0100441D03*
X1217471Y0100441D03*
X1217471Y0124063D03*
X1142471Y0124063D03*
X1142471Y0100441D03*
X1142471Y0049063D03*
X1142471Y0025441D03*
X1217471Y0025441D03*
X1217471Y0049063D03*
X1292471Y0049063D03*
X1292471Y0025441D03*
X1039321Y0025441D03*
X1039321Y0049063D03*
X0945581Y0049063D03*
X0945581Y0025441D03*
X0851841Y0025441D03*
X0851841Y0049063D03*
X0758101Y0049063D03*
X0758101Y0025441D03*
X0392471Y0100441D03*
X0392471Y0124063D03*
X0317471Y0124063D03*
X0317471Y0100441D03*
X0242471Y0100441D03*
X0242471Y0124063D03*
X0167471Y0124063D03*
X0167471Y0100441D03*
X0092471Y0100441D03*
X0092471Y0124063D03*
X0008101Y0124063D03*
X0008101Y0100441D03*
X0008101Y0049063D03*
X0008101Y0025441D03*
X0101841Y0025441D03*
X0101841Y0049063D03*
X0195581Y0049063D03*
X0195581Y0025441D03*
D22*
G36*
X1174624Y0192628D02*
X1176597Y0194601D01*
X1180336Y0190862D01*
X1178363Y0188889D01*
X1174624Y0192628D01*
G37*
G36*
X1176816Y0194820D02*
X1178789Y0196793D01*
X1182528Y0193054D01*
X1180555Y0191081D01*
X1176816Y0194820D01*
G37*
G36*
X1179008Y0197012D02*
X1180981Y0198985D01*
X1184720Y0195246D01*
X1182747Y0193273D01*
X1179008Y0197012D01*
G37*
G36*
X1181200Y0199204D02*
X1183173Y0201177D01*
X1186912Y0197438D01*
X1184939Y0195465D01*
X1181200Y0199204D01*
G37*
G36*
X1183392Y0201396D02*
X1185365Y0203369D01*
X1189104Y0199630D01*
X1187131Y0197657D01*
X1183392Y0201396D01*
G37*
G36*
X1185584Y0203588D02*
X1187557Y0205561D01*
X1191296Y0201822D01*
X1189323Y0199849D01*
X1185584Y0203588D01*
G37*
G36*
X1187776Y0205780D02*
X1189749Y0207753D01*
X1193488Y0204014D01*
X1191515Y0202041D01*
X1187776Y0205780D01*
G37*
G36*
X1189968Y0207972D02*
X1191941Y0209945D01*
X1195680Y0206206D01*
X1193707Y0204233D01*
X1189968Y0207972D01*
G37*
G36*
X1192160Y0210164D02*
X1194133Y0212137D01*
X1197872Y0208398D01*
X1195899Y0206425D01*
X1192160Y0210164D01*
G37*
G36*
X1194352Y0212356D02*
X1196325Y0214329D01*
X1200064Y0210590D01*
X1198091Y0208617D01*
X1194352Y0212356D01*
G37*
G36*
X1196544Y0214548D02*
X1198517Y0216521D01*
X1202256Y0212782D01*
X1200283Y0210809D01*
X1196544Y0214548D01*
G37*
G36*
X1198736Y0216740D02*
X1200709Y0218713D01*
X1204448Y0214974D01*
X1202475Y0213001D01*
X1198736Y0216740D01*
G37*
G36*
X1200928Y0218932D02*
X1202901Y0220905D01*
X1206640Y0217166D01*
X1204667Y0215193D01*
X1200928Y0218932D01*
G37*
G36*
X1203120Y0221124D02*
X1205093Y0223097D01*
X1208832Y0219358D01*
X1206859Y0217385D01*
X1203120Y0221124D01*
G37*
G36*
X1205312Y0223316D02*
X1207285Y0225289D01*
X1211024Y0221550D01*
X1209051Y0219577D01*
X1205312Y0223316D01*
G37*
G36*
X1207504Y0225508D02*
X1209477Y0227481D01*
X1213216Y0223742D01*
X1211243Y0221769D01*
X1207504Y0225508D01*
G37*
G36*
X1250708Y0182304D02*
X1252681Y0184277D01*
X1256420Y0180538D01*
X1254447Y0178565D01*
X1250708Y0182304D01*
G37*
G36*
X1248516Y0180112D02*
X1250489Y0182085D01*
X1254228Y0178346D01*
X1252255Y0176373D01*
X1248516Y0180112D01*
G37*
G36*
X1246324Y0177920D02*
X1248297Y0179893D01*
X1252036Y0176154D01*
X1250063Y0174181D01*
X1246324Y0177920D01*
G37*
G36*
X1244132Y0175728D02*
X1246105Y0177701D01*
X1249844Y0173962D01*
X1247871Y0171989D01*
X1244132Y0175728D01*
G37*
G36*
X1241940Y0173536D02*
X1243913Y0175509D01*
X1247652Y0171770D01*
X1245679Y0169797D01*
X1241940Y0173536D01*
G37*
G36*
X1239748Y0171344D02*
X1241721Y0173317D01*
X1245460Y0169578D01*
X1243487Y0167605D01*
X1239748Y0171344D01*
G37*
G36*
X1237556Y0169152D02*
X1239529Y0171125D01*
X1243268Y0167386D01*
X1241295Y0165413D01*
X1237556Y0169152D01*
G37*
G36*
X1235364Y0166960D02*
X1237337Y0168933D01*
X1241076Y0165194D01*
X1239103Y0163221D01*
X1235364Y0166960D01*
G37*
G36*
X1233172Y0164768D02*
X1235145Y0166741D01*
X1238884Y0163002D01*
X1236911Y0161029D01*
X1233172Y0164768D01*
G37*
G36*
X1230980Y0162576D02*
X1232953Y0164549D01*
X1236692Y0160810D01*
X1234719Y0158837D01*
X1230980Y0162576D01*
G37*
G36*
X1228788Y0160383D02*
X1230761Y0162356D01*
X1234500Y0158617D01*
X1232527Y0156644D01*
X1228788Y0160383D01*
G37*
G36*
X1226596Y0158191D02*
X1228569Y0160164D01*
X1232308Y0156425D01*
X1230335Y0154452D01*
X1226596Y0158191D01*
G37*
G36*
X1224404Y0155999D02*
X1226377Y0157972D01*
X1230116Y0154233D01*
X1228143Y0152260D01*
X1224404Y0155999D01*
G37*
G36*
X1222212Y0153807D02*
X1224185Y0155780D01*
X1227924Y0152041D01*
X1225951Y0150068D01*
X1222212Y0153807D01*
G37*
G36*
X1220020Y0151615D02*
X1221993Y0153588D01*
X1225732Y0149849D01*
X1223759Y0147876D01*
X1220020Y0151615D01*
G37*
G36*
X1217828Y0149423D02*
X1219801Y0151396D01*
X1223540Y0147657D01*
X1221567Y0145684D01*
X1217828Y0149423D01*
G37*
D23*
G36*
X1207504Y0147657D02*
X1211243Y0151396D01*
X1213216Y0149423D01*
X1209477Y0145684D01*
X1207504Y0147657D01*
G37*
G36*
X1205312Y0149849D02*
X1209051Y0153588D01*
X1211024Y0151615D01*
X1207285Y0147876D01*
X1205312Y0149849D01*
G37*
G36*
X1203120Y0152041D02*
X1206859Y0155780D01*
X1208832Y0153807D01*
X1205093Y0150068D01*
X1203120Y0152041D01*
G37*
G36*
X1200928Y0154233D02*
X1204667Y0157972D01*
X1206640Y0155999D01*
X1202901Y0152260D01*
X1200928Y0154233D01*
G37*
G36*
X1198736Y0156425D02*
X1202475Y0160164D01*
X1204448Y0158191D01*
X1200709Y0154452D01*
X1198736Y0156425D01*
G37*
G36*
X1196544Y0158617D02*
X1200283Y0162356D01*
X1202256Y0160383D01*
X1198517Y0156644D01*
X1196544Y0158617D01*
G37*
G36*
X1194352Y0160810D02*
X1198091Y0164549D01*
X1200064Y0162576D01*
X1196325Y0158837D01*
X1194352Y0160810D01*
G37*
G36*
X1192160Y0163002D02*
X1195899Y0166741D01*
X1197872Y0164768D01*
X1194133Y0161029D01*
X1192160Y0163002D01*
G37*
G36*
X1189968Y0165194D02*
X1193707Y0168933D01*
X1195680Y0166960D01*
X1191941Y0163221D01*
X1189968Y0165194D01*
G37*
G36*
X1187776Y0167386D02*
X1191515Y0171125D01*
X1193488Y0169152D01*
X1189749Y0165413D01*
X1187776Y0167386D01*
G37*
G36*
X1185584Y0169578D02*
X1189323Y0173317D01*
X1191296Y0171344D01*
X1187557Y0167605D01*
X1185584Y0169578D01*
G37*
G36*
X1183392Y0171770D02*
X1187131Y0175509D01*
X1189104Y0173536D01*
X1185365Y0169797D01*
X1183392Y0171770D01*
G37*
G36*
X1181200Y0173962D02*
X1184939Y0177701D01*
X1186912Y0175728D01*
X1183173Y0171989D01*
X1181200Y0173962D01*
G37*
G36*
X1179008Y0176154D02*
X1182747Y0179893D01*
X1184720Y0177920D01*
X1180981Y0174181D01*
X1179008Y0176154D01*
G37*
G36*
X1176816Y0178346D02*
X1180555Y0182085D01*
X1182528Y0180112D01*
X1178789Y0176373D01*
X1176816Y0178346D01*
G37*
G36*
X1174624Y0180538D02*
X1178363Y0184277D01*
X1180336Y0182304D01*
X1176597Y0178565D01*
X1174624Y0180538D01*
G37*
G36*
X1235364Y0206206D02*
X1239103Y0209945D01*
X1241076Y0207972D01*
X1237337Y0204233D01*
X1235364Y0206206D01*
G37*
G36*
X1233172Y0208398D02*
X1236911Y0212137D01*
X1238884Y0210164D01*
X1235145Y0206425D01*
X1233172Y0208398D01*
G37*
G36*
X1230980Y0210590D02*
X1234719Y0214329D01*
X1236692Y0212356D01*
X1232953Y0208617D01*
X1230980Y0210590D01*
G37*
G36*
X1228788Y0212782D02*
X1232527Y0216521D01*
X1234500Y0214548D01*
X1230761Y0210809D01*
X1228788Y0212782D01*
G37*
G36*
X1226596Y0214974D02*
X1230335Y0218713D01*
X1232308Y0216740D01*
X1228569Y0213001D01*
X1226596Y0214974D01*
G37*
G36*
X1224404Y0217166D02*
X1228143Y0220905D01*
X1230116Y0218932D01*
X1226377Y0215193D01*
X1224404Y0217166D01*
G37*
G36*
X1222212Y0219358D02*
X1225951Y0223097D01*
X1227924Y0221124D01*
X1224185Y0217385D01*
X1222212Y0219358D01*
G37*
G36*
X1220020Y0221550D02*
X1223759Y0225289D01*
X1225732Y0223316D01*
X1221993Y0219577D01*
X1220020Y0221550D01*
G37*
G36*
X1217828Y0223742D02*
X1221567Y0227481D01*
X1223540Y0225508D01*
X1219801Y0221769D01*
X1217828Y0223742D01*
G37*
G36*
X1237556Y0204014D02*
X1241295Y0207753D01*
X1243268Y0205780D01*
X1239529Y0202041D01*
X1237556Y0204014D01*
G37*
G36*
X1239748Y0201822D02*
X1243487Y0205561D01*
X1245460Y0203588D01*
X1241721Y0199849D01*
X1239748Y0201822D01*
G37*
G36*
X1241940Y0199630D02*
X1245679Y0203369D01*
X1247652Y0201396D01*
X1243913Y0197657D01*
X1241940Y0199630D01*
G37*
G36*
X1244132Y0197438D02*
X1247871Y0201177D01*
X1249844Y0199204D01*
X1246105Y0195465D01*
X1244132Y0197438D01*
G37*
G36*
X1246324Y0195246D02*
X1250063Y0198985D01*
X1252036Y0197012D01*
X1248297Y0193273D01*
X1246324Y0195246D01*
G37*
G36*
X1248516Y0193054D02*
X1252255Y0196793D01*
X1254228Y0194820D01*
X1250489Y0191081D01*
X1248516Y0193054D01*
G37*
G36*
X1250708Y0190862D02*
X1254447Y0194601D01*
X1256420Y0192628D01*
X1252681Y0188889D01*
X1250708Y0190862D01*
G37*
D24*
X1220207Y0393502D03*
X1210207Y0393502D03*
X1285257Y0393502D03*
X1295257Y0393502D03*
D25*
X1116900Y0091000D03*
X1116900Y0085000D03*
X1099400Y0085000D03*
X1099400Y0091000D03*
D26*
X1099400Y0088000D03*
X1116900Y0088000D03*
D27*
G36*
X1279543Y0152983D02*
X1274116Y0147556D01*
X1270359Y0151313D01*
X1275786Y0156740D01*
X1279543Y0152983D01*
G37*
G36*
X1273140Y0159386D02*
X1267713Y0153959D01*
X1263956Y0157716D01*
X1269383Y0163143D01*
X1273140Y0159386D01*
G37*
G36*
X1289844Y0163284D02*
X1284417Y0157857D01*
X1280660Y0161614D01*
X1286087Y0167041D01*
X1289844Y0163284D01*
G37*
G36*
X1283441Y0169687D02*
X1278014Y0164260D01*
X1274257Y0168017D01*
X1279684Y0173444D01*
X1283441Y0169687D01*
G37*
D28*
X1081900Y0168598D03*
X1081900Y0157402D03*
X1081900Y0179902D03*
X1081900Y0191098D03*
X0746900Y0023598D03*
X0746900Y0012402D03*
X1121900Y0367215D03*
X1138150Y0367215D03*
X1138150Y0378411D03*
X1121900Y0378411D03*
X0896900Y0417402D03*
X0896900Y0428598D03*
D29*
X0877498Y0373000D03*
X0866302Y0373000D03*
X0923802Y0373000D03*
X0934998Y0373000D03*
X0948802Y0373000D03*
X0959998Y0373000D03*
X1172350Y0415047D03*
X1183547Y0415047D03*
X1211302Y0373000D03*
X1222498Y0373000D03*
X1286302Y0373000D03*
X1297498Y0373000D03*
X1323802Y0385500D03*
X1334998Y0385500D03*
X1334998Y0410500D03*
X1323802Y0410500D03*
X1302498Y0235500D03*
X1291302Y0235500D03*
X1291302Y0208000D03*
X1302498Y0208000D03*
X1302498Y0193000D03*
X1291302Y0193000D03*
X0688783Y0085146D03*
X0677586Y0085146D03*
X0681302Y0013000D03*
X0692498Y0013000D03*
X0669998Y0013000D03*
X0658802Y0013000D03*
D30*
X0625837Y0025756D03*
X0623869Y0025756D03*
X0621900Y0025756D03*
X0619931Y0025756D03*
X0617963Y0025756D03*
X0615994Y0025756D03*
X0614026Y0025756D03*
X0612057Y0025756D03*
X0610089Y0025756D03*
X0608120Y0025756D03*
X0606152Y0025756D03*
X0604183Y0025756D03*
X0604183Y0056858D03*
X0606152Y0056858D03*
X0608120Y0056858D03*
X0610089Y0056858D03*
X0612057Y0056858D03*
X0614026Y0056858D03*
X0615994Y0056858D03*
X0617963Y0056858D03*
X0619931Y0056858D03*
X0621900Y0056858D03*
X0623869Y0056858D03*
X0625837Y0056858D03*
X0802471Y0383650D03*
X0804439Y0383650D03*
X0806408Y0383650D03*
X0808376Y0383650D03*
X0810345Y0383650D03*
X0812313Y0383650D03*
X0814282Y0383650D03*
X0816250Y0383650D03*
X0818219Y0383650D03*
X0820187Y0383650D03*
X0822156Y0383650D03*
X0824124Y0383650D03*
X0824124Y0414752D03*
X0822156Y0414752D03*
X0820187Y0414752D03*
X0818219Y0414752D03*
X0816250Y0414752D03*
X0814282Y0414752D03*
X0812313Y0414752D03*
X0810345Y0414752D03*
X0808376Y0414752D03*
X0806408Y0414752D03*
X0804439Y0414752D03*
X0802471Y0414752D03*
D31*
X0797746Y0410028D03*
X0797746Y0408059D03*
X0797746Y0406091D03*
X0797746Y0404122D03*
X0797746Y0402154D03*
X0797746Y0400185D03*
X0797746Y0398217D03*
X0797746Y0396248D03*
X0797746Y0394280D03*
X0797746Y0392311D03*
X0797746Y0390343D03*
X0797746Y0388374D03*
X0828849Y0388374D03*
X0828849Y0390343D03*
X0828849Y0392311D03*
X0828849Y0394280D03*
X0828849Y0396248D03*
X0828849Y0398217D03*
X0828849Y0400185D03*
X0828849Y0402154D03*
X0828849Y0404122D03*
X0828849Y0406091D03*
X0828849Y0408059D03*
X0828849Y0410028D03*
X0630561Y0052134D03*
X0630561Y0050165D03*
X0630561Y0048197D03*
X0630561Y0046228D03*
X0630561Y0044260D03*
X0630561Y0042291D03*
X0630561Y0040323D03*
X0630561Y0038354D03*
X0630561Y0036386D03*
X0630561Y0034417D03*
X0630561Y0032449D03*
X0630561Y0030480D03*
X0599459Y0030480D03*
X0599459Y0032449D03*
X0599459Y0034417D03*
X0599459Y0036386D03*
X0599459Y0038354D03*
X0599459Y0040323D03*
X0599459Y0042291D03*
X0599459Y0044260D03*
X0599459Y0046228D03*
X0599459Y0048197D03*
X0599459Y0050165D03*
X0599459Y0052134D03*
D32*
X0615010Y0041307D03*
X0813298Y0399201D03*
D33*
X1352294Y0404378D03*
X1352294Y0412646D03*
X1352294Y0385087D03*
X1352294Y0376819D03*
D34*
X1145650Y0409250D03*
X1114400Y0415500D03*
X0986900Y0403000D03*
X0984400Y0410500D03*
X0973775Y0414250D03*
X0955650Y0396125D03*
X0959400Y0379875D03*
X0918150Y0374875D03*
X0881900Y0394875D03*
X0833775Y0387375D03*
X0833150Y0397375D03*
X0820025Y0410500D03*
X0830650Y0423625D03*
X0788775Y0427375D03*
X0821275Y0446750D03*
X0918150Y0424875D03*
X0925650Y0417375D03*
X0825025Y0369875D03*
X0768775Y0391750D03*
X0782525Y0405500D03*
X1079400Y0303000D03*
X1123775Y0284250D03*
X1120025Y0253000D03*
X1211900Y0218625D03*
X1215025Y0211125D03*
X1208150Y0206125D03*
X1228150Y0210500D03*
X1240650Y0211750D03*
X1267525Y0186125D03*
X1241275Y0176125D03*
X1246275Y0167375D03*
X1197525Y0186750D03*
X1131900Y0187375D03*
X1131900Y0211125D03*
X1303150Y0171750D03*
X1228150Y0082375D03*
X1209400Y0082375D03*
X0711900Y0039250D03*
X0698150Y0016750D03*
X0651900Y0024250D03*
X0643775Y0035500D03*
X0638775Y0052375D03*
X0625025Y0051125D03*
X0625025Y0066750D03*
X0689400Y0064250D03*
X0615025Y0093000D03*
X0650025Y0098000D03*
X0703150Y0119875D03*
X0549400Y0108625D03*
X0541900Y0072375D03*
X0553150Y0044250D03*
X0551900Y0018625D03*
X1303150Y0293000D03*
X1091900Y0325500D03*
D35*
X0818150Y0394875D03*
X0818150Y0399250D03*
X0818150Y0403625D03*
X0813150Y0403625D03*
X0808775Y0403625D03*
X0808775Y0399250D03*
X0813150Y0399250D03*
X0813150Y0394875D03*
X0808775Y0394875D03*
X0620025Y0045500D03*
X0620025Y0041125D03*
X0615025Y0041125D03*
X0615025Y0045500D03*
X0610025Y0045500D03*
X0610025Y0041125D03*
X0610025Y0036125D03*
X0615025Y0036125D03*
X0620025Y0036125D03*
D36*
X0648775Y0044875D03*
X0644400Y0049250D03*
X0716900Y0016750D03*
X0724400Y0005500D03*
X0675650Y0013625D03*
X0825025Y0078000D03*
X1013775Y0018000D03*
X1060025Y0039250D03*
X1103775Y0095500D03*
X1119400Y0095500D03*
X1108775Y0126125D03*
X1145650Y0128625D03*
X1151900Y0134875D03*
X1119400Y0139875D03*
X1175025Y0158000D03*
X1160025Y0167375D03*
X1188775Y0179250D03*
X1191275Y0174250D03*
X1208775Y0168000D03*
X1218150Y0164250D03*
X1220650Y0154875D03*
X1230650Y0148625D03*
X1218150Y0145500D03*
X1218150Y0134250D03*
X1255025Y0154250D03*
X1263775Y0155500D03*
X1280650Y0158625D03*
X1296275Y0164250D03*
X1277525Y0176750D03*
X1287525Y0180500D03*
X1283775Y0189250D03*
X1258150Y0193625D03*
X1253150Y0198625D03*
X1243775Y0194875D03*
X1265025Y0205500D03*
X1265025Y0215500D03*
X1221275Y0229250D03*
X1208775Y0229250D03*
X1209400Y0236125D03*
X1218150Y0245500D03*
X1206275Y0253625D03*
X1208775Y0216750D03*
X1170025Y0207375D03*
X1163150Y0189875D03*
X1181900Y0183625D03*
X1197525Y0182375D03*
X1191275Y0189875D03*
X1310650Y0193625D03*
X1309400Y0209875D03*
X1051275Y0278000D03*
X1032525Y0281750D03*
X1017525Y0281750D03*
X0934400Y0297375D03*
X1073775Y0359875D03*
X1089400Y0359875D03*
X1210650Y0348000D03*
X1216900Y0368625D03*
X1216900Y0378000D03*
X1221900Y0386125D03*
X1206275Y0396125D03*
X1152525Y0423000D03*
X1296900Y0386125D03*
X1288150Y0367375D03*
X1179400Y0309250D03*
X0961900Y0367375D03*
X0954400Y0371125D03*
X0954400Y0376125D03*
X0906900Y0385500D03*
X0900650Y0391750D03*
X0889400Y0372375D03*
X0871900Y0368625D03*
X0847525Y0368000D03*
X0806900Y0369250D03*
X0846275Y0404875D03*
X1036275Y0204250D03*
X1021900Y0163000D03*
X1021900Y0150500D03*
X0864400Y0152375D03*
D37*
X0874400Y0143625D03*
X0853775Y0128625D03*
X0865650Y0121125D03*
X0899400Y0119875D03*
X0927525Y0127375D03*
X0936275Y0133625D03*
X1008150Y0122375D03*
X1036275Y0117375D03*
X1046275Y0114875D03*
X1005025Y0106750D03*
X0991900Y0066125D03*
X1085650Y0066125D03*
X1111900Y0073625D03*
X1093150Y0052375D03*
X1146275Y0039250D03*
X1188775Y0066125D03*
X1175650Y0069875D03*
X1228150Y0069875D03*
X1263775Y0066125D03*
X1128150Y0114875D03*
X1166275Y0121125D03*
X1185025Y0119875D03*
X1198150Y0140500D03*
X1241275Y0121125D03*
X1293150Y0137375D03*
X1296275Y0134875D03*
X1032525Y0241125D03*
X1012525Y0246750D03*
X1005025Y0234875D03*
X1040025Y0249875D03*
X1058775Y0256125D03*
X1061900Y0258625D03*
X1056900Y0261750D03*
X1018775Y0271125D03*
X1015650Y0278625D03*
X1032525Y0292375D03*
X1028150Y0305500D03*
X0971275Y0300500D03*
X0920025Y0282375D03*
X0875650Y0278625D03*
X0853150Y0270500D03*
X0844400Y0281750D03*
X0832525Y0291125D03*
X0853150Y0295500D03*
X0768150Y0282375D03*
X0754400Y0291750D03*
X0690025Y0277375D03*
X0682525Y0291125D03*
X0688150Y0294250D03*
X0683150Y0299250D03*
X0607525Y0291125D03*
X0553775Y0295500D03*
X0528150Y0291125D03*
X0541275Y0277375D03*
X0482525Y0277375D03*
X0457525Y0291125D03*
X0481900Y0294250D03*
X0407525Y0277375D03*
X0382525Y0291125D03*
X0315650Y0277375D03*
X0303150Y0291125D03*
X0228150Y0291125D03*
X0153150Y0291125D03*
X0075025Y0291125D03*
X0075025Y0277375D03*
X0140025Y0217375D03*
X0129400Y0211125D03*
X0180650Y0216125D03*
X0251275Y0216125D03*
X0300650Y0219875D03*
X0326275Y0216125D03*
X0362525Y0219875D03*
X0401275Y0216125D03*
X0437525Y0219875D03*
X0476275Y0216125D03*
X0476900Y0223000D03*
X0512525Y0219875D03*
X0551275Y0216125D03*
X0598775Y0219250D03*
X0600025Y0224875D03*
X0637525Y0221750D03*
X0675025Y0218625D03*
X0701275Y0216125D03*
X0705650Y0228000D03*
X0750025Y0219250D03*
X0776275Y0216125D03*
X0825025Y0219250D03*
X0851275Y0216125D03*
X0860025Y0224250D03*
X0900025Y0219250D03*
X0926275Y0216125D03*
X0956900Y0216125D03*
X0966900Y0216125D03*
X0901900Y0239250D03*
X1126900Y0265500D03*
X1130025Y0249875D03*
X1163150Y0252375D03*
X1163150Y0256750D03*
X1146900Y0288000D03*
X1179400Y0296750D03*
X1179400Y0303000D03*
X1196900Y0299875D03*
X1224400Y0302375D03*
X1146900Y0306125D03*
X1134400Y0310500D03*
X1122525Y0310500D03*
X1072525Y0328000D03*
X1037525Y0343000D03*
X1070650Y0356750D03*
X1087525Y0356750D03*
X1057525Y0368625D03*
X1019400Y0379250D03*
X0952525Y0383000D03*
X0920650Y0365500D03*
X0866900Y0378625D03*
X0861275Y0382375D03*
X0849400Y0379250D03*
X0827525Y0376750D03*
X0823150Y0374250D03*
X0818775Y0374250D03*
X0807525Y0373625D03*
X0813150Y0366750D03*
X0806900Y0362375D03*
X0833150Y0359875D03*
X0846900Y0364250D03*
X0836275Y0346125D03*
X0796275Y0346125D03*
X0761900Y0362375D03*
X0766900Y0371750D03*
X0779400Y0369250D03*
X0806275Y0388000D03*
X0785650Y0395500D03*
X0800650Y0424250D03*
X0803775Y0426750D03*
X0809400Y0429875D03*
X0816900Y0425500D03*
X0825025Y0430500D03*
X0841900Y0427375D03*
X0861275Y0431750D03*
X0870650Y0422375D03*
X0905025Y0441125D03*
X0944400Y0446125D03*
X1016275Y0457375D03*
X1022525Y0449250D03*
X1066900Y0457375D03*
X1106900Y0466750D03*
X1123775Y0452375D03*
X1136900Y0452375D03*
X1157525Y0455500D03*
X1158775Y0432375D03*
X1097525Y0426125D03*
X1063150Y0417375D03*
X1162525Y0411750D03*
X1196900Y0365500D03*
X1143775Y0363000D03*
X1126900Y0356750D03*
X0883775Y0329875D03*
X0818775Y0329875D03*
X0724400Y0368625D03*
X0695025Y0366125D03*
X0645025Y0369250D03*
X0620025Y0366125D03*
X0574400Y0369250D03*
X0548775Y0366125D03*
X0538150Y0359875D03*
X0473150Y0365500D03*
X0460025Y0359875D03*
X0398150Y0365500D03*
X0353775Y0368625D03*
X0323150Y0365500D03*
X0270025Y0368625D03*
X0248150Y0365500D03*
X0210650Y0368625D03*
X0170025Y0366125D03*
X0147525Y0357375D03*
X0144400Y0362375D03*
X0071900Y0356750D03*
X0048150Y0366125D03*
X0228775Y0398625D03*
X0266275Y0439875D03*
X0300650Y0439875D03*
X0308150Y0458625D03*
X0376900Y0458625D03*
X0390025Y0456125D03*
X0429400Y0457375D03*
X0428775Y0475500D03*
X0471900Y0451750D03*
X0521275Y0455500D03*
X0573150Y0444250D03*
X0596275Y0455500D03*
X0648150Y0444250D03*
X0671275Y0455500D03*
X0723150Y0444250D03*
X0753775Y0458625D03*
X0770650Y0458625D03*
X0795025Y0475500D03*
X0818150Y0466750D03*
X0821275Y0474250D03*
X0815025Y0458625D03*
X0812525Y0437375D03*
X0793150Y0427375D03*
X0864400Y0458625D03*
X0872525Y0458625D03*
X0150650Y0443000D03*
X0625650Y0196125D03*
X0646275Y0180500D03*
X0621900Y0164250D03*
X0656275Y0159250D03*
X0690650Y0146125D03*
X0708775Y0159250D03*
X0663775Y0142375D03*
X0606275Y0141125D03*
X0603150Y0144875D03*
X0597525Y0128625D03*
X0621900Y0115500D03*
X0631275Y0106750D03*
X0678150Y0093625D03*
X0671275Y0086750D03*
X0653150Y0083625D03*
X0638775Y0086125D03*
X0618150Y0084250D03*
X0621275Y0075500D03*
X0618775Y0068625D03*
X0611900Y0075500D03*
X0597525Y0078625D03*
X0595650Y0081750D03*
X0588150Y0079250D03*
X0575650Y0081750D03*
X0590650Y0071750D03*
X0594400Y0069250D03*
X0597525Y0066125D03*
X0607525Y0064875D03*
X0585025Y0064250D03*
X0575650Y0061125D03*
X0569400Y0054875D03*
X0566275Y0061125D03*
X0546900Y0058000D03*
X0560025Y0051750D03*
X0593150Y0037375D03*
X0603775Y0053000D03*
X0640650Y0060500D03*
X0646900Y0072375D03*
X0648775Y0075500D03*
X0659400Y0069250D03*
X0678150Y0069250D03*
X0703150Y0061125D03*
X0721900Y0051125D03*
X0729400Y0054875D03*
X0734400Y0060500D03*
X0746275Y0054875D03*
X0781275Y0069875D03*
X0772525Y0074250D03*
X0762525Y0077375D03*
X0746900Y0074250D03*
X0748775Y0086125D03*
X0696275Y0087375D03*
X0710025Y0106750D03*
X0751275Y0119250D03*
X0808150Y0121125D03*
X0810025Y0089250D03*
X0860025Y0089250D03*
X0893775Y0066125D03*
X0813150Y0065500D03*
X0813150Y0052375D03*
X0870025Y0014875D03*
X0764400Y0008625D03*
X0668150Y0051125D03*
X0669400Y0054875D03*
X0626275Y0021750D03*
X0628150Y0018625D03*
X0620650Y0018625D03*
X0615025Y0013000D03*
X0610650Y0011750D03*
X0602525Y0015500D03*
X0604400Y0019250D03*
X0594400Y0019250D03*
X0637525Y0012375D03*
X0550025Y0025500D03*
X0548150Y0028625D03*
X0535025Y0010500D03*
X0486900Y0044250D03*
X0560025Y0069875D03*
X0508150Y0081750D03*
X0530025Y0094250D03*
X0555650Y0098000D03*
X0518775Y0121125D03*
X0538150Y0127375D03*
X0556275Y0144875D03*
X0568150Y0156125D03*
X0513775Y0141125D03*
X0471900Y0120500D03*
X0488150Y0110500D03*
X0441275Y0121125D03*
X0438775Y0141125D03*
X0363775Y0141125D03*
X0361900Y0145500D03*
X0325650Y0144875D03*
X0288775Y0141125D03*
X0251275Y0144875D03*
X0213775Y0141125D03*
X0175025Y0144875D03*
X0135650Y0141125D03*
X0100025Y0144875D03*
X0067525Y0141125D03*
X0156275Y0079875D03*
X0146900Y0066125D03*
X0228775Y0069875D03*
X0241900Y0066125D03*
X0242525Y0043000D03*
X0321275Y0053625D03*
X0326900Y0039250D03*
X0062525Y0066125D03*
X0056900Y0046125D03*
X1003775Y0021125D03*
X1080650Y0011125D03*
X1215025Y0011750D03*
D38*
X1206275Y0008625D03*
X1103150Y0070500D03*
X1095650Y0102375D03*
X1156275Y0134875D03*
X1181275Y0141125D03*
X1193150Y0153000D03*
X1206275Y0159250D03*
X1203150Y0162375D03*
X1197525Y0168000D03*
X1226900Y0167375D03*
X1227525Y0186125D03*
X1221275Y0192375D03*
X1215025Y0195500D03*
X1235650Y0203000D03*
X1261900Y0193000D03*
X1203775Y0211750D03*
X1198150Y0206125D03*
X1199400Y0199875D03*
X1191275Y0199250D03*
X1188150Y0209250D03*
X1197525Y0218625D03*
X1171900Y0213625D03*
X1163150Y0204875D03*
X1156900Y0221750D03*
X1128775Y0198000D03*
X1079400Y0197375D03*
X1116275Y0175500D03*
X1123775Y0178625D03*
X1136900Y0172375D03*
X1148775Y0164875D03*
X1153150Y0164875D03*
X1128150Y0153000D03*
X1081900Y0146750D03*
X1051275Y0162375D03*
X1025650Y0162375D03*
X1018775Y0174875D03*
X1018775Y0180500D03*
X1018775Y0196125D03*
X1014400Y0199250D03*
X1032525Y0199250D03*
X0996900Y0235500D03*
X1032525Y0253000D03*
X1018775Y0266750D03*
X1066275Y0245500D03*
X1116900Y0271750D03*
X1228150Y0274250D03*
X1356275Y0263000D03*
X1237525Y0218625D03*
X1183775Y0189875D03*
X0993150Y0144875D03*
X0988775Y0085500D03*
X0941900Y0046125D03*
X1000650Y0009250D03*
X0837525Y0069250D03*
X0745025Y0094250D03*
X0763775Y0140500D03*
X0754400Y0149875D03*
X0750650Y0153000D03*
X0696275Y0156125D03*
X0693150Y0164250D03*
X0707525Y0193000D03*
X0778775Y0193000D03*
X0895025Y0224250D03*
X0721275Y0257375D03*
X0713775Y0241750D03*
X0629400Y0234250D03*
X0693150Y0308625D03*
X0603150Y0346125D03*
X0734400Y0391750D03*
X0740650Y0392375D03*
X0837525Y0417375D03*
X0785650Y0461750D03*
X0815650Y0473625D03*
X0821275Y0469250D03*
X1109400Y0480500D03*
X1112525Y0473000D03*
X1126900Y0349250D03*
X1087525Y0349250D03*
X1066900Y0349250D03*
X0993775Y0339875D03*
X0903150Y0345500D03*
X0833150Y0313625D03*
X0905650Y0310500D03*
X1203150Y0334875D03*
X1227525Y0106750D03*
X0710650Y0033625D03*
X0678150Y0033625D03*
X0653150Y0008625D03*
X0485650Y0034875D03*
X0615025Y0104875D03*
X0550025Y0149875D03*
X0265650Y0228000D03*
X0232525Y0294250D03*
X0307525Y0294250D03*
X0378150Y0346125D03*
X0456900Y0311125D03*
X0191275Y0478000D03*
X0223150Y0121125D03*
M02*
