%
M48
M72
T01C0.01181
T02C0.01200
T03C0.01400
T04C0.01600
T05C0.03150
T06C0.03200
T07C0.03937
T08C0.04000
T09C0.05118
T10C0.06299
T11C0.12008
T12C0.15748
%
T01
X644400Y49250
X648775Y44875
X716900Y16750
X724400Y5500
X675650Y13625
X825025Y78000
X1013775Y18000
X1060025Y39250
X1103775Y95500
X1119400Y95500
X1108775Y126125
X1145650Y128625
X1151900Y134875
X1119400Y139875
X1175025Y158000
X1160025Y167375
X1188775Y179250
X1191275Y174250
X1208775Y168000
X1218150Y164250
X1220650Y154875
X1230650Y148625
X1218150Y145500
X1218150Y134250
X1255025Y154250
X1263775Y155500
X1280650Y158625
X1296275Y164250
X1277525Y176750
X1287525Y180500
X1283775Y189250
X1258150Y193625
X1253150Y198625
X1243775Y194875
X1265025Y205500
X1265025Y215500
X1221275Y229250
X1208775Y229250
X1209400Y236125
X1218150Y245500
X1206275Y253625
X1208775Y216750
X1170025Y207375
X1163150Y189875
X1181900Y183625
X1197525Y182375
X1191275Y189875
X1310650Y193625
X1309400Y209875
X1051275Y278000
X1032525Y281750
X1017525Y281750
X934400Y297375
X1073775Y359875
X1089400Y359875
X1210650Y348000
X1216900Y368625
X1216900Y378000
X1221900Y386125
X1206275Y396125
X1152525Y423000
X1296900Y386125
X1288150Y367375
X1179400Y309250
X961900Y367375
X954400Y371125
X954400Y376125
X906900Y385500
X900650Y391750
X889400Y372375
X871900Y368625
X847525Y368000
X806900Y369250
X846275Y404875
X1036275Y204250
X1021900Y163000
X1021900Y150500
X864400Y152375
T02
X874400Y143625
X853775Y128625
X865650Y121125
X899400Y119875
X927525Y127375
X936275Y133625
X1008150Y122375
X1036275Y117375
X1046275Y114875
X1005025Y106750
X991900Y66125
X1085650Y66125
X1111900Y73625
X1093150Y52375
X1146275Y39250
X1188775Y66125
X1175650Y69875
X1228150Y69875
X1263775Y66125
X1128150Y114875
X1166275Y121125
X1185025Y119875
X1198150Y140500
X1241275Y121125
X1293150Y137375
X1296275Y134875
X1032525Y241125
X1012525Y246750
X1005025Y234875
X1040025Y249875
X1058775Y256125
X1061900Y258625
X1056900Y261750
X1018775Y271125
X1015650Y278625
X1032525Y292375
X1028150Y305500
X971275Y300500
X920025Y282375
X875650Y278625
X853150Y270500
X844400Y281750
X832525Y291125
X853150Y295500
X768150Y282375
X754400Y291750
X690025Y277375
X682525Y291125
X688150Y294250
X683150Y299250
X607525Y291125
X553775Y295500
X528150Y291125
X541275Y277375
X482525Y277375
X457525Y291125
X481900Y294250
X407525Y277375
X382525Y291125
X315650Y277375
X303150Y291125
X228150Y291125
X153150Y291125
X75025Y291125
X75025Y277375
X140025Y217375
X129400Y211125
X180650Y216125
X251275Y216125
X300650Y219875
X326275Y216125
X362525Y219875
X401275Y216125
X437525Y219875
X476275Y216125
X476900Y223000
X512525Y219875
X551275Y216125
X598775Y219250
X600025Y224875
X637525Y221750
X675025Y218625
X701275Y216125
X705650Y228000
X750025Y219250
X776275Y216125
X825025Y219250
X851275Y216125
X860025Y224250
X900025Y219250
X926275Y216125
X956900Y216125
X966900Y216125
X901900Y239250
X1126900Y265500
X1130025Y249875
X1163150Y252375
X1163150Y256750
X1146900Y288000
X1179400Y296750
X1179400Y303000
X1196900Y299875
X1224400Y302375
X1146900Y306125
X1134400Y310500
X1122525Y310500
X1072525Y328000
X1037525Y343000
X1070650Y356750
X1087525Y356750
X1057525Y368625
X1019400Y379250
X952525Y383000
X920650Y365500
X866900Y378625
X861275Y382375
X849400Y379250
X827525Y376750
X823150Y374250
X818775Y374250
X807525Y373625
X813150Y366750
X806900Y362375
X833150Y359875
X846900Y364250
X836275Y346125
X796275Y346125
X761900Y362375
X766900Y371750
X779400Y369250
X806275Y388000
X785650Y395500
X800650Y424250
X803775Y426750
X809400Y429875
X816900Y425500
X825025Y430500
X841900Y427375
X861275Y431750
X870650Y422375
X905025Y441125
X944400Y446125
X1016275Y457375
X1022525Y449250
X1066900Y457375
X1106900Y466750
X1123775Y452375
X1136900Y452375
X1157525Y455500
X1158775Y432375
X1097525Y426125
X1063150Y417375
X1162525Y411750
X1196900Y365500
X1143775Y363000
X1126900Y356750
X883775Y329875
X818775Y329875
X724400Y368625
X695025Y366125
X645025Y369250
X620025Y366125
X574400Y369250
X548775Y366125
X538150Y359875
X473150Y365500
X460025Y359875
X398150Y365500
X353775Y368625
X323150Y365500
X270025Y368625
X248150Y365500
X210650Y368625
X170025Y366125
X147525Y357375
X144400Y362375
X71900Y356750
X48150Y366125
X228775Y398625
X266275Y439875
X300650Y439875
X308150Y458625
X376900Y458625
X390025Y456125
X429400Y457375
X428775Y475500
X471900Y451750
X521275Y455500
X573150Y444250
X596275Y455500
X648150Y444250
X671275Y455500
X723150Y444250
X753775Y458625
X770650Y458625
X795025Y475500
X818150Y466750
X821275Y474250
X815025Y458625
X812525Y437375
X793150Y427375
X864400Y458625
X872525Y458625
X150650Y443000
X625650Y196125
X646275Y180500
X621900Y164250
X656275Y159250
X690650Y146125
X708775Y159250
X663775Y142375
X606275Y141125
X603150Y144875
X597525Y128625
X621900Y115500
X631275Y106750
X678150Y93625
X671275Y86750
X653150Y83625
X638775Y86125
X618150Y84250
X621275Y75500
X618775Y68625
X611900Y75500
X597525Y78625
X595650Y81750
X588150Y79250
X575650Y81750
X590650Y71750
X594400Y69250
X597525Y66125
X607525Y64875
X585025Y64250
X575650Y61125
X569400Y54875
X566275Y61125
X546900Y58000
X560025Y51750
X593150Y37375
X603775Y53000
X640650Y60500
X646900Y72375
X648775Y75500
X659400Y69250
X678150Y69250
X703150Y61125
X721900Y51125
X729400Y54875
X734400Y60500
X746275Y54875
X781275Y69875
X772525Y74250
X762525Y77375
X746900Y74250
X748775Y86125
X696275Y87375
X710025Y106750
X751275Y119250
X808150Y121125
X810025Y89250
X860025Y89250
X893775Y66125
X813150Y65500
X813150Y52375
X870025Y14875
X764400Y8625
X668150Y51125
X669400Y54875
X626275Y21750
X628150Y18625
X620650Y18625
X615025Y13000
X610650Y11750
X602525Y15500
X604400Y19250
X594400Y19250
X637525Y12375
X550025Y25500
X548150Y28625
X535025Y10500
X486900Y44250
X560025Y69875
X508150Y81750
X530025Y94250
X555650Y98000
X518775Y121125
X538150Y127375
X556275Y144875
X568150Y156125
X513775Y141125
X471900Y120500
X488150Y110500
X441275Y121125
X438775Y141125
X363775Y141125
X361900Y145500
X325650Y144875
X288775Y141125
X251275Y144875
X213775Y141125
X175025Y144875
X135650Y141125
X100025Y144875
X67525Y141125
X156275Y79875
X146900Y66125
X228775Y69875
X241900Y66125
X242525Y43000
X321275Y53625
X326900Y39250
X62525Y66125
X56900Y46125
X1003775Y21125
X1080650Y11125
X1215025Y11750
T03
X1206275Y8625
X1103150Y70500
X1095650Y102375
X1156275Y134875
X1181275Y141125
X1193150Y153000
X1206275Y159250
X1203150Y162375
X1197525Y168000
X1226900Y167375
X1227525Y186125
X1221275Y192375
X1215025Y195500
X1235650Y203000
X1261900Y193000
X1203775Y211750
X1198150Y206125
X1199400Y199875
X1191275Y199250
X1188150Y209250
X1197525Y218625
X1171900Y213625
X1163150Y204875
X1156900Y221750
X1128775Y198000
X1079400Y197375
X1116275Y175500
X1123775Y178625
X1136900Y172375
X1148775Y164875
X1153150Y164875
X1128150Y153000
X1081900Y146750
X1051275Y162375
X1025650Y162375
X1018775Y174875
X1018775Y180500
X1018775Y196125
X1014400Y199250
X1032525Y199250
X996900Y235500
X1032525Y253000
X1018775Y266750
X1066275Y245500
X1116900Y271750
X1228150Y274250
X1356275Y263000
X1237525Y218625
X1183775Y189875
X993150Y144875
X988775Y85500
X941900Y46125
X1000650Y9250
X837525Y69250
X745025Y94250
X763775Y140500
X754400Y149875
X750650Y153000
X696275Y156125
X693150Y164250
X707525Y193000
X778775Y193000
X895025Y224250
X721275Y257375
X713775Y241750
X629400Y234250
X693150Y308625
X603150Y346125
X734400Y391750
X740650Y392375
X837525Y417375
X785650Y461750
X815650Y473625
X821275Y469250
X1109400Y480500
X1112525Y473000
X1126900Y349250
X1087525Y349250
X1066900Y349250
X993775Y339875
X903150Y345500
X833150Y313625
X905650Y310500
X1203150Y334875
X1227525Y106750
X710650Y33625
X678150Y33625
X653150Y8625
X485650Y34875
X615025Y104875
X550025Y149875
X265650Y228000
X232525Y294250
X307525Y294250
X378150Y346125
X456900Y311125
X191275Y478000
X223150Y121125
T04
X541900Y72375
X553150Y44250
X610025Y45500
X610025Y41125
X610025Y36125
X615025Y36125
X620025Y36125
X620025Y41125
X620025Y45500
X615025Y45500
X615025Y41125
X625025Y51125
X638775Y52375
X643775Y35500
X651900Y24250
X698150Y16750
X711900Y39250
X689400Y64250
X625025Y66750
X615025Y93000
X650025Y98000
X703150Y119875
X549400Y108625
X551900Y18625
X1131900Y187375
X1131900Y211125
X1197525Y186750
X1208150Y206125
X1215025Y211125
X1228150Y210500
X1240650Y211750
X1211900Y218625
X1267525Y186125
X1241275Y176125
X1246275Y167375
X1303150Y171750
X1120025Y253000
X1123775Y284250
X1079400Y303000
X1091900Y325500
X959400Y379875
X955650Y396125
X986900Y403000
X984400Y410500
X973775Y414250
X925650Y417375
X918150Y424875
X881900Y394875
X833775Y387375
X833150Y397375
X818150Y399250
X818150Y394875
X813150Y394875
X808775Y394875
X808775Y399250
X813150Y399250
X813150Y403625
X808775Y403625
X818150Y403625
X820025Y410500
X830650Y423625
X788775Y427375
X821275Y446750
X782525Y405500
X768775Y391750
X825025Y369875
X918150Y374875
X1114400Y415500
X1145650Y409250
X1303150Y293000
X1228150Y82375
X1209400Y82375
T05
X1217471Y100441
X1217471Y124063
X1292471Y124063
X1292471Y100441
X1292471Y49063
X1292471Y25441
X1217471Y25441
X1217471Y49063
X1142471Y49063
X1142471Y25441
X1039321Y25441
X1039321Y49063
X945581Y49063
X945581Y25441
X851841Y25441
X851841Y49063
X758101Y49063
X758101Y25441
X767471Y100441
X767471Y124063
X842471Y124063
X842471Y100441
X950601Y100441
X950601Y124063
X954951Y175441
X954951Y199063
X879951Y199063
X879951Y175441
X804951Y175441
X804951Y199063
X729951Y199063
X729951Y175441
X654951Y175441
X654951Y199063
X579951Y199063
X579951Y175441
X504951Y175441
X504951Y199063
X429951Y199063
X429951Y175441
X354951Y175441
X354951Y199063
X279951Y199063
X279951Y175441
X204951Y175441
X204951Y199063
X129951Y199063
X129951Y175441
X26841Y175441
X26841Y199063
X17471Y250441
X17471Y274063
X22156Y300175
X45778Y300175
X111211Y274063
X111211Y250441
X186211Y250441
X186211Y274063
X261211Y274063
X261211Y250441
X336211Y250441
X336211Y274063
X411211Y274063
X411211Y250441
X486211Y250441
X486211Y274063
X561211Y274063
X561211Y250441
X636211Y250441
X636211Y274063
X711211Y274063
X711211Y250441
X786211Y250441
X786211Y274063
X861211Y274063
X861211Y250441
X936211Y250441
X936211Y274063
X898731Y325441
X898731Y349063
X823731Y349063
X823731Y325441
X748731Y325441
X748731Y349063
X673731Y349063
X673731Y325441
X598731Y325441
X598731Y349063
X523731Y349063
X523731Y325441
X448731Y325441
X448731Y349063
X373731Y349063
X373731Y325441
X298731Y325441
X298731Y349063
X223731Y349063
X223731Y325441
X148731Y325441
X148731Y349063
X73731Y349063
X73731Y325441
X45778Y412675
X22156Y412675
X73731Y437941
X73731Y461563
X186211Y461563
X186211Y437941
X261211Y437941
X261211Y461563
X336211Y461563
X336211Y437941
X411211Y437941
X411211Y461563
X504951Y461563
X504951Y437941
X579951Y437941
X579951Y461563
X654951Y461563
X654951Y437941
X729951Y437941
X729951Y461563
X823731Y461563
X823731Y437941
X898731Y437941
X898731Y461563
X973731Y461563
X973731Y437941
X1048731Y437941
X1048731Y461563
X1152471Y436563
X1152471Y412941
X1217471Y437941
X1217471Y461563
X1292471Y461563
X1292471Y437941
X1292471Y349063
X1292471Y325441
X1217471Y325441
X1217471Y349063
X1142471Y349063
X1142471Y325441
X1011211Y325441
X1011211Y349063
X1142471Y274063
X1142471Y250441
X1114321Y249063
X1114321Y225441
X1217471Y250441
X1217471Y274063
X1292471Y274063
X1292471Y250441
X1142471Y124063
X1142471Y100441
X692471Y100441
X692471Y124063
X617471Y124063
X617471Y100441
X542471Y100441
X542471Y124063
X467471Y124063
X467471Y100441
X392471Y100441
X392471Y124063
X317471Y124063
X317471Y100441
X242471Y100441
X242471Y124063
X167471Y124063
X167471Y100441
X92471Y100441
X92471Y124063
X8101Y124063
X8101Y100441
X8101Y49063
X8101Y25441
X101841Y25441
X101841Y49063
X195581Y49063
X195581Y25441
X476841Y25441
X476841Y49063
T06
X466900Y69000
X466900Y77000
X1111089Y318689
X1119089Y318689
X1210207Y393502
X1220207Y393502
X1285257Y393502
X1295257Y393502
X691900Y384500
X691900Y376500
T07
X693967Y357252
X703967Y357252
X713967Y357252
X723967Y357252
X768967Y357252
X778967Y357252
X788967Y357252
X798967Y357252
X843967Y357252
X853967Y357252
X863967Y357252
X873967Y357252
X918967Y357252
X928967Y357252
X938967Y357252
X948967Y357252
X1031447Y357252
X1041447Y357252
X1051447Y357252
X1061447Y357252
X1162707Y357252
X1172707Y357252
X1182707Y357252
X1192707Y357252
X1237707Y357252
X1247707Y357252
X1257707Y357252
X1267707Y357252
X1312707Y357252
X1322707Y357252
X1332707Y357252
X1342707Y357252
X1342707Y282252
X1332707Y282252
X1322707Y282252
X1312707Y282252
X1267707Y282252
X1257707Y282252
X1247707Y282252
X1237707Y282252
X1192707Y282252
X1182707Y282252
X1172707Y282252
X1162707Y282252
X1054557Y239752
X1054557Y229752
X1054557Y219752
X1054557Y209752
X1005187Y207252
X995187Y207252
X985187Y207252
X975187Y207252
X930187Y207252
X920187Y207252
X910187Y207252
X900187Y207252
X855187Y207252
X845187Y207252
X835187Y207252
X825187Y207252
X780187Y207252
X770187Y207252
X760187Y207252
X750187Y207252
X705187Y207252
X695187Y207252
X685187Y207252
X675187Y207252
X630187Y207252
X620187Y207252
X610187Y207252
X600187Y207252
X555187Y207252
X545187Y207252
X535187Y207252
X525187Y207252
X480187Y207252
X470187Y207252
X460187Y207252
X450187Y207252
X405187Y207252
X395187Y207252
X385187Y207252
X375187Y207252
X330187Y207252
X320187Y207252
X310187Y207252
X300187Y207252
X255187Y207252
X245187Y207252
X235187Y207252
X225187Y207252
X180187Y207252
X170187Y207252
X160187Y207252
X150187Y207252
X77077Y207252
X67077Y207252
X57077Y207252
X47077Y207252
X48337Y132252
X38337Y132252
X28337Y132252
X58337Y132252
X112707Y132252
X122707Y132252
X132707Y132252
X142707Y132252
X187707Y132252
X197707Y132252
X207707Y132252
X217707Y132252
X262707Y132252
X272707Y132252
X282707Y132252
X292707Y132252
X337707Y132252
X347707Y132252
X357707Y132252
X367707Y132252
X412707Y132252
X422707Y132252
X432707Y132252
X442707Y132252
X487707Y132252
X497707Y132252
X507707Y132252
X517707Y132252
X562707Y132252
X572707Y132252
X582707Y132252
X592707Y132252
X637707Y132252
X647707Y132252
X657707Y132252
X667707Y132252
X712707Y132252
X722707Y132252
X732707Y132252
X742707Y132252
X787707Y132252
X797707Y132252
X807707Y132252
X817707Y132252
X862707Y132252
X872707Y132252
X882707Y132252
X892707Y132252
X1003337Y132252
X1013337Y132252
X1023337Y132252
X1033337Y132252
X1162707Y132252
X1172707Y132252
X1182707Y132252
X1192707Y132252
X1237707Y132252
X1247707Y132252
X1257707Y132252
X1267707Y132252
X1312707Y132252
X1322707Y132252
X1332707Y132252
X1342707Y132252
X1342707Y57252
X1332707Y57252
X1322707Y57252
X1312707Y57252
X1267707Y57252
X1257707Y57252
X1247707Y57252
X1237707Y57252
X1192707Y57252
X1182707Y57252
X1172707Y57252
X1162707Y57252
X1089557Y57252
X1079557Y57252
X1069557Y57252
X1059557Y57252
X995817Y57252
X985817Y57252
X975817Y57252
X965817Y57252
X902077Y57252
X892077Y57252
X882077Y57252
X872077Y57252
X808337Y57252
X798337Y57252
X788337Y57252
X778337Y57252
X527077Y57252
X517077Y57252
X507077Y57252
X497077Y57252
X245817Y57252
X235817Y57252
X225817Y57252
X215817Y57252
X152077Y57252
X142077Y57252
X132077Y57252
X122077Y57252
X58337Y57252
X48337Y57252
X38337Y57252
X28337Y57252
X37707Y282252
X47707Y282252
X57707Y282252
X67707Y282252
X131447Y282252
X141447Y282252
X151447Y282252
X161447Y282252
X206447Y282252
X216447Y282252
X226447Y282252
X236447Y282252
X281447Y282252
X291447Y282252
X301447Y282252
X311447Y282252
X356447Y282252
X366447Y282252
X376447Y282252
X386447Y282252
X431447Y282252
X441447Y282252
X451447Y282252
X461447Y282252
X506447Y282252
X516447Y282252
X526447Y282252
X536447Y282252
X581447Y282252
X591447Y282252
X601447Y282252
X611447Y282252
X656447Y282252
X666447Y282252
X676447Y282252
X686447Y282252
X731447Y282252
X741447Y282252
X751447Y282252
X761447Y282252
X806447Y282252
X816447Y282252
X826447Y282252
X836447Y282252
X881447Y282252
X891447Y282252
X901447Y282252
X911447Y282252
X956447Y282252
X966447Y282252
X976447Y282252
X986447Y282252
X648967Y357252
X638967Y357252
X628967Y357252
X618967Y357252
X573967Y357252
X563967Y357252
X553967Y357252
X543967Y357252
X498967Y357252
X488967Y357252
X478967Y357252
X468967Y357252
X423967Y357252
X413967Y357252
X403967Y357252
X393967Y357252
X348967Y357252
X338967Y357252
X328967Y357252
X318967Y357252
X273967Y357252
X263967Y357252
X253967Y357252
X243967Y357252
X198967Y357252
X188967Y357252
X178967Y357252
X168967Y357252
X123967Y357252
X113967Y357252
X103967Y357252
X93967Y357252
X48967Y357252
X38967Y357252
X28967Y357252
X18967Y357252
X18967Y469752
X28967Y469752
X38967Y469752
X48967Y469752
X93967Y469752
X103967Y469752
X113967Y469752
X123967Y469752
X206447Y469752
X216447Y469752
X226447Y469752
X236447Y469752
X281447Y469752
X291447Y469752
X301447Y469752
X311447Y469752
X356447Y469752
X366447Y469752
X376447Y469752
X386447Y469752
X431447Y469752
X441447Y469752
X451447Y469752
X461447Y469752
X525187Y469752
X535187Y469752
X545187Y469752
X555187Y469752
X600187Y469752
X610187Y469752
X620187Y469752
X630187Y469752
X675187Y469752
X685187Y469752
X695187Y469752
X705187Y469752
X750187Y469752
X760187Y469752
X770187Y469752
X780187Y469752
X843967Y469752
X853967Y469752
X863967Y469752
X873967Y469752
X918967Y469752
X928967Y469752
X938967Y469752
X948967Y469752
X993967Y469752
X1003967Y469752
X1013967Y469752
X1023967Y469752
X1068967Y469752
X1078967Y469752
X1088967Y469752
X1098967Y469752
X1162707Y469752
X1172707Y469752
X1182707Y469752
X1192707Y469752
X1237707Y469752
X1247707Y469752
X1257707Y469752
X1267707Y469752
X1312707Y469752
X1322707Y469752
X1332707Y469752
X1342707Y469752
T08
X1180901Y398000
X1170901Y398000
X1145089Y398000
X1135089Y398000
X1125089Y398000
X1115089Y398000
X1071762Y397213
X1071762Y407213
X1325650Y299875
X1335650Y299875
X1345650Y299875
X1342825Y226275
X1317225Y226275
X1317225Y208475
X1320025Y197375
X1330025Y197375
X1340025Y197375
X1342825Y208475
X1318101Y177380
X1318101Y167380
X1318101Y157380
X1318101Y147380
X1337589Y153310
X1337589Y163310
X1337589Y173310
X1120089Y292252
X1110089Y292252
T09
X33337Y17252
X33494Y19535
X53180Y21504
X58337Y27252
X127235Y19535
X127077Y17252
X146920Y21504
X152077Y27252
X220975Y19535
X220817Y17252
X240660Y21504
X245817Y27252
X267707Y92252
X267865Y94535
X287550Y96504
X292707Y102252
X342865Y94535
X342707Y92252
X362550Y96504
X367707Y102252
X417865Y94535
X417707Y92252
X437550Y96504
X442707Y102252
X492865Y94535
X492707Y92252
X512550Y96504
X517707Y102252
X567865Y94535
X567707Y92252
X587550Y96504
X592707Y102252
X642865Y94535
X642707Y92252
X662550Y96504
X667707Y102252
X717865Y94535
X717707Y92252
X737550Y96504
X742707Y102252
X792865Y94535
X792707Y92252
X812550Y96504
X817707Y102252
X867865Y94535
X867707Y92252
X887550Y96504
X892707Y102252
X1008494Y94535
X1008337Y92252
X1028180Y96504
X1033337Y102252
X1167707Y92252
X1167865Y94535
X1187550Y96504
X1192707Y102252
X1242865Y94535
X1242707Y92252
X1262550Y96504
X1267707Y102252
X1317865Y94535
X1317707Y92252
X1337550Y96504
X1342707Y102252
X1342707Y27252
X1337550Y21504
X1317865Y19535
X1317707Y17252
X1267707Y27252
X1262550Y21504
X1242865Y19535
X1242707Y17252
X1192707Y27252
X1187550Y21504
X1167865Y19535
X1167707Y17252
X1089557Y27252
X1084400Y21504
X1064715Y19535
X1064557Y17252
X995817Y27252
X990660Y21504
X970975Y19535
X970817Y17252
X902077Y27252
X896920Y21504
X877235Y19535
X877077Y17252
X808337Y27252
X803180Y21504
X783494Y19535
X783337Y17252
X527077Y27252
X521920Y21504
X502235Y19535
X502077Y17252
X217707Y102252
X212550Y96504
X192865Y94535
X192707Y92252
X142707Y102252
X137550Y96504
X117865Y94535
X117707Y92252
X58337Y102252
X53180Y96504
X33494Y94535
X33337Y92252
X52077Y167252
X52235Y169535
X71920Y171504
X77077Y177252
X155345Y169535
X155187Y167252
X175030Y171504
X180187Y177252
X230345Y169535
X230187Y167252
X250030Y171504
X255187Y177252
X305345Y169535
X305187Y167252
X325030Y171504
X330187Y177252
X380345Y169535
X380187Y167252
X400030Y171504
X405187Y177252
X455345Y169535
X455187Y167252
X475030Y171504
X480187Y177252
X530345Y169535
X530187Y167252
X550030Y171504
X555187Y177252
X605345Y169535
X605187Y167252
X625030Y171504
X630187Y177252
X680345Y169535
X680187Y167252
X700030Y171504
X705187Y177252
X755345Y169535
X755187Y167252
X775030Y171504
X780187Y177252
X830345Y169535
X830187Y167252
X850030Y171504
X855187Y177252
X905345Y169535
X905187Y167252
X925030Y171504
X930187Y177252
X980345Y169535
X980187Y167252
X1000030Y171504
X1005187Y177252
X1092274Y214909
X1094557Y214752
X1090306Y234594
X1084557Y239752
X1167707Y242252
X1167865Y244535
X1187550Y246504
X1192707Y252252
X1242865Y244535
X1242707Y242252
X1262550Y246504
X1267707Y252252
X1317865Y244535
X1317707Y242252
X1337550Y246504
X1342707Y252252
X1317707Y317252
X1317865Y319535
X1337550Y321504
X1342707Y327252
X1267707Y327252
X1262550Y321504
X1242865Y319535
X1242707Y317252
X1192707Y327252
X1187550Y321504
X1167865Y319535
X1167707Y317252
X1061447Y327252
X1056290Y321504
X1036605Y319535
X1036447Y317252
X948967Y327252
X943809Y321504
X924124Y319535
X923967Y317252
X873967Y327252
X868809Y321504
X849124Y319535
X848967Y317252
X798967Y327252
X793809Y321504
X774124Y319535
X773967Y317252
X723967Y327252
X718809Y321504
X699124Y319535
X698967Y317252
X648967Y327252
X643809Y321504
X624124Y319535
X623967Y317252
X573967Y327252
X568809Y321504
X549124Y319535
X548967Y317252
X498967Y327252
X493809Y321504
X474124Y319535
X473967Y317252
X423967Y327252
X418809Y321504
X399124Y319535
X398967Y317252
X348967Y327252
X343809Y321504
X324124Y319535
X323967Y317252
X273967Y327252
X268809Y321504
X249124Y319535
X248967Y317252
X198967Y327252
X193809Y321504
X174124Y319535
X173967Y317252
X123967Y327252
X118809Y321504
X99124Y319535
X98967Y317252
X48967Y327252
X43809Y321504
X24124Y319535
X23967Y317252
X67707Y252252
X62550Y246504
X42865Y244535
X42707Y242252
X136447Y242252
X136605Y244535
X156290Y246504
X161447Y252252
X211605Y244535
X211447Y242252
X231290Y246504
X236447Y252252
X286605Y244535
X286447Y242252
X306290Y246504
X311447Y252252
X361605Y244535
X361447Y242252
X381290Y246504
X386447Y252252
X436605Y244535
X436447Y242252
X456290Y246504
X461447Y252252
X511605Y244535
X511447Y242252
X531290Y246504
X536447Y252252
X586447Y242252
X586605Y244535
X606290Y246504
X611447Y252252
X661605Y244535
X661447Y242252
X681290Y246504
X686447Y252252
X736447Y242252
X736605Y244535
X756290Y246504
X761447Y252252
X811605Y244535
X811447Y242252
X831290Y246504
X836447Y252252
X886447Y242252
X886605Y244535
X906290Y246504
X911447Y252252
X961605Y244535
X961447Y242252
X981290Y246504
X986447Y252252
X998967Y429752
X999124Y432035
X1018809Y434004
X1023967Y439752
X1074124Y432035
X1073967Y429752
X1093809Y434004
X1098967Y439752
X1167865Y432035
X1167707Y429752
X1187550Y434004
X1192707Y439752
X1242865Y432035
X1242707Y429752
X1262550Y434004
X1267707Y439752
X1317865Y432035
X1317707Y429752
X1337550Y434004
X1342707Y439752
X948967Y439752
X943809Y434004
X924124Y432035
X923967Y429752
X873967Y439752
X868809Y434004
X849124Y432035
X848967Y429752
X780187Y439752
X775030Y434004
X755345Y432035
X755187Y429752
X705187Y439752
X700030Y434004
X680345Y432035
X680187Y429752
X630187Y439752
X625030Y434004
X605345Y432035
X605187Y429752
X555187Y439752
X550030Y434004
X530345Y432035
X530187Y429752
X461447Y439752
X456290Y434004
X436605Y432035
X436447Y429752
X386447Y439752
X381290Y434004
X361605Y432035
X361447Y429752
X311447Y439752
X306290Y434004
X286605Y432035
X286447Y429752
X236447Y439752
X231290Y434004
X211605Y432035
X211447Y429752
X123967Y439752
X118809Y434004
X99124Y432035
X98967Y429752
X48967Y439752
X43809Y434004
X24124Y432035
X23967Y429752
T10
X13967Y449752
X53967Y449752
X88967Y449752
X128967Y449752
X201447Y449752
X241447Y449752
X276447Y449752
X316447Y449752
X351447Y449752
X391447Y449752
X426447Y449752
X466447Y449752
X520187Y449752
X560187Y449752
X595187Y449752
X635187Y449752
X670187Y449752
X710187Y449752
X745187Y449752
X785187Y449752
X838967Y449752
X878967Y449752
X913967Y449752
X953967Y449752
X988967Y449752
X1028967Y449752
X1063967Y449752
X1103967Y449752
X1157707Y449752
X1197707Y449752
X1232707Y449752
X1272707Y449752
X1307707Y449752
X1347707Y449752
X1347707Y337252
X1307707Y337252
X1272707Y337252
X1232707Y337252
X1197707Y337252
X1157707Y337252
X1066447Y337252
X1026447Y337252
X953967Y337252
X913967Y337252
X878967Y337252
X838967Y337252
X803967Y337252
X763967Y337252
X728967Y337252
X688967Y337252
X653967Y337252
X613967Y337252
X578967Y337252
X538967Y337252
X503967Y337252
X463967Y337252
X428967Y337252
X388967Y337252
X353967Y337252
X313967Y337252
X278967Y337252
X238967Y337252
X203967Y337252
X163967Y337252
X128967Y337252
X88967Y337252
X53967Y337252
X13967Y337252
X32707Y262252
X72707Y262252
X126447Y262252
X166447Y262252
X201447Y262252
X241447Y262252
X276447Y262252
X316447Y262252
X351447Y262252
X391447Y262252
X426447Y262252
X466447Y262252
X501447Y262252
X541447Y262252
X576447Y262252
X616447Y262252
X651447Y262252
X691447Y262252
X726447Y262252
X766447Y262252
X801447Y262252
X841447Y262252
X876447Y262252
X916447Y262252
X951447Y262252
X991447Y262252
X1074557Y244752
X1157707Y262252
X1197707Y262252
X1232707Y262252
X1272707Y262252
X1307707Y262252
X1347707Y262252
X1074557Y204752
X1010187Y187252
X970187Y187252
X935187Y187252
X895187Y187252
X860187Y187252
X820187Y187252
X785187Y187252
X745187Y187252
X710187Y187252
X670187Y187252
X635187Y187252
X595187Y187252
X560187Y187252
X520187Y187252
X485187Y187252
X445187Y187252
X410187Y187252
X370187Y187252
X335187Y187252
X295187Y187252
X260187Y187252
X220187Y187252
X185187Y187252
X145187Y187252
X82077Y187252
X42077Y187252
X23337Y112252
X63337Y112252
X107707Y112252
X147707Y112252
X182707Y112252
X222707Y112252
X257707Y112252
X297707Y112252
X332707Y112252
X372707Y112252
X407707Y112252
X447707Y112252
X482707Y112252
X522707Y112252
X557707Y112252
X597707Y112252
X632707Y112252
X672707Y112252
X707707Y112252
X747707Y112252
X782707Y112252
X822707Y112252
X857707Y112252
X897707Y112252
X998337Y112252
X1038337Y112252
X1157707Y112252
X1197707Y112252
X1232707Y112252
X1272707Y112252
X1307707Y112252
X1347707Y112252
X1347707Y37252
X1307707Y37252
X1272707Y37252
X1232707Y37252
X1197707Y37252
X1157707Y37252
X1094557Y37252
X1054557Y37252
X1000817Y37252
X960817Y37252
X907077Y37252
X867077Y37252
X813337Y37252
X773337Y37252
X532077Y37252
X492077Y37252
X250817Y37252
X210817Y37252
X157077Y37252
X117077Y37252
X63337Y37252
X23337Y37252
T11
X315227Y9693
X708928Y9693
X971487Y84693
X1065187Y84693
X1102117Y177902
X1102117Y271602
X1093298Y309693
X999597Y309693
T12
X1046447Y337252
X999597Y369693
X933967Y337252
X858967Y337252
X783967Y337252
X708967Y337252
X633967Y337252
X558967Y337252
X483967Y337252
X408967Y337252
X333967Y337252
X258967Y337252
X183967Y337252
X108967Y337252
X33967Y337252
X52707Y262252
X146447Y262252
X221447Y262252
X296447Y262252
X371447Y262252
X446447Y262252
X521447Y262252
X596447Y262252
X671447Y262252
X746447Y262252
X821447Y262252
X896447Y262252
X971447Y262252
X1042117Y271602
X1074557Y224752
X990187Y187252
X1042117Y177902
X1065187Y144693
X1018337Y112252
X971487Y144693
X877707Y112252
X802707Y112252
X727707Y112252
X652707Y112252
X577707Y112252
X502707Y112252
X427707Y112252
X352707Y112252
X277707Y112252
X202707Y112252
X127707Y112252
X43337Y112252
X62077Y187252
X165187Y187252
X240187Y187252
X315187Y187252
X390187Y187252
X465187Y187252
X540187Y187252
X615187Y187252
X690187Y187252
X765187Y187252
X840187Y187252
X915187Y187252
X1177707Y262252
X1252707Y262252
X1327707Y262252
X1327707Y337252
X1252707Y337252
X1177707Y337252
X1093298Y369693
X1083967Y449752
X1008967Y449752
X933967Y449752
X858967Y449752
X765187Y449752
X690187Y449752
X615187Y449752
X540187Y449752
X446447Y449752
X371447Y449752
X296447Y449752
X221447Y449752
X108967Y449752
X33967Y449752
X315227Y69693
X230817Y37252
X137077Y37252
X43337Y37252
X512077Y37252
X708928Y69693
X793337Y37252
X887077Y37252
X980817Y37252
X1074557Y37252
X1177707Y37252
X1252707Y37252
X1327707Y37252
X1327707Y112252
X1252707Y112252
X1177707Y112252
X1177707Y449752
X1252707Y449752
X1327707Y449752
M30
